<?xml version="1.0" encoding="UTF-8"?>
<!DOCTYPE svg PUBLIC "-//W3C//DTD SVG 1.1//EN" "http://www.w3.org/Graphics/SVG/1.1/DTD/svg11.dtd">
<svg xmlns="http://www.w3.org/2000/svg" version="1.1" width="640px" height="480px" style="shape-rendering:geometricPrecision; text-rendering:geometricPrecision; image-rendering:optimizeQuality; fill-rule:evenodd; clip-rule:evenodd" xmlns:xlink="http://www.w3.org/1999/xlink">
<g><path style="opacity:1" fill="#fe0000" d="M -0.5,-0.5 C 212.833,-0.5 426.167,-0.5 639.5,-0.5C 639.5,159.5 639.5,319.5 639.5,479.5C 426.167,479.5 212.833,479.5 -0.5,479.5C -0.5,319.5 -0.5,159.5 -0.5,-0.5 Z"/></g>
<g><path style="opacity:1" fill="#040000" d="M 306.5,115.5 C 304.302,116.165 301.969,116.832 299.5,117.5C 299.624,118.107 299.957,118.44 300.5,118.5C 305.036,119.435 309.036,121.435 312.5,124.5C 311.167,125.167 309.833,125.833 308.5,126.5C 312.195,130.526 315.862,134.526 319.5,138.5C 323.138,134.526 326.805,130.526 330.5,126.5C 329.167,125.833 327.833,125.167 326.5,124.5C 329.975,121.429 333.975,119.429 338.5,118.5C 339.376,118.631 340.043,118.298 340.5,117.5C 337.694,116.832 335.028,116.166 332.5,115.5C 335.916,111.755 339.916,108.755 344.5,106.5C 341.833,104.5 339.167,102.5 336.5,100.5C 344.82,99.5025 352.82,97.3359 360.5,94C 365.167,93.3333 369.833,93.3333 374.5,94C 376.618,94.2602 378.284,95.2602 379.5,97C 383.584,97.231 387.584,97.8976 391.5,99C 393.187,100.913 393.687,103.08 393,105.5C 387.827,101.264 383.327,102.097 379.5,108C 388.953,110.294 396.62,107.627 402.5,100C 403.167,99.3333 403.833,99.3333 404.5,100C 406.077,103.482 405.077,106.148 401.5,108C 398.392,109.759 395.059,110.592 391.5,110.5C 386.786,110.173 382.12,110.507 377.5,111.5C 377.624,112.107 377.957,112.44 378.5,112.5C 382.422,114.87 386.422,114.87 390.5,112.5C 391.167,112.5 391.833,112.5 392.5,112.5C 392.047,113.458 391.381,114.292 390.5,115C 380.225,117.121 370.225,120.121 360.5,124C 351.839,129.157 346.506,136.657 344.5,146.5C 344.707,155.882 349.374,160.048 358.5,159C 361.333,157.5 363.5,155.333 365,152.5C 365.155,146.439 365.322,140.439 365.5,134.5C 376.034,128.816 386.867,123.816 398,119.5C 400.048,121.053 402.215,122.386 404.5,123.5C 420.406,119.557 432.739,110.723 441.5,97C 444.661,96.7967 446.828,98.2967 448,101.5C 448.883,109.571 446.05,116.071 439.5,121C 428.753,128.461 416.92,132.961 404,134.5C 403.104,137.025 403.604,139.192 405.5,141C 414.816,142.372 423.816,141.372 432.5,138C 435.78,134.879 439.447,132.379 443.5,130.5C 446.542,131.048 447.876,132.881 447.5,136C 445.873,144.293 440.873,149.293 432.5,151C 423.444,153.162 414.444,152.996 405.5,150.5C 403.5,150.5 402.5,151.5 402.5,153.5C 403.606,156.441 405.606,158.608 408.5,160C 420.832,166.967 432.166,165.634 442.5,156C 443.833,155.333 445.167,155.333 446.5,156C 448.102,168.741 442.268,174.908 429,174.5C 420.189,174.284 412.023,171.95 404.5,167.5C 402.5,167.5 401.5,168.5 401.5,170.5C 402.942,173.777 405.275,176.277 408.5,178C 415.646,183.383 423.646,185.716 432.5,185C 436.422,183.353 440.422,182.353 444.5,182C 447.945,184.503 448.445,187.669 446,191.5C 440.757,195.227 434.924,196.393 428.5,195C 419.909,192.365 411.575,189.199 403.5,185.5C 403.357,187.262 403.691,188.929 404.5,190.5C 411.376,197.436 419.376,202.603 428.5,206C 433.859,206.359 439.193,206.359 444.5,206C 448.547,210.173 448.214,214.173 443.5,218C 439.594,219.434 435.594,219.767 431.5,219C 421.49,215.247 412.323,210.081 404,203.5C 403.228,203.645 402.561,203.978 402,204.5C 401.333,206.5 401.333,208.5 402,210.5C 408.401,219.896 416.901,226.73 427.5,231C 434.184,231.546 440.851,231.38 447.5,230.5C 448.1,234.516 447.1,238.016 444.5,241C 439.953,242.545 435.287,242.879 430.5,242C 418.923,237.705 409.256,230.705 401.5,221C 401.167,220.833 400.833,220.667 400.5,220.5C 399.398,223.19 399.564,225.857 401,228.5C 405.768,236.266 411.601,243.099 418.5,249C 426.98,254.619 436.314,256.786 446.5,255.5C 447.028,263.149 443.362,267.315 435.5,268C 429.607,269.062 424.274,267.729 419.5,264C 411.217,255.262 403.05,246.428 395,237.5C 392.888,234.716 390.221,232.716 387,231.5C 385.051,232.958 384.218,234.958 384.5,237.5C 386.026,246.866 391.359,253.032 400.5,256C 403.167,258.333 403.167,260.667 400.5,263C 391.982,263.527 385.482,260.027 381,252.5C 378.931,246.794 376.765,241.128 374.5,235.5C 372.5,234.167 370.5,234.167 368.5,235.5C 367.558,240.084 368.391,244.417 371,248.5C 373.683,251.016 376.183,253.683 378.5,256.5C 377.473,258.024 375.973,258.691 374,258.5C 370.588,257.943 367.755,256.276 365.5,253.5C 361.854,248.75 358.854,243.584 356.5,238C 355.216,237.316 354.049,237.483 353,238.5C 353.203,250.071 358.036,259.238 367.5,266C 374.462,269.42 381.462,272.42 388.5,275C 386.553,277.951 384.219,280.618 381.5,283C 391.852,286.922 402.519,289.256 413.5,290C 417.5,287.333 421.5,284.667 425.5,282C 426.585,279.828 427.919,277.828 429.5,276C 434.457,276.251 439.457,276.251 444.5,276C 444.833,276.333 445.167,276.667 445.5,277C 440.986,278.18 437.653,280.846 435.5,285C 432.912,286.686 430.245,286.853 427.5,285.5C 424.399,287.098 421.732,289.265 419.5,292C 424.833,292.667 430.167,292.667 435.5,292C 438.524,288.802 442.191,287.802 446.5,289C 449.72,290.562 452.72,292.396 455.5,294.5C 451.059,294.908 446.559,296.242 442,298.5C 434.81,295 427.31,294.5 419.5,297C 422.655,300.674 426.488,301.84 431,300.5C 439.6,302.351 443.267,307.684 442,316.5C 441.167,315 440,313.833 438.5,313C 431.795,314.316 427.461,311.816 425.5,305.5C 421.014,302.92 416.348,300.92 411.5,299.5C 408.419,300.027 405.419,300.86 402.5,302C 401.167,304.667 399.167,306.667 396.5,308C 392.833,308.333 389.167,308.667 385.5,309C 382.845,313.654 382.012,313.154 383,307.5C 385.285,305.093 387.451,302.593 389.5,300C 395.14,301.346 400.14,300.013 404.5,296C 395.22,293.18 385.886,290.68 376.5,288.5C 373.399,290.098 370.732,292.265 368.5,295C 367.167,295.667 365.833,295.667 364.5,295C 359.708,286.58 354.542,278.413 349,270.5C 346.833,268.333 344.667,266.167 342.5,264C 338.031,261.377 334.531,262.21 332,266.5C 333.282,283.802 341.782,296.302 357.5,304C 362.167,304.333 366.833,304.667 371.5,305C 374.123,307.559 373.79,309.892 370.5,312C 361.662,316.65 354.329,314.984 348.5,307C 344.333,305.833 342.833,307.333 344,311.5C 349.14,319.153 356.307,323.32 365.5,324C 369.522,326.666 369.189,328.999 364.5,331C 355.134,332.88 347.801,329.88 342.5,322C 338.468,319.692 336.968,320.858 338,325.5C 340.674,334.846 346.841,339.679 356.5,340C 357.519,343.383 356.185,345.717 352.5,347C 347.563,348.369 343.396,347.203 340,343.5C 337.634,339.964 335.467,336.297 333.5,332.5C 331.994,331.253 330.494,331.253 329,332.5C 327.705,342.415 331.205,350.249 339.5,356C 333.029,365.97 326.362,375.803 319.5,385.5C 312.638,375.803 305.971,365.97 299.5,356C 307.795,350.249 311.295,342.415 310,332.5C 308.506,331.253 307.006,331.253 305.5,332.5C 303.114,338.376 299.447,343.209 294.5,347C 288.721,348.758 284.387,347.092 281.5,342C 281.645,341.228 281.978,340.561 282.5,340C 294.053,339.114 300.22,332.947 301,321.5C 299.493,320.465 297.993,320.632 296.5,322C 291.159,329.891 283.825,332.891 274.5,331C 271.11,329.994 270.11,327.994 271.5,325C 281.423,323.96 289.257,319.46 295,311.5C 296.167,307.333 294.667,305.833 290.5,307C 284.537,314.809 277.203,316.475 268.5,312C 265.21,309.892 264.877,307.559 267.5,305C 288.234,304.289 301.401,293.789 307,273.5C 308.14,269.611 307.307,266.278 304.5,263.5C 302.568,262.48 300.568,262.313 298.5,263C 295.37,265.128 292.537,267.628 290,270.5C 284.458,278.413 279.292,286.58 274.5,295C 273.167,295.667 271.833,295.667 270.5,295C 268.225,292.052 265.391,289.886 262,288.5C 252.478,290.922 242.978,293.422 233.5,296C 236.575,297.62 239.742,299.12 243,300.5C 245.12,299.541 247.287,299.374 249.5,300C 251.549,302.593 253.715,305.093 256,307.5C 256.667,309.167 256.667,310.833 256,312.5C 255.5,310.667 254.333,309.5 252.5,309C 248.833,308.667 245.167,308.333 241.5,308C 238.17,302.763 233.337,299.93 227,299.5C 223.123,300.854 219.29,302.354 215.5,304C 213.117,305.8 211.45,308.133 210.5,311C 207.289,312.153 203.956,312.82 200.5,313C 199,313.833 197.833,315 197,316.5C 195.765,307.953 199.265,302.62 207.5,300.5C 212.206,301.991 216.206,300.825 219.5,297C 211.732,295.063 204.065,295.229 196.5,297.5C 191.978,295.994 187.645,294.994 183.5,294.5C 187.926,290.125 193.259,288.291 199.5,289C 200.833,290 202.167,291 203.5,292C 208.833,292.667 214.167,292.667 219.5,292C 215.628,286.399 210.295,284.065 203.5,285C 201.304,280.903 197.971,278.237 193.5,277C 194.6,275.977 195.933,275.477 197.5,275.5C 201.485,276.333 205.485,276.5 209.5,276C 211.081,277.828 212.415,279.828 213.5,282C 218.376,285.518 223.543,288.352 229,290.5C 238.5,288.083 248,285.583 257.5,283C 255.333,280.833 253.167,278.667 251,276.5C 250.333,275.5 250.333,274.5 251,273.5C 267.211,271.6 278.545,263.267 285,248.5C 286.368,245.262 286.701,241.928 286,238.5C 284.951,237.483 283.784,237.316 282.5,238C 279.544,245.929 274.877,252.596 268.5,258C 267.333,258.167 266.167,258.333 265,258.5C 263.027,258.691 261.527,258.024 260.5,256.5C 262.817,253.683 265.317,251.016 268,248.5C 270.609,244.417 271.442,240.084 270.5,235.5C 268.5,234.167 266.5,234.167 264.5,235.5C 262.235,241.128 260.069,246.794 258,252.5C 253.518,260.027 247.018,263.527 238.5,263C 235.735,260.034 236.068,257.367 239.5,255C 250.21,251.737 255.043,244.57 254,233.5C 253.481,232.484 252.647,231.818 251.5,231.5C 248.594,232.897 246.094,234.897 244,237.5C 235.95,246.428 227.783,255.262 219.5,264C 210.166,270.477 201.333,269.977 193,262.5C 192.503,260.19 192.337,257.857 192.5,255.5C 209.254,257.204 222.421,251.204 232,237.5C 235.437,233.125 237.937,228.291 239.5,223C 239.167,222.167 238.833,221.333 238.5,220.5C 232.983,225.851 227.316,231.018 221.5,236C 217.286,238.274 212.953,240.274 208.5,242C 197.136,245.948 191.469,242.114 191.5,230.5C 211.034,233.817 226.201,227.15 237,210.5C 237.667,208.5 237.667,206.5 237,204.5C 236.439,203.978 235.772,203.645 235,203.5C 226.709,210.066 217.542,215.233 207.5,219C 199.318,221.577 193.985,218.91 191.5,211C 191.484,208.695 192.484,207.028 194.5,206C 202.803,207.419 210.803,206.419 218.5,203C 224.015,199.075 229.348,194.908 234.5,190.5C 235.309,188.929 235.643,187.262 235.5,185.5C 229.198,187.98 222.865,190.48 216.5,193C 210.275,194.872 203.941,195.539 197.5,195C 191.504,191.956 190.171,187.622 193.5,182C 197.514,181.495 201.181,182.495 204.5,185C 208.167,185.667 211.833,185.667 215.5,185C 220.875,183.432 225.875,181.099 230.5,178C 233.725,176.277 236.058,173.777 237.5,170.5C 237.5,168.5 236.5,167.5 234.5,167.5C 224.517,173.063 213.85,175.23 202.5,174C 193.907,170.776 190.573,164.776 192.5,156C 193.5,155.333 194.5,155.333 195.5,156C 201.102,160.468 207.436,163.301 214.5,164.5C 221.339,163.831 227.672,161.665 233.5,158C 237.636,154.832 237.469,152.332 233,150.5C 221.131,153.881 209.631,153.048 198.5,148C 193.139,144.118 190.972,138.951 192,132.5C 192.804,131.196 193.971,130.529 195.5,130.5C 199.553,132.379 203.22,134.879 206.5,138C 215.184,141.372 224.184,142.372 233.5,141C 236.399,137.844 236.065,135.178 232.5,133C 220.267,132.367 209.267,128.367 199.5,121C 192.95,116.071 190.117,109.571 191,101.5C 192.172,98.2967 194.339,96.7967 197.5,97C 206.312,110.74 218.645,119.574 234.5,123.5C 236.785,122.386 238.952,121.053 241,119.5C 252.133,123.816 262.966,128.816 273.5,134.5C 273.678,140.439 273.845,146.439 274,152.5C 277.868,159.787 283.368,161.287 290.5,157C 295.659,150.028 295.825,142.861 291,135.5C 287.77,130.637 283.604,126.804 278.5,124C 269.345,120.711 260.012,118.045 250.5,116C 248.676,115.34 247.343,114.173 246.5,112.5C 247.167,112.5 247.833,112.5 248.5,112.5C 252.533,115.046 256.533,115.046 260.5,112.5C 261.043,112.44 261.376,112.107 261.5,111.5C 256.544,110.506 251.544,110.173 246.5,110.5C 241.38,110.524 237.213,108.524 234,104.5C 233.28,102.888 233.446,101.388 234.5,100C 237.606,101.065 240.273,103.065 242.5,106C 247.939,108.371 253.606,109.037 259.5,108C 257.199,105.271 254.365,103.437 251,102.5C 248.849,102.643 247.182,103.643 246,105.5C 245.313,103.08 245.813,100.913 247.5,99C 251.381,97.8099 255.381,97.1432 259.5,97C 260.551,95.6152 261.884,94.6152 263.5,94C 267.833,93.3333 272.167,93.3333 276.5,94C 284.87,97.2592 293.537,99.2592 302.5,100C 300.017,102.406 297.35,104.573 294.5,106.5C 299.084,108.755 303.084,111.755 306.5,115.5 Z"/></g>
<g><path style="opacity:1" fill="#f10000" d="M 267.5,101.5 C 270.518,101.335 273.518,101.502 276.5,102C 278.592,102.953 278.925,104.286 277.5,106C 274.167,106.667 270.833,106.667 267.5,106C 266.272,104.51 266.272,103.01 267.5,101.5 Z"/></g>
<g><path style="opacity:1" fill="#f10000" d="M 362.5,101.5 C 365.518,101.335 368.518,101.502 371.5,102C 372.833,103.333 372.833,104.667 371.5,106C 368.167,106.667 364.833,106.667 361.5,106C 360.257,104.184 360.59,102.684 362.5,101.5 Z"/></g>
<g><path style="opacity:1" fill="#720000" d="M 246.5,110.5 C 251.544,110.173 256.544,110.506 261.5,111.5C 261.376,112.107 261.043,112.44 260.5,112.5C 256.5,111.167 252.5,111.167 248.5,112.5C 247.833,112.5 247.167,112.5 246.5,112.5C 246.5,111.833 246.5,111.167 246.5,110.5 Z"/></g>
<g><path style="opacity:1" fill="#6d0000" d="M 391.5,110.5 C 391.833,111.167 392.167,111.833 392.5,112.5C 391.833,112.5 391.167,112.5 390.5,112.5C 386.5,111.167 382.5,111.167 378.5,112.5C 377.957,112.44 377.624,112.107 377.5,111.5C 382.12,110.507 386.786,110.173 391.5,110.5 Z"/></g>
<g><path style="opacity:1" fill="#db0002" d="M 248.5,112.5 C 252.5,111.167 256.5,111.167 260.5,112.5C 256.533,115.046 252.533,115.046 248.5,112.5 Z"/></g>
<g><path style="opacity:1" fill="#e30001" d="M 378.5,112.5 C 382.5,111.167 386.5,111.167 390.5,112.5C 386.422,114.87 382.422,114.87 378.5,112.5 Z"/></g>
<g><path style="opacity:1" fill="#900000" d="M 306.5,115.5 C 307.043,115.56 307.376,115.893 307.5,116.5C 305.031,117.168 302.698,117.835 300.5,118.5C 299.957,118.44 299.624,118.107 299.5,117.5C 301.969,116.832 304.302,116.165 306.5,115.5 Z"/></g>
<g><path style="opacity:1" fill="#830001" d="M 332.5,115.5 C 335.028,116.166 337.694,116.832 340.5,117.5C 340.043,118.298 339.376,118.631 338.5,118.5C 336.302,117.835 333.969,117.168 331.5,116.5C 331.624,115.893 331.957,115.56 332.5,115.5 Z"/></g>
</svg>
