<?xml version="1.0" encoding="UTF-8"?>
<!DOCTYPE svg PUBLIC "-//W3C//DTD SVG 1.1//EN" "http://www.w3.org/Graphics/SVG/1.1/DTD/svg11.dtd">
<svg xmlns="http://www.w3.org/2000/svg" version="1.1" width="640px" height="480px" style="shape-rendering:geometricPrecision; text-rendering:geometricPrecision; image-rendering:optimizeQuality; fill-rule:evenodd; clip-rule:evenodd" xmlns:xlink="http://www.w3.org/1999/xlink">
<g><path style="opacity:1" fill="#006133" d="M -0.5,-0.5 C 106.167,-0.5 212.833,-0.5 319.5,-0.5C 319.5,39.5 319.5,79.5 319.5,119.5C 268.073,121.951 231.239,146.284 209,192.5C 192.058,237.776 198.391,279.442 228,317.5C 252.408,344.618 282.908,358.618 319.5,359.5C 319.5,399.5 319.5,439.5 319.5,479.5C 212.833,479.5 106.167,479.5 -0.5,479.5C -0.5,319.5 -0.5,159.5 -0.5,-0.5 Z"/></g>
<g><path style="opacity:1" fill="#fefefe" d="M 319.5,-0.5 C 426.167,-0.5 532.833,-0.5 639.5,-0.5C 639.5,159.5 639.5,319.5 639.5,479.5C 532.833,479.5 426.167,479.5 319.5,479.5C 319.5,439.5 319.5,399.5 319.5,359.5C 363.114,358.032 397.114,339.365 421.5,303.5C 417.344,306.11 413.344,309.61 409.5,314C 382.123,334.506 352.123,340.006 319.5,330.5C 319.5,311.833 319.5,293.167 319.5,274.5C 332.951,270.072 346.451,265.739 360,261.5C 369.409,272.086 377.909,283.419 385.5,295.5C 385.56,296.043 385.893,296.376 386.5,296.5C 387.499,281.848 387.833,267.182 387.5,252.5C 400.54,248.376 413.54,244.042 426.5,239.5C 413.54,234.958 400.54,230.624 387.5,226.5C 387.833,211.818 387.499,197.152 386.5,182.5C 385.893,182.624 385.56,182.957 385.5,183.5C 377.909,195.581 369.409,206.914 360,217.5C 346.451,213.261 332.951,208.928 319.5,204.5C 319.5,185.833 319.5,167.167 319.5,148.5C 358.268,137.585 391.768,146.585 420,175.5C 406.329,152.689 386.829,136.522 361.5,127C 347.944,122.018 333.944,119.518 319.5,119.5C 319.5,79.5 319.5,39.5 319.5,-0.5 Z"/></g>
<g><path style="opacity:1" fill="#d11234" d="M 319.5,119.5 C 333.944,119.518 347.944,122.018 361.5,127C 386.829,136.522 406.329,152.689 420,175.5C 391.768,146.585 358.268,137.585 319.5,148.5C 277.415,163.61 255.082,193.61 252.5,238.5C 254.051,281.463 274.384,311.63 313.5,329C 315.436,329.813 317.436,330.313 319.5,330.5C 352.123,340.006 382.123,334.506 409.5,314C 413.344,309.61 417.344,306.11 421.5,303.5C 397.114,339.365 363.114,358.032 319.5,359.5C 282.908,358.618 252.408,344.618 228,317.5C 198.391,279.442 192.058,237.776 209,192.5C 231.239,146.284 268.073,121.951 319.5,119.5 Z"/></g>
<g><path style="opacity:1" fill="#016133" d="M 319.5,148.5 C 319.5,167.167 319.5,185.833 319.5,204.5C 319.5,204.833 319.5,205.167 319.5,205.5C 319.5,228.167 319.5,250.833 319.5,273.5C 319.5,273.833 319.5,274.167 319.5,274.5C 319.5,293.167 319.5,311.833 319.5,330.5C 317.436,330.313 315.436,329.813 313.5,329C 274.384,311.63 254.051,281.463 252.5,238.5C 255.082,193.61 277.415,163.61 319.5,148.5 Z"/></g>
<g><path style="opacity:1" fill="#f6cfd6" d="M 385.5,183.5 C 385.56,182.957 385.893,182.624 386.5,182.5C 387.499,197.152 387.833,211.818 387.5,226.5C 386.833,212.167 386.167,197.833 385.5,183.5 Z"/></g>
<g><path style="opacity:1" fill="#d21435" d="M 385.5,183.5 C 386.167,197.833 386.833,212.167 387.5,226.5C 400.54,230.624 413.54,234.958 426.5,239.5C 413.54,244.042 400.54,248.376 387.5,252.5C 386.833,266.833 386.167,281.167 385.5,295.5C 377.909,283.419 369.409,272.086 360,261.5C 346.451,265.739 332.951,270.072 319.5,274.5C 319.5,274.167 319.5,273.833 319.5,273.5C 328.583,262.746 336.916,251.412 344.5,239.5C 336.916,227.588 328.583,216.254 319.5,205.5C 319.5,205.167 319.5,204.833 319.5,204.5C 332.951,208.928 346.451,213.261 360,217.5C 369.409,206.914 377.909,195.581 385.5,183.5 Z"/></g>
<g><path style="opacity:1" fill="#fefcfc" d="M 319.5,205.5 C 328.583,216.254 336.916,227.588 344.5,239.5C 336.916,251.412 328.583,262.746 319.5,273.5C 319.5,250.833 319.5,228.167 319.5,205.5 Z"/></g>
<g><path style="opacity:1" fill="#f6cfd6" d="M 387.5,252.5 C 387.833,267.182 387.499,281.848 386.5,296.5C 385.893,296.376 385.56,296.043 385.5,295.5C 386.167,281.167 386.833,266.833 387.5,252.5 Z"/></g>
</svg>
