<?xml version="1.0" encoding="UTF-8"?>
<!DOCTYPE svg PUBLIC "-//W3C//DTD SVG 1.1//EN" "http://www.w3.org/Graphics/SVG/1.1/DTD/svg11.dtd">
<svg xmlns="http://www.w3.org/2000/svg" version="1.1" width="640px" height="480px" style="shape-rendering:geometricPrecision; text-rendering:geometricPrecision; image-rendering:optimizeQuality; fill-rule:evenodd; clip-rule:evenodd" xmlns:xlink="http://www.w3.org/1999/xlink">
<g><path style="opacity:1" fill="#bc1122" d="M 637.5,0.5 C 638.493,8.64991 638.826,16.9832 638.5,25.5C 637.508,25.3284 636.842,25.6618 636.5,26.5C 444.36,97.1025 252.36,168.102 60.5,239.5C 252.36,310.898 444.36,381.898 636.5,452.5C 636.842,453.338 637.508,453.672 638.5,453.5C 638.826,462.017 638.493,470.35 637.5,478.5C 424.948,399.427 212.615,319.76 0.5,239.5C 212.615,159.24 424.948,79.573 637.5,0.5 Z"/></g>
<g><path style="opacity:1" fill="#4d074a" d="M 637.5,0.5 C 637.5,0.166667 637.5,-0.166667 637.5,-0.5C 638.167,-0.5 638.833,-0.5 639.5,-0.5C 639.5,8.16667 639.5,16.8333 639.5,25.5C 639.167,25.5 638.833,25.5 638.5,25.5C 638.826,16.9832 638.493,8.64991 637.5,0.5 Z"/></g>
<g><path style="opacity:1" fill="#c9b3c7" d="M 636.5,26.5 C 636.842,25.6618 637.508,25.3284 638.5,25.5C 638.833,25.5 639.167,25.5 639.5,25.5C 639.5,77.5 639.5,129.5 639.5,181.5C 638.662,181.158 638.328,180.492 638.5,179.5C 639.162,128.156 638.496,77.1557 636.5,26.5 Z"/></g>
<g><path style="opacity:1" fill="#fefdfd" d="M 636.5,26.5 C 638.496,77.1557 639.162,128.156 638.5,179.5C 637.609,178.89 636.609,178.557 635.5,178.5C 633.59,176.438 631.257,174.938 628.5,174C 623.566,172.84 618.566,172.34 613.5,172.5C 604.596,172.575 596.929,175.575 590.5,181.5C 588.634,182.014 586.8,182.68 585,183.5C 584.5,183.167 584,182.833 583.5,182.5C 587.66,179.835 591.327,176.669 594.5,173C 591.833,173 589.167,173 586.5,173C 590.469,171.016 594.469,169.016 598.5,167C 601.23,164.87 603.23,162.203 604.5,159C 600.003,159.999 595.67,161.499 591.5,163.5C 589.181,164.167 586.847,164.334 584.5,164C 587.363,162.636 589.363,160.47 590.5,157.5C 588.568,158.033 586.568,158.033 584.5,157.5C 586.167,156.5 587.5,155.167 588.5,153.5C 590.466,152.745 590.8,151.579 589.5,150C 595.309,146.691 599.976,142.191 603.5,136.5C 603.167,135.833 602.833,135.167 602.5,134.5C 603.63,133.378 604.297,132.044 604.5,130.5C 607.162,127.705 607.162,125.705 604.5,124.5C 605.983,121.589 605.65,118.922 603.5,116.5C 602.893,116.624 602.56,116.957 602.5,117.5C 598.975,118.759 595.975,120.759 593.5,123.5C 592.305,123.678 591.138,124.011 590,124.5C 588.97,124.164 588.47,123.497 588.5,122.5C 591.754,121.327 592.92,118.994 592,115.5C 590.482,116.163 589.315,117.163 588.5,118.5C 583.291,120.719 578.624,123.719 574.5,127.5C 572.236,124.027 569.902,124.36 567.5,128.5C 559.654,133.254 551.988,138.254 544.5,143.5C 538.849,145.659 533.516,148.326 528.5,151.5C 526.597,151.796 524.93,152.463 523.5,153.5C 521.408,153.439 519.908,152.439 519,150.5C 513.185,153.987 507.352,157.32 501.5,160.5C 499.847,160.66 498.514,161.326 497.5,162.5C 496.417,162.539 495.417,162.873 494.5,163.5C 493.808,162.975 493.308,162.308 493,161.5C 485.688,166.567 478.188,171.234 470.5,175.5C 468.973,175.427 467.973,176.094 467.5,177.5C 464.5,178.5 462.5,180.5 461.5,183.5C 459.827,184.343 458.66,185.676 458,187.5C 457.199,190.367 457.366,193.034 458.5,195.5C 459.292,197.257 460.625,198.591 462.5,199.5C 455.911,205.32 454.078,212.32 457,220.5C 458.913,222.187 461.08,222.687 463.5,222C 467.469,218.863 471.803,216.363 476.5,214.5C 477.167,214.667 477.833,214.833 478.5,215C 476.21,216.777 474.543,218.944 473.5,221.5C 471.464,224.338 469.964,224.005 469,220.5C 467.961,221.244 467.461,222.244 467.5,223.5C 460.84,231.161 454.173,238.828 447.5,246.5C 446.21,247.058 445.377,248.058 445,249.5C 444.503,251.81 444.337,254.143 444.5,256.5C 443.463,257.93 442.796,259.597 442.5,261.5C 440.006,263.594 440.006,265.594 442.5,267.5C 443.492,269.026 444.992,269.693 447,269.5C 448.385,269.486 449.551,269.152 450.5,268.5C 453.331,267.921 455.664,266.588 457.5,264.5C 459.749,263.92 461.415,262.587 462.5,260.5C 463.906,260.027 464.573,259.027 464.5,257.5C 466.565,257.047 468.232,256.047 469.5,254.5C 471.749,253.92 473.415,252.587 474.5,250.5C 479.549,246.976 484.883,243.976 490.5,241.5C 493.5,241.5 496.5,241.5 499.5,241.5C 502.068,240.55 504.568,240.55 507,241.5C 509.994,238.527 513.494,237.861 517.5,239.5C 518.62,238.167 519.953,237.667 521.5,238C 522.658,241.473 523.824,244.973 525,248.5C 527.736,252.057 530.569,255.39 533.5,258.5C 532.149,262.526 530.815,266.526 529.5,270.5C 526.287,270.19 523.287,270.523 520.5,271.5C 519.508,271.328 518.842,271.662 518.5,272.5C 516.291,273.92 514.291,275.587 512.5,277.5C 510.847,277.34 509.514,276.674 508.5,275.5C 508.027,274.094 507.027,273.427 505.5,273.5C 504.508,273.672 503.842,273.338 503.5,272.5C 500.6,269.687 498.6,270.353 497.5,274.5C 496.833,274.5 496.5,274.833 496.5,275.5C 490.5,275.5 484.5,275.5 478.5,275.5C 478.771,273.62 478.104,272.287 476.5,271.5C 474.205,269.615 471.538,269.115 468.5,270C 467.177,270.816 466.511,271.983 466.5,273.5C 465.121,274.609 463.455,275.276 461.5,275.5C 456.405,274.881 451.405,273.881 446.5,272.5C 444.151,270.659 441.485,269.326 438.5,268.5C 436.32,267.206 434.32,267.539 432.5,269.5C 428.216,270.261 424.216,271.595 420.5,273.5C 415.652,274.903 410.652,275.903 405.5,276.5C 402.482,276.335 399.482,276.502 396.5,277C 398.25,278.319 400.25,278.819 402.5,278.5C 404.099,278.232 405.432,278.566 406.5,279.5C 408.214,280.738 410.214,281.405 412.5,281.5C 412.833,281.5 413.167,281.5 413.5,281.5C 417.534,283.737 421.868,285.404 426.5,286.5C 429.743,289.652 433.41,290.652 437.5,289.5C 440.704,288.099 444.037,287.099 447.5,286.5C 453.329,284.768 459.329,284.101 465.5,284.5C 465.553,291.387 468.887,293.887 475.5,292C 476.872,290.758 477.872,289.258 478.5,287.5C 484.463,286.504 490.463,286.171 496.5,286.5C 495.938,290.099 497.438,292.099 501,292.5C 505.156,291.339 508.989,289.505 512.5,287C 514.545,286.51 516.545,286.677 518.5,287.5C 519.167,287.5 519.833,287.5 520.5,287.5C 521.167,287.833 521.833,288.167 522.5,288.5C 521.833,289.5 521.167,290.5 520.5,291.5C 516.463,293.68 512.13,295.18 507.5,296C 506.058,296.377 505.058,297.21 504.5,298.5C 502.738,299.262 501.738,300.596 501.5,302.5C 500.833,302.5 500.167,302.5 499.5,302.5C 491.934,302.772 484.601,303.772 477.5,305.5C 477.167,305.5 476.833,305.5 476.5,305.5C 474.708,305.366 473.042,305.699 471.5,306.5C 468.133,306.543 464.799,306.21 461.5,305.5C 459.068,305.886 456.734,306.553 454.5,307.5C 452.872,306.147 451.538,306.481 450.5,308.5C 448.901,308.232 447.568,308.566 446.5,309.5C 444.29,309.894 442.957,311.227 442.5,313.5C 440.973,313.427 439.973,314.094 439.5,315.5C 438.504,315.414 437.671,315.748 437,316.5C 436.503,318.81 436.337,321.143 436.5,323.5C 435.236,325.772 435.402,328.105 437,330.5C 441.394,334.317 445.561,338.317 449.5,342.5C 451.607,343.468 453.941,343.802 456.5,343.5C 456.973,344.906 457.973,345.573 459.5,345.5C 459.918,346.222 460.584,346.722 461.5,347C 464.482,347.498 467.482,347.665 470.5,347.5C 472.921,347.878 475.254,348.545 477.5,349.5C 477.842,350.338 478.508,350.672 479.5,350.5C 484.316,351.326 489.316,351.826 494.5,352C 495.983,354.381 496.816,356.881 497,359.5C 497.284,357.114 498.284,356.448 500,357.5C 500.624,355.536 500.124,353.869 498.5,352.5C 499.79,351.592 501.123,351.759 502.5,353C 511.538,352.961 520.538,353.128 529.5,353.5C 530.167,354.167 530.833,354.833 531.5,355.5C 531.762,356.978 531.429,358.311 530.5,359.5C 528.998,360.083 527.665,360.916 526.5,362C 528.38,361.49 530.213,361.657 532,362.5C 533.193,360.395 534.86,358.728 537,357.5C 537.877,355.326 537.377,353.659 535.5,352.5C 536.097,351.861 536.93,351.528 538,351.5C 540.544,352.071 543.044,352.738 545.5,353.5C 545.842,354.338 546.508,354.672 547.5,354.5C 547.842,355.338 548.508,355.672 549.5,355.5C 550.943,356.703 552.609,357.203 554.5,357C 553.833,356.333 553.167,355.667 552.5,355C 554.167,354.667 555.833,354.333 557.5,354C 555.146,353.153 552.812,352.32 550.5,351.5C 550.027,350.094 549.027,349.427 547.5,349.5C 547.771,347.57 548.771,346.236 550.5,345.5C 552.167,345.5 553.833,345.5 555.5,345.5C 558.651,345.98 560.985,347.646 562.5,350.5C 563.937,347.956 565.437,347.956 567,350.5C 567.507,349.004 567.007,347.837 565.5,347C 561.845,346.669 558.512,345.502 555.5,343.5C 555.167,343.5 554.833,343.5 554.5,343.5C 553.508,343.672 552.842,343.338 552.5,342.5C 548.795,340.312 549.461,339.478 554.5,340C 555,340.5 555.5,341 556,341.5C 555.946,338.809 557.113,336.976 559.5,336C 553.937,335.379 548.604,335.879 543.5,337.5C 542.833,337.5 542.167,337.5 541.5,337.5C 540.833,337.5 540.5,337.167 540.5,336.5C 543.018,335.736 545.351,334.736 547.5,333.5C 549.773,333.043 551.106,331.71 551.5,329.5C 549.916,326.004 548.749,326.004 548,329.5C 547.617,328.944 547.117,328.611 546.5,328.5C 545.791,327.596 544.791,327.263 543.5,327.5C 543.5,328.5 543.5,329.5 543.5,330.5C 542.5,330.5 541.5,330.5 540.5,330.5C 539.22,329.069 537.553,328.402 535.5,328.5C 528.958,326.271 522.291,325.938 515.5,327.5C 510.78,327.775 510.446,326.941 514.5,325C 512.782,324.654 511.115,324.154 509.5,323.5C 508.614,324.325 508.281,325.325 508.5,326.5C 504.094,326.252 499.76,325.585 495.5,324.5C 493.866,323.839 492.033,323.506 490,323.5C 486.85,323.36 484.017,324.027 481.5,325.5C 480.167,326.167 478.833,326.833 477.5,327.5C 474.048,329.301 471.048,328.801 468.5,326C 469.823,325.184 470.489,324.017 470.5,322.5C 471.139,321.903 471.472,321.07 471.5,320C 471.613,318.301 470.947,317.134 469.5,316.5C 469.5,315.5 469.5,314.5 469.5,313.5C 470.345,312.329 471.011,310.995 471.5,309.5C 474.059,309.802 476.393,309.468 478.5,308.5C 484.057,307.264 489.723,306.597 495.5,306.5C 497.886,306.259 499.886,306.925 501.5,308.5C 502.5,308.833 503.167,309.5 503.5,310.5C 504.496,311.665 505.829,312.332 507.5,312.5C 509.135,311.954 510.801,311.62 512.5,311.5C 514.565,311.483 516.565,311.15 518.5,310.5C 520.857,310.663 523.19,310.497 525.5,310C 527.3,308.188 528.967,306.355 530.5,304.5C 533.154,303.285 535.82,302.285 538.5,301.5C 542.434,300.64 546.434,300.307 550.5,300.5C 556.051,300.473 561.384,299.806 566.5,298.5C 570.514,298.666 574.514,298.499 578.5,298C 579.416,297.722 580.082,297.222 580.5,296.5C 583.106,295.15 583.106,293.65 580.5,292C 571.232,291.306 562.232,292.14 553.5,294.5C 553.167,294.5 552.833,294.5 552.5,294.5C 547.951,294.624 543.618,295.291 539.5,296.5C 535.168,297.097 530.835,297.263 526.5,297C 525.748,296.329 525.414,295.496 525.5,294.5C 526.833,293.5 528.167,292.5 529.5,291.5C 530.476,292.815 531.476,294.148 532.5,295.5C 533.833,294.5 535.167,293.5 536.5,292.5C 538.059,293.447 539.726,294.113 541.5,294.5C 543.415,292.258 545.415,290.091 547.5,288C 559.848,287.581 572.181,287.581 584.5,288C 586.396,286.192 586.896,284.025 586,281.5C 585.329,280.748 584.496,280.414 583.5,280.5C 578.167,280.5 572.833,280.5 567.5,280.5C 562.015,279.673 556.348,279.173 550.5,279C 551.938,278.781 553.271,278.281 554.5,277.5C 554.376,276.893 554.043,276.56 553.5,276.5C 553.5,274.167 553.5,271.833 553.5,269.5C 553.833,269.5 554.167,269.5 554.5,269.5C 556.67,268.162 558.336,266.328 559.5,264C 560.742,263.689 561.742,264.189 562.5,265.5C 564.499,263.507 565.999,261.173 567,258.5C 568.011,257.663 569.178,257.33 570.5,257.5C 570.5,254.167 570.5,250.833 570.5,247.5C 572.262,247.357 573.929,247.691 575.5,248.5C 576.434,246.905 576.434,245.239 575.5,243.5C 576.833,242.833 578.167,242.167 579.5,241.5C 581.296,240.207 582.963,238.707 584.5,237C 582.744,236.798 581.078,236.298 579.5,235.5C 581.98,232.639 582.98,229.306 582.5,225.5C 580.708,225.366 579.042,225.699 577.5,226.5C 576.833,226.5 576.5,226.833 576.5,227.5C 575.596,226.791 575.263,225.791 575.5,224.5C 572.482,224.665 569.482,224.498 566.5,224C 565.167,223 565.167,222 566.5,221C 571.42,218.084 575.753,214.418 579.5,210C 584.827,209.011 589.493,206.678 593.5,203C 595.866,202.56 598.199,202.06 600.5,201.5C 609.682,201.827 618.682,201.493 627.5,200.5C 630.311,200.174 632.978,199.341 635.5,198C 636.823,197.184 637.489,196.017 637.5,194.5C 638.167,237.332 638.5,280.332 638.5,323.5C 638.5,366.839 637.833,409.839 636.5,452.5C 444.36,381.898 252.36,310.898 60.5,239.5C 252.36,168.102 444.36,97.1025 636.5,26.5 Z"/></g>
<g><path style="opacity:1" fill="#2e2622" d="M 588.5,122.5 C 589.141,121.518 589.807,120.518 590.5,119.5C 590.043,118.702 589.376,118.369 588.5,118.5C 589.315,117.163 590.482,116.163 592,115.5C 592.92,118.994 591.754,121.327 588.5,122.5 Z"/></g>
<g><path style="opacity:1" fill="#793d1d" d="M 588.5,118.5 C 589.376,118.369 590.043,118.702 590.5,119.5C 589.807,120.518 589.141,121.518 588.5,122.5C 586.973,122.427 585.973,123.094 585.5,124.5C 582.062,127.435 578.729,130.601 575.5,134C 573.975,135.009 572.308,135.509 570.5,135.5C 570.167,134.167 569.833,132.833 569.5,131.5C 571.749,130.92 573.415,129.587 574.5,127.5C 578.624,123.719 583.291,120.719 588.5,118.5 Z"/></g>
<g><path style="opacity:1" fill="#87421d" d="M 602.5,117.5 C 603.645,118.793 603.311,119.959 601.5,121C 603.158,121.725 603.658,122.892 603,124.5C 599.562,128.441 595.729,131.775 591.5,134.5C 588.296,135.383 585.629,137.05 583.5,139.5C 574.527,146.655 565.194,153.321 555.5,159.5C 548.614,162.723 542.947,167.389 538.5,173.5C 535.462,175.112 532.629,177.112 530,179.5C 528.829,178.107 527.329,177.273 525.5,177C 528.432,174.715 531.098,172.215 533.5,169.5C 535.751,166.705 538.418,164.372 541.5,162.5C 543.853,161.66 545.853,160.326 547.5,158.5C 558.828,150.174 570.161,141.84 581.5,133.5C 584.147,132.335 586.814,131.168 589.5,130C 588.833,129.667 588.167,129.333 587.5,129C 589.342,126.926 591.342,125.093 593.5,123.5C 595.975,120.759 598.975,118.759 602.5,117.5 Z"/></g>
<g><path style="opacity:1" fill="#a34f21" d="M 585.5,124.5 C 587.225,124.843 587.725,125.843 587,127.5C 584.96,129.37 583.127,131.37 581.5,133.5C 570.161,141.84 558.828,150.174 547.5,158.5C 544.802,158.845 542.802,160.178 541.5,162.5C 538.418,164.372 535.751,166.705 533.5,169.5C 530.053,171.397 526.72,173.563 523.5,176C 521.203,176.018 518.869,175.851 516.5,175.5C 515.508,175.328 514.842,175.662 514.5,176.5C 513.211,177.501 511.878,177.334 510.5,176C 514.901,172.812 519.234,169.645 523.5,166.5C 531.614,162.223 539.614,157.723 547.5,153C 555.327,147.334 562.994,141.501 570.5,135.5C 572.308,135.509 573.975,135.009 575.5,134C 578.729,130.601 582.062,127.435 585.5,124.5 Z"/></g>
<g><path style="opacity:1" fill="#221610" d="M 602.5,117.5 C 602.56,116.957 602.893,116.624 603.5,116.5C 605.65,118.922 605.983,121.589 604.5,124.5C 607.162,125.705 607.162,127.705 604.5,130.5C 604.719,129.325 604.386,128.325 603.5,127.5C 599.773,130.361 595.773,132.695 591.5,134.5C 595.729,131.775 599.562,128.441 603,124.5C 603.658,122.892 603.158,121.725 601.5,121C 603.311,119.959 603.645,118.793 602.5,117.5 Z"/></g>
<g><path style="opacity:1" fill="#422c21" d="M 574.5,127.5 C 573.415,129.587 571.749,130.92 569.5,131.5C 572.549,126.882 571.882,125.882 567.5,128.5C 569.902,124.36 572.236,124.027 574.5,127.5 Z"/></g>
<g><path style="opacity:1" fill="#7d3f1d" d="M 569.5,131.5 C 566.233,132.031 565.9,133.031 568.5,134.5C 567.448,134.351 566.448,134.517 565.5,135C 551.835,144.168 537.835,152.835 523.5,161C 521.807,161.484 520.473,160.984 519.5,159.5C 519.933,156.809 521.267,154.809 523.5,153.5C 524.93,152.463 526.597,151.796 528.5,151.5C 534.419,149.874 539.753,147.207 544.5,143.5C 551.988,138.254 559.654,133.254 567.5,128.5C 571.882,125.882 572.549,126.882 569.5,131.5 Z"/></g>
<g><path style="opacity:1" fill="#3a1f12" d="M 588.5,122.5 C 588.47,123.497 588.97,124.164 590,124.5C 591.138,124.011 592.305,123.678 593.5,123.5C 591.342,125.093 589.342,126.926 587.5,129C 588.167,129.333 588.833,129.667 589.5,130C 586.814,131.168 584.147,132.335 581.5,133.5C 583.127,131.37 584.96,129.37 587,127.5C 587.725,125.843 587.225,124.843 585.5,124.5C 585.973,123.094 586.973,122.427 588.5,122.5 Z"/></g>
<g><path style="opacity:1" fill="#a14f21" d="M 604.5,130.5 C 597.071,138.057 588.404,143.89 578.5,148C 577.21,150.292 575.543,152.292 573.5,154C 560.696,162.981 548.363,172.481 536.5,182.5C 534.143,182.663 531.81,182.497 529.5,182C 532.574,179.151 535.574,176.317 538.5,173.5C 544.172,168.827 549.839,164.16 555.5,159.5C 565.194,153.321 574.527,146.655 583.5,139.5C 586.704,138.617 589.371,136.95 591.5,134.5C 595.773,132.695 599.773,130.361 603.5,127.5C 604.386,128.325 604.719,129.325 604.5,130.5 Z"/></g>
<g><path style="opacity:1" fill="#170b03" d="M 569.5,131.5 C 569.833,132.833 570.167,134.167 570.5,135.5C 569.833,135.167 569.167,134.833 568.5,134.5C 565.9,133.031 566.233,132.031 569.5,131.5 Z"/></g>
<g><path style="opacity:1" fill="#8f461e" d="M 568.5,134.5 C 569.167,134.833 569.833,135.167 570.5,135.5C 562.994,141.501 555.327,147.334 547.5,153C 539.614,157.723 531.614,162.223 523.5,166.5C 521.046,167.227 518.713,168.227 516.5,169.5C 515.122,167.03 515.455,164.696 517.5,162.5C 518.167,161.5 518.833,160.5 519.5,159.5C 520.473,160.984 521.807,161.484 523.5,161C 537.835,152.835 551.835,144.168 565.5,135C 566.448,134.517 567.448,134.351 568.5,134.5 Z"/></g>
<g><path style="opacity:1" fill="#30190b" d="M 591.5,134.5 C 589.371,136.95 586.704,138.617 583.5,139.5C 585.629,137.05 588.296,135.383 591.5,134.5 Z"/></g>
<g><path style="opacity:1" fill="#3b2514" d="M 604.5,130.5 C 604.297,132.044 603.63,133.378 602.5,134.5C 602.833,135.167 603.167,135.833 603.5,136.5C 599.976,142.191 595.309,146.691 589.5,150C 590.8,151.579 590.466,152.745 588.5,153.5C 587.796,151.656 586.463,151.156 584.5,152C 576.261,160.127 566.928,166.793 556.5,172C 552.958,177.043 548.624,181.21 543.5,184.5C 543.5,183.5 543.5,182.5 543.5,181.5C 541.097,181.448 538.764,181.781 536.5,182.5C 548.363,172.481 560.696,162.981 573.5,154C 575.543,152.292 577.21,150.292 578.5,148C 588.404,143.89 597.071,138.057 604.5,130.5 Z"/></g>
<g><path style="opacity:1" fill="#432e24" d="M 544.5,143.5 C 539.753,147.207 534.419,149.874 528.5,151.5C 533.516,148.326 538.849,145.659 544.5,143.5 Z"/></g>
<g><path style="opacity:1" fill="#72381e" d="M 507.5,165.5 C 503.616,166.793 499.616,167.459 495.5,167.5C 495.392,165.486 496.058,163.82 497.5,162.5C 498.514,161.326 499.847,160.66 501.5,160.5C 507.199,158.313 512.866,156.146 518.5,154C 514.657,157.676 510.991,161.509 507.5,165.5 Z"/></g>
<g><path style="opacity:1" fill="#3d2614" d="M 584.5,157.5 C 586.568,158.033 588.568,158.033 590.5,157.5C 589.363,160.47 587.363,162.636 584.5,164C 586.847,164.334 589.181,164.167 591.5,163.5C 592.167,163.5 592.833,163.5 593.5,163.5C 589.796,165.091 585.796,165.924 581.5,166C 579.099,168.062 576.433,169.729 573.5,171C 572.262,171.69 572.262,172.19 573.5,172.5C 571.908,176.584 568.908,179.084 564.5,180C 563.108,183.381 560.775,184.214 557.5,182.5C 558.648,180.851 559.981,179.351 561.5,178C 560.423,177.53 559.423,177.697 558.5,178.5C 558.631,177.761 558.464,177.094 558,176.5C 553.224,180.601 549.224,185.268 546,190.5C 544.871,192.141 543.371,193.141 541.5,193.5C 549.135,181.369 559.468,172.202 572.5,166C 576.368,162.189 580.368,159.356 584.5,157.5 Z"/></g>
<g><path style="opacity:1" fill="#1f150f" d="M 523.5,153.5 C 521.267,154.809 519.933,156.809 519.5,159.5C 518.833,160.5 518.167,161.5 517.5,162.5C 517.404,160.881 517.404,159.215 517.5,157.5C 514.417,160.594 511.084,163.261 507.5,165.5C 510.991,161.509 514.657,157.676 518.5,154C 512.866,156.146 507.199,158.313 501.5,160.5C 507.352,157.32 513.185,153.987 519,150.5C 519.908,152.439 521.408,153.439 523.5,153.5 Z"/></g>
<g><path style="opacity:1" fill="#231c18" d="M 590.5,181.5 C 590.733,183.062 591.4,184.395 592.5,185.5C 586.033,184.571 579.7,183.571 573.5,182.5C 580.132,182.184 585.799,179.684 590.5,175C 589.333,174.833 588.167,174.667 587,174.5C 583.005,175.127 579.172,175.961 575.5,177C 583.042,172.815 590.709,168.815 598.5,165C 600.26,164.035 600.594,162.868 599.5,161.5C 597.55,162.372 595.55,163.039 593.5,163.5C 592.833,163.5 592.167,163.5 591.5,163.5C 595.67,161.499 600.003,159.999 604.5,159C 603.23,162.203 601.23,164.87 598.5,167C 594.469,169.016 590.469,171.016 586.5,173C 589.167,173 591.833,173 594.5,173C 591.327,176.669 587.66,179.835 583.5,182.5C 584,182.833 584.5,183.167 585,183.5C 586.8,182.68 588.634,182.014 590.5,181.5 Z"/></g>
<g><path style="opacity:1" fill="#a04e21" d="M 573.5,182.5 C 570.615,182.806 567.948,182.473 565.5,181.5C 569.892,179.944 573.225,177.111 575.5,173C 574.906,172.536 574.239,172.369 573.5,172.5C 572.262,172.19 572.262,171.69 573.5,171C 576.433,169.729 579.099,168.062 581.5,166C 585.796,165.924 589.796,165.091 593.5,163.5C 595.55,163.039 597.55,162.372 599.5,161.5C 600.594,162.868 600.26,164.035 598.5,165C 590.709,168.815 583.042,172.815 575.5,177C 579.172,175.961 583.005,175.127 587,174.5C 588.167,174.667 589.333,174.833 590.5,175C 585.799,179.684 580.132,182.184 573.5,182.5 Z"/></g>
<g><path style="opacity:1" fill="#76391e" d="M 493.5,166.5 C 493.5,167.167 493.5,167.833 493.5,168.5C 489.777,172.552 486.11,176.552 482.5,180.5C 478.773,182.131 474.94,183.465 471,184.5C 470.493,183.004 470.993,181.837 472.5,181C 474.608,180.64 476.608,179.973 478.5,179C 481.833,176.667 485.167,174.333 488.5,172C 485.13,173.662 481.463,174.829 477.5,175.5C 476.923,178.645 474.923,180.145 471.5,180C 468.42,181.711 467.254,184.211 468,187.5C 471.051,184.906 474.551,184.073 478.5,185C 479.071,186.205 479.738,187.372 480.5,188.5C 484.996,186.043 489.663,185.877 494.5,188C 493.241,188.923 491.908,189.757 490.5,190.5C 495.825,193.2 500.825,196.2 505.5,199.5C 504.397,199.998 503.397,200.331 502.5,200.5C 505.46,204.525 505.126,208.192 501.5,211.5C 501.245,209.657 501.078,207.657 501,205.5C 500.623,204.058 499.79,203.058 498.5,202.5C 492.485,197.606 485.485,195.272 477.5,195.5C 472.749,195.595 468.249,196.595 464,198.5C 462.259,197.242 460.426,196.242 458.5,195.5C 458.337,193.143 458.503,190.81 459,188.5C 460.372,187.09 461.205,185.423 461.5,183.5C 463.833,181.833 465.833,179.833 467.5,177.5C 467.973,176.094 468.973,175.427 470.5,175.5C 478.09,172.372 485.423,168.705 492.5,164.5C 493.298,164.957 493.631,165.624 493.5,166.5 Z"/></g>
<g><path style="opacity:1" fill="#2e221e" d="M 497.5,162.5 C 496.058,163.82 495.392,165.486 495.5,167.5C 494.833,167.167 494.167,166.833 493.5,166.5C 493.631,165.624 493.298,164.957 492.5,164.5C 485.423,168.705 478.09,172.372 470.5,175.5C 478.188,171.234 485.688,166.567 493,161.5C 493.308,162.308 493.808,162.975 494.5,163.5C 495.417,162.873 496.417,162.539 497.5,162.5 Z"/></g>
<g><path style="opacity:1" fill="#f5f5f5" d="M 620.5,175.5 C 624.576,173.848 628.243,174.515 631.5,177.5C 628.199,180.156 624.532,182.322 620.5,184C 621,184.167 621.5,184.333 622,184.5C 626.504,182.328 631.004,180.328 635.5,178.5C 636.933,180.518 636.599,182.185 634.5,183.5C 632.326,183.75 630.659,184.75 629.5,186.5C 621.407,188.24 613.574,190.573 606,193.5C 605.312,192.668 605.479,192.002 606.5,191.5C 609.088,190.806 611.421,189.64 613.5,188C 610.707,189.082 607.707,189.415 604.5,189C 603.833,187.667 603.167,186.333 602.5,185C 596.339,185.137 595.172,182.97 599,178.5C 599.333,178.833 599.667,179.167 600,179.5C 604.403,178.202 608.57,176.536 612.5,174.5C 615.445,173.532 618.445,173.366 621.5,174C 620.944,174.383 620.611,174.883 620.5,175.5 Z"/></g>
<g><path style="opacity:1" fill="#130a04" d="M 493.5,168.5 C 494.043,168.56 494.376,168.893 494.5,169.5C 491.697,174.553 487.697,178.219 482.5,180.5C 486.11,176.552 489.777,172.552 493.5,168.5 Z"/></g>
<g><path style="opacity:1" fill="#313131" d="M 613.5,172.5 C 618.566,172.34 623.566,172.84 628.5,174C 631.257,174.938 633.59,176.438 635.5,178.5C 631.004,180.328 626.504,182.328 622,184.5C 621.5,184.333 621,184.167 620.5,184C 624.532,182.322 628.199,180.156 631.5,177.5C 628.243,174.515 624.576,173.848 620.5,175.5C 620.611,174.883 620.944,174.383 621.5,174C 618.445,173.366 615.445,173.532 612.5,174.5C 612.833,173.833 613.167,173.167 613.5,172.5 Z"/></g>
<g><path style="opacity:1" fill="#515151" d="M 620.5,175.5 C 614.482,178.113 608.482,180.613 602.5,183C 607.86,179.044 613.86,176.544 620.5,175.5 Z"/></g>
<g><path style="opacity:1" fill="#24211f" d="M 467.5,177.5 C 465.833,179.833 463.833,181.833 461.5,183.5C 462.5,180.5 464.5,178.5 467.5,177.5 Z"/></g>
<g><path style="opacity:1" fill="#543317" d="M 588.5,153.5 C 587.5,155.167 586.167,156.5 584.5,157.5C 580.368,159.356 576.368,162.189 572.5,166C 559.468,172.202 549.135,181.369 541.5,193.5C 538.222,194.809 535.222,196.642 532.5,199C 535.192,201.632 534.859,203.966 531.5,206C 532.448,206.483 533.448,206.649 534.5,206.5C 534.351,207.552 534.517,208.552 535,209.5C 536.68,204.729 540.18,202.562 545.5,203C 542.833,202.333 542.833,201.667 545.5,201C 548.674,200.171 549.674,201.171 548.5,204C 545.911,205.197 543.244,206.197 540.5,207C 543.377,207.725 546.043,207.225 548.5,205.5C 549.379,208.597 548.379,211.097 545.5,213C 546.094,213.464 546.761,213.631 547.5,213.5C 546.791,214.404 545.791,214.737 544.5,214.5C 544.5,216.167 544.5,217.833 544.5,219.5C 546.099,219.232 547.432,219.566 548.5,220.5C 546.473,220.662 544.473,220.495 542.5,220C 542.833,219.667 543.167,219.333 543.5,219C 541.091,218.252 538.925,217.085 537,215.5C 536.5,215.667 536,215.833 535.5,216C 538.89,217.006 539.89,219.006 538.5,222C 545.474,221.92 552.474,221.92 559.5,222C 562.167,223.333 564.833,224.667 567.5,226C 563.815,226.914 564.148,227.581 568.5,228C 567.833,228.667 567.167,229.333 566.5,230C 567.711,231.113 567.711,232.28 566.5,233.5C 566.957,234.298 567.624,234.631 568.5,234.5C 568.859,232.629 569.859,231.129 571.5,230C 569.699,229.683 569.366,229.016 570.5,228C 572.679,228.284 574.679,228.117 576.5,227.5C 576.5,226.833 576.833,226.5 577.5,226.5C 578.568,227.434 579.901,227.768 581.5,227.5C 581.138,231.203 579.471,234.203 576.5,236.5C 578.078,237.298 579.744,237.798 581.5,238C 580.177,238.816 579.511,239.983 579.5,241.5C 578.167,242.167 576.833,242.833 575.5,243.5C 574.58,242.933 574.246,243.599 574.5,245.5C 572.5,245.5 570.5,245.5 568.5,245.5C 568.5,248.833 568.5,252.167 568.5,255.5C 567.448,255.351 566.448,255.517 565.5,256C 564.751,257.734 564.251,259.567 564,261.5C 562.266,262.249 560.433,262.749 558.5,263C 556.915,265.069 555.581,267.236 554.5,269.5C 554.167,269.5 553.833,269.5 553.5,269.5C 552.522,269.189 551.855,268.522 551.5,267.5C 552.737,266.719 553.737,265.719 554.5,264.5C 553.135,263.059 551.635,261.726 550,260.5C 549.221,258.094 550.054,256.427 552.5,255.5C 551.919,253.276 550.586,252.443 548.5,253C 549.342,255.068 549.342,257.235 548.5,259.5C 548.257,261.922 549.257,263.588 551.5,264.5C 550.173,266.311 549.173,268.311 548.5,270.5C 545.259,268.359 543.259,265.359 542.5,261.5C 541.478,261.855 540.811,262.522 540.5,263.5C 540.5,264.167 540.167,264.5 539.5,264.5C 538.903,264.265 538.57,263.765 538.5,263C 540.612,260.207 541.779,257.041 542,253.5C 545.065,250.938 547.565,247.938 549.5,244.5C 540.99,244.777 533.657,242.111 527.5,236.5C 526.584,236.543 525.917,236.876 525.5,237.5C 525.167,237.5 524.833,237.5 524.5,237.5C 523.504,236.335 522.171,235.668 520.5,235.5C 514.59,236.993 508.59,238.16 502.5,239C 500.881,239.236 499.881,240.069 499.5,241.5C 496.5,241.5 493.5,241.5 490.5,241.5C 490.918,240.778 491.584,240.278 492.5,240C 491.167,239.333 489.833,238.667 488.5,238C 495.365,235.286 495.032,233.952 487.5,234C 489.551,231.98 491.884,230.48 494.5,229.5C 496.886,226.96 499.719,224.96 503,223.5C 505.155,224.579 507.155,225.913 509,227.5C 510,226.5 511,225.5 512,224.5C 513.347,226.466 514.847,226.799 516.5,225.5C 514.521,224.188 512.855,222.521 511.5,220.5C 509.391,225.646 507.058,225.646 504.5,220.5C 501.071,222.865 497.738,225.199 494.5,227.5C 490.746,227.496 487.079,227.663 483.5,228C 484.066,227.005 484.733,226.172 485.5,225.5C 488.07,224.516 488.07,223.349 485.5,222C 486.448,221.517 487.448,221.351 488.5,221.5C 488.5,220.5 488.5,219.5 488.5,218.5C 489.833,218.5 491.167,218.5 492.5,218.5C 492.714,216.856 492.38,215.356 491.5,214C 496.366,214.577 501.032,213.744 505.5,211.5C 508.546,205.963 508.546,200.63 505.5,195.5C 501.456,194.644 497.789,192.978 494.5,190.5C 495.145,189.354 495.978,188.354 497,187.5C 497.667,186.5 497.667,185.5 497,184.5C 492.197,184.765 487.364,184.932 482.5,185C 482.833,184.667 483.167,184.333 483.5,184C 482.5,183.667 481.5,183.333 480.5,183C 481.381,182.292 482.047,181.458 482.5,180.5C 487.697,178.219 491.697,174.553 494.5,169.5C 494.376,168.893 494.043,168.56 493.5,168.5C 493.5,167.833 493.5,167.167 493.5,166.5C 494.167,166.833 494.833,167.167 495.5,167.5C 499.616,167.459 503.616,166.793 507.5,165.5C 511.084,163.261 514.417,160.594 517.5,157.5C 517.404,159.215 517.404,160.881 517.5,162.5C 515.455,164.696 515.122,167.03 516.5,169.5C 516.44,170.043 516.107,170.376 515.5,170.5C 514.692,168.577 514.192,166.577 514,164.5C 506.075,167.874 498.908,172.374 492.5,178C 495.5,178.667 498.5,178.667 501.5,178C 499.833,177.667 498.167,177.333 496.5,177C 501.295,172.269 506.962,169.102 513.5,167.5C 513.657,168.873 513.49,170.207 513,171.5C 510.604,174.067 508.104,176.4 505.5,178.5C 514.609,177.331 515.609,179.664 508.5,185.5C 509.689,186.429 511.022,186.762 512.5,186.5C 512.97,189.346 512.137,191.679 510,193.5C 508.513,192.259 507.68,192.759 507.5,195C 507.911,197.214 509.245,198.547 511.5,199C 510.833,199.667 510.167,200.333 509.5,201C 516.774,200.418 517.107,198.751 510.5,196C 512.422,194.58 513.755,192.747 514.5,190.5C 516.957,192.001 516.957,193.668 514.5,195.5C 516.829,196.771 517.995,198.771 518,201.5C 519.119,200.448 519.619,199.281 519.5,198C 518.643,197.311 517.977,196.478 517.5,195.5C 521.03,192.805 524.696,190.305 528.5,188C 527.833,187.667 527.167,187.333 526.5,187C 528.067,184.259 530.401,183.092 533.5,183.5C 532.976,187.876 530.643,191.043 526.5,193C 529.192,195.632 528.859,197.966 525.5,200C 525.833,200.167 526.167,200.333 526.5,200.5C 528.397,198.524 530.397,196.69 532.5,195C 531.376,194.751 530.376,194.251 529.5,193.5C 533.118,190.569 535.451,186.902 536.5,182.5C 538.764,181.781 541.097,181.448 543.5,181.5C 543.5,182.5 543.5,183.5 543.5,184.5C 548.624,181.21 552.958,177.043 556.5,172C 566.928,166.793 576.261,160.127 584.5,152C 586.463,151.156 587.796,151.656 588.5,153.5 Z"/></g>
<g><path style="opacity:1" fill="#110903" d="M 505.5,178.5 C 503.681,179.936 503.348,181.603 504.5,183.5C 505.62,182.167 506.953,181.667 508.5,182C 507.012,183.717 505.179,184.884 503,185.5C 503,186.833 503,188.167 503,189.5C 500.046,186.884 499.713,183.884 502,180.5C 502.816,179.177 503.983,178.511 505.5,178.5 Z"/></g>
<g><path style="opacity:1" fill="#120903" d="M 533.5,169.5 C 531.098,172.215 528.432,174.715 525.5,177C 527.329,177.273 528.829,178.107 530,179.5C 532.629,177.112 535.462,175.112 538.5,173.5C 535.574,176.317 532.574,179.151 529.5,182C 531.81,182.497 534.143,182.663 536.5,182.5C 535.451,186.902 533.118,190.569 529.5,193.5C 530.376,194.251 531.376,194.751 532.5,195C 530.397,196.69 528.397,198.524 526.5,200.5C 526.167,200.333 525.833,200.167 525.5,200C 528.859,197.966 529.192,195.632 526.5,193C 530.643,191.043 532.976,187.876 533.5,183.5C 530.401,183.092 528.067,184.259 526.5,187C 527.167,187.333 527.833,187.667 528.5,188C 524.696,190.305 521.03,192.805 517.5,195.5C 517.977,196.478 518.643,197.311 519.5,198C 519.619,199.281 519.119,200.448 518,201.5C 517.995,198.771 516.829,196.771 514.5,195.5C 516.957,193.668 516.957,192.001 514.5,190.5C 513.755,192.747 512.422,194.58 510.5,196C 517.107,198.751 516.774,200.418 509.5,201C 510.167,200.333 510.833,199.667 511.5,199C 509.245,198.547 507.911,197.214 507.5,195C 507.68,192.759 508.513,192.259 510,193.5C 512.137,191.679 512.97,189.346 512.5,186.5C 513.496,186.414 514.329,186.748 515,187.5C 517.4,185.271 519.567,182.937 521.5,180.5C 520.8,177.8 519.134,176.133 516.5,175.5C 518.869,175.851 521.203,176.018 523.5,176C 526.72,173.563 530.053,171.397 533.5,169.5 Z"/></g>
<g><path style="opacity:1" fill="#543317" d="M 521.5,180.5 C 525.713,177.289 527.546,178.289 527,183.5C 524.37,187.132 521.37,190.465 518,193.5C 517.727,191.671 516.893,190.171 515.5,189C 518.167,187 520.833,185 523.5,183C 522.244,182.583 521.577,181.75 521.5,180.5 Z"/></g>
<g><path style="opacity:1" fill="#523217" d="M 514.5,176.5 C 514.842,175.662 515.508,175.328 516.5,175.5C 519.134,176.133 520.8,177.8 521.5,180.5C 519.567,182.937 517.4,185.271 515,187.5C 514.329,186.748 513.496,186.414 512.5,186.5C 512.389,185.883 512.056,185.383 511.5,185C 513.641,183.692 515.641,182.192 517.5,180.5C 516.5,179.833 515.5,179.167 514.5,178.5C 515.55,177.571 515.55,176.905 514.5,176.5 Z"/></g>
<g><path style="opacity:1" fill="#170d05" d="M 516.5,169.5 C 518.713,168.227 521.046,167.227 523.5,166.5C 519.234,169.645 514.901,172.812 510.5,176C 511.878,177.334 513.211,177.501 514.5,176.5C 515.55,176.905 515.55,177.571 514.5,178.5C 515.5,179.167 516.5,179.833 517.5,180.5C 515.641,182.192 513.641,183.692 511.5,185C 512.056,185.383 512.389,185.883 512.5,186.5C 511.022,186.762 509.689,186.429 508.5,185.5C 515.609,179.664 514.609,177.331 505.5,178.5C 508.104,176.4 510.604,174.067 513,171.5C 513.49,170.207 513.657,168.873 513.5,167.5C 506.962,169.102 501.295,172.269 496.5,177C 498.167,177.333 499.833,177.667 501.5,178C 498.5,178.667 495.5,178.667 492.5,178C 498.908,172.374 506.075,167.874 514,164.5C 514.192,166.577 514.692,168.577 515.5,170.5C 516.107,170.376 516.44,170.043 516.5,169.5 Z"/></g>
<g><path style="opacity:1" fill="#211207" d="M 555.5,159.5 C 549.839,164.16 544.172,168.827 538.5,173.5C 542.947,167.389 548.614,162.723 555.5,159.5 Z"/></g>
<g><path style="opacity:1" fill="#221207" d="M 547.5,158.5 C 545.853,160.326 543.853,161.66 541.5,162.5C 542.802,160.178 544.802,158.845 547.5,158.5 Z"/></g>
<g><path style="opacity:1" fill="#72381d" d="M 565.5,181.5 C 567.948,182.473 570.615,182.806 573.5,182.5C 579.7,183.571 586.033,184.571 592.5,185.5C 594.23,186.026 595.564,187.026 596.5,188.5C 596.611,189.117 596.944,189.617 597.5,190C 595.22,190.212 593.22,191.045 591.5,192.5C 590.167,191.167 588.833,191.167 587.5,192.5C 586.452,191.617 585.285,190.95 584,190.5C 580.497,190.613 576.997,190.613 573.5,190.5C 567.723,187.316 566.723,188.149 570.5,193C 569.072,193.579 567.738,193.412 566.5,192.5C 564.547,191.756 563.547,190.256 563.5,188C 563.497,185.516 564.163,183.349 565.5,181.5 Z"/></g>
<g><path style="opacity:1" fill="#939393" d="M 613.5,172.5 C 613.167,173.167 612.833,173.833 612.5,174.5C 608.57,176.536 604.403,178.202 600,179.5C 599.667,179.167 599.333,178.833 599,178.5C 595.172,182.97 596.339,185.137 602.5,185C 603.167,186.333 603.833,187.667 604.5,189C 607.707,189.415 610.707,189.082 613.5,188C 611.421,189.64 609.088,190.806 606.5,191.5C 605.479,192.002 605.312,192.668 606,193.5C 613.574,190.573 621.407,188.24 629.5,186.5C 628.15,187.65 628.316,188.317 630,188.5C 632.749,187.543 635.249,186.21 637.5,184.5C 637.539,185.583 637.873,186.583 638.5,187.5C 637.333,190.5 636.167,193.5 635,196.5C 634.25,197.126 633.416,197.626 632.5,198C 624.333,199.755 616.167,199.922 608,198.5C 607.25,199.126 606.416,199.626 605.5,200C 612.826,200.5 620.159,200.666 627.5,200.5C 618.682,201.493 609.682,201.827 600.5,201.5C 601.11,200.609 601.443,199.609 601.5,198.5C 602.551,197.778 603.218,196.778 603.5,195.5C 604.705,194.328 604.705,192.995 603.5,191.5C 601.423,189.918 599.09,188.918 596.5,188.5C 595.564,187.026 594.23,186.026 592.5,185.5C 591.4,184.395 590.733,183.062 590.5,181.5C 596.929,175.575 604.596,172.575 613.5,172.5 Z"/></g>
<g><path style="opacity:1" fill="#3b3b3b" d="M 634.5,183.5 C 633.341,185.25 631.674,186.25 629.5,186.5C 630.659,184.75 632.326,183.75 634.5,183.5 Z"/></g>
<g><path style="opacity:1" fill="#eaeaea" d="M 634.5,183.5 C 635.791,183.263 636.791,183.596 637.5,184.5C 635.249,186.21 632.749,187.543 630,188.5C 628.316,188.317 628.15,187.65 629.5,186.5C 631.674,186.25 633.341,185.25 634.5,183.5 Z"/></g>
<g><path style="opacity:1" fill="#211c1a" d="M 461.5,183.5 C 461.205,185.423 460.372,187.09 459,188.5C 458.503,190.81 458.337,193.143 458.5,195.5C 457.366,193.034 457.199,190.367 458,187.5C 458.66,185.676 459.827,184.343 461.5,183.5 Z"/></g>
<g><path style="opacity:1" fill="#160d05" d="M 543.5,184.5 C 541.869,188.304 539.202,190.804 535.5,192C 538.036,189.295 540.703,186.795 543.5,184.5 Z"/></g>
<g><path style="opacity:1" fill="#513217" d="M 558.5,178.5 C 557.028,181.118 556.028,183.951 555.5,187C 557.178,186.888 558.845,186.388 560.5,185.5C 561.167,185.833 561.833,186.167 562.5,186.5C 561.687,187.814 560.687,188.981 559.5,190C 562.887,191.464 562.887,193.464 559.5,196C 561.473,196.495 563.473,196.662 565.5,196.5C 565.414,197.496 565.748,198.329 566.5,199C 563.239,201.426 559.573,203.093 555.5,204C 557.081,204.707 558.581,205.54 560,206.5C 560.47,207.577 560.303,208.577 559.5,209.5C 556.447,209.911 553.447,210.577 550.5,211.5C 550.167,211.167 549.833,210.833 549.5,210.5C 551.059,208.869 553.059,208.036 555.5,208C 550.277,207.433 549.277,205.099 552.5,201C 550.956,200.71 549.623,200.044 548.5,199C 550.305,196.597 552.638,194.93 555.5,194C 556.696,193.346 556.696,192.846 555.5,192.5C 551.422,194.414 547.755,196.914 544.5,200C 535.148,205.007 534.482,204.34 542.5,198C 540.497,198.419 538.497,199.253 536.5,200.5C 536.167,200.167 535.833,199.833 535.5,199.5C 537.533,197.493 539.533,195.493 541.5,193.5C 543.371,193.141 544.871,192.141 546,190.5C 549.224,185.268 553.224,180.601 558,176.5C 558.464,177.094 558.631,177.761 558.5,178.5 Z"/></g>
<g><path style="opacity:1" fill="#170d05" d="M 573.5,172.5 C 574.239,172.369 574.906,172.536 575.5,173C 573.225,177.111 569.892,179.944 565.5,181.5C 564.163,183.349 563.497,185.516 563.5,188C 563.547,190.256 564.547,191.756 566.5,192.5C 565.737,193.268 564.737,193.768 563.5,194C 564.381,194.708 565.047,195.542 565.5,196.5C 563.473,196.662 561.473,196.495 559.5,196C 562.887,193.464 562.887,191.464 559.5,190C 560.687,188.981 561.687,187.814 562.5,186.5C 561.833,186.167 561.167,185.833 560.5,185.5C 558.845,186.388 557.178,186.888 555.5,187C 556.028,183.951 557.028,181.118 558.5,178.5C 559.423,177.697 560.423,177.53 561.5,178C 559.981,179.351 558.648,180.851 557.5,182.5C 560.775,184.214 563.108,183.381 564.5,180C 568.908,179.084 571.908,176.584 573.5,172.5 Z"/></g>
<g><path style="opacity:1" fill="#513117" d="M 573.5,190.5 C 575.594,193.908 578.094,194.575 581,192.5C 584.578,193.797 588.412,194.463 592.5,194.5C 594.765,193.021 597.099,191.687 599.5,190.5C 600.919,191.005 601.585,192.005 601.5,193.5C 596.519,196.142 591.853,199.142 587.5,202.5C 584.87,199.625 582.87,200.125 581.5,204C 579.065,204.075 578.398,204.908 579.5,206.5C 578.833,206.5 578.167,206.5 577.5,206.5C 574.411,204.806 571.911,205.472 570,208.5C 568.989,207.663 567.822,207.33 566.5,207.5C 566.65,211.161 565.15,212.161 562,210.5C 561.283,211.044 560.783,211.711 560.5,212.5C 559.833,213.833 558.833,214.833 557.5,215.5C 555.97,212.758 556.636,210.758 559.5,209.5C 560.995,209.585 561.995,208.919 562.5,207.5C 561.687,206.186 560.687,205.019 559.5,204C 563.048,203.559 566.048,202.059 568.5,199.5C 568.121,197.787 567.121,196.787 565.5,196.5C 565.047,195.542 564.381,194.708 563.5,194C 564.737,193.768 565.737,193.268 566.5,192.5C 567.738,193.412 569.072,193.579 570.5,193C 566.723,188.149 567.723,187.316 573.5,190.5 Z"/></g>
<g><path style="opacity:1" fill="#1d130c" d="M 596.5,188.5 C 599.09,188.918 601.423,189.918 603.5,191.5C 604.705,192.995 604.705,194.328 603.5,195.5C 603.5,194.167 602.833,193.5 601.5,193.5C 601.585,192.005 600.919,191.005 599.5,190.5C 597.099,191.687 594.765,193.021 592.5,194.5C 588.412,194.463 584.578,193.797 581,192.5C 578.094,194.575 575.594,193.908 573.5,190.5C 576.997,190.613 580.497,190.613 584,190.5C 585.285,190.95 586.452,191.617 587.5,192.5C 588.833,191.167 590.167,191.167 591.5,192.5C 593.22,191.045 595.22,190.212 597.5,190C 596.944,189.617 596.611,189.117 596.5,188.5 Z"/></g>
<g><path style="opacity:1" fill="#c8b3c7" d="M 639.5,191.5 C 639.5,278.833 639.5,366.167 639.5,453.5C 639.167,453.5 638.833,453.5 638.5,453.5C 637.508,453.672 636.842,453.338 636.5,452.5C 637.833,409.839 638.5,366.839 638.5,323.5C 638.5,280.332 638.167,237.332 637.5,194.5C 637.427,192.973 638.094,191.973 639.5,191.5 Z"/></g>
<g><path style="opacity:1" fill="#1f1e1f" d="M 635.5,178.5 C 636.609,178.557 637.609,178.89 638.5,179.5C 638.328,180.492 638.662,181.158 639.5,181.5C 639.5,184.833 639.5,188.167 639.5,191.5C 638.094,191.973 637.427,192.973 637.5,194.5C 637.489,196.017 636.823,197.184 635.5,198C 632.978,199.341 630.311,200.174 627.5,200.5C 620.159,200.666 612.826,200.5 605.5,200C 606.416,199.626 607.25,199.126 608,198.5C 616.167,199.922 624.333,199.755 632.5,198C 633.416,197.626 634.25,197.126 635,196.5C 636.167,193.5 637.333,190.5 638.5,187.5C 637.873,186.583 637.539,185.583 637.5,184.5C 636.791,183.596 635.791,183.263 634.5,183.5C 636.599,182.185 636.933,180.518 635.5,178.5 Z"/></g>
<g><path style="opacity:1" fill="#5a5a5a" d="M 626.5,191.5 C 627.552,191.351 628.552,191.517 629.5,192C 626.911,193.197 624.244,194.197 621.5,195C 623.044,195.29 624.377,195.956 625.5,197C 622.439,197.535 619.439,197.868 616.5,198C 617.634,196.984 617.301,196.317 615.5,196C 619.307,194.572 622.974,193.072 626.5,191.5 Z"/></g>
<g><path style="opacity:1" fill="#4b2f18" d="M 458.5,195.5 C 460.426,196.242 462.259,197.242 464,198.5C 468.249,196.595 472.749,195.595 477.5,195.5C 485.485,195.272 492.485,197.606 498.5,202.5C 497.167,202.833 495.833,203.167 494.5,203.5C 493.141,202.993 492.141,201.993 491.5,200.5C 489.937,201.945 488.604,203.611 487.5,205.5C 487.433,203.576 487.1,201.576 486.5,199.5C 485.554,199.013 484.554,198.68 483.5,198.5C 479.529,199.197 475.529,199.697 471.5,200C 470.549,200.718 470.383,201.551 471,202.5C 472.814,201.24 474.647,201.24 476.5,202.5C 472.176,204.917 467.509,206.417 462.5,207C 465.167,207.333 467.833,207.667 470.5,208C 471.191,209.067 471.691,210.234 472,211.5C 473.682,210.135 473.849,208.635 472.5,207C 474.853,205.036 477.353,204.536 480,205.5C 480.333,206.833 480.667,208.167 481,209.5C 482,208.167 483,206.833 484,205.5C 484.5,206.667 485.333,207.5 486.5,208C 485.748,208.671 485.414,209.504 485.5,210.5C 482.413,212.812 479.579,215.479 477,218.5C 476.982,220.797 477.149,223.131 477.5,225.5C 477.565,225.938 477.399,226.272 477,226.5C 476.667,225.167 476.333,223.833 476,222.5C 475.329,221.748 474.496,221.414 473.5,221.5C 474.543,218.944 476.21,216.777 478.5,215C 477.833,214.833 477.167,214.667 476.5,214.5C 471.803,216.363 467.469,218.863 463.5,222C 461.08,222.687 458.913,222.187 457,220.5C 454.078,212.32 455.911,205.32 462.5,199.5C 460.625,198.591 459.292,197.257 458.5,195.5 Z"/></g>
<g><path style="opacity:1" fill="#130904" d="M 482.5,180.5 C 482.047,181.458 481.381,182.292 480.5,183C 481.5,183.333 482.5,183.667 483.5,184C 483.167,184.333 482.833,184.667 482.5,185C 487.364,184.932 492.197,184.765 497,184.5C 497.667,185.5 497.667,186.5 497,187.5C 495.978,188.354 495.145,189.354 494.5,190.5C 497.789,192.978 501.456,194.644 505.5,195.5C 508.546,200.63 508.546,205.963 505.5,211.5C 501.032,213.744 496.366,214.577 491.5,214C 492.38,215.356 492.714,216.856 492.5,218.5C 491.167,218.5 489.833,218.5 488.5,218.5C 488.5,219.5 488.5,220.5 488.5,221.5C 487.448,221.351 486.448,221.517 485.5,222C 488.07,223.349 488.07,224.516 485.5,225.5C 484.432,224.566 483.099,224.232 481.5,224.5C 482.806,223.533 483.473,222.199 483.5,220.5C 484.833,220.5 486.167,220.5 487.5,220.5C 487.5,219.5 487.5,218.5 487.5,217.5C 488.978,217.762 490.311,217.429 491.5,216.5C 489.808,210.632 490.974,209.632 495,213.5C 496.049,211.893 497.549,211.227 499.5,211.5C 499.632,208.43 499.299,205.43 498.5,202.5C 499.79,203.058 500.623,204.058 501,205.5C 501.078,207.657 501.245,209.657 501.5,211.5C 505.126,208.192 505.46,204.525 502.5,200.5C 503.397,200.331 504.397,199.998 505.5,199.5C 500.825,196.2 495.825,193.2 490.5,190.5C 491.908,189.757 493.241,188.923 494.5,188C 489.663,185.877 484.996,186.043 480.5,188.5C 479.738,187.372 479.071,186.205 478.5,185C 474.551,184.073 471.051,184.906 468,187.5C 467.254,184.211 468.42,181.711 471.5,180C 474.923,180.145 476.923,178.645 477.5,175.5C 481.463,174.829 485.13,173.662 488.5,172C 485.167,174.333 481.833,176.667 478.5,179C 476.608,179.973 474.608,180.64 472.5,181C 470.993,181.837 470.493,183.004 471,184.5C 474.94,183.465 478.773,182.131 482.5,180.5 Z"/></g>
<g><path style="opacity:1" fill="#110903" d="M 559.5,209.5 C 556.636,210.758 555.97,212.758 557.5,215.5C 556.577,216.303 555.577,216.47 554.5,216C 555.337,214.989 555.67,213.822 555.5,212.5C 552.721,212.279 550.054,212.612 547.5,213.5C 546.761,213.631 546.094,213.464 545.5,213C 548.379,211.097 549.379,208.597 548.5,205.5C 546.043,207.225 543.377,207.725 540.5,207C 543.244,206.197 545.911,205.197 548.5,204C 549.674,201.171 548.674,200.171 545.5,201C 542.833,201.667 542.833,202.333 545.5,203C 540.18,202.562 536.68,204.729 535,209.5C 534.517,208.552 534.351,207.552 534.5,206.5C 533.448,206.649 532.448,206.483 531.5,206C 534.859,203.966 535.192,201.632 532.5,199C 535.222,196.642 538.222,194.809 541.5,193.5C 539.533,195.493 537.533,197.493 535.5,199.5C 535.833,199.833 536.167,200.167 536.5,200.5C 538.497,199.253 540.497,198.419 542.5,198C 534.482,204.34 535.148,205.007 544.5,200C 547.755,196.914 551.422,194.414 555.5,192.5C 556.696,192.846 556.696,193.346 555.5,194C 552.638,194.93 550.305,196.597 548.5,199C 549.623,200.044 550.956,200.71 552.5,201C 549.277,205.099 550.277,207.433 555.5,208C 553.059,208.036 551.059,208.869 549.5,210.5C 549.833,210.833 550.167,211.167 550.5,211.5C 553.447,210.577 556.447,209.911 559.5,209.5 Z"/></g>
<g><path style="opacity:1" fill="#170c05" d="M 587.5,202.5 C 584.505,203.126 581.839,204.459 579.5,206.5C 578.398,204.908 579.065,204.075 581.5,204C 582.87,200.125 584.87,199.625 587.5,202.5 Z"/></g>
<g><path style="opacity:1" fill="#74381e" d="M 498.5,202.5 C 499.299,205.43 499.632,208.43 499.5,211.5C 497.549,211.227 496.049,211.893 495,213.5C 490.974,209.632 489.808,210.632 491.5,216.5C 490.311,217.429 488.978,217.762 487.5,217.5C 487.5,218.5 487.5,219.5 487.5,220.5C 486.167,220.5 484.833,220.5 483.5,220.5C 483.473,222.199 482.806,223.533 481.5,224.5C 480.292,225.234 478.959,225.567 477.5,225.5C 477.149,223.131 476.982,220.797 477,218.5C 479.579,215.479 482.413,212.812 485.5,210.5C 487.67,206.984 490.67,204.651 494.5,203.5C 495.833,203.167 497.167,202.833 498.5,202.5 Z"/></g>
<g><path style="opacity:1" fill="#150c04" d="M 520.5,203.5 C 520.917,202.876 521.584,202.543 522.5,202.5C 530.02,203.386 530.02,205.052 522.5,207.5C 523.804,209.016 523.304,209.682 521,209.5C 520.167,209.333 519.333,209.167 518.5,209C 520.167,207.333 521.833,205.667 523.5,204C 522.552,203.517 521.552,203.351 520.5,203.5 Z"/></g>
<g><path style="opacity:1" fill="#160d05" d="M 565.5,196.5 C 567.121,196.787 568.121,197.787 568.5,199.5C 566.048,202.059 563.048,203.559 559.5,204C 560.687,205.019 561.687,206.186 562.5,207.5C 561.995,208.919 560.995,209.585 559.5,209.5C 560.303,208.577 560.47,207.577 560,206.5C 558.581,205.54 557.081,204.707 555.5,204C 559.573,203.093 563.239,201.426 566.5,199C 565.748,198.329 565.414,197.496 565.5,196.5 Z"/></g>
<g><path style="opacity:1" fill="#190f06" d="M 494.5,203.5 C 490.67,204.651 487.67,206.984 485.5,210.5C 485.414,209.504 485.748,208.671 486.5,208C 485.333,207.5 484.5,206.667 484,205.5C 483,206.833 482,208.167 481,209.5C 480.667,208.167 480.333,206.833 480,205.5C 477.353,204.536 474.853,205.036 472.5,207C 473.849,208.635 473.682,210.135 472,211.5C 471.691,210.234 471.191,209.067 470.5,208C 467.833,207.667 465.167,207.333 462.5,207C 467.509,206.417 472.176,204.917 476.5,202.5C 474.647,201.24 472.814,201.24 471,202.5C 470.383,201.551 470.549,200.718 471.5,200C 475.529,199.697 479.529,199.197 483.5,198.5C 484.554,198.68 485.554,199.013 486.5,199.5C 487.1,201.576 487.433,203.576 487.5,205.5C 488.604,203.611 489.937,201.945 491.5,200.5C 492.141,201.993 493.141,202.993 494.5,203.5 Z"/></g>
<g><path style="opacity:1" fill="#74381e" d="M 601.5,193.5 C 602.833,193.5 603.5,194.167 603.5,195.5C 603.218,196.778 602.551,197.778 601.5,198.5C 598.488,200.502 595.155,201.669 591.5,202C 589.792,204.043 587.792,205.71 585.5,207C 578.929,208.072 573.762,211.238 570,216.5C 569.692,215.692 569.192,215.025 568.5,214.5C 566.823,216.54 565.156,218.54 563.5,220.5C 562.852,218.851 561.852,217.518 560.5,216.5C 560.628,218.129 559.628,219.462 557.5,220.5C 555.76,218.789 553.76,217.956 551.5,218C 552.357,218.689 553.023,219.522 553.5,220.5C 551.905,221.434 550.239,221.434 548.5,220.5C 547.432,219.566 546.099,219.232 544.5,219.5C 544.5,217.833 544.5,216.167 544.5,214.5C 545.791,214.737 546.791,214.404 547.5,213.5C 550.054,212.612 552.721,212.279 555.5,212.5C 555.67,213.822 555.337,214.989 554.5,216C 555.577,216.47 556.577,216.303 557.5,215.5C 558.833,214.833 559.833,213.833 560.5,212.5C 562.017,212.511 563.184,213.177 564,214.5C 565.685,212.983 567.185,211.316 568.5,209.5C 569.086,209.709 569.586,210.043 570,210.5C 571.333,209.167 572.667,207.833 574,206.5C 575.292,207.791 576.458,207.791 577.5,206.5C 578.167,206.5 578.833,206.5 579.5,206.5C 581.839,204.459 584.505,203.126 587.5,202.5C 591.853,199.142 596.519,196.142 601.5,193.5 Z"/></g>
<g><path style="opacity:1" fill="#1a0e06" d="M 577.5,206.5 C 576.458,207.791 575.292,207.791 574,206.5C 572.667,207.833 571.333,209.167 570,210.5C 569.586,210.043 569.086,209.709 568.5,209.5C 567.185,211.316 565.685,212.983 564,214.5C 563.184,213.177 562.017,212.511 560.5,212.5C 560.783,211.711 561.283,211.044 562,210.5C 565.15,212.161 566.65,211.161 566.5,207.5C 567.822,207.33 568.989,207.663 570,208.5C 571.911,205.472 574.411,204.806 577.5,206.5 Z"/></g>
<g><path style="opacity:1" fill="#140b04" d="M 514.5,209.5 C 515.836,211.307 517.503,212.807 519.5,214C 519.167,214.333 518.833,214.667 518.5,215C 521.096,215.458 523.263,214.625 525,212.5C 525.483,213.448 525.649,214.448 525.5,215.5C 527.288,215.215 528.955,215.548 530.5,216.5C 530.113,217.72 529.28,218.387 528,218.5C 525.016,216.312 521.85,215.979 518.5,217.5C 517.636,215.803 516.303,214.637 514.5,214C 515.413,212.586 515.413,211.086 514.5,209.5 Z"/></g>
<g><path style="opacity:1" fill="#17120f" d="M 601.5,198.5 C 601.443,199.609 601.11,200.609 600.5,201.5C 598.199,202.06 595.866,202.56 593.5,203C 589.493,206.678 584.827,209.011 579.5,210C 575.753,214.418 571.42,218.084 566.5,221C 565.167,222 565.167,223 566.5,224C 569.482,224.498 572.482,224.665 575.5,224.5C 575.263,225.791 575.596,226.791 576.5,227.5C 574.679,228.117 572.679,228.284 570.5,228C 569.366,229.016 569.699,229.683 571.5,230C 569.859,231.129 568.859,232.629 568.5,234.5C 567.624,234.631 566.957,234.298 566.5,233.5C 567.711,232.28 567.711,231.113 566.5,230C 567.167,229.333 567.833,228.667 568.5,228C 564.148,227.581 563.815,226.914 567.5,226C 564.833,224.667 562.167,223.333 559.5,222C 552.474,221.92 545.474,221.92 538.5,222C 539.89,219.006 538.89,217.006 535.5,216C 536,215.833 536.5,215.667 537,215.5C 538.925,217.085 541.091,218.252 543.5,219C 543.167,219.333 542.833,219.667 542.5,220C 544.473,220.495 546.473,220.662 548.5,220.5C 550.239,221.434 551.905,221.434 553.5,220.5C 553.023,219.522 552.357,218.689 551.5,218C 553.76,217.956 555.76,218.789 557.5,220.5C 559.628,219.462 560.628,218.129 560.5,216.5C 561.852,217.518 562.852,218.851 563.5,220.5C 565.156,218.54 566.823,216.54 568.5,214.5C 569.192,215.025 569.692,215.692 570,216.5C 573.762,211.238 578.929,208.072 585.5,207C 587.792,205.71 589.792,204.043 591.5,202C 595.155,201.669 598.488,200.502 601.5,198.5 Z"/></g>
<g><path style="opacity:1" fill="#0f0904" d="M 516.5,225.5 C 514.847,226.799 513.347,226.466 512,224.5C 511,225.5 510,226.5 509,227.5C 507.155,225.913 505.155,224.579 503,223.5C 499.719,224.96 496.886,226.96 494.5,229.5C 494.5,228.833 494.5,228.167 494.5,227.5C 497.738,225.199 501.071,222.865 504.5,220.5C 507.058,225.646 509.391,225.646 511.5,220.5C 512.855,222.521 514.521,224.188 516.5,225.5 Z"/></g>
<g><path style="opacity:1" fill="#282828" d="M 473.5,221.5 C 473.315,223.196 472.481,224.529 471,225.5C 470.184,224.177 469.017,223.511 467.5,223.5C 467.461,222.244 467.961,221.244 469,220.5C 469.964,224.005 471.464,224.338 473.5,221.5 Z"/></g>
<g><path style="opacity:1" fill="#f8f8f8" d="M 466.5,226.5 C 467.885,227.574 469.051,228.907 470,230.5C 471.194,228.475 472.694,228.141 474.5,229.5C 476.412,227.844 478.412,227.511 480.5,228.5C 480.291,229.086 479.957,229.586 479.5,230C 480.833,230.333 482.167,230.667 483.5,231C 482.944,231.383 482.611,231.883 482.5,232.5C 481.791,233.404 480.791,233.737 479.5,233.5C 479.768,235.099 479.434,236.432 478.5,237.5C 478.56,238.043 478.893,238.376 479.5,238.5C 480.429,237.311 480.762,235.978 480.5,234.5C 481.5,234.5 482.5,234.5 483.5,234.5C 483.783,235.289 484.283,235.956 485,236.5C 485.893,235.289 486.726,235.289 487.5,236.5C 485.345,237.41 483.345,238.577 481.5,240C 483.5,240.333 485.5,240.667 487.5,241C 482.135,242.83 477.802,245.997 474.5,250.5C 472.251,251.08 470.585,252.413 469.5,254.5C 468.417,254.539 467.417,254.873 466.5,255.5C 465.818,254.757 465.151,254.091 464.5,253.5C 459.659,254.354 454.659,254.354 449.5,253.5C 452.28,252.922 454.947,252.255 457.5,251.5C 460.67,250.208 461.004,248.542 458.5,246.5C 457.212,242.806 456.045,243.14 455,247.5C 451.478,251.815 448.978,251.482 447.5,246.5C 454.564,240.438 460.897,233.772 466.5,226.5 Z"/></g>
<g><path style="opacity:1" fill="#0c0602" d="M 556.5,243.5 C 557.953,242.175 557.619,241.342 555.5,241C 556.833,240.333 556.833,239.667 555.5,239C 553.1,238.814 550.766,238.314 548.5,237.5C 550.973,235.902 550.973,234.402 548.5,233C 548.833,232.667 549.167,232.333 549.5,232C 546.893,231.363 544.56,230.196 542.5,228.5C 541.059,229.304 539.559,229.971 538,230.5C 536.144,229.264 534.311,229.264 532.5,230.5C 531.749,229.624 531.249,228.624 531,227.5C 529.216,230.003 527.549,230.003 526,227.5C 523.04,228.531 520.04,229.531 517,230.5C 516.735,228.837 517.235,227.337 518.5,226C 517.906,225.536 517.239,225.369 516.5,225.5C 519.321,221.372 520.821,222.039 521,227.5C 522.962,227.969 524.795,227.303 526.5,225.5C 527.167,226.167 527.833,226.833 528.5,227.5C 530.5,226.5 532.5,225.5 534.5,224.5C 534.165,225.664 534.165,226.997 534.5,228.5C 536.167,227.167 537.833,227.167 539.5,228.5C 540.941,227.696 542.441,227.029 544,226.5C 545.371,227.581 546.871,228.415 548.5,229C 548.167,229.333 547.833,229.667 547.5,230C 549.167,230.333 550.833,230.667 552.5,231C 552.167,232.667 551.833,234.333 551.5,236C 555.631,235.961 558.631,237.795 560.5,241.5C 559.423,242.705 558.09,243.372 556.5,243.5 Z"/></g>
<g><path style="opacity:1" fill="#8b8b8b" d="M 473.5,221.5 C 474.496,221.414 475.329,221.748 476,222.5C 476.333,223.833 476.667,225.167 477,226.5C 477.399,226.272 477.565,225.938 477.5,225.5C 478.959,225.567 480.292,225.234 481.5,224.5C 483.099,224.232 484.432,224.566 485.5,225.5C 484.733,226.172 484.066,227.005 483.5,228C 487.079,227.663 490.746,227.496 494.5,227.5C 494.5,228.167 494.5,228.833 494.5,229.5C 491.884,230.48 489.551,231.98 487.5,234C 495.032,233.952 495.365,235.286 488.5,238C 489.833,238.667 491.167,239.333 492.5,240C 491.584,240.278 490.918,240.778 490.5,241.5C 484.883,243.976 479.549,246.976 474.5,250.5C 477.802,245.997 482.135,242.83 487.5,241C 485.5,240.667 483.5,240.333 481.5,240C 483.345,238.577 485.345,237.41 487.5,236.5C 486.726,235.289 485.893,235.289 485,236.5C 484.283,235.956 483.783,235.289 483.5,234.5C 485.031,233.075 484.698,232.409 482.5,232.5C 482.611,231.883 482.944,231.383 483.5,231C 482.167,230.667 480.833,230.333 479.5,230C 479.957,229.586 480.291,229.086 480.5,228.5C 478.412,227.511 476.412,227.844 474.5,229.5C 472.694,228.141 471.194,228.475 470,230.5C 469.051,228.907 467.885,227.574 466.5,226.5C 467.11,225.609 467.443,224.609 467.5,223.5C 469.017,223.511 470.184,224.177 471,225.5C 472.481,224.529 473.315,223.196 473.5,221.5 Z"/></g>
<g><path style="opacity:1" fill="#0a0502" d="M 564.5,235.5 C 562.088,235.306 561.088,233.973 561.5,231.5C 558.978,231.872 556.978,231.039 555.5,229C 557.614,227.482 559.947,227.149 562.5,228C 561.328,228.419 560.328,229.085 559.5,230C 561.256,230.202 562.922,230.702 564.5,231.5C 563.193,232.865 563.193,234.198 564.5,235.5 Z"/></g>
<g><path style="opacity:1" fill="#202020" d="M 482.5,232.5 C 484.698,232.409 485.031,233.075 483.5,234.5C 482.5,234.5 481.5,234.5 480.5,234.5C 480.762,235.978 480.429,237.311 479.5,238.5C 478.893,238.376 478.56,238.043 478.5,237.5C 479.434,236.432 479.768,235.099 479.5,233.5C 480.791,233.737 481.791,233.404 482.5,232.5 Z"/></g>
<g><path style="opacity:1" fill="#110d0b" d="M 524.5,237.5 C 524.16,241.131 524.994,244.464 527,247.5C 529.847,251.011 532.68,254.511 535.5,258C 534.315,262.395 532.648,266.561 530.5,270.5C 530.167,270.5 529.833,270.5 529.5,270.5C 530.815,266.526 532.149,262.526 533.5,258.5C 530.569,255.39 527.736,252.057 525,248.5C 523.824,244.973 522.658,241.473 521.5,238C 519.953,237.667 518.62,238.167 517.5,239.5C 513.494,237.861 509.994,238.527 507,241.5C 504.568,240.55 502.068,240.55 499.5,241.5C 499.881,240.069 500.881,239.236 502.5,239C 508.59,238.16 514.59,236.993 520.5,235.5C 522.171,235.668 523.504,236.335 524.5,237.5 Z"/></g>
<g><path style="opacity:1" fill="#4b4b4b" d="M 478.5,237.5 C 476.983,237.511 475.816,238.177 475,239.5C 473.532,237.184 471.699,236.851 469.5,238.5C 465.555,236.906 465.555,236.573 469.5,237.5C 471.392,234.956 473.225,234.956 475,237.5C 476.292,236.209 477.458,236.209 478.5,237.5 Z"/></g>
<g><path style="opacity:1" fill="#75391e" d="M 524.5,237.5 C 524.833,237.5 525.167,237.5 525.5,237.5C 531.374,242.024 538.041,245.024 545.5,246.5C 544.185,248.316 542.685,249.983 541,251.5C 540.16,255.063 538.826,258.397 537,261.5C 536.401,263.535 536.901,265.201 538.5,266.5C 537.974,268.23 536.974,269.564 535.5,270.5C 533.833,270.5 532.167,270.5 530.5,270.5C 532.648,266.561 534.315,262.395 535.5,258C 532.68,254.511 529.847,251.011 527,247.5C 524.994,244.464 524.16,241.131 524.5,237.5 Z"/></g>
<g><path style="opacity:1" fill="#120a04" d="M 568.5,234.5 C 572.321,235.25 572.988,236.916 570.5,239.5C 570.833,240.167 571.167,240.833 571.5,241.5C 569.517,242.982 567.684,244.649 566,246.5C 566.093,249.956 565.093,252.956 563,255.5C 562.607,253.801 563.107,252.301 564.5,251C 564.011,249.862 563.678,248.695 563.5,247.5C 566.001,244.156 568.334,240.656 570.5,237C 569.619,236.292 568.953,235.458 568.5,234.5 Z"/></g>
<g><path style="opacity:1" fill="#1f1a17" d="M 579.5,241.5 C 579.511,239.983 580.177,238.816 581.5,238C 579.744,237.798 578.078,237.298 576.5,236.5C 579.471,234.203 581.138,231.203 581.5,227.5C 579.901,227.768 578.568,227.434 577.5,226.5C 579.042,225.699 580.708,225.366 582.5,225.5C 582.98,229.306 581.98,232.639 579.5,235.5C 581.078,236.298 582.744,236.798 584.5,237C 582.963,238.707 581.296,240.207 579.5,241.5 Z"/></g>
<g><path style="opacity:1" fill="#180f06" d="M 564.5,235.5 C 565.376,235.369 566.043,235.702 566.5,236.5C 565.289,237.72 565.289,238.887 566.5,240C 564.253,241.995 563.253,244.495 563.5,247.5C 562.59,249.019 561.757,250.685 561,252.5C 557.163,255.085 556.829,254.751 560,251.5C 562.128,246.316 563.628,240.983 564.5,235.5 Z"/></g>
<g><path style="opacity:1" fill="#000065" d="M -0.5,-0.5 C 212.167,-0.5 424.833,-0.5 637.5,-0.5C 637.5,-0.166667 637.5,0.166667 637.5,0.5C 424.948,79.573 212.615,159.24 0.5,239.5C 212.615,319.76 424.948,399.427 637.5,478.5C 637.5,478.833 637.5,479.167 637.5,479.5C 424.833,479.5 212.167,479.5 -0.5,479.5C -0.5,319.5 -0.5,159.5 -0.5,-0.5 Z"/></g>
<g><path style="opacity:1" fill="#343434" d="M 467.5,223.5 C 467.443,224.609 467.11,225.609 466.5,226.5C 460.897,233.772 454.564,240.438 447.5,246.5C 454.173,238.828 460.84,231.161 467.5,223.5 Z"/></g>
<g><path style="opacity:1" fill="#130b04" d="M 556.5,243.5 C 556.414,244.496 556.748,245.329 557.5,246C 556.016,247.574 554.349,248.907 552.5,250C 554.707,252.984 554.207,253.15 551,250.5C 550.517,249.552 550.351,248.552 550.5,247.5C 552.429,247.769 554.095,247.269 555.5,246C 552.949,244.484 553.282,243.651 556.5,243.5 Z"/></g>
<g><path style="opacity:1" fill="#171412" d="M 575.5,243.5 C 576.434,245.239 576.434,246.905 575.5,248.5C 573.929,247.691 572.262,247.357 570.5,247.5C 570.5,250.833 570.5,254.167 570.5,257.5C 569.178,257.33 568.011,257.663 567,258.5C 565.999,261.173 564.499,263.507 562.5,265.5C 561.742,264.189 560.742,263.689 559.5,264C 558.336,266.328 556.67,268.162 554.5,269.5C 555.581,267.236 556.915,265.069 558.5,263C 560.433,262.749 562.266,262.249 564,261.5C 564.251,259.567 564.751,257.734 565.5,256C 566.448,255.517 567.448,255.351 568.5,255.5C 568.5,252.167 568.5,248.833 568.5,245.5C 570.5,245.5 572.5,245.5 574.5,245.5C 574.246,243.599 574.58,242.933 575.5,243.5 Z"/></g>
<g><path style="opacity:1" fill="#eeeeee" d="M 458.5,246.5 C 458.634,248.292 458.301,249.958 457.5,251.5C 453.162,251.378 452.828,251.045 456.5,250.5C 456.157,248.517 456.824,247.183 458.5,246.5 Z"/></g>
<g><path style="opacity:1" fill="#6f6f6f" d="M 458.5,246.5 C 461.004,248.542 460.67,250.208 457.5,251.5C 458.301,249.958 458.634,248.292 458.5,246.5 Z"/></g>
<g><path style="opacity:1" fill="#150b04" d="M 525.5,237.5 C 525.917,236.876 526.584,236.543 527.5,236.5C 533.657,242.111 540.99,244.777 549.5,244.5C 547.565,247.938 545.065,250.938 542,253.5C 541.779,257.041 540.612,260.207 538.5,263C 538.57,263.765 538.903,264.265 539.5,264.5C 539.167,265.167 538.833,265.833 538.5,266.5C 536.901,265.201 536.401,263.535 537,261.5C 538.826,258.397 540.16,255.063 541,251.5C 542.685,249.983 544.185,248.316 545.5,246.5C 538.041,245.024 531.374,242.024 525.5,237.5 Z"/></g>
<g><path style="opacity:1" fill="#ededed" d="M 448.5,253.5 C 447.833,254.167 447.167,254.833 446.5,255.5C 446.167,255.5 445.833,255.5 445.5,255.5C 445.5,254.167 445.5,252.833 445.5,251.5C 447.179,251.285 448.179,251.952 448.5,253.5 Z"/></g>
<g><path style="opacity:1" fill="#575756" d="M 458.5,246.5 C 456.824,247.183 456.157,248.517 456.5,250.5C 452.828,251.045 453.162,251.378 457.5,251.5C 454.947,252.255 452.28,252.922 449.5,253.5C 449.167,253.5 448.833,253.5 448.5,253.5C 448.179,251.952 447.179,251.285 445.5,251.5C 445.5,252.833 445.5,254.167 445.5,255.5C 445.5,256.167 445.167,256.5 444.5,256.5C 444.337,254.143 444.503,251.81 445,249.5C 445.377,248.058 446.21,247.058 447.5,246.5C 448.978,251.482 451.478,251.815 455,247.5C 456.045,243.14 457.212,242.806 458.5,246.5 Z"/></g>
<g><path style="opacity:1" fill="#494949" d="M 474.5,250.5 C 473.415,252.587 471.749,253.92 469.5,254.5C 470.585,252.413 472.251,251.08 474.5,250.5 Z"/></g>
<g><path style="opacity:1" fill="#f0b61f" d="M 464.5,253.5 C 464.5,254.833 464.5,256.167 464.5,257.5C 463.094,257.973 462.427,258.973 462.5,260.5C 460.251,261.08 458.585,262.413 457.5,264.5C 456.833,264.5 456.167,264.5 455.5,264.5C 455.833,263.833 456.167,263.167 456.5,262.5C 458.83,260.458 459.996,257.792 460,254.5C 461.356,253.62 462.856,253.286 464.5,253.5 Z"/></g>
<g><path style="opacity:1" fill="#524119" d="M 464.5,253.5 C 462.856,253.286 461.356,253.62 460,254.5C 459.996,257.792 458.83,260.458 456.5,262.5C 456.5,261.833 456.167,261.5 455.5,261.5C 458.482,257.957 457.815,256.79 453.5,258C 454.833,257.333 456.167,256.667 457.5,256C 453.848,255.501 450.182,255.335 446.5,255.5C 447.167,254.833 447.833,254.167 448.5,253.5C 448.833,253.5 449.167,253.5 449.5,253.5C 454.659,254.354 459.659,254.354 464.5,253.5 Z"/></g>
<g><path style="opacity:1" fill="#4a4a49" d="M 464.5,253.5 C 465.151,254.091 465.818,254.757 466.5,255.5C 467.417,254.873 468.417,254.539 469.5,254.5C 468.232,256.047 466.565,257.047 464.5,257.5C 464.5,256.167 464.5,254.833 464.5,253.5 Z"/></g>
<g><path style="opacity:1" fill="#e8b01e" d="M 445.5,255.5 C 445.833,255.5 446.167,255.5 446.5,255.5C 450.182,255.335 453.848,255.501 457.5,256C 456.167,256.667 454.833,257.333 453.5,258C 457.815,256.79 458.482,257.957 455.5,261.5C 453.847,261.66 452.514,262.326 451.5,263.5C 449.448,264.053 449.115,265.053 450.5,266.5C 450.5,267.167 450.5,267.833 450.5,268.5C 447.763,268.599 445.096,268.265 442.5,267.5C 442.5,265.5 442.5,263.5 442.5,261.5C 444.213,260.365 444.88,258.698 444.5,256.5C 445.167,256.5 445.5,256.167 445.5,255.5 Z"/></g>
<g><path style="opacity:1" fill="#524a3d" d="M 444.5,256.5 C 444.88,258.698 444.213,260.365 442.5,261.5C 442.796,259.597 443.463,257.93 444.5,256.5 Z"/></g>
<g><path style="opacity:1" fill="#615643" d="M 464.5,257.5 C 464.573,259.027 463.906,260.027 462.5,260.5C 462.427,258.973 463.094,257.973 464.5,257.5 Z"/></g>
<g><path style="opacity:1" fill="#675d4d" d="M 462.5,260.5 C 461.415,262.587 459.749,263.92 457.5,264.5C 458.585,262.413 460.251,261.08 462.5,260.5 Z"/></g>
<g><path style="opacity:1" fill="#948f86" d="M 455.5,261.5 C 456.167,261.5 456.5,261.833 456.5,262.5C 456.167,263.167 455.833,263.833 455.5,264.5C 453.486,264.392 451.82,265.058 450.5,266.5C 450.557,265.391 450.89,264.391 451.5,263.5C 452.514,262.326 453.847,261.66 455.5,261.5 Z"/></g>
<g><path style="opacity:1" fill="#58492d" d="M 442.5,261.5 C 442.5,263.5 442.5,265.5 442.5,267.5C 440.006,265.594 440.006,263.594 442.5,261.5 Z"/></g>
<g><path style="opacity:1" fill="#433d34" d="M 451.5,263.5 C 450.89,264.391 450.557,265.391 450.5,266.5C 449.115,265.053 449.448,264.053 451.5,263.5 Z"/></g>
<g><path style="opacity:1" fill="#695428" d="M 455.5,264.5 C 456.167,264.5 456.833,264.5 457.5,264.5C 455.664,266.588 453.331,267.921 450.5,268.5C 450.5,267.833 450.5,267.167 450.5,266.5C 451.82,265.058 453.486,264.392 455.5,264.5 Z"/></g>
<g><path style="opacity:1" fill="#3b3426" d="M 438.5,268.5 C 436.5,268.833 434.5,269.167 432.5,269.5C 434.32,267.539 436.32,267.206 438.5,268.5 Z"/></g>
<g><path style="opacity:1" fill="#4b4232" d="M 438.5,268.5 C 441.485,269.326 444.151,270.659 446.5,272.5C 443.246,272.206 440.579,270.873 438.5,268.5 Z"/></g>
<g><path style="opacity:1" fill="#4e483d" d="M 442.5,267.5 C 445.096,268.265 447.763,268.599 450.5,268.5C 449.551,269.152 448.385,269.486 447,269.5C 444.992,269.693 443.492,269.026 442.5,267.5 Z"/></g>
<g><path style="opacity:1" fill="#f5ba20" d="M 438.5,268.5 C 440.579,270.873 443.246,272.206 446.5,272.5C 452.047,275.39 458.047,277.056 464.5,277.5C 460.427,279.135 456.094,280.135 451.5,280.5C 446.483,280.63 441.649,281.63 437,283.5C 434.711,283.125 432.545,282.459 430.5,281.5C 424.591,279.845 418.591,279.012 412.5,279C 415.402,279.919 415.735,280.752 413.5,281.5C 413.167,281.5 412.833,281.5 412.5,281.5C 411.01,279.72 409.01,279.054 406.5,279.5C 405.432,278.566 404.099,278.232 402.5,278.5C 403.5,277.833 404.5,277.167 405.5,276.5C 410.652,275.903 415.652,274.903 420.5,273.5C 425.079,273.53 429.079,272.196 432.5,269.5C 434.5,269.167 436.5,268.833 438.5,268.5 Z"/></g>
<g><path style="opacity:1" fill="#6e3b1b" d="M 553.5,276.5 C 550.822,277.175 548.488,278.509 546.5,280.5C 543.15,280.335 539.817,280.502 536.5,281C 537.823,281.816 538.489,282.983 538.5,284.5C 537.833,284.833 537.167,285.167 536.5,285.5C 536.607,283.097 535.607,281.264 533.5,280C 534.579,279.044 535.745,278.211 537,277.5C 538.77,279.418 540.937,279.918 543.5,279C 542.5,278.667 541.5,278.333 540.5,278C 541.598,277.23 541.598,276.397 540.5,275.5C 541.64,273.22 542.807,270.886 544,268.5C 545.378,270.213 547.045,271.547 549,272.5C 549.915,271.672 550.581,270.672 551,269.5C 552.043,271.833 552.876,274.166 553.5,276.5 Z"/></g>
<g><path style="opacity:1" fill="#1c1106" d="M 553.5,269.5 C 553.5,271.833 553.5,274.167 553.5,276.5C 552.876,274.166 552.043,271.833 551,269.5C 550.581,270.672 549.915,271.672 549,272.5C 547.045,271.547 545.378,270.213 544,268.5C 542.807,270.886 541.64,273.22 540.5,275.5C 539.833,275.167 539.167,274.833 538.5,274.5C 538.833,273.833 539.167,273.167 539.5,272.5C 541.141,270.713 542.141,268.546 542.5,266C 542.316,264.624 541.649,263.791 540.5,263.5C 540.811,262.522 541.478,261.855 542.5,261.5C 543.259,265.359 545.259,268.359 548.5,270.5C 549.173,268.311 550.173,266.311 551.5,264.5C 549.257,263.588 548.257,261.922 548.5,259.5C 549.342,257.235 549.342,255.068 548.5,253C 550.586,252.443 551.919,253.276 552.5,255.5C 550.054,256.427 549.221,258.094 550,260.5C 551.635,261.726 553.135,263.059 554.5,264.5C 553.737,265.719 552.737,266.719 551.5,267.5C 551.855,268.522 552.522,269.189 553.5,269.5 Z"/></g>
<g><path style="opacity:1" fill="#fabe20" d="M 466.5,283.5 C 466.5,281.833 466.5,280.167 466.5,278.5C 466.5,276.833 466.5,275.167 466.5,273.5C 467.627,272.878 468.627,272.045 469.5,271C 470.944,270.219 472.277,270.386 473.5,271.5C 471.815,275.661 471.148,279.994 471.5,284.5C 469.585,284.784 467.919,284.451 466.5,283.5 Z"/></g>
<g><path style="opacity:1" fill="#504632" d="M 503.5,272.5 C 502.504,272.586 501.671,272.252 501,271.5C 499.961,272.71 498.794,273.71 497.5,274.5C 498.6,270.353 500.6,269.687 503.5,272.5 Z"/></g>
<g><path style="opacity:1" fill="#ebb31f" d="M 520.5,271.5 C 521.873,271.343 523.207,271.51 524.5,272C 522.109,274.668 520.109,277.001 518.5,279C 519.713,281.687 520.38,284.52 520.5,287.5C 519.833,287.5 519.167,287.5 518.5,287.5C 514.5,282.5 514.5,277.5 518.5,272.5C 518.842,271.662 519.508,271.328 520.5,271.5 Z"/></g>
<g><path style="opacity:1" fill="#e9b11e" d="M 540.5,263.5 C 541.649,263.791 542.316,264.624 542.5,266C 542.141,268.546 541.141,270.713 539.5,272.5C 536.813,272.336 534.146,272.503 531.5,273C 530.177,273.816 529.511,274.983 529.5,276.5C 521.388,280.031 520.388,278.531 526.5,272C 529.695,271.819 532.695,271.319 535.5,270.5C 536.974,269.564 537.974,268.23 538.5,266.5C 538.833,265.833 539.167,265.167 539.5,264.5C 540.167,264.5 540.5,264.167 540.5,263.5 Z"/></g>
<g><path style="opacity:1" fill="#81662c" d="M 432.5,269.5 C 429.079,272.196 425.079,273.53 420.5,273.5C 424.216,271.595 428.216,270.261 432.5,269.5 Z"/></g>
<g><path style="opacity:1" fill="#edb41e" d="M 476.5,271.5 C 476.539,272.583 476.873,273.583 477.5,274.5C 476.398,275.176 475.398,275.842 474.5,276.5C 473.167,274.176 473.834,272.509 476.5,271.5 Z"/></g>
<g><path style="opacity:1" fill="#f0b61f" d="M 503.5,272.5 C 503.842,273.338 504.508,273.672 505.5,273.5C 505.973,274.906 506.973,275.573 508.5,275.5C 509.514,276.674 510.847,277.34 512.5,277.5C 515.396,282.661 514.729,283.328 510.5,279.5C 509.494,279.938 509.494,280.604 510.5,281.5C 509.675,282.386 508.675,282.719 507.5,282.5C 504.52,284.051 501.353,285.384 498,286.5C 497.501,282.514 497.334,278.514 497.5,274.5C 498.794,273.71 499.961,272.71 501,271.5C 501.671,272.252 502.504,272.586 503.5,272.5 Z"/></g>
<g><path style="opacity:1" fill="#5c4b2b" d="M 446.5,272.5 C 451.405,273.881 456.405,274.881 461.5,275.5C 463.455,275.276 465.121,274.609 466.5,273.5C 466.5,275.167 466.5,276.833 466.5,278.5C 465.833,278.167 465.167,277.833 464.5,277.5C 458.047,277.056 452.047,275.39 446.5,272.5 Z"/></g>
<g><path style="opacity:1" fill="#533f0d" d="M 539.5,272.5 C 539.167,273.167 538.833,273.833 538.5,274.5C 535.438,272.879 532.772,273.379 530.5,276C 531.712,277.107 531.379,277.607 529.5,277.5C 529.5,277.167 529.5,276.833 529.5,276.5C 529.511,274.983 530.177,273.816 531.5,273C 534.146,272.503 536.813,272.336 539.5,272.5 Z"/></g>
<g><path style="opacity:1" fill="#eab21e" d="M 538.5,274.5 C 539.167,274.833 539.833,275.167 540.5,275.5C 541.598,276.397 541.598,277.23 540.5,278C 541.5,278.333 542.5,278.667 543.5,279C 540.937,279.918 538.77,279.418 537,277.5C 535.745,278.211 534.579,279.044 533.5,280C 535.607,281.264 536.607,283.097 536.5,285.5C 535.402,286.397 535.402,287.23 536.5,288C 535.255,288.791 533.922,289.291 532.5,289.5C 531.525,287.807 530.192,286.307 528.5,285C 529.153,282.832 529.486,280.332 529.5,277.5C 531.379,277.607 531.712,277.107 530.5,276C 532.772,273.379 535.438,272.879 538.5,274.5 Z"/></g>
<g><path style="opacity:1" fill="#695113" d="M 476.5,271.5 C 478.104,272.287 478.771,273.62 478.5,275.5C 484.5,275.5 490.5,275.5 496.5,275.5C 496.5,275.833 496.5,276.167 496.5,276.5C 495.5,276.5 494.5,276.5 493.5,276.5C 493.48,285.741 492.814,285.741 491.5,276.5C 490.686,278.766 490.186,281.1 490,283.5C 489,274.167 488,274.167 487,283.5C 486,274.167 485,274.167 484,283.5C 483.503,281.19 483.337,278.857 483.5,276.5C 480.5,276.5 477.5,276.5 474.5,276.5C 475.398,275.842 476.398,275.176 477.5,274.5C 476.873,273.583 476.539,272.583 476.5,271.5 Z"/></g>
<g><path style="opacity:1" fill="#7a7770" d="M 405.5,276.5 C 404.5,277.167 403.5,277.833 402.5,278.5C 400.25,278.819 398.25,278.319 396.5,277C 399.482,276.502 402.482,276.335 405.5,276.5 Z"/></g>
<g><path style="opacity:1" fill="#836b39" d="M 406.5,279.5 C 409.01,279.054 411.01,279.72 412.5,281.5C 410.214,281.405 408.214,280.738 406.5,279.5 Z"/></g>
<g><path style="opacity:1" fill="#18140d" d="M 430.5,281.5 C 427.359,282.321 424.025,282.821 420.5,283C 422.727,283.941 424.727,285.108 426.5,286.5C 421.868,285.404 417.534,283.737 413.5,281.5C 415.735,280.752 415.402,279.919 412.5,279C 418.591,279.012 424.591,279.845 430.5,281.5 Z"/></g>
<g><path style="opacity:1" fill="#8f6d12" d="M 464.5,277.5 C 465.167,277.833 465.833,278.167 466.5,278.5C 466.5,280.167 466.5,281.833 466.5,283.5C 466.167,283.5 465.833,283.5 465.5,283.5C 465.5,282.5 465.5,281.5 465.5,280.5C 462.5,280.5 459.5,280.5 456.5,280.5C 454.833,280.5 453.167,280.5 451.5,280.5C 456.094,280.135 460.427,279.135 464.5,277.5 Z"/></g>
<g><path style="opacity:1" fill="#4f4636" d="M 553.5,276.5 C 554.043,276.56 554.376,276.893 554.5,277.5C 553.271,278.281 551.938,278.781 550.5,279C 556.348,279.173 562.015,279.673 567.5,280.5C 560.5,280.5 553.5,280.5 546.5,280.5C 548.488,278.509 550.822,277.175 553.5,276.5 Z"/></g>
<g><path style="opacity:1" fill="#edb41f" d="M 546.5,280.5 C 553.5,280.5 560.5,280.5 567.5,280.5C 572.833,280.5 578.167,280.5 583.5,280.5C 582.058,281.82 581.392,283.486 581.5,285.5C 567.131,285.782 552.797,285.449 538.5,284.5C 538.489,282.983 537.823,281.816 536.5,281C 539.817,280.502 543.15,280.335 546.5,280.5 Z"/></g>
<g><path style="opacity:1" fill="#58361e" d="M 583.5,280.5 C 584.496,280.414 585.329,280.748 586,281.5C 586.896,284.025 586.396,286.192 584.5,288C 572.181,287.581 559.848,287.581 547.5,288C 545.415,290.091 543.415,292.258 541.5,294.5C 539.726,294.113 538.059,293.447 536.5,292.5C 535.167,293.5 533.833,294.5 532.5,295.5C 531.476,294.148 530.476,292.815 529.5,291.5C 529.821,289.952 530.821,289.285 532.5,289.5C 533.922,289.291 535.255,288.791 536.5,288C 535.402,287.23 535.402,286.397 536.5,285.5C 537.167,285.167 537.833,284.833 538.5,284.5C 552.797,285.449 567.131,285.782 581.5,285.5C 581.392,283.486 582.058,281.82 583.5,280.5 Z"/></g>
<g><path style="opacity:1" fill="#49321a" d="M 476.5,271.5 C 473.834,272.509 473.167,274.176 474.5,276.5C 474.274,279.249 474.607,281.916 475.5,284.5C 482.468,285.497 489.468,285.83 496.5,285.5C 496.5,282.5 496.5,279.5 496.5,276.5C 496.5,276.167 496.5,275.833 496.5,275.5C 496.5,274.833 496.833,274.5 497.5,274.5C 497.334,278.514 497.501,282.514 498,286.5C 501.353,285.384 504.52,284.051 507.5,282.5C 508.675,282.719 509.675,282.386 510.5,281.5C 509.494,280.604 509.494,279.938 510.5,279.5C 514.729,283.328 515.396,282.661 512.5,277.5C 514.291,275.587 516.291,273.92 518.5,272.5C 514.5,277.5 514.5,282.5 518.5,287.5C 516.545,286.677 514.545,286.51 512.5,287C 508.989,289.505 505.156,291.339 501,292.5C 497.438,292.099 495.938,290.099 496.5,286.5C 490.463,286.171 484.463,286.504 478.5,287.5C 477.872,289.258 476.872,290.758 475.5,292C 468.887,293.887 465.553,291.387 465.5,284.5C 459.329,284.101 453.329,284.768 447.5,286.5C 443.436,284.741 440.103,285.741 437.5,289.5C 433.41,290.652 429.743,289.652 426.5,286.5C 424.727,285.108 422.727,283.941 420.5,283C 424.025,282.821 427.359,282.321 430.5,281.5C 432.545,282.459 434.711,283.125 437,283.5C 441.649,281.63 446.483,280.63 451.5,280.5C 453.167,280.5 454.833,280.5 456.5,280.5C 459.33,281.735 462.33,282.735 465.5,283.5C 465.833,283.5 466.167,283.5 466.5,283.5C 467.919,284.451 469.585,284.784 471.5,284.5C 471.148,279.994 471.815,275.661 473.5,271.5C 472.277,270.386 470.944,270.219 469.5,271C 468.627,272.045 467.627,272.878 466.5,273.5C 466.511,271.983 467.177,270.816 468.5,270C 471.538,269.115 474.205,269.615 476.5,271.5 Z"/></g>
<g><path style="opacity:1" fill="#0e0b09" d="M 447.5,286.5 C 444.037,287.099 440.704,288.099 437.5,289.5C 440.103,285.741 443.436,284.741 447.5,286.5 Z"/></g>
<g><path style="opacity:1" fill="#33270b" d="M 507.5,282.5 C 505.359,281.245 504.693,279.578 505.5,277.5C 507.217,278.668 507.884,280.335 507.5,282.5 Z"/></g>
<g><path style="opacity:1" fill="#0b0502" d="M 456.5,280.5 C 459.5,280.5 462.5,280.5 465.5,280.5C 465.5,281.5 465.5,282.5 465.5,283.5C 462.33,282.735 459.33,281.735 456.5,280.5 Z"/></g>
<g><path style="opacity:1" fill="#efb61f" d="M 474.5,276.5 C 477.5,276.5 480.5,276.5 483.5,276.5C 483.337,278.857 483.503,281.19 484,283.5C 485,274.167 486,274.167 487,283.5C 488,274.167 489,274.167 490,283.5C 490.186,281.1 490.686,278.766 491.5,276.5C 492.814,285.741 493.48,285.741 493.5,276.5C 494.5,276.5 495.5,276.5 496.5,276.5C 496.5,279.5 496.5,282.5 496.5,285.5C 489.468,285.83 482.468,285.497 475.5,284.5C 474.607,281.916 474.274,279.249 474.5,276.5 Z"/></g>
<g><path style="opacity:1" fill="#6b614f" d="M 505.5,273.5 C 507.027,273.427 508.027,274.094 508.5,275.5C 506.973,275.573 505.973,274.906 505.5,273.5 Z"/></g>
<g><path style="opacity:1" fill="#372b13" d="M 520.5,271.5 C 523.287,270.523 526.287,270.19 529.5,270.5C 529.833,270.5 530.167,270.5 530.5,270.5C 532.167,270.5 533.833,270.5 535.5,270.5C 532.695,271.319 529.695,271.819 526.5,272C 520.388,278.531 521.388,280.031 529.5,276.5C 529.5,276.833 529.5,277.167 529.5,277.5C 529.486,280.332 529.153,282.832 528.5,285C 530.192,286.307 531.525,287.807 532.5,289.5C 530.821,289.285 529.821,289.952 529.5,291.5C 528.167,292.5 526.833,293.5 525.5,294.5C 526.581,292.236 527.915,290.069 529.5,288C 528.906,287.536 528.239,287.369 527.5,287.5C 526.629,284.728 526.629,282.062 527.5,279.5C 525.5,279.5 523.5,279.5 521.5,279.5C 521.368,282.57 521.701,285.57 522.5,288.5C 521.833,288.167 521.167,287.833 520.5,287.5C 520.38,284.52 519.713,281.687 518.5,279C 520.109,277.001 522.109,274.668 524.5,272C 523.207,271.51 521.873,271.343 520.5,271.5 Z"/></g>
<g><path style="opacity:1" fill="#c7971a" d="M 527.5,287.5 C 525.883,288.038 524.216,288.371 522.5,288.5C 521.701,285.57 521.368,282.57 521.5,279.5C 523.5,279.5 525.5,279.5 527.5,279.5C 526.629,282.062 526.629,284.728 527.5,287.5 Z"/></g>
<g><path style="opacity:1" fill="#4f3d12" d="M 527.5,287.5 C 525.434,289.199 523.1,290.532 520.5,291.5C 521.167,290.5 521.833,289.5 522.5,288.5C 524.216,288.371 525.883,288.038 527.5,287.5 Z"/></g>
<g><path style="opacity:1" fill="#e5af21" d="M 527.5,287.5 C 528.239,287.369 528.906,287.536 529.5,288C 527.915,290.069 526.581,292.236 525.5,294.5C 524.778,295.551 523.778,296.218 522.5,296.5C 522.217,295.711 521.717,295.044 521,294.5C 521.148,295.825 520.982,296.992 520.5,298C 517.833,298.667 515.167,299.333 512.5,300C 511.182,300.694 510.349,301.527 510,302.5C 508.715,302.05 507.548,301.383 506.5,300.5C 503.494,302.004 502.828,301.337 504.5,298.5C 505.058,297.21 506.058,296.377 507.5,296C 512.13,295.18 516.463,293.68 520.5,291.5C 523.1,290.532 525.434,289.199 527.5,287.5 Z"/></g>
<g><path style="opacity:1" fill="#6a5833" d="M 580.5,296.5 C 580.67,295.178 580.337,294.011 579.5,293C 577.667,292.833 575.833,292.667 574,292.5C 567.184,293.403 560.35,294.069 553.5,294.5C 562.232,292.14 571.232,291.306 580.5,292C 583.106,293.65 583.106,295.15 580.5,296.5 Z"/></g>
<g><path style="opacity:1" fill="#f2b81f" d="M 580.5,296.5 C 575.647,296.813 570.98,297.479 566.5,298.5C 560.931,298.376 555.598,299.043 550.5,300.5C 546.434,300.307 542.434,300.64 538.5,301.5C 535.052,300.901 532.386,301.901 530.5,304.5C 529.833,304.5 529.167,304.5 528.5,304.5C 527.5,302.5 526.5,300.5 525.5,298.5C 530.298,299.139 534.965,298.473 539.5,296.5C 544.1,296.72 548.433,296.054 552.5,294.5C 552.833,294.5 553.167,294.5 553.5,294.5C 560.35,294.069 567.184,293.403 574,292.5C 575.833,292.667 577.667,292.833 579.5,293C 580.337,294.011 580.67,295.178 580.5,296.5 Z"/></g>
<g><path style="opacity:1" fill="#61543d" d="M 552.5,294.5 C 548.433,296.054 544.1,296.72 539.5,296.5C 543.618,295.291 547.951,294.624 552.5,294.5 Z"/></g>
<g><path style="opacity:1" fill="#362e1d" d="M 525.5,294.5 C 525.414,295.496 525.748,296.329 526.5,297C 530.835,297.263 535.168,297.097 539.5,296.5C 534.965,298.473 530.298,299.139 525.5,298.5C 524.5,297.833 523.5,297.167 522.5,296.5C 523.778,296.218 524.778,295.551 525.5,294.5 Z"/></g>
<g><path style="opacity:1" fill="#4c4230" d="M 580.5,296.5 C 580.082,297.222 579.416,297.722 578.5,298C 574.514,298.499 570.514,298.666 566.5,298.5C 570.98,297.479 575.647,296.813 580.5,296.5 Z"/></g>
<g><path style="opacity:1" fill="#4e4637" d="M 566.5,298.5 C 561.384,299.806 556.051,300.473 550.5,300.5C 555.598,299.043 560.931,298.376 566.5,298.5 Z"/></g>
<g><path style="opacity:1" fill="#7e6117" d="M 522.5,296.5 C 523.5,297.167 524.5,297.833 525.5,298.5C 526.5,300.5 527.5,302.5 528.5,304.5C 527.833,305.167 527.167,305.833 526.5,306.5C 525.316,305.312 525.316,304.145 526.5,303C 524.963,300.388 522.963,299.888 520.5,301.5C 520.611,300.883 520.944,300.383 521.5,300C 519.934,299.235 518.601,299.402 517.5,300.5C 518.11,301.391 518.443,302.391 518.5,303.5C 517.167,303.5 515.833,303.5 514.5,303.5C 514.416,306.327 513.75,308.994 512.5,311.5C 510.801,311.62 509.135,311.954 507.5,312.5C 505.829,312.332 504.496,311.665 503.5,310.5C 506.247,310.813 508.914,310.48 511.5,309.5C 512.348,307.591 512.682,305.591 512.5,303.5C 510.784,303.629 509.117,303.962 507.5,304.5C 506.082,302.692 504.082,302.025 501.5,302.5C 501.738,300.596 502.738,299.262 504.5,298.5C 502.828,301.337 503.494,302.004 506.5,300.5C 507.548,301.383 508.715,302.05 510,302.5C 510.349,301.527 511.182,300.694 512.5,300C 515.167,299.333 517.833,298.667 520.5,298C 520.982,296.992 521.148,295.825 521,294.5C 521.717,295.044 522.217,295.711 522.5,296.5 Z"/></g>
<g><path style="opacity:1" fill="#f4ba1f" d="M 517.5,300.5 C 518.601,299.402 519.934,299.235 521.5,300C 520.944,300.383 520.611,300.883 520.5,301.5C 519.609,300.89 518.609,300.557 517.5,300.5 Z"/></g>
<g><path style="opacity:1" fill="#4c3d1f" d="M 517.5,300.5 C 518.609,300.557 519.609,300.89 520.5,301.5C 521.649,304.041 521.649,306.541 520.5,309C 523.294,309.972 525.294,309.139 526.5,306.5C 527.167,305.833 527.833,305.167 528.5,304.5C 529.167,304.5 529.833,304.5 530.5,304.5C 528.967,306.355 527.3,308.188 525.5,310C 523.19,310.497 520.857,310.663 518.5,310.5C 519.289,309.085 519.956,307.585 520.5,306C 520.361,304.699 519.695,303.866 518.5,303.5C 518.443,302.391 518.11,301.391 517.5,300.5 Z"/></g>
<g><path style="opacity:1" fill="#f8bd20" d="M 526.5,306.5 C 525.294,309.139 523.294,309.972 520.5,309C 521.649,306.541 521.649,304.041 520.5,301.5C 522.963,299.888 524.963,300.388 526.5,303C 525.316,304.145 525.316,305.312 526.5,306.5 Z"/></g>
<g><path style="opacity:1" fill="#3e382c" d="M 538.5,301.5 C 535.82,302.285 533.154,303.285 530.5,304.5C 532.386,301.901 535.052,300.901 538.5,301.5 Z"/></g>
<g><path style="opacity:1" fill="#f3b91f" d="M 499.5,302.5 C 500.167,302.5 500.833,302.5 501.5,302.5C 504.082,302.025 506.082,302.692 507.5,304.5C 503.267,304.539 499.267,305.205 495.5,306.5C 489.723,306.597 484.057,307.264 478.5,308.5C 473.386,308.651 472.719,307.651 476.5,305.5C 476.833,305.5 477.167,305.5 477.5,305.5C 485.066,305.228 492.399,304.228 499.5,302.5 Z"/></g>
<g><path style="opacity:1" fill="#826b3d" d="M 499.5,302.5 C 492.399,304.228 485.066,305.228 477.5,305.5C 484.601,303.772 491.934,302.772 499.5,302.5 Z"/></g>
<g><path style="opacity:1" fill="#f4b91f" d="M 503.5,310.5 C 503.167,309.5 502.5,308.833 501.5,308.5C 502.819,305.255 504.652,304.922 507,307.5C 507.483,306.552 507.649,305.552 507.5,304.5C 509.117,303.962 510.784,303.629 512.5,303.5C 512.682,305.591 512.348,307.591 511.5,309.5C 508.914,310.48 506.247,310.813 503.5,310.5 Z"/></g>
<g><path style="opacity:1" fill="#f6bb1f" d="M 518.5,303.5 C 519.695,303.866 520.361,304.699 520.5,306C 519.956,307.585 519.289,309.085 518.5,310.5C 516.565,311.15 514.565,311.483 512.5,311.5C 513.75,308.994 514.416,306.327 514.5,303.5C 515.833,303.5 517.167,303.5 518.5,303.5 Z"/></g>
<g><path style="opacity:1" fill="#7f6a41" d="M 454.5,307.5 C 453.167,307.833 451.833,308.167 450.5,308.5C 451.538,306.481 452.872,306.147 454.5,307.5 Z"/></g>
<g><path style="opacity:1" fill="#574728" d="M 507.5,304.5 C 507.649,305.552 507.483,306.552 507,307.5C 504.652,304.922 502.819,305.255 501.5,308.5C 499.886,306.925 497.886,306.259 495.5,306.5C 499.267,305.205 503.267,304.539 507.5,304.5 Z"/></g>
<g><path style="opacity:1" fill="#433b2a" d="M 476.5,305.5 C 472.719,307.651 473.386,308.651 478.5,308.5C 476.393,309.468 474.059,309.802 471.5,309.5C 472.833,308.5 472.833,307.5 471.5,306.5C 473.042,305.699 474.708,305.366 476.5,305.5 Z"/></g>
<g><path style="opacity:1" fill="#edb51f" d="M 471.5,306.5 C 472.833,307.5 472.833,308.5 471.5,309.5C 469.824,310.183 469.157,311.517 469.5,313.5C 466.833,314.5 466.833,315.5 469.5,316.5C 470.15,318.435 470.483,320.435 470.5,322.5C 467.09,324.222 466.757,326.389 469.5,329C 471.833,329.667 474.167,329.667 476.5,329C 477.056,328.617 477.389,328.117 477.5,327.5C 478.833,326.833 480.167,326.167 481.5,325.5C 486.13,324.771 490.797,324.437 495.5,324.5C 497.277,325.6 499.277,326.434 501.5,327C 505.354,327.354 509.188,327.854 513,328.5C 514.07,328.472 514.903,328.139 515.5,327.5C 522.291,325.938 528.958,326.271 535.5,328.5C 536.78,329.931 538.447,330.598 540.5,330.5C 540.842,331.338 541.508,331.672 542.5,331.5C 545.783,332.955 548.283,331.955 550,328.5C 550.383,329.056 550.883,329.389 551.5,329.5C 551.106,331.71 549.773,333.043 547.5,333.5C 544.833,333.5 542.167,333.5 539.5,333.5C 539.918,334.222 540.584,334.722 541.5,335C 540.944,335.383 540.611,335.883 540.5,336.5C 539.244,336.461 538.244,336.961 537.5,338C 539.066,338.765 540.399,338.598 541.5,337.5C 542.167,337.5 542.833,337.5 543.5,337.5C 546.684,337.833 550.018,338 553.5,338C 549.11,340.128 544.443,341.461 539.5,342C 543.821,342.499 548.154,342.666 552.5,342.5C 552.842,343.338 553.508,343.672 554.5,343.5C 550.688,344.324 546.688,344.824 542.5,345C 543.044,345.717 543.711,346.217 544.5,346.5C 546.379,346.393 546.712,346.893 545.5,348C 546.044,348.717 546.711,349.217 547.5,349.5C 548.355,350.531 549.022,351.697 549.5,353C 549.164,354.03 548.497,354.53 547.5,354.5C 546.508,354.672 545.842,354.338 545.5,353.5C 543.668,351.106 541.168,350.106 538,350.5C 536.5,350.667 535,350.833 533.5,351C 534.044,351.717 534.711,352.217 535.5,352.5C 535.657,353.873 535.49,355.207 535,356.5C 534.296,354.273 533.129,353.94 531.5,355.5C 530.833,354.833 530.167,354.167 529.5,353.5C 529.489,351.983 528.823,350.816 527.5,350C 523.5,349.333 519.5,349.333 515.5,350C 514.953,350.925 514.287,351.758 513.5,352.5C 510.236,352.339 507.07,352.339 504,352.5C 501.701,350.464 499.201,350.131 496.5,351.5C 495.618,350.24 494.618,349.074 493.5,348C 498.176,348.031 502.842,348.531 507.5,349.5C 510.898,348.97 514.232,348.137 517.5,347C 509.454,345.966 501.621,344.133 494,341.5C 492.159,342.125 490.326,342.292 488.5,342C 489.167,341.667 489.833,341.333 490.5,341C 488.579,340.64 486.912,339.806 485.5,338.5C 481.343,340.307 477.01,341.307 472.5,341.5C 472.953,342.458 473.619,343.292 474.5,344C 479.738,345.478 484.738,347.478 489.5,350C 486.183,350.498 482.85,350.665 479.5,350.5C 478.508,350.672 477.842,350.338 477.5,349.5C 476.496,348.317 475.662,346.984 475,345.5C 474.586,345.957 474.086,346.291 473.5,346.5C 470.435,344.75 467.102,343.75 463.5,343.5C 466.06,344.588 468.394,345.921 470.5,347.5C 467.482,347.665 464.482,347.498 461.5,347C 460.584,346.722 459.918,346.222 459.5,345.5C 459.027,344.094 458.027,343.427 456.5,343.5C 456.217,342.711 455.717,342.044 455,341.5C 453.301,342.406 451.467,342.739 449.5,342.5C 445.561,338.317 441.394,334.317 437,330.5C 435.402,328.105 435.236,325.772 436.5,323.5C 438.743,322.495 439.076,320.995 437.5,319C 437.978,317.697 438.645,316.531 439.5,315.5C 439.973,314.094 440.973,313.427 442.5,313.5C 443.239,313.369 443.906,313.536 444.5,314C 443.748,314.671 443.414,315.504 443.5,316.5C 444.701,314.202 445.701,311.868 446.5,309.5C 447.568,308.566 448.901,308.232 450.5,308.5C 451.833,308.167 453.167,307.833 454.5,307.5C 456.734,306.553 459.068,305.886 461.5,305.5C 464.799,306.21 468.133,306.543 471.5,306.5 Z"/></g>
<g><path style="opacity:1" fill="#3c2c0d" d="M 453.5,315.5 C 455.354,311.072 458.687,308.906 463.5,309C 460.183,311.262 456.85,313.429 453.5,315.5 Z"/></g>
<g><path style="opacity:1" fill="#392d12" d="M 471.5,309.5 C 471.011,310.995 470.345,312.329 469.5,313.5C 469.157,311.517 469.824,310.183 471.5,309.5 Z"/></g>
<g><path style="opacity:1" fill="#4c3114" d="M 453.5,315.5 C 453.338,317.527 453.505,319.527 454,321.5C 454.718,322.451 455.551,322.617 456.5,322C 453.681,319.28 454.014,316.947 457.5,315C 460.058,313.374 462.725,312.374 465.5,312C 463.112,317.501 461.778,323.334 461.5,329.5C 455.998,329.722 451.165,328.055 447,324.5C 445.09,321.431 445.09,318.431 447,315.5C 447.667,317.5 449,318.833 451,319.5C 451.2,317.68 452.034,316.347 453.5,315.5 Z"/></g>
<g><path style="opacity:1" fill="#4e4431" d="M 469.5,313.5 C 469.5,314.5 469.5,315.5 469.5,316.5C 466.833,315.5 466.833,314.5 469.5,313.5 Z"/></g>
<g><path style="opacity:1" fill="#5b4719" d="M 446.5,309.5 C 445.701,311.868 444.701,314.202 443.5,316.5C 443.414,315.504 443.748,314.671 444.5,314C 443.906,313.536 443.239,313.369 442.5,313.5C 442.957,311.227 444.29,309.894 446.5,309.5 Z"/></g>
<g><path style="opacity:1" fill="#615235" d="M 439.5,315.5 C 438.645,316.531 437.978,317.697 437.5,319C 439.076,320.995 438.743,322.495 436.5,323.5C 436.337,321.143 436.503,318.81 437,316.5C 437.671,315.748 438.504,315.414 439.5,315.5 Z"/></g>
<g><path style="opacity:1" fill="#494135" d="M 469.5,316.5 C 470.947,317.134 471.613,318.301 471.5,320C 471.472,321.07 471.139,321.903 470.5,322.5C 470.483,320.435 470.15,318.435 469.5,316.5 Z"/></g>
<g><path style="opacity:1" fill="#7a5d12" d="M 443.5,316.5 C 443.785,318.288 443.452,319.955 442.5,321.5C 439.965,319.506 440.299,317.839 443.5,316.5 Z"/></g>
<g><path style="opacity:1" fill="#5d4c28" d="M 495.5,324.5 C 490.797,324.437 486.13,324.771 481.5,325.5C 484.017,324.027 486.85,323.36 490,323.5C 492.033,323.506 493.866,323.839 495.5,324.5 Z"/></g>
<g><path style="opacity:1" fill="#615131" d="M 470.5,322.5 C 470.489,324.017 469.823,325.184 468.5,326C 471.048,328.801 474.048,329.301 477.5,327.5C 477.389,328.117 477.056,328.617 476.5,329C 474.167,329.667 471.833,329.667 469.5,329C 466.757,326.389 467.09,324.222 470.5,322.5 Z"/></g>
<g><path style="opacity:1" fill="#4a3e28" d="M 515.5,327.5 C 514.903,328.139 514.07,328.472 513,328.5C 509.188,327.854 505.354,327.354 501.5,327C 499.277,326.434 497.277,325.6 495.5,324.5C 499.76,325.585 504.094,326.252 508.5,326.5C 508.281,325.325 508.614,324.325 509.5,323.5C 511.115,324.154 512.782,324.654 514.5,325C 510.446,326.941 510.78,327.775 515.5,327.5 Z"/></g>
<g><path style="opacity:1" fill="#614911" d="M 439.5,325.5 C 442.766,325.433 444.266,327.099 444,330.5C 444.333,330.167 444.667,329.833 445,329.5C 445.614,331.879 445.947,334.212 446,336.5C 444.487,333.476 442.487,330.809 440,328.5C 439.517,327.552 439.351,326.552 439.5,325.5 Z"/></g>
<g><path style="opacity:1" fill="#443a27" d="M 535.5,328.5 C 537.553,328.402 539.22,329.069 540.5,330.5C 538.447,330.598 536.78,329.931 535.5,328.5 Z"/></g>
<g><path style="opacity:1" fill="#482e13" d="M 449.5,328.5 C 453.28,330.777 456.613,333.611 459.5,337C 453.874,338.828 449.874,337.161 447.5,332C 447.978,330.697 448.645,329.531 449.5,328.5 Z"/></g>
<g><path style="opacity:1" fill="#452c13" d="M 464.5,329.5 C 470.204,333.4 475.871,333.4 481.5,329.5C 483.929,330.324 486.429,330.324 489,329.5C 493.015,330.06 496.848,331.227 500.5,333C 489.709,338.029 478.709,338.695 467.5,335C 465.393,333.736 464.393,331.903 464.5,329.5 Z"/></g>
<g><path style="opacity:1" fill="#605d59" d="M 546.5,328.5 C 545.167,329.5 543.833,330.5 542.5,331.5C 541.508,331.672 540.842,331.338 540.5,330.5C 541.5,330.5 542.5,330.5 543.5,330.5C 543.5,329.5 543.5,328.5 543.5,327.5C 544.791,327.263 545.791,327.596 546.5,328.5 Z"/></g>
<g><path style="opacity:1" fill="#4a3113" d="M 535.5,333.5 C 534.359,335.243 532.692,336.243 530.5,336.5C 526.132,334.766 521.798,332.932 517.5,331C 518.873,330.125 520.373,329.625 522,329.5C 526.659,330.419 531.159,331.753 535.5,333.5 Z"/></g>
<g><path style="opacity:1" fill="#785d1c" d="M 551.5,329.5 C 550.883,329.389 550.383,329.056 550,328.5C 548.283,331.955 545.783,332.955 542.5,331.5C 543.833,330.5 545.167,329.5 546.5,328.5C 547.117,328.611 547.617,328.944 548,329.5C 548.749,326.004 549.916,326.004 551.5,329.5 Z"/></g>
<g><path style="opacity:1" fill="#60490e" d="M 539.5,333.5 C 538.167,333.5 536.833,333.5 535.5,333.5C 535.369,332.624 535.702,331.957 536.5,331.5C 537.739,331.942 538.739,332.609 539.5,333.5 Z"/></g>
<g><path style="opacity:1" fill="#473a1d" d="M 539.5,333.5 C 542.167,333.5 544.833,333.5 547.5,333.5C 545.351,334.736 543.018,335.736 540.5,336.5C 540.611,335.883 540.944,335.383 541.5,335C 540.584,334.722 539.918,334.222 539.5,333.5 Z"/></g>
<g><path style="opacity:1" fill="#3a2f19" d="M 552.5,342.5 C 548.154,342.666 543.821,342.499 539.5,342C 544.443,341.461 549.11,340.128 553.5,338C 550.018,338 546.684,337.833 543.5,337.5C 548.604,335.879 553.937,335.379 559.5,336C 557.113,336.976 555.946,338.809 556,341.5C 555.5,341 555,340.5 554.5,340C 549.461,339.478 548.795,340.312 552.5,342.5 Z"/></g>
<g><path style="opacity:1" fill="#8a6912" d="M 469.5,337.5 C 470.766,338.09 472.099,338.59 473.5,339C 471.381,339.342 471.047,340.175 472.5,341.5C 470.973,341.573 469.973,340.906 469.5,339.5C 469.5,338.833 469.5,338.167 469.5,337.5 Z"/></g>
<g><path style="opacity:1" fill="#462c13" d="M 499.5,337.5 C 510.062,337.057 520.729,337.057 531.5,337.5C 531.773,339.451 531.107,340.951 529.5,342C 518.912,343.699 508.912,342.199 499.5,337.5 Z"/></g>
<g><path style="opacity:1" fill="#140f04" d="M 540.5,336.5 C 540.5,337.167 540.833,337.5 541.5,337.5C 540.399,338.598 539.066,338.765 537.5,338C 538.244,336.961 539.244,336.461 540.5,336.5 Z"/></g>
<g><path style="opacity:1" fill="#35290d" d="M 469.5,337.5 C 469.5,338.167 469.5,338.833 469.5,339.5C 466.103,339.263 464.27,337.596 464,334.5C 465.488,336.16 467.321,337.16 469.5,337.5 Z"/></g>
<g><path style="opacity:1" fill="#735813" d="M 463.5,343.5 C 460.628,343.365 459.128,342.031 459,339.5C 460.667,340.733 462.167,342.067 463.5,343.5 Z"/></g>
<g><path style="opacity:1" fill="#4e3417" d="M 529.5,353.5 C 520.538,353.128 511.538,352.961 502.5,353C 501.123,351.759 499.79,351.592 498.5,352.5C 500.124,353.869 500.624,355.536 500,357.5C 498.284,356.448 497.284,357.114 497,359.5C 496.816,356.881 495.983,354.381 494.5,352C 489.316,351.826 484.316,351.326 479.5,350.5C 482.85,350.665 486.183,350.498 489.5,350C 484.738,347.478 479.738,345.478 474.5,344C 473.619,343.292 472.953,342.458 472.5,341.5C 477.01,341.307 481.343,340.307 485.5,338.5C 486.912,339.806 488.579,340.64 490.5,341C 489.833,341.333 489.167,341.667 488.5,342C 490.326,342.292 492.159,342.125 494,341.5C 501.621,344.133 509.454,345.966 517.5,347C 514.232,348.137 510.898,348.97 507.5,349.5C 502.842,348.531 498.176,348.031 493.5,348C 494.618,349.074 495.618,350.24 496.5,351.5C 499.201,350.131 501.701,350.464 504,352.5C 507.07,352.339 510.236,352.339 513.5,352.5C 514.287,351.758 514.953,350.925 515.5,350C 519.5,349.333 523.5,349.333 527.5,350C 528.823,350.816 529.489,351.983 529.5,353.5 Z"/></g>
<g><path style="opacity:1" fill="#59440f" d="M 503.5,341.5 C 500.012,341.295 496.679,340.461 493.5,339C 497.164,338.763 500.498,339.597 503.5,341.5 Z"/></g>
<g><path style="opacity:1" fill="#767675" d="M 456.5,343.5 C 453.941,343.802 451.607,343.468 449.5,342.5C 451.467,342.739 453.301,342.406 455,341.5C 455.717,342.044 456.217,342.711 456.5,343.5 Z"/></g>
<g><path style="opacity:1" fill="#775f2e" d="M 456.5,343.5 C 458.027,343.427 459.027,344.094 459.5,345.5C 457.973,345.573 456.973,344.906 456.5,343.5 Z"/></g>
<g><path style="opacity:1" fill="#4a380d" d="M 503.5,341.5 C 508.232,342.35 512.899,343.516 517.5,345C 512.34,345.553 507.673,344.386 503.5,341.5 Z"/></g>
<g><path style="opacity:1" fill="#412b11" d="M 525.5,343.5 C 530.364,343.758 535.03,344.925 539.5,347C 533.763,347.789 528.097,347.456 522.5,346C 523.571,345.148 524.571,344.315 525.5,343.5 Z"/></g>
<g><path style="opacity:1" fill="#a27b15" d="M 554.5,343.5 C 554.833,343.5 555.167,343.5 555.5,343.5C 555.5,344.167 555.5,344.833 555.5,345.5C 553.833,345.5 552.167,345.5 550.5,345.5C 548.265,345.205 546.265,345.539 544.5,346.5C 543.711,346.217 543.044,345.717 542.5,345C 546.688,344.824 550.688,344.324 554.5,343.5 Z"/></g>
<g><path style="opacity:1" fill="#634e1e" d="M 463.5,343.5 C 467.102,343.75 470.435,344.75 473.5,346.5C 474.086,346.291 474.586,345.957 475,345.5C 475.662,346.984 476.496,348.317 477.5,349.5C 475.254,348.545 472.921,347.878 470.5,347.5C 468.394,345.921 466.06,344.588 463.5,343.5 Z"/></g>
<g><path style="opacity:1" fill="#483a1d" d="M 544.5,346.5 C 546.265,345.539 548.265,345.205 550.5,345.5C 548.771,346.236 547.771,347.57 547.5,349.5C 546.711,349.217 546.044,348.717 545.5,348C 546.712,346.893 546.379,346.393 544.5,346.5 Z"/></g>
<g><path style="opacity:1" fill="#1e1e1e" d="M 555.5,343.5 C 558.512,345.502 561.845,346.669 565.5,347C 567.007,347.837 567.507,349.004 567,350.5C 565.437,347.956 563.937,347.956 562.5,350.5C 560.985,347.646 558.651,345.98 555.5,345.5C 555.5,344.833 555.5,344.167 555.5,343.5 Z"/></g>
<g><path style="opacity:1" fill="#413929" d="M 545.5,353.5 C 543.044,352.738 540.544,352.071 538,351.5C 536.93,351.528 536.097,351.861 535.5,352.5C 534.711,352.217 534.044,351.717 533.5,351C 535,350.833 536.5,350.667 538,350.5C 541.168,350.106 543.668,351.106 545.5,353.5 Z"/></g>
<g><path style="opacity:1" fill="#98772b" d="M 547.5,349.5 C 549.027,349.427 550.027,350.094 550.5,351.5C 551.048,352.688 551.381,353.855 551.5,355C 550.906,355.464 550.239,355.631 549.5,355.5C 548.508,355.672 547.842,355.338 547.5,354.5C 548.497,354.53 549.164,354.03 549.5,353C 549.022,351.697 548.355,350.531 547.5,349.5 Z"/></g>
<g><path style="opacity:1" fill="#2b2720" d="M 550.5,351.5 C 552.812,352.32 555.146,353.153 557.5,354C 555.833,354.333 554.167,354.667 552.5,355C 553.167,355.667 553.833,356.333 554.5,357C 552.609,357.203 550.943,356.703 549.5,355.5C 550.239,355.631 550.906,355.464 551.5,355C 551.381,353.855 551.048,352.688 550.5,351.5 Z"/></g>
<g><path style="opacity:1" fill="#24201a" d="M 535.5,352.5 C 537.377,353.659 537.877,355.326 537,357.5C 534.86,358.728 533.193,360.395 532,362.5C 530.213,361.657 528.38,361.49 526.5,362C 527.665,360.916 528.998,360.083 530.5,359.5C 531.429,358.311 531.762,356.978 531.5,355.5C 533.129,353.94 534.296,354.273 535,356.5C 535.49,355.207 535.657,353.873 535.5,352.5 Z"/></g>
<g><path style="opacity:1" fill="#4d074a" d="M 638.5,453.5 C 638.833,453.5 639.167,453.5 639.5,453.5C 639.5,462.167 639.5,470.833 639.5,479.5C 638.833,479.5 638.167,479.5 637.5,479.5C 637.5,479.167 637.5,478.833 637.5,478.5C 638.493,470.35 638.826,462.017 638.5,453.5 Z"/></g>
</svg>
