<?xml version="1.0" encoding="UTF-8"?>
<!DOCTYPE svg PUBLIC "-//W3C//DTD SVG 1.1//EN" "http://www.w3.org/Graphics/SVG/1.1/DTD/svg11.dtd">
<svg xmlns="http://www.w3.org/2000/svg" version="1.1" width="640px" height="480px" style="shape-rendering:geometricPrecision; text-rendering:geometricPrecision; image-rendering:optimizeQuality; fill-rule:evenodd; clip-rule:evenodd" xmlns:xlink="http://www.w3.org/1999/xlink">
<g><path style="opacity:1" fill="#0018a7" d="M -0.5,-0.5 C 67.8333,-0.5 136.167,-0.5 204.5,-0.5C 204.5,159.5 204.5,319.5 204.5,479.5C 136.167,479.5 67.8333,479.5 -0.5,479.5C -0.5,319.5 -0.5,159.5 -0.5,-0.5 Z"/></g>
<g><path style="opacity:1" fill="#fdde00" d="M 204.5,-0.5 C 281.167,-0.5 357.833,-0.5 434.5,-0.5C 434.5,159.5 434.5,319.5 434.5,479.5C 357.833,479.5 281.167,479.5 204.5,479.5C 204.5,319.5 204.5,159.5 204.5,-0.5 Z"/></g>
<g><path style="opacity:1" fill="#d01039" d="M 434.5,-0.5 C 502.833,-0.5 571.167,-0.5 639.5,-0.5C 639.5,159.5 639.5,319.5 639.5,479.5C 571.167,479.5 502.833,479.5 434.5,479.5C 434.5,319.5 434.5,159.5 434.5,-0.5 Z"/></g>
<g><path style="opacity:1" fill="#8d6546" d="M 384.5,195.5 C 383.504,195.414 382.671,195.748 382,196.5C 381.107,199.916 381.607,203.083 383.5,206C 380.877,208.559 381.21,210.892 384.5,213C 385.833,213.667 387.167,214.333 388.5,215C 386.331,215.429 384.331,214.929 382.5,213.5C 382.167,214.5 381.833,215.5 381.5,216.5C 381.831,232.825 381.831,249.325 381.5,266C 381.667,268.5 381.833,271 382,273.5C 383.741,272.242 385.574,271.242 387.5,270.5C 388.952,271.302 390.618,271.802 392.5,272C 387.112,271.703 382.778,273.536 379.5,277.5C 380.474,241.524 380.807,205.524 380.5,169.5C 339.5,169.5 298.5,169.5 257.5,169.5C 257.502,186.992 257.335,204.325 257,221.5C 255.955,222.373 255.122,223.373 254.5,224.5C 253.761,224.631 253.094,224.464 252.5,224C 256.381,221.348 257.381,217.848 255.5,213.5C 254.131,215.124 252.464,215.624 250.5,215C 254.85,213.673 256.683,210.84 256,206.5C 252.002,211.358 247.169,212.524 241.5,210C 247.764,211.131 252.597,208.964 256,203.5C 257.661,196.009 255.327,194.009 249,197.5C 248.626,196.584 248.126,195.75 247.5,195C 255.736,195.724 258.569,191.891 256,183.5C 255.5,182.5 255,181.5 254.5,180.5C 254.846,179.304 255.346,179.304 256,180.5C 256.499,176.514 256.666,172.514 256.5,168.5C 268.55,168.239 280.55,168.072 292.5,168C 298.657,166.588 304.324,164.088 309.5,160.5C 312.429,161.649 312.929,163.315 311,165.5C 310.182,161.677 309.016,161.51 307.5,165C 309.095,168.92 311.429,169.42 314.5,166.5C 316.029,163.282 315.362,160.615 312.5,158.5C 314.017,158.511 315.184,159.177 316,160.5C 316.769,163.099 316.602,165.599 315.5,168C 318.167,168.667 320.833,168.667 323.5,168C 322.748,167.329 322.414,166.496 322.5,165.5C 327.088,169.972 330.088,168.972 331.5,162.5C 331.746,164.22 331.746,166.22 331.5,168.5C 334.85,168.665 338.183,168.498 341.5,168C 339.754,167.529 338.087,166.862 336.5,166C 337,165.833 337.5,165.667 338,165.5C 349.478,170.524 359.812,168.857 369,160.5C 371.017,157.873 370.85,155.373 368.5,153C 368.833,152.833 369.167,152.667 369.5,152.5C 371.963,155.335 372.13,158.335 370,161.5C 367.441,164.531 364.274,166.698 360.5,168C 367.492,168.5 374.492,168.666 381.5,168.5C 381.91,176.59 382.076,184.59 382,192.5C 383.045,193.373 383.878,194.373 384.5,195.5 Z"/></g>
<g><path style="opacity:1" fill="#c3ad7a" d="M 379.5,277.5 C 373.903,287.728 365.07,292.728 353,292.5C 344.844,291.575 336.677,291.408 328.5,292C 325.136,293.099 321.97,294.599 319,296.5C 316.531,294.348 313.698,292.848 310.5,292C 299.824,291.734 289.158,291.734 278.5,292C 272.961,290.893 267.961,288.726 263.5,285.5C 261.83,282.825 260.164,280.159 258.5,277.5C 257.756,260.517 257.256,243.517 257,226.5C 256.292,225.619 255.458,224.953 254.5,224.5C 255.122,223.373 255.955,222.373 257,221.5C 257.335,204.325 257.502,186.992 257.5,169.5C 298.5,169.5 339.5,169.5 380.5,169.5C 380.807,205.524 380.474,241.524 379.5,277.5 Z"/></g>
<g><path style="opacity:1" fill="#895d36" d="M 393.5,156.5 C 398.764,158.364 400.931,162.031 400,167.5C 396.045,173.123 391.712,178.457 387,183.5C 385.458,185.565 385.291,187.565 386.5,189.5C 386.953,190.458 387.619,191.292 388.5,192C 385.709,192.035 384.376,190.535 384.5,187.5C 384.577,185.701 385.077,184.034 386,182.5C 390.38,177.789 394.38,172.789 398,167.5C 399.035,164.351 398.368,161.684 396,159.5C 396.208,163.791 394.875,167.458 392,170.5C 392.044,168.721 392.711,167.055 394,165.5C 394.634,162.445 394.468,159.445 393.5,156.5 Z"/></g>
<g><path style="opacity:1" fill="#c0aa78" d="M 384.5,195.5 C 385.609,196.29 386.942,196.79 388.5,197C 386.879,204.959 390.046,207.792 398,205.5C 398.912,203.341 399.745,201.175 400.5,199C 398.608,198.027 396.608,197.36 394.5,197C 403.072,195.89 407.906,199.723 409,208.5C 409.467,212.975 408.801,217.309 407,221.5C 405.12,224.192 402.62,225.359 399.5,225C 399.848,222.945 399.181,220.945 397.5,219C 393.037,217.797 390.37,219.464 389.5,224C 389.525,225.876 390.191,227.376 391.5,228.5C 392.058,229.79 393.058,230.623 394.5,231C 393.619,231.708 392.953,232.542 392.5,233.5C 387.262,237.86 384.929,243.527 385.5,250.5C 385.667,252.833 385.833,255.167 386,257.5C 387.588,261.672 389.421,265.672 391.5,269.5C 389.901,269.232 388.568,269.566 387.5,270.5C 385.574,271.242 383.741,272.242 382,273.5C 381.833,271 381.667,268.5 381.5,266C 381.831,249.325 381.831,232.825 381.5,216.5C 381.833,215.5 382.167,214.5 382.5,213.5C 384.331,214.929 386.331,215.429 388.5,215C 387.167,214.333 385.833,213.667 384.5,213C 381.21,210.892 380.877,208.559 383.5,206C 381.607,203.083 381.107,199.916 382,196.5C 382.671,195.748 383.504,195.414 384.5,195.5 Z"/></g>
<g><path style="opacity:1" fill="#885d3e" d="M 234.5,233.5 C 234.414,232.504 234.748,231.671 235.5,231C 233.382,229.951 231.716,228.451 230.5,226.5C 232.998,227.912 235.664,229.079 238.5,230C 245.064,231.107 248.231,228.274 248,221.5C 249.605,226.478 248.105,230.145 243.5,232.5C 240.231,230.992 237.231,231.325 234.5,233.5 Z"/></g>
<g><path style="opacity:1" fill="#b59a6c" d="M 395.5,256.5 C 396.712,257.23 397.712,258.23 398.5,259.5C 400.527,257.661 402.86,257.161 405.5,258C 406.252,258.671 406.586,259.504 406.5,260.5C 406.414,261.496 406.748,262.329 407.5,263C 405.833,263.333 404.167,263.667 402.5,264C 401.386,265.57 400.053,266.903 398.5,268C 402.903,270.661 404.237,271.161 402.5,269.5C 402.015,264.841 403.848,263.508 408,265.5C 410.145,267.895 409.978,270.062 407.5,272C 402.444,273.059 397.944,271.893 394,268.5C 393.329,269.252 392.496,269.586 391.5,269.5C 389.421,265.672 387.588,261.672 386,257.5C 385.833,255.167 385.667,252.833 385.5,250.5C 384.929,243.527 387.262,237.86 392.5,233.5C 395.228,231.712 398.228,231.212 401.5,232C 404.167,234.333 404.167,236.667 401.5,239C 399.965,239.496 398.465,239.33 397,238.5C 395.347,238.82 394.347,239.82 394,241.5C 392,246.167 392,250.833 394,255.5C 394.383,256.056 394.883,256.389 395.5,256.5 Z"/></g>
<g><path style="opacity:1" fill="#f6d606" d="M 269.5,233.5 C 269.5,249.5 269.5,265.5 269.5,281.5C 267.376,279.941 265.709,277.941 264.5,275.5C 263.501,261.516 263.167,247.516 263.5,233.5C 265.5,233.5 267.5,233.5 269.5,233.5 Z"/></g>
<g><path style="opacity:1" fill="#d5341d" d="M 269.5,233.5 C 271.5,233.5 273.5,233.5 275.5,233.5C 275.5,250.833 275.5,268.167 275.5,285.5C 272.733,285.13 270.733,283.796 269.5,281.5C 269.5,265.5 269.5,249.5 269.5,233.5 Z"/></g>
<g><path style="opacity:1" fill="#d52f1d" d="M 281.5,233.5 C 283.5,233.5 285.5,233.5 287.5,233.5C 287.5,251.167 287.5,268.833 287.5,286.5C 285.265,286.795 283.265,286.461 281.5,285.5C 281.5,268.167 281.5,250.833 281.5,233.5 Z"/></g>
<g><path style="opacity:1" fill="#fddd00" d="M 287.5,233.5 C 289.167,233.5 290.833,233.5 292.5,233.5C 292.5,250.833 292.5,268.167 292.5,285.5C 290.883,286.038 289.216,286.371 287.5,286.5C 287.5,268.833 287.5,251.167 287.5,233.5 Z"/></g>
<g><path style="opacity:1" fill="#e28014" d="M 310.5,233.5 C 310.833,233.5 311.167,233.5 311.5,233.5C 311.5,251.167 311.5,268.833 311.5,286.5C 309.585,286.784 307.919,286.451 306.5,285.5C 307.833,285.5 309.167,285.5 310.5,285.5C 310.5,268.167 310.5,250.833 310.5,233.5 Z"/></g>
<g><path style="opacity:1" fill="#fdde00" d="M 311.5,233.5 C 312.833,233.5 314.167,233.5 315.5,233.5C 315.5,251.5 315.5,269.5 315.5,287.5C 314.292,286.766 312.959,286.433 311.5,286.5C 311.5,268.833 311.5,251.167 311.5,233.5 Z"/></g>
<g><path style="opacity:1" fill="#ca8022" d="M 269.5,233.5 C 284.991,232.504 300.658,232.17 316.5,232.5C 316.832,251.577 316.499,269.91 315.5,287.5C 315.5,269.5 315.5,251.5 315.5,233.5C 314.167,233.5 312.833,233.5 311.5,233.5C 311.167,233.5 310.833,233.5 310.5,233.5C 308.833,233.5 307.167,233.5 305.5,233.5C 305.83,250.675 305.497,267.675 304.5,284.5C 304.5,267.5 304.5,250.5 304.5,233.5C 302.833,233.5 301.167,233.5 299.5,233.5C 297.5,233.5 295.5,233.5 293.5,233.5C 293.5,250.833 293.5,268.167 293.5,285.5C 293.167,285.5 292.833,285.5 292.5,285.5C 292.5,268.167 292.5,250.833 292.5,233.5C 290.833,233.5 289.167,233.5 287.5,233.5C 285.5,233.5 283.5,233.5 281.5,233.5C 279.833,233.5 278.167,233.5 276.5,233.5C 276.5,250.833 276.5,268.167 276.5,285.5C 276.167,285.5 275.833,285.5 275.5,285.5C 275.5,268.167 275.5,250.833 275.5,233.5C 273.5,233.5 271.5,233.5 269.5,233.5 Z"/></g>
<g><path style="opacity:1" fill="#d42b1e" d="M 310.5,233.5 C 310.5,250.833 310.5,268.167 310.5,285.5C 309.167,285.5 307.833,285.5 306.5,285.5C 305.508,285.672 304.842,285.338 304.5,284.5C 305.497,267.675 305.83,250.675 305.5,233.5C 307.167,233.5 308.833,233.5 310.5,233.5 Z"/></g>
<g><path style="opacity:1" fill="#fddf00" d="M 299.5,233.5 C 301.167,233.5 302.833,233.5 304.5,233.5C 304.5,250.5 304.5,267.5 304.5,284.5C 302.833,284.5 301.167,284.5 299.5,284.5C 299.5,267.5 299.5,250.5 299.5,233.5 Z"/></g>
<g><path style="opacity:1" fill="#d6341d" d="M 299.5,233.5 C 299.5,250.5 299.5,267.5 299.5,284.5C 297.735,285.461 295.735,285.795 293.5,285.5C 293.5,268.167 293.5,250.833 293.5,233.5C 295.5,233.5 297.5,233.5 299.5,233.5 Z"/></g>
<g><path style="opacity:1" fill="#fddd00" d="M 281.5,233.5 C 281.5,250.833 281.5,268.167 281.5,285.5C 279.833,285.5 278.167,285.5 276.5,285.5C 276.5,268.167 276.5,250.833 276.5,233.5C 278.167,233.5 279.833,233.5 281.5,233.5 Z"/></g>
<g><path style="opacity:1" fill="#aa832e" d="M 374.5,233.5 C 357.167,233.5 339.833,233.5 322.5,233.5C 322.5,251.5 322.5,269.5 322.5,287.5C 321.503,269.341 321.17,251.008 321.5,232.5C 339.341,232.17 357.008,232.503 374.5,233.5 Z"/></g>
<g><path style="opacity:1" fill="#fad906" d="M 374.5,233.5 C 374.667,246.504 374.5,259.504 374,272.5C 371.809,281.023 366.309,285.523 357.5,286C 350.293,286.328 343.126,285.828 336,284.5C 331.276,284.64 326.776,285.64 322.5,287.5C 322.5,269.5 322.5,251.5 322.5,233.5C 339.833,233.5 357.167,233.5 374.5,233.5 Z"/></g>
<g><path style="opacity:1" fill="#997451" d="M 254.5,224.5 C 255.458,224.953 256.292,225.619 257,226.5C 257.256,243.517 257.756,260.517 258.5,277.5C 256.912,276.365 256.579,275.031 257.5,273.5C 256.808,268.348 256.142,263.181 255.5,258C 256.579,253.542 256.746,249.042 256,244.5C 255.208,242.413 254.041,240.579 252.5,239C 257.053,234.742 257.72,229.909 254.5,224.5 Z"/></g>
<g><path style="opacity:1" fill="#735778" d="M 338.5,238.5 C 337.377,239.757 336.711,239.424 336.5,237.5C 337.925,235.969 338.591,236.302 338.5,238.5 Z"/></g>
<g><path style="opacity:1" fill="#d44924" d="M 336.5,237.5 C 336.711,239.424 337.377,239.757 338.5,238.5C 339.833,238.5 340.5,239.167 340.5,240.5C 338.82,241.782 337.487,243.449 336.5,245.5C 334.565,244.85 332.565,244.517 330.5,244.5C 331.388,241.757 332.555,239.09 334,236.5C 334.671,237.252 335.504,237.586 336.5,237.5 Z"/></g>
<g><path style="opacity:1" fill="#8c6137" d="M 395.5,256.5 C 394.883,256.389 394.383,256.056 394,255.5C 392,250.833 392,246.167 394,241.5C 394.347,239.82 395.347,238.82 397,238.5C 398.465,239.33 399.965,239.496 401.5,239C 404.167,236.667 404.167,234.333 401.5,232C 398.228,231.212 395.228,231.712 392.5,233.5C 392.953,232.542 393.619,231.708 394.5,231C 393.058,230.623 392.058,229.79 391.5,228.5C 405.657,232.034 412.99,226.367 413.5,211.5C 413.325,198.325 406.658,191.992 393.5,192.5C 402.833,189.911 409.666,193.245 414,202.5C 417.58,212.812 415.413,221.645 407.5,229C 405.913,229.862 404.246,230.529 402.5,231C 405.545,233.448 406.045,236.281 404,239.5C 401.667,240.833 399.333,240.833 397,239.5C 396.085,240.328 395.419,241.328 395,242.5C 394.283,247.22 394.45,251.886 395.5,256.5 Z"/></g>
<g><path style="opacity:1" fill="#d53920" d="M 363.5,244.5 C 363.649,243.448 363.483,242.448 363,241.5C 359.051,243.095 354.884,244.261 350.5,245C 352.5,246.333 354.5,247.667 356.5,249C 355.584,249.278 354.918,249.778 354.5,250.5C 352.194,250.993 349.861,251.326 347.5,251.5C 347.456,248.519 347.123,248.186 346.5,250.5C 345.698,253.449 345.364,256.449 345.5,259.5C 344.448,259.649 343.448,259.483 342.5,259C 343.622,255.591 343.789,252.091 343,248.5C 342.667,249.5 342.333,250.5 342,251.5C 341.667,251.167 341.333,250.833 341,250.5C 340.626,251.416 340.126,252.25 339.5,253C 340.554,254.388 340.72,255.888 340,257.5C 339.03,255.726 338.196,253.893 337.5,252C 338.386,249.888 338.386,247.722 337.5,245.5C 339.727,244.599 340.727,242.933 340.5,240.5C 347.853,240.283 355.186,240.117 362.5,240C 364.578,241.27 364.912,242.77 363.5,244.5 Z"/></g>
<g><path style="opacity:1" fill="#315ca5" d="M 340.5,240.5 C 340.727,242.933 339.727,244.599 337.5,245.5C 337.167,245.5 336.833,245.5 336.5,245.5C 337.487,243.449 338.82,241.782 340.5,240.5 Z"/></g>
<g><path style="opacity:1" fill="#d33f23" d="M 358.5,246.5 C 359.833,246.5 361.167,246.5 362.5,246.5C 362.477,248.6 363.144,250.433 364.5,252C 364.148,254.966 362.981,257.466 361,259.5C 360.5,259.333 360,259.167 359.5,259C 361.229,257.211 361.896,255.044 361.5,252.5C 360.043,250.215 358.043,248.382 355.5,247C 356.448,246.517 357.448,246.351 358.5,246.5 Z"/></g>
<g><path style="opacity:1" fill="#e37119" d="M 363.5,244.5 C 361.833,245.167 360.167,245.833 358.5,246.5C 357.448,246.351 356.448,246.517 355.5,247C 358.043,248.382 360.043,250.215 361.5,252.5C 359.165,254.51 356.832,256.51 354.5,258.5C 354.167,258.167 353.833,257.833 353.5,257.5C 357.036,255.574 357.369,253.24 354.5,250.5C 354.918,249.778 355.584,249.278 356.5,249C 354.5,247.667 352.5,246.333 350.5,245C 354.884,244.261 359.051,243.095 363,241.5C 363.483,242.448 363.649,243.448 363.5,244.5 Z"/></g>
<g><path style="opacity:1" fill="#3262a5" d="M 338.5,261.5 C 337.833,262.833 337.167,262.833 336.5,261.5C 337.222,261.082 337.722,260.416 338,259.5C 338.464,260.094 338.631,260.761 338.5,261.5 Z"/></g>
<g><path style="opacity:1" fill="#d24824" d="M 336.5,261.5 C 337.167,262.833 337.833,262.833 338.5,261.5C 339.833,261.5 340.5,262.167 340.5,263.5C 338.937,264.945 337.604,266.611 336.5,268.5C 334.692,268.509 333.025,268.009 331.5,267C 332.561,264.339 333.227,261.506 333.5,258.5C 334.141,259.993 335.141,260.993 336.5,261.5 Z"/></g>
<g><path style="opacity:1" fill="#d5391f" d="M 363.5,264.5 C 361.352,264.389 361.019,265.056 362.5,266.5C 360.402,267.45 358.235,267.45 356,266.5C 353.979,266.673 352.146,267.34 350.5,268.5C 351,269.881 352,270.547 353.5,270.5C 356.496,269.332 359.496,269.332 362.5,270.5C 362.263,271.791 362.596,272.791 363.5,273.5C 364.122,276.455 363.789,279.455 362.5,282.5C 361.5,283.833 360.5,283.833 359.5,282.5C 361.086,280.827 361.753,278.827 361.5,276.5C 360.879,273.879 359.212,272.212 356.5,271.5C 355.702,271.957 355.369,272.624 355.5,273.5C 353.658,273.723 351.825,274.057 350,274.5C 348.674,274.245 347.674,273.578 347,272.5C 346.262,275.991 345.429,279.325 344.5,282.5C 344.5,281.833 344.167,281.5 343.5,281.5C 343.665,278.15 343.498,274.817 343,271.5C 342.487,273.521 341.32,275.021 339.5,276C 340.576,277.726 340.743,279.559 340,281.5C 339.546,279.464 338.713,277.63 337.5,276C 338.72,273.83 338.72,271.663 337.5,269.5C 339.25,268.341 340.25,266.674 340.5,264.5C 348.308,263.252 355.975,263.252 363.5,264.5 Z"/></g>
<g><path style="opacity:1" fill="#495b97" d="M 340.5,263.5 C 340.5,263.833 340.5,264.167 340.5,264.5C 340.25,266.674 339.25,268.341 337.5,269.5C 337.167,269.5 336.833,269.5 336.5,269.5C 336.5,269.167 336.5,268.833 336.5,268.5C 337.604,266.611 338.937,264.945 340.5,263.5 Z"/></g>
<g><path style="opacity:1" fill="#e77b12" d="M 363.5,264.5 C 362.85,267.327 362.85,270.327 363.5,273.5C 362.596,272.791 362.263,271.791 362.5,270.5C 359.496,269.332 356.496,269.332 353.5,270.5C 352,270.547 351,269.881 350.5,268.5C 352.146,267.34 353.979,266.673 356,266.5C 358.235,267.45 360.402,267.45 362.5,266.5C 361.019,265.056 361.352,264.389 363.5,264.5 Z"/></g>
<g><path style="opacity:1" fill="#8e6646" d="M 234.5,275.5 C 232.338,274.872 230.672,273.539 229.5,271.5C 240.544,273.048 247.711,268.382 251,257.5C 251.167,255.167 251.333,252.833 251.5,250.5C 251.557,245.556 250.724,240.889 249,236.5C 255.876,248.196 254.709,259.03 245.5,269C 247.5,269.333 249.5,269.667 251.5,270C 245.047,269.567 239.381,271.401 234.5,275.5 Z"/></g>
<g><path style="opacity:1" fill="#748f7c" d="M 336.5,269.5 C 336.719,270.675 336.386,271.675 335.5,272.5C 334.335,271.14 334.668,270.14 336.5,269.5 Z"/></g>
<g><path style="opacity:1" fill="#885c3c" d="M 406.5,260.5 C 408.483,262.91 409.816,265.743 410.5,269C 409.564,272.773 407.231,274.939 403.5,275.5C 398.914,271.545 393.581,269.879 387.5,270.5C 388.568,269.566 389.901,269.232 391.5,269.5C 392.496,269.586 393.329,269.252 394,268.5C 397.944,271.893 402.444,273.059 407.5,272C 409.978,270.062 410.145,267.895 408,265.5C 403.848,263.508 402.015,264.841 402.5,269.5C 404.237,271.161 402.903,270.661 398.5,268C 400.053,266.903 401.386,265.57 402.5,264C 404.167,263.667 405.833,263.333 407.5,263C 406.748,262.329 406.414,261.496 406.5,260.5 Z"/></g>
<g><path style="opacity:1" fill="#bba373" d="M 393.5,156.5 C 394.468,159.445 394.634,162.445 394,165.5C 392.711,167.055 392.044,168.721 392,170.5C 394.875,167.458 396.208,163.791 396,159.5C 398.368,161.684 399.035,164.351 398,167.5C 394.38,172.789 390.38,177.789 386,182.5C 385.077,184.034 384.577,185.701 384.5,187.5C 384.376,190.535 385.709,192.035 388.5,192C 387.619,191.292 386.953,190.458 386.5,189.5C 387.659,187.623 389.326,187.123 391.5,188C 392.099,189.622 392.766,191.122 393.5,192.5C 406.658,191.992 413.325,198.325 413.5,211.5C 412.99,226.367 405.657,232.034 391.5,228.5C 390.191,227.376 389.525,225.876 389.5,224C 390.37,219.464 393.037,217.797 397.5,219C 399.181,220.945 399.848,222.945 399.5,225C 402.62,225.359 405.12,224.192 407,221.5C 408.801,217.309 409.467,212.975 409,208.5C 407.906,199.723 403.072,195.89 394.5,197C 396.608,197.36 398.608,198.027 400.5,199C 399.745,201.175 398.912,203.341 398,205.5C 390.046,207.792 386.879,204.959 388.5,197C 386.942,196.79 385.609,196.29 384.5,195.5C 383.878,194.373 383.045,193.373 382,192.5C 382.076,184.59 381.91,176.59 381.5,168.5C 374.492,168.666 367.492,168.5 360.5,168C 364.274,166.698 367.441,164.531 370,161.5C 372.13,158.335 371.963,155.335 369.5,152.5C 369.167,152.667 368.833,152.833 368.5,153C 370.85,155.373 371.017,157.873 369,160.5C 359.812,168.857 349.478,170.524 338,165.5C 337.5,165.667 337,165.833 336.5,166C 338.087,166.862 339.754,167.529 341.5,168C 338.183,168.498 334.85,168.665 331.5,168.5C 331.746,166.22 331.746,164.22 331.5,162.5C 330.088,168.972 327.088,169.972 322.5,165.5C 321.188,159.315 323.855,156.815 330.5,158C 332.519,158.45 334.352,159.283 336,160.5C 336.119,156.995 337.286,153.995 339.5,151.5C 342.946,148.319 343.279,144.819 340.5,141C 335.796,140.837 331.463,142.17 327.5,145C 320.29,147.238 313.29,146.738 306.5,143.5C 299.673,139.826 296.84,141.826 298,149.5C 300.091,152.682 301.925,156.015 303.5,159.5C 306.526,157.679 309.526,157.345 312.5,158.5C 315.362,160.615 316.029,163.282 314.5,166.5C 311.429,169.42 309.095,168.92 307.5,165C 309.016,161.51 310.182,161.677 311,165.5C 312.929,163.315 312.429,161.649 309.5,160.5C 304.324,164.088 298.657,166.588 292.5,168C 280.55,168.072 268.55,168.239 256.5,168.5C 256.666,172.514 256.499,176.514 256,180.5C 255.346,179.304 254.846,179.304 254.5,180.5C 255,181.5 255.5,182.5 256,183.5C 258.569,191.891 255.736,195.724 247.5,195C 248.126,195.75 248.626,196.584 249,197.5C 255.327,194.009 257.661,196.009 256,203.5C 252.597,208.964 247.764,211.131 241.5,210C 247.169,212.524 252.002,211.358 256,206.5C 256.683,210.84 254.85,213.673 250.5,215C 252.464,215.624 254.131,215.124 255.5,213.5C 257.381,217.848 256.381,221.348 252.5,224C 253.094,224.464 253.761,224.631 254.5,224.5C 257.72,229.909 257.053,234.742 252.5,239C 254.041,240.579 255.208,242.413 256,244.5C 256.746,249.042 256.579,253.542 255.5,258C 256.142,263.181 256.808,268.348 257.5,273.5C 256.579,275.031 256.912,276.365 258.5,277.5C 258.66,279.199 258.494,280.866 258,282.5C 257.373,279.204 255.539,277.37 252.5,277C 257.342,280.694 257.675,284.694 253.5,289C 252.167,289.333 250.833,289.667 249.5,290C 255.457,291.054 258.957,288.554 260,282.5C 261.039,283.71 262.206,284.71 263.5,285.5C 266.863,289.52 271.196,292.02 276.5,293C 286.839,293.185 297.173,293.185 307.5,293C 311.8,293.82 315.8,295.32 319.5,297.5C 322.914,295.462 326.58,293.962 330.5,293C 337.835,292.628 345.169,292.794 352.5,293.5C 362.848,294.738 371.348,291.405 378,283.5C 380.209,288.685 384.042,290.851 389.5,290C 392.167,287.333 392.167,284.667 389.5,282C 390.833,281.667 392.167,281.333 393.5,281C 388.237,278.922 385.737,280.755 386,286.5C 386.483,285.552 386.649,284.552 386.5,283.5C 387.833,283.5 389.167,283.5 390.5,283.5C 390.574,288.94 388.241,290.44 383.5,288C 381.879,285.834 381.045,283.334 381,280.5C 380.667,281.5 380.333,282.5 380,283.5C 379.505,281.527 379.338,279.527 379.5,277.5C 382.778,273.536 387.112,271.703 392.5,272C 390.618,271.802 388.952,271.302 387.5,270.5C 393.581,269.879 398.914,271.545 403.5,275.5C 412.525,293.893 407.191,306.393 387.5,313C 374.135,314.519 360.802,316.186 347.5,318C 343.548,320.972 339.381,323.472 335,325.5C 333.523,329.998 335.023,332.165 339.5,332C 341.784,330.637 341.951,329.137 340,327.5C 339.517,328.448 339.351,329.448 339.5,330.5C 336.32,330.824 335.153,329.49 336,326.5C 337.916,324.978 340.083,323.978 342.5,323.5C 343.6,324.605 344.267,325.938 344.5,327.5C 343.688,335.156 339.855,337.156 333,333.5C 332.833,333.833 332.667,334.167 332.5,334.5C 333.665,335.584 334.998,336.417 336.5,337C 333.99,338.745 331.324,338.911 328.5,337.5C 325.766,339.55 322.766,341.216 319.5,342.5C 316.783,342.148 314.783,340.815 313.5,338.5C 313.586,337.504 313.252,336.671 312.5,336C 313.126,335.25 313.626,334.416 314,333.5C 316.543,332.793 318.709,331.46 320.5,329.5C 319.167,327.5 319.167,325.5 320.5,323.5C 318.171,321.553 315.505,319.22 312.5,316.5C 312.167,316.667 311.833,316.833 311.5,317C 314.04,319.205 316.207,321.705 318,324.5C 319.09,327.579 318.257,329.912 315.5,331.5C 314.692,329.577 314.192,327.577 314,325.5C 314.503,333.824 310.67,338.157 302.5,338.5C 297.285,337.619 293.951,334.619 292.5,329.5C 292.94,326.786 294.274,324.62 296.5,323C 294.907,322.051 293.574,320.885 292.5,319.5C 288.89,317.426 284.89,316.259 280.5,316C 266.976,316.635 253.976,314.468 241.5,309.5C 232.052,303.938 227.885,295.604 229,284.5C 229.872,280.819 231.706,277.819 234.5,275.5C 239.381,271.401 245.047,269.567 251.5,270C 249.5,269.667 247.5,269.333 245.5,269C 254.709,259.03 255.876,248.196 249,236.5C 250.724,240.889 251.557,245.556 251.5,250.5C 251.333,252.833 251.167,255.167 251,257.5C 247.711,268.382 240.544,273.048 229.5,271.5C 228.609,270.739 227.942,269.739 227.5,268.5C 228.719,265.333 230.219,262.333 232,259.5C 232.804,258.196 233.971,257.529 235.5,257.5C 237.155,258.388 238.822,258.888 240.5,259C 245.161,252.866 245.661,246.366 242,239.5C 235.564,241.881 233.064,239.881 234.5,233.5C 237.231,231.325 240.231,230.992 243.5,232.5C 248.105,230.145 249.605,226.478 248,221.5C 248.231,228.274 245.064,231.107 238.5,230C 235.664,229.079 232.998,227.912 230.5,226.5C 224.658,221.164 222.491,214.497 224,206.5C 226.742,195.262 233.909,189.928 245.5,190.5C 247.008,187.582 249.175,186.916 252,188.5C 252.635,186.365 252.301,184.365 251,182.5C 248.036,178.534 244.703,174.867 241,171.5C 238.626,168.199 237.96,164.533 239,160.5C 243.038,157.223 247.205,154.057 251.5,151C 257.842,149.996 264.175,149.329 270.5,149C 273.861,150.584 276.694,152.75 279,155.5C 279.573,158.518 278.406,160.685 275.5,162C 281.45,165.03 287.45,165.197 293.5,162.5C 294.553,161.562 295.22,160.395 295.5,159C 291.945,153.282 290.778,147.116 292,140.5C 294.548,136.64 298.048,135.14 302.5,136C 307.607,139.136 313.107,141.303 319,142.5C 325.534,140.734 331.867,138.401 338,135.5C 345.505,137.161 348.505,141.827 347,149.5C 340.339,161.516 343.839,166.349 357.5,164C 359.421,163.64 361.088,162.806 362.5,161.5C 359.666,159.559 358.832,156.893 360,153.5C 363.488,152.013 366.821,150.346 370,148.5C 375.485,149.426 380.985,150.26 386.5,151C 388.57,153.278 390.903,155.111 393.5,156.5 Z"/></g>
<g><path style="opacity:1" fill="#dd6e24" d="M 361.5,276.5 C 359.318,277.3 357.651,278.8 356.5,281C 355.5,281.667 354.5,281.667 353.5,281C 355.167,280 356.5,278.667 357.5,277C 356.747,275.513 355.914,275.346 355,276.5C 354.53,275.423 354.697,274.423 355.5,273.5C 355.369,272.624 355.702,271.957 356.5,271.5C 359.212,272.212 360.879,273.879 361.5,276.5 Z"/></g>
<g><path style="opacity:1" fill="#a17f59" d="M 238.5,195.5 C 241.226,195.264 243.559,196.097 245.5,198C 241.269,198.043 239.436,200.21 240,204.5C 239.424,201.876 238.09,201.209 236,202.5C 230.933,210.302 231.766,217.302 238.5,223.5C 240.002,219.626 240.669,219.959 240.5,224.5C 245.368,225.09 245.034,226.09 239.5,227.5C 233.207,225.89 230.04,221.89 230,215.5C 230.333,216.5 230.667,217.5 231,218.5C 230.987,212.945 231.987,207.612 234,202.5C 235.731,200.383 237.898,198.883 240.5,198C 239.167,197.667 237.833,197.333 236.5,197C 237.416,196.722 238.082,196.222 238.5,195.5 Z"/></g>
<g><path style="opacity:1" fill="#c9a515" d="M 373.5,175.5 C 374.497,192.659 374.83,209.992 374.5,227.5C 372.167,227.5 369.833,227.5 367.5,227.5C 367.5,227.167 367.5,226.833 367.5,226.5C 369.5,226.5 371.5,226.5 373.5,226.5C 373.5,209.5 373.5,192.5 373.5,175.5 Z"/></g>
<g><path style="opacity:1" fill="#fddf00" d="M 367.5,175.5 C 369.5,175.5 371.5,175.5 373.5,175.5C 373.5,192.5 373.5,209.5 373.5,226.5C 371.5,226.5 369.5,226.5 367.5,226.5C 367.5,209.5 367.5,192.5 367.5,175.5 Z"/></g>
<g><path style="opacity:1" fill="#d6351d" d="M 359.5,175.5 C 362.167,175.5 364.833,175.5 367.5,175.5C 367.5,192.5 367.5,209.5 367.5,226.5C 367.5,226.833 367.5,227.167 367.5,227.5C 364.833,227.5 362.167,227.5 359.5,227.5C 359.5,210.167 359.5,192.833 359.5,175.5 Z"/></g>
<g><path style="opacity:1" fill="#ec9d0b" d="M 351.5,175.5 C 351.833,175.5 352.167,175.5 352.5,175.5C 352.5,192.5 352.5,209.5 352.5,226.5C 354.5,226.5 356.5,226.5 358.5,226.5C 358.5,209.5 358.5,192.5 358.5,175.5C 358.833,175.5 359.167,175.5 359.5,175.5C 359.5,192.833 359.5,210.167 359.5,227.5C 356.833,227.5 354.167,227.5 351.5,227.5C 351.5,210.167 351.5,192.833 351.5,175.5 Z"/></g>
<g><path style="opacity:1" fill="#fddf00" d="M 352.5,175.5 C 354.5,175.5 356.5,175.5 358.5,175.5C 358.5,192.5 358.5,209.5 358.5,226.5C 356.5,226.5 354.5,226.5 352.5,226.5C 352.5,209.5 352.5,192.5 352.5,175.5 Z"/></g>
<g><path style="opacity:1" fill="#d42b1e" d="M 344.5,175.5 C 346.833,175.5 349.167,175.5 351.5,175.5C 351.5,192.833 351.5,210.167 351.5,227.5C 349.167,227.5 346.833,227.5 344.5,227.5C 344.5,210.167 344.5,192.833 344.5,175.5 Z"/></g>
<g><path style="opacity:1" fill="#ec9d0b" d="M 336.5,175.5 C 336.833,175.5 337.167,175.5 337.5,175.5C 337.5,192.5 337.5,209.5 337.5,226.5C 339.5,226.5 341.5,226.5 343.5,226.5C 343.5,209.5 343.5,192.5 343.5,175.5C 343.833,175.5 344.167,175.5 344.5,175.5C 344.5,192.833 344.5,210.167 344.5,227.5C 341.833,227.5 339.167,227.5 336.5,227.5C 336.5,210.167 336.5,192.833 336.5,175.5 Z"/></g>
<g><path style="opacity:1" fill="#fddf00" d="M 337.5,175.5 C 339.5,175.5 341.5,175.5 343.5,175.5C 343.5,192.5 343.5,209.5 343.5,226.5C 341.5,226.5 339.5,226.5 337.5,226.5C 337.5,209.5 337.5,192.5 337.5,175.5 Z"/></g>
<g><path style="opacity:1" fill="#d42b1e" d="M 329.5,175.5 C 331.833,175.5 334.167,175.5 336.5,175.5C 336.5,192.833 336.5,210.167 336.5,227.5C 334.167,227.5 331.833,227.5 329.5,227.5C 329.5,210.167 329.5,192.833 329.5,175.5 Z"/></g>
<g><path style="opacity:1" fill="#eea909" d="M 328.5,175.5 C 328.833,175.5 329.167,175.5 329.5,175.5C 329.5,192.833 329.5,210.167 329.5,227.5C 327.167,227.5 324.833,227.5 322.5,227.5C 322.5,227.167 322.5,226.833 322.5,226.5C 324.5,226.5 326.5,226.5 328.5,226.5C 328.5,209.5 328.5,192.5 328.5,175.5 Z"/></g>
<g><path style="opacity:1" fill="#fddf00" d="M 328.5,175.5 C 328.5,192.5 328.5,209.5 328.5,226.5C 326.5,226.5 324.5,226.5 322.5,226.5C 322.5,209.5 322.5,192.5 322.5,175.5C 324.5,175.5 326.5,175.5 328.5,175.5 Z"/></g>
<g><path style="opacity:1" fill="#ac812b" d="M 367.5,175.5 C 364.833,175.5 362.167,175.5 359.5,175.5C 359.167,175.5 358.833,175.5 358.5,175.5C 356.5,175.5 354.5,175.5 352.5,175.5C 352.167,175.5 351.833,175.5 351.5,175.5C 349.167,175.5 346.833,175.5 344.5,175.5C 344.167,175.5 343.833,175.5 343.5,175.5C 341.5,175.5 339.5,175.5 337.5,175.5C 337.167,175.5 336.833,175.5 336.5,175.5C 334.167,175.5 331.833,175.5 329.5,175.5C 329.167,175.5 328.833,175.5 328.5,175.5C 326.5,175.5 324.5,175.5 322.5,175.5C 322.5,192.5 322.5,209.5 322.5,226.5C 322.5,226.833 322.5,227.167 322.5,227.5C 321.503,210.008 321.17,192.341 321.5,174.5C 337.009,174.17 352.342,174.504 367.5,175.5 Z"/></g>
<g><path style="opacity:1" fill="#a04f37" d="M 263.5,175.5 C 280.992,174.503 298.659,174.17 316.5,174.5C 316.83,192.341 316.497,210.008 315.5,227.5C 315.5,210.167 315.5,192.833 315.5,175.5C 298.167,175.5 280.833,175.5 263.5,175.5 Z"/></g>
<g><path style="opacity:1" fill="#d43221" d="M 263.5,175.5 C 280.833,175.5 298.167,175.5 315.5,175.5C 315.5,192.833 315.5,210.167 315.5,227.5C 298.167,227.5 280.833,227.5 263.5,227.5C 263.5,210.167 263.5,192.833 263.5,175.5 Z"/></g>
<g><path style="opacity:1" fill="#d93e2f" d="M 280.5,214.5 C 281.891,216.235 283.058,217.902 284,219.5C 280.809,223.708 278.309,223.375 276.5,218.5C 277.5,216.833 278.833,215.5 280.5,214.5 Z"/></g>
<g><path style="opacity:1" fill="#da442f" d="M 273.5,216.5 C 272.833,217.833 271.833,218.833 270.5,219.5C 269.699,217.958 269.366,216.292 269.5,214.5C 271.38,214.229 272.713,214.896 273.5,216.5 Z"/></g>
<g><path style="opacity:1" fill="#fbd50f" d="M 278.5,211.5 C 279.401,212.29 280.068,213.29 280.5,214.5C 278.833,215.5 277.5,216.833 276.5,218.5C 275.5,218.833 274.833,219.5 274.5,220.5C 272.537,221.96 270.704,223.627 269,225.5C 267.232,224.318 267.065,222.985 268.5,221.5C 269.5,221.167 270.167,220.5 270.5,219.5C 271.833,218.833 272.833,217.833 273.5,216.5C 274.167,216.5 274.5,216.167 274.5,215.5C 276.167,214.5 277.5,213.167 278.5,211.5 Z"/></g>
<g><path style="opacity:1" fill="#fcece9" d="M 274.5,215.5 C 274.5,216.167 274.167,216.5 273.5,216.5C 272.713,214.896 271.38,214.229 269.5,214.5C 269.366,216.292 269.699,217.958 270.5,219.5C 270.167,220.5 269.5,221.167 268.5,221.5C 264.96,218.745 264.627,215.579 267.5,212C 271.205,210.687 273.538,211.854 274.5,215.5 Z"/></g>
<g><path style="opacity:1" fill="#fbd402" d="M 301.5,190.5 C 300.5,190.167 299.833,189.5 299.5,188.5C 300.837,187.685 301.837,186.518 302.5,185C 301.833,184.667 301.167,184.333 300.5,184C 302.394,182.921 302.727,181.587 301.5,180C 304.51,177.831 307.844,177.164 311.5,178C 315.741,181.875 315.241,185.041 310,187.5C 306.921,185.669 307.421,184.669 311.5,184.5C 312.158,180.323 310.492,178.823 306.5,180C 306.331,184.298 304.664,187.798 301.5,190.5 Z"/></g>
<g><path style="opacity:1" fill="#fdf4ef" d="M 299.5,188.5 C 299.833,189.5 300.5,190.167 301.5,190.5C 302.597,192.774 303.93,194.941 305.5,197C 303.667,202.5 301.833,208 300,213.5C 299.357,215.93 297.857,217.597 295.5,218.5C 296.012,221.532 297.678,222.699 300.5,222C 302.737,219.97 304.237,217.47 305,214.5C 309.233,210.184 312.4,210.85 314.5,216.5C 314.295,220.375 312.295,222.041 308.5,221.5C 309.449,219.263 310.116,216.929 310.5,214.5C 309.178,214.33 308.011,214.663 307,215.5C 305.719,219.037 303.886,222.204 301.5,225C 295.063,226.075 291.73,223.242 291.5,216.5C 290.5,216.5 289.5,216.5 288.5,216.5C 288.147,223.673 284.48,226.506 277.5,225C 276.601,223.348 275.601,221.848 274.5,220.5C 274.833,219.5 275.5,218.833 276.5,218.5C 278.309,223.375 280.809,223.708 284,219.5C 283.058,217.902 281.891,216.235 280.5,214.5C 280.068,213.29 279.401,212.29 278.5,211.5C 277.275,206.656 275.942,201.823 274.5,197C 278.962,189.616 284.296,183.283 290.5,178C 293.399,181.665 296.399,185.165 299.5,188.5 Z"/></g>
<g><path style="opacity:1" fill="#fee016" d="M 287.5,183.5 C 288.494,193.319 288.827,203.319 288.5,213.5C 286.5,213.5 284.5,213.5 282.5,213.5C 280.944,208.332 279.278,203.165 277.5,198C 281.064,193.279 284.398,188.446 287.5,183.5 Z"/></g>
<g><path style="opacity:1" fill="#fedf14" d="M 291.5,184.5 C 295.49,188.495 299.156,192.829 302.5,197.5C 300.697,202.911 298.697,208.244 296.5,213.5C 294.997,214.052 293.331,214.052 291.5,213.5C 291.5,203.833 291.5,194.167 291.5,184.5 Z"/></g>
<g><path style="opacity:1" fill="#875c3f" d="M 339.5,151.5 C 340.156,149.516 340.822,147.516 341.5,145.5C 341.225,143.391 340.058,142.058 338,141.5C 332.063,144.971 325.729,147.305 319,148.5C 314.212,148.078 310.046,146.411 306.5,143.5C 313.29,146.738 320.29,147.238 327.5,145C 331.463,142.17 335.796,140.837 340.5,141C 343.279,144.819 342.946,148.319 339.5,151.5 Z"/></g>
<g><path style="opacity:1" fill="#c3ae7b" d="M 306.5,143.5 C 310.046,146.411 314.212,148.078 319,148.5C 325.729,147.305 332.063,144.971 338,141.5C 340.058,142.058 341.225,143.391 341.5,145.5C 340.822,147.516 340.156,149.516 339.5,151.5C 337.286,153.995 336.119,156.995 336,160.5C 334.352,159.283 332.519,158.45 330.5,158C 323.855,156.815 321.188,159.315 322.5,165.5C 322.414,166.496 322.748,167.329 323.5,168C 320.833,168.667 318.167,168.667 315.5,168C 316.602,165.599 316.769,163.099 316,160.5C 315.184,159.177 314.017,158.511 312.5,158.5C 309.526,157.345 306.526,157.679 303.5,159.5C 301.925,156.015 300.091,152.682 298,149.5C 296.84,141.826 299.673,139.826 306.5,143.5 Z"/></g>
<g><path style="opacity:1" fill="#855a3e" d="M 327.5,149.5 C 329.199,149.34 330.866,149.506 332.5,150C 329.554,150.806 326.888,152.139 324.5,154C 319.816,155.102 315.483,154.436 311.5,152C 314.141,152.155 316.807,152.655 319.5,153.5C 322.741,153.1 325.407,151.767 327.5,149.5 Z"/></g>
<g><path style="opacity:1" fill="#85593d" d="M 258.5,277.5 C 260.164,280.159 261.83,282.825 263.5,285.5C 262.206,284.71 261.039,283.71 260,282.5C 258.957,288.554 255.457,291.054 249.5,290C 250.833,289.667 252.167,289.333 253.5,289C 257.675,284.694 257.342,280.694 252.5,277C 255.539,277.37 257.373,279.204 258,282.5C 258.494,280.866 258.66,279.199 258.5,277.5 Z"/></g>
<g><path style="opacity:1" fill="#6a7e70" d="M 343.5,281.5 C 344.167,281.5 344.5,281.833 344.5,282.5C 344.44,283.043 344.107,283.376 343.5,283.5C 342.227,282.743 342.227,282.077 343.5,281.5 Z"/></g>
<g><path style="opacity:1" fill="#875c3f" d="M 244.5,280.5 C 247.482,280.104 250.149,280.771 252.5,282.5C 252.333,282.833 252.167,283.167 252,283.5C 247.64,280.666 244.307,281.666 242,286.5C 241.667,290.167 241.333,293.833 241,297.5C 238.527,291.085 239.694,285.419 244.5,280.5 Z"/></g>
<g><path style="opacity:1" fill="#8d6344" d="M 269.5,294.5 C 270.822,294.33 271.989,294.663 273,295.5C 273.328,298.207 272.995,300.874 272,303.5C 271.45,298.93 270.283,298.597 268.5,302.5C 268.167,302 267.833,301.5 267.5,301C 268.274,298.846 268.941,296.679 269.5,294.5 Z"/></g>
<g><path style="opacity:1" fill="#82563b" d="M 379.5,277.5 C 379.338,279.527 379.505,281.527 380,283.5C 380.333,282.5 380.667,281.5 381,280.5C 381.045,283.334 381.879,285.834 383.5,288C 388.241,290.44 390.574,288.94 390.5,283.5C 389.167,283.5 387.833,283.5 386.5,283.5C 386.649,284.552 386.483,285.552 386,286.5C 385.737,280.755 388.237,278.922 393.5,281C 392.167,281.333 390.833,281.667 389.5,282C 392.167,284.667 392.167,287.333 389.5,290C 384.042,290.851 380.209,288.685 378,283.5C 371.348,291.405 362.848,294.738 352.5,293.5C 345.169,292.794 337.835,292.628 330.5,293C 326.58,293.962 322.914,295.462 319.5,297.5C 315.8,295.32 311.8,293.82 307.5,293C 297.173,293.185 286.839,293.185 276.5,293C 271.196,292.02 266.863,289.52 263.5,285.5C 267.961,288.726 272.961,290.893 278.5,292C 289.158,291.734 299.824,291.734 310.5,292C 313.698,292.848 316.531,294.348 319,296.5C 321.97,294.599 325.136,293.099 328.5,292C 336.677,291.408 344.844,291.575 353,292.5C 365.07,292.728 373.903,287.728 379.5,277.5 Z"/></g>
<g><path style="opacity:1" fill="#8a6042" d="M 311.5,301.5 C 312.386,300.224 313.386,300.224 314.5,301.5C 313.77,304.109 313.27,306.776 313,309.5C 311.333,307.5 309.667,305.5 308,303.5C 307.761,305.761 307.594,307.761 307.5,309.5C 305.476,301.7 306.976,300.367 312,305.5C 312.765,303.934 312.598,302.601 311.5,301.5 Z"/></g>
<g><path style="opacity:1" fill="#8a6042" d="M 350.5,297.5 C 352.167,297.5 353.833,297.5 355.5,297.5C 355.454,300.432 355.954,303.098 357,305.5C 356,304.5 355,303.5 354,302.5C 353,307.833 352,307.833 351,302.5C 350.392,306.461 348.226,307.961 344.5,307C 349.756,304.595 349.756,301.929 344.5,299C 346.903,298.37 348.737,299.203 350,301.5C 350.49,300.207 350.657,298.873 350.5,297.5 Z"/></g>
<g><path style="opacity:1" fill="#936a3b" d="M 241.5,309.5 C 253.976,314.468 266.976,316.635 280.5,316C 284.89,316.259 288.89,317.426 292.5,319.5C 281.238,317.871 269.904,316.704 258.5,316C 254.42,315.313 250.42,314.313 246.5,313C 244.416,312.303 242.749,311.136 241.5,309.5 Z"/></g>
<g><path style="opacity:1" fill="#825536" d="M 403.5,275.5 C 408.001,278.979 410.001,283.646 409.5,289.5C 408.885,302.546 402.218,310.713 389.5,314C 377.582,315.994 365.582,317.328 353.5,318C 349.224,318.805 345.557,320.638 342.5,323.5C 340.083,323.978 337.916,324.978 336,326.5C 335.153,329.49 336.32,330.824 339.5,330.5C 339.351,329.448 339.517,328.448 340,327.5C 341.951,329.137 341.784,330.637 339.5,332C 335.023,332.165 333.523,329.998 335,325.5C 339.381,323.472 343.548,320.972 347.5,318C 360.802,316.186 374.135,314.519 387.5,313C 407.191,306.393 412.525,293.893 403.5,275.5 Z"/></g>
<g><path style="opacity:1" fill="#865b3d" d="M 313.5,338.5 C 309.939,339.423 306.273,339.423 302.5,338.5C 310.67,338.157 314.503,333.824 314,325.5C 314.192,327.577 314.692,329.577 315.5,331.5C 318.257,329.912 319.09,327.579 318,324.5C 316.207,321.705 314.04,319.205 311.5,317C 311.833,316.833 312.167,316.667 312.5,316.5C 315.505,319.22 318.171,321.553 320.5,323.5C 319.167,325.5 319.167,327.5 320.5,329.5C 318.709,331.46 316.543,332.793 314,333.5C 313.626,334.416 313.126,335.25 312.5,336C 313.252,336.671 313.586,337.504 313.5,338.5 Z"/></g>
<g><path style="opacity:1" fill="#855836" d="M 344.5,327.5 C 346.147,330.752 345.48,333.586 342.5,336C 339.606,337.862 336.44,339.028 333,339.5C 330.992,339.693 329.492,339.026 328.5,337.5C 331.324,338.911 333.99,338.745 336.5,337C 334.998,336.417 333.665,335.584 332.5,334.5C 332.667,334.167 332.833,333.833 333,333.5C 339.855,337.156 343.688,335.156 344.5,327.5 Z"/></g>
</svg>
