<?xml version="1.0" encoding="UTF-8"?>
<!DOCTYPE svg PUBLIC "-//W3C//DTD SVG 1.1//EN" "http://www.w3.org/Graphics/SVG/1.1/DTD/svg11.dtd">
<svg xmlns="http://www.w3.org/2000/svg" version="1.1" width="640px" height="480px" style="shape-rendering:geometricPrecision; text-rendering:geometricPrecision; image-rendering:optimizeQuality; fill-rule:evenodd; clip-rule:evenodd" xmlns:xlink="http://www.w3.org/1999/xlink">
<g><path style="opacity:1" fill="#ff0000" d="M -0.5,-0.5 C 212.833,-0.5 426.167,-0.5 639.5,-0.5C 639.5,78.1667 639.5,156.833 639.5,235.5C 540.5,235.5 441.5,235.5 342.5,235.5C 342.5,233.833 342.5,232.167 342.5,230.5C 337.833,230.5 333.167,230.5 328.5,230.5C 327.519,223.806 326.686,217.139 326,210.5C 330.104,208.866 333.938,206.866 337.5,204.5C 334.686,197.384 331.686,190.384 328.5,183.5C 324.5,185.167 320.5,186.833 316.5,188.5C 313.205,182.742 309.539,177.242 305.5,172C 308.5,169 311.5,166 314.5,163C 308.985,157.318 303.319,151.818 297.5,146.5C 294.5,149.167 291.5,151.833 288.5,154.5C 282.544,151.372 277.211,147.539 272.5,143C 273.694,139.445 275.028,135.945 276.5,132.5C 269.852,128.942 262.852,125.942 255.5,123.5C 253.07,127.106 251.404,131.106 250.5,135.5C 243.515,134.407 236.515,133.407 229.5,132.5C 228.854,137.75 228.854,142.917 229.5,148C 258.894,154.922 282.394,170.422 300,194.5C 307.706,207.117 311.873,220.783 312.5,235.5C 208.167,235.5 103.833,235.5 -0.5,235.5C -0.5,156.833 -0.5,78.1667 -0.5,-0.5 Z"/></g>
<g><path style="opacity:1" fill="#fde900" d="M 342.5,235.5 C 342.5,241.833 342.5,248.167 342.5,254.5C 337.833,254.5 333.167,254.5 328.5,254.5C 328.209,260.123 327.209,265.623 325.5,271C 325.833,271.833 326.167,272.667 326.5,273.5C 330.642,274.758 334.308,276.758 337.5,279.5C 334.43,286.379 331.764,293.379 329.5,300.5C 324.826,299.331 320.326,297.664 316,295.5C 312.619,301.101 309.119,306.601 305.5,312C 308.434,314.934 311.434,317.934 314.5,321C 313,322.5 311.5,324 310,325.5C 301.242,320.205 292.742,314.539 284.5,308.5C 303.051,288.197 312.384,264.197 312.5,236.5C 312.5,236.167 312.5,235.833 312.5,235.5C 311.873,220.783 307.706,207.117 300,194.5C 282.394,170.422 258.894,154.922 229.5,148C 228.854,142.917 228.854,137.75 229.5,132.5C 236.515,133.407 243.515,134.407 250.5,135.5C 251.404,131.106 253.07,127.106 255.5,123.5C 262.852,125.942 269.852,128.942 276.5,132.5C 275.028,135.945 273.694,139.445 272.5,143C 277.211,147.539 282.544,151.372 288.5,154.5C 291.5,151.833 294.5,149.167 297.5,146.5C 303.319,151.818 308.985,157.318 314.5,163C 311.5,166 308.5,169 305.5,172C 309.539,177.242 313.205,182.742 316.5,188.5C 320.5,186.833 324.5,185.167 328.5,183.5C 331.686,190.384 334.686,197.384 337.5,204.5C 333.938,206.866 330.104,208.866 326,210.5C 326.686,217.139 327.519,223.806 328.5,230.5C 333.167,230.5 337.833,230.5 342.5,230.5C 342.5,232.167 342.5,233.833 342.5,235.5 Z"/></g>
<g><path style="opacity:1" fill="#ffe900" d="M 235.5,187.5 C 242.833,188.167 250.167,188.833 257.5,189.5C 252.121,193.945 246.621,198.279 241,202.5C 242.267,209.395 244.1,216.228 246.5,223C 246.167,223.5 245.833,224 245.5,224.5C 239.5,220.167 233.5,215.833 227.5,211.5C 220.993,215.586 214.66,219.92 208.5,224.5C 208.167,224.167 207.833,223.833 207.5,223.5C 210.602,216.701 212.768,209.701 214,202.5C 208.289,197.949 202.456,193.616 196.5,189.5C 204.167,188.833 211.833,188.167 219.5,187.5C 221.582,180.584 224.249,173.918 227.5,167.5C 230.38,174.153 233.047,180.82 235.5,187.5 Z"/></g>
<g><path style="opacity:1" fill="#ff8e00" d="M 219.5,187.5 C 211.833,188.167 204.167,188.833 196.5,189.5C 195.957,189.44 195.624,189.107 195.5,188.5C 203.472,187.502 211.472,187.169 219.5,187.5 Z"/></g>
<g><path style="opacity:1" fill="#ff9f00" d="M 235.5,187.5 C 243.507,187.334 251.507,187.5 259.5,188C 258.956,188.717 258.289,189.217 257.5,189.5C 250.167,188.833 242.833,188.167 235.5,187.5 Z"/></g>
<g><path style="opacity:1" fill="#650100" d="M -0.5,236.5 C -0.5,236.167 -0.5,235.833 -0.5,235.5C 103.833,235.5 208.167,235.5 312.5,235.5C 312.5,235.833 312.5,236.167 312.5,236.5C 271.33,236.168 230.33,236.501 189.5,237.5C 188.833,237.5 188.167,237.5 187.5,237.5C 125.002,236.501 62.3356,236.168 -0.5,236.5 Z"/></g>
<g><path style="opacity:1" fill="#000000" d="M 342.5,235.5 C 441.5,235.5 540.5,235.5 639.5,235.5C 639.5,316.833 639.5,398.167 639.5,479.5C 426.167,479.5 212.833,479.5 -0.5,479.5C -0.5,398.5 -0.5,317.5 -0.5,236.5C 62.3356,236.168 125.002,236.501 187.5,237.5C 174.459,255.175 175.792,271.675 191.5,287C 235.562,311.781 279.395,336.947 323,362.5C 323.772,362.355 324.439,362.022 325,361.5C 327.579,356.008 330.412,350.675 333.5,345.5C 290.508,316.016 246.842,287.516 202.5,260C 196.199,253.555 191.865,246.055 189.5,237.5C 230.33,236.501 271.33,236.168 312.5,236.5C 312.384,264.197 303.051,288.197 284.5,308.5C 292.742,314.539 301.242,320.205 310,325.5C 311.5,324 313,322.5 314.5,321C 311.434,317.934 308.434,314.934 305.5,312C 309.119,306.601 312.619,301.101 316,295.5C 320.326,297.664 324.826,299.331 329.5,300.5C 331.764,293.379 334.43,286.379 337.5,279.5C 334.308,276.758 330.642,274.758 326.5,273.5C 326.167,272.667 325.833,271.833 325.5,271C 327.209,265.623 328.209,260.123 328.5,254.5C 333.167,254.5 337.833,254.5 342.5,254.5C 342.5,248.167 342.5,241.833 342.5,235.5 Z"/></g>
<g><path style="opacity:1" fill="#f8e700" d="M 187.5,237.5 C 188.167,237.5 188.833,237.5 189.5,237.5C 191.865,246.055 196.199,253.555 202.5,260C 246.842,287.516 290.508,316.016 333.5,345.5C 330.412,350.675 327.579,356.008 325,361.5C 324.439,362.022 323.772,362.355 323,362.5C 279.395,336.947 235.562,311.781 191.5,287C 175.792,271.675 174.459,255.175 187.5,237.5 Z"/></g>
<g><path style="opacity:1" fill="#171402" d="M 206.5,271.5 C 248.139,296.655 289.806,321.822 331.5,347C 330.874,347.75 330.374,348.584 330,349.5C 289.082,324.29 247.916,299.456 206.5,275C 205.316,273.855 205.316,272.688 206.5,271.5 Z"/></g>
<g><path style="opacity:1" fill="#f9e700" d="M 232.5,352.5 C 231.5,352.5 230.5,352.5 229.5,352.5C 229.5,356.833 229.5,361.167 229.5,365.5C 221.833,365.5 214.167,365.5 206.5,365.5C 206.818,360.968 206.485,356.634 205.5,352.5C 199.487,351.865 193.654,350.531 188,348.5C 185.473,352.221 183.473,356.221 182,360.5C 181.439,361.022 180.772,361.355 180,361.5C 172.829,358.831 165.996,355.498 159.5,351.5C 161.069,347.625 162.736,343.792 164.5,340C 159.167,336 153.833,332 148.5,328C 150.894,323.371 153.894,319.205 157.5,315.5C 180.058,331.444 205.058,337.944 232.5,335C 241.244,332.966 249.91,330.966 258.5,329C 263.833,332 269.167,335 274.5,338C 273.426,338.739 272.759,339.739 272.5,341C 274.702,344.6 275.869,348.433 276,352.5C 269.434,355.69 262.768,358.69 256,361.5C 253.376,357.915 251.542,353.915 250.5,349.5C 244.568,350.871 238.568,351.871 232.5,352.5 Z"/></g>
<g><path style="opacity:1" fill="#f3e300" d="M 334.5,346.5 C 346.714,351.942 358.381,358.442 369.5,366C 374.062,368.925 375.229,372.758 373,377.5C 369.118,382.861 363.951,385.028 357.5,384C 349.651,374.239 339.651,367.739 327.5,364.5C 326.417,363.635 326.251,362.635 327,361.5C 329.513,356.473 332.013,351.473 334.5,346.5 Z"/></g>
<g><path style="opacity:1" fill="#151203" d="M 336.5,354.5 C 343.004,354.138 344.671,356.638 341.5,362C 334.745,362.756 333.078,360.256 336.5,354.5 Z"/></g>
<g><path style="opacity:1" fill="#151203" d="M 347.5,361.5 C 354.004,361.138 355.671,363.638 352.5,369C 345.745,369.756 344.078,367.256 347.5,361.5 Z"/></g>
<g><path style="opacity:1" fill="#a79b00" d="M 205.5,352.5 C 206.485,356.634 206.818,360.968 206.5,365.5C 214.167,365.5 221.833,365.5 229.5,365.5C 229.5,361.167 229.5,356.833 229.5,352.5C 230.5,352.5 231.5,352.5 232.5,352.5C 230.652,356.854 229.985,361.52 230.5,366.5C 222.167,366.5 213.833,366.5 205.5,366.5C 205.5,361.833 205.5,357.167 205.5,352.5 Z"/></g>
<g><path style="opacity:1" fill="#0b0901" d="M 357.5,368.5 C 364.145,367.977 365.811,370.477 362.5,376C 356.785,376.401 355.119,373.901 357.5,368.5 Z"/></g>
</svg>
