<?xml version="1.0" encoding="UTF-8"?>
<!DOCTYPE svg PUBLIC "-//W3C//DTD SVG 1.1//EN" "http://www.w3.org/Graphics/SVG/1.1/DTD/svg11.dtd">
<svg xmlns="http://www.w3.org/2000/svg" version="1.1" width="640px" height="480px" style="shape-rendering:geometricPrecision; text-rendering:geometricPrecision; image-rendering:optimizeQuality; fill-rule:evenodd; clip-rule:evenodd" xmlns:xlink="http://www.w3.org/1999/xlink">
<g><path style="opacity:1" fill="#fcfcfd" d="M 0.5,-0.5 C 12.8333,-0.5 25.1667,-0.5 37.5,-0.5C 64.688,19.6909 91.8547,40.0243 119,60.5C 119.5,40.1694 119.667,19.8361 119.5,-0.5C 124.833,-0.5 130.167,-0.5 135.5,-0.5C 135.5,31.5 135.5,63.5 135.5,95.5C 90.1667,95.5 44.8333,95.5 -0.5,95.5C -0.5,90.1667 -0.5,84.8333 -0.5,79.5C 20.8359,79.6666 42.1693,79.5 63.5,79C 42.2892,62.9495 20.9559,47.1161 -0.5,31.5C -0.5,27.8333 -0.5,24.1667 -0.5,20.5C 25.3401,40.168 51.3401,59.668 77.5,79C 87.5,79.6667 97.5,79.6667 107.5,79C 71.6502,52.6367 35.9835,26.1367 0.5,-0.5 Z"/></g>
<g><path style="opacity:1" fill="#022169" d="M 37.5,-0.5 C 64.8333,-0.5 92.1667,-0.5 119.5,-0.5C 119.667,19.8361 119.5,40.1694 119,60.5C 91.8547,40.0243 64.688,19.6909 37.5,-0.5 Z"/></g>
<g><path style="opacity:1" fill="#c91931" d="M 135.5,-0.5 C 151.833,-0.5 168.167,-0.5 184.5,-0.5C 184.5,31.5 184.5,63.5 184.5,95.5C 229.5,95.5 274.5,95.5 319.5,95.5C 319.5,111.833 319.5,128.167 319.5,144.5C 274.5,144.5 229.5,144.5 184.5,144.5C 184.5,176.167 184.5,207.833 184.5,239.5C 168.167,239.5 151.833,239.5 135.5,239.5C 135.5,207.833 135.5,176.167 135.5,144.5C 90.1667,144.5 44.8333,144.5 -0.5,144.5C -0.5,128.167 -0.5,111.833 -0.5,95.5C 44.8333,95.5 90.1667,95.5 135.5,95.5C 135.5,63.5 135.5,31.5 135.5,-0.5 Z"/></g>
<g><path style="opacity:1" fill="#fcfcfc" d="M 184.5,-0.5 C 189.833,-0.5 195.167,-0.5 200.5,-0.5C 200.333,19.1695 200.5,38.8362 201,58.5C 227.351,38.9699 253.517,19.3033 279.5,-0.5C 284.167,-0.5 288.833,-0.5 293.5,-0.5C 262.312,23.0249 231.145,46.6916 200,70.5C 199.502,73.4816 199.335,76.4816 199.5,79.5C 205.176,79.6661 210.843,79.4994 216.5,79C 250.505,52.6713 284.838,26.838 319.5,1.5C 319.666,11.1724 319.5,20.8391 319,30.5C 297.59,46.7883 276.09,62.9549 254.5,79C 276.164,79.5 297.831,79.6666 319.5,79.5C 319.5,84.8333 319.5,90.1667 319.5,95.5C 274.5,95.5 229.5,95.5 184.5,95.5C 184.5,63.5 184.5,31.5 184.5,-0.5 Z"/></g>
<g><path style="opacity:1" fill="#032169" d="M 200.5,-0.5 C 226.833,-0.5 253.167,-0.5 279.5,-0.5C 253.517,19.3033 227.351,38.9699 201,58.5C 200.5,38.8362 200.333,19.1695 200.5,-0.5 Z"/></g>
<g><path style="opacity:1" fill="#c91731" d="M 293.5,-0.5 C 302.167,-0.5 310.833,-0.5 319.5,-0.5C 319.5,0.166667 319.5,0.833333 319.5,1.5C 284.838,26.838 250.505,52.6713 216.5,79C 210.843,79.4994 205.176,79.6661 199.5,79.5C 199.335,76.4816 199.502,73.4816 200,70.5C 231.145,46.6916 262.312,23.0249 293.5,-0.5 Z"/></g>
<g><path style="opacity:1" fill="#012169" d="M 319.5,-0.5 C 426.167,-0.5 532.833,-0.5 639.5,-0.5C 639.5,159.5 639.5,319.5 639.5,479.5C 426.167,479.5 212.833,479.5 -0.5,479.5C -0.5,399.5 -0.5,319.5 -0.5,239.5C -0.166667,239.5 0.166667,239.5 0.5,239.5C 9.5,239.5 18.5,239.5 27.5,239.5C 32.6278,239.888 37.6278,239.388 42.5,238C 67.7315,218.469 93.2315,199.302 119,180.5C 119.5,200.164 119.667,219.831 119.5,239.5C 124.833,239.5 130.167,239.5 135.5,239.5C 151.833,239.5 168.167,239.5 184.5,239.5C 189.5,239.5 194.5,239.5 199.5,239.5C 200.167,220.167 200.833,200.833 201.5,181.5C 227.137,200.658 252.804,219.824 278.5,239C 291.829,239.5 305.163,239.667 318.5,239.5C 319.491,233.021 319.824,226.354 319.5,219.5C 319.793,215.563 319.46,211.73 318.5,208C 296.655,192.244 274.989,176.244 253.5,160C 275.497,159.5 297.497,159.333 319.5,159.5C 319.5,154.5 319.5,149.5 319.5,144.5C 319.5,128.167 319.5,111.833 319.5,95.5C 319.5,90.1667 319.5,84.8333 319.5,79.5C 297.831,79.6666 276.164,79.5 254.5,79C 276.09,62.9549 297.59,46.7883 319,30.5C 319.5,20.8391 319.666,11.1724 319.5,1.5C 319.5,0.833333 319.5,0.166667 319.5,-0.5 Z"/></g>
<g><path style="opacity:1" fill="#c91731" d="M -0.5,-0.5 C -0.166667,-0.5 0.166667,-0.5 0.5,-0.5C 35.9835,26.1367 71.6502,52.6367 107.5,79C 97.5,79.6667 87.5,79.6667 77.5,79C 51.3401,59.668 25.3401,40.168 -0.5,20.5C -0.5,13.5 -0.5,6.5 -0.5,-0.5 Z"/></g>
<g><path style="opacity:1" fill="#032269" d="M -0.5,31.5 C 20.9559,47.1161 42.2892,62.9495 63.5,79C 42.1693,79.5 20.8359,79.6666 -0.5,79.5C -0.5,63.5 -0.5,47.5 -0.5,31.5 Z"/></g>
<g><path style="opacity:1" fill="#fcfcfc" d="M -0.5,144.5 C 44.8333,144.5 90.1667,144.5 135.5,144.5C 135.5,176.167 135.5,207.833 135.5,239.5C 130.167,239.5 124.833,239.5 119.5,239.5C 119.667,219.831 119.5,200.164 119,180.5C 93.2315,199.302 67.7315,218.469 42.5,238C 37.6278,239.388 32.6278,239.888 27.5,239.5C 57.699,215.813 88.3657,192.646 119.5,170C 120.456,166.606 120.789,163.106 120.5,159.5C 115.041,159.103 109.708,159.603 104.5,161C 69.6492,187.03 34.9826,213.197 0.5,239.5C 0.166667,239.5 -0.166667,239.5 -0.5,239.5C -0.5,229.5 -0.5,219.5 -0.5,209.5C 21.623,193.217 43.623,176.717 65.5,160C 43.5025,159.5 21.5025,159.333 -0.5,159.5C -0.5,154.5 -0.5,149.5 -0.5,144.5 Z"/></g>
<g><path style="opacity:1" fill="#fdfdfd" d="M 319.5,144.5 C 319.5,149.5 319.5,154.5 319.5,159.5C 297.497,159.333 275.497,159.5 253.5,160C 274.989,176.244 296.655,192.244 318.5,208C 319.46,211.73 319.793,215.563 319.5,219.5C 293.044,200.217 266.711,180.717 240.5,161C 230.934,159.387 221.267,159.053 211.5,160C 247.35,186.363 283.016,212.863 318.5,239.5C 305.163,239.667 291.829,239.5 278.5,239C 252.804,219.824 227.137,200.658 201.5,181.5C 201.44,180.957 201.107,180.624 200.5,180.5C 199.5,200.155 199.167,219.822 199.5,239.5C 194.5,239.5 189.5,239.5 184.5,239.5C 184.5,207.833 184.5,176.167 184.5,144.5C 229.5,144.5 274.5,144.5 319.5,144.5 Z"/></g>
<g><path style="opacity:1" fill="#032269" d="M -0.5,159.5 C 21.5025,159.333 43.5025,159.5 65.5,160C 43.623,176.717 21.623,193.217 -0.5,209.5C -0.5,192.833 -0.5,176.167 -0.5,159.5 Z"/></g>
<g><path style="opacity:1" fill="#c91731" d="M 27.5,239.5 C 18.5,239.5 9.5,239.5 0.5,239.5C 34.9826,213.197 69.6492,187.03 104.5,161C 109.708,159.603 115.041,159.103 120.5,159.5C 120.789,163.106 120.456,166.606 119.5,170C 88.3657,192.646 57.699,215.813 27.5,239.5 Z"/></g>
<g><path style="opacity:1" fill="#c91731" d="M 319.5,219.5 C 319.824,226.354 319.491,233.021 318.5,239.5C 283.016,212.863 247.35,186.363 211.5,160C 221.267,159.053 230.934,159.387 240.5,161C 266.711,180.717 293.044,200.217 319.5,219.5 Z"/></g>
<g><path style="opacity:1" fill="#7f8fb3" d="M 201.5,181.5 C 200.833,200.833 200.167,220.167 199.5,239.5C 199.167,219.822 199.5,200.155 200.5,180.5C 201.107,180.624 201.44,180.957 201.5,181.5 Z"/></g>
<g><path style="opacity:1" fill="#c2c441" d="M 482.5,185.5 C 489.468,187.979 496.468,190.479 503.5,193C 520.935,196.588 537.602,194.421 553.5,186.5C 555.349,215.587 554.516,244.587 551,273.5C 545.253,309.852 528.086,339.352 499.5,362C 493.767,366.136 487.434,367.803 480.5,367C 439.525,340.902 418.358,303.402 417,254.5C 415.359,232.178 415.193,209.844 416.5,187.5C 434.725,195.306 453.391,196.472 472.5,191C 476.056,189.392 479.389,187.559 482.5,185.5 Z"/></g>
<g><path style="opacity:1" fill="#fffefc" d="M 534.5,313.5 C 501.5,313.5 468.5,313.5 435.5,313.5C 432.643,310.454 430.81,306.787 430,302.5C 420.994,266.717 417.994,230.384 421,193.5C 424.932,195.589 429.099,197.089 433.5,198C 445.872,198.843 458.205,198.51 470.5,197C 475.779,195.027 480.779,192.527 485.5,189.5C 506.997,201.962 528.831,202.629 551,191.5C 552.483,226.177 549.817,260.51 543,294.5C 541.017,301.311 538.183,307.645 534.5,313.5 Z"/></g>
<g><path style="opacity:1" fill="#ff9c10" d="M 468.5,200.5 C 469.051,204.216 470.384,207.716 472.5,211C 482.179,211.892 491.512,214.225 500.5,218C 503.5,218.667 506.5,218.667 509.5,218C 512.982,215.751 516.649,215.251 520.5,216.5C 516.826,218.905 513.159,221.405 509.5,224C 512.037,226.906 514.204,230.073 516,233.5C 516.749,234.635 516.583,235.635 515.5,236.5C 511.295,232.794 507.295,228.96 503.5,225C 494.702,222.316 486.369,223.316 478.5,228C 471.975,235.333 473.642,239.666 483.5,241C 479.869,243.243 475.869,244.077 471.5,243.5C 469.985,251.886 466.818,259.552 462,266.5C 460.714,261.008 460.047,255.341 460,249.5C 456.471,242.742 455.804,235.742 458,228.5C 462.654,221.871 464.987,214.537 465,206.5C 465.926,204.308 467.093,202.308 468.5,200.5 Z"/></g>
<g><path style="opacity:1" fill="#ff9c11" d="M 487.5,233.5 C 492.948,234.556 497.948,236.722 502.5,240C 509.555,239.796 515.888,241.796 521.5,246C 525.036,250.237 528.202,254.737 531,259.5C 537.233,261.389 540.899,265.389 542,271.5C 538.527,269.177 534.694,268.177 530.5,268.5C 530.245,271.016 529.411,273.35 528,275.5C 521.634,281.531 515.634,287.864 510,294.5C 508.173,298.281 507.173,302.281 507,306.5C 506.632,307.91 505.799,308.91 504.5,309.5C 503.929,305.139 503.596,300.806 503.5,296.5C 499.811,295.659 496.144,295.993 492.5,297.5C 490.893,297.363 489.559,296.696 488.5,295.5C 492.118,293.191 496.118,292.024 500.5,292C 507.378,289.105 511.545,283.939 513,276.5C 515.861,269.285 514.361,263.285 508.5,258.5C 505.576,260.082 502.909,262.082 500.5,264.5C 499.359,262.579 499.192,260.579 500,258.5C 501.353,257.315 502.52,255.981 503.5,254.5C 500.224,249.721 496.391,245.388 492,241.5C 489.843,239.183 488.343,236.516 487.5,233.5 Z"/></g>
<g><path style="opacity:1" fill="#ff9c10" d="M 487.5,285.5 C 484.908,289.471 481.241,291.971 476.5,293C 470.883,294.052 465.216,294.718 459.5,295C 456.833,296.333 454.167,297.667 451.5,299C 442.856,299.904 442.356,298.404 450,294.5C 450.781,293.271 451.281,291.938 451.5,290.5C 447.604,281.55 444.771,272.217 443,262.5C 440.776,256.943 437.109,252.61 432,249.5C 431.517,248.552 431.351,247.552 431.5,246.5C 435.338,247.517 438.838,249.184 442,251.5C 442.833,251.167 443.667,250.833 444.5,250.5C 445.569,247.461 446.735,244.461 448,241.5C 449.471,239.128 450.637,239.128 451.5,241.5C 444.369,257.423 448.703,269.257 464.5,277C 473.084,278.033 475.417,274.533 471.5,266.5C 475.904,266.279 478.237,268.612 478.5,273.5C 482.964,273.402 487.297,272.569 491.5,271C 508.022,269.319 508.689,271.985 493.5,279C 491.266,281.063 489.266,283.229 487.5,285.5 Z"/></g>
<g><path style="opacity:1" fill="#fff5e7" d="M 507.5,241.5 C 511.31,242.754 511.31,243.754 507.5,244.5C 507.5,243.5 507.5,242.5 507.5,241.5 Z"/></g>
<g><path style="opacity:1" fill="#fff4e5" d="M 487.5,285.5 C 486.5,285.5 485.5,285.5 484.5,285.5C 484.5,284.5 484.5,283.5 484.5,282.5C 485.5,282.5 486.5,282.5 487.5,282.5C 487.5,283.5 487.5,284.5 487.5,285.5 Z"/></g>
<g><path style="opacity:1" fill="#5fd8df" d="M 435.5,313.5 C 468.5,313.5 501.5,313.5 534.5,313.5C 534.672,314.492 534.338,315.158 533.5,315.5C 501.338,314.502 469.004,314.168 436.5,314.5C 435.833,314.5 435.5,314.167 435.5,313.5 Z"/></g>
<g><path style="opacity:1" fill="#04cbfd" d="M 436.5,314.5 C 469.004,314.168 501.338,314.502 533.5,315.5C 524.963,330.884 514.296,344.717 501.5,357C 489.071,365.103 477.404,364.103 466.5,354C 454.34,342.358 444.34,329.191 436.5,314.5 Z"/></g>
</svg>
