<?xml version="1.0" encoding="UTF-8"?>
<!DOCTYPE svg PUBLIC "-//W3C//DTD SVG 1.1//EN" "http://www.w3.org/Graphics/SVG/1.1/DTD/svg11.dtd">
<svg xmlns="http://www.w3.org/2000/svg" version="1.1" width="640px" height="480px" style="shape-rendering:geometricPrecision; text-rendering:geometricPrecision; image-rendering:optimizeQuality; fill-rule:evenodd; clip-rule:evenodd" xmlns:xlink="http://www.w3.org/1999/xlink">
<g><path style="opacity:1" fill="#000000" d="M -0.5,0.5 C -0.5,0.166667 -0.5,-0.166667 -0.5,-0.5C 212.833,-0.5 426.167,-0.5 639.5,-0.5C 639.5,-0.166667 639.5,0.166667 639.5,0.5C 596.919,63.3275 554.586,126.328 512.5,189.5C 503.5,189.5 494.5,189.5 485.5,189.5C 484.167,189.167 482.833,188.833 481.5,188.5C 459.442,183.319 437.442,177.819 415.5,172C 435.5,157 455.5,142 475.5,127C 451.393,129.182 427.393,132.348 403.5,136.5C 403.167,136.167 402.833,135.833 402.5,135.5C 414.455,114.419 426.789,93.5859 439.5,73C 417.776,84.4542 396.276,96.6209 375,109.5C 374.333,106.833 374.333,104.167 375,101.5C 378.354,79.4167 381.687,57.4167 385,35.5C 370.333,54.8333 355.667,74.1667 341,93.5C 335,70.8333 329,48.1667 323,25.5C 315.692,48.7286 308.692,72.062 302,95.5C 287.333,75.5 272.667,55.5 258,35.5C 262.05,60.8012 266.217,86.1345 270.5,111.5C 270.167,111.833 269.833,112.167 269.5,112.5C 247.979,99.0866 226.313,86.2532 204.5,74C 217.211,94.5859 229.545,115.419 241.5,136.5C 240.833,136.833 240.167,137.167 239.5,137.5C 216.877,133.339 194.211,129.839 171.5,127C 190.833,141.667 210.167,156.333 229.5,171C 206.444,176.681 183.444,182.514 160.5,188.5C 158.883,189.038 157.216,189.371 155.5,189.5C 145.833,189.5 136.167,189.5 126.5,189.5C 84.4145,126.328 42.0811,63.3275 -0.5,0.5 Z"/></g>
<g><path style="opacity:1" fill="#cd1126" d="M -0.5,0.5 C 42.0811,63.3275 84.4145,126.328 126.5,189.5C 126.328,190.492 126.662,191.158 127.5,191.5C 150.351,226.549 173.684,261.215 197.5,295.5C 237.575,356.643 277.908,417.643 318.5,478.5C 318.5,478.833 318.5,479.167 318.5,479.5C 212.167,479.5 105.833,479.5 -0.5,479.5C -0.5,319.833 -0.5,160.167 -0.5,0.5 Z"/></g>
<g><path style="opacity:1" fill="#cd1126" d="M 639.5,0.5 C 639.5,160.167 639.5,319.833 639.5,479.5C 532.5,479.5 425.5,479.5 318.5,479.5C 318.5,479.167 318.5,478.833 318.5,478.5C 319.496,478.586 320.329,478.252 321,477.5C 361.436,416.948 401.602,356.281 441.5,295.5C 465.192,261.129 488.525,226.463 511.5,191.5C 512.338,191.158 512.672,190.492 512.5,189.5C 554.586,126.328 596.919,63.3275 639.5,0.5 Z"/></g>
<g><path style="opacity:1" fill="#facf15" d="M 481.5,188.5 C 374.5,189.833 267.5,189.833 160.5,188.5C 183.444,182.514 206.444,176.681 229.5,171C 210.167,156.333 190.833,141.667 171.5,127C 194.211,129.839 216.877,133.339 239.5,137.5C 240.167,137.167 240.833,136.833 241.5,136.5C 229.545,115.419 217.211,94.5859 204.5,74C 226.313,86.2532 247.979,99.0866 269.5,112.5C 269.833,112.167 270.167,111.833 270.5,111.5C 266.217,86.1345 262.05,60.8012 258,35.5C 272.667,55.5 287.333,75.5 302,95.5C 308.692,72.062 315.692,48.7286 323,25.5C 329,48.1667 335,70.8333 341,93.5C 355.667,74.1667 370.333,54.8333 385,35.5C 381.687,57.4167 378.354,79.4167 375,101.5C 374.333,104.167 374.333,106.833 375,109.5C 396.276,96.6209 417.776,84.4542 439.5,73C 426.789,93.5859 414.455,114.419 402.5,135.5C 402.833,135.833 403.167,136.167 403.5,136.5C 427.393,132.348 451.393,129.182 475.5,127C 455.5,142 435.5,157 415.5,172C 437.442,177.819 459.442,183.319 481.5,188.5 Z"/></g>
<g><path style="opacity:1" fill="#0f3962" d="M 126.5,189.5 C 136.167,189.5 145.833,189.5 155.5,189.5C 155.5,189.833 155.5,190.167 155.5,190.5C 145.985,190.173 136.652,190.506 127.5,191.5C 126.662,191.158 126.328,190.492 126.5,189.5 Z"/></g>
<g><path style="opacity:1" fill="#969334" d="M 160.5,188.5 C 267.5,189.833 374.5,189.833 481.5,188.5C 482.833,188.833 484.167,189.167 485.5,189.5C 485.5,189.833 485.5,190.167 485.5,190.5C 375.5,190.5 265.5,190.5 155.5,190.5C 155.5,190.167 155.5,189.833 155.5,189.5C 157.216,189.371 158.883,189.038 160.5,188.5 Z"/></g>
<g><path style="opacity:1" fill="#143a61" d="M 485.5,190.5 C 485.5,190.167 485.5,189.833 485.5,189.5C 494.5,189.5 503.5,189.5 512.5,189.5C 512.672,190.492 512.338,191.158 511.5,191.5C 503.016,190.507 494.349,190.174 485.5,190.5 Z"/></g>
<g><path style="opacity:1" fill="#0572c5" d="M 155.5,190.5 C 265.5,190.5 375.5,190.5 485.5,190.5C 494.349,190.174 503.016,190.507 511.5,191.5C 488.525,226.463 465.192,261.129 441.5,295.5C 360.167,295.5 278.833,295.5 197.5,295.5C 173.684,261.215 150.351,226.549 127.5,191.5C 136.652,190.506 145.985,190.173 155.5,190.5 Z"/></g>
<g><path style="opacity:1" fill="#fefefe" d="M 197.5,295.5 C 278.833,295.5 360.167,295.5 441.5,295.5C 401.602,356.281 361.436,416.948 321,477.5C 320.329,478.252 319.496,478.586 318.5,478.5C 277.908,417.643 237.575,356.643 197.5,295.5 Z"/></g>
</svg>
