<?xml version="1.0" encoding="UTF-8"?>
<!DOCTYPE svg PUBLIC "-//W3C//DTD SVG 1.1//EN" "http://www.w3.org/Graphics/SVG/1.1/DTD/svg11.dtd">
<svg xmlns="http://www.w3.org/2000/svg" version="1.1" width="640px" height="480px" style="shape-rendering:geometricPrecision; text-rendering:geometricPrecision; image-rendering:optimizeQuality; fill-rule:evenodd; clip-rule:evenodd" xmlns:xlink="http://www.w3.org/1999/xlink">
<g><path style="opacity:1" fill="#74acdf" d="M -0.5,-0.5 C 212.833,-0.5 426.167,-0.5 639.5,-0.5C 639.5,52.8333 639.5,106.167 639.5,159.5C 426.167,159.5 212.833,159.5 -0.5,159.5C -0.5,106.167 -0.5,52.8333 -0.5,-0.5 Z"/></g>
<g><path style="opacity:1" fill="#fefefe" d="M -0.5,159.5 C 212.833,159.5 426.167,159.5 639.5,159.5C 639.5,212.833 639.5,266.167 639.5,319.5C 426.167,319.5 212.833,319.5 -0.5,319.5C -0.5,266.167 -0.5,212.833 -0.5,159.5 Z"/></g>
<g><path style="opacity:1" fill="#a05a2e" d="M 308.5,181.5 C 307.833,179.5 307.167,177.5 306.5,175.5C 306.369,174.624 306.702,173.957 307.5,173.5C 308.48,176.086 308.813,178.753 308.5,181.5 Z"/></g>
<g><path style="opacity:1" fill="#9c5424" d="M 331.5,191.5 C 331.666,186.821 331.499,182.155 331,177.5C 329.971,181.573 329.138,185.573 328.5,189.5C 328.335,185.818 328.501,182.152 329,178.5C 329.919,175.356 331.752,174.356 334.5,175.5C 334.192,176.308 333.692,176.975 333,177.5C 332.826,182.351 332.326,187.018 331.5,191.5 Z"/></g>
<g><path style="opacity:1" fill="#b26b20" d="M 321.5,196.5 C 321.5,197.167 321.5,197.833 321.5,198.5C 321.167,198.5 320.833,198.5 320.5,198.5C 320.666,193.489 320.499,188.489 320,183.5C 319.617,182.944 319.117,182.611 318.5,182.5C 318.5,179.5 318.5,176.5 318.5,173.5C 319.189,172.226 320.023,172.226 321,173.5C 321.5,181.159 321.666,188.826 321.5,196.5 Z"/></g>
<g><path style="opacity:1" fill="#ae661f" d="M 301.5,192.5 C 300.108,190.727 298.941,188.727 298,186.5C 297.517,187.448 297.351,188.448 297.5,189.5C 294.845,185.877 293.845,181.877 294.5,177.5C 297.654,182.141 299.988,187.141 301.5,192.5 Z"/></g>
<g><path style="opacity:1" fill="#e9a50d" d="M 331.5,191.5 C 331.5,191.833 331.5,192.167 331.5,192.5C 327.989,197.799 326.989,197.132 328.5,190.5C 328.5,190.167 328.5,189.833 328.5,189.5C 329.138,185.573 329.971,181.573 331,177.5C 331.499,182.155 331.666,186.821 331.5,191.5 Z"/></g>
<g><path style="opacity:1" fill="#de9914" d="M 306.5,175.5 C 307.167,177.5 307.833,179.5 308.5,181.5C 309.787,184.406 310.787,187.406 311.5,190.5C 311.461,194.733 310.795,198.733 309.5,202.5C 309.666,197.489 309.499,192.489 309,187.5C 308.722,186.584 308.222,185.918 307.5,185.5C 306.028,183.883 305.361,181.883 305.5,179.5C 305.511,177.955 305.844,176.622 306.5,175.5 Z"/></g>
<g><path style="opacity:1" fill="#ae6620" d="M 291.5,193.5 C 289.537,192.316 287.537,191.483 285.5,191C 287.79,192.777 289.457,194.944 290.5,197.5C 284.908,194.317 282.575,189.65 283.5,183.5C 284.427,185.113 285.261,186.779 286,188.5C 288.328,189.664 290.162,191.33 291.5,193.5 Z"/></g>
<g><path style="opacity:1" fill="#b16a22" d="M 350.5,197.5 C 351.167,195.181 351.334,192.847 351,190.5C 350.392,192.066 349.558,193.4 348.5,194.5C 348.832,189.49 351.332,186.156 356,184.5C 356.5,184.833 357,185.167 357.5,185.5C 356.737,186.719 355.737,187.719 354.5,188.5C 353.308,191.674 351.975,194.674 350.5,197.5 Z"/></g>
<g><path style="opacity:1" fill="#ad682e" d="M 281.5,199.5 C 279.983,199.489 278.816,198.823 278,197.5C 277.536,198.094 277.369,198.761 277.5,199.5C 274.998,197.83 272.998,195.664 271.5,193C 272,192.5 272.5,192 273,191.5C 276.333,193.667 279.166,196.334 281.5,199.5 Z"/></g>
<g><path style="opacity:1" fill="#c47d18" d="M 301.5,192.5 C 304.923,197.747 307.589,203.413 309.5,209.5C 311.015,211.918 310.349,213.585 307.5,214.5C 306.675,212.64 305.675,210.974 304.5,209.5C 301.77,202.977 299.437,196.31 297.5,189.5C 297.351,188.448 297.517,187.448 298,186.5C 298.941,188.727 300.108,190.727 301.5,192.5 Z"/></g>
<g><path style="opacity:1" fill="#ab6b42" d="M 308.5,181.5 C 310.746,183.649 312.246,186.316 313,189.5C 313.391,194.854 313.891,200.188 314.5,205.5C 313.008,200.6 312.008,195.6 311.5,190.5C 310.787,187.406 309.787,184.406 308.5,181.5 Z"/></g>
<g><path style="opacity:1" fill="#91451a" d="M 307.5,185.5 C 308.222,185.918 308.722,186.584 309,187.5C 309.499,192.489 309.666,197.489 309.5,202.5C 308.635,196.996 307.968,191.329 307.5,185.5 Z"/></g>
<g><path style="opacity:1" fill="#b97120" d="M 328.5,190.5 C 326.989,197.132 327.989,197.799 331.5,192.5C 331.598,194.553 330.931,196.22 329.5,197.5C 328.662,197.842 328.328,198.508 328.5,199.5C 327.504,199.586 326.671,199.252 326,198.5C 325.057,201.251 324.224,203.917 323.5,206.5C 323.5,205.5 323.5,204.5 323.5,203.5C 324.36,198.793 326.027,194.459 328.5,190.5 Z"/></g>
<g><path style="opacity:1" fill="#dd9817" d="M 291.5,193.5 C 293.822,194.802 295.155,196.802 295.5,199.5C 297.333,205.208 296.333,205.874 292.5,201.5C 291.326,200.486 290.66,199.153 290.5,197.5C 289.457,194.944 287.79,192.777 285.5,191C 287.537,191.483 289.537,192.316 291.5,193.5 Z"/></g>
<g><path style="opacity:1" fill="#eaa70d" d="M 350.5,197.5 C 349.094,197.973 348.427,198.973 348.5,200.5C 345.757,202.239 343.757,204.573 342.5,207.5C 341.883,207.611 341.383,207.944 341,208.5C 341.771,206.82 341.605,205.153 340.5,203.5C 344.565,201.767 347.232,198.767 348.5,194.5C 349.558,193.4 350.392,192.066 351,190.5C 351.334,192.847 351.167,195.181 350.5,197.5 Z"/></g>
<g><path style="opacity:1" fill="#e9a40d" d="M 318.5,182.5 C 319.117,182.611 319.617,182.944 320,183.5C 320.499,188.489 320.666,193.489 320.5,198.5C 319.452,200.933 318.786,200.933 318.5,198.5C 318.5,193.167 318.5,187.833 318.5,182.5 Z"/></g>
<g><path style="opacity:1" fill="#ad651d" d="M 348.5,194.5 C 347.232,198.767 344.565,201.767 340.5,203.5C 343.195,200.474 345.862,197.474 348.5,194.5 Z"/></g>
<g><path style="opacity:1" fill="#a25a25" d="M 350.5,197.5 C 350.573,199.027 349.906,200.027 348.5,200.5C 348.427,198.973 349.094,197.973 350.5,197.5 Z"/></g>
<g><path style="opacity:1" fill="#b87120" d="M 343.5,219.5 C 341.983,219.511 340.816,220.177 340,221.5C 339.5,220.333 338.667,219.5 337.5,219C 338.71,217.961 339.71,216.794 340.5,215.5C 343.563,211.434 347.229,208.101 351.5,205.5C 355.83,200.337 360.664,195.67 366,191.5C 366.5,192 367,192.5 367.5,193C 359.293,201.704 351.293,210.537 343.5,219.5 Z"/></g>
<g><path style="opacity:1" fill="#c67e0f" d="M 311.5,190.5 C 312.008,195.6 313.008,200.6 314.5,205.5C 314.433,206.959 314.766,208.292 315.5,209.5C 315.587,212.598 315.087,212.932 314,210.5C 313.26,211.749 313.427,212.749 314.5,213.5C 314.158,214.338 313.492,214.672 312.5,214.5C 312.598,212.447 311.931,210.78 310.5,209.5C 310.007,207.194 309.674,204.861 309.5,202.5C 310.795,198.733 311.461,194.733 311.5,190.5 Z"/></g>
<g><path style="opacity:1" fill="#cdac9b" d="M 321.5,196.5 C 322.167,198.833 322.833,201.167 323.5,203.5C 323.5,204.5 323.5,205.5 323.5,206.5C 323.5,206.833 323.5,207.167 323.5,207.5C 322.833,206.833 322.167,206.167 321.5,205.5C 321.5,203.167 321.5,200.833 321.5,198.5C 321.5,197.833 321.5,197.167 321.5,196.5 Z"/></g>
<g><path style="opacity:1" fill="#c27b19" d="M 333.5,211.5 C 332.842,212.398 332.176,213.398 331.5,214.5C 331.251,213.418 331.085,212.085 331,210.5C 328.602,214.402 328.102,214.068 329.5,209.5C 333.958,198.583 338.958,187.917 344.5,177.5C 345.614,178.723 345.781,180.056 345,181.5C 341.257,191.568 337.423,201.568 333.5,211.5 Z"/></g>
<g><path style="opacity:1" fill="#b07552" d="M 348.5,200.5 C 347.243,203.427 345.243,205.761 342.5,207.5C 343.757,204.573 345.757,202.239 348.5,200.5 Z"/></g>
<g><path style="opacity:1" fill="#b26c24" d="M 365.5,211.5 C 366.684,209.537 367.517,207.537 368,205.5C 366.223,207.79 364.056,209.457 361.5,210.5C 364.729,204.885 369.396,202.551 375.5,203.5C 371.758,205.647 368.424,208.313 365.5,211.5 Z"/></g>
<g><path style="opacity:1" fill="#b36c23" d="M 277.5,208.5 C 275.181,207.833 272.847,207.666 270.5,208C 272.066,208.608 273.4,209.442 274.5,210.5C 269.49,210.168 266.156,207.668 264.5,203C 264.833,202.5 265.167,202 265.5,201.5C 266.719,202.263 267.719,203.263 268.5,204.5C 271.674,205.692 274.674,207.025 277.5,208.5 Z"/></g>
<g><path style="opacity:1" fill="#af7351" d="M 318.5,173.5 C 318.5,176.5 318.5,179.5 318.5,182.5C 318.5,187.833 318.5,193.167 318.5,198.5C 317.517,202.298 317.183,206.298 317.5,210.5C 316.833,210.167 316.167,209.833 315.5,209.5C 314.766,208.292 314.433,206.959 314.5,205.5C 315.222,205.918 315.722,206.584 316,207.5C 316.806,196.008 317.639,184.675 318.5,173.5 Z"/></g>
<g><path style="opacity:1" fill="#a15a24" d="M 277.5,208.5 C 279.027,208.427 280.027,209.094 280.5,210.5C 278.973,210.573 277.973,209.906 277.5,208.5 Z"/></g>
<g><path style="opacity:1" fill="#ce8710" d="M 281.5,199.5 C 283.833,201.167 285.833,203.167 287.5,205.5C 289.9,208.903 292.9,211.57 296.5,213.5C 297.167,213.833 297.833,214.167 298.5,214.5C 298.859,216.371 299.859,217.871 301.5,219C 300.333,219.5 299.5,220.333 299,221.5C 298.292,220.619 297.458,219.953 296.5,219.5C 294.833,218.5 293.5,217.167 292.5,215.5C 290.57,211.9 287.903,208.9 284.5,206.5C 281.833,204.5 279.5,202.167 277.5,199.5C 277.369,198.761 277.536,198.094 278,197.5C 278.816,198.823 279.983,199.489 281.5,199.5 Z"/></g>
<g><path style="opacity:1" fill="#d0890d" d="M 328.5,199.5 C 327.889,203.79 327.222,208.123 326.5,212.5C 325.459,210.009 324.626,210.009 324,212.5C 323.506,210.866 323.34,209.199 323.5,207.5C 323.5,207.167 323.5,206.833 323.5,206.5C 324.224,203.917 325.057,201.251 326,198.5C 326.671,199.252 327.504,199.586 328.5,199.5 Z"/></g>
<g><path style="opacity:1" fill="#a76330" d="M 287.5,205.5 C 291.1,207.43 294.1,210.097 296.5,213.5C 292.9,211.57 289.9,208.903 287.5,205.5 Z"/></g>
<g><path style="opacity:1" fill="#c37b15" d="M 340.5,203.5 C 341.605,205.153 341.771,206.82 341,208.5C 341.383,207.944 341.883,207.611 342.5,207.5C 342.573,209.027 341.906,210.027 340.5,210.5C 338.937,212.617 337.604,214.95 336.5,217.5C 335.808,216.975 335.308,216.308 335,215.5C 334.667,215.833 334.333,216.167 334,216.5C 333.53,215.423 333.697,214.423 334.5,213.5C 335.498,209.495 337.498,206.161 340.5,203.5 Z"/></g>
<g><path style="opacity:1" fill="#a25c2d" d="M 274.5,210.5 C 276.027,210.427 277.027,211.094 277.5,212.5C 275.973,212.573 274.973,211.906 274.5,210.5 Z"/></g>
<g><path style="opacity:1" fill="#edaa0d" d="M 277.5,208.5 C 277.973,209.906 278.973,210.573 280.5,210.5C 281.833,212.167 283.167,213.833 284.5,215.5C 283.883,215.611 283.383,215.944 283,216.5C 281.549,214.536 279.716,213.203 277.5,212.5C 277.027,211.094 276.027,210.427 274.5,210.5C 273.4,209.442 272.066,208.608 270.5,208C 272.847,207.666 275.181,207.833 277.5,208.5 Z"/></g>
<g><path style="opacity:1" fill="#ac6d48" d="M 280.5,210.5 C 283.427,211.757 285.761,213.757 287.5,216.5C 286.391,216.443 285.391,216.11 284.5,215.5C 283.167,213.833 281.833,212.167 280.5,210.5 Z"/></g>
<g><path style="opacity:1" fill="#c47c0e" d="M 318.5,198.5 C 318.786,200.933 319.452,200.933 320.5,198.5C 320.833,198.5 321.167,198.5 321.5,198.5C 321.5,200.833 321.5,203.167 321.5,205.5C 321.5,207.833 321.5,210.167 321.5,212.5C 319.517,212.843 318.183,212.176 317.5,210.5C 317.183,206.298 317.517,202.298 318.5,198.5 Z"/></g>
<g><path style="opacity:1" fill="#e19c0d" d="M 351.5,205.5 C 353.028,205.517 353.528,206.184 353,207.5C 351,209.5 349,211.5 347,213.5C 346.5,213 346,212.5 345.5,212C 347.706,209.963 349.706,207.797 351.5,205.5 Z"/></g>
<g><path style="opacity:1" fill="#a86432" d="M 284.5,206.5 C 287.903,208.9 290.57,211.9 292.5,215.5C 289.097,213.1 286.43,210.1 284.5,206.5 Z"/></g>
<g><path style="opacity:1" fill="#c27a15" d="M 295.5,199.5 C 297.516,204.18 300.516,208.18 304.5,211.5C 304.421,212.93 304.754,214.264 305.5,215.5C 304.282,215.109 303.448,215.776 303,217.5C 301.483,215.76 299.983,214.094 298.5,212.5C 295.214,209.6 293.214,205.933 292.5,201.5C 296.333,205.874 297.333,205.208 295.5,199.5 Z"/></g>
<g><path style="opacity:1" fill="#dd9917" d="M 365.5,211.5 C 364.198,213.822 362.198,215.155 359.5,215.5C 353.792,217.333 353.126,216.333 357.5,212.5C 358.514,211.326 359.847,210.66 361.5,210.5C 364.056,209.457 366.223,207.79 368,205.5C 367.517,207.537 366.684,209.537 365.5,211.5 Z"/></g>
<g><path style="opacity:1" fill="#f3b10d" d="M 314.5,213.5 C 332.797,212.804 343.13,221.471 345.5,239.5C 342.981,258.183 332.314,266.683 313.5,265C 304.012,262.012 297.679,255.845 294.5,246.5C 294.768,244.901 294.434,243.568 293.5,242.5C 293.5,239.5 293.5,236.5 293.5,233.5C 296.801,224.199 303.134,217.866 312.5,214.5C 313.492,214.672 314.158,214.338 314.5,213.5 Z"/></g>
<g><path style="opacity:1" fill="#c17917" d="M 277.5,212.5 C 279.716,213.203 281.549,214.536 283,216.5C 283.383,215.944 283.883,215.611 284.5,215.5C 285.391,216.11 286.391,216.443 287.5,216.5C 290.004,217.584 292.337,218.917 294.5,220.5C 295.429,221.315 296.429,222.148 297.5,223C 295.699,223.317 295.366,223.984 296.5,225C 294.893,224.981 293.226,224.815 291.5,224.5C 285.951,221.624 281.284,217.624 277.5,212.5 Z"/></g>
<g><path style="opacity:1" fill="#c17a18" d="M 357.5,212.5 C 353.126,216.333 353.792,217.333 359.5,215.5C 355.272,217.711 351.272,220.377 347.5,223.5C 345.856,224.366 344.189,224.866 342.5,225C 343.634,223.984 343.301,223.317 341.5,223C 343.093,222.051 344.426,220.885 345.5,219.5C 348.55,215.638 352.55,213.305 357.5,212.5 Z"/></g>
<g><path style="opacity:1" fill="#b77023" d="M 366.5,221.5 C 367.429,220.685 368.429,219.852 369.5,219C 368.552,218.517 367.552,218.351 366.5,218.5C 371.11,215.516 376.11,214.183 381.5,214.5C 376.859,217.654 371.859,219.988 366.5,221.5 Z"/></g>
<g><path style="opacity:1" fill="#c27b1c" d="M 285.5,223.5 C 287.246,224.218 287.912,225.218 287.5,226.5C 289.985,225.318 292.319,225.652 294.5,227.5C 293.418,227.749 292.085,227.915 290.5,228C 294.402,230.398 294.068,230.898 289.5,229.5C 278.583,225.042 267.917,220.042 257.5,214.5C 258.723,213.386 260.056,213.219 261.5,214C 269.701,216.944 277.701,220.111 285.5,223.5 Z"/></g>
<g><path style="opacity:1" fill="#c57e19" d="M 366.5,218.5 C 367.552,218.351 368.552,218.517 369.5,219C 368.429,219.852 367.429,220.685 366.5,221.5C 361.253,224.923 355.587,227.589 349.5,229.5C 346.936,231.291 345.269,230.624 344.5,227.5C 346.594,226.482 348.594,225.482 350.5,224.5C 355.537,221.929 360.871,219.929 366.5,218.5 Z"/></g>
<g><path style="opacity:1" fill="#984d1c" d="M 304.5,209.5 C 305.675,210.974 306.675,212.64 307.5,214.5C 310.349,213.585 311.015,211.918 309.5,209.5C 309.833,209.5 310.167,209.5 310.5,209.5C 311.931,210.78 312.598,212.447 312.5,214.5C 303.134,217.866 296.801,224.199 293.5,233.5C 293.389,232.883 293.056,232.383 292.5,232C 288.514,231.501 284.514,231.334 280.5,231.5C 279.5,230.833 278.5,230.167 277.5,229.5C 281.658,230.539 285.658,230.539 289.5,229.5C 294.068,230.898 294.402,230.398 290.5,228C 292.085,227.915 293.418,227.749 294.5,227.5C 292.319,225.652 289.985,225.318 287.5,226.5C 287.912,225.218 287.246,224.218 285.5,223.5C 287.5,223.833 289.5,224.167 291.5,224.5C 293.226,224.815 294.893,224.981 296.5,225C 295.366,223.984 295.699,223.317 297.5,223C 296.429,222.148 295.429,221.315 294.5,220.5C 295.492,220.672 296.158,220.338 296.5,219.5C 297.458,219.953 298.292,220.619 299,221.5C 299.5,220.333 300.333,219.5 301.5,219C 299.859,217.871 298.859,216.371 298.5,214.5C 298.5,213.833 298.5,213.167 298.5,212.5C 299.983,214.094 301.483,215.76 303,217.5C 303.448,215.776 304.282,215.109 305.5,215.5C 304.754,214.264 304.421,212.93 304.5,211.5C 304.5,210.833 304.5,210.167 304.5,209.5 Z"/></g>
<g><path style="opacity:1" fill="#b16a22" d="M 371.5,231.5 C 373.1,230.356 374.767,229.189 376.5,228C 375.552,227.517 374.552,227.351 373.5,227.5C 375.117,226.028 377.117,225.361 379.5,225.5C 381.808,225.365 383.808,226.031 385.5,227.5C 380.518,228.027 375.852,229.36 371.5,231.5 Z"/></g>
<g><path style="opacity:1" fill="#9c5424" d="M 271.5,227.5 C 266.821,227.334 262.155,227.501 257.5,228C 261.573,229.029 265.573,229.862 269.5,230.5C 265.818,230.665 262.152,230.499 258.5,230C 255.356,229.081 254.356,227.248 255.5,224.5C 256.308,224.808 256.975,225.308 257.5,226C 262.351,226.174 267.018,226.674 271.5,227.5 Z"/></g>
<g><path style="opacity:1" fill="#eba70e" d="M 271.5,227.5 C 278.347,230.61 278.014,231.61 270.5,230.5C 270.167,230.5 269.833,230.5 269.5,230.5C 265.573,229.862 261.573,229.029 257.5,228C 262.155,227.501 266.821,227.334 271.5,227.5 Z"/></g>
<g><path style="opacity:1" fill="#93481b" d="M 373.5,227.5 C 373.082,228.222 372.416,228.722 371.5,229C 366.511,229.499 361.511,229.666 356.5,229.5C 356.167,229.5 355.833,229.5 355.5,229.5C 361.34,228.649 367.34,227.982 373.5,227.5 Z"/></g>
<g><path style="opacity:1" fill="#a2550b" d="M 306.5,229.5 C 310.584,229.043 314.417,229.71 318,231.5C 318.667,232.5 318.667,233.5 318,234.5C 317.5,232.667 316.333,231.5 314.5,231C 311.77,230.272 309.103,230.438 306.5,231.5C 305.537,231.03 305.537,230.363 306.5,229.5 Z"/></g>
<g><path style="opacity:1" fill="#a2550b" d="M 323.5,229.5 C 327.048,229.095 330.381,229.595 333.5,231C 330.181,230.275 326.848,230.442 323.5,231.5C 322.537,231.03 322.537,230.363 323.5,229.5 Z"/></g>
<g><path style="opacity:1" fill="#efac0d" d="M 373.5,227.5 C 374.552,227.351 375.552,227.517 376.5,228C 374.767,229.189 373.1,230.356 371.5,231.5C 370.167,231.5 368.833,231.5 367.5,231.5C 363.613,231.354 359.946,230.687 356.5,229.5C 361.511,229.666 366.511,229.499 371.5,229C 372.416,228.722 373.082,228.222 373.5,227.5 Z"/></g>
<g><path style="opacity:1" fill="#d0890d" d="M 355.5,229.5 C 355.833,229.5 356.167,229.5 356.5,229.5C 359.946,230.687 363.613,231.354 367.5,231.5C 363.688,232.324 359.688,232.824 355.5,233C 354.584,233.278 353.918,233.778 353.5,234.5C 351.181,235.167 348.847,235.334 346.5,235C 349.167,234.333 349.167,233.667 346.5,233C 348.315,232.243 349.981,231.41 351.5,230.5C 352.708,229.766 354.041,229.433 355.5,229.5 Z"/></g>
<g><path style="opacity:1" fill="#bb731d" d="M 271.5,227.5 C 273.898,227.259 275.898,227.926 277.5,229.5C 278.5,230.167 279.5,230.833 280.5,231.5C 280.082,232.222 279.416,232.722 278.5,233C 281.909,233.996 285.242,234.829 288.5,235.5C 286.833,235.5 285.167,235.5 283.5,235.5C 278.793,234.64 274.459,232.973 270.5,230.5C 278.014,231.61 278.347,230.61 271.5,227.5 Z"/></g>
<g><path style="opacity:1" fill="#d0890d" d="M 280.5,231.5 C 284.514,231.334 288.514,231.501 292.5,232C 293.056,232.383 293.389,232.883 293.5,233.5C 292.167,234.167 290.833,234.833 289.5,235.5C 289.167,235.5 288.833,235.5 288.5,235.5C 285.242,234.829 281.909,233.996 278.5,233C 279.416,232.722 280.082,232.222 280.5,231.5 Z"/></g>
<g><path style="opacity:1" fill="#ad7049" d="M 367.5,231.5 C 368.833,231.5 370.167,231.5 371.5,231.5C 371.082,232.222 370.416,232.722 369.5,233C 364.134,233.323 358.801,233.823 353.5,234.5C 353.918,233.778 354.584,233.278 355.5,233C 359.688,232.824 363.688,232.324 367.5,231.5 Z"/></g>
<g><path style="opacity:1" fill="#904317" d="M 293.5,233.5 C 293.5,236.5 293.5,239.5 293.5,242.5C 293.5,243.5 293.5,244.5 293.5,245.5C 289.107,245.543 288.774,245.043 292.5,244C 290.153,243.666 287.819,243.833 285.5,244.5C 285.918,243.778 286.584,243.278 287.5,243C 286.906,242.536 286.239,242.369 285.5,242.5C 285.5,242.167 285.5,241.833 285.5,241.5C 287.833,241.5 290.167,241.5 292.5,241.5C 292.843,239.517 292.176,238.183 290.5,237.5C 290.167,236.833 289.833,236.167 289.5,235.5C 290.833,234.833 292.167,234.167 293.5,233.5 Z"/></g>
<g><path style="opacity:1" fill="#b47c5c" d="M 283.5,235.5 C 285.167,235.5 286.833,235.5 288.5,235.5C 288.833,235.5 289.167,235.5 289.5,235.5C 289.833,236.167 290.167,236.833 290.5,237.5C 278.181,238.253 265.848,238.586 253.5,238.5C 263.551,237.998 273.551,236.998 283.5,235.5 Z"/></g>
<g><path style="opacity:1" fill="#bd740d" d="M 325.5,232.5 C 328.983,231.916 331.983,232.749 334.5,235C 332.578,238.795 329.578,240.128 325.5,239C 324.386,237.551 323.386,236.217 322.5,235C 323.942,234.623 324.942,233.79 325.5,232.5 Z"/></g>
<g><path style="opacity:1" fill="#ba700d" d="M 307.5,232.5 C 312.328,231.67 315.328,233.17 316.5,237C 311.776,240.722 307.776,240.055 304.5,235C 305.571,234.148 306.571,233.315 307.5,232.5 Z"/></g>
<g><path style="opacity:1" fill="#e8a40d" d="M 376.5,238.5 C 377.167,238.5 377.833,238.5 378.5,238.5C 378.167,239.167 377.833,239.833 377.5,240.5C 371.379,240.91 365.379,240.41 359.5,239C 365.157,238.501 370.824,238.334 376.5,238.5 Z"/></g>
<g><path style="opacity:1" fill="#d48e0e" d="M 290.5,237.5 C 292.176,238.183 292.843,239.517 292.5,241.5C 290.167,241.5 287.833,241.5 285.5,241.5C 274.857,240.655 264.19,240.321 253.5,240.5C 252.167,239.833 252.167,239.167 253.5,238.5C 265.848,238.586 278.181,238.253 290.5,237.5 Z"/></g>
<g><path style="opacity:1" fill="#b66d15" d="M 353.5,237.5 C 361.352,237.175 369.018,237.508 376.5,238.5C 370.824,238.334 365.157,238.501 359.5,239C 365.379,240.41 371.379,240.91 377.5,240.5C 370.687,241.491 363.687,241.825 356.5,241.5C 353.5,241.5 350.5,241.5 347.5,241.5C 346.566,240.432 346.232,239.099 346.5,237.5C 348.833,237.5 351.167,237.5 353.5,237.5 Z"/></g>
<g><path style="opacity:1" fill="#b26912" d="M 378.5,238.5 C 381.247,238.187 383.914,238.52 386.5,239.5C 383.572,240.484 380.572,240.817 377.5,240.5C 377.833,239.833 378.167,239.167 378.5,238.5 Z"/></g>
<g><path style="opacity:1" fill="#b68063" d="M 253.5,240.5 C 264.19,240.321 274.857,240.655 285.5,241.5C 285.5,241.833 285.5,242.167 285.5,242.5C 274.665,242.09 263.998,241.423 253.5,240.5 Z"/></g>
<g><path style="opacity:1" fill="#c0937a" d="M 347.5,241.5 C 350.5,241.5 353.5,241.5 356.5,241.5C 356.167,242.167 355.833,242.833 355.5,243.5C 354.167,243.5 352.833,243.5 351.5,243.5C 350.833,243.5 350.167,243.5 349.5,243.5C 348.833,242.833 348.167,242.167 347.5,241.5 Z"/></g>
<g><path style="opacity:1" fill="#c57d0f" d="M 293.5,242.5 C 294.434,243.568 294.768,244.901 294.5,246.5C 291.848,246.41 289.515,247.076 287.5,248.5C 286.292,249.234 284.959,249.567 283.5,249.5C 283.918,248.778 284.584,248.278 285.5,248C 284.833,247.667 284.167,247.333 283.5,247C 284.416,246.722 285.082,246.222 285.5,245.5C 285.5,245.167 285.5,244.833 285.5,244.5C 287.819,243.833 290.153,243.666 292.5,244C 288.774,245.043 289.107,245.543 293.5,245.5C 293.5,244.5 293.5,243.5 293.5,242.5 Z"/></g>
<g><path style="opacity:1" fill="#a0530b" d="M 324.5,243.5 C 325.404,244.209 325.737,245.209 325.5,246.5C 321.818,246.665 318.152,246.499 314.5,246C 315.416,245.626 316.25,245.126 317,244.5C 319.232,245.187 321.398,245.521 323.5,245.5C 324.298,245.043 324.631,244.376 324.5,243.5 Z"/></g>
<g><path style="opacity:1" fill="#d48d0d" d="M 349.5,243.5 C 350.167,243.5 350.833,243.5 351.5,243.5C 353.292,244.309 355.292,244.809 357.5,245C 355.833,245.333 354.167,245.667 352.5,246C 355.016,246.091 356.682,246.591 357.5,247.5C 353.774,247.823 350.107,247.489 346.5,246.5C 348.991,245.459 348.991,244.626 346.5,244C 347.448,243.517 348.448,243.351 349.5,243.5 Z"/></g>
<g><path style="opacity:1" fill="#dd9812" d="M 285.5,245.5 C 285.082,246.222 284.416,246.722 283.5,247C 284.167,247.333 284.833,247.667 285.5,248C 284.584,248.278 283.918,248.778 283.5,249.5C 278.156,249.334 272.823,249.501 267.5,250C 266.584,250.278 265.918,250.778 265.5,251.5C 263.883,252.972 261.883,253.639 259.5,253.5C 257.955,253.489 256.622,253.156 255.5,252.5C 260.588,251.306 265.588,249.473 270.5,247C 275.532,246.664 280.532,246.164 285.5,245.5 Z"/></g>
<g><path style="opacity:1" fill="#b8701b" d="M 351.5,243.5 C 352.833,243.5 354.167,243.5 355.5,243.5C 359.297,243.872 362.63,245.206 365.5,247.5C 364.325,247.281 363.325,247.614 362.5,248.5C 363.901,249.521 365.235,250.521 366.5,251.5C 363.402,250.784 360.402,249.784 357.5,248.5C 357.5,248.167 357.5,247.833 357.5,247.5C 356.682,246.591 355.016,246.091 352.5,246C 354.167,245.667 355.833,245.333 357.5,245C 355.292,244.809 353.292,244.309 351.5,243.5 Z"/></g>
<g><path style="opacity:1" fill="#d48e12" d="M 365.5,247.5 C 370.324,247.992 374.99,248.659 379.5,249.5C 379.918,250.222 380.584,250.722 381.5,251C 376.511,251.499 371.511,251.666 366.5,251.5C 365.235,250.521 363.901,249.521 362.5,248.5C 363.325,247.614 364.325,247.281 365.5,247.5 Z"/></g>
<g><path style="opacity:1" fill="#94491f" d="M 283.5,249.5 C 277.66,250.351 271.66,251.018 265.5,251.5C 265.918,250.778 266.584,250.278 267.5,250C 272.823,249.501 278.156,249.334 283.5,249.5 Z"/></g>
<g><path style="opacity:1" fill="#a96739" d="M 285.5,244.5 C 285.5,244.833 285.5,245.167 285.5,245.5C 280.532,246.164 275.532,246.664 270.5,247C 265.588,249.473 260.588,251.306 255.5,252.5C 254.624,252.631 253.957,252.298 253.5,251.5C 259.117,250.526 264.451,248.693 269.5,246C 274.854,245.609 280.188,245.109 285.5,244.5 Z"/></g>
<g><path style="opacity:1" fill="#9f5827" d="M 379.5,249.5 C 383.235,249.546 384.568,251.213 383.5,254.5C 382.692,254.192 382.025,253.692 381.5,253C 376.316,252.826 371.316,252.326 366.5,251.5C 371.511,251.666 376.511,251.499 381.5,251C 380.584,250.722 379.918,250.222 379.5,249.5 Z"/></g>
<g><path style="opacity:1" fill="#c47c16" d="M 289.5,249.5 C 292.598,249.413 292.932,249.913 290.5,251C 291.5,251.333 292.5,251.667 293.5,252C 291.685,252.757 290.019,253.59 288.5,254.5C 281.459,257.738 274.126,260.405 266.5,262.5C 265.761,262.631 265.094,262.464 264.5,262C 266.727,261.059 268.727,259.892 270.5,258.5C 276.401,254.718 282.734,251.718 289.5,249.5 Z"/></g>
<g><path style="opacity:1" fill="#bc7419" d="M 349.5,249.5 C 360.417,253.958 371.083,258.958 381.5,264.5C 380.277,265.614 378.944,265.781 377.5,265C 367.364,261.428 357.364,257.595 347.5,253.5C 343.957,252.559 343.624,250.892 346.5,248.5C 347.417,249.127 348.417,249.461 349.5,249.5 Z"/></g>
<g><path style="opacity:1" fill="#954919" d="M 329.5,197.5 C 328.461,201.658 328.461,205.658 329.5,209.5C 328.102,214.068 328.602,214.402 331,210.5C 331.085,212.085 331.251,213.418 331.5,214.5C 332.176,213.398 332.842,212.398 333.5,211.5C 333.328,212.492 333.662,213.158 334.5,213.5C 333.697,214.423 333.53,215.423 334,216.5C 334.333,216.167 334.667,215.833 335,215.5C 335.308,216.308 335.808,216.975 336.5,217.5C 337.604,214.95 338.937,212.617 340.5,210.5C 339.904,212.398 339.904,214.065 340.5,215.5C 339.71,216.794 338.71,217.961 337.5,219C 338.667,219.5 339.5,220.333 340,221.5C 340.816,220.177 341.983,219.511 343.5,219.5C 344.167,219.5 344.833,219.5 345.5,219.5C 344.426,220.885 343.093,222.051 341.5,223C 343.301,223.317 343.634,223.984 342.5,225C 344.189,224.866 345.856,224.366 347.5,223.5C 348.209,224.404 349.209,224.737 350.5,224.5C 348.594,225.482 346.594,226.482 344.5,227.5C 345.269,230.624 346.936,231.291 349.5,229.5C 349.842,230.338 350.508,230.672 351.5,230.5C 349.981,231.41 348.315,232.243 346.5,233C 349.167,233.667 349.167,234.333 346.5,235C 348.847,235.334 351.181,235.167 353.5,234.5C 353.082,235.222 352.416,235.722 351.5,236C 352.416,236.278 353.082,236.778 353.5,237.5C 351.167,237.5 348.833,237.5 346.5,237.5C 346.232,239.099 346.566,240.432 347.5,241.5C 348.167,242.167 348.833,242.833 349.5,243.5C 348.448,243.351 347.448,243.517 346.5,244C 348.991,244.626 348.991,245.459 346.5,246.5C 350.107,247.489 353.774,247.823 357.5,247.5C 357.5,247.833 357.5,248.167 357.5,248.5C 354.615,248.194 351.948,248.527 349.5,249.5C 348.417,249.461 347.417,249.127 346.5,248.5C 343.624,250.892 343.957,252.559 347.5,253.5C 346.508,253.328 345.842,253.662 345.5,254.5C 344.85,254.196 344.183,253.863 343.5,253.5C 343.891,254.718 343.224,255.552 341.5,256C 343.233,257.189 344.9,258.356 346.5,259.5C 345.209,259.263 344.209,259.596 343.5,260.5C 342.206,259.71 341.039,258.71 340,257.5C 339.5,258.667 338.667,259.5 337.5,260C 338.381,260.708 339.047,261.542 339.5,262.5C 338.662,262.842 338.328,263.508 338.5,264.5C 337.685,263.571 336.852,262.571 336,261.5C 335.683,263.301 335.016,263.634 334,262.5C 334.134,264.189 334.634,265.856 335.5,267.5C 334.596,268.209 334.263,269.209 334.5,270.5C 333.59,268.981 332.757,267.315 332,265.5C 331.667,266.5 331.333,267.5 331,268.5C 328.602,264.598 328.102,264.932 329.5,269.5C 328.662,269.842 328.328,270.508 328.5,271.5C 327.59,269.981 326.757,268.315 326,266.5C 325.333,270.5 324.667,270.5 324,266.5C 323.666,268.847 323.833,271.181 324.5,273.5C 323.778,273.082 323.278,272.416 323,271.5C 322.722,272.416 322.222,273.082 321.5,273.5C 321.5,271.167 321.5,268.833 321.5,266.5C 319.901,266.232 318.568,266.566 317.5,267.5C 316.833,268.167 316.167,268.833 315.5,269.5C 315.587,266.402 315.087,266.068 314,268.5C 313.692,267.692 313.192,267.025 312.5,266.5C 311.833,270.313 311.166,273.979 310.5,277.5C 310.806,274.615 310.473,271.948 309.5,269.5C 311.291,266.936 310.624,265.269 307.5,264.5C 306.824,265.602 306.158,266.602 305.5,267.5C 305.672,266.508 305.338,265.842 304.5,265.5C 304.804,264.85 305.137,264.183 305.5,263.5C 304.282,263.891 303.448,263.224 303,261.5C 302.148,262.571 301.315,263.571 300.5,264.5C 300.672,263.508 300.338,262.842 299.5,262.5C 299.953,261.542 300.619,260.708 301.5,260C 300.333,259.5 299.5,258.667 299,257.5C 298.292,258.381 297.458,259.047 296.5,259.5C 296.5,258.833 296.167,258.5 295.5,258.5C 295.953,257.542 296.619,256.708 297.5,256C 295.776,255.552 295.109,254.718 295.5,253.5C 294.06,254.952 292.394,255.952 290.5,256.5C 291.66,254.797 290.993,254.131 288.5,254.5C 290.019,253.59 291.685,252.757 293.5,252C 292.5,251.667 291.5,251.333 290.5,251C 292.932,249.913 292.598,249.413 289.5,249.5C 289.158,248.662 288.492,248.328 287.5,248.5C 289.515,247.076 291.848,246.41 294.5,246.5C 297.679,255.845 304.012,262.012 313.5,265C 332.314,266.683 342.981,258.183 345.5,239.5C 343.13,221.471 332.797,212.804 314.5,213.5C 313.427,212.749 313.26,211.749 314,210.5C 315.087,212.932 315.587,212.598 315.5,209.5C 316.167,209.833 316.833,210.167 317.5,210.5C 318.183,212.176 319.517,212.843 321.5,212.5C 321.5,210.167 321.5,207.833 321.5,205.5C 322.167,206.167 322.833,206.833 323.5,207.5C 323.34,209.199 323.506,210.866 324,212.5C 324.626,210.009 325.459,210.009 326.5,212.5C 327.222,208.123 327.889,203.79 328.5,199.5C 328.328,198.508 328.662,197.842 329.5,197.5 Z"/></g>
<g><path style="opacity:1" fill="#c9810c" d="M 315.5,248.5 C 318.187,248.336 320.854,248.503 323.5,249C 324.357,249.689 325.023,250.522 325.5,251.5C 324.019,252.48 322.685,253.647 321.5,255C 321.833,255.333 322.167,255.667 322.5,256C 320.802,255.503 319.135,255.67 317.5,256.5C 317.262,254.522 315.929,252.855 313.5,251.5C 314.193,250.482 314.859,249.482 315.5,248.5 Z"/></g>
<g><path style="opacity:1" fill="#cd8617" d="M 345.5,254.5 C 350.022,255.589 353.689,257.922 356.5,261.5C 357.167,264.167 358.833,265.833 361.5,266.5C 364.205,267.853 366.872,269.186 369.5,270.5C 369.611,271.117 369.944,271.617 370.5,272C 369.207,272.49 367.873,272.657 366.5,272.5C 363.246,272.206 360.579,270.873 358.5,268.5C 356.037,264.7 352.704,262.033 348.5,260.5C 347.508,260.672 346.842,260.338 346.5,259.5C 344.9,258.356 343.233,257.189 341.5,256C 343.224,255.552 343.891,254.718 343.5,253.5C 344.183,253.863 344.85,254.196 345.5,254.5 Z"/></g>
<g><path style="opacity:1" fill="#a96739" d="M 348.5,260.5 C 352.704,262.033 356.037,264.7 358.5,268.5C 354.873,266.206 351.539,263.54 348.5,260.5 Z"/></g>
<g><path style="opacity:1" fill="#aa611d" d="M 270.5,258.5 C 268.727,259.892 266.727,261.059 264.5,262C 265.094,262.464 265.761,262.631 266.5,262.5C 263.856,264.827 260.856,265.494 257.5,264.5C 261.476,261.678 265.809,259.678 270.5,258.5 Z"/></g>
<g><path style="opacity:1" fill="#a85f1a" d="M 356.5,261.5 C 358.5,262.833 360.167,264.5 361.5,266.5C 358.833,265.833 357.167,264.167 356.5,261.5 Z"/></g>
<g><path style="opacity:1" fill="#cc8619" d="M 295.5,258.5 C 290.444,263.365 284.444,266.699 277.5,268.5C 274.775,269.713 272.441,271.546 270.5,274C 269.563,274.692 268.897,274.525 268.5,273.5C 270.243,270.25 272.577,267.416 275.5,265C 281.055,262.996 286.055,260.163 290.5,256.5C 292.394,255.952 294.06,254.952 295.5,253.5C 295.109,254.718 295.776,255.552 297.5,256C 296.619,256.708 295.953,257.542 295.5,258.5 Z"/></g>
<g><path style="opacity:1" fill="#cb8411" d="M 343.5,260.5 C 345.167,261.5 346.5,262.833 347.5,264.5C 349.094,267.764 351.427,270.431 354.5,272.5C 357.5,274.833 360.167,277.5 362.5,280.5C 362.631,281.239 362.464,281.906 362,282.5C 360.549,280.536 358.716,279.203 356.5,278.5C 354.5,277.167 352.833,275.5 351.5,273.5C 349.1,270.097 346.1,267.43 342.5,265.5C 341.167,264.833 340.167,263.833 339.5,262.5C 339.047,261.542 338.381,260.708 337.5,260C 338.667,259.5 339.5,258.667 340,257.5C 341.039,258.71 342.206,259.71 343.5,260.5 Z"/></g>
<g><path style="opacity:1" fill="#a8642f" d="M 342.5,265.5 C 346.1,267.43 349.1,270.097 351.5,273.5C 347.9,271.57 344.9,268.903 342.5,265.5 Z"/></g>
<g><path style="opacity:1" fill="#a86433" d="M 347.5,264.5 C 350.573,266.569 352.906,269.236 354.5,272.5C 351.427,270.431 349.094,267.764 347.5,264.5 Z"/></g>
<g><path style="opacity:1" fill="#c67f19" d="M 338.5,264.5 C 343.608,269.038 346.941,274.704 348.5,281.5C 349.543,284.056 351.21,286.223 353.5,288C 351.463,287.517 349.463,286.684 347.5,285.5C 343.684,279.406 339.684,273.406 335.5,267.5C 334.634,265.856 334.134,264.189 334,262.5C 335.016,263.634 335.683,263.301 336,261.5C 336.852,262.571 337.685,263.571 338.5,264.5 Z"/></g>
<g><path style="opacity:1" fill="#c17a18" d="M 309.5,269.5 C 306.344,277.808 302.677,285.808 298.5,293.5C 298.421,292.07 298.754,290.736 299.5,289.5C 299.03,288.537 298.363,288.537 297.5,289.5C 299.574,281.944 302.241,274.611 305.5,267.5C 306.158,266.602 306.824,265.602 307.5,264.5C 310.624,265.269 311.291,266.936 309.5,269.5 Z"/></g>
<g><path style="opacity:1" fill="#a86330" d="M 277.5,268.5 C 274.531,274.136 269.864,276.802 263.5,276.5C 263.5,275.5 263.5,274.5 263.5,273.5C 265.167,273.5 266.833,273.5 268.5,273.5C 268.897,274.525 269.563,274.692 270.5,274C 272.441,271.546 274.775,269.713 277.5,268.5 Z"/></g>
<g><path style="opacity:1" fill="#ad704a" d="M 293.5,268.5 C 291.5,271.167 289.167,273.5 286.5,275.5C 287.833,272.167 290.167,269.833 293.5,268.5 Z"/></g>
<g><path style="opacity:1" fill="#b36d2b" d="M 321.5,273.5 C 321.828,284.346 321.494,295.013 320.5,305.5C 320.5,301.833 320.5,298.167 320.5,294.5C 320.666,287.825 320.5,281.158 320,274.5C 318.545,280.653 318.045,286.986 318.5,293.5C 318.5,297.5 318.5,301.5 318.5,305.5C 317.508,297.684 317.174,289.684 317.5,281.5C 317.5,276.833 317.5,272.167 317.5,267.5C 318.568,266.566 319.901,266.232 321.5,266.5C 321.5,268.833 321.5,271.167 321.5,273.5 Z"/></g>
<g><path style="opacity:1" fill="#bd761c" d="M 334.5,270.5 C 338.462,279.204 341.962,288.204 345,297.5C 345.781,298.944 345.614,300.277 344.5,301.5C 338.958,291.083 333.958,280.417 329.5,269.5C 328.102,264.932 328.602,264.598 331,268.5C 331.333,267.5 331.667,266.5 332,265.5C 332.757,267.315 333.59,268.981 334.5,270.5 Z"/></g>
<g><path style="opacity:1" fill="#a6602b" d="M 369.5,270.5 C 373.211,271.596 374.544,273.929 373.5,277.5C 371.63,275.076 369.297,273.409 366.5,272.5C 367.873,272.657 369.207,272.49 370.5,272C 369.944,271.617 369.611,271.117 369.5,270.5 Z"/></g>
<g><path style="opacity:1" fill="#bd761d" d="M 304.5,265.5 C 302.417,272.253 298.417,277.586 292.5,281.5C 292.859,279.629 293.859,278.129 295.5,277C 293.505,276.387 291.838,276.887 290.5,278.5C 294.164,274.153 297.498,269.487 300.5,264.5C 301.315,263.571 302.148,262.571 303,261.5C 303.448,263.224 304.282,263.891 305.5,263.5C 305.137,264.183 304.804,264.85 304.5,265.5 Z"/></g>
<g><path style="opacity:1" fill="#c27a11" d="M 328.5,271.5 C 329.234,272.708 329.567,274.041 329.5,275.5C 329.5,276.167 329.5,276.833 329.5,277.5C 328.215,280.589 327.549,283.922 327.5,287.5C 326.833,284.833 326.167,282.167 325.5,279.5C 325.167,277.5 324.833,275.5 324.5,273.5C 323.833,271.181 323.666,268.847 324,266.5C 324.667,270.5 325.333,270.5 326,266.5C 326.757,268.315 327.59,269.981 328.5,271.5 Z"/></g>
<g><path style="opacity:1" fill="#c37c16" d="M 299.5,262.5 C 297.833,264.833 295.833,266.833 293.5,268.5C 290.167,269.833 287.833,272.167 286.5,275.5C 283.833,277.833 281.167,280.167 278.5,282.5C 277.761,282.631 277.094,282.464 276.5,282C 278.464,280.549 279.797,278.716 280.5,276.5C 285.129,270.203 290.462,264.537 296.5,259.5C 297.458,259.047 298.292,258.381 299,257.5C 299.5,258.667 300.333,259.5 301.5,260C 300.619,260.708 299.953,261.542 299.5,262.5 Z"/></g>
<g><path style="opacity:1" fill="#d99415" d="M 292.5,281.5 C 291.094,281.973 290.427,282.973 290.5,284.5C 290.204,286.403 289.537,288.07 288.5,289.5C 287.883,289.611 287.383,289.944 287,290.5C 286.51,289.207 286.343,287.873 286.5,286.5C 286.794,283.246 288.127,280.579 290.5,278.5C 291.838,276.887 293.505,276.387 295.5,277C 293.859,278.129 292.859,279.629 292.5,281.5 Z"/></g>
<g><path style="opacity:1" fill="#954a1b" d="M 329.5,275.5 C 330.351,281.34 331.018,287.34 331.5,293.5C 330.778,293.082 330.278,292.416 330,291.5C 329.501,286.845 329.334,282.179 329.5,277.5C 329.5,276.833 329.5,276.167 329.5,275.5 Z"/></g>
<g><path style="opacity:1" fill="#ad6930" d="M 356.5,278.5 C 358.716,279.203 360.549,280.536 362,282.5C 362.464,281.906 362.631,281.239 362.5,280.5C 364.67,281.838 366.336,283.672 367.5,286C 367,286.5 366.5,287 366,287.5C 362.333,284.999 359.166,281.999 356.5,278.5 Z"/></g>
<g><path style="opacity:1" fill="#aa6429" d="M 280.5,276.5 C 279.797,278.716 278.464,280.549 276.5,282C 277.094,282.464 277.761,282.631 278.5,282.5C 277.162,284.67 275.328,286.336 273,287.5C 272.5,287 272,286.5 271.5,286C 274.001,282.333 277.001,279.166 280.5,276.5 Z"/></g>
<g><path style="opacity:1" fill="#cba793" d="M 317.5,267.5 C 317.5,272.167 317.5,276.833 317.5,281.5C 316.833,279.5 316.167,277.5 315.5,275.5C 315.5,273.5 315.5,271.5 315.5,269.5C 316.167,268.833 316.833,268.167 317.5,267.5 Z"/></g>
<g><path style="opacity:1" fill="#c57d13" d="M 315.5,269.5 C 315.5,271.5 315.5,273.5 315.5,275.5C 315.128,279.297 313.794,282.63 311.5,285.5C 311.715,283.821 311.048,282.821 309.5,282.5C 309.5,282.167 309.5,281.833 309.5,281.5C 309.433,280.041 309.766,278.708 310.5,277.5C 311.166,273.979 311.833,270.313 312.5,266.5C 313.192,267.025 313.692,267.692 314,268.5C 315.087,266.068 315.587,266.402 315.5,269.5 Z"/></g>
<g><path style="opacity:1" fill="#b07754" d="M 325.5,279.5 C 326.167,282.167 326.833,284.833 327.5,287.5C 327.5,288.833 327.5,290.167 327.5,291.5C 326.778,291.082 326.278,290.416 326,289.5C 325.502,286.183 325.335,282.85 325.5,279.5 Z"/></g>
<g><path style="opacity:1" fill="#a25e34" d="M 292.5,281.5 C 292.573,283.027 291.906,284.027 290.5,284.5C 290.427,282.973 291.094,281.973 292.5,281.5 Z"/></g>
<g><path style="opacity:1" fill="#d48e12" d="M 309.5,282.5 C 311.048,282.821 311.715,283.821 311.5,285.5C 311.008,290.324 310.341,294.99 309.5,299.5C 308.778,299.918 308.278,300.584 308,301.5C 307.022,294.993 307.522,288.659 309.5,282.5 Z"/></g>
<g><path style="opacity:1" fill="#e8a50d" d="M 320.5,294.5 C 319.833,294.167 319.167,293.833 318.5,293.5C 318.045,286.986 318.545,280.653 320,274.5C 320.5,281.158 320.666,287.825 320.5,294.5 Z"/></g>
<g><path style="opacity:1" fill="#efac0d" d="M 329.5,277.5 C 329.334,282.179 329.501,286.845 330,291.5C 330.278,292.416 330.778,293.082 331.5,293.5C 331.5,294.833 331.5,296.167 331.5,297.5C 330.167,295.5 328.833,293.5 327.5,291.5C 327.5,290.167 327.5,288.833 327.5,287.5C 327.549,283.922 328.215,280.589 329.5,277.5 Z"/></g>
<g><path style="opacity:1" fill="#a96227" d="M 286.5,286.5 C 286.343,287.873 286.51,289.207 287,290.5C 287.383,289.944 287.883,289.611 288.5,289.5C 287.404,293.211 285.071,294.544 281.5,293.5C 283.924,291.63 285.591,289.297 286.5,286.5 Z"/></g>
<g><path style="opacity:1" fill="#e8a40d" d="M 298.5,293.5 C 297.637,294.463 296.97,294.463 296.5,293.5C 297.246,292.264 297.579,290.93 297.5,289.5C 298.363,288.537 299.03,288.537 299.5,289.5C 298.754,290.736 298.421,292.07 298.5,293.5 Z"/></g>
<g><path style="opacity:1" fill="#b16b28" d="M 348.5,281.5 C 353.779,284.729 356.445,289.395 356.5,295.5C 355.5,295.5 354.5,295.5 353.5,295.5C 353.66,293.801 353.494,292.134 353,290.5C 350.672,289.336 348.838,287.67 347.5,285.5C 349.463,286.684 351.463,287.517 353.5,288C 351.21,286.223 349.543,284.056 348.5,281.5 Z"/></g>
<g><path style="opacity:1" fill="#ac6420" d="M 297.5,289.5 C 297.579,290.93 297.246,292.264 296.5,293.5C 296.97,294.463 297.637,294.463 298.5,293.5C 297.705,296.423 296.372,299.09 294.5,301.5C 293.845,297.123 294.845,293.123 297.5,289.5 Z"/></g>
<g><path style="opacity:1" fill="#bc7416" d="M 331.5,293.5 C 332.972,295.117 333.639,297.117 333.5,299.5C 333.489,301.045 333.156,302.378 332.5,303.5C 331.539,301.735 331.205,299.735 331.5,297.5C 331.5,296.167 331.5,294.833 331.5,293.5 Z"/></g>
<g><path style="opacity:1" fill="#b76e11" d="M 318.5,293.5 C 319.167,293.833 319.833,294.167 320.5,294.5C 320.5,298.167 320.5,301.833 320.5,305.5C 319.833,306.833 319.167,306.833 318.5,305.5C 318.5,301.5 318.5,297.5 318.5,293.5 Z"/></g>
<g><path style="opacity:1" fill="#a05926" d="M 309.5,281.5 C 309.5,281.833 309.5,282.167 309.5,282.5C 307.522,288.659 307.022,294.993 308,301.5C 308.278,300.584 308.778,299.918 309.5,299.5C 309.454,303.235 307.787,304.568 304.5,303.5C 304.808,302.692 305.308,302.025 306,301.5C 306.333,296.167 306.667,290.833 307,285.5C 307.608,283.934 308.442,282.6 309.5,281.5 Z"/></g>
<g><path style="opacity:1" fill="#a35e32" d="M 327.5,291.5 C 328.833,293.5 330.167,295.5 331.5,297.5C 331.205,299.735 331.539,301.735 332.5,303.5C 332.631,304.376 332.298,305.043 331.5,305.5C 330.73,300.639 329.396,295.972 327.5,291.5 Z"/></g>
<g><path style="opacity:1" fill="#74acdf" d="M -0.5,319.5 C 212.833,319.5 426.167,319.5 639.5,319.5C 639.5,372.833 639.5,426.167 639.5,479.5C 426.167,479.5 212.833,479.5 -0.5,479.5C -0.5,426.167 -0.5,372.833 -0.5,319.5 Z"/></g>
</svg>
