<?xml version="1.0" encoding="UTF-8"?>
<!DOCTYPE svg PUBLIC "-//W3C//DTD SVG 1.1//EN" "http://www.w3.org/Graphics/SVG/1.1/DTD/svg11.dtd">
<svg xmlns="http://www.w3.org/2000/svg" version="1.1" width="640px" height="480px" style="shape-rendering:geometricPrecision; text-rendering:geometricPrecision; image-rendering:optimizeQuality; fill-rule:evenodd; clip-rule:evenodd" xmlns:xlink="http://www.w3.org/1999/xlink">
<g><path style="opacity:1" fill="#3399cc" d="M -0.5,-0.5 C 212.833,-0.5 426.167,-0.5 639.5,-0.5C 639.5,106.167 639.5,212.833 639.5,319.5C 426.167,319.5 212.833,319.5 -0.5,319.5C -0.5,212.833 -0.5,106.167 -0.5,-0.5 Z"/></g>
<g><path style="opacity:1" fill="#f7f2f4" d="M 139.5,33.5 C 141.144,33.2865 142.644,33.6198 144,34.5C 150.585,60.1039 157.418,85.6039 164.5,111C 192.21,118.177 219.877,125.511 247.5,133C 219.768,140.349 192.101,147.849 164.5,155.5C 156.695,182.719 149.195,210.052 142,237.5C 134.221,210.651 126.721,183.651 119.5,156.5C 91.9031,148.683 64.2365,141.017 36.5,133.5C 63.6449,125.38 90.9783,117.88 118.5,111C 126.215,85.3908 133.215,59.5574 139.5,33.5 Z"/></g>
<g><path style="opacity:1" fill="#cc0603" d="M 141.5,41.5 C 148.459,65.2345 154.959,89.2345 161,113.5C 184.783,120.071 208.616,126.571 232.5,133C 208.784,139.346 185.117,145.846 161.5,152.5C 154.539,176.008 148.039,199.675 142,223.5C 135.19,200.261 128.69,176.928 122.5,153.5C 98.5877,146.522 74.5877,139.855 50.5,133.5C 74.4193,126.52 98.4193,119.854 122.5,113.5C 128.533,89.3658 134.866,65.3658 141.5,41.5 Z"/></g>
<g><path style="opacity:1" fill="#fcfd07" d="M -0.5,319.5 C 212.833,319.5 426.167,319.5 639.5,319.5C 639.5,328.5 639.5,337.5 639.5,346.5C 426.167,346.5 212.833,346.5 -0.5,346.5C -0.5,337.5 -0.5,328.5 -0.5,319.5 Z"/></g>
<g><path style="opacity:1" fill="#3399cc" d="M -0.5,346.5 C 212.833,346.5 426.167,346.5 639.5,346.5C 639.5,355.167 639.5,363.833 639.5,372.5C 426.167,372.5 212.833,372.5 -0.5,372.5C -0.5,363.833 -0.5,355.167 -0.5,346.5 Z"/></g>
<g><path style="opacity:1" fill="#fcfd07" d="M -0.5,372.5 C 212.833,372.5 426.167,372.5 639.5,372.5C 639.5,381.5 639.5,390.5 639.5,399.5C 426.167,399.5 212.833,399.5 -0.5,399.5C -0.5,390.5 -0.5,381.5 -0.5,372.5 Z"/></g>
<g><path style="opacity:1" fill="#3399cc" d="M -0.5,399.5 C 212.833,399.5 426.167,399.5 639.5,399.5C 639.5,426.167 639.5,452.833 639.5,479.5C 426.167,479.5 212.833,479.5 -0.5,479.5C -0.5,452.833 -0.5,426.167 -0.5,399.5 Z"/></g>
</svg>
