<?xml version="1.0" encoding="UTF-8"?>
<!DOCTYPE svg PUBLIC "-//W3C//DTD SVG 1.1//EN" "http://www.w3.org/Graphics/SVG/1.1/DTD/svg11.dtd">
<svg xmlns="http://www.w3.org/2000/svg" version="1.1" width="640px" height="480px" style="shape-rendering:geometricPrecision; text-rendering:geometricPrecision; image-rendering:optimizeQuality; fill-rule:evenodd; clip-rule:evenodd" xmlns:xlink="http://www.w3.org/1999/xlink">
<g><path style="opacity:1" fill="#fdfcfd" d="M 0.5,-0.5 C 12.8333,-0.5 25.1667,-0.5 37.5,-0.5C 64.688,19.6909 91.8547,40.0243 119,60.5C 119.5,40.1694 119.667,19.8361 119.5,-0.5C 124.833,-0.5 130.167,-0.5 135.5,-0.5C 135.5,31.5 135.5,63.5 135.5,95.5C 90.1667,95.5 44.8333,95.5 -0.5,95.5C -0.5,90.1667 -0.5,84.8333 -0.5,79.5C 20.8359,79.6666 42.1693,79.5 63.5,79C 42.2892,62.9495 20.9559,47.1161 -0.5,31.5C -0.5,27.8333 -0.5,24.1667 -0.5,20.5C 25.3401,40.168 51.3401,59.668 77.5,79C 87.5,79.6667 97.5,79.6667 107.5,79C 71.6502,52.6367 35.9835,26.1367 0.5,-0.5 Z"/></g>
<g><path style="opacity:1" fill="#02018b" d="M 37.5,-0.5 C 64.8333,-0.5 92.1667,-0.5 119.5,-0.5C 119.667,19.8361 119.5,40.1694 119,60.5C 91.8547,40.0243 64.688,19.6909 37.5,-0.5 Z"/></g>
<g><path style="opacity:1" fill="#ff1107" d="M 135.5,-0.5 C 151.833,-0.5 168.167,-0.5 184.5,-0.5C 184.5,31.5 184.5,63.5 184.5,95.5C 229.5,95.5 274.5,95.5 319.5,95.5C 319.5,111.833 319.5,128.167 319.5,144.5C 274.5,144.5 229.5,144.5 184.5,144.5C 184.5,176.167 184.5,207.833 184.5,239.5C 168.167,239.5 151.833,239.5 135.5,239.5C 135.5,207.833 135.5,176.167 135.5,144.5C 90.1667,144.5 44.8333,144.5 -0.5,144.5C -0.5,128.167 -0.5,111.833 -0.5,95.5C 44.8333,95.5 90.1667,95.5 135.5,95.5C 135.5,63.5 135.5,31.5 135.5,-0.5 Z"/></g>
<g><path style="opacity:1" fill="#fdfbfd" d="M 184.5,-0.5 C 189.833,-0.5 195.167,-0.5 200.5,-0.5C 200.333,19.1695 200.5,38.8362 201,58.5C 227.351,38.9699 253.517,19.3033 279.5,-0.5C 284.167,-0.5 288.833,-0.5 293.5,-0.5C 262.312,23.0249 231.145,46.6916 200,70.5C 199.502,73.4816 199.335,76.4816 199.5,79.5C 205.176,79.6661 210.843,79.4994 216.5,79C 250.505,52.6713 284.838,26.838 319.5,1.5C 319.666,11.1724 319.5,20.8391 319,30.5C 297.59,46.7883 276.09,62.9549 254.5,79C 276.164,79.5 297.831,79.6666 319.5,79.5C 319.5,84.8333 319.5,90.1667 319.5,95.5C 274.5,95.5 229.5,95.5 184.5,95.5C 184.5,63.5 184.5,31.5 184.5,-0.5 Z"/></g>
<g><path style="opacity:1" fill="#02018b" d="M 200.5,-0.5 C 226.833,-0.5 253.167,-0.5 279.5,-0.5C 253.517,19.3033 227.351,38.9699 201,58.5C 200.5,38.8362 200.333,19.1695 200.5,-0.5 Z"/></g>
<g><path style="opacity:1" fill="#ff0c06" d="M 293.5,-0.5 C 302.167,-0.5 310.833,-0.5 319.5,-0.5C 319.5,0.166667 319.5,0.833333 319.5,1.5C 284.838,26.838 250.505,52.6713 216.5,79C 210.843,79.4994 205.176,79.6661 199.5,79.5C 199.335,76.4816 199.502,73.4816 200,70.5C 231.145,46.6916 262.312,23.0249 293.5,-0.5 Z"/></g>
<g><path style="opacity:1" fill="#00008b" d="M 319.5,-0.5 C 426.167,-0.5 532.833,-0.5 639.5,-0.5C 639.5,159.5 639.5,319.5 639.5,479.5C 426.167,479.5 212.833,479.5 -0.5,479.5C -0.5,399.5 -0.5,319.5 -0.5,239.5C -0.166667,239.5 0.166667,239.5 0.5,239.5C 9.5,239.5 18.5,239.5 27.5,239.5C 32.6278,239.888 37.6278,239.388 42.5,238C 67.7315,218.469 93.2315,199.302 119,180.5C 119.5,200.164 119.667,219.831 119.5,239.5C 124.833,239.5 130.167,239.5 135.5,239.5C 151.833,239.5 168.167,239.5 184.5,239.5C 189.5,239.5 194.5,239.5 199.5,239.5C 200.167,220.167 200.833,200.833 201.5,181.5C 227.137,200.658 252.804,219.824 278.5,239C 291.829,239.5 305.163,239.667 318.5,239.5C 319.491,233.021 319.824,226.354 319.5,219.5C 319.793,215.563 319.46,211.73 318.5,208C 296.655,192.244 274.989,176.244 253.5,160C 275.497,159.5 297.497,159.333 319.5,159.5C 319.5,154.5 319.5,149.5 319.5,144.5C 319.5,128.167 319.5,111.833 319.5,95.5C 319.5,90.1667 319.5,84.8333 319.5,79.5C 297.831,79.6666 276.164,79.5 254.5,79C 276.09,62.9549 297.59,46.7883 319,30.5C 319.5,20.8391 319.666,11.1724 319.5,1.5C 319.5,0.833333 319.5,0.166667 319.5,-0.5 Z"/></g>
<g><path style="opacity:1" fill="#ff0c06" d="M -0.5,-0.5 C -0.166667,-0.5 0.166667,-0.5 0.5,-0.5C 35.9835,26.1367 71.6502,52.6367 107.5,79C 97.5,79.6667 87.5,79.6667 77.5,79C 51.3401,59.668 25.3401,40.168 -0.5,20.5C -0.5,13.5 -0.5,6.5 -0.5,-0.5 Z"/></g>
<g><path style="opacity:1" fill="#03018b" d="M -0.5,31.5 C 20.9559,47.1161 42.2892,62.9495 63.5,79C 42.1693,79.5 20.8359,79.6666 -0.5,79.5C -0.5,63.5 -0.5,47.5 -0.5,31.5 Z"/></g>
<g><path style="opacity:1" fill="#f9f9fc" d="M 492.5,61.5 C 493.497,61.4701 494.164,61.9701 494.5,63C 496.112,68.5051 498.112,73.8385 500.5,79C 506.844,77.9987 513.011,76.1654 519,73.5C 516.421,79.3084 513.254,84.975 509.5,90.5C 514.391,94.8826 519.725,98.716 525.5,102C 518.93,103.526 512.264,104.36 505.5,104.5C 506.4,111.495 506.9,118.495 507,125.5C 502.319,120.651 497.485,115.985 492.5,111.5C 487.848,115.651 483.348,119.985 479,124.5C 478.611,117.825 478.778,111.159 479.5,104.5C 472.808,103.923 466.142,103.09 459.5,102C 464.833,98.6667 470.167,95.3333 475.5,92C 476.022,91.4387 476.355,90.772 476.5,90C 473.381,84.9313 470.381,79.7647 467.5,74.5C 467.833,74.1667 468.167,73.8333 468.5,73.5C 473.885,75.7953 479.385,77.7953 485,79.5C 488.558,74.0084 491.058,68.0084 492.5,61.5 Z"/></g>
<g><path style="opacity:1" fill="#fdfbfc" d="M -0.5,144.5 C 44.8333,144.5 90.1667,144.5 135.5,144.5C 135.5,176.167 135.5,207.833 135.5,239.5C 130.167,239.5 124.833,239.5 119.5,239.5C 119.667,219.831 119.5,200.164 119,180.5C 93.2315,199.302 67.7315,218.469 42.5,238C 37.6278,239.388 32.6278,239.888 27.5,239.5C 57.699,215.813 88.3657,192.646 119.5,170C 120.456,166.606 120.789,163.106 120.5,159.5C 115.041,159.103 109.708,159.603 104.5,161C 69.6492,187.03 34.9826,213.197 0.5,239.5C 0.166667,239.5 -0.166667,239.5 -0.5,239.5C -0.5,229.5 -0.5,219.5 -0.5,209.5C 21.623,193.217 43.623,176.717 65.5,160C 43.5025,159.5 21.5025,159.333 -0.5,159.5C -0.5,154.5 -0.5,149.5 -0.5,144.5 Z"/></g>
<g><path style="opacity:1" fill="#fefdfd" d="M 319.5,144.5 C 319.5,149.5 319.5,154.5 319.5,159.5C 297.497,159.333 275.497,159.5 253.5,160C 274.989,176.244 296.655,192.244 318.5,208C 319.46,211.73 319.793,215.563 319.5,219.5C 293.044,200.217 266.711,180.717 240.5,161C 230.934,159.387 221.267,159.053 211.5,160C 247.35,186.363 283.016,212.863 318.5,239.5C 305.163,239.667 291.829,239.5 278.5,239C 252.804,219.824 227.137,200.658 201.5,181.5C 201.44,180.957 201.107,180.624 200.5,180.5C 199.5,200.155 199.167,219.822 199.5,239.5C 194.5,239.5 189.5,239.5 184.5,239.5C 184.5,207.833 184.5,176.167 184.5,144.5C 229.5,144.5 274.5,144.5 319.5,144.5 Z"/></g>
<g><path style="opacity:1" fill="#f9f9fc" d="M 587.5,144.5 C 588.497,144.47 589.164,144.97 589.5,146C 591.436,152.032 593.77,157.866 596.5,163.5C 602.499,160.932 608.499,159.265 614.5,158.5C 611.619,163.765 608.619,168.931 605.5,174C 610.381,178.458 615.715,182.458 621.5,186C 614.87,187.163 608.204,187.996 601.5,188.5C 602.513,195.144 603.013,201.811 603,208.5C 598.018,204.352 593.184,200.019 588.5,195.5C 583.848,199.651 579.348,203.985 575,208.5C 574.454,201.816 574.62,195.149 575.5,188.5C 568.787,188.069 562.12,187.236 555.5,186C 561.55,182.649 567.216,178.815 572.5,174.5C 569.167,169.167 565.833,163.833 562.5,158.5C 562.833,158.167 563.167,157.833 563.5,157.5C 569.443,159.873 575.443,161.706 581.5,163C 584.007,156.98 586.007,150.813 587.5,144.5 Z"/></g>
<g><path style="opacity:1" fill="#03018b" d="M -0.5,159.5 C 21.5025,159.333 43.5025,159.5 65.5,160C 43.623,176.717 21.623,193.217 -0.5,209.5C -0.5,192.833 -0.5,176.167 -0.5,159.5 Z"/></g>
<g><path style="opacity:1" fill="#ff0c06" d="M 27.5,239.5 C 18.5,239.5 9.5,239.5 0.5,239.5C 34.9826,213.197 69.6492,187.03 104.5,161C 109.708,159.603 115.041,159.103 120.5,159.5C 120.789,163.106 120.456,166.606 119.5,170C 88.3657,192.646 57.699,215.813 27.5,239.5 Z"/></g>
<g><path style="opacity:1" fill="#ff0b06" d="M 319.5,219.5 C 319.824,226.354 319.491,233.021 318.5,239.5C 283.016,212.863 247.35,186.363 211.5,160C 221.267,159.053 230.934,159.387 240.5,161C 266.711,180.717 293.044,200.217 319.5,219.5 Z"/></g>
<g><path style="opacity:1" fill="#7f7fc4" d="M 201.5,181.5 C 200.833,200.833 200.167,220.167 199.5,239.5C 199.167,219.822 199.5,200.155 200.5,180.5C 201.107,180.624 201.44,180.957 201.5,181.5 Z"/></g>
<g><path style="opacity:1" fill="#f9f8fc" d="M 385.5,178.5 C 386.497,178.47 387.164,178.97 387.5,180C 389.483,185.445 391.15,190.945 392.5,196.5C 399.218,194.534 405.884,192.701 412.5,191C 408.91,196.182 405.577,201.515 402.5,207C 407.381,211.458 412.715,215.458 418.5,219C 411.864,219.952 405.197,220.452 398.5,220.5C 399.596,226.839 399.596,233.172 398.5,239.5C 394.167,235.5 389.833,231.5 385.5,227.5C 380.848,231.651 376.348,235.985 372,240.5C 371.729,233.788 372.229,227.122 373.5,220.5C 366.752,220.323 360.085,219.49 353.5,218C 359.167,214.333 364.833,210.667 370.5,207C 367.167,201.667 363.833,196.333 360.5,191C 366.557,192.294 372.557,194.127 378.5,196.5C 381.618,190.813 383.952,184.813 385.5,178.5 Z"/></g>
<g><path style="opacity:1" fill="#f7f6fb" d="M 533.5,244.5 C 534.376,244.369 535.043,244.702 535.5,245.5C 536.833,248.5 538.167,251.5 539.5,254.5C 543.81,255.592 548.143,256.592 552.5,257.5C 549.516,259.984 546.682,262.65 544,265.5C 544.44,269.812 544.773,274.145 545,278.5C 541.419,276.626 537.919,274.626 534.5,272.5C 530.871,274.3 527.371,276.3 524,278.5C 523.52,274.395 524.02,270.395 525.5,266.5C 522.806,263.14 519.806,260.14 516.5,257.5C 520.796,256.541 525.129,255.875 529.5,255.5C 530.548,251.736 531.881,248.069 533.5,244.5 Z"/></g>
<g><path style="opacity:1" fill="#fcfbfd" d="M 159.5,292.5 C 165.079,306.729 170.579,321.062 176,335.5C 189.982,330.172 204.148,325.672 218.5,322C 210.635,334.368 202.968,346.868 195.5,359.5C 207.735,368.555 220.401,377.055 233.5,385C 218.538,387.236 203.538,389.07 188.5,390.5C 189.635,405.869 190.801,421.203 192,436.5C 181.319,425.652 170.486,414.986 159.5,404.5C 148.818,415.016 137.985,425.349 127,435.5C 128.167,420.833 129.667,406.166 131.5,391.5C 130.975,390.808 130.308,390.308 129.5,390C 115.085,388.74 100.752,386.907 86.5,384.5C 99.1667,376.167 111.833,367.833 124.5,359.5C 116.698,346.534 108.698,333.701 100.5,321C 114.908,325.303 129.241,330.136 143.5,335.5C 149.231,321.307 154.564,306.974 159.5,292.5 Z"/></g>
<g><path style="opacity:1" fill="#f9f9fc" d="M 480.5,417.5 C 479.549,416.081 479.216,414.415 479.5,412.5C 479.998,407.848 480.331,403.181 480.5,398.5C 473.787,398.069 467.12,397.236 460.5,396C 466.337,392.582 472.004,388.916 477.5,385C 474.042,379.918 470.709,374.752 467.5,369.5C 473.661,369.877 479.661,371.543 485.5,374.5C 488.291,368.295 490.791,361.962 493,355.5C 495.66,361.311 497.826,367.311 499.5,373.5C 506.07,372.31 512.403,370.31 518.5,367.5C 518.833,367.833 519.167,368.167 519.5,368.5C 515.771,373.567 512.438,378.901 509.5,384.5C 514.619,388.566 519.952,392.4 525.5,396C 519.202,397.162 512.869,397.995 506.5,398.5C 507.353,404.856 507.353,411.19 506.5,417.5C 502.167,413.5 497.833,409.5 493.5,405.5C 489.146,409.522 484.813,413.522 480.5,417.5 Z"/></g>
<g><path style="opacity:1" fill="#8381c6" d="M 479.5,412.5 C 479.216,414.415 479.549,416.081 480.5,417.5C 480.217,418.289 479.717,418.956 479,419.5C 478.204,416.961 478.371,414.628 479.5,412.5 Z"/></g>
</svg>
