<?xml version="1.0" encoding="UTF-8"?>
<!DOCTYPE svg PUBLIC "-//W3C//DTD SVG 1.1//EN" "http://www.w3.org/Graphics/SVG/1.1/DTD/svg11.dtd">
<svg xmlns="http://www.w3.org/2000/svg" version="1.1" width="640px" height="480px" style="shape-rendering:geometricPrecision; text-rendering:geometricPrecision; image-rendering:optimizeQuality; fill-rule:evenodd; clip-rule:evenodd" xmlns:xlink="http://www.w3.org/1999/xlink">
<g><path style="opacity:1" fill="#00b8e3" d="M -0.5,-0.5 C 212.833,-0.5 426.167,-0.5 639.5,-0.5C 639.5,52.8333 639.5,106.167 639.5,159.5C 426.167,159.5 212.833,159.5 -0.5,159.5C -0.5,106.167 -0.5,52.8333 -0.5,-0.5 Z"/></g>
<g><path style="opacity:1" fill="#ed2939" d="M -0.5,159.5 C 212.833,159.5 426.167,159.5 639.5,159.5C 639.5,212.833 639.5,266.167 639.5,319.5C 426.167,319.5 212.833,319.5 -0.5,319.5C -0.5,266.167 -0.5,212.833 -0.5,159.5 Z"/></g>
<g><path style="opacity:1" fill="#fffbfc" d="M 292.5,167.5 C 317.696,165.173 339.029,173.006 356.5,191C 349.346,186.934 341.68,183.6 333.5,181C 299.084,175.955 275.251,189.455 262,221.5C 254.725,257.453 267.892,282.619 301.5,297C 312.085,299.861 322.751,300.194 333.5,298C 341.68,295.4 349.346,292.066 356.5,288C 333.359,311.154 306.359,317.154 275.5,306C 243.487,290.152 228.987,264.318 232,228.5C 239.681,195.653 259.848,175.319 292.5,167.5 Z"/></g>
<g><path style="opacity:1" fill="#fffbfb" d="M 382.5,200.5 C 386.49,206.434 389.156,213.1 390.5,220.5C 397.402,218.05 404.068,215.05 410.5,211.5C 410.833,211.833 411.167,212.167 411.5,212.5C 408.38,218.574 405.38,224.741 402.5,231C 402.905,231.945 403.572,232.612 404.5,233C 410.624,234.874 416.624,237.041 422.5,239.5C 415.954,242.237 409.288,244.571 402.5,246.5C 404.934,253.371 407.934,260.038 411.5,266.5C 411.167,266.833 410.833,267.167 410.5,267.5C 404.068,263.95 397.402,260.95 390.5,258.5C 388.765,265.038 386.431,271.372 383.5,277.5C 380.576,271.395 378.243,265.062 376.5,258.5C 369.598,260.95 362.932,263.95 356.5,267.5C 356.167,267.167 355.833,266.833 355.5,266.5C 359.066,260.038 362.066,253.371 364.5,246.5C 357.643,244.74 350.977,242.406 344.5,239.5C 350.977,236.594 357.643,234.26 364.5,232.5C 362.05,225.598 359.05,218.932 355.5,212.5C 355.833,212.167 356.167,211.833 356.5,211.5C 362.932,215.05 369.598,218.05 376.5,220.5C 378.302,213.763 380.302,207.096 382.5,200.5 Z"/></g>
<g><path style="opacity:1" fill="#3f9c34" d="M -0.5,319.5 C 212.833,319.5 426.167,319.5 639.5,319.5C 639.5,372.833 639.5,426.167 639.5,479.5C 426.167,479.5 212.833,479.5 -0.5,479.5C -0.5,426.167 -0.5,372.833 -0.5,319.5 Z"/></g>
</svg>
