<?xml version="1.0" encoding="UTF-8"?>
<!DOCTYPE svg PUBLIC "-//W3C//DTD SVG 1.1//EN" "http://www.w3.org/Graphics/SVG/1.1/DTD/svg11.dtd">
<svg xmlns="http://www.w3.org/2000/svg" version="1.1" width="640px" height="480px" style="shape-rendering:geometricPrecision; text-rendering:geometricPrecision; image-rendering:optimizeQuality; fill-rule:evenodd; clip-rule:evenodd" xmlns:xlink="http://www.w3.org/1999/xlink">
<g><path style="opacity:0.998" fill="#000000" d="M 0.5,-0.5 C 1.16667,-0.5 1.83333,-0.5 2.5,-0.5C 2.5,0.166667 2.83333,0.5 3.5,0.5C 91.6592,54.0815 179.993,107.415 268.5,160.5C 268.833,161.5 269.5,162.167 270.5,162.5C 310.806,186.989 351.139,211.489 391.5,236C 346.593,264.425 301.593,292.592 256.5,320.5C 174.861,370.656 93.1946,420.822 11.5,471C 7.33402,473.39 3.66735,476.223 0.5,479.5C 0.166667,479.5 -0.166667,479.5 -0.5,479.5C -0.5,334.5 -0.5,189.5 -0.5,44.5C 0.496109,29.676 0.829442,14.676 0.5,-0.5 Z"/></g>
<g><path style="opacity:1" fill="#13ced6" d="M 3.5,0.5 C 215.5,0.5 427.5,0.5 639.5,0.5C 639.5,53.8333 639.5,107.167 639.5,160.5C 515.833,160.5 392.167,160.5 268.5,160.5C 179.993,107.415 91.6592,54.0815 3.5,0.5 Z"/></g>
<g><path style="opacity:1" fill="#b3e040" d="M 268.5,160.5 C 392.167,160.5 515.833,160.5 639.5,160.5C 639.5,160.833 639.5,161.167 639.5,161.5C 516.332,161.167 393.332,161.5 270.5,162.5C 269.5,162.167 268.833,161.5 268.5,160.5 Z"/></g>
<g><path style="opacity:1" fill="#fee802" d="M 270.5,162.5 C 393.332,161.5 516.332,161.167 639.5,161.5C 639.5,214.5 639.5,267.5 639.5,320.5C 511.833,320.5 384.167,320.5 256.5,320.5C 301.593,292.592 346.593,264.425 391.5,236C 351.139,211.489 310.806,186.989 270.5,162.5 Z"/></g>
<g><path style="opacity:1" fill="#08cdd5" d="M 256.5,320.5 C 384.167,320.5 511.833,320.5 639.5,320.5C 639.5,373.5 639.5,426.5 639.5,479.5C 426.5,479.5 213.5,479.5 0.5,479.5C 3.66735,476.223 7.33402,473.39 11.5,471C 93.1946,420.822 174.861,370.656 256.5,320.5 Z"/></g>
</svg>
