<?xml version="1.0" encoding="UTF-8"?>
<!DOCTYPE svg PUBLIC "-//W3C//DTD SVG 1.1//EN" "http://www.w3.org/Graphics/SVG/1.1/DTD/svg11.dtd">
<svg xmlns="http://www.w3.org/2000/svg" version="1.1" width="640px" height="480px" style="shape-rendering:geometricPrecision; text-rendering:geometricPrecision; image-rendering:optimizeQuality; fill-rule:evenodd; clip-rule:evenodd" xmlns:xlink="http://www.w3.org/1999/xlink">
<g><path style="opacity:1" fill="#fefefe" d="M -0.5,-0.5 C 31.8333,-0.5 64.1667,-0.5 96.5,-0.5C 132.635,15.7292 168.968,31.7292 205.5,47.5C 169.028,63.2374 132.694,79.2374 96.5,95.5C 132.694,111.763 169.028,127.763 205.5,143.5C 169.028,159.237 132.694,175.237 96.5,191.5C 132.694,207.763 169.028,223.763 205.5,239.5C 169.028,255.237 132.694,271.237 96.5,287.5C 132.694,303.763 169.028,319.763 205.5,335.5C 169.028,351.237 132.694,367.237 96.5,383.5C 132.694,399.763 169.028,415.763 205.5,431.5C 168.968,447.271 132.635,463.271 96.5,479.5C 64.1667,479.5 31.8333,479.5 -0.5,479.5C -0.5,319.5 -0.5,159.5 -0.5,-0.5 Z"/></g>
<g><path style="opacity:1" fill="#ce1126" d="M 96.5,-0.5 C 277.5,-0.5 458.5,-0.5 639.5,-0.5C 639.5,159.5 639.5,319.5 639.5,479.5C 458.5,479.5 277.5,479.5 96.5,479.5C 132.635,463.271 168.968,447.271 205.5,431.5C 169.028,415.763 132.694,399.763 96.5,383.5C 132.694,367.237 169.028,351.237 205.5,335.5C 169.028,319.763 132.694,303.763 96.5,287.5C 132.694,271.237 169.028,255.237 205.5,239.5C 169.028,223.763 132.694,207.763 96.5,191.5C 132.694,175.237 169.028,159.237 205.5,143.5C 169.028,127.763 132.694,111.763 96.5,95.5C 132.694,79.2374 169.028,63.2374 205.5,47.5C 168.968,31.7292 132.635,15.7292 96.5,-0.5 Z"/></g>
</svg>
