<?xml version="1.0" encoding="UTF-8"?>
<!DOCTYPE svg PUBLIC "-//W3C//DTD SVG 1.1//EN" "http://www.w3.org/Graphics/SVG/1.1/DTD/svg11.dtd">
<svg xmlns="http://www.w3.org/2000/svg" version="1.1" width="640px" height="480px" style="shape-rendering:geometricPrecision; text-rendering:geometricPrecision; image-rendering:optimizeQuality; fill-rule:evenodd; clip-rule:evenodd" xmlns:xlink="http://www.w3.org/1999/xlink">
<g><path style="opacity:1" fill="#00694d" d="M -0.5,-0.5 C 212.833,-0.5 426.167,-0.5 639.5,-0.5C 639.5,159.5 639.5,319.5 639.5,479.5C 426.167,479.5 212.833,479.5 -0.5,479.5C -0.5,319.5 -0.5,159.5 -0.5,-0.5 Z"/></g>
<g><path style="opacity:1" fill="#f32a41" d="M 264.5,79.5 C 333.05,76.6812 384.883,104.348 420,162.5C 445.565,212.965 445.899,263.632 421,314.5C 392.308,365.136 348.808,393.303 290.5,399C 219.891,400.626 168.057,370.46 135,308.5C 108.893,247.27 115.893,190.27 156,137.5C 184.606,104.112 220.773,84.7789 264.5,79.5 Z"/></g>
</svg>
