<?xml version="1.0" encoding="UTF-8"?>
<!DOCTYPE svg PUBLIC "-//W3C//DTD SVG 1.1//EN" "http://www.w3.org/Graphics/SVG/1.1/DTD/svg11.dtd">
<svg xmlns="http://www.w3.org/2000/svg" version="1.1" width="640px" height="480px" style="shape-rendering:geometricPrecision; text-rendering:geometricPrecision; image-rendering:optimizeQuality; fill-rule:evenodd; clip-rule:evenodd" xmlns:xlink="http://www.w3.org/1999/xlink">
<g><path style="opacity:1" fill="#00257f" d="M -0.5,-0.5 C 70.5,-0.5 141.5,-0.5 212.5,-0.5C 212.5,159.5 212.5,319.5 212.5,479.5C 141.5,479.5 70.5,479.5 -0.5,479.5C -0.5,319.5 -0.5,159.5 -0.5,-0.5 Z"/></g>
<g><path style="opacity:1" fill="#fdc626" d="M 212.5,-0.5 C 283.833,-0.5 355.167,-0.5 426.5,-0.5C 426.5,159.5 426.5,319.5 426.5,479.5C 355.167,479.5 283.833,479.5 212.5,479.5C 212.5,319.5 212.5,159.5 212.5,-0.5 Z"/></g>
<g><path style="opacity:1" fill="#00257f" d="M 426.5,-0.5 C 497.5,-0.5 568.5,-0.5 639.5,-0.5C 639.5,159.5 639.5,319.5 639.5,479.5C 568.5,479.5 497.5,479.5 426.5,479.5C 426.5,319.5 426.5,159.5 426.5,-0.5 Z"/></g>
<g><path style="opacity:1" fill="#030200" d="M 335.5,186.5 C 333.735,185.539 331.735,185.205 329.5,185.5C 329.169,212.339 329.502,239.005 330.5,265.5C 338.075,267.153 345.741,268.153 353.5,268.5C 355.782,240.04 362.449,212.707 373.5,186.5C 370.043,186.758 366.71,187.258 363.5,188C 376.598,174.817 392.265,167.317 410.5,165.5C 392.218,192.739 379.385,222.405 372,254.5C 369.843,266.407 368.676,278.407 368.5,290.5C 355.773,289.326 343.107,287.659 330.5,285.5C 330.5,304.167 330.5,322.833 330.5,341.5C 323.167,341.5 315.833,341.5 308.5,341.5C 308.5,322.833 308.5,304.167 308.5,285.5C 305.615,285.194 302.948,285.527 300.5,286.5C 290.182,287.942 279.849,289.275 269.5,290.5C 268.444,246.167 255.278,205.834 230,169.5C 228.991,167.975 228.491,166.308 228.5,164.5C 245.847,167.424 261.013,174.757 274,186.5C 274.591,187.483 274.257,188.15 273,188.5C 270.567,187.521 268.067,186.855 265.5,186.5C 273.031,206.635 278.864,227.302 283,248.5C 284.052,255.128 284.552,261.794 284.5,268.5C 292.213,267.829 299.879,266.829 307.5,265.5C 308.498,239.005 308.831,212.339 308.5,185.5C 305.941,185.198 303.607,185.532 301.5,186.5C 297.682,186.584 294.015,187.084 290.5,188C 295.046,183.123 299.213,177.956 303,172.5C 309.306,160.579 314.64,148.245 319,135.5C 323.549,147.799 328.882,159.799 335,171.5C 338.56,177.449 342.726,182.949 347.5,188C 343.622,187.208 339.622,186.708 335.5,186.5 Z"/></g>
<g><path style="opacity:1" fill="#c5991d" d="M 301.5,186.5 C 303.607,185.532 305.941,185.198 308.5,185.5C 308.831,212.339 308.498,239.005 307.5,265.5C 307.5,239.167 307.5,212.833 307.5,186.5C 305.5,186.5 303.5,186.5 301.5,186.5 Z"/></g>
<g><path style="opacity:1" fill="#4f3d0b" d="M 335.5,186.5 C 333.833,186.5 332.167,186.5 330.5,186.5C 330.5,212.833 330.5,239.167 330.5,265.5C 329.502,239.005 329.169,212.339 329.5,185.5C 331.735,185.205 333.735,185.539 335.5,186.5 Z"/></g>
<g><path style="opacity:1" fill="#c79b1d" d="M 300.5,286.5 C 302.948,285.527 305.615,285.194 308.5,285.5C 308.5,304.167 308.5,322.833 308.5,341.5C 307.503,323.341 307.17,305.008 307.5,286.5C 305.167,286.5 302.833,286.5 300.5,286.5 Z"/></g>
</svg>
