<?xml version="1.0" encoding="UTF-8"?>
<!DOCTYPE svg PUBLIC "-//W3C//DTD SVG 1.1//EN" "http://www.w3.org/Graphics/SVG/1.1/DTD/svg11.dtd">
<svg xmlns="http://www.w3.org/2000/svg" version="1.1" width="640px" height="480px" style="shape-rendering:geometricPrecision; text-rendering:geometricPrecision; image-rendering:optimizeQuality; fill-rule:evenodd; clip-rule:evenodd" xmlns:xlink="http://www.w3.org/1999/xlink">
<g><path style="opacity:1" fill="#fefcfc" d="M -0.5,-0.5 C 7.83333,-0.5 16.1667,-0.5 24.5,-0.5C 24.5,2.16667 24.5,4.83333 24.5,7.5C 22.8333,7.5 21.1667,7.5 19.5,7.5C 19.5,10.1667 19.5,12.8333 19.5,15.5C 17.8333,15.5 16.1667,15.5 14.5,15.5C 14.5,18.1667 14.5,20.8333 14.5,23.5C 12.8333,23.5 11.1667,23.5 9.5,23.5C 9.5,26.5 9.5,29.5 9.5,32.5C 7.83333,32.5 6.16667,32.5 4.5,32.5C 4.5,35.1667 4.5,37.8333 4.5,40.5C 2.83333,40.5 1.16667,40.5 -0.5,40.5C -0.5,26.8333 -0.5,13.1667 -0.5,-0.5 Z"/></g>
<g><path style="opacity:1" fill="#fdf9f9" d="M 80.5,-0.5 C 88.8333,-0.5 97.1667,-0.5 105.5,-0.5C 105.5,13.1667 105.5,26.8333 105.5,40.5C 103.833,40.5 102.167,40.5 100.5,40.5C 100.5,37.8333 100.5,35.1667 100.5,32.5C 98.8333,32.5 97.1667,32.5 95.5,32.5C 95.5,29.5 95.5,26.5 95.5,23.5C 93.8333,23.5 92.1667,23.5 90.5,23.5C 90.5,20.8333 90.5,18.1667 90.5,15.5C 88.8333,15.5 87.1667,15.5 85.5,15.5C 85.5,12.8333 85.5,10.1667 85.5,7.5C 83.8333,7.5 82.1667,7.5 80.5,7.5C 80.5,4.83333 80.5,2.16667 80.5,-0.5 Z"/></g>
<g><path style="opacity:1" fill="#b10000" d="M 106.5,-0.5 C 284.167,-0.5 461.833,-0.5 639.5,-0.5C 639.5,105.833 639.5,212.167 639.5,318.5C 461.833,318.5 284.167,318.5 106.5,318.5C 106.5,301.833 106.5,285.167 106.5,268.5C 106.5,249.167 106.5,229.833 106.5,210.5C 106.5,205.167 106.5,199.833 106.5,194.5C 106.5,129.5 106.5,64.5 106.5,-0.5 Z"/></g>
<g><path style="opacity:1" fill="#b30605" d="M 4.5,7.5 C 6.16667,7.5 7.83333,7.5 9.5,7.5C 9.5,10.1667 9.5,12.8333 9.5,15.5C 7.83333,15.5 6.16667,15.5 4.5,15.5C 4.5,12.8333 4.5,10.1667 4.5,7.5 Z"/></g>
<g><path style="opacity:1" fill="#b5120d" d="M 95.5,7.5 C 97.1667,7.5 98.8333,7.5 100.5,7.5C 100.5,10.1667 100.5,12.8333 100.5,15.5C 98.8333,15.5 97.1667,15.5 95.5,15.5C 95.5,12.8333 95.5,10.1667 95.5,7.5 Z"/></g>
<g><path style="opacity:1" fill="#fdf9f9" d="M -0.5,48.5 C 1.16667,48.5 2.83333,48.5 4.5,48.5C 4.5,51.1667 4.5,53.8333 4.5,56.5C 6.16667,56.5 7.83333,56.5 9.5,56.5C 9.5,59.1667 9.5,61.8333 9.5,64.5C 11.1667,64.5 12.8333,64.5 14.5,64.5C 14.5,67.1667 14.5,69.8333 14.5,72.5C 16.1667,72.5 17.8333,72.5 19.5,72.5C 19.5,75.5 19.5,78.5 19.5,81.5C 21.1667,81.5 22.8333,81.5 24.5,81.5C 24.5,84.1667 24.5,86.8333 24.5,89.5C 26.4147,89.7845 28.0813,89.4511 29.5,88.5C 30.4682,86.3926 30.8016,84.0593 30.5,81.5C 32.099,81.7678 33.4324,81.4345 34.5,80.5C 34.5,77.8333 34.5,75.1667 34.5,72.5C 36.5,72.5 38.5,72.5 40.5,72.5C 40.5,69.8333 40.5,67.1667 40.5,64.5C 42.1667,64.5 43.8333,64.5 45.5,64.5C 45.5,61.8333 45.5,59.1667 45.5,56.5C 47.1667,56.5 48.8333,56.5 50.5,56.5C 50.5,53.8333 50.5,51.1667 50.5,48.5C 52.1667,48.5 53.8333,48.5 55.5,48.5C 55.5,51.1667 55.5,53.8333 55.5,56.5C 57.1667,56.5 58.8333,56.5 60.5,56.5C 60.5,59.1667 60.5,61.8333 60.5,64.5C 62.1667,64.5 63.8333,64.5 65.5,64.5C 65.5,67.1667 65.5,69.8333 65.5,72.5C 67.1667,72.5 68.8333,72.5 70.5,72.5C 70.5,75.1667 70.5,77.8333 70.5,80.5C 72.1667,80.5 73.8333,80.5 75.5,80.5C 75.5,83.5 75.5,86.5 75.5,89.5C 77.1667,89.5 78.8333,89.5 80.5,89.5C 80.5,86.5 80.5,83.5 80.5,80.5C 82.1667,80.5 83.8333,80.5 85.5,80.5C 85.5,77.8333 85.5,75.1667 85.5,72.5C 87.1667,72.5 88.8333,72.5 90.5,72.5C 90.5,69.8333 90.5,67.1667 90.5,64.5C 92.1667,64.5 93.8333,64.5 95.5,64.5C 95.5,61.8333 95.5,59.1667 95.5,56.5C 97.1667,56.5 98.8333,56.5 100.5,56.5C 100.5,53.8333 100.5,51.1667 100.5,48.5C 102.167,48.5 103.833,48.5 105.5,48.5C 105.5,56.5 105.5,64.5 105.5,72.5C 103.833,72.5 102.167,72.5 100.5,72.5C 100.5,75.1667 100.5,77.8333 100.5,80.5C 102.167,80.5 103.833,80.5 105.5,80.5C 105.5,85.8333 105.5,91.1667 105.5,96.5C 104.167,96.5 102.833,96.5 101.5,96.5C 101.802,93.9407 101.468,91.6074 100.5,89.5C 98.8333,89.5 97.1667,89.5 95.5,89.5C 95.5,86.5 95.5,83.5 95.5,80.5C 93.8333,80.5 92.1667,80.5 90.5,80.5C 90.5,83.5 90.5,86.5 90.5,89.5C 88.8333,89.5 87.1667,89.5 85.5,89.5C 85.5,92.1667 85.5,94.8333 85.5,97.5C 83.8333,97.5 82.1667,97.5 80.5,97.5C 80.5,100.167 80.5,102.833 80.5,105.5C 82.1667,105.5 83.8333,105.5 85.5,105.5C 85.5,108.167 85.5,110.833 85.5,113.5C 87.1667,113.5 88.8333,113.5 90.5,113.5C 90.5,116.167 90.5,118.833 90.5,121.5C 92.1667,121.5 93.8333,121.5 95.5,121.5C 95.5,118.833 95.5,116.167 95.5,113.5C 97.1667,113.5 98.8333,113.5 100.5,113.5C 100.5,110.833 100.5,108.167 100.5,105.5C 102.167,105.5 103.833,105.5 105.5,105.5C 105.5,110.833 105.5,116.167 105.5,121.5C 103.833,121.5 102.167,121.5 100.5,121.5C 100.5,124.167 100.5,126.833 100.5,129.5C 102.167,129.5 103.833,129.5 105.5,129.5C 105.5,137.833 105.5,146.167 105.5,154.5C 103.585,154.784 101.919,154.451 100.5,153.5C 100.5,151.167 100.5,148.833 100.5,146.5C 99.0813,145.549 97.4147,145.216 95.5,145.5C 95.5,142.833 95.5,140.167 95.5,137.5C 93.8333,137.5 92.1667,137.5 90.5,137.5C 90.5,134.833 90.5,132.167 90.5,129.5C 88.8333,129.5 87.1667,129.5 85.5,129.5C 85.5,126.833 85.5,124.167 85.5,121.5C 83.8333,121.5 82.1667,121.5 80.5,121.5C 80.5,118.833 80.5,116.167 80.5,113.5C 78.8333,113.5 77.1667,113.5 75.5,113.5C 75.5,116.167 75.5,118.833 75.5,121.5C 73.8333,121.5 72.1667,121.5 70.5,121.5C 70.5,124.167 70.5,126.833 70.5,129.5C 68.8333,129.5 67.1667,129.5 65.5,129.5C 65.5,132.167 65.5,134.833 65.5,137.5C 63.8333,137.5 62.1667,137.5 60.5,137.5C 60.5,140.167 60.5,142.833 60.5,145.5C 58.5853,145.216 56.9187,145.549 55.5,146.5C 55.5,148.833 55.5,151.167 55.5,153.5C 55.5,153.833 55.5,154.167 55.5,154.5C 53.8333,154.5 52.1667,154.5 50.5,154.5C 50.5,151.5 50.5,148.5 50.5,145.5C 48.8333,145.5 47.1667,145.5 45.5,145.5C 45.5,142.833 45.5,140.167 45.5,137.5C 43.8333,137.5 42.1667,137.5 40.5,137.5C 39.5269,135.052 39.1936,132.385 39.5,129.5C 37.8333,129.5 36.1667,129.5 34.5,129.5C 34.5,126.833 34.5,124.167 34.5,121.5C 32.8333,121.5 31.1667,121.5 29.5,121.5C 29.5,118.833 29.5,116.167 29.5,113.5C 27.8333,113.5 26.1667,113.5 24.5,113.5C 24.5,116.167 24.5,118.833 24.5,121.5C 22.8333,121.5 21.1667,121.5 19.5,121.5C 19.5,124.167 19.5,126.833 19.5,129.5C 17.8333,129.5 16.1667,129.5 14.5,129.5C 14.5,132.167 14.5,134.833 14.5,137.5C 12.8333,137.5 11.1667,137.5 9.5,137.5C 9.5,140.167 9.5,142.833 9.5,145.5C 7.58533,145.216 5.91866,145.549 4.5,146.5C 4.5,148.833 4.5,151.167 4.5,153.5C 2.83333,153.5 1.16667,153.5 -0.5,153.5C -0.5,145.5 -0.5,137.5 -0.5,129.5C 1.16667,129.5 2.83333,129.5 4.5,129.5C 4.5,126.833 4.5,124.167 4.5,121.5C 2.83333,121.5 1.16667,121.5 -0.5,121.5C -0.5,116.167 -0.5,110.833 -0.5,105.5C 1.16667,105.5 2.83333,105.5 4.5,105.5C 4.5,108.167 4.5,110.833 4.5,113.5C 6.16667,113.5 7.83333,113.5 9.5,113.5C 9.5,116.167 9.5,118.833 9.5,121.5C 11.1667,121.5 12.8333,121.5 14.5,121.5C 14.5,118.833 14.5,116.167 14.5,113.5C 16.1667,113.5 17.8333,113.5 19.5,113.5C 19.5,110.833 19.5,108.167 19.5,105.5C 21.1667,105.5 22.8333,105.5 24.5,105.5C 24.5,102.833 24.5,100.167 24.5,97.5C 22.8333,97.5 21.1667,97.5 19.5,97.5C 19.5,94.8333 19.5,92.1667 19.5,89.5C 18.0813,88.5489 16.4147,88.2155 14.5,88.5C 14.5,86.1667 14.5,83.8333 14.5,81.5C 13.0813,80.5489 11.4147,80.2155 9.5,80.5C 9.5,83.1667 9.5,85.8333 9.5,88.5C 7.83333,88.5 6.16667,88.5 4.5,88.5C 4.5,91.1667 4.5,93.8333 4.5,96.5C 2.83333,96.5 1.16667,96.5 -0.5,96.5C -0.5,91.1667 -0.5,85.8333 -0.5,80.5C 1.16667,80.5 2.83333,80.5 4.5,80.5C 4.5,77.8333 4.5,75.1667 4.5,72.5C 2.83333,72.5 1.16667,72.5 -0.5,72.5C -0.5,64.5 -0.5,56.5 -0.5,48.5 Z"/></g>
<g><path style="opacity:1" fill="#b40c06" d="M 24.5,-0.5 C 26.1667,-0.5 27.8333,-0.5 29.5,-0.5C 29.5,2.16667 29.5,4.83333 29.5,7.5C 31.1667,7.5 32.8333,7.5 34.5,7.5C 34.5,10.5 34.5,13.5 34.5,16.5C 36.1667,16.5 37.8333,16.5 39.5,16.5C 39.1984,19.0593 39.5318,21.3926 40.5,23.5C 41.5676,24.4345 42.901,24.7678 44.5,24.5C 44.1984,27.0593 44.5318,29.3926 45.5,31.5C 46.5676,32.4345 47.901,32.7678 49.5,32.5C 49.5,34.8333 49.5,37.1667 49.5,39.5C 46.5,39.5 43.5,39.5 40.5,39.5C 40.8016,36.9407 40.4682,34.6074 39.5,32.5C 38.4324,31.5655 37.099,31.2322 35.5,31.5C 35.5,28.8333 35.5,26.1667 35.5,23.5C 33.8333,23.5 32.1667,23.5 30.5,23.5C 30.5,20.8333 30.5,18.1667 30.5,15.5C 28.5,15.5 26.5,15.5 24.5,15.5C 24.5,18.1667 24.5,20.8333 24.5,23.5C 22.8333,23.5 21.1667,23.5 19.5,23.5C 19.5,26.1667 19.5,28.8333 19.5,31.5C 17.8333,31.5 16.1667,31.5 14.5,31.5C 14.5,34.5 14.5,37.5 14.5,40.5C 12.8333,40.5 11.1667,40.5 9.5,40.5C 9.5,43.1667 9.5,45.8333 9.5,48.5C 11.1667,48.5 12.8333,48.5 14.5,48.5C 14.5,51.1667 14.5,53.8333 14.5,56.5C 16.1667,56.5 17.8333,56.5 19.5,56.5C 19.5,59.1667 19.5,61.8333 19.5,64.5C 21.1667,64.5 22.8333,64.5 24.5,64.5C 24.5,67.1667 24.5,69.8333 24.5,72.5C 26.1667,72.5 27.8333,72.5 29.5,72.5C 29.5,69.8333 29.5,67.1667 29.5,64.5C 31.1667,64.5 32.8333,64.5 34.5,64.5C 34.5,61.8333 34.5,59.1667 34.5,56.5C 36.5,56.5 38.5,56.5 40.5,56.5C 40.5,53.8333 40.5,51.1667 40.5,48.5C 41.8333,48.5 43.1667,48.5 44.5,48.5C 45.4731,46.0521 45.8064,43.3854 45.5,40.5C 47.1667,40.5 48.8333,40.5 50.5,40.5C 52.1667,40.5 53.8333,40.5 55.5,40.5C 55.5,37.8333 55.5,35.1667 55.5,32.5C 57.1667,32.5 58.8333,32.5 60.5,32.5C 60.5,29.5 60.5,26.5 60.5,23.5C 62.1667,23.5 63.8333,23.5 65.5,23.5C 65.5,20.8333 65.5,18.1667 65.5,15.5C 67.1667,15.5 68.8333,15.5 70.5,15.5C 70.5,12.8333 70.5,10.1667 70.5,7.5C 72.1667,7.5 73.8333,7.5 75.5,7.5C 75.5,4.83333 75.5,2.16667 75.5,-0.5C 77.1667,-0.5 78.8333,-0.5 80.5,-0.5C 80.5,2.16667 80.5,4.83333 80.5,7.5C 82.1667,7.5 83.8333,7.5 85.5,7.5C 85.5,10.1667 85.5,12.8333 85.5,15.5C 87.1667,15.5 88.8333,15.5 90.5,15.5C 90.5,18.1667 90.5,20.8333 90.5,23.5C 92.1667,23.5 93.8333,23.5 95.5,23.5C 95.5,26.5 95.5,29.5 95.5,32.5C 97.1667,32.5 98.8333,32.5 100.5,32.5C 100.5,35.1667 100.5,37.8333 100.5,40.5C 102.167,40.5 103.833,40.5 105.5,40.5C 105.5,42.8333 105.5,45.1667 105.5,47.5C 103.585,47.2155 101.919,47.5489 100.5,48.5C 100.5,51.1667 100.5,53.8333 100.5,56.5C 98.8333,56.5 97.1667,56.5 95.5,56.5C 95.5,59.1667 95.5,61.8333 95.5,64.5C 93.8333,64.5 92.1667,64.5 90.5,64.5C 90.5,67.1667 90.5,69.8333 90.5,72.5C 88.8333,72.5 87.1667,72.5 85.5,72.5C 85.5,75.1667 85.5,77.8333 85.5,80.5C 83.8333,80.5 82.1667,80.5 80.5,80.5C 80.5,83.5 80.5,86.5 80.5,89.5C 78.8333,89.5 77.1667,89.5 75.5,89.5C 75.5,86.5 75.5,83.5 75.5,80.5C 73.8333,80.5 72.1667,80.5 70.5,80.5C 70.5,77.8333 70.5,75.1667 70.5,72.5C 68.8333,72.5 67.1667,72.5 65.5,72.5C 65.5,69.8333 65.5,67.1667 65.5,64.5C 63.8333,64.5 62.1667,64.5 60.5,64.5C 60.5,61.8333 60.5,59.1667 60.5,56.5C 58.8333,56.5 57.1667,56.5 55.5,56.5C 55.5,53.8333 55.5,51.1667 55.5,48.5C 53.8333,48.5 52.1667,48.5 50.5,48.5C 50.5,51.1667 50.5,53.8333 50.5,56.5C 48.8333,56.5 47.1667,56.5 45.5,56.5C 45.5,59.1667 45.5,61.8333 45.5,64.5C 43.8333,64.5 42.1667,64.5 40.5,64.5C 40.5,67.1667 40.5,69.8333 40.5,72.5C 38.5,72.5 36.5,72.5 34.5,72.5C 34.5,75.1667 34.5,77.8333 34.5,80.5C 29.8333,80.5 25.1667,80.5 20.5,80.5C 20.8064,77.6146 20.4731,74.9479 19.5,72.5C 17.8333,72.5 16.1667,72.5 14.5,72.5C 14.5,69.8333 14.5,67.1667 14.5,64.5C 12.8333,64.5 11.1667,64.5 9.5,64.5C 9.5,61.8333 9.5,59.1667 9.5,56.5C 7.83333,56.5 6.16667,56.5 4.5,56.5C 4.5,53.8333 4.5,51.1667 4.5,48.5C 2.83333,48.5 1.16667,48.5 -0.5,48.5C -0.5,45.8333 -0.5,43.1667 -0.5,40.5C 1.16667,40.5 2.83333,40.5 4.5,40.5C 4.5,37.8333 4.5,35.1667 4.5,32.5C 6.16667,32.5 7.83333,32.5 9.5,32.5C 9.5,29.5 9.5,26.5 9.5,23.5C 11.1667,23.5 12.8333,23.5 14.5,23.5C 14.5,20.8333 14.5,18.1667 14.5,15.5C 16.1667,15.5 17.8333,15.5 19.5,15.5C 19.5,12.8333 19.5,10.1667 19.5,7.5C 21.1667,7.5 22.8333,7.5 24.5,7.5C 24.5,4.83333 24.5,2.16667 24.5,-0.5 Z"/></g>
<g><path style="opacity:1" fill="#d16663" d="M 45.5,31.5 C 47.1667,31.5 48.8333,31.5 50.5,31.5C 50.5,34.5 50.5,37.5 50.5,40.5C 48.8333,40.5 47.1667,40.5 45.5,40.5C 45.8064,43.3854 45.4731,46.0521 44.5,48.5C 44.5,45.8333 44.5,43.1667 44.5,40.5C 42.8333,40.5 41.1667,40.5 39.5,40.5C 39.5,37.8333 39.5,35.1667 39.5,32.5C 40.4682,34.6074 40.8016,36.9407 40.5,39.5C 43.5,39.5 46.5,39.5 49.5,39.5C 49.5,37.1667 49.5,34.8333 49.5,32.5C 47.901,32.7678 46.5676,32.4345 45.5,31.5 Z"/></g>
<g><path style="opacity:1" fill="#d36f6e" d="M 40.5,23.5 C 42.1667,23.5 43.8333,23.5 45.5,23.5C 45.5,26.1667 45.5,28.8333 45.5,31.5C 44.5318,29.3926 44.1984,27.0593 44.5,24.5C 42.901,24.7678 41.5676,24.4345 40.5,23.5 Z"/></g>
<g><path style="opacity:1" fill="#d87c7a" d="M 39.5,32.5 C 37.8333,32.5 36.1667,32.5 34.5,32.5C 34.5,29.8333 34.5,27.1667 34.5,24.5C 32.8333,24.5 31.1667,24.5 29.5,24.5C 29.5,21.8333 29.5,19.1667 29.5,16.5C 28.1667,16.5 26.8333,16.5 25.5,16.5C 25.8016,19.0593 25.4682,21.3926 24.5,23.5C 24.5,20.8333 24.5,18.1667 24.5,15.5C 26.5,15.5 28.5,15.5 30.5,15.5C 30.5,18.1667 30.5,20.8333 30.5,23.5C 32.1667,23.5 33.8333,23.5 35.5,23.5C 35.5,26.1667 35.5,28.8333 35.5,31.5C 37.099,31.2322 38.4324,31.5655 39.5,32.5 Z"/></g>
<g><path style="opacity:1" fill="#e8b1b0" d="M 24.5,23.5 C 23.4324,24.4345 22.099,24.7678 20.5,24.5C 20.5,27.1667 20.5,29.8333 20.5,32.5C 18.8333,32.5 17.1667,32.5 15.5,32.5C 15.8064,35.3854 15.4731,38.0521 14.5,40.5C 14.5,37.5 14.5,34.5 14.5,31.5C 16.1667,31.5 17.8333,31.5 19.5,31.5C 19.5,28.8333 19.5,26.1667 19.5,23.5C 21.1667,23.5 22.8333,23.5 24.5,23.5 Z"/></g>
<g><path style="opacity:1" fill="#fefcfc" d="M 75.5,15.5 C 77.1667,15.5 78.8333,15.5 80.5,15.5C 80.5,18.1667 80.5,20.8333 80.5,23.5C 82.1667,23.5 83.8333,23.5 85.5,23.5C 85.5,26.5 85.5,29.5 85.5,32.5C 87.1667,32.5 88.8333,32.5 90.5,32.5C 90.5,35.1667 90.5,37.8333 90.5,40.5C 92.1667,40.5 93.8333,40.5 95.5,40.5C 95.5,43.1667 95.5,45.8333 95.5,48.5C 93.8333,48.5 92.1667,48.5 90.5,48.5C 90.5,51.1667 90.5,53.8333 90.5,56.5C 88.8333,56.5 87.1667,56.5 85.5,56.5C 85.5,59.1667 85.5,61.8333 85.5,64.5C 83.8333,64.5 82.1667,64.5 80.5,64.5C 80.5,67.1667 80.5,69.8333 80.5,72.5C 78.8333,72.5 77.1667,72.5 75.5,72.5C 75.5,69.8333 75.5,67.1667 75.5,64.5C 73.8333,64.5 72.1667,64.5 70.5,64.5C 70.5,61.8333 70.5,59.1667 70.5,56.5C 68.8333,56.5 67.1667,56.5 65.5,56.5C 65.5,53.8333 65.5,51.1667 65.5,48.5C 63.8333,48.5 62.1667,48.5 60.5,48.5C 60.5,45.8333 60.5,43.1667 60.5,40.5C 62.1667,40.5 63.8333,40.5 65.5,40.5C 65.5,37.8333 65.5,35.1667 65.5,32.5C 67.1667,32.5 68.8333,32.5 70.5,32.5C 70.5,29.5 70.5,26.5 70.5,23.5C 72.1667,23.5 73.8333,23.5 75.5,23.5C 75.5,20.8333 75.5,18.1667 75.5,15.5 Z"/></g>
<g><path style="opacity:1" fill="#b30604" d="M 75.5,40.5 C 77.1667,40.5 78.8333,40.5 80.5,40.5C 80.5,43.1667 80.5,45.8333 80.5,48.5C 78.8333,48.5 77.1667,48.5 75.5,48.5C 75.5,45.8333 75.5,43.1667 75.5,40.5 Z"/></g>
<g><path style="opacity:1" fill="#d77b7a" d="M 34.5,7.5 C 35.4731,9.9479 35.8064,12.6146 35.5,15.5C 37.1667,15.5 38.8333,15.5 40.5,15.5C 40.5,18.1667 40.5,20.8333 40.5,23.5C 39.5318,21.3926 39.1984,19.0593 39.5,16.5C 37.8333,16.5 36.1667,16.5 34.5,16.5C 34.5,13.5 34.5,10.5 34.5,7.5 Z"/></g>
<g><path style="opacity:1" fill="#fdfafa" d="M 39.5,32.5 C 39.5,35.1667 39.5,37.8333 39.5,40.5C 41.1667,40.5 42.8333,40.5 44.5,40.5C 44.5,43.1667 44.5,45.8333 44.5,48.5C 43.1667,48.5 41.8333,48.5 40.5,48.5C 40.5,51.1667 40.5,53.8333 40.5,56.5C 38.5,56.5 36.5,56.5 34.5,56.5C 34.5,59.1667 34.5,61.8333 34.5,64.5C 32.8333,64.5 31.1667,64.5 29.5,64.5C 29.5,67.1667 29.5,69.8333 29.5,72.5C 27.8333,72.5 26.1667,72.5 24.5,72.5C 24.5,69.8333 24.5,67.1667 24.5,64.5C 22.8333,64.5 21.1667,64.5 19.5,64.5C 19.5,61.8333 19.5,59.1667 19.5,56.5C 17.8333,56.5 16.1667,56.5 14.5,56.5C 14.5,53.8333 14.5,51.1667 14.5,48.5C 12.8333,48.5 11.1667,48.5 9.5,48.5C 9.5,45.8333 9.5,43.1667 9.5,40.5C 11.1667,40.5 12.8333,40.5 14.5,40.5C 15.4731,38.0521 15.8064,35.3854 15.5,32.5C 17.1667,32.5 18.8333,32.5 20.5,32.5C 20.5,29.8333 20.5,27.1667 20.5,24.5C 22.099,24.7678 23.4324,24.4345 24.5,23.5C 25.4682,21.3926 25.8016,19.0593 25.5,16.5C 26.8333,16.5 28.1667,16.5 29.5,16.5C 29.5,19.1667 29.5,21.8333 29.5,24.5C 31.1667,24.5 32.8333,24.5 34.5,24.5C 34.5,27.1667 34.5,29.8333 34.5,32.5C 36.1667,32.5 37.8333,32.5 39.5,32.5 Z"/></g>
<g><path style="opacity:1" fill="#b71c14" d="M 24.5,40.5 C 26.1667,40.5 27.8333,40.5 29.5,40.5C 29.5,43.1667 29.5,45.8333 29.5,48.5C 27.8333,48.5 26.1667,48.5 24.5,48.5C 24.5,45.8333 24.5,43.1667 24.5,40.5 Z"/></g>
<g><path style="opacity:1" fill="#fdfafa" d="M 29.5,-0.5 C 36.5,-0.5 43.5,-0.5 50.5,-0.5C 50.5,2.16667 50.5,4.83333 50.5,7.5C 52.1667,7.5 53.8333,7.5 55.5,7.5C 55.5,4.83333 55.5,2.16667 55.5,-0.5C 62.1667,-0.5 68.8333,-0.5 75.5,-0.5C 75.5,2.16667 75.5,4.83333 75.5,7.5C 73.8333,7.5 72.1667,7.5 70.5,7.5C 70.5,10.1667 70.5,12.8333 70.5,15.5C 68.8333,15.5 67.1667,15.5 65.5,15.5C 65.5,18.1667 65.5,20.8333 65.5,23.5C 63.8333,23.5 62.1667,23.5 60.5,23.5C 60.5,26.5 60.5,29.5 60.5,32.5C 58.8333,32.5 57.1667,32.5 55.5,32.5C 55.5,35.1667 55.5,37.8333 55.5,40.5C 53.8333,40.5 52.1667,40.5 50.5,40.5C 50.5,37.5 50.5,34.5 50.5,31.5C 48.8333,31.5 47.1667,31.5 45.5,31.5C 45.5,28.8333 45.5,26.1667 45.5,23.5C 43.8333,23.5 42.1667,23.5 40.5,23.5C 40.5,20.8333 40.5,18.1667 40.5,15.5C 38.8333,15.5 37.1667,15.5 35.5,15.5C 35.8064,12.6146 35.4731,9.9479 34.5,7.5C 32.8333,7.5 31.1667,7.5 29.5,7.5C 29.5,4.83333 29.5,2.16667 29.5,-0.5 Z"/></g>
<g><path style="opacity:1" fill="#b6170f" d="M 50.5,-0.5 C 52.1667,-0.5 53.8333,-0.5 55.5,-0.5C 55.5,2.16667 55.5,4.83333 55.5,7.5C 53.8333,7.5 52.1667,7.5 50.5,7.5C 50.5,4.83333 50.5,2.16667 50.5,-0.5 Z"/></g>
<g><path style="opacity:1" fill="#b30403" d="M -0.5,72.5 C 1.16667,72.5 2.83333,72.5 4.5,72.5C 4.5,75.1667 4.5,77.8333 4.5,80.5C 2.83333,80.5 1.16667,80.5 -0.5,80.5C -0.5,77.8333 -0.5,75.1667 -0.5,72.5 Z"/></g>
<g><path style="opacity:1" fill="#b71a12" d="M 50.5,72.5 C 52.1667,72.5 53.8333,72.5 55.5,72.5C 55.5,75.1667 55.5,77.8333 55.5,80.5C 53.8333,80.5 52.1667,80.5 50.5,80.5C 50.5,77.8333 50.5,75.1667 50.5,72.5 Z"/></g>
<g><path style="opacity:1" fill="#b61710" d="M 105.5,72.5 C 105.5,75.1667 105.5,77.8333 105.5,80.5C 103.833,80.5 102.167,80.5 100.5,80.5C 100.5,77.8333 100.5,75.1667 100.5,72.5C 102.167,72.5 103.833,72.5 105.5,72.5 Z"/></g>
<g><path style="opacity:1" fill="#b10000" d="M 14.5,81.5 C 14.5,83.8333 14.5,86.1667 14.5,88.5C 13.1667,88.5 11.8333,88.5 10.5,88.5C 10.5,86.1667 10.5,83.8333 10.5,81.5C 11.8333,81.5 13.1667,81.5 14.5,81.5 Z"/></g>
<g><path style="opacity:1" fill="#d46c69" d="M 19.5,72.5 C 20.4731,74.9479 20.8064,77.6146 20.5,80.5C 25.1667,80.5 29.8333,80.5 34.5,80.5C 33.4324,81.4345 32.099,81.7678 30.5,81.5C 30.8016,84.0593 30.4682,86.3926 29.5,88.5C 28.0813,89.4511 26.4147,89.7845 24.5,89.5C 24.5,86.8333 24.5,84.1667 24.5,81.5C 22.8333,81.5 21.1667,81.5 19.5,81.5C 19.5,78.5 19.5,75.5 19.5,72.5 Z"/></g>
<g><path style="opacity:1" fill="#b10000" d="M 29.5,88.5 C 28.1667,88.5 26.8333,88.5 25.5,88.5C 25.5,86.1667 25.5,83.8333 25.5,81.5C 26.8333,81.5 28.1667,81.5 29.5,81.5C 29.5,83.8333 29.5,86.1667 29.5,88.5 Z"/></g>
<g><path style="opacity:1" fill="#b5130a" d="M 34.5,105.5 C 33.4324,104.566 32.099,104.232 30.5,104.5C 30.5,102.167 30.5,99.8333 30.5,97.5C 32.1667,97.5 33.8333,97.5 35.5,97.5C 35.5,94.8333 35.5,92.1667 35.5,89.5C 37.099,89.7678 38.4324,89.4345 39.5,88.5C 40.4682,86.3926 40.8016,84.0593 40.5,81.5C 41.8333,81.5 43.1667,81.5 44.5,81.5C 44.1984,84.0593 44.5318,86.3926 45.5,88.5C 46.5676,89.4345 47.901,89.7678 49.5,89.5C 49.5,92.1667 49.5,94.8333 49.5,97.5C 51.5,97.5 53.5,97.5 55.5,97.5C 55.5,94.8333 55.5,92.1667 55.5,89.5C 57.1667,89.5 58.8333,89.5 60.5,89.5C 60.5,86.5 60.5,83.5 60.5,80.5C 62.1667,80.5 63.8333,80.5 65.5,80.5C 65.5,83.5 65.5,86.5 65.5,89.5C 67.1667,89.5 68.8333,89.5 70.5,89.5C 70.5,92.1667 70.5,94.8333 70.5,97.5C 72.1667,97.5 73.8333,97.5 75.5,97.5C 75.5,100.167 75.5,102.833 75.5,105.5C 73.8333,105.5 72.1667,105.5 70.5,105.5C 70.5,108.167 70.5,110.833 70.5,113.5C 68.8333,113.5 67.1667,113.5 65.5,113.5C 65.5,116.167 65.5,118.833 65.5,121.5C 63.8333,121.5 62.1667,121.5 60.5,121.5C 60.5,118.833 60.5,116.167 60.5,113.5C 58.8333,113.5 57.1667,113.5 55.5,113.5C 55.5,110.833 55.5,108.167 55.5,105.5C 53.8333,105.5 52.1667,105.5 50.5,105.5C 50.5,108.167 50.5,110.833 50.5,113.5C 48.8333,113.5 47.1667,113.5 45.5,113.5C 45.5,116.167 45.5,118.833 45.5,121.5C 43.5,121.5 41.5,121.5 39.5,121.5C 39.5,118.833 39.5,116.167 39.5,113.5C 37.8333,113.5 36.1667,113.5 34.5,113.5C 34.5,110.833 34.5,108.167 34.5,105.5 Z"/></g>
<g><path style="opacity:1" fill="#d57575" d="M 45.5,88.5 C 44.5318,86.3926 44.1984,84.0593 44.5,81.5C 43.1667,81.5 41.8333,81.5 40.5,81.5C 40.8016,84.0593 40.4682,86.3926 39.5,88.5C 39.5,85.8333 39.5,83.1667 39.5,80.5C 41.5,80.5 43.5,80.5 45.5,80.5C 45.5,83.1667 45.5,85.8333 45.5,88.5 Z"/></g>
<g><path style="opacity:1" fill="#b30905" d="M 100.5,89.5 C 100.5,92.1667 100.5,94.8333 100.5,97.5C 102.167,97.5 103.833,97.5 105.5,97.5C 105.5,99.8333 105.5,102.167 105.5,104.5C 103.585,104.216 101.919,104.549 100.5,105.5C 100.5,108.167 100.5,110.833 100.5,113.5C 98.8333,113.5 97.1667,113.5 95.5,113.5C 95.5,116.167 95.5,118.833 95.5,121.5C 93.8333,121.5 92.1667,121.5 90.5,121.5C 90.5,118.833 90.5,116.167 90.5,113.5C 88.8333,113.5 87.1667,113.5 85.5,113.5C 85.5,110.833 85.5,108.167 85.5,105.5C 83.8333,105.5 82.1667,105.5 80.5,105.5C 80.5,102.833 80.5,100.167 80.5,97.5C 82.1667,97.5 83.8333,97.5 85.5,97.5C 85.5,94.8333 85.5,92.1667 85.5,89.5C 87.1667,89.5 88.8333,89.5 90.5,89.5C 90.5,86.5 90.5,83.5 90.5,80.5C 92.1667,80.5 93.8333,80.5 95.5,80.5C 95.5,83.5 95.5,86.5 95.5,89.5C 97.1667,89.5 98.8333,89.5 100.5,89.5 Z"/></g>
<g><path style="opacity:1" fill="#c74741" d="M 14.5,81.5 C 13.1667,81.5 11.8333,81.5 10.5,81.5C 10.5,83.8333 10.5,86.1667 10.5,88.5C 11.8333,88.5 13.1667,88.5 14.5,88.5C 16.4147,88.2155 18.0813,88.5489 19.5,89.5C 14.8333,89.5 10.1667,89.5 5.5,89.5C 5.5,92.1667 5.5,94.8333 5.5,97.5C 3.5,97.5 1.5,97.5 -0.5,97.5C -0.5,97.1667 -0.5,96.8333 -0.5,96.5C 1.16667,96.5 2.83333,96.5 4.5,96.5C 4.5,93.8333 4.5,91.1667 4.5,88.5C 6.16667,88.5 7.83333,88.5 9.5,88.5C 9.5,85.8333 9.5,83.1667 9.5,80.5C 11.4147,80.2155 13.0813,80.5489 14.5,81.5 Z"/></g>
<g><path style="opacity:1" fill="#b30905" d="M 19.5,89.5 C 19.5,92.1667 19.5,94.8333 19.5,97.5C 21.1667,97.5 22.8333,97.5 24.5,97.5C 24.5,100.167 24.5,102.833 24.5,105.5C 22.8333,105.5 21.1667,105.5 19.5,105.5C 19.5,108.167 19.5,110.833 19.5,113.5C 17.8333,113.5 16.1667,113.5 14.5,113.5C 14.5,116.167 14.5,118.833 14.5,121.5C 12.8333,121.5 11.1667,121.5 9.5,121.5C 9.5,118.833 9.5,116.167 9.5,113.5C 7.83333,113.5 6.16667,113.5 4.5,113.5C 4.5,110.833 4.5,108.167 4.5,105.5C 2.83333,105.5 1.16667,105.5 -0.5,105.5C -0.5,102.833 -0.5,100.167 -0.5,97.5C 1.5,97.5 3.5,97.5 5.5,97.5C 5.5,94.8333 5.5,92.1667 5.5,89.5C 10.1667,89.5 14.8333,89.5 19.5,89.5 Z"/></g>
<g><path style="opacity:1" fill="#d67473" d="M 39.5,88.5 C 38.4324,89.4345 37.099,89.7678 35.5,89.5C 35.5,92.1667 35.5,94.8333 35.5,97.5C 33.8333,97.5 32.1667,97.5 30.5,97.5C 30.5,99.8333 30.5,102.167 30.5,104.5C 32.099,104.232 33.4324,104.566 34.5,105.5C 32.8333,105.5 31.1667,105.5 29.5,105.5C 29.5,102.5 29.5,99.5 29.5,96.5C 31.1667,96.5 32.8333,96.5 34.5,96.5C 34.5,93.8333 34.5,91.1667 34.5,88.5C 36.1667,88.5 37.8333,88.5 39.5,88.5 Z"/></g>
<g><path style="opacity:1" fill="#dd8a89" d="M 45.5,88.5 C 47.1667,88.5 48.8333,88.5 50.5,88.5C 50.5,91.1667 50.5,93.8333 50.5,96.5C 51.8333,96.5 53.1667,96.5 54.5,96.5C 54.1984,93.9407 54.5318,91.6074 55.5,89.5C 55.5,92.1667 55.5,94.8333 55.5,97.5C 53.5,97.5 51.5,97.5 49.5,97.5C 49.5,94.8333 49.5,92.1667 49.5,89.5C 47.901,89.7678 46.5676,89.4345 45.5,88.5 Z"/></g>
<g><path style="opacity:1" fill="#e3a0a0" d="M 100.5,89.5 C 101.468,91.6074 101.802,93.9407 101.5,96.5C 102.833,96.5 104.167,96.5 105.5,96.5C 105.5,96.8333 105.5,97.1667 105.5,97.5C 103.833,97.5 102.167,97.5 100.5,97.5C 100.5,94.8333 100.5,92.1667 100.5,89.5 Z"/></g>
<g><path style="opacity:1" fill="#ebbaba" d="M 14.5,97.5 C 13.1667,97.5 11.8333,97.5 10.5,97.5C 10.5,99.8333 10.5,102.167 10.5,104.5C 11.8333,104.5 13.1667,104.5 14.5,104.5C 13.0813,105.451 11.4147,105.784 9.5,105.5C 9.5,102.5 9.5,99.5 9.5,96.5C 11.4147,96.2155 13.0813,96.5489 14.5,97.5 Z"/></g>
<g><path style="opacity:1" fill="#fefffe" d="M 14.5,97.5 C 14.5,99.8333 14.5,102.167 14.5,104.5C 13.1667,104.5 11.8333,104.5 10.5,104.5C 10.5,102.167 10.5,99.8333 10.5,97.5C 11.8333,97.5 13.1667,97.5 14.5,97.5 Z"/></g>
<g><path style="opacity:1" fill="#fdf7f7" d="M 40.5,97.5 C 41.8333,97.5 43.1667,97.5 44.5,97.5C 44.5,100.167 44.5,102.833 44.5,105.5C 43.1667,105.5 41.8333,105.5 40.5,105.5C 40.5,102.833 40.5,100.167 40.5,97.5 Z"/></g>
<g><path style="opacity:1" fill="#d8807f" d="M 40.5,97.5 C 41.9187,96.5489 43.5853,96.2155 45.5,96.5C 45.81,99.7131 45.4767,102.713 44.5,105.5C 44.5,102.833 44.5,100.167 44.5,97.5C 43.1667,97.5 41.8333,97.5 40.5,97.5 Z"/></g>
<g><path style="opacity:1" fill="#fbf0f0" d="M 60.5,97.5 C 62.1667,97.5 63.8333,97.5 65.5,97.5C 65.5,100.167 65.5,102.833 65.5,105.5C 63.8333,105.5 62.1667,105.5 60.5,105.5C 60.5,102.833 60.5,100.167 60.5,97.5 Z"/></g>
<g><path style="opacity:1" fill="#fbf2f2" d="M 90.5,97.5 C 92.1667,97.5 93.8333,97.5 95.5,97.5C 95.5,100.167 95.5,102.833 95.5,105.5C 93.8333,105.5 92.1667,105.5 90.5,105.5C 90.5,102.833 90.5,100.167 90.5,97.5 Z"/></g>
<g><path style="opacity:1" fill="#b40d07" d="M 100.5,146.5 C 93.8333,146.5 87.1667,146.5 80.5,146.5C 78.8333,146.5 77.1667,146.5 75.5,146.5C 68.8333,146.5 62.1667,146.5 55.5,146.5C 56.9187,145.549 58.5853,145.216 60.5,145.5C 60.5,142.833 60.5,140.167 60.5,137.5C 62.1667,137.5 63.8333,137.5 65.5,137.5C 65.5,134.833 65.5,132.167 65.5,129.5C 67.1667,129.5 68.8333,129.5 70.5,129.5C 70.5,126.833 70.5,124.167 70.5,121.5C 72.1667,121.5 73.8333,121.5 75.5,121.5C 75.5,118.833 75.5,116.167 75.5,113.5C 77.1667,113.5 78.8333,113.5 80.5,113.5C 80.5,116.167 80.5,118.833 80.5,121.5C 82.1667,121.5 83.8333,121.5 85.5,121.5C 85.5,124.167 85.5,126.833 85.5,129.5C 87.1667,129.5 88.8333,129.5 90.5,129.5C 90.5,132.167 90.5,134.833 90.5,137.5C 92.1667,137.5 93.8333,137.5 95.5,137.5C 95.5,140.167 95.5,142.833 95.5,145.5C 97.4147,145.216 99.0813,145.549 100.5,146.5 Z"/></g>
<g><path style="opacity:1" fill="#b10000" d="M -0.5,121.5 C 1.16667,121.5 2.83333,121.5 4.5,121.5C 4.5,124.167 4.5,126.833 4.5,129.5C 2.83333,129.5 1.16667,129.5 -0.5,129.5C -0.5,126.833 -0.5,124.167 -0.5,121.5 Z"/></g>
<g><path style="opacity:1" fill="#b5130d" d="M 105.5,121.5 C 105.5,124.167 105.5,126.833 105.5,129.5C 103.833,129.5 102.167,129.5 100.5,129.5C 100.5,126.833 100.5,124.167 100.5,121.5C 102.167,121.5 103.833,121.5 105.5,121.5 Z"/></g>
<g><path style="opacity:1" fill="#b30603" d="M 40.5,137.5 C 41.5676,138.434 42.901,138.768 44.5,138.5C 44.5,140.833 44.5,143.167 44.5,145.5C 39.5,145.5 34.5,145.5 29.5,145.5C 27.8333,145.5 26.1667,145.5 24.5,145.5C 19.8333,145.5 15.1667,145.5 10.5,145.5C 10.5,143.167 10.5,140.833 10.5,138.5C 12.099,138.768 13.4324,138.434 14.5,137.5C 14.5,134.833 14.5,132.167 14.5,129.5C 16.1667,129.5 17.8333,129.5 19.5,129.5C 19.5,126.833 19.5,124.167 19.5,121.5C 21.1667,121.5 22.8333,121.5 24.5,121.5C 24.5,118.833 24.5,116.167 24.5,113.5C 26.1667,113.5 27.8333,113.5 29.5,113.5C 29.5,116.167 29.5,118.833 29.5,121.5C 31.1667,121.5 32.8333,121.5 34.5,121.5C 34.5,124.167 34.5,126.833 34.5,129.5C 36.1667,129.5 37.8333,129.5 39.5,129.5C 39.1936,132.385 39.5269,135.052 40.5,137.5 Z"/></g>
<g><path style="opacity:1" fill="#b61911" d="M 50.5,121.5 C 52.1667,121.5 53.8333,121.5 55.5,121.5C 55.5,124.167 55.5,126.833 55.5,129.5C 53.8333,129.5 52.1667,129.5 50.5,129.5C 50.5,126.833 50.5,124.167 50.5,121.5 Z"/></g>
<g><path style="opacity:1" fill="#c94d4d" d="M 105.5,-0.5 C 105.833,-0.5 106.167,-0.5 106.5,-0.5C 106.5,64.5 106.5,129.5 106.5,194.5C 106.167,194.5 105.833,194.5 105.5,194.5C 105.5,183.833 105.5,173.167 105.5,162.5C 105.5,159.833 105.5,157.167 105.5,154.5C 105.5,146.167 105.5,137.833 105.5,129.5C 105.5,126.833 105.5,124.167 105.5,121.5C 105.5,116.167 105.5,110.833 105.5,105.5C 103.833,105.5 102.167,105.5 100.5,105.5C 101.919,104.549 103.585,104.216 105.5,104.5C 105.5,102.167 105.5,99.8333 105.5,97.5C 105.5,97.1667 105.5,96.8333 105.5,96.5C 105.5,91.1667 105.5,85.8333 105.5,80.5C 105.5,77.8333 105.5,75.1667 105.5,72.5C 105.5,64.5 105.5,56.5 105.5,48.5C 103.833,48.5 102.167,48.5 100.5,48.5C 101.919,47.5489 103.585,47.2155 105.5,47.5C 105.5,45.1667 105.5,42.8333 105.5,40.5C 105.5,26.8333 105.5,13.1667 105.5,-0.5 Z"/></g>
<g><path style="opacity:1" fill="#c64240" d="M 14.5,137.5 C 13.4324,138.434 12.099,138.768 10.5,138.5C 10.5,140.833 10.5,143.167 10.5,145.5C 15.1667,145.5 19.8333,145.5 24.5,145.5C 24.5,145.833 24.5,146.167 24.5,146.5C 17.8333,146.5 11.1667,146.5 4.5,146.5C 5.91866,145.549 7.58533,145.216 9.5,145.5C 9.5,142.833 9.5,140.167 9.5,137.5C 11.1667,137.5 12.8333,137.5 14.5,137.5 Z"/></g>
<g><path style="opacity:1" fill="#cc5654" d="M 40.5,137.5 C 42.1667,137.5 43.8333,137.5 45.5,137.5C 45.5,140.167 45.5,142.833 45.5,145.5C 47.1667,145.5 48.8333,145.5 50.5,145.5C 50.5,148.5 50.5,151.5 50.5,154.5C 45.5,154.5 40.5,154.5 35.5,154.5C 35.5,156.833 35.5,159.167 35.5,161.5C 35.5,161.833 35.5,162.167 35.5,162.5C 34.5269,160.052 34.1936,157.385 34.5,154.5C 32.8333,154.5 31.1667,154.5 29.5,154.5C 29.5,151.833 29.5,149.167 29.5,146.5C 29.5,146.167 29.5,145.833 29.5,145.5C 34.5,145.5 39.5,145.5 44.5,145.5C 44.5,143.167 44.5,140.833 44.5,138.5C 42.901,138.768 41.5676,138.434 40.5,137.5 Z"/></g>
<g><path style="opacity:1" fill="#b20000" d="M 4.5,146.5 C 11.1667,146.5 17.8333,146.5 24.5,146.5C 24.5,148.833 24.5,151.167 24.5,153.5C 17.8333,153.5 11.1667,153.5 4.5,153.5C 4.5,151.167 4.5,148.833 4.5,146.5 Z"/></g>
<g><path style="opacity:1" fill="#fdf9f9" d="M 29.5,146.5 C 29.5,149.167 29.5,151.833 29.5,154.5C 31.1667,154.5 32.8333,154.5 34.5,154.5C 34.1936,157.385 34.5269,160.052 35.5,162.5C 36.8333,162.5 38.1667,162.5 39.5,162.5C 39.5,165.167 39.5,167.833 39.5,170.5C 41.1667,170.5 42.8333,170.5 44.5,170.5C 44.1936,173.385 44.5269,176.052 45.5,178.5C 47.1667,178.5 48.8333,178.5 50.5,178.5C 50.5,181.167 50.5,183.833 50.5,186.5C 48.8333,186.5 47.1667,186.5 45.5,186.5C 45.5,189.167 45.5,191.833 45.5,194.5C 43.8333,194.5 42.1667,194.5 40.5,194.5C 40.8064,197.385 40.4731,200.052 39.5,202.5C 37.8333,202.5 36.1667,202.5 34.5,202.5C 34.5,205.167 34.5,207.833 34.5,210.5C 32.8333,210.5 31.1667,210.5 29.5,210.5C 29.5,213.167 29.5,215.833 29.5,218.5C 27.8333,218.5 26.1667,218.5 24.5,218.5C 24.5,221.5 24.5,224.5 24.5,227.5C 22.8333,227.5 21.1667,227.5 19.5,227.5C 19.5,224.833 19.5,222.167 19.5,219.5C 17.8333,219.5 16.1667,219.5 14.5,219.5C 14.5,216.5 14.5,213.5 14.5,210.5C 12.8333,210.5 11.1667,210.5 9.5,210.5C 9.5,208.167 9.5,205.833 9.5,203.5C 8.08134,202.549 6.41467,202.216 4.5,202.5C 4.5,199.833 4.5,197.167 4.5,194.5C 2.83333,194.5 1.16667,194.5 -0.5,194.5C -0.5,183.833 -0.5,173.167 -0.5,162.5C 1.16667,162.5 2.83333,162.5 4.5,162.5C 4.5,165.167 4.5,167.833 4.5,170.5C 6.16667,170.5 7.83333,170.5 9.5,170.5C 9.5,173.167 9.5,175.833 9.5,178.5C 11.1667,178.5 12.8333,178.5 14.5,178.5C 14.5,181.167 14.5,183.833 14.5,186.5C 16.1667,186.5 17.8333,186.5 19.5,186.5C 19.5,189.167 19.5,191.833 19.5,194.5C 21.1667,194.5 22.8333,194.5 24.5,194.5C 24.5,191.833 24.5,189.167 24.5,186.5C 26.1667,186.5 27.8333,186.5 29.5,186.5C 29.5,183.833 29.5,181.167 29.5,178.5C 31.1667,178.5 32.8333,178.5 34.5,178.5C 34.5,175.833 34.5,173.167 34.5,170.5C 32.8333,170.5 31.1667,170.5 29.5,170.5C 29.5,167.833 29.5,165.167 29.5,162.5C 28.4324,161.566 27.099,161.232 25.5,161.5C 25.5,156.5 25.5,151.5 25.5,146.5C 26.8333,146.5 28.1667,146.5 29.5,146.5 Z"/></g>
<g><path style="opacity:1" fill="#b10000" d="M 30.5,146.5 C 36.8333,146.5 43.1667,146.5 49.5,146.5C 49.5,148.833 49.5,151.167 49.5,153.5C 43.1667,153.5 36.8333,153.5 30.5,153.5C 30.5,151.167 30.5,148.833 30.5,146.5 Z"/></g>
<g><path style="opacity:1" fill="#b20000" d="M 55.5,146.5 C 62.1667,146.5 68.8333,146.5 75.5,146.5C 75.5,148.833 75.5,151.167 75.5,153.5C 68.8333,153.5 62.1667,153.5 55.5,153.5C 55.5,151.167 55.5,148.833 55.5,146.5 Z"/></g>
<g><path style="opacity:1" fill="#fefcfc" d="M 75.5,146.5 C 77.1667,146.5 78.8333,146.5 80.5,146.5C 80.5,148.833 80.5,151.167 80.5,153.5C 80.5,156.5 80.5,159.5 80.5,162.5C 78.8333,162.5 77.1667,162.5 75.5,162.5C 75.5,165.167 75.5,167.833 75.5,170.5C 73.8333,170.5 72.1667,170.5 70.5,170.5C 70.5,173.167 70.5,175.833 70.5,178.5C 72.1667,178.5 73.8333,178.5 75.5,178.5C 75.5,181.167 75.5,183.833 75.5,186.5C 77.1667,186.5 78.8333,186.5 80.5,186.5C 80.5,189.167 80.5,191.833 80.5,194.5C 82.1667,194.5 83.8333,194.5 85.5,194.5C 85.5,191.833 85.5,189.167 85.5,186.5C 87.1667,186.5 88.8333,186.5 90.5,186.5C 90.5,183.833 90.5,181.167 90.5,178.5C 92.1667,178.5 93.8333,178.5 95.5,178.5C 95.5,175.833 95.5,173.167 95.5,170.5C 97.1667,170.5 98.8333,170.5 100.5,170.5C 100.5,167.833 100.5,165.167 100.5,162.5C 102.167,162.5 103.833,162.5 105.5,162.5C 105.5,173.167 105.5,183.833 105.5,194.5C 103.833,194.5 102.167,194.5 100.5,194.5C 100.5,197.167 100.5,199.833 100.5,202.5C 98.8333,202.5 97.1667,202.5 95.5,202.5C 95.5,205.167 95.5,207.833 95.5,210.5C 93.8333,210.5 92.1667,210.5 90.5,210.5C 90.5,213.5 90.5,216.5 90.5,219.5C 88.8333,219.5 87.1667,219.5 85.5,219.5C 85.5,222.167 85.5,224.833 85.5,227.5C 83.8333,227.5 82.1667,227.5 80.5,227.5C 80.5,224.833 80.5,222.167 80.5,219.5C 78.8333,219.5 77.1667,219.5 75.5,219.5C 75.5,216.5 75.5,213.5 75.5,210.5C 73.8333,210.5 72.1667,210.5 70.5,210.5C 70.5,207.833 70.5,205.167 70.5,202.5C 68.8333,202.5 67.1667,202.5 65.5,202.5C 65.5,199.833 65.5,197.167 65.5,194.5C 63.8333,194.5 62.1667,194.5 60.5,194.5C 60.5,191.833 60.5,189.167 60.5,186.5C 58.8333,186.5 57.1667,186.5 55.5,186.5C 55.5,183.833 55.5,181.167 55.5,178.5C 56.8333,178.5 58.1667,178.5 59.5,178.5C 60.4731,176.052 60.8064,173.385 60.5,170.5C 62.1667,170.5 63.8333,170.5 65.5,170.5C 65.5,167.833 65.5,165.167 65.5,162.5C 67.1667,162.5 68.8333,162.5 70.5,162.5C 70.5,159.833 70.5,157.167 70.5,154.5C 72.4147,154.784 74.0813,154.451 75.5,153.5C 75.5,151.167 75.5,148.833 75.5,146.5 Z"/></g>
<g><path style="opacity:1" fill="#b10000" d="M 80.5,146.5 C 87.1667,146.5 93.8333,146.5 100.5,146.5C 100.5,148.833 100.5,151.167 100.5,153.5C 93.8333,153.5 87.1667,153.5 80.5,153.5C 80.5,151.167 80.5,148.833 80.5,146.5 Z"/></g>
<g><path style="opacity:1" fill="#e6acab" d="M 24.5,145.5 C 26.1667,145.5 27.8333,145.5 29.5,145.5C 29.5,145.833 29.5,146.167 29.5,146.5C 28.1667,146.5 26.8333,146.5 25.5,146.5C 25.5,151.5 25.5,156.5 25.5,161.5C 27.099,161.232 28.4324,161.566 29.5,162.5C 27.8333,162.5 26.1667,162.5 24.5,162.5C 24.5,159.5 24.5,156.5 24.5,153.5C 24.5,151.167 24.5,148.833 24.5,146.5C 24.5,146.167 24.5,145.833 24.5,145.5 Z"/></g>
<g><path style="opacity:1" fill="#b10000" d="M 50.5,154.5 C 52.1667,154.5 53.8333,154.5 55.5,154.5C 60.1667,154.5 64.8333,154.5 69.5,154.5C 69.5,156.833 69.5,159.167 69.5,161.5C 58.1667,161.5 46.8333,161.5 35.5,161.5C 35.5,159.167 35.5,156.833 35.5,154.5C 40.5,154.5 45.5,154.5 50.5,154.5 Z"/></g>
<g><path style="opacity:1" fill="#c43c37" d="M 55.5,154.5 C 55.5,154.167 55.5,153.833 55.5,153.5C 62.1667,153.5 68.8333,153.5 75.5,153.5C 74.0813,154.451 72.4147,154.784 70.5,154.5C 70.5,157.167 70.5,159.833 70.5,162.5C 68.8333,162.5 67.1667,162.5 65.5,162.5C 65.5,165.167 65.5,167.833 65.5,170.5C 63.8333,170.5 62.1667,170.5 60.5,170.5C 60.8064,173.385 60.4731,176.052 59.5,178.5C 59.5,175.833 59.5,173.167 59.5,170.5C 54.8333,170.5 50.1667,170.5 45.5,170.5C 45.5,173.167 45.5,175.833 45.5,178.5C 44.5269,176.052 44.1936,173.385 44.5,170.5C 42.8333,170.5 41.1667,170.5 39.5,170.5C 39.5,167.833 39.5,165.167 39.5,162.5C 38.1667,162.5 36.8333,162.5 35.5,162.5C 35.5,162.167 35.5,161.833 35.5,161.5C 46.8333,161.5 58.1667,161.5 69.5,161.5C 69.5,159.167 69.5,156.833 69.5,154.5C 64.8333,154.5 60.1667,154.5 55.5,154.5 Z"/></g>
<g><path style="opacity:1" fill="#b10000" d="M 40.5,162.5 C 48.5,162.5 56.5,162.5 64.5,162.5C 64.5,164.833 64.5,167.167 64.5,169.5C 56.5,169.5 48.5,169.5 40.5,169.5C 40.5,167.167 40.5,164.833 40.5,162.5 Z"/></g>
<g><path style="opacity:1" fill="#b40c07" d="M -0.5,153.5 C 1.16667,153.5 2.83333,153.5 4.5,153.5C 11.1667,153.5 17.8333,153.5 24.5,153.5C 24.5,156.5 24.5,159.5 24.5,162.5C 26.1667,162.5 27.8333,162.5 29.5,162.5C 29.5,165.167 29.5,167.833 29.5,170.5C 31.1667,170.5 32.8333,170.5 34.5,170.5C 34.5,173.167 34.5,175.833 34.5,178.5C 32.8333,178.5 31.1667,178.5 29.5,178.5C 29.5,181.167 29.5,183.833 29.5,186.5C 27.8333,186.5 26.1667,186.5 24.5,186.5C 24.5,189.167 24.5,191.833 24.5,194.5C 22.8333,194.5 21.1667,194.5 19.5,194.5C 19.5,191.833 19.5,189.167 19.5,186.5C 17.8333,186.5 16.1667,186.5 14.5,186.5C 14.5,183.833 14.5,181.167 14.5,178.5C 12.8333,178.5 11.1667,178.5 9.5,178.5C 9.5,175.833 9.5,173.167 9.5,170.5C 7.83333,170.5 6.16667,170.5 4.5,170.5C 4.5,167.833 4.5,165.167 4.5,162.5C 2.83333,162.5 1.16667,162.5 -0.5,162.5C -0.5,159.5 -0.5,156.5 -0.5,153.5 Z"/></g>
<g><path style="opacity:1" fill="#b30604" d="M 80.5,153.5 C 87.1667,153.5 93.8333,153.5 100.5,153.5C 101.919,154.451 103.585,154.784 105.5,154.5C 105.5,157.167 105.5,159.833 105.5,162.5C 103.833,162.5 102.167,162.5 100.5,162.5C 100.5,165.167 100.5,167.833 100.5,170.5C 98.8333,170.5 97.1667,170.5 95.5,170.5C 95.5,173.167 95.5,175.833 95.5,178.5C 93.8333,178.5 92.1667,178.5 90.5,178.5C 90.5,181.167 90.5,183.833 90.5,186.5C 88.8333,186.5 87.1667,186.5 85.5,186.5C 85.5,189.167 85.5,191.833 85.5,194.5C 83.8333,194.5 82.1667,194.5 80.5,194.5C 80.5,191.833 80.5,189.167 80.5,186.5C 78.8333,186.5 77.1667,186.5 75.5,186.5C 75.5,183.833 75.5,181.167 75.5,178.5C 73.8333,178.5 72.1667,178.5 70.5,178.5C 70.5,175.833 70.5,173.167 70.5,170.5C 72.1667,170.5 73.8333,170.5 75.5,170.5C 75.5,167.833 75.5,165.167 75.5,162.5C 77.1667,162.5 78.8333,162.5 80.5,162.5C 80.5,159.5 80.5,156.5 80.5,153.5 Z"/></g>
<g><path style="opacity:1" fill="#ba251a" d="M -0.5,194.5 C 1.16667,194.5 2.83333,194.5 4.5,194.5C 4.5,197.167 4.5,199.833 4.5,202.5C 6.41467,202.216 8.08134,202.549 9.5,203.5C 6.16667,203.5 2.83333,203.5 -0.5,203.5C -0.5,200.5 -0.5,197.5 -0.5,194.5 Z"/></g>
<g><path style="opacity:1" fill="#bf312d" d="M 105.5,194.5 C 105.833,194.5 106.167,194.5 106.5,194.5C 106.5,199.833 106.5,205.167 106.5,210.5C 106.167,210.5 105.833,210.5 105.5,210.5C 105.5,208.167 105.5,205.833 105.5,203.5C 102.5,203.5 99.5,203.5 96.5,203.5C 96.8016,206.059 96.4682,208.393 95.5,210.5C 95.5,207.833 95.5,205.167 95.5,202.5C 97.1667,202.5 98.8333,202.5 100.5,202.5C 100.5,199.833 100.5,197.167 100.5,194.5C 102.167,194.5 103.833,194.5 105.5,194.5 Z"/></g>
<g><path style="opacity:1" fill="#d16766" d="M 39.5,202.5 C 38.4324,203.434 37.099,203.768 35.5,203.5C 35.8016,206.059 35.4682,208.393 34.5,210.5C 34.5,207.833 34.5,205.167 34.5,202.5C 36.1667,202.5 37.8333,202.5 39.5,202.5 Z"/></g>
<g><path style="opacity:1" fill="#b30b06" d="M 59.5,178.5 C 58.1667,178.5 56.8333,178.5 55.5,178.5C 55.5,181.167 55.5,183.833 55.5,186.5C 57.1667,186.5 58.8333,186.5 60.5,186.5C 60.5,189.167 60.5,191.833 60.5,194.5C 62.1667,194.5 63.8333,194.5 65.5,194.5C 65.5,197.167 65.5,199.833 65.5,202.5C 67.1667,202.5 68.8333,202.5 70.5,202.5C 70.5,205.167 70.5,207.833 70.5,210.5C 72.1667,210.5 73.8333,210.5 75.5,210.5C 75.5,213.5 75.5,216.5 75.5,219.5C 77.1667,219.5 78.8333,219.5 80.5,219.5C 80.5,222.167 80.5,224.833 80.5,227.5C 82.1667,227.5 83.8333,227.5 85.5,227.5C 85.5,224.833 85.5,222.167 85.5,219.5C 87.1667,219.5 88.8333,219.5 90.5,219.5C 90.5,216.5 90.5,213.5 90.5,210.5C 92.1667,210.5 93.8333,210.5 95.5,210.5C 96.4682,208.393 96.8016,206.059 96.5,203.5C 99.5,203.5 102.5,203.5 105.5,203.5C 105.5,205.833 105.5,208.167 105.5,210.5C 103.585,210.216 101.919,210.549 100.5,211.5C 100.5,214.167 100.5,216.833 100.5,219.5C 98.8333,219.5 97.1667,219.5 95.5,219.5C 95.5,222.167 95.5,224.833 95.5,227.5C 93.8333,227.5 92.1667,227.5 90.5,227.5C 90.5,230.167 90.5,232.833 90.5,235.5C 88.8333,235.5 87.1667,235.5 85.5,235.5C 85.5,238.167 85.5,240.833 85.5,243.5C 87.1667,243.5 88.8333,243.5 90.5,243.5C 90.5,246.167 90.5,248.833 90.5,251.5C 92.1667,251.5 93.8333,251.5 95.5,251.5C 95.5,254.167 95.5,256.833 95.5,259.5C 97.1667,259.5 98.8333,259.5 100.5,259.5C 100.5,262.167 100.5,264.833 100.5,267.5C 101.919,268.451 103.585,268.784 105.5,268.5C 105.5,270.833 105.5,273.167 105.5,275.5C 102.167,275.5 98.8333,275.5 95.5,275.5C 95.5,273.167 95.5,270.833 95.5,268.5C 93.8333,268.5 92.1667,268.5 90.5,268.5C 90.5,265.5 90.5,262.5 90.5,259.5C 88.8333,259.5 87.1667,259.5 85.5,259.5C 85.5,256.833 85.5,254.167 85.5,251.5C 83.8333,251.5 82.1667,251.5 80.5,251.5C 80.5,254.167 80.5,256.833 80.5,259.5C 78.8333,259.5 77.1667,259.5 75.5,259.5C 75.5,262.5 75.5,265.5 75.5,268.5C 73.8333,268.5 72.1667,268.5 70.5,268.5C 70.5,271.167 70.5,273.833 70.5,276.5C 68.8333,276.5 67.1667,276.5 65.5,276.5C 65.5,279.167 65.5,281.833 65.5,284.5C 63.8333,284.5 62.1667,284.5 60.5,284.5C 60.5,287.167 60.5,289.833 60.5,292.5C 58.8333,292.5 57.1667,292.5 55.5,292.5C 55.5,295.167 55.5,297.833 55.5,300.5C 56.8333,300.5 58.1667,300.5 59.5,300.5C 59.5,303.167 59.5,305.833 59.5,308.5C 54.8333,308.5 50.1667,308.5 45.5,308.5C 45.5,305.833 45.5,303.167 45.5,300.5C 47.1667,300.5 48.8333,300.5 50.5,300.5C 50.5,297.833 50.5,295.167 50.5,292.5C 48.8333,292.5 47.1667,292.5 45.5,292.5C 45.5,289.833 45.5,287.167 45.5,284.5C 43.8333,284.5 42.1667,284.5 40.5,284.5C 40.8064,281.615 40.4731,278.948 39.5,276.5C 38.4324,275.566 37.099,275.232 35.5,275.5C 35.8016,272.941 35.4682,270.607 34.5,268.5C 33.4324,267.566 32.099,267.232 30.5,267.5C 30.8064,264.615 30.4731,261.948 29.5,259.5C 27.8333,259.5 26.1667,259.5 24.5,259.5C 24.5,256.833 24.5,254.167 24.5,251.5C 22.8333,251.5 21.1667,251.5 19.5,251.5C 19.5,254.167 19.5,256.833 19.5,259.5C 17.8333,259.5 16.1667,259.5 14.5,259.5C 14.5,262.5 14.5,265.5 14.5,268.5C 12.8333,268.5 11.1667,268.5 9.5,268.5C 9.5,271.167 9.5,273.833 9.5,276.5C 7.83333,276.5 6.16667,276.5 4.5,276.5C 4.5,279.167 4.5,281.833 4.5,284.5C 2.83333,284.5 1.16667,284.5 -0.5,284.5C -0.5,278.833 -0.5,273.167 -0.5,267.5C 1.16667,267.5 2.83333,267.5 4.5,267.5C 4.5,264.833 4.5,262.167 4.5,259.5C 6.16667,259.5 7.83333,259.5 9.5,259.5C 9.5,256.833 9.5,254.167 9.5,251.5C 11.1667,251.5 12.8333,251.5 14.5,251.5C 14.5,248.833 14.5,246.167 14.5,243.5C 16.1667,243.5 17.8333,243.5 19.5,243.5C 19.5,240.833 19.5,238.167 19.5,235.5C 17.8333,235.5 16.1667,235.5 14.5,235.5C 14.5,232.833 14.5,230.167 14.5,227.5C 12.8333,227.5 11.1667,227.5 9.5,227.5C 9.5,224.833 9.5,222.167 9.5,219.5C 7.83333,219.5 6.16667,219.5 4.5,219.5C 4.5,216.833 4.5,214.167 4.5,211.5C 2.83333,211.5 1.16667,211.5 -0.5,211.5C -0.5,208.833 -0.5,206.167 -0.5,203.5C 2.83333,203.5 6.16667,203.5 9.5,203.5C 9.5,205.833 9.5,208.167 9.5,210.5C 11.1667,210.5 12.8333,210.5 14.5,210.5C 14.5,213.5 14.5,216.5 14.5,219.5C 16.1667,219.5 17.8333,219.5 19.5,219.5C 19.5,222.167 19.5,224.833 19.5,227.5C 21.1667,227.5 22.8333,227.5 24.5,227.5C 25.4731,225.052 25.8064,222.385 25.5,219.5C 27.1667,219.5 28.8333,219.5 30.5,219.5C 30.5,216.833 30.5,214.167 30.5,211.5C 32.099,211.768 33.4324,211.434 34.5,210.5C 35.4682,208.393 35.8016,206.059 35.5,203.5C 37.099,203.768 38.4324,203.434 39.5,202.5C 40.4731,200.052 40.8064,197.385 40.5,194.5C 42.1667,194.5 43.8333,194.5 45.5,194.5C 45.5,191.833 45.5,189.167 45.5,186.5C 47.1667,186.5 48.8333,186.5 50.5,186.5C 50.5,183.833 50.5,181.167 50.5,178.5C 48.8333,178.5 47.1667,178.5 45.5,178.5C 45.5,175.833 45.5,173.167 45.5,170.5C 50.1667,170.5 54.8333,170.5 59.5,170.5C 59.5,173.167 59.5,175.833 59.5,178.5 Z"/></g>
<g><path style="opacity:1" fill="#fdf8f8" d="M 60.5,210.5 C 61.5676,211.434 62.901,211.768 64.5,211.5C 64.5,214.167 64.5,216.833 64.5,219.5C 66.5,219.5 68.5,219.5 70.5,219.5C 70.5,222.167 70.5,224.833 70.5,227.5C 72.1667,227.5 73.8333,227.5 75.5,227.5C 75.5,230.167 75.5,232.833 75.5,235.5C 77.1667,235.5 78.8333,235.5 80.5,235.5C 80.5,238.167 80.5,240.833 80.5,243.5C 78.8333,243.5 77.1667,243.5 75.5,243.5C 75.5,246.167 75.5,248.833 75.5,251.5C 73.8333,251.5 72.1667,251.5 70.5,251.5C 70.5,254.167 70.5,256.833 70.5,259.5C 68.8333,259.5 67.1667,259.5 65.5,259.5C 65.5,262.5 65.5,265.5 65.5,268.5C 63.8333,268.5 62.1667,268.5 60.5,268.5C 60.5,271.167 60.5,273.833 60.5,276.5C 58.8333,276.5 57.1667,276.5 55.5,276.5C 55.5,279.167 55.5,281.833 55.5,284.5C 53.8333,284.5 52.1667,284.5 50.5,284.5C 50.5,281.833 50.5,279.167 50.5,276.5C 48.8333,276.5 47.1667,276.5 45.5,276.5C 45.5,273.5 45.5,270.5 45.5,267.5C 43.8333,267.5 42.1667,267.5 40.5,267.5C 40.5,264.833 40.5,262.167 40.5,259.5C 38.8333,259.5 37.1667,259.5 35.5,259.5C 35.8064,256.615 35.4731,253.948 34.5,251.5C 32.8333,251.5 31.1667,251.5 29.5,251.5C 29.5,248.833 29.5,246.167 29.5,243.5C 28.1667,243.5 26.8333,243.5 25.5,243.5C 25.5,240.833 25.5,238.167 25.5,235.5C 26.8333,235.5 28.1667,235.5 29.5,235.5C 29.5,232.833 29.5,230.167 29.5,227.5C 31.1667,227.5 32.8333,227.5 34.5,227.5C 35.4731,225.052 35.8064,222.385 35.5,219.5C 37.1667,219.5 38.8333,219.5 40.5,219.5C 40.5,216.833 40.5,214.167 40.5,211.5C 42.1667,211.5 43.8333,211.5 45.5,211.5C 45.5,208.5 45.5,205.5 45.5,202.5C 47.1667,202.5 48.8333,202.5 50.5,202.5C 50.5,199.833 50.5,197.167 50.5,194.5C 52.1667,194.5 53.8333,194.5 55.5,194.5C 55.5,197.167 55.5,199.833 55.5,202.5C 57.1667,202.5 58.8333,202.5 60.5,202.5C 60.5,205.167 60.5,207.833 60.5,210.5 Z"/></g>
<g><path style="opacity:1" fill="#fefefe" d="M -0.5,211.5 C 1.16667,211.5 2.83333,211.5 4.5,211.5C 4.5,214.167 4.5,216.833 4.5,219.5C 6.16667,219.5 7.83333,219.5 9.5,219.5C 9.5,222.167 9.5,224.833 9.5,227.5C 11.1667,227.5 12.8333,227.5 14.5,227.5C 14.5,230.167 14.5,232.833 14.5,235.5C 16.1667,235.5 17.8333,235.5 19.5,235.5C 19.5,238.167 19.5,240.833 19.5,243.5C 17.8333,243.5 16.1667,243.5 14.5,243.5C 14.5,246.167 14.5,248.833 14.5,251.5C 12.8333,251.5 11.1667,251.5 9.5,251.5C 9.5,254.167 9.5,256.833 9.5,259.5C 7.83333,259.5 6.16667,259.5 4.5,259.5C 4.5,262.167 4.5,264.833 4.5,267.5C 2.83333,267.5 1.16667,267.5 -0.5,267.5C -0.5,259.5 -0.5,251.5 -0.5,243.5C 1.16667,243.5 2.83333,243.5 4.5,243.5C 4.5,240.833 4.5,238.167 4.5,235.5C 2.83333,235.5 1.16667,235.5 -0.5,235.5C -0.5,227.5 -0.5,219.5 -0.5,211.5 Z"/></g>
<g><path style="opacity:1" fill="#d36b69" d="M 34.5,210.5 C 33.4324,211.434 32.099,211.768 30.5,211.5C 30.5,214.167 30.5,216.833 30.5,219.5C 28.8333,219.5 27.1667,219.5 25.5,219.5C 25.8064,222.385 25.4731,225.052 24.5,227.5C 24.5,224.5 24.5,221.5 24.5,218.5C 26.1667,218.5 27.8333,218.5 29.5,218.5C 29.5,215.833 29.5,213.167 29.5,210.5C 31.1667,210.5 32.8333,210.5 34.5,210.5 Z"/></g>
<g><path style="opacity:1" fill="#d97f7f" d="M 45.5,202.5 C 45.5,205.5 45.5,208.5 45.5,211.5C 43.8333,211.5 42.1667,211.5 40.5,211.5C 40.5,214.167 40.5,216.833 40.5,219.5C 38.8333,219.5 37.1667,219.5 35.5,219.5C 35.8064,222.385 35.4731,225.052 34.5,227.5C 34.5,224.5 34.5,221.5 34.5,218.5C 36.1667,218.5 37.8333,218.5 39.5,218.5C 39.5,215.833 39.5,213.167 39.5,210.5C 41.1667,210.5 42.8333,210.5 44.5,210.5C 44.1936,207.615 44.5269,204.948 45.5,202.5 Z"/></g>
<g><path style="opacity:1" fill="#b81e14" d="M 50.5,211.5 C 52.1667,211.5 53.8333,211.5 55.5,211.5C 55.5,214.167 55.5,216.833 55.5,219.5C 53.8333,219.5 52.1667,219.5 50.5,219.5C 50.5,216.833 50.5,214.167 50.5,211.5 Z"/></g>
<g><path style="opacity:1" fill="#e8afae" d="M 60.5,210.5 C 62.1667,210.5 63.8333,210.5 65.5,210.5C 65.5,213.167 65.5,215.833 65.5,218.5C 67.4147,218.216 69.0813,218.549 70.5,219.5C 68.5,219.5 66.5,219.5 64.5,219.5C 64.5,216.833 64.5,214.167 64.5,211.5C 62.901,211.768 61.5676,211.434 60.5,210.5 Z"/></g>
<g><path style="opacity:1" fill="#fdfafa" d="M 100.5,211.5 C 102.167,211.5 103.833,211.5 105.5,211.5C 105.5,219.5 105.5,227.5 105.5,235.5C 103.833,235.5 102.167,235.5 100.5,235.5C 100.5,238.167 100.5,240.833 100.5,243.5C 102.167,243.5 103.833,243.5 105.5,243.5C 105.5,251.5 105.5,259.5 105.5,267.5C 103.833,267.5 102.167,267.5 100.5,267.5C 100.5,264.833 100.5,262.167 100.5,259.5C 98.8333,259.5 97.1667,259.5 95.5,259.5C 95.5,256.833 95.5,254.167 95.5,251.5C 93.8333,251.5 92.1667,251.5 90.5,251.5C 90.5,248.833 90.5,246.167 90.5,243.5C 88.8333,243.5 87.1667,243.5 85.5,243.5C 85.5,240.833 85.5,238.167 85.5,235.5C 87.1667,235.5 88.8333,235.5 90.5,235.5C 90.5,232.833 90.5,230.167 90.5,227.5C 92.1667,227.5 93.8333,227.5 95.5,227.5C 95.5,224.833 95.5,222.167 95.5,219.5C 97.1667,219.5 98.8333,219.5 100.5,219.5C 100.5,216.833 100.5,214.167 100.5,211.5 Z"/></g>
<g><path style="opacity:1" fill="#b20000" d="M 49.5,227.5 C 49.5,230.167 49.5,232.833 49.5,235.5C 48.1667,235.5 46.8333,235.5 45.5,235.5C 45.5,232.833 45.5,230.167 45.5,227.5C 46.8333,227.5 48.1667,227.5 49.5,227.5 Z"/></g>
<g><path style="opacity:1" fill="#b5120c" d="M 55.5,235.5 C 55.5,232.833 55.5,230.167 55.5,227.5C 57.1667,227.5 58.8333,227.5 60.5,227.5C 60.5,230.167 60.5,232.833 60.5,235.5C 58.8333,235.5 57.1667,235.5 55.5,235.5 Z"/></g>
<g><path style="opacity:1" fill="#b20101" d="M -0.5,235.5 C 1.16667,235.5 2.83333,235.5 4.5,235.5C 4.5,238.167 4.5,240.833 4.5,243.5C 2.83333,243.5 1.16667,243.5 -0.5,243.5C -0.5,240.833 -0.5,238.167 -0.5,235.5 Z"/></g>
<g><path style="opacity:1" fill="#bf3426" d="M 34.5,235.5 C 36.5,235.5 38.5,235.5 40.5,235.5C 40.5,238.167 40.5,240.833 40.5,243.5C 38.5,243.5 36.5,243.5 34.5,243.5C 34.5,240.833 34.5,238.167 34.5,235.5 Z"/></g>
<g><path style="opacity:1" fill="#c23d2f" d="M 49.5,227.5 C 50.4731,229.948 50.8064,232.615 50.5,235.5C 52.1667,235.5 53.8333,235.5 55.5,235.5C 55.5,238.167 55.5,240.833 55.5,243.5C 53.8333,243.5 52.1667,243.5 50.5,243.5C 50.8064,246.385 50.4731,249.052 49.5,251.5C 49.5,248.833 49.5,246.167 49.5,243.5C 49.5,240.833 49.5,238.167 49.5,235.5C 49.5,232.833 49.5,230.167 49.5,227.5 Z"/></g>
<g><path style="opacity:1" fill="#b40806" d="M 65.5,235.5 C 67.1667,235.5 68.8333,235.5 70.5,235.5C 70.5,238.167 70.5,240.833 70.5,243.5C 68.8333,243.5 67.1667,243.5 65.5,243.5C 65.5,240.833 65.5,238.167 65.5,235.5 Z"/></g>
<g><path style="opacity:1" fill="#b6150e" d="M 105.5,235.5 C 105.5,238.167 105.5,240.833 105.5,243.5C 103.833,243.5 102.167,243.5 100.5,243.5C 100.5,240.833 100.5,238.167 100.5,235.5C 102.167,235.5 103.833,235.5 105.5,235.5 Z"/></g>
<g><path style="opacity:1" fill="#b20000" d="M 49.5,243.5 C 49.5,246.167 49.5,248.833 49.5,251.5C 48.1667,251.5 46.8333,251.5 45.5,251.5C 45.5,248.833 45.5,246.167 45.5,243.5C 46.8333,243.5 48.1667,243.5 49.5,243.5 Z"/></g>
<g><path style="opacity:1" fill="#b5120c" d="M 55.5,243.5 C 57.1667,243.5 58.8333,243.5 60.5,243.5C 60.5,246.167 60.5,248.833 60.5,251.5C 58.8333,251.5 57.1667,251.5 55.5,251.5C 55.5,248.833 55.5,246.167 55.5,243.5 Z"/></g>
<g><path style="opacity:1" fill="#cb5453" d="M 100.5,211.5 C 101.919,210.549 103.585,210.216 105.5,210.5C 105.833,210.5 106.167,210.5 106.5,210.5C 106.5,229.833 106.5,249.167 106.5,268.5C 106.167,268.5 105.833,268.5 105.5,268.5C 103.585,268.784 101.919,268.451 100.5,267.5C 102.167,267.5 103.833,267.5 105.5,267.5C 105.5,259.5 105.5,251.5 105.5,243.5C 105.5,240.833 105.5,238.167 105.5,235.5C 105.5,227.5 105.5,219.5 105.5,211.5C 103.833,211.5 102.167,211.5 100.5,211.5 Z"/></g>
<g><path style="opacity:1" fill="#fdf8f8" d="M 29.5,259.5 C 29.5,262.5 29.5,265.5 29.5,268.5C 31.1667,268.5 32.8333,268.5 34.5,268.5C 34.5,271.167 34.5,273.833 34.5,276.5C 36.1667,276.5 37.8333,276.5 39.5,276.5C 40.4731,278.948 40.8064,281.615 40.5,284.5C 42.1667,284.5 43.8333,284.5 45.5,284.5C 45.5,287.167 45.5,289.833 45.5,292.5C 47.1667,292.5 48.8333,292.5 50.5,292.5C 50.5,295.167 50.5,297.833 50.5,300.5C 48.8333,300.5 47.1667,300.5 45.5,300.5C 45.5,303.167 45.5,305.833 45.5,308.5C 43.5,308.5 41.5,308.5 39.5,308.5C 39.5,311.167 39.5,313.833 39.5,316.5C 38.1667,316.5 36.8333,316.5 35.5,316.5C 34.5269,318.948 34.1936,321.615 34.5,324.5C 32.8333,324.5 31.1667,324.5 29.5,324.5C 29.5,327.167 29.5,329.833 29.5,332.5C 28.1667,332.5 26.8333,332.5 25.5,332.5C 25.5,327.5 25.5,322.5 25.5,317.5C 27.099,317.768 28.4324,317.434 29.5,316.5C 29.5,313.833 29.5,311.167 29.5,308.5C 31.1667,308.5 32.8333,308.5 34.5,308.5C 34.5,305.833 34.5,303.167 34.5,300.5C 32.8333,300.5 31.1667,300.5 29.5,300.5C 29.5,297.833 29.5,295.167 29.5,292.5C 27.8333,292.5 26.1667,292.5 24.5,292.5C 24.5,289.833 24.5,287.167 24.5,284.5C 22.8333,284.5 21.1667,284.5 19.5,284.5C 19.5,287.167 19.5,289.833 19.5,292.5C 17.8333,292.5 16.1667,292.5 14.5,292.5C 14.5,295.167 14.5,297.833 14.5,300.5C 12.8333,300.5 11.1667,300.5 9.5,300.5C 9.5,303.167 9.5,305.833 9.5,308.5C 7.83333,308.5 6.16667,308.5 4.5,308.5C 4.5,311.167 4.5,313.833 4.5,316.5C 2.83333,316.5 1.16667,316.5 -0.5,316.5C -0.5,305.833 -0.5,295.167 -0.5,284.5C 1.16667,284.5 2.83333,284.5 4.5,284.5C 4.5,281.833 4.5,279.167 4.5,276.5C 6.16667,276.5 7.83333,276.5 9.5,276.5C 9.5,273.833 9.5,271.167 9.5,268.5C 11.1667,268.5 12.8333,268.5 14.5,268.5C 14.5,265.5 14.5,262.5 14.5,259.5C 16.1667,259.5 17.8333,259.5 19.5,259.5C 19.5,256.833 19.5,254.167 19.5,251.5C 21.1667,251.5 22.8333,251.5 24.5,251.5C 24.5,254.167 24.5,256.833 24.5,259.5C 26.1667,259.5 27.8333,259.5 29.5,259.5 Z"/></g>
<g><path style="opacity:1" fill="#fefcfc" d="M 95.5,275.5 C 96.9187,276.451 98.5853,276.784 100.5,276.5C 100.5,279.167 100.5,281.833 100.5,284.5C 102.167,284.5 103.833,284.5 105.5,284.5C 105.5,295.167 105.5,305.833 105.5,316.5C 103.833,316.5 102.167,316.5 100.5,316.5C 100.5,313.833 100.5,311.167 100.5,308.5C 98.8333,308.5 97.1667,308.5 95.5,308.5C 95.5,305.833 95.5,303.167 95.5,300.5C 93.8333,300.5 92.1667,300.5 90.5,300.5C 90.5,297.833 90.5,295.167 90.5,292.5C 88.8333,292.5 87.1667,292.5 85.5,292.5C 85.5,289.833 85.5,287.167 85.5,284.5C 83.8333,284.5 82.1667,284.5 80.5,284.5C 80.5,287.167 80.5,289.833 80.5,292.5C 78.8333,292.5 77.1667,292.5 75.5,292.5C 75.5,295.167 75.5,297.833 75.5,300.5C 73.8333,300.5 72.1667,300.5 70.5,300.5C 70.5,303.167 70.5,305.833 70.5,308.5C 72.1667,308.5 73.8333,308.5 75.5,308.5C 75.5,311.167 75.5,313.833 75.5,316.5C 77.1667,316.5 78.8333,316.5 80.5,316.5C 80.5,319.5 80.5,322.5 80.5,325.5C 80.5,327.833 80.5,330.167 80.5,332.5C 78.8333,332.5 77.1667,332.5 75.5,332.5C 75.5,330.167 75.5,327.833 75.5,325.5C 74.0813,324.549 72.4147,324.216 70.5,324.5C 70.5,321.833 70.5,319.167 70.5,316.5C 68.8333,316.5 67.1667,316.5 65.5,316.5C 65.5,313.833 65.5,311.167 65.5,308.5C 63.8333,308.5 62.1667,308.5 60.5,308.5C 60.8064,305.615 60.4731,302.948 59.5,300.5C 58.1667,300.5 56.8333,300.5 55.5,300.5C 55.5,297.833 55.5,295.167 55.5,292.5C 57.1667,292.5 58.8333,292.5 60.5,292.5C 60.5,289.833 60.5,287.167 60.5,284.5C 62.1667,284.5 63.8333,284.5 65.5,284.5C 65.5,281.833 65.5,279.167 65.5,276.5C 67.1667,276.5 68.8333,276.5 70.5,276.5C 70.5,273.833 70.5,271.167 70.5,268.5C 72.1667,268.5 73.8333,268.5 75.5,268.5C 75.5,265.5 75.5,262.5 75.5,259.5C 77.1667,259.5 78.8333,259.5 80.5,259.5C 80.5,256.833 80.5,254.167 80.5,251.5C 82.1667,251.5 83.8333,251.5 85.5,251.5C 85.5,254.167 85.5,256.833 85.5,259.5C 87.1667,259.5 88.8333,259.5 90.5,259.5C 90.5,262.5 90.5,265.5 90.5,268.5C 92.1667,268.5 93.8333,268.5 95.5,268.5C 95.5,270.833 95.5,273.167 95.5,275.5 Z"/></g>
<g><path style="opacity:1" fill="#d06363" d="M 29.5,259.5 C 30.4731,261.948 30.8064,264.615 30.5,267.5C 32.099,267.232 33.4324,267.566 34.5,268.5C 32.8333,268.5 31.1667,268.5 29.5,268.5C 29.5,265.5 29.5,262.5 29.5,259.5 Z"/></g>
<g><path style="opacity:1" fill="#d97f7f" d="M 34.5,251.5 C 35.4731,253.948 35.8064,256.615 35.5,259.5C 37.1667,259.5 38.8333,259.5 40.5,259.5C 40.5,262.167 40.5,264.833 40.5,267.5C 42.1667,267.5 43.8333,267.5 45.5,267.5C 45.5,270.5 45.5,273.5 45.5,276.5C 44.5269,274.052 44.1936,271.385 44.5,268.5C 42.8333,268.5 41.1667,268.5 39.5,268.5C 39.5,265.833 39.5,263.167 39.5,260.5C 37.8333,260.5 36.1667,260.5 34.5,260.5C 34.5,257.5 34.5,254.5 34.5,251.5 Z"/></g>
<g><path style="opacity:1" fill="#b81e14" d="M 50.5,259.5 C 52.1667,259.5 53.8333,259.5 55.5,259.5C 55.5,262.167 55.5,264.833 55.5,267.5C 53.8333,267.5 52.1667,267.5 50.5,267.5C 50.5,264.833 50.5,262.167 50.5,259.5 Z"/></g>
<g><path style="opacity:1" fill="#d16766" d="M 34.5,268.5 C 35.4682,270.607 35.8016,272.941 35.5,275.5C 37.099,275.232 38.4324,275.566 39.5,276.5C 37.8333,276.5 36.1667,276.5 34.5,276.5C 34.5,273.833 34.5,271.167 34.5,268.5 Z"/></g>
<g><path style="opacity:1" fill="#c23935" d="M 105.5,268.5 C 105.833,268.5 106.167,268.5 106.5,268.5C 106.5,285.167 106.5,301.833 106.5,318.5C 106.167,318.5 105.833,318.5 105.5,318.5C 105.5,317.833 105.5,317.167 105.5,316.5C 105.5,305.833 105.5,295.167 105.5,284.5C 103.833,284.5 102.167,284.5 100.5,284.5C 100.5,281.833 100.5,279.167 100.5,276.5C 98.5853,276.784 96.9187,276.451 95.5,275.5C 98.8333,275.5 102.167,275.5 105.5,275.5C 105.5,273.167 105.5,270.833 105.5,268.5 Z"/></g>
<g><path style="opacity:1" fill="#b40a06" d="M 29.5,316.5 C 27.8333,316.5 26.1667,316.5 24.5,316.5C 24.5,319.5 24.5,322.5 24.5,325.5C 17.8333,325.5 11.1667,325.5 4.5,325.5C 3.08134,324.549 1.41467,324.216 -0.5,324.5C -0.5,321.833 -0.5,319.167 -0.5,316.5C 1.16667,316.5 2.83333,316.5 4.5,316.5C 4.5,313.833 4.5,311.167 4.5,308.5C 6.16667,308.5 7.83333,308.5 9.5,308.5C 9.5,305.833 9.5,303.167 9.5,300.5C 11.1667,300.5 12.8333,300.5 14.5,300.5C 14.5,297.833 14.5,295.167 14.5,292.5C 16.1667,292.5 17.8333,292.5 19.5,292.5C 19.5,289.833 19.5,287.167 19.5,284.5C 21.1667,284.5 22.8333,284.5 24.5,284.5C 24.5,287.167 24.5,289.833 24.5,292.5C 26.1667,292.5 27.8333,292.5 29.5,292.5C 29.5,295.167 29.5,297.833 29.5,300.5C 31.1667,300.5 32.8333,300.5 34.5,300.5C 34.5,303.167 34.5,305.833 34.5,308.5C 32.8333,308.5 31.1667,308.5 29.5,308.5C 29.5,311.167 29.5,313.833 29.5,316.5 Z"/></g>
<g><path style="opacity:1" fill="#b30805" d="M 105.5,316.5 C 105.5,317.167 105.5,317.833 105.5,318.5C 105.5,320.5 105.5,322.5 105.5,324.5C 103.585,324.216 101.919,324.549 100.5,325.5C 93.8333,325.5 87.1667,325.5 80.5,325.5C 80.5,322.5 80.5,319.5 80.5,316.5C 78.8333,316.5 77.1667,316.5 75.5,316.5C 75.5,313.833 75.5,311.167 75.5,308.5C 73.8333,308.5 72.1667,308.5 70.5,308.5C 70.5,305.833 70.5,303.167 70.5,300.5C 72.1667,300.5 73.8333,300.5 75.5,300.5C 75.5,297.833 75.5,295.167 75.5,292.5C 77.1667,292.5 78.8333,292.5 80.5,292.5C 80.5,289.833 80.5,287.167 80.5,284.5C 82.1667,284.5 83.8333,284.5 85.5,284.5C 85.5,287.167 85.5,289.833 85.5,292.5C 87.1667,292.5 88.8333,292.5 90.5,292.5C 90.5,295.167 90.5,297.833 90.5,300.5C 92.1667,300.5 93.8333,300.5 95.5,300.5C 95.5,303.167 95.5,305.833 95.5,308.5C 97.1667,308.5 98.8333,308.5 100.5,308.5C 100.5,311.167 100.5,313.833 100.5,316.5C 102.167,316.5 103.833,316.5 105.5,316.5 Z"/></g>
<g><path style="opacity:1" fill="#c23532" d="M 59.5,300.5 C 60.4731,302.948 60.8064,305.615 60.5,308.5C 62.1667,308.5 63.8333,308.5 65.5,308.5C 65.5,311.167 65.5,313.833 65.5,316.5C 67.1667,316.5 68.8333,316.5 70.5,316.5C 70.5,319.167 70.5,321.833 70.5,324.5C 72.4147,324.216 74.0813,324.549 75.5,325.5C 68.8333,325.5 62.1667,325.5 55.5,325.5C 55.5,325.167 55.5,324.833 55.5,324.5C 60.1667,324.5 64.8333,324.5 69.5,324.5C 69.5,322.167 69.5,319.833 69.5,317.5C 58.1667,317.5 46.8333,317.5 35.5,317.5C 35.5,317.167 35.5,316.833 35.5,316.5C 36.8333,316.5 38.1667,316.5 39.5,316.5C 39.5,313.833 39.5,311.167 39.5,308.5C 41.5,308.5 43.5,308.5 45.5,308.5C 50.1667,308.5 54.8333,308.5 59.5,308.5C 59.5,305.833 59.5,303.167 59.5,300.5 Z"/></g>
<g><path style="opacity:1" fill="#b10000" d="M 40.5,309.5 C 48.5,309.5 56.5,309.5 64.5,309.5C 64.5,311.833 64.5,314.167 64.5,316.5C 56.5,316.5 48.5,316.5 40.5,316.5C 40.5,314.167 40.5,311.833 40.5,309.5 Z"/></g>
<g><path style="opacity:1" fill="#b10000" d="M 35.5,317.5 C 46.8333,317.5 58.1667,317.5 69.5,317.5C 69.5,319.833 69.5,322.167 69.5,324.5C 64.8333,324.5 60.1667,324.5 55.5,324.5C 53.8333,324.5 52.1667,324.5 50.5,324.5C 45.5,324.5 40.5,324.5 35.5,324.5C 35.5,322.167 35.5,319.833 35.5,317.5 Z"/></g>
<g><path style="opacity:1" fill="#429f00" d="M 105.5,318.5 C 105.833,318.5 106.167,318.5 106.5,318.5C 284.167,318.5 461.833,318.5 639.5,318.5C 639.5,372.167 639.5,425.833 639.5,479.5C 461.5,479.5 283.5,479.5 105.5,479.5C 105.5,465.833 105.5,452.167 105.5,438.5C 105.5,435.833 105.5,433.167 105.5,430.5C 105.5,422.5 105.5,414.5 105.5,406.5C 105.5,403.833 105.5,401.167 105.5,398.5C 105.5,392.833 105.5,387.167 105.5,381.5C 105.5,378.833 105.5,376.167 105.5,373.5C 105.5,368.167 105.5,362.833 105.5,357.5C 105.5,354.833 105.5,352.167 105.5,349.5C 105.5,341.167 105.5,332.833 105.5,324.5C 105.5,322.5 105.5,320.5 105.5,318.5 Z"/></g>
<g><path style="opacity:1" fill="#fdf9f8" d="M -0.5,324.5 C 1.41467,324.216 3.08134,324.549 4.5,325.5C 4.5,327.833 4.5,330.167 4.5,332.5C 5.91866,333.451 7.58533,333.784 9.5,333.5C 9.5,335.833 9.5,338.167 9.5,340.5C 10.9187,341.451 12.5853,341.784 14.5,341.5C 14.5,344.167 14.5,346.833 14.5,349.5C 16.1667,349.5 17.8333,349.5 19.5,349.5C 19.5,352.167 19.5,354.833 19.5,357.5C 21.1667,357.5 22.8333,357.5 24.5,357.5C 24.5,360.167 24.5,362.833 24.5,365.5C 26.1667,365.5 27.8333,365.5 29.5,365.5C 29.5,362.833 29.5,360.167 29.5,357.5C 31.1667,357.5 32.8333,357.5 34.5,357.5C 34.5,354.833 34.5,352.167 34.5,349.5C 36.1667,349.5 37.8333,349.5 39.5,349.5C 40.4731,347.052 40.8064,344.385 40.5,341.5C 42.1667,341.5 43.8333,341.5 45.5,341.5C 45.5,338.833 45.5,336.167 45.5,333.5C 47.1667,333.5 48.8333,333.5 50.5,333.5C 50.5,330.5 50.5,327.5 50.5,324.5C 52.1667,324.5 53.8333,324.5 55.5,324.5C 55.5,324.833 55.5,325.167 55.5,325.5C 55.5,327.833 55.5,330.167 55.5,332.5C 56.9187,333.451 58.5853,333.784 60.5,333.5C 60.5,336.167 60.5,338.833 60.5,341.5C 62.1667,341.5 63.8333,341.5 65.5,341.5C 65.5,344.167 65.5,346.833 65.5,349.5C 67.1667,349.5 68.8333,349.5 70.5,349.5C 70.5,352.167 70.5,354.833 70.5,357.5C 72.1667,357.5 73.8333,357.5 75.5,357.5C 75.5,360.167 75.5,362.833 75.5,365.5C 77.1667,365.5 78.8333,365.5 80.5,365.5C 80.5,362.833 80.5,360.167 80.5,357.5C 82.1667,357.5 83.8333,357.5 85.5,357.5C 85.5,354.833 85.5,352.167 85.5,349.5C 87.1667,349.5 88.8333,349.5 90.5,349.5C 90.5,346.833 90.5,344.167 90.5,341.5C 92.1667,341.5 93.8333,341.5 95.5,341.5C 95.5,338.833 95.5,336.167 95.5,333.5C 97.4147,333.784 99.0813,333.451 100.5,332.5C 100.5,330.167 100.5,327.833 100.5,325.5C 101.919,324.549 103.585,324.216 105.5,324.5C 105.5,332.833 105.5,341.167 105.5,349.5C 103.833,349.5 102.167,349.5 100.5,349.5C 100.5,352.167 100.5,354.833 100.5,357.5C 102.167,357.5 103.833,357.5 105.5,357.5C 105.5,362.833 105.5,368.167 105.5,373.5C 103.833,373.5 102.167,373.5 100.5,373.5C 100.5,370.833 100.5,368.167 100.5,365.5C 98.8333,365.5 97.1667,365.5 95.5,365.5C 95.5,362.833 95.5,360.167 95.5,357.5C 93.8333,357.5 92.1667,357.5 90.5,357.5C 90.5,360.167 90.5,362.833 90.5,365.5C 88.8333,365.5 87.1667,365.5 85.5,365.5C 85.5,368.167 85.5,370.833 85.5,373.5C 83.8333,373.5 82.1667,373.5 80.5,373.5C 80.5,376.167 80.5,378.833 80.5,381.5C 82.1667,381.5 83.8333,381.5 85.5,381.5C 85.5,384.167 85.5,386.833 85.5,389.5C 86.9187,390.451 88.5853,390.784 90.5,390.5C 90.5,393.167 90.5,395.833 90.5,398.5C 92.4147,398.784 94.0813,398.451 95.5,397.5C 95.5,394.833 95.5,392.167 95.5,389.5C 97.1667,389.5 98.8333,389.5 100.5,389.5C 100.5,386.833 100.5,384.167 100.5,381.5C 102.167,381.5 103.833,381.5 105.5,381.5C 105.5,387.167 105.5,392.833 105.5,398.5C 103.833,398.5 102.167,398.5 100.5,398.5C 100.5,401.167 100.5,403.833 100.5,406.5C 102.167,406.5 103.833,406.5 105.5,406.5C 105.5,414.5 105.5,422.5 105.5,430.5C 103.833,430.5 102.167,430.5 100.5,430.5C 100.5,427.833 100.5,425.167 100.5,422.5C 98.8333,422.5 97.1667,422.5 95.5,422.5C 95.5,419.833 95.5,417.167 95.5,414.5C 93.8333,414.5 92.1667,414.5 90.5,414.5C 90.5,411.833 90.5,409.167 90.5,406.5C 88.8333,406.5 87.1667,406.5 85.5,406.5C 85.5,403.833 85.5,401.167 85.5,398.5C 83.8333,398.5 82.1667,398.5 80.5,398.5C 80.5,395.833 80.5,393.167 80.5,390.5C 78.8333,390.5 77.1667,390.5 75.5,390.5C 75.5,393.167 75.5,395.833 75.5,398.5C 73.8333,398.5 72.1667,398.5 70.5,398.5C 70.5,401.167 70.5,403.833 70.5,406.5C 68.8333,406.5 67.1667,406.5 65.5,406.5C 65.5,409.167 65.5,411.833 65.5,414.5C 63.8333,414.5 62.1667,414.5 60.5,414.5C 60.5,417.167 60.5,419.833 60.5,422.5C 58.8333,422.5 57.1667,422.5 55.5,422.5C 55.5,425.167 55.5,427.833 55.5,430.5C 53.8333,430.5 52.1667,430.5 50.5,430.5C 50.8064,427.615 50.4731,424.948 49.5,422.5C 48.1667,422.5 46.8333,422.5 45.5,422.5C 45.5,419.833 45.5,417.167 45.5,414.5C 43.8333,414.5 42.1667,414.5 40.5,414.5C 40.5,411.833 40.5,409.167 40.5,406.5C 38.5,406.5 36.5,406.5 34.5,406.5C 34.5,403.833 34.5,401.167 34.5,398.5C 33.4324,397.566 32.099,397.232 30.5,397.5C 30.8016,394.941 30.4682,392.607 29.5,390.5C 28.0813,389.549 26.4147,389.216 24.5,389.5C 24.5,392.167 24.5,394.833 24.5,397.5C 22.8333,397.5 21.1667,397.5 19.5,397.5C 19.5,400.5 19.5,403.5 19.5,406.5C 17.8333,406.5 16.1667,406.5 14.5,406.5C 14.5,409.167 14.5,411.833 14.5,414.5C 12.8333,414.5 11.1667,414.5 9.5,414.5C 9.5,417.167 9.5,419.833 9.5,422.5C 7.83333,422.5 6.16667,422.5 4.5,422.5C 4.5,425.167 4.5,427.833 4.5,430.5C 2.83333,430.5 1.16667,430.5 -0.5,430.5C -0.5,422.5 -0.5,414.5 -0.5,406.5C 1.16667,406.5 2.83333,406.5 4.5,406.5C 4.5,403.833 4.5,401.167 4.5,398.5C 2.83333,398.5 1.16667,398.5 -0.5,398.5C -0.5,393.167 -0.5,387.833 -0.5,382.5C 1.16667,382.5 2.83333,382.5 4.5,382.5C 4.5,384.833 4.5,387.167 4.5,389.5C 5.91866,390.451 7.58533,390.784 9.5,390.5C 9.5,393.167 9.5,395.833 9.5,398.5C 11.1667,398.5 12.8333,398.5 14.5,398.5C 14.5,395.833 14.5,393.167 14.5,390.5C 16.4147,390.784 18.0813,390.451 19.5,389.5C 19.5,386.833 19.5,384.167 19.5,381.5C 21.1667,381.5 22.8333,381.5 24.5,381.5C 24.5,378.833 24.5,376.167 24.5,373.5C 22.8333,373.5 21.1667,373.5 19.5,373.5C 19.5,370.833 19.5,368.167 19.5,365.5C 17.8333,365.5 16.1667,365.5 14.5,365.5C 14.5,362.833 14.5,360.167 14.5,357.5C 12.8333,357.5 11.1667,357.5 9.5,357.5C 9.5,360.167 9.5,362.833 9.5,365.5C 7.83333,365.5 6.16667,365.5 4.5,365.5C 4.5,368.167 4.5,370.833 4.5,373.5C 2.83333,373.5 1.16667,373.5 -0.5,373.5C -0.5,368.167 -0.5,362.833 -0.5,357.5C 1.16667,357.5 2.83333,357.5 4.5,357.5C 4.5,354.833 4.5,352.167 4.5,349.5C 2.83333,349.5 1.16667,349.5 -0.5,349.5C -0.5,341.167 -0.5,332.833 -0.5,324.5 Z"/></g>
<g><path style="opacity:1" fill="#b20000" d="M 4.5,325.5 C 11.1667,325.5 17.8333,325.5 24.5,325.5C 24.5,327.833 24.5,330.167 24.5,332.5C 17.8333,332.5 11.1667,332.5 4.5,332.5C 4.5,330.167 4.5,327.833 4.5,325.5 Z"/></g>
<g><path style="opacity:1" fill="#e5a8a8" d="M 29.5,316.5 C 28.4324,317.434 27.099,317.768 25.5,317.5C 25.5,322.5 25.5,327.5 25.5,332.5C 26.8333,332.5 28.1667,332.5 29.5,332.5C 29.5,332.833 29.5,333.167 29.5,333.5C 27.5853,333.784 25.9187,333.451 24.5,332.5C 24.5,330.167 24.5,327.833 24.5,325.5C 24.5,322.5 24.5,319.5 24.5,316.5C 26.1667,316.5 27.8333,316.5 29.5,316.5 Z"/></g>
<g><path style="opacity:1" fill="#b20000" d="M 55.5,325.5 C 62.1667,325.5 68.8333,325.5 75.5,325.5C 75.5,327.833 75.5,330.167 75.5,332.5C 68.8333,332.5 62.1667,332.5 55.5,332.5C 55.5,330.167 55.5,327.833 55.5,325.5 Z"/></g>
<g><path style="opacity:1" fill="#b10000" d="M 80.5,325.5 C 87.1667,325.5 93.8333,325.5 100.5,325.5C 100.5,327.833 100.5,330.167 100.5,332.5C 93.8333,332.5 87.1667,332.5 80.5,332.5C 80.5,330.167 80.5,327.833 80.5,325.5 Z"/></g>
<g><path style="opacity:1" fill="#b40c06" d="M 4.5,332.5 C 11.1667,332.5 17.8333,332.5 24.5,332.5C 25.9187,333.451 27.5853,333.784 29.5,333.5C 34.5,333.5 39.5,333.5 44.5,333.5C 44.5,335.833 44.5,338.167 44.5,340.5C 32.8333,340.5 21.1667,340.5 9.5,340.5C 9.5,338.167 9.5,335.833 9.5,333.5C 7.58533,333.784 5.91866,333.451 4.5,332.5 Z"/></g>
<g><path style="opacity:1" fill="#b40d07" d="M 55.5,332.5 C 62.1667,332.5 68.8333,332.5 75.5,332.5C 77.1667,332.5 78.8333,332.5 80.5,332.5C 87.1667,332.5 93.8333,332.5 100.5,332.5C 99.0813,333.451 97.4147,333.784 95.5,333.5C 95.5,336.167 95.5,338.833 95.5,341.5C 93.8333,341.5 92.1667,341.5 90.5,341.5C 90.5,344.167 90.5,346.833 90.5,349.5C 88.8333,349.5 87.1667,349.5 85.5,349.5C 85.5,352.167 85.5,354.833 85.5,357.5C 83.8333,357.5 82.1667,357.5 80.5,357.5C 80.5,360.167 80.5,362.833 80.5,365.5C 78.8333,365.5 77.1667,365.5 75.5,365.5C 75.5,362.833 75.5,360.167 75.5,357.5C 73.8333,357.5 72.1667,357.5 70.5,357.5C 70.5,354.833 70.5,352.167 70.5,349.5C 68.8333,349.5 67.1667,349.5 65.5,349.5C 65.5,346.833 65.5,344.167 65.5,341.5C 63.8333,341.5 62.1667,341.5 60.5,341.5C 60.5,338.833 60.5,336.167 60.5,333.5C 58.5853,333.784 56.9187,333.451 55.5,332.5 Z"/></g>
<g><path style="opacity:1" fill="#c84b48" d="M 35.5,316.5 C 35.5,316.833 35.5,317.167 35.5,317.5C 35.5,319.833 35.5,322.167 35.5,324.5C 40.5,324.5 45.5,324.5 50.5,324.5C 50.5,327.5 50.5,330.5 50.5,333.5C 48.8333,333.5 47.1667,333.5 45.5,333.5C 45.5,336.167 45.5,338.833 45.5,341.5C 43.8333,341.5 42.1667,341.5 40.5,341.5C 40.8064,344.385 40.4731,347.052 39.5,349.5C 39.5,346.833 39.5,344.167 39.5,341.5C 31.5,341.5 23.5,341.5 15.5,341.5C 15.5,343.833 15.5,346.167 15.5,348.5C 17.099,348.232 18.4324,348.566 19.5,349.5C 17.8333,349.5 16.1667,349.5 14.5,349.5C 14.5,346.833 14.5,344.167 14.5,341.5C 12.5853,341.784 10.9187,341.451 9.5,340.5C 21.1667,340.5 32.8333,340.5 44.5,340.5C 44.5,338.167 44.5,335.833 44.5,333.5C 39.5,333.5 34.5,333.5 29.5,333.5C 29.5,333.167 29.5,332.833 29.5,332.5C 29.5,329.833 29.5,327.167 29.5,324.5C 31.1667,324.5 32.8333,324.5 34.5,324.5C 34.1936,321.615 34.5269,318.948 35.5,316.5 Z"/></g>
<g><path style="opacity:1" fill="#b10000" d="M 30.5,325.5 C 36.8333,325.5 43.1667,325.5 49.5,325.5C 49.5,327.833 49.5,330.167 49.5,332.5C 43.1667,332.5 36.8333,332.5 30.5,332.5C 30.5,330.167 30.5,327.833 30.5,325.5 Z"/></g>
<g><path style="opacity:1" fill="#b30704" d="M 39.5,349.5 C 37.8333,349.5 36.1667,349.5 34.5,349.5C 34.5,352.167 34.5,354.833 34.5,357.5C 32.8333,357.5 31.1667,357.5 29.5,357.5C 29.5,360.167 29.5,362.833 29.5,365.5C 27.8333,365.5 26.1667,365.5 24.5,365.5C 24.5,362.833 24.5,360.167 24.5,357.5C 22.8333,357.5 21.1667,357.5 19.5,357.5C 19.5,354.833 19.5,352.167 19.5,349.5C 18.4324,348.566 17.099,348.232 15.5,348.5C 15.5,346.167 15.5,343.833 15.5,341.5C 23.5,341.5 31.5,341.5 39.5,341.5C 39.5,344.167 39.5,346.833 39.5,349.5 Z"/></g>
<g><path style="opacity:1" fill="#b10000" d="M -0.5,349.5 C 1.16667,349.5 2.83333,349.5 4.5,349.5C 4.5,352.167 4.5,354.833 4.5,357.5C 2.83333,357.5 1.16667,357.5 -0.5,357.5C -0.5,354.833 -0.5,352.167 -0.5,349.5 Z"/></g>
<g><path style="opacity:1" fill="#b71b13" d="M 50.5,349.5 C 52.1667,349.5 53.8333,349.5 55.5,349.5C 55.5,352.167 55.5,354.833 55.5,357.5C 53.8333,357.5 52.1667,357.5 50.5,357.5C 50.5,354.833 50.5,352.167 50.5,349.5 Z"/></g>
<g><path style="opacity:1" fill="#b5130d" d="M 105.5,349.5 C 105.5,352.167 105.5,354.833 105.5,357.5C 103.833,357.5 102.167,357.5 100.5,357.5C 100.5,354.833 100.5,352.167 100.5,349.5C 102.167,349.5 103.833,349.5 105.5,349.5 Z"/></g>
<g><path style="opacity:1" fill="#b41009" d="M 19.5,389.5 C 14.5,389.5 9.5,389.5 4.5,389.5C 4.5,387.167 4.5,384.833 4.5,382.5C 2.83333,382.5 1.16667,382.5 -0.5,382.5C -0.5,379.5 -0.5,376.5 -0.5,373.5C 1.16667,373.5 2.83333,373.5 4.5,373.5C 4.5,370.833 4.5,368.167 4.5,365.5C 6.16667,365.5 7.83333,365.5 9.5,365.5C 9.5,362.833 9.5,360.167 9.5,357.5C 11.1667,357.5 12.8333,357.5 14.5,357.5C 14.5,360.167 14.5,362.833 14.5,365.5C 16.1667,365.5 17.8333,365.5 19.5,365.5C 19.5,368.167 19.5,370.833 19.5,373.5C 21.1667,373.5 22.8333,373.5 24.5,373.5C 24.5,376.167 24.5,378.833 24.5,381.5C 22.8333,381.5 21.1667,381.5 19.5,381.5C 19.5,384.167 19.5,386.833 19.5,389.5 Z"/></g>
<g><path style="opacity:1" fill="#b40c06" d="M 70.5,389.5 C 68.5,389.5 66.5,389.5 64.5,389.5C 64.5,392.167 64.5,394.833 64.5,397.5C 63.1667,397.5 61.8333,397.5 60.5,397.5C 60.5,394.833 60.5,392.167 60.5,389.5C 58.8333,389.5 57.1667,389.5 55.5,389.5C 55.5,386.833 55.5,384.167 55.5,381.5C 53.5853,381.216 51.9187,381.549 50.5,382.5C 49.5318,384.607 49.1984,386.941 49.5,389.5C 47.8333,389.5 46.1667,389.5 44.5,389.5C 44.5,392.167 44.5,394.833 44.5,397.5C 43.1667,397.5 41.8333,397.5 40.5,397.5C 40.5,394.833 40.5,392.167 40.5,389.5C 38.8333,389.5 37.1667,389.5 35.5,389.5C 35.8016,386.941 35.4682,384.607 34.5,382.5C 33.4324,381.566 32.099,381.232 30.5,381.5C 30.5,379.167 30.5,376.833 30.5,374.5C 32.099,374.768 33.4324,374.434 34.5,373.5C 34.5,370.833 34.5,368.167 34.5,365.5C 36.5,365.5 38.5,365.5 40.5,365.5C 40.5,362.833 40.5,360.167 40.5,357.5C 42.1667,357.5 43.8333,357.5 45.5,357.5C 45.5,360.167 45.5,362.833 45.5,365.5C 47.1667,365.5 48.8333,365.5 50.5,365.5C 50.5,368.167 50.5,370.833 50.5,373.5C 52.1667,373.5 53.8333,373.5 55.5,373.5C 55.5,370.833 55.5,368.167 55.5,365.5C 57.1667,365.5 58.8333,365.5 60.5,365.5C 60.5,362.833 60.5,360.167 60.5,357.5C 62.1667,357.5 63.8333,357.5 65.5,357.5C 65.5,360.167 65.5,362.833 65.5,365.5C 67.1667,365.5 68.8333,365.5 70.5,365.5C 70.5,368.167 70.5,370.833 70.5,373.5C 72.1667,373.5 73.8333,373.5 75.5,373.5C 75.5,376.167 75.5,378.833 75.5,381.5C 73.8333,381.5 72.1667,381.5 70.5,381.5C 70.5,384.167 70.5,386.833 70.5,389.5 Z"/></g>
<g><path style="opacity:1" fill="#fcf5f5" d="M 9.5,373.5 C 11.1667,373.5 12.8333,373.5 14.5,373.5C 14.5,376.167 14.5,378.833 14.5,381.5C 12.8333,381.5 11.1667,381.5 9.5,381.5C 9.5,378.833 9.5,376.167 9.5,373.5 Z"/></g>
<g><path style="opacity:1" fill="#d26b6a" d="M 34.5,373.5 C 33.4324,374.434 32.099,374.768 30.5,374.5C 30.5,376.833 30.5,379.167 30.5,381.5C 32.099,381.232 33.4324,381.566 34.5,382.5C 32.8333,382.5 31.1667,382.5 29.5,382.5C 29.5,379.5 29.5,376.5 29.5,373.5C 31.1667,373.5 32.8333,373.5 34.5,373.5 Z"/></g>
<g><path style="opacity:1" fill="#db8786" d="M 40.5,381.5 C 39.5269,379.052 39.1936,376.385 39.5,373.5C 41.5,373.5 43.5,373.5 45.5,373.5C 45.5,376.5 45.5,379.5 45.5,382.5C 43.5853,382.784 41.9187,382.451 40.5,381.5 Z"/></g>
<g><path style="opacity:1" fill="#fefffe" d="M 40.5,381.5 C 40.5,379.167 40.5,376.833 40.5,374.5C 41.8333,374.5 43.1667,374.5 44.5,374.5C 44.5,376.833 44.5,379.167 44.5,381.5C 43.1667,381.5 41.8333,381.5 40.5,381.5 Z"/></g>
<g><path style="opacity:1" fill="#fefffe" d="M 60.5,374.5 C 61.8333,374.5 63.1667,374.5 64.5,374.5C 64.5,376.833 64.5,379.167 64.5,381.5C 63.1667,381.5 61.8333,381.5 60.5,381.5C 60.5,379.167 60.5,376.833 60.5,374.5 Z"/></g>
<g><path style="opacity:1" fill="#eab8b7" d="M 60.5,374.5 C 61.9187,373.549 63.5853,373.216 65.5,373.5C 65.5,376.5 65.5,379.5 65.5,382.5C 63.5853,382.784 61.9187,382.451 60.5,381.5C 61.8333,381.5 63.1667,381.5 64.5,381.5C 64.5,379.167 64.5,376.833 64.5,374.5C 63.1667,374.5 61.8333,374.5 60.5,374.5 Z"/></g>
<g><path style="opacity:1" fill="#b30603" d="M 105.5,373.5 C 105.5,376.167 105.5,378.833 105.5,381.5C 103.833,381.5 102.167,381.5 100.5,381.5C 100.5,384.167 100.5,386.833 100.5,389.5C 98.8333,389.5 97.1667,389.5 95.5,389.5C 95.5,392.167 95.5,394.833 95.5,397.5C 94.1667,397.5 92.8333,397.5 91.5,397.5C 91.5,394.833 91.5,392.167 91.5,389.5C 89.5,389.5 87.5,389.5 85.5,389.5C 85.5,386.833 85.5,384.167 85.5,381.5C 83.8333,381.5 82.1667,381.5 80.5,381.5C 80.5,378.833 80.5,376.167 80.5,373.5C 82.1667,373.5 83.8333,373.5 85.5,373.5C 85.5,370.833 85.5,368.167 85.5,365.5C 87.1667,365.5 88.8333,365.5 90.5,365.5C 90.5,362.833 90.5,360.167 90.5,357.5C 92.1667,357.5 93.8333,357.5 95.5,357.5C 95.5,360.167 95.5,362.833 95.5,365.5C 97.1667,365.5 98.8333,365.5 100.5,365.5C 100.5,368.167 100.5,370.833 100.5,373.5C 102.167,373.5 103.833,373.5 105.5,373.5 Z"/></g>
<g><path style="opacity:1" fill="#fcf4f4" d="M 90.5,373.5 C 92.1667,373.5 93.8333,373.5 95.5,373.5C 95.5,376.167 95.5,378.833 95.5,381.5C 93.8333,381.5 92.1667,381.5 90.5,381.5C 90.5,378.833 90.5,376.167 90.5,373.5 Z"/></g>
<g><path style="opacity:1" fill="#e2a09f" d="M 50.5,382.5 C 51.9187,381.549 53.5853,381.216 55.5,381.5C 55.5,384.167 55.5,386.833 55.5,389.5C 54.5318,387.393 54.1984,385.059 54.5,382.5C 53.1667,382.5 51.8333,382.5 50.5,382.5 Z"/></g>
<g><path style="opacity:1" fill="#cb504b" d="M 70.5,389.5 C 69.0813,390.451 67.4147,390.784 65.5,390.5C 65.5,393.167 65.5,395.833 65.5,398.5C 63.5853,398.784 61.9187,398.451 60.5,397.5C 61.8333,397.5 63.1667,397.5 64.5,397.5C 64.5,394.833 64.5,392.167 64.5,389.5C 66.5,389.5 68.5,389.5 70.5,389.5 Z"/></g>
<g><path style="opacity:1" fill="#be3125" d="M 4.5,389.5 C 9.5,389.5 14.5,389.5 19.5,389.5C 18.0813,390.451 16.4147,390.784 14.5,390.5C 14.5,393.167 14.5,395.833 14.5,398.5C 12.8333,398.5 11.1667,398.5 9.5,398.5C 9.5,395.833 9.5,393.167 9.5,390.5C 7.58533,390.784 5.91866,390.451 4.5,389.5 Z"/></g>
<g><path style="opacity:1" fill="#d16562" d="M 29.5,390.5 C 28.1667,390.5 26.8333,390.5 25.5,390.5C 25.5,393.167 25.5,395.833 25.5,398.5C 23.8333,398.5 22.1667,398.5 20.5,398.5C 20.8064,401.385 20.4731,404.052 19.5,406.5C 19.5,403.5 19.5,400.5 19.5,397.5C 21.1667,397.5 22.8333,397.5 24.5,397.5C 24.5,394.833 24.5,392.167 24.5,389.5C 26.4147,389.216 28.0813,389.549 29.5,390.5 Z"/></g>
<g><path style="opacity:1" fill="#b5150b" d="M 29.5,390.5 C 29.5,393.167 29.5,395.833 29.5,398.5C 31.1667,398.5 32.8333,398.5 34.5,398.5C 34.5,401.167 34.5,403.833 34.5,406.5C 36.5,406.5 38.5,406.5 40.5,406.5C 40.5,409.167 40.5,411.833 40.5,414.5C 42.1667,414.5 43.8333,414.5 45.5,414.5C 45.5,417.167 45.5,419.833 45.5,422.5C 46.8333,422.5 48.1667,422.5 49.5,422.5C 49.5,425.167 49.5,427.833 49.5,430.5C 47.8333,430.5 46.1667,430.5 44.5,430.5C 42.8333,430.5 41.1667,430.5 39.5,430.5C 39.5,427.833 39.5,425.167 39.5,422.5C 37.8333,422.5 36.1667,422.5 34.5,422.5C 34.5,419.833 34.5,417.167 34.5,414.5C 32.8333,414.5 31.1667,414.5 29.5,414.5C 29.5,411.833 29.5,409.167 29.5,406.5C 27.8333,406.5 26.1667,406.5 24.5,406.5C 24.5,409.167 24.5,411.833 24.5,414.5C 22.8333,414.5 21.1667,414.5 19.5,414.5C 19.5,417.167 19.5,419.833 19.5,422.5C 17.8333,422.5 16.1667,422.5 14.5,422.5C 14.5,425.167 14.5,427.833 14.5,430.5C 12.8333,430.5 11.1667,430.5 9.5,430.5C 9.5,433.167 9.5,435.833 9.5,438.5C 11.1667,438.5 12.8333,438.5 14.5,438.5C 14.5,441.167 14.5,443.833 14.5,446.5C 16.4147,446.216 18.0813,446.549 19.5,447.5C 16.1667,447.5 12.8333,447.5 9.5,447.5C 7.83333,447.5 6.16667,447.5 4.5,447.5C 4.5,444.5 4.5,441.5 4.5,438.5C 2.83333,438.5 1.16667,438.5 -0.5,438.5C -0.5,435.833 -0.5,433.167 -0.5,430.5C 1.16667,430.5 2.83333,430.5 4.5,430.5C 4.5,427.833 4.5,425.167 4.5,422.5C 6.16667,422.5 7.83333,422.5 9.5,422.5C 9.5,419.833 9.5,417.167 9.5,414.5C 11.1667,414.5 12.8333,414.5 14.5,414.5C 14.5,411.833 14.5,409.167 14.5,406.5C 16.1667,406.5 17.8333,406.5 19.5,406.5C 20.4731,404.052 20.8064,401.385 20.5,398.5C 22.1667,398.5 23.8333,398.5 25.5,398.5C 25.5,395.833 25.5,393.167 25.5,390.5C 26.8333,390.5 28.1667,390.5 29.5,390.5 Z"/></g>
<g><path style="opacity:1" fill="#e09999" d="M 29.5,390.5 C 30.4682,392.607 30.8016,394.941 30.5,397.5C 32.099,397.232 33.4324,397.566 34.5,398.5C 32.8333,398.5 31.1667,398.5 29.5,398.5C 29.5,395.833 29.5,393.167 29.5,390.5 Z"/></g>
<g><path style="opacity:1" fill="#d67675" d="M 34.5,382.5 C 35.4682,384.607 35.8016,386.941 35.5,389.5C 37.1667,389.5 38.8333,389.5 40.5,389.5C 40.5,392.167 40.5,394.833 40.5,397.5C 41.8333,397.5 43.1667,397.5 44.5,397.5C 44.5,394.833 44.5,392.167 44.5,389.5C 46.1667,389.5 47.8333,389.5 49.5,389.5C 49.1984,386.941 49.5318,384.607 50.5,382.5C 50.5,385.167 50.5,387.833 50.5,390.5C 48.8333,390.5 47.1667,390.5 45.5,390.5C 45.5,393.167 45.5,395.833 45.5,398.5C 43.5,398.5 41.5,398.5 39.5,398.5C 39.5,395.833 39.5,393.167 39.5,390.5C 37.8333,390.5 36.1667,390.5 34.5,390.5C 34.5,387.833 34.5,385.167 34.5,382.5 Z"/></g>
<g><path style="opacity:1" fill="#c94b45" d="M 85.5,389.5 C 87.5,389.5 89.5,389.5 91.5,389.5C 91.5,392.167 91.5,394.833 91.5,397.5C 92.8333,397.5 94.1667,397.5 95.5,397.5C 94.0813,398.451 92.4147,398.784 90.5,398.5C 90.5,395.833 90.5,393.167 90.5,390.5C 88.5853,390.784 86.9187,390.451 85.5,389.5 Z"/></g>
<g><path style="opacity:1" fill="#b30403" d="M -0.5,398.5 C 1.16667,398.5 2.83333,398.5 4.5,398.5C 4.5,401.167 4.5,403.833 4.5,406.5C 2.83333,406.5 1.16667,406.5 -0.5,406.5C -0.5,403.833 -0.5,401.167 -0.5,398.5 Z"/></g>
<g><path style="opacity:1" fill="#b71a12" d="M 50.5,398.5 C 52.1667,398.5 53.8333,398.5 55.5,398.5C 55.5,401.167 55.5,403.833 55.5,406.5C 53.8333,406.5 52.1667,406.5 50.5,406.5C 50.5,403.833 50.5,401.167 50.5,398.5 Z"/></g>
<g><path style="opacity:1" fill="#b61710" d="M 105.5,398.5 C 105.5,401.167 105.5,403.833 105.5,406.5C 103.833,406.5 102.167,406.5 100.5,406.5C 100.5,403.833 100.5,401.167 100.5,398.5C 102.167,398.5 103.833,398.5 105.5,398.5 Z"/></g>
<g><path style="opacity:1" fill="#fdf9f9" d="M 44.5,430.5 C 44.5,433.167 44.5,435.833 44.5,438.5C 42.8333,438.5 41.1667,438.5 39.5,438.5C 39.5,441.167 39.5,443.833 39.5,446.5C 37.8333,446.5 36.1667,446.5 34.5,446.5C 34.5,449.167 34.5,451.833 34.5,454.5C 32.8333,454.5 31.1667,454.5 29.5,454.5C 29.5,457.5 29.5,460.5 29.5,463.5C 27.8333,463.5 26.1667,463.5 24.5,463.5C 24.5,460.833 24.5,458.167 24.5,455.5C 22.8333,455.5 21.1667,455.5 19.5,455.5C 19.5,452.833 19.5,450.167 19.5,447.5C 18.0813,446.549 16.4147,446.216 14.5,446.5C 14.5,443.833 14.5,441.167 14.5,438.5C 12.8333,438.5 11.1667,438.5 9.5,438.5C 9.5,435.833 9.5,433.167 9.5,430.5C 11.1667,430.5 12.8333,430.5 14.5,430.5C 14.5,427.833 14.5,425.167 14.5,422.5C 16.1667,422.5 17.8333,422.5 19.5,422.5C 19.5,419.833 19.5,417.167 19.5,414.5C 21.1667,414.5 22.8333,414.5 24.5,414.5C 24.5,411.833 24.5,409.167 24.5,406.5C 26.1667,406.5 27.8333,406.5 29.5,406.5C 29.5,409.167 29.5,411.833 29.5,414.5C 31.1667,414.5 32.8333,414.5 34.5,414.5C 34.5,417.167 34.5,419.833 34.5,422.5C 36.1667,422.5 37.8333,422.5 39.5,422.5C 39.5,425.167 39.5,427.833 39.5,430.5C 41.1667,430.5 42.8333,430.5 44.5,430.5 Z"/></g>
<g><path style="opacity:1" fill="#fefcfc" d="M 60.5,438.5 C 60.5,435.833 60.5,433.167 60.5,430.5C 62.1667,430.5 63.8333,430.5 65.5,430.5C 65.5,427.833 65.5,425.167 65.5,422.5C 67.1667,422.5 68.8333,422.5 70.5,422.5C 70.5,419.833 70.5,417.167 70.5,414.5C 72.1667,414.5 73.8333,414.5 75.5,414.5C 75.5,411.833 75.5,409.167 75.5,406.5C 77.1667,406.5 78.8333,406.5 80.5,406.5C 80.5,409.167 80.5,411.833 80.5,414.5C 82.1667,414.5 83.8333,414.5 85.5,414.5C 85.5,417.167 85.5,419.833 85.5,422.5C 87.1667,422.5 88.8333,422.5 90.5,422.5C 90.5,425.167 90.5,427.833 90.5,430.5C 92.1667,430.5 93.8333,430.5 95.5,430.5C 95.5,433.167 95.5,435.833 95.5,438.5C 93.8333,438.5 92.1667,438.5 90.5,438.5C 90.5,441.167 90.5,443.833 90.5,446.5C 88.8333,446.5 87.1667,446.5 85.5,446.5C 85.5,449.5 85.5,452.5 85.5,455.5C 83.8333,455.5 82.1667,455.5 80.5,455.5C 80.5,458.167 80.5,460.833 80.5,463.5C 78.8333,463.5 77.1667,463.5 75.5,463.5C 75.5,460.833 75.5,458.167 75.5,455.5C 73.8333,455.5 72.1667,455.5 70.5,455.5C 70.5,452.5 70.5,449.5 70.5,446.5C 68.8333,446.5 67.1667,446.5 65.5,446.5C 65.5,443.833 65.5,441.167 65.5,438.5C 63.8333,438.5 62.1667,438.5 60.5,438.5 Z"/></g>
<g><path style="opacity:1" fill="#b81e15" d="M 24.5,430.5 C 26.1667,430.5 27.8333,430.5 29.5,430.5C 29.5,433.167 29.5,435.833 29.5,438.5C 27.8333,438.5 26.1667,438.5 24.5,438.5C 24.5,435.833 24.5,433.167 24.5,430.5 Z"/></g>
<g><path style="opacity:1" fill="#b40d08" d="M 75.5,430.5 C 77.1667,430.5 78.8333,430.5 80.5,430.5C 80.5,433.167 80.5,435.833 80.5,438.5C 78.8333,438.5 77.1667,438.5 75.5,438.5C 75.5,435.833 75.5,433.167 75.5,430.5 Z"/></g>
<g><path style="opacity:1" fill="#cf5d5b" d="M 49.5,422.5 C 50.4731,424.948 50.8064,427.615 50.5,430.5C 52.1667,430.5 53.8333,430.5 55.5,430.5C 57.1667,430.5 58.8333,430.5 60.5,430.5C 60.5,433.167 60.5,435.833 60.5,438.5C 59.5318,436.393 59.1984,434.059 59.5,431.5C 54.8333,431.5 50.1667,431.5 45.5,431.5C 45.5,433.833 45.5,436.167 45.5,438.5C 47.1667,438.5 48.8333,438.5 50.5,438.5C 50.5,441.5 50.5,444.5 50.5,447.5C 48.8333,447.5 47.1667,447.5 45.5,447.5C 46.5676,446.566 47.901,446.232 49.5,446.5C 49.5,444.167 49.5,441.833 49.5,439.5C 46.5,439.5 43.5,439.5 40.5,439.5C 40.8016,442.059 40.4682,444.393 39.5,446.5C 39.5,443.833 39.5,441.167 39.5,438.5C 41.1667,438.5 42.8333,438.5 44.5,438.5C 44.5,435.833 44.5,433.167 44.5,430.5C 46.1667,430.5 47.8333,430.5 49.5,430.5C 49.5,427.833 49.5,425.167 49.5,422.5 Z"/></g>
<g><path style="opacity:1" fill="#fefdfd" d="M -0.5,438.5 C 1.16667,438.5 2.83333,438.5 4.5,438.5C 4.5,441.5 4.5,444.5 4.5,447.5C 6.16667,447.5 7.83333,447.5 9.5,447.5C 9.5,450.167 9.5,452.833 9.5,455.5C 11.1667,455.5 12.8333,455.5 14.5,455.5C 14.5,458.167 14.5,460.833 14.5,463.5C 16.1667,463.5 17.8333,463.5 19.5,463.5C 19.5,466.167 19.5,468.833 19.5,471.5C 21.1667,471.5 22.8333,471.5 24.5,471.5C 24.5,474.167 24.5,476.833 24.5,479.5C 16.1667,479.5 7.83333,479.5 -0.5,479.5C -0.5,465.833 -0.5,452.167 -0.5,438.5 Z"/></g>
<g><path style="opacity:1" fill="#fdfafa" d="M 50.5,438.5 C 52.1667,438.5 53.8333,438.5 55.5,438.5C 55.5,441.167 55.5,443.833 55.5,446.5C 57.1667,446.5 58.8333,446.5 60.5,446.5C 60.5,449.5 60.5,452.5 60.5,455.5C 62.1667,455.5 63.8333,455.5 65.5,455.5C 65.5,458.167 65.5,460.833 65.5,463.5C 67.1667,463.5 68.8333,463.5 70.5,463.5C 70.5,466.167 70.5,468.833 70.5,471.5C 72.1667,471.5 73.8333,471.5 75.5,471.5C 75.5,474.167 75.5,476.833 75.5,479.5C 68.8333,479.5 62.1667,479.5 55.5,479.5C 55.5,476.833 55.5,474.167 55.5,471.5C 53.8333,471.5 52.1667,471.5 50.5,471.5C 50.5,474.167 50.5,476.833 50.5,479.5C 43.5,479.5 36.5,479.5 29.5,479.5C 29.5,476.833 29.5,474.167 29.5,471.5C 31.1667,471.5 32.8333,471.5 34.5,471.5C 35.4731,469.052 35.8064,466.385 35.5,463.5C 37.1667,463.5 38.8333,463.5 40.5,463.5C 40.5,460.833 40.5,458.167 40.5,455.5C 42.1667,455.5 43.8333,455.5 45.5,455.5C 45.5,452.833 45.5,450.167 45.5,447.5C 47.1667,447.5 48.8333,447.5 50.5,447.5C 50.5,444.5 50.5,441.5 50.5,438.5 Z"/></g>
<g><path style="opacity:1" fill="#b30b06" d="M 105.5,430.5 C 105.5,433.167 105.5,435.833 105.5,438.5C 103.833,438.5 102.167,438.5 100.5,438.5C 100.5,441.167 100.5,443.833 100.5,446.5C 98.8333,446.5 97.1667,446.5 95.5,446.5C 95.5,449.5 95.5,452.5 95.5,455.5C 93.8333,455.5 92.1667,455.5 90.5,455.5C 90.5,458.167 90.5,460.833 90.5,463.5C 88.8333,463.5 87.1667,463.5 85.5,463.5C 85.5,466.167 85.5,468.833 85.5,471.5C 83.8333,471.5 82.1667,471.5 80.5,471.5C 80.5,474.167 80.5,476.833 80.5,479.5C 78.8333,479.5 77.1667,479.5 75.5,479.5C 75.5,476.833 75.5,474.167 75.5,471.5C 73.8333,471.5 72.1667,471.5 70.5,471.5C 70.5,468.833 70.5,466.167 70.5,463.5C 68.8333,463.5 67.1667,463.5 65.5,463.5C 65.5,460.833 65.5,458.167 65.5,455.5C 63.8333,455.5 62.1667,455.5 60.5,455.5C 60.5,452.5 60.5,449.5 60.5,446.5C 58.8333,446.5 57.1667,446.5 55.5,446.5C 55.5,443.833 55.5,441.167 55.5,438.5C 53.8333,438.5 52.1667,438.5 50.5,438.5C 48.8333,438.5 47.1667,438.5 45.5,438.5C 45.5,436.167 45.5,433.833 45.5,431.5C 50.1667,431.5 54.8333,431.5 59.5,431.5C 59.1984,434.059 59.5318,436.393 60.5,438.5C 62.1667,438.5 63.8333,438.5 65.5,438.5C 65.5,441.167 65.5,443.833 65.5,446.5C 67.1667,446.5 68.8333,446.5 70.5,446.5C 70.5,449.5 70.5,452.5 70.5,455.5C 72.1667,455.5 73.8333,455.5 75.5,455.5C 75.5,458.167 75.5,460.833 75.5,463.5C 77.1667,463.5 78.8333,463.5 80.5,463.5C 80.5,460.833 80.5,458.167 80.5,455.5C 82.1667,455.5 83.8333,455.5 85.5,455.5C 85.5,452.5 85.5,449.5 85.5,446.5C 87.1667,446.5 88.8333,446.5 90.5,446.5C 90.5,443.833 90.5,441.167 90.5,438.5C 92.1667,438.5 93.8333,438.5 95.5,438.5C 95.5,435.833 95.5,433.167 95.5,430.5C 93.8333,430.5 92.1667,430.5 90.5,430.5C 90.5,427.833 90.5,425.167 90.5,422.5C 88.8333,422.5 87.1667,422.5 85.5,422.5C 85.5,419.833 85.5,417.167 85.5,414.5C 83.8333,414.5 82.1667,414.5 80.5,414.5C 80.5,411.833 80.5,409.167 80.5,406.5C 78.8333,406.5 77.1667,406.5 75.5,406.5C 75.5,409.167 75.5,411.833 75.5,414.5C 73.8333,414.5 72.1667,414.5 70.5,414.5C 70.5,417.167 70.5,419.833 70.5,422.5C 68.8333,422.5 67.1667,422.5 65.5,422.5C 65.5,425.167 65.5,427.833 65.5,430.5C 63.8333,430.5 62.1667,430.5 60.5,430.5C 58.8333,430.5 57.1667,430.5 55.5,430.5C 55.5,427.833 55.5,425.167 55.5,422.5C 57.1667,422.5 58.8333,422.5 60.5,422.5C 60.5,419.833 60.5,417.167 60.5,414.5C 62.1667,414.5 63.8333,414.5 65.5,414.5C 65.5,411.833 65.5,409.167 65.5,406.5C 67.1667,406.5 68.8333,406.5 70.5,406.5C 70.5,403.833 70.5,401.167 70.5,398.5C 72.1667,398.5 73.8333,398.5 75.5,398.5C 75.5,395.833 75.5,393.167 75.5,390.5C 77.1667,390.5 78.8333,390.5 80.5,390.5C 80.5,393.167 80.5,395.833 80.5,398.5C 82.1667,398.5 83.8333,398.5 85.5,398.5C 85.5,401.167 85.5,403.833 85.5,406.5C 87.1667,406.5 88.8333,406.5 90.5,406.5C 90.5,409.167 90.5,411.833 90.5,414.5C 92.1667,414.5 93.8333,414.5 95.5,414.5C 95.5,417.167 95.5,419.833 95.5,422.5C 97.1667,422.5 98.8333,422.5 100.5,422.5C 100.5,425.167 100.5,427.833 100.5,430.5C 102.167,430.5 103.833,430.5 105.5,430.5 Z"/></g>
<g><path style="opacity:1" fill="#fdf9f9" d="M 105.5,438.5 C 105.5,452.167 105.5,465.833 105.5,479.5C 97.1667,479.5 88.8333,479.5 80.5,479.5C 80.5,476.833 80.5,474.167 80.5,471.5C 82.1667,471.5 83.8333,471.5 85.5,471.5C 85.5,468.833 85.5,466.167 85.5,463.5C 87.1667,463.5 88.8333,463.5 90.5,463.5C 90.5,460.833 90.5,458.167 90.5,455.5C 92.1667,455.5 93.8333,455.5 95.5,455.5C 95.5,452.5 95.5,449.5 95.5,446.5C 97.1667,446.5 98.8333,446.5 100.5,446.5C 100.5,443.833 100.5,441.167 100.5,438.5C 102.167,438.5 103.833,438.5 105.5,438.5 Z"/></g>
<g><path style="opacity:1" fill="#d67675" d="M 39.5,446.5 C 38.4324,447.434 37.099,447.768 35.5,447.5C 35.5,450.167 35.5,452.833 35.5,455.5C 33.8333,455.5 32.1667,455.5 30.5,455.5C 30.8064,458.385 30.4731,461.052 29.5,463.5C 29.5,460.5 29.5,457.5 29.5,454.5C 31.1667,454.5 32.8333,454.5 34.5,454.5C 34.5,451.833 34.5,449.167 34.5,446.5C 36.1667,446.5 37.8333,446.5 39.5,446.5 Z"/></g>
<g><path style="opacity:1" fill="#d36f6e" d="M 45.5,447.5 C 45.5,450.167 45.5,452.833 45.5,455.5C 43.8333,455.5 42.1667,455.5 40.5,455.5C 41.5676,454.566 42.901,454.232 44.5,454.5C 44.1984,451.941 44.5318,449.607 45.5,447.5 Z"/></g>
<g><path style="opacity:1" fill="#b40907" d="M 4.5,463.5 C 6.16667,463.5 7.83333,463.5 9.5,463.5C 9.5,466.167 9.5,468.833 9.5,471.5C 7.83333,471.5 6.16667,471.5 4.5,471.5C 4.5,468.833 4.5,466.167 4.5,463.5 Z"/></g>
<g><path style="opacity:1" fill="#b40f09" d="M 45.5,447.5 C 44.5318,449.607 44.1984,451.941 44.5,454.5C 42.901,454.232 41.5676,454.566 40.5,455.5C 39.5318,457.607 39.1984,459.941 39.5,462.5C 37.8333,462.5 36.1667,462.5 34.5,462.5C 34.5,465.5 34.5,468.5 34.5,471.5C 32.8333,471.5 31.1667,471.5 29.5,471.5C 29.5,474.167 29.5,476.833 29.5,479.5C 27.8333,479.5 26.1667,479.5 24.5,479.5C 24.5,476.833 24.5,474.167 24.5,471.5C 22.8333,471.5 21.1667,471.5 19.5,471.5C 19.5,468.833 19.5,466.167 19.5,463.5C 17.8333,463.5 16.1667,463.5 14.5,463.5C 14.5,460.833 14.5,458.167 14.5,455.5C 12.8333,455.5 11.1667,455.5 9.5,455.5C 9.5,452.833 9.5,450.167 9.5,447.5C 12.8333,447.5 16.1667,447.5 19.5,447.5C 19.5,450.167 19.5,452.833 19.5,455.5C 21.1667,455.5 22.8333,455.5 24.5,455.5C 24.5,458.167 24.5,460.833 24.5,463.5C 26.1667,463.5 27.8333,463.5 29.5,463.5C 30.4731,461.052 30.8064,458.385 30.5,455.5C 32.1667,455.5 33.8333,455.5 35.5,455.5C 35.5,452.833 35.5,450.167 35.5,447.5C 37.099,447.768 38.4324,447.434 39.5,446.5C 40.4682,444.393 40.8016,442.059 40.5,439.5C 43.5,439.5 46.5,439.5 49.5,439.5C 49.5,441.833 49.5,444.167 49.5,446.5C 47.901,446.232 46.5676,446.566 45.5,447.5 Z"/></g>
<g><path style="opacity:1" fill="#da8584" d="M 40.5,455.5 C 40.5,458.167 40.5,460.833 40.5,463.5C 38.8333,463.5 37.1667,463.5 35.5,463.5C 35.8064,466.385 35.4731,469.052 34.5,471.5C 34.5,468.5 34.5,465.5 34.5,462.5C 36.1667,462.5 37.8333,462.5 39.5,462.5C 39.1984,459.941 39.5318,457.607 40.5,455.5 Z"/></g>
<g><path style="opacity:1" fill="#b5120d" d="M 95.5,463.5 C 97.1667,463.5 98.8333,463.5 100.5,463.5C 100.5,466.167 100.5,468.833 100.5,471.5C 98.8333,471.5 97.1667,471.5 95.5,471.5C 95.5,468.833 95.5,466.167 95.5,463.5 Z"/></g>
<g><path style="opacity:1" fill="#b6170f" d="M 55.5,479.5 C 53.8333,479.5 52.1667,479.5 50.5,479.5C 50.5,476.833 50.5,474.167 50.5,471.5C 52.1667,471.5 53.8333,471.5 55.5,471.5C 55.5,474.167 55.5,476.833 55.5,479.5 Z"/></g>
</svg>
