<?xml version="1.0" encoding="UTF-8"?>
<!DOCTYPE svg PUBLIC "-//W3C//DTD SVG 1.1//EN" "http://www.w3.org/Graphics/SVG/1.1/DTD/svg11.dtd">
<svg xmlns="http://www.w3.org/2000/svg" version="1.1" width="640px" height="480px" style="shape-rendering:geometricPrecision; text-rendering:geometricPrecision; image-rendering:optimizeQuality; fill-rule:evenodd; clip-rule:evenodd" xmlns:xlink="http://www.w3.org/1999/xlink">
<g><path style="opacity:1" fill="#fcfcfd" d="M 0.5,-0.5 C 12.8333,-0.5 25.1667,-0.5 37.5,-0.5C 64.688,19.6909 91.8547,40.0243 119,60.5C 119.5,40.1694 119.667,19.8361 119.5,-0.5C 124.833,-0.5 130.167,-0.5 135.5,-0.5C 135.5,31.5 135.5,63.5 135.5,95.5C 90.1667,95.5 44.8333,95.5 -0.5,95.5C -0.5,90.1667 -0.5,84.8333 -0.5,79.5C 20.8359,79.6666 42.1693,79.5 63.5,79C 42.2892,62.9495 20.9559,47.1161 -0.5,31.5C -0.5,27.8333 -0.5,24.1667 -0.5,20.5C 25.3401,40.168 51.3401,59.668 77.5,79C 87.5,79.6667 97.5,79.6667 107.5,79C 71.6502,52.6367 35.9835,26.1367 0.5,-0.5 Z"/></g>
<g><path style="opacity:1" fill="#010066" d="M 37.5,-0.5 C 64.8333,-0.5 92.1667,-0.5 119.5,-0.5C 119.667,19.8361 119.5,40.1694 119,60.5C 91.8547,40.0243 64.688,19.6909 37.5,-0.5 Z"/></g>
<g><path style="opacity:1" fill="#c91931" d="M 135.5,-0.5 C 151.833,-0.5 168.167,-0.5 184.5,-0.5C 184.5,31.5 184.5,63.5 184.5,95.5C 229.5,95.5 274.5,95.5 319.5,95.5C 319.5,111.833 319.5,128.167 319.5,144.5C 274.5,144.5 229.5,144.5 184.5,144.5C 184.5,176.167 184.5,207.833 184.5,239.5C 168.167,239.5 151.833,239.5 135.5,239.5C 135.5,207.833 135.5,176.167 135.5,144.5C 90.1667,144.5 44.8333,144.5 -0.5,144.5C -0.5,128.167 -0.5,111.833 -0.5,95.5C 44.8333,95.5 90.1667,95.5 135.5,95.5C 135.5,63.5 135.5,31.5 135.5,-0.5 Z"/></g>
<g><path style="opacity:1" fill="#fcfbfc" d="M 184.5,-0.5 C 189.833,-0.5 195.167,-0.5 200.5,-0.5C 200.333,19.1695 200.5,38.8362 201,58.5C 227.351,38.9699 253.517,19.3033 279.5,-0.5C 284.167,-0.5 288.833,-0.5 293.5,-0.5C 262.312,23.0249 231.145,46.6916 200,70.5C 199.502,73.4816 199.335,76.4816 199.5,79.5C 205.176,79.6661 210.843,79.4994 216.5,79C 250.505,52.6713 284.838,26.838 319.5,1.5C 319.5,11.1667 319.5,20.8333 319.5,30.5C 297.863,46.6576 276.196,62.8243 254.5,79C 276.164,79.5 297.831,79.6666 319.5,79.5C 319.5,84.8333 319.5,90.1667 319.5,95.5C 274.5,95.5 229.5,95.5 184.5,95.5C 184.5,63.5 184.5,31.5 184.5,-0.5 Z"/></g>
<g><path style="opacity:1" fill="#020066" d="M 200.5,-0.5 C 226.833,-0.5 253.167,-0.5 279.5,-0.5C 253.517,19.3033 227.351,38.9699 201,58.5C 200.5,38.8362 200.333,19.1695 200.5,-0.5 Z"/></g>
<g><path style="opacity:1" fill="#c91731" d="M 293.5,-0.5 C 302.167,-0.5 310.833,-0.5 319.5,-0.5C 319.5,0.166667 319.5,0.833333 319.5,1.5C 284.838,26.838 250.505,52.6713 216.5,79C 210.843,79.4994 205.176,79.6661 199.5,79.5C 199.335,76.4816 199.502,73.4816 200,70.5C 231.145,46.6916 262.312,23.0249 293.5,-0.5 Z"/></g>
<g><path style="opacity:1" fill="#ce132a" d="M 319.5,-0.5 C 426.167,-0.5 532.833,-0.5 639.5,-0.5C 639.5,159.5 639.5,319.5 639.5,479.5C 426.167,479.5 212.833,479.5 -0.5,479.5C -0.5,399.5 -0.5,319.5 -0.5,239.5C -0.166667,239.5 0.166667,239.5 0.5,239.5C 9.5,239.5 18.5,239.5 27.5,239.5C 31.8333,239.5 36.1667,239.5 40.5,239.5C 66.8333,239.5 93.1667,239.5 119.5,239.5C 124.833,239.5 130.167,239.5 135.5,239.5C 151.833,239.5 168.167,239.5 184.5,239.5C 189.5,239.5 194.5,239.5 199.5,239.5C 199.833,239.5 200.167,239.5 200.5,239.5C 226.5,239.5 252.5,239.5 278.5,239.5C 291.833,239.5 305.167,239.5 318.5,239.5C 319.491,233.021 319.824,226.354 319.5,219.5C 319.5,215.833 319.5,212.167 319.5,208.5C 319.5,192.167 319.5,175.833 319.5,159.5C 319.5,154.5 319.5,149.5 319.5,144.5C 319.5,128.167 319.5,111.833 319.5,95.5C 319.5,90.1667 319.5,84.8333 319.5,79.5C 319.5,63.1667 319.5,46.8333 319.5,30.5C 319.5,20.8333 319.5,11.1667 319.5,1.5C 319.5,0.833333 319.5,0.166667 319.5,-0.5 Z"/></g>
<g><path style="opacity:1" fill="#c91731" d="M -0.5,-0.5 C -0.166667,-0.5 0.166667,-0.5 0.5,-0.5C 35.9835,26.1367 71.6502,52.6367 107.5,79C 97.5,79.6667 87.5,79.6667 77.5,79C 51.3401,59.668 25.3401,40.168 -0.5,20.5C -0.5,13.5 -0.5,6.5 -0.5,-0.5 Z"/></g>
<g><path style="opacity:1" fill="#020166" d="M 319.5,30.5 C 319.5,46.8333 319.5,63.1667 319.5,79.5C 297.831,79.6666 276.164,79.5 254.5,79C 276.196,62.8243 297.863,46.6576 319.5,30.5 Z"/></g>
<g><path style="opacity:1" fill="#020166" d="M -0.5,31.5 C 20.9559,47.1161 42.2892,62.9495 63.5,79C 42.1693,79.5 20.8359,79.6666 -0.5,79.5C -0.5,63.5 -0.5,47.5 -0.5,31.5 Z"/></g>
<g><path style="opacity:1" fill="#010100" d="M 559.5,130.5 C 559.167,130.5 558.833,130.5 558.5,130.5C 501.5,130.5 444.5,130.5 387.5,130.5C 387.5,182.5 387.5,234.5 387.5,286.5C 387.22,293.373 388.22,300.04 390.5,306.5C 388.672,303.865 387.505,300.865 387,297.5C 386.5,241.501 386.333,185.501 386.5,129.5C 444.336,129.168 502.002,129.501 559.5,130.5 Z"/></g>
<g><path style="opacity:1" fill="#fcfcfc" d="M 558.5,130.5 C 558.5,182.833 558.5,235.167 558.5,287.5C 557.819,289.158 556.985,290.825 556,292.5C 555.667,291.5 555.333,290.5 555,289.5C 552.382,294.569 551.382,294.569 552,289.5C 551,290.5 550,291.5 549,292.5C 548.833,292.167 548.667,291.833 548.5,291.5C 550.117,289.368 550.617,287.035 550,284.5C 546.453,292.728 544.786,292.394 545,283.5C 544.381,286.032 543.381,288.365 542,290.5C 541.929,288.891 542.096,287.224 542.5,285.5C 542.523,283.933 542.023,282.6 541,281.5C 540.304,285.893 538.304,289.56 535,292.5C 535.305,290.557 535.305,288.557 535,286.5C 533.985,289.063 532.485,290.396 530.5,290.5C 532.298,287.711 532.798,284.711 532,281.5C 531.194,284.446 529.861,287.112 528,289.5C 527.667,287.5 527.333,285.5 527,283.5C 526.439,285.725 525.439,287.725 524,289.5C 523.282,290.451 522.449,290.617 521.5,290C 522.669,287.993 523.335,285.827 523.5,283.5C 524.356,279.43 525.523,275.43 527,271.5C 527.667,272.167 528.333,272.833 529,273.5C 529.17,271.285 529.837,269.285 531,267.5C 531.186,270.036 531.686,272.369 532.5,274.5C 532.722,277.076 534.055,277.91 536.5,277C 535.864,274.606 535.864,272.106 536.5,269.5C 537.117,269.389 537.617,269.056 538,268.5C 538.21,270.058 538.71,271.391 539.5,272.5C 539.328,273.492 539.662,274.158 540.5,274.5C 541.14,276.332 542.14,276.665 543.5,275.5C 542.607,272.916 542.274,270.249 542.5,267.5C 543.105,265.026 544.105,262.693 545.5,260.5C 547.609,259.948 548.442,258.614 548,256.5C 542.248,257.935 539.081,255.602 538.5,249.5C 539.622,247.712 539.789,245.712 539,243.5C 533.775,236.463 526.942,233.797 518.5,235.5C 518.5,234.5 518.5,233.5 518.5,232.5C 518.328,231.508 518.662,230.842 519.5,230.5C 521.129,229.375 522.629,228.041 524,226.5C 526.128,229.458 528.794,230.124 532,228.5C 533.896,222.434 532.062,218.101 526.5,215.5C 526.629,213.784 526.962,212.117 527.5,210.5C 529.016,206.297 530.35,201.964 531.5,197.5C 531.36,195.97 530.693,194.97 529.5,194.5C 527.177,193.658 524.843,192.658 522.5,191.5C 521.584,191.543 520.917,191.876 520.5,192.5C 518.518,192.995 516.518,193.495 514.5,194C 511.137,197.943 507.137,198.443 502.5,195.5C 499.817,189.845 498.484,190.178 498.5,196.5C 497.373,195.878 496.373,195.045 495.5,194C 498.14,191.379 498.14,188.879 495.5,186.5C 495.196,185.85 494.863,185.183 494.5,184.5C 496.705,183.129 498.372,181.296 499.5,179C 499.022,177.358 498.022,176.191 496.5,175.5C 496.047,174.542 495.381,173.708 494.5,173C 496.437,172.878 497.77,172.045 498.5,170.5C 500.655,166.144 499.322,163.477 494.5,162.5C 495.473,160.932 495.64,159.265 495,157.5C 493.224,158.536 491.391,158.536 489.5,157.5C 489.167,156.833 488.833,156.167 488.5,155.5C 492.798,151.929 492.465,149.096 487.5,147C 488.791,145.708 488.791,144.542 487.5,143.5C 486.432,142.566 485.099,142.232 483.5,142.5C 483.715,140.821 483.048,139.821 481.5,139.5C 480.221,138.285 479.221,138.618 478.5,140.5C 477.833,140.5 477.167,140.5 476.5,140.5C 475.684,136.592 474.017,135.926 471.5,138.5C 469.244,139.438 466.91,139.438 464.5,138.5C 464.5,139.833 464.5,141.167 464.5,142.5C 462.833,142.5 461.167,142.5 459.5,142.5C 459.5,144.167 459.5,145.833 459.5,147.5C 457.901,147.232 456.568,147.566 455.5,148.5C 454.857,151.857 454.857,155.191 455.5,158.5C 454.07,158.579 452.736,158.246 451.5,157.5C 451.167,158 450.833,158.5 450.5,159C 451.167,160.667 451.833,162.333 452.5,164C 451.352,165.726 450.185,165.559 449,163.5C 445.332,167.66 446.165,170.827 451.5,173C 447.707,174.553 446.707,177.053 448.5,180.5C 449.174,182.024 450.174,183.358 451.5,184.5C 450.873,185.417 450.539,186.417 450.5,187.5C 449.539,189.265 449.205,191.265 449.5,193.5C 447.5,193.5 445.5,193.5 443.5,193.5C 443.5,194.5 443.5,195.5 443.5,196.5C 440.449,196.364 437.449,196.698 434.5,197.5C 432.959,196.714 431.626,195.714 430.5,194.5C 428.035,193.583 425.535,192.583 423,191.5C 420.465,192.583 417.965,193.583 415.5,194.5C 414.833,194.5 414.5,194.833 414.5,195.5C 413.115,198.285 413.782,200.618 416.5,202.5C 416.5,203.167 416.5,203.833 416.5,204.5C 415.972,208.21 416.972,211.377 419.5,214C 418.456,215.174 417.456,216.341 416.5,217.5C 412.924,219.823 411.757,223.157 413,227.5C 416.883,230.561 419.716,229.894 421.5,225.5C 423.177,227.54 424.844,229.54 426.5,231.5C 426.5,232.833 426.5,234.167 426.5,235.5C 422.181,236.035 417.848,236.535 413.5,237C 412.619,237.708 411.953,238.542 411.5,239.5C 409.629,239.859 408.129,240.859 407,242.5C 408.962,251.138 405.796,256.471 397.5,258.5C 398.167,259.833 399.167,260.833 400.5,261.5C 401.271,263.862 402.105,266.196 403,268.5C 403.782,271.257 403.282,273.757 401.5,276C 402.549,276.492 403.549,276.326 404.5,275.5C 405.919,273.664 407.086,271.664 408,269.5C 408.383,270.056 408.883,270.389 409.5,270.5C 409.192,272.924 409.526,275.257 410.5,277.5C 413.576,275.349 415.076,272.349 415,268.5C 415.202,270.256 415.702,271.922 416.5,273.5C 417.192,272.975 417.692,272.308 418,271.5C 418.608,273.066 419.442,274.4 420.5,275.5C 420.259,277.898 420.926,279.898 422.5,281.5C 423.077,285.983 424.744,289.983 427.5,293.5C 427.631,294.239 427.464,294.906 427,295.5C 425.615,294.449 424.615,293.116 424,291.5C 422.981,296.314 421.648,295.981 420,290.5C 419.845,292.856 419.845,295.189 420,297.5C 417.211,295.632 415.878,292.966 416,289.5C 414.806,291.623 414.14,293.957 414,296.5C 412.983,294.624 412.149,292.624 411.5,290.5C 410.979,293.778 410.813,297.111 411,300.5C 409.473,298.779 408.473,296.779 408,294.5C 406.956,295.623 406.29,296.956 406,298.5C 405.667,295.833 405.333,293.167 405,290.5C 404.581,289.328 403.915,288.328 403,287.5C 402.667,291.5 402.333,295.5 402,299.5C 398.253,294.889 396.586,289.556 397,283.5C 397.481,300.649 395.815,301.315 392,285.5C 393.449,301.106 391.949,301.439 387.5,286.5C 387.5,234.5 387.5,182.5 387.5,130.5C 444.5,130.5 501.5,130.5 558.5,130.5 Z"/></g>
<g><path style="opacity:1" fill="#5a3434" d="M 558.5,130.5 C 558.833,130.5 559.167,130.5 559.5,130.5C 560.665,185.665 560.832,240.998 560,296.5C 559.76,298.852 558.927,300.852 557.5,302.5C 558.329,297.547 558.663,292.547 558.5,287.5C 558.5,235.167 558.5,182.833 558.5,130.5 Z"/></g>
<g><path style="opacity:1" fill="#c70101" d="M 471.5,138.5 C 473.514,138.392 475.18,139.058 476.5,140.5C 477.167,140.5 477.833,140.5 478.5,140.5C 479.609,140.443 480.609,140.11 481.5,139.5C 482.011,141.195 482.678,142.861 483.5,144.5C 484.736,143.754 486.07,143.421 487.5,143.5C 487.141,145.371 486.141,146.871 484.5,148C 486.134,148.494 487.801,148.66 489.5,148.5C 489.552,150.903 489.219,153.236 488.5,155.5C 488.833,156.167 489.167,156.833 489.5,157.5C 490.681,159.067 492.347,159.901 494.5,160C 493.437,161.188 492.103,161.688 490.5,161.5C 490.273,163.933 491.273,165.599 493.5,166.5C 494.167,167.833 494.833,167.833 495.5,166.5C 496.222,166.082 496.722,165.416 497,164.5C 498.319,166.25 498.819,168.25 498.5,170.5C 496.621,171.341 494.621,171.675 492.5,171.5C 492.192,173.924 492.526,176.257 493.5,178.5C 494.735,177.66 495.735,176.66 496.5,175.5C 497.218,177.137 497.384,178.803 497,180.5C 494.842,181.826 493.008,183.493 491.5,185.5C 492.325,187.7 493.658,188.034 495.5,186.5C 497.194,189.589 496.528,192.089 493.5,194C 494.5,195 495.5,196 496.5,197C 497.437,197.692 498.103,197.525 498.5,196.5C 499.117,196.389 499.617,196.056 500,195.5C 500.41,198.714 501.91,199.38 504.5,197.5C 507.565,198.064 510.565,198.731 513.5,199.5C 511.3,201.262 510.133,203.596 510,206.5C 508.007,205.086 505.84,204.086 503.5,203.5C 502.508,203.672 501.842,203.338 501.5,202.5C 499.664,200.412 497.331,199.079 494.5,198.5C 492.847,198.34 491.514,197.674 490.5,196.5C 489.378,195.844 488.045,195.511 486.5,195.5C 480.732,197.752 474.732,198.752 468.5,198.5C 468.167,198.5 467.833,198.5 467.5,198.5C 466.22,197.069 464.553,196.402 462.5,196.5C 459.833,196.5 457.167,196.5 454.5,196.5C 451.669,197.079 449.336,198.412 447.5,200.5C 446.508,200.328 445.842,200.662 445.5,201.5C 443.326,201.75 441.659,202.75 440.5,204.5C 439.486,205.674 438.153,206.34 436.5,206.5C 434.593,204.553 433.427,202.22 433,199.5C 436.65,197.954 440.484,197.287 444.5,197.5C 444.5,196.5 444.5,195.5 444.5,194.5C 450.899,195.773 452.899,193.44 450.5,187.5C 454.46,184.34 453.793,182.006 448.5,180.5C 448.128,177.978 448.961,175.978 451,174.5C 451.483,175.448 451.649,176.448 451.5,177.5C 452.822,177.67 453.989,177.337 455,176.5C 455.837,174.179 456.17,171.845 456,169.5C 450.954,172.779 448.621,171.446 449,165.5C 454.548,167.046 455.715,165.379 452.5,160.5C 453.602,159.824 454.602,159.158 455.5,158.5C 456.995,158.585 457.995,157.919 458.5,156.5C 456.377,154.255 455.377,151.588 455.5,148.5C 457.604,148.799 459.604,148.466 461.5,147.5C 460.754,146.264 460.421,144.93 460.5,143.5C 462.06,143.519 463.56,143.852 465,144.5C 466.713,143.863 466.879,142.863 465.5,141.5C 466.776,140.355 468.109,140.355 469.5,141.5C 470.919,140.995 471.585,139.995 471.5,138.5 Z"/></g>
<g><path style="opacity:1" fill="#342221" d="M 476.5,140.5 C 475.18,139.058 473.514,138.392 471.5,138.5C 474.017,135.926 475.684,136.592 476.5,140.5 Z"/></g>
<g><path style="opacity:1" fill="#291312" d="M 481.5,139.5 C 480.609,140.11 479.609,140.443 478.5,140.5C 479.221,138.618 480.221,138.285 481.5,139.5 Z"/></g>
<g><path style="opacity:1" fill="#2e1f1f" d="M 481.5,139.5 C 483.048,139.821 483.715,140.821 483.5,142.5C 485.099,142.232 486.432,142.566 487.5,143.5C 486.07,143.421 484.736,143.754 483.5,144.5C 482.678,142.861 482.011,141.195 481.5,139.5 Z"/></g>
<g><path style="opacity:1" fill="#fcfbfc" d="M -0.5,144.5 C 44.8333,144.5 90.1667,144.5 135.5,144.5C 135.5,176.167 135.5,207.833 135.5,239.5C 130.167,239.5 124.833,239.5 119.5,239.5C 119.667,219.831 119.5,200.164 119,180.5C 92.6495,200.03 66.4828,219.697 40.5,239.5C 36.1667,239.5 31.8333,239.5 27.5,239.5C 57.699,215.813 88.3657,192.646 119.5,170C 120.456,166.606 120.789,163.106 120.5,159.5C 115.041,159.103 109.708,159.603 104.5,161C 69.6492,187.03 34.9826,213.197 0.5,239.5C 0.166667,239.5 -0.166667,239.5 -0.5,239.5C -0.5,229.5 -0.5,219.5 -0.5,209.5C 21.623,193.217 43.623,176.717 65.5,160C 43.5025,159.5 21.5025,159.333 -0.5,159.5C -0.5,154.5 -0.5,149.5 -0.5,144.5 Z"/></g>
<g><path style="opacity:1" fill="#fdfdfd" d="M 319.5,144.5 C 319.5,149.5 319.5,154.5 319.5,159.5C 297.497,159.333 275.497,159.5 253.5,160C 275.352,176.42 297.352,192.587 319.5,208.5C 319.5,212.167 319.5,215.833 319.5,219.5C 293.044,200.217 266.711,180.717 240.5,161C 230.934,159.387 221.267,159.053 211.5,160C 247.35,186.363 283.016,212.863 318.5,239.5C 305.167,239.5 291.833,239.5 278.5,239.5C 253.051,219.935 227.384,200.602 201.5,181.5C 201.44,180.957 201.107,180.624 200.5,180.5C 199.5,200.155 199.167,219.822 199.5,239.5C 194.5,239.5 189.5,239.5 184.5,239.5C 184.5,207.833 184.5,176.167 184.5,144.5C 229.5,144.5 274.5,144.5 319.5,144.5 Z"/></g>
<g><path style="opacity:1" fill="#241716" d="M 471.5,138.5 C 471.585,139.995 470.919,140.995 469.5,141.5C 468.109,140.355 466.776,140.355 465.5,141.5C 466.879,142.863 466.713,143.863 465,144.5C 463.56,143.852 462.06,143.519 460.5,143.5C 460.421,144.93 460.754,146.264 461.5,147.5C 459.604,148.466 457.604,148.799 455.5,148.5C 456.568,147.566 457.901,147.232 459.5,147.5C 459.5,145.833 459.5,144.167 459.5,142.5C 461.167,142.5 462.833,142.5 464.5,142.5C 464.5,141.167 464.5,139.833 464.5,138.5C 466.91,139.438 469.244,139.438 471.5,138.5 Z"/></g>
<g><path style="opacity:1" fill="#321d1b" d="M 487.5,143.5 C 488.791,144.542 488.791,145.708 487.5,147C 492.465,149.096 492.798,151.929 488.5,155.5C 489.219,153.236 489.552,150.903 489.5,148.5C 487.801,148.66 486.134,148.494 484.5,148C 486.141,146.871 487.141,145.371 487.5,143.5 Z"/></g>
<g><path style="opacity:1" fill="#410400" d="M 471.5,144.5 C 472.404,145.209 472.737,146.209 472.5,147.5C 476.276,147.469 476.443,148.136 473,149.5C 471.5,149 470,148.5 468.5,148C 469.448,147.517 470.448,147.351 471.5,147.5C 471.5,146.5 471.5,145.5 471.5,144.5 Z"/></g>
<g><path style="opacity:1" fill="#2e1613" d="M 455.5,148.5 C 455.377,151.588 456.377,154.255 458.5,156.5C 457.995,157.919 456.995,158.585 455.5,158.5C 454.857,155.191 454.857,151.857 455.5,148.5 Z"/></g>
<g><path style="opacity:1" fill="#c58781" d="M 464.5,150.5 C 466.484,150.383 468.15,151.05 469.5,152.5C 466.83,154.09 465.163,153.423 464.5,150.5 Z"/></g>
<g><path style="opacity:1" fill="#b3685f" d="M 478.5,149.5 C 479.5,149.5 480.5,149.5 481.5,149.5C 481.616,152.91 479.95,154.244 476.5,153.5C 476.527,151.801 477.194,150.467 478.5,149.5 Z"/></g>
<g><path style="opacity:1" fill="#301512" d="M 489.5,157.5 C 491.391,158.536 493.224,158.536 495,157.5C 495.64,159.265 495.473,160.932 494.5,162.5C 493.624,162.369 492.957,162.702 492.5,163.5C 493.127,164.417 493.461,165.417 493.5,166.5C 491.273,165.599 490.273,163.933 490.5,161.5C 492.103,161.688 493.437,161.188 494.5,160C 492.347,159.901 490.681,159.067 489.5,157.5 Z"/></g>
<g><path style="opacity:1" fill="#020166" d="M -0.5,159.5 C 21.5025,159.333 43.5025,159.5 65.5,160C 43.623,176.717 21.623,193.217 -0.5,209.5C -0.5,192.833 -0.5,176.167 -0.5,159.5 Z"/></g>
<g><path style="opacity:1" fill="#c91731" d="M 27.5,239.5 C 18.5,239.5 9.5,239.5 0.5,239.5C 34.9826,213.197 69.6492,187.03 104.5,161C 109.708,159.603 115.041,159.103 120.5,159.5C 120.789,163.106 120.456,166.606 119.5,170C 88.3657,192.646 57.699,215.813 27.5,239.5 Z"/></g>
<g><path style="opacity:1" fill="#c91731" d="M 319.5,219.5 C 319.824,226.354 319.491,233.021 318.5,239.5C 283.016,212.863 247.35,186.363 211.5,160C 221.267,159.053 230.934,159.387 240.5,161C 266.711,180.717 293.044,200.217 319.5,219.5 Z"/></g>
<g><path style="opacity:1" fill="#020166" d="M 319.5,159.5 C 319.5,175.833 319.5,192.167 319.5,208.5C 297.352,192.587 275.352,176.42 253.5,160C 275.497,159.5 297.497,159.333 319.5,159.5 Z"/></g>
<g><path style="opacity:1" fill="#b9b8b8" d="M 494.5,162.5 C 495.234,163.708 495.567,165.041 495.5,166.5C 494.833,167.833 494.167,167.833 493.5,166.5C 493.461,165.417 493.127,164.417 492.5,163.5C 492.957,162.702 493.624,162.369 494.5,162.5 Z"/></g>
<g><path style="opacity:1" fill="#310700" d="M 472.5,158.5 C 474.141,160.203 475.141,162.37 475.5,165C 474.975,165.692 474.308,166.192 473.5,166.5C 471.259,166.502 468.926,166.168 466.5,165.5C 467.981,165.635 469.647,165.301 471.5,164.5C 472.466,162.604 472.799,160.604 472.5,158.5 Z"/></g>
<g><path style="opacity:1" fill="#412f2c" d="M 455.5,158.5 C 454.602,159.158 453.602,159.824 452.5,160.5C 455.715,165.379 454.548,167.046 449,165.5C 448.621,171.446 450.954,172.779 456,169.5C 456.17,171.845 455.837,174.179 455,176.5C 453.989,177.337 452.822,177.67 451.5,177.5C 451.649,176.448 451.483,175.448 451,174.5C 448.961,175.978 448.128,177.978 448.5,180.5C 446.707,177.053 447.707,174.553 451.5,173C 446.165,170.827 445.332,167.66 449,163.5C 450.185,165.559 451.352,165.726 452.5,164C 451.833,162.333 451.167,160.667 450.5,159C 450.833,158.5 451.167,158 451.5,157.5C 452.736,158.246 454.07,158.579 455.5,158.5 Z"/></g>
<g><path style="opacity:1" fill="#1e1616" d="M 494.5,162.5 C 499.322,163.477 500.655,166.144 498.5,170.5C 498.819,168.25 498.319,166.25 497,164.5C 496.722,165.416 496.222,166.082 495.5,166.5C 495.567,165.041 495.234,163.708 494.5,162.5 Z"/></g>
<g><path style="opacity:1" fill="#480000" d="M 470.5,171.5 C 472.288,170.378 474.288,170.211 476.5,171C 474.635,172.8 472.635,172.966 470.5,171.5 Z"/></g>
<g><path style="opacity:1" fill="#2f2222" d="M 498.5,170.5 C 497.77,172.045 496.437,172.878 494.5,173C 495.381,173.708 496.047,174.542 496.5,175.5C 495.735,176.66 494.735,177.66 493.5,178.5C 492.526,176.257 492.192,173.924 492.5,171.5C 494.621,171.675 496.621,171.341 498.5,170.5 Z"/></g>
<g><path style="opacity:1" fill="#770001" d="M 473.5,174.5 C 475.117,176.98 475.45,179.646 474.5,182.5C 472.003,182.065 470.837,180.731 471,178.5C 471.667,179.167 472.333,179.833 473,180.5C 473.495,178.527 473.662,176.527 473.5,174.5 Z"/></g>
<g><path style="opacity:1" fill="#2e0000" d="M 459.5,177.5 C 460.776,178.386 460.776,179.386 459.5,180.5C 458.913,179.767 458.913,178.767 459.5,177.5 Z"/></g>
<g><path style="opacity:1" fill="#7f7fb2" d="M 201.5,181.5 C 200.503,200.659 200.17,219.993 200.5,239.5C 200.167,239.5 199.833,239.5 199.5,239.5C 199.167,219.822 199.5,200.155 200.5,180.5C 201.107,180.624 201.44,180.957 201.5,181.5 Z"/></g>
<g><path style="opacity:1" fill="#010066" d="M 119.5,239.5 C 93.1667,239.5 66.8333,239.5 40.5,239.5C 66.4828,219.697 92.6495,200.03 119,180.5C 119.5,200.164 119.667,219.831 119.5,239.5 Z"/></g>
<g><path style="opacity:1" fill="#020066" d="M 201.5,181.5 C 227.384,200.602 253.051,219.935 278.5,239.5C 252.5,239.5 226.5,239.5 200.5,239.5C 200.17,219.993 200.503,200.659 201.5,181.5 Z"/></g>
<g><path style="opacity:1" fill="#3f2f2e" d="M 448.5,180.5 C 453.793,182.006 454.46,184.34 450.5,187.5C 450.539,186.417 450.873,185.417 451.5,184.5C 450.174,183.358 449.174,182.024 448.5,180.5 Z"/></g>
<g><path style="opacity:1" fill="#32201f" d="M 496.5,175.5 C 498.022,176.191 499.022,177.358 499.5,179C 498.372,181.296 496.705,183.129 494.5,184.5C 494.863,185.183 495.196,185.85 495.5,186.5C 493.658,188.034 492.325,187.7 491.5,185.5C 493.008,183.493 494.842,181.826 497,180.5C 497.384,178.803 497.218,177.137 496.5,175.5 Z"/></g>
<g><path style="opacity:1" fill="#3e0300" d="M 485.5,182.5 C 486.265,183.66 487.265,184.66 488.5,185.5C 489.086,185.291 489.586,184.957 490,184.5C 490.667,185.833 490.667,187.167 490,188.5C 489.009,187.061 487.676,186.061 486,185.5C 485.517,184.552 485.351,183.552 485.5,182.5 Z"/></g>
<g><path style="opacity:1" fill="#3a0500" d="M 482.5,179.5 C 483.317,181.969 483.817,184.635 484,187.5C 484.903,188.701 486.069,189.535 487.5,190C 485.633,190.711 484.133,190.211 483,188.5C 482.502,185.518 482.335,182.518 482.5,179.5 Z"/></g>
<g><path style="opacity:1" fill="#221a1a" d="M 430.5,194.5 C 428.856,194.286 427.356,194.62 426,195.5C 423.967,191.524 422.134,191.524 420.5,195.5C 418.958,194.699 417.292,194.366 415.5,194.5C 417.965,193.583 420.465,192.583 423,191.5C 425.535,192.583 428.035,193.583 430.5,194.5 Z"/></g>
<g><path style="opacity:1" fill="#2d1412" d="M 495.5,186.5 C 498.14,188.879 498.14,191.379 495.5,194C 496.373,195.045 497.373,195.878 498.5,196.5C 498.103,197.525 497.437,197.692 496.5,197C 495.5,196 494.5,195 493.5,194C 496.528,192.089 497.194,189.589 495.5,186.5 Z"/></g>
<g><path style="opacity:1" fill="#c10002" d="M 520.5,192.5 C 522.973,192.088 524.306,193.088 524.5,195.5C 523.209,195.263 522.209,195.596 521.5,196.5C 521.167,196.5 520.833,196.5 520.5,196.5C 519.595,195.036 519.595,193.702 520.5,192.5 Z"/></g>
<g><path style="opacity:1" fill="#281515" d="M 520.5,192.5 C 520.917,191.876 521.584,191.543 522.5,191.5C 524.843,192.658 527.177,193.658 529.5,194.5C 528.5,194.5 527.5,194.5 526.5,194.5C 526.5,195.5 526.5,196.5 526.5,197.5C 525.833,197.167 525.167,196.833 524.5,196.5C 524.5,196.167 524.5,195.833 524.5,195.5C 524.306,193.088 522.973,192.088 520.5,192.5 Z"/></g>
<g><path style="opacity:1" fill="#b70106" d="M 529.5,194.5 C 530.303,195.423 530.47,196.423 530,197.5C 528.855,196.316 527.688,196.316 526.5,197.5C 526.5,196.5 526.5,195.5 526.5,194.5C 527.5,194.5 528.5,194.5 529.5,194.5 Z"/></g>
<g><path style="opacity:1" fill="#7b0918" d="M 415.5,194.5 C 417.292,194.366 418.958,194.699 420.5,195.5C 420.5,196.167 420.5,196.833 420.5,197.5C 417.918,197.975 415.918,197.308 414.5,195.5C 414.5,194.833 414.833,194.5 415.5,194.5 Z"/></g>
<g><path style="opacity:1" fill="#321a17" d="M 520.5,192.5 C 519.595,193.702 519.595,195.036 520.5,196.5C 519.472,196.926 518.139,196.926 516.5,196.5C 519.209,194.868 518.875,194.368 515.5,195C 513.963,196.11 513.297,197.61 513.5,199.5C 510.565,198.731 507.565,198.064 504.5,197.5C 501.91,199.38 500.41,198.714 500,195.5C 499.617,196.056 499.117,196.389 498.5,196.5C 498.484,190.178 499.817,189.845 502.5,195.5C 507.137,198.443 511.137,197.943 514.5,194C 516.518,193.495 518.518,192.995 520.5,192.5 Z"/></g>
<g><path style="opacity:1" fill="#251613" d="M 450.5,187.5 C 452.899,193.44 450.899,195.773 444.5,194.5C 444.5,195.5 444.5,196.5 444.5,197.5C 440.484,197.287 436.65,197.954 433,199.5C 433.427,202.22 434.593,204.553 436.5,206.5C 435.432,207.434 434.099,207.768 432.5,207.5C 433.901,204.691 433.234,202.357 430.5,200.5C 431.623,198.518 431.623,196.518 430.5,194.5C 431.626,195.714 432.959,196.714 434.5,197.5C 437.449,196.698 440.449,196.364 443.5,196.5C 443.5,195.5 443.5,194.5 443.5,193.5C 445.5,193.5 447.5,193.5 449.5,193.5C 449.205,191.265 449.539,189.265 450.5,187.5 Z"/></g>
<g><path style="opacity:1" fill="#c7a702" d="M 454.5,196.5 C 457.167,196.5 459.833,196.5 462.5,196.5C 463.167,197.833 464.167,198.833 465.5,199.5C 466.906,204.931 464.906,207.265 459.5,206.5C 459.116,204.335 459.783,202.668 461.5,201.5C 461.833,201.833 462.167,202.167 462.5,202.5C 461.833,203.167 461.167,203.833 460.5,204.5C 461.651,205.731 462.817,205.731 464,204.5C 464.507,202.165 463.84,200.165 462,198.5C 459.723,199.117 457.556,199.784 455.5,200.5C 452.515,201.326 449.849,202.659 447.5,204.5C 443.646,205.93 439.979,207.597 436.5,209.5C 431.929,209.946 427.596,209.28 423.5,207.5C 426.37,208.249 429.37,208.249 432.5,207.5C 434.099,207.768 435.432,207.434 436.5,206.5C 438.153,206.34 439.486,205.674 440.5,204.5C 442.674,204.25 444.341,203.25 445.5,201.5C 445.842,200.662 446.508,200.328 447.5,200.5C 450.331,199.921 452.664,198.588 454.5,196.5 Z"/></g>
<g><path style="opacity:1" fill="#1f1300" d="M 462.5,196.5 C 464.553,196.402 466.22,197.069 467.5,198.5C 466.508,198.328 465.842,198.662 465.5,199.5C 464.167,198.833 463.167,197.833 462.5,196.5 Z"/></g>
<g><path style="opacity:1" fill="#6c97c0" d="M 420.5,195.5 C 421.791,195.263 422.791,195.596 423.5,196.5C 423.716,198.681 422.883,200.347 421,201.5C 420.51,200.207 420.343,198.873 420.5,197.5C 420.5,196.833 420.5,196.167 420.5,195.5 Z"/></g>
<g><path style="opacity:1" fill="#2f1602" d="M 494.5,198.5 C 497.331,199.079 499.664,200.412 501.5,202.5C 498.669,201.921 496.336,200.588 494.5,198.5 Z"/></g>
<g><path style="opacity:1" fill="#2e1601" d="M 454.5,196.5 C 452.664,198.588 450.331,199.921 447.5,200.5C 449.336,198.412 451.669,197.079 454.5,196.5 Z"/></g>
<g><path style="opacity:1" fill="#cead00" d="M 465.5,199.5 C 465.842,198.662 466.508,198.328 467.5,198.5C 467.833,198.5 468.167,198.5 468.5,198.5C 471.625,199.479 474.958,199.813 478.5,199.5C 478.715,201.179 478.048,202.179 476.5,202.5C 473.77,201.183 470.937,201.183 468,202.5C 467.623,201.058 466.79,200.058 465.5,199.5 Z"/></g>
<g><path style="opacity:1" fill="#292f6d" d="M 529.5,194.5 C 530.693,194.97 531.36,195.97 531.5,197.5C 530.35,201.964 529.016,206.297 527.5,210.5C 527.662,208.473 527.495,206.473 527,204.5C 525.984,205.634 525.317,205.301 525,203.5C 524.21,207.128 522.043,209.128 518.5,209.5C 522.415,206.412 521.748,205.745 516.5,207.5C 516.167,207.5 515.833,207.5 515.5,207.5C 513.983,205.064 514.316,202.898 516.5,201C 515.199,199.384 515.199,197.884 516.5,196.5C 518.139,196.926 519.472,196.926 520.5,196.5C 520.833,196.5 521.167,196.5 521.5,196.5C 522.052,198.331 522.052,199.997 521.5,201.5C 521.808,202.308 522.308,202.975 523,203.5C 523.827,202.338 524.66,201.171 525.5,200C 525.011,198.862 524.678,197.695 524.5,196.5C 525.167,196.833 525.833,197.167 526.5,197.5C 527.688,196.316 528.855,196.316 530,197.5C 530.47,196.423 530.303,195.423 529.5,194.5 Z"/></g>
<g><path style="opacity:1" fill="#7fafcf" d="M 516.5,197.5 C 519.001,197.826 520.168,199.159 520,201.5C 517.929,200.897 516.762,199.564 516.5,197.5 Z"/></g>
<g><path style="opacity:1" fill="#221f0d" d="M 459.5,206.5 C 458.193,204.777 458.193,202.943 459.5,201C 458.207,200.51 456.873,200.343 455.5,200.5C 457.556,199.784 459.723,199.117 462,198.5C 463.84,200.165 464.507,202.165 464,204.5C 462.817,205.731 461.651,205.731 460.5,204.5C 461.167,203.833 461.833,203.167 462.5,202.5C 462.167,202.167 461.833,201.833 461.5,201.5C 459.783,202.668 459.116,204.335 459.5,206.5 Z"/></g>
<g><path style="opacity:1" fill="#61aeca" d="M 455.5,200.5 C 456.873,200.343 458.207,200.51 459.5,201C 458.193,202.943 458.193,204.777 459.5,206.5C 459.962,207.88 460.962,208.547 462.5,208.5C 466.333,206.579 470.333,205.246 474.5,204.5C 475.791,204.263 476.791,204.596 477.5,205.5C 480.266,208.977 483.432,209.31 487,206.5C 487.743,204.559 487.576,202.726 486.5,201C 487,200.833 487.5,200.667 488,200.5C 491.796,202.316 495.63,203.983 499.5,205.5C 505.173,210.282 511.507,211.615 518.5,209.5C 522.043,209.128 524.21,207.128 525,203.5C 525.317,205.301 525.984,205.634 527,204.5C 527.495,206.473 527.662,208.473 527.5,210.5C 526.962,212.117 526.629,213.784 526.5,215.5C 525.732,214.737 525.232,213.737 525,212.5C 524.333,213.833 524.333,215.167 525,216.5C 532.779,220.058 532.279,221.891 523.5,222C 517.12,224.878 513.12,229.712 511.5,236.5C 504.105,234.236 496.605,232.236 489,230.5C 487.93,230.528 487.097,230.861 486.5,231.5C 484.833,232.167 483.167,232.833 481.5,233.5C 479.07,228.963 476.403,224.63 473.5,220.5C 473.143,218.411 472.477,216.411 471.5,214.5C 470.252,215.04 469.085,215.707 468,216.5C 467.319,214.105 466.485,211.772 465.5,209.5C 464.657,211.231 464.657,213.065 465.5,215C 464.915,217.134 463.582,218.634 461.5,219.5C 462.946,221.618 463.613,223.951 463.5,226.5C 461.61,226.703 460.11,226.037 459,224.5C 458.01,218.175 454.51,214.675 448.5,214C 447.281,215.795 446.281,215.628 445.5,213.5C 445.53,212.503 445.03,211.836 444,211.5C 439.837,213.56 435.67,215.56 431.5,217.5C 429.847,216.201 428.347,216.534 427,218.5C 426.667,220.5 426.333,222.5 426,224.5C 422.725,221.707 419.225,221.04 415.5,222.5C 414.957,222.44 414.624,222.107 414.5,221.5C 415.18,220.14 415.847,218.807 416.5,217.5C 421.21,215.776 421.71,213.109 418,209.5C 417.506,207.866 417.34,206.199 417.5,204.5C 418.833,205.833 420.167,205.833 421.5,204.5C 421.427,206.027 422.094,207.027 423.5,207.5C 427.596,209.28 431.929,209.946 436.5,209.5C 440.836,209.163 444.503,207.496 447.5,204.5C 449.849,202.659 452.515,201.326 455.5,200.5 Z"/></g>
<g><path style="opacity:1" fill="#617c9f" d="M 524.5,195.5 C 524.5,195.833 524.5,196.167 524.5,196.5C 524.678,197.695 525.011,198.862 525.5,200C 524.66,201.171 523.827,202.338 523,203.5C 522.308,202.975 521.808,202.308 521.5,201.5C 522.052,199.997 522.052,198.331 521.5,196.5C 522.209,195.596 523.209,195.263 524.5,195.5 Z"/></g>
<g><path style="opacity:1" fill="#7eb7d3" d="M 526.5,198.5 C 529.928,199.235 530.094,200.902 527,203.5C 526.506,201.866 526.34,200.199 526.5,198.5 Z"/></g>
<g><path style="opacity:1" fill="#b70105" d="M 430.5,194.5 C 431.623,196.518 431.623,198.518 430.5,200.5C 433.234,202.357 433.901,204.691 432.5,207.5C 431.209,207.737 430.209,207.404 429.5,206.5C 430.478,206.189 431.145,205.522 431.5,204.5C 430.687,203.186 429.687,202.019 428.5,201C 429.38,199.644 429.714,198.144 429.5,196.5C 427.297,196.935 425.297,196.935 423.5,196.5C 422.791,195.596 421.791,195.263 420.5,195.5C 422.134,191.524 423.967,191.524 426,195.5C 427.356,194.62 428.856,194.286 430.5,194.5 Z"/></g>
<g><path style="opacity:1" fill="#b40003" d="M 516.5,196.5 C 515.199,197.884 515.199,199.384 516.5,201C 514.316,202.898 513.983,205.064 515.5,207.5C 513.365,207.853 512.032,207.02 511.5,205C 512.289,203.374 513.289,201.874 514.5,200.5C 514.376,199.893 514.043,199.56 513.5,199.5C 513.297,197.61 513.963,196.11 515.5,195C 518.875,194.368 519.209,194.868 516.5,196.5 Z"/></g>
<g><path style="opacity:1" fill="#2a2f74" d="M 414.5,195.5 C 415.918,197.308 417.918,197.975 420.5,197.5C 420.343,198.873 420.51,200.207 421,201.5C 422.883,200.347 423.716,198.681 423.5,196.5C 425.297,196.935 427.297,196.935 429.5,196.5C 429.714,198.144 429.38,199.644 428.5,201C 429.687,202.019 430.687,203.186 431.5,204.5C 431.145,205.522 430.478,206.189 429.5,206.5C 428.833,206.5 428.5,206.167 428.5,205.5C 429.751,204.528 429.418,203.861 427.5,203.5C 425.962,203.453 424.962,204.12 424.5,205.5C 423.391,205.443 422.391,205.11 421.5,204.5C 420.167,205.833 418.833,205.833 417.5,204.5C 417.167,204.5 416.833,204.5 416.5,204.5C 416.5,203.833 416.5,203.167 416.5,202.5C 413.782,200.618 413.115,198.285 414.5,195.5 Z"/></g>
<g><path style="opacity:1" fill="#7db3d1" d="M 426.5,197.5 C 427.376,197.369 428.043,197.702 428.5,198.5C 424.499,202.796 423.832,202.462 426.5,197.5 Z"/></g>
<g><path style="opacity:1" fill="#84bbd5" d="M 416.5,202.5 C 416.461,201.417 416.127,200.417 415.5,199.5C 416.325,198.614 417.325,198.281 418.5,198.5C 418.66,200.199 418.494,201.866 418,203.5C 417.617,202.944 417.117,202.611 416.5,202.5 Z"/></g>
<g><path style="opacity:1" fill="#2d1901" d="M 445.5,201.5 C 444.341,203.25 442.674,204.25 440.5,204.5C 441.659,202.75 443.326,201.75 445.5,201.5 Z"/></g>
<g><path style="opacity:1" fill="#3d3612" d="M 465.5,199.5 C 466.79,200.058 467.623,201.058 468,202.5C 470.937,201.183 473.77,201.183 476.5,202.5C 474.143,202.337 471.81,202.503 469.5,203C 471.382,203.198 473.048,203.698 474.5,204.5C 470.333,205.246 466.333,206.579 462.5,208.5C 460.962,208.547 459.962,207.88 459.5,206.5C 464.906,207.265 466.906,204.931 465.5,199.5 Z"/></g>
<g><path style="opacity:1" fill="#bc9e00" d="M 476.5,202.5 C 477.091,203.151 477.757,203.818 478.5,204.5C 478.376,205.107 478.043,205.44 477.5,205.5C 476.791,204.596 475.791,204.263 474.5,204.5C 473.048,203.698 471.382,203.198 469.5,203C 471.81,202.503 474.143,202.337 476.5,202.5 Z"/></g>
<g><path style="opacity:1" fill="#7fbed7" d="M 428.5,205.5 C 427.167,205.5 425.833,205.5 424.5,205.5C 424.962,204.12 425.962,203.453 427.5,203.5C 429.418,203.861 429.751,204.528 428.5,205.5 Z"/></g>
<g><path style="opacity:1" fill="#7ebcd6" d="M 515.5,203.5 C 517.429,203.231 519.095,203.731 520.5,205C 519.667,205.167 518.833,205.333 518,205.5C 516.624,205.316 515.791,204.649 515.5,203.5 Z"/></g>
<g><path style="opacity:1" fill="#35374d" d="M 421.5,204.5 C 422.391,205.11 423.391,205.443 424.5,205.5C 425.833,205.5 427.167,205.5 428.5,205.5C 428.5,206.167 428.833,206.5 429.5,206.5C 430.209,207.404 431.209,207.737 432.5,207.5C 429.37,208.249 426.37,208.249 423.5,207.5C 422.094,207.027 421.427,206.027 421.5,204.5 Z"/></g>
<g><path style="opacity:1" fill="#20221a" d="M 447.5,204.5 C 444.503,207.496 440.836,209.163 436.5,209.5C 439.979,207.597 443.646,205.93 447.5,204.5 Z"/></g>
<g><path style="opacity:1" fill="#d7b500" d="M 490.5,196.5 C 491.514,197.674 492.847,198.34 494.5,198.5C 496.336,200.588 498.669,201.921 501.5,202.5C 501.842,203.338 502.508,203.672 503.5,203.5C 507.22,207.299 511.554,208.632 516.5,207.5C 521.748,205.745 522.415,206.412 518.5,209.5C 515.15,209.665 511.817,209.498 508.5,209C 505.691,207.259 502.691,206.092 499.5,205.5C 496.086,202.46 492.086,200.46 487.5,199.5C 487.5,198.5 487.5,197.5 487.5,196.5C 488.5,196.5 489.5,196.5 490.5,196.5 Z"/></g>
<g><path style="opacity:1" fill="#272516" d="M 490.5,196.5 C 489.5,196.5 488.5,196.5 487.5,196.5C 487.5,197.5 487.5,198.5 487.5,199.5C 492.086,200.46 496.086,202.46 499.5,205.5C 495.63,203.983 491.796,202.316 488,200.5C 487.5,200.667 487,200.833 486.5,201C 487.576,202.726 487.743,204.559 487,206.5C 483.432,209.31 480.266,208.977 477.5,205.5C 478.043,205.44 478.376,205.107 478.5,204.5C 477.757,203.818 477.091,203.151 476.5,202.5C 478.048,202.179 478.715,201.179 478.5,199.5C 474.958,199.813 471.625,199.479 468.5,198.5C 474.732,198.752 480.732,197.752 486.5,195.5C 488.045,195.511 489.378,195.844 490.5,196.5 Z"/></g>
<g><path style="opacity:1" fill="#cdac00" d="M 482.5,204.5 C 483.492,200.829 484.825,200.663 486.5,204C 486.138,205.885 484.971,206.719 483,206.5C 479.232,204.765 478.565,202.098 481,198.5C 482.337,197.235 483.837,196.735 485.5,197C 482.021,198.756 481.021,201.256 482.5,204.5 Z"/></g>
<g><path style="opacity:1" fill="#2c2606" d="M 482.5,204.5 C 485.603,203.203 485.937,203.536 483.5,205.5C 482.893,205.376 482.56,205.043 482.5,204.5 Z"/></g>
<g><path style="opacity:1" fill="#261301" d="M 513.5,199.5 C 514.043,199.56 514.376,199.893 514.5,200.5C 513.289,201.874 512.289,203.374 511.5,205C 512.032,207.02 513.365,207.853 515.5,207.5C 515.833,207.5 516.167,207.5 516.5,207.5C 511.554,208.632 507.22,207.299 503.5,203.5C 505.84,204.086 508.007,205.086 510,206.5C 510.133,203.596 511.3,201.262 513.5,199.5 Z"/></g>
<g><path style="opacity:1" fill="#1e2528" d="M 416.5,204.5 C 416.833,204.5 417.167,204.5 417.5,204.5C 417.34,206.199 417.506,207.866 418,209.5C 421.71,213.109 421.21,215.776 416.5,217.5C 417.456,216.341 418.456,215.174 419.5,214C 416.972,211.377 415.972,208.21 416.5,204.5 Z"/></g>
<g><path style="opacity:1" fill="#171a15" d="M 499.5,205.5 C 502.691,206.092 505.691,207.259 508.5,209C 511.817,209.498 515.15,209.665 518.5,209.5C 511.507,211.615 505.173,210.282 499.5,205.5 Z"/></g>
<g><path style="opacity:1" fill="#d9c159" d="M 442.5,227.5 C 443.353,234.165 444.353,240.832 445.5,247.5C 444.678,250.468 445.011,253.468 446.5,256.5C 446.457,257.416 446.124,258.083 445.5,258.5C 443.423,255.853 441.423,253.019 439.5,250C 437.866,249.506 436.199,249.34 434.5,249.5C 434.334,245.486 434.501,241.486 435,237.5C 435.101,240.7 435.768,243.7 437,246.5C 437.817,243.036 437.483,239.702 436,236.5C 430.244,231.771 427.911,225.771 429,218.5C 429.671,217.748 430.504,217.414 431.5,217.5C 433.653,223.145 435.82,228.812 438,234.5C 438.667,232.833 438.667,231.167 438,229.5C 436.364,226.394 434.864,223.227 433.5,220C 434.52,217.141 436.52,215.641 439.5,215.5C 440.686,219.739 441.686,223.739 442.5,227.5 Z"/></g>
<g><path style="opacity:1" fill="#25241d" d="M 416.5,217.5 C 415.847,218.807 415.18,220.14 414.5,221.5C 414.624,222.107 414.957,222.44 415.5,222.5C 413.537,226.284 414.537,228.118 418.5,228C 419.552,226.284 418.886,225.284 416.5,225C 418.387,224.22 420.054,224.387 421.5,225.5C 419.716,229.894 416.883,230.561 413,227.5C 411.757,223.157 412.924,219.823 416.5,217.5 Z"/></g>
<g><path style="opacity:1" fill="#d4b200" d="M 415.5,222.5 C 423.816,222.977 428.983,227.31 431,235.5C 433.216,245.346 430.716,253.679 423.5,260.5C 421.355,260.738 419.688,261.738 418.5,263.5C 421.235,270.873 424.069,278.206 427,285.5C 429.03,291.43 432.863,293.43 438.5,291.5C 444.784,288.667 445.117,289.501 439.5,294C 436.112,294.659 432.779,294.492 429.5,293.5C 426.633,289.76 424.3,285.76 422.5,281.5C 422.405,279.214 421.738,277.214 420.5,275.5C 419.539,270.744 417.873,266.244 415.5,262C 416.571,261.148 417.571,260.315 418.5,259.5C 418.842,258.662 419.508,258.328 420.5,258.5C 422.027,258.573 423.027,257.906 423.5,256.5C 423.5,255.833 423.833,255.5 424.5,255.5C 426.727,254.599 427.727,252.933 427.5,250.5C 428.222,250.082 428.722,249.416 429,248.5C 429.667,244.167 429.667,239.833 429,235.5C 428.392,233.934 427.558,232.6 426.5,231.5C 426.228,228.268 424.562,226.268 421.5,225.5C 420.054,224.387 418.387,224.22 416.5,225C 418.886,225.284 419.552,226.284 418.5,228C 414.537,228.118 413.537,226.284 415.5,222.5 Z"/></g>
<g><path style="opacity:1" fill="#38321a" d="M 421.5,225.5 C 424.562,226.268 426.228,228.268 426.5,231.5C 424.844,229.54 423.177,227.54 421.5,225.5 Z"/></g>
<g><path style="opacity:1" fill="#26323a" d="M 473.5,220.5 C 476.403,224.63 479.07,228.963 481.5,233.5C 481.833,234.167 482.167,234.833 482.5,235.5C 483.263,236.268 484.263,236.768 485.5,237C 484.584,237.278 483.918,237.778 483.5,238.5C 483.631,239.239 483.464,239.906 483,240.5C 482,240.5 481,240.5 480,240.5C 479.536,241.094 479.369,241.761 479.5,242.5C 479.167,242.5 478.833,242.5 478.5,242.5C 477.603,241.402 476.77,241.402 476,242.5C 474.812,241.437 474.312,240.103 474.5,238.5C 476.57,237.774 478.237,237.108 479.5,236.5C 478.817,233.539 477.984,233.205 477,235.5C 475.855,234.316 474.688,234.316 473.5,235.5C 473.167,234.833 472.833,234.167 472.5,233.5C 473.497,233.53 474.164,233.03 474.5,232C 473.467,228.105 471.801,224.605 469.5,221.5C 468.203,220.151 468.37,218.818 470,217.5C 470.422,219.426 471.589,220.426 473.5,220.5 Z"/></g>
<g><path style="opacity:1" fill="#2a291c" d="M 526.5,215.5 C 532.062,218.101 533.896,222.434 532,228.5C 528.794,230.124 526.128,229.458 524,226.5C 522.629,228.041 521.129,229.375 519.5,230.5C 520.591,227.572 522.591,225.406 525.5,224C 518.972,225.883 515.139,230.383 514,237.5C 513.333,241.167 513.333,244.833 514,248.5C 515.513,251.527 517.013,254.527 518.5,257.5C 517.833,257.5 517.167,257.5 516.5,257.5C 511.94,252.03 509.94,245.696 510.5,238.5C 511.338,238.158 511.672,237.492 511.5,236.5C 513.12,229.712 517.12,224.878 523.5,222C 532.279,221.891 532.779,220.058 525,216.5C 524.333,215.167 524.333,213.833 525,212.5C 525.232,213.737 525.732,214.737 526.5,215.5 Z"/></g>
<g><path style="opacity:1" fill="#deba00" d="M 526.5,223.5 C 529.857,222.343 531.357,223.676 531,227.5C 529.12,228.93 527.62,228.596 526.5,226.5C 527.603,226.002 528.603,225.669 529.5,225.5C 528.995,224.081 527.995,223.415 526.5,223.5 Z"/></g>
<g><path style="opacity:1" fill="#5ba4be" d="M 469.5,221.5 C 471.801,224.605 473.467,228.105 474.5,232C 474.164,233.03 473.497,233.53 472.5,233.5C 471.5,229.5 470.5,225.5 469.5,221.5 Z"/></g>
<g><path style="opacity:1" fill="#1f3e8b" d="M 486.5,231.5 C 487.097,230.861 487.93,230.528 489,230.5C 496.605,232.236 504.105,234.236 511.5,236.5C 511.672,237.492 511.338,238.158 510.5,238.5C 509.415,236.418 507.915,236.084 506,237.5C 505.167,236.667 504.333,235.833 503.5,235C 500.247,234.799 497.247,233.966 494.5,232.5C 493.391,232.557 492.391,232.89 491.5,233.5C 490.365,231.787 488.698,231.12 486.5,231.5 Z"/></g>
<g><path style="opacity:1" fill="#29438f" d="M 486.5,231.5 C 485.398,233.092 486.065,233.925 488.5,234C 486.364,235.179 484.364,235.679 482.5,235.5C 482.167,234.833 481.833,234.167 481.5,233.5C 483.167,232.833 484.833,232.167 486.5,231.5 Z"/></g>
<g><path style="opacity:1" fill="#f4f5f7" d="M 494.5,232.5 C 497.247,233.966 500.247,234.799 503.5,235C 504.333,235.833 505.167,236.667 506,237.5C 507.915,236.084 509.415,236.418 510.5,238.5C 509.94,245.696 511.94,252.03 516.5,257.5C 512.968,257.31 509.635,257.977 506.5,259.5C 505.833,258.833 505.167,258.167 504.5,257.5C 503.945,255.271 502.611,253.605 500.5,252.5C 498.699,245.765 496.699,239.098 494.5,232.5 Z"/></g>
<g><path style="opacity:1" fill="#898a8f" d="M 486.5,231.5 C 488.698,231.12 490.365,231.787 491.5,233.5C 491.082,234.222 490.416,234.722 489.5,235C 490.28,236.073 490.113,237.24 489,238.5C 487.421,239.322 485.588,239.322 483.5,238.5C 483.918,237.778 484.584,237.278 485.5,237C 484.263,236.768 483.263,236.268 482.5,235.5C 484.364,235.679 486.364,235.179 488.5,234C 486.065,233.925 485.398,233.092 486.5,231.5 Z"/></g>
<g><path style="opacity:1" fill="#d8b500" d="M 519.5,230.5 C 518.662,230.842 518.328,231.508 518.5,232.5C 515.045,238.005 514.712,243.672 517.5,249.5C 517.229,251.38 517.896,252.713 519.5,253.5C 521.206,257.379 524.206,259.879 528.5,261C 529.252,261.671 529.586,262.504 529.5,263.5C 525.868,270.387 523.202,277.721 521.5,285.5C 519.917,287.663 518.584,289.996 517.5,292.5C 514.023,294.258 510.357,294.758 506.5,294C 504.697,293.363 503.364,292.197 502.5,290.5C 503.425,289.438 504.425,289.438 505.5,290.5C 506.312,291.993 507.645,292.66 509.5,292.5C 510.726,292.48 511.726,292.147 512.5,291.5C 513.822,291.67 514.989,291.337 516,290.5C 517.953,287.745 519.12,284.745 519.5,281.5C 521.935,277.201 523.602,272.534 524.5,267.5C 527.49,264.826 527.157,262.826 523.5,261.5C 522.564,260.026 521.23,259.026 519.5,258.5C 519.5,257.833 519.167,257.5 518.5,257.5C 517.013,254.527 515.513,251.527 514,248.5C 513.333,244.833 513.333,241.167 514,237.5C 515.139,230.383 518.972,225.883 525.5,224C 522.591,225.406 520.591,227.572 519.5,230.5 Z"/></g>
<g><path style="opacity:1" fill="#462620" d="M 518.5,232.5 C 518.5,233.5 518.5,234.5 518.5,235.5C 526.942,233.797 533.775,236.463 539,243.5C 539.789,245.712 539.622,247.712 538.5,249.5C 538.504,244.971 536.504,241.471 532.5,239C 527.628,237.612 522.628,237.112 517.5,237.5C 517.5,241.5 517.5,245.5 517.5,249.5C 514.712,243.672 515.045,238.005 518.5,232.5 Z"/></g>
<g><path style="opacity:1" fill="#cb0000" d="M 427.5,250.5 C 426.11,251.899 425.11,253.566 424.5,255.5C 423.833,255.5 423.5,255.833 423.5,256.5C 421.973,256.427 420.973,257.094 420.5,258.5C 419.508,258.328 418.842,258.662 418.5,259.5C 416.771,258.883 415.271,257.883 414,256.5C 414.379,258.075 414.212,259.575 413.5,261C 415.088,262.987 415.921,265.154 416,267.5C 414.833,265.833 413.667,264.167 412.5,262.5C 412.308,266.411 412.141,270.411 412,274.5C 411.392,272.934 410.558,271.6 409.5,270.5C 407.117,260.277 405.617,260.944 405,272.5C 403.985,268.56 403.485,264.56 403.5,260.5C 402.448,260.649 401.448,260.483 400.5,260C 402.349,258.907 404.016,257.574 405.5,256C 407.557,255.695 409.557,255.695 411.5,256C 408.099,254.68 406.765,252.18 407.5,248.5C 407.667,246.833 407.833,245.167 408,243.5C 409.376,242.295 410.542,240.962 411.5,239.5C 416.915,237.656 422.582,236.989 428.5,237.5C 428.628,241.881 428.295,246.215 427.5,250.5 Z"/></g>
<g><path style="opacity:1" fill="#373115" d="M 431.5,217.5 C 430.504,217.414 429.671,217.748 429,218.5C 427.911,225.771 430.244,231.771 436,236.5C 437.483,239.702 437.817,243.036 437,246.5C 435.768,243.7 435.101,240.7 435,237.5C 434.501,241.486 434.334,245.486 434.5,249.5C 436.199,249.34 437.866,249.506 439.5,250C 441.423,253.019 443.423,255.853 445.5,258.5C 441.808,258.305 439.974,256.305 440,252.5C 438.192,250.604 436.025,250.104 433.5,251C 430.934,255.068 427.601,258.235 423.5,260.5C 430.716,253.679 433.216,245.346 431,235.5C 428.983,227.31 423.816,222.977 415.5,222.5C 419.225,221.04 422.725,221.707 426,224.5C 426.333,222.5 426.667,220.5 427,218.5C 428.347,216.534 429.847,216.201 431.5,217.5 Z"/></g>
<g><path style="opacity:1" fill="#cb0000" d="M 538.5,249.5 C 537.961,252.042 536.628,254.208 534.5,256C 536.126,255.805 537.793,255.805 539.5,256C 541.389,257.764 543.389,259.264 545.5,260.5C 544.022,260.238 542.689,260.571 541.5,261.5C 542.348,263.409 542.682,265.409 542.5,267.5C 541.833,269.833 541.167,272.167 540.5,274.5C 539.662,274.158 539.328,273.492 539.5,272.5C 539.816,269.022 539.316,265.688 538,262.5C 537.56,264.866 537.06,267.199 536.5,269.5C 535.073,271.148 534.24,273.148 534,275.5C 533.617,274.944 533.117,274.611 532.5,274.5C 532.909,270.152 533.076,265.819 533,261.5C 532.252,263.332 531.252,264.999 530,266.5C 529.517,265.552 529.351,264.552 529.5,263.5C 531.603,262.02 531.603,260.853 529.5,260C 531.255,259.28 532.089,258.113 532,256.5C 530.687,257.573 529.187,258.24 527.5,258.5C 524.308,257.634 521.641,255.968 519.5,253.5C 519.34,251.847 518.674,250.514 517.5,249.5C 517.5,245.5 517.5,241.5 517.5,237.5C 522.628,237.112 527.628,237.612 532.5,239C 536.504,241.471 538.504,244.971 538.5,249.5 Z"/></g>
<g><path style="opacity:1" fill="#495c9f" d="M 505.5,238.5 C 506.837,240.374 508.171,242.374 509.5,244.5C 505.888,244.969 503.054,246.636 501,249.5C 501.019,247.893 501.185,246.226 501.5,244.5C 505.96,244.478 507.293,242.478 505.5,238.5 Z"/></g>
<g><path style="opacity:1" fill="#311b14" d="M 426.5,231.5 C 427.558,232.6 428.392,233.934 429,235.5C 429.667,239.833 429.667,244.167 429,248.5C 428.722,249.416 428.222,250.082 427.5,250.5C 428.295,246.215 428.628,241.881 428.5,237.5C 422.582,236.989 416.915,237.656 411.5,239.5C 411.953,238.542 412.619,237.708 413.5,237C 417.848,236.535 422.181,236.035 426.5,235.5C 426.5,234.167 426.5,232.833 426.5,231.5 Z"/></g>
<g><path style="opacity:1" fill="#504722" d="M 440.5,237.5 C 442.922,238.992 443.588,240.992 442.5,243.5C 441.523,241.589 440.857,239.589 440.5,237.5 Z"/></g>
<g><path style="opacity:1" fill="#393319" d="M 442.5,227.5 C 443.458,227.953 444.292,228.619 445,229.5C 445.333,231.833 445.667,234.167 446,236.5C 446.583,234.998 447.416,233.665 448.5,232.5C 448.833,232.833 449.167,233.167 449.5,233.5C 448.071,235.331 447.571,237.331 448,239.5C 450.453,235.731 450.953,236.231 449.5,241C 449.944,242.762 450.444,242.595 451,240.5C 451.395,242.179 451.228,243.845 450.5,245.5C 450.667,246.167 450.833,246.833 451,247.5C 452.043,243.774 452.543,244.107 452.5,248.5C 452.318,253.794 451.818,253.794 451,248.5C 450.086,252.185 449.419,251.852 449,247.5C 448.086,251.185 447.419,250.852 447,246.5C 446.628,251.043 447.128,255.377 448.5,259.5C 448.5,261.5 448.5,263.5 448.5,265.5C 447.833,265.5 447.5,265.167 447.5,264.5C 447.396,262.297 446.73,260.297 445.5,258.5C 446.124,258.083 446.457,257.416 446.5,256.5C 445.011,253.468 444.678,250.468 445.5,247.5C 444.353,240.832 443.353,234.165 442.5,227.5 Z"/></g>
<g><path style="opacity:1" fill="#201a15" d="M 473.5,220.5 C 471.589,220.426 470.422,219.426 470,217.5C 468.37,218.818 468.203,220.151 469.5,221.5C 470.5,225.5 471.5,229.5 472.5,233.5C 472.833,234.167 473.167,234.833 473.5,235.5C 473.263,236.791 473.596,237.791 474.5,238.5C 474.312,240.103 474.812,241.437 476,242.5C 476.77,241.402 477.603,241.402 478.5,242.5C 477.026,243.675 475.36,244.675 473.5,245.5C 473.833,245.833 474.167,246.167 474.5,246.5C 480.317,244.618 485.984,242.452 491.5,240C 491,239.833 490.5,239.667 490,239.5C 486.6,240.956 483.1,241.956 479.5,242.5C 479.369,241.761 479.536,241.094 480,240.5C 481,240.5 482,240.5 483,240.5C 483.464,239.906 483.631,239.239 483.5,238.5C 485.588,239.322 487.421,239.322 489,238.5C 490.113,237.24 490.28,236.073 489.5,235C 490.416,234.722 491.082,234.222 491.5,233.5C 492.391,232.89 493.391,232.557 494.5,232.5C 496.699,239.098 498.699,245.765 500.5,252.5C 502.611,253.605 503.945,255.271 504.5,257.5C 503.038,256.542 501.705,255.376 500.5,254C 499.5,253.333 498.5,253.333 497.5,254C 493.989,257.313 492.655,261.48 493.5,266.5C 495.099,266.232 496.432,266.566 497.5,267.5C 493.633,267.242 489.966,267.908 486.5,269.5C 485.833,269.5 485.167,269.5 484.5,269.5C 478.726,271.98 472.726,273.647 466.5,274.5C 466.5,274.167 466.5,273.833 466.5,273.5C 471.702,272.711 476.702,271.211 481.5,269C 479.385,268.576 478.552,267.409 479,265.5C 480.395,266.815 481.395,266.481 482,264.5C 482.219,265.938 482.719,267.271 483.5,268.5C 486.167,267.167 488.833,265.833 491.5,264.5C 492.647,262.235 492.814,259.902 492,257.5C 489.412,259.365 486.578,260.198 483.5,260C 486.754,258.973 489.754,257.473 492.5,255.5C 491.975,254.808 491.308,254.308 490.5,254C 492.421,252.759 492.754,251.259 491.5,249.5C 482.362,253.404 473.028,256.737 463.5,259.5C 463.489,261.017 462.823,262.184 461.5,263C 462,263.167 462.5,263.333 463,263.5C 468.095,261.683 473.262,260.516 478.5,260C 474.884,261.487 471.217,262.82 467.5,264C 468.833,264.333 470.167,264.667 471.5,265C 469.187,265.662 466.854,266.162 464.5,266.5C 463.833,266.5 463.167,266.5 462.5,266.5C 459.833,266.5 457.167,266.5 454.5,266.5C 454.5,266.167 454.5,265.833 454.5,265.5C 455.138,264.476 455.805,263.476 456.5,262.5C 455.452,257.626 454.119,252.959 452.5,248.5C 452.543,244.107 452.043,243.774 451,247.5C 450.833,246.833 450.667,246.167 450.5,245.5C 451.228,243.845 451.395,242.179 451,240.5C 450.444,242.595 449.944,242.762 449.5,241C 450.953,236.231 450.453,235.731 448,239.5C 447.571,237.331 448.071,235.331 449.5,233.5C 449.167,233.167 448.833,232.833 448.5,232.5C 447.416,233.665 446.583,234.998 446,236.5C 445.667,234.167 445.333,231.833 445,229.5C 444.292,228.619 443.458,227.953 442.5,227.5C 441.686,223.739 440.686,219.739 439.5,215.5C 436.52,215.641 434.52,217.141 433.5,220C 434.864,223.227 436.364,226.394 438,229.5C 438.667,231.167 438.667,232.833 438,234.5C 435.82,228.812 433.653,223.145 431.5,217.5C 435.67,215.56 439.837,213.56 444,211.5C 445.03,211.836 445.53,212.503 445.5,213.5C 446.281,215.628 447.281,215.795 448.5,214C 454.51,214.675 458.01,218.175 459,224.5C 460.11,226.037 461.61,226.703 463.5,226.5C 463.613,223.951 462.946,221.618 461.5,219.5C 463.582,218.634 464.915,217.134 465.5,215C 464.657,213.065 464.657,211.231 465.5,209.5C 466.485,211.772 467.319,214.105 468,216.5C 469.085,215.707 470.252,215.04 471.5,214.5C 472.477,216.411 473.143,218.411 473.5,220.5 Z"/></g>
<g><path style="opacity:1" fill="#72401f" d="M 493.5,237.5 C 494.117,237.611 494.617,237.944 495,238.5C 495.989,241.456 496.822,244.456 497.5,247.5C 497.272,249.397 496.272,250.73 494.5,251.5C 493.507,246.88 493.173,242.214 493.5,237.5 Z"/></g>
<g><path style="opacity:1" fill="#393319" d="M 463.5,252.5 C 464.833,254.833 464.833,257.167 463.5,259.5C 462.833,259.167 462.167,258.833 461.5,258.5C 458.558,252.282 455.891,245.949 453.5,239.5C 452.095,237.775 451.595,235.775 452,233.5C 452.704,235.727 453.871,236.06 455.5,234.5C 457.497,237.16 458.997,240.16 460,243.5C 460.891,239.628 460.391,235.962 458.5,232.5C 458.667,232.167 458.833,231.833 459,231.5C 459.915,232.328 460.581,233.328 461,234.5C 461.098,240.652 461.932,246.652 463.5,252.5 Z"/></g>
<g><path style="opacity:1" fill="#cfcfd1" d="M 474.5,238.5 C 473.596,237.791 473.263,236.791 473.5,235.5C 474.688,234.316 475.855,234.316 477,235.5C 477.984,233.205 478.817,233.539 479.5,236.5C 478.237,237.108 476.57,237.774 474.5,238.5 Z"/></g>
<g><path style="opacity:1" fill="#d2bb56" d="M 463.5,252.5 C 461.932,246.652 461.098,240.652 461,234.5C 460.581,233.328 459.915,232.328 459,231.5C 458.833,231.833 458.667,232.167 458.5,232.5C 460.391,235.962 460.891,239.628 460,243.5C 458.997,240.16 457.497,237.16 455.5,234.5C 453.614,230.387 452.614,226.054 452.5,221.5C 450.833,221.5 449.167,221.5 447.5,221.5C 448.238,213.061 451.071,212.394 456,219.5C 456.973,221.392 457.64,223.392 458,225.5C 460,226.833 462,228.167 464,229.5C 465.555,237.308 465.389,244.975 463.5,252.5 Z"/></g>
<g><path style="opacity:1" fill="#d1ba56" d="M 445.5,213.5 C 445.26,216.579 445.593,219.579 446.5,222.5C 445.758,223.287 444.925,223.953 444,224.5C 442.931,221.792 441.764,219.125 440.5,216.5C 441.421,214.244 443.088,213.244 445.5,213.5 Z"/></g>
<g><path style="opacity:1" fill="#693b1d" d="M 478.5,242.5 C 478.833,242.5 479.167,242.5 479.5,242.5C 483.1,241.956 486.6,240.956 490,239.5C 490.5,239.667 491,239.833 491.5,240C 485.984,242.452 480.317,244.618 474.5,246.5C 474.167,246.167 473.833,245.833 473.5,245.5C 475.36,244.675 477.026,243.675 478.5,242.5 Z"/></g>
<g><path style="opacity:1" fill="#6c3d1d" d="M 490.5,243.5 C 491.774,244.189 491.774,245.023 490.5,246C 485.538,247.932 480.538,249.765 475.5,251.5C 475.167,251.167 474.833,250.833 474.5,250.5C 479.9,248.151 485.234,245.817 490.5,243.5 Z"/></g>
<g><path style="opacity:1" fill="#5e0402" d="M 525.5,247.5 C 526.497,247.47 527.164,247.97 527.5,249C 527.138,250.225 526.638,251.391 526,252.5C 525.682,250.939 524.849,249.772 523.5,249C 524.416,248.722 525.082,248.222 525.5,247.5 Z"/></g>
<g><path style="opacity:1" fill="#cfb959" d="M 445.5,258.5 C 446.73,260.297 447.396,262.297 447.5,264.5C 447.167,264.5 446.833,264.5 446.5,264.5C 444.5,263.167 442.5,263.167 440.5,264.5C 438.664,261.174 435.83,259.174 432,258.5C 430.373,258.625 428.873,259.125 427.5,260C 425.801,262.309 423.801,264.142 421.5,265.5C 420.903,265.265 420.57,264.765 420.5,264C 421.544,262.826 422.544,261.659 423.5,260.5C 427.601,258.235 430.934,255.068 433.5,251C 436.025,250.104 438.192,250.604 440,252.5C 439.974,256.305 441.808,258.305 445.5,258.5 Z"/></g>
<g><path style="opacity:1" fill="#847636" d="M 452.5,248.5 C 454.119,252.959 455.452,257.626 456.5,262.5C 455.805,263.476 455.138,264.476 454.5,265.5C 452.674,263.545 452.174,261.212 453,258.5C 453.333,259.5 453.667,260.5 454,261.5C 454.328,258.793 453.995,256.126 453,253.5C 452.333,258.833 451.667,258.833 451,253.5C 450.131,258.508 449.464,258.175 449,252.5C 448.503,254.81 448.337,257.143 448.5,259.5C 447.128,255.377 446.628,251.043 447,246.5C 447.419,250.852 448.086,251.185 449,247.5C 449.419,251.852 450.086,252.185 451,248.5C 451.818,253.794 452.318,253.794 452.5,248.5 Z"/></g>
<g><path style="opacity:1" fill="#2d1403" d="M 517.5,249.5 C 518.674,250.514 519.34,251.847 519.5,253.5C 517.896,252.713 517.229,251.38 517.5,249.5 Z"/></g>
<g><path style="opacity:1" fill="#2f1b04" d="M 427.5,250.5 C 427.727,252.933 426.727,254.599 424.5,255.5C 425.11,253.566 426.11,251.899 427.5,250.5 Z"/></g>
<g><path style="opacity:1" fill="#724122" d="M 504.5,257.5 C 505.167,258.167 505.833,258.833 506.5,259.5C 504.42,261.573 502.754,263.907 501.5,266.5C 500.292,267.234 498.959,267.567 497.5,267.5C 496.432,266.566 495.099,266.232 493.5,266.5C 492.655,261.48 493.989,257.313 497.5,254C 498.5,253.333 499.5,253.333 500.5,254C 501.705,255.376 503.038,256.542 504.5,257.5 Z"/></g>
<g><path style="opacity:1" fill="#3f1611" d="M 538.5,249.5 C 539.081,255.602 542.248,257.935 548,256.5C 548.442,258.614 547.609,259.948 545.5,260.5C 543.389,259.264 541.389,257.764 539.5,256C 537.793,255.805 536.126,255.805 534.5,256C 536.628,254.208 537.961,252.042 538.5,249.5 Z"/></g>
<g><path style="opacity:1" fill="#281400" d="M 423.5,256.5 C 423.027,257.906 422.027,258.573 420.5,258.5C 420.973,257.094 421.973,256.427 423.5,256.5 Z"/></g>
<g><path style="opacity:1" fill="#c2ac50" d="M 453.5,239.5 C 455.891,245.949 458.558,252.282 461.5,258.5C 461.688,260.103 461.188,261.437 460,262.5C 457.361,254.942 455.194,247.275 453.5,239.5 Z"/></g>
<g><path style="opacity:1" fill="#302b17" d="M 454.5,265.5 C 454.5,265.833 454.5,266.167 454.5,266.5C 453.833,266.5 453.167,266.5 452.5,266.5C 451.94,264.199 451.44,261.866 451,259.5C 450.667,260.833 450.333,262.167 450,263.5C 449.79,261.942 449.29,260.609 448.5,259.5C 448.337,257.143 448.503,254.81 449,252.5C 449.464,258.175 450.131,258.508 451,253.5C 451.667,258.833 452.333,258.833 453,253.5C 453.995,256.126 454.328,258.793 454,261.5C 453.667,260.5 453.333,259.5 453,258.5C 452.174,261.212 452.674,263.545 454.5,265.5 Z"/></g>
<g><path style="opacity:1" fill="#663a1c" d="M 466.5,273.5 C 466.834,270.812 466.168,268.479 464.5,266.5C 466.854,266.162 469.187,265.662 471.5,265C 470.167,264.667 468.833,264.333 467.5,264C 471.217,262.82 474.884,261.487 478.5,260C 473.262,260.516 468.095,261.683 463,263.5C 462.5,263.333 462,263.167 461.5,263C 462.823,262.184 463.489,261.017 463.5,259.5C 473.028,256.737 482.362,253.404 491.5,249.5C 492.754,251.259 492.421,252.759 490.5,254C 491.308,254.308 491.975,254.808 492.5,255.5C 489.754,257.473 486.754,258.973 483.5,260C 486.578,260.198 489.412,259.365 492,257.5C 492.814,259.902 492.647,262.235 491.5,264.5C 488.833,265.833 486.167,267.167 483.5,268.5C 482.719,267.271 482.219,265.938 482,264.5C 481.395,266.481 480.395,266.815 479,265.5C 478.552,267.409 479.385,268.576 481.5,269C 476.702,271.211 471.702,272.711 466.5,273.5 Z"/></g>
<g><path style="opacity:1" fill="#384a8e" d="M 516.5,257.5 C 517.167,257.5 517.833,257.5 518.5,257.5C 519.167,257.5 519.5,257.833 519.5,258.5C 512.01,257.913 506.01,260.58 501.5,266.5C 502.754,263.907 504.42,261.573 506.5,259.5C 509.635,257.977 512.968,257.31 516.5,257.5 Z"/></g>
<g><path style="opacity:1" fill="#391703" d="M 519.5,253.5 C 521.641,255.968 524.308,257.634 527.5,258.5C 529.187,258.24 530.687,257.573 532,256.5C 532.089,258.113 531.255,259.28 529.5,260C 531.603,260.853 531.603,262.02 529.5,263.5C 529.586,262.504 529.252,261.671 528.5,261C 524.206,259.879 521.206,257.379 519.5,253.5 Z"/></g>
<g><path style="opacity:1" fill="#403b2d" d="M 519.5,258.5 C 521.23,259.026 522.564,260.026 523.5,261.5C 522.167,261.167 520.833,260.833 519.5,260.5C 519.5,259.833 519.5,259.167 519.5,258.5 Z"/></g>
<g><path style="opacity:1" fill="#57554f" d="M 523.5,261.5 C 527.157,262.826 527.49,264.826 524.5,267.5C 524.675,265.379 524.341,263.379 523.5,261.5 Z"/></g>
<g><path style="opacity:1" fill="#161111" d="M 545.5,260.5 C 544.105,262.693 543.105,265.026 542.5,267.5C 542.682,265.409 542.348,263.409 541.5,261.5C 542.689,260.571 544.022,260.238 545.5,260.5 Z"/></g>
<g><path style="opacity:1" fill="#f5f6f9" d="M 519.5,258.5 C 519.5,259.167 519.5,259.833 519.5,260.5C 520.833,260.833 522.167,261.167 523.5,261.5C 524.341,263.379 524.675,265.379 524.5,267.5C 522.065,271.799 520.398,276.466 519.5,281.5C 517.646,285.221 515.313,288.554 512.5,291.5C 510.097,291.552 507.764,291.219 505.5,290.5C 505.5,289.833 505.5,289.167 505.5,288.5C 508.098,286.001 507.432,284.334 503.5,283.5C 502.584,283.543 501.917,283.876 501.5,284.5C 498.785,286.497 496.118,288.497 493.5,290.5C 491.586,289.815 489.586,289.315 487.5,289C 488.833,288.333 490.167,287.667 491.5,287C 487.292,287.267 483.625,288.934 480.5,292C 482.746,291.572 485.079,291.072 487.5,290.5C 489.512,290.84 491.512,291.173 493.5,291.5C 493.369,292.239 493.536,292.906 494,293.5C 496.026,293.915 497.526,294.915 498.5,296.5C 494.76,299.367 490.76,301.7 486.5,303.5C 485.5,303.5 484.5,303.5 483.5,303.5C 485.978,301.197 488.645,299.031 491.5,297C 490.004,296.493 488.837,296.993 488,298.5C 487.667,297.833 487.333,297.167 487,296.5C 485.057,298.715 483.391,298.715 482,296.5C 480.329,298.276 478.496,298.61 476.5,297.5C 473.671,298.747 471.005,300.247 468.5,302C 469.549,302.492 470.549,302.326 471.5,301.5C 471.833,302.167 472.167,302.833 472.5,303.5C 474.078,302.36 475.744,301.86 477.5,302C 475.411,305.123 476.078,305.29 479.5,302.5C 480.182,303.243 480.849,303.909 481.5,304.5C 477.932,306.41 475.932,309.41 475.5,313.5C 473.396,313.799 471.396,313.466 469.5,312.5C 470.025,311.808 470.692,311.308 471.5,311C 470.14,309.062 470.473,307.396 472.5,306C 470.953,305.667 469.62,306.167 468.5,307.5C 467.583,306.873 466.583,306.539 465.5,306.5C 464.713,304.896 463.38,304.229 461.5,304.5C 460.22,303.069 458.553,302.402 456.5,302.5C 456.5,302.167 456.5,301.833 456.5,301.5C 458.045,300.77 458.878,299.437 459,297.5C 459.893,298.711 460.726,298.711 461.5,297.5C 458.429,296.215 455.596,294.549 453,292.5C 452.667,293.167 452.333,293.833 452,294.5C 451.998,291.949 451.164,289.949 449.5,288.5C 448.432,287.566 447.099,287.232 445.5,287.5C 445.715,285.821 445.048,284.821 443.5,284.5C 441.545,283.07 439.879,283.403 438.5,285.5C 435.535,285.27 434.202,283.603 434.5,280.5C 434.833,279.5 435.167,278.5 435.5,277.5C 437.502,277.304 439.169,276.637 440.5,275.5C 439.185,273.231 438.018,270.898 437,268.5C 436.19,270.306 435.024,271.806 433.5,273C 433.735,273.873 434.069,274.707 434.5,275.5C 432.889,278.387 431.556,281.387 430.5,284.5C 430.76,286.187 431.427,287.687 432.5,289C 434.81,289.497 437.143,289.663 439.5,289.5C 439.167,290.167 438.833,290.833 438.5,291.5C 432.149,291.818 428.482,288.818 427.5,282.5C 428.239,282.631 428.906,282.464 429.5,282C 427.887,279.772 427.22,277.272 427.5,274.5C 428.478,274.189 429.145,273.522 429.5,272.5C 424.622,269.066 424.289,265.233 428.5,261C 433.996,259.11 437.496,260.943 439,266.5C 439.717,265.956 440.217,265.289 440.5,264.5C 442.5,263.167 444.5,263.167 446.5,264.5C 446.981,267.522 447.647,270.522 448.5,273.5C 449.298,273.043 449.631,272.376 449.5,271.5C 451.5,270.167 453.167,268.5 454.5,266.5C 457.167,266.5 459.833,266.5 462.5,266.5C 465.992,269.31 466.325,272.476 463.5,276C 461.866,276.494 460.199,276.66 458.5,276.5C 458.227,274.549 458.893,273.049 460.5,272C 455.95,271.021 454.95,272.187 457.5,275.5C 455.762,277.921 454.429,280.588 453.5,283.5C 453.453,285.038 454.12,286.038 455.5,286.5C 455.369,285.761 455.536,285.094 456,284.5C 457,284.5 458,284.5 459,284.5C 459.333,283.5 459.667,282.5 460,281.5C 460.333,281.833 460.667,282.167 461,282.5C 461.245,280.337 462.245,278.67 464,277.5C 465.129,279.141 466.629,280.141 468.5,280.5C 468.962,281.88 469.962,282.547 471.5,282.5C 473.987,282.241 475.987,281.241 477.5,279.5C 478.496,279.586 479.329,279.252 480,278.5C 481.686,275.117 483.853,272.117 486.5,269.5C 489.966,267.908 493.633,267.242 497.5,267.5C 499.248,269.16 499.748,271.16 499,273.5C 497.401,271.964 495.567,271.464 493.5,272C 498.084,273.222 500.25,276.056 500,280.5C 497.402,283.144 494.735,283.144 492,280.5C 489.293,281.205 487.126,282.705 485.5,285C 487.467,284.76 489.3,283.927 491,282.5C 494.756,285.461 498.089,285.128 501,281.5C 500.54,276.464 500.707,271.464 501.5,266.5C 506.01,260.58 512.01,257.913 519.5,258.5 Z"/></g>
<g><path style="opacity:1" fill="#8b7c3a" d="M 448.5,259.5 C 449.29,260.609 449.79,261.942 450,263.5C 450.333,262.167 450.667,260.833 451,259.5C 451.44,261.866 451.94,264.199 452.5,266.5C 452.5,267.167 452.167,267.5 451.5,267.5C 450.798,266.884 449.798,266.884 448.5,267.5C 448.5,266.833 448.5,266.167 448.5,265.5C 448.5,263.5 448.5,261.5 448.5,259.5 Z"/></g>
<g><path style="opacity:1" fill="#f0f1f3" d="M 421.5,266.5 C 423.963,268.732 425.963,271.398 427.5,274.5C 426.833,274.5 426.5,274.833 426.5,275.5C 425.883,275.611 425.383,275.944 425,276.5C 423.53,273.256 422.363,269.923 421.5,266.5 Z"/></g>
<g><path style="opacity:1" fill="#44559b" d="M 519.5,260.5 C 519.881,261.931 520.881,262.764 522.5,263C 518.345,264.439 517.012,267.106 518.5,271C 518.475,272.876 517.809,274.376 516.5,275.5C 517.425,270.605 515.758,267.105 511.5,265C 513.367,264.289 514.867,264.789 516,266.5C 516.008,263.655 517.175,261.655 519.5,260.5 Z"/></g>
<g><path style="opacity:1" fill="#1a0c0b" d="M 539.5,272.5 C 538.71,271.391 538.21,270.058 538,268.5C 537.617,269.056 537.117,269.389 536.5,269.5C 537.06,267.199 537.56,264.866 538,262.5C 539.316,265.688 539.816,269.022 539.5,272.5 Z"/></g>
<g><path style="opacity:1" fill="#485a97" d="M 440.5,264.5 C 440.217,265.289 439.717,265.956 439,266.5C 437.496,260.943 433.996,259.11 428.5,261C 424.289,265.233 424.622,269.066 429.5,272.5C 429.145,273.522 428.478,274.189 427.5,274.5C 425.963,271.398 423.963,268.732 421.5,266.5C 421.5,266.167 421.5,265.833 421.5,265.5C 423.801,264.142 425.801,262.309 427.5,260C 428.873,259.125 430.373,258.625 432,258.5C 435.83,259.174 438.664,261.174 440.5,264.5 Z"/></g>
<g><path style="opacity:1" fill="#2c1f18" d="M 451.5,267.5 C 450.4,268.605 449.733,269.938 449.5,271.5C 448.566,270.432 448.232,269.099 448.5,267.5C 449.798,266.884 450.798,266.884 451.5,267.5 Z"/></g>
<g><path style="opacity:1" fill="#233a80" d="M 452.5,266.5 C 453.167,266.5 453.833,266.5 454.5,266.5C 453.167,268.5 451.5,270.167 449.5,271.5C 449.733,269.938 450.4,268.605 451.5,267.5C 452.167,267.5 452.5,267.167 452.5,266.5 Z"/></g>
<g><path style="opacity:1" fill="#5161a1" d="M 438.5,285.5 C 438.5,286.167 438.5,286.833 438.5,287.5C 435.144,286.975 433.311,284.975 433,281.5C 431.1,286.913 432.933,289.247 438.5,288.5C 439.167,288.5 439.5,288.167 439.5,287.5C 439.833,287.5 440.167,287.5 440.5,287.5C 440.672,288.492 440.338,289.158 439.5,289.5C 437.143,289.663 434.81,289.497 432.5,289C 431.427,287.687 430.76,286.187 430.5,284.5C 431.556,281.387 432.889,278.387 434.5,275.5C 434.069,274.707 433.735,273.873 433.5,273C 435.024,271.806 436.19,270.306 437,268.5C 438.018,270.898 439.185,273.231 440.5,275.5C 439.169,276.637 437.502,277.304 435.5,277.5C 435.167,278.5 434.833,279.5 434.5,280.5C 434.202,283.603 435.535,285.27 438.5,285.5 Z"/></g>
<g><path style="opacity:1" fill="#291810" d="M 532.5,274.5 C 531.686,272.369 531.186,270.036 531,267.5C 529.837,269.285 529.17,271.285 529,273.5C 528.333,272.833 527.667,272.167 527,271.5C 525.523,275.43 524.356,279.43 523.5,283.5C 522.833,284.167 522.167,284.833 521.5,285.5C 523.202,277.721 525.868,270.387 529.5,263.5C 529.351,264.552 529.517,265.552 530,266.5C 531.252,264.999 532.252,263.332 533,261.5C 533.076,265.819 532.909,270.152 532.5,274.5 Z"/></g>
<g><path style="opacity:1" fill="#3c241e" d="M 418.5,259.5 C 417.571,260.315 416.571,261.148 415.5,262C 417.873,266.244 419.539,270.744 420.5,275.5C 419.442,274.4 418.608,273.066 418,271.5C 417.692,272.308 417.192,272.975 416.5,273.5C 415.702,271.922 415.202,270.256 415,268.5C 415.076,272.349 413.576,275.349 410.5,277.5C 409.526,275.257 409.192,272.924 409.5,270.5C 410.558,271.6 411.392,272.934 412,274.5C 412.141,270.411 412.308,266.411 412.5,262.5C 413.667,264.167 414.833,265.833 416,267.5C 415.921,265.154 415.088,262.987 413.5,261C 414.212,259.575 414.379,258.075 414,256.5C 415.271,257.883 416.771,258.883 418.5,259.5 Z"/></g>
<g><path style="opacity:1" fill="#132d79" d="M 446.5,264.5 C 446.833,264.5 447.167,264.5 447.5,264.5C 447.5,265.167 447.833,265.5 448.5,265.5C 448.5,266.167 448.5,266.833 448.5,267.5C 448.232,269.099 448.566,270.432 449.5,271.5C 449.631,272.376 449.298,273.043 448.5,273.5C 447.647,270.522 446.981,267.522 446.5,264.5 Z"/></g>
<g><path style="opacity:1" fill="#734222" d="M 484.5,269.5 C 482.167,272.833 479.833,276.167 477.5,279.5C 474.57,280.299 471.57,280.632 468.5,280.5C 467.524,279.185 466.524,277.852 465.5,276.5C 465.863,275.817 466.196,275.15 466.5,274.5C 472.726,273.647 478.726,271.98 484.5,269.5 Z"/></g>
<g><path style="opacity:1" fill="#374588" d="M 484.5,269.5 C 485.167,269.5 485.833,269.5 486.5,269.5C 483.853,272.117 481.686,275.117 480,278.5C 479.329,279.252 478.496,279.586 477.5,279.5C 479.833,276.167 482.167,272.833 484.5,269.5 Z"/></g>
<g><path style="opacity:1" fill="#342f2f" d="M 536.5,269.5 C 535.864,272.106 535.864,274.606 536.5,277C 534.055,277.91 532.722,277.076 532.5,274.5C 533.117,274.611 533.617,274.944 534,275.5C 534.24,273.148 535.073,271.148 536.5,269.5 Z"/></g>
<g><path style="opacity:1" fill="#3d1814" d="M 411.5,239.5 C 410.542,240.962 409.376,242.295 408,243.5C 407.833,245.167 407.667,246.833 407.5,248.5C 406.765,252.18 408.099,254.68 411.5,256C 409.557,255.695 407.557,255.695 405.5,256C 404.016,257.574 402.349,258.907 400.5,260C 401.448,260.483 402.448,260.649 403.5,260.5C 403.485,264.56 403.985,268.56 405,272.5C 405.617,260.944 407.117,260.277 409.5,270.5C 408.883,270.389 408.383,270.056 408,269.5C 407.086,271.664 405.919,273.664 404.5,275.5C 403.549,276.326 402.549,276.492 401.5,276C 403.282,273.757 403.782,271.257 403,268.5C 402.105,266.196 401.271,263.862 400.5,261.5C 399.167,260.833 398.167,259.833 397.5,258.5C 405.796,256.471 408.962,251.138 407,242.5C 408.129,240.859 409.629,239.859 411.5,239.5 Z"/></g>
<g><path style="opacity:1" fill="#253a8a" d="M 430.5,271.5 C 431.239,271.369 431.906,271.536 432.5,272C 431.119,278.02 430.453,277.853 430.5,271.5 Z"/></g>
<g><path style="opacity:1" fill="#191515" d="M 542.5,267.5 C 542.274,270.249 542.607,272.916 543.5,275.5C 542.14,276.665 541.14,276.332 540.5,274.5C 541.167,272.167 541.833,269.833 542.5,267.5 Z"/></g>
<g><path style="opacity:1" fill="#2e2917" d="M 420.5,275.5 C 421.738,277.214 422.405,279.214 422.5,281.5C 420.926,279.898 420.259,277.898 420.5,275.5 Z"/></g>
<g><path style="opacity:1" fill="#2e4390" d="M 427.5,274.5 C 427.22,277.272 427.887,279.772 429.5,282C 428.906,282.464 428.239,282.631 427.5,282.5C 426.781,280.236 426.448,277.903 426.5,275.5C 426.5,274.833 426.833,274.5 427.5,274.5 Z"/></g>
<g><path style="opacity:1" fill="#302c1d" d="M 524.5,267.5 C 523.602,272.534 521.935,277.201 519.5,281.5C 520.398,276.466 522.065,271.799 524.5,267.5 Z"/></g>
<g><path style="opacity:1" fill="#445a9d" d="M 516.5,275.5 C 515.636,278.915 513.636,280.248 510.5,279.5C 512.784,278.542 514.784,277.208 516.5,275.5 Z"/></g>
<g><path style="opacity:1" fill="#4d5e9e" d="M 462.5,266.5 C 463.167,266.5 463.833,266.5 464.5,266.5C 466.168,268.479 466.834,270.812 466.5,273.5C 466.5,273.833 466.5,274.167 466.5,274.5C 466.196,275.15 465.863,275.817 465.5,276.5C 466.524,277.852 467.524,279.185 468.5,280.5C 466.629,280.141 465.129,279.141 464,277.5C 462.245,278.67 461.245,280.337 461,282.5C 460.667,282.167 460.333,281.833 460,281.5C 459.667,282.5 459.333,283.5 459,284.5C 458,284.5 457,284.5 456,284.5C 455.536,285.094 455.369,285.761 455.5,286.5C 454.12,286.038 453.453,285.038 453.5,283.5C 454.429,280.588 455.762,277.921 457.5,275.5C 454.95,272.187 455.95,271.021 460.5,272C 458.893,273.049 458.227,274.549 458.5,276.5C 460.199,276.66 461.866,276.494 463.5,276C 466.325,272.476 465.992,269.31 462.5,266.5 Z"/></g>
<g><path style="opacity:1" fill="#374282" d="M 477.5,279.5 C 475.987,281.241 473.987,282.241 471.5,282.5C 469.962,282.547 468.962,281.88 468.5,280.5C 471.57,280.632 474.57,280.299 477.5,279.5 Z"/></g>
<g><path style="opacity:1" fill="#eff1f7" d="M 438.5,287.5 C 438.5,287.833 438.5,288.167 438.5,288.5C 432.933,289.247 431.1,286.913 433,281.5C 433.311,284.975 435.144,286.975 438.5,287.5 Z"/></g>
<g><path style="opacity:1" fill="#435499" d="M 501.5,266.5 C 500.707,271.464 500.54,276.464 501,281.5C 498.089,285.128 494.756,285.461 491,282.5C 489.3,283.927 487.467,284.76 485.5,285C 487.126,282.705 489.293,281.205 492,280.5C 494.735,283.144 497.402,283.144 500,280.5C 500.25,276.056 498.084,273.222 493.5,272C 495.567,271.464 497.401,271.964 499,273.5C 499.748,271.16 499.248,269.16 497.5,267.5C 498.959,267.567 500.292,267.234 501.5,266.5 Z"/></g>
<g><path style="opacity:1" fill="#308d24" d="M 558.5,287.5 C 558.663,292.547 558.329,297.547 557.5,302.5C 555.992,304.181 554.992,306.181 554.5,308.5C 551.791,311.208 549.458,314.208 547.5,317.5C 546.833,317.5 546.5,317.833 546.5,318.5C 543.208,320.458 540.208,322.791 537.5,325.5C 535.326,325.75 533.659,326.75 532.5,328.5C 527.516,330.326 522.849,332.659 518.5,335.5C 516.447,335.402 514.78,336.069 513.5,337.5C 511.447,337.402 509.78,338.069 508.5,339.5C 503.835,340.057 499.502,341.39 495.5,343.5C 491.521,343.742 487.854,344.742 484.5,346.5C 478.536,348.165 472.536,348.498 466.5,347.5C 466.167,347.5 465.833,347.5 465.5,347.5C 456.294,344.657 446.961,341.99 437.5,339.5C 436.22,338.069 434.553,337.402 432.5,337.5C 430.574,335.707 428.241,334.707 425.5,334.5C 424.508,334.672 423.842,334.338 423.5,333.5C 421.819,331.992 419.819,330.992 417.5,330.5C 415.847,330.34 414.514,329.674 413.5,328.5C 413.027,327.094 412.027,326.427 410.5,326.5C 410.027,325.094 409.027,324.427 407.5,324.5C 406.738,322.738 405.404,321.738 403.5,321.5C 400.833,318.167 397.833,315.167 394.5,312.5C 393.66,310.147 392.326,308.147 390.5,306.5C 388.22,300.04 387.22,293.373 387.5,286.5C 391.949,301.439 393.449,301.106 392,285.5C 395.815,301.315 397.481,300.649 397,283.5C 396.586,289.556 398.253,294.889 402,299.5C 402.333,295.5 402.667,291.5 403,287.5C 403.915,288.328 404.581,289.328 405,290.5C 405.333,293.167 405.667,295.833 406,298.5C 406.29,296.956 406.956,295.623 408,294.5C 408.473,296.779 409.473,298.779 411,300.5C 410.813,297.111 410.979,293.778 411.5,290.5C 412.149,292.624 412.983,294.624 414,296.5C 414.14,293.957 414.806,291.623 416,289.5C 415.878,292.966 417.211,295.632 420,297.5C 419.845,295.189 419.845,292.856 420,290.5C 421.648,295.981 422.981,296.314 424,291.5C 424.615,293.116 425.615,294.449 427,295.5C 427.464,294.906 427.631,294.239 427.5,293.5C 428.167,293.5 428.833,293.5 429.5,293.5C 429.611,294.117 429.944,294.617 430.5,295C 433.365,295.183 436.031,295.683 438.5,296.5C 436.973,296.427 435.973,297.094 435.5,298.5C 431.215,299.208 426.882,299.708 422.5,300C 421.643,302.019 420.309,303.519 418.5,304.5C 414.809,305.336 413.809,307.336 415.5,310.5C 414.924,314.122 415.924,317.122 418.5,319.5C 419.148,317.851 420.148,316.518 421.5,315.5C 422.15,317.184 423.15,318.517 424.5,319.5C 427.109,325.704 428.776,325.704 429.5,319.5C 430.167,319.167 430.833,318.833 431.5,318.5C 432.391,317.89 433.391,317.557 434.5,317.5C 435.815,319.135 435.815,320.801 434.5,322.5C 435.425,323.562 436.425,323.562 437.5,322.5C 438.5,322.167 439.167,321.5 439.5,320.5C 440.167,318.833 440.833,317.167 441.5,315.5C 442.224,313.782 442.891,311.948 443.5,310C 446.362,309.07 448.695,307.403 450.5,305C 451.448,304.517 452.448,304.351 453.5,304.5C 455.426,306.293 457.759,307.293 460.5,307.5C 461.492,307.328 462.158,307.662 462.5,308.5C 462.953,309.458 463.619,310.292 464.5,311C 460.757,311.567 459.757,313.4 461.5,316.5C 462.952,318.852 464.952,319.185 467.5,317.5C 468.298,317.043 468.631,316.376 468.5,315.5C 470.717,314.631 473.05,314.298 475.5,314.5C 477.087,318.056 479.754,319.222 483.5,318C 485.211,316.867 485.711,315.367 485,313.5C 483.591,312.219 482.091,311.219 480.5,310.5C 483.669,309.083 486.669,307.417 489.5,305.5C 491.5,305.167 493.5,304.833 495.5,304.5C 497.179,305.916 498.846,307.25 500.5,308.5C 501.799,310.412 502.799,312.412 503.5,314.5C 504.098,319.592 506.764,322.426 511.5,323C 510.62,321.644 510.286,320.144 510.5,318.5C 511.117,318.389 511.617,318.056 512,317.5C 513.039,318.71 514.206,319.71 515.5,320.5C 515.323,324.91 516.657,325.577 519.5,322.5C 520.338,322.158 520.672,321.492 520.5,320.5C 521.167,320.5 521.5,320.167 521.5,319.5C 522.236,317.771 523.57,316.771 525.5,316.5C 526.895,320.195 528.228,319.861 529.5,315.5C 530.638,312.696 530.805,309.696 530,306.5C 529.184,305.177 528.017,304.511 526.5,304.5C 525.067,303.167 523.733,301.667 522.5,300C 518.848,299.501 515.182,299.335 511.5,299.5C 511.047,298.542 510.381,297.708 509.5,297C 512.684,296.246 515.351,294.746 517.5,292.5C 520.112,290.948 521.445,288.614 521.5,285.5C 522.167,284.833 522.833,284.167 523.5,283.5C 523.335,285.827 522.669,287.993 521.5,290C 522.449,290.617 523.282,290.451 524,289.5C 525.439,287.725 526.439,285.725 527,283.5C 527.333,285.5 527.667,287.5 528,289.5C 529.861,287.112 531.194,284.446 532,281.5C 532.798,284.711 532.298,287.711 530.5,290.5C 532.485,290.396 533.985,289.063 535,286.5C 535.305,288.557 535.305,290.557 535,292.5C 538.304,289.56 540.304,285.893 541,281.5C 542.023,282.6 542.523,283.933 542.5,285.5C 542.096,287.224 541.929,288.891 542,290.5C 543.381,288.365 544.381,286.032 545,283.5C 544.786,292.394 546.453,292.728 550,284.5C 550.617,287.035 550.117,289.368 548.5,291.5C 548.667,291.833 548.833,292.167 549,292.5C 550,291.5 551,290.5 552,289.5C 551.382,294.569 552.382,294.569 555,289.5C 555.333,290.5 555.667,291.5 556,292.5C 556.985,290.825 557.819,289.158 558.5,287.5 Z"/></g>
<g><path style="opacity:1" fill="#181716" d="M 443.5,284.5 C 441.027,284.088 439.694,285.088 439.5,287.5C 439.5,288.167 439.167,288.5 438.5,288.5C 438.5,288.167 438.5,287.833 438.5,287.5C 438.5,286.833 438.5,286.167 438.5,285.5C 439.879,283.403 441.545,283.07 443.5,284.5 Z"/></g>
<g><path style="opacity:1" fill="#a28801" d="M 443.5,284.5 C 443.611,285.117 443.944,285.617 444.5,286C 442.942,286.21 441.609,286.71 440.5,287.5C 440.167,287.5 439.833,287.5 439.5,287.5C 439.694,285.088 441.027,284.088 443.5,284.5 Z"/></g>
<g><path style="opacity:1" fill="#2f301e" d="M 422.5,281.5 C 424.3,285.76 426.633,289.76 429.5,293.5C 428.833,293.5 428.167,293.5 427.5,293.5C 424.744,289.983 423.077,285.983 422.5,281.5 Z"/></g>
<g><path style="opacity:1" fill="#413c2f" d="M 423.5,260.5 C 422.544,261.659 421.544,262.826 420.5,264C 420.57,264.765 420.903,265.265 421.5,265.5C 421.5,265.833 421.5,266.167 421.5,266.5C 422.363,269.923 423.53,273.256 425,276.5C 425.383,275.944 425.883,275.611 426.5,275.5C 426.448,277.903 426.781,280.236 427.5,282.5C 428.482,288.818 432.149,291.818 438.5,291.5C 432.863,293.43 429.03,291.43 427,285.5C 424.069,278.206 421.235,270.873 418.5,263.5C 419.688,261.738 421.355,260.738 423.5,260.5 Z"/></g>
<g><path style="opacity:1" fill="#776516" d="M 505.5,288.5 C 502.402,288.587 502.068,288.087 504.5,287C 502.881,286.764 501.881,285.931 501.5,284.5C 501.917,283.876 502.584,283.543 503.5,283.5C 507.432,284.334 508.098,286.001 505.5,288.5 Z"/></g>
<g><path style="opacity:1" fill="#41391a" d="M 519.5,281.5 C 519.12,284.745 517.953,287.745 516,290.5C 514.989,291.337 513.822,291.67 512.5,291.5C 515.313,288.554 517.646,285.221 519.5,281.5 Z"/></g>
<g><path style="opacity:1" fill="#1e2808" d="M 521.5,285.5 C 521.445,288.614 520.112,290.948 517.5,292.5C 518.584,289.996 519.917,287.663 521.5,285.5 Z"/></g>
<g><path style="opacity:1" fill="#3d5499" d="M 455.5,286.5 C 457.671,288.5 460.004,290.334 462.5,292C 458.896,291.906 456.563,290.073 455.5,286.5 Z"/></g>
<g><path style="opacity:1" fill="#d0af00" d="M 449.5,288.5 C 450.301,290.042 450.634,291.708 450.5,293.5C 449.022,293.762 447.689,293.429 446.5,292.5C 449.076,291.117 448.742,290.283 445.5,290C 446.563,288.812 447.897,288.312 449.5,288.5 Z"/></g>
<g><path style="opacity:1" fill="#314390" d="M 493.5,290.5 C 493.5,290.833 493.5,291.167 493.5,291.5C 491.512,291.173 489.512,290.84 487.5,290.5C 485.079,291.072 482.746,291.572 480.5,292C 483.625,288.934 487.292,287.267 491.5,287C 490.167,287.667 488.833,288.333 487.5,289C 489.586,289.315 491.586,289.815 493.5,290.5 Z"/></g>
<g><path style="opacity:1" fill="#201f0d" d="M 501.5,284.5 C 501.881,285.931 502.881,286.764 504.5,287C 502.068,288.087 502.402,288.587 505.5,288.5C 505.5,289.167 505.5,289.833 505.5,290.5C 504.425,289.438 503.425,289.438 502.5,290.5C 503.364,292.197 504.697,293.363 506.5,294C 510.357,294.758 514.023,294.258 517.5,292.5C 515.351,294.746 512.684,296.246 509.5,297C 510.381,297.708 511.047,298.542 511.5,299.5C 509.33,298.251 506.996,297.251 504.5,296.5C 503.416,296.685 502.416,297.018 501.5,297.5C 501.33,292.725 500.33,292.392 498.5,296.5C 497.526,294.915 496.026,293.915 494,293.5C 493.536,292.906 493.369,292.239 493.5,291.5C 493.5,291.167 493.5,290.833 493.5,290.5C 496.118,288.497 498.785,286.497 501.5,284.5 Z"/></g>
<g><path style="opacity:1" fill="#d2b000" d="M 496.5,288.5 C 500.762,289.193 501.095,290.026 497.5,291C 498.993,292.156 498.826,292.99 497,293.5C 493.927,292.252 493.76,290.585 496.5,288.5 Z"/></g>
<g><path style="opacity:1" fill="#1a180f" d="M 505.5,290.5 C 507.764,291.219 510.097,291.552 512.5,291.5C 511.726,292.147 510.726,292.48 509.5,292.5C 507.645,292.66 506.312,291.993 505.5,290.5 Z"/></g>
<g><path style="opacity:1" fill="#221d0b" d="M 443.5,284.5 C 445.048,284.821 445.715,285.821 445.5,287.5C 447.099,287.232 448.432,287.566 449.5,288.5C 447.897,288.312 446.563,288.812 445.5,290C 448.742,290.283 449.076,291.117 446.5,292.5C 447.689,293.429 449.022,293.762 450.5,293.5C 449.5,294.167 448.5,294.833 447.5,295.5C 448.11,296.391 448.443,297.391 448.5,298.5C 446.864,297.251 445.697,295.584 445,293.5C 444.506,295.134 444.34,296.801 444.5,298.5C 442.858,296.919 440.858,296.253 438.5,296.5C 436.031,295.683 433.365,295.183 430.5,295C 429.944,294.617 429.611,294.117 429.5,293.5C 432.779,294.492 436.112,294.659 439.5,294C 445.117,289.501 444.784,288.667 438.5,291.5C 438.833,290.833 439.167,290.167 439.5,289.5C 440.338,289.158 440.672,288.492 440.5,287.5C 441.609,286.71 442.942,286.21 444.5,286C 443.944,285.617 443.611,285.117 443.5,284.5 Z"/></g>
<g><path style="opacity:1" fill="#5f6ca4" d="M 449.5,288.5 C 451.164,289.949 451.998,291.949 452,294.5C 452.333,293.833 452.667,293.167 453,292.5C 455.596,294.549 458.429,296.215 461.5,297.5C 460.726,298.711 459.893,298.711 459,297.5C 458.878,299.437 458.045,300.77 456.5,301.5C 453.709,299.265 450.709,297.265 447.5,295.5C 448.5,294.833 449.5,294.167 450.5,293.5C 450.634,291.708 450.301,290.042 449.5,288.5 Z"/></g>
<g><path style="opacity:1" fill="#c40102" d="M 438.5,296.5 C 440.858,296.253 442.858,296.919 444.5,298.5C 445.5,298.833 446.167,299.5 446.5,300.5C 446.973,301.906 447.973,302.573 449.5,302.5C 448.176,305.987 445.676,308.321 442,309.5C 441.667,308.833 441.333,308.167 441,307.5C 441.083,310.119 441.25,312.786 441.5,315.5C 440.007,314.555 438.507,313.555 437,312.5C 434.98,313.032 434.147,314.365 434.5,316.5C 433.876,316.083 433.543,315.416 433.5,314.5C 434.388,312.845 434.888,311.178 435,309.5C 433.59,310.787 432.09,311.954 430.5,313C 431.406,314.699 431.739,316.533 431.5,318.5C 430.833,318.833 430.167,319.167 429.5,319.5C 430.086,312.884 427.586,311.217 422,314.5C 421.79,312.942 421.29,311.609 420.5,310.5C 419.597,308.38 418.263,308.046 416.5,309.5C 416.392,307.486 417.058,305.82 418.5,304.5C 419.833,304.5 421.167,304.5 422.5,304.5C 422.33,303.178 422.663,302.011 423.5,301C 427.167,300.667 430.833,300.333 434.5,300C 435.056,299.617 435.389,299.117 435.5,298.5C 437.027,298.573 438.027,297.906 438.5,296.5 Z"/></g>
<g><path style="opacity:1" fill="#c60102" d="M 511.5,299.5 C 514.641,300.321 517.975,300.821 521.5,301C 522.509,303.172 524.176,304.338 526.5,304.5C 527.476,305.815 528.476,307.148 529.5,308.5C 529.376,309.107 529.043,309.44 528.5,309.5C 527.312,308.316 526.145,308.316 525,309.5C 524.506,311.134 524.34,312.801 524.5,314.5C 523.202,313.884 522.202,313.884 521.5,314.5C 517.201,312.406 515.201,313.74 515.5,318.5C 513.353,317.068 513.02,315.235 514.5,313C 510.388,308.18 509.388,308.347 511.5,313.5C 511.376,314.107 511.043,314.44 510.5,314.5C 508.278,311.729 506.445,312.062 505,315.5C 504.617,314.944 504.117,314.611 503.5,314.5C 503.66,312.801 503.494,311.134 503,309.5C 502.329,308.748 501.496,308.414 500.5,308.5C 498.846,307.25 497.179,305.916 495.5,304.5C 498.213,302.786 500.213,300.453 501.5,297.5C 502.416,297.018 503.416,296.685 504.5,296.5C 506.996,297.251 509.33,298.251 511.5,299.5 Z"/></g>
<g><path style="opacity:1" fill="#2b0d00" d="M 438.5,296.5 C 438.027,297.906 437.027,298.573 435.5,298.5C 435.973,297.094 436.973,296.427 438.5,296.5 Z"/></g>
<g><path style="opacity:1" fill="#cead00" d="M 448.5,298.5 C 450.579,300.873 453.246,302.206 456.5,302.5C 457.78,303.931 459.447,304.598 461.5,304.5C 462.514,305.674 463.847,306.34 465.5,306.5C 468.076,308.888 469.076,311.888 468.5,315.5C 467.883,315.611 467.383,315.944 467,316.5C 466.667,314.5 466.333,312.5 466,310.5C 465.184,309.177 464.017,308.511 462.5,308.5C 462.158,307.662 461.492,307.328 460.5,307.5C 458.574,305.707 456.241,304.707 453.5,304.5C 452.486,303.326 451.153,302.66 449.5,302.5C 449.027,301.094 448.027,300.427 446.5,300.5C 446.167,299.5 445.5,298.833 444.5,298.5C 444.34,296.801 444.506,295.134 445,293.5C 445.697,295.584 446.864,297.251 448.5,298.5 Z"/></g>
<g><path style="opacity:1" fill="#93918e" d="M 447.5,295.5 C 450.709,297.265 453.709,299.265 456.5,301.5C 456.5,301.833 456.5,302.167 456.5,302.5C 453.246,302.206 450.579,300.873 448.5,298.5C 448.443,297.391 448.11,296.391 447.5,295.5 Z"/></g>
<g><path style="opacity:1" fill="#150801" d="M 511.5,299.5 C 515.182,299.335 518.848,299.501 522.5,300C 523.733,301.667 525.067,303.167 526.5,304.5C 524.176,304.338 522.509,303.172 521.5,301C 517.975,300.821 514.641,300.321 511.5,299.5 Z"/></g>
<g><path style="opacity:1" fill="#1b1002" d="M 435.5,298.5 C 435.389,299.117 435.056,299.617 434.5,300C 430.833,300.333 427.167,300.667 423.5,301C 422.663,302.011 422.33,303.178 422.5,304.5C 421.167,304.5 419.833,304.5 418.5,304.5C 420.309,303.519 421.643,302.019 422.5,300C 426.882,299.708 431.215,299.208 435.5,298.5 Z"/></g>
<g><path style="opacity:1" fill="#261803" d="M 446.5,300.5 C 448.027,300.427 449.027,301.094 449.5,302.5C 447.973,302.573 446.973,301.906 446.5,300.5 Z"/></g>
<g><path style="opacity:1" fill="#6a76ae" d="M 483.5,303.5 C 483.158,304.338 482.492,304.672 481.5,304.5C 480.849,303.909 480.182,303.243 479.5,302.5C 476.078,305.29 475.411,305.123 477.5,302C 475.744,301.86 474.078,302.36 472.5,303.5C 472.167,302.833 471.833,302.167 471.5,301.5C 470.549,302.326 469.549,302.492 468.5,302C 471.005,300.247 473.671,298.747 476.5,297.5C 478.496,298.61 480.329,298.276 482,296.5C 483.391,298.715 485.057,298.715 487,296.5C 487.333,297.167 487.667,297.833 488,298.5C 488.837,296.993 490.004,296.493 491.5,297C 488.645,299.031 485.978,301.197 483.5,303.5 Z"/></g>
<g><path style="opacity:1" fill="#a38a15" d="M 501.5,297.5 C 498.802,300.517 495.469,302.517 491.5,303.5C 490.027,302.929 488.36,302.929 486.5,303.5C 490.76,301.7 494.76,299.367 498.5,296.5C 500.33,292.392 501.33,292.725 501.5,297.5 Z"/></g>
<g><path style="opacity:1" fill="#1d1102" d="M 449.5,302.5 C 451.153,302.66 452.486,303.326 453.5,304.5C 452.448,304.351 451.448,304.517 450.5,305C 448.695,307.403 446.362,309.07 443.5,310C 442.891,311.948 442.224,313.782 441.5,315.5C 441.25,312.786 441.083,310.119 441,307.5C 441.333,308.167 441.667,308.833 442,309.5C 445.676,308.321 448.176,305.987 449.5,302.5 Z"/></g>
<g><path style="opacity:1" fill="#36311e" d="M 456.5,302.5 C 458.553,302.402 460.22,303.069 461.5,304.5C 459.447,304.598 457.78,303.931 456.5,302.5 Z"/></g>
<g><path style="opacity:1" fill="#d9b700" d="M 491.5,303.5 C 490.833,304.167 490.167,304.833 489.5,305.5C 485.728,305.884 482.728,307.55 480.5,310.5C 478.933,311.681 478.099,313.347 478,315.5C 477.333,313.5 477.333,311.5 478,309.5C 480.637,307.109 483.47,305.109 486.5,303.5C 488.36,302.929 490.027,302.929 491.5,303.5 Z"/></g>
<g><path style="opacity:1" fill="#292205" d="M 501.5,297.5 C 500.213,300.453 498.213,302.786 495.5,304.5C 493.5,304.833 491.5,305.167 489.5,305.5C 490.167,304.833 490.833,304.167 491.5,303.5C 495.469,302.517 498.802,300.517 501.5,297.5 Z"/></g>
<g><path style="opacity:1" fill="#232117" d="M 526.5,304.5 C 528.017,304.511 529.184,305.177 530,306.5C 530.805,309.696 530.638,312.696 529.5,315.5C 529.675,313.379 529.341,311.379 528.5,309.5C 529.043,309.44 529.376,309.107 529.5,308.5C 528.476,307.148 527.476,305.815 526.5,304.5 Z"/></g>
<g><path style="opacity:1" fill="#1d2507" d="M 453.5,304.5 C 456.241,304.707 458.574,305.707 460.5,307.5C 457.759,307.293 455.426,306.293 453.5,304.5 Z"/></g>
<g><path style="opacity:1" fill="#2d291b" d="M 461.5,304.5 C 463.38,304.229 464.713,304.896 465.5,306.5C 463.847,306.34 462.514,305.674 461.5,304.5 Z"/></g>
<g><path style="opacity:1" fill="#1d130c" d="M 557.5,302.5 C 557.539,305.089 556.539,307.089 554.5,308.5C 554.992,306.181 555.992,304.181 557.5,302.5 Z"/></g>
<g><path style="opacity:1" fill="#231e08" d="M 418.5,304.5 C 417.058,305.82 416.392,307.486 416.5,309.5C 416.5,310.167 416.167,310.5 415.5,310.5C 413.809,307.336 414.809,305.336 418.5,304.5 Z"/></g>
<g><path style="opacity:1" fill="#323d6c" d="M 475.5,313.5 C 475.5,313.833 475.5,314.167 475.5,314.5C 473.05,314.298 470.717,314.631 468.5,315.5C 469.076,311.888 468.076,308.888 465.5,306.5C 466.583,306.539 467.583,306.873 468.5,307.5C 469.62,306.167 470.953,305.667 472.5,306C 470.473,307.396 470.14,309.062 471.5,311C 470.692,311.308 470.025,311.808 469.5,312.5C 471.396,313.466 473.396,313.799 475.5,313.5 Z"/></g>
<g><path style="opacity:1" fill="#343315" d="M 483.5,303.5 C 484.5,303.5 485.5,303.5 486.5,303.5C 483.47,305.109 480.637,307.109 478,309.5C 477.333,311.5 477.333,313.5 478,315.5C 478.099,313.347 478.933,311.681 480.5,310.5C 482.091,311.219 483.591,312.219 485,313.5C 485.711,315.367 485.211,316.867 483.5,318C 479.754,319.222 477.087,318.056 475.5,314.5C 475.5,314.167 475.5,313.833 475.5,313.5C 475.932,309.41 477.932,306.41 481.5,304.5C 482.492,304.672 483.158,304.338 483.5,303.5 Z"/></g>
<g><path style="opacity:1" fill="#1c2a0a" d="M 489.5,305.5 C 486.669,307.417 483.669,309.083 480.5,310.5C 482.728,307.55 485.728,305.884 489.5,305.5 Z"/></g>
<g><path style="opacity:1" fill="#1c190e" d="M 390.5,306.5 C 392.326,308.147 393.66,310.147 394.5,312.5C 392.178,311.198 390.845,309.198 390.5,306.5 Z"/></g>
<g><path style="opacity:1" fill="#111204" d="M 500.5,308.5 C 501.496,308.414 502.329,308.748 503,309.5C 503.494,311.134 503.66,312.801 503.5,314.5C 502.799,312.412 501.799,310.412 500.5,308.5 Z"/></g>
<g><path style="opacity:1" fill="#430400" d="M 514.5,308.5 C 514.56,307.957 514.893,307.624 515.5,307.5C 520.271,310.267 520.271,311.434 515.5,311C 516.566,309.841 516.233,309.008 514.5,308.5 Z"/></g>
<g><path style="opacity:1" fill="#1c2408" d="M 462.5,308.5 C 464.017,308.511 465.184,309.177 466,310.5C 466.333,312.5 466.667,314.5 467,316.5C 467.383,315.944 467.883,315.611 468.5,315.5C 468.631,316.376 468.298,317.043 467.5,317.5C 464.952,319.185 462.952,318.852 461.5,316.5C 459.757,313.4 460.757,311.567 464.5,311C 463.619,310.292 462.953,309.458 462.5,308.5 Z"/></g>
<g><path style="opacity:1" fill="#1d0a01" d="M 434.5,316.5 C 434.5,316.833 434.5,317.167 434.5,317.5C 433.391,317.557 432.391,317.89 431.5,318.5C 431.739,316.533 431.406,314.699 430.5,313C 432.09,311.954 433.59,310.787 435,309.5C 434.888,311.178 434.388,312.845 433.5,314.5C 433.543,315.416 433.876,316.083 434.5,316.5 Z"/></g>
<g><path style="opacity:1" fill="#1e377f" d="M 528.5,309.5 C 529.341,311.379 529.675,313.379 529.5,315.5C 528.228,319.861 526.895,320.195 525.5,316.5C 525.167,315.833 524.833,315.167 524.5,314.5C 524.34,312.801 524.506,311.134 525,309.5C 526.145,308.316 527.312,308.316 528.5,309.5 Z"/></g>
<g><path style="opacity:1" fill="#72b5d2" d="M 525.5,310.5 C 526.496,310.414 527.329,310.748 528,311.5C 528.82,313.728 528.487,315.728 527,317.5C 526.023,315.26 525.523,312.927 525.5,310.5 Z"/></g>
<g><path style="opacity:1" fill="#cead00" d="M 480.5,312.5 C 483.564,312.981 484.398,314.314 483,316.5C 482.683,314.699 482.016,314.366 481,315.5C 480.517,314.552 480.351,313.552 480.5,312.5 Z"/></g>
<g><path style="opacity:1" fill="#1c0c08" d="M 515.5,318.5 C 515.5,319.167 515.5,319.833 515.5,320.5C 514.206,319.71 513.039,318.71 512,317.5C 511.617,318.056 511.117,318.389 510.5,318.5C 510.5,317.167 510.5,315.833 510.5,314.5C 511.043,314.44 511.376,314.107 511.5,313.5C 509.388,308.347 510.388,308.18 514.5,313C 513.02,315.235 513.353,317.068 515.5,318.5 Z"/></g>
<g><path style="opacity:1" fill="#1f190f" d="M 554.5,308.5 C 553.306,312.363 550.973,315.363 547.5,317.5C 549.458,314.208 551.791,311.208 554.5,308.5 Z"/></g>
<g><path style="opacity:1" fill="#243172" d="M 441.5,315.5 C 440.833,317.167 440.167,318.833 439.5,320.5C 438.539,318.735 438.205,316.735 438.5,314.5C 437.5,314.5 436.5,314.5 435.5,314.5C 435.858,317.267 436.525,319.933 437.5,322.5C 436.425,323.562 435.425,323.562 434.5,322.5C 435.815,320.801 435.815,319.135 434.5,317.5C 434.5,317.167 434.5,316.833 434.5,316.5C 434.147,314.365 434.98,313.032 437,312.5C 438.507,313.555 440.007,314.555 441.5,315.5 Z"/></g>
<g><path style="opacity:1" fill="#6cacca" d="M 520.5,320.5 C 520.672,321.492 520.338,322.158 519.5,322.5C 517.382,320.647 516.549,318.314 517,315.5C 518,314.167 519,314.167 520,315.5C 520.494,317.134 520.66,318.801 520.5,320.5 Z"/></g>
<g><path style="opacity:1" fill="#24170f" d="M 394.5,312.5 C 397.833,315.167 400.833,318.167 403.5,321.5C 399.5,319.5 396.5,316.5 394.5,312.5 Z"/></g>
<g><path style="opacity:1" fill="#a08600" d="M 461.5,316.5 C 461.574,312.459 462.907,311.792 465.5,314.5C 463.009,315.541 463.009,316.374 465.5,317C 464.072,317.579 462.738,317.412 461.5,316.5 Z"/></g>
<g><path style="opacity:1" fill="#1b3780" d="M 521.5,314.5 C 521.5,316.167 521.5,317.833 521.5,319.5C 521.5,320.167 521.167,320.5 520.5,320.5C 520.66,318.801 520.494,317.134 520,315.5C 519,314.167 518,314.167 517,315.5C 516.549,318.314 517.382,320.647 519.5,322.5C 516.657,325.577 515.323,324.91 515.5,320.5C 515.5,319.833 515.5,319.167 515.5,318.5C 515.201,313.74 517.201,312.406 521.5,314.5 Z"/></g>
<g><path style="opacity:1" fill="#211d17" d="M 524.5,314.5 C 524.833,315.167 525.167,315.833 525.5,316.5C 523.57,316.771 522.236,317.771 521.5,319.5C 521.5,317.833 521.5,316.167 521.5,314.5C 522.202,313.884 523.202,313.884 524.5,314.5 Z"/></g>
<g><path style="opacity:1" fill="#29306f" d="M 420.5,310.5 C 421.29,311.609 421.79,312.942 422,314.5C 427.586,311.217 430.086,312.884 429.5,319.5C 428.776,325.704 427.109,325.704 424.5,319.5C 423.15,318.517 422.15,317.184 421.5,315.5C 420.148,316.518 419.148,317.851 418.5,319.5C 415.924,317.122 414.924,314.122 415.5,310.5C 416.167,310.5 416.5,310.167 416.5,309.5C 418.263,308.046 419.597,308.38 420.5,310.5 Z"/></g>
<g><path style="opacity:1" fill="#6eb1cf" d="M 424.5,319.5 C 423.756,316.05 425.09,314.384 428.5,314.5C 428.664,317.187 428.497,319.854 428,322.5C 426.961,321.29 425.794,320.29 424.5,319.5 Z"/></g>
<g><path style="opacity:1" fill="#6aadcd" d="M 420.5,310.5 C 420.245,313.016 419.411,315.35 418,317.5C 415.37,313.621 416.203,311.288 420.5,310.5 Z"/></g>
<g><path style="opacity:1" fill="#2b3470" d="M 510.5,314.5 C 510.5,315.833 510.5,317.167 510.5,318.5C 510.286,320.144 510.62,321.644 511.5,323C 506.764,322.426 504.098,319.592 503.5,314.5C 504.117,314.611 504.617,314.944 505,315.5C 506.445,312.062 508.278,311.729 510.5,314.5 Z"/></g>
<g><path style="opacity:1" fill="#73b8d4" d="M 506.5,314.5 C 507.5,314.5 508.5,314.5 509.5,314.5C 508.424,322.422 507.424,322.422 506.5,314.5 Z"/></g>
<g><path style="opacity:1" fill="#70adc8" d="M 439.5,320.5 C 439.167,321.5 438.5,322.167 437.5,322.5C 436.525,319.933 435.858,317.267 435.5,314.5C 436.5,314.5 437.5,314.5 438.5,314.5C 438.205,316.735 438.539,318.735 439.5,320.5 Z"/></g>
<g><path style="opacity:1" fill="#23150d" d="M 546.5,318.5 C 544.363,321.973 541.363,324.306 537.5,325.5C 540.208,322.791 543.208,320.458 546.5,318.5 Z"/></g>
<g><path style="opacity:1" fill="#16190b" d="M 403.5,321.5 C 405.404,321.738 406.738,322.738 407.5,324.5C 405.596,324.262 404.262,323.262 403.5,321.5 Z"/></g>
<g><path style="opacity:1" fill="#17150a" d="M 407.5,324.5 C 409.027,324.427 410.027,325.094 410.5,326.5C 408.973,326.573 407.973,325.906 407.5,324.5 Z"/></g>
<g><path style="opacity:1" fill="#1a150b" d="M 537.5,325.5 C 536.341,327.25 534.674,328.25 532.5,328.5C 533.659,326.75 535.326,325.75 537.5,325.5 Z"/></g>
<g><path style="opacity:1" fill="#1a120a" d="M 410.5,326.5 C 412.027,326.427 413.027,327.094 413.5,328.5C 411.973,328.573 410.973,327.906 410.5,326.5 Z"/></g>
<g><path style="opacity:1" fill="#28170e" d="M 532.5,328.5 C 528.372,331.898 523.705,334.231 518.5,335.5C 522.849,332.659 527.516,330.326 532.5,328.5 Z"/></g>
<g><path style="opacity:1" fill="#20160c" d="M 417.5,330.5 C 419.819,330.992 421.819,331.992 423.5,333.5C 420.911,333.539 418.911,332.539 417.5,330.5 Z"/></g>
<g><path style="opacity:1" fill="#1c160b" d="M 425.5,334.5 C 428.241,334.707 430.574,335.707 432.5,337.5C 429.759,337.293 427.426,336.293 425.5,334.5 Z"/></g>
<g><path style="opacity:1" fill="#171309" d="M 518.5,335.5 C 517.22,336.931 515.553,337.598 513.5,337.5C 514.78,336.069 516.447,335.402 518.5,335.5 Z"/></g>
<g><path style="opacity:1" fill="#1f110a" d="M 432.5,337.5 C 434.553,337.402 436.22,338.069 437.5,339.5C 435.447,339.598 433.78,338.931 432.5,337.5 Z"/></g>
<g><path style="opacity:1" fill="#191109" d="M 513.5,337.5 C 512.22,338.931 510.553,339.598 508.5,339.5C 509.78,338.069 511.447,337.402 513.5,337.5 Z"/></g>
<g><path style="opacity:1" fill="#1b180c" d="M 508.5,339.5 C 504.498,341.61 500.165,342.943 495.5,343.5C 499.502,341.39 503.835,340.057 508.5,339.5 Z"/></g>
<g><path style="opacity:1" fill="#251c0f" d="M 437.5,339.5 C 446.961,341.99 456.294,344.657 465.5,347.5C 455.677,346.222 446.344,343.555 437.5,339.5 Z"/></g>
<g><path style="opacity:1" fill="#15160a" d="M 495.5,343.5 C 492.146,345.258 488.479,346.258 484.5,346.5C 487.854,344.742 491.521,343.742 495.5,343.5 Z"/></g>
<g><path style="opacity:1" fill="#381411" d="M 484.5,346.5 C 484.389,347.117 484.056,347.617 483.5,348C 480,348.5 476.5,349 473,349.5C 470.516,349.503 468.349,348.837 466.5,347.5C 472.536,348.498 478.536,348.165 484.5,346.5 Z"/></g>
</svg>
