<?xml version="1.0" encoding="UTF-8"?>
<!DOCTYPE svg PUBLIC "-//W3C//DTD SVG 1.1//EN" "http://www.w3.org/Graphics/SVG/1.1/DTD/svg11.dtd">
<svg xmlns="http://www.w3.org/2000/svg" version="1.1" width="640px" height="480px" style="shape-rendering:geometricPrecision; text-rendering:geometricPrecision; image-rendering:optimizeQuality; fill-rule:evenodd; clip-rule:evenodd" xmlns:xlink="http://www.w3.org/1999/xlink">
<g><path style="opacity:1" fill="#d42b1d" d="M -0.5,-0.5 C 212.833,-0.5 426.167,-0.5 639.5,-0.5C 639.5,52.8333 639.5,106.167 639.5,159.5C 426.167,159.5 212.833,159.5 -0.5,159.5C -0.5,106.167 -0.5,52.8333 -0.5,-0.5 Z"/></g>
<g><path style="opacity:1" fill="#fedf00" d="M -0.5,159.5 C 212.833,159.5 426.167,159.5 639.5,159.5C 639.5,212.833 639.5,266.167 639.5,319.5C 426.167,319.5 212.833,319.5 -0.5,319.5C -0.5,266.167 -0.5,212.833 -0.5,159.5 Z"/></g>
<g><path style="opacity:1" fill="#397626" d="M 346.5,184.5 C 345.069,184.119 344.236,183.119 344,181.5C 343.097,182.701 341.931,183.535 340.5,184C 341.823,184.816 342.489,185.983 342.5,187.5C 340.708,187.634 339.042,187.301 337.5,186.5C 337.982,185.584 338.315,184.584 338.5,183.5C 337.018,181.504 336.351,179.504 336.5,177.5C 337.376,176.749 338.376,176.249 339.5,176C 336.8,175.051 335.967,173.217 337,170.5C 339.36,171.059 341.693,172.392 344,174.5C 345.855,177.576 346.688,180.909 346.5,184.5 Z"/></g>
<g><path style="opacity:1" fill="#58841d" d="M 300.5,185.5 C 297.673,185.584 295.006,186.25 292.5,187.5C 291.645,186.469 290.978,185.303 290.5,184C 290.892,182.989 291.559,182.489 292.5,182.5C 291.674,181.549 291.508,180.549 292,179.5C 293,179.5 294,179.5 295,179.5C 294.805,177.874 294.805,176.207 295,174.5C 295.333,174.833 295.667,175.167 296,175.5C 296.249,174.376 296.749,173.376 297.5,172.5C 299.373,173.089 301.04,172.422 302.5,170.5C 302.63,172.423 302.964,174.256 303.5,176C 302.115,179.039 301.115,182.206 300.5,185.5 Z"/></g>
<g><path style="opacity:1" fill="#72871d" d="M 346.5,184.5 C 347.222,184.082 347.722,183.416 348,182.5C 348.315,184.586 348.815,186.586 349.5,188.5C 347.139,188.326 344.806,187.993 342.5,187.5C 342.489,185.983 341.823,184.816 340.5,184C 341.931,183.535 343.097,182.701 344,181.5C 344.236,183.119 345.069,184.119 346.5,184.5 Z"/></g>
<g><path style="opacity:1" fill="#c3c1bb" d="M 300.5,185.5 C 303.413,186.241 306.413,186.741 309.5,187C 309.792,190.045 311.292,192.212 314,193.5C 318.496,192.831 322.996,191.998 327.5,191C 328.167,189.667 328.833,188.333 329.5,187C 332.146,186.503 334.813,186.336 337.5,186.5C 339.042,187.301 340.708,187.634 342.5,187.5C 344.806,187.993 347.139,188.326 349.5,188.5C 350.167,189.167 350.833,189.833 351.5,190.5C 345.202,189.338 338.869,188.838 332.5,189C 328.912,192.966 324.578,194.633 319.5,194C 323.705,197.198 323.372,199.698 318.5,201.5C 316.97,201.36 315.97,200.693 315.5,199.5C 318.179,199.475 319.512,198.142 319.5,195.5C 317.784,195.629 316.117,195.962 314.5,196.5C 311.338,194.713 308.671,192.213 306.5,189C 301.833,188.333 297.167,188.333 292.5,189C 289.242,190.467 285.908,191.633 282.5,192.5C 284.121,190.883 286.121,189.716 288.5,189C 289.126,188.25 289.626,187.416 290,186.5C 290.671,187.252 291.504,187.586 292.5,187.5C 295.006,186.25 297.673,185.584 300.5,185.5 Z"/></g>
<g><path style="opacity:1" fill="#847346" d="M 357.5,196.5 C 357.611,195.883 357.944,195.383 358.5,195C 356.767,193.811 355.1,192.644 353.5,191.5C 354.496,191.586 355.329,191.252 356,190.5C 358.195,192.688 360.695,194.521 363.5,196C 361.782,196.346 360.115,196.846 358.5,197.5C 357.893,197.376 357.56,197.043 357.5,196.5 Z"/></g>
<g><path style="opacity:1" fill="#d8c319" d="M 287.5,197.5 C 288.167,196.167 288.833,196.167 289.5,197.5C 291.138,198.705 291.471,200.038 290.5,201.5C 289.5,200.167 288.5,198.833 287.5,197.5 Z"/></g>
<g><path style="opacity:1" fill="#cac9af" d="M 286.5,197.5 C 286.833,197.5 287.167,197.5 287.5,197.5C 288.5,198.833 289.5,200.167 290.5,201.5C 290.5,201.833 290.5,202.167 290.5,202.5C 289.833,202.5 289.167,202.5 288.5,202.5C 287.559,200.95 286.893,199.284 286.5,197.5 Z"/></g>
<g><path style="opacity:1" fill="#d8c323" d="M 351.5,198.5 C 350.974,200.23 349.974,201.564 348.5,202.5C 348.5,201.167 348.5,199.833 348.5,198.5C 349.652,197.375 350.652,197.375 351.5,198.5 Z"/></g>
<g><path style="opacity:1" fill="#477e34" d="M 289.5,197.5 C 291.638,197.703 293.305,198.703 294.5,200.5C 297.345,198.809 299.679,199.143 301.5,201.5C 301.565,201.938 301.399,202.272 301,202.5C 300.667,201.833 300.333,201.167 300,200.5C 299.097,201.701 297.931,202.535 296.5,203C 299.394,205.96 299.061,206.794 295.5,205.5C 294.081,206.005 293.415,207.005 293.5,208.5C 291.121,207.438 291.121,206.105 293.5,204.5C 292.643,203.575 291.643,202.908 290.5,202.5C 290.5,202.167 290.5,201.833 290.5,201.5C 291.471,200.038 291.138,198.705 289.5,197.5 Z"/></g>
<g><path style="opacity:1" fill="#d8d4bf" d="M 272.5,210.5 C 272.167,210.5 271.833,210.5 271.5,210.5C 270.5,210.5 269.5,210.5 268.5,210.5C 266.745,207.593 265.245,204.593 264,201.5C 266.746,203.037 269.079,205.037 271,207.5C 271.333,206.833 271.667,206.167 272,205.5C 272.494,207.134 272.66,208.801 272.5,210.5 Z"/></g>
<g><path style="opacity:1" fill="#c8311c" d="M 288.5,202.5 C 289.167,202.5 289.833,202.5 290.5,202.5C 291.643,202.908 292.643,203.575 293.5,204.5C 291.121,206.105 291.121,207.438 293.5,208.5C 293.833,208.5 294.167,208.5 294.5,208.5C 295.29,209.401 296.29,210.068 297.5,210.5C 296.833,211.5 296.167,212.5 295.5,213.5C 291.918,211.839 290.252,213.173 290.5,217.5C 289.599,219.727 287.933,220.727 285.5,220.5C 285.466,216.396 284.799,212.396 283.5,208.5C 283.724,205.278 285.39,203.278 288.5,202.5 Z"/></g>
<g><path style="opacity:1" fill="#72931d" d="M 301.5,201.5 C 303.153,201.66 304.486,202.326 305.5,203.5C 305.5,203.833 305.5,204.167 305.5,204.5C 301.982,206.086 298.315,207.419 294.5,208.5C 294.167,208.5 293.833,208.5 293.5,208.5C 293.415,207.005 294.081,206.005 295.5,205.5C 299.061,206.794 299.394,205.96 296.5,203C 297.931,202.535 299.097,201.701 300,200.5C 300.333,201.167 300.667,201.833 301,202.5C 301.399,202.272 301.565,201.938 301.5,201.5 Z"/></g>
<g><path style="opacity:1" fill="#422c22" d="M 314.5,196.5 C 312.32,195.145 310.32,195.311 308.5,197C 310.321,199.137 312.654,199.97 315.5,199.5C 315.97,200.693 316.97,201.36 318.5,201.5C 323.372,199.698 323.705,197.198 319.5,194C 324.578,194.633 328.912,192.966 332.5,189C 338.869,188.838 345.202,189.338 351.5,190.5C 352.492,190.328 353.158,190.662 353.5,191.5C 355.1,192.644 356.767,193.811 358.5,195C 357.944,195.383 357.611,195.883 357.5,196.5C 355.833,197.167 354.167,197.833 352.5,198.5C 352.167,198.5 351.833,198.5 351.5,198.5C 350.652,197.375 349.652,197.375 348.5,198.5C 344.279,198.686 340.279,199.686 336.5,201.5C 335.016,203.074 333.349,204.407 331.5,205.5C 328.528,204.319 326.528,205.319 325.5,208.5C 324.5,209.833 323.5,209.833 322.5,208.5C 321.167,209.167 320.167,210.167 319.5,211.5C 318.732,210.737 318.232,209.737 318,208.5C 317.361,211.212 315.861,213.212 313.5,214.5C 311.784,214.629 310.117,214.962 308.5,215.5C 309.242,213.02 310.242,210.687 311.5,208.5C 312.598,207.399 312.765,206.066 312,204.5C 310.984,205.634 310.317,205.301 310,203.5C 308.701,203.966 307.201,203.966 305.5,203.5C 304.486,202.326 303.153,201.66 301.5,201.5C 299.679,199.143 297.345,198.809 294.5,200.5C 293.305,198.703 291.638,197.703 289.5,197.5C 288.833,196.167 288.167,196.167 287.5,197.5C 287.167,197.5 286.833,197.5 286.5,197.5C 283.579,196.519 280.579,195.685 277.5,195C 278.91,193.628 280.577,192.795 282.5,192.5C 285.908,191.633 289.242,190.467 292.5,189C 297.167,188.333 301.833,188.333 306.5,189C 308.671,192.213 311.338,194.713 314.5,196.5 Z"/></g>
<g><path style="opacity:1" fill="#ca915c" d="M 314.5,196.5 C 316.117,195.962 317.784,195.629 319.5,195.5C 319.512,198.142 318.179,199.475 315.5,199.5C 312.654,199.97 310.321,199.137 308.5,197C 310.32,195.311 312.32,195.145 314.5,196.5 Z"/></g>
<g><path style="opacity:1" fill="#d9d4bc" d="M 367.5,210.5 C 367.167,210.5 366.833,210.5 366.5,210.5C 366.34,208.801 366.506,207.134 367,205.5C 367.333,206.167 367.667,206.833 368,207.5C 369.921,205.037 372.254,203.037 375,201.5C 374.405,203.35 373.905,205.35 373.5,207.5C 372.5,207.5 371.5,207.5 370.5,207.5C 370.5,208.5 370.5,209.5 370.5,210.5C 369.5,210.5 368.5,210.5 367.5,210.5 Z"/></g>
<g><path style="opacity:1" fill="#eed511" d="M 348.5,202.5 C 348.573,204.027 347.906,205.027 346.5,205.5C 346.427,203.973 347.094,202.973 348.5,202.5 Z"/></g>
<g><path style="opacity:1" fill="#e8cc04" d="M 331.5,205.5 C 331.5,205.833 331.5,206.167 331.5,206.5C 329.711,207.877 327.711,208.877 325.5,209.5C 325.5,209.167 325.5,208.833 325.5,208.5C 326.528,205.319 328.528,204.319 331.5,205.5 Z"/></g>
<g><path style="opacity:1" fill="#b1ad0c" d="M 305.5,203.5 C 307.201,203.966 308.701,203.966 310,203.5C 310.317,205.301 310.984,205.634 312,204.5C 312.765,206.066 312.598,207.399 311.5,208.5C 309.408,208.439 307.908,207.439 307,205.5C 308.429,210.9 306.263,212.9 300.5,211.5C 300.5,211.167 300.5,210.833 300.5,210.5C 302.167,210.5 303.833,210.5 305.5,210.5C 305.5,208.5 305.5,206.5 305.5,204.5C 305.5,204.167 305.5,203.833 305.5,203.5 Z"/></g>
<g><path style="opacity:1" fill="#416e21" d="M 305.5,204.5 C 305.5,206.5 305.5,208.5 305.5,210.5C 303.833,210.5 302.167,210.5 300.5,210.5C 299.5,210.5 298.5,210.5 297.5,210.5C 296.29,210.068 295.29,209.401 294.5,208.5C 298.315,207.419 301.982,206.086 305.5,204.5 Z"/></g>
<g><path style="opacity:1" fill="#94a411" d="M 336.5,201.5 C 337.605,203.713 337.605,205.88 336.5,208C 337.308,208.308 337.975,208.808 338.5,209.5C 335.81,210.507 333.144,211.507 330.5,212.5C 330.389,211.883 330.056,211.383 329.5,211C 331.757,209.504 333.757,207.837 335.5,206C 335.333,205.5 335.167,205 335,204.5C 334.184,205.823 333.017,206.489 331.5,206.5C 331.5,206.167 331.5,205.833 331.5,205.5C 333.349,204.407 335.016,203.074 336.5,201.5 Z"/></g>
<g><path style="opacity:1" fill="#386420" d="M 311.5,208.5 C 310.242,210.687 309.242,213.02 308.5,215.5C 307.5,216.167 306.5,216.833 305.5,217.5C 304.909,216.849 304.243,216.182 303.5,215.5C 304.5,214.833 305.5,214.167 306.5,213.5C 306.167,213.167 305.833,212.833 305.5,212.5C 303.028,213.766 300.694,213.766 298.5,212.5C 298.842,211.662 299.508,211.328 300.5,211.5C 306.263,212.9 308.429,210.9 307,205.5C 307.908,207.439 309.408,208.439 311.5,208.5 Z"/></g>
<g><path style="opacity:1" fill="#eccf15" d="M 344.5,207.5 C 345.3,209.573 346.633,211.24 348.5,212.5C 346.833,213.5 345.5,214.833 344.5,216.5C 343.485,215.54 343.485,214.373 344.5,213C 344.164,211.97 343.497,211.47 342.5,211.5C 342.989,210.005 343.655,208.671 344.5,207.5 Z"/></g>
<g><path style="opacity:1" fill="#d9d4ba" d="M 264.5,216.5 C 263.833,216.5 263.5,216.833 263.5,217.5C 261.801,217.66 260.134,217.494 258.5,217C 259.167,216.667 259.833,216.333 260.5,216C 258.281,214.237 256.281,212.237 254.5,210C 257.897,210.874 261.23,212.041 264.5,213.5C 264.5,214.5 264.5,215.5 264.5,216.5 Z"/></g>
<g><path style="opacity:1" fill="#987c4a" d="M 319.5,211.5 C 320.209,212.404 321.209,212.737 322.5,212.5C 322.5,211.167 322.5,209.833 322.5,208.5C 323.5,209.833 324.5,209.833 325.5,208.5C 325.5,208.833 325.5,209.167 325.5,209.5C 324.909,210.151 324.243,210.818 323.5,211.5C 324.127,212.417 324.461,213.417 324.5,214.5C 323.073,216.148 322.24,218.148 322,220.5C 321.505,218.527 321.338,216.527 321.5,214.5C 318.691,214.957 316.024,214.957 313.5,214.5C 315.861,213.212 317.361,211.212 318,208.5C 318.232,209.737 318.732,210.737 319.5,211.5 Z"/></g>
<g><path style="opacity:1" fill="#eed004" d="M 322.5,208.5 C 322.5,209.833 322.5,211.167 322.5,212.5C 321.209,212.737 320.209,212.404 319.5,211.5C 320.167,210.167 321.167,209.167 322.5,208.5 Z"/></g>
<g><path style="opacity:1" fill="#2d702c" d="M 348.5,198.5 C 348.5,199.833 348.5,201.167 348.5,202.5C 347.094,202.973 346.427,203.973 346.5,205.5C 346.167,206.5 345.5,207.167 344.5,207.5C 343.655,208.671 342.989,210.005 342.5,211.5C 340.251,212.08 338.585,213.413 337.5,215.5C 336.29,215.932 335.29,216.599 334.5,217.5C 332.145,216.341 329.812,215.341 327.5,214.5C 328.5,213.833 329.5,213.167 330.5,212.5C 333.144,211.507 335.81,210.507 338.5,209.5C 337.975,208.808 337.308,208.308 336.5,208C 337.605,205.88 337.605,203.713 336.5,201.5C 340.279,199.686 344.279,198.686 348.5,198.5 Z"/></g>
<g><path style="opacity:1" fill="#ce311c" d="M 275.5,212.5 C 281.426,215.291 282.926,219.624 280,225.5C 279.259,226.641 278.425,226.641 277.5,225.5C 276.702,225.957 276.369,226.624 276.5,227.5C 275.191,225.429 274.525,222.929 274.5,220C 274.503,217.31 274.836,214.81 275.5,212.5 Z"/></g>
<g><path style="opacity:1" fill="#cab12e" d="M 298.5,212.5 C 300.694,213.766 303.028,213.766 305.5,212.5C 305.833,212.833 306.167,213.167 306.5,213.5C 305.5,214.167 304.5,214.833 303.5,215.5C 304.243,216.182 304.909,216.849 305.5,217.5C 303.833,218.167 302.167,218.833 300.5,219.5C 301.301,217.958 301.634,216.292 301.5,214.5C 300.022,214.762 298.689,214.429 297.5,213.5C 297.624,212.893 297.957,212.56 298.5,212.5 Z"/></g>
<g><path style="opacity:1" fill="#5d7526" d="M 330.5,212.5 C 329.5,213.167 328.5,213.833 327.5,214.5C 326.5,214.5 325.5,214.5 324.5,214.5C 324.461,213.417 324.127,212.417 323.5,211.5C 324.243,210.818 324.909,210.151 325.5,209.5C 327.711,208.877 329.711,207.877 331.5,206.5C 333.017,206.489 334.184,205.823 335,204.5C 335.167,205 335.333,205.5 335.5,206C 333.757,207.837 331.757,209.504 329.5,211C 330.056,211.383 330.389,211.883 330.5,212.5 Z"/></g>
<g><path style="opacity:1" fill="#ce301c" d="M 363.5,212.5 C 364.163,214.641 364.497,216.975 364.5,219.5C 364.471,222.269 363.805,224.603 362.5,226.5C 361.375,225.986 360.209,225.653 359,225.5C 356.074,219.624 357.574,215.291 363.5,212.5 Z"/></g>
<g><path style="opacity:1" fill="#a46537" d="M 295.5,213.5 C 295.56,217.327 294.393,217.994 292,215.5C 291.536,216.094 291.369,216.761 291.5,217.5C 291.167,217.5 290.833,217.5 290.5,217.5C 290.252,213.173 291.918,211.839 295.5,213.5 Z"/></g>
<g><path style="opacity:1" fill="#d8d2b5" d="M 374.5,217.5 C 374.5,217.167 374.5,216.833 374.5,216.5C 374.343,215.127 374.51,213.793 375,212.5C 376.978,213.816 378.478,213.316 379.5,211C 381.165,210.212 382.831,209.878 384.5,210C 382.719,212.237 380.719,214.237 378.5,216C 379.167,216.333 379.833,216.667 380.5,217C 378.527,217.495 376.527,217.662 374.5,217.5 Z"/></g>
<g><path style="opacity:1" fill="#cac8c4" d="M 297.5,210.5 C 298.5,210.5 299.5,210.5 300.5,210.5C 300.5,210.833 300.5,211.167 300.5,211.5C 299.508,211.328 298.842,211.662 298.5,212.5C 297.957,212.56 297.624,212.893 297.5,213.5C 298.689,214.429 300.022,214.762 301.5,214.5C 301.634,216.292 301.301,217.958 300.5,219.5C 299.728,220.694 298.728,221.694 297.5,222.5C 295.565,223.15 293.565,223.483 291.5,223.5C 291.5,221.5 291.5,219.5 291.5,217.5C 291.369,216.761 291.536,216.094 292,215.5C 294.393,217.994 295.56,217.327 295.5,213.5C 296.167,212.5 296.833,211.5 297.5,210.5 Z"/></g>
<g><path style="opacity:1" fill="#d2cfc7" d="M 351.5,198.5 C 351.833,198.5 352.167,198.5 352.5,198.5C 351.453,201.596 350.12,204.596 348.5,207.5C 350.482,208.216 352.149,209.383 353.5,211C 354.899,211.595 356.232,211.428 357.5,210.5C 358.843,214.192 357.51,216.526 353.5,217.5C 351.263,217.535 350.93,216.702 352.5,215C 352.37,213.941 351.87,213.108 351,212.5C 348.879,216.053 347.379,219.72 346.5,223.5C 344.784,223.371 343.117,223.038 341.5,222.5C 340.167,221.833 339.167,220.833 338.5,219.5C 337.766,218.292 337.433,216.959 337.5,215.5C 338.585,213.413 340.251,212.08 342.5,211.5C 343.497,211.47 344.164,211.97 344.5,213C 343.485,214.373 343.485,215.54 344.5,216.5C 344.56,217.043 344.893,217.376 345.5,217.5C 346.648,215.851 347.981,214.351 349.5,213C 349.272,212.601 348.938,212.435 348.5,212.5C 346.633,211.24 345.3,209.573 344.5,207.5C 345.5,207.167 346.167,206.5 346.5,205.5C 347.906,205.027 348.573,204.027 348.5,202.5C 349.974,201.564 350.974,200.23 351.5,198.5 Z"/></g>
<g><path style="opacity:1" fill="#9f6533" d="M 348.5,212.5 C 348.938,212.435 349.272,212.601 349.5,213C 347.981,214.351 346.648,215.851 345.5,217.5C 344.893,217.376 344.56,217.043 344.5,216.5C 345.5,214.833 346.833,213.5 348.5,212.5 Z"/></g>
<g><path style="opacity:1" fill="#dcd9cb" d="M 253.5,221.5 C 253.5,221.833 253.5,222.167 253.5,222.5C 252.127,222.657 250.793,222.49 249.5,222C 249.833,221.667 250.167,221.333 250.5,221C 249.24,219.887 248.073,219.72 247,220.5C 245.833,219.333 244.667,218.167 243.5,217C 246.294,216.826 248.794,217.66 251,219.5C 251.333,218.833 251.667,218.167 252,217.5C 253.188,218.563 253.688,219.897 253.5,221.5 Z"/></g>
<g><path style="opacity:1" fill="#c8992c" d="M 337.5,215.5 C 337.433,216.959 337.766,218.292 338.5,219.5C 336.938,219.267 335.605,218.6 334.5,217.5C 335.29,216.599 336.29,215.932 337.5,215.5 Z"/></g>
<g><path style="opacity:1" fill="#dcd8c8" d="M 385.5,222.5 C 385.5,222.167 385.5,221.833 385.5,221.5C 385.312,219.897 385.812,218.563 387,217.5C 387.333,218.167 387.667,218.833 388,219.5C 390.131,217.456 392.631,216.623 395.5,217C 394.333,218.167 393.167,219.333 392,220.5C 390.927,219.72 389.76,219.887 388.5,221C 388.833,221.333 389.167,221.667 389.5,222C 388.207,222.49 386.873,222.657 385.5,222.5 Z"/></g>
<g><path style="opacity:1" fill="#b2710f" d="M 271.5,210.5 C 271.833,210.5 272.167,210.5 272.5,210.5C 274.027,210.427 275.027,211.094 275.5,212.5C 274.836,214.81 274.503,217.31 274.5,220C 274.525,222.929 275.191,225.429 276.5,227.5C 276.167,228.167 275.833,228.833 275.5,229.5C 273.865,225.427 272.865,221.094 272.5,216.5C 272.539,215.417 272.873,214.417 273.5,213.5C 272.807,212.482 272.141,211.482 271.5,210.5 Z"/></g>
<g><path style="opacity:1" fill="#b06e0f" d="M 366.5,210.5 C 366.833,210.5 367.167,210.5 367.5,210.5C 366.859,211.482 366.193,212.482 365.5,213.5C 366.127,214.417 366.461,215.417 366.5,216.5C 366.135,221.094 365.135,225.427 363.5,229.5C 362.89,228.609 362.557,227.609 362.5,226.5C 363.805,224.603 364.471,222.269 364.5,219.5C 364.497,216.975 364.163,214.641 363.5,212.5C 363.973,211.094 364.973,210.427 366.5,210.5 Z"/></g>
<g><path style="opacity:1" fill="#d02e1d" d="M 272.5,216.5 C 272.865,221.094 273.865,225.427 275.5,229.5C 272.941,241.994 272.108,254.661 273,267.5C 273.566,269.723 274.4,271.723 275.5,273.5C 274.971,277.192 275.971,280.358 278.5,283C 276.595,283.826 276.261,284.993 277.5,286.5C 278.478,286.023 279.311,285.357 280,284.5C 282.317,287.097 285.15,287.93 288.5,287C 290.953,285.12 292.953,282.787 294.5,280C 295.793,279.51 297.127,279.343 298.5,279.5C 299.833,280.5 301.167,281.5 302.5,282.5C 299.515,286.334 295.515,288.667 290.5,289.5C 289.833,289.5 289.167,289.5 288.5,289.5C 286.214,289.595 284.214,290.262 282.5,291.5C 280.236,292.219 277.903,292.552 275.5,292.5C 272.167,292.5 268.833,292.5 265.5,292.5C 263.856,292.286 262.356,292.62 261,293.5C 258.262,289.078 255.929,284.412 254,279.5C 252.197,268.195 252.03,256.861 253.5,245.5C 255.153,238.054 256.153,230.388 256.5,222.5C 258.833,223.833 261.167,225.167 263.5,226.5C 263.891,230.383 263.224,234.05 261.5,237.5C 262.5,238.5 263.5,239.5 264.5,240.5C 265.167,232.677 265.833,225.01 266.5,217.5C 268.229,218.117 269.729,219.117 271,220.5C 271.791,219.255 272.291,217.922 272.5,216.5 Z"/></g>
<g><path style="opacity:1" fill="#d02e1d" d="M 366.5,216.5 C 367.239,220.965 369.239,221.299 372.5,217.5C 373.746,225.155 373.746,232.821 372.5,240.5C 374.912,240.756 376.579,239.756 377.5,237.5C 376.51,233.895 375.844,230.228 375.5,226.5C 377.833,225.167 380.167,223.833 382.5,222.5C 382.846,230.719 383.846,238.719 385.5,246.5C 386.932,257.53 386.765,268.53 385,279.5C 383.071,284.412 380.738,289.078 378,293.5C 375.959,292.577 373.792,292.244 371.5,292.5C 368.833,292.5 366.167,292.5 363.5,292.5C 360.794,292.425 358.127,292.092 355.5,291.5C 354.22,290.069 352.553,289.402 350.5,289.5C 349.833,289.5 349.167,289.5 348.5,289.5C 344.638,288.572 340.971,287.072 337.5,285C 336.748,284.329 336.414,283.496 336.5,282.5C 337.833,281.5 339.167,280.5 340.5,279.5C 341.552,279.351 342.552,279.517 343.5,280C 345.85,282.419 348.184,284.752 350.5,287C 353.85,287.93 356.683,287.097 359,284.5C 360.185,286.559 361.352,286.726 362.5,285C 362.095,284.055 361.428,283.388 360.5,283C 363.029,280.358 364.029,277.192 363.5,273.5C 365.964,268.581 366.964,263.248 366.5,257.5C 366.413,248.007 365.413,238.673 363.5,229.5C 365.135,225.427 366.135,221.094 366.5,216.5 Z"/></g>
<g><path style="opacity:1" fill="#c8952a" d="M 341.5,222.5 C 343.117,223.038 344.784,223.371 346.5,223.5C 346.167,224.5 345.5,225.167 344.5,225.5C 343.167,224.833 342.167,223.833 341.5,222.5 Z"/></g>
<g><path style="opacity:1" fill="#1aa1d0" d="M 313.5,214.5 C 316.024,214.957 318.691,214.957 321.5,214.5C 321.338,216.527 321.505,218.527 322,220.5C 322.24,218.148 323.073,216.148 324.5,214.5C 325.5,214.5 326.5,214.5 327.5,214.5C 329.812,215.341 332.145,216.341 334.5,217.5C 335.605,218.6 336.938,219.267 338.5,219.5C 339.167,220.833 340.167,221.833 341.5,222.5C 342.167,223.833 343.167,224.833 344.5,225.5C 344.932,226.71 345.599,227.71 346.5,228.5C 348.561,233.015 350.227,237.681 351.5,242.5C 351.817,246.702 351.483,250.702 350.5,254.5C 349.531,253.691 348.698,252.691 348,251.5C 347.292,252.381 346.458,253.047 345.5,253.5C 344.833,253.5 344.5,253.167 344.5,252.5C 344.806,249.615 344.473,246.948 343.5,244.5C 338.065,224.449 325.732,218.283 306.5,226C 300.513,230.813 296.847,236.98 295.5,244.5C 294.527,246.948 294.194,249.615 294.5,252.5C 292.901,252.232 291.568,252.566 290.5,253.5C 289.508,253.328 288.842,253.662 288.5,254.5C 287.517,250.702 287.183,246.702 287.5,242.5C 288.267,238.851 289.6,235.518 291.5,232.5C 291.733,230.938 292.4,229.605 293.5,228.5C 294.415,226.246 295.748,224.246 297.5,222.5C 298.728,221.694 299.728,220.694 300.5,219.5C 302.167,218.833 303.833,218.167 305.5,217.5C 306.5,216.833 307.5,216.167 308.5,215.5C 310.117,214.962 311.784,214.629 313.5,214.5 Z"/></g>
<g><path style="opacity:1" fill="#7f9058" d="M 302.5,222.5 C 303.189,221.226 304.023,221.226 305,222.5C 305.308,226.367 303.641,227.367 300,225.5C 299.333,224.5 299.333,223.5 300,222.5C 300.368,223.91 301.201,224.91 302.5,225.5C 303.776,224.386 303.776,223.386 302.5,222.5 Z"/></g>
<g><path style="opacity:1" fill="#e19f11" d="M 343.5,244.5 C 343.808,246.924 343.474,249.257 342.5,251.5C 338.09,249.306 334.09,246.639 330.5,243.5C 331.239,243.631 331.906,243.464 332.5,243C 330.833,242 329.167,241 327.5,240C 329.087,239.138 330.754,238.471 332.5,238C 327.514,236.868 327.514,235.201 332.5,233C 326.348,234.675 325.348,233.342 329.5,229C 327.953,228.667 326.62,229.167 325.5,230.5C 324.953,224.469 323.62,224.136 321.5,229.5C 320.052,222.922 318.885,222.922 318,229.5C 313.563,223.849 312.73,224.182 315.5,230.5C 315.167,230.833 314.833,231.167 314.5,231.5C 309.453,227.348 308.787,227.682 312.5,232.5C 310.922,233.298 309.256,233.798 307.5,234C 312.533,236.468 311.866,237.801 305.5,238C 307.087,238.862 308.754,239.529 310.5,240C 309.5,241 308.5,242 307.5,243C 308.094,243.464 308.761,243.631 309.5,243.5C 305.398,246.392 301.065,249.059 296.5,251.5C 295.526,249.257 295.192,246.924 295.5,244.5C 296.847,236.98 300.513,230.813 306.5,226C 325.732,218.283 338.065,224.449 343.5,244.5 Z"/></g>
<g><path style="opacity:1" fill="#81905f" d="M 330.5,217.5 C 331.931,217.881 332.764,218.881 333,220.5C 333.718,219.549 334.551,219.383 335.5,220C 331.692,223.887 330.025,223.053 330.5,217.5 Z"/></g>
<g><path style="opacity:1" fill="#739369" d="M 310.5,216.5 C 312.048,216.821 312.715,217.821 312.5,219.5C 316.139,220.268 315.806,220.934 311.5,221.5C 311.371,219.784 311.038,218.117 310.5,216.5 Z"/></g>
<g><path style="opacity:1" fill="#a89433" d="M 340.5,224.5 C 341.525,224.897 341.692,225.563 341,226.5C 340.163,228.007 338.996,228.507 337.5,228C 338.71,226.961 339.71,225.794 340.5,224.5 Z"/></g>
<g><path style="opacity:1" fill="#cb391b" d="M 330.5,243.5 C 328.004,242.42 325.67,241.086 323.5,239.5C 324.197,237.929 324.53,236.429 324.5,235C 323.833,234.833 323.167,234.667 322.5,234.5C 319.898,235.055 317.231,235.221 314.5,235C 313.419,236.711 313.752,238.211 315.5,239.5C 313.5,240.833 311.5,242.167 309.5,243.5C 308.761,243.631 308.094,243.464 307.5,243C 308.5,242 309.5,241 310.5,240C 308.754,239.529 307.087,238.862 305.5,238C 311.866,237.801 312.533,236.468 307.5,234C 309.256,233.798 310.922,233.298 312.5,232.5C 308.787,227.682 309.453,227.348 314.5,231.5C 314.833,231.167 315.167,230.833 315.5,230.5C 312.73,224.182 313.563,223.849 318,229.5C 318.885,222.922 320.052,222.922 321.5,229.5C 323.62,224.136 324.953,224.469 325.5,230.5C 326.62,229.167 327.953,228.667 329.5,229C 325.348,233.342 326.348,234.675 332.5,233C 327.514,235.201 327.514,236.868 332.5,238C 330.754,238.471 329.087,239.138 327.5,240C 329.167,241 330.833,242 332.5,243C 331.906,243.464 331.239,243.631 330.5,243.5 Z"/></g>
<g><path style="opacity:1" fill="#167833" d="M 293.5,228.5 C 292.4,229.605 291.733,230.938 291.5,232.5C 289.6,235.518 288.267,238.851 287.5,242.5C 286.315,249.017 286.315,255.684 287.5,262.5C 286.833,263.833 285.833,264.833 284.5,265.5C 283.383,255.547 283.217,245.547 284,235.5C 284.219,234.062 284.719,232.729 285.5,231.5C 286.167,231.833 286.833,232.167 287.5,232.5C 288.333,230.5 289.167,228.5 290,226.5C 290.816,227.823 291.983,228.489 293.5,228.5 Z"/></g>
<g><path style="opacity:1" fill="#809263" d="M 291.5,232.5 C 292.458,232.047 293.292,231.381 294,230.5C 295.011,231.337 296.178,231.67 297.5,231.5C 297.769,233.429 297.269,235.095 296,236.5C 294.141,235.421 292.641,234.088 291.5,232.5 Z"/></g>
<g><path style="opacity:1" fill="#177833" d="M 354.5,265.5 C 353.167,264.833 352.167,263.833 351.5,262.5C 352.57,255.675 352.57,249.008 351.5,242.5C 350.227,237.681 348.561,233.015 346.5,228.5C 347.458,228.047 348.292,227.381 349,226.5C 350.472,230.636 352.472,233.636 355,235.5C 355.783,245.547 355.617,255.547 354.5,265.5 Z"/></g>
<g><path style="opacity:1" fill="#a86d0e" d="M 263.5,217.5 C 263.5,216.833 263.833,216.5 264.5,216.5C 265.492,216.328 266.158,216.662 266.5,217.5C 265.833,225.01 265.167,232.677 264.5,240.5C 263.5,239.5 262.5,238.5 261.5,237.5C 263.224,234.05 263.891,230.383 263.5,226.5C 264.775,223.396 264.775,220.396 263.5,217.5 Z"/></g>
<g><path style="opacity:1" fill="#bf830e" d="M 374.5,216.5 C 374.5,216.833 374.5,217.167 374.5,217.5C 374.704,220.518 375.037,223.518 375.5,226.5C 375.844,230.228 376.51,233.895 377.5,237.5C 376.579,239.756 374.912,240.756 372.5,240.5C 373.746,232.821 373.746,225.155 372.5,217.5C 372.842,216.662 373.508,216.328 374.5,216.5 Z"/></g>
<g><path style="opacity:1" fill="#b5850c" d="M 253.5,221.5 C 254.791,221.263 255.791,221.596 256.5,222.5C 256.153,230.388 255.153,238.054 253.5,245.5C 252.609,244.739 251.942,243.739 251.5,242.5C 253.037,235.781 253.704,229.114 253.5,222.5C 253.5,222.167 253.5,221.833 253.5,221.5 Z"/></g>
<g><path style="opacity:1" fill="#942015" d="M 323.5,239.5 C 320.92,237.006 318.253,237.006 315.5,239.5C 313.752,238.211 313.419,236.711 314.5,235C 317.231,235.221 319.898,235.055 322.5,234.5C 323.167,234.667 323.833,234.833 324.5,235C 324.53,236.429 324.197,237.929 323.5,239.5 Z"/></g>
<g><path style="opacity:1" fill="#918f42" d="M 341.5,234.5 C 347.796,232.848 348.63,234.181 344,238.5C 343.493,237.004 343.993,235.837 345.5,235C 344.207,234.51 342.873,234.343 341.5,234.5 Z"/></g>
<g><path style="opacity:1" fill="#bd8e0c" d="M 382.5,222.5 C 383.209,221.596 384.209,221.263 385.5,221.5C 385.5,221.833 385.5,222.167 385.5,222.5C 385.296,229.114 385.963,235.781 387.5,242.5C 386.775,243.867 386.108,245.2 385.5,246.5C 383.846,238.719 382.846,230.719 382.5,222.5 Z"/></g>
<g><path style="opacity:1" fill="#107937" d="M 323.5,239.5 C 325.67,241.086 328.004,242.42 330.5,243.5C 334.09,246.639 338.09,249.306 342.5,251.5C 343.474,249.257 343.808,246.924 343.5,244.5C 344.473,246.948 344.806,249.615 344.5,252.5C 343.607,258.028 341.774,263.361 339,268.5C 336.564,271.447 333.731,273.78 330.5,275.5C 318.53,281.97 308.364,279.636 300,268.5C 297.226,263.361 295.393,258.028 294.5,252.5C 294.194,249.615 294.527,246.948 295.5,244.5C 295.192,246.924 295.526,249.257 296.5,251.5C 301.065,249.059 305.398,246.392 309.5,243.5C 311.5,242.167 313.5,240.833 315.5,239.5C 318.253,237.006 320.92,237.006 323.5,239.5 Z"/></g>
<g><path style="opacity:1" fill="#249ac0" d="M 287.5,242.5 C 287.183,246.702 287.517,250.702 288.5,254.5C 290.331,257.252 291.998,257.086 293.5,254C 292.552,253.517 291.552,253.351 290.5,253.5C 291.568,252.566 292.901,252.232 294.5,252.5C 295.393,258.028 297.226,263.361 300,268.5C 308.364,279.636 318.53,281.97 330.5,275.5C 333.731,273.78 336.564,271.447 339,268.5C 341.774,263.361 343.607,258.028 344.5,252.5C 344.5,253.167 344.833,253.5 345.5,253.5C 346.716,256.894 348.383,257.228 350.5,254.5C 351.483,250.702 351.817,246.702 351.5,242.5C 352.57,249.008 352.57,255.675 351.5,262.5C 349.08,268.931 345.413,274.597 340.5,279.5C 339.167,280.5 337.833,281.5 336.5,282.5C 335.167,283.167 333.833,283.833 332.5,284.5C 330.847,284.66 329.514,285.326 328.5,286.5C 327.508,286.328 326.842,286.662 326.5,287.5C 324.833,287.5 323.167,287.5 321.5,287.5C 320.167,287.5 318.833,287.5 317.5,287.5C 315.833,287.5 314.167,287.5 312.5,287.5C 312.158,286.662 311.492,286.328 310.5,286.5C 309.609,285.89 308.609,285.557 307.5,285.5C 305.78,284.692 304.113,283.692 302.5,282.5C 301.167,281.5 299.833,280.5 298.5,279.5C 293.587,274.597 289.92,268.931 287.5,262.5C 286.315,255.684 286.315,249.017 287.5,242.5 Z"/></g>
<g><path style="opacity:1" fill="#cc9b22" d="M 297.5,269.5 C 300.365,272.281 300.198,273.948 297,274.5C 296.616,272.803 296.782,271.137 297.5,269.5 Z"/></g>
<g><path style="opacity:1" fill="#cc9e13" d="M 322.5,265.5 C 324.423,265.795 326.09,266.628 327.5,268C 325.722,270.135 325.055,272.635 325.5,275.5C 324.167,275.5 322.833,275.5 321.5,275.5C 321.896,272.518 321.229,269.851 319.5,267.5C 320.602,266.824 321.602,266.158 322.5,265.5 Z"/></g>
<g><path style="opacity:1" fill="#cb9c27" d="M 345.5,261.5 C 347.739,263.001 347.739,264.334 345.5,265.5C 343.206,264.375 343.206,263.041 345.5,261.5 Z"/></g>
<g><path style="opacity:1" fill="#cb9d26" d="M 292.5,261.5 C 295.428,262.637 295.762,263.97 293.5,265.5C 291.3,264.675 290.966,263.342 292.5,261.5 Z"/></g>
<g><path style="opacity:1" fill="#ced5d1" d="M 315.5,259.5 C 316.995,259.415 317.995,260.081 318.5,261.5C 317.104,265.84 316.604,270.173 317,274.5C 316.019,271.345 314.685,271.012 313,273.5C 312.423,268.379 311.423,268.379 310,273.5C 309.333,270.833 308.667,270.833 308,273.5C 307.333,270.833 307.333,268.167 308,265.5C 310.069,264.736 312.236,264.236 314.5,264C 315.38,262.644 315.714,261.144 315.5,259.5 Z"/></g>
<g><path style="opacity:1" fill="#409160" d="M 330.5,275.5 C 328.715,270.933 327.882,265.933 328,260.5C 324.723,264.611 323.889,264.111 325.5,259C 319.05,259.317 319.05,257.984 325.5,255C 324.5,254 323.5,253 322.5,252C 324.809,251.244 326.809,251.744 328.5,253.5C 329.551,252.115 330.884,251.115 332.5,250.5C 333.711,251.274 333.711,252.107 332.5,253C 339.627,253.73 339.961,255.063 333.5,257C 335.5,257.667 336.833,259 337.5,261C 336.451,261.492 335.451,261.326 334.5,260.5C 333.86,265.062 332.694,265.396 331,261.5C 330.501,266.155 330.334,270.821 330.5,275.5 Z"/></g>
<g><path style="opacity:1" fill="#a9953b" d="M 288.5,254.5 C 288.842,253.662 289.508,253.328 290.5,253.5C 291.552,253.351 292.552,253.517 293.5,254C 291.998,257.086 290.331,257.252 288.5,254.5 Z"/></g>
<g><path style="opacity:1" fill="#b49636" d="M 350.5,254.5 C 348.383,257.228 346.716,256.894 345.5,253.5C 346.458,253.047 347.292,252.381 348,251.5C 348.698,252.691 349.531,253.691 350.5,254.5 Z"/></g>
<g><path style="opacity:1" fill="#e2e5e3" d="M 318.5,246.5 C 320.337,246.639 320.67,247.306 319.5,248.5C 318.702,248.043 318.369,247.376 318.5,246.5 Z"/></g>
<g><path style="opacity:1" fill="#cc9b22" d="M 340.5,269.5 C 343.365,272.281 343.198,273.948 340,274.5C 339.616,272.803 339.782,271.137 340.5,269.5 Z"/></g>
<g><path style="opacity:1" fill="#df9c0e" d="M 287.5,262.5 C 289.92,268.931 293.587,274.597 298.5,279.5C 297.127,279.343 295.793,279.51 294.5,280C 292.953,282.787 290.953,285.12 288.5,287C 285.15,287.93 282.317,287.097 280,284.5C 279.311,285.357 278.478,286.023 277.5,286.5C 276.261,284.993 276.595,283.826 278.5,283C 275.971,280.358 274.971,277.192 275.5,273.5C 278.823,271.176 281.823,268.509 284.5,265.5C 285.833,264.833 286.833,263.833 287.5,262.5 Z"/></g>
<g><path style="opacity:1" fill="#e09d0e" d="M 351.5,262.5 C 352.167,263.833 353.167,264.833 354.5,265.5C 356.88,268.881 359.88,271.547 363.5,273.5C 364.029,277.192 363.029,280.358 360.5,283C 361.428,283.388 362.095,284.055 362.5,285C 361.352,286.726 360.185,286.559 359,284.5C 356.683,287.097 353.85,287.93 350.5,287C 348.184,284.752 345.85,282.419 343.5,280C 342.552,279.517 341.552,279.351 340.5,279.5C 345.413,274.597 349.08,268.931 351.5,262.5 Z"/></g>
<g><path style="opacity:1" fill="#e2a00f" d="M 303.5,279.5 C 304.601,278.402 305.934,278.235 307.5,279C 306.318,280.768 304.985,280.935 303.5,279.5 Z"/></g>
<g><path style="opacity:1" fill="#b4993c" d="M 332.5,277.5 C 334.912,277.694 335.912,279.027 335.5,281.5C 331.503,283.072 330.503,281.738 332.5,277.5 Z"/></g>
<g><path style="opacity:1" fill="#d39e1f" d="M 313.5,281.5 C 316.674,281.952 317.007,282.952 314.5,284.5C 312.481,283.867 312.147,282.867 313.5,281.5 Z"/></g>
<g><path style="opacity:1" fill="#d09e24" d="M 323.5,281.5 C 326.674,281.952 327.007,282.952 324.5,284.5C 322.481,283.867 322.147,282.867 323.5,281.5 Z"/></g>
<g><path style="opacity:1" fill="#9b5a29" d="M 302.5,282.5 C 304.113,283.692 305.78,284.692 307.5,285.5C 307.5,286.833 307.5,288.167 307.5,289.5C 305.526,292.77 303.526,296.103 301.5,299.5C 300.609,300.59 299.609,300.59 298.5,299.5C 297.73,301.272 296.397,302.272 294.5,302.5C 291.054,301.611 288.054,299.944 285.5,297.5C 287.193,294.816 288.86,292.149 290.5,289.5C 295.515,288.667 299.515,286.334 302.5,282.5 Z"/></g>
<g><path style="opacity:1" fill="#1f782f" d="M 307.5,285.5 C 308.609,285.557 309.609,285.89 310.5,286.5C 310.399,290.857 309.232,294.857 307,298.5C 306.956,295.525 307.123,292.525 307.5,289.5C 307.5,288.167 307.5,286.833 307.5,285.5 Z"/></g>
<g><path style="opacity:1" fill="#2a7431" d="M 332.5,284.5 C 332.5,285.833 332.5,287.167 332.5,288.5C 331.724,291.675 331.557,295.008 332,298.5C 329.768,294.857 328.601,290.857 328.5,286.5C 329.514,285.326 330.847,284.66 332.5,284.5 Z"/></g>
<g><path style="opacity:1" fill="#9d5a29" d="M 336.5,282.5 C 336.414,283.496 336.748,284.329 337.5,285C 340.971,287.072 344.638,288.572 348.5,289.5C 350.14,292.149 351.807,294.816 353.5,297.5C 350.982,299.928 347.982,301.595 344.5,302.5C 342.912,301.99 341.745,300.99 341,299.5C 340,300.833 339,300.833 338,299.5C 335.628,296.09 333.795,292.423 332.5,288.5C 332.5,287.167 332.5,285.833 332.5,284.5C 333.833,283.833 335.167,283.167 336.5,282.5 Z"/></g>
<g><path style="opacity:1" fill="#a86f20" d="M 350.5,289.5 C 352.553,289.402 354.22,290.069 355.5,291.5C 360.297,296.798 365.297,301.965 370.5,307C 370,307.5 369.5,308 369,308.5C 362.631,302.298 356.464,295.965 350.5,289.5 Z"/></g>
<g><path style="opacity:1" fill="#ce3a1a" d="M 312.5,287.5 C 314.167,287.5 315.833,287.5 317.5,287.5C 316.423,293.778 315.59,300.112 315,306.5C 314.612,307.428 313.945,308.095 313,308.5C 311.09,306.799 309.923,304.633 309.5,302C 311.919,297.514 312.919,292.68 312.5,287.5 Z"/></g>
<g><path style="opacity:1" fill="#ce3b1b" d="M 321.5,287.5 C 323.167,287.5 324.833,287.5 326.5,287.5C 326.081,292.68 327.081,297.514 329.5,302C 329.077,304.633 327.91,306.799 326,308.5C 325.055,308.095 324.388,307.428 324,306.5C 323.359,300.13 322.525,293.797 321.5,287.5 Z"/></g>
<g><path style="opacity:1" fill="#aa6421" d="M 363.5,292.5 C 366.167,292.5 368.833,292.5 371.5,292.5C 370.391,293.29 369.058,293.79 367.5,294C 370.681,296.092 373.681,298.425 376.5,301C 376.167,301.167 375.833,301.333 375.5,301.5C 371.432,298.479 367.432,295.479 363.5,292.5 Z"/></g>
<g><path style="opacity:1" fill="#a86321" d="M 265.5,292.5 C 268.833,292.5 272.167,292.5 275.5,292.5C 271.568,295.479 267.568,298.479 263.5,301.5C 263.167,301.333 262.833,301.167 262.5,301C 265.319,298.425 268.319,296.092 271.5,294C 269.292,293.809 267.292,293.309 265.5,292.5 Z"/></g>
<g><path style="opacity:1" fill="#a76b23" d="M 288.5,289.5 C 282.854,295.812 276.854,301.812 270.5,307.5C 269.479,306.998 269.312,306.332 270,305.5C 275.072,300.97 279.239,296.303 282.5,291.5C 284.214,290.262 286.214,289.595 288.5,289.5 Z"/></g>
<g><path style="opacity:1" fill="#007933" d="M -0.5,319.5 C 212.833,319.5 426.167,319.5 639.5,319.5C 639.5,372.833 639.5,426.167 639.5,479.5C 426.167,479.5 212.833,479.5 -0.5,479.5C -0.5,426.167 -0.5,372.833 -0.5,319.5 Z"/></g>
</svg>
