<?xml version="1.0" encoding="UTF-8"?>
<!DOCTYPE svg PUBLIC "-//W3C//DTD SVG 1.1//EN" "http://www.w3.org/Graphics/SVG/1.1/DTD/svg11.dtd">
<svg xmlns="http://www.w3.org/2000/svg" version="1.1" width="640px" height="480px" style="shape-rendering:geometricPrecision; text-rendering:geometricPrecision; image-rendering:optimizeQuality; fill-rule:evenodd; clip-rule:evenodd" xmlns:xlink="http://www.w3.org/1999/xlink">
<g><path style="opacity:1" fill="#010099" d="M -0.5,-0.5 C 9.16667,-0.5 18.8333,-0.5 28.5,-0.5C 25.132,9.75876 22.2987,20.0921 20,30.5C 28.4893,23.9222 37.1559,17.5889 46,11.5C 54.3333,17.8333 62.6667,24.1667 71,30.5C 68.7016,20.0928 65.8683,9.75947 62.5,-0.5C 85.8333,-0.5 109.167,-0.5 132.5,-0.5C 292.194,159.194 451.527,319.194 610.5,479.5C 588.167,479.5 565.833,479.5 543.5,479.5C 551.315,473.197 559.315,467.03 567.5,461C 556.833,460.667 546.167,460.333 535.5,460C 532.392,450.009 528.892,440.176 525,430.5C 521.528,440.416 518.361,450.416 515.5,460.5C 504.828,460.333 494.161,460.5 483.5,461C 491.685,467.03 499.685,473.197 507.5,479.5C 338.167,479.5 168.833,479.5 -0.5,479.5C -0.5,319.5 -0.5,159.5 -0.5,-0.5 Z"/></g>
<g><path style="opacity:1" fill="#f9f8fc" d="M 28.5,-0.5 C 39.8333,-0.5 51.1667,-0.5 62.5,-0.5C 65.8683,9.75947 68.7016,20.0928 71,30.5C 62.6667,24.1667 54.3333,17.8333 46,11.5C 37.1559,17.5889 28.4893,23.9222 20,30.5C 22.2987,20.0921 25.132,9.75876 28.5,-0.5 Z"/></g>
<g><path style="opacity:1" fill="#fecb00" d="M 132.5,-0.5 C 292.167,-0.5 451.833,-0.5 611.5,-0.5C 611.5,159.5 611.5,319.5 611.5,479.5C 611.167,479.5 610.833,479.5 610.5,479.5C 451.527,319.194 292.194,159.194 132.5,-0.5 Z"/></g>
<g><path style="opacity:0.999" fill="#000098" d="M 611.5,-0.5 C 620.833,-0.5 630.167,-0.5 639.5,-0.5C 639.5,159.5 639.5,319.5 639.5,479.5C 630.167,479.5 620.833,479.5 611.5,479.5C 611.5,319.5 611.5,159.5 611.5,-0.5 Z"/></g>
<g><path style="opacity:1" fill="#fafafd" d="M 105.5,9.5 C 108.998,19.3288 112.332,29.3288 115.5,39.5C 126.151,40.3324 136.818,40.8324 147.5,41C 138.999,47.3398 130.666,53.8398 122.5,60.5C 126.075,70.3781 128.908,80.3781 131,90.5C 122.667,84.1667 114.333,77.8333 106,71.5C 97.5877,77.6229 89.0877,83.6229 80.5,89.5C 81.9952,80.4748 84.4952,71.4748 88,62.5C 88.6667,61.1667 88.6667,59.8333 88,58.5C 79.9214,52.544 71.7547,46.7106 63.5,41C 74.1822,40.8324 84.8489,40.3324 95.5,39.5C 98.6414,29.409 101.975,19.409 105.5,9.5 Z"/></g>
<g><path style="opacity:1" fill="#fafafd" d="M 165.5,69.5 C 168.998,79.3288 172.332,89.3288 175.5,99.5C 186.151,100.332 196.818,100.832 207.5,101C 198.999,107.34 190.666,113.84 182.5,120.5C 186.075,130.378 188.908,140.378 191,150.5C 182.667,144.167 174.333,137.833 166,131.5C 157.156,137.589 148.489,143.922 140,150.5C 143.074,139.943 145.74,129.277 148,118.5C 139.921,112.544 131.755,106.711 123.5,101C 134.182,100.832 144.849,100.332 155.5,99.5C 158.838,89.4705 162.172,79.4705 165.5,69.5 Z"/></g>
<g><path style="opacity:1" fill="#fafafd" d="M 224.5,129.5 C 228.517,139.203 232.184,149.203 235.5,159.5C 246.151,160.332 256.818,160.832 267.5,161C 259.244,167.045 251.077,173.212 243,179.5C 245.463,189.889 248.13,200.223 251,210.5C 242.891,203.882 234.391,197.882 225.5,192.5C 216.917,197.741 208.584,203.407 200.5,209.5C 200.167,209 199.833,208.5 199.5,208C 202.655,198.714 205.655,189.381 208.5,180C 200.377,173.433 192.044,167.1 183.5,161C 194.161,160.5 204.828,160.333 215.5,160.5C 218.295,150.114 221.295,139.781 224.5,129.5 Z"/></g>
<g><path style="opacity:1" fill="#fafafd" d="M 285.5,190.5 C 289.197,199.919 292.53,209.586 295.5,219.5C 306.151,220.332 316.818,220.832 327.5,221C 318.999,227.34 310.666,233.84 302.5,240.5C 305.397,249.692 308.397,258.859 311.5,268C 311.167,268.5 310.833,269 310.5,269.5C 302.193,263.693 294.026,257.693 286,251.5C 277.511,258.078 268.844,264.411 260,270.5C 262.027,261.409 264.694,252.409 268,243.5C 268.667,241.833 268.667,240.167 268,238.5C 259.569,233.035 251.403,227.201 243.5,221C 254.182,220.832 264.849,220.332 275.5,219.5C 278.842,209.805 282.176,200.138 285.5,190.5 Z"/></g>
<g><path style="opacity:1" fill="#fafafd" d="M 344.5,250.5 C 345.79,251.058 346.623,252.058 347,253.5C 349.533,262.266 352.366,270.932 355.5,279.5C 366.151,280.332 376.818,280.832 387.5,281C 378.727,287.039 370.393,293.539 362.5,300.5C 365.671,310.5 368.504,320.5 371,330.5C 362.641,323.974 354.141,317.641 345.5,311.5C 337.167,317.5 328.833,323.5 320.5,329.5C 322.106,319.591 324.773,309.758 328.5,300C 320.377,293.433 312.044,287.1 303.5,281C 314.161,280.5 324.828,280.333 335.5,280.5C 338.5,270.501 341.5,260.501 344.5,250.5 Z"/></g>
<g><path style="opacity:1" fill="#f9f9fc" d="M 405.5,310.5 C 409.2,319.93 412.533,329.597 415.5,339.5C 426.151,340.332 436.818,340.832 447.5,341C 439.602,347.531 431.436,353.698 423,359.5C 425.87,369.777 428.537,380.111 431,390.5C 422.935,384.098 414.602,378.098 406,372.5C 397.176,378.248 388.509,384.248 380,390.5C 382.496,380.5 385.329,370.5 388.5,360.5C 380.607,353.539 372.273,347.039 363.5,341C 374.182,340.832 384.849,340.332 395.5,339.5C 398.842,329.805 402.176,320.138 405.5,310.5 Z"/></g>
<g><path style="opacity:1" fill="#fafafd" d="M 464.5,370.5 C 465.497,370.47 466.164,370.97 466.5,372C 469.603,381.141 472.603,390.308 475.5,399.5C 486.151,400.332 496.818,400.832 507.5,401C 499.333,407.167 491.167,413.333 483,419.5C 485.823,429.791 488.489,440.124 491,450.5C 482.935,444.098 474.602,438.098 466,432.5C 456.828,437.754 448.161,443.754 440,450.5C 442.09,440.384 444.923,430.384 448.5,420.5C 440.607,413.539 432.273,407.039 423.5,401C 434.182,400.832 444.849,400.332 455.5,399.5C 458.967,389.959 461.967,380.293 464.5,370.5 Z"/></g>
<g><path style="opacity:1" fill="#fbfbfd" d="M 543.5,479.5 C 531.5,479.5 519.5,479.5 507.5,479.5C 499.685,473.197 491.685,467.03 483.5,461C 494.161,460.5 504.828,460.333 515.5,460.5C 518.361,450.416 521.528,440.416 525,430.5C 528.892,440.176 532.392,450.009 535.5,460C 546.167,460.333 556.833,460.667 567.5,461C 559.315,467.03 551.315,473.197 543.5,479.5 Z"/></g>
</svg>
