<?xml version="1.0" encoding="UTF-8"?>
<!DOCTYPE svg PUBLIC "-//W3C//DTD SVG 1.1//EN" "http://www.w3.org/Graphics/SVG/1.1/DTD/svg11.dtd">
<svg xmlns="http://www.w3.org/2000/svg" version="1.1" width="640px" height="480px" style="shape-rendering:geometricPrecision; text-rendering:geometricPrecision; image-rendering:optimizeQuality; fill-rule:evenodd; clip-rule:evenodd" xmlns:xlink="http://www.w3.org/1999/xlink">
<g><path style="opacity:1" fill="#229e44" d="M -0.5,-0.5 C 212.833,-0.5 426.167,-0.5 639.5,-0.5C 639.5,159.5 639.5,319.5 639.5,479.5C 426.167,479.5 212.833,479.5 -0.5,479.5C -0.5,319.5 -0.5,159.5 -0.5,-0.5 Z"/></g>
<g><path style="opacity:1" fill="#f7e40a" d="M 318.5,43.5 C 419.642,108.574 520.642,173.907 621.5,239.5C 521.761,305.39 421.594,370.723 321,435.5C 219.748,370.458 118.582,305.291 17.5,240C 117.898,174.476 218.232,108.976 318.5,43.5 Z"/></g>
<g><path style="opacity:1" fill="#2c49a3" d="M 449.5,264.5 C 417.923,237.143 382.589,215.643 343.5,200C 300.813,184.664 256.813,178.497 211.5,181.5C 235.835,137.654 273.169,114.654 323.5,112.5C 382.026,114.662 422.526,142.662 445,196.5C 452.777,218.765 454.277,241.431 449.5,264.5 Z"/></g>
<g><path style="opacity:1" fill="#f4f8f6" d="M 211.5,181.5 C 256.813,178.497 300.813,184.664 343.5,200C 382.589,215.643 417.923,237.143 449.5,264.5C 448.568,271.906 446.568,278.906 443.5,285.5C 375.673,222.334 295.34,195 202.5,203.5C 204.435,195.643 207.435,188.31 211.5,181.5 Z"/></g>
<g><path style="opacity:1" fill="#4ba951" d="M 219.5,183.5 C 227.33,182.495 230.496,185.828 229,193.5C 225.902,199.319 221.902,199.986 217,195.5C 215.773,190.938 216.607,186.938 219.5,183.5 Z"/></g>
<g><path style="opacity:1" fill="#46a74c" d="M 232.5,184.5 C 235.85,184.335 239.183,184.502 242.5,185C 245.341,188.159 244.674,190.492 240.5,192C 242.414,193.413 243.747,195.247 244.5,197.5C 243.635,198.583 242.635,198.749 241.5,198C 240.227,195.201 238.227,193.367 235.5,192.5C 235.5,194.5 235.5,196.5 235.5,198.5C 234.5,198.5 233.5,198.5 232.5,198.5C 232.5,193.833 232.5,189.167 232.5,184.5 Z"/></g>
<g><path style="opacity:1" fill="#44a64a" d="M 248.5,184.5 C 259.25,183.757 262.25,188.257 257.5,198C 254.518,198.498 251.518,198.665 248.5,198.5C 248.5,193.833 248.5,189.167 248.5,184.5 Z"/></g>
<g><path style="opacity:1" fill="#f1fcf9" d="M 220.5,186.5 C 226.067,185.753 227.9,188.087 226,193.5C 224.267,195.602 222.267,195.935 220,194.5C 219.278,191.739 219.445,189.073 220.5,186.5 Z"/></g>
<g><path style="opacity:1" fill="#f4f9f4" d="M 235.5,186.5 C 237.977,186.051 239.977,186.717 241.5,188.5C 239.604,189.466 237.604,189.799 235.5,189.5C 235.5,188.5 235.5,187.5 235.5,186.5 Z"/></g>
<g><path style="opacity:1" fill="#4ca951" d="M 263.5,185.5 C 267.306,185.412 270.973,186.079 274.5,187.5C 271.914,188.48 269.247,188.813 266.5,188.5C 266.5,189.5 266.5,190.5 266.5,191.5C 268.604,191.201 270.604,191.534 272.5,192.5C 270.257,193.474 267.924,193.808 265.5,193.5C 265.5,194.833 265.5,196.167 265.5,197.5C 268.167,197.5 270.833,197.5 273.5,197.5C 273.5,198.5 273.5,199.5 273.5,200.5C 269.785,200.577 266.119,200.244 262.5,199.5C 262.998,194.848 263.331,190.181 263.5,185.5 Z"/></g>
<g><path style="opacity:1" fill="#f1f8f1" d="M 250.5,187.5 C 254.57,186.508 256.57,188.008 256.5,192C 256.57,195.992 254.57,197.492 250.5,196.5C 250.5,193.5 250.5,190.5 250.5,187.5 Z"/></g>
<g><path style="opacity:1" fill="#46a74c" d="M 278.5,187.5 C 280.167,187.5 281.833,187.5 283.5,187.5C 283.335,190.518 283.502,193.518 284,196.5C 285.544,194.532 286.711,192.365 287.5,190C 288.793,189.51 290.127,189.343 291.5,189.5C 291.002,194.152 290.669,198.819 290.5,203.5C 289.5,203.5 288.5,203.5 287.5,203.5C 288.97,192.29 288.303,191.957 285.5,202.5C 284.178,202.67 283.011,202.337 282,201.5C 281.667,198.167 281.333,194.833 281,191.5C 280.273,194.864 279.44,198.197 278.5,201.5C 277.349,196.833 277.349,192.166 278.5,187.5 Z"/></g>
<g><path style="opacity:1" fill="#51ac56" d="M 303.5,194.5 C 305.96,194.699 308.293,195.365 310.5,196.5C 308.5,196.833 306.5,197.167 304.5,197.5C 305.912,198.806 307.579,199.64 309.5,200C 303.095,201.068 303.095,202.568 309.5,204.5C 306.874,205.449 304.208,205.449 301.5,204.5C 301.956,201.094 302.622,197.761 303.5,194.5 Z"/></g>
<g><path style="opacity:1" fill="#46a64c" d="M 320.5,196.5 C 322.854,196.838 325.187,197.338 327.5,198C 330.167,200.667 330.167,203.333 327.5,206C 325.432,206.687 323.432,206.52 321.5,205.5C 320.548,207.045 320.215,208.712 320.5,210.5C 319.5,210.5 318.5,210.5 317.5,210.5C 318.185,205.761 319.185,201.095 320.5,196.5 Z"/></g>
<g><path style="opacity:1" fill="#e9ebe7" d="M 364.5,195.5 C 366.073,197.206 368.073,198.373 370.5,199C 368.926,200.826 368.093,202.993 368,205.5C 366,204.167 364,204.167 362,205.5C 361.907,202.993 361.074,200.826 359.5,199C 361.936,198.794 363.602,197.627 364.5,195.5 Z"/></g>
<g><path style="opacity:1" fill="#eff7ef" d="M 322.5,199.5 C 325.5,199.167 326.833,200.5 326.5,203.5C 324.833,203.5 323.167,203.5 321.5,203.5C 321.433,202.041 321.766,200.708 322.5,199.5 Z"/></g>
<g><path style="opacity:1" fill="#2c49a3" d="M 443.5,285.5 C 423.093,333.053 387.093,359.887 335.5,366C 281.501,368.422 240.667,346.588 213,300.5C 197.361,269.446 193.861,237.112 202.5,203.5C 295.34,195 375.673,222.334 443.5,285.5 Z"/></g>
<g><path style="opacity:1" fill="#42a549" d="M 334.5,200.5 C 337.782,201.539 340.948,202.872 344,204.5C 344.926,208.253 343.426,210.42 339.5,211C 341.378,212.993 341.712,215.159 340.5,217.5C 338.833,214.833 337.167,212.167 335.5,209.5C 334.066,210.936 332.9,212.602 332,214.5C 331.667,214.167 331.333,213.833 331,213.5C 331.538,209.063 332.705,204.729 334.5,200.5 Z"/></g>
<g><path style="opacity:1" fill="#ebf5ec" d="M 336.5,203.5 C 337.766,204.09 339.099,204.59 340.5,205C 341.821,206.545 341.488,207.711 339.5,208.5C 338.069,208.023 336.736,207.357 335.5,206.5C 336.127,205.583 336.461,204.583 336.5,203.5 Z"/></g>
<g><path style="opacity:1" fill="#4ca951" d="M 350.5,207.5 C 358.379,207.216 361.212,210.883 359,218.5C 355.385,223.423 351.385,223.756 347,219.5C 345.593,214.643 346.76,210.643 350.5,207.5 Z"/></g>
<g><path style="opacity:1" fill="#fbfdfc" d="M 351.5,210.5 C 356.213,210.468 357.713,212.801 356,217.5C 352.508,220.59 350.342,219.923 349.5,215.5C 349.437,213.486 350.103,211.819 351.5,210.5 Z"/></g>
<g><path style="opacity:1" fill="#eef0e9" d="M 220.5,212.5 C 221.65,215.146 223.65,216.979 226.5,218C 225.072,219.916 224.072,222.083 223.5,224.5C 221.5,223.167 219.5,223.167 217.5,224.5C 218.226,221.537 217.226,219.037 214.5,217C 216.134,216.506 217.801,216.34 219.5,216.5C 219.433,215.041 219.766,213.708 220.5,212.5 Z"/></g>
<g><path style="opacity:1" fill="#4ba951" d="M 365.5,214.5 C 371.07,213.864 374.07,216.197 374.5,221.5C 373.5,221.5 372.5,221.5 371.5,221.5C 370.925,217.527 368.758,216.527 365,218.5C 362.124,224.09 363.624,226.423 369.5,225.5C 366.953,221.062 367.953,220.395 372.5,223.5C 373.157,228.517 370.824,230.351 365.5,229C 358.899,224.171 358.899,219.338 365.5,214.5 Z"/></g>
<g><path style="opacity:1" fill="#45a64b" d="M 379.5,220.5 C 382.508,221.42 385.341,222.754 388,224.5C 389.09,227.579 388.257,229.912 385.5,231.5C 384.833,233.5 384.167,235.5 383.5,237.5C 382.914,237.291 382.414,236.957 382,236.5C 382.157,228.818 379.99,227.818 375.5,233.5C 375.167,233 374.833,232.5 374.5,232C 376.316,228.204 377.983,224.37 379.5,220.5 Z"/></g>
<g><path style="opacity:1" fill="#f0f8f0" d="M 381.5,223.5 C 384.324,223.989 385.657,225.656 385.5,228.5C 381.424,228.706 380.091,227.039 381.5,223.5 Z"/></g>
<g><path style="opacity:1" fill="#49a84f" d="M 394.5,228.5 C 398.025,229.759 401.025,231.759 403.5,234.5C 403,234.833 402.5,235.167 402,235.5C 400.263,234.38 398.429,233.38 396.5,232.5C 395.216,235.263 396.216,236.93 399.5,237.5C 400.656,238.576 400.489,239.576 399,240.5C 397.009,238.095 394.676,237.428 392,238.5C 392.825,240.662 394.492,242.328 397,243.5C 397.688,244.332 397.521,244.998 396.5,245.5C 393.281,244.397 390.615,242.563 388.5,240C 390.646,236.207 392.646,232.374 394.5,228.5 Z"/></g>
<g><path style="opacity:1" fill="#dee2e3" d="M 358.5,231.5 C 359.316,233.144 360.65,234.31 362.5,235C 361.91,236.509 361.244,238.009 360.5,239.5C 359.167,238.167 357.833,238.167 356.5,239.5C 355.682,237.892 355.015,236.225 354.5,234.5C 356.184,233.85 357.517,232.85 358.5,231.5 Z"/></g>
<g><path style="opacity:1" fill="#49a84f" d="M 406.5,238.5 C 412.377,237.707 414.711,240.041 413.5,245.5C 412.05,244.345 411.05,242.845 410.5,241C 409.365,240.251 408.365,240.417 407.5,241.5C 409.721,243.373 411.054,245.707 411.5,248.5C 411.91,251.255 410.744,252.588 408,252.5C 402.671,252.03 400.837,249.363 402.5,244.5C 403.95,245.655 404.95,247.155 405.5,249C 406.448,249.483 407.448,249.649 408.5,249.5C 407.857,246.675 406.523,244.175 404.5,242C 404.978,240.697 405.645,239.531 406.5,238.5 Z"/></g>
<g><path style="opacity:1" fill="#edefe8" d="M 278.5,239.5 C 280.104,240.287 280.771,241.62 280.5,243.5C 282.103,243.312 283.437,243.812 284.5,245C 283.072,246.916 282.072,249.083 281.5,251.5C 279.07,250.75 276.736,250.417 274.5,250.5C 275.975,247.755 275.309,245.588 272.5,244C 275.843,244.059 277.843,242.559 278.5,239.5 Z"/></g>
<g><path style="opacity:1" fill="#46a74c" d="M 418.5,245.5 C 421.617,245.642 424.117,246.976 426,249.5C 426.699,251.074 426.365,252.407 425,253.5C 423.98,252.109 423.147,250.609 422.5,249C 421.365,248.251 420.365,248.417 419.5,249.5C 420.174,251.517 421.341,253.183 423,254.5C 423.511,259.189 421.344,261.023 416.5,260C 413.603,258.285 412.269,255.785 412.5,252.5C 413.5,252.5 414.5,252.5 415.5,252.5C 414.899,256.909 416.566,258.242 420.5,256.5C 418.898,254.292 417.564,251.959 416.5,249.5C 416.752,247.927 417.418,246.594 418.5,245.5 Z"/></g>
<g><path style="opacity:1" fill="#f5f7eb" d="M 325.5,252.5 C 326.837,253.315 327.837,254.482 328.5,256C 329.833,256.333 331.167,256.667 332.5,257C 330.372,258.667 329.039,260.834 328.5,263.5C 326.833,262.167 325.167,262.167 323.5,263.5C 322.928,261.083 321.928,258.916 320.5,257C 321.793,256.51 323.127,256.343 324.5,256.5C 324.433,255.041 324.766,253.708 325.5,252.5 Z"/></g>
<g><path style="opacity:1" fill="#47a74d" d="M 429.5,254.5 C 437.103,254.91 439.603,258.577 437,265.5C 431.123,271.425 426.956,270.425 424.5,262.5C 424.672,258.807 426.339,256.141 429.5,254.5 Z"/></g>
<g><path style="opacity:1" fill="#f5faf5" d="M 429.5,257.5 C 434.328,256.84 436.161,258.84 435,263.5C 431.497,267.82 428.997,267.487 427.5,262.5C 427.437,260.486 428.103,258.819 429.5,257.5 Z"/></g>
<g><path style="opacity:1" fill="#e4e7e5" d="M 245.5,261.5 C 249.36,263.7 249.027,265.366 244.5,266.5C 244.629,264.784 244.962,263.117 245.5,261.5 Z"/></g>
<g><path style="opacity:1" fill="#e9ebe7" d="M 232.5,265.5 C 234.151,267.848 236.485,269.348 239.5,270C 238.029,272.243 237.029,274.743 236.5,277.5C 234.389,274.956 232.222,274.956 230,277.5C 229.955,274.666 229.121,272.166 227.5,270C 230.115,269.388 231.781,267.888 232.5,265.5 Z"/></g>
<g><path style="opacity:1" fill="#e7eae6" d="M 339.5,267.5 C 340.316,269.144 341.65,270.31 343.5,271C 342.91,272.509 342.244,274.009 341.5,275.5C 340.264,274.754 338.93,274.421 337.5,274.5C 337.579,273.07 337.246,271.736 336.5,270.5C 337.77,269.712 338.77,268.712 339.5,267.5 Z"/></g>
<g><path style="opacity:1" fill="#dee2e3" d="M 313.5,267.5 C 315.048,267.821 315.715,268.821 315.5,270.5C 316.552,270.351 317.552,270.517 318.5,271C 317.107,272.171 316.273,273.671 316,275.5C 314.667,274.167 313.333,274.167 312,275.5C 311.654,273.782 311.154,272.115 310.5,270.5C 311.993,269.859 312.993,268.859 313.5,267.5 Z"/></g>
<g><path style="opacity:1" fill="#f4f5eb" d="M 215.5,278.5 C 216.743,280.164 218.41,281.331 220.5,282C 218.963,283.11 218.297,284.61 218.5,286.5C 216.833,286.5 215.167,286.5 213.5,286.5C 213.703,284.61 213.037,283.11 211.5,282C 213.91,281.943 215.244,280.776 215.5,278.5 Z"/></g>
<g><path style="opacity:1" fill="#e7eae6" d="M 257.5,279.5 C 258.882,280.801 260.548,281.634 262.5,282C 261.228,283.307 260.228,284.807 259.5,286.5C 258.5,285.167 257.5,285.167 256.5,286.5C 255.643,285.264 254.977,283.931 254.5,282.5C 255.77,281.712 256.77,280.712 257.5,279.5 Z"/></g>
<g><path style="opacity:1" fill="#dce0e2" d="M 323.5,280.5 C 326.09,281.051 326.756,282.384 325.5,284.5C 324.311,285.429 322.978,285.762 321.5,285.5C 321.365,283.446 322.032,281.779 323.5,280.5 Z"/></g>
<g><path style="opacity:1" fill="#f3f5eb" d="M 413.5,280.5 C 415.073,282.206 417.073,283.373 419.5,284C 418.134,285.6 417.134,287.433 416.5,289.5C 415.167,288.167 413.833,288.167 412.5,289.5C 411.866,287.433 410.866,285.6 409.5,284C 411.91,283.943 413.244,282.776 413.5,280.5 Z"/></g>
<g><path style="opacity:1" fill="#f4f6eb" d="M 430.5,281.5 C 431.309,282.469 432.309,283.302 433.5,284C 432.453,288.112 430.786,288.112 428.5,284C 429.756,283.583 430.423,282.75 430.5,281.5 Z"/></g>
<g><path style="opacity:1" fill="#e7e9e6" d="M 252.5,292.5 C 253.451,294.118 254.784,295.451 256.5,296.5C 256.023,297.931 255.357,299.264 254.5,300.5C 253.28,299.289 252.113,299.289 251,300.5C 250.727,298.671 249.893,297.171 248.5,296C 250.91,295.943 252.244,294.776 252.5,292.5 Z"/></g>
<g><path style="opacity:1" fill="#e2e5e4" d="M 327.5,292.5 C 329.089,294.306 331.089,295.639 333.5,296.5C 332.173,298.311 331.173,300.311 330.5,302.5C 328.833,301.167 327.167,301.167 325.5,302.5C 324.928,300.083 323.928,297.916 322.5,296C 323.833,295.667 325.167,295.333 326.5,295C 327.252,294.329 327.586,293.496 327.5,292.5 Z"/></g>
<g><path style="opacity:1" fill="#e4e8e5" d="M 415.5,293.5 C 419.327,294.436 420.161,296.436 418,299.5C 416.095,298.842 414.595,297.675 413.5,296C 414.756,295.583 415.423,294.75 415.5,293.5 Z"/></g>
<g><path style="opacity:1" fill="#e1e4e4" d="M 412.5,302.5 C 413.66,303.611 414.993,304.611 416.5,305.5C 415.846,307.115 415.346,308.782 415,310.5C 413.644,309.62 412.144,309.286 410.5,309.5C 410.703,307.61 410.037,306.11 408.5,305C 410.32,304.8 411.653,303.966 412.5,302.5 Z"/></g>
<g><path style="opacity:1" fill="#f2f4ea" d="M 278.5,303.5 C 279.861,305.836 281.861,307.502 284.5,308.5C 282.985,310.547 282.151,312.881 282,315.5C 280.329,313.724 278.496,313.39 276.5,314.5C 275.961,311.834 274.628,309.667 272.5,308C 275.843,308.059 277.843,306.559 278.5,303.5 Z"/></g>
<g><path style="opacity:1" fill="#e2e5e4" d="M 391.5,306.5 C 392.534,307.687 393.867,308.52 395.5,309C 394.245,311.46 392.245,312.627 389.5,312.5C 389.67,311.178 389.337,310.011 388.5,309C 389.942,308.623 390.942,307.79 391.5,306.5 Z"/></g>
<g><path style="opacity:1" fill="#e6e9e6" d="M 401.5,306.5 C 402.683,307.504 404.016,308.338 405.5,309C 404.299,309.903 403.465,311.069 403,312.5C 399.58,310.782 399.08,308.782 401.5,306.5 Z"/></g>
<g><path style="opacity:1" fill="#e1e4e4" d="M 353.5,307.5 C 354.922,307.709 356.255,308.209 357.5,309C 356.663,310.011 356.33,311.178 356.5,312.5C 355.167,312.5 353.833,312.5 352.5,312.5C 352.67,311.178 352.337,310.011 351.5,309C 352.416,308.722 353.082,308.222 353.5,307.5 Z"/></g>
<g><path style="opacity:1" fill="#e7eae6" d="M 371.5,307.5 C 375.69,307.646 376.524,309.313 374,312.5C 373,311.167 372,311.167 371,312.5C 370.691,311.234 370.191,310.067 369.5,309C 370.416,308.722 371.082,308.222 371.5,307.5 Z"/></g>
<g><path style="opacity:1" fill="#e2e5e4" d="M 390.5,320.5 C 392.084,321.382 393.751,322.215 395.5,323C 394.027,323.71 393.36,324.876 393.5,326.5C 391.833,326.5 390.167,326.5 388.5,326.5C 388.579,325.07 388.246,323.736 387.5,322.5C 388.602,321.824 389.602,321.158 390.5,320.5 Z"/></g>
<g><path style="opacity:1" fill="#edefe8" d="M 363.5,325.5 C 365.151,327.848 367.485,329.348 370.5,330C 368.372,331.667 367.039,333.834 366.5,336.5C 364.833,335.167 363.167,335.167 361.5,336.5C 360.868,333.97 359.868,331.637 358.5,329.5C 359.729,328.719 361.062,328.219 362.5,328C 363.252,327.329 363.586,326.496 363.5,325.5 Z"/></g>
<g><path style="opacity:1" fill="#ebede7" d="M 390.5,331.5 C 392.084,332.382 393.751,333.215 395.5,334C 393.2,338.196 390.867,338.362 388.5,334.5C 389.612,333.735 390.279,332.735 390.5,331.5 Z"/></g>
<g><path style="opacity:1" fill="#d4d9df" d="M 327.5,335.5 C 328.931,336.78 329.598,338.447 329.5,340.5C 328.167,340.5 326.833,340.5 325.5,340.5C 325.365,338.446 326.032,336.779 327.5,335.5 Z"/></g>
</svg>
