<?xml version="1.0" encoding="UTF-8"?>
<!DOCTYPE svg PUBLIC "-//W3C//DTD SVG 1.1//EN" "http://www.w3.org/Graphics/SVG/1.1/DTD/svg11.dtd">
<svg xmlns="http://www.w3.org/2000/svg" version="1.1" width="640px" height="480px" style="shape-rendering:geometricPrecision; text-rendering:geometricPrecision; image-rendering:optimizeQuality; fill-rule:evenodd; clip-rule:evenodd" xmlns:xlink="http://www.w3.org/1999/xlink">
<g><path style="opacity:1" fill="#fcfcfd" d="M 0.5,-0.5 C 12.8333,-0.5 25.1667,-0.5 37.5,-0.5C 64.688,19.6909 91.8547,40.0243 119,60.5C 119.5,40.1694 119.667,19.8361 119.5,-0.5C 124.833,-0.5 130.167,-0.5 135.5,-0.5C 135.5,31.5 135.5,63.5 135.5,95.5C 90.1667,95.5 44.8333,95.5 -0.5,95.5C -0.5,90.1667 -0.5,84.8333 -0.5,79.5C 20.8359,79.6666 42.1693,79.5 63.5,79C 42.2892,62.9495 20.9559,47.1161 -0.5,31.5C -0.5,27.8333 -0.5,24.1667 -0.5,20.5C 25.3401,40.168 51.3401,59.668 77.5,79C 87.5,79.6667 97.5,79.6667 107.5,79C 71.6502,52.6367 35.9835,26.1367 0.5,-0.5 Z"/></g>
<g><path style="opacity:1" fill="#022169" d="M 37.5,-0.5 C 64.8333,-0.5 92.1667,-0.5 119.5,-0.5C 119.667,19.8361 119.5,40.1694 119,60.5C 91.8547,40.0243 64.688,19.6909 37.5,-0.5 Z"/></g>
<g><path style="opacity:1" fill="#c91931" d="M 135.5,-0.5 C 151.833,-0.5 168.167,-0.5 184.5,-0.5C 184.5,31.5 184.5,63.5 184.5,95.5C 229.5,95.5 274.5,95.5 319.5,95.5C 319.5,111.833 319.5,128.167 319.5,144.5C 274.5,144.5 229.5,144.5 184.5,144.5C 184.5,176.167 184.5,207.833 184.5,239.5C 168.167,239.5 151.833,239.5 135.5,239.5C 135.5,207.833 135.5,176.167 135.5,144.5C 90.1667,144.5 44.8333,144.5 -0.5,144.5C -0.5,128.167 -0.5,111.833 -0.5,95.5C 44.8333,95.5 90.1667,95.5 135.5,95.5C 135.5,63.5 135.5,31.5 135.5,-0.5 Z"/></g>
<g><path style="opacity:1" fill="#fcfcfc" d="M 184.5,-0.5 C 189.833,-0.5 195.167,-0.5 200.5,-0.5C 200.333,19.1695 200.5,38.8362 201,58.5C 227.351,38.9699 253.517,19.3033 279.5,-0.5C 284.167,-0.5 288.833,-0.5 293.5,-0.5C 262.312,23.0249 231.145,46.6916 200,70.5C 199.502,73.4816 199.335,76.4816 199.5,79.5C 205.176,79.6661 210.843,79.4994 216.5,79C 250.505,52.6713 284.838,26.838 319.5,1.5C 319.5,11.1667 319.5,20.8333 319.5,30.5C 297.863,46.6576 276.196,62.8243 254.5,79C 276.164,79.5 297.831,79.6666 319.5,79.5C 319.5,84.8333 319.5,90.1667 319.5,95.5C 274.5,95.5 229.5,95.5 184.5,95.5C 184.5,63.5 184.5,31.5 184.5,-0.5 Z"/></g>
<g><path style="opacity:1" fill="#032169" d="M 200.5,-0.5 C 226.833,-0.5 253.167,-0.5 279.5,-0.5C 253.517,19.3033 227.351,38.9699 201,58.5C 200.5,38.8362 200.333,19.1695 200.5,-0.5 Z"/></g>
<g><path style="opacity:1" fill="#c91731" d="M 293.5,-0.5 C 302.167,-0.5 310.833,-0.5 319.5,-0.5C 319.5,0.166667 319.5,0.833333 319.5,1.5C 284.838,26.838 250.505,52.6713 216.5,79C 210.843,79.4994 205.176,79.6661 199.5,79.5C 199.335,76.4816 199.502,73.4816 200,70.5C 231.145,46.6916 262.312,23.0249 293.5,-0.5 Z"/></g>
<g><path style="opacity:1" fill="#000066" d="M 319.5,-0.5 C 426.167,-0.5 532.833,-0.5 639.5,-0.5C 639.5,159.5 639.5,319.5 639.5,479.5C 426.167,479.5 212.833,479.5 -0.5,479.5C -0.5,399.5 -0.5,319.5 -0.5,239.5C -0.166667,239.5 0.166667,239.5 0.5,239.5C 9.5,239.5 18.5,239.5 27.5,239.5C 31.8333,239.5 36.1667,239.5 40.5,239.5C 66.8333,239.5 93.1667,239.5 119.5,239.5C 124.833,239.5 130.167,239.5 135.5,239.5C 151.833,239.5 168.167,239.5 184.5,239.5C 189.5,239.5 194.5,239.5 199.5,239.5C 199.833,239.5 200.167,239.5 200.5,239.5C 226.5,239.5 252.5,239.5 278.5,239.5C 291.833,239.5 305.167,239.5 318.5,239.5C 319.491,233.021 319.824,226.354 319.5,219.5C 319.5,215.833 319.5,212.167 319.5,208.5C 319.5,192.167 319.5,175.833 319.5,159.5C 319.5,154.5 319.5,149.5 319.5,144.5C 319.5,128.167 319.5,111.833 319.5,95.5C 319.5,90.1667 319.5,84.8333 319.5,79.5C 319.5,63.1667 319.5,46.8333 319.5,30.5C 319.5,20.8333 319.5,11.1667 319.5,1.5C 319.5,0.833333 319.5,0.166667 319.5,-0.5 Z"/></g>
<g><path style="opacity:1" fill="#c91731" d="M -0.5,-0.5 C -0.166667,-0.5 0.166667,-0.5 0.5,-0.5C 35.9835,26.1367 71.6502,52.6367 107.5,79C 97.5,79.6667 87.5,79.6667 77.5,79C 51.3401,59.668 25.3401,40.168 -0.5,20.5C -0.5,13.5 -0.5,6.5 -0.5,-0.5 Z"/></g>
<g><path style="opacity:1" fill="#032269" d="M 319.5,30.5 C 319.5,46.8333 319.5,63.1667 319.5,79.5C 297.831,79.6666 276.164,79.5 254.5,79C 276.196,62.8243 297.863,46.6576 319.5,30.5 Z"/></g>
<g><path style="opacity:1" fill="#032269" d="M -0.5,31.5 C 20.9559,47.1161 42.2892,62.9495 63.5,79C 42.1693,79.5 20.8359,79.6666 -0.5,79.5C -0.5,63.5 -0.5,47.5 -0.5,31.5 Z"/></g>
<g><path style="opacity:1" fill="#ededf0" d="M 395.5,298.5 C 410.606,315.746 428.94,328.579 450.5,337C 454.404,338.531 458.404,339.198 462.5,339C 438.483,328.106 416.483,314.272 396.5,297.5C 390.954,292.112 386.787,285.778 384,278.5C 383.5,219.501 383.333,160.501 383.5,101.5C 448.167,101.5 512.833,101.5 577.5,101.5C 577.667,160.834 577.5,220.168 577,279.5C 571.849,289.97 564.682,298.804 555.5,306C 537.645,318.768 518.645,329.768 498.5,339C 508.707,337.486 518.373,334.152 527.5,329C 543.656,319.174 558.323,307.508 571.5,294C 578.423,290.62 583.256,292.454 586,299.5C 592.387,305.887 598.721,312.221 605,318.5C 609.184,332.504 604.017,340.837 589.5,343.5C 585.096,342.772 581.762,340.439 579.5,336.5C 538.609,374.055 491.276,385.555 437.5,371C 416.116,363.757 397.449,352.257 381.5,336.5C 369.531,346.23 360.697,343.896 355,329.5C 353.976,324.902 354.476,320.568 356.5,316.5C 360.03,313.805 363.696,311.305 367.5,309C 370.388,305.778 372.888,302.278 375,298.5C 381.725,292.045 388.558,292.045 395.5,298.5 Z"/></g>
<g><path style="opacity:1" fill="#1f2220" d="M 572.5,277.5 C 571.828,282.013 569.995,286.013 567,289.5C 553.52,302.983 538.354,314.149 521.5,323C 508.107,330.363 494.44,337.196 480.5,343.5C 454.239,331.375 429.239,317.208 405.5,301C 401.333,296.833 397.167,292.667 393,288.5C 390.566,285.205 388.899,281.538 388,277.5C 387.5,220.168 387.333,162.834 387.5,105.5C 449.832,104.927 512.165,104.594 574.5,104.5C 574.667,161.168 574.5,217.834 574,274.5C 573.768,275.737 573.268,276.737 572.5,277.5 Z"/></g>
<g><path style="opacity:1" fill="#0b5d27" d="M 572.5,277.5 C 566.505,288.668 558.171,297.835 547.5,305C 526.104,319.035 503.771,331.535 480.5,342.5C 454.691,330.103 430.025,315.936 406.5,300C 402.333,295.833 398.167,291.667 394,287.5C 391.363,283.928 389.697,279.928 389,275.5C 388.169,219.263 388.336,163.096 389.5,107C 450.499,106.5 511.499,106.333 572.5,106.5C 572.5,163.5 572.5,220.5 572.5,277.5 Z"/></g>
<g><path style="opacity:1" fill="#8e4a01" d="M 489.5,139.5 C 489.33,138.178 489.663,137.011 490.5,136C 490.12,133.674 489.12,131.841 487.5,130.5C 487.055,127.755 486.055,125.255 484.5,123C 481.183,122.502 477.85,122.335 474.5,122.5C 474.5,121.5 474.5,120.5 474.5,119.5C 475.791,119.737 476.791,119.404 477.5,118.5C 479.78,116.949 482.28,115.615 485,114.5C 488.491,115.921 491.991,117.421 495.5,119C 498.411,123.654 500.411,128.654 501.5,134C 499.072,137.479 496.239,140.646 493,143.5C 492.051,141.907 490.885,140.574 489.5,139.5 Z"/></g>
<g><path style="opacity:1" fill="#e90701" d="M 410.5,128.5 C 409.844,129.278 409.011,129.944 408,130.5C 407.235,130.43 406.735,130.097 406.5,129.5C 404.476,124.218 405.309,119.551 409,115.5C 409.184,118.591 410.017,121.591 411.5,124.5C 411.154,125.849 410.821,127.183 410.5,128.5 Z"/></g>
<g><path style="opacity:1" fill="#8a6f19" d="M 426.5,117.5 C 426.167,117.5 425.833,117.5 425.5,117.5C 424.833,117.5 424.167,117.5 423.5,117.5C 423.167,117.5 422.833,117.5 422.5,117.5C 422.167,114.5 423.5,113.167 426.5,113.5C 426.5,114.833 426.5,116.167 426.5,117.5 Z"/></g>
<g><path style="opacity:1" fill="#eb0900" d="M 523.5,129.5 C 522.844,130.278 522.011,130.944 521,131.5C 520.235,131.43 519.735,131.097 519.5,130.5C 520.736,127.57 520.403,124.737 518.5,122C 519.625,120.037 520.959,118.204 522.5,116.5C 524.295,120.777 524.629,125.11 523.5,129.5 Z"/></g>
<g><path style="opacity:1" fill="#63452b" d="M 477.5,118.5 C 476.791,119.404 475.791,119.737 474.5,119.5C 474.5,120.5 474.5,121.5 474.5,122.5C 477.85,122.335 481.183,122.502 484.5,123C 486.055,125.255 487.055,127.755 487.5,130.5C 485.883,129.411 485.05,127.744 485,125.5C 482.791,123.294 480.291,122.96 477.5,124.5C 476.831,126.631 476.165,128.631 475.5,130.5C 475.192,126.427 474.525,122.427 473.5,118.5C 474.833,118.5 476.167,118.5 477.5,118.5 Z"/></g>
<g><path style="opacity:1" fill="#dcb92b" d="M 536.5,117.5 C 534.095,121.973 531.429,126.306 528.5,130.5C 527.833,130.5 527.5,130.167 527.5,129.5C 530.025,125.104 533.025,121.104 536.5,117.5 Z"/></g>
<g><path style="opacity:1" fill="#e4b227" d="M 422.5,123.5 C 427.833,124.5 427.833,125.5 422.5,126.5C 422.5,125.5 422.5,124.5 422.5,123.5 Z"/></g>
<g><path style="opacity:1" fill="#d3b62b" d="M 425.5,117.5 C 425.833,117.5 426.167,117.5 426.5,117.5C 430.293,121.521 432.96,125.854 434.5,130.5C 431.085,126.424 428.085,122.091 425.5,117.5 Z"/></g>
<g><path style="opacity:1" fill="#efbaaa" d="M 487.5,130.5 C 487.719,132.718 487.719,135.052 487.5,137.5C 487.855,138.522 488.522,139.189 489.5,139.5C 489.759,142.272 490.759,144.605 492.5,146.5C 490.819,148.008 488.819,149.008 486.5,149.5C 484.856,149.714 483.356,149.38 482,148.5C 481.503,146.19 481.337,143.857 481.5,141.5C 480.167,141.5 478.833,141.5 477.5,141.5C 475.771,140.764 474.771,139.43 474.5,137.5C 475.473,137.013 476.473,136.513 477.5,136C 475.883,134.908 474.883,133.408 474.5,131.5C 475.167,131.5 475.5,131.167 475.5,130.5C 476.165,128.631 476.831,126.631 477.5,124.5C 480.291,122.96 482.791,123.294 485,125.5C 485.05,127.744 485.883,129.411 487.5,130.5 Z"/></g>
<g><path style="opacity:1" fill="#d0b12a" d="M 536.5,117.5 C 536.5,116.5 536.5,115.5 536.5,114.5C 537.5,114.5 538.5,114.5 539.5,114.5C 542.374,120.248 545.207,125.915 548,131.5C 544.753,127.341 541.753,123.008 539,118.5C 538.329,117.748 537.496,117.414 536.5,117.5 Z"/></g>
<g><path style="opacity:1" fill="#e0af26" d="M 536.5,123.5 C 539.861,124.203 540.194,125.537 537.5,127.5C 536.571,126.311 536.238,124.978 536.5,123.5 Z"/></g>
<g><path style="opacity:1" fill="#d8b72b" d="M 422.5,117.5 C 422.833,117.5 423.167,117.5 423.5,117.5C 420.747,122.008 417.747,126.341 414.5,130.5C 414.167,130.5 413.833,130.5 413.5,130.5C 416.117,125.886 419.117,121.553 422.5,117.5 Z"/></g>
<g><path style="opacity:1" fill="#f4bf2a" d="M 440.5,134.5 C 442.094,133.017 443.76,131.517 445.5,130C 444.5,129.333 443.5,129.333 442.5,130C 439.5,131.667 437.167,134 435.5,137C 433.975,138.009 432.308,138.509 430.5,138.5C 425.833,138.5 421.167,138.5 416.5,138.5C 413.092,136.389 409.426,134.722 405.5,133.5C 410.251,131.859 415.251,130.859 420.5,130.5C 421.815,129.524 423.148,128.524 424.5,127.5C 425.981,128.48 427.315,129.647 428.5,131C 429.833,131.167 431.167,131.333 432.5,131.5C 437.035,129.9 441.702,128.9 446.5,128.5C 446.205,132.129 444.205,134.129 440.5,134.5 Z"/></g>
<g><path style="opacity:1" fill="#f8c12a" d="M 556.5,133.5 C 559.27,130.798 558.603,129.965 554.5,131C 552.461,132.926 550.794,135.093 549.5,137.5C 543.01,139.49 536.344,139.99 529.5,139C 527.333,138.167 525.833,136.667 525,134.5C 522.701,135.58 520.534,135.246 518.5,133.5C 523.697,133.242 529.03,132.576 534.5,131.5C 535.191,129.978 536.358,128.978 538,128.5C 539.978,130.761 542.478,132.095 545.5,132.5C 550.175,131.16 554.842,129.827 559.5,128.5C 560.084,131.285 559.084,132.952 556.5,133.5 Z"/></g>
<g><path style="opacity:1" fill="#202009" d="M 410.5,128.5 C 410.821,130.048 411.821,130.715 413.5,130.5C 413.833,130.5 414.167,130.5 414.5,130.5C 416.5,130.5 418.5,130.5 420.5,130.5C 415.251,130.859 410.251,131.859 405.5,133.5C 404.147,131.872 404.481,130.538 406.5,129.5C 406.735,130.097 407.235,130.43 408,130.5C 409.011,129.944 409.844,129.278 410.5,128.5 Z"/></g>
<g><path style="opacity:1" fill="#6a5916" d="M 523.5,129.5 C 523.47,130.497 523.97,131.164 525,131.5C 526.011,130.944 526.844,130.278 527.5,129.5C 527.5,130.167 527.833,130.5 528.5,130.5C 530.265,131.461 532.265,131.795 534.5,131.5C 529.03,132.576 523.697,133.242 518.5,133.5C 517.285,132.221 517.618,131.221 519.5,130.5C 519.735,131.097 520.235,131.43 521,131.5C 522.011,130.944 522.844,130.278 523.5,129.5 Z"/></g>
<g><path style="opacity:1" fill="#223211" d="M 556.5,133.5 C 554.251,134.08 552.585,135.413 551.5,137.5C 550.833,137.5 550.167,137.5 549.5,137.5C 550.794,135.093 552.461,132.926 554.5,131C 558.603,129.965 559.27,130.798 556.5,133.5 Z"/></g>
<g><path style="opacity:1" fill="#e6b428" d="M 440.5,134.5 C 440.719,135.675 440.386,136.675 439.5,137.5C 438.335,136.14 438.668,135.14 440.5,134.5 Z"/></g>
<g><path style="opacity:1" fill="#352e28" d="M 474.5,131.5 C 474.883,133.408 475.883,134.908 477.5,136C 476.473,136.513 475.473,137.013 474.5,137.5C 474.046,135.259 474.046,133.259 474.5,131.5 Z"/></g>
<g><path style="opacity:1" fill="#432b1a" d="M 487.5,130.5 C 489.12,131.841 490.12,133.674 490.5,136C 489.663,137.011 489.33,138.178 489.5,139.5C 488.522,139.189 487.855,138.522 487.5,137.5C 487.719,135.052 487.719,132.718 487.5,130.5 Z"/></g>
<g><path style="opacity:1" fill="#c19822" d="M 556.5,133.5 C 555.19,135.148 553.857,136.814 552.5,138.5C 551.893,138.376 551.56,138.043 551.5,137.5C 552.585,135.413 554.251,134.08 556.5,133.5 Z"/></g>
<g><path style="opacity:1" fill="#a17e1b" d="M 416.5,138.5 C 421.167,138.5 425.833,138.5 430.5,138.5C 430.5,139.167 430.5,139.833 430.5,140.5C 425.833,140.5 421.167,140.5 416.5,140.5C 416.5,139.833 416.5,139.167 416.5,138.5 Z"/></g>
<g><path style="opacity:1" fill="#fbc42b" d="M 416.5,140.5 C 421.167,140.5 425.833,140.5 430.5,140.5C 430.833,140.5 431.167,140.5 431.5,140.5C 426.604,142.446 421.271,143.113 415.5,142.5C 415.833,141.833 416.167,141.167 416.5,140.5 Z"/></g>
<g><path style="opacity:1" fill="#f9c22b" d="M 529.5,140.5 C 535.021,140.054 540.355,140.554 545.5,142C 542.833,142.167 540.167,142.333 537.5,142.5C 534.41,142.478 531.743,141.812 529.5,140.5 Z"/></g>
<g><path style="opacity:1" fill="#212e0e" d="M 431.5,140.5 C 432.404,141.209 432.737,142.209 432.5,143.5C 426.642,143.822 420.975,143.489 415.5,142.5C 421.271,143.113 426.604,142.446 431.5,140.5 Z"/></g>
<g><path style="opacity:1" fill="#fcfcfc" d="M -0.5,144.5 C 44.8333,144.5 90.1667,144.5 135.5,144.5C 135.5,176.167 135.5,207.833 135.5,239.5C 130.167,239.5 124.833,239.5 119.5,239.5C 119.667,219.831 119.5,200.164 119,180.5C 92.6495,200.03 66.4828,219.697 40.5,239.5C 36.1667,239.5 31.8333,239.5 27.5,239.5C 57.699,215.813 88.3657,192.646 119.5,170C 120.456,166.606 120.789,163.106 120.5,159.5C 115.041,159.103 109.708,159.603 104.5,161C 69.6492,187.03 34.9826,213.197 0.5,239.5C 0.166667,239.5 -0.166667,239.5 -0.5,239.5C -0.5,229.5 -0.5,219.5 -0.5,209.5C 21.623,193.217 43.623,176.717 65.5,160C 43.5025,159.5 21.5025,159.333 -0.5,159.5C -0.5,154.5 -0.5,149.5 -0.5,144.5 Z"/></g>
<g><path style="opacity:1" fill="#fdfdfd" d="M 319.5,144.5 C 319.5,149.5 319.5,154.5 319.5,159.5C 297.497,159.333 275.497,159.5 253.5,160C 275.352,176.42 297.352,192.587 319.5,208.5C 319.5,212.167 319.5,215.833 319.5,219.5C 293.044,200.217 266.711,180.717 240.5,161C 230.934,159.387 221.267,159.053 211.5,160C 247.35,186.363 283.016,212.863 318.5,239.5C 305.167,239.5 291.833,239.5 278.5,239.5C 253.051,219.935 227.384,200.602 201.5,181.5C 201.44,180.957 201.107,180.624 200.5,180.5C 199.5,200.155 199.167,219.822 199.5,239.5C 194.5,239.5 189.5,239.5 184.5,239.5C 184.5,207.833 184.5,176.167 184.5,144.5C 229.5,144.5 274.5,144.5 319.5,144.5 Z"/></g>
<g><path style="opacity:1" fill="#deae26" d="M 422.5,145.5 C 426.31,146.754 426.31,147.754 422.5,148.5C 422.5,147.5 422.5,146.5 422.5,145.5 Z"/></g>
<g><path style="opacity:1" fill="#f6f6f6" d="M 492.5,146.5 C 498.336,147.996 502.336,151.663 504.5,157.5C 502.695,158.237 501.029,159.237 499.5,160.5C 498.24,157.891 497.24,158.057 496.5,161C 496.989,162.138 497.322,163.305 497.5,164.5C 496.79,166.893 496.123,169.393 495.5,172C 492.623,173.127 489.623,173.794 486.5,174C 489.888,174.659 493.221,174.492 496.5,173.5C 496.989,174.995 497.655,176.329 498.5,177.5C 497.728,181.452 497.395,185.452 497.5,189.5C 496.677,192.977 496.177,196.644 496,200.5C 494.336,203.327 493.17,206.327 492.5,209.5C 488.501,214.164 487.168,219.498 488.5,225.5C 490.012,227.934 492.012,228.601 494.5,227.5C 495.297,231.842 496.13,236.176 497,240.5C 497.54,236.649 497.374,232.815 496.5,229C 496.646,226.24 497.313,223.74 498.5,221.5C 500.7,233.299 503.367,244.966 506.5,256.5C 505.024,258.761 503.524,258.428 502,255.5C 499.104,257.745 495.937,258.078 492.5,256.5C 491.354,257.145 490.354,257.978 489.5,259C 493.295,259.06 497.129,258.893 501,258.5C 503.399,258.613 505.232,259.613 506.5,261.5C 508.661,267.161 510.661,272.827 512.5,278.5C 512.751,281.909 512.417,285.242 511.5,288.5C 511.994,290.026 512.661,291.359 513.5,292.5C 513.5,294.167 513.5,295.833 513.5,297.5C 510.325,298.091 507.991,297.091 506.5,294.5C 506.5,296.167 506.5,297.833 506.5,299.5C 505.5,299.5 504.5,299.5 503.5,299.5C 501.265,299.205 499.265,299.539 497.5,300.5C 496.833,300.5 496.5,300.833 496.5,301.5C 495.07,301.579 493.736,301.246 492.5,300.5C 491.289,301.274 491.289,302.107 492.5,303C 490.19,303.497 487.857,303.663 485.5,303.5C 485.986,299.491 484.32,297.658 480.5,298C 483.018,299.81 483.018,301.643 480.5,303.5C 480.167,303.5 479.833,303.5 479.5,303.5C 478.152,300.492 475.818,299.159 472.5,299.5C 468.23,300.59 463.897,301.257 459.5,301.5C 460.51,298.146 460.51,294.813 459.5,291.5C 460.178,289.484 460.844,287.484 461.5,285.5C 462.329,278.011 462.829,270.344 463,262.5C 464.255,261.789 465.421,260.956 466.5,260C 464.243,260.437 461.91,260.937 459.5,261.5C 459.5,258.5 459.5,255.5 459.5,252.5C 461.187,243.352 462.521,234.018 463.5,224.5C 464.185,220.572 465.185,216.739 466.5,213C 465.572,212.612 464.905,211.945 464.5,211C 466.691,203.934 468.357,196.767 469.5,189.5C 470.651,184.35 470.817,179.016 470,173.5C 469.329,172.748 468.496,172.414 467.5,172.5C 465.774,170.18 465.107,167.513 465.5,164.5C 466.338,164.158 466.672,163.492 466.5,162.5C 467.167,162.167 467.833,161.833 468.5,161.5C 470.794,158.63 472.128,155.297 472.5,151.5C 474.167,150.5 475.5,149.167 476.5,147.5C 478.681,147.284 480.347,148.117 481.5,150C 483.387,150.78 485.054,150.613 486.5,149.5C 488.819,149.008 490.819,148.008 492.5,146.5 Z"/></g>
<g><path style="opacity:1" fill="#ddad26" d="M 535.5,145.5 C 539.31,146.754 539.31,147.754 535.5,148.5C 535.5,147.5 535.5,146.5 535.5,145.5 Z"/></g>
<g><path style="opacity:1" fill="#f10a00" d="M 409.5,160.5 C 408.533,161.806 407.199,162.473 405.5,162.5C 406.931,159.48 406.597,156.647 404.5,154C 405.223,151.447 406.556,149.28 408.5,147.5C 410.073,151.812 410.407,156.146 409.5,160.5 Z"/></g>
<g><path style="opacity:1" fill="#5e574f" d="M 477.5,141.5 C 478.833,141.5 480.167,141.5 481.5,141.5C 481.337,143.857 481.503,146.19 482,148.5C 483.356,149.38 484.856,149.714 486.5,149.5C 485.054,150.613 483.387,150.78 481.5,150C 480.347,148.117 478.681,147.284 476.5,147.5C 477.568,146.566 478.901,146.232 480.5,146.5C 480.5,145.167 480.5,143.833 480.5,142.5C 479.209,142.737 478.209,142.404 477.5,141.5 Z"/></g>
<g><path style="opacity:1" fill="#ef0a00" d="M 522.5,160.5 C 521.844,161.278 521.011,161.944 520,162.5C 519.235,162.43 518.735,162.097 518.5,161.5C 519.124,161.083 519.457,160.416 519.5,159.5C 516.569,154.944 517.236,150.944 521.5,147.5C 523.073,151.812 523.407,156.146 522.5,160.5 Z"/></g>
<g><path style="opacity:1" fill="#ecb828" d="M 422.5,155.5 C 423.5,155.5 424.5,155.5 425.5,155.5C 425.5,156.5 425.5,157.5 425.5,158.5C 424.5,158.5 423.5,158.5 422.5,158.5C 422.5,157.5 422.5,156.5 422.5,155.5 Z"/></g>
<g><path style="opacity:1" fill="#f5bf2a" d="M 535.5,155.5 C 538.957,155.667 539.29,156.667 536.5,158.5C 535.614,157.675 535.281,156.675 535.5,155.5 Z"/></g>
<g><path style="opacity:1" fill="#dcb92b" d="M 527.5,162.5 C 526.833,162.5 526.167,162.5 525.5,162.5C 528.117,157.886 531.117,153.553 534.5,149.5C 534.833,149.667 535.167,149.833 535.5,150C 532.438,153.969 529.771,158.136 527.5,162.5 Z"/></g>
<g><path style="opacity:1" fill="#d7b72b" d="M 414.5,162.5 C 413.833,162.5 413.167,162.5 412.5,162.5C 415.243,158.021 418.243,153.688 421.5,149.5C 421.833,149.667 422.167,149.833 422.5,150C 419.61,154.05 416.943,158.217 414.5,162.5 Z"/></g>
<g><path style="opacity:1" fill="#032269" d="M -0.5,159.5 C 21.5025,159.333 43.5025,159.5 65.5,160C 43.623,176.717 21.623,193.217 -0.5,209.5C -0.5,192.833 -0.5,176.167 -0.5,159.5 Z"/></g>
<g><path style="opacity:1" fill="#c91731" d="M 27.5,239.5 C 18.5,239.5 9.5,239.5 0.5,239.5C 34.9826,213.197 69.6492,187.03 104.5,161C 109.708,159.603 115.041,159.103 120.5,159.5C 120.789,163.106 120.456,166.606 119.5,170C 88.3657,192.646 57.699,215.813 27.5,239.5 Z"/></g>
<g><path style="opacity:1" fill="#c91731" d="M 319.5,219.5 C 319.824,226.354 319.491,233.021 318.5,239.5C 283.016,212.863 247.35,186.363 211.5,160C 221.267,159.053 230.934,159.387 240.5,161C 266.711,180.717 293.044,200.217 319.5,219.5 Z"/></g>
<g><path style="opacity:1" fill="#032269" d="M 319.5,159.5 C 319.5,175.833 319.5,192.167 319.5,208.5C 297.352,192.587 275.352,176.42 253.5,160C 275.497,159.5 297.497,159.333 319.5,159.5 Z"/></g>
<g><path style="opacity:1" fill="#dcb92b" d="M 425.5,149.5 C 429.375,153.275 432.208,157.608 434,162.5C 430.15,158.793 427.317,154.46 425.5,149.5 Z"/></g>
<g><path style="opacity:1" fill="#ad8e83" d="M 472.5,151.5 C 472.128,155.297 470.794,158.63 468.5,161.5C 467.438,159.901 467.438,158.234 468.5,156.5C 469.604,154.611 470.937,152.945 472.5,151.5 Z"/></g>
<g><path style="opacity:1" fill="#7d7d7d" d="M 475.5,163.5 C 472.995,161.814 472.162,159.481 473,156.5C 473.847,158.854 474.68,161.188 475.5,163.5 Z"/></g>
<g><path style="opacity:1" fill="#eebaab" d="M 504.5,157.5 C 508.207,168.198 510.04,179.198 510,190.5C 504.792,197.581 500.625,205.248 497.5,213.5C 497.306,217.335 495.639,220.502 492.5,223C 490.077,223.348 489.077,222.182 489.5,219.5C 490.508,216.155 491.508,212.822 492.5,209.5C 493.17,206.327 494.336,203.327 496,200.5C 496.177,196.644 496.677,192.977 497.5,189.5C 497.336,192.187 497.503,194.854 498,197.5C 503.482,190.743 503.649,184.076 498.5,177.5C 497.655,176.329 496.989,174.995 496.5,173.5C 497.477,170.713 497.81,167.713 497.5,164.5C 497.322,163.305 496.989,162.138 496.5,161C 497.24,158.057 498.24,157.891 499.5,160.5C 501.029,159.237 502.695,158.237 504.5,157.5 Z"/></g>
<g><path style="opacity:1" fill="#fbc42b" d="M 444.5,163.5 C 444.157,161.775 443.157,161.275 441.5,162C 438.623,164.387 435.956,167.054 433.5,170C 432.552,170.483 431.552,170.649 430.5,170.5C 425.833,170.5 421.167,170.5 416.5,170.5C 414.284,169.797 412.451,168.464 411,166.5C 410.586,166.957 410.086,167.291 409.5,167.5C 407.64,166.74 405.973,165.74 404.5,164.5C 406.546,163.035 408.38,163.368 410,165.5C 413.647,164.224 417.147,162.89 420.5,161.5C 423.26,158.842 425.594,159.342 427.5,163C 429,163.167 430.5,163.333 432,163.5C 436.472,162.346 440.972,161.346 445.5,160.5C 445.737,161.791 445.404,162.791 444.5,163.5 Z"/></g>
<g><path style="opacity:1" fill="#38382e" d="M 468.5,156.5 C 467.438,158.234 467.438,159.901 468.5,161.5C 467.833,161.833 467.167,162.167 466.5,162.5C 466.054,159.99 466.72,157.99 468.5,156.5 Z"/></g>
<g><path style="opacity:1" fill="#f7c12a" d="M 550.5,169.5 C 551.927,166.236 554.261,163.736 557.5,162C 553.025,161.957 550.025,164.124 548.5,168.5C 546.95,169.441 545.284,170.107 543.5,170.5C 538.167,170.5 532.833,170.5 527.5,170.5C 526.4,167.984 524.733,166.984 522.5,167.5C 520.64,166.74 518.973,165.74 517.5,164.5C 519.546,163.035 521.38,163.368 523,165.5C 526.36,163.93 529.86,162.93 533.5,162.5C 535.829,158.612 538.162,158.778 540.5,163C 541.833,163.167 543.167,163.333 544.5,163.5C 549.16,162.172 553.827,160.838 558.5,159.5C 558.657,160.873 558.49,162.207 558,163.5C 555.293,165.388 552.793,167.388 550.5,169.5 Z"/></g>
<g><path style="opacity:1" fill="#dab82b" d="M 537.5,150.5 C 538.793,149.355 539.959,149.689 541,151.5C 543.591,155.027 545.591,158.694 547,162.5C 543.589,158.601 540.422,154.601 537.5,150.5 Z"/></g>
<g><path style="opacity:1" fill="#26240b" d="M 409.5,160.5 C 409.821,162.048 410.821,162.715 412.5,162.5C 413.167,162.5 413.833,162.5 414.5,162.5C 416.621,162.675 418.621,162.341 420.5,161.5C 417.147,162.89 413.647,164.224 410,165.5C 408.38,163.368 406.546,163.035 404.5,164.5C 403.243,163.377 403.576,162.711 405.5,162.5C 407.199,162.473 408.533,161.806 409.5,160.5 Z"/></g>
<g><path style="opacity:1" fill="#6a6a6a" d="M 475.5,163.5 C 476.65,164.85 477.317,164.684 477.5,163C 475.002,159.503 474.168,155.67 475,151.5C 476.03,155.72 477.197,159.887 478.5,164C 478.049,168.164 477.049,167.997 475.5,163.5 Z"/></g>
<g><path style="opacity:1" fill="#1f3212" d="M 550.5,169.5 C 549.833,169.167 549.167,168.833 548.5,168.5C 550.025,164.124 553.025,161.957 557.5,162C 554.261,163.736 551.927,166.236 550.5,169.5 Z"/></g>
<g><path style="opacity:1" fill="#27220a" d="M 522.5,160.5 C 522.821,162.048 523.821,162.715 525.5,162.5C 526.167,162.5 526.833,162.5 527.5,162.5C 529.5,162.5 531.5,162.5 533.5,162.5C 529.86,162.93 526.36,163.93 523,165.5C 521.38,163.368 519.546,163.035 517.5,164.5C 516.285,163.221 516.618,162.221 518.5,161.5C 518.735,162.097 519.235,162.43 520,162.5C 521.011,161.944 521.844,161.278 522.5,160.5 Z"/></g>
<g><path style="opacity:1" fill="#d2a524" d="M 444.5,163.5 C 444.027,164.906 443.027,165.573 441.5,165.5C 441.973,164.094 442.973,163.427 444.5,163.5 Z"/></g>
<g><path style="opacity:1" fill="#dcac26" d="M 441.5,165.5 C 440.524,166.815 439.524,168.148 438.5,169.5C 437.738,167.219 438.738,165.886 441.5,165.5 Z"/></g>
<g><path style="opacity:1" fill="#a27e1b" d="M 416.5,170.5 C 421.167,170.5 425.833,170.5 430.5,170.5C 430.5,171.167 430.5,171.833 430.5,172.5C 425.833,172.5 421.167,172.5 416.5,172.5C 416.5,171.833 416.5,171.167 416.5,170.5 Z"/></g>
<g><path style="opacity:1" fill="#41473b" d="M 465.5,164.5 C 465.107,167.513 465.774,170.18 467.5,172.5C 465.626,174.082 464.293,176.082 463.5,178.5C 463.911,173.662 464.578,168.995 465.5,164.5 Z"/></g>
<g><path style="opacity:1" fill="#7c6115" d="M 527.5,170.5 C 532.833,170.5 538.167,170.5 543.5,170.5C 543.5,171.167 543.5,171.833 543.5,172.5C 538.5,171.167 533.5,171.167 528.5,172.5C 528.167,171.833 527.833,171.167 527.5,170.5 Z"/></g>
<g><path style="opacity:1" fill="#fdc52b" d="M 415.5,172.5 C 415.833,172.5 416.167,172.5 416.5,172.5C 421.167,172.5 425.833,172.5 430.5,172.5C 430.5,173.167 430.833,173.5 431.5,173.5C 429.022,174.164 426.355,174.497 423.5,174.5C 420.41,174.478 417.743,173.812 415.5,172.5 Z"/></g>
<g><path style="opacity:1" fill="#f1bbab" d="M 467.5,172.5 C 469.81,177.263 470.143,182.263 468.5,187.5C 462.497,192.666 456.331,197.666 450,202.5C 450.612,207.528 450.112,212.528 448.5,217.5C 448.167,217.5 447.833,217.5 447.5,217.5C 445.908,218.602 445.075,217.935 445,215.5C 444.658,217.619 443.825,217.953 442.5,216.5C 442.5,215.833 442.5,215.167 442.5,214.5C 442.336,211.813 442.503,209.146 443,206.5C 449.598,196.96 456.432,187.626 463.5,178.5C 464.293,176.082 465.626,174.082 467.5,172.5 Z"/></g>
<g><path style="opacity:1" fill="#676664" d="M 497.5,164.5 C 497.81,167.713 497.477,170.713 496.5,173.5C 493.221,174.492 489.888,174.659 486.5,174C 489.623,173.794 492.623,173.127 495.5,172C 496.123,169.393 496.79,166.893 497.5,164.5 Z"/></g>
<g><path style="opacity:1" fill="#ecb828" d="M 543.5,172.5 C 543.611,173.117 543.944,173.617 544.5,174C 541.833,174.167 539.167,174.333 536.5,174.5C 533.41,174.478 530.743,173.812 528.5,172.5C 533.5,171.167 538.5,171.167 543.5,172.5 Z"/></g>
<g><path style="opacity:1" fill="#1c2d0e" d="M 415.5,172.5 C 417.743,173.812 420.41,174.478 423.5,174.5C 426.355,174.497 429.022,174.164 431.5,173.5C 432.043,173.56 432.376,173.893 432.5,174.5C 426.537,175.496 420.537,175.829 414.5,175.5C 414.263,174.209 414.596,173.209 415.5,172.5 Z"/></g>
<g><path style="opacity:1" fill="#838383" d="M 484.5,179.5 C 482.072,177.381 480.905,174.714 481,171.5C 482.456,174.032 483.623,176.699 484.5,179.5 Z"/></g>
<g><path style="opacity:1" fill="#43413e" d="M 467.5,172.5 C 468.496,172.414 469.329,172.748 470,173.5C 470.817,179.016 470.651,184.35 469.5,189.5C 469.672,188.508 469.338,187.842 468.5,187.5C 470.143,182.263 469.81,177.263 467.5,172.5 Z"/></g>
<g><path style="opacity:1" fill="#eb0900" d="M 409.5,192.5 C 408.833,192.5 408.5,192.833 408.5,193.5C 406.972,192.198 405.972,190.531 405.5,188.5C 405.018,187.584 404.685,186.584 404.5,185.5C 405.649,183.203 406.815,180.87 408,178.5C 409.955,183.015 410.455,187.682 409.5,192.5 Z"/></g>
<g><path style="opacity:1" fill="#7f8fb3" d="M 201.5,181.5 C 200.503,200.659 200.17,219.993 200.5,239.5C 200.167,239.5 199.833,239.5 199.5,239.5C 199.167,219.822 199.5,200.155 200.5,180.5C 201.107,180.624 201.44,180.957 201.5,181.5 Z"/></g>
<g><path style="opacity:1" fill="#828282" d="M 484.5,179.5 C 486.63,181.127 488.63,182.96 490.5,185C 487.474,184.481 485.474,182.648 484.5,179.5 Z"/></g>
<g><path style="opacity:1" fill="#e90600" d="M 521.5,192.5 C 520.844,193.278 520.011,193.944 519,194.5C 518.235,194.43 517.735,194.097 517.5,193.5C 515.324,188.219 516.157,183.552 520,179.5C 520.318,182.435 521.151,185.269 522.5,188C 521.852,189.44 521.519,190.94 521.5,192.5 Z"/></g>
<g><path style="opacity:1" fill="#022169" d="M 119.5,239.5 C 93.1667,239.5 66.8333,239.5 40.5,239.5C 66.4828,219.697 92.6495,200.03 119,180.5C 119.5,200.164 119.667,219.831 119.5,239.5 Z"/></g>
<g><path style="opacity:1" fill="#032169" d="M 201.5,181.5 C 227.384,200.602 253.051,219.935 278.5,239.5C 252.5,239.5 226.5,239.5 200.5,239.5C 200.17,219.993 200.503,200.659 201.5,181.5 Z"/></g>
<g><path style="opacity:1" fill="#1e4b27" d="M 498.5,177.5 C 503.649,184.076 503.482,190.743 498,197.5C 497.503,194.854 497.336,192.187 497.5,189.5C 497.395,185.452 497.728,181.452 498.5,177.5 Z"/></g>
<g><path style="opacity:1" fill="#6a6a6a" d="M 481.5,179.5 C 482.775,181.608 483.275,183.942 483,186.5C 481.798,184.323 481.298,181.989 481.5,179.5 Z"/></g>
<g><path style="opacity:1" fill="#cfae29" d="M 525.5,194.5 C 525.167,194.5 524.833,194.5 524.5,194.5C 526.815,189.882 529.648,185.549 533,181.5C 533.483,180.552 533.649,179.552 533.5,178.5C 534.675,178.281 535.675,178.614 536.5,179.5C 539.638,184.471 542.972,189.304 546.5,194C 545.551,194.617 544.718,194.451 544,193.5C 541.412,189.324 538.579,185.324 535.5,181.5C 531.927,185.644 528.594,189.978 525.5,194.5 Z"/></g>
<g><path style="opacity:1" fill="#7c7c7c" d="M 477.5,178.5 C 478.867,182.105 478.7,185.771 477,189.5C 477.238,185.891 477.405,182.225 477.5,178.5 Z"/></g>
<g><path style="opacity:1" fill="#f2bd29" d="M 533.5,187.5 C 534.5,187.5 535.5,187.5 536.5,187.5C 536.5,188.5 536.5,189.5 536.5,190.5C 535.5,190.5 534.5,190.5 533.5,190.5C 533.5,189.5 533.5,188.5 533.5,187.5 Z"/></g>
<g><path style="opacity:1" fill="#125927" d="M 468.5,187.5 C 469.338,187.842 469.672,188.508 469.5,189.5C 468.357,196.767 466.691,203.934 464.5,211C 464.905,211.945 465.572,212.612 466.5,213C 465.185,216.739 464.185,220.572 463.5,224.5C 462.29,224.932 461.29,225.599 460.5,226.5C 454.706,230.754 449.206,230.421 444,225.5C 442.401,226.071 441.234,227.071 440.5,228.5C 438.5,228.5 436.5,228.5 434.5,228.5C 437.167,224.5 439.833,220.5 442.5,216.5C 443.825,217.953 444.658,217.619 445,215.5C 445.075,217.935 445.908,218.602 447.5,217.5C 449.386,221.399 451.719,225.066 454.5,228.5C 454.833,228.333 455.167,228.167 455.5,228C 453.28,224.385 450.947,220.885 448.5,217.5C 450.112,212.528 450.612,207.528 450,202.5C 456.331,197.666 462.497,192.666 468.5,187.5 Z"/></g>
<g><path style="opacity:1" fill="#d0af29" d="M 413.5,194.5 C 413.167,194.5 412.833,194.5 412.5,194.5C 415.754,188.577 419.421,182.91 423.5,177.5C 426.987,182.463 430.487,187.463 434,192.5C 434.667,193.167 434.667,193.833 434,194.5C 430.692,189.692 427.192,185.025 423.5,180.5C 419.754,184.906 416.42,189.573 413.5,194.5 Z"/></g>
<g><path style="opacity:1" fill="#d1a324" d="M 422.5,186.5 C 425.861,187.203 426.194,188.537 423.5,190.5C 421.358,189.563 421.024,188.23 422.5,186.5 Z"/></g>
<g><path style="opacity:1" fill="#717171" d="M 484.5,190.5 C 487.874,190.674 491.207,191.174 494.5,192C 491.089,192.027 487.756,192.194 484.5,192.5C 483.537,192.03 483.537,191.363 484.5,190.5 Z"/></g>
<g><path style="opacity:1" fill="#f7c12a" d="M 431.5,202.5 C 425.379,202.91 419.379,202.41 413.5,201C 412.128,199.758 411.128,198.258 410.5,196.5C 413.642,195.833 416.642,195.166 419.5,194.5C 422.341,190.369 425.008,190.536 427.5,195C 428.833,195.167 430.167,195.333 431.5,195.5C 435.95,193.62 440.616,192.287 445.5,191.5C 446.018,195.478 444.352,197.311 440.5,197C 441.833,196 443.167,195 444.5,194C 443.167,193.333 441.833,193.333 440.5,194C 438.022,197.533 435.022,200.367 431.5,202.5 Z"/></g>
<g><path style="opacity:1" fill="#f6c02a" d="M 551.5,198.5 C 552.8,197.173 554.133,195.84 555.5,194.5C 554.21,193.592 552.877,193.759 551.5,195C 549.461,196.926 547.794,199.093 546.5,201.5C 544.883,202.038 543.216,202.371 541.5,202.5C 536.833,202.5 532.167,202.5 527.5,202.5C 524.548,201.641 522.715,199.641 522,196.5C 521.507,199.985 520.007,200.485 517.5,198C 516.748,197.329 516.414,196.496 516.5,195.5C 521.695,195.821 526.695,195.487 531.5,194.5C 532.815,193.524 534.148,192.524 535.5,191.5C 536.981,192.48 538.315,193.647 539.5,195C 540.833,195.167 542.167,195.333 543.5,195.5C 548.035,193.9 552.702,192.9 557.5,192.5C 557.205,196.129 555.205,198.129 551.5,198.5 Z"/></g>
<g><path style="opacity:1" fill="#890603" d="M 405.5,188.5 C 405.972,190.531 406.972,192.198 408.5,193.5C 407.5,194.833 406.5,194.833 405.5,193.5C 405.5,191.833 405.5,190.167 405.5,188.5 Z"/></g>
<g><path style="opacity:1" fill="#22240c" d="M 521.5,192.5 C 521.821,194.048 522.821,194.715 524.5,194.5C 524.833,194.5 525.167,194.5 525.5,194.5C 527.5,194.5 529.5,194.5 531.5,194.5C 526.695,195.487 521.695,195.821 516.5,195.5C 516.328,194.508 516.662,193.842 517.5,193.5C 517.735,194.097 518.235,194.43 519,194.5C 520.011,193.944 520.844,193.278 521.5,192.5 Z"/></g>
<g><path style="opacity:1" fill="#f5bf2a" d="M 404.5,196.5 C 405.919,195.549 407.585,195.216 409.5,195.5C 409.5,196.5 409.5,197.5 409.5,198.5C 408.5,198.5 407.5,198.5 406.5,198.5C 406.167,197.5 405.5,196.833 404.5,196.5 Z"/></g>
<g><path style="opacity:1" fill="#858585" d="M 487.5,195.5 C 488.693,195.97 489.36,196.97 489.5,198.5C 490.379,201.812 490.546,205.145 490,208.5C 489.321,204.122 488.488,199.789 487.5,195.5 Z"/></g>
<g><path style="opacity:1" fill="#253411" d="M 551.5,198.5 C 549.015,199.74 549.015,200.74 551.5,201.5C 550.001,202.494 548.334,202.494 546.5,201.5C 547.794,199.093 549.461,196.926 551.5,195C 552.877,193.759 554.21,193.592 555.5,194.5C 554.133,195.84 552.8,197.173 551.5,198.5 Z"/></g>
<g><path style="opacity:1" fill="#4c4412" d="M 409.5,192.5 C 409.821,194.048 410.821,194.715 412.5,194.5C 412.833,194.5 413.167,194.5 413.5,194.5C 415.5,194.5 417.5,194.5 419.5,194.5C 416.642,195.166 413.642,195.833 410.5,196.5C 411.128,198.258 412.128,199.758 413.5,201C 419.379,202.41 425.379,202.91 431.5,202.5C 431.5,203.833 431.5,205.167 431.5,206.5C 425.833,206.5 420.167,206.5 414.5,206.5C 413.506,202.173 410.839,199.506 406.5,198.5C 407.5,198.5 408.5,198.5 409.5,198.5C 409.5,197.5 409.5,196.5 409.5,195.5C 407.585,195.216 405.919,195.549 404.5,196.5C 403.285,195.221 403.618,194.221 405.5,193.5C 406.5,194.833 407.5,194.833 408.5,193.5C 408.5,192.833 408.833,192.5 409.5,192.5 Z"/></g>
<g><path style="opacity:1" fill="#757575" d="M 472.5,192.5 C 473.497,192.47 474.164,192.97 474.5,194C 473.54,199.212 472.374,204.379 471,209.5C 471.582,203.888 472.082,198.221 472.5,192.5 Z"/></g>
<g><path style="opacity:1" fill="#e1b027" d="M 438.5,198.5 C 439.776,199.386 439.776,200.386 438.5,201.5C 437.438,200.575 437.438,199.575 438.5,198.5 Z"/></g>
<g><path style="opacity:1" fill="#ddad26" d="M 551.5,198.5 C 551.5,199.5 551.5,200.5 551.5,201.5C 549.015,200.74 549.015,199.74 551.5,198.5 Z"/></g>
<g><path style="opacity:1" fill="#fcc52b" d="M 415.5,203.5 C 420.544,203.173 425.544,203.506 430.5,204.5C 428,204.833 425.5,205.167 423,205.5C 420.071,205.475 417.571,204.809 415.5,203.5 Z"/></g>
<g><path style="opacity:1" fill="#9c7a1a" d="M 527.5,202.5 C 532.167,202.5 536.833,202.5 541.5,202.5C 541.5,203.167 541.5,203.833 541.5,204.5C 536.833,204.5 532.167,204.5 527.5,204.5C 527.5,203.833 527.5,203.167 527.5,202.5 Z"/></g>
<g><path style="opacity:1" fill="#fcc42b" d="M 527.5,204.5 C 532.167,204.5 536.833,204.5 541.5,204.5C 541.833,204.5 542.167,204.5 542.5,204.5C 537.604,206.446 532.271,207.113 526.5,206.5C 526.833,205.833 527.167,205.167 527.5,204.5 Z"/></g>
<g><path style="opacity:1" fill="#21280b" d="M 542.5,204.5 C 543.404,205.209 543.737,206.209 543.5,207.5C 537.642,207.822 531.975,207.489 526.5,206.5C 532.271,207.113 537.604,206.446 542.5,204.5 Z"/></g>
<g><path style="opacity:1" fill="#e2b027" d="M 538.5,212.5 C 537.5,212.5 536.5,212.5 535.5,212.5C 535.5,211.5 535.5,210.5 535.5,209.5C 536.5,209.5 537.5,209.5 538.5,209.5C 538.5,210.5 538.5,211.5 538.5,212.5 Z"/></g>
<g><path style="opacity:1" fill="#301205" d="M 429.5,213.5 C 428.833,213.833 428.167,214.167 427.5,214.5C 427.345,211.147 428.012,210.814 429.5,213.5 Z"/></g>
<g><path style="opacity:1" fill="#636363" d="M 481.5,212.5 C 481.56,211.957 481.893,211.624 482.5,211.5C 484.444,212.189 486.444,212.689 488.5,213C 486.071,213.703 483.738,213.537 481.5,212.5 Z"/></g>
<g><path style="opacity:1" fill="#f10900" d="M 522.5,224.5 C 521.533,225.806 520.199,226.473 518.5,226.5C 519.88,223.375 519.547,220.375 517.5,217.5C 521.308,209.639 523.308,210.473 523.5,220C 523.227,221.533 522.894,223.033 522.5,224.5 Z"/></g>
<g><path style="opacity:1" fill="#e90700" d="M 429.5,213.5 C 430.735,215.017 430.735,216.684 429.5,218.5C 430.383,219.548 431.05,220.715 431.5,222C 430.391,224.047 429.724,226.213 429.5,228.5C 428.5,228.5 427.5,228.5 426.5,228.5C 426.802,225.941 426.468,223.607 425.5,221.5C 425.394,218.921 426.061,216.588 427.5,214.5C 428.167,214.167 428.833,213.833 429.5,213.5 Z"/></g>
<g><path style="opacity:1" fill="#225922" d="M 535.5,212.5 C 536.5,212.5 537.5,212.5 538.5,212.5C 540.452,217.061 542.952,221.395 546,225.5C 546.671,226.252 547.504,226.586 548.5,226.5C 545.976,227.8 543.309,227.8 540.5,226.5C 538.127,222.519 535.793,222.519 533.5,226.5C 531.5,226.5 529.5,226.5 527.5,226.5C 530.567,222.091 533.233,217.424 535.5,212.5 Z"/></g>
<g><path style="opacity:1" fill="#d5b52b" d="M 535.5,212.5 C 533.233,217.424 530.567,222.091 527.5,226.5C 526.833,226.5 526.167,226.5 525.5,226.5C 528.355,221.443 531.688,216.777 535.5,212.5 Z"/></g>
<g><path style="opacity:1" fill="#707070" d="M 469.5,211.5 C 472.747,212.252 476.081,212.752 479.5,213C 476.854,213.497 474.187,213.664 471.5,213.5C 470.93,219.861 470.097,226.195 469,232.5C 468.454,229.145 468.621,225.812 469.5,222.5C 469.333,221.5 469.167,220.5 469,219.5C 468.667,220.833 468.333,222.167 468,223.5C 467.348,220.406 467.682,217.406 469,214.5C 469.556,216.595 470.056,216.762 470.5,215C 470.011,213.862 469.678,212.695 469.5,211.5 Z"/></g>
<g><path style="opacity:1" fill="#eab628" d="M 536.5,218.5 C 539.14,219.794 539.14,221.127 536.5,222.5C 535.374,221.192 535.374,219.858 536.5,218.5 Z"/></g>
<g><path style="opacity:1" fill="#d0b22a" d="M 442.5,214.5 C 442.5,215.167 442.5,215.833 442.5,216.5C 439.833,220.5 437.167,224.5 434.5,228.5C 433.833,228.5 433.167,228.5 432.5,228.5C 435.478,223.531 438.811,218.865 442.5,214.5 Z"/></g>
<g><path style="opacity:1" fill="#f3be29" d="M 442.5,221.5 C 443.5,221.5 444.5,221.5 445.5,221.5C 444.754,225.31 443.754,225.31 442.5,221.5 Z"/></g>
<g><path style="opacity:1" fill="#d7b62b" d="M 447.5,217.5 C 447.833,217.5 448.167,217.5 448.5,217.5C 450.947,220.885 453.28,224.385 455.5,228C 455.167,228.167 454.833,228.333 454.5,228.5C 451.719,225.066 449.386,221.399 447.5,217.5 Z"/></g>
<g><path style="opacity:1" fill="#d9b72b" d="M 538.5,212.5 C 542.189,216.865 545.522,221.531 548.5,226.5C 547.504,226.586 546.671,226.252 546,225.5C 542.952,221.395 540.452,217.061 538.5,212.5 Z"/></g>
<g><path style="opacity:1" fill="#f5c02a" d="M 548.5,226.5 C 551.151,225.51 553.817,224.51 556.5,223.5C 558,223.453 559,224.119 559.5,225.5C 556.833,228.167 554.167,230.833 551.5,233.5C 550.893,233.376 550.56,233.043 550.5,232.5C 552.379,229.885 554.712,227.719 557.5,226C 553.058,225.915 550.058,228.082 548.5,232.5C 547.167,233.167 545.833,233.833 544.5,234.5C 538.441,234.746 532.441,234.413 526.5,233.5C 526.167,232.5 525.5,231.833 524.5,231.5C 524.67,230.178 524.337,229.011 523.5,228C 527.025,227.821 530.359,227.321 533.5,226.5C 535.793,222.519 538.127,222.519 540.5,226.5C 543.309,227.8 545.976,227.8 548.5,226.5 Z"/></g>
<g><path style="opacity:1" fill="#f8c22a" d="M 460.5,226.5 C 461.239,226.369 461.906,226.536 462.5,227C 459.296,230.036 456.296,233.203 453.5,236.5C 453.167,236.5 452.833,236.5 452.5,236.5C 446.824,236.666 441.157,236.499 435.5,236C 434.473,235.487 433.473,234.987 432.5,234.5C 432.262,230.766 431.095,230.1 429,232.5C 427.862,232.011 426.695,231.678 425.5,231.5C 430.251,229.859 435.251,228.859 440.5,228.5C 441.234,227.071 442.401,226.071 444,225.5C 449.206,230.421 454.706,230.754 460.5,226.5 Z"/></g>
<g><path style="opacity:1" fill="#8c7c77" d="M 492.5,209.5 C 491.508,212.822 490.508,216.155 489.5,219.5C 489.077,222.182 490.077,223.348 492.5,223C 495.639,220.502 497.306,217.335 497.5,213.5C 497.279,216.279 497.612,218.946 498.5,221.5C 497.313,223.74 496.646,226.24 496.5,229C 497.374,232.815 497.54,236.649 497,240.5C 496.13,236.176 495.297,231.842 494.5,227.5C 492.012,228.601 490.012,227.934 488.5,225.5C 487.168,219.498 488.501,214.164 492.5,209.5 Z"/></g>
<g><path style="opacity:1" fill="#5b4912" d="M 522.5,224.5 C 522.821,226.048 523.821,226.715 525.5,226.5C 526.167,226.5 526.833,226.5 527.5,226.5C 529.5,226.5 531.5,226.5 533.5,226.5C 530.359,227.321 527.025,227.821 523.5,228C 524.337,229.011 524.67,230.178 524.5,231.5C 523.508,231.672 522.842,231.338 522.5,230.5C 523.55,230.095 523.55,229.429 522.5,228.5C 520.955,227.548 519.288,227.215 517.5,227.5C 517.5,226.833 517.833,226.5 518.5,226.5C 520.199,226.473 521.533,225.806 522.5,224.5 Z"/></g>
<g><path style="opacity:1" fill="#213312" d="M 550.5,232.5 C 549.833,232.5 549.167,232.5 548.5,232.5C 550.058,228.082 553.058,225.915 557.5,226C 554.712,227.719 552.379,229.885 550.5,232.5 Z"/></g>
<g><path style="opacity:1" fill="#f4be2a" d="M 517.5,227.5 C 519.288,227.215 520.955,227.548 522.5,228.5C 523.55,229.429 523.55,230.095 522.5,230.5C 520.326,230.25 518.659,229.25 517.5,227.5 Z"/></g>
<g><path style="opacity:1" fill="#37300e" d="M 425.5,221.5 C 426.468,223.607 426.802,225.941 426.5,228.5C 427.5,228.5 428.5,228.5 429.5,228.5C 430.5,228.5 431.5,228.5 432.5,228.5C 433.167,228.5 433.833,228.5 434.5,228.5C 436.5,228.5 438.5,228.5 440.5,228.5C 435.251,228.859 430.251,229.859 425.5,231.5C 425.151,228.387 425.151,225.054 425.5,221.5 Z"/></g>
<g><path style="opacity:1" fill="#283b1f" d="M 463.5,224.5 C 462.521,234.018 461.187,243.352 459.5,252.5C 459.503,248.476 459.836,244.476 460.5,240.5C 460.276,238.545 459.609,236.879 458.5,235.5C 457.883,235.389 457.383,235.056 457,234.5C 456.184,235.823 455.017,236.489 453.5,236.5C 456.296,233.203 459.296,230.036 462.5,227C 461.906,226.536 461.239,226.369 460.5,226.5C 461.29,225.599 462.29,224.932 463.5,224.5 Z"/></g>
<g><path style="opacity:1" fill="#d7a925" d="M 458.5,235.5 C 458.066,232.834 459.066,231.667 461.5,232C 460.837,233.518 459.837,234.685 458.5,235.5 Z"/></g>
<g><path style="opacity:1" fill="#626262" d="M 466.5,225.5 C 467.152,226.449 467.486,227.615 467.5,229C 466.823,235.15 466.323,241.317 466,247.5C 465.317,240.139 465.483,232.805 466.5,225.5 Z"/></g>
<g><path style="opacity:1" fill="#727272" d="M 488.5,230.5 C 489.117,230.611 489.617,230.944 490,231.5C 490.956,239.178 491.623,246.845 492,254.5C 490.504,246.53 489.337,238.53 488.5,230.5 Z"/></g>
<g><path style="opacity:1" fill="#233b15" d="M 526.5,233.5 C 532.441,234.413 538.441,234.746 544.5,234.5C 544.5,235.167 544.5,235.833 544.5,236.5C 545.404,237.209 545.737,238.209 545.5,239.5C 539.5,239.5 533.5,239.5 527.5,239.5C 527.675,237.379 527.341,235.379 526.5,233.5 Z"/></g>
<g><path style="opacity:1" fill="#e2b027" d="M 544.5,236.5 C 542.257,237.812 539.59,238.478 536.5,238.5C 533.833,238.167 531.167,237.833 528.5,237.5C 528.709,236.914 529.043,236.414 529.5,236C 534.584,235.222 539.584,235.389 544.5,236.5 Z"/></g>
<g><path style="opacity:1" fill="#f5bf2a" d="M 419.5,242.5 C 419.494,239.452 420.494,238.952 422.5,241C 421.756,242.039 420.756,242.539 419.5,242.5 Z"/></g>
<g><path style="opacity:1" fill="#283e15" d="M 432.5,234.5 C 433.473,234.987 434.473,235.487 435.5,236C 441.157,236.499 446.824,236.666 452.5,236.5C 452.5,238.167 452.5,239.833 452.5,241.5C 446.5,241.5 440.5,241.5 434.5,241.5C 434.263,240.209 434.596,239.209 435.5,238.5C 434.211,237.363 433.211,236.03 432.5,234.5 Z"/></g>
<g><path style="opacity:1" fill="#b78f1f" d="M 435.5,238.5 C 435.833,238.5 436.167,238.5 436.5,238.5C 441.305,239.487 446.305,239.821 451.5,239.5C 449.022,240.164 446.355,240.497 443.5,240.5C 440.41,240.478 437.743,239.812 435.5,238.5 Z"/></g>
<g><path style="opacity:1" fill="#fdc62b" d="M 451.5,239.5 C 446.305,239.821 441.305,239.487 436.5,238.5C 440.981,237.352 445.648,237.185 450.5,238C 451.056,238.383 451.389,238.883 451.5,239.5 Z"/></g>
<g><path style="opacity:1" fill="#eab728" d="M 537.5,244.5 C 536.833,244.5 536.167,244.5 535.5,244.5C 536.167,240.5 536.833,240.5 537.5,244.5 Z"/></g>
<g><path style="opacity:1" fill="#ef0900" d="M 406.5,254.5 C 405.844,255.278 405.011,255.944 404,256.5C 403.235,256.43 402.735,256.097 402.5,255.5C 403.826,252.921 403.493,250.421 401.5,248C 405.161,239.324 407.161,239.99 407.5,250C 407.227,251.533 406.894,253.033 406.5,254.5 Z"/></g>
<g><path style="opacity:1" fill="#e40a02" d="M 520.5,242.5 C 521.117,242.611 521.617,242.944 522,243.5C 523.729,247.991 523.562,252.324 521.5,256.5C 520.675,257.386 519.675,257.719 518.5,257.5C 518.681,254.603 518.348,251.77 517.5,249C 518.391,246.721 519.391,244.554 520.5,242.5 Z"/></g>
<g><path style="opacity:1" fill="#ddb82b" d="M 419.5,242.5 C 416.833,247.167 414.167,251.833 411.5,256.5C 410.833,256.5 410.167,256.5 409.5,256.5C 412.355,251.443 415.688,246.777 419.5,242.5 Z"/></g>
<g><path style="opacity:1" fill="#747474" d="M 479.5,220.5 C 480.87,232.037 480.703,243.703 479,255.5C 479.301,243.856 479.468,232.19 479.5,220.5 Z"/></g>
<g><path style="opacity:1" fill="#747474" d="M 497.5,241.5 C 499.185,245.603 500.019,249.936 500,254.5C 498.334,250.337 497.501,246.003 497.5,241.5 Z"/></g>
<g><path style="opacity:1" fill="#f4bf2a" d="M 419.5,249.5 C 422.957,249.667 423.29,250.667 420.5,252.5C 419.614,251.675 419.281,250.675 419.5,249.5 Z"/></g>
<g><path style="opacity:1" fill="#d7b72b" d="M 432.5,256.5 C 428.533,253.687 425.366,250.021 423,245.5C 422.333,244.5 422.333,243.5 423,242.5C 426.388,247.048 429.555,251.714 432.5,256.5 Z"/></g>
<g><path style="opacity:1" fill="#d5b62b" d="M 535.5,244.5 C 532.915,249.091 529.915,253.424 526.5,257.5C 526.167,257.333 525.833,257.167 525.5,257C 528.271,252.237 531.605,248.07 535.5,244.5 Z"/></g>
<g><path style="opacity:1" fill="#dbac26" d="M 535.5,250.5 C 536.995,250.415 537.995,251.081 538.5,252.5C 537.167,253.833 535.833,253.833 534.5,252.5C 534.863,251.817 535.196,251.15 535.5,250.5 Z"/></g>
<g><path style="opacity:1" fill="#f4bf2a" d="M 432.5,256.5 C 435.151,255.51 437.817,254.51 440.5,253.5C 442,253.453 443,254.119 443.5,255.5C 440.833,258.167 438.167,260.833 435.5,263.5C 434.893,263.376 434.56,263.043 434.5,262.5C 436.379,259.885 438.712,257.719 441.5,256C 437.058,255.915 434.058,258.082 432.5,262.5C 431.167,263.167 429.833,263.833 428.5,264.5C 422.833,264.5 417.167,264.5 411.5,264.5C 410.164,262.99 408.997,261.323 408,259.5C 405.586,260.856 403.419,260.522 401.5,258.5C 406.697,258.242 412.03,257.576 417.5,256.5C 419.793,252.519 422.127,252.519 424.5,256.5C 427.309,257.8 429.976,257.8 432.5,256.5 Z"/></g>
<g><path style="opacity:1" fill="#f2be2a" d="M 537.5,244.5 C 541.82,248.506 545.487,253.173 548.5,258.5C 551.498,256.332 554.831,255.332 558.5,255.5C 558.737,256.791 558.404,257.791 557.5,258.5C 557.53,257.503 557.03,256.836 556,256.5C 551.965,258.555 548.799,261.555 546.5,265.5C 545.041,265.433 543.708,265.766 542.5,266.5C 537.105,266.733 531.772,266.4 526.5,265.5C 525.488,264.128 524.488,262.795 523.5,261.5C 523.5,260.5 523.5,259.5 523.5,258.5C 528.63,259.287 532.963,257.954 536.5,254.5C 537.981,255.48 539.315,256.647 540.5,258C 542.5,258.667 544.5,258.667 546.5,258C 543.278,253.618 540.278,249.118 537.5,244.5 Z"/></g>
<g><path style="opacity:1" fill="#463c10" d="M 406.5,254.5 C 406.821,256.048 407.821,256.715 409.5,256.5C 410.167,256.5 410.833,256.5 411.5,256.5C 413.5,256.5 415.5,256.5 417.5,256.5C 412.03,257.576 406.697,258.242 401.5,258.5C 400.285,257.221 400.618,256.221 402.5,255.5C 402.735,256.097 403.235,256.43 404,256.5C 405.011,255.944 405.844,255.278 406.5,254.5 Z"/></g>
<g><path style="opacity:1" fill="#213312" d="M 434.5,262.5 C 433.833,262.5 433.167,262.5 432.5,262.5C 434.058,258.082 437.058,255.915 441.5,256C 438.712,257.719 436.379,259.885 434.5,262.5 Z"/></g>
<g><path style="opacity:1" fill="#898b89" d="M 506.5,256.5 C 507.494,257.999 507.494,259.666 506.5,261.5C 505.232,259.613 503.399,258.613 501,258.5C 497.129,258.893 493.295,259.06 489.5,259C 490.354,257.978 491.354,257.145 492.5,256.5C 495.937,258.078 499.104,257.745 502,255.5C 503.524,258.428 505.024,258.761 506.5,256.5 Z"/></g>
<g><path style="opacity:1" fill="#e9b628" d="M 523.5,261.5 C 521.115,262.668 519.115,262.001 517.5,259.5C 520.257,258.021 522.257,258.687 523.5,261.5 Z"/></g>
<g><path style="opacity:1" fill="#303d14" d="M 557.5,258.5 C 555.973,258.427 554.973,259.094 554.5,260.5C 552.983,260.511 551.816,261.177 551,262.5C 550.472,263.816 550.972,264.483 552.5,264.5C 550.544,264.867 548.544,265.2 546.5,265.5C 548.799,261.555 551.965,258.555 556,256.5C 557.03,256.836 557.53,257.503 557.5,258.5 Z"/></g>
<g><path style="opacity:1" fill="#d7a825" d="M 557.5,258.5 C 557.027,259.906 556.027,260.573 554.5,260.5C 554.973,259.094 555.973,258.427 557.5,258.5 Z"/></g>
<g><path style="opacity:1" fill="#686868" d="M 469.5,259.5 C 471.975,259.564 474.641,259.398 477.5,259C 475.655,260.128 473.655,260.628 471.5,260.5C 471.666,264.514 471.499,268.514 471,272.5C 470.825,267.981 470.325,263.647 469.5,259.5 Z"/></g>
<g><path style="opacity:1" fill="#dcac26" d="M 554.5,260.5 C 553.4,261.605 552.733,262.938 552.5,264.5C 550.972,264.483 550.472,263.816 551,262.5C 551.816,261.177 552.983,260.511 554.5,260.5 Z"/></g>
<g><path style="opacity:1" fill="#3c310c" d="M 411.5,264.5 C 417.167,264.5 422.833,264.5 428.5,264.5C 428.5,265.167 428.5,265.833 428.5,266.5C 428.167,266.5 427.833,266.5 427.5,266.5C 422.6,265.2 417.6,265.2 412.5,266.5C 412.167,265.833 411.833,265.167 411.5,264.5 Z"/></g>
<g><path style="opacity:1" fill="#fec62b" d="M 427.5,266.5 C 422.695,267.487 417.695,267.821 412.5,267.5C 412.5,267.167 412.5,266.833 412.5,266.5C 417.6,265.2 422.6,265.2 427.5,266.5 Z"/></g>
<g><path style="opacity:1" fill="#767676" d="M 497.5,269.5 C 495.912,267.473 495.412,265.139 496,262.5C 496.977,264.74 497.477,267.073 497.5,269.5 Z"/></g>
<g><path style="opacity:1" fill="#a9841d" d="M 427.5,266.5 C 427.833,266.5 428.167,266.5 428.5,266.5C 426.257,267.812 423.59,268.478 420.5,268.5C 417.645,268.497 414.978,268.164 412.5,267.5C 417.695,267.821 422.695,267.487 427.5,266.5 Z"/></g>
<g><path style="opacity:1" fill="#fac32b" d="M 542.5,267.5 C 543.5,267.833 544.167,268.5 544.5,269.5C 539.125,269.828 533.792,269.495 528.5,268.5C 533.12,267.507 537.786,267.173 542.5,267.5 Z"/></g>
<g><path style="opacity:1" fill="#423d10" d="M 526.5,265.5 C 531.772,266.4 537.105,266.733 542.5,266.5C 542.5,266.833 542.5,267.167 542.5,267.5C 537.786,267.173 533.12,267.507 528.5,268.5C 533.792,269.495 539.125,269.828 544.5,269.5C 539.025,270.489 533.358,270.822 527.5,270.5C 527.634,268.708 527.301,267.042 526.5,265.5 Z"/></g>
<g><path style="opacity:1" fill="#797979" d="M 497.5,269.5 C 499.236,272.214 500.07,275.214 500,278.5C 498.451,275.688 497.618,272.688 497.5,269.5 Z"/></g>
<g><path style="opacity:1" fill="#fec72b" d="M 535.5,273.5 C 537.337,273.639 537.67,274.306 536.5,275.5C 535.702,275.043 535.369,274.376 535.5,273.5 Z"/></g>
<g><path style="opacity:1" fill="#e30901" d="M 407.5,287.5 C 406.844,288.278 406.011,288.944 405,289.5C 404.235,289.43 403.735,289.097 403.5,288.5C 403.603,285.781 403.269,283.115 402.5,280.5C 403.649,278.203 404.815,275.87 406,273.5C 407.955,278.016 408.455,282.682 407.5,287.5 Z"/></g>
<g><path style="opacity:1" fill="#ee0900" d="M 522.5,287.5 C 521.844,288.278 521.011,288.944 520,289.5C 519.235,289.43 518.735,289.097 518.5,288.5C 519.124,288.083 519.457,287.416 519.5,286.5C 516.569,281.944 517.236,277.944 521.5,274.5C 523.073,278.812 523.407,283.146 522.5,287.5 Z"/></g>
<g><path style="opacity:1" fill="#d8b72b" d="M 537.5,277.5 C 538.189,276.226 539.023,276.226 540,277.5C 541.944,281.11 544.277,284.443 547,287.5C 547.667,288.167 547.667,288.833 547,289.5C 543.589,285.601 540.422,281.601 537.5,277.5 Z"/></g>
<g><path style="opacity:1" fill="#d3b029" d="M 422.5,275.5 C 418.156,279.525 414.489,284.192 411.5,289.5C 411.167,289.5 410.833,289.5 410.5,289.5C 413.754,283.577 417.421,277.91 421.5,272.5C 422.386,273.325 422.719,274.325 422.5,275.5 Z"/></g>
<g><path style="opacity:1" fill="#525b56" d="M 461.5,285.5 C 462.085,277.228 461.418,269.228 459.5,261.5C 461.91,260.937 464.243,260.437 466.5,260C 465.421,260.956 464.255,261.789 463,262.5C 462.829,270.344 462.329,278.011 461.5,285.5 Z"/></g>
<g><path style="opacity:1" fill="#dead26" d="M 419.5,282.5 C 420.978,282.238 422.311,282.571 423.5,283.5C 421.537,286.194 420.203,285.861 419.5,282.5 Z"/></g>
<g><path style="opacity:1" fill="#eeba29" d="M 535.5,282.5 C 536.5,282.5 537.5,282.5 538.5,282.5C 538.5,283.5 538.5,284.5 538.5,285.5C 537.5,285.5 536.5,285.5 535.5,285.5C 535.5,284.5 535.5,283.5 535.5,282.5 Z"/></g>
<g><path style="opacity:1" fill="#d6b62b" d="M 527.5,289.5 C 526.833,289.5 526.167,289.5 525.5,289.5C 528.085,284.909 531.085,280.576 534.5,276.5C 534.833,276.667 535.167,276.833 535.5,277C 532.583,281.068 529.917,285.234 527.5,289.5 Z"/></g>
<g><path style="opacity:1" fill="#2e4536" d="M 512.5,278.5 C 513.486,282.97 513.819,287.637 513.5,292.5C 512.661,291.359 511.994,290.026 511.5,288.5C 512.417,285.242 512.751,281.909 512.5,278.5 Z"/></g>
<g><path style="opacity:1" fill="#f6c02a" d="M 437.5,293.5 C 438.716,291.549 440.382,290.049 442.5,289C 438.058,288.915 435.058,291.082 433.5,295.5C 432.167,296.167 430.833,296.833 429.5,297.5C 423.833,297.5 418.167,297.5 412.5,297.5C 410.8,295.79 409.467,293.79 408.5,291.5C 411.642,290.833 414.642,290.166 417.5,289.5C 420.136,285.508 422.803,285.674 425.5,290C 426.833,290.167 428.167,290.333 429.5,290.5C 434.175,289.16 438.842,287.827 443.5,286.5C 443.541,290.5 441.541,292.833 437.5,293.5 Z"/></g>
<g><path style="opacity:1" fill="#d3b52b" d="M 422.5,275.5 C 425.888,279.249 429.055,283.249 432,287.5C 432.688,288.332 432.521,288.998 431.5,289.5C 427.98,285.116 424.98,280.45 422.5,275.5 Z"/></g>
<g><path style="opacity:1" fill="#808080" d="M 469.5,280.5 C 470.818,284.741 470.652,289.074 469,293.5C 468.924,289.181 469.091,284.848 469.5,280.5 Z"/></g>
<g><path style="opacity:1" fill="#fac32b" d="M 557.5,290.5 C 557.157,288.775 556.157,288.275 554.5,289C 551.623,291.387 548.956,294.054 546.5,297C 545.552,297.483 544.552,297.649 543.5,297.5C 538.833,297.5 534.167,297.5 529.5,297.5C 526.981,297.152 525.147,295.819 524,293.5C 521.161,294.336 518.995,293.336 517.5,290.5C 519.766,290.141 521.599,290.808 523,292.5C 526.36,290.93 529.86,289.93 533.5,289.5C 535.829,285.612 538.162,285.778 540.5,290C 542,290.167 543.5,290.333 545,290.5C 549.328,289.008 553.828,288.008 558.5,287.5C 558.737,288.791 558.404,289.791 557.5,290.5 Z"/></g>
<g><path style="opacity:1" fill="#8f8f8f" d="M 471.5,274.5 C 472.3,279.17 472.966,284.004 473.5,289C 473.167,289.833 472.833,290.667 472.5,291.5C 471.505,285.872 471.171,280.206 471.5,274.5 Z"/></g>
<g><path style="opacity:1" fill="#2c290d" d="M 522.5,287.5 C 522.821,289.048 523.821,289.715 525.5,289.5C 526.167,289.5 526.833,289.5 527.5,289.5C 529.5,289.5 531.5,289.5 533.5,289.5C 529.86,289.93 526.36,290.93 523,292.5C 521.599,290.808 519.766,290.141 517.5,290.5C 517.328,289.508 517.662,288.842 518.5,288.5C 518.735,289.097 519.235,289.43 520,289.5C 521.011,288.944 521.844,288.278 522.5,287.5 Z"/></g>
<g><path style="opacity:1" fill="#f6c02a" d="M 402.5,291.5 C 403.919,290.549 405.585,290.216 407.5,290.5C 407.737,291.791 407.404,292.791 406.5,293.5C 404.938,293.267 403.605,292.6 402.5,291.5 Z"/></g>
<g><path style="opacity:1" fill="#d1a424" d="M 557.5,290.5 C 557.027,291.906 556.027,292.573 554.5,292.5C 554.973,291.094 555.973,290.427 557.5,290.5 Z"/></g>
<g><path style="opacity:1" fill="#253311" d="M 437.5,293.5 C 436.094,293.973 435.427,294.973 435.5,296.5C 434.833,296.167 434.167,295.833 433.5,295.5C 435.058,291.082 438.058,288.915 442.5,289C 440.382,290.049 438.716,291.549 437.5,293.5 Z"/></g>
<g><path style="opacity:1" fill="#717171" d="M 506.5,294.5 C 504.811,293.069 502.811,292.236 500.5,292C 502.167,291.333 503.833,291.333 505.5,292C 506.252,292.671 506.586,293.504 506.5,294.5 Z"/></g>
<g><path style="opacity:1" fill="#473d11" d="M 407.5,287.5 C 407.821,289.048 408.821,289.715 410.5,289.5C 410.833,289.5 411.167,289.5 411.5,289.5C 413.5,289.5 415.5,289.5 417.5,289.5C 414.642,290.166 411.642,290.833 408.5,291.5C 409.467,293.79 410.8,295.79 412.5,297.5C 410.223,296.551 408.223,295.218 406.5,293.5C 407.404,292.791 407.737,291.791 407.5,290.5C 405.585,290.216 403.919,290.549 402.5,291.5C 401.285,290.221 401.618,289.221 403.5,288.5C 403.735,289.097 404.235,289.43 405,289.5C 406.011,288.944 406.844,288.278 407.5,287.5 Z"/></g>
<g><path style="opacity:1" fill="#e4b328" d="M 437.5,293.5 C 437.715,295.179 437.048,296.179 435.5,296.5C 435.427,294.973 436.094,293.973 437.5,293.5 Z"/></g>
<g><path style="opacity:1" fill="#ddad26" d="M 554.5,292.5 C 553.524,293.815 552.524,295.148 551.5,296.5C 550.738,294.219 551.738,292.886 554.5,292.5 Z"/></g>
<g><path style="opacity:1" fill="#626a65" d="M 513.5,292.5 C 514.461,294.265 514.795,296.265 514.5,298.5C 511.721,298.279 509.054,298.612 506.5,299.5C 506.5,297.833 506.5,296.167 506.5,294.5C 507.991,297.091 510.325,298.091 513.5,297.5C 513.5,295.833 513.5,294.167 513.5,292.5 Z"/></g>
<g><path style="opacity:1" fill="#282319" d="M 493.5,373.5 C 523.584,368.291 550.251,355.791 573.5,336C 580.197,328.968 587.197,322.302 594.5,316C 590.215,311.26 586.048,306.427 582,301.5C 580.155,299.913 578.155,298.579 576,297.5C 573.61,298.278 571.443,299.445 569.5,301C 539.693,335.827 502.026,350.16 456.5,344C 429.849,335.009 407.182,320.009 388.5,299C 386.635,297.699 384.635,297.365 382.5,298C 377.875,304.959 372.208,310.959 365.5,316C 387.935,339.755 414.602,357.088 445.5,368C 453.563,370.175 461.563,372.009 469.5,373.5C 447.183,371.179 426.516,364.012 407.5,352C 398.147,345.99 389.147,339.49 380.5,332.5C 378.35,334.149 376.35,335.982 374.5,338C 370.075,340.183 366.075,339.516 362.5,336C 358.827,332.501 356.993,328.334 357,323.5C 360.124,318.342 364.29,314.176 369.5,311C 374.249,306.922 378.249,302.255 381.5,297C 385.71,295.98 389.377,296.98 392.5,300C 440.617,353.29 493.95,358.957 552.5,317C 558.887,310.613 565.221,304.279 571.5,298C 574.5,296 577.5,296 580.5,298C 584.119,302.074 587.619,306.241 591,310.5C 594.855,314.082 598.855,317.415 603,320.5C 604.543,332.956 599.043,339.123 586.5,339C 584.586,336.383 582.586,333.883 580.5,331.5C 561.457,349.196 539.457,362.029 514.5,370C 507.651,372.137 500.651,373.303 493.5,373.5 Z"/></g>
<g><path style="opacity:1" fill="#d3a524" d="M 587.5,323.5 C 588.473,323.987 589.473,324.487 590.5,325C 587.244,326.587 585.077,329.087 584,332.5C 583.167,331.667 582.333,330.833 581.5,330C 583.706,327.963 585.706,325.797 587.5,323.5 Z"/></g>
<g><path style="opacity:1" fill="#ebb728" d="M 371.5,323.5 C 374.719,325.528 376.886,328.195 378,331.5C 375.78,328.979 373.28,326.812 370.5,325C 371.056,324.617 371.389,324.117 371.5,323.5 Z"/></g>
<g><path style="opacity:1" fill="#f6c02a" d="M 594.5,317.5 C 602.407,318.819 604.574,323.152 601,330.5C 597.684,335.942 592.851,338.109 586.5,337C 584.58,330.879 586.913,327.212 593.5,326C 592.315,324.647 590.981,323.48 589.5,322.5C 590.882,320.451 592.548,318.785 594.5,317.5 Z"/></g>
<g><path style="opacity:1" fill="#f7c12a" d="M 361.5,318.5 C 366.324,317.37 369.158,319.037 370,323.5C 368.745,324.211 367.579,325.044 366.5,326C 369.656,326.937 372.489,328.437 375,330.5C 376.033,335.799 373.866,338.299 368.5,338C 363.092,335.432 359.759,331.266 358.5,325.5C 358.695,322.782 359.695,320.449 361.5,318.5 Z"/></g>
<g><path style="opacity:1" fill="#f6c02a" d="M 493.5,373.5 C 485.5,373.5 477.5,373.5 469.5,373.5C 461.563,372.009 453.563,370.175 445.5,368C 414.602,357.088 387.935,339.755 365.5,316C 372.208,310.959 377.875,304.959 382.5,298C 384.635,297.365 386.635,297.699 388.5,299C 407.182,320.009 429.849,335.009 456.5,344C 502.026,350.16 539.693,335.827 569.5,301C 571.443,299.445 573.61,298.278 576,297.5C 578.155,298.579 580.155,299.913 582,301.5C 586.048,306.427 590.215,311.26 594.5,316C 587.197,322.302 580.197,328.968 573.5,336C 550.251,355.791 523.584,368.291 493.5,373.5 Z"/></g>
<g><path style="opacity:1" fill="#31270e" d="M 563.5,338.5 C 565.92,336.08 567.087,333.08 567,329.5C 570.222,333.87 569.056,336.87 563.5,338.5 Z"/></g>
<g><path style="opacity:1" fill="#33280e" d="M 409.5,331.5 C 410.456,330.341 411.456,329.174 412.5,328C 411.709,326.899 411.709,326.066 412.5,325.5C 413.981,326.48 415.315,327.647 416.5,329C 414.146,329.847 411.812,330.68 409.5,331.5 Z"/></g>
<g><path style="opacity:1" fill="#140f03" d="M 553.5,322.5 C 551.501,325.871 552.334,328.871 556,331.5C 557.117,330.051 557.784,328.384 558,326.5C 559.046,328.09 560.213,329.59 561.5,331C 560.207,331.49 558.873,331.657 557.5,331.5C 557.9,335.347 559.9,337.68 563.5,338.5C 562.086,340.054 560.419,341.388 558.5,342.5C 555.757,339.346 553.257,336.012 551,332.5C 549.457,330.622 547.624,329.122 545.5,328C 548.065,325.92 550.732,324.087 553.5,322.5 Z"/></g>
<g><path style="opacity:1" fill="#28200b" d="M 553.5,322.5 C 555.314,319.546 557.314,319.212 559.5,321.5C 557.604,322.466 555.604,322.799 553.5,322.5 Z"/></g>
<g><path style="opacity:1" fill="#1c1507" d="M 409.5,331.5 C 405.483,334.267 401.316,336.934 397,339.5C 398.299,332.236 399.632,324.903 401,317.5C 402.635,318.726 404.135,320.059 405.5,321.5C 403.705,325.697 402.872,330.031 403,334.5C 404.993,333.086 407.16,332.086 409.5,331.5 Z"/></g>
<g><path style="opacity:1" fill="#c89d24" d="M 502.5,305.5 C 500.652,311.021 497.985,311.687 494.5,307.5C 495.416,307.982 496.416,308.315 497.5,308.5C 499.184,307.473 500.851,306.473 502.5,305.5 Z"/></g>
<g><path style="opacity:1" fill="#ecb829" d="M 463.5,306.5 C 464.833,306.5 466.167,306.5 467.5,306.5C 466.201,308.099 464.535,308.599 462.5,308C 463.056,307.617 463.389,307.117 463.5,306.5 Z"/></g>
<g><path style="opacity:1" fill="#545338" d="M 496.5,301.5 C 494.164,302.296 492.831,303.962 492.5,306.5C 490.307,305.105 487.974,304.105 485.5,303.5C 487.857,303.663 490.19,303.497 492.5,303C 491.289,302.107 491.289,301.274 492.5,300.5C 493.736,301.246 495.07,301.579 496.5,301.5 Z"/></g>
<g><path style="opacity:1" fill="#5d4e36" d="M 479.5,303.5 C 477.5,303.5 475.5,303.5 473.5,303.5C 471.184,302.64 468.851,302.14 466.5,302C 465.833,302.333 465.167,302.667 464.5,303C 466.063,303.759 467.063,304.926 467.5,306.5C 466.167,306.5 464.833,306.5 463.5,306.5C 461.023,305.88 461.023,304.88 463.5,303.5C 462.051,302.828 460.718,302.161 459.5,301.5C 463.897,301.257 468.23,300.59 472.5,299.5C 475.818,299.159 478.152,300.492 479.5,303.5 Z"/></g>
<g><path style="opacity:1" fill="#d9aa2b" d="M 497.5,300.5 C 498.239,300.369 498.906,300.536 499.5,301C 497.258,302.77 495.592,304.937 494.5,307.5C 493.833,307.167 493.167,306.833 492.5,306.5C 492.831,303.962 494.164,302.296 496.5,301.5C 496.5,300.833 496.833,300.5 497.5,300.5 Z"/></g>
<g><path style="opacity:1" fill="#8e6e4d" d="M 497.5,300.5 C 499.265,299.539 501.265,299.205 503.5,299.5C 504.846,301.792 504.512,303.792 502.5,305.5C 500.851,306.473 499.184,307.473 497.5,308.5C 496.416,308.315 495.416,307.982 494.5,307.5C 495.592,304.937 497.258,302.77 499.5,301C 498.906,300.536 498.239,300.369 497.5,300.5 Z"/></g>
<g><path style="opacity:1" fill="#1c280c" d="M 528.5,299.5 C 530.743,300.812 533.41,301.478 536.5,301.5C 539.355,301.497 542.022,301.164 544.5,300.5C 545.043,300.56 545.376,300.893 545.5,301.5C 539.537,302.496 533.537,302.829 527.5,302.5C 527.263,301.209 527.596,300.209 528.5,299.5 Z"/></g>
<g><path style="opacity:1" fill="#f0bb29" d="M 473.5,303.5 C 471.819,305.008 469.819,306.008 467.5,306.5C 467.063,304.926 466.063,303.759 464.5,303C 465.167,302.667 465.833,302.333 466.5,302C 468.851,302.14 471.184,302.64 473.5,303.5 Z"/></g>
<g><path style="opacity:1" fill="#2c4232" d="M 485.5,303.5 C 484.778,303.082 484.278,302.416 484,301.5C 483.184,302.823 482.017,303.489 480.5,303.5C 483.018,301.643 483.018,299.81 480.5,298C 484.32,297.658 485.986,299.491 485.5,303.5 Z"/></g>
<g><path style="opacity:1" fill="#fcc52b" d="M 528.5,299.5 C 528.833,299.5 529.167,299.5 529.5,299.5C 534.167,299.5 538.833,299.5 543.5,299.5C 543.5,300.167 543.833,300.5 544.5,300.5C 542.022,301.164 539.355,301.497 536.5,301.5C 533.41,301.478 530.743,300.812 528.5,299.5 Z"/></g>
<g><path style="opacity:1" fill="#19116f" d="M 396.5,297.5 C 416.483,314.272 438.483,328.106 462.5,339C 458.404,339.198 454.404,338.531 450.5,337C 428.94,328.579 410.606,315.746 395.5,298.5C 396.167,298.5 396.5,298.167 396.5,297.5 Z"/></g>
<g><path style="opacity:1" fill="#9b791a" d="M 529.5,297.5 C 534.167,297.5 538.833,297.5 543.5,297.5C 543.5,298.167 543.5,298.833 543.5,299.5C 538.833,299.5 534.167,299.5 529.5,299.5C 529.5,298.833 529.5,298.167 529.5,297.5 Z"/></g>
<g><path style="opacity:1" fill="#483c0f" d="M 412.5,297.5 C 418.167,297.5 423.833,297.5 429.5,297.5C 429.768,299.099 429.434,300.432 428.5,301.5C 428.5,300.5 428.5,299.5 428.5,298.5C 423.5,298.5 418.5,298.5 413.5,298.5C 413.5,299.5 413.5,300.5 413.5,301.5C 412.566,300.432 412.232,299.099 412.5,297.5 Z"/></g>
<g><path style="opacity:1" fill="#eab628" d="M 428.5,301.5 C 423.5,301.5 418.5,301.5 413.5,301.5C 413.5,300.5 413.5,299.5 413.5,298.5C 418.5,298.5 423.5,298.5 428.5,298.5C 428.5,299.5 428.5,300.5 428.5,301.5 Z"/></g>
<g><path style="opacity:1" fill="#151004" d="M 422.5,333.5 C 422.56,332.957 422.893,332.624 423.5,332.5C 425.336,333.919 427.336,335.086 429.5,336C 425.973,341.518 422.473,347.018 419,352.5C 417.274,352.054 415.774,351.221 414.5,350C 417.939,346.304 420.772,342.137 423,337.5C 423.765,335.934 423.598,334.601 422.5,333.5 Z"/></g>
<g><path style="opacity:1" fill="#140f04" d="M 528.5,338.5 C 531.531,336.165 534.865,334.165 538.5,332.5C 540.354,333.176 540.687,334.176 539.5,335.5C 537.378,334.218 535.711,334.718 534.5,337C 536.99,342.315 539.99,347.315 543.5,352C 541.783,353.559 539.783,354.392 537.5,354.5C 535.681,349.321 533.348,344.321 530.5,339.5C 530.043,338.702 529.376,338.369 528.5,338.5 Z"/></g>
<g><path style="opacity:1" fill="#281f0a" d="M 528.5,338.5 C 527.069,340.189 526.236,342.189 526,344.5C 522.536,341.071 523.37,339.071 528.5,338.5 Z"/></g>
<g><path style="opacity:1" fill="#30260d" d="M 439.5,343.5 C 445.311,341.822 450.311,343.322 454.5,348C 453.521,353.436 452.688,353.602 452,348.5C 450.285,345.603 447.785,344.269 444.5,344.5C 443.081,343.549 441.415,343.216 439.5,343.5 Z"/></g>
<g><path style="opacity:1" fill="#0b0701" d="M 439.5,343.5 C 441.415,343.216 443.081,343.549 444.5,344.5C 437.804,348.595 436.137,354.262 439.5,361.5C 433.936,358.936 432.102,354.603 434,348.5C 435.055,345.944 436.888,344.277 439.5,343.5 Z"/></g>
<g><path style="opacity:1" fill="#140f04" d="M 515.5,359.5 C 515.158,358.662 514.492,358.328 513.5,358.5C 512.925,356.589 511.925,354.922 510.5,353.5C 509.449,352.778 508.782,351.778 508.5,350.5C 508.215,348.712 508.548,347.045 509.5,345.5C 513.432,350.355 517.599,355.022 522,359.5C 522.483,360.448 522.649,361.448 522.5,362.5C 521.07,362.421 519.736,362.754 518.5,363.5C 517.476,362.148 516.476,360.815 515.5,359.5 Z"/></g>
<g><path style="opacity:1" fill="#130e04" d="M 463.5,349.5 C 465.503,348.468 467.503,348.802 469.5,350.5C 467.557,356.294 466.89,362.127 467.5,368C 465.512,368.18 463.512,368.014 461.5,367.5C 462.221,361.783 463.221,356.116 464.5,350.5C 464.376,349.893 464.043,349.56 463.5,349.5 Z"/></g>
<g><path style="opacity:1" fill="#644e11" d="M 484.5,350.5 C 482.585,350.216 480.919,350.549 479.5,351.5C 478.711,351.217 478.044,350.717 477.5,350C 482.288,348.99 484.621,349.157 484.5,350.5 Z"/></g>
<g><path style="opacity:1" fill="#110d03" d="M 484.5,350.5 C 484.178,356.358 484.511,362.025 485.5,367.5C 487.167,368.167 488.833,368.833 490.5,369.5C 486.818,369.665 483.152,369.499 479.5,369C 480.294,363.241 480.294,357.407 479.5,351.5C 480.919,350.549 482.585,350.216 484.5,350.5 Z"/></g>
<g><path style="opacity:1" fill="#eeb929" d="M 510.5,353.5 C 511.925,354.922 512.925,356.589 513.5,358.5C 508.012,360.116 507.012,358.45 510.5,353.5 Z"/></g>
<g><path style="opacity:1" fill="#1a1406" d="M 439.5,361.5 C 440.93,361.421 442.264,361.754 443.5,362.5C 445.499,360.22 446.499,357.886 446.5,355.5C 448.385,356.609 450.385,357.443 452.5,358C 450.329,359.174 449.329,361.007 449.5,363.5C 446.482,363.665 443.482,363.498 440.5,363C 439.944,362.617 439.611,362.117 439.5,361.5 Z"/></g>
<g><path style="opacity:1" fill="#4e3d11" d="M 508.5,350.5 C 508.782,351.778 509.449,352.778 510.5,353.5C 507.012,358.45 508.012,360.116 513.5,358.5C 514.492,358.328 515.158,358.662 515.5,359.5C 509.703,358.52 507.703,360.687 509.5,366C 507.835,366.788 506.169,367.122 504.5,367C 505,366.5 505.5,366 506,365.5C 506.732,360.339 507.566,355.339 508.5,350.5 Z"/></g>
<g><path style="opacity:1" fill="#130e03" d="M 495.5,368.5 C 493.901,368.768 492.568,368.434 491.5,367.5C 493.61,366.547 494.777,364.881 495,362.5C 495.495,364.473 495.662,366.473 495.5,368.5 Z"/></g>
<g><path style="opacity:1" fill="#806416" d="M 485.5,367.5 C 487.5,367.5 489.5,367.5 491.5,367.5C 492.568,368.434 493.901,368.768 495.5,368.5C 494.081,369.451 492.415,369.784 490.5,369.5C 488.833,368.833 487.167,368.167 485.5,367.5 Z"/></g>
</svg>
