<?xml version="1.0" encoding="UTF-8"?>
<!DOCTYPE svg PUBLIC "-//W3C//DTD SVG 1.1//EN" "http://www.w3.org/Graphics/SVG/1.1/DTD/svg11.dtd">
<svg xmlns="http://www.w3.org/2000/svg" version="1.1" width="640px" height="480px" style="shape-rendering:geometricPrecision; text-rendering:geometricPrecision; image-rendering:optimizeQuality; fill-rule:evenodd; clip-rule:evenodd" xmlns:xlink="http://www.w3.org/1999/xlink">
<g><path style="opacity:1" fill="#f7e017" d="M -0.5,-0.5 C 212.833,-0.5 426.167,-0.5 639.5,-0.5C 639.5,77.1667 639.5,154.833 639.5,232.5C 539.221,201.296 438.888,170.296 338.5,139.5C 338.657,138.127 338.49,136.793 338,135.5C 334.89,136.673 334.723,136.173 337.5,134C 334.124,132.101 330.457,131.268 326.5,131.5C 325.791,130.596 324.791,130.263 323.5,130.5C 323.5,127.167 323.5,123.833 323.5,120.5C 328.144,122.665 332.811,124.499 337.5,126C 334.593,122.849 331.926,119.516 329.5,116C 332.833,114.667 336.167,113.333 339.5,112C 334.167,109 328.833,106 323.5,103C 326.167,101.667 326.167,100.333 323.5,99C 320.672,98.0306 318.338,98.6972 316.5,101C 317,101.5 317.5,102 318,102.5C 318.5,112.494 318.666,122.494 318.5,132.5C 318.167,132.5 317.833,132.5 317.5,132.5C 316.432,131.566 315.099,131.232 313.5,131.5C 209.111,98.2611 104.444,65.5944 -0.5,33.5C -0.5,22.1667 -0.5,10.8333 -0.5,-0.5 Z"/></g>
<g><path style="opacity:1" fill="#ea9e1b" d="M 323.5,120.5 C 323.5,123.833 323.5,127.167 323.5,130.5C 324.791,130.263 325.791,130.596 326.5,131.5C 324.876,131.36 323.71,132.027 323,133.5C 322.19,128.403 322.357,124.069 323.5,120.5 Z"/></g>
<g><path style="opacity:1" fill="#d01e2a" d="M 323.5,120.5 C 322.357,124.069 322.19,128.403 323,133.5C 323.71,132.027 324.876,131.36 326.5,131.5C 330.457,131.268 334.124,132.101 337.5,134C 334.723,136.173 334.89,136.673 338,135.5C 338.49,136.793 338.657,138.127 338.5,139.5C 339.88,145.468 341.713,151.135 344,156.5C 341.636,154.637 339.136,152.971 336.5,151.5C 335.185,153.316 333.685,154.983 332,156.5C 330,154.5 328,152.5 326,150.5C 324.316,152.351 322.483,154.018 320.5,155.5C 318.517,154.018 316.684,152.351 315,150.5C 313.316,152.351 311.483,154.018 309.5,155.5C 307.517,154.018 305.684,152.351 304,150.5C 302,152.5 300,154.5 298,156.5C 300.329,150.123 301.829,143.456 302.5,136.5C 312.608,141.174 322.942,141.674 333.5,138C 325.864,138.478 318.197,138.478 310.5,138C 308.146,137.153 305.812,136.32 303.5,135.5C 305.813,132.083 309.146,130.749 313.5,131.5C 315.099,131.232 316.432,131.566 317.5,132.5C 317.5,133.833 317.5,135.167 317.5,136.5C 320.073,136.852 322.406,136.352 324.5,135C 321.949,134.998 319.949,134.164 318.5,132.5C 318.666,122.494 318.5,112.494 318,102.5C 317.5,102 317,101.5 316.5,101C 318.338,98.6972 320.672,98.0306 323.5,99C 326.167,100.333 326.167,101.667 323.5,103C 328.833,106 334.167,109 339.5,112C 336.167,113.333 332.833,114.667 329.5,116C 331.926,119.516 334.593,122.849 337.5,126C 332.811,124.499 328.144,122.665 323.5,120.5 Z"/></g>
<g><path style="opacity:1" fill="#ea8c95" d="M 317.5,132.5 C 317.833,132.5 318.167,132.5 318.5,132.5C 319.949,134.164 321.949,134.998 324.5,135C 322.406,136.352 320.073,136.852 317.5,136.5C 317.5,135.167 317.5,133.833 317.5,132.5 Z"/></g>
<g><path style="opacity:1" fill="#eea2a9" d="M 302.5,136.5 C 302.5,135.833 302.833,135.5 303.5,135.5C 305.812,136.32 308.146,137.153 310.5,138C 318.197,138.478 325.864,138.478 333.5,138C 322.942,141.674 312.608,141.174 302.5,136.5 Z"/></g>
<g><path style="opacity:1" fill="#fefdfd" d="M -0.5,33.5 C 104.444,65.5944 209.111,98.2611 313.5,131.5C 309.146,130.749 305.813,132.083 303.5,135.5C 302.833,135.5 302.5,135.833 302.5,136.5C 301.829,143.456 300.329,150.123 298,156.5C 300,154.5 302,152.5 304,150.5C 305.684,152.351 307.517,154.018 309.5,155.5C 311.483,154.018 313.316,152.351 315,150.5C 316.684,152.351 318.517,154.018 320.5,155.5C 322.483,154.018 324.316,152.351 326,150.5C 328,152.5 330,154.5 332,156.5C 333.685,154.983 335.185,153.316 336.5,151.5C 339.136,152.971 341.636,154.637 344,156.5C 341.713,151.135 339.88,145.468 338.5,139.5C 438.888,170.296 539.221,201.296 639.5,232.5C 639.5,270.5 639.5,308.5 639.5,346.5C 577.576,326.97 515.576,307.637 453.5,288.5C 453.097,277.769 453.597,267.102 455,256.5C 460.977,250.855 466.643,244.855 472,238.5C 477.196,226.658 479.362,214.324 478.5,201.5C 476.389,202.605 475.055,204.271 474.5,206.5C 473.833,206.5 473.5,206.167 473.5,205.5C 473.5,204.5 473.5,203.5 473.5,202.5C 470.298,202.537 468.632,204.203 468.5,207.5C 467.833,207.5 467.5,207.167 467.5,206.5C 466.335,203.978 465.002,203.978 463.5,206.5C 462.833,206.167 462.167,205.833 461.5,205.5C 460.12,204.294 458.953,204.627 458,206.5C 457.187,208.436 456.687,210.436 456.5,212.5C 455.532,214.607 455.198,216.941 455.5,219.5C 454.448,219.351 453.448,219.517 452.5,220C 445.309,228.189 437.809,236.023 430,243.5C 429.5,255.829 429.333,268.162 429.5,280.5C 423.215,279.072 417.215,277.072 411.5,274.5C 412.97,261.149 412.804,247.815 411,234.5C 408.135,221.434 402.135,210.101 393,200.5C 401.396,223.037 401.563,245.704 393.5,268.5C 372.32,262.773 351.32,256.44 330.5,249.5C 329.766,243.366 328.433,237.366 326.5,231.5C 327.367,226.781 329.034,222.447 331.5,218.5C 327.975,218.346 325.141,219.679 323,222.5C 320.819,214.659 318.653,214.659 316.5,222.5C 314.105,219.631 311.105,218.464 307.5,219C 314.386,226.334 315.386,234.5 310.5,243.5C 286.833,236.167 263.167,228.833 239.5,221.5C 240.661,214.535 242.494,207.869 245,201.5C 240.154,206.848 236.32,212.848 233.5,219.5C 155.516,195.17 77.5164,170.836 -0.5,146.5C -0.5,108.833 -0.5,71.1667 -0.5,33.5 Z"/></g>
<g><path style="opacity:1" fill="#010000" d="M -0.5,146.5 C 77.5164,170.836 155.516,195.17 233.5,219.5C 226.102,237.961 224.602,256.961 229,276.5C 230.638,283.593 233.138,290.259 236.5,296.5C 238.021,300.559 239.854,304.559 242,308.5C 246.333,314.33 250.833,319.996 255.5,325.5C 254.5,325.5 253.5,325.5 252.5,325.5C 250.036,323.43 247.369,321.596 244.5,320C 241.739,319.278 239.073,319.445 236.5,320.5C 229.251,318.196 221.917,315.863 214.5,313.5C 214.167,313.5 213.833,313.5 213.5,313.5C 212.791,312.596 211.791,312.263 210.5,312.5C 212.081,310.858 212.747,308.858 212.5,306.5C 208.5,307.5 204.5,308.5 200.5,309.5C 200.5,309.167 200.5,308.833 200.5,308.5C 202.767,307.577 205.1,306.744 207.5,306C 209.607,304.736 210.607,302.903 210.5,300.5C 209.167,300.5 207.833,300.5 206.5,300.5C 203.777,302.573 200.61,303.573 197,303.5C 192.735,303.038 188.735,301.704 185,299.5C 182.98,300.032 182.147,301.365 182.5,303.5C 121.561,284.298 60.5609,265.298 -0.5,246.5C -0.5,213.167 -0.5,179.833 -0.5,146.5 Z"/></g>
<g><path style="opacity:1" fill="#d01829" d="M 317.5,155.5 C 319.357,158.018 321.19,158.018 323,155.5C 323.333,160.5 323.667,165.5 324,170.5C 325.892,166.942 328.725,164.442 332.5,163C 346.818,160.079 359.484,163.413 370.5,173C 380.762,179.096 391.762,181.096 403.5,179C 400.636,185.706 395.636,189.539 388.5,190.5C 379.866,187.338 371.2,184.505 362.5,182C 362.167,182.333 361.833,182.667 361.5,183C 370.181,186.009 378.847,189.009 387.5,192C 388.041,194.865 386.707,196.865 383.5,198C 380.833,198.667 378.167,198.667 375.5,198C 369.263,193.081 362.263,189.581 354.5,187.5C 353.226,188.359 353.392,189.026 355,189.5C 362.898,191.191 369.398,195.024 374.5,201C 374.18,202.653 373.18,203.653 371.5,204C 368.5,204.667 365.5,204.667 362.5,204C 358.217,201.385 354.217,198.385 350.5,195C 348.35,193.41 346.017,192.743 343.5,193C 349.276,196.444 354.776,200.277 360,204.5C 360.561,207.298 359.394,209.131 356.5,210C 352.091,210.805 348.091,209.805 344.5,207C 339.699,203.201 335.199,199.034 331,194.5C 330.655,196.201 331.322,197.534 333,198.5C 334.856,203.735 333.022,206.401 327.5,206.5C 330.581,211.414 329.581,215.414 324.5,218.5C 321.448,213.191 318.448,213.191 315.5,218.5C 310.412,215.48 309.412,211.48 312.5,206.5C 305.157,204.279 304.49,200.446 310.5,195C 310.167,194.833 309.833,194.667 309.5,194.5C 305.015,198.485 300.682,202.651 296.5,207C 292.211,209.877 287.544,210.877 282.5,210C 280.671,208.887 279.837,207.387 280,205.5C 285.051,200.726 290.551,196.56 296.5,193C 294.402,193.032 292.402,193.699 290.5,195C 286.833,198 283.167,201 279.5,204C 275.928,205.405 272.261,205.738 268.5,205C 265.27,203.276 264.936,201.276 267.5,199C 273.372,194.149 280.038,190.816 287.5,189C 284.743,188.416 282.077,188.75 279.5,190C 274.508,192.161 269.841,194.828 265.5,198C 259.516,200.9 254.849,199.567 251.5,194C 260.386,190.057 269.386,186.39 278.5,183C 276.833,182.333 275.167,182.333 273.5,183C 268.167,185.333 262.833,187.667 257.5,190C 247.746,192.788 240.746,189.621 236.5,180.5C 247.745,182.029 258.412,179.863 268.5,174C 281.048,162.614 295.382,159.614 311.5,165C 313.241,166.62 315.075,168.12 317,169.5C 317.499,164.845 317.666,160.179 317.5,155.5 Z"/></g>
<g><path style="opacity:1" fill="#c91025" d="M 164.5,206.5 C 165.252,209.747 165.752,213.081 166,216.5C 169.673,220.847 172.006,225.847 173,231.5C 178.512,235.257 183.846,239.257 189,243.5C 189.017,235.872 186.517,229.205 181.5,223.5C 181.5,222.167 181.5,220.833 181.5,219.5C 183.199,219.34 184.866,219.506 186.5,220C 193.691,228.189 201.191,236.023 209,243.5C 209.667,261.833 209.667,280.167 209,298.5C 208.005,299.066 207.172,299.733 206.5,300.5C 198.823,302.685 191.656,301.685 185,297.5C 184.667,283.833 184.333,270.167 184,256.5C 179.086,251.517 174.086,246.517 169,241.5C 162.055,229.062 159.222,215.728 160.5,201.5C 162.611,202.605 163.945,204.271 164.5,206.5 Z"/></g>
<g><path style="opacity:1" fill="#bf0f23" d="M 173.5,217.5 C 175.748,221.666 177.748,226 179.5,230.5C 183.308,231.884 185.975,234.384 187.5,238C 187.333,238.5 187.167,239 187,239.5C 183,236.833 179,234.167 175,231.5C 173.393,225.619 170.726,220.286 167,215.5C 166.819,212.305 166.319,209.305 165.5,206.5C 165.5,205.167 165.5,203.833 165.5,202.5C 167.39,202.297 168.89,202.963 170,204.5C 170.439,209.283 171.605,213.617 173.5,217.5 Z"/></g>
<g><path style="opacity:1" fill="#d12330" d="M 473.5,205.5 C 471.941,208.868 471.108,212.535 471,216.5C 467.858,221.118 465.524,226.118 464,231.5C 460.499,233.488 457.332,235.822 454.5,238.5C 453.504,238.414 452.671,238.748 452,239.5C 451.464,237.433 451.964,235.599 453.5,234C 455.37,232.634 457.37,231.467 459.5,230.5C 460.973,225.55 463.473,221.217 467,217.5C 467.339,214.12 467.839,210.787 468.5,207.5C 468.632,204.203 470.298,202.537 473.5,202.5C 473.5,203.5 473.5,204.5 473.5,205.5 Z"/></g>
<g><path style="opacity:1" fill="#cf1729" d="M 453.5,288.5 C 455.266,295.815 452.599,299.982 445.5,301C 441.129,301.629 436.796,301.463 432.5,300.5C 431.828,299.733 430.995,299.066 430,298.5C 429.501,292.509 429.334,286.509 429.5,280.5C 429.333,268.162 429.5,255.829 430,243.5C 437.809,236.023 445.309,228.189 452.5,220C 453.448,219.517 454.448,219.351 455.5,219.5C 456.497,219.47 457.164,219.97 457.5,221C 454.008,227.321 451.341,233.987 449.5,241C 449.833,241.833 450.167,242.667 450.5,243.5C 451.857,241.814 453.19,240.148 454.5,238.5C 462.252,236.916 466.752,232.249 468,224.5C 469.271,221.567 470.938,218.901 473,216.5C 473.248,213.081 473.748,209.747 474.5,206.5C 475.055,204.271 476.389,202.605 478.5,201.5C 479.362,214.324 477.196,226.658 472,238.5C 466.643,244.855 460.977,250.855 455,256.5C 453.597,267.102 453.097,277.769 453.5,288.5 Z"/></g>
<g><path style="opacity:1" fill="#d22331" d="M 467.5,206.5 C 466.679,209.641 466.179,212.975 466,216.5C 462.581,220.331 459.914,224.665 458,229.5C 457,230.167 456,230.833 455,231.5C 456.665,227.16 458.665,222.826 461,218.5C 461.074,214.278 461.908,210.278 463.5,206.5C 465.002,203.978 466.335,203.978 467.5,206.5 Z"/></g>
<g><path style="opacity:1" fill="#b30f21" d="M 181.5,223.5 C 181.673,226.179 182.673,228.513 184.5,230.5C 184.333,230.833 184.167,231.167 184,231.5C 180.368,228.263 177.701,224.263 176,219.5C 175.292,218.619 174.458,217.953 173.5,217.5C 172.834,213.53 172.168,209.53 171.5,205.5C 171.808,204.692 172.308,204.025 173,203.5C 176.618,207.012 178.285,211.345 178,216.5C 178.703,213.287 178.536,210.121 177.5,207C 178.254,203.912 179.42,203.746 181,206.5C 182.772,210.313 183.605,214.313 183.5,218.5C 182.178,218.33 181.011,218.663 180,219.5C 178.753,217.119 178.42,217.453 179,220.5C 179.852,221.571 180.685,222.571 181.5,223.5 Z"/></g>
<g><path style="opacity:1" fill="#d22431" d="M 461.5,205.5 C 460.051,210.028 459.217,214.695 459,219.5C 456.863,217.679 456.03,215.346 456.5,212.5C 456.687,210.436 457.187,208.436 458,206.5C 458.953,204.627 460.12,204.294 461.5,205.5 Z"/></g>
<g><path style="opacity:1" fill="#cd1a26" d="M 411.5,274.5 C 400.652,317.687 373.318,342.687 329.5,349.5C 308.727,351.912 289.393,347.746 271.5,337C 266.265,332.916 260.931,329.083 255.5,325.5C 250.833,319.996 246.333,314.33 242,308.5C 239.854,304.559 238.021,300.559 236.5,296.5C 233.138,290.259 230.638,283.593 229,276.5C 224.602,256.961 226.102,237.961 233.5,219.5C 236.32,212.848 240.154,206.848 245,201.5C 242.494,207.869 240.661,214.535 239.5,221.5C 235.494,265.652 253.827,296.486 294.5,314C 319.284,321.507 342.618,318.174 364.5,304C 377.285,294.715 386.952,282.881 393.5,268.5C 401.563,245.704 401.396,223.037 393,200.5C 402.135,210.101 408.135,221.434 411,234.5C 412.804,247.815 412.97,261.149 411.5,274.5 Z"/></g>
<g><path style="opacity:1" fill="#cd1a29" d="M 330.5,249.5 C 330.704,253.22 329.704,256.553 327.5,259.5C 326.549,260.326 325.549,260.492 324.5,260C 323.378,257.876 321.878,256.043 320,254.5C 317.943,256.269 316.11,258.269 314.5,260.5C 312.473,259.307 310.973,257.64 310,255.5C 309.306,251.446 309.473,247.446 310.5,243.5C 315.386,234.5 314.386,226.334 307.5,219C 311.105,218.464 314.105,219.631 316.5,222.5C 318.653,214.659 320.819,214.659 323,222.5C 325.141,219.679 327.975,218.346 331.5,218.5C 329.034,222.447 327.367,226.781 326.5,231.5C 328.433,237.366 329.766,243.366 330.5,249.5 Z"/></g>
<g><path style="opacity:1" fill="#f8d3d6" d="M 461.5,205.5 C 462.167,205.833 462.833,206.167 463.5,206.5C 461.908,210.278 461.074,214.278 461,218.5C 458.665,222.826 456.665,227.16 455,231.5C 456,230.833 457,230.167 458,229.5C 459.914,224.665 462.581,220.331 466,216.5C 466.179,212.975 466.679,209.641 467.5,206.5C 467.5,207.167 467.833,207.5 468.5,207.5C 467.839,210.787 467.339,214.12 467,217.5C 463.473,221.217 460.973,225.55 459.5,230.5C 457.37,231.467 455.37,232.634 453.5,234C 451.964,235.599 451.464,237.433 452,239.5C 452.671,238.748 453.504,238.414 454.5,238.5C 453.19,240.148 451.857,241.814 450.5,243.5C 450.167,242.667 449.833,241.833 449.5,241C 451.341,233.987 454.008,227.321 457.5,221C 457.164,219.97 456.497,219.47 455.5,219.5C 455.198,216.941 455.532,214.607 456.5,212.5C 456.03,215.346 456.863,217.679 459,219.5C 459.217,214.695 460.051,210.028 461.5,205.5 Z"/></g>
<g><path style="opacity:1" fill="#030000" d="M 239.5,221.5 C 263.167,228.833 286.833,236.167 310.5,243.5C 309.473,247.446 309.306,251.446 310,255.5C 310.973,257.64 312.473,259.307 314.5,260.5C 316.11,258.269 317.943,256.269 320,254.5C 321.878,256.043 323.378,257.876 324.5,260C 325.549,260.492 326.549,260.326 327.5,259.5C 329.704,256.553 330.704,253.22 330.5,249.5C 351.32,256.44 372.32,262.773 393.5,268.5C 386.952,282.881 377.285,294.715 364.5,304C 342.618,318.174 319.284,321.507 294.5,314C 253.827,296.486 235.494,265.652 239.5,221.5 Z"/></g>
<g><path style="opacity:1" fill="#f6ccd0" d="M 473.5,205.5 C 473.5,206.167 473.833,206.5 474.5,206.5C 473.748,209.747 473.248,213.081 473,216.5C 470.938,218.901 469.271,221.567 468,224.5C 466.752,232.249 462.252,236.916 454.5,238.5C 457.332,235.822 460.499,233.488 464,231.5C 465.524,226.118 467.858,221.118 471,216.5C 471.108,212.535 471.941,208.868 473.5,205.5 Z"/></g>
<g><path style="opacity:1" fill="#270807" d="M 164.5,206.5 C 164.833,206.5 165.167,206.5 165.5,206.5C 166.319,209.305 166.819,212.305 167,215.5C 170.726,220.286 173.393,225.619 175,231.5C 179,234.167 183,236.833 187,239.5C 187.167,239 187.333,238.5 187.5,238C 185.975,234.384 183.308,231.884 179.5,230.5C 177.748,226 175.748,221.666 173.5,217.5C 174.458,217.953 175.292,218.619 176,219.5C 177.701,224.263 180.368,228.263 184,231.5C 184.167,231.167 184.333,230.833 184.5,230.5C 182.673,228.513 181.673,226.179 181.5,223.5C 186.517,229.205 189.017,235.872 189,243.5C 183.846,239.257 178.512,235.257 173,231.5C 172.006,225.847 169.673,220.847 166,216.5C 165.752,213.081 165.252,209.747 164.5,206.5 Z"/></g>
<g><path style="opacity:1" fill="#f6df17" d="M -0.5,246.5 C 60.5609,265.298 121.561,284.298 182.5,303.5C 187.921,307.195 193.921,308.862 200.5,308.5C 200.5,308.833 200.5,309.167 200.5,309.5C 193.982,310.365 187.982,309.032 182.5,305.5C 180.429,306.786 180.096,308.453 181.5,310.5C 183.554,312.194 185.888,313.361 188.5,314C 195.959,314.909 203.292,314.409 210.5,312.5C 211.791,312.263 212.791,312.596 213.5,313.5C 208.204,315.531 202.704,316.531 197,316.5C 190.86,316.329 185.027,315.162 179.5,313C 177.665,313.928 177.332,315.094 178.5,316.5C 183.948,320.703 190.115,322.37 197,321.5C 202.362,321.781 207.529,320.947 212.5,319C 215.082,317.662 215.749,315.829 214.5,313.5C 221.917,315.863 229.251,318.196 236.5,320.5C 230.164,326.275 229.831,332.608 235.5,339.5C 235.167,339.833 234.833,340.167 234.5,340.5C 227.476,336.978 221.309,337.978 216,343.5C 215.316,346.38 215.483,349.213 216.5,352C 214.119,353.946 211.619,355.779 209,357.5C 207.798,359.677 207.298,362.011 207.5,364.5C 218.054,360.119 228.387,360.619 238.5,366C 244.107,371.219 250.607,374.719 258,376.5C 264.052,375.948 267.218,372.614 267.5,366.5C 287.513,379.038 309.179,383.205 332.5,379C 347.294,377.515 360.794,372.682 373,364.5C 372.895,373.06 377.061,376.56 385.5,375C 389.229,373.745 392.562,371.912 395.5,369.5C 476.533,395.759 557.866,421.092 639.5,445.5C 639.5,456.833 639.5,468.167 639.5,479.5C 426.167,479.5 212.833,479.5 -0.5,479.5C -0.5,401.833 -0.5,324.167 -0.5,246.5 Z"/></g>
<g><path style="opacity:1" fill="#ca1025" d="M 318.5,257.5 C 321.714,258.528 323.548,260.862 324,264.5C 332.965,257.138 334.299,258.138 328,267.5C 327.833,268.667 327.667,269.833 327.5,271C 328.732,276.361 330.565,281.528 333,286.5C 333.667,291.167 333.667,295.833 333,300.5C 331.799,302.909 330.133,304.909 328,306.5C 326.506,302.014 324.34,297.847 321.5,294C 320.216,293.316 319.049,293.483 318,294.5C 315.148,298.204 312.815,302.204 311,306.5C 305.896,301.161 304.229,294.828 306,287.5C 308.146,281.565 309.979,275.565 311.5,269.5C 311.334,266.153 310,263.319 307.5,261C 310.742,260.014 313.408,260.848 315.5,263.5C 316.509,261.482 317.509,259.482 318.5,257.5 Z"/></g>
<g><path style="opacity:1" fill="#f2c319" d="M 396.5,269.5 C 400.287,271.452 403.287,274.286 405.5,278C 404.833,278.667 404.167,278.667 403.5,278C 401.792,275.957 399.792,274.29 397.5,273C 396.663,271.989 396.33,270.822 396.5,269.5 Z"/></g>
<g><path style="opacity:1" fill="#010000" d="M 411.5,274.5 C 417.215,277.072 423.215,279.072 429.5,280.5C 429.334,286.509 429.501,292.509 430,298.5C 430.995,299.066 431.828,299.733 432.5,300.5C 436.796,301.463 441.129,301.629 445.5,301C 452.599,299.982 455.266,295.815 453.5,288.5C 515.576,307.637 577.576,326.97 639.5,346.5C 639.5,379.5 639.5,412.5 639.5,445.5C 557.866,421.092 476.533,395.759 395.5,369.5C 402.611,362.137 411.277,359.637 421.5,362C 424.777,363.143 428.11,363.977 431.5,364.5C 431.584,357.748 428.251,353.915 421.5,353C 426.596,345.846 424.93,340.846 416.5,338C 412.668,337.238 409.002,337.738 405.5,339.5C 404.592,338.21 404.759,336.877 406,335.5C 408.78,326.959 405.78,321.959 397,320.5C 394.679,320.909 392.513,321.743 390.5,323C 375.673,337.747 358.006,347.247 337.5,351.5C 334.779,351.037 332.112,350.371 329.5,349.5C 373.318,342.687 400.652,317.687 411.5,274.5 Z"/></g>
<g><path style="opacity:1" fill="#f3cc18" d="M 394.5,273.5 C 399.683,276.517 403.683,280.683 406.5,286C 404.439,290.068 401.605,293.568 398,296.5C 394.318,292.985 390.818,289.318 387.5,285.5C 388.002,284.479 388.668,284.312 389.5,285C 392.378,287.709 395.044,290.542 397.5,293.5C 398.881,293 399.547,292 399.5,290.5C 395.402,282.255 396.568,281.588 403,288.5C 404.365,287.407 404.699,286.074 404,284.5C 400.132,281.155 396.966,277.488 394.5,273.5 Z"/></g>
<g><path style="opacity:1" fill="#f3cd19" d="M 384.5,287.5 C 385.756,287.461 386.756,287.961 387.5,289C 386.044,289.423 385.544,290.256 386,291.5C 387.049,290.483 388.216,290.316 389.5,291C 388.458,292.918 387.292,294.751 386,296.5C 383.755,293.688 383.255,290.688 384.5,287.5 Z"/></g>
<g><path style="opacity:1" fill="#f4ce18" d="M 236.5,296.5 C 234.611,291.551 235.278,287.051 238.5,283C 240.167,282.333 241.833,282.333 243.5,283C 241.671,283.273 240.171,284.107 239,285.5C 237.092,291.949 238.925,296.949 244.5,300.5C 245.48,297.914 245.813,295.247 245.5,292.5C 251.053,291.951 255.053,294.118 257.5,299C 257.046,300.622 256.046,301.788 254.5,302.5C 254.5,300.833 254.5,299.167 254.5,297.5C 252.754,295.146 250.421,294.146 247.5,294.5C 247.62,296.199 247.954,297.865 248.5,299.5C 248.048,301.312 246.882,302.312 245,302.5C 241.743,301.073 238.91,299.073 236.5,296.5 Z"/></g>
<g><path style="opacity:1" fill="#c51024" d="M 319.5,295.5 C 324.262,298.684 325.929,303.017 324.5,308.5C 325,308.833 325.5,309.167 326,309.5C 330.864,305.733 336.197,302.733 342,300.5C 340.723,307.157 336.89,311.99 330.5,315C 314.917,320.198 303.583,315.532 296.5,301C 299.434,301.868 302.434,302.868 305.5,304C 308.029,306.029 310.696,307.862 313.5,309.5C 314.318,306.893 314.818,304.226 315,301.5C 316.332,299.34 317.832,297.34 319.5,295.5 Z"/></g>
<g><path style="opacity:1" fill="#c61924" d="M 206.5,300.5 C 207.833,300.5 209.167,300.5 210.5,300.5C 210.607,302.903 209.607,304.736 207.5,306C 205.1,306.744 202.767,307.577 200.5,308.5C 193.921,308.862 187.921,307.195 182.5,303.5C 182.147,301.365 182.98,300.032 185,299.5C 188.735,301.704 192.735,303.038 197,303.5C 200.61,303.573 203.777,302.573 206.5,300.5 Z"/></g>
<g><path style="opacity:1" fill="#c00f23" d="M 432.5,300.5 C 434.925,302.366 437.759,303.366 441,303.5C 446.04,302.698 450.873,301.531 455.5,300C 456.5,302.091 455.833,303.757 453.5,305C 446.328,309.184 438.995,309.518 431.5,306C 429.393,304.736 428.393,302.903 428.5,300.5C 429.833,300.5 431.167,300.5 432.5,300.5 Z"/></g>
<g><path style="opacity:1" fill="#cd2224" d="M 200.5,309.5 C 204.5,308.5 208.5,307.5 212.5,306.5C 212.747,308.858 212.081,310.858 210.5,312.5C 203.292,314.409 195.959,314.909 188.5,314C 185.888,313.361 183.554,312.194 181.5,310.5C 180.096,308.453 180.429,306.786 182.5,305.5C 187.982,309.032 193.982,310.365 200.5,309.5 Z"/></g>
<g><path style="opacity:1" fill="#c11023" d="M 455.5,305.5 C 459.483,307.368 459.483,309.534 455.5,312C 446.46,315.25 437.46,315.25 428.5,312C 426.845,310.556 426.178,308.722 426.5,306.5C 433.57,309.269 440.903,310.102 448.5,309C 451.174,308.33 453.507,307.163 455.5,305.5 Z"/></g>
<g><path style="opacity:1" fill="#f4d218" d="M 359.5,325.5 C 358.833,325.833 358.167,326.167 357.5,326.5C 357.007,323.188 356.007,320.021 354.5,317C 354.63,315.941 355.13,315.108 356,314.5C 356.98,316.059 357.813,317.726 358.5,319.5C 359.167,319.167 359.833,318.833 360.5,318.5C 361.173,321.997 363.173,323.163 366.5,322C 367.804,321.196 368.471,320.029 368.5,318.5C 367.833,316.5 367.167,314.5 366.5,312.5C 367.9,310.075 369.066,310.408 370,313.5C 371.652,307.782 374.485,307.116 378.5,311.5C 381.051,306.112 385.218,302.779 391,301.5C 391.333,299.5 391.667,297.5 392,295.5C 393.797,297.674 393.964,300.007 392.5,302.5C 390.807,304.027 388.973,305.36 387,306.5C 386.749,308.433 386.249,310.266 385.5,312C 383.236,312.236 381.069,312.736 379,313.5C 379.404,321.027 376.404,326.694 370,330.5C 370.72,327.735 372.387,325.401 375,323.5C 376.079,320.937 376.579,318.271 376.5,315.5C 374.5,315.167 372.5,314.833 370.5,314.5C 371.082,322.585 367.416,326.251 359.5,325.5 Z"/></g>
<g><path style="opacity:1" fill="#db5923" d="M 383.5,307.5 C 385.048,307.821 385.715,308.821 385.5,310.5C 382.752,310.598 382.086,309.598 383.5,307.5 Z"/></g>
<g><path style="opacity:1" fill="#eba61b" d="M 361.5,309.5 C 363.337,309.639 363.67,310.306 362.5,311.5C 361.702,311.043 361.369,310.376 361.5,309.5 Z"/></g>
<g><path style="opacity:1" fill="#d84723" d="M 373.5,310.5 C 375.465,310.948 375.798,311.948 374.5,313.5C 372.481,312.867 372.147,311.867 373.5,310.5 Z"/></g>
<g><path style="opacity:1" fill="#d12725" d="M 213.5,313.5 C 213.833,313.5 214.167,313.5 214.5,313.5C 215.749,315.829 215.082,317.662 212.5,319C 207.529,320.947 202.362,321.781 197,321.5C 190.115,322.37 183.948,320.703 178.5,316.5C 177.332,315.094 177.665,313.928 179.5,313C 185.027,315.162 190.86,316.329 197,316.5C 202.704,316.531 208.204,315.531 213.5,313.5 Z"/></g>
<g><path style="opacity:1" fill="#c00f23" d="M 456.5,312.5 C 459.524,312.364 461.024,313.698 461,316.5C 458.022,318.382 454.855,319.882 451.5,321C 442.99,322.114 434.656,321.448 426.5,319C 425.313,317.981 424.313,316.814 423.5,315.5C 423.887,314.28 424.72,313.613 426,313.5C 433.262,316.246 440.762,317.079 448.5,316C 451.599,315.613 454.266,314.446 456.5,312.5 Z"/></g>
<g><path style="opacity:1" fill="#f3cb19" d="M 259.5,303.5 C 260.552,303.351 261.552,303.517 262.5,304C 260.286,306.925 257.953,309.759 255.5,312.5C 258.72,311.946 262.053,311.946 265.5,312.5C 264.687,313.814 263.687,314.981 262.5,316C 264.167,316.667 265.833,316.667 267.5,316C 270.013,312.918 272.679,310.751 275.5,309.5C 271.607,317.282 265.273,320.615 256.5,319.5C 256.192,320.308 255.692,320.975 255,321.5C 254.666,319.153 254.833,316.819 255.5,314.5C 254.5,314.5 253.5,314.5 252.5,314.5C 252.2,311.482 250.533,309.482 247.5,308.5C 246.614,307.675 246.281,306.675 246.5,305.5C 248.82,306.724 251.153,308.058 253.5,309.5C 256.492,308.508 258.492,306.508 259.5,303.5 Z"/></g>
<g><path style="opacity:1" fill="#cf1c25" d="M 252.5,325.5 C 276.173,349.5 304.506,358.167 337.5,351.5C 358.006,347.247 375.673,337.747 390.5,323C 392.513,321.743 394.679,320.909 397,320.5C 405.78,321.959 408.78,326.959 406,335.5C 404.759,336.877 404.592,338.21 405.5,339.5C 409.002,337.738 412.668,337.238 416.5,338C 424.93,340.846 426.596,345.846 421.5,353C 428.251,353.915 431.584,357.748 431.5,364.5C 428.11,363.977 424.777,363.143 421.5,362C 411.277,359.637 402.611,362.137 395.5,369.5C 392.562,371.912 389.229,373.745 385.5,375C 377.061,376.56 372.895,373.06 373,364.5C 360.794,372.682 347.294,377.515 332.5,379C 309.179,383.205 287.513,379.038 267.5,366.5C 267.218,372.614 264.052,375.948 258,376.5C 250.607,374.719 244.107,371.219 238.5,366C 228.387,360.619 218.054,360.119 207.5,364.5C 207.298,362.011 207.798,359.677 209,357.5C 211.619,355.779 214.119,353.946 216.5,352C 215.483,349.213 215.316,346.38 216,343.5C 221.309,337.978 227.476,336.978 234.5,340.5C 234.833,340.167 235.167,339.833 235.5,339.5C 229.831,332.608 230.164,326.275 236.5,320.5C 239.073,319.445 241.739,319.278 244.5,320C 247.369,321.596 250.036,323.43 252.5,325.5 Z"/></g>
<g><path style="opacity:1" fill="#f2c619" d="M 290.5,327.5 C 284.271,333.442 279.604,332.442 276.5,324.5C 273.897,325.562 271.23,325.728 268.5,325C 267.978,324.439 267.645,323.772 267.5,323C 270.307,318.198 273.807,314.031 278,310.5C 278.5,310.667 279,310.833 279.5,311C 275.473,314.615 272.64,318.782 271,323.5C 271.414,323.957 271.914,324.291 272.5,324.5C 273.665,323.509 274.832,322.509 276,321.5C 276.945,321.905 277.612,322.572 278,323.5C 282.107,319.825 282.607,320.659 279.5,326C 280.044,327.947 281.377,328.78 283.5,328.5C 284.772,328.43 285.938,328.097 287,327.5C 288.69,319.726 289.857,319.726 290.5,327.5 Z"/></g>
<g><path style="opacity:1" fill="#f4cf18" d="M 290.5,327.5 C 294.796,322.987 297.462,323.821 298.5,330C 300.797,330.018 303.131,329.851 305.5,329.5C 305.5,330.833 305.5,332.167 305.5,333.5C 310.399,333.922 315.232,333.922 320,333.5C 322.969,334.294 325.969,334.961 329,335.5C 337.379,333.672 337.546,331.672 329.5,329.5C 330.025,328.808 330.692,328.308 331.5,328C 335.121,328.609 338.788,329.442 342.5,330.5C 338.727,332.43 335.06,334.597 331.5,337C 321.844,336.732 312.177,336.232 302.5,335.5C 302.523,332.879 301.189,331.545 298.5,331.5C 295.326,333.828 291.992,335.994 288.5,338C 284.004,338.852 279.67,338.352 275.5,336.5C 274.417,335.635 274.251,334.635 275,333.5C 281.24,337.76 287.074,337.426 292.5,332.5C 290.995,331.158 290.328,329.492 290.5,327.5 Z"/></g>
<g><path style="opacity:1" fill="#f4d318" d="M 252.5,325.5 C 253.5,325.5 254.5,325.5 255.5,325.5C 260.931,329.083 266.265,332.916 271.5,337C 289.393,347.746 308.727,351.912 329.5,349.5C 332.112,350.371 334.779,351.037 337.5,351.5C 304.506,358.167 276.173,349.5 252.5,325.5 Z"/></g>
<g><path style="opacity:1" fill="#e6881d" d="M 359.5,325.5 C 359.628,331.453 358.961,331.787 357.5,326.5C 358.167,326.167 358.833,325.833 359.5,325.5 Z"/></g>
<g><path style="opacity:1" fill="#d32c24" d="M 293.5,327.5 C 295.337,327.639 295.67,328.306 294.5,329.5C 293.702,329.043 293.369,328.376 293.5,327.5 Z"/></g>
<g><path style="opacity:1" fill="#f4ce18" d="M 350.5,315.5 C 351.75,315.577 352.583,316.244 353,317.5C 353.798,320.893 354.798,324.226 356,327.5C 357.633,332.738 355.8,335.905 350.5,337C 349.654,339.846 347.82,341.68 345,342.5C 343.699,341.902 342.865,340.902 342.5,339.5C 340.955,338.548 339.288,338.215 337.5,338.5C 337.238,337.022 337.571,335.689 338.5,334.5C 342.817,334.558 347.15,334.892 351.5,335.5C 354.334,333.559 355.168,330.893 354,327.5C 353.171,323.839 351.671,320.505 349.5,317.5C 349.863,316.817 350.196,316.15 350.5,315.5 Z"/></g>
<g><path style="opacity:1" fill="#d63f23" d="M 344.5,336.5 C 347.275,336.834 347.941,338.167 346.5,340.5C 344.889,339.68 344.222,338.346 344.5,336.5 Z"/></g>
<g><path style="opacity:1" fill="#f3cd18" d="M 378.5,336.5 C 380.144,336.286 381.644,336.62 383,337.5C 385.451,347.929 381.951,355.596 372.5,360.5C 374.093,357.345 376.593,354.345 380,351.5C 380.833,349.833 381.667,348.167 382.5,346.5C 376.127,345.39 374.794,342.056 378.5,336.5 Z"/></g>
<g><path style="opacity:1" fill="#f4d118" d="M 235.5,335.5 C 236.601,334.402 237.934,334.235 239.5,335C 240.833,336.667 242.167,338.333 243.5,340C 247.236,340.8 250.736,340.3 254,338.5C 257.702,338.906 258.368,340.573 256,343.5C 253.137,347.27 250.97,347.103 249.5,343C 247.167,342.667 244.833,342.333 242.5,342C 240.688,339.14 238.354,336.973 235.5,335.5 Z"/></g>
<g><path style="opacity:1" fill="#f3cb19" d="M 395.5,332.5 C 396.573,333.251 396.74,334.251 396,335.5C 394.172,337.081 392.172,338.415 390,339.5C 390.552,346.202 388.219,351.535 383,355.5C 384.512,352.791 385.845,349.791 387,346.5C 387.333,343.833 387.667,341.167 388,338.5C 390.844,336.841 393.344,334.841 395.5,332.5 Z"/></g>
<g><path style="opacity:1" fill="#d32f24" d="M 378.5,339.5 C 379.5,339.5 380.5,339.5 381.5,339.5C 380.5,344.833 379.5,344.833 378.5,339.5 Z"/></g>
<g><path style="opacity:1" fill="#db5322" d="M 252.5,340.5 C 254.465,340.948 254.798,341.948 253.5,343.5C 252.614,342.675 252.281,341.675 252.5,340.5 Z"/></g>
<g><path style="opacity:1" fill="#f2c319" d="M 264.5,340.5 C 265.552,340.351 266.552,340.517 267.5,341C 265.278,344.623 262.944,348.123 260.5,351.5C 260.167,351.333 259.833,351.167 259.5,351C 262.117,347.934 263.783,344.434 264.5,340.5 Z"/></g>
<g><path style="opacity:1" fill="#f4ce18" d="M 269.5,344.5 C 273.133,344.443 273.3,345.443 270,347.5C 268.361,350.742 267.361,354.076 267,357.5C 271.895,361.016 277.395,362.349 283.5,361.5C 283.5,362.5 283.5,363.5 283.5,364.5C 285.06,364.481 286.56,364.148 288,363.5C 289.531,364.217 290.864,365.217 292,366.5C 293.766,365.767 295.599,365.433 297.5,365.5C 297.5,366.5 297.5,367.5 297.5,368.5C 298.978,368.762 300.311,368.429 301.5,367.5C 302.254,364.223 302.754,360.89 303,357.5C 303.893,356.289 304.726,356.289 305.5,357.5C 304.77,360.109 304.27,362.776 304,365.5C 302.485,371.662 299.319,372.829 294.5,369C 291.854,368.503 289.187,368.336 286.5,368.5C 286.5,367.5 286.5,366.5 286.5,365.5C 280.802,363.507 274.802,362.007 268.5,361C 263.364,357.905 258.198,354.738 253,351.5C 252.312,350.668 252.479,350.002 253.5,349.5C 255.679,350.757 257.679,352.257 259.5,354C 261.167,354.667 262.833,354.667 264.5,354C 266.465,350.919 268.131,347.753 269.5,344.5 Z"/></g>
<g><path style="opacity:1" fill="#f6dd17" d="M 323.5,371.5 C 322.833,368.167 322.167,364.833 321.5,361.5C 321.238,360.022 321.571,358.689 322.5,357.5C 323.493,362.12 323.827,366.786 323.5,371.5 Z"/></g>
<g><path style="opacity:1" fill="#f5d418" d="M 330.5,360.5 C 334.926,362.359 336.426,365.692 335,370.5C 332.502,372.417 329.835,374.084 327,375.5C 326.508,374.451 326.674,373.451 327.5,372.5C 334.831,370.982 335.498,367.815 329.5,363C 329.743,362.098 330.077,361.265 330.5,360.5 Z"/></g>
<g><path style="opacity:1" fill="#e37b1e" d="M 321.5,361.5 C 322.167,364.833 322.833,368.167 323.5,371.5C 323.44,372.043 323.107,372.376 322.5,372.5C 321.511,368.893 321.177,365.226 321.5,361.5 Z"/></g>
<g><path style="opacity:1" fill="#f3c61a" d="M 362.5,348.5 C 364.197,350.305 365.03,352.639 365,355.5C 366.011,356.337 367.178,356.67 368.5,356.5C 367.939,361.787 365.272,365.62 360.5,368C 361.711,368.893 361.711,369.726 360.5,370.5C 359.468,368.96 358.135,368.46 356.5,369C 357.711,369.893 357.711,370.726 356.5,371.5C 353.757,369.984 350.924,368.65 348,367.5C 347.262,364.788 347.929,362.455 350,360.5C 350.333,362.5 350.667,364.5 351,366.5C 356.103,367.25 360.769,365.917 365,362.5C 365.9,357.553 364.4,356.553 360.5,359.5C 359.524,357.877 360.024,356.543 362,355.5C 362.497,353.19 362.663,350.857 362.5,348.5 Z"/></g>
<g><path style="opacity:1" fill="#f4cf18" d="M 312.5,356.5 C 313.097,356.735 313.43,357.235 313.5,358C 312.956,362.246 312.123,366.413 311,370.5C 309.989,365.529 310.489,360.863 312.5,356.5 Z"/></g>
<g><path style="opacity:1" fill="#f4d118" d="M 317.5,365.5 C 318.497,365.47 319.164,365.97 319.5,367C 319.089,370.496 317.422,373.163 314.5,375C 310.167,375.667 305.833,375.667 301.5,375C 305.918,374.792 310.251,374.126 314.5,373C 316.055,370.745 317.055,368.245 317.5,365.5 Z"/></g>
</svg>
