<?xml version="1.0" encoding="UTF-8"?>
<!DOCTYPE svg PUBLIC "-//W3C//DTD SVG 1.1//EN" "http://www.w3.org/Graphics/SVG/1.1/DTD/svg11.dtd">
<svg xmlns="http://www.w3.org/2000/svg" version="1.1" width="640px" height="480px" style="shape-rendering:geometricPrecision; text-rendering:geometricPrecision; image-rendering:optimizeQuality; fill-rule:evenodd; clip-rule:evenodd" xmlns:xlink="http://www.w3.org/1999/xlink">
<g><path style="opacity:0.999" fill="#de0000" d="M -0.5,-0.5 C 212.833,-0.5 426.167,-0.5 639.5,-0.5C 639.5,79.5 639.5,159.5 639.5,239.5C 572.5,239.5 505.5,239.5 438.5,239.5C 455.321,227.53 472.321,215.696 489.5,204C 446.163,203.833 402.829,203.333 359.5,202.5C 346.558,164.007 333.225,125.674 319.5,87.5C 305.566,125.968 292.233,164.635 279.5,203.5C 236.165,203.333 192.832,203.5 149.5,204C 166.679,215.696 183.679,227.53 200.5,239.5C 133.5,239.5 66.5,239.5 -0.5,239.5C -0.5,159.5 -0.5,79.5 -0.5,-0.5 Z"/></g>
<g><path style="opacity:1" fill="#fef200" d="M 438.5,239.5 C 421.715,250.445 405.048,261.612 388.5,273C 387.101,274.062 386.101,275.395 385.5,277C 399.107,315.66 412.107,354.16 424.5,392.5C 389.5,368.5 354.5,344.5 319.5,320.5C 284.148,344.648 248.815,368.481 213.5,392C 227.126,353.624 240.459,315.124 253.5,276.5C 236.403,263.443 218.737,251.11 200.5,239.5C 183.679,227.53 166.679,215.696 149.5,204C 192.832,203.5 236.165,203.333 279.5,203.5C 292.233,164.635 305.566,125.968 319.5,87.5C 333.225,125.674 346.558,164.007 359.5,202.5C 402.829,203.333 446.163,203.833 489.5,204C 472.321,215.696 455.321,227.53 438.5,239.5 Z"/></g>
<g><path style="opacity:1" fill="#35a000" d="M -0.5,239.5 C 66.5,239.5 133.5,239.5 200.5,239.5C 218.737,251.11 236.403,263.443 253.5,276.5C 240.459,315.124 227.126,353.624 213.5,392C 248.815,368.481 284.148,344.648 319.5,320.5C 354.5,344.5 389.5,368.5 424.5,392.5C 412.107,354.16 399.107,315.66 385.5,277C 386.101,275.395 387.101,274.062 388.5,273C 405.048,261.612 421.715,250.445 438.5,239.5C 505.5,239.5 572.5,239.5 639.5,239.5C 639.5,319.5 639.5,399.5 639.5,479.5C 426.167,479.5 212.833,479.5 -0.5,479.5C -0.5,399.5 -0.5,319.5 -0.5,239.5 Z"/></g>
</svg>
