<?xml version="1.0" encoding="UTF-8"?>
<!DOCTYPE svg PUBLIC "-//W3C//DTD SVG 1.1//EN" "http://www.w3.org/Graphics/SVG/1.1/DTD/svg11.dtd">
<svg xmlns="http://www.w3.org/2000/svg" version="1.1" width="640px" height="480px" style="shape-rendering:geometricPrecision; text-rendering:geometricPrecision; image-rendering:optimizeQuality; fill-rule:evenodd; clip-rule:evenodd" xmlns:xlink="http://www.w3.org/1999/xlink">
<g><path style="opacity:1" fill="#cf0a21" d="M -0.5,-0.5 C 212.833,-0.5 426.167,-0.5 639.5,-0.5C 639.5,1.16667 639.5,2.83333 639.5,4.5C 564.458,48.4392 489.625,92.7726 415,137.5C 372.431,101.903 324.598,92.4029 271.5,109C 254.685,115.566 239.685,124.899 226.5,137C 225.167,137.667 223.833,137.667 222.5,137C 148.442,92.3068 74.1083,48.1401 -0.5,4.5C -0.5,2.83333 -0.5,1.16667 -0.5,-0.5 Z"/></g>
<g><path style="opacity:1" fill="#fefefe" d="M -0.5,4.5 C 74.1083,48.1401 148.442,92.3068 222.5,137C 223.833,137.667 225.167,137.667 226.5,137C 239.685,124.899 254.685,115.566 271.5,109C 324.598,92.4029 372.431,101.903 415,137.5C 489.625,92.7726 564.458,48.4392 639.5,4.5C 639.5,34.1667 639.5,63.8333 639.5,93.5C 577.333,130.416 515.333,167.582 453.5,205C 459.776,227.203 460.109,249.536 454.5,272C 454.559,273.436 454.892,274.769 455.5,276C 516.72,312.726 578.053,349.226 639.5,385.5C 639.5,415.167 639.5,444.833 639.5,474.5C 564.458,430.561 489.625,386.227 415,341.5C 372.434,377.013 324.6,386.513 271.5,370C 254.685,363.434 239.685,354.101 226.5,342C 225.167,341.333 223.833,341.333 222.5,342C 148.442,386.693 74.1083,430.86 -0.5,474.5C -0.5,444.833 -0.5,415.167 -0.5,385.5C 61.9703,349.099 123.97,311.932 185.5,274C 178.87,250.978 178.87,227.978 185.5,205C 123.97,167.068 61.9703,129.901 -0.5,93.5C -0.5,63.8333 -0.5,34.1667 -0.5,4.5 Z"/></g>
<g><path style="opacity:1" fill="#19b637" d="M -0.5,93.5 C 61.9703,129.901 123.97,167.068 185.5,205C 178.87,227.978 178.87,250.978 185.5,274C 123.97,311.932 61.9703,349.099 -0.5,385.5C -0.5,288.167 -0.5,190.833 -0.5,93.5 Z"/></g>
<g><path style="opacity:0.999" fill="#18b637" d="M 639.5,93.5 C 639.5,190.833 639.5,288.167 639.5,385.5C 578.053,349.226 516.72,312.726 455.5,276C 454.892,274.769 454.559,273.436 454.5,272C 460.109,249.536 459.776,227.203 453.5,205C 515.333,167.582 577.333,130.416 639.5,93.5 Z"/></g>
<g><path style="opacity:1" fill="#34b340" d="M 318.5,136.5 C 322.615,141.353 326.282,146.686 329.5,152.5C 336.167,153.167 342.833,153.833 349.5,154.5C 346.245,160.008 343.245,165.675 340.5,171.5C 343.755,177.008 346.755,182.675 349.5,188.5C 342.858,189.331 336.191,189.831 329.5,190C 326.364,195.301 323.03,200.468 319.5,205.5C 315.806,200.625 312.473,195.458 309.5,190C 302.809,189.831 296.142,189.331 289.5,188.5C 292.38,182.573 295.38,176.739 298.5,171C 295.634,165.436 292.634,159.936 289.5,154.5C 296.167,153.833 302.833,153.167 309.5,152.5C 313.031,147.436 316.031,142.103 318.5,136.5 Z"/></g>
<g><path style="opacity:1" fill="#cd0e21" d="M 318.5,144.5 C 319.496,144.414 320.329,144.748 321,145.5C 323.167,149.167 325.333,152.833 327.5,156.5C 332.802,157.329 338.136,157.829 343.5,158C 341.159,162.349 338.826,166.682 336.5,171C 338.443,175.72 340.776,180.22 343.5,184.5C 338.198,185.329 332.864,185.829 327.5,186C 324.958,190.251 322.291,194.418 319.5,198.5C 316.709,194.418 314.042,190.251 311.5,186C 306.136,185.829 300.802,185.329 295.5,184.5C 298.224,180.22 300.557,175.72 302.5,171C 300.183,166.677 297.85,162.343 295.5,158C 300.864,157.829 306.198,157.329 311.5,156.5C 313.861,152.483 316.194,148.483 318.5,144.5 Z"/></g>
<g><path style="opacity:1" fill="#2cb53e" d="M 258.5,241.5 C 262.763,246.504 266.43,252.004 269.5,258C 276.167,258.333 282.833,258.667 289.5,259C 285.962,264.41 282.962,270.077 280.5,276C 282.962,281.923 285.962,287.59 289.5,293C 282.833,293.333 276.167,293.667 269.5,294C 266,299.5 262.5,305 259,310.5C 255.5,305 252,299.5 248.5,294C 241.833,293.667 235.167,293.333 228.5,293C 231.833,287.333 235.167,281.667 238.5,276C 235.119,270.74 232.119,265.24 229.5,259.5C 236.111,258.196 242.778,257.196 249.5,256.5C 252.763,251.638 255.763,246.638 258.5,241.5 Z"/></g>
<g><path style="opacity:1" fill="#28b43c" d="M 380.5,241.5 C 384.831,246.201 388.497,251.534 391.5,257.5C 398.167,258.167 404.833,258.833 411.5,259.5C 408.366,264.936 405.366,270.436 402.5,276C 405.366,281.564 408.366,287.064 411.5,292.5C 404.833,293.167 398.167,293.833 391.5,294.5C 388.167,299.833 384.833,305.167 381.5,310.5C 377.771,305.433 374.438,300.099 371.5,294.5C 364.833,293.833 358.167,293.167 351.5,292.5C 354.634,287.064 357.634,281.564 360.5,276C 357.634,270.436 354.634,264.936 351.5,259.5C 358.167,258.833 364.833,258.167 371.5,257.5C 374.556,252.133 377.556,246.799 380.5,241.5 Z"/></g>
<g><path style="opacity:1" fill="#ca1521" d="M 258.5,248.5 C 261.639,252.09 264.306,256.09 266.5,260.5C 271.792,261.495 277.125,261.828 282.5,261.5C 280.882,266.636 278.549,271.469 275.5,276C 278.549,280.531 280.882,285.364 282.5,290.5C 277.125,290.172 271.792,290.505 266.5,291.5C 264.198,295.633 261.698,299.633 259,303.5C 256.25,299.668 253.75,295.668 251.5,291.5C 246.208,290.505 240.875,290.172 235.5,290.5C 237.319,285.321 239.652,280.321 242.5,275.5C 239.607,271.048 237.274,266.381 235.5,261.5C 240.875,261.828 246.208,261.495 251.5,260.5C 253.861,256.483 256.194,252.483 258.5,248.5 Z"/></g>
<g><path style="opacity:1" fill="#cb1321" d="M 404.5,288.5 C 399.5,289.167 394.5,289.833 389.5,290.5C 387.175,295.147 384.341,299.48 381,303.5C 378.626,299.25 376.126,295.084 373.5,291C 368.136,290.829 362.802,290.329 357.5,289.5C 359.713,284.906 362.047,280.406 364.5,276C 362.557,271.28 360.224,266.78 357.5,262.5C 362.802,261.671 368.136,261.171 373.5,261C 376.042,256.749 378.709,252.582 381.5,248.5C 384.291,252.582 386.958,256.749 389.5,261C 394.864,261.171 400.198,261.671 405.5,262.5C 402.776,266.78 400.443,271.28 398.5,276C 400.391,280.28 402.391,284.447 404.5,288.5 Z"/></g>
<g><path style="opacity:1" fill="#914428" d="M 404.5,288.5 C 405.043,288.56 405.376,288.893 405.5,289.5C 400.208,290.495 394.875,290.828 389.5,290.5C 394.5,289.833 399.5,289.167 404.5,288.5 Z"/></g>
<g><path style="opacity:1" fill="#cf0a21" d="M 639.5,474.5 C 639.5,476.167 639.5,477.833 639.5,479.5C 426.167,479.5 212.833,479.5 -0.5,479.5C -0.5,477.833 -0.5,476.167 -0.5,474.5C 74.1083,430.86 148.442,386.693 222.5,342C 223.833,341.333 225.167,341.333 226.5,342C 239.685,354.101 254.685,363.434 271.5,370C 324.6,386.513 372.434,377.013 415,341.5C 489.625,386.227 564.458,430.561 639.5,474.5 Z"/></g>
</svg>
