<?xml version="1.0" encoding="UTF-8"?>
<!DOCTYPE svg PUBLIC "-//W3C//DTD SVG 1.1//EN" "http://www.w3.org/Graphics/SVG/1.1/DTD/svg11.dtd">
<svg xmlns="http://www.w3.org/2000/svg" version="1.1" width="640px" height="480px" style="shape-rendering:geometricPrecision; text-rendering:geometricPrecision; image-rendering:optimizeQuality; fill-rule:evenodd; clip-rule:evenodd" xmlns:xlink="http://www.w3.org/1999/xlink">
<g><path style="opacity:1" fill="#081872" d="M -0.5,-0.5 C 212.833,-0.5 426.167,-0.5 639.5,-0.5C 639.5,79.8333 639.5,160.167 639.5,240.5C 564.833,240.5 490.167,240.5 415.5,240.5C 414.819,238.842 413.985,237.175 413,235.5C 412.243,237.315 411.41,238.981 410.5,240.5C 339.833,240.5 269.167,240.5 198.5,240.5C 196.88,234.19 195.547,234.19 194.5,240.5C 129.5,240.5 64.5,240.5 -0.5,240.5C -0.5,160.167 -0.5,79.8333 -0.5,-0.5 Z"/></g>
<g><path style="opacity:1" fill="#f6c712" d="M 301.5,153.5 C 304.198,159.243 306.531,165.243 308.5,171.5C 314.807,172.331 321.141,172.831 327.5,173C 322.667,176.5 317.833,180 313,183.5C 314.538,189.782 315.871,196.116 317,202.5C 312,198.833 307,195.167 302,191.5C 296.667,195.5 291.333,199.5 286,203.5C 287.392,197.313 289.225,191.146 291.5,185C 286.849,180.695 281.849,176.695 276.5,173C 282.859,172.831 289.193,172.331 295.5,171.5C 297.705,165.55 299.705,159.55 301.5,153.5 Z"/></g>
<g><path style="opacity:1" fill="#f6c712" d="M 234.5,175.5 C 237.198,181.243 239.531,187.243 241.5,193.5C 247.807,194.331 254.141,194.831 260.5,195C 255.192,198.645 250.192,202.645 245.5,207C 247.775,213.146 249.608,219.313 251,225.5C 245.667,221.5 240.333,217.5 235,213.5C 230,217.167 225,220.833 220,224.5C 221.129,218.116 222.462,211.782 224,205.5C 219.167,202 214.333,198.5 209.5,195C 215.833,194.667 222.167,194.333 228.5,194C 230.73,187.915 232.73,181.748 234.5,175.5 Z"/></g>
<g><path style="opacity:1" fill="#f6c712" d="M 368.5,176.5 C 371.276,182.499 373.276,188.833 374.5,195.5C 381.175,195.334 387.842,195.5 394.5,196C 389.051,199.711 384.051,203.878 379.5,208.5C 381.207,214.456 383.207,220.29 385.5,226C 385.167,226.167 384.833,226.333 384.5,226.5C 379.58,222.459 374.413,218.793 369,215.5C 363.402,218.761 358.069,222.428 353,226.5C 354.294,220.443 356.127,214.443 358.5,208.5C 353.749,203.62 348.416,199.454 342.5,196C 349.191,195.831 355.858,195.331 362.5,194.5C 364.711,188.535 366.711,182.535 368.5,176.5 Z"/></g>
<g><path style="opacity:1" fill="#fece17" d="M 198.5,240.5 C 199.425,244.942 200.758,249.275 202.5,253.5C 208.807,254.331 215.141,254.831 221.5,255C 216.334,258.673 211.334,262.506 206.5,266.5C 208.534,272.276 210.534,277.942 212.5,283.5C 211.652,284.625 210.652,284.625 209.5,283.5C 205.183,280.03 200.683,276.697 196,273.5C 191.672,276.732 187.506,280.066 183.5,283.5C 182.391,283.557 181.391,283.89 180.5,284.5C 180.5,284.167 180.5,283.833 180.5,283.5C 182.643,277.597 184.143,271.597 185,265.5C 180.167,262 175.333,258.5 170.5,255C 176.833,254.667 183.167,254.333 189.5,254C 191.269,249.527 192.935,245.027 194.5,240.5C 195.547,234.19 196.88,234.19 198.5,240.5 Z"/></g>
<g><path style="opacity:1" fill="#fece17" d="M 415.5,240.5 C 416.425,244.942 417.758,249.275 419.5,253.5C 425.807,254.331 432.141,254.831 438.5,255C 433.151,258.695 428.151,262.695 423.5,267C 425.235,272.713 427.235,278.213 429.5,283.5C 428.652,284.625 427.652,284.625 426.5,283.5C 422.183,280.03 417.683,276.697 413,273.5C 408.317,276.697 403.817,280.03 399.5,283.5C 398.348,284.625 397.348,284.625 396.5,283.5C 398.765,278.213 400.765,272.713 402.5,267C 402.241,265.739 401.574,264.739 400.5,264C 396.167,261 391.833,258 387.5,255C 393.833,254.667 400.167,254.333 406.5,254C 408.134,249.598 409.467,245.098 410.5,240.5C 411.41,238.981 412.243,237.315 413,235.5C 413.985,237.175 414.819,238.842 415.5,240.5 Z"/></g>
<g><path style="opacity:1" fill="#fdfdfe" d="M -0.5,240.5 C 64.5,240.5 129.5,240.5 194.5,240.5C 192.935,245.027 191.269,249.527 189.5,254C 183.167,254.333 176.833,254.667 170.5,255C 175.333,258.5 180.167,262 185,265.5C 184.143,271.597 182.643,277.597 180.5,283.5C 120.167,283.5 59.8333,283.5 -0.5,283.5C -0.5,269.167 -0.5,254.833 -0.5,240.5 Z"/></g>
<g><path style="opacity:1" fill="#fdfdfd" d="M 198.5,240.5 C 269.167,240.5 339.833,240.5 410.5,240.5C 409.467,245.098 408.134,249.598 406.5,254C 400.167,254.333 393.833,254.667 387.5,255C 391.833,258 396.167,261 400.5,264C 401.574,264.739 402.241,265.739 402.5,267C 400.765,272.713 398.765,278.213 396.5,283.5C 335.167,283.5 273.833,283.5 212.5,283.5C 210.534,277.942 208.534,272.276 206.5,266.5C 211.334,262.506 216.334,258.673 221.5,255C 215.141,254.831 208.807,254.331 202.5,253.5C 200.758,249.275 199.425,244.942 198.5,240.5 Z"/></g>
<g><path style="opacity:1" fill="#fdfdfe" d="M 415.5,240.5 C 490.167,240.5 564.833,240.5 639.5,240.5C 639.5,254.833 639.5,269.167 639.5,283.5C 569.5,283.5 499.5,283.5 429.5,283.5C 427.235,278.213 425.235,272.713 423.5,267C 428.151,262.695 433.151,258.695 438.5,255C 432.141,254.831 425.807,254.331 419.5,253.5C 417.758,249.275 416.425,244.942 415.5,240.5 Z"/></g>
<g><path style="opacity:1" fill="#fffefa" d="M 209.5,283.5 C 200.833,283.5 192.167,283.5 183.5,283.5C 187.506,280.066 191.672,276.732 196,273.5C 200.683,276.697 205.183,280.03 209.5,283.5 Z"/></g>
<g><path style="opacity:1" fill="#fffefa" d="M 426.5,283.5 C 417.5,283.5 408.5,283.5 399.5,283.5C 403.817,280.03 408.317,276.697 413,273.5C 417.683,276.697 422.183,280.03 426.5,283.5 Z"/></g>
<g><path style="opacity:1" fill="#ec8c82" d="M -0.5,283.5 C 59.8333,283.5 120.167,283.5 180.5,283.5C 180.5,283.833 180.5,284.167 180.5,284.5C 120.5,284.5 60.5,284.5 0.5,284.5C 0.5,296.5 0.5,308.5 0.5,320.5C 65.5,320.5 130.5,320.5 195.5,320.5C 195.5,320.833 195.5,321.167 195.5,321.5C 130.167,321.5 64.8333,321.5 -0.5,321.5C -0.5,308.833 -0.5,296.167 -0.5,283.5 Z"/></g>
<g><path style="opacity:1" fill="#de3c2c" d="M 183.5,283.5 C 192.167,283.5 200.833,283.5 209.5,283.5C 210.652,284.625 211.652,284.625 212.5,283.5C 273.833,283.5 335.167,283.5 396.5,283.5C 397.348,284.625 398.348,284.625 399.5,283.5C 408.5,283.5 417.5,283.5 426.5,283.5C 427.652,284.625 428.652,284.625 429.5,283.5C 499.5,283.5 569.5,283.5 639.5,283.5C 639.5,296.167 639.5,308.833 639.5,321.5C 565.5,321.5 491.5,321.5 417.5,321.5C 416.107,317.49 414.607,313.49 413,309.5C 411.766,313.715 410.266,317.715 408.5,321.5C 339.167,321.5 269.833,321.5 200.5,321.5C 199.325,314.245 197.658,313.912 195.5,320.5C 130.5,320.5 65.5,320.5 0.5,320.5C 0.5,308.5 0.5,296.5 0.5,284.5C 60.5,284.5 120.5,284.5 180.5,284.5C 181.391,283.89 182.391,283.557 183.5,283.5 Z"/></g>
<g><path style="opacity:1" fill="#ffce15" d="M 417.5,321.5 C 417.961,323.55 418.628,325.55 419.5,327.5C 425.807,328.331 432.141,328.831 438.5,329C 433.192,332.645 428.192,336.645 423.5,341C 425.85,346.698 427.35,352.531 428,358.5C 423,354.833 418,351.167 413,347.5C 407.667,351.5 402.333,355.5 397,359.5C 398.392,353.313 400.225,347.146 402.5,341C 397.808,336.645 392.808,332.645 387.5,329C 393.833,328.667 400.167,328.333 406.5,328C 407.669,325.993 408.335,323.827 408.5,321.5C 410.266,317.715 411.766,313.715 413,309.5C 414.607,313.49 416.107,317.49 417.5,321.5 Z"/></g>
<g><path style="opacity:1" fill="#fecf1c" d="M 200.5,321.5 C 201.535,325.439 202.869,329.272 204.5,333C 211.167,333.333 217.833,333.667 224.5,334C 218.999,338.007 213.666,342.173 208.5,346.5C 210.372,351.45 212.039,356.45 213.5,361.5C 213.328,362.492 213.662,363.158 214.5,363.5C 214.44,364.043 214.107,364.376 213.5,364.5C 212.482,363.807 211.482,363.141 210.5,362.5C 206.542,359.556 202.542,356.556 198.5,353.5C 194.074,356.034 190.074,359.034 186.5,362.5C 185.279,363.028 184.113,363.695 183,364.5C 182.536,363.906 182.369,363.239 182.5,362.5C 184.06,357.32 185.726,352.154 187.5,347C 183.452,342.468 178.785,338.634 173.5,335.5C 179.5,334.833 185.5,334.167 191.5,333.5C 193.003,329.659 194.336,325.659 195.5,321.5C 195.5,321.167 195.5,320.833 195.5,320.5C 197.658,313.912 199.325,314.245 200.5,321.5 Z"/></g>
<g><path style="opacity:1" fill="#fcfcfd" d="M -0.5,321.5 C 64.8333,321.5 130.167,321.5 195.5,321.5C 194.336,325.659 193.003,329.659 191.5,333.5C 184.825,333.334 178.158,333.5 171.5,334C 172.044,334.717 172.711,335.217 173.5,335.5C 178.785,338.634 183.452,342.468 187.5,347C 185.726,352.154 184.06,357.32 182.5,362.5C 121.833,362.5 61.1667,362.5 0.5,362.5C 0.829848,379.342 0.496515,396.008 -0.5,412.5C -0.5,382.167 -0.5,351.833 -0.5,321.5 Z"/></g>
<g><path style="opacity:1" fill="#fffefe" d="M 200.5,321.5 C 269.833,321.5 339.167,321.5 408.5,321.5C 408.335,323.827 407.669,325.993 406.5,328C 400.167,328.333 393.833,328.667 387.5,329C 392.808,332.645 397.808,336.645 402.5,341C 400.225,347.146 398.392,353.313 397,359.5C 402.333,355.5 407.667,351.5 413,347.5C 418,351.167 423,354.833 428,358.5C 427.35,352.531 425.85,346.698 423.5,341C 428.192,336.645 433.192,332.645 438.5,329C 432.141,328.831 425.807,328.331 419.5,327.5C 418.628,325.55 417.961,323.55 417.5,321.5C 491.5,321.5 565.5,321.5 639.5,321.5C 639.5,334.833 639.5,348.167 639.5,361.5C 497.5,361.5 355.5,361.5 213.5,361.5C 212.039,356.45 210.372,351.45 208.5,346.5C 213.666,342.173 218.999,338.007 224.5,334C 217.833,333.667 211.167,333.333 204.5,333C 202.869,329.272 201.535,325.439 200.5,321.5 Z"/></g>
<g><path style="opacity:1" fill="#ffe88e" d="M 191.5,333.5 C 185.5,334.167 179.5,334.833 173.5,335.5C 172.711,335.217 172.044,334.717 171.5,334C 178.158,333.5 184.825,333.334 191.5,333.5 Z"/></g>
<g><path style="opacity:1" fill="#f4f3f3" d="M 210.5,362.5 C 202.5,362.5 194.5,362.5 186.5,362.5C 190.074,359.034 194.074,356.034 198.5,353.5C 202.542,356.556 206.542,359.556 210.5,362.5 Z"/></g>
<g><path style="opacity:1" fill="#bfc3da" d="M 213.5,361.5 C 355.5,361.5 497.5,361.5 639.5,361.5C 639.5,361.833 639.5,362.167 639.5,362.5C 497.666,362.167 355.999,362.5 214.5,363.5C 213.662,363.158 213.328,362.492 213.5,361.5 Z"/></g>
<g><path style="opacity:0.999" fill="#081872" d="M 182.5,362.5 C 182.369,363.239 182.536,363.906 183,364.5C 184.113,363.695 185.279,363.028 186.5,362.5C 194.5,362.5 202.5,362.5 210.5,362.5C 211.482,363.141 212.482,363.807 213.5,364.5C 214.107,364.376 214.44,364.043 214.5,363.5C 355.999,362.5 497.666,362.167 639.5,362.5C 639.5,401.5 639.5,440.5 639.5,479.5C 426.167,479.5 212.833,479.5 -0.5,479.5C -0.5,457.167 -0.5,434.833 -0.5,412.5C 0.496515,396.008 0.829848,379.342 0.5,362.5C 61.1667,362.5 121.833,362.5 182.5,362.5 Z"/></g>
<g><path style="opacity:1" fill="#f7c811" d="M 379.5,393.5 C 385.5,394.167 391.5,394.833 397.5,395.5C 392.462,398.687 387.795,402.353 383.5,406.5C 385.693,412.693 387.36,418.693 388.5,424.5C 383.322,421.078 378.322,417.411 373.5,413.5C 368.362,416.805 363.362,420.305 358.5,424C 357.833,424.667 357.167,424.667 356.5,424C 358.794,418.284 360.794,412.451 362.5,406.5C 358.205,402.353 353.538,398.687 348.5,395.5C 355.065,395.149 361.399,394.149 367.5,392.5C 368.842,386.642 370.675,380.976 373,375.5C 375.299,381.571 377.465,387.571 379.5,393.5 Z"/></g>
<g><path style="opacity:1" fill="#f5c612" d="M 244.5,393.5 C 250.5,394.167 256.5,394.833 262.5,395.5C 257.825,399.169 253.158,402.836 248.5,406.5C 251.068,412.499 252.735,418.499 253.5,424.5C 248.678,420.589 243.678,416.922 238.5,413.5C 233.194,416.972 228.028,420.639 223,424.5C 224.058,418.64 225.558,412.806 227.5,407C 227.167,406.167 226.833,405.333 226.5,404.5C 221.654,401.243 216.988,397.743 212.5,394C 219.158,393.5 225.825,393.334 232.5,393.5C 234.023,387.428 235.857,381.428 238,375.5C 240.656,381.299 242.823,387.299 244.5,393.5 Z"/></g>
<g><path style="opacity:1" fill="#9a8533" d="M 244.5,393.5 C 251.175,393.334 257.842,393.5 264.5,394C 263.956,394.717 263.289,395.217 262.5,395.5C 256.5,394.833 250.5,394.167 244.5,393.5 Z"/></g>
<g><path style="opacity:1" fill="#9b8534" d="M 367.5,392.5 C 361.399,394.149 355.065,395.149 348.5,395.5C 347.711,395.217 347.044,394.717 346.5,394C 353.579,393.797 360.579,393.297 367.5,392.5 Z"/></g>
<g><path style="opacity:1" fill="#968136" d="M 379.5,393.5 C 386.175,393.334 392.842,393.5 399.5,394C 398.956,394.717 398.289,395.217 397.5,395.5C 391.5,394.833 385.5,394.167 379.5,393.5 Z"/></g>
<g><path style="opacity:1" fill="#f7c811" d="M 307.5,412.5 C 313.601,414.149 319.935,415.149 326.5,415.5C 321.462,418.687 316.795,422.353 312.5,426.5C 315.099,432.578 316.766,438.578 317.5,444.5C 312.228,440.951 307.062,437.284 302,433.5C 297.177,436.985 292.344,440.485 287.5,444C 286.833,444.667 286.167,444.667 285.5,444C 287.794,438.284 289.794,432.451 291.5,426.5C 287.205,422.353 282.538,418.687 277.5,415.5C 283.5,414.833 289.5,414.167 295.5,413.5C 297.573,407.446 299.74,401.446 302,395.5C 304.34,401.019 306.173,406.686 307.5,412.5 Z"/></g>
<g><path style="opacity:1" fill="#88763c" d="M 295.5,413.5 C 289.5,414.167 283.5,414.833 277.5,415.5C 276.711,415.217 276.044,414.717 275.5,414C 282.158,413.5 288.825,413.334 295.5,413.5 Z"/></g>
<g><path style="opacity:1" fill="#8d7a3a" d="M 307.5,412.5 C 314.421,413.297 321.421,413.797 328.5,414C 327.956,414.717 327.289,415.217 326.5,415.5C 319.935,415.149 313.601,414.149 307.5,412.5 Z"/></g>
</svg>
