<?xml version="1.0" encoding="UTF-8"?>
<!DOCTYPE svg PUBLIC "-//W3C//DTD SVG 1.1//EN" "http://www.w3.org/Graphics/SVG/1.1/DTD/svg11.dtd">
<svg xmlns="http://www.w3.org/2000/svg" version="1.1" width="640px" height="480px" style="shape-rendering:geometricPrecision; text-rendering:geometricPrecision; image-rendering:optimizeQuality; fill-rule:evenodd; clip-rule:evenodd" xmlns:xlink="http://www.w3.org/1999/xlink">
<g><path style="opacity:1" fill="#007a5d" d="M -0.5,-0.5 C 70.5,-0.5 141.5,-0.5 212.5,-0.5C 212.5,159.5 212.5,319.5 212.5,479.5C 141.5,479.5 70.5,479.5 -0.5,479.5C -0.5,319.5 -0.5,159.5 -0.5,-0.5 Z"/></g>
<g><path style="opacity:1" fill="#cd1226" d="M 212.5,-0.5 C 283.833,-0.5 355.167,-0.5 426.5,-0.5C 426.5,159.5 426.5,319.5 426.5,479.5C 355.167,479.5 283.833,479.5 212.5,479.5C 212.5,319.5 212.5,159.5 212.5,-0.5 Z"/></g>
<g><path style="opacity:1" fill="#fbd115" d="M 426.5,-0.5 C 497.5,-0.5 568.5,-0.5 639.5,-0.5C 639.5,159.5 639.5,319.5 639.5,479.5C 568.5,479.5 497.5,479.5 426.5,479.5C 426.5,319.5 426.5,159.5 426.5,-0.5 Z"/></g>
<g><path style="opacity:1" fill="#fbcf16" d="M 332.5,221.5 C 345.5,222.167 358.5,222.833 371.5,223.5C 360.743,230.867 350.41,238.7 340.5,247C 345.166,259.469 348.833,271.969 351.5,284.5C 340.833,276.833 330.167,269.167 319.5,261.5C 308.833,269.167 298.167,276.833 287.5,284.5C 290.167,271.969 293.834,259.469 298.5,247C 288.633,238.643 278.299,230.81 267.5,223.5C 281.031,223.16 294.365,222.16 307.5,220.5C 311.094,208.05 315.094,195.717 319.5,183.5C 323.841,196.189 328.174,208.856 332.5,221.5 Z"/></g>
<g><path style="opacity:1" fill="#ec911b" d="M 307.5,220.5 C 294.365,222.16 281.031,223.16 267.5,223.5C 266.711,223.217 266.044,222.717 265.5,222C 279.575,221.816 293.575,221.316 307.5,220.5 Z"/></g>
<g><path style="opacity:1" fill="#eb8b1b" d="M 332.5,221.5 C 346.171,221.333 359.837,221.5 373.5,222C 372.956,222.717 372.289,223.217 371.5,223.5C 358.5,222.833 345.5,222.167 332.5,221.5 Z"/></g>
</svg>
