<?xml version="1.0" encoding="UTF-8"?>
<!DOCTYPE svg PUBLIC "-//W3C//DTD SVG 1.1//EN" "http://www.w3.org/Graphics/SVG/1.1/DTD/svg11.dtd">
<svg xmlns="http://www.w3.org/2000/svg" version="1.1" width="640px" height="480px" style="shape-rendering:geometricPrecision; text-rendering:geometricPrecision; image-rendering:optimizeQuality; fill-rule:evenodd; clip-rule:evenodd" xmlns:xlink="http://www.w3.org/1999/xlink">
<g><path style="opacity:1" fill="#d42b1d" d="M -0.5,-0.5 C 49.5,-0.5 99.5,-0.5 149.5,-0.5C 149.5,159.5 149.5,319.5 149.5,479.5C 99.5,479.5 49.5,479.5 -0.5,479.5C -0.5,319.5 -0.5,159.5 -0.5,-0.5 Z"/></g>
<g><path style="opacity:1" fill="#fefefe" d="M 149.5,-0.5 C 262.833,-0.5 376.167,-0.5 489.5,-0.5C 489.5,159.5 489.5,319.5 489.5,479.5C 376.167,479.5 262.833,479.5 149.5,479.5C 149.5,319.5 149.5,159.5 149.5,-0.5 Z"/></g>
<g><path style="opacity:1" fill="#d42b1d" d="M 489.5,-0.5 C 539.5,-0.5 589.5,-0.5 639.5,-0.5C 639.5,159.5 639.5,319.5 639.5,479.5C 589.5,479.5 539.5,479.5 489.5,479.5C 489.5,319.5 489.5,159.5 489.5,-0.5 Z"/></g>
<g><path style="opacity:1" fill="#d52c1e" d="M 323.5,307.5 C 322.081,306.549 320.415,306.216 318.5,306.5C 318.216,308.415 318.549,310.081 319.5,311.5C 320.056,332.171 320.722,352.837 321.5,373.5C 317.167,373.5 312.833,373.5 308.5,373.5C 308.59,351.162 308.923,328.829 309.5,306.5C 287.544,309.728 265.544,312.228 243.5,314C 246.046,310.41 248.213,306.577 250,302.5C 250.767,298.406 250.434,294.406 249,290.5C 228.782,271.981 208.282,253.814 187.5,236C 192.636,234.404 197.469,232.237 202,229.5C 202.667,224.5 202.667,219.5 202,214.5C 198.431,204.129 195.098,193.796 192,183.5C 199.42,185.897 206.92,188.064 214.5,190C 220.675,192.786 226.175,191.952 231,187.5C 233.343,182.14 236.176,177.14 239.5,172.5C 249.824,183.792 260.157,195.125 270.5,206.5C 272.371,207.767 274.204,207.767 276,206.5C 276.667,203.167 276.667,199.833 276,196.5C 271.804,174.377 267.971,152.377 264.5,130.5C 271.671,134.92 279.004,139.086 286.5,143C 287.833,143.667 289.167,143.667 290.5,143C 298.524,127.12 306.691,111.286 315,95.5C 323.039,111.079 331.206,126.579 339.5,142C 341.167,142.667 342.833,142.667 344.5,142C 351.5,138.167 358.5,134.333 365.5,130.5C 365.833,131.167 366.167,131.833 366.5,132.5C 360.511,156.939 356.011,181.606 353,206.5C 354.726,207.576 356.559,207.743 358.5,207C 368.644,195.023 379.31,183.523 390.5,172.5C 393.789,178.914 397.456,185.081 401.5,191C 413.643,190.871 425.31,188.371 436.5,183.5C 436.833,184.167 437.167,184.833 437.5,185.5C 435.102,195.195 432.602,204.861 430,214.5C 429.333,219.5 429.333,224.5 430,229.5C 430.374,230.416 430.874,231.25 431.5,232C 435.172,233.503 438.838,235.003 442.5,236.5C 422.352,253.738 402.018,270.738 381.5,287.5C 378.469,296.934 379.802,305.768 385.5,314C 364.826,312.166 344.16,310 323.5,307.5 Z"/></g>
<g><path style="opacity:1" fill="#eda49e" d="M 323.5,307.5 C 322.167,307.5 320.833,307.5 319.5,307.5C 319.5,308.833 319.5,310.167 319.5,311.5C 318.549,310.081 318.216,308.415 318.5,306.5C 320.415,306.216 322.081,306.549 323.5,307.5 Z"/></g>
</svg>
