<?xml version="1.0" encoding="UTF-8"?>
<!DOCTYPE svg PUBLIC "-//W3C//DTD SVG 1.1//EN" "http://www.w3.org/Graphics/SVG/1.1/DTD/svg11.dtd">
<svg xmlns="http://www.w3.org/2000/svg" version="1.1" width="640px" height="480px" style="shape-rendering:geometricPrecision; text-rendering:geometricPrecision; image-rendering:optimizeQuality; fill-rule:evenodd; clip-rule:evenodd" xmlns:xlink="http://www.w3.org/1999/xlink">
<g><path style="opacity:1" fill="#8e949b" d="M 263.5,0.5 C 263.5,0.166667 263.5,-0.166667 263.5,-0.5C 388.833,-0.5 514.167,-0.5 639.5,-0.5C 639.5,-0.166667 639.5,0.166667 639.5,0.5C 638.833,0.833333 638.167,1.16667 637.5,1.5C 513.668,0.500451 389.668,0.167117 265.5,0.5C 264.833,0.5 264.167,0.5 263.5,0.5 Z"/></g>
<g><path style="opacity:1" fill="#cbb53b" d="M -0.5,-0.5 C 87.5,-0.5 175.5,-0.5 263.5,-0.5C 263.5,-0.166667 263.5,0.166667 263.5,0.5C 262.1,1.09982 261.1,2.09982 260.5,3.5C 173.84,1.5026 86.8397,0.835932 -0.5,1.5C -0.5,0.833333 -0.5,0.166667 -0.5,-0.5 Z"/></g>
<g><path style="opacity:1" fill="#e9f0f2" d="M 265.5,0.5 C 389.668,0.167117 513.668,0.500451 637.5,1.5C 635.142,3.52927 632.808,5.52927 630.5,7.5C 625.5,10.8333 620.5,14.1667 615.5,17.5C 617.268,16.0693 617.935,14.4027 617.5,12.5C 622.068,11.6834 625.402,9.18342 627.5,5C 630.003,4.87064 632.003,3.87064 633.5,2C 510.666,1.8331 387.999,1.3331 265.5,0.5 Z"/></g>
<g><path style="opacity:1" fill="#fdfefd" d="M 263.5,0.5 C 264.167,0.5 264.833,0.5 265.5,0.5C 387.999,1.3331 510.666,1.8331 633.5,2C 632.003,3.87064 630.003,4.87064 627.5,5C 625.402,9.18342 622.068,11.6834 617.5,12.5C 617.935,14.4027 617.268,16.0693 615.5,17.5C 612.833,19.8333 610.167,22.1667 607.5,24.5C 591.193,36.1467 575.193,48.1467 559.5,60.5C 554.214,63.7875 549.214,67.4542 544.5,71.5C 538.615,75.6023 532.948,79.9356 527.5,84.5C 522.587,87.1183 518.254,90.4516 514.5,94.5C 502.617,102.935 490.95,111.601 479.5,120.5C 473.77,124.025 468.437,128.025 463.5,132.5C 457.86,136.147 452.527,140.147 447.5,144.5C 444.545,146.122 441.878,148.122 439.5,150.5C 434.254,153.411 429.587,157.078 425.5,161.5C 416.267,167.067 407.6,173.401 399.5,180.5C 391.212,186.122 383.212,192.122 375.5,198.5C 372.478,200.211 369.811,202.211 367.5,204.5C 361.77,208.025 356.437,212.025 351.5,216.5C 343.193,222.147 335.193,228.147 327.5,234.5C 303.193,252.147 279.193,270.147 255.5,288.5C 249.878,292.122 244.545,296.122 239.5,300.5C 209.258,322.115 179.591,344.449 150.5,367.5C 142.546,372.788 134.88,378.455 127.5,384.5C 121.86,388.147 116.527,392.147 111.5,396.5C 105.878,400.122 100.545,404.122 95.5,408.5C 89.4126,411.539 84.0792,415.539 79.5,420.5C 65.5259,430.48 51.8592,440.814 38.5,451.5C 25.594,460.072 13.2606,469.406 1.5,479.5C 0.833333,479.5 0.166667,479.5 -0.5,479.5C -0.5,385.833 -0.5,292.167 -0.5,198.5C 1.98778,198.317 3.98778,197.317 5.5,195.5C 8.42735,194.243 10.7607,192.243 12.5,189.5C 13.7095,189.068 14.7095,188.401 15.5,187.5C 18.5162,186.657 21.1829,185.157 23.5,183C 24.2524,182.329 24.5858,181.496 24.5,180.5C 25.1667,180.5 25.8333,180.5 26.5,180.5C 28.5,179.167 30.1667,177.5 31.5,175.5C 38.5777,169.747 45.911,164.413 53.5,159.5C 56.378,157.203 59.7114,155.87 63.5,155.5C 63.5,154.5 63.5,153.5 63.5,152.5C 66.3537,150.491 69.3537,148.657 72.5,147C 73.2524,146.329 73.5858,145.496 73.5,144.5C 76.7916,144.88 79.1249,143.547 80.5,140.5C 81.7678,141.428 83.1011,141.595 84.5,141C 83.4829,139.951 83.3162,138.784 84,137.5C 86.3284,136.336 88.1618,134.67 89.5,132.5C 93.7168,128.577 98.3834,125.243 103.5,122.5C 110.238,118.987 115.904,114.321 120.5,108.5C 122.64,106.542 124.973,104.875 127.5,103.5C 128.552,103.649 129.552,103.483 130.5,103C 135.059,97.4808 140.726,94.8141 147.5,95C 148.601,92.5279 149.601,90.0279 150.5,87.5C 155.167,83.8333 159.833,80.1667 164.5,76.5C 166.023,73.6356 168.357,71.969 171.5,71.5C 172.922,71.2504 173.922,70.417 174.5,69C 176.134,68.5065 177.801,68.3398 179.5,68.5C 179.5,67.1667 179.5,65.8333 179.5,64.5C 180.873,64.6567 182.207,64.49 183.5,64C 185.679,61.4891 188.179,59.3224 191,57.5C 191.507,58.9961 191.007,60.1627 189.5,61C 195.638,61.4315 198.304,58.5981 197.5,52.5C 199.473,51.194 201.139,49.5273 202.5,47.5C 204.848,47.4077 206.514,46.4077 207.5,44.5C 210.089,43.5806 212.089,41.914 213.5,39.5C 214.478,36.6752 216.478,35.3419 219.5,35.5C 222.248,33.9562 225.248,33.2895 228.5,33.5C 228.166,30.812 228.832,28.4786 230.5,26.5C 234.9,24.2893 239.567,22.7893 244.5,22C 245.406,20.3005 245.739,18.4672 245.5,16.5C 247.895,17.3635 250.229,17.3635 252.5,16.5C 251.689,15.7836 251.022,14.9503 250.5,14C 251.429,12.9231 252.096,11.7564 252.5,10.5C 255.069,8.01358 257.736,5.68025 260.5,3.5C 261.1,2.09982 262.1,1.09982 263.5,0.5 Z"/></g>
<g><path style="opacity:1" fill="#112c7a" d="M 630.5,7.5 C 630.167,10.5 631.5,11.8333 634.5,11.5C 634.5,12.5 634.5,13.5 634.5,14.5C 631.824,13.9919 629.157,13.8253 626.5,14C 625.359,14.7412 625.359,15.5745 626.5,16.5C 626,16.8333 625.5,17.1667 625,17.5C 623.943,16.3726 622.777,15.8726 621.5,16C 618.704,21.9711 614.037,24.8044 607.5,24.5C 610.167,22.1667 612.833,19.8333 615.5,17.5C 620.5,14.1667 625.5,10.8333 630.5,7.5 Z"/></g>
<g><path style="opacity:1" fill="#002984" d="M 639.5,0.5 C 639.5,160.167 639.5,319.833 639.5,479.5C 426.833,479.5 214.167,479.5 1.5,479.5C 13.2606,469.406 25.594,460.072 38.5,451.5C 41.8819,451.274 44.8819,450.274 47.5,448.5C 47.5,447.5 47.5,446.5 47.5,445.5C 49.288,445.785 50.9547,445.452 52.5,444.5C 54.5198,440.981 57.5198,438.814 61.5,438C 63.0368,436.89 63.7035,435.39 63.5,433.5C 66.2469,433.813 68.9135,433.48 71.5,432.5C 70.018,428.785 71.3513,426.619 75.5,426C 77.0764,424.27 78.4097,422.437 79.5,420.5C 83.8514,421.467 86.1847,419.8 86.5,415.5C 87.8734,415.657 89.2068,415.49 90.5,415C 91.5089,412.828 93.1756,411.662 95.5,411.5C 95.5,410.5 95.5,409.5 95.5,408.5C 100.012,408.081 103.345,405.915 105.5,402C 106.793,401.51 108.127,401.343 109.5,401.5C 109.392,399.486 110.058,397.82 111.5,396.5C 116.527,392.147 121.86,388.147 127.5,384.5C 129.924,383.97 132.257,383.136 134.5,382C 135.833,381.333 135.833,380.667 134.5,380C 141.695,378.315 147.028,374.148 150.5,367.5C 179.591,344.449 209.258,322.115 239.5,300.5C 241.086,299.587 242.586,299.587 244,300.5C 248.291,296.807 252.124,292.807 255.5,288.5C 279.193,270.147 303.193,252.147 327.5,234.5C 330.308,234.307 332.975,233.64 335.5,232.5C 335.5,231.5 335.5,230.5 335.5,229.5C 337.5,229.5 339.5,229.5 341.5,229.5C 341.351,228.448 341.517,227.448 342,226.5C 344.57,224.131 347.404,222.131 350.5,220.5C 351.429,219.311 351.762,217.978 351.5,216.5C 355.119,216.956 357.452,215.456 358.5,212C 361.626,211.01 364.626,209.844 367.5,208.5C 367.5,207.167 367.5,205.833 367.5,204.5C 369.811,202.211 372.478,200.211 375.5,198.5C 376.873,198.657 378.207,198.49 379.5,198C 385.449,193.02 391.782,188.52 398.5,184.5C 399.429,183.311 399.762,181.978 399.5,180.5C 407.6,173.401 416.267,167.067 425.5,161.5C 428.204,160.368 430.871,159.035 433.5,157.5C 435.59,159.106 437.924,159.606 440.5,159C 440.957,158.586 441.291,158.086 441.5,157.5C 437.321,155.955 436.655,153.622 439.5,150.5C 443.425,149.9 446.092,147.9 447.5,144.5C 448.873,144.657 450.207,144.49 451.5,144C 452.807,141.676 454.807,140.343 457.5,140C 459.241,138.38 461.075,136.88 463,135.5C 463.483,134.552 463.649,133.552 463.5,132.5C 465.924,131.97 468.257,131.136 470.5,130C 474.366,127.634 477.366,124.467 479.5,120.5C 490.95,111.601 502.617,102.935 514.5,94.5C 517.825,94.506 520.159,93.006 521.5,90C 524.711,89.2676 526.711,87.4343 527.5,84.5C 532.948,79.9356 538.615,75.6023 544.5,71.5C 548.946,71.1066 552.279,68.94 554.5,65C 556.025,63.9914 557.692,63.4914 559.5,63.5C 559.5,62.5 559.5,61.5 559.5,60.5C 575.193,48.1467 591.193,36.1467 607.5,24.5C 614.037,24.8044 618.704,21.9711 621.5,16C 622.777,15.8726 623.943,16.3726 625,17.5C 625.5,17.1667 626,16.8333 626.5,16.5C 625.359,15.5745 625.359,14.7412 626.5,14C 629.157,13.8253 631.824,13.9919 634.5,14.5C 634.5,13.5 634.5,12.5 634.5,11.5C 631.5,11.8333 630.167,10.5 630.5,7.5C 632.808,5.52927 635.142,3.52927 637.5,1.5C 638.167,1.16667 638.833,0.833333 639.5,0.5 Z"/></g>
<g><path style="opacity:1" fill="#f8d910" d="M -0.5,1.5 C 86.8397,0.835932 173.84,1.5026 260.5,3.5C 257.736,5.68025 255.069,8.01358 252.5,10.5C 248.815,11.6804 245.815,13.8471 243.5,17C 242.207,17.49 240.873,17.6567 239.5,17.5C 239.719,18.675 239.386,19.675 238.5,20.5C 235.407,22.0343 232.74,24.0343 230.5,26.5C 227.667,28.4779 224.667,30.3112 221.5,32C 220.695,33.1127 220.028,34.2794 219.5,35.5C 216.478,35.3419 214.478,36.6752 213.5,39.5C 210.865,40.4735 208.865,42.1402 207.5,44.5C 205.326,44.7497 203.659,45.7497 202.5,47.5C 200.405,48.412 198.405,49.5787 196.5,51C 195.748,51.6708 195.414,52.5041 195.5,53.5C 194.167,53.5 192.833,53.5 191.5,53.5C 191.719,54.675 191.386,55.675 190.5,56.5C 186.589,58.9434 182.922,61.6101 179.5,64.5C 177.692,65.9073 175.692,67.074 173.5,68C 172.177,68.8159 171.511,69.9826 171.5,71.5C 168.357,71.969 166.023,73.6356 164.5,76.5C 158.736,79.7482 153.069,83.2482 147.5,87C 146.748,87.6708 146.414,88.5041 146.5,89.5C 145.5,89.5 144.5,89.5 143.5,89.5C 143.719,90.675 143.386,91.675 142.5,92.5C 137.177,95.8368 132.177,99.5035 127.5,103.5C 124.973,104.875 122.64,106.542 120.5,108.5C 114.171,112.479 108.504,117.146 103.5,122.5C 98.3834,125.243 93.7168,128.577 89.5,132.5C 85.402,134.749 81.402,137.249 77.5,140C 76.2668,141.667 74.9335,143.167 73.5,144.5C 69.2822,146.05 65.9489,148.717 63.5,152.5C 59.1559,153.343 55.8226,155.676 53.5,159.5C 45.911,164.413 38.5777,169.747 31.5,175.5C 27.5,174.833 25.8333,176.5 26.5,180.5C 25.8333,180.5 25.1667,180.5 24.5,180.5C 21.1403,182.545 18.1403,184.878 15.5,187.5C 14.7095,188.401 13.7095,189.068 12.5,189.5C 10.8828,190.038 9.2161,190.371 7.5,190.5C 7.60849,192.514 6.94183,194.18 5.5,195.5C 3.98778,197.317 1.98778,198.317 -0.5,198.5C -0.5,132.833 -0.5,67.1667 -0.5,1.5 Z"/></g>
<g><path style="opacity:1" fill="#fcfbdc" d="M 252.5,10.5 C 252.096,11.7564 251.429,12.9231 250.5,14C 251.022,14.9503 251.689,15.7836 252.5,16.5C 250.229,17.3635 247.895,17.3635 245.5,16.5C 245.739,18.4672 245.406,20.3005 244.5,22C 239.567,22.7893 234.9,24.2893 230.5,26.5C 232.74,24.0343 235.407,22.0343 238.5,20.5C 239.386,19.675 239.719,18.675 239.5,17.5C 240.873,17.6567 242.207,17.49 243.5,17C 245.815,13.8471 248.815,11.6804 252.5,10.5 Z"/></g>
<g><path style="opacity:1" fill="#fef7ca" d="M 230.5,26.5 C 228.832,28.4786 228.166,30.812 228.5,33.5C 225.248,33.2895 222.248,33.9562 219.5,35.5C 220.028,34.2794 220.695,33.1127 221.5,32C 224.667,30.3112 227.667,28.4779 230.5,26.5 Z"/></g>
<g><path style="opacity:1" fill="#fcf5b0" d="M 213.5,39.5 C 212.089,41.914 210.089,43.5806 207.5,44.5C 208.865,42.1402 210.865,40.4735 213.5,39.5 Z"/></g>
<g><path style="opacity:1" fill="#fcf7aa" d="M 207.5,44.5 C 206.514,46.4077 204.848,47.4077 202.5,47.5C 203.659,45.7497 205.326,44.7497 207.5,44.5 Z"/></g>
<g><path style="opacity:1" fill="#f9f29e" d="M 202.5,47.5 C 201.139,49.5273 199.473,51.194 197.5,52.5C 196.833,52.8333 196.167,53.1667 195.5,53.5C 195.414,52.5041 195.748,51.6708 196.5,51C 198.405,49.5787 200.405,48.412 202.5,47.5 Z"/></g>
<g><path style="opacity:1" fill="#fcfae3" d="M 197.5,52.5 C 198.304,58.5981 195.638,61.4315 189.5,61C 191.007,60.1627 191.507,58.9961 191,57.5C 188.179,59.3224 185.679,61.4891 183.5,64C 182.207,64.49 180.873,64.6567 179.5,64.5C 182.922,61.6101 186.589,58.9434 190.5,56.5C 191.386,55.675 191.719,54.675 191.5,53.5C 192.833,53.5 194.167,53.5 195.5,53.5C 196.167,53.1667 196.833,52.8333 197.5,52.5 Z"/></g>
<g><path style="opacity:1" fill="#263878" d="M 559.5,60.5 C 559.5,61.5 559.5,62.5 559.5,63.5C 557.692,63.4914 556.025,63.9914 554.5,65C 552.279,68.94 548.946,71.1066 544.5,71.5C 549.214,67.4542 554.214,63.7875 559.5,60.5 Z"/></g>
<g><path style="opacity:1" fill="#fdf2a6" d="M 179.5,64.5 C 179.5,65.8333 179.5,67.1667 179.5,68.5C 177.801,68.3398 176.134,68.5065 174.5,69C 173.922,70.417 172.922,71.2504 171.5,71.5C 171.511,69.9826 172.177,68.8159 173.5,68C 175.692,67.074 177.692,65.9073 179.5,64.5 Z"/></g>
<g><path style="opacity:1" fill="#f9f090" d="M 164.5,76.5 C 159.833,80.1667 155.167,83.8333 150.5,87.5C 148.938,87.7329 147.605,88.3995 146.5,89.5C 146.414,88.5041 146.748,87.6708 147.5,87C 153.069,83.2482 158.736,79.7482 164.5,76.5 Z"/></g>
<g><path style="opacity:1" fill="#203375" d="M 527.5,84.5 C 526.711,87.4343 524.711,89.2676 521.5,90C 520.159,93.006 517.825,94.506 514.5,94.5C 518.254,90.4516 522.587,87.1183 527.5,84.5 Z"/></g>
<g><path style="opacity:1" fill="#090909" d="M 194.5,307.5 C 191.848,307.41 189.515,308.076 187.5,309.5C 183.934,316.964 180.101,324.297 176,331.5C 171.912,324.324 168.078,316.991 164.5,309.5C 128.776,301.951 104.609,280.951 92,246.5C 89.5166,237.9 87.3499,229.233 85.5,220.5C 78.6652,216.584 71.9985,212.417 65.5,208C 71.9939,203.252 78.6606,198.752 85.5,194.5C 91.6793,152.51 114.346,123.676 153.5,108C 157.179,107.213 160.846,106.379 164.5,105.5C 168.078,98.0091 171.912,90.6758 176,83.5C 180.118,90.7386 183.952,98.0719 187.5,105.5C 233.624,117.967 259.958,147.967 266.5,195.5C 273.335,199.416 280.002,203.583 286.5,208C 279.667,212.167 272.833,216.333 266,220.5C 261.263,257.864 242.43,285.364 209.5,303C 204.583,304.806 199.583,306.306 194.5,307.5 Z"/></g>
<g><path style="opacity:1" fill="#fcfad5" d="M 150.5,87.5 C 149.601,90.0279 148.601,92.5279 147.5,95C 140.726,94.8141 135.059,97.4808 130.5,103C 129.552,103.483 128.552,103.649 127.5,103.5C 132.177,99.5035 137.177,95.8368 142.5,92.5C 143.386,91.675 143.719,90.675 143.5,89.5C 144.5,89.5 145.5,89.5 146.5,89.5C 147.605,88.3995 148.938,87.7329 150.5,87.5 Z"/></g>
<g><path style="opacity:1" fill="#fbf5a5" d="M 120.5,108.5 C 115.904,114.321 110.238,118.987 103.5,122.5C 108.504,117.146 114.171,112.479 120.5,108.5 Z"/></g>
<g><path style="opacity:1" fill="#595959" d="M 183.5,118.5 C 176.132,118.317 168.799,118.65 161.5,119.5C 162.263,118.732 163.263,118.232 164.5,118C 171.014,117.18 177.347,117.347 183.5,118.5 Z"/></g>
<g><path style="opacity:1" fill="#fcfbfb" d="M 183.5,118.5 C 214.891,124.031 236.724,141.698 249,171.5C 262.63,212.468 254.463,248.301 224.5,279C 195.843,301.249 165.843,303.249 134.5,285C 103.815,259.631 91.6486,227.131 98,187.5C 104.429,157.75 121.262,136.25 148.5,123C 152.732,121.388 157.066,120.221 161.5,119.5C 168.799,118.65 176.132,118.317 183.5,118.5 Z"/></g>
<g><path style="opacity:1" fill="#203375" d="M 479.5,120.5 C 477.366,124.467 474.366,127.634 470.5,130C 468.257,131.136 465.924,131.97 463.5,132.5C 468.437,128.025 473.77,124.025 479.5,120.5 Z"/></g>
<g><path style="opacity:1" fill="#fef7c8" d="M 89.5,132.5 C 88.1618,134.67 86.3284,136.336 84,137.5C 83.3162,138.784 83.4829,139.951 84.5,141C 83.1011,141.595 81.7678,141.428 80.5,140.5C 79.1249,143.547 76.7916,144.88 73.5,144.5C 74.9335,143.167 76.2668,141.667 77.5,140C 81.402,137.249 85.402,134.749 89.5,132.5 Z"/></g>
<g><path style="opacity:1" fill="#1c3471" d="M 463.5,132.5 C 463.649,133.552 463.483,134.552 463,135.5C 461.075,136.88 459.241,138.38 457.5,140C 454.807,140.343 452.807,141.676 451.5,144C 450.207,144.49 448.873,144.657 447.5,144.5C 452.527,140.147 457.86,136.147 463.5,132.5 Z"/></g>
<g><path style="opacity:1" fill="#263974" d="M 447.5,144.5 C 446.092,147.9 443.425,149.9 439.5,150.5C 441.878,148.122 444.545,146.122 447.5,144.5 Z"/></g>
<g><path style="opacity:1" fill="#fcf4a8" d="M 73.5,144.5 C 73.5858,145.496 73.2524,146.329 72.5,147C 69.3537,148.657 66.3537,150.491 63.5,152.5C 65.9489,148.717 69.2822,146.05 73.5,144.5 Z"/></g>
<g><path style="opacity:1" fill="#15307b" d="M 439.5,150.5 C 436.655,153.622 437.321,155.955 441.5,157.5C 441.291,158.086 440.957,158.586 440.5,159C 437.924,159.606 435.59,159.106 433.5,157.5C 430.871,159.035 428.204,160.368 425.5,161.5C 429.587,157.078 434.254,153.411 439.5,150.5 Z"/></g>
<g><path style="opacity:1" fill="#bf3b41" d="M 177.5,151.5 C 174.261,154.983 171.261,158.65 168.5,162.5C 170.459,157.248 172.959,152.248 176,147.5C 176.791,148.745 177.291,150.078 177.5,151.5 Z"/></g>
<g><path style="opacity:1" fill="#fcf5ae" d="M 63.5,152.5 C 63.5,153.5 63.5,154.5 63.5,155.5C 59.7114,155.87 56.378,157.203 53.5,159.5C 55.8226,155.676 59.1559,153.343 63.5,152.5 Z"/></g>
<g><path style="opacity:1" fill="#c13f41" d="M 179.5,155.5 C 183.058,160.817 186.058,166.484 188.5,172.5C 186.409,170.52 184.576,168.186 183,165.5C 180.985,162.469 179.819,159.136 179.5,155.5 Z"/></g>
<g><path style="opacity:1" fill="#facdc6" d="M 164.5,169.5 C 163.18,172.14 161.847,174.807 160.5,177.5C 150.5,177.5 140.5,177.5 130.5,177.5C 139.986,176.506 149.652,176.173 159.5,176.5C 160.126,173.393 161.792,171.06 164.5,169.5 Z"/></g>
<g><path style="opacity:1" fill="#f4e476" d="M 31.5,175.5 C 30.1667,177.5 28.5,179.167 26.5,180.5C 25.8333,176.5 27.5,174.833 31.5,175.5 Z"/></g>
<g><path style="opacity:1" fill="#c85356" d="M 130.5,177.5 C 140.5,177.5 150.5,177.5 160.5,177.5C 151.348,178.494 142.015,178.827 132.5,178.5C 132.5,179.833 132.5,181.167 132.5,182.5C 131.069,181.22 130.402,179.553 130.5,177.5 Z"/></g>
<g><path style="opacity:1" fill="#c3494e" d="M 190.5,176.5 C 200.773,177.144 211.107,177.811 221.5,178.5C 218.313,185.55 214.646,192.217 210.5,198.5C 212.986,191.987 215.986,185.653 219.5,179.5C 209.465,179.152 199.798,178.152 190.5,176.5 Z"/></g>
<g><path style="opacity:1" fill="#c41d27" d="M 168.5,162.5 C 167.009,169.149 164.175,175.149 160,180.5C 151.251,179.516 142.418,179.183 133.5,179.5C 133.833,181.5 134.167,183.5 134.5,185.5C 133.599,184.71 132.932,183.71 132.5,182.5C 132.5,181.167 132.5,179.833 132.5,178.5C 142.015,178.827 151.348,178.494 160.5,177.5C 161.847,174.807 163.18,172.14 164.5,169.5C 165.596,166.968 166.929,164.635 168.5,162.5 Z"/></g>
<g><path style="opacity:1" fill="#db161c" d="M 177.5,151.5 C 178.674,152.514 179.34,153.847 179.5,155.5C 179.819,159.136 180.985,162.469 183,165.5C 184.576,168.186 186.409,170.52 188.5,172.5C 189.674,173.514 190.34,174.847 190.5,176.5C 199.798,178.152 209.465,179.152 219.5,179.5C 215.986,185.653 212.986,191.987 210.5,198.5C 210.496,200.842 209.663,202.842 208,204.5C 207.333,206.167 207.333,207.833 208,209.5C 212.101,217.369 215.935,225.369 219.5,233.5C 219.5,234.5 219.5,235.5 219.5,236.5C 209.494,236.334 199.494,236.5 189.5,237C 186.508,241.816 184.508,246.983 183.5,252.5C 181.202,255.728 178.869,259.061 176.5,262.5C 173.806,259.067 171.139,255.733 168.5,252.5C 166.323,249.48 164.657,246.147 163.5,242.5C 163.167,240.5 162.833,238.5 162.5,236.5C 153.161,236.666 143.827,236.5 134.5,236C 133.594,234.301 133.261,232.467 133.5,230.5C 135.044,230.297 136.378,229.63 137.5,228.5C 138.192,229.025 138.692,229.692 139,230.5C 139.309,229.234 139.809,228.067 140.5,227C 137.849,224.074 138.349,221.574 142,219.5C 142.395,216.793 142.895,214.127 143.5,211.5C 147.254,210.172 148.421,207.506 147,203.5C 143.712,200.596 141.712,196.929 141,192.5C 140.014,193.171 138.847,193.171 137.5,192.5C 136.227,190.287 135.227,187.954 134.5,185.5C 134.167,183.5 133.833,181.5 133.5,179.5C 142.418,179.183 151.251,179.516 160,180.5C 164.175,175.149 167.009,169.149 168.5,162.5C 171.261,158.65 174.261,154.983 177.5,151.5 Z"/></g>
<g><path style="opacity:1" fill="#f8f199" d="M 24.5,180.5 C 24.5858,181.496 24.2524,182.329 23.5,183C 21.1829,185.157 18.5162,186.657 15.5,187.5C 18.1403,184.878 21.1403,182.545 24.5,180.5 Z"/></g>
<g><path style="opacity:1" fill="#f5e679" d="M 12.5,189.5 C 10.7607,192.243 8.42735,194.243 5.5,195.5C 6.94183,194.18 7.60849,192.514 7.5,190.5C 9.2161,190.371 10.8828,190.038 12.5,189.5 Z"/></g>
<g><path style="opacity:1" fill="#1f3576" d="M 399.5,180.5 C 399.762,181.978 399.429,183.311 398.5,184.5C 391.782,188.52 385.449,193.02 379.5,198C 378.207,198.49 376.873,198.657 375.5,198.5C 383.212,192.122 391.212,186.122 399.5,180.5 Z"/></g>
<g><path style="opacity:1" fill="#c9272b" d="M 137.5,192.5 C 138.847,193.171 140.014,193.171 141,192.5C 141.712,196.929 143.712,200.596 147,203.5C 148.421,207.506 147.254,210.172 143.5,211.5C 144.323,209.545 144.49,207.545 144,205.5C 141.293,201.419 139.126,197.086 137.5,192.5 Z"/></g>
<g><path style="opacity:1" fill="#1f3376" d="M 367.5,204.5 C 367.5,205.833 367.5,207.167 367.5,208.5C 364.626,209.844 361.626,211.01 358.5,212C 357.452,215.456 355.119,216.956 351.5,216.5C 356.437,212.025 361.77,208.025 367.5,204.5 Z"/></g>
<g><path style="opacity:1" fill="#d13638" d="M 143.5,211.5 C 142.895,214.127 142.395,216.793 142,219.5C 138.349,221.574 137.849,224.074 140.5,227C 139.809,228.067 139.309,229.234 139,230.5C 138.692,229.692 138.192,229.025 137.5,228.5C 136.378,229.63 135.044,230.297 133.5,230.5C 136.075,223.68 139.408,217.346 143.5,211.5 Z"/></g>
<g><path style="opacity:1" fill="#182f79" d="M 351.5,216.5 C 351.762,217.978 351.429,219.311 350.5,220.5C 347.404,222.131 344.57,224.131 342,226.5C 341.517,227.448 341.351,228.448 341.5,229.5C 339.5,229.5 337.5,229.5 335.5,229.5C 335.5,230.5 335.5,231.5 335.5,232.5C 332.975,233.64 330.308,234.307 327.5,234.5C 335.193,228.147 343.193,222.147 351.5,216.5 Z"/></g>
<g><path style="opacity:1" fill="#b42c2f" d="M 133.5,230.5 C 133.261,232.467 133.594,234.301 134.5,236C 143.827,236.5 153.161,236.666 162.5,236.5C 162.833,238.5 163.167,240.5 163.5,242.5C 162.399,241.152 161.399,239.652 160.5,238C 150.506,237.5 140.506,237.334 130.5,237.5C 130.707,234.759 131.707,232.426 133.5,230.5 Z"/></g>
<g><path style="opacity:1" fill="#bf2f34" d="M 219.5,233.5 C 221.104,234.287 221.771,235.62 221.5,237.5C 211.494,237.334 201.494,237.5 191.5,238C 188.947,242.944 186.28,247.777 183.5,252.5C 184.508,246.983 186.508,241.816 189.5,237C 199.494,236.5 209.494,236.334 219.5,236.5C 219.5,235.5 219.5,234.5 219.5,233.5 Z"/></g>
<g><path style="opacity:1" fill="#c9373b" d="M 168.5,252.5 C 171.139,255.733 173.806,259.067 176.5,262.5C 178.869,259.061 181.202,255.728 183.5,252.5C 181.541,257.752 179.041,262.752 176,267.5C 172.962,262.757 170.462,257.757 168.5,252.5 Z"/></g>
<g><path style="opacity:1" fill="#223779" d="M 255.5,288.5 C 252.124,292.807 248.291,296.807 244,300.5C 242.586,299.587 241.086,299.587 239.5,300.5C 244.545,296.122 249.878,292.122 255.5,288.5 Z"/></g>
<g><path style="opacity:1" fill="#9b9b9b" d="M 194.5,307.5 C 192.562,309.163 190.228,309.829 187.5,309.5C 189.515,308.076 191.848,307.41 194.5,307.5 Z"/></g>
<g><path style="opacity:1" fill="#20337b" d="M 150.5,367.5 C 147.028,374.148 141.695,378.315 134.5,380C 135.833,380.667 135.833,381.333 134.5,382C 132.257,383.136 129.924,383.97 127.5,384.5C 134.88,378.455 142.546,372.788 150.5,367.5 Z"/></g>
<g><path style="opacity:1" fill="#233677" d="M 111.5,396.5 C 110.058,397.82 109.392,399.486 109.5,401.5C 108.127,401.343 106.793,401.51 105.5,402C 103.345,405.915 100.012,408.081 95.5,408.5C 100.545,404.122 105.878,400.122 111.5,396.5 Z"/></g>
<g><path style="opacity:1" fill="#213274" d="M 95.5,408.5 C 95.5,409.5 95.5,410.5 95.5,411.5C 93.1756,411.662 91.5089,412.828 90.5,415C 89.2068,415.49 87.8734,415.657 86.5,415.5C 86.1847,419.8 83.8514,421.467 79.5,420.5C 84.0792,415.539 89.4126,411.539 95.5,408.5 Z"/></g>
<g><path style="opacity:1" fill="#193075" d="M 79.5,420.5 C 78.4097,422.437 77.0764,424.27 75.5,426C 71.3513,426.619 70.018,428.785 71.5,432.5C 68.9135,433.48 66.2469,433.813 63.5,433.5C 63.7035,435.39 63.0368,436.89 61.5,438C 57.5198,438.814 54.5198,440.981 52.5,444.5C 50.9547,445.452 49.288,445.785 47.5,445.5C 47.5,446.5 47.5,447.5 47.5,448.5C 44.8819,450.274 41.8819,451.274 38.5,451.5C 51.8592,440.814 65.5259,430.48 79.5,420.5 Z"/></g>
</svg>
