<?xml version="1.0" encoding="UTF-8"?>
<!DOCTYPE svg PUBLIC "-//W3C//DTD SVG 1.1//EN" "http://www.w3.org/Graphics/SVG/1.1/DTD/svg11.dtd">
<svg xmlns="http://www.w3.org/2000/svg" version="1.1" width="640px" height="480px" style="shape-rendering:geometricPrecision; text-rendering:geometricPrecision; image-rendering:optimizeQuality; fill-rule:evenodd; clip-rule:evenodd" xmlns:xlink="http://www.w3.org/1999/xlink">
<g><path style="opacity:1" fill="#0700fe" d="M -0.5,-0.5 C 126.167,-0.5 252.833,-0.5 379.5,-0.5C 379.5,-0.166667 379.5,0.166667 379.5,0.5C 339.5,0.5 299.5,0.5 259.5,0.5C 259.5,39.8333 259.5,79.1667 259.5,118.5C 172.833,118.5 86.1667,118.5 -0.5,118.5C -0.5,78.8333 -0.5,39.1667 -0.5,-0.5 Z"/></g>
<g><path style="opacity:1" fill="#0000ff" d="M 379.5,-0.5 C 466.167,-0.5 552.833,-0.5 639.5,-0.5C 639.5,39.1667 639.5,78.8333 639.5,118.5C 552.833,118.5 466.167,118.5 379.5,118.5C 379.5,79.1667 379.5,39.8333 379.5,0.5C 379.5,0.166667 379.5,-0.166667 379.5,-0.5 Z"/></g>
<g><path style="opacity:1" fill="#fe0000" d="M 379.5,0.5 C 379.5,39.8333 379.5,79.1667 379.5,118.5C 379.5,158.5 379.5,198.5 379.5,238.5C 379.5,278.833 379.5,319.167 379.5,359.5C 379.5,399.5 379.5,439.5 379.5,479.5C 339.5,479.5 299.5,479.5 259.5,479.5C 259.5,439.5 259.5,399.5 259.5,359.5C 259.5,319.167 259.5,278.833 259.5,238.5C 259.5,198.5 259.5,158.5 259.5,118.5C 259.5,79.1667 259.5,39.8333 259.5,0.5C 299.5,0.5 339.5,0.5 379.5,0.5 Z"/></g>
<g><path style="opacity:1" fill="#fafa13" d="M 78.5,9.5 C 79.4972,9.47008 80.1639,9.97008 80.5,11C 84.3082,22.0932 88.3082,33.0932 92.5,44C 104.848,44.4064 117.181,45.0731 129.5,46C 119.62,53.4348 109.953,61.1014 100.5,69C 104.311,80.7501 107.478,92.5835 110,104.5C 99.7464,97.6234 89.5797,90.6234 79.5,83.5C 69.1937,90.6396 59.027,97.973 49,105.5C 51.5121,94.4593 54.5121,83.4593 58,72.5C 58.6667,70.8333 58.6667,69.1667 58,67.5C 48.5896,60.2118 39.0896,53.0451 29.5,46C 42.1284,44.679 54.7951,44.179 67.5,44.5C 70.9686,32.7613 74.6353,21.0947 78.5,9.5 Z"/></g>
<g><path style="opacity:1" fill="#fefffe" d="M -0.5,118.5 C 86.1667,118.5 172.833,118.5 259.5,118.5C 259.5,158.5 259.5,198.5 259.5,238.5C 172.833,238.5 86.1667,238.5 -0.5,238.5C -0.5,198.5 -0.5,158.5 -0.5,118.5 Z"/></g>
<g><path style="opacity:1" fill="#fefffe" d="M 379.5,118.5 C 466.167,118.5 552.833,118.5 639.5,118.5C 639.5,158.5 639.5,198.5 639.5,238.5C 552.833,238.5 466.167,238.5 379.5,238.5C 379.5,198.5 379.5,158.5 379.5,118.5 Z"/></g>
<g><path style="opacity:1" fill="#039a01" d="M -0.5,238.5 C 86.1667,238.5 172.833,238.5 259.5,238.5C 259.5,278.833 259.5,319.167 259.5,359.5C 172.833,359.5 86.1667,359.5 -0.5,359.5C -0.5,319.167 -0.5,278.833 -0.5,238.5 Z"/></g>
<g><path style="opacity:1" fill="#039a01" d="M 379.5,238.5 C 466.167,238.5 552.833,238.5 639.5,238.5C 639.5,278.833 639.5,319.167 639.5,359.5C 552.833,359.5 466.167,359.5 379.5,359.5C 379.5,319.167 379.5,278.833 379.5,238.5 Z"/></g>
<g><path style="opacity:1" fill="#feff00" d="M -0.5,359.5 C 86.1667,359.5 172.833,359.5 259.5,359.5C 259.5,399.5 259.5,439.5 259.5,479.5C 172.833,479.5 86.1667,479.5 -0.5,479.5C -0.5,439.5 -0.5,399.5 -0.5,359.5 Z"/></g>
<g><path style="opacity:1" fill="#feff00" d="M 379.5,359.5 C 466.167,359.5 552.833,359.5 639.5,359.5C 639.5,399.5 639.5,439.5 639.5,479.5C 552.833,479.5 466.167,479.5 379.5,479.5C 379.5,439.5 379.5,399.5 379.5,359.5 Z"/></g>
</svg>
