<?xml version="1.0" encoding="UTF-8"?>
<!DOCTYPE svg PUBLIC "-//W3C//DTD SVG 1.1//EN" "http://www.w3.org/Graphics/SVG/1.1/DTD/svg11.dtd">
<svg xmlns="http://www.w3.org/2000/svg" version="1.1" width="640px" height="480px" style="shape-rendering:geometricPrecision; text-rendering:geometricPrecision; image-rendering:optimizeQuality; fill-rule:evenodd; clip-rule:evenodd" xmlns:xlink="http://www.w3.org/1999/xlink">
<g><path style="opacity:1" fill="#000067" d="M -0.5,-0.5 C 70.8333,-0.5 142.167,-0.5 213.5,-0.5C 213.5,159.5 213.5,319.5 213.5,479.5C 142.167,479.5 70.8333,479.5 -0.5,479.5C -0.5,319.5 -0.5,159.5 -0.5,-0.5 Z"/></g>
<g><path style="opacity:1" fill="#feff00" d="M 213.5,-0.5 C 284.167,-0.5 354.833,-0.5 425.5,-0.5C 425.5,159.5 425.5,319.5 425.5,479.5C 354.833,479.5 284.167,479.5 213.5,479.5C 213.5,319.5 213.5,159.5 213.5,-0.5 Z"/></g>
<g><path style="opacity:1" fill="#fe0000" d="M 425.5,-0.5 C 496.833,-0.5 568.167,-0.5 639.5,-0.5C 639.5,159.5 639.5,319.5 639.5,479.5C 568.167,479.5 496.833,479.5 425.5,479.5C 425.5,319.5 425.5,159.5 425.5,-0.5 Z"/></g>
</svg>
