<?xml version="1.0" encoding="UTF-8"?>
<!DOCTYPE svg PUBLIC "-//W3C//DTD SVG 1.1//EN" "http://www.w3.org/Graphics/SVG/1.1/DTD/svg11.dtd">
<svg xmlns="http://www.w3.org/2000/svg" version="1.1" width="640px" height="480px" style="shape-rendering:geometricPrecision; text-rendering:geometricPrecision; image-rendering:optimizeQuality; fill-rule:evenodd; clip-rule:evenodd" xmlns:xlink="http://www.w3.org/1999/xlink">
<g><path style="opacity:1" fill="#fefffe" d="M -0.5,-0.5 C 84.8333,-0.5 170.167,-0.5 255.5,-0.5C 255.5,58.1667 255.5,116.833 255.5,175.5C 170.167,175.5 84.8333,175.5 -0.5,175.5C -0.5,116.833 -0.5,58.1667 -0.5,-0.5 Z"/></g>
<g><path style="opacity:1" fill="#e8112c" d="M 255.5,-0.5 C 298.167,-0.5 340.833,-0.5 383.5,-0.5C 383.5,58.1667 383.5,116.833 383.5,175.5C 468.833,175.5 554.167,175.5 639.5,175.5C 639.5,218.167 639.5,260.833 639.5,303.5C 554.167,303.5 468.833,303.5 383.5,303.5C 383.5,362.167 383.5,420.833 383.5,479.5C 340.833,479.5 298.167,479.5 255.5,479.5C 255.5,420.833 255.5,362.167 255.5,303.5C 170.167,303.5 84.8333,303.5 -0.5,303.5C -0.5,260.833 -0.5,218.167 -0.5,175.5C 84.8333,175.5 170.167,175.5 255.5,175.5C 255.5,116.833 255.5,58.1667 255.5,-0.5 Z"/></g>
<g><path style="opacity:1" fill="#fefffe" d="M 383.5,-0.5 C 468.833,-0.5 554.167,-0.5 639.5,-0.5C 639.5,58.1667 639.5,116.833 639.5,175.5C 554.167,175.5 468.833,175.5 383.5,175.5C 383.5,116.833 383.5,58.1667 383.5,-0.5 Z"/></g>
<g><path style="opacity:1" fill="#f8dc16" d="M 343.5,52.5 C 342.501,106.997 342.168,161.664 342.5,216.5C 397.336,216.832 452.003,216.499 506.5,215.5C 514.132,208.369 521.632,201.036 529,193.5C 529.667,224.167 529.667,254.833 529,285.5C 521.632,277.964 514.132,270.631 506.5,263.5C 452.003,262.501 397.336,262.168 342.5,262.5C 342.168,317.336 342.501,372.003 343.5,426.5C 350.631,434.132 357.964,441.632 365.5,449C 334.833,449.667 304.167,449.667 273.5,449C 281.036,441.632 288.369,434.132 295.5,426.5C 296.499,372.003 296.832,317.336 296.5,262.5C 241.664,262.168 186.997,262.501 132.5,263.5C 124.868,270.631 117.368,277.964 110,285.5C 109.333,254.833 109.333,224.167 110,193.5C 117.368,201.036 124.868,208.369 132.5,215.5C 186.997,216.499 241.664,216.832 296.5,216.5C 296.832,161.664 296.499,106.997 295.5,52.5C 288.369,44.8684 281.036,37.3684 273.5,30C 304.167,29.3333 334.833,29.3333 365.5,30C 357.964,37.3684 350.631,44.8684 343.5,52.5 Z"/></g>
<g><path style="opacity:1" fill="#ed5325" d="M 295.5,52.5 C 296.499,106.997 296.832,161.664 296.5,216.5C 241.664,216.832 186.997,216.499 132.5,215.5C 186.833,215.5 241.167,215.5 295.5,215.5C 295.5,161.167 295.5,106.833 295.5,52.5 Z"/></g>
<g><path style="opacity:1" fill="#ed5325" d="M 343.5,52.5 C 343.5,106.833 343.5,161.167 343.5,215.5C 397.833,215.5 452.167,215.5 506.5,215.5C 452.003,216.499 397.336,216.832 342.5,216.5C 342.168,161.664 342.501,106.997 343.5,52.5 Z"/></g>
<g><path style="opacity:1" fill="#ed5125" d="M 132.5,263.5 C 186.997,262.501 241.664,262.168 296.5,262.5C 296.832,317.336 296.499,372.003 295.5,426.5C 295.5,372.167 295.5,317.833 295.5,263.5C 241.167,263.5 186.833,263.5 132.5,263.5 Z"/></g>
<g><path style="opacity:1" fill="#ed5125" d="M 506.5,263.5 C 452.167,263.5 397.833,263.5 343.5,263.5C 343.5,317.833 343.5,372.167 343.5,426.5C 342.501,372.003 342.168,317.336 342.5,262.5C 397.336,262.168 452.003,262.501 506.5,263.5 Z"/></g>
<g><path style="opacity:1" fill="#fefffe" d="M -0.5,303.5 C 84.8333,303.5 170.167,303.5 255.5,303.5C 255.5,362.167 255.5,420.833 255.5,479.5C 170.167,479.5 84.8333,479.5 -0.5,479.5C -0.5,420.833 -0.5,362.167 -0.5,303.5 Z"/></g>
<g><path style="opacity:1" fill="#fefffe" d="M 639.5,303.5 C 639.5,362.167 639.5,420.833 639.5,479.5C 554.167,479.5 468.833,479.5 383.5,479.5C 383.5,420.833 383.5,362.167 383.5,303.5C 468.833,303.5 554.167,303.5 639.5,303.5 Z"/></g>
</svg>
