<?xml version="1.0" encoding="UTF-8"?>
<!DOCTYPE svg PUBLIC "-//W3C//DTD SVG 1.1//EN" "http://www.w3.org/Graphics/SVG/1.1/DTD/svg11.dtd">
<svg xmlns="http://www.w3.org/2000/svg" version="1.1" width="640px" height="480px" style="shape-rendering:geometricPrecision; text-rendering:geometricPrecision; image-rendering:optimizeQuality; fill-rule:evenodd; clip-rule:evenodd" xmlns:xlink="http://www.w3.org/1999/xlink">
<g><path style="opacity:1" fill="#0039a6" d="M -0.5,-0.5 C 79.5,-0.5 159.5,-0.5 239.5,-0.5C 239.5,79.5 239.5,159.5 239.5,239.5C 159.5,239.5 79.5,239.5 -0.5,239.5C -0.5,159.5 -0.5,79.5 -0.5,-0.5 Z"/></g>
<g><path style="opacity:1" fill="#fefffe" d="M 239.5,-0.5 C 372.833,-0.5 506.167,-0.5 639.5,-0.5C 639.5,79.5 639.5,159.5 639.5,239.5C 506.167,239.5 372.833,239.5 239.5,239.5C 239.5,159.5 239.5,79.5 239.5,-0.5 Z"/></g>
<g><path style="opacity:1" fill="#fafbfd" d="M 118.5,60.5 C 124.657,74.6349 129.657,89.3016 133.5,104.5C 148.837,104.333 164.17,104.5 179.5,105C 167.667,114.167 155.833,123.333 144,132.5C 143.672,135.207 144.005,137.874 145,140.5C 149.308,153.078 152.974,165.744 156,178.5C 143.744,169.622 131.578,160.622 119.5,151.5C 107.577,160.379 95.7435,169.379 84,178.5C 87.1292,163.437 91.2958,148.604 96.5,134C 84.5,124.667 72.5,115.333 60.5,106C 75.4963,105.5 90.4963,105.333 105.5,105.5C 109.628,90.4481 113.961,75.4481 118.5,60.5 Z"/></g>
<g><path style="opacity:1" fill="#d42b1d" d="M -0.5,239.5 C 79.5,239.5 159.5,239.5 239.5,239.5C 372.833,239.5 506.167,239.5 639.5,239.5C 639.5,319.5 639.5,399.5 639.5,479.5C 426.167,479.5 212.833,479.5 -0.5,479.5C -0.5,399.5 -0.5,319.5 -0.5,239.5 Z"/></g>
</svg>
