<?xml version="1.0" encoding="UTF-8"?>
<!DOCTYPE svg PUBLIC "-//W3C//DTD SVG 1.1//EN" "http://www.w3.org/Graphics/SVG/1.1/DTD/svg11.dtd">
<svg xmlns="http://www.w3.org/2000/svg" version="1.1" width="640px" height="480px" style="shape-rendering:geometricPrecision; text-rendering:geometricPrecision; image-rendering:optimizeQuality; fill-rule:evenodd; clip-rule:evenodd" xmlns:xlink="http://www.w3.org/1999/xlink">
<g><path style="opacity:1" fill="#ee1c24" d="M -0.5,-0.5 C 212.833,-0.5 426.167,-0.5 639.5,-0.5C 639.5,159.5 639.5,319.5 639.5,479.5C 426.167,479.5 212.833,479.5 -0.5,479.5C -0.5,319.5 -0.5,159.5 -0.5,-0.5 Z"/></g>
<g><path style="opacity:1" fill="#fef901" d="M 246.5,64.5 C 245.833,66.1667 245.167,67.8333 244.5,69.5C 242.329,64.1029 238.996,59.7696 234.5,56.5C 229.463,57.5432 224.463,58.3765 219.5,59C 223.52,55.1147 227.186,50.948 230.5,46.5C 227.833,41.8333 225.167,37.1667 222.5,32.5C 222.833,32.1667 223.167,31.8333 223.5,31.5C 227.823,33.9119 232.323,35.9119 237,37.5C 241.321,34.5124 244.988,30.8457 248,26.5C 248.263,31.8509 248.263,37.1842 248,42.5C 252.851,45.0031 257.684,47.5031 262.5,50C 257.176,51.2755 251.843,52.4422 246.5,53.5C 246.5,57.1667 246.5,60.8333 246.5,64.5 Z"/></g>
<g><path style="opacity:1" fill="#fefc00" d="M 136.5,97.5 C 154.167,98.1667 171.833,98.8333 189.5,99.5C 175.196,109.323 160.862,119.157 146.5,129C 152.296,144.719 157.462,160.552 162,176.5C 147.747,166.957 133.58,157.29 119.5,147.5C 105.5,157.167 91.5,166.833 77.5,176.5C 81.5183,160.6 86.5183,144.767 92.5,129C 78.4852,118.663 64.1519,108.829 49.5,99.5C 67.1667,98.8333 84.8333,98.1667 102.5,97.5C 107.938,81.191 113.604,64.8577 119.5,48.5C 125.396,64.8577 131.062,81.191 136.5,97.5 Z"/></g>
<g><path style="opacity:1" fill="#f9aa0e" d="M 246.5,64.5 C 246.663,66.8568 246.497,69.1902 246,71.5C 245.283,70.9558 244.783,70.2891 244.5,69.5C 245.167,67.8333 245.833,66.1667 246.5,64.5 Z"/></g>
<g><path style="opacity:1" fill="#fefa00" d="M 277.5,73.5 C 281.15,77.9822 285.317,81.9822 290,85.5C 294.228,83.6363 298.394,81.6363 302.5,79.5C 301.608,84.4942 299.608,89.3275 296.5,94C 300.535,97.7002 304.202,101.7 307.5,106C 302.212,105.39 296.878,105.056 291.5,105C 288.872,109.755 286.372,114.588 284,119.5C 283.118,113.496 282.285,107.496 281.5,101.5C 276.089,100.931 270.755,99.9314 265.5,98.5C 269.674,95.9123 274.007,93.579 278.5,91.5C 278.833,90.3333 279.167,89.1667 279.5,88C 278.785,83.163 278.118,78.3296 277.5,73.5 Z"/></g>
<g><path style="opacity:1" fill="#f7a30f" d="M 102.5,97.5 C 84.8333,98.1667 67.1667,98.8333 49.5,99.5C 48.9569,99.44 48.6236,99.1067 48.5,98.5C 66.4877,97.5005 84.4877,97.1671 102.5,97.5 Z"/></g>
<g><path style="opacity:1" fill="#f7a30f" d="M 136.5,97.5 C 154.512,97.1671 172.512,97.5005 190.5,98.5C 190.376,99.1067 190.043,99.44 189.5,99.5C 171.833,98.8333 154.167,98.1667 136.5,97.5 Z"/></g>
<g><path style="opacity:1" fill="#fef901" d="M 286.5,143.5 C 289.454,148.348 291.454,153.681 292.5,159.5C 297.844,159.334 303.177,159.501 308.5,160C 304.327,163.343 300.327,166.843 296.5,170.5C 298.739,175.503 300.072,180.503 300.5,185.5C 296.402,182.702 292.235,180.036 288,177.5C 283.392,180.436 279.059,183.77 275,187.5C 276.157,181.87 277.157,176.203 278,170.5C 273.763,166.964 269.263,163.798 264.5,161C 270.491,160.501 276.491,160.334 282.5,160.5C 283.675,154.799 285.009,149.132 286.5,143.5 Z"/></g>
<g><path style="opacity:1" fill="#fefa00" d="M 247.5,193.5 C 247.841,198.986 248.007,204.653 248,210.5C 252.817,212.328 257.65,214.162 262.5,216C 257.291,217.759 252.124,219.592 247,221.5C 246.07,226.799 245.403,232.133 245,237.5C 241.995,233.003 238.828,228.669 235.5,224.5C 230.161,226.34 224.828,227.84 219.5,229C 223.286,224.592 226.953,220.092 230.5,215.5C 227.081,210.643 224.247,205.643 222,200.5C 226.76,203.044 231.76,205.044 237,206.5C 240.689,202.312 244.189,197.979 247.5,193.5 Z"/></g>
</svg>
