<?xml version="1.0" encoding="UTF-8"?>
<!DOCTYPE svg PUBLIC "-//W3C//DTD SVG 1.1//EN" "http://www.w3.org/Graphics/SVG/1.1/DTD/svg11.dtd">
<svg xmlns="http://www.w3.org/2000/svg" version="1.1" width="640px" height="480px" style="shape-rendering:geometricPrecision; text-rendering:geometricPrecision; image-rendering:optimizeQuality; fill-rule:evenodd; clip-rule:evenodd" xmlns:xlink="http://www.w3.org/1999/xlink">
<g><path style="opacity:1" fill="#fefe00" d="M 0.5,-0.5 C 213.5,-0.5 426.5,-0.5 639.5,-0.5C 639.5,39.5 639.5,79.5 639.5,119.5C 485.833,119.5 332.167,119.5 178.5,119.5C 118.871,79.8585 59.5373,39.8585 0.5,-0.5 Z"/></g>
<g><path style="opacity:1" fill="#249e46" d="M -0.5,-0.5 C -0.166667,-0.5 0.166667,-0.5 0.5,-0.5C 59.5373,39.8585 118.871,79.8585 178.5,119.5C 237.986,159.745 297.653,199.745 357.5,239.5C 298.167,279.5 238.833,319.5 179.5,359.5C 119.624,399.265 59.9574,439.265 0.5,479.5C 0.166667,479.5 -0.166667,479.5 -0.5,479.5C -0.5,319.5 -0.5,159.5 -0.5,-0.5 Z"/></g>
<g><path style="opacity:1" fill="#fefefe" d="M 178.5,119.5 C 332.167,119.5 485.833,119.5 639.5,119.5C 639.5,159.5 639.5,199.5 639.5,239.5C 545.5,239.5 451.5,239.5 357.5,239.5C 297.653,199.745 237.986,159.745 178.5,119.5 Z"/></g>
<g><path style="opacity:1" fill="#8fcda1" d="M 128.5,132.5 C 134.319,131.347 140.319,131.181 146.5,132C 145.956,132.717 145.289,133.217 144.5,133.5C 139.36,132.512 134.026,132.179 128.5,132.5 Z"/></g>
<g><path style="opacity:1" fill="#fdfefd" d="M 128.5,132.5 C 134.026,132.179 139.36,132.512 144.5,133.5C 115.118,145.717 94.6179,166.717 83,196.5C 66.1259,248.498 77.2926,293.332 116.5,331C 122.156,335.496 128.156,339.496 134.5,343C 117.719,344.222 102.052,340.555 87.5,332C 39.6702,302.861 22.5035,261.028 36,206.5C 51.3948,162.402 82.2281,137.736 128.5,132.5 Z"/></g>
<g><path style="opacity:1" fill="#f8fcf9" d="M 139.5,144.5 C 141.588,148.92 143.588,153.42 145.5,158C 149.5,159.333 153.5,160.667 157.5,162C 153.833,164.5 150.167,167 146.5,169.5C 145.672,174.132 145.172,178.798 145,183.5C 141.603,180.432 137.936,177.765 134,175.5C 130.129,176.735 126.296,178.068 122.5,179.5C 122.297,175.227 123.297,171.06 125.5,167C 123.087,162.845 120.421,158.845 117.5,155C 122.5,154.667 127.5,154.333 132.5,154C 134.965,150.893 137.298,147.726 139.5,144.5 Z"/></g>
<g><path style="opacity:1" fill="#f9fcfa" d="M 138.5,193.5 C 139.75,193.577 140.583,194.244 141,195.5C 141.868,199.27 143.034,202.936 144.5,206.5C 148.539,207.902 152.539,209.402 156.5,211C 153.264,213.868 149.764,216.368 146,218.5C 145.667,223.167 145.333,227.833 145,232.5C 141.556,229.214 137.723,226.547 133.5,224.5C 129.386,225.528 125.386,226.861 121.5,228.5C 121.941,224.157 123.274,219.823 125.5,215.5C 122.957,211.579 120.29,207.746 117.5,204C 127.643,205.973 134.643,202.473 138.5,193.5 Z"/></g>
<g><path style="opacity:1" fill="#bd0027" d="M 357.5,239.5 C 451.5,239.5 545.5,239.5 639.5,239.5C 639.5,279.5 639.5,319.5 639.5,359.5C 486.167,359.5 332.833,359.5 179.5,359.5C 238.833,319.5 298.167,279.5 357.5,239.5 Z"/></g>
<g><path style="opacity:1" fill="#fbfdfb" d="M 139.5,242.5 C 141.61,246.557 143.277,250.89 144.5,255.5C 148.796,257.099 153.129,258.599 157.5,260C 153.833,262.5 150.167,265 146.5,267.5C 145.833,272.167 145.167,276.833 144.5,281.5C 141.072,278.707 137.572,276.04 134,273.5C 130.129,274.735 126.296,276.068 122.5,277.5C 122.297,273.227 123.297,269.06 125.5,265C 123.182,261.344 120.849,257.677 118.5,254C 123.202,253.828 127.868,253.328 132.5,252.5C 134.859,249.149 137.192,245.815 139.5,242.5 Z"/></g>
<g><path style="opacity:1" fill="#f9fcfa" d="M 138.5,292.5 C 139.75,292.577 140.583,293.244 141,294.5C 141.868,298.27 143.034,301.936 144.5,305.5C 148.539,306.902 152.539,308.402 156.5,310C 153.264,312.868 149.764,315.368 146,317.5C 145.667,322.167 145.333,326.833 145,331.5C 141.556,328.214 137.723,325.547 133.5,323.5C 129.432,324.634 125.432,325.967 121.5,327.5C 121.941,323.157 123.274,318.823 125.5,314.5C 122.957,310.579 120.29,306.746 117.5,303C 127.643,304.973 134.643,301.473 138.5,292.5 Z"/></g>
<g><path style="opacity:1" fill="#3a5aa2" d="M 179.5,359.5 C 332.833,359.5 486.167,359.5 639.5,359.5C 639.5,399.5 639.5,439.5 639.5,479.5C 426.5,479.5 213.5,479.5 0.5,479.5C 59.9574,439.265 119.624,399.265 179.5,359.5 Z"/></g>
</svg>
