<?xml version="1.0" encoding="UTF-8"?>
<!DOCTYPE svg PUBLIC "-//W3C//DTD SVG 1.1//EN" "http://www.w3.org/Graphics/SVG/1.1/DTD/svg11.dtd">
<svg xmlns="http://www.w3.org/2000/svg" version="1.1" width="640px" height="480px" style="shape-rendering:geometricPrecision; text-rendering:geometricPrecision; image-rendering:optimizeQuality; fill-rule:evenodd; clip-rule:evenodd" xmlns:xlink="http://www.w3.org/1999/xlink">
<g><path style="opacity:1" fill="#fcfcfd" d="M 0.5,-0.5 C 12.8333,-0.5 25.1667,-0.5 37.5,-0.5C 64.688,19.6909 91.8547,40.0243 119,60.5C 119.5,40.1694 119.667,19.8361 119.5,-0.5C 124.833,-0.5 130.167,-0.5 135.5,-0.5C 135.5,31.5 135.5,63.5 135.5,95.5C 90.1667,95.5 44.8333,95.5 -0.5,95.5C -0.5,90.1667 -0.5,84.8333 -0.5,79.5C 20.8359,79.6666 42.1693,79.5 63.5,79C 42.2892,62.9495 20.9559,47.1161 -0.5,31.5C -0.5,27.8333 -0.5,24.1667 -0.5,20.5C 25.3401,40.168 51.3401,59.668 77.5,79C 87.5,79.6667 97.5,79.6667 107.5,79C 71.6502,52.6367 35.9835,26.1367 0.5,-0.5 Z"/></g>
<g><path style="opacity:1" fill="#010066" d="M 37.5,-0.5 C 64.8333,-0.5 92.1667,-0.5 119.5,-0.5C 119.667,19.8361 119.5,40.1694 119,60.5C 91.8547,40.0243 64.688,19.6909 37.5,-0.5 Z"/></g>
<g><path style="opacity:1" fill="#c91931" d="M 135.5,-0.5 C 151.833,-0.5 168.167,-0.5 184.5,-0.5C 184.5,31.5 184.5,63.5 184.5,95.5C 229.5,95.5 274.5,95.5 319.5,95.5C 319.5,111.833 319.5,128.167 319.5,144.5C 274.5,144.5 229.5,144.5 184.5,144.5C 184.5,176.167 184.5,207.833 184.5,239.5C 168.167,239.5 151.833,239.5 135.5,239.5C 135.5,207.833 135.5,176.167 135.5,144.5C 90.1667,144.5 44.8333,144.5 -0.5,144.5C -0.5,128.167 -0.5,111.833 -0.5,95.5C 44.8333,95.5 90.1667,95.5 135.5,95.5C 135.5,63.5 135.5,31.5 135.5,-0.5 Z"/></g>
<g><path style="opacity:1" fill="#fcfbfc" d="M 184.5,-0.5 C 189.833,-0.5 195.167,-0.5 200.5,-0.5C 200.333,19.1695 200.5,38.8362 201,58.5C 227.351,38.9699 253.517,19.3033 279.5,-0.5C 284.167,-0.5 288.833,-0.5 293.5,-0.5C 262.312,23.0249 231.145,46.6916 200,70.5C 199.502,73.4816 199.335,76.4816 199.5,79.5C 205.176,79.6661 210.843,79.4994 216.5,79C 250.505,52.6713 284.838,26.838 319.5,1.5C 319.666,11.1724 319.5,20.8391 319,30.5C 297.59,46.7883 276.09,62.9549 254.5,79C 276.164,79.5 297.831,79.6666 319.5,79.5C 319.5,84.8333 319.5,90.1667 319.5,95.5C 274.5,95.5 229.5,95.5 184.5,95.5C 184.5,63.5 184.5,31.5 184.5,-0.5 Z"/></g>
<g><path style="opacity:1" fill="#020066" d="M 200.5,-0.5 C 226.833,-0.5 253.167,-0.5 279.5,-0.5C 253.517,19.3033 227.351,38.9699 201,58.5C 200.5,38.8362 200.333,19.1695 200.5,-0.5 Z"/></g>
<g><path style="opacity:1" fill="#c91731" d="M 293.5,-0.5 C 302.167,-0.5 310.833,-0.5 319.5,-0.5C 319.5,0.166667 319.5,0.833333 319.5,1.5C 284.838,26.838 250.505,52.6713 216.5,79C 210.843,79.4994 205.176,79.6661 199.5,79.5C 199.335,76.4816 199.502,73.4816 200,70.5C 231.145,46.6916 262.312,23.0249 293.5,-0.5 Z"/></g>
<g><path style="opacity:1" fill="#000066" d="M 319.5,-0.5 C 426.167,-0.5 532.833,-0.5 639.5,-0.5C 639.5,159.5 639.5,319.5 639.5,479.5C 426.167,479.5 212.833,479.5 -0.5,479.5C -0.5,399.5 -0.5,319.5 -0.5,239.5C -0.166667,239.5 0.166667,239.5 0.5,239.5C 9.5,239.5 18.5,239.5 27.5,239.5C 32.6278,239.888 37.6278,239.388 42.5,238C 67.7315,218.469 93.2315,199.302 119,180.5C 119.5,200.164 119.667,219.831 119.5,239.5C 124.833,239.5 130.167,239.5 135.5,239.5C 151.833,239.5 168.167,239.5 184.5,239.5C 189.5,239.5 194.5,239.5 199.5,239.5C 200.167,220.167 200.833,200.833 201.5,181.5C 227.137,200.658 252.804,219.824 278.5,239C 291.829,239.5 305.163,239.667 318.5,239.5C 319.491,233.021 319.824,226.354 319.5,219.5C 319.793,215.563 319.46,211.73 318.5,208C 296.655,192.244 274.989,176.244 253.5,160C 275.497,159.5 297.497,159.333 319.5,159.5C 319.5,154.5 319.5,149.5 319.5,144.5C 319.5,128.167 319.5,111.833 319.5,95.5C 319.5,90.1667 319.5,84.8333 319.5,79.5C 297.831,79.6666 276.164,79.5 254.5,79C 276.09,62.9549 297.59,46.7883 319,30.5C 319.5,20.8391 319.666,11.1724 319.5,1.5C 319.5,0.833333 319.5,0.166667 319.5,-0.5 Z"/></g>
<g><path style="opacity:1" fill="#c91731" d="M -0.5,-0.5 C -0.166667,-0.5 0.166667,-0.5 0.5,-0.5C 35.9835,26.1367 71.6502,52.6367 107.5,79C 97.5,79.6667 87.5,79.6667 77.5,79C 51.3401,59.668 25.3401,40.168 -0.5,20.5C -0.5,13.5 -0.5,6.5 -0.5,-0.5 Z"/></g>
<g><path style="opacity:1" fill="#020166" d="M -0.5,31.5 C 20.9559,47.1161 42.2892,62.9495 63.5,79C 42.1693,79.5 20.8359,79.6666 -0.5,79.5C -0.5,63.5 -0.5,47.5 -0.5,31.5 Z"/></g>
<g><path style="opacity:1" fill="#fcfbfc" d="M -0.5,144.5 C 44.8333,144.5 90.1667,144.5 135.5,144.5C 135.5,176.167 135.5,207.833 135.5,239.5C 130.167,239.5 124.833,239.5 119.5,239.5C 119.667,219.831 119.5,200.164 119,180.5C 93.2315,199.302 67.7315,218.469 42.5,238C 37.6278,239.388 32.6278,239.888 27.5,239.5C 57.699,215.813 88.3657,192.646 119.5,170C 120.456,166.606 120.789,163.106 120.5,159.5C 115.041,159.103 109.708,159.603 104.5,161C 69.6492,187.03 34.9826,213.197 0.5,239.5C 0.166667,239.5 -0.166667,239.5 -0.5,239.5C -0.5,229.5 -0.5,219.5 -0.5,209.5C 21.623,193.217 43.623,176.717 65.5,160C 43.5025,159.5 21.5025,159.333 -0.5,159.5C -0.5,154.5 -0.5,149.5 -0.5,144.5 Z"/></g>
<g><path style="opacity:1" fill="#fdfdfd" d="M 319.5,144.5 C 319.5,149.5 319.5,154.5 319.5,159.5C 297.497,159.333 275.497,159.5 253.5,160C 274.989,176.244 296.655,192.244 318.5,208C 319.46,211.73 319.793,215.563 319.5,219.5C 293.044,200.217 266.711,180.717 240.5,161C 230.934,159.387 221.267,159.053 211.5,160C 247.35,186.363 283.016,212.863 318.5,239.5C 305.163,239.667 291.829,239.5 278.5,239C 252.804,219.824 227.137,200.658 201.5,181.5C 201.44,180.957 201.107,180.624 200.5,180.5C 199.5,200.155 199.167,219.822 199.5,239.5C 194.5,239.5 189.5,239.5 184.5,239.5C 184.5,207.833 184.5,176.167 184.5,144.5C 229.5,144.5 274.5,144.5 319.5,144.5 Z"/></g>
<g><path style="opacity:1" fill="#020166" d="M -0.5,159.5 C 21.5025,159.333 43.5025,159.5 65.5,160C 43.623,176.717 21.623,193.217 -0.5,209.5C -0.5,192.833 -0.5,176.167 -0.5,159.5 Z"/></g>
<g><path style="opacity:1" fill="#c91731" d="M 27.5,239.5 C 18.5,239.5 9.5,239.5 0.5,239.5C 34.9826,213.197 69.6492,187.03 104.5,161C 109.708,159.603 115.041,159.103 120.5,159.5C 120.789,163.106 120.456,166.606 119.5,170C 88.3657,192.646 57.699,215.813 27.5,239.5 Z"/></g>
<g><path style="opacity:1" fill="#c91731" d="M 319.5,219.5 C 319.824,226.354 319.491,233.021 318.5,239.5C 283.016,212.863 247.35,186.363 211.5,160C 221.267,159.053 230.934,159.387 240.5,161C 266.711,180.717 293.044,200.217 319.5,219.5 Z"/></g>
<g><path style="opacity:1" fill="#f6f6fa" d="M 463.5,186.5 C 468.833,185.833 474.167,185.167 479.5,184.5C 481.633,179.559 483.8,174.559 486,169.5C 488.141,174.756 489.974,180.09 491.5,185.5C 497.176,185.334 502.843,185.501 508.5,186C 504.244,189.045 500.077,192.212 496,195.5C 496.722,200.355 497.889,205.188 499.5,210C 499.167,210.5 498.833,211 498.5,211.5C 494.296,208.567 489.962,205.901 485.5,203.5C 480.609,205.866 476.109,208.866 472,212.5C 472.517,207.26 473.684,202.093 475.5,197C 472.169,192.819 468.169,189.319 463.5,186.5 Z"/></g>
<g><path style="opacity:1" fill="#7f7fb2" d="M 201.5,181.5 C 200.833,200.833 200.167,220.167 199.5,239.5C 199.167,219.822 199.5,200.155 200.5,180.5C 201.107,180.624 201.44,180.957 201.5,181.5 Z"/></g>
<g><path style="opacity:1" fill="#9999c2" d="M 541.5,196.5 C 540.833,191.5 540.167,186.5 539.5,181.5C 539.783,180.711 540.283,180.044 541,179.5C 541.499,185.157 541.666,190.824 541.5,196.5 Z"/></g>
<g><path style="opacity:1" fill="#f5f5f9" d="M 430.5,180.5 C 434.324,184.794 438.157,189.127 442,193.5C 447.05,190.97 452.217,189.636 457.5,189.5C 454.253,193.659 451.253,197.992 448.5,202.5C 451.711,207.089 455.045,211.589 458.5,216C 453.092,215.483 447.758,214.317 442.5,212.5C 438.531,216.428 435.031,220.761 432,225.5C 431.096,219.865 430.596,214.198 430.5,208.5C 425.04,207.514 419.707,206.014 414.5,204C 419.342,201.55 424.342,199.383 429.5,197.5C 430.495,191.872 430.829,186.206 430.5,180.5 Z"/></g>
<g><path style="opacity:1" fill="#f7f6fa" d="M 539.5,181.5 C 540.167,186.5 540.833,191.5 541.5,196.5C 546.358,198.74 551.358,200.906 556.5,203C 551.381,205.039 546.215,206.872 541,208.5C 540.667,214.167 540.333,219.833 540,225.5C 536.673,220.348 532.84,215.681 528.5,211.5C 523.824,212.84 519.158,214.173 514.5,215.5C 514.167,215.167 513.833,214.833 513.5,214.5C 516.708,210.462 519.708,206.296 522.5,202C 519.211,196.909 516.378,191.743 514,186.5C 518.854,188.8 523.854,190.8 529,192.5C 532.664,189.003 536.164,185.336 539.5,181.5 Z"/></g>
<g><path style="opacity:1" fill="#6564a2" d="M 479.5,184.5 C 474.167,185.167 468.833,185.833 463.5,186.5C 462.957,186.44 462.624,186.107 462.5,185.5C 468.128,184.505 473.794,184.171 479.5,184.5 Z"/></g>
<g><path style="opacity:1" fill="#f7f7fa" d="M 410.5,207.5 C 410.966,212.758 410.3,218.091 408.5,223.5C 412.957,226.901 417.623,230.068 422.5,233C 417.147,233.908 411.813,234.908 406.5,236C 404.81,241.411 403.31,246.911 402,252.5C 399.628,247.588 397.128,242.755 394.5,238C 389.167,238 383.833,238 378.5,238C 382.548,234.288 386.215,230.288 389.5,226C 387.431,220.787 385.598,215.62 384,210.5C 388.706,213.367 393.54,216.034 398.5,218.5C 402.953,215.283 406.953,211.616 410.5,207.5 Z"/></g>
<g><path style="opacity:1" fill="#f5f4f9" d="M 558.5,209.5 C 562.15,213.982 566.317,217.982 571,221.5C 576.105,218.854 581.272,216.688 586.5,215C 583.414,219.759 580.747,224.759 578.5,230C 582.153,234.322 585.82,238.655 589.5,243C 584.086,242.931 578.752,242.098 573.5,240.5C 569.848,245.126 566.681,250.126 564,255.5C 563.161,249.725 561.995,244.058 560.5,238.5C 555.417,237.749 550.417,236.582 545.5,235C 549.919,232.373 554.419,229.873 559,227.5C 559.641,221.472 559.474,215.472 558.5,209.5 Z"/></g>
<g><path style="opacity:1" fill="#f4f4f8" d="M 377.5,246.5 C 379.608,251.23 381.275,256.23 382.5,261.5C 388.013,263.119 393.68,263.952 399.5,264C 395,267.167 390.5,270.333 386,273.5C 386.667,279.5 387.333,285.5 388,291.5C 384.115,287.48 379.948,283.814 375.5,280.5C 370.415,283.124 365.582,286.124 361,289.5C 362.07,283.833 363.904,278.333 366.5,273C 362.8,268.965 358.8,265.298 354.5,262C 360.196,261.83 365.862,261.33 371.5,260.5C 373.515,255.807 375.515,251.141 377.5,246.5 Z"/></g>
<g><path style="opacity:1" fill="#f6f5f9" d="M 572.5,266.5 C 577.833,265.833 583.167,265.167 588.5,264.5C 589.834,259.332 591.668,254.332 594,249.5C 596.719,254.156 598.553,259.156 599.5,264.5C 605.206,264.171 610.872,264.505 616.5,265.5C 611.848,268.821 607.515,272.487 603.5,276.5C 604.933,280.965 606.266,285.465 607.5,290C 607.167,290.5 606.833,291 606.5,291.5C 602.341,288.253 598.008,285.253 593.5,282.5C 588.911,285.711 584.411,289.045 580,292.5C 580.867,286.889 582.367,281.389 584.5,276C 580.625,272.619 576.625,269.453 572.5,266.5 Z"/></g>
<g><path style="opacity:1" fill="#9898c1" d="M 588.5,264.5 C 583.167,265.167 577.833,265.833 572.5,266.5C 571.957,266.44 571.624,266.107 571.5,265.5C 577.128,264.505 582.794,264.171 588.5,264.5 Z"/></g>
<g><path style="opacity:1" fill="#f7f7fa" d="M 360.5,297.5 C 364.49,301.495 368.156,305.829 371.5,310.5C 377.033,308.315 382.366,306.648 387.5,305.5C 384.286,310.211 381.286,315.044 378.5,320C 381.318,324.156 384.152,328.323 387,332.5C 387.667,333.167 387.667,333.833 387,334.5C 381.986,332.824 376.986,331.157 372,329.5C 368.667,334.167 365.333,338.833 362,343.5C 361.667,337.833 361.333,332.167 361,326.5C 355.653,324.273 350.153,322.44 344.5,321C 349.342,318.55 354.342,316.383 359.5,314.5C 360.495,308.872 360.829,303.206 360.5,297.5 Z"/></g>
<g><path style="opacity:1" fill="#f6f6f9" d="M 606.5,298.5 C 606.736,303.98 606.903,309.647 607,315.5C 611.581,317.873 616.081,320.373 620.5,323C 614.996,323.971 609.663,325.471 604.5,327.5C 603.526,332.536 602.359,337.536 601,342.5C 598.626,338.25 596.126,334.084 593.5,330C 587.739,329.78 582.073,330.114 576.5,331C 579.981,326.685 583.647,322.518 587.5,318.5C 584.706,313.747 582.04,308.914 579.5,304C 584.743,305.697 589.91,307.863 595,310.5C 599.037,306.631 602.87,302.631 606.5,298.5 Z"/></g>
<g><path style="opacity:1" fill="#f8f8fb" d="M 393.5,345.5 C 394.139,346.097 394.472,346.93 394.5,348C 393.391,352.472 392.891,356.972 393,361.5C 397.247,364.708 401.747,367.542 406.5,370C 401.256,371.486 395.923,372.653 390.5,373.5C 389.144,378.78 387.977,384.114 387,389.5C 384.246,384.992 381.746,380.326 379.5,375.5C 374.26,375.426 368.926,375.259 363.5,375C 367.639,371.541 370.972,367.541 373.5,363C 371.436,357.8 369.602,352.634 368,347.5C 372.52,350.427 377.187,353.093 382,355.5C 386.015,352.315 389.848,348.982 393.5,345.5 Z"/></g>
<g><path style="opacity:1" fill="#f6f5f9" d="M 570.5,346.5 C 574.48,350.145 578.48,353.811 582.5,357.5C 587.604,354.437 592.938,352.27 598.5,351C 595.96,355.914 593.294,360.747 590.5,365.5C 594.318,369.818 598.318,373.985 602.5,378C 596.511,377.574 590.511,377.24 584.5,377C 582.127,381.581 579.627,386.081 577,390.5C 575.681,385.225 574.681,379.892 574,374.5C 568.461,372.995 562.961,371.495 557.5,370C 562,367.5 566.5,365 571,362.5C 570.808,357.201 570.641,351.867 570.5,346.5 Z"/></g>
<g><path style="opacity:1" fill="#f4f4f8" d="M 549.5,378.5 C 550.931,378.881 551.764,379.881 552,381.5C 553.314,385.754 554.147,390.087 554.5,394.5C 560.272,394.809 565.939,395.643 571.5,397C 567.633,399.698 563.633,402.198 559.5,404.5C 559.167,405.5 558.833,406.5 558.5,407.5C 559.347,412.58 560.18,417.58 561,422.5C 556.667,418.833 552.333,415.167 548,411.5C 543.37,413.968 538.87,416.634 534.5,419.5C 534.167,419.167 533.833,418.833 533.5,418.5C 535.931,413.341 537.431,408.007 538,402.5C 534.217,399.684 530.717,396.517 527.5,393C 533.157,392.501 538.824,392.334 544.5,392.5C 546.16,387.844 547.826,383.177 549.5,378.5 Z"/></g>
<g><path style="opacity:1" fill="#f5f5f9" d="M 416.5,379.5 C 418.579,384.873 419.912,390.539 420.5,396.5C 425.979,396.974 431.313,398.14 436.5,400C 432.081,402.627 427.581,405.127 423,407.5C 423.886,413.073 424.22,418.739 424,424.5C 420.288,420.452 416.288,416.785 412,413.5C 406.635,415.611 401.468,417.778 396.5,420C 399.216,415.188 401.55,410.188 403.5,405C 400.033,400.697 396.366,396.53 392.5,392.5C 392.833,392.167 393.167,391.833 393.5,391.5C 398.251,392.865 403.085,393.865 408,394.5C 411.339,389.826 414.172,384.826 416.5,379.5 Z"/></g>
<g><path style="opacity:1" fill="#f5f5f9" d="M 446.5,400.5 C 450.51,404.343 454.677,408.01 459,411.5C 463.542,409.597 468.042,407.597 472.5,405.5C 472.833,405.833 473.167,406.167 473.5,406.5C 470.776,410.78 468.443,415.28 466.5,420C 469.402,424.908 473.069,429.242 477.5,433C 471.924,432.954 466.424,432.12 461,430.5C 457.764,434.629 454.764,438.962 452,443.5C 450.607,438.627 449.44,433.627 448.5,428.5C 443.108,427.189 437.774,425.689 432.5,424C 437.38,421.643 442.214,419.143 447,416.5C 446.661,411.227 446.494,405.893 446.5,400.5 Z"/></g>
<g><path style="opacity:1" fill="#f8f8fb" d="M 513.5,401.5 C 514.167,406.5 514.833,411.5 515.5,416.5C 520.477,418.494 525.477,420.494 530.5,422.5C 524.885,424.372 519.218,426.039 513.5,427.5C 513.829,433.206 513.495,438.872 512.5,444.5C 509.377,440.422 506.377,436.255 503.5,432C 498.562,431.939 493.728,432.773 489,434.5C 488.5,434.167 488,433.833 487.5,433.5C 490.5,429.5 493.5,425.5 496.5,421.5C 494.084,416.999 491.417,412.666 488.5,408.5C 493.599,408.694 498.599,410.028 503.5,412.5C 506.855,408.813 510.189,405.147 513.5,401.5 Z"/></g>
<g><path style="opacity:1" fill="#9190bd" d="M 515.5,416.5 C 514.833,411.5 514.167,406.5 513.5,401.5C 513.783,400.711 514.283,400.044 515,399.5C 515.499,405.157 515.666,410.824 515.5,416.5 Z"/></g>
</svg>
