<?xml version="1.0" encoding="UTF-8"?>
<!DOCTYPE svg PUBLIC "-//W3C//DTD SVG 1.1//EN" "http://www.w3.org/Graphics/SVG/1.1/DTD/svg11.dtd">
<svg xmlns="http://www.w3.org/2000/svg" version="1.1" width="640px" height="480px" style="shape-rendering:geometricPrecision; text-rendering:geometricPrecision; image-rendering:optimizeQuality; fill-rule:evenodd; clip-rule:evenodd" xmlns:xlink="http://www.w3.org/1999/xlink">
<g><path style="opacity:1" fill="#ff0000" d="M -0.5,-0.5 C 212.833,-0.5 426.167,-0.5 639.5,-0.5C 639.5,52.8333 639.5,106.167 639.5,159.5C 563.833,159.5 488.167,159.5 412.5,159.5C 412.5,199.167 412.5,238.833 412.5,278.5C 411.833,239.5 411.167,200.5 410.5,161.5C 349.833,161.5 289.167,161.5 228.5,161.5C 227.833,200.5 227.167,239.5 226.5,278.5C 226.5,238.833 226.5,199.167 226.5,159.5C 150.833,159.5 75.1667,159.5 -0.5,159.5C -0.5,106.167 -0.5,52.8333 -0.5,-0.5 Z"/></g>
<g><path style="opacity:1" fill="#f5eaee" d="M 318.5,66.5 C 326.746,72.0666 334.746,78.0666 342.5,84.5C 350.672,79.5799 359.005,74.9132 367.5,70.5C 373.989,77.1569 380.322,83.9902 386.5,91C 395.064,89.3688 403.397,86.7022 411.5,83C 412.944,82.2195 414.277,82.3861 415.5,83.5C 420.708,92.0842 426.042,100.584 431.5,109C 424.129,125.575 416.629,142.075 409,158.5C 367.36,139.886 324.027,134.553 279,142.5C 261.918,145.639 245.585,150.972 230,158.5C 222.371,142.075 214.871,125.575 207.5,109C 212.958,100.584 218.292,92.0842 223.5,83.5C 224.723,82.3861 226.056,82.2195 227.5,83C 235.603,86.7022 243.936,89.3688 252.5,91C 258.703,83.7992 265.203,76.9659 272,70.5C 280.232,75.0333 288.399,79.6999 296.5,84.5C 304.168,78.8249 311.501,72.8249 318.5,66.5 Z"/></g>
<g><path style="opacity:1" fill="#1b1893" d="M 386.5,94.5 C 384.83,100.516 383.163,106.516 381.5,112.5C 381.371,114.216 381.038,115.883 380.5,117.5C 379.518,120.763 378.851,124.097 378.5,127.5C 377.596,128.209 377.263,129.209 377.5,130.5C 376.372,134.001 375.372,137.667 374.5,141.5C 374.253,142.713 373.586,143.38 372.5,143.5C 361.123,141.049 349.79,139.049 338.5,137.5C 339.393,120.461 340.727,103.461 342.5,86.5C 350.884,82.2245 359.05,77.5579 367,72.5C 373.708,79.7045 380.208,87.0379 386.5,94.5 Z"/></g>
<g><path style="opacity:1" fill="#261b95" d="M 297.5,86.5 C 297.5,87.8333 297.5,89.1667 297.5,90.5C 296.596,89.791 296.263,88.791 296.5,87.5C 281.546,88.1036 266.879,90.4369 252.5,94.5C 258.792,87.0379 265.292,79.7045 272,72.5C 280.154,77.8254 288.654,82.4921 297.5,86.5 Z"/></g>
<g><path style="opacity:1" fill="#1290d7" d="M 342.5,86.5 C 340.727,103.461 339.393,120.461 338.5,137.5C 324.804,137.24 311.137,137.573 297.5,138.5C 298.209,137.596 299.209,137.263 300.5,137.5C 300.693,133.434 300.36,129.434 299.5,125.5C 299.818,120.968 299.485,116.634 298.5,112.5C 298.628,108.119 298.295,103.785 297.5,99.5C 297.5,96.5 297.5,93.5 297.5,90.5C 297.5,89.1667 297.5,87.8333 297.5,86.5C 304.803,80.5082 312.136,74.5082 319.5,68.5C 327.204,74.5477 334.871,80.5477 342.5,86.5 Z"/></g>
<g><path style="opacity:1" fill="#1292da" d="M 252.5,94.5 C 253.808,98.4001 254.808,102.4 255.5,106.5C 256.848,110.584 258.181,114.584 259.5,118.5C 259.74,123.12 260.74,127.453 262.5,131.5C 263.192,135.6 264.192,139.6 265.5,143.5C 253.603,146.885 241.936,150.718 230.5,155C 223.597,140.693 217.097,126.193 211,111.5C 210.448,108.581 211.115,105.914 213,103.5C 217.209,97.5851 221.042,91.4184 224.5,85C 234.065,87.2722 243.398,90.4388 252.5,94.5 Z"/></g>
<g><path style="opacity:1" fill="#1293da" d="M 381.5,112.5 C 383.163,106.516 384.83,100.516 386.5,94.5C 395.602,90.4388 404.935,87.2722 414.5,85C 419.25,93.1682 424.25,101.168 429.5,109C 427.038,114.092 424.705,119.259 422.5,124.5C 421.833,124.833 421.167,125.167 420.5,125.5C 407.744,120.395 394.744,116.062 381.5,112.5 Z"/></g>
<g><path style="opacity:1" fill="#fa0005" d="M 297.5,90.5 C 297.5,93.5 297.5,96.5 297.5,99.5C 283.363,101.061 269.363,103.394 255.5,106.5C 254.808,102.4 253.808,98.4001 252.5,94.5C 266.879,90.4369 281.546,88.1036 296.5,87.5C 296.263,88.791 296.596,89.791 297.5,90.5 Z"/></g>
<g><path style="opacity:1" fill="#9b8e1c" d="M 316.5,99.5 C 314.595,97.951 314.261,96.1176 315.5,94C 310.98,93.1864 306.646,93.353 302.5,94.5C 301.957,94.44 301.624,94.1067 301.5,93.5C 302.167,92.8333 302.833,92.1667 303.5,91.5C 302.251,88.5869 303.085,87.9203 306,89.5C 307.285,89.0496 308.452,88.3829 309.5,87.5C 311.713,90.0801 313.88,90.0801 316,87.5C 316.333,89.0468 315.833,90.3801 314.5,91.5C 317.053,93.8036 317.72,96.4703 316.5,99.5 Z"/></g>
<g><path style="opacity:1" fill="#a3951b" d="M 336.5,99.5 C 335.539,97.7354 335.205,95.7354 335.5,93.5C 331.833,93.5 328.167,93.5 324.5,93.5C 324.16,97.1309 324.994,100.464 327,103.5C 327.401,101.479 328.568,100.145 330.5,99.5C 331.386,100.325 331.719,101.325 331.5,102.5C 332.959,102.567 334.292,102.234 335.5,101.5C 335.426,103.411 334.426,104.578 332.5,105C 327.289,106.561 323.956,104.728 322.5,99.5C 322.888,97.6409 322.888,95.6409 322.5,93.5C 324.542,92.4968 324.875,91.1634 323.5,89.5C 324.533,88.548 325.7,88.548 327,89.5C 329.285,86.9425 331.285,87.2758 333,90.5C 336.912,87.5287 337.745,87.862 335.5,91.5C 336.167,92.1667 336.833,92.8333 337.5,93.5C 337.256,95.55 336.923,97.55 336.5,99.5 Z"/></g>
<g><path style="opacity:1" fill="#e2c915" d="M 336.5,99.5 C 336.672,100.492 336.338,101.158 335.5,101.5C 334.292,102.234 332.959,102.567 331.5,102.5C 331.719,101.325 331.386,100.325 330.5,99.5C 328.568,100.145 327.401,101.479 327,103.5C 324.994,100.464 324.16,97.1309 324.5,93.5C 328.167,93.5 331.833,93.5 335.5,93.5C 335.205,95.7354 335.539,97.7354 336.5,99.5 Z"/></g>
<g><path style="opacity:1" fill="#cfb919" d="M 409.5,93.5 C 411.063,95.7297 413.063,97.7297 415.5,99.5C 413.829,101.51 413.162,103.843 413.5,106.5C 410.635,106.055 408.135,106.722 406,108.5C 405.3,105.415 403.467,103.415 400.5,102.5C 401.5,101.167 402.5,99.8333 403.5,98.5C 402,94.9107 403,93.9107 406.5,95.5C 408.038,95.5466 409.038,94.8799 409.5,93.5 Z"/></g>
<g><path style="opacity:1" fill="#b30d0a" d="M 356.5,99.5 C 354.265,99.7947 352.265,99.4614 350.5,98.5C 352.449,96.6946 354.782,95.6946 357.5,95.5C 361.405,96.9501 365.405,98.1168 369.5,99C 368.892,99.8699 368.059,100.37 367,100.5C 365.838,99.8132 364.672,99.6466 363.5,100C 366.126,102.146 369.126,103.479 372.5,104C 370.5,104.667 368.5,104.667 366.5,104C 363.772,101.135 360.438,99.6355 356.5,99.5 Z"/></g>
<g><path style="opacity:1" fill="#211693" d="M 297.5,99.5 C 298.295,103.785 298.628,108.119 298.5,112.5C 285.342,113.526 272.342,115.526 259.5,118.5C 258.181,114.584 256.848,110.584 255.5,106.5C 269.363,103.394 283.363,101.061 297.5,99.5 Z"/></g>
<g><path style="opacity:1" fill="#ceb919" d="M 229.5,99.5 C 231.156,100.146 232.823,100.813 234.5,101.5C 238,99.9107 239,100.911 237.5,104.5C 238.5,105.833 239.5,107.167 240.5,108.5C 239.372,109.262 238.205,109.929 237,110.5C 236.71,112.044 236.044,113.377 235,114.5C 232.925,112.352 230.592,112.018 228,113.5C 227.904,110.549 227.071,107.882 225.5,105.5C 228.337,104.491 229.67,102.491 229.5,99.5 Z"/></g>
<g><path style="opacity:1" fill="#d3bc15" d="M 316.5,99.5 C 315.362,104.402 312.362,106.235 307.5,105C 305.269,103.723 303.602,101.889 302.5,99.5C 301.989,97.6226 301.989,95.9559 302.5,94.5C 306.646,93.353 310.98,93.1864 315.5,94C 314.261,96.1176 314.595,97.951 316.5,99.5 Z"/></g>
<g><path style="opacity:1" fill="#fa0106" d="M 298.5,112.5 C 299.485,116.634 299.818,120.968 299.5,125.5C 286.977,126.384 274.644,128.384 262.5,131.5C 260.74,127.453 259.74,123.12 259.5,118.5C 272.342,115.526 285.342,113.526 298.5,112.5 Z"/></g>
<g><path style="opacity:1" fill="#d9bd17" d="M 350.5,98.5 C 352.265,99.4614 354.265,99.7947 356.5,99.5C 356.918,100.222 357.584,100.722 358.5,101C 356.998,101.583 355.665,102.416 354.5,103.5C 355.648,105.149 356.981,106.649 358.5,108C 364.13,109.185 369.797,110.185 375.5,111C 372.367,113.959 370.7,117.626 370.5,122C 368.621,123.709 366.954,125.542 365.5,127.5C 364.833,127.5 364.167,127.5 363.5,127.5C 364.476,126.185 365.476,124.852 366.5,123.5C 366.167,122.5 365.5,121.833 364.5,121.5C 362.024,122.809 360.024,124.642 358.5,127C 357.5,127.667 356.5,127.667 355.5,127C 357.923,125.429 359.256,123.263 359.5,120.5C 357.833,120.5 356.167,120.5 354.5,120.5C 354.159,123.516 352.993,126.182 351,128.5C 350.5,128 350,127.5 349.5,127C 352.097,124.683 352.93,121.85 352,118.5C 351.167,120.167 350.333,121.833 349.5,123.5C 348.635,124.583 347.635,124.749 346.5,124C 348.444,122.278 349.444,120.111 349.5,117.5C 348.231,113.994 348.231,110.494 349.5,107C 349.215,105.11 348.215,103.777 346.5,103C 348.525,101.806 348.859,100.306 347.5,98.5C 348.425,97.4376 349.425,97.4376 350.5,98.5 Z"/></g>
<g><path style="opacity:1" fill="#918720" d="M 326.5,117.5 C 322.702,116.517 318.702,116.183 314.5,116.5C 314.297,114.956 313.63,113.622 312.5,112.5C 314.061,111.653 315.561,111.986 317,113.5C 317.368,112.09 318.201,111.09 319.5,110.5C 321.452,112.533 323.618,112.866 326,111.5C 326.492,112.549 326.326,113.549 325.5,114.5C 326.167,115.167 326.833,115.833 327.5,116.5C 327.376,117.107 327.043,117.44 326.5,117.5 Z"/></g>
<g><path style="opacity:1" fill="#d3bc18" d="M 314.5,116.5 C 318.702,116.183 322.702,116.517 326.5,117.5C 327.597,123.664 325.431,127.664 320,129.5C 317.276,128.312 314.943,126.645 313,124.5C 312.727,122.899 312.227,121.399 311.5,120C 312.357,118.777 313.357,117.611 314.5,116.5 Z"/></g>
<g><path style="opacity:1" fill="#f1130c" d="M 378.5,127.5 C 378.851,124.097 379.518,120.763 380.5,117.5C 387.115,117.438 393.615,118.771 400,121.5C 405.888,123.528 411.721,125.694 417.5,128C 418.516,128.519 419.182,129.353 419.5,130.5C 418.432,134.307 416.599,137.64 414,140.5C 402.238,135.638 390.405,131.305 378.5,127.5 Z"/></g>
<g><path style="opacity:1" fill="#21100d" d="M 385.5,119.5 C 388.416,121.875 391.749,123.709 395.5,125C 402.416,125.916 409.082,127.749 415.5,130.5C 413.041,131.643 410.707,131.31 408.5,129.5C 408.167,129.833 407.833,130.167 407.5,130.5C 408.833,131.62 409.333,132.953 409,134.5C 407.247,133.373 405.413,132.373 403.5,131.5C 401.007,132.964 398.674,132.797 396.5,131C 397.167,130.667 397.833,130.333 398.5,130C 395.118,129.824 391.785,129.324 388.5,128.5C 389.397,128.331 390.397,127.998 391.5,127.5C 389.234,126.686 386.9,126.186 384.5,126C 385.624,125.751 386.624,125.251 387.5,124.5C 386.395,123.108 385.061,121.941 383.5,121C 384.416,120.722 385.082,120.222 385.5,119.5 Z"/></g>
<g><path style="opacity:1" fill="#e9ecee" d="M 251.5,122.5 C 252.105,134.038 246.438,138.872 234.5,137C 230.847,136.016 228.68,133.849 228,130.5C 239.11,137.519 246.944,134.852 251.5,122.5 Z"/></g>
<g><path style="opacity:1" fill="#201794" d="M 299.5,125.5 C 300.36,129.434 300.693,133.434 300.5,137.5C 299.209,137.263 298.209,137.596 297.5,138.5C 286.667,139.133 276.001,140.8 265.5,143.5C 264.192,139.6 263.192,135.6 262.5,131.5C 274.644,128.384 286.977,126.384 299.5,125.5 Z"/></g>
<g><path style="opacity:1" fill="#d03210" d="M 363.5,127.5 C 364.167,127.5 364.833,127.5 365.5,127.5C 365.38,128.586 364.713,129.253 363.5,129.5C 360.917,128.758 360.917,128.092 363.5,127.5 Z"/></g>
<g><path style="opacity:1" fill="#1595dd" d="M 377.5,130.5 C 377.62,131.586 378.287,132.253 379.5,132.5C 391.35,135.393 402.683,139.56 413.5,145C 412.145,148.212 410.645,151.378 409,154.5C 408.439,155.022 407.772,155.355 407,155.5C 395.587,150.948 384.087,146.948 372.5,143.5C 373.586,143.38 374.253,142.713 374.5,141.5C 375.372,137.667 376.372,134.001 377.5,130.5 Z"/></g>
<g><path style="opacity:1" fill="#fffefe" d="M -0.5,159.5 C 75.1667,159.5 150.833,159.5 226.5,159.5C 226.5,199.167 226.5,238.833 226.5,278.5C 228.219,292.989 232.552,306.656 239.5,319.5C 159.5,319.5 79.5,319.5 -0.5,319.5C -0.5,266.167 -0.5,212.833 -0.5,159.5 Z"/></g>
<g><path style="opacity:1" fill="#fffefe" d="M 639.5,159.5 C 639.5,212.833 639.5,266.167 639.5,319.5C 559.167,319.5 478.833,319.5 398.5,319.5C 406.347,306.96 411.014,293.293 412.5,278.5C 412.5,238.833 412.5,199.167 412.5,159.5C 488.167,159.5 563.833,159.5 639.5,159.5 Z"/></g>
<g><path style="opacity:1" fill="#171695" d="M -0.5,319.5 C 79.5,319.5 159.5,319.5 239.5,319.5C 267.67,358.503 305.004,371.336 351.5,358C 371.261,350.064 386.927,337.231 398.5,319.5C 478.833,319.5 559.167,319.5 639.5,319.5C 639.5,372.833 639.5,426.167 639.5,479.5C 426.167,479.5 212.833,479.5 -0.5,479.5C -0.5,426.167 -0.5,372.833 -0.5,319.5 Z"/></g>
<g><path style="opacity:1" fill="#f94d42" d="M 228.5,161.5 C 228.333,201.501 228.5,241.501 229,281.5C 236.369,324.87 261.536,351.37 304.5,361C 348.283,365.473 380.783,348.64 402,310.5C 405.751,301.832 408.417,292.832 410,283.5C 410.5,242.835 410.667,202.168 410.5,161.5C 411.167,200.5 411.833,239.5 412.5,278.5C 411.014,293.293 406.347,306.96 398.5,319.5C 386.927,337.231 371.261,350.064 351.5,358C 305.004,371.336 267.67,358.503 239.5,319.5C 232.552,306.656 228.219,292.989 226.5,278.5C 227.167,239.5 227.833,200.5 228.5,161.5 Z"/></g>
<g><path style="opacity:1" fill="#fffdfd" d="M 228.5,161.5 C 289.167,161.5 349.833,161.5 410.5,161.5C 410.667,202.168 410.5,242.835 410,283.5C 408.417,292.832 405.751,301.832 402,310.5C 380.783,348.64 348.283,365.473 304.5,361C 261.536,351.37 236.369,324.87 229,281.5C 228.5,241.501 228.333,201.501 228.5,161.5 Z"/></g>
<g><path style="opacity:1" fill="#ff0c07" d="M 372.5,319.5 C 379.175,319.334 385.842,319.5 392.5,320C 387.04,327.794 380.54,334.627 373,340.5C 372.5,333.508 372.334,326.508 372.5,319.5 Z"/></g>
<g><path style="opacity:1" fill="#ff0201" d="M 302.5,319.5 C 313.833,319.5 325.167,319.5 336.5,319.5C 336.5,331.833 336.5,344.167 336.5,356.5C 325.024,359.066 313.69,359.066 302.5,356.5C 302.5,344.167 302.5,331.833 302.5,319.5 Z"/></g>
<g><path style="opacity:1" fill="#ff0e07" d="M 266.5,319.5 C 266.666,326.508 266.5,333.508 266,340.5C 258.46,334.627 251.96,327.794 246.5,320C 253.158,319.5 259.825,319.334 266.5,319.5 Z"/></g>
<g><path style="opacity:1" fill="#ff0704" d="M 337.5,280.5 C 349.167,280.5 360.833,280.5 372.5,280.5C 372.5,293.5 372.5,306.5 372.5,319.5C 360.833,319.5 349.167,319.5 337.5,319.5C 337.5,306.5 337.5,293.5 337.5,280.5 Z"/></g>
<g><path style="opacity:1" fill="#ff9d9c" d="M 302.5,281.5 C 302.5,281.167 302.5,280.833 302.5,280.5C 313.833,280.5 325.167,280.5 336.5,280.5C 336.833,280.5 337.167,280.5 337.5,280.5C 337.5,293.5 337.5,306.5 337.5,319.5C 337.829,332.011 337.495,344.345 336.5,356.5C 336.5,344.167 336.5,331.833 336.5,319.5C 336.5,306.833 336.5,294.167 336.5,281.5C 325.167,281.5 313.833,281.5 302.5,281.5 Z"/></g>
<g><path style="opacity:1" fill="#fefffe" d="M 302.5,281.5 C 313.833,281.5 325.167,281.5 336.5,281.5C 336.5,294.167 336.5,306.833 336.5,319.5C 325.167,319.5 313.833,319.5 302.5,319.5C 302.5,306.833 302.5,294.167 302.5,281.5 Z"/></g>
<g><path style="opacity:1" fill="#ff0000" d="M 266.5,281.5 C 278.167,281.5 289.833,281.5 301.5,281.5C 301.5,294.167 301.5,306.833 301.5,319.5C 289.833,319.5 278.167,319.5 266.5,319.5C 266.5,306.833 266.5,294.167 266.5,281.5 Z"/></g>
<g><path style="opacity:1" fill="#ff0100" d="M 372.5,242.5 C 384.167,242.5 395.833,242.5 407.5,242.5C 407.5,255.167 407.5,267.833 407.5,280.5C 395.833,280.5 384.167,280.5 372.5,280.5C 372.5,267.833 372.5,255.167 372.5,242.5 Z"/></g>
<g><path style="opacity:1" fill="#fffdfd" d="M 372.5,242.5 C 372.5,255.167 372.5,267.833 372.5,280.5C 360.833,280.5 349.167,280.5 337.5,280.5C 337.5,267.833 337.5,255.167 337.5,242.5C 349.167,242.5 360.833,242.5 372.5,242.5 Z"/></g>
<g><path style="opacity:1" fill="#fffdfd" d="M 266.5,242.5 C 278.167,242.5 289.833,242.5 301.5,242.5C 301.5,255.167 301.5,267.833 301.5,280.5C 289.833,280.5 278.167,280.5 266.5,280.5C 266.5,267.833 266.5,255.167 266.5,242.5 Z"/></g>
<g><path style="opacity:1" fill="#ff0100" d="M 231.5,242.5 C 243.167,242.5 254.833,242.5 266.5,242.5C 266.5,255.167 266.5,267.833 266.5,280.5C 254.833,280.5 243.167,280.5 231.5,280.5C 231.5,267.833 231.5,255.167 231.5,242.5 Z"/></g>
<g><path style="opacity:1" fill="#ff807e" d="M 302.5,164.5 C 302.5,177.5 302.5,190.5 302.5,203.5C 302.5,216.167 302.5,228.833 302.5,241.5C 313.833,241.5 325.167,241.5 336.5,241.5C 336.5,228.833 336.5,216.167 336.5,203.5C 336.5,190.5 336.5,177.5 336.5,164.5C 337.495,177.323 337.829,190.323 337.5,203.5C 337.5,216.167 337.5,228.833 337.5,241.5C 349.167,241.5 360.833,241.5 372.5,241.5C 384.345,241.172 396.012,241.505 407.5,242.5C 395.833,242.5 384.167,242.5 372.5,242.5C 360.833,242.5 349.167,242.5 337.5,242.5C 337.5,255.167 337.5,267.833 337.5,280.5C 337.167,280.5 336.833,280.5 336.5,280.5C 336.5,267.833 336.5,255.167 336.5,242.5C 325.167,242.5 313.833,242.5 302.5,242.5C 302.5,255.167 302.5,267.833 302.5,280.5C 302.5,280.833 302.5,281.167 302.5,281.5C 302.5,294.167 302.5,306.833 302.5,319.5C 302.5,331.833 302.5,344.167 302.5,356.5C 301.505,344.345 301.171,332.011 301.5,319.5C 301.5,306.833 301.5,294.167 301.5,281.5C 289.833,281.5 278.167,281.5 266.5,281.5C 266.5,281.167 266.5,280.833 266.5,280.5C 278.167,280.5 289.833,280.5 301.5,280.5C 301.5,267.833 301.5,255.167 301.5,242.5C 289.833,242.5 278.167,242.5 266.5,242.5C 254.833,242.5 243.167,242.5 231.5,242.5C 242.988,241.505 254.655,241.172 266.5,241.5C 278.167,241.5 289.833,241.5 301.5,241.5C 301.5,228.833 301.5,216.167 301.5,203.5C 301.171,190.323 301.505,177.323 302.5,164.5 Z"/></g>
<g><path style="opacity:1" fill="#fe0000" d="M 336.5,280.5 C 325.167,280.5 313.833,280.5 302.5,280.5C 302.5,267.833 302.5,255.167 302.5,242.5C 313.833,242.5 325.167,242.5 336.5,242.5C 336.5,255.167 336.5,267.833 336.5,280.5 Z"/></g>
<g><path style="opacity:1" fill="#ff0201" d="M 337.5,203.5 C 349.167,203.5 360.833,203.5 372.5,203.5C 372.5,216.167 372.5,228.833 372.5,241.5C 360.833,241.5 349.167,241.5 337.5,241.5C 337.5,228.833 337.5,216.167 337.5,203.5 Z"/></g>
<g><path style="opacity:1" fill="#fefffe" d="M 302.5,203.5 C 313.833,203.5 325.167,203.5 336.5,203.5C 336.5,216.167 336.5,228.833 336.5,241.5C 325.167,241.5 313.833,241.5 302.5,241.5C 302.5,228.833 302.5,216.167 302.5,203.5 Z"/></g>
<g><path style="opacity:1" fill="#ff0000" d="M 266.5,203.5 C 278.167,203.5 289.833,203.5 301.5,203.5C 301.5,216.167 301.5,228.833 301.5,241.5C 289.833,241.5 278.167,241.5 266.5,241.5C 266.5,228.833 266.5,216.167 266.5,203.5 Z"/></g>
<g><path style="opacity:1" fill="#ff0302" d="M 372.5,203.5 C 372.5,190.5 372.5,177.5 372.5,164.5C 384.167,164.5 395.833,164.5 407.5,164.5C 407.5,177.5 407.5,190.5 407.5,203.5C 395.833,203.5 384.167,203.5 372.5,203.5 Z"/></g>
<g><path style="opacity:1" fill="#ff0302" d="M 302.5,164.5 C 313.833,164.5 325.167,164.5 336.5,164.5C 336.5,177.5 336.5,190.5 336.5,203.5C 325.167,203.5 313.833,203.5 302.5,203.5C 302.5,190.5 302.5,177.5 302.5,164.5 Z"/></g>
<g><path style="opacity:1" fill="#ff0302" d="M 266.5,203.5 C 254.833,203.5 243.167,203.5 231.5,203.5C 231.5,190.5 231.5,177.5 231.5,164.5C 243.167,164.5 254.833,164.5 266.5,164.5C 266.5,177.5 266.5,190.5 266.5,203.5 Z"/></g>
</svg>
