<?xml version="1.0" encoding="UTF-8"?>
<!DOCTYPE svg PUBLIC "-//W3C//DTD SVG 1.1//EN" "http://www.w3.org/Graphics/SVG/1.1/DTD/svg11.dtd">
<svg xmlns="http://www.w3.org/2000/svg" version="1.1" width="640px" height="480px" style="shape-rendering:geometricPrecision; text-rendering:geometricPrecision; image-rendering:optimizeQuality; fill-rule:evenodd; clip-rule:evenodd" xmlns:xlink="http://www.w3.org/1999/xlink">
<g><path style="opacity:1" fill="#00298e" d="M 0.5,-0.5 C 213.5,-0.5 426.5,-0.5 639.5,-0.5C 639.5,31.5 639.5,63.5 639.5,95.5C 481.5,95.5 323.5,95.5 165.5,95.5C 110,64.2539 55.0004,32.2539 0.5,-0.5 Z"/></g>
<g><path style="opacity:1" fill="#ca1515" d="M -0.5,-0.5 C -0.166667,-0.5 0.166667,-0.5 0.5,-0.5C 55.0004,32.2539 110,64.2539 165.5,95.5C 220.967,128.071 276.634,160.404 332.5,192.5C 359.437,208.307 386.437,224.14 413.5,240C 385.442,255.689 357.775,271.855 330.5,288.5C 274.903,320.109 219.57,352.109 164.5,384.5C 109.471,415.677 54.804,447.343 0.5,479.5C 0.166667,479.5 -0.166667,479.5 -0.5,479.5C -0.5,319.5 -0.5,159.5 -0.5,-0.5 Z"/></g>
<g><path style="opacity:1" fill="#fdfdfe" d="M 165.5,95.5 C 323.5,95.5 481.5,95.5 639.5,95.5C 639.5,127.833 639.5,160.167 639.5,192.5C 537.167,192.5 434.833,192.5 332.5,192.5C 276.634,160.404 220.967,128.071 165.5,95.5 Z"/></g>
<g><path style="opacity:1" fill="#fefcfc" d="M 153.5,216.5 C 171.167,217.167 188.833,217.833 206.5,218.5C 192.519,229.476 178.519,240.476 164.5,251.5C 170.733,269.36 176.233,287.36 181,305.5C 166.605,294.101 151.939,283.101 137,272.5C 122.172,283.251 107.505,294.251 93,305.5C 97.5583,288.48 102.558,271.48 108,254.5C 108.667,253.167 108.667,251.833 108,250.5C 93.8333,239.667 79.6667,228.833 65.5,218C 83.4969,217.5 101.497,217.333 119.5,217.5C 124.765,199.37 130.432,181.37 136.5,163.5C 142.769,180.974 148.436,198.641 153.5,216.5 Z"/></g>
<g><path style="opacity:1" fill="#022a8f" d="M 332.5,192.5 C 434.833,192.5 537.167,192.5 639.5,192.5C 639.5,224.5 639.5,256.5 639.5,288.5C 536.5,288.5 433.5,288.5 330.5,288.5C 357.775,271.855 385.442,255.689 413.5,240C 386.437,224.14 359.437,208.307 332.5,192.5 Z"/></g>
<g><path style="opacity:1" fill="#f0bdbd" d="M 153.5,216.5 C 171.836,216.333 190.17,216.5 208.5,217C 207.956,217.717 207.289,218.217 206.5,218.5C 188.833,217.833 171.167,217.167 153.5,216.5 Z"/></g>
<g><path style="opacity:1" fill="#fefefe" d="M 330.5,288.5 C 433.5,288.5 536.5,288.5 639.5,288.5C 639.5,320.5 639.5,352.5 639.5,384.5C 481.167,384.5 322.833,384.5 164.5,384.5C 219.57,352.109 274.903,320.109 330.5,288.5 Z"/></g>
<g><path style="opacity:1" fill="#002a8e" d="M 164.5,384.5 C 322.833,384.5 481.167,384.5 639.5,384.5C 639.5,416.167 639.5,447.833 639.5,479.5C 426.5,479.5 213.5,479.5 0.5,479.5C 54.804,447.343 109.471,415.677 164.5,384.5 Z"/></g>
</svg>
