<?xml version="1.0" encoding="UTF-8"?>
<!DOCTYPE svg PUBLIC "-//W3C//DTD SVG 1.1//EN" "http://www.w3.org/Graphics/SVG/1.1/DTD/svg11.dtd">
<svg xmlns="http://www.w3.org/2000/svg" version="1.1" width="640px" height="480px" style="shape-rendering:geometricPrecision; text-rendering:geometricPrecision; image-rendering:optimizeQuality; fill-rule:evenodd; clip-rule:evenodd" xmlns:xlink="http://www.w3.org/1999/xlink">
<g><path style="opacity:1" fill="#002b7e" d="M -0.5,-0.5 C 212.833,-0.5 426.167,-0.5 639.5,-0.5C 639.5,99.8333 639.5,200.167 639.5,300.5C 426.167,300.5 212.833,300.5 -0.5,300.5C -0.5,200.167 -0.5,99.8333 -0.5,-0.5 Z"/></g>
<g><path style="opacity:1" fill="#f6f7fa" d="M 79.5,40.5 C 82.9227,49.1731 85.5893,58.1731 87.5,67.5C 97.8387,67.3335 108.172,67.5002 118.5,68C 110.075,71.962 101.575,75.7954 93,79.5C 95,88.8333 97,98.1667 99,107.5C 92.9778,103.321 86.6445,99.6547 80,96.5C 72.2616,100.953 64.7616,105.787 57.5,111C 56.6683,111.688 56.0016,111.521 55.5,110.5C 58.1667,101.833 60.8333,93.1667 63.5,84.5C 57.2071,79.0099 50.8738,73.5099 44.5,68C 53.5184,67.832 62.5184,67.332 71.5,66.5C 74.1723,57.8041 76.839,49.1374 79.5,40.5 Z"/></g>
<g><path style="opacity:1" fill="#fafbfc" d="M 170.5,143.5 C 183.833,144.167 197.167,144.833 210.5,145.5C 198.743,149.881 187.409,155.048 176.5,161C 180.234,173.107 183.401,185.274 186,197.5C 177.584,192.042 169.084,186.708 160.5,181.5C 149.833,188.5 139.167,195.5 128.5,202.5C 130.905,190.407 134.239,178.24 138.5,166C 130.313,158.979 121.979,152.145 113.5,145.5C 125.5,144.833 137.5,144.167 149.5,143.5C 152.696,131.432 156.196,119.432 160,107.5C 164.009,119.36 167.509,131.36 170.5,143.5 Z"/></g>
<g><path style="opacity:1" fill="#97a8cb" d="M 149.5,143.5 C 137.5,144.167 125.5,144.833 113.5,145.5C 112.957,145.44 112.624,145.107 112.5,144.5C 124.815,143.501 137.149,143.168 149.5,143.5 Z"/></g>
<g><path style="opacity:1" fill="#98a9cb" d="M 170.5,143.5 C 184.504,143.333 198.504,143.5 212.5,144C 211.956,144.717 211.289,145.217 210.5,145.5C 197.167,144.833 183.833,144.167 170.5,143.5 Z"/></g>
<g><path style="opacity:1" fill="#f8e714" d="M -0.5,300.5 C 212.833,300.5 426.167,300.5 639.5,300.5C 639.5,320.5 639.5,340.5 639.5,360.5C 426.167,360.5 212.833,360.5 -0.5,360.5C -0.5,340.5 -0.5,320.5 -0.5,300.5 Z"/></g>
<g><path style="opacity:1" fill="#002a7f" d="M -0.5,360.5 C 212.833,360.5 426.167,360.5 639.5,360.5C 639.5,400.167 639.5,439.833 639.5,479.5C 426.167,479.5 212.833,479.5 -0.5,479.5C -0.5,439.833 -0.5,400.167 -0.5,360.5 Z"/></g>
</svg>
