<?xml version="1.0" encoding="UTF-8"?>
<!DOCTYPE svg PUBLIC "-//W3C//DTD SVG 1.1//EN" "http://www.w3.org/Graphics/SVG/1.1/DTD/svg11.dtd">
<svg xmlns="http://www.w3.org/2000/svg" version="1.1" width="640px" height="480px" style="shape-rendering:geometricPrecision; text-rendering:geometricPrecision; image-rendering:optimizeQuality; fill-rule:evenodd; clip-rule:evenodd" xmlns:xlink="http://www.w3.org/1999/xlink">
<g><path style="opacity:1" fill="#fefefe" d="M -0.5,-0.5 C 212.833,-0.5 426.167,-0.5 639.5,-0.5C 639.5,159.5 639.5,319.5 639.5,479.5C 426.167,479.5 212.833,479.5 -0.5,479.5C -0.5,319.5 -0.5,159.5 -0.5,-0.5 Z"/></g>
<g><path style="opacity:1" fill="#e5aa64" d="M 516.5,78.5 C 515.432,77.5655 514.099,77.2322 512.5,77.5C 514.218,76.776 516.052,76.1094 518,75.5C 518.585,76.9976 518.085,77.9976 516.5,78.5 Z"/></g>
<g><path style="opacity:1" fill="#d47602" d="M 512.5,77.5 C 514.099,77.2322 515.432,77.5655 516.5,78.5C 515.735,81.0961 515.401,83.7628 515.5,86.5C 507.473,88.5049 499.806,91.6716 492.5,96C 489.907,99.1982 487.574,102.531 485.5,106C 478.956,108.771 473.29,112.771 468.5,118C 455.78,122.437 444.613,129.27 435,138.5C 432.412,141.589 430.579,145.089 429.5,149C 423.944,150.239 418.278,150.906 412.5,151C 403.712,158.645 400.712,168.145 403.5,179.5C 400.833,180.167 400.833,180.833 403.5,181.5C 407.515,185.356 411.015,189.689 414,194.5C 417.7,198.535 421.7,202.202 426,205.5C 427.796,208.927 429.963,212.094 432.5,215C 430.987,217.454 431.654,219.121 434.5,220C 432.833,220.667 431.167,220.667 429.5,220C 424.566,217.241 419.232,215.741 413.5,215.5C 410.385,217.048 407.051,218.048 403.5,218.5C 401.66,221.335 399.16,223.335 396,224.5C 392.294,221.465 388.128,219.298 383.5,218C 377.5,217.333 371.5,217.333 365.5,218C 363.391,219.141 361.558,220.641 360,222.5C 358.855,228.129 357.855,233.795 357,239.5C 354.429,241.976 352.929,244.976 352.5,248.5C 346.484,247.3 341.484,248.8 337.5,253C 328.778,255.706 320.445,259.373 312.5,264C 307.736,266.712 302.736,267.712 297.5,267C 296.027,267.71 295.36,268.876 295.5,270.5C 286.852,269.534 278.186,269.368 269.5,270C 261.35,271.972 255.184,276.472 251,283.5C 250.207,288.589 251.707,292.923 255.5,296.5C 255,296.833 254.5,297.167 254,297.5C 252.279,296.105 250.279,295.439 248,295.5C 244.845,296.278 241.678,296.445 238.5,296C 238.892,288.616 235.892,282.616 229.5,278C 222.8,277.447 216.133,277.78 209.5,279C 206.65,280.91 203.483,282.076 200,282.5C 191.325,280.718 183.492,277.218 176.5,272C 173.167,271.167 169.833,270.333 166.5,269.5C 165.558,269.608 164.725,269.941 164,270.5C 161.205,268.707 158.705,266.54 156.5,264C 153.667,262.5 150.833,261 148,259.5C 147.129,254.143 146.129,248.809 145,243.5C 139.561,241.297 135.394,237.63 132.5,232.5C 133.489,231.532 134.156,230.365 134.5,229C 134.04,226.416 133.04,224.083 131.5,222C 132.493,219.547 132.66,217.047 132,214.5C 130.254,210.673 128.254,207.007 126,203.5C 125.216,200.24 125.383,197.073 126.5,194C 127.908,193.685 129.241,194.018 130.5,195C 141.791,207.724 152.958,207.558 164,194.5C 166.415,188.662 169.582,183.329 173.5,178.5C 174.446,178.987 175.446,179.32 176.5,179.5C 181.359,177.489 186.359,175.822 191.5,174.5C 196.04,176.109 200.706,177.275 205.5,178C 215.63,187.123 225.13,186.623 234,176.5C 237.74,166.471 239.407,156.138 239,145.5C 237.028,141.791 235.861,137.791 235.5,133.5C 236,133.167 236.5,132.833 237,132.5C 244.442,138.054 252.775,141.387 262,142.5C 264.619,142.273 267.119,141.607 269.5,140.5C 274.593,142.451 279.759,142.784 285,141.5C 288.642,143.025 292.475,144.025 296.5,144.5C 297.167,144.167 297.833,143.833 298.5,143.5C 305.453,145.87 312.62,146.87 320,146.5C 331.97,145.806 343.804,144.139 355.5,141.5C 357.429,141.54 359.262,141.873 361,142.5C 366.562,138.967 372.395,135.8 378.5,133C 384.167,132.667 389.833,132.333 395.5,132C 402.197,129.978 408.864,127.978 415.5,126C 423.531,121.984 431.531,117.984 439.5,114C 442.266,110.478 445.266,107.145 448.5,104C 449.899,103.405 451.232,103.572 452.5,104.5C 457.719,102.824 463.053,101.324 468.5,100C 472.12,97.26 475.453,94.26 478.5,91C 483.911,89.7535 488.911,87.5868 493.5,84.5C 494.293,84.9312 495.127,85.2645 496,85.5C 498.319,84.1287 500.819,83.4621 503.5,83.5C 503.5,82.5 503.5,81.5 503.5,80.5C 507.003,80.8711 510.003,79.8711 512.5,77.5 Z"/></g>
<g><path style="opacity:1" fill="#ebbd85" d="M 403.5,179.5 C 403.5,180.167 403.5,180.833 403.5,181.5C 400.833,180.833 400.833,180.167 403.5,179.5 Z"/></g>
<g><path style="opacity:1" fill="#475429" d="M 151.5,292.5 C 154.226,292.264 156.559,293.097 158.5,295C 164.531,299.692 169.031,305.525 172,312.5C 172.494,314.134 172.66,315.801 172.5,317.5C 165.29,316.129 159.123,312.795 154,307.5C 151.856,302.742 151.023,297.742 151.5,292.5 Z"/></g>
<g><path style="opacity:1" fill="#465429" d="M 437.5,292.5 C 438.833,292.5 440.167,292.5 441.5,292.5C 442.636,300.597 439.97,307.097 433.5,312C 429.333,314.448 425,316.615 420.5,318.5C 419.386,317.277 419.219,315.944 420,314.5C 423.888,305.464 429.721,298.131 437.5,292.5 Z"/></g>
<g><path style="opacity:1" fill="#525e36" d="M 175.5,299.5 C 178.091,300.254 179.924,301.921 181,304.5C 181.867,308.956 181.534,313.289 180,317.5C 175.881,312.267 174.381,306.267 175.5,299.5 Z"/></g>
<g><path style="opacity:1" fill="#4c5a30" d="M 416.5,298.5 C 417.147,299.274 417.48,300.274 417.5,301.5C 417.673,307.907 415.84,313.573 412,318.5C 411.333,313.5 411.333,308.5 412,303.5C 413.025,301.313 414.525,299.646 416.5,298.5 Z"/></g>
<g><path style="opacity:1" fill="#49572c" d="M 187.5,317.5 C 192.102,317.384 195.935,319.051 199,322.5C 203.535,327.872 206.035,333.872 206.5,340.5C 197.577,334.998 191.244,327.331 187.5,317.5 Z"/></g>
<g><path style="opacity:1" fill="#49562c" d="M 399.5,317.5 C 401.604,317.201 403.604,317.534 405.5,318.5C 401.322,327.679 394.988,335.013 386.5,340.5C 387.406,331.032 391.74,323.366 399.5,317.5 Z"/></g>
<g><path style="opacity:1" fill="#48552a" d="M 153.5,318.5 C 158.034,318.267 162.368,319.1 166.5,321C 169.695,322.695 172.028,325.195 173.5,328.5C 168.869,329.662 164.202,329.828 159.5,329C 155.605,326.6 153.605,323.1 153.5,318.5 Z"/></g>
<g><path style="opacity:1" fill="#475429" d="M 431.5,318.5 C 440.667,318.023 441.667,321.189 434.5,328C 429.628,329.388 424.628,329.888 419.5,329.5C 420.091,326.386 421.758,323.886 424.5,322C 426.925,320.787 429.259,319.621 431.5,318.5 Z"/></g>
<g><path style="opacity:1" fill="#4a582d" d="M 176.5,322.5 C 182.696,323.176 187.529,326.176 191,331.5C 192.833,334.667 194.667,337.833 196.5,341C 185.854,339.189 179.188,333.023 176.5,322.5 Z"/></g>
<g><path style="opacity:1" fill="#4c5930" d="M 411.5,322.5 C 413.167,322.5 414.833,322.5 416.5,322.5C 413.786,333.05 407.12,339.217 396.5,341C 399.94,333.41 404.94,327.244 411.5,322.5 Z"/></g>
<g><path style="opacity:1" fill="#4e5b32" d="M 172.5,334.5 C 174.927,334.523 177.26,335.023 179.5,336C 181.007,336.837 181.507,338.004 181,339.5C 175.616,341.93 172.783,340.263 172.5,334.5 Z"/></g>
<g><path style="opacity:1" fill="#4c5930" d="M 414.5,334.5 C 416.5,334.5 418.5,334.5 420.5,334.5C 420.582,338.251 418.749,340.251 415,340.5C 413.338,340.612 412.171,339.946 411.5,338.5C 412.524,337.148 413.524,335.815 414.5,334.5 Z"/></g>
<g><path style="opacity:1" fill="#525f36" d="M 210.5,337.5 C 214.791,337.93 216.458,340.097 215.5,344C 211.194,344.172 209.527,342.006 210.5,337.5 Z"/></g>
<g><path style="opacity:1" fill="#525e36" d="M 379.5,337.5 C 380.5,337.5 381.5,337.5 382.5,337.5C 382.894,340.712 381.728,343.046 379,344.5C 377.5,344.333 376.667,343.5 376.5,342C 376.957,340.06 377.957,338.56 379.5,337.5 Z"/></g>
<g><path style="opacity:1" fill="#49572c" d="M 220.5,341.5 C 231.571,340.89 238.905,345.89 242.5,356.5C 234.058,356.865 227.225,353.531 222,346.5C 220.991,344.975 220.491,343.308 220.5,341.5 Z"/></g>
<g><path style="opacity:1" fill="#48552a" d="M 363.5,341.5 C 366.572,341.183 369.572,341.516 372.5,342.5C 367.913,351.404 360.58,356.404 350.5,357.5C 352.621,350.378 356.954,345.045 363.5,341.5 Z"/></g>
<g><path style="opacity:1" fill="#475429" d="M 172.5,343.5 C 177.844,343.334 183.177,343.501 188.5,344C 192.98,345.072 196.647,347.406 199.5,351C 193.277,352.581 186.944,352.915 180.5,352C 177.751,350.877 175.251,349.377 173,347.5C 172.51,346.207 172.343,344.873 172.5,343.5 Z"/></g>
<g><path style="opacity:1" fill="#49562c" d="M 402.5,343.5 C 408.176,343.334 413.843,343.501 419.5,344C 420.468,346.737 419.468,348.737 416.5,350C 408.685,352.649 400.685,353.149 392.5,351.5C 395.499,348.344 398.832,345.678 402.5,343.5 Z"/></g>
<g><path style="opacity:1" fill="#4b582e" d="M 202.5,346.5 C 212.648,345.394 220.981,349.06 227.5,357.5C 220.226,359.027 213.559,357.527 207.5,353C 205.45,351.035 203.783,348.868 202.5,346.5 Z"/></g>
<g><path style="opacity:1" fill="#48562b" d="M 381.5,345.5 C 384.167,345.5 386.833,345.5 389.5,345.5C 388.564,348.959 386.564,351.793 383.5,354C 377.532,357.215 371.199,358.548 364.5,358C 369.528,352.782 375.195,348.616 381.5,345.5 Z"/></g>
<g><path style="opacity:1" fill="#4f5c32" d="M 247.5,353.5 C 251.833,353.167 253.833,355.167 253.5,359.5C 249.303,359.806 247.303,357.806 247.5,353.5 Z"/></g>
<g><path style="opacity:1" fill="#4f5c32" d="M 340.5,353.5 C 341.833,353.5 343.167,353.5 344.5,353.5C 345.161,358.168 343.161,360.168 338.5,359.5C 338.704,357.315 339.37,355.315 340.5,353.5 Z"/></g>
<g><path style="opacity:1" fill="#4a572d" d="M 202.5,355.5 C 205.47,355.746 206.803,357.412 206.5,360.5C 203.09,360.616 201.756,358.95 202.5,355.5 Z"/></g>
<g><path style="opacity:1" fill="#535f37" d="M 388.5,354.5 C 389.649,354.791 390.316,355.624 390.5,357C 390.576,359.756 389.243,360.923 386.5,360.5C 386.253,358.142 386.919,356.142 388.5,354.5 Z"/></g>
<g><path style="opacity:1" fill="#47552a" d="M 258.5,356.5 C 269.208,357.853 276.874,363.519 281.5,373.5C 271.307,374.653 263.807,370.653 259,361.5C 258.506,359.866 258.34,358.199 258.5,356.5 Z"/></g>
<g><path style="opacity:1" fill="#48562b" d="M 327.5,356.5 C 329.833,356.5 332.167,356.5 334.5,356.5C 334.479,361.067 332.812,364.901 329.5,368C 323.969,371.568 317.969,374.068 311.5,375.5C 310.479,374.998 310.312,374.332 311,373.5C 314.723,366.007 320.223,360.34 327.5,356.5 Z"/></g>
<g><path style="opacity:1" fill="#4c5930" d="M 209.5,362.5 C 216.674,362.012 223.674,362.845 230.5,365C 234.5,367 234.5,369 230.5,371C 221.104,372.735 212.771,370.568 205.5,364.5C 206.949,363.828 208.282,363.161 209.5,362.5 Z"/></g>
<g><path style="opacity:1" fill="#4b582e" d="M 366.5,362.5 C 371.179,362.334 375.845,362.501 380.5,363C 387.111,363.2 387.778,364.866 382.5,368C 375.78,371.035 368.78,372.035 361.5,371C 359.789,369.867 359.289,368.367 360,366.5C 362.013,364.752 364.18,363.418 366.5,362.5 Z"/></g>
<g><path style="opacity:1" fill="#4c592f" d="M 238.5,363.5 C 247.914,362.22 255.914,364.887 262.5,371.5C 254.213,373.497 246.379,372.497 239,368.5C 237.481,366.861 237.314,365.194 238.5,363.5 Z"/></g>
<g><path style="opacity:1" fill="#4b592f" d="M 342.5,363.5 C 346.514,363.334 350.514,363.501 354.5,364C 354.957,364.414 355.291,364.914 355.5,365.5C 353.48,369.019 350.48,371.186 346.5,372C 326.111,374.42 324.778,371.587 342.5,363.5 Z"/></g>
<g><path style="opacity:1" fill="#505d33" d="M 237.5,373.5 C 241.167,373.833 243.167,375.833 243.5,379.5C 238.5,380.5 236.5,378.5 237.5,373.5 Z"/></g>
<g><path style="opacity:1" fill="#4d5a30" d="M 351.5,373.5 C 352.833,373.5 354.167,373.5 355.5,373.5C 355.167,375.5 354.833,377.5 354.5,379.5C 352.833,379.5 351.167,379.5 349.5,379.5C 349.604,377.297 350.27,375.297 351.5,373.5 Z"/></g>
<g><path style="opacity:1" fill="#4e5b31" d="M 256.5,375.5 C 264.308,375.452 271.641,377.285 278.5,381C 268.693,387.084 259.026,386.917 249.5,380.5C 251.37,378.076 253.703,376.409 256.5,375.5 Z"/></g>
<g><path style="opacity:1" fill="#4e5b32" d="M 327.5,375.5 C 333.77,374.442 339.104,376.109 343.5,380.5C 333.559,386.864 323.559,387.03 313.5,381C 318.159,378.842 322.825,377.009 327.5,375.5 Z"/></g>
<g><path style="opacity:1" fill="#4a572d" d="M 287.5,378.5 C 290.423,379.197 293.256,380.197 296,381.5C 299.133,380.162 302.299,379.329 305.5,379C 305.957,379.414 306.291,379.914 306.5,380.5C 305.335,381.584 304.002,382.417 302.5,383C 305.833,385.333 309.167,387.667 312.5,390C 313.451,390.718 313.617,391.551 313,392.5C 311.316,394.351 309.483,396.018 307.5,397.5C 303.367,393.879 299.7,389.879 296.5,385.5C 293.009,389.16 289.676,392.994 286.5,397C 283.555,396.253 281.222,394.42 279.5,391.5C 282.661,388.509 285.995,385.675 289.5,383C 286.985,382.061 286.318,380.561 287.5,378.5 Z"/></g>
</svg>
