<?xml version="1.0" encoding="UTF-8"?>
<!DOCTYPE svg PUBLIC "-//W3C//DTD SVG 1.1//EN" "http://www.w3.org/Graphics/SVG/1.1/DTD/svg11.dtd">
<svg xmlns="http://www.w3.org/2000/svg" version="1.1" width="640px" height="480px" style="shape-rendering:geometricPrecision; text-rendering:geometricPrecision; image-rendering:optimizeQuality; fill-rule:evenodd; clip-rule:evenodd" xmlns:xlink="http://www.w3.org/1999/xlink">
<g><path style="opacity:1" fill="#c7102d" d="M -0.5,-0.5 C 67.8333,-0.5 136.167,-0.5 204.5,-0.5C 204.5,67.8333 204.5,136.167 204.5,204.5C 136.167,204.5 67.8333,204.5 -0.5,204.5C -0.5,136.167 -0.5,67.8333 -0.5,-0.5 Z"/></g>
<g><path style="opacity:1" fill="#fefffe" d="M 205.5,-0.5 C 228.167,-0.5 250.833,-0.5 273.5,-0.5C 273.5,68.1667 273.5,136.833 273.5,205.5C 395.5,205.5 517.5,205.5 639.5,205.5C 639.5,228.167 639.5,250.833 639.5,273.5C 517.5,273.5 395.5,273.5 273.5,273.5C 273.5,342.167 273.5,410.833 273.5,479.5C 250.833,479.5 228.167,479.5 205.5,479.5C 205.5,410.833 205.5,342.167 205.5,273.5C 136.833,273.5 68.1667,273.5 -0.5,273.5C -0.5,250.833 -0.5,228.167 -0.5,205.5C 68.1667,205.5 136.833,205.5 205.5,205.5C 205.5,136.833 205.5,68.1667 205.5,-0.5 Z"/></g>
<g><path style="opacity:1" fill="#c7102d" d="M 274.5,-0.5 C 396.167,-0.5 517.833,-0.5 639.5,-0.5C 639.5,67.8333 639.5,136.167 639.5,204.5C 517.833,204.5 396.167,204.5 274.5,204.5C 274.5,136.167 274.5,67.8333 274.5,-0.5 Z"/></g>
<g><path style="opacity:1" fill="#d9586d" d="M 204.5,-0.5 C 204.833,-0.5 205.167,-0.5 205.5,-0.5C 205.5,68.1667 205.5,136.833 205.5,205.5C 136.833,205.5 68.1667,205.5 -0.5,205.5C -0.5,205.167 -0.5,204.833 -0.5,204.5C 67.8333,204.5 136.167,204.5 204.5,204.5C 204.5,136.167 204.5,67.8333 204.5,-0.5 Z"/></g>
<g><path style="opacity:1" fill="#d9586d" d="M 273.5,-0.5 C 273.833,-0.5 274.167,-0.5 274.5,-0.5C 274.5,67.8333 274.5,136.167 274.5,204.5C 396.167,204.5 517.833,204.5 639.5,204.5C 639.5,204.833 639.5,205.167 639.5,205.5C 517.5,205.5 395.5,205.5 273.5,205.5C 273.5,136.833 273.5,68.1667 273.5,-0.5 Z"/></g>
<g><path style="opacity:1" fill="#c7102d" d="M -0.5,274.5 C 67.8333,274.5 136.167,274.5 204.5,274.5C 204.5,342.833 204.5,411.167 204.5,479.5C 136.167,479.5 67.8333,479.5 -0.5,479.5C -0.5,411.167 -0.5,342.833 -0.5,274.5 Z"/></g>
<g><path style="opacity:1" fill="#d9586d" d="M -0.5,274.5 C -0.5,274.167 -0.5,273.833 -0.5,273.5C 68.1667,273.5 136.833,273.5 205.5,273.5C 205.5,342.167 205.5,410.833 205.5,479.5C 205.167,479.5 204.833,479.5 204.5,479.5C 204.5,411.167 204.5,342.833 204.5,274.5C 136.167,274.5 67.8333,274.5 -0.5,274.5 Z"/></g>
<g><path style="opacity:1" fill="#d9586d" d="M 639.5,273.5 C 639.5,273.833 639.5,274.167 639.5,274.5C 517.833,274.5 396.167,274.5 274.5,274.5C 274.5,342.833 274.5,411.167 274.5,479.5C 274.167,479.5 273.833,479.5 273.5,479.5C 273.5,410.833 273.5,342.167 273.5,273.5C 395.5,273.5 517.5,273.5 639.5,273.5 Z"/></g>
<g><path style="opacity:1" fill="#c7102d" d="M 639.5,274.5 C 639.5,342.833 639.5,411.167 639.5,479.5C 517.833,479.5 396.167,479.5 274.5,479.5C 274.5,411.167 274.5,342.833 274.5,274.5C 396.167,274.5 517.833,274.5 639.5,274.5 Z"/></g>
</svg>
