<?xml version="1.0" encoding="UTF-8"?>
<!DOCTYPE svg PUBLIC "-//W3C//DTD SVG 1.1//EN" "http://www.w3.org/Graphics/SVG/1.1/DTD/svg11.dtd">
<svg xmlns="http://www.w3.org/2000/svg" version="1.1" width="640px" height="480px" style="shape-rendering:geometricPrecision; text-rendering:geometricPrecision; image-rendering:optimizeQuality; fill-rule:evenodd; clip-rule:evenodd" xmlns:xlink="http://www.w3.org/1999/xlink">
<g><path style="opacity:1" fill="#6699ff" d="M 0.5,-0.5 C 213.5,-0.5 426.5,-0.5 639.5,-0.5C 639.5,79.5 639.5,159.5 639.5,239.5C 545.499,239.667 451.499,239.5 357.5,239C 238.323,159.304 119.323,79.4703 0.5,-0.5 Z"/></g>
<g><path style="opacity:1" fill="#fefdfd" d="M -0.5,-0.5 C -0.166667,-0.5 0.166667,-0.5 0.5,-0.5C 119.323,79.4703 238.323,159.304 357.5,239C 451.499,239.5 545.499,239.667 639.5,239.5C 639.5,239.833 639.5,240.167 639.5,240.5C 545.499,240.333 451.499,240.5 357.5,241C 238.09,320.027 119.09,399.527 0.5,479.5C 0.166667,479.5 -0.166667,479.5 -0.5,479.5C -0.5,319.5 -0.5,159.5 -0.5,-0.5 Z"/></g>
<g><path style="opacity:1" fill="#ff0c06" d="M 75.5,220.5 C 86.8333,219.833 98.1667,219.167 109.5,218.5C 112.377,207.536 116.043,196.869 120.5,186.5C 124.361,196.748 128.027,207.081 131.5,217.5C 143.152,218.333 154.819,218.833 166.5,219C 157.285,226.389 147.952,233.556 138.5,240.5C 142.163,251.156 145.83,261.822 149.5,272.5C 149.167,272.833 148.833,273.167 148.5,273.5C 139.445,266.445 130.112,259.779 120.5,253.5C 111.473,260.36 102.307,267.027 93,273.5C 95.4262,262.377 98.5929,251.377 102.5,240.5C 93.6486,233.58 84.6486,226.914 75.5,220.5 Z"/></g>
<g><path style="opacity:1" fill="#ff5351" d="M 109.5,218.5 C 98.1667,219.167 86.8333,219.833 75.5,220.5C 74.9569,220.44 74.6236,220.107 74.5,219.5C 86.1477,218.501 97.8143,218.168 109.5,218.5 Z"/></g>
<g><path style="opacity:1" fill="#00cc00" d="M 639.5,240.5 C 639.5,320.167 639.5,399.833 639.5,479.5C 426.5,479.5 213.5,479.5 0.5,479.5C 119.09,399.527 238.09,320.027 357.5,241C 451.499,240.5 545.499,240.333 639.5,240.5 Z"/></g>
</svg>
