<?xml version="1.0" encoding="UTF-8"?>
<!DOCTYPE svg PUBLIC "-//W3C//DTD SVG 1.1//EN" "http://www.w3.org/Graphics/SVG/1.1/DTD/svg11.dtd">
<svg xmlns="http://www.w3.org/2000/svg" version="1.1" width="640px" height="480px" style="shape-rendering:geometricPrecision; text-rendering:geometricPrecision; image-rendering:optimizeQuality; fill-rule:evenodd; clip-rule:evenodd" xmlns:xlink="http://www.w3.org/1999/xlink">
<g><path style="opacity:1" fill="#002c62" d="M -0.5,-0.5 C 90.1667,-0.5 180.833,-0.5 271.5,-0.5C 271.5,63.5 271.5,127.5 271.5,191.5C 180.833,191.5 90.1667,191.5 -0.5,191.5C -0.5,127.5 -0.5,63.5 -0.5,-0.5 Z"/></g>
<g><path style="opacity:1" fill="#fefefe" d="M 271.5,-0.5 C 303.5,-0.5 335.5,-0.5 367.5,-0.5C 367.5,63.5 367.5,127.5 367.5,191.5C 458.167,191.5 548.833,191.5 639.5,191.5C 639.5,223.5 639.5,255.5 639.5,287.5C 548.833,287.5 458.167,287.5 367.5,287.5C 367.5,351.5 367.5,415.5 367.5,479.5C 335.5,479.5 303.5,479.5 271.5,479.5C 271.5,415.5 271.5,351.5 271.5,287.5C 180.833,287.5 90.1667,287.5 -0.5,287.5C -0.5,255.5 -0.5,223.5 -0.5,191.5C 90.1667,191.5 180.833,191.5 271.5,191.5C 271.5,127.5 271.5,63.5 271.5,-0.5 Z"/></g>
<g><path style="opacity:1" fill="#cd1125" d="M 367.5,-0.5 C 458.167,-0.5 548.833,-0.5 639.5,-0.5C 639.5,63.5 639.5,127.5 639.5,191.5C 548.833,191.5 458.167,191.5 367.5,191.5C 367.5,127.5 367.5,63.5 367.5,-0.5 Z"/></g>
<g><path style="opacity:1" fill="#5b5e4d" d="M 322.5,191.5 C 324.735,191.205 326.735,191.539 328.5,192.5C 327.167,192.5 325.833,192.5 324.5,192.5C 324.331,197.041 324.998,197.374 326.5,193.5C 327.429,194.689 327.762,196.022 327.5,197.5C 326.209,197.263 325.209,197.596 324.5,198.5C 321.167,198.5 317.833,198.5 314.5,198.5C 317.287,197.523 320.287,197.19 323.5,197.5C 323.671,194.203 323.005,193.869 321.5,196.5C 320.316,194.533 320.649,192.866 322.5,191.5 Z"/></g>
<g><path style="opacity:1" fill="#163057" d="M 322.5,191.5 C 320.649,192.866 320.316,194.533 321.5,196.5C 323.005,193.869 323.671,194.203 323.5,197.5C 320.287,197.19 317.287,197.523 314.5,198.5C 314.5,199.833 314.5,201.167 314.5,202.5C 307.717,202.201 301.051,202.867 294.5,204.5C 294.88,206.698 294.213,208.365 292.5,209.5C 291.833,209.5 291.5,209.833 291.5,210.5C 286.495,210.89 281.995,212.556 278,215.5C 277.493,214.004 277.993,212.837 279.5,212C 277.833,211.667 276.167,211.333 274.5,211C 277.726,208.425 281.393,206.925 285.5,206.5C 285.399,202.425 287.399,199.925 291.5,199C 296.595,196.823 301.928,195.99 307.5,196.5C 307.286,194.856 307.62,193.356 308.5,192C 313.155,191.501 317.821,191.334 322.5,191.5 Z"/></g>
<g><path style="opacity:1" fill="#616a3c" d="M 312.5,192.5 C 313.458,192.953 314.292,193.619 315,194.5C 316.016,193.366 316.683,193.699 317,195.5C 318.494,191.696 319.328,192.029 319.5,196.5C 316.989,196.162 314.655,196.162 312.5,196.5C 311.374,195.192 311.374,193.858 312.5,192.5 Z"/></g>
<g><path style="opacity:1" fill="#666b3c" d="M 338.5,196.5 C 339.391,197.11 340.391,197.443 341.5,197.5C 342.974,198.675 344.64,199.675 346.5,200.5C 345.873,201.417 345.539,202.417 345.5,203.5C 344.778,203.082 344.278,202.416 344,201.5C 340.273,201.959 336.439,201.959 332.5,201.5C 332.331,196.959 332.998,196.626 334.5,200.5C 335.386,199.675 335.719,198.675 335.5,197.5C 336.791,197.737 337.791,197.404 338.5,196.5 Z"/></g>
<g><path style="opacity:1" fill="#f5f5f5" d="M 314.5,198.5 C 317.833,198.5 321.167,198.5 324.5,198.5C 324.5,199.833 324.5,201.167 324.5,202.5C 331.289,202.201 337.956,202.868 344.5,204.5C 344.12,206.698 344.787,208.365 346.5,209.5C 339.018,210.492 331.352,210.825 323.5,210.5C 320.5,210.5 317.5,210.5 314.5,210.5C 306.981,210.825 299.648,210.492 292.5,209.5C 294.213,208.365 294.88,206.698 294.5,204.5C 301.051,202.867 307.717,202.201 314.5,202.5C 314.5,201.167 314.5,199.833 314.5,198.5 Z"/></g>
<g><path style="opacity:1" fill="#424f4e" d="M 341.5,197.5 C 344.542,197.733 347.208,198.733 349.5,200.5C 348.427,201.251 348.26,202.251 349,203.5C 350.156,202.007 350.99,202.174 351.5,204C 351.37,205.059 350.87,205.892 350,206.5C 348.348,205.601 346.848,204.601 345.5,203.5C 345.539,202.417 345.873,201.417 346.5,200.5C 344.64,199.675 342.974,198.675 341.5,197.5 Z"/></g>
<g><path style="opacity:1" fill="#6f7237" d="M 301.5,197.5 C 303.977,198.12 303.977,199.12 301.5,200.5C 299.531,202.421 298.031,202.421 297,200.5C 295.045,204.331 294.045,203.998 294,199.5C 294.333,199.833 294.667,200.167 295,200.5C 296.101,198.606 297.434,197.939 299,198.5C 300.007,200.742 300.841,200.408 301.5,197.5 Z"/></g>
<g><path style="opacity:1" fill="#152f58" d="M 328.5,192.5 C 329.5,192.5 330.5,192.5 331.5,192.5C 331.5,193.833 331.5,195.167 331.5,196.5C 333.833,196.5 336.167,196.5 338.5,196.5C 337.791,197.404 336.791,197.737 335.5,197.5C 335.719,198.675 335.386,199.675 334.5,200.5C 332.998,196.626 332.331,196.959 332.5,201.5C 336.439,201.959 340.273,201.959 344,201.5C 344.278,202.416 344.778,203.082 345.5,203.5C 346.848,204.601 348.348,205.601 350,206.5C 350.87,205.892 351.37,205.059 351.5,204C 350.99,202.174 350.156,202.007 349,203.5C 348.26,202.251 348.427,201.251 349.5,200.5C 352.776,201.122 354.109,203.122 353.5,206.5C 357.446,207.315 361.113,208.815 364.5,211C 363.062,211.219 361.729,211.719 360.5,212.5C 361.326,213.451 361.492,214.451 361,215.5C 356.91,212.848 352.41,211.181 347.5,210.5C 347.5,209.833 347.167,209.5 346.5,209.5C 344.787,208.365 344.12,206.698 344.5,204.5C 337.956,202.868 331.289,202.201 324.5,202.5C 324.5,201.167 324.5,199.833 324.5,198.5C 325.209,197.596 326.209,197.263 327.5,197.5C 327.762,196.022 327.429,194.689 326.5,193.5C 324.998,197.374 324.331,197.041 324.5,192.5C 325.833,192.5 327.167,192.5 328.5,192.5 Z"/></g>
<g><path style="opacity:1" fill="#5e6874" d="M 292.5,209.5 C 299.648,210.492 306.981,210.825 314.5,210.5C 314.5,210.833 314.5,211.167 314.5,211.5C 307.313,211.175 300.313,211.509 293.5,212.5C 292.5,212.167 291.833,211.5 291.5,210.5C 291.5,209.833 291.833,209.5 292.5,209.5 Z"/></g>
<g><path style="opacity:1" fill="#a5676c" d="M 346.5,209.5 C 347.167,209.5 347.5,209.833 347.5,210.5C 347.167,211.5 346.5,212.167 345.5,212.5C 338.687,211.509 331.687,211.175 324.5,211.5C 324.822,217.358 324.489,223.025 323.5,228.5C 323.5,222.833 323.5,217.167 323.5,211.5C 323.5,211.167 323.5,210.833 323.5,210.5C 331.352,210.825 339.018,210.492 346.5,209.5 Z"/></g>
<g><path style="opacity:1" fill="#ca2e23" d="M 345.5,212.5 C 344.167,214.167 342.833,215.833 341.5,217.5C 340.513,222.305 340.179,227.305 340.5,232.5C 339.5,232.5 338.5,232.5 337.5,232.5C 337.813,228.958 337.479,225.625 336.5,222.5C 335.778,222.082 335.278,221.416 335,220.5C 331.04,223.774 327.54,227.441 324.5,231.5C 323.89,230.609 323.557,229.609 323.5,228.5C 324.489,223.025 324.822,217.358 324.5,211.5C 331.687,211.175 338.687,211.509 345.5,212.5 Z"/></g>
<g><path style="opacity:1" fill="#d09707" d="M 332.5,213.5 C 333.713,214.497 333.546,215.497 332,216.5C 331.53,215.423 331.697,214.423 332.5,213.5 Z"/></g>
<g><path style="opacity:1" fill="#8e3740" d="M 341.5,217.5 C 341.5,220.5 341.5,223.5 341.5,226.5C 341.5,226.833 341.5,227.167 341.5,227.5C 341.5,229.5 341.5,231.5 341.5,233.5C 339.833,233.5 338.167,233.5 336.5,233.5C 336.5,230.167 336.5,226.833 336.5,223.5C 336.5,223.167 336.5,222.833 336.5,222.5C 337.479,225.625 337.813,228.958 337.5,232.5C 338.5,232.5 339.5,232.5 340.5,232.5C 340.179,227.305 340.513,222.305 341.5,217.5 Z"/></g>
<g><path style="opacity:1" fill="#d8b207" d="M 318.5,221.5 C 318.082,220.778 317.416,220.278 316.5,220C 317.416,219.722 318.082,219.222 318.5,218.5C 318.369,217.624 318.702,216.957 319.5,216.5C 320.23,217.934 321.23,219.1 322.5,220C 320.961,222.878 319.961,226.045 319.5,229.5C 318.52,226.914 318.187,224.247 318.5,221.5 Z"/></g>
<g><path style="opacity:1" fill="#1e8133" d="M 303.5,271.5 C 303.5,271.833 303.5,272.167 303.5,272.5C 300.123,272.959 296.789,273.626 293.5,274.5C 291.784,274.371 290.117,274.038 288.5,273.5C 288.5,273.167 288.5,272.833 288.5,272.5C 289.534,270.183 288.534,269.183 285.5,269.5C 285.167,269.5 284.833,269.5 284.5,269.5C 283.71,268.206 282.71,267.039 281.5,266C 283.612,264.783 283.279,263.617 280.5,262.5C 281.533,260.915 282.866,259.581 284.5,258.5C 283.691,255.079 283.357,251.745 283.5,248.5C 283.737,245.937 284.237,245.937 285,248.5C 285.364,245.262 286.03,242.262 287,239.5C 285.33,238.264 282.996,237.597 280,237.5C 279.118,241.027 279.618,241.693 281.5,239.5C 284.167,242.167 284.167,244.833 281.5,247.5C 279.821,245.896 277.821,245.229 275.5,245.5C 274.83,242.662 273.496,240.162 271.5,238C 273.398,237.36 273.732,236.027 272.5,234C 272.833,233.167 273.167,232.333 273.5,231.5C 275.358,235.29 277.025,235.29 278.5,231.5C 277.046,229.333 277.212,227.333 279,225.5C 279.278,226.416 279.778,227.082 280.5,227.5C 282.143,229.708 281.81,231.541 279.5,233C 281.059,234.756 282.726,234.756 284.5,233C 282.75,231.246 282.083,229.079 282.5,226.5C 282.248,223.68 282.748,221.014 284,218.5C 285.018,220.564 286.351,220.898 288,219.5C 292.346,220.719 292.513,222.553 288.5,225C 287.062,225.219 285.729,225.719 284.5,226.5C 285.274,227.711 286.107,227.711 287,226.5C 287.283,229.742 288.117,230.076 289.5,227.5C 296.374,231.317 295.708,233.817 287.5,235C 289.5,235.667 291.5,236.333 293.5,237C 293.167,238 292.833,239 292.5,240C 287.27,240.909 287.27,242.075 292.5,243.5C 290.978,245.156 291.311,246.323 293.5,247C 292.449,248.385 291.116,249.385 289.5,250C 291.563,251.572 292.229,253.405 291.5,255.5C 291.864,257.733 292.864,259.566 294.5,261C 293.324,262.674 291.99,264.174 290.5,265.5C 293.617,264.978 296.117,266.311 298,269.5C 298.333,268.167 298.667,266.833 299,265.5C 300.101,267.394 301.434,268.061 303,267.5C 303.49,268.793 303.657,270.127 303.5,271.5 Z"/></g>
<g><path style="opacity:1" fill="#0d2f5d" d="M 314.5,211.5 C 314.821,216.695 314.487,221.695 313.5,226.5C 314.354,228.035 314.354,229.368 313.5,230.5C 311.727,227.94 309.727,225.607 307.5,223.5C 307.631,224.239 307.464,224.906 307,225.5C 305.629,223.959 304.129,222.625 302.5,221.5C 304.427,224.767 306.761,227.767 309.5,230.5C 309.5,235.167 309.5,239.833 309.5,244.5C 305.059,242.08 302.725,238.413 302.5,233.5C 300.833,233.5 299.167,233.5 297.5,233.5C 297.666,227.824 297.499,222.157 297,216.5C 295.624,215.295 294.458,213.962 293.5,212.5C 300.313,211.509 307.313,211.175 314.5,211.5 Z"/></g>
<g><path style="opacity:1" fill="#827b31" d="M 304.5,219.5 C 306.262,220.262 307.262,221.596 307.5,223.5C 305.738,222.738 304.738,221.404 304.5,219.5 Z"/></g>
<g><path style="opacity:1" fill="#8e8226" d="M 302.5,221.5 C 301.005,221.585 300.005,220.919 299.5,219.5C 301.396,218.361 302.396,219.027 302.5,221.5 Z"/></g>
<g><path style="opacity:1" fill="#7a762e" d="M 310.5,221.5 C 308.777,219.747 307.277,217.747 306,215.5C 305.333,214.5 305.333,213.5 306,212.5C 308.163,215.148 309.663,218.148 310.5,221.5 Z"/></g>
<g><path style="opacity:1" fill="#7f7829" d="M 304.5,219.5 C 301.984,218.4 300.984,216.733 301.5,214.5C 303.262,215.688 304.262,217.355 304.5,219.5 Z"/></g>
<g><path style="opacity:1" fill="#7f7539" d="M 302.5,221.5 C 304.129,222.625 305.629,223.959 307,225.5C 307.464,224.906 307.631,224.239 307.5,223.5C 309.727,225.607 311.727,227.94 313.5,230.5C 314.086,233.866 313.086,234.2 310.5,231.5C 310.5,230.833 310.167,230.5 309.5,230.5C 306.761,227.767 304.427,224.767 302.5,221.5 Z"/></g>
<g><path style="opacity:1" fill="#77752e" d="M 310.5,221.5 C 312.25,222.659 313.25,224.326 313.5,226.5C 311.75,225.341 310.75,223.674 310.5,221.5 Z"/></g>
<g><path style="opacity:1" fill="#639c54" d="M 348.5,219.5 C 345.93,221.177 345.93,223.01 348.5,225C 347.5,225.333 346.5,225.667 345.5,226C 348.098,229.12 349.431,232.453 349.5,236C 349.022,237.303 348.355,238.469 347.5,239.5C 346.185,238.524 344.852,237.524 343.5,236.5C 343.45,234.169 343.783,232.003 344.5,230C 343.627,228.955 342.627,228.122 341.5,227.5C 341.5,227.167 341.5,226.833 341.5,226.5C 342.473,226.013 343.473,225.513 344.5,225C 343.643,224.311 342.977,223.478 342.5,222.5C 343.194,219.912 344.36,217.579 346,215.5C 347.095,216.693 347.928,218.027 348.5,219.5 Z"/></g>
<g><path style="opacity:1" fill="#002c61" d="M 336.5,223.5 C 336.5,226.833 336.5,230.167 336.5,233.5C 336.328,238.209 334.161,241.875 330,244.5C 329.501,239.845 329.334,235.179 329.5,230.5C 331.5,227.833 333.833,225.5 336.5,223.5 Z"/></g>
<g><path style="opacity:1" fill="#826c38" d="M 336.5,222.5 C 336.5,222.833 336.5,223.167 336.5,223.5C 333.833,225.5 331.5,227.833 329.5,230.5C 328.167,231.5 326.833,232.5 325.5,233.5C 325.167,232.833 324.833,232.167 324.5,231.5C 327.54,227.441 331.04,223.774 335,220.5C 335.278,221.416 335.778,222.082 336.5,222.5 Z"/></g>
<g><path style="opacity:1" fill="#eeece8" d="M 323.5,211.5 C 323.5,217.167 323.5,222.833 323.5,228.5C 323.557,229.609 323.89,230.609 324.5,231.5C 324.833,232.167 325.167,232.833 325.5,233.5C 324.359,235.088 322.859,236.421 321,237.5C 320.333,236.167 320.333,234.833 321,233.5C 321.654,234.696 322.154,234.696 322.5,233.5C 322.167,232.5 321.5,231.833 320.5,231.5C 319.28,232.711 318.113,232.711 317,231.5C 315.684,228.312 315.184,224.978 315.5,221.5C 316.5,221.5 317.5,221.5 318.5,221.5C 318.187,224.247 318.52,226.914 319.5,229.5C 319.961,226.045 320.961,222.878 322.5,220C 321.23,219.1 320.23,217.934 319.5,216.5C 318.702,216.957 318.369,217.624 318.5,218.5C 317.5,218.5 316.5,218.5 315.5,218.5C 315.5,216.167 315.5,213.833 315.5,211.5C 318.167,211.5 320.833,211.5 323.5,211.5 Z"/></g>
<g><path style="opacity:1" fill="#94ae81" d="M 282.5,226.5 C 282.083,229.079 282.75,231.246 284.5,233C 282.726,234.756 281.059,234.756 279.5,233C 281.81,231.541 282.143,229.708 280.5,227.5C 280.842,226.662 281.508,226.328 282.5,226.5 Z"/></g>
<g><path style="opacity:1" fill="#e1dbdc" d="M 314.5,210.5 C 317.5,210.5 320.5,210.5 323.5,210.5C 323.5,210.833 323.5,211.167 323.5,211.5C 320.833,211.5 318.167,211.5 315.5,211.5C 315.5,213.833 315.5,216.167 315.5,218.5C 316.5,218.5 317.5,218.5 318.5,218.5C 318.082,219.222 317.416,219.722 316.5,220C 317.416,220.278 318.082,220.778 318.5,221.5C 317.5,221.5 316.5,221.5 315.5,221.5C 315.184,224.978 315.684,228.312 317,231.5C 318.113,232.711 319.28,232.711 320.5,231.5C 321.5,231.833 322.167,232.5 322.5,233.5C 322.154,234.696 321.654,234.696 321,233.5C 320.333,234.833 320.333,236.167 321,237.5C 322.859,236.421 324.359,235.088 325.5,233.5C 326.833,232.5 328.167,231.5 329.5,230.5C 329.334,235.179 329.501,239.845 330,244.5C 334.161,241.875 336.328,238.209 336.5,233.5C 338.167,233.5 339.833,233.5 341.5,233.5C 341.5,236.5 341.5,239.5 341.5,242.5C 339.585,242.216 337.919,242.549 336.5,243.5C 333.105,245.892 330.439,248.892 328.5,252.5C 326.955,253.452 325.288,253.785 323.5,253.5C 324.429,252.685 325.429,251.852 326.5,251C 325.906,250.536 325.239,250.369 324.5,250.5C 325.159,247.545 325.492,244.545 325.5,241.5C 327.416,240.335 328.249,238.668 328,236.5C 324.563,239.777 320.729,242.443 316.5,244.5C 313.692,240.55 311.692,236.217 310.5,231.5C 313.086,234.2 314.086,233.866 313.5,230.5C 314.354,229.368 314.354,228.035 313.5,226.5C 314.487,221.695 314.821,216.695 314.5,211.5C 314.5,211.167 314.5,210.833 314.5,210.5 Z"/></g>
<g><path style="opacity:1" fill="#81858d" d="M 309.5,230.5 C 310.167,230.5 310.5,230.833 310.5,231.5C 311.692,236.217 313.692,240.55 316.5,244.5C 315.833,244.5 315.167,244.5 314.5,244.5C 314.5,243.833 314.167,243.5 313.5,243.5C 312.68,241.86 311.847,240.193 311,238.5C 310.897,241.319 310.397,243.319 309.5,244.5C 309.5,239.833 309.5,235.167 309.5,230.5 Z"/></g>
<g><path style="opacity:1" fill="#b7252f" d="M 325.5,241.5 C 325.492,244.545 325.159,247.545 324.5,250.5C 323.833,250.833 323.167,251.167 322.5,251.5C 322.5,248.833 322.5,246.167 322.5,243.5C 322.973,242.094 323.973,241.427 325.5,241.5 Z"/></g>
<g><path style="opacity:1" fill="#217b28" d="M 348.5,219.5 C 349.41,221.019 350.243,222.685 351,224.5C 351.471,222.754 352.138,221.087 353,219.5C 353.166,223.511 354,224.011 355.5,221C 356.449,220.383 357.282,220.549 358,221.5C 357.333,224.167 356.667,226.833 356,229.5C 357.62,227.759 359.12,225.925 360.5,224C 361.167,223.333 361.833,223.333 362.5,224C 362.384,225.268 362.051,226.602 361.5,228C 362.357,228.689 363.023,229.522 363.5,230.5C 361.789,232.24 360.956,234.24 361,236.5C 362.636,234.102 364.802,232.935 367.5,233C 364.882,235.106 362.882,237.606 361.5,240.5C 358.02,242.474 357.52,245.141 360,248.5C 360.75,249.126 361.584,249.626 362.5,250C 361.366,251.016 361.699,251.683 363.5,252C 362.833,252.333 362.167,252.667 361.5,253C 363.342,252.932 365.009,253.099 366.5,253.5C 365.4,254.558 364.066,255.392 362.5,256C 367.627,256.474 367.627,257.474 362.5,259C 363.5,259.333 364.5,259.667 365.5,260C 362.5,261 359.5,262 356.5,263C 357.167,263.333 357.833,263.667 358.5,264C 356.167,265 353.833,266 351.5,267C 353.653,267.099 355.319,267.933 356.5,269.5C 355.041,269.433 353.708,269.766 352.5,270.5C 346.906,270.885 343.573,271.885 342.5,273.5C 339.273,273.324 336.273,272.657 333.5,271.5C 334.048,267.285 336.381,264.618 340.5,263.5C 341.333,261.833 342.167,260.167 343,258.5C 343.317,260.301 343.984,260.634 345,259.5C 345.667,257.167 345.667,254.833 345,252.5C 344.667,253.167 344.333,253.833 344,254.5C 343.51,253.207 343.343,251.873 343.5,250.5C 344.496,250.414 345.329,250.748 346,251.5C 346.471,253.246 347.138,254.913 348,256.5C 347.446,252.875 347.613,249.208 348.5,245.5C 346.876,245.36 345.71,246.027 345,247.5C 344.601,247.272 344.435,246.938 344.5,246.5C 345.203,244.284 346.536,242.451 348.5,241C 347.944,240.617 347.611,240.117 347.5,239.5C 348.355,238.469 349.022,237.303 349.5,236C 349.431,232.453 348.098,229.12 345.5,226C 346.5,225.667 347.5,225.333 348.5,225C 345.93,223.01 345.93,221.177 348.5,219.5 Z"/></g>
<g><path style="opacity:1" fill="#0f2f5f" d="M 341.5,242.5 C 341.91,248.621 341.41,254.621 340,260.5C 338.786,262.049 337.286,263.215 335.5,264C 331.848,264.499 328.182,264.665 324.5,264.5C 324.5,261.833 324.5,259.167 324.5,256.5C 328.277,259.35 331.777,259.017 335,255.5C 336.354,251.637 336.854,247.637 336.5,243.5C 337.919,242.549 339.585,242.216 341.5,242.5 Z"/></g>
<g><path style="opacity:1" fill="#75a461" d="M 366.5,253.5 C 365.009,253.099 363.342,252.932 361.5,253C 362.167,252.667 362.833,252.333 363.5,252C 361.699,251.683 361.366,251.016 362.5,250C 361.584,249.626 360.75,249.126 360,248.5C 357.52,245.141 358.02,242.474 361.5,240.5C 362.458,240.047 363.292,239.381 364,238.5C 364.333,239.167 364.667,239.833 365,240.5C 365.718,239.549 366.551,239.383 367.5,240C 365.833,241.667 364.167,243.333 362.5,245C 364.167,244.667 365.833,244.333 367.5,244C 367.311,246.295 365.977,248.295 363.5,250C 364.449,250.617 365.282,250.451 366,249.5C 366.49,250.793 366.657,252.127 366.5,253.5 Z"/></g>
<g><path style="opacity:1" fill="#c01f2b" d="M 315.5,252.5 C 315.5,251.5 315.5,250.5 315.5,249.5C 315.833,249.5 316.167,249.5 316.5,249.5C 316.5,251.5 316.5,253.5 316.5,255.5C 314.612,257.988 313.945,260.988 314.5,264.5C 310.486,264.666 306.486,264.499 302.5,264C 301.333,262.833 300.167,261.667 299,260.5C 297.59,254.621 297.09,248.621 297.5,242.5C 299.527,242.338 301.527,242.505 303.5,243C 305,245.833 307.167,248 310,249.5C 310.567,253.243 312.4,254.243 315.5,252.5 Z"/></g>
<g><path style="opacity:1" fill="#bc1426" d="M 313.5,243.5 C 314.167,243.5 314.5,243.833 314.5,244.5C 315.11,245.391 315.443,246.391 315.5,247.5C 313.824,246.817 313.157,245.483 313.5,243.5 Z"/></g>
<g><path style="opacity:1" fill="#524b4c" d="M 325.5,241.5 C 323.973,241.427 322.973,242.094 322.5,243.5C 321.833,243.833 321.167,244.167 320.5,244.5C 319.833,244.833 319.167,245.167 318.5,245.5C 316.896,246.287 316.229,247.62 316.5,249.5C 316.167,249.5 315.833,249.5 315.5,249.5C 315.5,248.833 315.5,248.167 315.5,247.5C 315.443,246.391 315.11,245.391 314.5,244.5C 315.167,244.5 315.833,244.5 316.5,244.5C 320.729,242.443 324.563,239.777 328,236.5C 328.249,238.668 327.416,240.335 325.5,241.5 Z"/></g>
<g><path style="opacity:1" fill="#c11024" d="M 320.5,244.5 C 320.5,247.833 320.5,251.167 320.5,254.5C 318.612,252.012 317.945,249.012 318.5,245.5C 319.167,245.167 319.833,244.833 320.5,244.5 Z"/></g>
<g><path style="opacity:1" fill="#c31f2c" d="M 336.5,243.5 C 336.854,247.637 336.354,251.637 335,255.5C 331.777,259.017 328.277,259.35 324.5,256.5C 323.89,255.609 323.557,254.609 323.5,253.5C 325.288,253.785 326.955,253.452 328.5,252.5C 330.439,248.892 333.105,245.892 336.5,243.5 Z"/></g>
<g><path style="opacity:1" fill="#afbe9c" d="M 284.5,258.5 C 282.866,259.581 281.533,260.915 280.5,262.5C 279.751,261.469 279.085,260.302 278.5,259C 280.058,258.79 281.391,258.29 282.5,257.5C 281.449,256.778 280.782,255.778 280.5,254.5C 282.344,253.796 282.844,252.463 282,250.5C 280.035,248.45 277.868,246.783 275.5,245.5C 277.821,245.229 279.821,245.896 281.5,247.5C 284.167,244.833 284.167,242.167 281.5,239.5C 279.618,241.693 279.118,241.027 280,237.5C 282.996,237.597 285.33,238.264 287,239.5C 286.03,242.262 285.364,245.262 285,248.5C 284.237,245.937 283.737,245.937 283.5,248.5C 283.357,251.745 283.691,255.079 284.5,258.5 Z"/></g>
<g><path style="opacity:1" fill="#e9ddde" d="M 322.5,243.5 C 322.5,246.167 322.5,248.833 322.5,251.5C 322.5,253.5 322.5,255.5 322.5,257.5C 321.833,256.5 321.167,255.5 320.5,254.5C 320.5,251.167 320.5,247.833 320.5,244.5C 321.167,244.167 321.833,243.833 322.5,243.5 Z"/></g>
<g><path style="opacity:1" fill="#94b071" d="M 343.5,250.5 C 343.232,248.901 343.566,247.568 344.5,246.5C 344.435,246.938 344.601,247.272 345,247.5C 345.71,246.027 346.876,245.36 348.5,245.5C 347.613,249.208 347.446,252.875 348,256.5C 347.138,254.913 346.471,253.246 346,251.5C 345.329,250.748 344.496,250.414 343.5,250.5 Z"/></g>
<g><path style="opacity:1" fill="#415b82" d="M 315.5,249.5 C 315.5,250.5 315.5,251.5 315.5,252.5C 313.015,251.74 313.015,250.74 315.5,249.5 Z"/></g>
<g><path style="opacity:1" fill="#127d2d" d="M 275.5,245.5 C 277.868,246.783 280.035,248.45 282,250.5C 282.844,252.463 282.344,253.796 280.5,254.5C 277.598,253.056 274.598,251.556 271.5,250C 273.689,249.323 274.022,248.156 272.5,246.5C 273.325,245.614 274.325,245.281 275.5,245.5 Z"/></g>
<g><path style="opacity:1" fill="#1a7e2f" d="M 280.5,254.5 C 280.782,255.778 281.449,256.778 282.5,257.5C 279.635,257.945 277.135,257.278 275,255.5C 274.568,254.4 275.068,253.733 276.5,253.5C 277.849,253.846 279.183,254.179 280.5,254.5 Z"/></g>
<g><path style="opacity:1" fill="#313d5e" d="M 318.5,245.5 C 317.945,249.012 318.612,252.012 320.5,254.5C 321.167,255.5 321.833,256.5 322.5,257.5C 321.235,258.479 319.901,259.479 318.5,260.5C 316.889,259.68 316.222,258.346 316.5,256.5C 316.5,256.167 316.5,255.833 316.5,255.5C 316.5,253.5 316.5,251.5 316.5,249.5C 316.229,247.62 316.896,246.287 318.5,245.5 Z"/></g>
<g><path style="opacity:1" fill="#aacbaa" d="M 284.5,258.5 C 285.117,258.389 285.617,258.056 286,257.5C 286.667,259.5 286.667,261.5 286,263.5C 285.392,261.846 284.892,260.179 284.5,258.5 Z"/></g>
<g><path style="opacity:1" fill="#a9a4ad" d="M 324.5,250.5 C 325.239,250.369 325.906,250.536 326.5,251C 325.429,251.852 324.429,252.685 323.5,253.5C 323.557,254.609 323.89,255.609 324.5,256.5C 324.5,259.167 324.5,261.833 324.5,264.5C 322.695,265.237 321.029,266.237 319.5,267.5C 317.971,266.237 316.305,265.237 314.5,264.5C 313.945,260.988 314.612,257.988 316.5,255.5C 316.5,255.833 316.5,256.167 316.5,256.5C 315.371,258.628 315.204,260.961 316,263.5C 318.333,266.167 320.667,266.167 323,263.5C 323.789,261.288 323.622,259.288 322.5,257.5C 322.5,255.5 322.5,253.5 322.5,251.5C 323.167,251.167 323.833,250.833 324.5,250.5 Z"/></g>
<g><path style="opacity:1" fill="#fcfcfd" d="M 316.5,256.5 C 316.222,258.346 316.889,259.68 318.5,260.5C 319.901,259.479 321.235,258.479 322.5,257.5C 323.622,259.288 323.789,261.288 323,263.5C 320.667,266.167 318.333,266.167 316,263.5C 315.204,260.961 315.371,258.628 316.5,256.5 Z"/></g>
<g><path style="opacity:1" fill="#9d2126" d="M 284.5,269.5 C 284.833,269.5 285.167,269.5 285.5,269.5C 285.5,269.833 285.5,270.167 285.5,270.5C 283.319,270.284 281.653,271.117 280.5,273C 281.931,275.538 283.598,278.038 285.5,280.5C 282.675,280.919 280.509,279.919 279,277.5C 277.298,273.562 275.131,269.896 272.5,266.5C 273.391,265.41 274.391,265.41 275.5,266.5C 276.251,265.624 276.751,264.624 277,263.5C 278.878,265.043 280.378,266.876 281.5,269C 282.448,269.483 283.448,269.649 284.5,269.5 Z"/></g>
<g><path style="opacity:1" fill="#d4e0d4" d="M 285.5,270.5 C 285.5,270.167 285.5,269.833 285.5,269.5C 288.534,269.183 289.534,270.183 288.5,272.5C 287.5,271.833 286.5,271.167 285.5,270.5 Z"/></g>
<g><path style="opacity:1" fill="#b01d26" d="M 335.5,279.5 C 338.206,279.575 340.873,279.908 343.5,280.5C 343.5,279.167 343.5,277.833 343.5,276.5C 340.762,276.149 338.096,275.482 335.5,274.5C 334.914,274.709 334.414,275.043 334,275.5C 331.749,273.636 329.082,272.636 326,272.5C 323.877,273.583 321.71,273.583 319.5,272.5C 319.5,273.833 319.5,275.167 319.5,276.5C 322.713,276.19 325.713,276.523 328.5,277.5C 327.167,277.5 325.833,277.5 324.5,277.5C 320.379,277.163 317.045,277.496 314.5,278.5C 314.389,279.117 314.056,279.617 313.5,280C 314.833,280.333 316.167,280.667 317.5,281C 315.671,281.273 314.171,282.107 313,283.5C 312.51,282.207 312.343,280.873 312.5,279.5C 309.673,278.632 306.673,278.632 303.5,279.5C 302.167,279.5 300.833,279.5 299.5,279.5C 299.389,277.352 300.056,277.019 301.5,278.5C 302.192,277.975 302.692,277.308 303,276.5C 308.155,277.295 313.155,277.295 318,276.5C 317.955,272.002 316.955,271.669 315,275.5C 314.383,274.551 314.549,273.718 315.5,273C 311.514,272.501 307.514,272.334 303.5,272.5C 303.5,272.167 303.5,271.833 303.5,271.5C 313.495,270.249 323.495,270.249 333.5,271.5C 336.273,272.657 339.273,273.324 342.5,273.5C 347.267,278.022 350.6,277.022 352.5,270.5C 353.708,269.766 355.041,269.433 356.5,269.5C 358.099,267.396 359.932,265.396 362,263.5C 362.249,264.624 362.749,265.624 363.5,266.5C 364.768,265.572 366.101,265.405 367.5,266C 364.193,268.778 362.026,272.278 361,276.5C 359.022,278.739 356.522,280.072 353.5,280.5C 350.428,287.458 345.595,289.125 339,285.5C 338.506,283.866 338.34,282.199 338.5,280.5C 337.209,280.737 336.209,280.404 335.5,279.5 Z"/></g>
<g><path style="opacity:1" fill="#d64b1d" d="M 303.5,272.5 C 307.514,272.334 311.514,272.501 315.5,273C 314.549,273.718 314.383,274.551 315,275.5C 316.955,271.669 317.955,272.002 318,276.5C 313.155,277.295 308.155,277.295 303,276.5C 302.692,277.308 302.192,277.975 301.5,278.5C 300.056,277.019 299.389,277.352 299.5,279.5C 298.833,279.5 298.167,279.5 297.5,279.5C 295.535,279.052 295.202,278.052 296.5,276.5C 297.192,277.025 297.692,277.692 298,278.5C 299.365,275.938 301.199,273.938 303.5,272.5 Z"/></g>
<g><path style="opacity:1" fill="#d6d6cc" d="M 352.5,270.5 C 350.6,277.022 347.267,278.022 342.5,273.5C 343.573,271.885 346.906,270.885 352.5,270.5 Z"/></g>
<g><path style="opacity:1" fill="#c11925" d="M 285.5,270.5 C 286.5,271.167 287.5,271.833 288.5,272.5C 288.5,272.833 288.5,273.167 288.5,273.5C 289.799,276.872 291.466,277.205 293.5,274.5C 296.789,273.626 300.123,272.959 303.5,272.5C 301.199,273.938 299.365,275.938 298,278.5C 297.692,277.692 297.192,277.025 296.5,276.5C 295.202,278.052 295.535,279.052 297.5,279.5C 293.395,285.384 290.562,284.717 289,277.5C 288.342,281.025 289.509,283.859 292.5,286C 292.272,286.399 291.938,286.565 291.5,286.5C 288.622,285.438 286.622,283.438 285.5,280.5C 283.598,278.038 281.931,275.538 280.5,273C 281.653,271.117 283.319,270.284 285.5,270.5 Z"/></g>
<g><path style="opacity:1" fill="#e4e6e4" d="M 288.5,273.5 C 290.117,274.038 291.784,274.371 293.5,274.5C 291.466,277.205 289.799,276.872 288.5,273.5 Z"/></g>
<g><path style="opacity:1" fill="#d8541a" d="M 335.5,279.5 C 335.167,279.5 334.833,279.5 334.5,279.5C 333.311,276.577 331.311,275.911 328.5,277.5C 325.713,276.523 322.713,276.19 319.5,276.5C 319.5,275.167 319.5,273.833 319.5,272.5C 321.71,273.583 323.877,273.583 326,272.5C 329.082,272.636 331.749,273.636 334,275.5C 334.414,275.043 334.914,274.709 335.5,274.5C 338.096,275.482 340.762,276.149 343.5,276.5C 343.5,277.833 343.5,279.167 343.5,280.5C 340.873,279.908 338.206,279.575 335.5,279.5 Z"/></g>
<g><path style="opacity:1" fill="#2f2609" d="M 324.5,277.5 C 324.134,278.695 323.301,279.361 322,279.5C 319.427,278.906 316.927,278.573 314.5,278.5C 317.045,277.496 320.379,277.163 324.5,277.5 Z"/></g>
<g><path style="opacity:1" fill="#9c2222" d="M 334.5,279.5 C 331.824,278.992 329.157,278.825 326.5,279C 332.591,280.467 332.591,282.3 326.5,284.5C 325.833,284.5 325.167,284.5 324.5,284.5C 321.465,283.266 318.465,283.266 315.5,284.5C 313.833,284.5 312.167,284.5 310.5,284.5C 309.448,284.649 308.448,284.483 307.5,284C 308.641,283.259 308.641,282.425 307.5,281.5C 309.022,280.438 310.688,279.771 312.5,279.5C 312.343,280.873 312.51,282.207 313,283.5C 314.171,282.107 315.671,281.273 317.5,281C 316.167,280.667 314.833,280.333 313.5,280C 314.056,279.617 314.389,279.117 314.5,278.5C 316.927,278.573 319.427,278.906 322,279.5C 323.301,279.361 324.134,278.695 324.5,277.5C 325.833,277.5 327.167,277.5 328.5,277.5C 331.311,275.911 333.311,276.577 334.5,279.5 Z"/></g>
<g><path style="opacity:1" fill="#941720" d="M 297.5,279.5 C 298.167,279.5 298.833,279.5 299.5,279.5C 300.833,279.5 302.167,279.5 303.5,279.5C 301.772,285.949 297.772,288.283 291.5,286.5C 291.938,286.565 292.272,286.399 292.5,286C 289.509,283.859 288.342,281.025 289,277.5C 290.562,284.717 293.395,285.384 297.5,279.5 Z"/></g>
<g><path style="opacity:1" fill="#408325" d="M 310.5,284.5 C 312.167,284.5 313.833,284.5 315.5,284.5C 313.891,285.771 312.058,286.771 310,287.5C 309.53,286.423 309.697,285.423 310.5,284.5 Z"/></g>
<g><path style="opacity:1" fill="#6ea246" d="M 324.5,284.5 C 325.167,284.5 325.833,284.5 326.5,284.5C 329.097,284.533 330.097,285.533 329.5,287.5C 327.604,286.725 325.937,285.725 324.5,284.5 Z"/></g>
<g><path style="opacity:1" fill="#cd1125" d="M -0.5,287.5 C 90.1667,287.5 180.833,287.5 271.5,287.5C 271.5,351.5 271.5,415.5 271.5,479.5C 180.833,479.5 90.1667,479.5 -0.5,479.5C -0.5,415.5 -0.5,351.5 -0.5,287.5 Z"/></g>
<g><path style="opacity:1" fill="#002c62" d="M 639.5,287.5 C 639.5,351.5 639.5,415.5 639.5,479.5C 548.833,479.5 458.167,479.5 367.5,479.5C 367.5,415.5 367.5,351.5 367.5,287.5C 458.167,287.5 548.833,287.5 639.5,287.5 Z"/></g>
</svg>
