<?xml version="1.0" encoding="UTF-8"?>
<!DOCTYPE svg PUBLIC "-//W3C//DTD SVG 1.1//EN" "http://www.w3.org/Graphics/SVG/1.1/DTD/svg11.dtd">
<svg xmlns="http://www.w3.org/2000/svg" version="1.1" width="640px" height="480px" style="shape-rendering:geometricPrecision; text-rendering:geometricPrecision; image-rendering:optimizeQuality; fill-rule:evenodd; clip-rule:evenodd" xmlns:xlink="http://www.w3.org/1999/xlink">
<g><path style="opacity:1" fill="#118c00" d="M -0.5,-0.5 C 82.8333,-0.5 166.167,-0.5 249.5,-0.5C 249.5,43.8333 249.5,88.1667 249.5,132.5C 236.167,142.5 224.5,154.167 214.5,167.5C 142.833,167.5 71.1667,167.5 -0.5,167.5C -0.5,111.5 -0.5,55.5 -0.5,-0.5 Z"/></g>
<g><path style="opacity:1" fill="#fed500" d="M 249.5,-0.5 C 264.167,-0.5 278.833,-0.5 293.5,-0.5C 293.5,37.5 293.5,75.5 293.5,113.5C 278.053,117.877 263.386,124.21 249.5,132.5C 249.5,88.1667 249.5,43.8333 249.5,-0.5 Z"/></g>
<g><path style="opacity:1" fill="#000000" d="M 293.5,-0.5 C 308.5,-0.5 323.5,-0.5 338.5,-0.5C 338.5,37.1667 338.5,74.8333 338.5,112.5C 323.481,111.049 308.481,111.382 293.5,113.5C 293.5,75.5 293.5,37.5 293.5,-0.5 Z"/></g>
<g><path style="opacity:1" fill="#fcfdfc" d="M 338.5,-0.5 C 353.833,-0.5 369.167,-0.5 384.5,-0.5C 384.5,42.1667 384.5,84.8333 384.5,127.5C 370.123,119.735 354.789,114.735 338.5,112.5C 338.5,74.8333 338.5,37.1667 338.5,-0.5 Z"/></g>
<g><path style="opacity:1" fill="#118c00" d="M 384.5,-0.5 C 469.5,-0.5 554.5,-0.5 639.5,-0.5C 639.5,55.5 639.5,111.5 639.5,167.5C 569.167,167.5 498.833,167.5 428.5,167.5C 422.07,159.897 415.403,152.397 408.5,145C 400.964,138.412 392.964,132.578 384.5,127.5C 384.5,84.8333 384.5,42.1667 384.5,-0.5 Z"/></g>
<g><path style="opacity:1" fill="#e42910" d="M 338.5,112.5 C 354.789,114.735 370.123,119.735 384.5,127.5C 392.964,132.578 400.964,138.412 408.5,145C 415.403,152.397 422.07,159.897 428.5,167.5C 437.294,181.426 443.627,196.426 447.5,212.5C 450.978,228.106 451.312,243.773 448.5,259.5C 445.945,276.166 440.612,291.833 432.5,306.5C 420.452,326.215 404.452,341.882 384.5,353.5C 370.128,361.264 354.795,366.264 338.5,368.5C 323.472,369.936 308.472,369.603 293.5,367.5C 286.177,365.326 278.844,362.826 271.5,360C 263.955,356.396 256.622,352.563 249.5,348.5C 233.701,337.037 220.701,323.037 210.5,306.5C 202.628,291.543 196.961,275.876 193.5,259.5C 191.634,243.698 192.3,228.031 195.5,212.5C 199.381,196.411 205.714,181.411 214.5,167.5C 224.5,154.167 236.167,142.5 249.5,132.5C 263.386,124.21 278.053,117.877 293.5,113.5C 308.481,111.382 323.481,111.049 338.5,112.5 Z"/></g>
<g><path style="opacity:1" fill="#321b05" d="M 320.5,116.5 C 319.833,117.167 319.167,117.833 318.5,118.5C 318.312,116.897 318.812,115.563 320,114.5C 320.464,115.094 320.631,115.761 320.5,116.5 Z"/></g>
<g><path style="opacity:1" fill="#ead900" d="M 320.5,116.5 C 321.5,120.5 322.5,124.5 323.5,128.5C 327.647,129.325 331.981,129.825 336.5,130C 335.619,130.708 334.953,131.542 334.5,132.5C 332.596,132.738 331.262,133.738 330.5,135.5C 329.504,135.414 328.671,135.748 328,136.5C 327.235,138.066 327.402,139.399 328.5,140.5C 328.253,142.858 328.919,144.858 330.5,146.5C 330.719,147.675 330.386,148.675 329.5,149.5C 328.378,148.37 327.044,147.703 325.5,147.5C 323.983,145.816 322.15,144.483 320,143.5C 316.38,145.296 313.213,147.63 310.5,150.5C 309.167,150.5 308.5,149.833 308.5,148.5C 310.072,145.785 311.072,142.785 311.5,139.5C 312.885,138.053 312.552,137.053 310.5,136.5C 309.738,134.738 308.404,133.738 306.5,133.5C 305.71,132.206 304.71,131.039 303.5,130C 307.688,129.824 311.688,129.324 315.5,128.5C 315.5,127.833 315.5,127.167 315.5,126.5C 317.655,124.383 318.655,121.716 318.5,118.5C 319.167,117.833 319.833,117.167 320.5,116.5 Z"/></g>
<g><path style="opacity:1" fill="#604a0c" d="M 318.5,118.5 C 318.655,121.716 317.655,124.383 315.5,126.5C 316.129,123.603 317.129,120.936 318.5,118.5 Z"/></g>
<g><path style="opacity:1" fill="#249100" d="M 319.5,124.5 C 320.864,126.22 321.864,128.22 322.5,130.5C 324.423,131.308 326.423,131.808 328.5,132C 323.973,134.751 323.306,138.251 326.5,142.5C 326.333,142.833 326.167,143.167 326,143.5C 324.155,141.913 322.155,140.579 320,139.5C 318.01,140.818 316.01,142.152 314,143.5C 314.003,141.144 314.503,138.811 315.5,136.5C 314.252,134.541 312.585,133.041 310.5,132C 312.81,131.503 315.143,131.337 317.5,131.5C 317.767,129.035 318.434,126.701 319.5,124.5 Z"/></g>
<g><path style="opacity:1" fill="#4c3f07" d="M 315.5,128.5 C 311.688,129.324 307.688,129.824 303.5,130C 304.71,131.039 305.71,132.206 306.5,133.5C 304.068,132.25 301.734,130.75 299.5,129C 304.823,128.501 310.156,128.334 315.5,128.5 Z"/></g>
<g><path style="opacity:1" fill="#6f5807" d="M 323.5,128.5 C 328.844,128.334 334.177,128.501 339.5,129C 338.211,130.802 336.544,131.969 334.5,132.5C 334.953,131.542 335.619,130.708 336.5,130C 331.981,129.825 327.647,129.325 323.5,128.5 Z"/></g>
<g><path style="opacity:1" fill="#402705" d="M 306.5,133.5 C 308.404,133.738 309.738,134.738 310.5,136.5C 308.596,136.262 307.262,135.262 306.5,133.5 Z"/></g>
<g><path style="opacity:1" fill="#403809" d="M 310.5,136.5 C 312.552,137.053 312.885,138.053 311.5,139.5C 311.443,138.391 311.11,137.391 310.5,136.5 Z"/></g>
<g><path style="opacity:1" fill="#402607" d="M 330.5,135.5 C 329.058,136.82 328.392,138.486 328.5,140.5C 327.402,139.399 327.235,138.066 328,136.5C 328.671,135.748 329.504,135.414 330.5,135.5 Z"/></g>
<g><path style="opacity:1" fill="#301403" d="M 390.5,141.5 C 390.5,140.833 390.167,140.5 389.5,140.5C 390.122,139.373 390.955,138.373 392,137.5C 392.348,139.14 391.848,140.473 390.5,141.5 Z"/></g>
<g><path style="opacity:1" fill="#382306" d="M 371.5,142.5 C 369.983,142.489 368.816,141.823 368,140.5C 367.601,140.728 367.435,141.062 367.5,141.5C 366.152,140.473 365.652,139.14 366,137.5C 368.191,138.833 370.024,140.5 371.5,142.5 Z"/></g>
<g><path style="opacity:1" fill="#2f2206" d="M 272.5,142.5 C 271.833,142.5 271.167,142.5 270.5,142.5C 270.811,141.522 271.478,140.855 272.5,140.5C 273.773,141.257 273.773,141.923 272.5,142.5 Z"/></g>
<g><path style="opacity:1" fill="#edd900" d="M 371.5,142.5 C 371.973,143.906 372.973,144.573 374.5,144.5C 377.007,148.817 379.674,149.15 382.5,145.5C 384.027,145.573 385.027,144.906 385.5,143.5C 387.404,143.262 388.738,142.262 389.5,140.5C 390.167,140.5 390.5,140.833 390.5,141.5C 389.099,144.704 388.099,148.037 387.5,151.5C 386.179,154.235 387.179,155.902 390.5,156.5C 391.262,158.262 392.596,159.262 394.5,159.5C 394.953,160.458 395.619,161.292 396.5,162C 391.72,161.892 387.386,162.725 383.5,164.5C 381.733,166.792 380.733,169.458 380.5,172.5C 379.778,172.918 379.278,173.584 379,174.5C 378.722,173.584 378.222,172.918 377.5,172.5C 377.472,169.084 376.472,166.084 374.5,163.5C 370.167,162.833 365.833,162.167 361.5,161.5C 363.404,161.262 364.738,160.262 365.5,158.5C 367.749,157.92 369.415,156.587 370.5,154.5C 371.124,154.083 371.457,153.416 371.5,152.5C 370.16,148.81 368.826,145.144 367.5,141.5C 367.435,141.062 367.601,140.728 368,140.5C 368.816,141.823 369.983,142.489 371.5,142.5 Z"/></g>
<g><path style="opacity:1" fill="#412e07" d="M 389.5,140.5 C 388.738,142.262 387.404,143.262 385.5,143.5C 386.262,141.738 387.596,140.738 389.5,140.5 Z"/></g>
<g><path style="opacity:1" fill="#452c08" d="M 252.5,143.5 C 251.504,143.586 250.671,143.252 250,142.5C 249.517,143.448 249.351,144.448 249.5,145.5C 246.324,138.518 247.324,137.851 252.5,143.5 Z"/></g>
<g><path style="opacity:1" fill="#341903" d="M 371.5,142.5 C 373.027,142.427 374.027,143.094 374.5,144.5C 372.973,144.573 371.973,143.906 371.5,142.5 Z"/></g>
<g><path style="opacity:1" fill="#ebda00" d="M 252.5,143.5 C 253.262,145.262 254.596,146.262 256.5,146.5C 258.519,149.929 260.852,150.262 263.5,147.5C 265.027,147.573 266.027,146.906 266.5,145.5C 268.404,145.262 269.738,144.262 270.5,142.5C 271.167,142.5 271.833,142.5 272.5,142.5C 272.5,142.833 272.5,143.167 272.5,143.5C 269.823,147.374 268.656,151.707 269,156.5C 269.671,157.252 270.504,157.586 271.5,157.5C 272.262,159.262 273.596,160.262 275.5,160.5C 275.953,161.458 276.619,162.292 277.5,163C 273.5,163.333 269.5,163.667 265.5,164C 264.663,165.011 264.33,166.178 264.5,167.5C 263.129,169.936 262.129,172.603 261.5,175.5C 260.833,175.5 260.167,175.5 259.5,175.5C 259.59,172.848 258.924,170.515 257.5,168.5C 257.567,167.041 257.234,165.708 256.5,164.5C 252.688,163.676 248.688,163.176 244.5,163C 245.381,162.292 246.047,161.458 246.5,160.5C 248.404,160.262 249.738,159.262 250.5,157.5C 252.252,157.582 253.252,156.749 253.5,155C 253.101,153.272 252.434,151.772 251.5,150.5C 251.204,148.597 250.537,146.93 249.5,145.5C 249.351,144.448 249.517,143.448 250,142.5C 250.671,143.252 251.504,143.586 252.5,143.5 Z"/></g>
<g><path style="opacity:1" fill="#412e07" d="M 270.5,142.5 C 269.738,144.262 268.404,145.262 266.5,145.5C 267.262,143.738 268.596,142.738 270.5,142.5 Z"/></g>
<g><path style="opacity:1" fill="#3a1b05" d="M 252.5,143.5 C 254.404,143.738 255.738,144.738 256.5,146.5C 254.596,146.262 253.262,145.262 252.5,143.5 Z"/></g>
<g><path style="opacity:1" fill="#3b2f07" d="M 385.5,143.5 C 385.027,144.906 384.027,145.573 382.5,145.5C 382.973,144.094 383.973,143.427 385.5,143.5 Z"/></g>
<g><path style="opacity:1" fill="#351c05" d="M 374.5,144.5 C 376.094,144.92 377.594,145.586 379,146.5C 380.138,146.011 381.305,145.678 382.5,145.5C 379.674,149.15 377.007,148.817 374.5,144.5 Z"/></g>
<g><path style="opacity:1" fill="#3a2f07" d="M 266.5,145.5 C 266.027,146.906 265.027,147.573 263.5,147.5C 263.973,146.094 264.973,145.427 266.5,145.5 Z"/></g>
<g><path style="opacity:1" fill="#291804" d="M 256.5,146.5 C 258.044,146.703 259.378,147.37 260.5,148.5C 261.417,147.873 262.417,147.539 263.5,147.5C 260.852,150.262 258.519,149.929 256.5,146.5 Z"/></g>
<g><path style="opacity:1" fill="#522908" d="M 272.5,143.5 C 271.956,147.1 270.956,150.6 269.5,154C 269.978,155.303 270.645,156.469 271.5,157.5C 270.504,157.586 269.671,157.252 269,156.5C 268.656,151.707 269.823,147.374 272.5,143.5 Z"/></g>
<g><path style="opacity:1" fill="#2a9300" d="M 372.5,147.5 C 374.546,149.279 376.713,150.946 379,152.5C 381,150.403 383.166,149.403 385.5,149.5C 384.071,151.331 383.571,153.331 384,155.5C 385.558,157.359 387.391,158.859 389.5,160C 386.774,160.182 384.107,160.682 381.5,161.5C 380.764,163.541 379.931,165.541 379,167.5C 378.358,165.238 377.525,163.071 376.5,161C 374.167,160.667 371.833,160.333 369.5,160C 371.744,158.578 373.41,156.744 374.5,154.5C 373.533,152.238 372.866,149.905 372.5,147.5 Z"/></g>
<g><path style="opacity:1" fill="#3e1e03" d="M 308.5,148.5 C 308.5,149.833 309.167,150.5 310.5,150.5C 306.164,154.523 305.497,153.856 308.5,148.5 Z"/></g>
<g><path style="opacity:1" fill="#299200" d="M 254.5,149.5 C 256.471,150.823 258.471,152.156 260.5,153.5C 262.772,152.559 264.772,151.226 266.5,149.5C 266.833,149.833 267.167,150.167 267.5,150.5C 264.223,155.227 265.223,158.727 270.5,161C 268.167,161.333 265.833,161.667 263.5,162C 261.118,170.757 259.451,170.591 258.5,161.5C 256.143,161.663 253.81,161.497 251.5,161C 253.585,159.959 255.252,158.459 256.5,156.5C 255.423,154.271 254.756,151.937 254.5,149.5 Z"/></g>
<g><path style="opacity:1" fill="#492c0c" d="M 330.5,146.5 C 332.428,148.601 333.095,150.934 332.5,153.5C 329.909,151.719 327.575,149.719 325.5,147.5C 327.044,147.703 328.378,148.37 329.5,149.5C 330.386,148.675 330.719,147.675 330.5,146.5 Z"/></g>
<g><path style="opacity:1" fill="#372807" d="M 387.5,151.5 C 388.075,153.411 389.075,155.078 390.5,156.5C 387.179,155.902 386.179,154.235 387.5,151.5 Z"/></g>
<g><path style="opacity:1" fill="#5a4009" d="M 251.5,150.5 C 252.434,151.772 253.101,153.272 253.5,155C 253.252,156.749 252.252,157.582 250.5,157.5C 252.195,155.61 252.528,153.277 251.5,150.5 Z"/></g>
<g><path style="opacity:1" fill="#391f06" d="M 390.5,156.5 C 392.404,156.738 393.738,157.738 394.5,159.5C 392.596,159.262 391.262,158.262 390.5,156.5 Z"/></g>
<g><path style="opacity:1" fill="#4c3c0b" d="M 370.5,154.5 C 369.415,156.587 367.749,157.92 365.5,158.5C 366.585,156.413 368.251,155.08 370.5,154.5 Z"/></g>
<g><path style="opacity:1" fill="#3b2d07" d="M 250.5,157.5 C 249.738,159.262 248.404,160.262 246.5,160.5C 247.262,158.738 248.596,157.738 250.5,157.5 Z"/></g>
<g><path style="opacity:1" fill="#3a1904" d="M 271.5,157.5 C 273.404,157.738 274.738,158.738 275.5,160.5C 273.596,160.262 272.262,159.262 271.5,157.5 Z"/></g>
<g><path style="opacity:1" fill="#413409" d="M 365.5,158.5 C 364.738,160.262 363.404,161.262 361.5,161.5C 362.262,159.738 363.596,158.738 365.5,158.5 Z"/></g>
<g><path style="opacity:1" fill="#3d1103" d="M 361.5,161.5 C 365.833,162.167 370.167,162.833 374.5,163.5C 369.156,163.666 363.823,163.499 358.5,163C 359.244,161.961 360.244,161.461 361.5,161.5 Z"/></g>
<g><path style="opacity:1" fill="#691908" d="M 394.5,159.5 C 396.394,160.048 398.06,161.048 399.5,162.5C 394.117,163.211 388.784,163.878 383.5,164.5C 387.386,162.725 391.72,161.892 396.5,162C 395.619,161.292 394.953,160.458 394.5,159.5 Z"/></g>
<g><path style="opacity:1" fill="#8c7c05" d="M 246.5,160.5 C 246.047,161.458 245.381,162.292 244.5,163C 248.688,163.176 252.688,163.676 256.5,164.5C 251.305,164.821 246.305,164.487 241.5,163.5C 242.922,162.075 244.589,161.075 246.5,160.5 Z"/></g>
<g><path style="opacity:1" fill="#554108" d="M 275.5,160.5 C 277.544,161.031 279.211,162.198 280.5,164C 275.833,164.333 271.167,164.667 266.5,165C 265.934,165.995 265.267,166.828 264.5,167.5C 264.33,166.178 264.663,165.011 265.5,164C 269.5,163.667 273.5,163.333 277.5,163C 276.619,162.292 275.953,161.458 275.5,160.5 Z"/></g>
<g><path style="opacity:1" fill="#761f09" d="M 241.5,163.5 C 246.305,164.487 251.305,164.821 256.5,164.5C 257.234,165.708 257.567,167.041 257.5,168.5C 256.733,167.828 256.066,166.995 255.5,166C 250.467,165.829 245.467,165.329 240.5,164.5C 240.624,163.893 240.957,163.56 241.5,163.5 Z"/></g>
<g><path style="opacity:1" fill="#fed500" d="M -0.5,167.5 C 71.1667,167.5 142.833,167.5 214.5,167.5C 205.714,181.411 199.381,196.411 195.5,212.5C 130.167,212.5 64.8333,212.5 -0.5,212.5C -0.5,197.5 -0.5,182.5 -0.5,167.5 Z"/></g>
<g><path style="opacity:1" fill="#fed500" d="M 428.5,167.5 C 498.833,167.5 569.167,167.5 639.5,167.5C 639.5,182.5 639.5,197.5 639.5,212.5C 575.5,212.5 511.5,212.5 447.5,212.5C 443.627,196.426 437.294,181.426 428.5,167.5 Z"/></g>
<g><path style="opacity:1" fill="#682f07" d="M 257.5,168.5 C 258.924,170.515 259.59,172.848 259.5,175.5C 258.076,173.485 257.41,171.152 257.5,168.5 Z"/></g>
<g><path style="opacity:1" fill="#6a240a" d="M 377.5,172.5 C 378.222,172.918 378.722,173.584 379,174.5C 379.278,173.584 379.778,172.918 380.5,172.5C 379.428,179.092 378.428,179.092 377.5,172.5 Z"/></g>
<g><path style="opacity:1" fill="#3d2b08" d="M 259.5,175.5 C 260.167,175.5 260.833,175.5 261.5,175.5C 261.263,179.289 260.596,179.289 259.5,175.5 Z"/></g>
<g><path style="opacity:1" fill="#7945ea" d="M 352.5,202.5 C 348.507,203.567 344.507,203.734 340.5,203C 344.363,204.354 348.363,204.854 352.5,204.5C 356.42,205.788 356.42,207.122 352.5,208.5C 349.488,209.686 346.488,209.52 343.5,208C 340.014,206.004 336.681,203.837 333.5,201.5C 334.204,199.322 334.537,197.322 334.5,195.5C 335.167,195.833 335.833,196.167 336.5,196.5C 339.109,195.77 341.776,195.27 344.5,195C 343.646,193.978 342.646,193.145 341.5,192.5C 340.304,192.846 340.304,193.346 341.5,194C 339.623,194.576 337.789,194.409 336,193.5C 334.019,193.899 332.519,194.899 331.5,196.5C 330.508,196.328 329.842,196.662 329.5,197.5C 327.883,198.038 326.216,198.371 324.5,198.5C 321.5,198.5 318.5,198.5 315.5,198.5C 314.209,198.737 313.209,198.404 312.5,197.5C 312.5,197.167 312.5,196.833 312.5,196.5C 313.71,196.068 314.71,195.401 315.5,194.5C 316.404,193.791 316.737,192.791 316.5,191.5C 316.714,189.856 316.38,188.356 315.5,187C 313.071,186.297 310.738,186.463 308.5,187.5C 307.468,184.068 308.802,181.568 312.5,180C 316.5,179.333 320.5,179.333 324.5,180C 333.095,184.3 341.428,189.134 349.5,194.5C 349.069,195.293 348.735,196.127 348.5,197C 349.952,198.565 351.619,199.898 353.5,201C 352.944,201.383 352.611,201.883 352.5,202.5 Z"/></g>
<g><path style="opacity:1" fill="#c30c21" d="M 318.5,184.5 C 320.977,184.051 322.977,184.717 324.5,186.5C 322.956,188.446 320.956,188.946 318.5,188C 317.316,186.855 317.316,185.688 318.5,184.5 Z"/></g>
<g><path style="opacity:1" fill="#e8d401" d="M 228.5,191.5 C 228.286,193.144 228.62,194.644 229.5,196C 233.833,196.333 238.167,196.667 242.5,197C 241.619,197.708 240.953,198.542 240.5,199.5C 238.251,200.08 236.585,201.413 235.5,203.5C 234.005,203.415 233.005,204.081 232.5,205.5C 234.472,207.415 235.472,209.749 235.5,212.5C 235.286,214.144 235.62,215.644 236.5,217C 235.906,217.464 235.239,217.631 234.5,217.5C 233.738,215.738 232.404,214.738 230.5,214.5C 230.027,213.094 229.027,212.427 227.5,212.5C 226.167,209.833 224.833,209.833 223.5,212.5C 221.973,212.427 220.973,213.094 220.5,214.5C 218.596,214.738 217.262,215.738 216.5,217.5C 214.952,217.179 214.285,216.179 214.5,214.5C 216.28,213.01 216.946,211.01 216.5,208.5C 217.139,207.903 217.472,207.07 217.5,206C 217.316,204.624 216.649,203.791 215.5,203.5C 214.738,201.738 213.404,200.738 211.5,200.5C 210.738,198.738 209.404,197.738 207.5,197.5C 212.017,196.834 216.683,196.167 221.5,195.5C 222.309,193.929 222.643,192.262 222.5,190.5C 225.182,182.481 227.182,182.814 228.5,191.5 Z"/></g>
<g><path style="opacity:1" fill="#eaea0a" d="M 316.5,191.5 C 311.936,192.184 311.603,193.184 315.5,194.5C 314.71,195.401 313.71,196.068 312.5,196.5C 311.504,196.586 310.671,196.252 310,195.5C 309.148,196.571 308.315,197.571 307.5,198.5C 307.5,198.167 307.5,197.833 307.5,197.5C 306.735,194.904 306.401,192.237 306.5,189.5C 307.5,189.167 308.167,188.5 308.5,187.5C 310.738,186.463 313.071,186.297 315.5,187C 316.38,188.356 316.714,189.856 316.5,191.5 Z"/></g>
<g><path style="opacity:1" fill="#3a2507" d="M 421.5,189.5 C 420.778,189.082 420.278,188.416 420,187.5C 419.617,188.056 419.117,188.389 418.5,188.5C 419.878,183.427 420.878,183.76 421.5,189.5 Z"/></g>
<g><path style="opacity:1" fill="#e9d500" d="M 421.5,189.5 C 421.928,192.785 422.928,195.785 424.5,198.5C 428.833,199.167 433.167,199.833 437.5,200.5C 435.596,200.738 434.262,201.738 433.5,203.5C 431.251,204.08 429.585,205.413 428.5,207.5C 427.903,207.735 427.57,208.235 427.5,209C 428.463,212.723 429.796,216.223 431.5,219.5C 431.672,220.492 431.338,221.158 430.5,221.5C 429.738,219.738 428.404,218.738 426.5,218.5C 426.027,217.094 425.027,216.427 423.5,216.5C 421.167,212.5 418.833,212.5 416.5,216.5C 414.973,216.427 413.973,217.094 413.5,218.5C 411.596,218.738 410.262,219.738 409.5,221.5C 408.662,221.158 408.328,220.492 408.5,219.5C 409.998,215.693 410.998,211.693 411.5,207.5C 410.738,205.738 409.404,204.738 407.5,204.5C 406.738,202.738 405.404,201.738 403.5,201.5C 403.389,200.883 403.056,200.383 402.5,200C 407.28,200.108 411.614,199.275 415.5,197.5C 417.072,194.785 418.072,191.785 418.5,188.5C 419.117,188.389 419.617,188.056 420,187.5C 420.278,188.416 420.778,189.082 421.5,189.5 Z"/></g>
<g><path style="opacity:1" fill="#49470f" d="M 316.5,191.5 C 316.737,192.791 316.404,193.791 315.5,194.5C 311.603,193.184 311.936,192.184 316.5,191.5 Z"/></g>
<g><path style="opacity:1" fill="#2a9200" d="M 224.5,192.5 C 226.614,193.784 227.614,195.784 227.5,198.5C 230.187,198.336 232.854,198.503 235.5,199C 233.208,200.29 231.208,201.957 229.5,204C 230.817,206.438 231.651,208.938 232,211.5C 228.294,206.732 224.294,206.399 220,210.5C 220.253,207.867 220.253,205.2 220,202.5C 214.09,199.058 214.923,197.558 222.5,198C 223.464,196.275 224.131,194.441 224.5,192.5 Z"/></g>
<g><path style="opacity:1" fill="#4c2c94" d="M 333.5,201.5 C 332.833,201.5 332.5,201.167 332.5,200.5C 332.768,198.901 332.434,197.568 331.5,196.5C 332.519,194.899 334.019,193.899 336,193.5C 337.789,194.409 339.623,194.576 341.5,194C 340.304,193.346 340.304,192.846 341.5,192.5C 342.646,193.145 343.646,193.978 344.5,195C 341.776,195.27 339.109,195.77 336.5,196.5C 335.833,196.167 335.167,195.833 334.5,195.5C 334.537,197.322 334.204,199.322 333.5,201.5 Z"/></g>
<g><path style="opacity:1" fill="#462109" d="M 222.5,190.5 C 222.643,192.262 222.309,193.929 221.5,195.5C 216.683,196.167 212.017,196.834 207.5,197.5C 206.624,197.631 205.957,197.298 205.5,196.5C 210.5,195.833 215.5,195.167 220.5,194.5C 220.994,192.974 221.661,191.641 222.5,190.5 Z"/></g>
<g><path style="opacity:1" fill="#3d1d06" d="M 228.5,191.5 C 229.249,192.531 229.915,193.698 230.5,195C 235.5,195.333 240.5,195.667 245.5,196C 244.211,197.802 242.544,198.969 240.5,199.5C 240.953,198.542 241.619,197.708 242.5,197C 238.167,196.667 233.833,196.333 229.5,196C 228.62,194.644 228.286,193.144 228.5,191.5 Z"/></g>
<g><path style="opacity:1" fill="#279100" d="M 419.5,194.5 C 420.864,196.22 421.864,198.22 422.5,200.5C 430.004,200.522 430.838,202.189 425,205.5C 424.748,207.931 425.248,210.265 426.5,212.5C 426.167,212.833 425.833,213.167 425.5,213.5C 423.807,211.973 421.973,210.64 420,209.5C 418.027,210.64 416.193,211.973 414.5,213.5C 414.167,213 413.833,212.5 413.5,212C 414.167,210.333 414.833,208.667 415.5,207C 413.855,205.355 412.188,203.688 410.5,202C 416.286,202.684 419.286,200.184 419.5,194.5 Z"/></g>
<g><path style="opacity:1" fill="#482c05" d="M 306.5,189.5 C 306.401,192.237 306.735,194.904 307.5,197.5C 306.252,196.666 305.585,195.333 305.5,193.5C 305.511,191.955 305.844,190.622 306.5,189.5 Z"/></g>
<g><path style="opacity:1" fill="#6e430d" d="M 312.5,196.5 C 312.5,196.833 312.5,197.167 312.5,197.5C 310.408,197.561 308.908,198.561 308,200.5C 307.536,199.906 307.369,199.239 307.5,198.5C 308.315,197.571 309.148,196.571 310,195.5C 310.671,196.252 311.504,196.586 312.5,196.5 Z"/></g>
<g><path style="opacity:1" fill="#3e2606" d="M 207.5,197.5 C 209.404,197.738 210.738,198.738 211.5,200.5C 209.596,200.262 208.262,199.262 207.5,197.5 Z"/></g>
<g><path style="opacity:1" fill="#483a10" d="M 329.5,197.5 C 329.842,196.662 330.508,196.328 331.5,196.5C 332.434,197.568 332.768,198.901 332.5,200.5C 331.1,199.9 330.1,198.9 329.5,197.5 Z"/></g>
<g><path style="opacity:1" fill="#2d1801" d="M 415.5,197.5 C 411.614,199.275 407.28,200.108 402.5,200C 403.056,200.383 403.389,200.883 403.5,201.5C 401.804,201.315 400.471,200.481 399.5,199C 404.915,198.785 410.248,198.285 415.5,197.5 Z"/></g>
<g><path style="opacity:1" fill="#392b02" d="M 424.5,198.5 C 429.844,198.334 435.177,198.501 440.5,199C 439.473,199.513 438.473,200.013 437.5,200.5C 433.167,199.833 428.833,199.167 424.5,198.5 Z"/></g>
<g><path style="opacity:1" fill="#51295f" d="M 315.5,198.5 C 318.5,198.5 321.5,198.5 324.5,198.5C 324.5,198.833 324.5,199.167 324.5,199.5C 323.127,199.343 321.793,199.51 320.5,200C 321.737,200.232 322.737,200.732 323.5,201.5C 320.482,201.335 317.482,201.502 314.5,202C 313.944,202.383 313.611,202.883 313.5,203.5C 313.167,203.5 312.833,203.5 312.5,203.5C 313.075,201.589 314.075,199.922 315.5,198.5 Z"/></g>
<g><path style="opacity:1" fill="#058601" d="M 329.5,197.5 C 330.1,198.9 331.1,199.9 332.5,200.5C 332.5,201.167 332.833,201.5 333.5,201.5C 333.5,202.833 333.5,204.167 333.5,205.5C 330.868,207.063 328.535,206.73 326.5,204.5C 326.608,202.486 325.942,200.82 324.5,199.5C 324.5,199.167 324.5,198.833 324.5,198.5C 326.216,198.371 327.883,198.038 329.5,197.5 Z"/></g>
<g><path style="opacity:1" fill="#3f2806" d="M 211.5,200.5 C 213.404,200.738 214.738,201.738 215.5,203.5C 213.596,203.262 212.262,202.262 211.5,200.5 Z"/></g>
<g><path style="opacity:1" fill="#038004" d="M 323.5,201.5 C 325.168,203.991 324.834,206.158 322.5,208C 323.667,208.5 324.5,209.333 325,210.5C 325.986,206.625 327.153,206.625 328.5,210.5C 327.528,212.636 325.861,213.803 323.5,214C 325.935,214.075 326.602,214.908 325.5,216.5C 322.159,217.157 320.159,215.824 319.5,212.5C 318.264,211.754 316.93,211.421 315.5,211.5C 312.527,211.035 311.36,209.368 312,206.5C 312.333,206.833 312.667,207.167 313,207.5C 313.49,206.207 313.657,204.873 313.5,203.5C 313.611,202.883 313.944,202.383 314.5,202C 317.482,201.502 320.482,201.335 323.5,201.5 Z"/></g>
<g><path style="opacity:1" fill="#501a08" d="M 240.5,199.5 C 239.415,201.587 237.749,202.92 235.5,203.5C 236.585,201.413 238.251,200.08 240.5,199.5 Z"/></g>
<g><path style="opacity:1" fill="#352105" d="M 403.5,201.5 C 405.404,201.738 406.738,202.738 407.5,204.5C 405.596,204.262 404.262,203.262 403.5,201.5 Z"/></g>
<g><path style="opacity:1" fill="#b4220f" d="M 324.5,199.5 C 325.942,200.82 326.608,202.486 326.5,204.5C 325.728,203.306 324.728,202.306 323.5,201.5C 322.737,200.732 321.737,200.232 320.5,200C 321.793,199.51 323.127,199.343 324.5,199.5 Z"/></g>
<g><path style="opacity:1" fill="#6e3cc9" d="M 333.5,201.5 C 336.681,203.837 340.014,206.004 343.5,208C 346.488,209.52 349.488,209.686 352.5,208.5C 353.678,209.999 355.345,210.999 357.5,211.5C 352.717,216.261 347.384,216.761 341.5,213C 338.67,211.272 336.337,209.105 334.5,206.5C 333.833,206.5 333.5,206.167 333.5,205.5C 333.5,204.167 333.5,202.833 333.5,201.5 Z"/></g>
<g><path style="opacity:1" fill="#4e2474" d="M 352.5,202.5 C 352.5,203.167 352.5,203.833 352.5,204.5C 348.363,204.854 344.363,204.354 340.5,203C 344.507,203.734 348.507,203.567 352.5,202.5 Z"/></g>
<g><path style="opacity:1" fill="#472007" d="M 433.5,203.5 C 432.415,205.587 430.749,206.92 428.5,207.5C 429.585,205.413 431.251,204.08 433.5,203.5 Z"/></g>
<g><path style="opacity:1" fill="#332205" d="M 407.5,204.5 C 409.404,204.738 410.738,205.738 411.5,207.5C 409.596,207.262 408.262,206.262 407.5,204.5 Z"/></g>
<g><path style="opacity:1" fill="#1a3d14" d="M 312.5,203.5 C 312.833,203.5 313.167,203.5 313.5,203.5C 313.657,204.873 313.49,206.207 313,207.5C 312.667,207.167 312.333,206.833 312,206.5C 311.36,209.368 312.527,211.035 315.5,211.5C 315.083,212.124 314.416,212.457 313.5,212.5C 311.823,211.813 310.156,211.146 308.5,210.5C 309.079,207.669 310.412,205.336 312.5,203.5 Z"/></g>
<g><path style="opacity:1" fill="#3c1b03" d="M 227.5,212.5 C 226.167,212.5 224.833,212.5 223.5,212.5C 224.833,209.833 226.167,209.833 227.5,212.5 Z"/></g>
<g><path style="opacity:1" fill="#7c48f1" d="M 308.5,210.5 C 310.156,211.146 311.823,211.813 313.5,212.5C 314.416,212.457 315.083,212.124 315.5,211.5C 316.93,211.421 318.264,211.754 319.5,212.5C 320.159,215.824 322.159,217.157 325.5,216.5C 325.443,217.609 325.11,218.609 324.5,219.5C 323.4,220.605 322.733,221.938 322.5,223.5C 320.832,233.845 322.165,243.845 326.5,253.5C 326.85,256.722 327.517,259.888 328.5,263C 327.946,265.824 327.446,268.657 327,271.5C 324.002,269.332 321.169,266.999 318.5,264.5C 305.005,248.531 301.672,230.531 308.5,210.5 Z"/></g>
<g><path style="opacity:1" fill="#000000" d="M -0.5,212.5 C 64.8333,212.5 130.167,212.5 195.5,212.5C 192.3,228.031 191.634,243.698 193.5,259.5C 128.833,259.5 64.1667,259.5 -0.5,259.5C -0.5,243.833 -0.5,228.167 -0.5,212.5 Z"/></g>
<g><path style="opacity:1" fill="#6a4f0e" d="M 216.5,208.5 C 216.946,211.01 216.28,213.01 214.5,214.5C 214.595,212.214 215.262,210.214 216.5,208.5 Z"/></g>
<g><path style="opacity:1" fill="#138101" d="M 332.5,212.5 C 337.252,212.341 338.586,214.341 336.5,218.5C 335.292,219.234 333.959,219.567 332.5,219.5C 333.546,217.118 333.546,214.785 332.5,212.5 Z"/></g>
<g><path style="opacity:1" fill="#000000" d="M 447.5,212.5 C 511.5,212.5 575.5,212.5 639.5,212.5C 639.5,228.167 639.5,243.833 639.5,259.5C 575.833,259.5 512.167,259.5 448.5,259.5C 451.312,243.773 450.978,228.106 447.5,212.5 Z"/></g>
<g><path style="opacity:1" fill="#381c04" d="M 223.5,212.5 C 223.027,213.906 222.027,214.573 220.5,214.5C 220.973,213.094 221.973,212.427 223.5,212.5 Z"/></g>
<g><path style="opacity:1" fill="#2e2104" d="M 227.5,212.5 C 229.027,212.427 230.027,213.094 230.5,214.5C 228.973,214.573 227.973,213.906 227.5,212.5 Z"/></g>
<g><path style="opacity:1" fill="#165409" d="M 323.5,201.5 C 324.728,202.306 325.728,203.306 326.5,204.5C 328.535,206.73 330.868,207.063 333.5,205.5C 333.5,206.167 333.833,206.5 334.5,206.5C 334.762,207.978 334.429,209.311 333.5,210.5C 332.261,210.942 331.261,211.609 330.5,212.5C 331.167,212.5 331.833,212.5 332.5,212.5C 333.546,214.785 333.546,217.118 332.5,219.5C 333.959,219.567 335.292,219.234 336.5,218.5C 336.5,219.167 336.5,219.833 336.5,220.5C 335.07,220.421 333.736,220.754 332.5,221.5C 330.149,219.771 327.482,219.104 324.5,219.5C 325.11,218.609 325.443,217.609 325.5,216.5C 326.602,214.908 325.935,214.075 323.5,214C 325.861,213.803 327.528,212.636 328.5,210.5C 327.153,206.625 325.986,206.625 325,210.5C 324.5,209.333 323.667,208.5 322.5,208C 324.834,206.158 325.168,203.991 323.5,201.5 Z"/></g>
<g><path style="opacity:1" fill="#009000" d="M 330.5,212.5 C 331.341,214.379 331.675,216.379 331.5,218.5C 329.712,218.785 328.045,218.452 326.5,217.5C 327.154,215.142 328.487,213.475 330.5,212.5 Z"/></g>
<g><path style="opacity:1" fill="#3b1e06" d="M 423.5,216.5 C 421.983,216.489 420.816,215.823 420,214.5C 419.184,215.823 418.017,216.489 416.5,216.5C 418.833,212.5 421.167,212.5 423.5,216.5 Z"/></g>
<g><path style="opacity:1" fill="#3d2c07" d="M 230.5,214.5 C 232.404,214.738 233.738,215.738 234.5,217.5C 232.596,217.262 231.262,216.262 230.5,214.5 Z"/></g>
<g><path style="opacity:1" fill="#342405" d="M 423.5,216.5 C 425.027,216.427 426.027,217.094 426.5,218.5C 424.973,218.573 423.973,217.906 423.5,216.5 Z"/></g>
<g><path style="opacity:1" fill="#391303" d="M 416.5,216.5 C 416.027,217.906 415.027,218.573 413.5,218.5C 413.973,217.094 414.973,216.427 416.5,216.5 Z"/></g>
<g><path style="opacity:1" fill="#401c07" d="M 214.5,214.5 C 214.285,216.179 214.952,217.179 216.5,217.5C 215.685,218.837 214.518,219.837 213,220.5C 212.595,218.225 213.095,216.225 214.5,214.5 Z"/></g>
<g><path style="opacity:1" fill="#4e2c0b" d="M 235.5,212.5 C 237.105,215.12 238.438,217.953 239.5,221C 237.228,220.923 235.562,219.757 234.5,217.5C 235.239,217.631 235.906,217.464 236.5,217C 235.62,215.644 235.286,214.144 235.5,212.5 Z"/></g>
<g><path style="opacity:1" fill="#3d2c07" d="M 426.5,218.5 C 428.404,218.738 429.738,219.738 430.5,221.5C 428.596,221.262 427.262,220.262 426.5,218.5 Z"/></g>
<g><path style="opacity:1" fill="#361203" d="M 408.5,219.5 C 408.328,220.492 408.662,221.158 409.5,221.5C 408.998,223.085 407.998,223.585 406.5,223C 407.085,221.698 407.751,220.531 408.5,219.5 Z"/></g>
<g><path style="opacity:1" fill="#2d1502" d="M 431.5,219.5 C 432.703,220.943 433.203,222.609 433,224.5C 431.955,223.627 431.122,222.627 430.5,221.5C 431.338,221.158 431.672,220.492 431.5,219.5 Z"/></g>
<g><path style="opacity:1" fill="#186e01" d="M 338.5,227.5 C 347.694,239.573 353.361,253.24 355.5,268.5C 355.802,271.059 355.468,273.393 354.5,275.5C 353.392,272.198 352.059,268.865 350.5,265.5C 351.416,262.368 350.916,259.368 349,256.5C 348.506,258.134 348.34,259.801 348.5,261.5C 347.167,261.5 345.833,261.5 344.5,261.5C 344.815,263.226 344.981,264.893 345,266.5C 343.951,265.483 342.784,265.316 341.5,266C 342.765,267.337 343.265,268.837 343,270.5C 341.066,267.966 339.732,265.299 339,262.5C 339.689,263.357 340.522,264.023 341.5,264.5C 342.321,261.553 342.821,258.553 343,255.5C 343.621,261.088 345.121,261.588 347.5,257C 346.66,251.482 344.827,246.315 342,241.5C 341.667,243.5 341.333,245.5 341,247.5C 339.424,244.615 339.257,241.615 340.5,238.5C 339.438,235.254 338.105,232.087 336.5,229C 336.944,227.238 337.444,227.405 338,229.5C 338.464,228.906 338.631,228.239 338.5,227.5 Z"/></g>
<g><path style="opacity:1" fill="#026803" d="M 322.5,223.5 C 321.292,230.013 323.125,235.346 328,239.5C 328.595,238.101 328.428,236.768 327.5,235.5C 328.355,234.707 329.189,235.04 330,236.5C 330.167,235.833 330.333,235.167 330.5,234.5C 329.006,229.523 329.839,229.189 333,233.5C 333,231.5 333,229.5 333,227.5C 334.457,230.366 334.79,233.366 334,236.5C 331.69,234.082 331.024,234.748 332,238.5C 333.572,242.852 335.239,243.185 337,239.5C 338.387,241.194 338.054,242.86 336,244.5C 335,243.833 334,243.167 333,242.5C 331.973,246.18 332.806,249.347 335.5,252C 334.809,253.067 334.309,254.234 334,255.5C 332.858,253.321 332.025,250.988 331.5,248.5C 326.4,242.787 325.4,243.454 328.5,250.5C 328.154,251.696 327.654,251.696 327,250.5C 326.517,251.448 326.351,252.448 326.5,253.5C 322.165,243.845 320.832,233.845 322.5,223.5 Z"/></g>
<g><path style="opacity:1" fill="#2c1502" d="M 215.5,249.5 C 214.833,249.5 214.5,249.833 214.5,250.5C 213.152,249.473 212.652,248.14 213,246.5C 214.045,247.373 214.878,248.373 215.5,249.5 Z"/></g>
<g><path style="opacity:1" fill="#3e1e08" d="M 430.5,252.5 C 430.5,251.167 429.833,250.5 428.5,250.5C 429.254,248.554 430.588,247.721 432.5,248C 431.901,249.622 431.234,251.122 430.5,252.5 Z"/></g>
<g><path style="opacity:1" fill="#341e05" d="M 215.5,249.5 C 217.027,249.427 218.027,250.094 218.5,251.5C 216.973,251.573 215.973,250.906 215.5,249.5 Z"/></g>
<g><path style="opacity:1" fill="#372005" d="M 411.5,251.5 C 409.983,251.489 408.816,250.823 408,249.5C 407.601,249.728 407.435,250.062 407.5,250.5C 406.152,249.473 405.652,248.14 406,246.5C 408.191,247.833 410.024,249.5 411.5,251.5 Z"/></g>
<g><path style="opacity:1" fill="#efdb00" d="M 215.5,249.5 C 215.973,250.906 216.973,251.573 218.5,251.5C 220.296,253.9 222.63,255.567 225.5,256.5C 226.779,257.715 227.779,257.382 228.5,255.5C 230.404,255.262 231.738,254.262 232.5,252.5C 234.027,252.573 235.027,251.906 235.5,250.5C 236.833,250.5 237.5,251.167 237.5,252.5C 235.704,255.362 234.371,258.529 233.5,262C 233.57,262.765 233.903,263.265 234.5,263.5C 234.973,264.906 235.973,265.573 237.5,265.5C 238.262,267.262 239.596,268.262 241.5,268.5C 241.953,269.458 242.619,270.292 243.5,271C 238.72,270.892 234.386,271.725 230.5,273.5C 229.262,275.214 228.595,277.214 228.5,279.5C 227.768,280.808 226.934,282.142 226,283.5C 225.434,281.277 224.6,279.277 223.5,277.5C 223.598,275.447 222.931,273.78 221.5,272.5C 217.167,271.833 212.833,271.167 208.5,270.5C 210.027,270.573 211.027,269.906 211.5,268.5C 213.404,268.262 214.738,267.262 215.5,265.5C 217.722,265.441 218.722,264.275 218.5,262C 218.299,259.889 217.633,258.055 216.5,256.5C 216.029,254.421 215.363,252.421 214.5,250.5C 214.5,249.833 214.833,249.5 215.5,249.5 Z"/></g>
<g><path style="opacity:1" fill="#3a1f06" d="M 218.5,251.5 C 221.37,252.433 223.704,254.1 225.5,256.5C 222.63,255.567 220.296,253.9 218.5,251.5 Z"/></g>
<g><path style="opacity:1" fill="#3e2f07" d="M 235.5,250.5 C 235.027,251.906 234.027,252.573 232.5,252.5C 232.973,251.094 233.973,250.427 235.5,250.5 Z"/></g>
<g><path style="opacity:1" fill="#3d1e08" d="M 237.5,252.5 C 237.5,251.167 236.833,250.5 235.5,250.5C 239.836,246.477 240.503,247.144 237.5,252.5 Z"/></g>
<g><path style="opacity:1" fill="#f1dd00" d="M 411.5,251.5 C 411.973,252.906 412.973,253.573 414.5,253.5C 415.262,255.262 416.596,256.262 418.5,256.5C 419.779,257.715 420.779,257.382 421.5,255.5C 424.37,254.567 426.704,252.9 428.5,250.5C 429.833,250.5 430.5,251.167 430.5,252.5C 428.704,255.362 427.371,258.529 426.5,262C 427.072,264.074 428.405,265.24 430.5,265.5C 431.262,267.262 432.596,268.262 434.5,268.5C 434.953,269.458 435.619,270.292 436.5,271C 432.129,271.172 427.796,271.672 423.5,272.5C 422.423,274.729 421.756,277.063 421.5,279.5C 420.596,280.209 420.263,281.209 420.5,282.5C 419.833,282.833 419.167,283.167 418.5,283.5C 418.072,280.215 417.072,277.215 415.5,274.5C 415.5,273.5 415.5,272.5 415.5,271.5C 411.154,271.666 406.821,271.499 402.5,271C 403.381,270.292 404.047,269.458 404.5,268.5C 406.404,268.262 407.738,267.262 408.5,265.5C 409.496,265.586 410.329,265.252 411,264.5C 411.78,262.613 411.613,260.946 410.5,259.5C 410.267,256.458 409.267,253.792 407.5,251.5C 407.5,251.167 407.5,250.833 407.5,250.5C 407.435,250.062 407.601,249.728 408,249.5C 408.816,250.823 409.983,251.489 411.5,251.5 Z"/></g>
<g><path style="opacity:1" fill="#341803" d="M 411.5,251.5 C 413.027,251.427 414.027,252.094 414.5,253.5C 412.973,253.573 411.973,252.906 411.5,251.5 Z"/></g>
<g><path style="opacity:1" fill="#3e2a07" d="M 232.5,252.5 C 231.738,254.262 230.404,255.262 228.5,255.5C 229.262,253.738 230.596,252.738 232.5,252.5 Z"/></g>
<g><path style="opacity:1" fill="#3d2a07" d="M 428.5,250.5 C 426.704,252.9 424.37,254.567 421.5,255.5C 423.296,253.1 425.63,251.433 428.5,250.5 Z"/></g>
<g><path style="opacity:1" fill="#391c05" d="M 414.5,253.5 C 416.404,253.738 417.738,254.738 418.5,256.5C 416.596,256.262 415.262,255.262 414.5,253.5 Z"/></g>
<g><path style="opacity:1" fill="#3d2b07" d="M 237.5,252.5 C 236.703,256.223 235.703,259.89 234.5,263.5C 233.903,263.265 233.57,262.765 233.5,262C 234.371,258.529 235.704,255.362 237.5,252.5 Z"/></g>
<g><path style="opacity:1" fill="#3a3007" d="M 228.5,255.5 C 227.779,257.382 226.779,257.715 225.5,256.5C 226.391,255.89 227.391,255.557 228.5,255.5 Z"/></g>
<g><path style="opacity:1" fill="#652c08" d="M 407.5,251.5 C 409.267,253.792 410.267,256.458 410.5,259.5C 408.415,257.316 407.415,254.649 407.5,251.5 Z"/></g>
<g><path style="opacity:1" fill="#352c05" d="M 421.5,255.5 C 420.779,257.382 419.779,257.715 418.5,256.5C 419.391,255.89 420.391,255.557 421.5,255.5 Z"/></g>
<g><path style="opacity:1" fill="#5a2f08" d="M 430.5,252.5 C 430.223,255.89 429.223,259.057 427.5,262C 428.71,263.039 429.71,264.206 430.5,265.5C 428.405,265.24 427.072,264.074 426.5,262C 427.371,258.529 428.704,255.362 430.5,252.5 Z"/></g>
<g><path style="opacity:1" fill="#249100" d="M 219.5,256.5 C 221.546,258.279 223.713,259.946 226,261.5C 231.975,255.491 233.475,256.324 230.5,264C 232.145,265.645 233.812,267.312 235.5,269C 233.1,269.186 230.766,269.686 228.5,270.5C 227.764,272.541 226.931,274.541 226,276.5C 225.358,274.238 224.525,272.071 223.5,270C 221.167,269.667 218.833,269.333 216.5,269C 219.064,267.938 220.731,266.104 221.5,263.5C 220.533,261.238 219.866,258.905 219.5,256.5 Z"/></g>
<g><path style="opacity:1" fill="#269100" d="M 412.5,256.5 C 414.546,258.279 416.713,259.946 419,261.5C 424.975,255.491 426.475,256.324 423.5,264C 425.188,266.019 427.188,267.686 429.5,269C 426.774,269.182 424.107,269.682 421.5,270.5C 420.764,272.541 419.931,274.541 419,276.5C 418.358,274.238 417.525,272.071 416.5,270C 414.167,269.667 411.833,269.333 409.5,269C 412.064,267.938 413.731,266.104 414.5,263.5C 413.827,261.149 413.16,258.816 412.5,256.5 Z"/></g>
<g><path style="opacity:1" fill="#55360a" d="M 216.5,256.5 C 217.633,258.055 218.299,259.889 218.5,262C 218.722,264.275 217.722,265.441 215.5,265.5C 217.542,262.816 217.875,259.816 216.5,256.5 Z"/></g>
<g><path style="opacity:1" fill="#fefefd" d="M -0.5,259.5 C 64.1667,259.5 128.833,259.5 193.5,259.5C 196.961,275.876 202.628,291.543 210.5,306.5C 140.167,306.5 69.8333,306.5 -0.5,306.5C -0.5,290.833 -0.5,275.167 -0.5,259.5 Z"/></g>
<g><path style="opacity:1" fill="#fefefd" d="M 448.5,259.5 C 512.167,259.5 575.833,259.5 639.5,259.5C 639.5,275.167 639.5,290.833 639.5,306.5C 570.5,306.5 501.5,306.5 432.5,306.5C 440.612,291.833 445.945,276.166 448.5,259.5 Z"/></g>
<g><path style="opacity:1" fill="#341d05" d="M 234.5,263.5 C 236.027,263.427 237.027,264.094 237.5,265.5C 235.973,265.573 234.973,264.906 234.5,263.5 Z"/></g>
<g><path style="opacity:1" fill="#51400d" d="M 410.5,259.5 C 411.613,260.946 411.78,262.613 411,264.5C 410.329,265.252 409.496,265.586 408.5,265.5C 410.081,263.858 410.747,261.858 410.5,259.5 Z"/></g>
<g><path style="opacity:1" fill="#483a09" d="M 215.5,265.5 C 214.738,267.262 213.404,268.262 211.5,268.5C 212.262,266.738 213.596,265.738 215.5,265.5 Z"/></g>
<g><path style="opacity:1" fill="#3d1a04" d="M 237.5,265.5 C 239.404,265.738 240.738,266.738 241.5,268.5C 239.596,268.262 238.262,267.262 237.5,265.5 Z"/></g>
<g><path style="opacity:1" fill="#423307" d="M 408.5,265.5 C 407.738,267.262 406.404,268.262 404.5,268.5C 405.262,266.738 406.596,265.738 408.5,265.5 Z"/></g>
<g><path style="opacity:1" fill="#341a04" d="M 430.5,265.5 C 432.404,265.738 433.738,266.738 434.5,268.5C 432.596,268.262 431.262,267.262 430.5,265.5 Z"/></g>
<g><path style="opacity:1" fill="#3d2a05" d="M 211.5,268.5 C 211.027,269.906 210.027,270.573 208.5,270.5C 208.973,269.094 209.973,268.427 211.5,268.5 Z"/></g>
<g><path style="opacity:1" fill="#331203" d="M 241.5,268.5 C 243.544,269.031 245.211,270.198 246.5,272C 241.085,272.215 235.752,272.715 230.5,273.5C 234.386,271.725 238.72,270.892 243.5,271C 242.619,270.292 241.953,269.458 241.5,268.5 Z"/></g>
<g><path style="opacity:1" fill="#038501" d="M 324.5,219.5 C 327.482,219.104 330.149,219.771 332.5,221.5C 333.736,220.754 335.07,220.421 336.5,220.5C 336.166,223.188 336.832,225.521 338.5,227.5C 338.631,228.239 338.464,228.906 338,229.5C 337.444,227.405 336.944,227.238 336.5,229C 338.105,232.087 339.438,235.254 340.5,238.5C 339.257,241.615 339.424,244.615 341,247.5C 341.333,245.5 341.667,243.5 342,241.5C 344.827,246.315 346.66,251.482 347.5,257C 345.121,261.588 343.621,261.088 343,255.5C 342.821,258.553 342.321,261.553 341.5,264.5C 340.522,264.023 339.689,263.357 339,262.5C 339.732,265.299 341.066,267.966 343,270.5C 343.265,268.837 342.765,267.337 341.5,266C 342.784,265.316 343.951,265.483 345,266.5C 344.981,264.893 344.815,263.226 344.5,261.5C 345.833,261.5 347.167,261.5 348.5,261.5C 348.34,259.801 348.506,258.134 349,256.5C 350.916,259.368 351.416,262.368 350.5,265.5C 352.059,268.865 353.392,272.198 354.5,275.5C 354.657,276.873 354.49,278.207 354,279.5C 353.444,277.405 352.944,277.238 352.5,279C 354.391,281.706 354.725,284.539 353.5,287.5C 353.942,288.739 354.609,289.739 355.5,290.5C 355.5,291.167 355.833,291.5 356.5,291.5C 356.5,295.833 356.5,300.167 356.5,304.5C 356.631,305.239 356.464,305.906 356,306.5C 353.88,299.592 350.713,293.259 346.5,287.5C 344.933,284.717 343.1,282.051 341,279.5C 338.928,276.029 337.428,272.362 336.5,268.5C 334.097,268.607 332.264,267.607 331,265.5C 332.186,268.652 332.519,271.985 332,275.5C 330.314,278.022 328.981,277.689 328,274.5C 327.187,276.436 326.687,278.436 326.5,280.5C 325.448,280.351 324.448,280.517 323.5,281C 325.402,281.199 326.902,282.033 328,283.5C 328.494,281.866 328.66,280.199 328.5,278.5C 329.833,278.5 331.167,278.5 332.5,278.5C 332.5,281.167 332.5,283.833 332.5,286.5C 330.876,286.64 329.71,285.973 329,284.5C 327.667,287.167 326.333,287.167 325,284.5C 324.274,287.285 322.774,287.952 320.5,286.5C 320.167,285.833 319.833,285.167 319.5,284.5C 319.048,280.909 318.048,277.575 316.5,274.5C 316.335,271.482 316.502,268.482 317,265.5C 317.383,264.944 317.883,264.611 318.5,264.5C 321.169,266.999 324.002,269.332 327,271.5C 327.446,268.657 327.946,265.824 328.5,263C 327.517,259.888 326.85,256.722 326.5,253.5C 326.351,252.448 326.517,251.448 327,250.5C 327.654,251.696 328.154,251.696 328.5,250.5C 325.4,243.454 326.4,242.787 331.5,248.5C 332.025,250.988 332.858,253.321 334,255.5C 334.309,254.234 334.809,253.067 335.5,252C 332.806,249.347 331.973,246.18 333,242.5C 334,243.167 335,243.833 336,244.5C 338.054,242.86 338.387,241.194 337,239.5C 335.239,243.185 333.572,242.852 332,238.5C 331.024,234.748 331.69,234.082 334,236.5C 334.79,233.366 334.457,230.366 333,227.5C 333,229.5 333,231.5 333,233.5C 329.839,229.189 329.006,229.523 330.5,234.5C 330.333,235.167 330.167,235.833 330,236.5C 329.189,235.04 328.355,234.707 327.5,235.5C 328.428,236.768 328.595,238.101 328,239.5C 323.125,235.346 321.292,230.013 322.5,223.5C 322.733,221.938 323.4,220.605 324.5,219.5 Z"/></g>
<g><path style="opacity:1" fill="#3d2502" d="M 208.5,270.5 C 212.833,271.167 217.167,271.833 221.5,272.5C 216.156,272.666 210.823,272.499 205.5,272C 206.527,271.487 207.527,270.987 208.5,270.5 Z"/></g>
<g><path style="opacity:1" fill="#9b4a02" d="M 316.5,274.5 C 318.048,277.575 319.048,280.909 319.5,284.5C 312.385,284.925 305.385,284.425 298.5,283C 296.968,280.966 295.635,278.799 294.5,276.5C 297.253,275.502 299.253,273.669 300.5,271C 305.758,268.465 309.092,269.965 310.5,275.5C 312.735,275.795 314.735,275.461 316.5,274.5 Z"/></g>
<g><path style="opacity:1" fill="#402804" d="M 404.5,268.5 C 404.047,269.458 403.381,270.292 402.5,271C 406.821,271.499 411.154,271.666 415.5,271.5C 415.5,272.5 415.5,273.5 415.5,274.5C 410.118,272.782 404.452,271.949 398.5,272C 400.405,270.579 402.405,269.412 404.5,268.5 Z"/></g>
<g><path style="opacity:1" fill="#501907" d="M 434.5,268.5 C 436.544,269.031 438.211,270.198 439.5,272C 434.511,272.499 429.511,272.666 424.5,272.5C 424.448,275.346 423.448,277.68 421.5,279.5C 421.756,277.063 422.423,274.729 423.5,272.5C 427.796,271.672 432.129,271.172 436.5,271C 435.619,270.292 434.953,269.458 434.5,268.5 Z"/></g>
<g><path style="opacity:1" fill="#025f01" d="M 346.5,287.5 C 345.833,287.833 345.167,288.167 344.5,288.5C 343.345,284.369 342.178,284.036 341,287.5C 339.601,286.773 338.101,286.273 336.5,286C 336.966,284.701 336.966,283.201 336.5,281.5C 335.5,281.5 334.5,281.5 333.5,281.5C 333.421,282.93 333.754,284.264 334.5,285.5C 332.407,287.305 331.24,289.638 331,292.5C 329.731,291.095 329.231,289.429 329.5,287.5C 326.505,287.294 323.838,287.96 321.5,289.5C 320.596,288.791 320.263,287.791 320.5,286.5C 322.774,287.952 324.274,287.285 325,284.5C 326.333,287.167 327.667,287.167 329,284.5C 329.71,285.973 330.876,286.64 332.5,286.5C 332.5,283.833 332.5,281.167 332.5,278.5C 331.167,278.5 329.833,278.5 328.5,278.5C 328.66,280.199 328.494,281.866 328,283.5C 326.902,282.033 325.402,281.199 323.5,281C 324.448,280.517 325.448,280.351 326.5,280.5C 326.687,278.436 327.187,276.436 328,274.5C 328.981,277.689 330.314,278.022 332,275.5C 332.519,271.985 332.186,268.652 331,265.5C 332.264,267.607 334.097,268.607 336.5,268.5C 337.428,272.362 338.928,276.029 341,279.5C 343.1,282.051 344.933,284.717 346.5,287.5 Z"/></g>
<g><path style="opacity:1" fill="#144401" d="M 355.5,268.5 C 356.461,270.265 356.795,272.265 356.5,274.5C 356.5,277.167 356.5,279.833 356.5,282.5C 355.527,284.948 355.194,287.615 355.5,290.5C 354.609,289.739 353.942,288.739 353.5,287.5C 354.725,284.539 354.391,281.706 352.5,279C 352.944,277.238 353.444,277.405 354,279.5C 354.49,278.207 354.657,276.873 354.5,275.5C 355.468,273.393 355.802,271.059 355.5,268.5 Z"/></g>
<g><path style="opacity:1" fill="#924303" d="M 356.5,274.5 C 360.392,275.742 361.392,278.242 359.5,282C 358.552,282.483 357.552,282.649 356.5,282.5C 356.5,279.833 356.5,277.167 356.5,274.5 Z"/></g>
<g><path style="opacity:1" fill="#481f08" d="M 223.5,277.5 C 224.6,279.277 225.434,281.277 226,283.5C 226.934,282.142 227.768,280.808 228.5,279.5C 228.736,282.226 227.903,284.559 226,286.5C 224.451,283.688 223.618,280.688 223.5,277.5 Z"/></g>
<g><path style="opacity:1" fill="#391805" d="M 420.5,282.5 C 419.934,286.806 419.268,287.139 418.5,283.5C 419.167,283.167 419.833,282.833 420.5,282.5 Z"/></g>
<g><path style="opacity:1" fill="#158401" d="M 344.5,288.5 C 344.048,292.575 342.548,296.242 340,299.5C 338.989,300.337 337.822,300.67 336.5,300.5C 335.053,306.956 333.386,306.956 331.5,300.5C 331.5,299.167 331.5,297.833 331.5,296.5C 333.5,296.167 335.5,295.833 337.5,295.5C 337.66,293.801 337.494,292.134 337,290.5C 336.882,292.573 335.882,293.907 334,294.5C 332.85,293.576 331.85,293.576 331,294.5C 330.333,293.833 329.667,293.167 329,292.5C 327.951,294.107 326.451,294.773 324.5,294.5C 323.075,293.078 322.075,291.411 321.5,289.5C 323.838,287.96 326.505,287.294 329.5,287.5C 329.231,289.429 329.731,291.095 331,292.5C 331.24,289.638 332.407,287.305 334.5,285.5C 333.754,284.264 333.421,282.93 333.5,281.5C 334.5,281.5 335.5,281.5 336.5,281.5C 336.966,283.201 336.966,284.701 336.5,286C 338.101,286.273 339.601,286.773 341,287.5C 342.178,284.036 343.345,284.369 344.5,288.5 Z"/></g>
<g><path style="opacity:1" fill="#813e04" d="M 356.5,291.5 C 358.818,291.818 360.152,293.152 360.5,295.5C 358.432,298.242 357.098,301.242 356.5,304.5C 356.5,300.167 356.5,295.833 356.5,291.5 Z"/></g>
<g><path style="opacity:1" fill="#1a5403" d="M 331.5,300.5 C 327.586,300.957 325.252,298.957 324.5,294.5C 326.451,294.773 327.951,294.107 329,292.5C 329.667,293.167 330.333,293.833 331,294.5C 331.85,293.576 332.85,293.576 334,294.5C 335.882,293.907 336.882,292.573 337,290.5C 337.494,292.134 337.66,293.801 337.5,295.5C 335.5,295.833 333.5,296.167 331.5,296.5C 331.5,297.833 331.5,299.167 331.5,300.5 Z"/></g>
<g><path style="opacity:1" fill="#3b1704" d="M 252.5,300.5 C 251.833,299.833 251.167,299.167 250.5,298.5C 250.369,297.761 250.536,297.094 251,296.5C 252.188,297.563 252.688,298.897 252.5,300.5 Z"/></g>
<g><path style="opacity:1" fill="#231001" d="M 391.5,298.5 C 390.833,298.833 390.167,299.167 389.5,299.5C 390.032,296.54 390.699,296.207 391.5,298.5 Z"/></g>
<g><path style="opacity:1" fill="#e2d002" d="M 250.5,298.5 C 251.167,299.167 251.833,299.833 252.5,300.5C 252.5,300.833 252.5,301.167 252.5,301.5C 252.528,304.916 253.528,307.916 255.5,310.5C 259.312,311.324 263.312,311.824 267.5,312C 266.619,312.708 265.953,313.542 265.5,314.5C 263.251,315.08 261.585,316.413 260.5,318.5C 258.448,319.053 258.115,320.053 259.5,321.5C 260.632,324.551 261.632,327.551 262.5,330.5C 262.5,331.833 261.833,332.5 260.5,332.5C 259.738,330.738 258.404,329.738 256.5,329.5C 255.738,327.738 254.404,326.738 252.5,326.5C 250.872,325.147 249.538,325.481 248.5,327.5C 246.973,327.427 245.973,328.094 245.5,329.5C 243.596,329.738 242.262,330.738 241.5,332.5C 240.167,332.5 239.5,331.833 239.5,330.5C 240.183,327.484 241.183,324.484 242.5,321.5C 243.885,320.053 243.552,319.053 241.5,318.5C 240.738,316.738 239.404,315.738 237.5,315.5C 236.71,314.206 235.71,313.039 234.5,312C 238.688,311.824 242.688,311.324 246.5,310.5C 247.624,306.33 248.958,302.33 250.5,298.5 Z"/></g>
<g><path style="opacity:1" fill="#e8d600" d="M 391.5,298.5 C 392.5,302.5 393.5,306.5 394.5,310.5C 398.647,311.325 402.981,311.825 407.5,312C 406.944,312.383 406.611,312.883 406.5,313.5C 404.251,314.08 402.585,315.413 401.5,317.5C 400.504,317.414 399.671,317.748 399,318.5C 398.235,320.066 398.402,321.399 399.5,322.5C 399.595,324.786 400.262,326.786 401.5,328.5C 401.719,329.675 401.386,330.675 400.5,331.5C 399.583,330.873 398.583,330.539 397.5,330.5C 396.738,328.738 395.404,327.738 393.5,327.5C 392.462,325.481 391.128,325.147 389.5,326.5C 387.596,326.738 386.262,327.738 385.5,329.5C 383.596,329.738 382.262,330.738 381.5,332.5C 380.167,332.5 379.5,331.833 379.5,330.5C 379.5,330.167 379.5,329.833 379.5,329.5C 381.655,327.383 382.655,324.716 382.5,321.5C 383.885,320.053 383.552,319.053 381.5,318.5C 380.738,316.738 379.404,315.738 377.5,315.5C 376.738,313.738 375.404,312.738 373.5,312.5C 377.634,311.515 381.968,311.182 386.5,311.5C 386.5,310.5 386.5,309.5 386.5,308.5C 387.368,305.551 388.368,302.551 389.5,299.5C 390.167,299.167 390.833,298.833 391.5,298.5 Z"/></g>
<g><path style="opacity:1" fill="#6f570a" d="M 252.5,301.5 C 254.072,304.215 255.072,307.215 255.5,310.5C 253.528,307.916 252.528,304.916 252.5,301.5 Z"/></g>
<g><path style="opacity:1" fill="#108c00" d="M -0.5,306.5 C 69.8333,306.5 140.167,306.5 210.5,306.5C 220.701,323.037 233.701,337.037 249.5,348.5C 249.5,392.167 249.5,435.833 249.5,479.5C 166.167,479.5 82.8333,479.5 -0.5,479.5C -0.5,421.833 -0.5,364.167 -0.5,306.5 Z"/></g>
<g><path style="opacity:1" fill="#239000" d="M 250.5,306.5 C 251.864,308.22 252.864,310.22 253.5,312.5C 255.766,313.314 258.1,313.814 260.5,314C 258.154,315.013 256.487,316.679 255.5,319C 256.451,321.158 256.951,323.325 257,325.5C 254.99,324.152 252.99,322.818 251,321.5C 249.01,322.818 247.01,324.152 245,325.5C 245.049,323.325 245.549,321.158 246.5,319C 245.132,317.127 243.466,315.46 241.5,314C 243.81,313.503 246.143,313.337 248.5,313.5C 248.878,311.079 249.545,308.746 250.5,306.5 Z"/></g>
<g><path style="opacity:1" fill="#108c00" d="M 432.5,306.5 C 501.5,306.5 570.5,306.5 639.5,306.5C 639.5,364.167 639.5,421.833 639.5,479.5C 554.5,479.5 469.5,479.5 384.5,479.5C 384.5,437.5 384.5,395.5 384.5,353.5C 404.452,341.882 420.452,326.215 432.5,306.5 Z"/></g>
<g><path style="opacity:1" fill="#279100" d="M 390.5,306.5 C 391.868,308.418 392.868,310.585 393.5,313C 395.833,313.333 398.167,313.667 400.5,314C 395.145,316.234 394.145,319.734 397.5,324.5C 397.167,324.833 396.833,325.167 396.5,325.5C 394.772,323.774 392.772,322.441 390.5,321.5C 384.364,327.469 383.03,326.469 386.5,318.5C 384.874,317.01 383.208,315.51 381.5,314C 383.81,313.503 386.143,313.337 388.5,313.5C 388.767,311.035 389.434,308.701 390.5,306.5 Z"/></g>
<g><path style="opacity:1" fill="#4c3e07" d="M 246.5,310.5 C 242.688,311.324 238.688,311.824 234.5,312C 235.71,313.039 236.71,314.206 237.5,315.5C 235.068,314.25 232.734,312.75 230.5,311C 235.823,310.501 241.156,310.334 246.5,310.5 Z"/></g>
<g><path style="opacity:1" fill="#5e4e08" d="M 255.5,310.5 C 260.511,310.334 265.511,310.501 270.5,311C 269.211,312.802 267.544,313.969 265.5,314.5C 265.953,313.542 266.619,312.708 267.5,312C 263.312,311.824 259.312,311.324 255.5,310.5 Z"/></g>
<g><path style="opacity:1" fill="#514305" d="M 386.5,308.5 C 386.5,309.5 386.5,310.5 386.5,311.5C 381.968,311.182 377.634,311.515 373.5,312.5C 372.244,312.539 371.244,312.039 370.5,311C 376.122,311.043 381.456,310.209 386.5,308.5 Z"/></g>
<g><path style="opacity:1" fill="#695a08" d="M 394.5,310.5 C 399.844,310.334 405.177,310.501 410.5,311C 409.529,312.481 408.196,313.315 406.5,313.5C 406.611,312.883 406.944,312.383 407.5,312C 402.981,311.825 398.647,311.325 394.5,310.5 Z"/></g>
<g><path style="opacity:1" fill="#392a06" d="M 373.5,312.5 C 375.404,312.738 376.738,313.738 377.5,315.5C 375.596,315.262 374.262,314.262 373.5,312.5 Z"/></g>
<g><path style="opacity:1" fill="#371b06" d="M 406.5,313.5 C 405.415,315.587 403.749,316.92 401.5,317.5C 402.585,315.413 404.251,314.08 406.5,313.5 Z"/></g>
<g><path style="opacity:1" fill="#421c06" d="M 265.5,314.5 C 264.415,316.587 262.749,317.92 260.5,318.5C 261.585,316.413 263.251,315.08 265.5,314.5 Z"/></g>
<g><path style="opacity:1" fill="#361f04" d="M 237.5,315.5 C 239.404,315.738 240.738,316.738 241.5,318.5C 239.596,318.262 238.262,317.262 237.5,315.5 Z"/></g>
<g><path style="opacity:1" fill="#3d2d07" d="M 377.5,315.5 C 379.404,315.738 380.738,316.738 381.5,318.5C 379.596,318.262 378.262,317.262 377.5,315.5 Z"/></g>
<g><path style="opacity:1" fill="#4d460a" d="M 381.5,318.5 C 383.552,319.053 383.885,320.053 382.5,321.5C 382.443,320.391 382.11,319.391 381.5,318.5 Z"/></g>
<g><path style="opacity:1" fill="#341b04" d="M 401.5,317.5 C 400.058,318.82 399.392,320.486 399.5,322.5C 398.402,321.399 398.235,320.066 399,318.5C 399.671,317.748 400.504,317.414 401.5,317.5 Z"/></g>
<g><path style="opacity:1" fill="#301803" d="M 260.5,318.5 C 259.89,319.391 259.557,320.391 259.5,321.5C 258.115,320.053 258.448,319.053 260.5,318.5 Z"/></g>
<g><path style="opacity:1" fill="#302905" d="M 241.5,318.5 C 243.552,319.053 243.885,320.053 242.5,321.5C 242.443,320.391 242.11,319.391 241.5,318.5 Z"/></g>
<g><path style="opacity:1" fill="#5d490d" d="M 382.5,321.5 C 382.655,324.716 381.655,327.383 379.5,329.5C 380.129,326.603 381.129,323.936 382.5,321.5 Z"/></g>
<g><path style="opacity:1" fill="#331503" d="M 252.5,326.5 C 251.167,326.833 249.833,327.167 248.5,327.5C 249.538,325.481 250.872,325.147 252.5,326.5 Z"/></g>
<g><path style="opacity:1" fill="#2f1903" d="M 389.5,326.5 C 391.128,325.147 392.462,325.481 393.5,327.5C 392.167,327.167 390.833,326.833 389.5,326.5 Z"/></g>
<g><path style="opacity:1" fill="#3b2c07" d="M 252.5,326.5 C 254.404,326.738 255.738,327.738 256.5,329.5C 254.596,329.262 253.262,328.262 252.5,326.5 Z"/></g>
<g><path style="opacity:1" fill="#3b1f07" d="M 389.5,326.5 C 388.738,328.262 387.404,329.262 385.5,329.5C 386.262,327.738 387.596,326.738 389.5,326.5 Z"/></g>
<g><path style="opacity:1" fill="#361b04" d="M 248.5,327.5 C 248.027,328.906 247.027,329.573 245.5,329.5C 245.973,328.094 246.973,327.427 248.5,327.5 Z"/></g>
<g><path style="opacity:1" fill="#362205" d="M 393.5,327.5 C 395.404,327.738 396.738,328.738 397.5,330.5C 395.596,330.262 394.262,329.262 393.5,327.5 Z"/></g>
<g><path style="opacity:1" fill="#4d2e0a" d="M 313.5,332.5 C 311.956,332.297 310.622,331.63 309.5,330.5C 308.702,330.957 308.369,331.624 308.5,332.5C 307.609,330.709 306.609,328.876 305.5,327C 305.833,326.833 306.167,326.667 306.5,326.5C 309.091,328.281 311.425,330.281 313.5,332.5 Z"/></g>
<g><path style="opacity:1" fill="#482e08" d="M 330.5,333.5 C 330.649,332.448 330.483,331.448 330,330.5C 329.329,331.252 328.496,331.586 327.5,331.5C 332.676,325.851 333.676,326.518 330.5,333.5 Z"/></g>
<g><path style="opacity:1" fill="#402007" d="M 245.5,329.5 C 244.738,331.262 243.404,332.262 241.5,332.5C 242.262,330.738 243.596,329.738 245.5,329.5 Z"/></g>
<g><path style="opacity:1" fill="#372205" d="M 256.5,329.5 C 258.404,329.738 259.738,330.738 260.5,332.5C 258.596,332.262 257.262,331.262 256.5,329.5 Z"/></g>
<g><path style="opacity:1" fill="#eeda00" d="M 313.5,332.5 C 313.973,333.906 314.973,334.573 316.5,334.5C 317.877,337.726 319.543,338.059 321.5,335.5C 323.027,335.573 324.027,334.906 324.5,333.5C 326.027,333.573 327.027,332.906 327.5,331.5C 328.496,331.586 329.329,331.252 330,330.5C 330.483,331.448 330.649,332.448 330.5,333.5C 328.32,336.661 327.653,339.994 328.5,343.5C 329.262,345.262 330.596,346.262 332.5,346.5C 333.262,348.262 334.596,349.262 336.5,349.5C 336.611,350.117 336.944,350.617 337.5,351C 332.981,351.175 328.647,351.675 324.5,352.5C 322.733,354.792 321.733,357.458 321.5,360.5C 320.849,361.091 320.182,361.757 319.5,362.5C 318.824,361.398 318.158,360.398 317.5,359.5C 317.59,356.848 316.924,354.515 315.5,352.5C 311.353,351.675 307.019,351.175 302.5,351C 303.056,350.617 303.389,350.117 303.5,349.5C 305.404,349.262 306.738,348.262 307.5,346.5C 312.538,345.117 313.538,342.45 310.5,338.5C 310.405,336.214 309.738,334.214 308.5,332.5C 308.369,331.624 308.702,330.957 309.5,330.5C 310.622,331.63 311.956,332.297 313.5,332.5 Z"/></g>
<g><path style="opacity:1" fill="#57410d" d="M 401.5,328.5 C 403.035,330.939 403.868,333.606 404,336.5C 401.937,334.266 399.771,332.266 397.5,330.5C 398.583,330.539 399.583,330.873 400.5,331.5C 401.386,330.675 401.719,329.675 401.5,328.5 Z"/></g>
<g><path style="opacity:1" fill="#331703" d="M 313.5,332.5 C 315.027,332.427 316.027,333.094 316.5,334.5C 314.973,334.573 313.973,333.906 313.5,332.5 Z"/></g>
<g><path style="opacity:1" fill="#3b2f07" d="M 327.5,331.5 C 327.027,332.906 326.027,333.573 324.5,333.5C 324.973,332.094 325.973,331.427 327.5,331.5 Z"/></g>
<g><path style="opacity:1" fill="#371b03" d="M 379.5,330.5 C 379.5,331.833 380.167,332.5 381.5,332.5C 377.164,336.523 376.497,335.856 379.5,330.5 Z"/></g>
<g><path style="opacity:1" fill="#311304" d="M 239.5,330.5 C 239.5,331.833 240.167,332.5 241.5,332.5C 237.164,336.523 236.497,335.856 239.5,330.5 Z"/></g>
<g><path style="opacity:1" fill="#3c1c07" d="M 262.5,330.5 C 263.914,332.044 264.247,333.711 263.5,335.5C 262.145,334.812 261.145,333.812 260.5,332.5C 261.833,332.5 262.5,331.833 262.5,330.5 Z"/></g>
<g><path style="opacity:1" fill="#362103" d="M 324.5,333.5 C 324.027,334.906 323.027,335.573 321.5,335.5C 321.973,334.094 322.973,333.427 324.5,333.5 Z"/></g>
<g><path style="opacity:1" fill="#3b1a04" d="M 316.5,334.5 C 318.117,335.038 319.784,335.371 321.5,335.5C 319.543,338.059 317.877,337.726 316.5,334.5 Z"/></g>
<g><path style="opacity:1" fill="#2b9300" d="M 325.5,336.5 C 326.043,336.56 326.376,336.893 326.5,337.5C 325.04,340.029 324.54,342.696 325,345.5C 330.91,348.942 330.077,350.442 322.5,350C 321.137,351.945 320.303,354.112 320,356.5C 318.868,354.661 318.035,352.661 317.5,350.5C 314.893,349.682 312.226,349.182 309.5,349C 311.976,347.691 313.976,345.858 315.5,343.5C 313.844,341.588 313.511,339.588 314.5,337.5C 318.554,341.571 322.221,341.238 325.5,336.5 Z"/></g>
<g><path style="opacity:1" fill="#4f3309" d="M 310.5,338.5 C 313.538,342.45 312.538,345.117 307.5,346.5C 309.984,344.455 310.984,341.788 310.5,338.5 Z"/></g>
<g><path style="opacity:1" fill="#3b1c05" d="M 328.5,343.5 C 330.404,343.738 331.738,344.738 332.5,346.5C 330.596,346.262 329.262,345.262 328.5,343.5 Z"/></g>
<g><path style="opacity:1" fill="#342a06" d="M 307.5,346.5 C 306.738,348.262 305.404,349.262 303.5,349.5C 304.262,347.738 305.596,346.738 307.5,346.5 Z"/></g>
<g><path style="opacity:1" fill="#fed500" d="M 249.5,348.5 C 256.622,352.563 263.955,356.396 271.5,360C 278.844,362.826 286.177,365.326 293.5,367.5C 293.5,404.833 293.5,442.167 293.5,479.5C 278.833,479.5 264.167,479.5 249.5,479.5C 249.5,435.833 249.5,392.167 249.5,348.5 Z"/></g>
<g><path style="opacity:1" fill="#361503" d="M 303.5,349.5 C 303.389,350.117 303.056,350.617 302.5,351C 307.019,351.175 311.353,351.675 315.5,352.5C 310.156,352.666 304.823,352.499 299.5,352C 300.471,350.519 301.804,349.685 303.5,349.5 Z"/></g>
<g><path style="opacity:1" fill="#581106" d="M 336.5,349.5 C 338.196,349.685 339.529,350.519 340.5,352C 335.177,352.499 329.844,352.666 324.5,352.5C 328.647,351.675 332.981,351.175 337.5,351C 336.944,350.617 336.611,350.117 336.5,349.5 Z"/></g>
<g><path style="opacity:1" fill="#fcfdfc" d="M 384.5,353.5 C 384.5,395.5 384.5,437.5 384.5,479.5C 369.167,479.5 353.833,479.5 338.5,479.5C 338.5,442.5 338.5,405.5 338.5,368.5C 354.795,366.264 370.128,361.264 384.5,353.5 Z"/></g>
<g><path style="opacity:1" fill="#663307" d="M 315.5,352.5 C 316.924,354.515 317.59,356.848 317.5,359.5C 316.076,357.485 315.41,355.152 315.5,352.5 Z"/></g>
<g><path style="opacity:1" fill="#66400a" d="M 317.5,359.5 C 318.158,360.398 318.824,361.398 319.5,362.5C 320.182,361.757 320.849,361.091 321.5,360.5C 320.042,368.127 318.709,367.794 317.5,359.5 Z"/></g>
<g><path style="opacity:1" fill="#000000" d="M 293.5,367.5 C 308.472,369.603 323.472,369.936 338.5,368.5C 338.5,405.5 338.5,442.5 338.5,479.5C 323.5,479.5 308.5,479.5 293.5,479.5C 293.5,442.167 293.5,404.833 293.5,367.5 Z"/></g>
</svg>
