<?xml version="1.0" encoding="UTF-8"?>
<!DOCTYPE svg PUBLIC "-//W3C//DTD SVG 1.1//EN" "http://www.w3.org/Graphics/SVG/1.1/DTD/svg11.dtd">
<svg xmlns="http://www.w3.org/2000/svg" version="1.1" width="640px" height="480px" style="shape-rendering:geometricPrecision; text-rendering:geometricPrecision; image-rendering:optimizeQuality; fill-rule:evenodd; clip-rule:evenodd" xmlns:xlink="http://www.w3.org/1999/xlink">
<g><path style="opacity:1" fill="#017ffe" d="M -0.5,-0.5 C 199.167,-0.5 398.833,-0.5 598.5,-0.5C 399.035,119.737 199.368,239.737 -0.5,359.5C -0.5,239.5 -0.5,119.5 -0.5,-0.5 Z"/></g>
<g><path style="opacity:1" fill="#f5d41b" d="M 598.5,-0.5 C 611.833,-0.5 625.167,-0.5 638.5,-0.5C 425.702,127.737 212.702,255.737 -0.5,383.5C -0.5,375.5 -0.5,367.5 -0.5,359.5C 199.368,239.737 399.035,119.737 598.5,-0.5 Z"/></g>
<g><path style="opacity:1" fill="#ce1120" d="M 638.5,-0.5 C 638.833,-0.5 639.167,-0.5 639.5,-0.5C 639.5,31.5 639.5,63.5 639.5,95.5C 426.298,223.263 213.298,351.263 0.5,479.5C 0.166667,479.5 -0.166667,479.5 -0.5,479.5C -0.5,447.5 -0.5,415.5 -0.5,383.5C 212.702,255.737 425.702,127.737 638.5,-0.5 Z"/></g>
<g><path style="opacity:1" fill="#f4d51d" d="M 115.5,28.5 C 116.117,28.6107 116.617,28.944 117,29.5C 123.816,51.4346 130.316,73.4346 136.5,95.5C 158.836,95.3334 181.169,95.5 203.5,96C 188.451,108.05 173.117,119.717 157.5,131C 154.868,133.127 152.534,135.46 150.5,138C 156.866,159.597 163.532,181.097 170.5,202.5C 170.167,202.833 169.833,203.167 169.5,203.5C 151.917,189.796 134.084,176.463 116,163.5C 98.0608,176.435 80.3941,189.768 63,203.5C 68.5584,181.315 75.0584,159.315 82.5,137.5C 64.9516,123.123 46.9516,109.29 28.5,96C 50.8408,95.8331 73.1741,95.3331 95.5,94.5C 102.48,72.5786 109.146,50.5786 115.5,28.5 Z"/></g>
<g><path style="opacity:1" fill="#f5d41c" d="M 639.5,95.5 C 639.5,103.5 639.5,111.5 639.5,119.5C 439.632,239.263 239.965,359.263 40.5,479.5C 27.1667,479.5 13.8333,479.5 0.5,479.5C 213.298,351.263 426.298,223.263 639.5,95.5 Z"/></g>
<g><path style="opacity:1" fill="#007ffe" d="M 639.5,119.5 C 639.5,239.5 639.5,359.5 639.5,479.5C 439.833,479.5 240.167,479.5 40.5,479.5C 239.965,359.263 439.632,239.263 639.5,119.5 Z"/></g>
</svg>
