<?xml version="1.0" encoding="UTF-8"?>
<!DOCTYPE svg PUBLIC "-//W3C//DTD SVG 1.1//EN" "http://www.w3.org/Graphics/SVG/1.1/DTD/svg11.dtd">
<svg xmlns="http://www.w3.org/2000/svg" version="1.1" width="640px" height="480px" style="shape-rendering:geometricPrecision; text-rendering:geometricPrecision; image-rendering:optimizeQuality; fill-rule:evenodd; clip-rule:evenodd" xmlns:xlink="http://www.w3.org/1999/xlink">
<g><path style="opacity:1" fill="#fee700" d="M -0.5,-0.5 C 212.833,-0.5 426.167,-0.5 639.5,-0.5C 639.5,79.5 639.5,159.5 639.5,239.5C 580.5,239.5 521.5,239.5 462.5,239.5C 461.681,231.738 460.347,224.071 458.5,216.5C 458.5,212.167 458.5,207.833 458.5,203.5C 458.255,194.163 457.922,184.829 457.5,175.5C 458.43,171.6 458.763,167.6 458.5,163.5C 458.833,163.5 459.167,163.5 459.5,163.5C 465.149,162.017 467.983,158.35 468,152.5C 462.939,154.27 461.439,152.603 463.5,147.5C 465.608,146.056 467.941,145.39 470.5,145.5C 470.833,142.833 471.167,140.167 471.5,137.5C 468.5,137.5 465.5,137.5 462.5,137.5C 462.662,139.527 462.495,141.527 462,143.5C 460.624,144.705 459.458,146.038 458.5,147.5C 456.265,147.205 454.265,147.539 452.5,148.5C 450.271,150.099 449.938,152.099 451.5,154.5C 450.005,154.989 448.671,155.655 447.5,156.5C 444.145,158.185 443.811,160.185 446.5,162.5C 443.604,166.905 440.104,170.905 436,174.5C 435.768,173.263 435.268,172.263 434.5,171.5C 434.5,171.167 434.5,170.833 434.5,170.5C 433.626,167.211 432.959,163.877 432.5,160.5C 432.5,147.833 432.5,135.167 432.5,122.5C 436.75,121.728 441.083,121.228 445.5,121C 443.833,119.833 442.167,118.667 440.5,117.5C 443.786,116.96 446.786,115.794 449.5,114C 451.587,110.492 453.92,107.158 456.5,104C 452.124,104.284 447.791,105.117 443.5,106.5C 441.862,109.304 440.029,111.971 438,114.5C 437.667,112.167 437.333,109.833 437,107.5C 435.224,110.597 434.057,113.93 433.5,117.5C 432.833,115.167 432.167,112.833 431.5,110.5C 430.031,106.932 427.864,106.598 425,109.5C 425.897,111.904 427.063,114.237 428.5,116.5C 428.167,117.167 427.833,117.833 427.5,118.5C 425.801,118.34 424.134,118.506 422.5,119C 421.209,120.292 421.209,121.458 422.5,122.5C 417.371,128.483 412.038,134.15 406.5,139.5C 403.871,134.128 401.704,128.461 400,122.5C 400.62,128.817 402.12,134.983 404.5,141C 404.389,142.722 403.889,142.888 403,141.5C 401.277,136.387 399.277,131.387 397,126.5C 398.057,132.358 399.557,138.191 401.5,144C 401.37,145.059 400.87,145.892 400,146.5C 394.843,135.516 389.176,124.85 383,114.5C 384.206,119.607 386.039,124.607 388.5,129.5C 388.333,129.833 388.167,130.167 388,130.5C 386.667,128.5 385.333,126.5 384,124.5C 383.346,123.304 382.846,123.304 382.5,124.5C 386.977,133.287 391.311,142.121 395.5,151C 394.747,152.487 393.914,152.654 393,151.5C 389.582,145.663 385.916,139.996 382,134.5C 382.203,136.937 383.037,139.271 384.5,141.5C 384.333,141.833 384.167,142.167 384,142.5C 383,141.167 382,139.833 381,138.5C 383.512,144.529 386.345,150.529 389.5,156.5C 388.833,157.5 388.167,158.5 387.5,159.5C 384.864,156.69 382.364,153.69 380,150.5C 381.281,153.916 382.781,157.416 384.5,161C 384.167,161.5 383.833,162 383.5,162.5C 381.851,160.35 380.018,158.35 378,156.5C 379.118,159.422 380.285,162.422 381.5,165.5C 379.284,164.797 377.451,163.464 376,161.5C 375.333,162.167 375.333,162.833 376,163.5C 377.353,164.685 378.52,166.019 379.5,167.5C 377.812,169.854 375.812,171.854 373.5,173.5C 367.556,161.592 358.89,152.259 347.5,145.5C 343.524,142.508 339.191,140.008 334.5,138C 339.86,135.657 344.86,132.824 349.5,129.5C 345.25,123.335 341.25,117.002 337.5,110.5C 337.709,109.914 338.043,109.414 338.5,109C 349.933,106.142 361.266,102.975 372.5,99.5C 380.909,100.463 389.242,101.796 397.5,103.5C 398.48,100.914 398.813,98.2469 398.5,95.5C 421.986,95.501 445.32,93.6677 468.5,90C 433.715,74.4054 397.549,63.2387 360,56.5C 357.5,56.3333 356.333,57.5 356.5,60C 357.902,65.1032 358.902,70.2699 359.5,75.5C 352.825,75.6663 346.158,75.4996 339.5,75C 332.468,68.214 324.135,65.8807 314.5,68C 310.384,69.2052 306.384,70.7052 302.5,72.5C 298.043,67.5414 293.376,62.708 288.5,58C 286.067,55.8668 283.233,54.7002 280,54.5C 245.49,60.4471 212.99,71.9471 182.5,89C 184.833,89.3333 187.167,89.6667 189.5,90C 187.963,91.1096 187.297,92.6096 187.5,94.5C 195.077,96.245 202.744,97.5784 210.5,98.5C 211.833,98.3333 213.167,98.1667 214.5,98C 216.212,95.3077 218.212,94.9744 220.5,97C 219.5,98.6667 218.5,100.333 217.5,102C 218.167,102.167 218.833,102.333 219.5,102.5C 223.582,100.249 227.915,98.5826 232.5,97.5C 252.143,101.196 271.81,104.696 291.5,108C 298.232,110.414 301.398,115.247 301,122.5C 302.632,124.933 304.132,127.433 305.5,130C 303.512,133.321 300.846,135.988 297.5,138C 298.416,138.278 299.082,138.778 299.5,139.5C 294.914,140.46 290.914,142.46 287.5,145.5C 285.565,146.15 283.565,146.483 281.5,146.5C 285.967,141.568 290.967,137.068 296.5,133C 294.925,133.379 293.425,133.212 292,132.5C 288.306,135.029 285.14,138.029 282.5,141.5C 280.302,143.098 277.969,144.431 275.5,145.5C 275.5,144.5 275.5,143.5 275.5,142.5C 274.5,142.5 273.5,142.5 272.5,142.5C 272.5,143.5 272.5,144.5 272.5,145.5C 272.918,146.222 273.584,146.722 274.5,147C 273.944,147.383 273.611,147.883 273.5,148.5C 266.464,152.346 259.797,156.679 253.5,161.5C 252.5,159.833 251.167,158.5 249.5,157.5C 253.492,155.17 257.492,152.837 261.5,150.5C 261.821,152.048 262.821,152.715 264.5,152.5C 264.715,150.821 264.048,149.821 262.5,149.5C 263.429,148.685 264.429,147.852 265.5,147C 265.167,146.833 264.833,146.667 264.5,146.5C 258.569,149.121 252.902,152.121 247.5,155.5C 247.5,154.833 247.5,154.167 247.5,153.5C 246.761,153.631 246.094,153.464 245.5,153C 235.942,142.705 226.275,132.538 216.5,122.5C 217.791,121.458 217.791,120.292 216.5,119C 214.866,118.506 213.199,118.34 211.5,118.5C 210.167,116.5 210.167,114.5 211.5,112.5C 214.96,111.74 215.293,110.24 212.5,108C 211.167,107.333 209.833,107.333 208.5,108C 207.577,110.041 207.244,112.208 207.5,114.5C 206.646,115.632 206.646,116.965 207.5,118.5C 206.503,118.53 205.836,118.03 205.5,117C 204.862,113.598 203.695,110.431 202,107.5C 201.667,109.833 201.333,112.167 201,114.5C 197.681,106.757 191.848,103.59 183.5,105C 185.625,108.082 187.625,111.249 189.5,114.5C 192.436,115.115 195.103,116.282 197.5,118C 196.167,119 194.833,120 193.5,121C 197.917,121.228 202.25,121.728 206.5,122.5C 206.5,135.167 206.5,147.833 206.5,160.5C 205.501,165.162 204.501,169.829 203.5,174.5C 199.102,171.105 195.436,167.105 192.5,162.5C 193.139,161.903 193.472,161.07 193.5,160C 193.613,158.301 192.947,157.134 191.5,156.5C 189.924,155.857 188.59,154.857 187.5,153.5C 188.833,152.167 188.833,150.833 187.5,149.5C 185.904,146.414 183.571,145.747 180.5,147.5C 179.542,146.038 178.376,144.705 177,143.5C 176.278,138.032 173.111,136.032 167.5,137.5C 167.963,140.482 168.296,143.482 168.5,146.5C 173.993,145.178 176.493,147.178 176,152.5C 174.333,153.833 172.667,153.833 171,152.5C 171.017,158.35 173.851,162.017 179.5,163.5C 179.833,163.5 180.167,163.5 180.5,163.5C 181.07,171.154 181.404,178.821 181.5,186.5C 180.517,190.298 180.183,194.298 180.5,198.5C 180.5,204.167 180.5,209.833 180.5,215.5C 178.78,223.435 177.446,231.435 176.5,239.5C 117.5,239.5 58.5,239.5 -0.5,239.5C -0.5,159.5 -0.5,79.5 -0.5,-0.5 Z"/></g>
<g><path style="opacity:1" fill="#933e00" d="M 347.5,145.5 C 346.504,145.414 345.671,145.748 345,146.5C 344.626,145.584 344.126,144.75 343.5,144C 339.952,142.059 336.286,140.393 332.5,139C 333.535,137.493 333.368,135.993 332,134.5C 331.631,137.877 331.631,141.21 332,144.5C 330.658,138.231 327.825,137.231 323.5,141.5C 322.41,140.609 322.41,139.609 323.5,138.5C 321.412,137.511 319.412,137.844 317.5,139.5C 316.304,139.154 316.304,138.654 317.5,138C 315.527,137.505 313.527,137.338 311.5,137.5C 313.298,145.924 312.298,146.424 308.5,139C 307.5,138.333 306.5,138.333 305.5,139C 304.646,140.022 303.646,140.855 302.5,141.5C 301.304,141.154 301.304,140.654 302.5,140C 301.552,139.517 300.552,139.351 299.5,139.5C 299.082,138.778 298.416,138.278 297.5,138C 300.846,135.988 303.512,133.321 305.5,130C 304.132,127.433 302.632,124.933 301,122.5C 301.398,115.247 298.232,110.414 291.5,108C 271.81,104.696 252.143,101.196 232.5,97.5C 227.915,98.5826 223.582,100.249 219.5,102.5C 218.833,102.333 218.167,102.167 217.5,102C 218.5,100.333 219.5,98.6667 220.5,97C 218.212,94.9744 216.212,95.3077 214.5,98C 213.167,98.1667 211.833,98.3333 210.5,98.5C 202.744,97.5784 195.077,96.245 187.5,94.5C 187.297,92.6096 187.963,91.1096 189.5,90C 187.167,89.6667 184.833,89.3333 182.5,89C 212.99,71.9471 245.49,60.4471 280,54.5C 283.233,54.7002 286.067,55.8668 288.5,58C 293.376,62.708 298.043,67.5414 302.5,72.5C 306.384,70.7052 310.384,69.2052 314.5,68C 324.135,65.8807 332.468,68.214 339.5,75C 346.158,75.4996 352.825,75.6663 359.5,75.5C 358.902,70.2699 357.902,65.1032 356.5,60C 356.333,57.5 357.5,56.3333 360,56.5C 397.549,63.2387 433.715,74.4054 468.5,90C 445.32,93.6677 421.986,95.501 398.5,95.5C 398.813,98.2469 398.48,100.914 397.5,103.5C 389.242,101.796 380.909,100.463 372.5,99.5C 361.266,102.975 349.933,106.142 338.5,109C 338.043,109.414 337.709,109.914 337.5,110.5C 341.25,117.002 345.25,123.335 349.5,129.5C 344.86,132.824 339.86,135.657 334.5,138C 339.191,140.008 343.524,142.508 347.5,145.5 Z"/></g>
<g><path style="opacity:1" fill="#7f7c7a" d="M 319.5,69.5 C 330.101,69.3796 333.934,74.3796 331,84.5C 325.352,89.9329 319.852,89.7662 314.5,84C 317.687,83.9994 320.52,83.1661 323,81.5C 323.687,79.4325 323.52,77.4325 322.5,75.5C 319.893,74.6816 317.226,74.1816 314.5,74C 316.063,72.264 317.73,70.764 319.5,69.5 Z"/></g>
<g><path style="opacity:1" fill="#c6c3b5" d="M 207.5,118.5 C 207.768,120.099 207.434,121.432 206.5,122.5C 202.25,121.728 197.917,121.228 193.5,121C 194.833,120 196.167,119 197.5,118C 195.103,116.282 192.436,115.115 189.5,114.5C 187.625,111.249 185.625,108.082 183.5,105C 191.848,103.59 197.681,106.757 201,114.5C 201.333,112.167 201.667,109.833 202,107.5C 203.695,110.431 204.862,113.598 205.5,117C 205.836,118.03 206.503,118.53 207.5,118.5 Z"/></g>
<g><path style="opacity:1" fill="#c5c2b3" d="M 432.5,122.5 C 431.903,122.265 431.57,121.765 431.5,121C 431.978,119.697 432.645,118.531 433.5,117.5C 434.057,113.93 435.224,110.597 437,107.5C 437.333,109.833 437.667,112.167 438,114.5C 440.029,111.971 441.862,109.304 443.5,106.5C 447.791,105.117 452.124,104.284 456.5,104C 453.92,107.158 451.587,110.492 449.5,114C 446.786,115.794 443.786,116.96 440.5,117.5C 442.167,118.667 443.833,119.833 445.5,121C 441.083,121.228 436.75,121.728 432.5,122.5 Z"/></g>
<g><path style="opacity:1" fill="#ae42ff" d="M 431.5,110.5 C 430.771,115.13 430.437,119.797 430.5,124.5C 430.5,124.833 430.5,125.167 430.5,125.5C 429.833,122.5 429.167,119.5 428.5,116.5C 427.063,114.237 425.897,111.904 425,109.5C 427.864,106.598 430.031,106.932 431.5,110.5 Z"/></g>
<g><path style="opacity:1" fill="#bc2f00" d="M 211.5,112.5 C 209.865,116.573 208.865,120.906 208.5,125.5C 208.5,125.167 208.5,124.833 208.5,124.5C 208.813,120.958 208.479,117.625 207.5,114.5C 207.244,112.208 207.577,110.041 208.5,108C 209.833,107.333 211.167,107.333 212.5,108C 215.293,110.24 214.96,111.74 211.5,112.5 Z"/></g>
<g><path style="opacity:1" fill="#fbe200" d="M 318.5,114.5 C 321.452,115.359 323.285,117.359 324,120.5C 327.753,125.892 327.253,130.725 322.5,135C 318.778,135.238 315.111,135.738 311.5,136.5C 310.353,134.235 310.186,131.902 311,129.5C 313.513,124.473 316.013,119.473 318.5,114.5 Z"/></g>
<g><path style="opacity:1" fill="#571d14" d="M 211.5,112.5 C 210.167,114.5 210.167,116.5 211.5,118.5C 211.167,119.167 210.833,119.833 210.5,120.5C 210.825,128.352 210.492,136.018 209.5,143.5C 209.498,137.477 209.165,131.477 208.5,125.5C 208.865,120.906 209.865,116.573 211.5,112.5 Z"/></g>
<g><path style="opacity:1" fill="#2c115a" d="M 211.5,118.5 C 213.199,118.34 214.866,118.506 216.5,119C 217.791,120.292 217.791,121.458 216.5,122.5C 215.609,123.11 214.609,123.443 213.5,123.5C 212.517,127.298 212.183,131.298 212.5,135.5C 212.81,138.713 212.477,141.713 211.5,144.5C 211.186,136.913 211.519,129.413 212.5,122C 211.956,121.283 211.289,120.783 210.5,120.5C 210.833,119.833 211.167,119.167 211.5,118.5 Z"/></g>
<g><path style="opacity:1" fill="#f7d800" d="M 213.5,123.5 C 217.463,127.964 221.63,132.298 226,136.5C 226.498,139.817 226.665,143.15 226.5,146.5C 224.114,145.627 222.114,144.127 220.5,142C 219.668,141.312 219.002,141.479 218.5,142.5C 220.673,147.52 223.339,152.187 226.5,156.5C 226.5,157.833 226.5,159.167 226.5,160.5C 223.426,158.698 220.092,157.698 216.5,157.5C 215.579,149.965 214.246,142.631 212.5,135.5C 212.183,131.298 212.517,127.298 213.5,123.5 Z"/></g>
<g><path style="opacity:1" fill="#f7d800" d="M 426.5,125.5 C 426.5,129.167 426.5,132.833 426.5,136.5C 424.394,146.361 422.394,156.361 420.5,166.5C 418.361,158.622 416.195,150.622 414,142.5C 414,146.5 414,150.5 414,154.5C 413.495,152.482 412.995,150.482 412.5,148.5C 412.334,144.486 412.501,140.486 413,136.5C 417.333,132.167 421.667,127.833 426,123.5C 426.464,124.094 426.631,124.761 426.5,125.5 Z"/></g>
<g><path style="opacity:1" fill="#f5d600" d="M 208.5,124.5 C 208.5,124.833 208.5,125.167 208.5,125.5C 209.165,131.477 209.498,137.477 209.5,143.5C 208.841,146.455 208.508,149.455 208.5,152.5C 207.167,143.167 207.167,133.833 208.5,124.5 Z"/></g>
<g><path style="opacity:1" fill="#f4d500" d="M 430.5,124.5 C 431.833,133.833 431.833,143.167 430.5,152.5C 430.492,149.455 430.159,146.455 429.5,143.5C 429.593,137.484 429.926,131.484 430.5,125.5C 430.5,125.167 430.5,124.833 430.5,124.5 Z"/></g>
<g><path style="opacity:1" fill="#5b1617" d="M 428.5,116.5 C 429.167,119.5 429.833,122.5 430.5,125.5C 429.926,131.484 429.593,137.484 429.5,143.5C 428.806,135.266 428.139,126.933 427.5,118.5C 427.833,117.833 428.167,117.167 428.5,116.5 Z"/></g>
<g><path style="opacity:1" fill="#181615" d="M 426.5,125.5 C 426.631,124.761 426.464,124.094 426,123.5C 421.667,127.833 417.333,132.167 413,136.5C 412.501,140.486 412.334,144.486 412.5,148.5C 411.833,147.833 411.167,147.167 410.5,146.5C 410.765,144.762 410.765,142.429 410.5,139.5C 408.679,140.728 407.679,142.394 407.5,144.5C 406.549,143.081 406.216,141.415 406.5,139.5C 412.038,134.15 417.371,128.483 422.5,122.5C 422.96,121.001 424.293,120.001 426.5,119.5C 427.291,121.691 427.291,123.691 426.5,125.5 Z"/></g>
<g><path style="opacity:1" fill="#1b1312" d="M 216.5,122.5 C 226.275,132.538 235.942,142.705 245.5,153C 246.094,153.464 246.761,153.631 247.5,153.5C 247.5,154.167 247.5,154.833 247.5,155.5C 246.833,156.5 246.167,157.5 245.5,158.5C 244.923,159.773 244.257,159.773 243.5,158.5C 244.326,157.549 244.492,156.549 244,155.5C 241.963,153.294 239.797,151.294 237.5,149.5C 234.538,146.036 231.371,142.703 228,139.5C 227.502,142.482 227.335,145.482 227.5,148.5C 226.662,148.158 226.328,147.492 226.5,146.5C 226.665,143.15 226.498,139.817 226,136.5C 221.63,132.298 217.463,127.964 213.5,123.5C 214.609,123.443 215.609,123.11 216.5,122.5 Z"/></g>
<g><path style="opacity:1" fill="#175004" d="M 406.5,139.5 C 406.216,141.415 406.549,143.081 407.5,144.5C 408.756,147.767 409.923,151.101 411,154.5C 411.43,151.808 411.263,149.141 410.5,146.5C 411.167,147.167 411.833,147.833 412.5,148.5C 412.995,150.482 413.495,152.482 414,154.5C 414,150.5 414,146.5 414,142.5C 416.195,150.622 418.361,158.622 420.5,166.5C 420.216,168.415 420.549,170.081 421.5,171.5C 422.167,176.833 422.833,182.167 423.5,187.5C 418.146,194.854 411.812,201.188 404.5,206.5C 403.193,203.22 401.527,200.22 399.5,197.5C 394.277,187.951 388.277,178.951 381.5,170.5C 381.369,169.761 381.536,169.094 382,168.5C 389.592,176.664 390.259,175.998 384,166.5C 383.329,165.748 382.496,165.414 381.5,165.5C 380.285,162.422 379.118,159.422 378,156.5C 380.018,158.35 381.851,160.35 383.5,162.5C 383.833,162 384.167,161.5 384.5,161C 382.781,157.416 381.281,153.916 380,150.5C 382.364,153.69 384.864,156.69 387.5,159.5C 387.66,161.153 388.326,162.486 389.5,163.5C 393.49,168.804 396.99,174.47 400,180.5C 400.325,178.447 399.991,176.447 399,174.5C 396.548,169.932 394.382,165.265 392.5,160.5C 391.974,158.77 390.974,157.436 389.5,156.5C 386.345,150.529 383.512,144.529 381,138.5C 382,139.833 383,141.167 384,142.5C 384.167,142.167 384.333,141.833 384.5,141.5C 383.037,139.271 382.203,136.937 382,134.5C 385.916,139.996 389.582,145.663 393,151.5C 393.914,152.654 394.747,152.487 395.5,151C 391.311,142.121 386.977,133.287 382.5,124.5C 382.846,123.304 383.346,123.304 384,124.5C 385.333,126.5 386.667,128.5 388,130.5C 388.167,130.167 388.333,129.833 388.5,129.5C 386.039,124.607 384.206,119.607 383,114.5C 389.176,124.85 394.843,135.516 400,146.5C 400.87,145.892 401.37,145.059 401.5,144C 399.557,138.191 398.057,132.358 397,126.5C 399.277,131.387 401.277,136.387 403,141.5C 403.889,142.888 404.389,142.722 404.5,141C 402.12,134.983 400.62,128.817 400,122.5C 401.704,128.461 403.871,134.128 406.5,139.5 Z"/></g>
<g><path style="opacity:1" fill="#3e7100" d="M 283.5,124.5 C 282.864,129.829 280.698,134.829 277,139.5C 278.034,134.09 280.201,129.09 283.5,124.5 Z"/></g>
<g><path style="opacity:1" fill="#2a6000" d="M 281.5,146.5 C 280.957,146.44 280.624,146.107 280.5,145.5C 281.63,144.378 282.297,143.044 282.5,141.5C 285.14,138.029 288.306,135.029 292,132.5C 293.425,133.212 294.925,133.379 296.5,133C 290.967,137.068 285.967,141.568 281.5,146.5 Z"/></g>
<g><path style="opacity:1" fill="#215b00" d="M 247.5,153.5 C 246.731,143.251 247.898,133.251 251,123.5C 251.429,131.191 251.429,138.857 251,146.5C 254.064,138.281 258.064,130.614 263,123.5C 263.159,126.882 262.659,130.215 261.5,133.5C 261.667,134.167 261.833,134.833 262,135.5C 262.718,134.549 263.551,134.383 264.5,135C 261.543,139.08 258.71,143.247 256,147.5C 253.679,150.314 250.846,152.314 247.5,153.5 Z"/></g>
<g><path style="opacity:1" fill="#c7c6bc" d="M 180.5,147.5 C 179.6,152.772 179.267,158.105 179.5,163.5C 173.851,162.017 171.017,158.35 171,152.5C 172.667,153.833 174.333,153.833 176,152.5C 176.493,147.178 173.993,145.178 168.5,146.5C 168.296,143.482 167.963,140.482 167.5,137.5C 173.111,136.032 176.278,138.032 177,143.5C 178.376,144.705 179.542,146.038 180.5,147.5 Z"/></g>
<g><path style="opacity:1" fill="#c8c6bd" d="M 459.5,163.5 C 459.733,158.105 459.4,152.772 458.5,147.5C 459.458,146.038 460.624,144.705 462,143.5C 462.495,141.527 462.662,139.527 462.5,137.5C 465.5,137.5 468.5,137.5 471.5,137.5C 471.167,140.167 470.833,142.833 470.5,145.5C 467.941,145.39 465.608,146.056 463.5,147.5C 461.439,152.603 462.939,154.27 468,152.5C 467.983,158.35 465.149,162.017 459.5,163.5 Z"/></g>
<g><path style="opacity:1" fill="#735f13" d="M 431.5,110.5 C 432.167,112.833 432.833,115.167 433.5,117.5C 432.645,118.531 431.978,119.697 431.5,121C 431.57,121.765 431.903,122.265 432.5,122.5C 432.5,135.167 432.5,147.833 432.5,160.5C 432.167,160.5 431.833,160.5 431.5,160.5C 431.425,157.794 431.092,155.127 430.5,152.5C 431.833,143.167 431.833,133.833 430.5,124.5C 430.437,119.797 430.771,115.13 431.5,110.5 Z"/></g>
<g><path style="opacity:1" fill="#0305ae" d="M 237.5,149.5 C 237.5,155.167 237.5,160.833 237.5,166.5C 237.167,166.5 236.833,166.5 236.5,166.5C 233.429,164.102 230.095,162.102 226.5,160.5C 226.5,159.167 226.5,157.833 226.5,156.5C 229.501,159.332 232.667,161.998 236,164.5C 235.036,158.242 232.203,152.909 227.5,148.5C 227.335,145.482 227.502,142.482 228,139.5C 231.371,142.703 234.538,146.036 237.5,149.5 Z"/></g>
<g><path style="opacity:1" fill="#ab2f02" d="M 212.5,135.5 C 214.246,142.631 215.579,149.965 216.5,157.5C 216.833,158.833 217.167,160.167 217.5,161.5C 218.167,164.833 218.833,168.167 219.5,171.5C 218.167,171.5 216.833,171.5 215.5,171.5C 214.562,165.056 212.895,159.056 210.5,153.5C 210.508,150.455 210.841,147.455 211.5,144.5C 212.477,141.713 212.81,138.713 212.5,135.5 Z"/></g>
<g><path style="opacity:1" fill="#155407" d="M 226.5,146.5 C 226.328,147.492 226.662,148.158 227.5,148.5C 232.203,152.909 235.036,158.242 236,164.5C 232.667,161.998 229.501,159.332 226.5,156.5C 223.339,152.187 220.673,147.52 218.5,142.5C 219.002,141.479 219.668,141.312 220.5,142C 222.114,144.127 224.114,145.627 226.5,146.5 Z"/></g>
<g><path style="opacity:1" fill="#e23aff" d="M 275.5,145.5 C 274.5,145.5 273.5,145.5 272.5,145.5C 272.5,144.5 272.5,143.5 272.5,142.5C 273.5,142.5 274.5,142.5 275.5,142.5C 275.5,143.5 275.5,144.5 275.5,145.5 Z"/></g>
<g><path style="opacity:1" fill="#0008a4" d="M 410.5,146.5 C 411.263,149.141 411.43,151.808 411,154.5C 409.923,151.101 408.756,147.767 407.5,144.5C 407.679,142.394 408.679,140.728 410.5,139.5C 410.765,142.429 410.765,144.762 410.5,146.5 Z"/></g>
<g><path style="opacity:1" fill="#ac2d02" d="M 426.5,136.5 C 426.746,142.229 427.412,147.896 428.5,153.5C 427.883,153.611 427.383,153.944 427,154.5C 426.088,159.727 424.921,164.893 423.5,170C 423.164,171.03 422.497,171.53 421.5,171.5C 420.549,170.081 420.216,168.415 420.5,166.5C 422.394,156.361 424.394,146.361 426.5,136.5 Z"/></g>
<g><path style="opacity:1" fill="#f4d604" d="M 347.5,145.5 C 358.89,152.259 367.556,161.592 373.5,173.5C 373.427,175.027 374.094,176.027 375.5,176.5C 380.903,188.71 384.903,201.377 387.5,214.5C 388.309,226.482 388.642,238.482 388.5,250.5C 385.567,273.124 377.067,293.458 363,311.5C 358.568,316.44 353.735,320.773 348.5,324.5C 346.795,325.535 345.128,325.535 343.5,324.5C 332.115,330.106 320.115,331.94 307.5,330C 302.459,328.424 297.459,327.091 292.5,326C 304.631,332.189 317.298,333.689 330.5,330.5C 331.416,330.543 332.083,330.876 332.5,331.5C 324.617,333.219 316.617,333.886 308.5,333.5C 305.933,332.525 303.267,331.858 300.5,331.5C 299.07,330.463 297.403,329.796 295.5,329.5C 278.079,320.243 265.246,306.576 257,288.5C 253.97,281.569 251.47,274.569 249.5,267.5C 248.623,262.35 247.623,257.35 246.5,252.5C 245.556,243.553 245.222,234.553 245.5,225.5C 246.451,224.081 246.784,222.415 246.5,220.5C 248.533,204.399 253.199,189.066 260.5,174.5C 262.273,173.686 262.773,172.352 262,170.5C 259.546,168.559 257.713,166.225 256.5,163.5C 262.369,161.899 267.702,159.232 272.5,155.5C 272.833,155.667 273.167,155.833 273.5,156C 271.993,156.837 271.493,158.004 272,159.5C 276.062,155.269 280.229,151.269 284.5,147.5C 286.027,147.573 287.027,146.906 287.5,145.5C 290.914,142.46 294.914,140.46 299.5,139.5C 300.552,139.351 301.552,139.517 302.5,140C 301.304,140.654 301.304,141.154 302.5,141.5C 303.646,140.855 304.646,140.022 305.5,139C 306.5,138.333 307.5,138.333 308.5,139C 312.298,146.424 313.298,145.924 311.5,137.5C 313.527,137.338 315.527,137.505 317.5,138C 316.304,138.654 316.304,139.154 317.5,139.5C 319.412,137.844 321.412,137.511 323.5,138.5C 322.41,139.609 322.41,140.609 323.5,141.5C 327.825,137.231 330.658,138.231 332,144.5C 331.631,141.21 331.631,137.877 332,134.5C 333.368,135.993 333.535,137.493 332.5,139C 336.286,140.393 339.952,142.059 343.5,144C 344.126,144.75 344.626,145.584 345,146.5C 345.671,145.748 346.504,145.414 347.5,145.5 Z"/></g>
<g><path style="opacity:1" fill="#8e8200" d="M 282.5,141.5 C 282.297,143.044 281.63,144.378 280.5,145.5C 280.624,146.107 280.957,146.44 281.5,146.5C 283.565,146.483 285.565,146.15 287.5,145.5C 287.027,146.906 286.027,147.573 284.5,147.5C 281.107,146.896 277.774,147.563 274.5,149.5C 273.893,149.376 273.56,149.043 273.5,148.5C 273.611,147.883 273.944,147.383 274.5,147C 273.584,146.722 272.918,146.222 272.5,145.5C 273.5,145.5 274.5,145.5 275.5,145.5C 277.969,144.431 280.302,143.098 282.5,141.5 Z"/></g>
<g><path style="opacity:1" fill="#9ac5f3" d="M 354.5,172.5 C 350.818,171.739 346.985,171.072 343,170.5C 341.989,171.056 341.156,171.722 340.5,172.5C 340.306,170.088 338.973,169.088 336.5,169.5C 336.5,172.167 336.5,174.833 336.5,177.5C 334.5,177.5 332.5,177.5 330.5,177.5C 329.5,177.5 328.5,177.5 327.5,177.5C 327.5,176.5 327.5,175.5 327.5,174.5C 329.604,174.799 331.604,174.466 333.5,173.5C 332.311,172.571 330.978,172.238 329.5,172.5C 329.806,169.615 329.473,166.948 328.5,164.5C 327.5,162.833 326.167,161.5 324.5,160.5C 324.631,159.624 324.298,158.957 323.5,158.5C 321.261,160.12 319.427,159.787 318,157.5C 317.517,158.448 317.351,159.448 317.5,160.5C 316.833,160.5 316.5,160.833 316.5,161.5C 314.616,161.288 313.283,160.288 312.5,158.5C 312.433,160.424 312.1,162.424 311.5,164.5C 305.922,160.289 305.256,160.955 309.5,166.5C 307.709,167.17 306.042,167.837 304.5,168.5C 301.833,168.5 299.167,168.5 296.5,168.5C 290.131,169.22 283.797,170.22 277.5,171.5C 276.584,171.457 275.917,171.124 275.5,170.5C 295.633,144.578 319.633,140.411 347.5,158C 353.774,164.613 360.274,170.78 367,176.5C 368.167,178.833 369.333,181.167 370.5,183.5C 370.167,183.833 369.833,184.167 369.5,184.5C 365.269,183.026 360.936,182.026 356.5,181.5C 357.008,178.824 357.175,176.157 357,173.5C 356.329,172.748 355.496,172.414 354.5,172.5 Z"/></g>
<g><path style="opacity:1" fill="#270c96" d="M 427.5,118.5 C 428.139,126.933 428.806,135.266 429.5,143.5C 430.159,146.455 430.492,149.455 430.5,152.5C 431.092,155.127 431.425,157.794 431.5,160.5C 431.649,161.552 431.483,162.552 431,163.5C 430.768,162.263 430.268,161.263 429.5,160.5C 428.781,158.236 428.448,155.903 428.5,153.5C 427.412,147.896 426.746,142.229 426.5,136.5C 426.5,132.833 426.5,129.167 426.5,125.5C 427.291,123.691 427.291,121.691 426.5,119.5C 424.293,120.001 422.96,121.001 422.5,122.5C 421.209,121.458 421.209,120.292 422.5,119C 424.134,118.506 425.801,118.34 427.5,118.5 Z"/></g>
<g><path style="opacity:1" fill="#7d4224" d="M 452.5,148.5 C 454.265,147.539 456.265,147.205 458.5,147.5C 459.4,152.772 459.733,158.105 459.5,163.5C 459.167,163.5 458.833,163.5 458.5,163.5C 458.666,159.486 458.499,155.486 458,151.5C 456.867,153.211 455.367,153.711 453.5,153C 452.807,151.316 452.474,149.816 452.5,148.5 Z"/></g>
<g><path style="opacity:1" fill="#794121" d="M 187.5,149.5 C 186.421,153.693 184.254,154.36 181,151.5C 180.501,155.486 180.334,159.486 180.5,163.5C 180.167,163.5 179.833,163.5 179.5,163.5C 179.267,158.105 179.6,152.772 180.5,147.5C 183.571,145.747 185.904,146.414 187.5,149.5 Z"/></g>
<g><path style="opacity:1" fill="#776610" d="M 207.5,114.5 C 208.479,117.625 208.813,120.958 208.5,124.5C 207.167,133.833 207.167,143.167 208.5,152.5C 208.435,155.428 207.768,158.095 206.5,160.5C 206.5,147.833 206.5,135.167 206.5,122.5C 207.434,121.432 207.768,120.099 207.5,118.5C 206.646,116.965 206.646,115.632 207.5,114.5 Z"/></g>
<g><path style="opacity:1" fill="#305e00" d="M 284.5,147.5 C 280.229,151.269 276.062,155.269 272,159.5C 271.493,158.004 271.993,156.837 273.5,156C 273.167,155.833 272.833,155.667 272.5,155.5C 267.702,159.232 262.369,161.899 256.5,163.5C 255.5,163.5 254.5,163.5 253.5,163.5C 253.5,162.833 253.5,162.167 253.5,161.5C 259.797,156.679 266.464,152.346 273.5,148.5C 273.56,149.043 273.893,149.376 274.5,149.5C 277.774,147.563 281.107,146.896 284.5,147.5 Z"/></g>
<g><path style="opacity:1" fill="#246100" d="M 262.5,149.5 C 261.833,149.5 261.5,149.833 261.5,150.5C 257.492,152.837 253.492,155.17 249.5,157.5C 248.391,157.557 247.391,157.89 246.5,158.5C 246.167,158.5 245.833,158.5 245.5,158.5C 246.167,157.5 246.833,156.5 247.5,155.5C 252.902,152.121 258.569,149.121 264.5,146.5C 264.833,146.667 265.167,146.833 265.5,147C 264.429,147.852 263.429,148.685 262.5,149.5 Z"/></g>
<g><path style="opacity:1" fill="#df2b00" d="M 262.5,149.5 C 264.048,149.821 264.715,150.821 264.5,152.5C 262.821,152.715 261.821,152.048 261.5,150.5C 261.5,149.833 261.833,149.5 262.5,149.5 Z"/></g>
<g><path style="opacity:1" fill="#b31102" d="M 187.5,149.5 C 188.833,150.833 188.833,152.167 187.5,153.5C 185.958,154.301 184.292,154.634 182.5,154.5C 183.084,163.507 183.751,172.507 184.5,181.5C 184.5,183.5 184.5,185.5 184.5,187.5C 183.833,188.5 183.167,189.5 182.5,190.5C 182.768,188.901 182.434,187.568 181.5,186.5C 181.404,178.821 181.07,171.154 180.5,163.5C 180.334,159.486 180.501,155.486 181,151.5C 184.254,154.36 186.421,153.693 187.5,149.5 Z"/></g>
<g><path style="opacity:1" fill="#be1301" d="M 452.5,148.5 C 452.474,149.816 452.807,151.316 453.5,153C 455.367,153.711 456.867,153.211 458,151.5C 458.499,155.486 458.666,159.486 458.5,163.5C 458.763,167.6 458.43,171.6 457.5,175.5C 456.518,178.962 456.185,182.629 456.5,186.5C 455.833,186.167 455.167,185.833 454.5,185.5C 454.5,184.5 454.5,183.5 454.5,182.5C 454.506,173.107 455.172,163.774 456.5,154.5C 454.833,154.5 453.167,154.5 451.5,154.5C 449.938,152.099 450.271,150.099 452.5,148.5 Z"/></g>
<g><path style="opacity:1" fill="#070f8b" d="M 401.5,148.5 C 402.75,148.577 403.583,149.244 404,150.5C 405.983,156.093 407.316,161.759 408,167.5C 405.243,161.331 403.077,154.997 401.5,148.5 Z"/></g>
<g><path style="opacity:1" fill="#f0d109" d="M 210.5,153.5 C 212.895,159.056 214.562,165.056 215.5,171.5C 216.833,171.5 218.167,171.5 219.5,171.5C 218.833,168.167 218.167,164.833 217.5,161.5C 220.339,163.42 223.339,165.087 226.5,166.5C 226.5,173.5 226.5,180.5 226.5,187.5C 221.129,182.493 215.129,179.16 208.5,177.5C 210.22,180.202 211.887,182.868 213.5,185.5C 207.957,182.089 205.957,177.089 207.5,170.5C 208.121,164.734 209.121,159.067 210.5,153.5 Z"/></g>
<g><path style="opacity:1" fill="#f4d601" d="M 428.5,153.5 C 428.448,155.903 428.781,158.236 429.5,160.5C 429.755,164.8 430.755,168.8 432.5,172.5C 432.5,173.167 432.5,173.833 432.5,174.5C 431.579,180.117 428.579,184.45 423.5,187.5C 422.833,182.167 422.167,176.833 421.5,171.5C 422.497,171.53 423.164,171.03 423.5,170C 424.921,164.893 426.088,159.727 427,154.5C 427.383,153.944 427.883,153.611 428.5,153.5 Z"/></g>
<g><path style="opacity:1" fill="#155704" d="M 216.5,157.5 C 220.092,157.698 223.426,158.698 226.5,160.5C 230.095,162.102 233.429,164.102 236.5,166.5C 236.611,167.117 236.944,167.617 237.5,168C 236.207,168.49 234.873,168.657 233.5,168.5C 231.784,168.371 230.117,168.038 228.5,167.5C 228.158,166.662 227.492,166.328 226.5,166.5C 223.339,165.087 220.339,163.42 217.5,161.5C 217.167,160.167 216.833,158.833 216.5,157.5 Z"/></g>
<g><path style="opacity:1" fill="#3d2a34" d="M 451.5,154.5 C 453.167,154.5 454.833,154.5 456.5,154.5C 455.172,163.774 454.506,173.107 454.5,182.5C 453.508,175.018 453.175,167.352 453.5,159.5C 452.313,157.025 450.313,156.025 447.5,156.5C 448.671,155.655 450.005,154.989 451.5,154.5 Z"/></g>
<g><path style="opacity:1" fill="#240c01" d="M 249.5,157.5 C 251.167,158.5 252.5,159.833 253.5,161.5C 253.5,162.167 253.5,162.833 253.5,163.5C 250.357,163.031 248.023,161.364 246.5,158.5C 247.391,157.89 248.391,157.557 249.5,157.5 Z"/></g>
<g><path style="opacity:1" fill="#424126" d="M 324.5,160.5 C 322.167,160.5 319.833,160.5 317.5,160.5C 317.351,159.448 317.517,158.448 318,157.5C 319.427,159.787 321.261,160.12 323.5,158.5C 324.298,158.957 324.631,159.624 324.5,160.5 Z"/></g>
<g><path style="opacity:1" fill="#240f01" d="M 389.5,156.5 C 390.974,157.436 391.974,158.77 392.5,160.5C 390.5,160.5 389.5,161.5 389.5,163.5C 388.326,162.486 387.66,161.153 387.5,159.5C 388.167,158.5 388.833,157.5 389.5,156.5 Z"/></g>
<g><path style="opacity:1" fill="#a50d08" d="M 402.5,166.5 C 401.833,166.5 401.5,166.833 401.5,167.5C 399.455,164.421 397.622,161.088 396,157.5C 395.251,156.365 395.417,155.365 396.5,154.5C 399.041,158.248 401.041,162.248 402.5,166.5 Z"/></g>
<g><path style="opacity:1" fill="#e5c803" d="M 317.5,160.5 C 319.833,160.5 322.167,160.5 324.5,160.5C 326.167,161.5 327.5,162.833 328.5,164.5C 329.231,168.603 328.231,172.103 325.5,175C 324.833,175.667 324.167,175.667 323.5,175C 324.696,174.346 324.696,173.846 323.5,173.5C 322.5,174.833 321.5,174.833 320.5,173.5C 320.511,174.441 320.011,175.108 319,175.5C 317.607,174.385 316.107,173.885 314.5,174C 316.266,175.698 318.266,177.031 320.5,178C 318.833,178.333 317.167,178.667 315.5,179C 318.347,179.944 320.847,179.444 323,177.5C 324.976,178.543 325.476,179.877 324.5,181.5C 323.914,181.291 323.414,180.957 323,180.5C 322.79,182.058 322.29,183.391 321.5,184.5C 321.092,183.357 320.425,182.357 319.5,181.5C 318.702,183.078 318.202,184.744 318,186.5C 317.798,184.744 317.298,183.078 316.5,181.5C 315.702,181.957 315.369,182.624 315.5,183.5C 314.883,183.611 314.383,183.944 314,184.5C 313.667,183.167 313.333,181.833 313,180.5C 309.801,181.236 309.635,180.403 312.5,178C 307.217,179.392 306.551,178.392 310.5,175C 306.622,174.051 306.622,172.885 310.5,171.5C 309.5,170.667 308.5,169.833 307.5,169C 309.982,168.323 311.815,169.156 313,171.5C 312.848,167.594 314.015,164.261 316.5,161.5C 316.5,160.833 316.833,160.5 317.5,160.5 Z"/></g>
<g><path style="opacity:1" fill="#2c1772" d="M 447.5,156.5 C 450.313,156.025 452.313,157.025 453.5,159.5C 452.395,160.6 451.062,161.267 449.5,161.5C 452.307,158.956 451.64,157.956 447.5,158.5C 447.5,159.5 447.5,160.5 447.5,161.5C 446.833,161.5 446.5,161.833 446.5,162.5C 443.811,160.185 444.145,158.185 447.5,156.5 Z"/></g>
<g><path style="opacity:1" fill="#8a7f4d" d="M 449.5,161.5 C 448.833,161.5 448.167,161.5 447.5,161.5C 447.5,160.5 447.5,159.5 447.5,158.5C 451.64,157.956 452.307,158.956 449.5,161.5 Z"/></g>
<g><path style="opacity:1" fill="#1f1172" d="M 191.5,156.5 C 192.947,157.134 193.613,158.301 193.5,160C 193.472,161.07 193.139,161.903 192.5,162.5C 191.292,163.234 189.959,163.567 188.5,163.5C 187.507,171.984 187.174,180.651 187.5,189.5C 187.167,189.5 186.833,189.5 186.5,189.5C 185.878,180.068 186.544,170.901 188.5,162C 187.627,160.955 186.627,160.122 185.5,159.5C 186.687,157.025 188.687,156.025 191.5,156.5 Z"/></g>
<g><path style="opacity:1" fill="#9d9153" d="M 187.5,159.5 C 188.568,158.566 189.901,158.232 191.5,158.5C 191.719,159.675 191.386,160.675 190.5,161.5C 189.482,160.807 188.482,160.141 187.5,159.5 Z"/></g>
<g><path style="opacity:1" fill="#c00a01" d="M 392.5,160.5 C 394.382,165.265 396.548,169.932 399,174.5C 399.991,176.447 400.325,178.447 400,180.5C 396.99,174.47 393.49,168.804 389.5,163.5C 389.5,161.5 390.5,160.5 392.5,160.5 Z"/></g>
<g><path style="opacity:1" fill="#41226e" d="M 429.5,160.5 C 430.268,161.263 430.768,162.263 431,163.5C 431.483,162.552 431.649,161.552 431.5,160.5C 431.833,160.5 432.167,160.5 432.5,160.5C 432.959,163.877 433.626,167.211 434.5,170.5C 433.778,170.082 433.278,169.416 433,168.5C 432.51,169.793 432.343,171.127 432.5,172.5C 430.755,168.8 429.755,164.8 429.5,160.5 Z"/></g>
<g><path style="opacity:1" fill="#f7d802" d="M 188.5,163.5 C 192.795,169.463 197.795,174.796 203.5,179.5C 203.5,182.167 203.5,184.833 203.5,187.5C 203.5,188.5 203.5,189.5 203.5,190.5C 202.253,196.63 201.586,202.963 201.5,209.5C 200.551,228.492 200.384,247.492 201,266.5C 201.473,274.975 202.639,283.308 204.5,291.5C 204.171,294.228 204.837,296.562 206.5,298.5C 209.41,311.61 214.91,323.61 223,334.5C 226.429,338.439 230.263,341.772 234.5,344.5C 232.915,346.108 231.749,347.775 231,349.5C 234.067,352.237 237.401,354.571 241,356.5C 242.982,356.01 244.649,355.01 246,353.5C 248.753,356.256 250.253,359.589 250.5,363.5C 248.901,363.232 247.568,363.566 246.5,364.5C 242.96,364.753 239.627,365.419 236.5,366.5C 235.833,366.5 235.167,366.5 234.5,366.5C 228.464,366.64 222.464,366.307 216.5,365.5C 213.167,363.5 209.833,361.5 206.5,359.5C 205.299,357.091 203.633,355.091 201.5,353.5C 193.38,338.138 188.046,321.805 185.5,304.5C 184.812,296.987 183.812,289.654 182.5,282.5C 181.68,276.203 181.347,269.869 181.5,263.5C 181.5,252.167 181.5,240.833 181.5,229.5C 182.296,224.888 182.963,220.221 183.5,215.5C 184.167,215.167 184.833,214.833 185.5,214.5C 186.155,227.586 188.155,240.419 191.5,253C 192.449,253.617 193.282,253.451 194,252.5C 192.441,235.418 190.274,218.418 187.5,201.5C 187.5,197.5 187.5,193.5 187.5,189.5C 187.174,180.651 187.507,171.984 188.5,163.5 Z"/></g>
<g><path style="opacity:1" fill="#cc0201" d="M 237.5,149.5 C 239.797,151.294 241.963,153.294 244,155.5C 244.492,156.549 244.326,157.549 243.5,158.5C 244.257,159.773 244.923,159.773 245.5,158.5C 245.833,158.5 246.167,158.5 246.5,158.5C 248.023,161.364 250.357,163.031 253.5,163.5C 254.129,166.64 255.796,169.14 258.5,171C 257.584,171.278 256.918,171.778 256.5,172.5C 253.577,173.295 250.91,174.628 248.5,176.5C 247.892,174.316 248.559,172.316 250.5,170.5C 249.635,169.417 248.635,169.251 247.5,170C 244.246,172.747 241.58,175.914 239.5,179.5C 238.842,178.207 238.508,176.707 238.5,175C 238.629,173.019 239.296,171.353 240.5,170C 240.026,168.271 239.026,167.105 237.5,166.5C 237.5,160.833 237.5,155.167 237.5,149.5 Z"/></g>
<g><path style="opacity:1" fill="#a20e02" d="M 386.5,164.5 C 388.416,165.665 389.249,167.332 389,169.5C 387.117,168.347 386.284,166.681 386.5,164.5 Z"/></g>
<g><path style="opacity:1" fill="#f8d802" d="M 450.5,163.5 C 450.833,163.5 451.167,163.5 451.5,163.5C 451.5,175.167 451.5,186.833 451.5,198.5C 449,216.492 446.834,234.492 445,252.5C 447.557,253.646 448.89,252.646 449,249.5C 451.296,237.593 452.796,225.593 453.5,213.5C 454.167,214.167 454.833,214.833 455.5,215.5C 456.037,220.221 456.704,224.888 457.5,229.5C 457.5,241.5 457.5,253.5 457.5,265.5C 456.593,271.106 456.26,276.773 456.5,282.5C 455.407,287.306 454.741,292.306 454.5,297.5C 452.998,305.166 451.665,312.833 450.5,320.5C 449.388,322.599 448.721,324.933 448.5,327.5C 445.606,336.522 441.939,345.189 437.5,353.5C 435.367,355.091 433.701,357.091 432.5,359.5C 429.865,360.811 427.531,362.478 425.5,364.5C 418.632,366.225 411.632,366.892 404.5,366.5C 395.797,365.574 387.463,363.24 379.5,359.5C 377.028,358.091 374.695,356.424 372.5,354.5C 382.167,353.833 391.833,353.167 401.5,352.5C 401.185,349.789 401.852,347.456 403.5,345.5C 417.583,334.387 426.917,320.054 431.5,302.5C 433.163,300.562 433.829,298.228 433.5,295.5C 435.973,286.028 437.473,276.361 438,266.5C 438.601,247.159 438.434,227.826 437.5,208.5C 437.348,202.301 436.682,196.301 435.5,190.5C 435.5,189.5 435.5,188.5 435.5,187.5C 435.5,184.833 435.5,182.167 435.5,179.5C 441.205,174.796 446.205,169.463 450.5,163.5 Z"/></g>
<g><path style="opacity:1" fill="#282012" d="M 446.5,162.5 C 447.708,163.234 449.041,163.567 450.5,163.5C 446.205,169.463 441.205,174.796 435.5,179.5C 434.908,176.873 434.575,174.206 434.5,171.5C 435.268,172.263 435.768,173.263 436,174.5C 440.104,170.905 443.604,166.905 446.5,162.5 Z"/></g>
<g><path style="opacity:1" fill="#26200b" d="M 192.5,162.5 C 195.436,167.105 199.102,171.105 203.5,174.5C 203.5,176.167 203.5,177.833 203.5,179.5C 197.795,174.796 192.795,169.463 188.5,163.5C 189.959,163.567 191.292,163.234 192.5,162.5 Z"/></g>
<g><path style="opacity:1" fill="#0001bc" d="M 228.5,167.5 C 230.117,168.038 231.784,168.371 233.5,168.5C 234.209,169.404 235.209,169.737 236.5,169.5C 237.272,173.452 237.605,177.452 237.5,181.5C 236.651,184.681 234.985,187.348 232.5,189.5C 231.903,189.265 231.57,188.765 231.5,188C 233.312,183.581 234.479,179.081 235,174.5C 232.903,180.305 230.737,185.971 228.5,191.5C 227.89,190.609 227.557,189.609 227.5,188.5C 227.175,181.313 227.509,174.313 228.5,167.5 Z"/></g>
<g><path style="opacity:1" fill="#585a3e" d="M 316.5,161.5 C 314.015,164.261 312.848,167.594 313,171.5C 311.815,169.156 309.982,168.323 307.5,169C 308.5,169.833 309.5,170.667 310.5,171.5C 306.622,172.885 306.622,174.051 310.5,175C 306.551,178.392 307.217,179.392 312.5,178C 309.635,180.403 309.801,181.236 313,180.5C 313.333,181.833 313.667,183.167 314,184.5C 314.383,183.944 314.883,183.611 315.5,183.5C 314.952,185.394 313.952,187.06 312.5,188.5C 312.433,186.576 312.1,184.576 311.5,182.5C 307.256,185.379 306.589,184.712 309.5,180.5C 307.955,179.548 306.288,179.215 304.5,179.5C 305.301,177.958 305.634,176.292 305.5,174.5C 304.5,174.5 303.5,174.5 302.5,174.5C 302.737,175.791 302.404,176.791 301.5,177.5C 301.5,175.833 301.5,174.167 301.5,172.5C 302.833,172.5 304.167,172.5 305.5,172.5C 305.768,170.901 305.434,169.568 304.5,168.5C 306.042,167.837 307.709,167.17 309.5,166.5C 305.256,160.955 305.922,160.289 311.5,164.5C 312.1,162.424 312.433,160.424 312.5,158.5C 313.283,160.288 314.616,161.288 316.5,161.5 Z"/></g>
<g><path style="opacity:1" fill="#351f05" d="M 381.5,165.5 C 382.496,165.414 383.329,165.748 384,166.5C 390.259,175.998 389.592,176.664 382,168.5C 381.536,169.094 381.369,169.761 381.5,170.5C 379.167,172.167 377.167,174.167 375.5,176.5C 374.094,176.027 373.427,175.027 373.5,173.5C 375.812,171.854 377.812,169.854 379.5,167.5C 378.52,166.019 377.353,164.685 376,163.5C 375.333,162.833 375.333,162.167 376,161.5C 377.451,163.464 379.284,164.797 381.5,165.5 Z"/></g>
<g><path style="opacity:1" fill="#280f9f" d="M 210.5,120.5 C 211.289,120.783 211.956,121.283 212.5,122C 211.519,129.413 211.186,136.913 211.5,144.5C 210.841,147.455 210.508,150.455 210.5,153.5C 209.121,159.067 208.121,164.734 207.5,170.5C 206.657,173.813 205.323,176.813 203.5,179.5C 203.5,177.833 203.5,176.167 203.5,174.5C 204.501,169.829 205.501,165.162 206.5,160.5C 207.768,158.095 208.435,155.428 208.5,152.5C 208.508,149.455 208.841,146.455 209.5,143.5C 210.492,136.018 210.825,128.352 210.5,120.5 Z"/></g>
<g><path style="opacity:1" fill="#0000bb" d="M 434.5,170.5 C 434.5,170.833 434.5,171.167 434.5,171.5C 434.575,174.206 434.908,176.873 435.5,179.5C 433.972,178.198 432.972,176.531 432.5,174.5C 432.5,173.833 432.5,173.167 432.5,172.5C 432.343,171.127 432.51,169.793 433,168.5C 433.278,169.416 433.778,170.082 434.5,170.5 Z"/></g>
<g><path style="opacity:1" fill="#482d22" d="M 187.5,153.5 C 188.59,154.857 189.924,155.857 191.5,156.5C 188.687,156.025 186.687,157.025 185.5,159.5C 185.598,166.933 185.265,174.267 184.5,181.5C 183.751,172.507 183.084,163.507 182.5,154.5C 184.292,154.634 185.958,154.301 187.5,153.5 Z"/></g>
<g><path style="opacity:1" fill="#f6db15" d="M 296.5,168.5 C 299.167,168.5 301.833,168.5 304.5,168.5C 305.434,169.568 305.768,170.901 305.5,172.5C 304.167,172.5 302.833,172.5 301.5,172.5C 301.5,171.5 301.5,170.5 301.5,169.5C 300.167,169.5 298.833,169.5 297.5,169.5C 296.833,169.5 296.5,169.167 296.5,168.5 Z"/></g>
<g><path style="opacity:1" fill="#221502" d="M 253.5,163.5 C 254.5,163.5 255.5,163.5 256.5,163.5C 257.713,166.225 259.546,168.559 262,170.5C 262.773,172.352 262.273,173.686 260.5,174.5C 260.591,172.302 259.925,171.969 258.5,173.5C 258.158,172.662 257.492,172.328 256.5,172.5C 256.918,171.778 257.584,171.278 258.5,171C 255.796,169.14 254.129,166.64 253.5,163.5 Z"/></g>
<g><path style="opacity:1" fill="#e6d740" d="M 296.5,168.5 C 296.5,169.167 296.833,169.5 297.5,169.5C 294.713,170.477 291.713,170.81 288.5,170.5C 288.5,173.167 288.5,175.833 288.5,178.5C 292.785,177.705 297.119,177.372 301.5,177.5C 302.404,176.791 302.737,175.791 302.5,174.5C 303.5,174.5 304.5,174.5 305.5,174.5C 305.634,176.292 305.301,177.958 304.5,179.5C 297.571,180.401 290.571,181.068 283.5,181.5C 282.791,180.596 281.791,180.263 280.5,180.5C 281.919,179.549 283.585,179.216 285.5,179.5C 285.326,177.139 284.993,174.806 284.5,172.5C 281.763,172.401 279.096,172.735 276.5,173.5C 275.909,172.849 275.243,172.182 274.5,171.5C 274.624,170.893 274.957,170.56 275.5,170.5C 275.917,171.124 276.584,171.457 277.5,171.5C 283.797,170.22 290.131,169.22 296.5,168.5 Z"/></g>
<g><path style="opacity:1" fill="#3ba9f6" d="M 297.5,169.5 C 298.833,169.5 300.167,169.5 301.5,169.5C 301.5,170.5 301.5,171.5 301.5,172.5C 301.5,174.167 301.5,175.833 301.5,177.5C 297.119,177.372 292.785,177.705 288.5,178.5C 288.5,175.833 288.5,173.167 288.5,170.5C 291.713,170.81 294.713,170.477 297.5,169.5 Z"/></g>
<g><path style="opacity:1" fill="#3faaf5" d="M 354.5,172.5 C 353.532,174.607 353.198,176.941 353.5,179.5C 349.176,179.073 344.842,178.739 340.5,178.5C 340.5,176.5 340.5,174.5 340.5,172.5C 341.156,171.722 341.989,171.056 343,170.5C 346.985,171.072 350.818,171.739 354.5,172.5 Z"/></g>
<g><path style="opacity:1" fill="#2f0c21" d="M 236.5,166.5 C 236.833,166.5 237.167,166.5 237.5,166.5C 239.026,167.105 240.026,168.271 240.5,170C 239.296,171.353 238.629,173.019 238.5,175C 238.508,176.707 238.842,178.207 239.5,179.5C 239.167,180.5 238.5,181.167 237.5,181.5C 237.605,177.452 237.272,173.452 236.5,169.5C 235.209,169.737 234.209,169.404 233.5,168.5C 234.873,168.657 236.207,168.49 237.5,168C 236.944,167.617 236.611,167.117 236.5,166.5 Z"/></g>
<g><path style="opacity:1" fill="#010c83" d="M 402.5,166.5 C 403.545,169.114 404.045,171.78 404,174.5C 402.864,172.257 402.03,169.924 401.5,167.5C 401.5,166.833 401.833,166.5 402.5,166.5 Z"/></g>
<g><path style="opacity:1" fill="#104e03" d="M 256.5,172.5 C 257.492,172.328 258.158,172.662 258.5,173.5C 251.833,179.167 245.167,184.833 238.5,190.5C 236.5,192.167 234.5,193.833 232.5,195.5C 232.472,193.418 233.139,191.584 234.5,190C 233.906,189.536 233.239,189.369 232.5,189.5C 234.985,187.348 236.651,184.681 237.5,181.5C 238.5,181.167 239.167,180.5 239.5,179.5C 241.58,175.914 244.246,172.747 247.5,170C 248.635,169.251 249.635,169.417 250.5,170.5C 248.559,172.316 247.892,174.316 248.5,176.5C 250.91,174.628 253.577,173.295 256.5,172.5 Z"/></g>
<g><path style="opacity:1" fill="#44aaf0" d="M 280.5,180.5 C 276.775,180.595 273.109,180.762 269.5,181C 271.041,179.421 272.208,177.587 273,175.5C 273.816,174.177 274.983,173.511 276.5,173.5C 279.096,172.735 281.763,172.401 284.5,172.5C 284.993,174.806 285.326,177.139 285.5,179.5C 283.585,179.216 281.919,179.549 280.5,180.5 Z"/></g>
<g><path style="opacity:1" fill="#c90f03" d="M 260.5,174.5 C 253.199,189.066 248.533,204.399 246.5,220.5C 242.953,218.304 240.619,215.304 239.5,211.5C 238.911,204.515 238.578,197.515 238.5,190.5C 245.167,184.833 251.833,179.167 258.5,173.5C 259.925,171.969 260.591,172.302 260.5,174.5 Z"/></g>
<g><path style="opacity:1" fill="#050a5c" d="M 232.5,189.5 C 233.239,189.369 233.906,189.536 234.5,190C 233.139,191.584 232.472,193.418 232.5,195.5C 231.791,196.404 230.791,196.737 229.5,196.5C 229.768,198.099 229.434,199.432 228.5,200.5C 227.508,200.672 226.842,200.338 226.5,199.5C 226.5,197.833 226.5,196.167 226.5,194.5C 230.832,196.176 231.499,195.176 228.5,191.5C 230.737,185.971 232.903,180.305 235,174.5C 234.479,179.081 233.312,183.581 231.5,188C 231.57,188.765 231.903,189.265 232.5,189.5 Z"/></g>
<g><path style="opacity:1" fill="#121164" d="M 226.5,166.5 C 227.492,166.328 228.158,166.662 228.5,167.5C 227.509,174.313 227.175,181.313 227.5,188.5C 226.833,188.5 226.5,188.167 226.5,187.5C 226.5,180.5 226.5,173.5 226.5,166.5 Z"/></g>
<g><path style="opacity:1" fill="#726823" d="M 328.5,164.5 C 329.473,166.948 329.806,169.615 329.5,172.5C 330.978,172.238 332.311,172.571 333.5,173.5C 331.604,174.466 329.604,174.799 327.5,174.5C 327.5,175.5 327.5,176.5 327.5,177.5C 328.5,177.5 329.5,177.5 330.5,177.5C 331.551,178.222 332.218,179.222 332.5,180.5C 330.473,180.338 328.473,180.505 326.5,181C 328.945,184.717 328.279,185.217 324.5,182.5C 324.167,184.5 323.833,186.5 323.5,188.5C 322.295,187.423 321.628,186.09 321.5,184.5C 322.29,183.391 322.79,182.058 323,180.5C 323.414,180.957 323.914,181.291 324.5,181.5C 325.476,179.877 324.976,178.543 323,177.5C 320.847,179.444 318.347,179.944 315.5,179C 317.167,178.667 318.833,178.333 320.5,178C 318.266,177.031 316.266,175.698 314.5,174C 316.107,173.885 317.607,174.385 319,175.5C 320.011,175.108 320.511,174.441 320.5,173.5C 321.5,174.833 322.5,174.833 323.5,173.5C 324.696,173.846 324.696,174.346 323.5,175C 324.167,175.667 324.833,175.667 325.5,175C 328.231,172.103 329.231,168.603 328.5,164.5 Z"/></g>
<g><path style="opacity:1" fill="#225900" d="M 226.5,187.5 C 226.5,188.167 226.833,188.5 227.5,188.5C 227.557,189.609 227.89,190.609 228.5,191.5C 231.499,195.176 230.832,196.176 226.5,194.5C 224.031,193.431 221.698,192.098 219.5,190.5C 218.893,190.624 218.56,190.957 218.5,191.5C 216.844,189.54 215.177,187.54 213.5,185.5C 211.887,182.868 210.22,180.202 208.5,177.5C 215.129,179.16 221.129,182.493 226.5,187.5 Z"/></g>
<g><path style="opacity:1" fill="#a2c7f3" d="M 304.5,179.5 C 306.288,179.215 307.955,179.548 309.5,180.5C 306.589,184.712 307.256,185.379 311.5,182.5C 312.1,184.576 312.433,186.576 312.5,188.5C 313.952,187.06 314.952,185.394 315.5,183.5C 315.369,182.624 315.702,181.957 316.5,181.5C 317.298,183.078 317.798,184.744 318,186.5C 318.202,184.744 318.702,183.078 319.5,181.5C 320.425,182.357 321.092,183.357 321.5,184.5C 321.628,186.09 322.295,187.423 323.5,188.5C 323.833,186.5 324.167,184.5 324.5,182.5C 328.279,185.217 328.945,184.717 326.5,181C 328.473,180.505 330.473,180.338 332.5,180.5C 345.175,181.169 357.509,183.502 369.5,187.5C 373.801,196.733 376.467,206.399 377.5,216.5C 363.992,216.772 350.658,217.439 337.5,218.5C 330.702,215.268 324.036,211.768 317.5,208C 314.649,203.126 311.982,198.126 309.5,193C 306.5,192.333 303.5,192.333 300.5,193C 297.394,194.636 294.227,196.136 291,197.5C 285.64,192.689 279.473,191.356 272.5,193.5C 271.237,200.138 267.237,202.805 260.5,201.5C 261.51,195.805 263.51,190.472 266.5,185.5C 272.116,183.91 277.783,182.577 283.5,181.5C 290.571,181.068 297.571,180.401 304.5,179.5 Z"/></g>
<g><path style="opacity:1" fill="#cc0e00" d="M 381.5,170.5 C 388.277,178.951 394.277,187.951 399.5,197.5C 399.5,198.833 399.5,200.167 399.5,201.5C 393.615,193.438 387.115,185.771 380,178.5C 379.833,178.833 379.667,179.167 379.5,179.5C 386.641,188.304 392.975,197.637 398.5,207.5C 398.664,210.187 398.497,212.854 398,215.5C 395.297,218.371 392.464,221.038 389.5,223.5C 389.324,220.273 388.657,217.273 387.5,214.5C 384.903,201.377 380.903,188.71 375.5,176.5C 377.167,174.167 379.167,172.167 381.5,170.5 Z"/></g>
<g><path style="opacity:1" fill="#0900bc" d="M 224.5,203.5 C 224.5,205.833 224.5,208.167 224.5,210.5C 222.552,224.14 222.219,237.806 223.5,251.5C 223.554,271.936 227.387,291.603 235,310.5C 237.284,314.614 240.117,318.28 243.5,321.5C 241.589,323.917 239.422,326.25 237,328.5C 235.991,330.025 235.491,331.692 235.5,333.5C 239.514,333.334 243.514,333.501 247.5,334C 248.833,337 248.833,340 247.5,343C 245.023,343.24 242.856,342.406 241,340.5C 239.028,342.232 236.861,343.565 234.5,344.5C 230.263,341.772 226.429,338.439 223,334.5C 214.91,323.61 209.41,311.61 206.5,298.5C 206.279,295.933 205.612,293.599 204.5,291.5C 202.639,283.308 201.473,274.975 201,266.5C 200.384,247.492 200.551,228.492 201.5,209.5C 202.996,203.395 203.663,197.062 203.5,190.5C 203.5,189.5 203.5,188.5 203.5,187.5C 204.309,185.708 204.809,183.708 205,181.5C 211.73,188.724 218.23,196.058 224.5,203.5 Z"/></g>
<g><path style="opacity:1" fill="#0a00bc" d="M 435.5,187.5 C 435.5,188.5 435.5,189.5 435.5,190.5C 435.276,196.739 435.943,202.739 437.5,208.5C 438.434,227.826 438.601,247.159 438,266.5C 437.473,276.361 435.973,286.028 433.5,295.5C 432.388,297.599 431.721,299.933 431.5,302.5C 426.917,320.054 417.583,334.387 403.5,345.5C 402.833,345.5 402.167,345.5 401.5,345.5C 390.346,344.505 379.012,344.172 367.5,344.5C 366.836,340.409 368.17,337.409 371.5,335.5C 391.641,328.854 404.475,315.188 410,294.5C 413.063,280.993 414.897,267.326 415.5,253.5C 416.809,239.14 416.475,224.806 414.5,210.5C 414.5,208.167 414.5,205.833 414.5,203.5C 420.77,196.058 427.27,188.724 434,181.5C 434.191,183.708 434.691,185.708 435.5,187.5 Z"/></g>
<g><path style="opacity:1" fill="#150c0c" d="M 432.5,174.5 C 432.972,176.531 433.972,178.198 435.5,179.5C 435.5,182.167 435.5,184.833 435.5,187.5C 434.691,185.708 434.191,183.708 434,181.5C 427.27,188.724 420.77,196.058 414.5,203.5C 406.188,211.146 398.188,219.146 390.5,227.5C 389.766,226.292 389.433,224.959 389.5,223.5C 392.464,221.038 395.297,218.371 398,215.5C 398.497,212.854 398.664,210.187 398.5,207.5C 399.265,208.66 400.265,209.66 401.5,210.5C 402.522,210.145 403.189,209.478 403.5,208.5C 404.338,208.158 404.672,207.492 404.5,206.5C 411.812,201.188 418.146,194.854 423.5,187.5C 428.579,184.45 431.579,180.117 432.5,174.5 Z"/></g>
<g><path style="opacity:1" fill="#1e1510" d="M 207.5,170.5 C 205.957,177.089 207.957,182.089 213.5,185.5C 215.177,187.54 216.844,189.54 218.5,191.5C 220.806,194.473 223.473,197.14 226.5,199.5C 226.842,200.338 227.508,200.672 228.5,200.5C 231.396,204.905 234.896,208.905 239,212.5C 239.399,212.272 239.565,211.938 239.5,211.5C 240.619,215.304 242.953,218.304 246.5,220.5C 246.784,222.415 246.451,224.081 245.5,225.5C 239.153,217.487 232.153,210.154 224.5,203.5C 218.23,196.058 211.73,188.724 205,181.5C 204.809,183.708 204.309,185.708 203.5,187.5C 203.5,184.833 203.5,182.167 203.5,179.5C 205.323,176.813 206.657,173.813 207.5,170.5 Z"/></g>
<g><path style="opacity:1" fill="#1b4c03" d="M 399.5,201.5 C 400.833,203.833 402.167,206.167 403.5,208.5C 403.189,209.478 402.522,210.145 401.5,210.5C 400.265,209.66 399.265,208.66 398.5,207.5C 392.975,197.637 386.641,188.304 379.5,179.5C 379.667,179.167 379.833,178.833 380,178.5C 387.115,185.771 393.615,193.438 399.5,201.5 Z"/></g>
<g><path style="opacity:1" fill="#a89500" d="M 181.5,186.5 C 182.434,187.568 182.768,188.901 182.5,190.5C 182.5,194.833 182.5,199.167 182.5,203.5C 182.5,204.167 182.5,204.833 182.5,205.5C 181.833,203.167 181.167,200.833 180.5,198.5C 180.183,194.298 180.517,190.298 181.5,186.5 Z"/></g>
<g><path style="opacity:1" fill="#dabf00" d="M 218.5,191.5 C 218.56,190.957 218.893,190.624 219.5,190.5C 221.698,192.098 224.031,193.431 226.5,194.5C 226.5,196.167 226.5,197.833 226.5,199.5C 223.473,197.14 220.806,194.473 218.5,191.5 Z"/></g>
<g><path style="opacity:1" fill="#0000bc" d="M 238.5,190.5 C 238.578,197.515 238.911,204.515 239.5,211.5C 239.565,211.938 239.399,212.272 239,212.5C 234.896,208.905 231.396,204.905 228.5,200.5C 229.434,199.432 229.768,198.099 229.5,196.5C 230.791,196.737 231.791,196.404 232.5,195.5C 234.5,193.833 236.5,192.167 238.5,190.5 Z"/></g>
<g><path style="opacity:1" fill="#f5f8fa" d="M 337.5,218.5 C 350.843,218.474 364.176,218.141 377.5,217.5C 377.966,223.491 378.299,229.491 378.5,235.5C 368.768,237.106 359.102,236.772 349.5,234.5C 346.562,234.568 343.895,235.234 341.5,236.5C 338.579,237.719 335.412,238.386 332,238.5C 326.941,237.819 321.941,236.819 317,235.5C 313.875,236.256 310.709,236.589 307.5,236.5C 300.249,236.724 293.082,236.058 286,234.5C 282.624,234.807 279.457,235.474 276.5,236.5C 271.833,237.833 267.167,237.833 262.5,236.5C 261.003,235.694 259.336,235.028 257.5,234.5C 256.768,227.528 256.768,220.528 257.5,213.5C 257.584,209.163 258.584,205.163 260.5,201.5C 267.237,202.805 271.237,200.138 272.5,193.5C 279.473,191.356 285.64,192.689 291,197.5C 294.227,196.136 297.394,194.636 300.5,193C 303.5,192.333 306.5,192.333 309.5,193C 311.982,198.126 314.649,203.126 317.5,208C 324.036,211.768 330.702,215.268 337.5,218.5 Z"/></g>
<g><path style="opacity:1" fill="#4f2210" d="M 454.5,185.5 C 455.167,185.833 455.833,186.167 456.5,186.5C 456.5,192.167 456.5,197.833 456.5,203.5C 455.19,197.712 454.523,191.712 454.5,185.5 Z"/></g>
<g><path style="opacity:1" fill="#bce3ff" d="M 278.5,195.5 C 279.693,195.97 280.36,196.97 280.5,198.5C 279.578,206.007 276.745,212.673 272,218.5C 271.405,219.899 271.572,221.232 272.5,222.5C 272.333,222.833 272.167,223.167 272,223.5C 270.667,222.167 269.333,220.833 268,219.5C 267.333,220.167 266.667,220.833 266,221.5C 265.86,219.744 266.36,218.078 267.5,216.5C 267.069,215.707 266.735,214.873 266.5,214C 270.345,211.466 272.512,207.966 273,203.5C 270.221,206.297 267.054,208.13 263.5,209C 268.695,204.634 273.695,200.134 278.5,195.5 Z"/></g>
<g><path style="opacity:1" fill="#442c15" d="M 184.5,187.5 C 184.332,193.034 183.665,198.367 182.5,203.5C 182.5,199.167 182.5,194.833 182.5,190.5C 183.167,189.5 183.833,188.5 184.5,187.5 Z"/></g>
<g><path style="opacity:1" fill="#38192d" d="M 453.5,200.5 C 452.833,199.833 452.167,199.167 451.5,198.5C 451.5,186.833 451.5,175.167 451.5,163.5C 452.331,175.103 452.998,187.436 453.5,200.5 Z"/></g>
<g><path style="opacity:1" fill="#522517" d="M 186.5,189.5 C 186.833,189.5 187.167,189.5 187.5,189.5C 187.5,193.5 187.5,197.5 187.5,201.5C 186.833,201.833 186.167,202.167 185.5,202.5C 185.467,198.131 185.8,193.798 186.5,189.5 Z"/></g>
<g><path style="opacity:1" fill="#1e09a6" d="M 453.5,159.5 C 453.175,167.352 453.508,175.018 454.5,182.5C 454.5,183.5 454.5,184.5 454.5,185.5C 454.523,191.712 455.19,197.712 456.5,203.5C 456.5,204.167 456.5,204.833 456.5,205.5C 456.646,209.387 457.313,213.054 458.5,216.5C 460.347,224.071 461.681,231.738 462.5,239.5C 463.164,243.154 463.831,246.82 464.5,250.5C 464.167,251.5 463.833,252.5 463.5,253.5C 462.027,248.757 460.694,244.09 459.5,239.5C 459.247,235.96 458.581,232.627 457.5,229.5C 456.704,224.888 456.037,220.221 455.5,215.5C 455.283,211.295 454.617,207.295 453.5,203.5C 453.5,202.5 453.5,201.5 453.5,200.5C 452.998,187.436 452.331,175.103 451.5,163.5C 451.167,163.5 450.833,163.5 450.5,163.5C 449.041,163.567 447.708,163.234 446.5,162.5C 446.5,161.833 446.833,161.5 447.5,161.5C 448.167,161.5 448.833,161.5 449.5,161.5C 451.062,161.267 452.395,160.6 453.5,159.5 Z"/></g>
<g><path style="opacity:1" fill="#786306" d="M 457.5,175.5 C 457.922,184.829 458.255,194.163 458.5,203.5C 457.833,204.167 457.167,204.833 456.5,205.5C 456.5,204.833 456.5,204.167 456.5,203.5C 456.5,197.833 456.5,192.167 456.5,186.5C 456.185,182.629 456.518,178.962 457.5,175.5 Z"/></g>
<g><path style="opacity:1" fill="#3b3213" d="M 458.5,203.5 C 458.5,207.833 458.5,212.167 458.5,216.5C 457.313,213.054 456.646,209.387 456.5,205.5C 457.167,204.833 457.833,204.167 458.5,203.5 Z"/></g>
<g><path style="opacity:1" fill="#ac1f01" d="M 451.5,198.5 C 452.167,199.167 452.833,199.833 453.5,200.5C 453.5,201.5 453.5,202.5 453.5,203.5C 453.5,206.833 453.5,210.167 453.5,213.5C 452.796,225.593 451.296,237.593 449,249.5C 448.89,252.646 447.557,253.646 445,252.5C 446.834,234.492 449,216.492 451.5,198.5 Z"/></g>
<g><path style="opacity:1" fill="#ad1f01" d="M 187.5,201.5 C 190.274,218.418 192.441,235.418 194,252.5C 193.282,253.451 192.449,253.617 191.5,253C 188.155,240.419 186.155,227.586 185.5,214.5C 185.5,210.833 185.5,207.167 185.5,203.5C 185.5,203.167 185.5,202.833 185.5,202.5C 186.167,202.167 186.833,201.833 187.5,201.5 Z"/></g>
<g><path style="opacity:1" fill="#db0400" d="M 224.5,203.5 C 232.153,210.154 239.153,217.487 245.5,225.5C 245.222,234.553 245.556,243.553 246.5,252.5C 245.982,257.927 246.982,262.927 249.5,267.5C 251.47,274.569 253.97,281.569 257,288.5C 265.246,306.576 278.079,320.243 295.5,329.5C 288.018,330.492 280.352,330.825 272.5,330.5C 272.5,332.167 272.5,333.833 272.5,335.5C 270.833,335.5 269.167,335.5 267.5,335.5C 266.209,335.737 265.209,335.404 264.5,334.5C 265.568,333.566 266.901,333.232 268.5,333.5C 267.586,328.742 264.919,325.242 260.5,323C 254.781,321.529 249.115,321.029 243.5,321.5C 240.117,318.28 237.284,314.614 235,310.5C 227.387,291.603 223.554,271.936 223.5,251.5C 223.743,237.831 224.076,224.164 224.5,210.5C 224.5,208.167 224.5,205.833 224.5,203.5 Z"/></g>
<g><path style="opacity:1" fill="#140998" d="M 399.5,197.5 C 401.527,200.22 403.193,203.22 404.5,206.5C 404.672,207.492 404.338,208.158 403.5,208.5C 402.167,206.167 400.833,203.833 399.5,201.5C 399.5,200.167 399.5,198.833 399.5,197.5 Z"/></g>
<g><path style="opacity:1" fill="#dc0300" d="M 414.5,203.5 C 414.5,205.833 414.5,208.167 414.5,210.5C 414.972,224.829 415.305,239.163 415.5,253.5C 414.897,267.326 413.063,280.993 410,294.5C 404.475,315.188 391.641,328.854 371.5,335.5C 370.041,335.433 368.708,335.766 367.5,336.5C 367.5,334.5 367.5,332.5 367.5,330.5C 365.833,330.5 364.167,330.5 362.5,330.5C 354.648,330.825 346.982,330.492 339.5,329.5C 342.909,328.628 345.909,326.961 348.5,324.5C 353.735,320.773 358.568,316.44 363,311.5C 377.067,293.458 385.567,273.124 388.5,250.5C 389.196,242.933 389.863,235.266 390.5,227.5C 398.188,219.146 406.188,211.146 414.5,203.5 Z"/></g>
<g><path style="opacity:1" fill="#1e09a6" d="M 185.5,159.5 C 186.627,160.122 187.627,160.955 188.5,162C 186.544,170.901 185.878,180.068 186.5,189.5C 185.8,193.798 185.467,198.131 185.5,202.5C 185.5,202.833 185.5,203.167 185.5,203.5C 184.383,207.295 183.717,211.295 183.5,215.5C 182.963,220.221 182.296,224.888 181.5,229.5C 180.419,232.627 179.753,235.96 179.5,239.5C 178.306,244.09 176.973,248.757 175.5,253.5C 175.167,252.333 174.833,251.167 174.5,250C 175.091,246.473 175.758,242.973 176.5,239.5C 177.446,231.435 178.78,223.435 180.5,215.5C 181.785,212.411 182.451,209.078 182.5,205.5C 182.5,204.833 182.5,204.167 182.5,203.5C 183.665,198.367 184.332,193.034 184.5,187.5C 184.5,185.5 184.5,183.5 184.5,181.5C 185.265,174.267 185.598,166.933 185.5,159.5 Z"/></g>
<g><path style="opacity:1" fill="#302132" d="M 435.5,190.5 C 436.682,196.301 437.348,202.301 437.5,208.5C 435.943,202.739 435.276,196.739 435.5,190.5 Z"/></g>
<g><path style="opacity:1" fill="#3c3311" d="M 180.5,198.5 C 181.167,200.833 181.833,203.167 182.5,205.5C 182.451,209.078 181.785,212.411 180.5,215.5C 180.5,209.833 180.5,204.167 180.5,198.5 Z"/></g>
<g><path style="opacity:1" fill="#2f1f37" d="M 203.5,190.5 C 203.663,197.062 202.996,203.395 201.5,209.5C 201.586,202.963 202.253,196.63 203.5,190.5 Z"/></g>
<g><path style="opacity:1" fill="#30141e" d="M 185.5,203.5 C 185.5,207.167 185.5,210.833 185.5,214.5C 184.833,214.833 184.167,215.167 183.5,215.5C 183.717,211.295 184.383,207.295 185.5,203.5 Z"/></g>
<g><path style="opacity:1" fill="#2d1320" d="M 453.5,203.5 C 454.617,207.295 455.283,211.295 455.5,215.5C 454.833,214.833 454.167,214.167 453.5,213.5C 453.5,210.167 453.5,206.833 453.5,203.5 Z"/></g>
<g><path style="opacity:1" fill="#545c55" d="M 377.5,216.5 C 379.045,222.419 379.711,228.586 379.5,235C 379.499,239.68 379.166,244.18 378.5,248.5C 378.5,244.5 378.5,240.5 378.5,236.5C 366.181,237.46 353.847,237.46 341.5,236.5C 343.895,235.234 346.562,234.568 349.5,234.5C 359.102,236.772 368.768,237.106 378.5,235.5C 378.299,229.491 377.966,223.491 377.5,217.5C 364.176,218.141 350.843,218.474 337.5,218.5C 350.658,217.439 363.992,216.772 377.5,216.5 Z"/></g>
<g><path style="opacity:1" fill="#596365" d="M 307.5,236.5 C 305.833,237.167 304.167,237.833 302.5,238.5C 297.831,237.664 293.164,237.164 288.5,237C 289.416,237.278 290.082,237.778 290.5,238.5C 285.967,237.016 281.301,236.35 276.5,236.5C 279.457,235.474 282.624,234.807 286,234.5C 293.082,236.058 300.249,236.724 307.5,236.5 Z"/></g>
<g><path style="opacity:1" fill="#aaf777" d="M 262.5,236.5 C 267.167,237.833 271.833,237.833 276.5,236.5C 281.301,236.35 285.967,237.016 290.5,238.5C 292.868,239.783 295.035,241.45 297,243.5C 297.667,244.833 297.667,246.167 297,247.5C 290.724,249.116 284.558,250.782 278.5,252.5C 275.5,252.167 274.167,253.5 274.5,256.5C 279.833,256.5 285.167,256.5 290.5,256.5C 290.611,257.117 290.944,257.617 291.5,258C 287.196,258.792 283.029,259.958 279,261.5C 279.893,264.436 281.726,266.936 284.5,269C 279.411,271.275 274.078,272.942 268.5,274C 268.043,274.414 267.709,274.914 267.5,275.5C 269.577,278.374 272.244,280.541 275.5,282C 280.365,283.619 285.032,285.619 289.5,288C 284.5,290.833 279.5,293.667 274.5,296.5C 273.817,296.137 273.15,295.804 272.5,295.5C 270.75,294.341 269.75,292.674 269.5,290.5C 268.341,286.849 266.674,283.515 264.5,280.5C 262.399,277.203 261.065,273.537 260.5,269.5C 259.943,264.948 258.943,260.615 257.5,256.5C 256.539,254.735 256.205,252.735 256.5,250.5C 256.5,245.833 256.5,241.167 256.5,236.5C 258.5,236.5 260.5,236.5 262.5,236.5 Z"/></g>
<g><path style="opacity:1" fill="#adfc79" d="M 341.5,236.5 C 353.847,237.46 366.181,237.46 378.5,236.5C 378.5,240.5 378.5,244.5 378.5,248.5C 376.373,257.352 374.373,266.352 372.5,275.5C 371.167,276.833 369.833,276.833 368.5,275.5C 365.679,269.919 361.346,267.919 355.5,269.5C 355.047,268.542 354.381,267.708 353.5,267C 348.156,266.884 343.156,265.717 338.5,263.5C 332.406,261.906 326.072,261.239 319.5,261.5C 322.418,260.635 325.418,259.635 328.5,258.5C 329.641,256.579 329.808,254.579 329,252.5C 323.761,250.286 318.261,248.953 312.5,248.5C 310.563,246.96 309.396,244.96 309,242.5C 307.362,240.266 305.195,238.933 302.5,238.5C 304.167,237.833 305.833,237.167 307.5,236.5C 310.709,236.589 313.875,236.256 317,235.5C 321.941,236.819 326.941,237.819 332,238.5C 335.412,238.386 338.579,237.719 341.5,236.5 Z"/></g>
<g><path style="opacity:1" fill="#4a401a" d="M 457.5,229.5 C 458.581,232.627 459.247,235.96 459.5,239.5C 458.833,248.167 458.167,256.833 457.5,265.5C 457.5,253.5 457.5,241.5 457.5,229.5 Z"/></g>
<g><path style="opacity:1" fill="#9fc5f0" d="M 302.5,238.5 C 305.195,238.933 307.362,240.266 309,242.5C 309.396,244.96 310.563,246.96 312.5,248.5C 318.261,248.953 323.761,250.286 329,252.5C 329.808,254.579 329.641,256.579 328.5,258.5C 325.418,259.635 322.418,260.635 319.5,261.5C 322.625,262.479 325.958,262.813 329.5,262.5C 328.977,265.028 327.977,267.361 326.5,269.5C 329.045,275.32 329.045,281.154 326.5,287C 326.603,288.561 326.937,290.061 327.5,291.5C 324.232,292.487 320.898,292.82 317.5,292.5C 317.5,290.833 317.5,289.167 317.5,287.5C 318.36,283.566 318.693,279.566 318.5,275.5C 316.901,275.232 315.568,275.566 314.5,276.5C 313.513,281.305 313.179,286.305 313.5,291.5C 312.167,291.5 310.833,291.5 309.5,291.5C 306.385,289.965 303.051,289.131 299.5,289C 301.886,290.193 304.22,291.36 306.5,292.5C 308.41,294.562 310.743,296.062 313.5,297C 314.582,298.33 315.249,299.83 315.5,301.5C 326.811,303.24 338.144,303.573 349.5,302.5C 351.429,300.852 353.429,299.185 355.5,297.5C 356.647,295.235 356.814,292.902 356,290.5C 353.993,291.669 351.827,292.335 349.5,292.5C 347.692,291.082 347.025,289.082 347.5,286.5C 344.167,286.5 340.833,286.5 337.5,286.5C 337.5,287.5 337.5,288.5 337.5,289.5C 337.5,289.833 337.5,290.167 337.5,290.5C 336.849,291.091 336.182,291.757 335.5,292.5C 335.167,292 334.833,291.5 334.5,291C 334.994,289.538 335.327,288.038 335.5,286.5C 332.914,280.824 332.914,275.157 335.5,269.5C 334.935,267.595 333.935,265.929 332.5,264.5C 334.396,263.534 336.396,263.201 338.5,263.5C 343.156,265.717 348.156,266.884 353.5,267C 354.381,267.708 355.047,268.542 355.5,269.5C 357.631,270.314 359.964,270.814 362.5,271C 364.114,273.127 366.114,274.627 368.5,275.5C 369.833,276.833 371.167,276.833 372.5,275.5C 366.507,293.988 355.174,308.154 338.5,318C 310.58,327.971 288.58,320.471 272.5,295.5C 273.15,295.804 273.817,296.137 274.5,296.5C 279.5,293.667 284.5,290.833 289.5,288C 285.032,285.619 280.365,283.619 275.5,282C 272.244,280.541 269.577,278.374 267.5,275.5C 267.709,274.914 268.043,274.414 268.5,274C 274.078,272.942 279.411,271.275 284.5,269C 281.726,266.936 279.893,264.436 279,261.5C 283.029,259.958 287.196,258.792 291.5,258C 290.944,257.617 290.611,257.117 290.5,256.5C 285.684,255.674 280.684,255.174 275.5,255C 276.571,254.148 277.571,253.315 278.5,252.5C 284.558,250.782 290.724,249.116 297,247.5C 297.667,246.167 297.667,244.833 297,243.5C 295.035,241.45 292.868,239.783 290.5,238.5C 290.082,237.778 289.416,237.278 288.5,237C 293.164,237.164 297.831,237.664 302.5,238.5 Z"/></g>
<g><path style="opacity:1" fill="#593103" d="M 387.5,214.5 C 388.657,217.273 389.324,220.273 389.5,223.5C 389.433,224.959 389.766,226.292 390.5,227.5C 389.863,235.266 389.196,242.933 388.5,250.5C 388.642,238.482 388.309,226.482 387.5,214.5 Z"/></g>
<g><path style="opacity:1" fill="#310137" d="M 224.5,210.5 C 224.076,224.164 223.743,237.831 223.5,251.5C 222.219,237.806 222.552,224.14 224.5,210.5 Z"/></g>
<g><path style="opacity:1" fill="#00148d" d="M -0.5,239.5 C 58.5,239.5 117.5,239.5 176.5,239.5C 175.758,242.973 175.091,246.473 174.5,250C 174.833,251.167 175.167,252.333 175.5,253.5C 176.973,248.757 178.306,244.09 179.5,239.5C 180.167,247.5 180.833,255.5 181.5,263.5C 181.347,269.869 181.68,276.203 182.5,282.5C 182.212,290.145 183.212,297.478 185.5,304.5C 188.046,321.805 193.38,338.138 201.5,353.5C 201.511,355.017 202.177,356.184 203.5,357C 202.627,358.045 201.627,358.878 200.5,359.5C 133.5,359.5 66.5,359.5 -0.5,359.5C -0.5,319.5 -0.5,279.5 -0.5,239.5 Z"/></g>
<g><path style="opacity:1" fill="#00148d" d="M 459.5,239.5 C 460.694,244.09 462.027,248.757 463.5,253.5C 463.833,252.5 464.167,251.5 464.5,250.5C 463.831,246.82 463.164,243.154 462.5,239.5C 521.5,239.5 580.5,239.5 639.5,239.5C 639.5,279.5 639.5,319.5 639.5,359.5C 572.5,359.5 505.5,359.5 438.5,359.5C 436.195,357.955 435.862,355.955 437.5,353.5C 441.939,345.189 445.606,336.522 448.5,327.5C 450.163,325.562 450.829,323.228 450.5,320.5C 451.665,312.833 452.998,305.166 454.5,297.5C 456.238,292.783 456.904,287.783 456.5,282.5C 456.26,276.773 456.593,271.106 457.5,265.5C 458.167,256.833 458.833,248.167 459.5,239.5 Z"/></g>
<g><path style="opacity:1" fill="#30003c" d="M 414.5,210.5 C 416.475,224.806 416.809,239.14 415.5,253.5C 415.305,239.163 414.972,224.829 414.5,210.5 Z"/></g>
<g><path style="opacity:1" fill="#444a30" d="M 257.5,213.5 C 256.768,220.528 256.768,227.528 257.5,234.5C 259.336,235.028 261.003,235.694 262.5,236.5C 260.5,236.5 258.5,236.5 256.5,236.5C 256.5,241.167 256.5,245.833 256.5,250.5C 255.834,245.511 255.501,240.344 255.5,235C 255.294,227.598 255.961,220.432 257.5,213.5 Z"/></g>
<g><path style="opacity:1" fill="#4e4416" d="M 181.5,229.5 C 181.5,240.833 181.5,252.167 181.5,263.5C 180.833,255.5 180.167,247.5 179.5,239.5C 179.753,235.96 180.419,232.627 181.5,229.5 Z"/></g>
<g><path style="opacity:1" fill="#2d3c35" d="M 278.5,252.5 C 277.571,253.315 276.571,254.148 275.5,255C 280.684,255.174 285.684,255.674 290.5,256.5C 285.167,256.5 279.833,256.5 274.5,256.5C 274.167,253.5 275.5,252.167 278.5,252.5 Z"/></g>
<g><path style="opacity:1" fill="#404e25" d="M 257.5,256.5 C 258.943,260.615 259.943,264.948 260.5,269.5C 258.425,265.526 257.425,261.192 257.5,256.5 Z"/></g>
<g><path style="opacity:1" fill="#4c572b" d="M 378.5,248.5 C 377.894,257.912 375.894,266.912 372.5,275.5C 374.373,266.352 376.373,257.352 378.5,248.5 Z"/></g>
<g><path style="opacity:1" fill="#762802" d="M 246.5,252.5 C 247.623,257.35 248.623,262.35 249.5,267.5C 246.982,262.927 245.982,257.927 246.5,252.5 Z"/></g>
<g><path style="opacity:1" fill="#526a60" d="M 368.5,275.5 C 366.114,274.627 364.114,273.127 362.5,271C 359.964,270.814 357.631,270.314 355.5,269.5C 361.346,267.919 365.679,269.919 368.5,275.5 Z"/></g>
<g><path style="opacity:1" fill="#ae4a02" d="M 317.5,287.5 C 316.539,289.265 316.205,291.265 316.5,293.5C 323.5,293.5 330.5,293.5 337.5,293.5C 337.5,292.5 337.5,291.5 337.5,290.5C 337.5,290.167 337.5,289.833 337.5,289.5C 340.145,287.758 343.145,287.091 346.5,287.5C 346.5,289.5 346.5,291.5 346.5,293.5C 347.791,293.737 348.791,293.404 349.5,292.5C 351.827,292.335 353.993,291.669 356,290.5C 356.814,292.902 356.647,295.235 355.5,297.5C 353.429,299.185 351.429,300.852 349.5,302.5C 338.174,301.967 326.841,301.634 315.5,301.5C 315.249,299.83 314.582,298.33 313.5,297C 310.743,296.062 308.41,294.562 306.5,292.5C 307.209,291.596 308.209,291.263 309.5,291.5C 310.919,292.451 312.585,292.784 314.5,292.5C 314.5,287.167 314.5,281.833 314.5,276.5C 315.568,275.566 316.901,275.232 318.5,275.5C 318.693,279.566 318.36,283.566 317.5,287.5 Z"/></g>
<g><path style="opacity:1" fill="#485026" d="M 264.5,280.5 C 266.674,283.515 268.341,286.849 269.5,290.5C 266.793,287.753 265.127,284.42 264.5,280.5 Z"/></g>
<g><path style="opacity:1" fill="#2b201b" d="M 309.5,291.5 C 308.209,291.263 307.209,291.596 306.5,292.5C 304.22,291.36 301.886,290.193 299.5,289C 303.051,289.131 306.385,289.965 309.5,291.5 Z"/></g>
<g><path style="opacity:1" fill="#2f241e" d="M 349.5,292.5 C 348.791,293.404 347.791,293.737 346.5,293.5C 346.5,291.5 346.5,289.5 346.5,287.5C 343.145,287.091 340.145,287.758 337.5,289.5C 337.5,288.5 337.5,287.5 337.5,286.5C 340.833,286.5 344.167,286.5 347.5,286.5C 347.025,289.082 347.692,291.082 349.5,292.5 Z"/></g>
<g><path style="opacity:1" fill="#403e42" d="M 314.5,276.5 C 314.5,281.833 314.5,287.167 314.5,292.5C 312.585,292.784 310.919,292.451 309.5,291.5C 310.833,291.5 312.167,291.5 313.5,291.5C 313.179,286.305 313.513,281.305 314.5,276.5 Z"/></g>
<g><path style="opacity:1" fill="#2d1f39" d="M 182.5,282.5 C 183.812,289.654 184.812,296.987 185.5,304.5C 183.212,297.478 182.212,290.145 182.5,282.5 Z"/></g>
<g><path style="opacity:1" fill="#353c45" d="M 319.5,261.5 C 326.072,261.239 332.406,261.906 338.5,263.5C 336.396,263.201 334.396,263.534 332.5,264.5C 333.935,265.929 334.935,267.595 335.5,269.5C 332.914,275.157 332.914,280.824 335.5,286.5C 335.327,288.038 334.994,289.538 334.5,291C 334.833,291.5 335.167,292 335.5,292.5C 336.182,291.757 336.849,291.091 337.5,290.5C 337.5,291.5 337.5,292.5 337.5,293.5C 330.5,293.5 323.5,293.5 316.5,293.5C 316.205,291.265 316.539,289.265 317.5,287.5C 317.5,289.167 317.5,290.833 317.5,292.5C 320.898,292.82 324.232,292.487 327.5,291.5C 326.937,290.061 326.603,288.561 326.5,287C 329.045,281.154 329.045,275.32 326.5,269.5C 327.977,267.361 328.977,265.028 329.5,262.5C 325.958,262.813 322.625,262.479 319.5,261.5 Z"/></g>
<g><path style="opacity:1" fill="#a2c9f7" d="M 331.5,267.5 C 332.756,267.461 333.756,267.961 334.5,269C 332.509,271.483 331.509,274.316 331.5,277.5C 333.04,282.356 333.707,287.356 333.5,292.5C 331.833,292.5 330.167,292.5 328.5,292.5C 328.43,287.395 329.096,282.395 330.5,277.5C 330.491,274.316 329.491,271.483 327.5,269C 328.549,268.508 329.549,268.674 330.5,269.5C 331.298,269.043 331.631,268.376 331.5,267.5 Z"/></g>
<g><path style="opacity:1" fill="#2d1f3c" d="M 456.5,282.5 C 456.904,287.783 456.238,292.783 454.5,297.5C 454.741,292.306 455.407,287.306 456.5,282.5 Z"/></g>
<g><path style="opacity:1" fill="#594827" d="M 204.5,291.5 C 205.612,293.599 206.279,295.933 206.5,298.5C 204.837,296.562 204.171,294.228 204.5,291.5 Z"/></g>
<g><path style="opacity:1" fill="#5c4a2a" d="M 433.5,295.5 C 433.829,298.228 433.163,300.562 431.5,302.5C 431.721,299.933 432.388,297.599 433.5,295.5 Z"/></g>
<g><path style="opacity:1" fill="#432d23" d="M 315.5,301.5 C 326.841,301.634 338.174,301.967 349.5,302.5C 338.144,303.573 326.811,303.24 315.5,301.5 Z"/></g>
<g><path style="opacity:1" fill="#7d7a75" d="M 243.5,321.5 C 249.115,321.029 254.781,321.529 260.5,323C 264.919,325.242 267.586,328.742 268.5,333.5C 266.901,333.232 265.568,333.566 264.5,334.5C 261.444,333.412 258.444,333.412 255.5,334.5C 254.842,335.793 254.508,337.293 254.5,339C 254.305,341.352 254.972,343.352 256.5,345C 261.823,345.499 267.156,345.666 272.5,345.5C 272.5,347.833 272.5,350.167 272.5,352.5C 266.974,352.179 261.64,352.512 256.5,353.5C 255.32,355.693 254.32,358.026 253.5,360.5C 253.957,361.298 254.624,361.631 255.5,361.5C 254.066,363.378 252.399,364.045 250.5,363.5C 250.253,359.589 248.753,356.256 246,353.5C 244.649,355.01 242.982,356.01 241,356.5C 237.401,354.571 234.067,352.237 231,349.5C 231.749,347.775 232.915,346.108 234.5,344.5C 236.861,343.565 239.028,342.232 241,340.5C 242.856,342.406 245.023,343.24 247.5,343C 248.833,340 248.833,337 247.5,334C 243.514,333.501 239.514,333.334 235.5,333.5C 235.491,331.692 235.991,330.025 237,328.5C 239.422,326.25 241.589,323.917 243.5,321.5 Z"/></g>
<g><path style="opacity:1" fill="#322335" d="M 450.5,320.5 C 450.829,323.228 450.163,325.562 448.5,327.5C 448.721,324.933 449.388,322.599 450.5,320.5 Z"/></g>
<g><path style="opacity:1" fill="#9d4303" d="M 300.5,331.5 C 303.267,331.858 305.933,332.525 308.5,333.5C 307.4,334.605 306.733,335.938 306.5,337.5C 303.252,339.403 300.252,341.737 297.5,344.5C 292.265,341.934 287.932,338.268 284.5,333.5C 289.396,331.554 294.729,330.887 300.5,331.5 Z"/></g>
<g><path style="opacity:1" fill="#8d7901" d="M 348.5,324.5 C 345.909,326.961 342.909,328.628 339.5,329.5C 337.597,329.796 335.93,330.463 334.5,331.5C 334.167,331.5 333.833,331.5 333.5,331.5C 333.167,331.5 332.833,331.5 332.5,331.5C 332.083,330.876 331.416,330.543 330.5,330.5C 317.298,333.689 304.631,332.189 292.5,326C 297.459,327.091 302.459,328.424 307.5,330C 320.115,331.94 332.115,330.106 343.5,324.5C 345.128,325.535 346.795,325.535 348.5,324.5 Z"/></g>
<g><path style="opacity:1" fill="#b34b00" d="M 333.5,331.5 C 333.833,331.5 334.167,331.5 334.5,331.5C 341.687,331.175 348.687,331.509 355.5,332.5C 354.167,333.167 353.167,334.167 352.5,335.5C 345.492,335.666 338.492,335.5 331.5,335C 331.167,334.667 330.833,334.333 330.5,334C 331.571,333.148 332.571,332.315 333.5,331.5 Z"/></g>
<g><path style="opacity:1" fill="#0000be" d="M 264.5,334.5 C 265.209,335.404 266.209,335.737 267.5,335.5C 271.977,336.739 273.31,339.572 271.5,344C 266.833,344.667 262.167,344.667 257.5,344C 255.66,341.174 254.994,338.007 255.5,334.5C 258.444,333.412 261.444,333.412 264.5,334.5 Z"/></g>
<g><path style="opacity:1" fill="#b24b00" d="M 349.5,338.5 C 348.5,338.833 347.833,339.5 347.5,340.5C 343.818,340.665 340.152,340.499 336.5,340C 335.5,339 334.5,338 333.5,337C 336.167,336.833 338.833,336.667 341.5,336.5C 344.59,336.522 347.257,337.188 349.5,338.5 Z"/></g>
<g><path style="opacity:1" fill="#1e100e" d="M 339.5,329.5 C 346.982,330.492 354.648,330.825 362.5,330.5C 362.5,338.5 362.5,346.5 362.5,354.5C 363.833,354.5 365.167,354.5 366.5,354.5C 366.177,348.31 366.51,342.31 367.5,336.5C 368.708,335.766 370.041,335.433 371.5,335.5C 368.17,337.409 366.836,340.409 367.5,344.5C 379.012,344.172 390.346,344.505 401.5,345.5C 390.167,345.5 378.833,345.5 367.5,345.5C 367.5,347.833 367.5,350.167 367.5,352.5C 368.5,352.5 369.5,352.5 370.5,352.5C 370.833,353.5 371.5,354.167 372.5,354.5C 374.695,356.424 377.028,358.091 379.5,359.5C 378.448,359.351 377.448,359.517 376.5,360C 388.833,373 401.167,386 413.5,399C 415.058,399.21 416.391,399.71 417.5,400.5C 415.973,400.427 414.973,401.094 414.5,402.5C 400.5,388.167 386.5,373.833 372.5,359.5C 371.252,357.351 369.752,355.351 368,353.5C 367.505,355.473 367.338,357.473 367.5,359.5C 366.566,358.432 366.232,357.099 366.5,355.5C 365.167,355.5 363.833,355.5 362.5,355.5C 362.5,358.5 362.5,361.5 362.5,364.5C 360.265,364.795 358.265,364.461 356.5,363.5C 356.567,362.041 356.234,360.708 355.5,359.5C 356.833,352.167 356.833,344.833 355.5,337.5C 356.72,335.716 356.72,334.05 355.5,332.5C 348.687,331.509 341.687,331.175 334.5,331.5C 335.93,330.463 337.597,329.796 339.5,329.5 Z"/></g>
<g><path style="opacity:1" fill="#8f8e89" d="M 357.5,331.5 C 358.833,331.5 360.167,331.5 361.5,331.5C 361.5,342.167 361.5,352.833 361.5,363.5C 360.167,363.5 358.833,363.5 357.5,363.5C 357.5,352.833 357.5,342.167 357.5,331.5 Z"/></g>
<g><path style="opacity:1" fill="#6e6861" d="M 284.5,333.5 C 287.932,338.268 292.265,341.934 297.5,344.5C 300.252,341.737 303.252,339.403 306.5,337.5C 311.833,333.5 312.5,334.167 308.5,339.5C 305.334,341.834 302.667,344.667 300.5,348C 303.67,352.455 307.337,356.288 311.5,359.5C 311.649,360.552 311.483,361.552 311,362.5C 310.329,361.748 309.496,361.414 308.5,361.5C 304.824,358.112 301.157,354.779 297.5,351.5C 293.48,355.189 289.48,358.855 285.5,362.5C 284.503,362.53 283.836,362.03 283.5,361C 284.149,359.31 284.149,357.477 283.5,355.5C 284.822,355.33 285.989,355.663 287,356.5C 287.717,355.956 288.217,355.289 288.5,354.5C 290.144,352.519 291.81,350.519 293.5,348.5C 291.088,345.438 288.755,342.438 286.5,339.5C 285.878,338.373 285.045,337.373 284,336.5C 283.26,335.251 283.427,334.251 284.5,333.5 Z"/></g>
<g><path style="opacity:1" fill="#a64500" d="M 362.5,330.5 C 364.167,330.5 365.833,330.5 367.5,330.5C 367.5,332.5 367.5,334.5 367.5,336.5C 366.51,342.31 366.177,348.31 366.5,354.5C 365.167,354.5 363.833,354.5 362.5,354.5C 362.5,346.5 362.5,338.5 362.5,330.5 Z"/></g>
<g><path style="opacity:1" fill="#898883" d="M 401.5,345.5 C 402.167,345.5 402.833,345.5 403.5,345.5C 401.852,347.456 401.185,349.789 401.5,352.5C 391.167,352.5 380.833,352.5 370.5,352.5C 369.5,352.5 368.5,352.5 367.5,352.5C 367.5,350.167 367.5,347.833 367.5,345.5C 378.833,345.5 390.167,345.5 401.5,345.5 Z"/></g>
<g><path style="opacity:1" fill="#863904" d="M 311.5,359.5 C 307.337,356.288 303.67,352.455 300.5,348C 302.667,344.667 305.334,341.834 308.5,339.5C 310.017,339.489 311.184,338.823 312,337.5C 312.822,345.012 312.655,352.345 311.5,359.5 Z"/></g>
<g><path style="opacity:1" fill="#7c7a75" d="M 355.5,332.5 C 356.72,334.05 356.72,335.716 355.5,337.5C 354.694,338.728 353.694,339.728 352.5,340.5C 346.558,344.773 341.224,349.773 336.5,355.5C 335.833,356.833 334.833,357.833 333.5,358.5C 332.5,358.833 331.833,359.5 331.5,360.5C 331.167,361.5 330.5,362.167 329.5,362.5C 328.566,361.432 328.232,360.099 328.5,358.5C 335.417,353.253 341.751,347.253 347.5,340.5C 347.833,339.5 348.5,338.833 349.5,338.5C 350.833,337.833 351.833,336.833 352.5,335.5C 353.167,334.167 354.167,333.167 355.5,332.5 Z"/></g>
<g><path style="opacity:1" fill="#85837f" d="M 345.5,349.5 C 348.825,352.791 352.158,356.124 355.5,359.5C 356.234,360.708 356.567,362.041 356.5,363.5C 352.202,359.704 348.036,355.704 344,351.5C 343.472,350.184 343.972,349.517 345.5,349.5 Z"/></g>
<g><path style="opacity:1" fill="#9d4200" d="M 286.5,339.5 C 288.755,342.438 291.088,345.438 293.5,348.5C 291.81,350.519 290.144,352.519 288.5,354.5C 286.833,354.5 285.167,354.5 283.5,354.5C 283.334,349.156 283.501,343.823 284,338.5C 284.671,339.252 285.504,339.586 286.5,339.5 Z"/></g>
<g><path style="opacity:1" fill="#4a2d19" d="M 352.5,340.5 C 349.761,343.233 347.427,346.233 345.5,349.5C 343.972,349.517 343.472,350.184 344,351.5C 348.036,355.704 352.202,359.704 356.5,363.5C 358.265,364.461 360.265,364.795 362.5,364.5C 362.5,364.833 362.5,365.167 362.5,365.5C 360.167,365.5 357.833,365.5 355.5,365.5C 354.375,363.871 353.041,362.371 351.5,361C 344.842,360.5 338.175,360.334 331.5,360.5C 331.833,359.5 332.5,358.833 333.5,358.5C 338.65,359.651 343.984,359.817 349.5,359C 348.5,358 347.5,357 346.5,356C 343.183,355.502 339.85,355.335 336.5,355.5C 341.224,349.773 346.558,344.773 352.5,340.5 Z"/></g>
<g><path style="opacity:1" fill="#9c4303" d="M 355.5,337.5 C 356.833,344.833 356.833,352.167 355.5,359.5C 352.158,356.124 348.825,352.791 345.5,349.5C 347.427,346.233 349.761,343.233 352.5,340.5C 353.694,339.728 354.694,338.728 355.5,337.5 Z"/></g>
<g><path style="opacity:1" fill="#3c360a" d="M 370.5,352.5 C 380.833,352.5 391.167,352.5 401.5,352.5C 391.833,353.167 382.167,353.833 372.5,354.5C 371.5,354.167 370.833,353.5 370.5,352.5 Z"/></g>
<g><path style="opacity:1" fill="#f4d500" d="M 256.5,353.5 C 268.249,352.001 269.249,354.001 259.5,359.5C 257.847,359.66 256.514,360.326 255.5,361.5C 254.624,361.631 253.957,361.298 253.5,360.5C 254.32,358.026 255.32,355.693 256.5,353.5 Z"/></g>
<g><path style="opacity:1" fill="#001281" d="M 372.5,359.5 C 370.833,359.5 369.167,359.5 367.5,359.5C 367.338,357.473 367.505,355.473 368,353.5C 369.752,355.351 371.252,357.351 372.5,359.5 Z"/></g>
<g><path style="opacity:1" fill="#b24b00" d="M 336.5,355.5 C 339.85,355.335 343.183,355.502 346.5,356C 347.5,357 348.5,358 349.5,359C 343.984,359.817 338.65,359.651 333.5,358.5C 334.833,357.833 335.833,356.833 336.5,355.5 Z"/></g>
<g><path style="opacity:1" fill="#d9000f" d="M -0.5,359.5 C 66.5,359.5 133.5,359.5 200.5,359.5C 192.378,363.786 186.545,370.119 183,378.5C 190.46,373.374 196.96,367.207 202.5,360C 203.793,359.51 205.127,359.343 206.5,359.5C 209.833,361.5 213.167,363.5 216.5,365.5C 216.918,366.222 217.584,366.722 218.5,367C 224.016,367.817 229.35,367.651 234.5,366.5C 235.167,366.5 235.833,366.5 236.5,366.5C 240.16,366.841 243.493,366.175 246.5,364.5C 247.568,363.566 248.901,363.232 250.5,363.5C 252.399,364.045 254.066,363.378 255.5,361.5C 256.514,360.326 257.847,359.66 259.5,359.5C 260.552,359.351 261.552,359.517 262.5,360C 249.966,373.366 237.3,386.532 224.5,399.5C 223.448,399.351 222.448,399.517 221.5,400C 215.756,405.073 210.756,410.74 206.5,417C 208.976,416.253 211.309,414.919 213.5,413C 217.036,409.296 220.702,405.796 224.5,402.5C 238.5,388.167 252.5,373.833 266.5,359.5C 268.5,359.5 270.5,359.5 272.5,359.5C 272.167,360.833 271.833,362.167 271.5,363.5C 268.933,368.869 267.6,374.536 267.5,380.5C 270.221,380.037 272.888,379.371 275.5,378.5C 277.179,378.285 278.179,378.952 278.5,380.5C 278.5,381.833 278.5,383.167 278.5,384.5C 280.216,384.371 281.883,384.038 283.5,383.5C 279.451,393.413 277.451,403.747 277.5,414.5C 281.09,413.372 284.423,411.705 287.5,409.5C 288.583,409.461 289.583,409.127 290.5,408.5C 291.298,408.957 291.631,409.624 291.5,410.5C 289.928,413.215 288.928,416.215 288.5,419.5C 286.401,420.37 286.068,421.703 287.5,423.5C 289.716,424.806 292.049,425.306 294.5,425C 292.381,424.658 292.047,423.825 293.5,422.5C 296.987,419.164 299.987,415.331 302.5,411C 302.167,410.667 301.833,410.333 301.5,410C 302.416,409.626 303.25,409.126 304,408.5C 306.336,399.648 307.503,390.648 307.5,381.5C 308.487,376.695 308.821,371.695 308.5,366.5C 311.054,365.612 313.721,365.279 316.5,365.5C 316.833,441.5 317.167,441.5 317.5,365.5C 318.5,365.5 319.5,365.5 320.5,365.5C 320.167,384.512 320.5,403.512 321.5,422.5C 322.5,403.845 322.833,385.179 322.5,366.5C 324.099,366.768 325.432,366.434 326.5,365.5C 326.833,365.5 327.167,365.5 327.5,365.5C 329.028,366.802 330.028,368.469 330.5,370.5C 330.185,374.371 330.518,378.038 331.5,381.5C 331.499,390.656 332.665,399.656 335,408.5C 337.791,413.772 341.291,418.438 345.5,422.5C 345.611,423.117 345.944,423.617 346.5,424C 343.425,425.007 340.258,425.507 337,425.5C 332.709,425.353 328.543,424.853 324.5,424C 333.503,428.411 342.503,428.244 351.5,423.5C 352.932,421.703 352.599,420.37 350.5,419.5C 349.863,415.422 348.53,411.589 346.5,408C 349.894,408.676 352.894,410.342 355.5,413C 357.345,414.128 359.345,414.628 361.5,414.5C 361.293,403.8 359.293,393.467 355.5,383.5C 357.117,384.038 358.784,384.371 360.5,384.5C 360.5,383.167 360.5,381.833 360.5,380.5C 360.821,378.952 361.821,378.285 363.5,378.5C 366.215,380.123 369.215,380.79 372.5,380.5C 372.662,378.473 372.495,376.473 372,374.5C 370.278,371.721 369.111,368.721 368.5,365.5C 367.85,363.565 367.517,361.565 367.5,359.5C 369.167,359.5 370.833,359.5 372.5,359.5C 386.5,373.833 400.5,388.167 414.5,402.5C 418.298,405.796 421.964,409.296 425.5,413C 427.691,414.919 430.024,416.253 432.5,417C 428.373,410.706 423.373,405.206 417.5,400.5C 416.391,399.71 415.058,399.21 413.5,399C 401.167,386 388.833,373 376.5,360C 377.448,359.517 378.448,359.351 379.5,359.5C 387.463,363.24 395.797,365.574 404.5,366.5C 409.65,367.651 414.984,367.817 420.5,367C 422.653,366.901 424.319,366.067 425.5,364.5C 427.531,362.478 429.865,360.811 432.5,359.5C 433.978,359.238 435.311,359.571 436.5,360.5C 442.556,367.724 449.389,374.057 457,379.5C 453.119,370.783 446.953,364.117 438.5,359.5C 505.5,359.5 572.5,359.5 639.5,359.5C 639.5,399.5 639.5,439.5 639.5,479.5C 426.167,479.5 212.833,479.5 -0.5,479.5C -0.5,439.5 -0.5,399.5 -0.5,359.5 Z"/></g>
<g><path style="opacity:1" fill="#8f4302" d="M 367.5,359.5 C 367.517,361.565 367.85,363.565 368.5,365.5C 366.5,365.5 364.5,365.5 362.5,365.5C 362.5,365.167 362.5,364.833 362.5,364.5C 362.5,361.5 362.5,358.5 362.5,355.5C 363.833,355.5 365.167,355.5 366.5,355.5C 366.232,357.099 366.566,358.432 367.5,359.5 Z"/></g>
<g><path style="opacity:1" fill="#a54a01" d="M 308.5,361.5 C 309.167,362.5 309.833,363.5 310.5,364.5C 309.833,364.5 309.167,364.5 308.5,364.5C 304.298,364.183 300.298,364.517 296.5,365.5C 296.672,366.492 296.338,367.158 295.5,367.5C 291.971,365.577 287.971,364.911 283.5,365.5C 284.167,364.5 284.833,363.5 285.5,362.5C 289.48,358.855 293.48,355.189 297.5,351.5C 301.157,354.779 304.824,358.112 308.5,361.5 Z"/></g>
<g><path style="opacity:1" fill="#ab4b01" d="M 331.5,360.5 C 338.175,360.334 344.842,360.5 351.5,361C 353.041,362.371 354.375,363.871 355.5,365.5C 351.029,364.911 347.029,365.577 343.5,367.5C 342.662,367.158 342.328,366.492 342.5,365.5C 338.702,364.517 334.702,364.183 330.5,364.5C 330.5,366.5 330.5,368.5 330.5,370.5C 330.028,368.469 329.028,366.802 327.5,365.5C 328.167,364.5 328.833,363.5 329.5,362.5C 330.5,362.167 331.167,361.5 331.5,360.5 Z"/></g>
<g><path style="opacity:1" fill="#614e50" d="M 201.5,353.5 C 203.633,355.091 205.299,357.091 206.5,359.5C 205.127,359.343 203.793,359.51 202.5,360C 196.96,367.207 190.46,373.374 183,378.5C 186.545,370.119 192.378,363.786 200.5,359.5C 201.627,358.878 202.627,358.045 203.5,357C 202.177,356.184 201.511,355.017 201.5,353.5 Z"/></g>
<g><path style="opacity:1" fill="#604c4f" d="M 437.5,353.5 C 435.862,355.955 436.195,357.955 438.5,359.5C 446.953,364.117 453.119,370.783 457,379.5C 449.389,374.057 442.556,367.724 436.5,360.5C 435.311,359.571 433.978,359.238 432.5,359.5C 433.701,357.091 435.367,355.091 437.5,353.5 Z"/></g>
<g><path style="opacity:1" fill="#493f37" d="M 332.5,331.5 C 332.833,331.5 333.167,331.5 333.5,331.5C 332.571,332.315 331.571,333.148 330.5,334C 330.833,334.333 331.167,334.667 331.5,335C 338.492,335.5 345.492,335.666 352.5,335.5C 351.833,336.833 350.833,337.833 349.5,338.5C 347.257,337.188 344.59,336.522 341.5,336.5C 338.833,336.667 336.167,336.833 333.5,337C 334.5,338 335.5,339 336.5,340C 340.152,340.499 343.818,340.665 347.5,340.5C 341.751,347.253 335.417,353.253 328.5,358.5C 328.232,360.099 328.566,361.432 329.5,362.5C 328.833,363.5 328.167,364.5 327.5,365.5C 327.167,365.5 326.833,365.5 326.5,365.5C 324.585,365.784 322.919,365.451 321.5,364.5C 322.494,354.681 322.827,344.681 322.5,334.5C 320.833,334.5 319.167,334.5 317.5,334.5C 317.5,344.5 317.5,354.5 317.5,364.5C 315.167,364.5 312.833,364.5 310.5,364.5C 309.833,363.5 309.167,362.5 308.5,361.5C 309.496,361.414 310.329,361.748 311,362.5C 311.483,361.552 311.649,360.552 311.5,359.5C 312.655,352.345 312.822,345.012 312,337.5C 311.184,338.823 310.017,339.489 308.5,339.5C 312.5,334.167 311.833,333.5 306.5,337.5C 306.733,335.938 307.4,334.605 308.5,333.5C 316.617,333.886 324.617,333.219 332.5,331.5 Z"/></g>
<g><path style="opacity:1" fill="#843803" d="M 328.5,358.5 C 327.345,351.345 327.178,344.012 328,336.5C 331.15,340.617 334.65,344.451 338.5,348C 334.539,351.771 331.206,355.271 328.5,358.5 Z"/></g>
<g><path style="opacity:1" fill="#7a3402" d="M 321.5,364.5 C 321.5,363.167 321.5,361.833 321.5,360.5C 320.5,360.5 319.5,360.5 318.5,360.5C 318.768,362.099 318.434,363.432 317.5,364.5C 317.5,354.5 317.5,344.5 317.5,334.5C 319.167,334.5 320.833,334.5 322.5,334.5C 322.827,344.681 322.494,354.681 321.5,364.5 Z"/></g>
<g><path style="opacity:1" fill="#8f8f89" d="M 323.5,334.5 C 324.5,334.5 325.5,334.5 326.5,334.5C 326.5,344.167 326.5,353.833 326.5,363.5C 325.5,363.5 324.5,363.5 323.5,363.5C 323.5,353.833 323.5,344.167 323.5,334.5 Z"/></g>
<g><path style="opacity:1" fill="#8f8e89" d="M 313.5,334.5 C 314.5,334.5 315.5,334.5 316.5,334.5C 316.5,344.167 316.5,353.833 316.5,363.5C 315.5,363.5 314.5,363.5 313.5,363.5C 313.5,353.833 313.5,344.167 313.5,334.5 Z"/></g>
<g><path style="opacity:1" fill="#f5d603" d="M 271.5,363.5 C 273.114,365.075 275.114,365.741 277.5,365.5C 279.5,365.5 281.5,365.5 283.5,365.5C 287.971,364.911 291.971,365.577 295.5,367.5C 295.455,371.346 294.622,375.013 293,378.5C 289.917,380.292 286.75,381.959 283.5,383.5C 281.883,384.038 280.216,384.371 278.5,384.5C 278.5,383.167 278.5,381.833 278.5,380.5C 279.267,379.828 279.934,378.995 280.5,378C 283.54,377.68 286.54,377.68 289.5,378C 284.649,375.935 279.982,376.101 275.5,378.5C 272.888,379.371 270.221,380.037 267.5,380.5C 267.6,374.536 268.933,368.869 271.5,363.5 Z"/></g>
<g><path style="opacity:1" fill="#4e2906" d="M 246.5,364.5 C 243.493,366.175 240.16,366.841 236.5,366.5C 239.627,365.419 242.96,364.753 246.5,364.5 Z"/></g>
<g><path style="opacity:1" fill="#0d00ba" d="M 296.5,365.5 C 300.167,365.5 303.833,365.5 307.5,365.5C 307.5,370.833 307.5,376.167 307.5,381.5C 307.503,390.648 306.336,399.648 304,408.5C 303.25,409.126 302.416,409.626 301.5,410C 301.833,410.333 302.167,410.667 302.5,411C 299.987,415.331 296.987,419.164 293.5,422.5C 291.883,423.038 290.216,423.371 288.5,423.5C 288.5,422.167 288.5,420.833 288.5,419.5C 288.928,416.215 289.928,413.215 291.5,410.5C 292.404,409.791 292.737,408.791 292.5,407.5C 294.527,407.662 296.527,407.495 298.5,407C 295.833,406.333 293.167,406.333 290.5,407C 289.058,407.377 288.058,408.21 287.5,409.5C 284.423,411.705 281.09,413.372 277.5,414.5C 277.451,403.747 279.451,393.413 283.5,383.5C 286.75,381.959 289.917,380.292 293,378.5C 294.622,375.013 295.455,371.346 295.5,367.5C 296.338,367.158 296.672,366.492 296.5,365.5 Z"/></g>
<g><path style="opacity:1" fill="#8a0a07" d="M 321.5,364.5 C 322.919,365.451 324.585,365.784 326.5,365.5C 325.432,366.434 324.099,366.768 322.5,366.5C 322.833,385.179 322.5,403.845 321.5,422.5C 320.5,403.512 320.167,384.512 320.5,365.5C 319.5,365.5 318.5,365.5 317.5,365.5C 317.167,441.5 316.833,441.5 316.5,365.5C 313.721,365.279 311.054,365.612 308.5,366.5C 308.5,365.833 308.5,365.167 308.5,364.5C 309.167,364.5 309.833,364.5 310.5,364.5C 312.833,364.5 315.167,364.5 317.5,364.5C 318.434,363.432 318.768,362.099 318.5,360.5C 319.5,360.5 320.5,360.5 321.5,360.5C 321.5,361.833 321.5,363.167 321.5,364.5 Z"/></g>
<g><path style="opacity:1" fill="#0f00b7" d="M 342.5,365.5 C 342.328,366.492 342.662,367.158 343.5,367.5C 342.691,376.58 346.691,381.913 355.5,383.5C 359.293,393.467 361.293,403.8 361.5,414.5C 359.345,414.628 357.345,414.128 355.5,413C 352.894,410.342 349.894,408.676 346.5,408C 348.53,411.589 349.863,415.422 350.5,419.5C 350.5,420.833 350.5,422.167 350.5,423.5C 348.784,423.371 347.117,423.038 345.5,422.5C 341.291,418.438 337.791,413.772 335,408.5C 332.665,399.656 331.499,390.656 331.5,381.5C 331.5,376.167 331.5,370.833 331.5,365.5C 335.167,365.5 338.833,365.5 342.5,365.5 Z"/></g>
<g><path style="opacity:1" fill="#f3d305" d="M 355.5,365.5 C 357.833,365.5 360.167,365.5 362.5,365.5C 364.5,365.5 366.5,365.5 368.5,365.5C 369.111,368.721 370.278,371.721 372,374.5C 372.495,376.473 372.662,378.473 372.5,380.5C 369.215,380.79 366.215,380.123 363.5,378.5C 359.018,376.101 354.351,375.935 349.5,378C 352.46,377.68 355.46,377.68 358.5,378C 359.066,378.995 359.733,379.828 360.5,380.5C 360.5,381.833 360.5,383.167 360.5,384.5C 358.784,384.371 357.117,384.038 355.5,383.5C 346.691,381.913 342.691,376.58 343.5,367.5C 347.029,365.577 351.029,364.911 355.5,365.5 Z"/></g>
<g><path style="opacity:1" fill="#432105" d="M 216.5,365.5 C 222.464,366.307 228.464,366.64 234.5,366.5C 229.35,367.651 224.016,367.817 218.5,367C 217.584,366.722 216.918,366.222 216.5,365.5 Z"/></g>
<g><path style="opacity:1" fill="#601f07" d="M 425.5,364.5 C 424.319,366.067 422.653,366.901 420.5,367C 414.984,367.817 409.65,367.651 404.5,366.5C 411.632,366.892 418.632,366.225 425.5,364.5 Z"/></g>
<g><path style="opacity:1" fill="#160256" d="M 296.5,365.5 C 300.298,364.517 304.298,364.183 308.5,364.5C 308.5,365.167 308.5,365.833 308.5,366.5C 308.821,371.695 308.487,376.695 307.5,381.5C 307.5,376.167 307.5,370.833 307.5,365.5C 303.833,365.5 300.167,365.5 296.5,365.5 Z"/></g>
<g><path style="opacity:1" fill="#140358" d="M 342.5,365.5 C 338.833,365.5 335.167,365.5 331.5,365.5C 331.5,370.833 331.5,376.167 331.5,381.5C 330.518,378.038 330.185,374.371 330.5,370.5C 330.5,368.5 330.5,366.5 330.5,364.5C 334.702,364.183 338.702,364.517 342.5,365.5 Z"/></g>
<g><path style="opacity:1" fill="#795a02" d="M 278.5,380.5 C 278.179,378.952 277.179,378.285 275.5,378.5C 279.982,376.101 284.649,375.935 289.5,378C 286.54,377.68 283.54,377.68 280.5,378C 279.934,378.995 279.267,379.828 278.5,380.5 Z"/></g>
<g><path style="opacity:1" fill="#7d5e02" d="M 363.5,378.5 C 361.821,378.285 360.821,378.952 360.5,380.5C 359.733,379.828 359.066,378.995 358.5,378C 355.46,377.68 352.46,377.68 349.5,378C 354.351,375.935 359.018,376.101 363.5,378.5 Z"/></g>
<g><path style="opacity:1" fill="#22100b" d="M 295.5,329.5 C 297.403,329.796 299.07,330.463 300.5,331.5C 294.729,330.887 289.396,331.554 284.5,333.5C 283.427,334.251 283.26,335.251 284,336.5C 285.045,337.373 285.878,338.373 286.5,339.5C 285.504,339.586 284.671,339.252 284,338.5C 283.501,343.823 283.334,349.156 283.5,354.5C 285.167,354.5 286.833,354.5 288.5,354.5C 288.217,355.289 287.717,355.956 287,356.5C 285.989,355.663 284.822,355.33 283.5,355.5C 284.149,357.477 284.149,359.31 283.5,361C 283.836,362.03 284.503,362.53 285.5,362.5C 284.833,363.5 284.167,364.5 283.5,365.5C 281.5,365.5 279.5,365.5 277.5,365.5C 277.5,360.5 277.5,355.5 277.5,350.5C 276.167,350.5 274.833,350.5 273.5,350.5C 273.768,352.099 273.434,353.432 272.5,354.5C 272.103,353.475 271.437,353.308 270.5,354C 269.335,355.992 268.002,357.825 266.5,359.5C 252.5,373.833 238.5,388.167 224.5,402.5C 224.5,401.5 224.5,400.5 224.5,399.5C 237.3,386.532 249.966,373.366 262.5,360C 261.552,359.517 260.552,359.351 259.5,359.5C 269.249,354.001 268.249,352.001 256.5,353.5C 261.64,352.512 266.974,352.179 272.5,352.5C 272.5,350.167 272.5,347.833 272.5,345.5C 267.156,345.666 261.823,345.499 256.5,345C 254.972,343.352 254.305,341.352 254.5,339C 254.508,337.293 254.842,335.793 255.5,334.5C 254.994,338.007 255.66,341.174 257.5,344C 262.167,344.667 266.833,344.667 271.5,344C 273.31,339.572 271.977,336.739 267.5,335.5C 269.167,335.5 270.833,335.5 272.5,335.5C 272.5,333.833 272.5,332.167 272.5,330.5C 280.352,330.825 288.018,330.492 295.5,329.5 Z"/></g>
<g><path style="opacity:1" fill="#8a4005" d="M 277.5,365.5 C 275.114,365.741 273.114,365.075 271.5,363.5C 271.833,362.167 272.167,360.833 272.5,359.5C 272.5,357.833 272.5,356.167 272.5,354.5C 273.434,353.432 273.768,352.099 273.5,350.5C 274.833,350.5 276.167,350.5 277.5,350.5C 277.5,355.5 277.5,360.5 277.5,365.5 Z"/></g>
<g><path style="opacity:1" fill="#001387" d="M 272.5,354.5 C 272.5,356.167 272.5,357.833 272.5,359.5C 270.5,359.5 268.5,359.5 266.5,359.5C 268.002,357.825 269.335,355.992 270.5,354C 271.437,353.308 272.103,353.475 272.5,354.5 Z"/></g>
<g><path style="opacity:1" fill="#9e4200" d="M 273.5,341.5 C 274.833,341.5 276.167,341.5 277.5,341.5C 277.5,344.167 277.5,346.833 277.5,349.5C 276.167,349.5 274.833,349.5 273.5,349.5C 273.5,346.833 273.5,344.167 273.5,341.5 Z"/></g>
<g><path style="opacity:1" fill="#b64d00" d="M 273.5,336.5 C 274.833,336.5 276.167,336.5 277.5,336.5C 277.5,337.833 277.5,339.167 277.5,340.5C 276.167,340.5 274.833,340.5 273.5,340.5C 273.5,339.167 273.5,337.833 273.5,336.5 Z"/></g>
<g><path style="opacity:1" fill="#8d8c87" d="M 278.5,331.5 C 279.833,331.5 281.167,331.5 282.5,331.5C 282.5,342.167 282.5,352.833 282.5,363.5C 281.167,363.5 279.833,363.5 278.5,363.5C 278.5,352.833 278.5,342.167 278.5,331.5 Z"/></g>
<g><path style="opacity:1" fill="#b64c00" d="M 273.5,331.5 C 274.833,331.5 276.167,331.5 277.5,331.5C 277.5,332.833 277.5,334.167 277.5,335.5C 276.167,335.5 274.833,335.5 273.5,335.5C 273.5,334.167 273.5,332.833 273.5,331.5 Z"/></g>
<g><path style="opacity:1" fill="#71605f" d="M 224.5,399.5 C 224.5,400.5 224.5,401.5 224.5,402.5C 220.702,405.796 217.036,409.296 213.5,413C 211.309,414.919 208.976,416.253 206.5,417C 210.756,410.74 215.756,405.073 221.5,400C 222.448,399.517 223.448,399.351 224.5,399.5 Z"/></g>
<g><path style="opacity:1" fill="#726464" d="M 417.5,400.5 C 423.373,405.206 428.373,410.706 432.5,417C 430.024,416.253 427.691,414.919 425.5,413C 421.964,409.296 418.298,405.796 414.5,402.5C 414.973,401.094 415.973,400.427 417.5,400.5 Z"/></g>
<g><path style="opacity:1" fill="#40032a" d="M 291.5,410.5 C 291.631,409.624 291.298,408.957 290.5,408.5C 289.583,409.127 288.583,409.461 287.5,409.5C 288.058,408.21 289.058,407.377 290.5,407C 293.167,406.333 295.833,406.333 298.5,407C 296.527,407.495 294.527,407.662 292.5,407.5C 292.737,408.791 292.404,409.791 291.5,410.5 Z"/></g>
<g><path style="opacity:1" fill="#2f0616" d="M 288.5,419.5 C 288.5,420.833 288.5,422.167 288.5,423.5C 290.216,423.371 291.883,423.038 293.5,422.5C 292.047,423.825 292.381,424.658 294.5,425C 292.049,425.306 289.716,424.806 287.5,423.5C 286.068,421.703 286.401,420.37 288.5,419.5 Z"/></g>
<g><path style="opacity:1" fill="#4f020f" d="M 350.5,419.5 C 352.599,420.37 352.932,421.703 351.5,423.5C 342.503,428.244 333.503,428.411 324.5,424C 328.543,424.853 332.709,425.353 337,425.5C 340.258,425.507 343.425,425.007 346.5,424C 345.944,423.617 345.611,423.117 345.5,422.5C 347.117,423.038 348.784,423.371 350.5,423.5C 350.5,422.167 350.5,420.833 350.5,419.5 Z"/></g>
<g><path style="opacity:1" fill="#6d0006" d="M 311.5,423.5 C 314.598,423.413 314.932,423.913 312.5,425C 306.877,427.222 301.21,427.555 295.5,426C 299.833,425.667 304.167,425.333 308.5,425C 309.737,424.768 310.737,424.268 311.5,423.5 Z"/></g>
</svg>
