<?xml version="1.0" encoding="UTF-8"?>
<!DOCTYPE svg PUBLIC "-//W3C//DTD SVG 1.1//EN" "http://www.w3.org/Graphics/SVG/1.1/DTD/svg11.dtd">
<svg xmlns="http://www.w3.org/2000/svg" version="1.1" width="640px" height="480px" style="shape-rendering:geometricPrecision; text-rendering:geometricPrecision; image-rendering:optimizeQuality; fill-rule:evenodd; clip-rule:evenodd" xmlns:xlink="http://www.w3.org/1999/xlink">
<g><path style="opacity:1" fill="#cd1125" d="M -0.5,-0.5 C 212.833,-0.5 426.167,-0.5 639.5,-0.5C 639.5,52.8333 639.5,106.167 639.5,159.5C 426.167,159.5 212.833,159.5 -0.5,159.5C -0.5,106.167 -0.5,52.8333 -0.5,-0.5 Z"/></g>
<g><path style="opacity:1" fill="#fefefe" d="M -0.5,159.5 C 212.833,159.5 426.167,159.5 639.5,159.5C 639.5,212.833 639.5,266.167 639.5,319.5C 426.167,319.5 212.833,319.5 -0.5,319.5C -0.5,266.167 -0.5,212.833 -0.5,159.5 Z"/></g>
<g><path style="opacity:1" fill="#c69d23" d="M 328.5,169.5 C 328.167,169.5 327.833,169.5 327.5,169.5C 324.405,168.034 321.405,168.368 318.5,170.5C 316.032,169.197 313.699,167.697 311.5,166C 307.979,164.885 306.146,166.051 306,169.5C 307.466,167.675 309.299,167.175 311.5,168C 313.167,169.667 314.833,171.333 316.5,173C 315.552,173.483 314.552,173.649 313.5,173.5C 313.5,176.5 313.5,179.5 313.5,182.5C 313.167,182.5 312.833,182.5 312.5,182.5C 312.837,178.692 312.337,175.026 311,171.5C 308.959,170.577 306.792,170.244 304.5,170.5C 304.357,168.738 304.691,167.071 305.5,165.5C 312.623,163.162 319.623,163.329 326.5,166C 327.823,166.816 328.489,167.983 328.5,169.5 Z"/></g>
<g><path style="opacity:1" fill="#fcfaf5" d="M 327.5,169.5 C 328.178,177.16 329.012,184.827 330,192.5C 330.557,194.615 331.391,196.615 332.5,198.5C 330.218,199.9 328.718,199.234 328,196.5C 327.161,191.773 326.161,187.106 325,182.5C 324.431,188.82 325.597,194.82 328.5,200.5C 328.333,200.833 328.167,201.167 328,201.5C 326.67,200.418 325.17,199.751 323.5,199.5C 322.339,175.581 321.506,175.581 321,199.5C 318.875,200.851 317.708,200.185 317.5,197.5C 319.256,192.277 319.756,186.943 319,181.5C 317.878,187.526 316.711,193.526 315.5,199.5C 313.973,199.427 312.973,200.094 312.5,201.5C 311.506,200.001 311.506,198.334 312.5,196.5C 310.246,198.483 307.913,199.483 305.5,199.5C 309.511,194.477 312.178,188.81 313.5,182.5C 313.5,179.5 313.5,176.5 313.5,173.5C 314.552,173.649 315.552,173.483 316.5,173C 314.833,171.333 313.167,169.667 311.5,168C 309.299,167.175 307.466,167.675 306,169.5C 306.146,166.051 307.979,164.885 311.5,166C 313.699,167.697 316.032,169.197 318.5,170.5C 321.405,168.368 324.405,168.034 327.5,169.5 Z"/></g>
<g><path style="opacity:1" fill="#d7b85c" d="M 312.5,196.5 C 313.474,191.466 314.641,186.466 316,181.5C 316.546,186.978 315.38,191.978 312.5,196.5 Z"/></g>
<g><path style="opacity:1" fill="#fbf8f0" d="M 286.5,192.5 C 288.428,194.474 290.761,195.974 293.5,197C 297.625,198.197 301.625,199.697 305.5,201.5C 306.554,201.32 307.554,200.987 308.5,200.5C 309.504,203.825 310.838,204.159 312.5,201.5C 314.027,201.573 315.027,200.906 315.5,199.5C 316.815,200.476 318.148,201.476 319.5,202.5C 320.852,201.476 322.185,200.476 323.5,199.5C 325.524,202.63 327.858,202.963 330.5,200.5C 331.446,200.987 332.446,201.32 333.5,201.5C 336.613,199.721 339.946,198.555 343.5,198C 346.239,196.974 348.572,195.474 350.5,193.5C 355.27,191.561 360.27,190.728 365.5,191C 368.023,192.563 369.69,194.73 370.5,197.5C 370.631,198.239 370.464,198.906 370,199.5C 367.132,195.849 365.299,196.016 364.5,200C 366.055,225.651 367.388,251.317 368.5,277C 368.475,279.929 367.809,282.429 366.5,284.5C 365.627,255.811 364.294,227.144 362.5,198.5C 357.995,201.762 356.328,206.262 357.5,212C 358.985,233.482 359.485,254.982 359,276.5C 356.775,254.337 355.441,232.003 355,209.5C 354.667,208.167 354.333,206.833 354,205.5C 353,206.5 352,207.5 351,208.5C 350.936,226.172 351.436,243.839 352.5,261.5C 352.461,264.917 352.127,268.25 351.5,271.5C 350.662,271.158 350.328,270.492 350.5,269.5C 349.581,250.715 348.581,231.882 347.5,213C 347.167,212.167 346.833,211.333 346.5,210.5C 343.579,211.407 340.579,211.74 337.5,211.5C 337.158,210.662 336.492,210.328 335.5,210.5C 333.194,210.007 330.861,209.674 328.5,209.5C 325.479,208.033 322.479,206.367 319.5,204.5C 313.44,207.85 307.107,210.184 300.5,211.5C 297.751,211.726 295.084,211.393 292.5,210.5C 292.167,211.333 291.833,212.167 291.5,213C 290.277,231.473 289.443,249.973 289,268.5C 288.333,269.167 287.667,269.833 287,270.5C 286.949,252.662 287.449,234.828 288.5,217C 288.167,213.833 287.833,210.667 287.5,207.5C 286.522,207.023 285.689,206.357 285,205.5C 283.56,229.146 282.06,252.813 280.5,276.5C 279.569,254.993 279.903,233.493 281.5,212C 282.672,206.262 281.005,201.762 276.5,198.5C 274.968,219.141 273.968,239.807 273.5,260.5C 272.513,255.695 272.179,250.695 272.5,245.5C 272.487,230.301 273.154,215.135 274.5,200C 273.701,196.016 271.868,195.849 269,199.5C 268.777,195.78 270.277,192.947 273.5,191C 277.91,190.683 282.243,191.183 286.5,192.5 Z"/></g>
<g><path style="opacity:1" fill="#d7b65b" d="M 371.5,196.5 C 370.833,196.5 370.5,196.833 370.5,197.5C 369.69,194.73 368.023,192.563 365.5,191C 360.27,190.728 355.27,191.561 350.5,193.5C 356.249,189.213 362.416,188.546 369,191.5C 369.847,193.193 370.68,194.86 371.5,196.5 Z"/></g>
<g><path style="opacity:1" fill="#d7b95f" d="M 327.5,169.5 C 327.833,169.5 328.167,169.5 328.5,169.5C 329.753,178.43 331.253,187.43 333,196.5C 335.401,197.602 337.901,197.769 340.5,197C 343.951,196.105 347.284,194.938 350.5,193.5C 348.572,195.474 346.239,196.974 343.5,198C 339.946,198.555 336.613,199.721 333.5,201.5C 332.446,201.32 331.446,200.987 330.5,200.5C 327.858,202.963 325.524,202.63 323.5,199.5C 325.17,199.751 326.67,200.418 328,201.5C 328.167,201.167 328.333,200.833 328.5,200.5C 325.597,194.82 324.431,188.82 325,182.5C 326.161,187.106 327.161,191.773 328,196.5C 328.718,199.234 330.218,199.9 332.5,198.5C 331.391,196.615 330.557,194.615 330,192.5C 329.012,184.827 328.178,177.16 327.5,169.5 Z"/></g>
<g><path style="opacity:1" fill="#c39818" d="M 286.5,192.5 C 282.243,191.183 277.91,190.683 273.5,191C 270.277,192.947 268.777,195.78 269,199.5C 271.868,195.849 273.701,196.016 274.5,200C 273.154,215.135 272.487,230.301 272.5,245.5C 271.512,250.64 271.179,255.974 271.5,261.5C 270.45,269.897 270.45,278.23 271.5,286.5C 269.186,288.477 266.853,290.477 264.5,292.5C 264.417,260.146 265.584,227.813 268,195.5C 268.685,192.943 270.185,191.109 272.5,190C 277.632,188.914 282.299,189.748 286.5,192.5 Z"/></g>
<g><path style="opacity:1" fill="#c39715" d="M 370.5,197.5 C 370.5,196.833 370.833,196.5 371.5,196.5C 373.445,228.505 374.445,260.505 374.5,292.5C 371.479,290.146 368.812,287.479 366.5,284.5C 367.809,282.429 368.475,279.929 368.5,277C 367.388,251.317 366.055,225.651 364.5,200C 365.299,196.016 367.132,195.849 370,199.5C 370.464,198.906 370.631,198.239 370.5,197.5 Z"/></g>
<g><path style="opacity:1" fill="#c39818" d="M 300.5,211.5 C 300.5,211.833 300.5,212.167 300.5,212.5C 299.167,212.5 297.833,212.5 296.5,212.5C 296.292,216.879 296.625,221.213 297.5,225.5C 297.263,228.063 296.763,228.063 296,225.5C 295.093,236.818 294.593,248.151 294.5,259.5C 294.833,260.167 295.167,260.833 295.5,261.5C 294.962,263.117 294.629,264.784 294.5,266.5C 293.508,266.328 292.842,266.662 292.5,267.5C 285.954,272.924 279.62,278.59 273.5,284.5C 272.521,281.375 272.187,278.042 272.5,274.5C 273.486,270.03 273.819,265.363 273.5,260.5C 273.968,239.807 274.968,219.141 276.5,198.5C 281.005,201.762 282.672,206.262 281.5,212C 279.903,233.493 279.569,254.993 280.5,276.5C 282.06,252.813 283.56,229.146 285,205.5C 285.689,206.357 286.522,207.023 287.5,207.5C 287.833,210.667 288.167,213.833 288.5,217C 287.449,234.828 286.949,252.662 287,270.5C 287.667,269.833 288.333,269.167 289,268.5C 289.443,249.973 290.277,231.473 291.5,213C 291.833,212.167 292.167,211.333 292.5,210.5C 295.084,211.393 297.751,211.726 300.5,211.5 Z"/></g>
<g><path style="opacity:1" fill="#c39817" d="M 366.5,284.5 C 361.205,280.54 356.205,276.207 351.5,271.5C 352.127,268.25 352.461,264.917 352.5,261.5C 351.436,243.839 350.936,226.172 351,208.5C 352,207.5 353,206.5 354,205.5C 354.333,206.833 354.667,208.167 355,209.5C 355.441,232.003 356.775,254.337 359,276.5C 359.485,254.982 358.985,233.482 357.5,212C 356.328,206.262 357.995,201.762 362.5,198.5C 364.294,227.144 365.627,255.811 366.5,284.5 Z"/></g>
<g><path style="opacity:1" fill="#d7b85d" d="M 312.5,182.5 C 312.833,182.5 313.167,182.5 313.5,182.5C 312.178,188.81 309.511,194.477 305.5,199.5C 307.913,199.483 310.246,198.483 312.5,196.5C 311.506,198.334 311.506,200.001 312.5,201.5C 310.838,204.159 309.504,203.825 308.5,200.5C 307.554,200.987 306.554,201.32 305.5,201.5C 301.625,199.697 297.625,198.197 293.5,197C 290.761,195.974 288.428,194.474 286.5,192.5C 290.145,193.987 293.812,195.487 297.5,197C 300.167,197.667 302.833,197.667 305.5,197C 308.816,192.538 311.149,187.705 312.5,182.5 Z"/></g>
<g><path style="opacity:1" fill="#d3b34f" d="M 315.5,199.5 C 315.027,200.906 314.027,201.573 312.5,201.5C 312.973,200.094 313.973,199.427 315.5,199.5 Z"/></g>
<g><path style="opacity:1" fill="#d4b351" d="M 323.5,199.5 C 322.185,200.476 320.852,201.476 319.5,202.5C 318.148,201.476 316.815,200.476 315.5,199.5C 316.711,193.526 317.878,187.526 319,181.5C 319.756,186.943 319.256,192.277 317.5,197.5C 317.708,200.185 318.875,200.851 321,199.5C 321.506,175.581 322.339,175.581 323.5,199.5 Z"/></g>
<g><path style="opacity:1" fill="#e5d092" d="M 328.5,209.5 C 325.075,209.367 324.742,210.033 327.5,211.5C 324.646,211.076 321.979,210.076 319.5,208.5C 317.021,210.076 314.354,211.076 311.5,211.5C 311.333,224.504 311.5,237.504 312,250.5C 314.349,253.017 316.849,255.35 319.5,257.5C 322.186,255.144 324.853,252.811 327.5,250.5C 328.5,249.833 329.5,249.167 330.5,248.5C 330.443,249.609 330.11,250.609 329.5,251.5C 327.167,253.167 325.167,255.167 323.5,257.5C 322.185,258.476 320.852,259.476 319.5,260.5C 318.148,259.476 316.815,258.476 315.5,257.5C 313.833,255.167 311.833,253.167 309.5,251.5C 308.89,250.609 308.557,249.609 308.5,248.5C 309.117,248.611 309.617,248.944 310,249.5C 310.5,236.838 310.667,224.171 310.5,211.5C 307.461,212.01 304.461,212.677 301.5,213.5C 301.5,212.833 301.167,212.5 300.5,212.5C 300.5,212.167 300.5,211.833 300.5,211.5C 307.107,210.184 313.44,207.85 319.5,204.5C 322.479,206.367 325.479,208.033 328.5,209.5 Z"/></g>
<g><path style="opacity:1" fill="#fefefe" d="M 327.5,211.5 C 327.5,224.5 327.5,237.5 327.5,250.5C 324.853,252.811 322.186,255.144 319.5,257.5C 316.849,255.35 314.349,253.017 312,250.5C 311.5,237.504 311.333,224.504 311.5,211.5C 314.354,211.076 317.021,210.076 319.5,208.5C 321.979,210.076 324.646,211.076 327.5,211.5 Z"/></g>
<g><path style="opacity:1" fill="#d7b95d" d="M 328.5,209.5 C 330.861,209.674 333.194,210.007 335.5,210.5C 333.047,211.645 330.713,211.312 328.5,209.5 Z"/></g>
<g><path style="opacity:1" fill="#c59b1e" d="M 350.5,269.5 C 348.938,269.267 347.605,268.6 346.5,267.5C 346.158,266.662 345.492,266.328 344.5,266.5C 344.134,264.095 343.467,261.762 342.5,259.5C 342.253,258.287 341.586,257.62 340.5,257.5C 340.764,251.898 339.764,246.565 337.5,241.5C 337.5,239.833 337.5,238.167 337.5,236.5C 339.129,234.142 340.295,231.476 341,228.5C 341.391,238.918 342.391,249.251 344,259.5C 344.37,247.822 344.037,236.156 343,224.5C 342.667,225.5 342.333,226.5 342,227.5C 341.833,226.833 341.667,226.167 341.5,225.5C 342.375,221.213 342.708,216.879 342.5,212.5C 340.585,212.784 338.919,212.451 337.5,211.5C 340.579,211.74 343.579,211.407 346.5,210.5C 346.833,211.333 347.167,212.167 347.5,213C 348.581,231.882 349.581,250.715 350.5,269.5 Z"/></g>
<g><path style="opacity:1" fill="#c19407" d="M 308.5,248.5 C 306.163,244.492 303.83,240.492 301.5,236.5C 298.981,229.055 297.648,221.389 297.5,213.5C 298.833,213.5 300.167,213.5 301.5,213.5C 304.461,212.677 307.461,212.01 310.5,211.5C 310.667,224.171 310.5,236.838 310,249.5C 309.617,248.944 309.117,248.611 308.5,248.5 Z"/></g>
<g><path style="opacity:1" fill="#c19406" d="M 327.5,211.5 C 332.107,212.554 336.773,213.221 341.5,213.5C 341.196,221.353 339.863,229.02 337.5,236.5C 335.17,240.492 332.837,244.492 330.5,248.5C 329.5,249.167 328.5,249.833 327.5,250.5C 327.5,237.5 327.5,224.5 327.5,211.5 Z"/></g>
<g><path style="opacity:1" fill="#f5ecd3" d="M 328.5,209.5 C 330.713,211.312 333.047,211.645 335.5,210.5C 336.492,210.328 337.158,210.662 337.5,211.5C 338.919,212.451 340.585,212.784 342.5,212.5C 342.708,216.879 342.375,221.213 341.5,225.5C 341.667,226.167 341.833,226.833 342,227.5C 342.333,226.5 342.667,225.5 343,224.5C 344.037,236.156 344.37,247.822 344,259.5C 342.391,249.251 341.391,238.918 341,228.5C 340.295,231.476 339.129,234.142 337.5,236.5C 339.863,229.02 341.196,221.353 341.5,213.5C 336.773,213.221 332.107,212.554 327.5,211.5C 324.742,210.033 325.075,209.367 328.5,209.5 Z"/></g>
<g><path style="opacity:1" fill="#f8f2e2" d="M 300.5,212.5 C 301.167,212.5 301.5,212.833 301.5,213.5C 300.167,213.5 298.833,213.5 297.5,213.5C 297.648,221.389 298.981,229.055 301.5,236.5C 299.871,234.142 298.705,231.476 298,228.5C 297.501,233.489 297.334,238.489 297.5,243.5C 297.006,248.932 296.006,254.265 294.5,259.5C 294.593,248.151 295.093,236.818 296,225.5C 296.763,228.063 297.263,228.063 297.5,225.5C 296.625,221.213 296.292,216.879 296.5,212.5C 297.833,212.5 299.167,212.5 300.5,212.5 Z"/></g>
<g><path style="opacity:1" fill="#c39812" d="M 301.5,236.5 C 301.33,237.822 301.663,238.989 302.5,240C 300.32,243.886 298.986,248.053 298.5,252.5C 297.523,249.713 297.19,246.713 297.5,243.5C 297.334,238.489 297.501,233.489 298,228.5C 298.705,231.476 299.871,234.142 301.5,236.5 Z"/></g>
<g><path style="opacity:1" fill="#faf4e7" d="M 301.5,236.5 C 303.83,240.492 306.163,244.492 308.5,248.5C 307.833,248.167 307.167,247.833 306.5,247.5C 305.928,246.027 305.095,244.693 304,243.5C 304.215,246.811 304.215,250.144 304,253.5C 302.649,255.019 301.149,256.352 299.5,257.5C 297.576,256.035 297.243,254.368 298.5,252.5C 298.986,248.053 300.32,243.886 302.5,240C 301.663,238.989 301.33,237.822 301.5,236.5 Z"/></g>
<g><path style="opacity:1" fill="#fcfaf3" d="M 337.5,241.5 C 339.764,246.565 340.764,251.898 340.5,257.5C 336.112,256.109 334.112,253.109 334.5,248.5C 335.055,245.904 336.055,243.571 337.5,241.5 Z"/></g>
<g><path style="opacity:1" fill="#e2ca84" d="M 337.5,236.5 C 337.5,238.167 337.5,239.833 337.5,241.5C 336.055,243.571 335.055,245.904 334.5,248.5C 334.167,248.5 333.833,248.5 333.5,248.5C 333.5,247.833 333.167,247.5 332.5,247.5C 331.833,247.833 331.167,248.167 330.5,248.5C 332.837,244.492 335.17,240.492 337.5,236.5 Z"/></g>
<g><path style="opacity:1" fill="#fbf8ef" d="M 332.5,247.5 C 333.167,247.5 333.5,247.833 333.5,248.5C 333.798,251.336 333.131,251.836 331.5,250C 332.252,249.329 332.586,248.496 332.5,247.5 Z"/></g>
<g><path style="opacity:1" fill="#d5b657" d="M 297.5,243.5 C 297.19,246.713 297.523,249.713 298.5,252.5C 297.243,254.368 297.576,256.035 299.5,257.5C 301.149,256.352 302.649,255.019 304,253.5C 304.215,250.144 304.215,246.811 304,243.5C 305.095,244.693 305.928,246.027 306.5,247.5C 307.167,247.833 307.833,248.167 308.5,248.5C 308.557,249.609 308.89,250.609 309.5,251.5C 311.833,253.167 313.833,255.167 315.5,257.5C 315.737,258.791 315.404,259.791 314.5,260.5C 314.426,256.459 313.093,255.792 310.5,258.5C 311.785,261.021 312.452,263.687 312.5,266.5C 311.208,264.745 310.208,262.745 309.5,260.5C 308.186,261.313 307.019,262.313 306,263.5C 305.333,260.833 304.667,258.167 304,255.5C 302.649,257.019 301.149,258.352 299.5,259.5C 298.522,259.023 297.689,258.357 297,257.5C 296.79,259.058 296.29,260.391 295.5,261.5C 295.167,260.833 294.833,260.167 294.5,259.5C 296.006,254.265 297.006,248.932 297.5,243.5 Z"/></g>
<g><path style="opacity:1" fill="#fdfcf8" d="M 309.5,251.5 C 309.511,253.017 310.177,254.184 311.5,255C 306.847,262.549 305.347,261.716 307,252.5C 307.671,251.748 308.504,251.414 309.5,251.5 Z"/></g>
<g><path style="opacity:1" fill="#fbf8f0" d="M 306.5,247.5 C 307.677,249.103 307.511,250.436 306,251.5C 305.235,249.934 305.402,248.601 306.5,247.5 Z"/></g>
<g><path style="opacity:1" fill="#fdfbf6" d="M 312.5,266.5 C 312.167,267.833 311.833,269.167 311.5,270.5C 310.518,271.141 309.518,271.807 308.5,272.5C 307.604,269.856 306.771,267.19 306,264.5C 304.519,265.471 303.685,266.804 303.5,268.5C 302.609,269.11 301.609,269.443 300.5,269.5C 300.741,262.557 298.908,261.89 295,267.5C 294.601,267.272 294.435,266.938 294.5,266.5C 294.629,264.784 294.962,263.117 295.5,261.5C 296.29,260.391 296.79,259.058 297,257.5C 297.689,258.357 298.522,259.023 299.5,259.5C 301.149,258.352 302.649,257.019 304,255.5C 304.667,258.167 305.333,260.833 306,263.5C 307.019,262.313 308.186,261.313 309.5,260.5C 310.208,262.745 311.208,264.745 312.5,266.5 Z"/></g>
<g><path style="opacity:1" fill="#d6b75a" d="M 332.5,247.5 C 332.586,248.496 332.252,249.329 331.5,250C 333.131,251.836 333.798,251.336 333.5,248.5C 333.833,248.5 334.167,248.5 334.5,248.5C 334.112,253.109 336.112,256.109 340.5,257.5C 340.631,258.376 340.298,259.043 339.5,259.5C 337.851,258.352 336.351,257.019 335,255.5C 334.08,258.101 333.413,260.768 333,263.5C 331.981,262.313 330.814,261.313 329.5,260.5C 328.34,262.875 327.34,265.208 326.5,267.5C 326.167,266.833 325.833,266.167 325.5,265.5C 327.453,262.76 327.786,259.76 326.5,256.5C 324.889,257.32 324.222,258.654 324.5,260.5C 323.596,259.791 323.263,258.791 323.5,257.5C 325.167,255.167 327.167,253.167 329.5,251.5C 330.11,250.609 330.443,249.609 330.5,248.5C 331.167,248.167 331.833,247.833 332.5,247.5 Z"/></g>
<g><path style="opacity:1" fill="#fdfcf9" d="M 329.5,251.5 C 330.496,251.414 331.329,251.748 332,252.5C 333.653,261.716 332.153,262.549 327.5,255C 328.823,254.184 329.489,253.017 329.5,251.5 Z"/></g>
<g><path style="opacity:1" fill="#fdfbf6" d="M 340.5,257.5 C 341.586,257.62 342.253,258.287 342.5,259.5C 343.467,261.762 344.134,264.095 344.5,266.5C 344.565,266.938 344.399,267.272 344,267.5C 342.667,266.167 341.333,264.833 340,263.5C 339,265.5 338,267.5 337,269.5C 336.047,267.545 334.713,265.878 333,264.5C 332.465,267.969 331.298,270.969 329.5,273.5C 329.573,271.973 328.906,270.973 327.5,270.5C 327.443,269.391 327.11,268.391 326.5,267.5C 327.34,265.208 328.34,262.875 329.5,260.5C 330.814,261.313 331.981,262.313 333,263.5C 333.413,260.768 334.08,258.101 335,255.5C 336.351,257.019 337.851,258.352 339.5,259.5C 340.298,259.043 340.631,258.376 340.5,257.5 Z"/></g>
<g><path style="opacity:1" fill="#faf5e8" d="M 314.5,260.5 C 314.741,262.898 314.074,264.898 312.5,266.5C 312.452,263.687 311.785,261.021 310.5,258.5C 313.093,255.792 314.426,256.459 314.5,260.5 Z"/></g>
<g><path style="opacity:1" fill="#fcf8f0" d="M 325.5,265.5 C 324.699,263.958 324.366,262.292 324.5,260.5C 324.222,258.654 324.889,257.32 326.5,256.5C 327.786,259.76 327.453,262.76 325.5,265.5 Z"/></g>
<g><path style="opacity:1" fill="#c59c20" d="M 315.5,257.5 C 316.815,258.476 318.148,259.476 319.5,260.5C 320.852,259.476 322.185,258.476 323.5,257.5C 323.263,258.791 323.596,259.791 324.5,260.5C 324.366,262.292 324.699,263.958 325.5,265.5C 325.833,266.167 326.167,266.833 326.5,267.5C 327.11,268.391 327.443,269.391 327.5,270.5C 326.903,270.735 326.57,271.235 326.5,272C 327.872,275.026 328.538,278.193 328.5,281.5C 328.875,283.698 329.542,285.698 330.5,287.5C 330.5,288.5 330.5,289.5 330.5,290.5C 334.295,291.041 336.295,289.375 336.5,285.5C 337.892,286.605 339.059,287.939 340,289.5C 342.309,286.758 342.809,283.758 341.5,280.5C 342.167,280.833 342.833,281.167 343.5,281.5C 343.328,282.492 343.662,283.158 344.5,283.5C 345.6,284.605 346.267,285.938 346.5,287.5C 343.867,284.754 342.534,285.421 342.5,289.5C 346.5,289.833 346.5,290.167 342.5,290.5C 339.762,291.035 337.928,290.035 337,287.5C 336.421,288.928 336.588,290.262 337.5,291.5C 333.167,291.5 328.833,291.5 324.5,291.5C 326.042,290.837 327.709,290.17 329.5,289.5C 327.576,289.894 325.743,289.227 324,287.5C 323.667,285.5 323.333,283.5 323,281.5C 322.759,284.289 322.092,286.956 321,289.5C 320.282,290.451 319.449,290.617 318.5,290C 316.821,287.435 316.154,284.602 316.5,281.5C 317.641,278.36 317.808,275.027 317,271.5C 316.637,274.544 316.137,277.544 315.5,280.5C 317.018,286.494 315.018,289.494 309.5,289.5C 311.291,290.17 312.958,290.837 314.5,291.5C 310.167,291.5 305.833,291.5 301.5,291.5C 303.117,288.924 302.783,287.924 300.5,288.5C 300.415,287.005 301.081,286.005 302.5,285.5C 302.705,289.375 304.705,291.041 308.5,290.5C 308.854,286.363 308.354,282.363 307,278.5C 306.617,279.056 306.117,279.389 305.5,279.5C 306.901,275.457 306.734,271.457 305,267.5C 304.617,268.056 304.117,268.389 303.5,268.5C 303.685,266.804 304.519,265.471 306,264.5C 306.771,267.19 307.604,269.856 308.5,272.5C 309.518,271.807 310.518,271.141 311.5,270.5C 311.833,269.167 312.167,267.833 312.5,266.5C 314.074,264.898 314.741,262.898 314.5,260.5C 315.404,259.791 315.737,258.791 315.5,257.5 Z"/></g>
<g><path style="opacity:1" fill="#ecddaf" d="M 272.5,245.5 C 272.179,250.695 272.513,255.695 273.5,260.5C 273.819,265.363 273.486,270.03 272.5,274.5C 272.818,269.968 272.485,265.634 271.5,261.5C 271.179,255.974 271.512,250.64 272.5,245.5 Z"/></g>
<g><path style="opacity:1" fill="#fdfbf7" d="M 300.5,269.5 C 300.351,270.552 300.517,271.552 301,272.5C 302.481,271.529 303.315,270.196 303.5,268.5C 304.117,268.389 304.617,268.056 305,267.5C 306.734,271.457 306.901,275.457 305.5,279.5C 304.542,279.953 303.708,280.619 303,281.5C 301.722,274.049 299.889,273.715 297.5,280.5C 296.883,280.611 296.383,280.944 296,281.5C 295.245,278.312 294.411,275.145 293.5,272C 294.628,269.704 296.295,267.871 298.5,266.5C 299.176,267.602 299.842,268.602 300.5,269.5 Z"/></g>
<g><path style="opacity:1" fill="#d2b04c" d="M 303.5,268.5 C 303.315,270.196 302.481,271.529 301,272.5C 300.517,271.552 300.351,270.552 300.5,269.5C 301.609,269.443 302.609,269.11 303.5,268.5 Z"/></g>
<g><path style="opacity:1" fill="#d2b14b" d="M 327.5,270.5 C 328.906,270.973 329.573,271.973 329.5,273.5C 328.094,273.027 327.427,272.027 327.5,270.5 Z"/></g>
<g><path style="opacity:1" fill="#d5b657" d="M 300.5,269.5 C 299.842,268.602 299.176,267.602 298.5,266.5C 296.295,267.871 294.628,269.704 293.5,272C 294.411,275.145 295.245,278.312 296,281.5C 296.383,280.944 296.883,280.611 297.5,280.5C 296.223,283.205 296.39,285.872 298,288.5C 298.77,289.598 299.603,289.598 300.5,288.5C 302.783,287.924 303.117,288.924 301.5,291.5C 300.761,291.369 300.094,291.536 299.5,292C 301.577,292.192 303.577,292.692 305.5,293.5C 303.955,294.452 302.288,294.785 300.5,294.5C 300.5,293.833 300.167,293.5 299.5,293.5C 297.737,292.046 296.403,292.38 295.5,294.5C 295.167,294.5 294.833,294.5 294.5,294.5C 294.511,292.983 295.177,291.816 296.5,291C 292.551,290.193 292.551,289.693 296.5,289.5C 296.466,285.421 295.133,284.754 292.5,287.5C 290.897,289.294 288.73,290.294 286,290.5C 284.078,288.895 282.911,289.228 282.5,291.5C 281.833,291.5 281.167,291.5 280.5,291.5C 280.283,287.94 279.283,287.94 277.5,291.5C 277.167,291.5 276.833,291.5 276.5,291.5C 277.537,288.234 279.87,286.567 283.5,286.5C 284.554,286.68 285.554,287.013 286.5,287.5C 289.104,281.02 291.104,274.353 292.5,267.5C 292.842,266.662 293.508,266.328 294.5,266.5C 294.435,266.938 294.601,267.272 295,267.5C 298.908,261.89 300.741,262.557 300.5,269.5 Z"/></g>
<g><path style="opacity:1" fill="#f9f4e6" d="M 311.5,270.5 C 312.097,270.735 312.43,271.235 312.5,272C 311.287,275.066 310.453,278.233 310,281.5C 309.5,280 309,278.5 308.5,277C 309.391,274.721 310.391,272.554 311.5,270.5 Z"/></g>
<g><path style="opacity:1" fill="#f9f4e7" d="M 327.5,270.5 C 327.427,272.027 328.094,273.027 329.5,273.5C 330.847,276.432 330.514,279.098 328.5,281.5C 328.538,278.193 327.872,275.026 326.5,272C 326.57,271.235 326.903,270.735 327.5,270.5 Z"/></g>
<g><path style="opacity:1" fill="#d7b85c" d="M 344.5,266.5 C 345.492,266.328 346.158,266.662 346.5,267.5C 347.896,274.353 349.896,281.02 352.5,287.5C 353.183,287.137 353.85,286.804 354.5,286.5C 355.514,287.674 356.847,288.34 358.5,288.5C 358.5,289.5 358.5,290.5 358.5,291.5C 357.833,291.5 357.167,291.5 356.5,291.5C 356.089,289.228 354.922,288.895 353,290.5C 350.27,290.294 348.103,289.294 346.5,287.5C 348.23,288.976 349.563,288.642 350.5,286.5C 349.317,282.762 347.984,279.095 346.5,275.5C 345.205,278.012 344.539,280.679 344.5,283.5C 343.662,283.158 343.328,282.492 343.5,281.5C 343.768,278.26 344.434,275.094 345.5,272C 342.078,264.825 339.578,264.992 338,272.5C 336.426,271.016 335.093,269.349 334,267.5C 332.266,271.457 332.099,275.457 333.5,279.5C 332.175,278.047 331.342,278.381 331,280.5C 330.503,282.81 330.337,285.143 330.5,287.5C 329.542,285.698 328.875,283.698 328.5,281.5C 330.514,279.098 330.847,276.432 329.5,273.5C 331.298,270.969 332.465,267.969 333,264.5C 334.713,265.878 336.047,267.545 337,269.5C 338,267.5 339,265.5 340,263.5C 341.333,264.833 342.667,266.167 344,267.5C 344.399,267.272 344.565,266.938 344.5,266.5 Z"/></g>
<g><path style="opacity:1" fill="#fdfbf7" d="M 343.5,281.5 C 342.833,281.167 342.167,280.833 341.5,280.5C 339.111,273.715 337.278,274.049 336,281.5C 335.292,280.619 334.458,279.953 333.5,279.5C 332.099,275.457 332.266,271.457 334,267.5C 335.093,269.349 336.426,271.016 338,272.5C 339.578,264.992 342.078,264.825 345.5,272C 344.434,275.094 343.768,278.26 343.5,281.5 Z"/></g>
<g><path style="opacity:1" fill="#fdfbf7" d="M 292.5,287.5 C 290.77,288.976 289.437,288.642 288.5,286.5C 289.683,282.762 291.016,279.095 292.5,275.5C 295.067,279.591 295.067,283.591 292.5,287.5 Z"/></g>
<g><path style="opacity:1" fill="#fdfbf7" d="M 346.5,287.5 C 346.267,285.938 345.6,284.605 344.5,283.5C 344.539,280.679 345.205,278.012 346.5,275.5C 347.984,279.095 349.317,282.762 350.5,286.5C 349.563,288.642 348.23,288.976 346.5,287.5 Z"/></g>
<g><path style="opacity:1" fill="#e2cd8a" d="M 316.5,281.5 C 316.5,280.833 316.167,280.5 315.5,280.5C 316.137,277.544 316.637,274.544 317,271.5C 317.808,275.027 317.641,278.36 316.5,281.5 Z"/></g>
<g><path style="opacity:1" fill="#fdfbf6" d="M 305.5,279.5 C 306.117,279.389 306.617,279.056 307,278.5C 308.354,282.363 308.854,286.363 308.5,290.5C 304.705,291.041 302.705,289.375 302.5,285.5C 301.081,286.005 300.415,287.005 300.5,288.5C 299.603,289.598 298.77,289.598 298,288.5C 296.39,285.872 296.223,283.205 297.5,280.5C 298.79,279.942 299.623,278.942 300,277.5C 300.815,279.623 301.815,281.623 303,283.5C 304.481,282.529 305.315,281.196 305.5,279.5 Z"/></g>
<g><path style="opacity:1" fill="#fdfbf6" d="M 341.5,280.5 C 342.809,283.758 342.309,286.758 340,289.5C 339.059,287.939 337.892,286.605 336.5,285.5C 336.295,289.375 334.295,291.041 330.5,290.5C 330.5,289.5 330.5,288.5 330.5,287.5C 330.337,285.143 330.503,282.81 331,280.5C 331.342,278.381 332.175,278.047 333.5,279.5C 333.685,281.196 334.519,282.529 336,283.5C 337.185,281.623 338.185,279.623 339,277.5C 339.377,278.942 340.21,279.942 341.5,280.5 Z"/></g>
<g><path style="opacity:1" fill="#cfac40" d="M 305.5,279.5 C 305.315,281.196 304.481,282.529 303,283.5C 301.815,281.623 300.815,279.623 300,277.5C 299.623,278.942 298.79,279.942 297.5,280.5C 299.889,273.715 301.722,274.049 303,281.5C 303.708,280.619 304.542,279.953 305.5,279.5 Z"/></g>
<g><path style="opacity:1" fill="#cfab3f" d="M 341.5,280.5 C 340.21,279.942 339.377,278.942 339,277.5C 338.185,279.623 337.185,281.623 336,283.5C 334.519,282.529 333.685,281.196 333.5,279.5C 334.458,279.953 335.292,280.619 336,281.5C 337.278,274.049 339.111,273.715 341.5,280.5 Z"/></g>
<g><path style="opacity:1" fill="#f3e8ca" d="M 271.5,261.5 C 272.485,265.634 272.818,269.968 272.5,274.5C 272.187,278.042 272.521,281.375 273.5,284.5C 273.167,285.5 272.5,286.167 271.5,286.5C 270.45,278.23 270.45,269.897 271.5,261.5 Z"/></g>
<g><path style="opacity:1" fill="#fbf8ef" d="M 315.5,280.5 C 316.167,280.5 316.5,280.833 316.5,281.5C 316.154,284.602 316.821,287.435 318.5,290C 319.449,290.617 320.282,290.451 321,289.5C 322.092,286.956 322.759,284.289 323,281.5C 323.333,283.5 323.667,285.5 324,287.5C 325.743,289.227 327.576,289.894 329.5,289.5C 327.709,290.17 326.042,290.837 324.5,291.5C 322.393,291.722 320.726,292.722 319.5,294.5C 318.274,292.722 316.607,291.722 314.5,291.5C 312.958,290.837 311.291,290.17 309.5,289.5C 315.018,289.494 317.018,286.494 315.5,280.5 Z"/></g>
<g><path style="opacity:1" fill="#fbf8ee" d="M 280.5,291.5 C 279.348,292.625 278.348,292.625 277.5,291.5C 279.283,287.94 280.283,287.94 280.5,291.5 Z"/></g>
<g><path style="opacity:1" fill="#f7efda" d="M 346.5,287.5 C 348.103,289.294 350.27,290.294 353,290.5C 354.922,288.895 356.089,289.228 356.5,291.5C 352.612,292.973 348.612,293.473 344.5,293C 343.619,292.292 342.953,291.458 342.5,290.5C 346.5,290.167 346.5,289.833 342.5,289.5C 342.534,285.421 343.867,284.754 346.5,287.5 Z"/></g>
<g><path style="opacity:1" fill="#f3e7c7" d="M 294.5,294.5 C 290.5,293.5 286.5,292.5 282.5,291.5C 282.911,289.228 284.078,288.895 286,290.5C 288.73,290.294 290.897,289.294 292.5,287.5C 295.133,284.754 296.466,285.421 296.5,289.5C 292.551,289.693 292.551,290.193 296.5,291C 295.177,291.816 294.511,292.983 294.5,294.5 Z"/></g>
<g><path style="opacity:1" fill="#cba534" d="M 354.5,286.5 C 360.489,286.489 363.489,289.489 363.5,295.5C 365.167,296.833 366.833,298.167 368.5,299.5C 366.43,303.064 364.597,306.731 363,310.5C 353.092,313.427 342.925,314.927 332.5,315C 322.167,315.667 311.833,315.667 301.5,315C 292.969,314.856 284.635,313.522 276.5,311C 274.735,307.062 272.735,303.229 270.5,299.5C 273.756,297.603 275.756,294.937 276.5,291.5C 276.833,291.5 277.167,291.5 277.5,291.5C 278.348,292.625 279.348,292.625 280.5,291.5C 281.167,291.5 281.833,291.5 282.5,291.5C 286.5,292.5 290.5,293.5 294.5,294.5C 294.833,294.5 295.167,294.5 295.5,294.5C 297.423,297.218 298.756,296.884 299.5,293.5C 300.167,293.5 300.5,293.833 300.5,294.5C 304.646,295.647 308.98,295.814 313.5,295C 314.337,293.989 314.67,292.822 314.5,291.5C 316.607,291.722 318.274,292.722 319.5,294.5C 320.726,292.722 322.393,291.722 324.5,291.5C 324.33,292.822 324.663,293.989 325.5,295C 329.833,295.667 334.167,295.667 338.5,295C 332.124,293.714 332.458,292.714 339.5,292C 338.906,291.536 338.239,291.369 337.5,291.5C 336.588,290.262 336.421,288.928 337,287.5C 337.928,290.035 339.762,291.035 342.5,290.5C 342.953,291.458 343.619,292.292 344.5,293C 348.612,293.473 352.612,292.973 356.5,291.5C 357.167,291.5 357.833,291.5 358.5,291.5C 362.312,291.931 362.312,290.931 358.5,288.5C 356.847,288.34 355.514,287.674 354.5,286.5 Z"/></g>
<g><path style="opacity:1" fill="#fbf8ee" d="M 342.5,297.5 C 347.728,294.487 353.395,293.321 359.5,294C 361.521,296.337 363.521,298.67 365.5,301C 363.937,303.294 362.77,305.794 362,308.5C 352.105,311.565 341.938,313.065 331.5,313C 314.028,314.134 296.695,313.134 279.5,310C 278.584,309.626 277.75,309.126 277,308.5C 276.23,305.794 275.063,303.294 273.5,301C 275.907,297.954 278.573,295.121 281.5,292.5C 285.812,293.729 290.145,294.896 294.5,296C 295.701,296.903 296.535,298.069 297,299.5C 299.573,296.972 302.739,295.972 306.5,296.5C 310.895,295.711 314.395,297.044 317,300.5C 317.923,299.241 318.757,297.908 319.5,296.5C 320.243,297.908 321.077,299.241 322,300.5C 323.167,299.333 324.333,298.167 325.5,297C 330.167,296.333 334.833,296.333 339.5,297C 340.947,299.49 341.947,299.657 342.5,297.5 Z"/></g>
<g><path style="opacity:1" fill="#c9a22e" d="M 328.5,300.5 C 329.482,302.406 330.482,304.406 331.5,306.5C 331.669,305.603 332.002,304.603 332.5,303.5C 333.452,305.045 333.785,306.712 333.5,308.5C 331.076,308.808 328.743,308.474 326.5,307.5C 328.171,305.49 328.838,303.157 328.5,300.5 Z"/></g>
<g><path style="opacity:1" fill="#d2b14c" d="M 334.5,304.5 C 338.321,305.975 338.488,307.975 335,310.5C 334.5,310.333 334,310.167 333.5,310C 335.83,308.512 336.164,306.679 334.5,304.5 Z"/></g>
<g><path style="opacity:1" fill="#cda63a" d="M 311.5,303.5 C 314.531,304.843 317.697,305.843 321,306.5C 323.552,303.806 324.719,304.473 324.5,308.5C 322.046,308.321 319.879,308.987 318,310.5C 316.635,309.544 315.135,308.878 313.5,308.5C 311.177,309.376 308.843,309.876 306.5,310C 308.046,308.56 308.879,306.727 309,304.5C 310.908,307.332 311.741,306.999 311.5,303.5 Z"/></g>
<g><path style="opacity:1" fill="#c9a12b" d="M 349.5,297.5 C 353.216,295.679 355.049,297.013 355,301.5C 356.399,302.227 357.899,302.727 359.5,303C 356.67,303.869 354.003,305.036 351.5,306.5C 350.914,306.291 350.414,305.957 350,305.5C 348.612,309.155 346.612,309.489 344,306.5C 342.555,307.742 341.055,308.575 339.5,309C 339.833,308.667 340.167,308.333 340.5,308C 337.936,306.519 337.936,305.019 340.5,303.5C 341.192,304.025 341.692,304.692 342,305.5C 343.803,303.516 344.803,301.516 345,299.5C 346.369,303.527 348.535,304.527 351.5,302.5C 352.451,303.326 353.451,303.492 354.5,303C 353.773,301.601 353.273,300.101 353,298.5C 351.855,298.381 350.688,298.048 349.5,297.5 Z"/></g>
<g><path style="opacity:1" fill="#cba636" d="M 303.5,299.5 C 304.59,302.681 304.59,306.015 303.5,309.5C 301.641,309.539 300.308,308.706 299.5,307C 296.764,306.578 294.098,306.578 291.5,307C 292.09,305.491 292.756,303.991 293.5,302.5C 294.167,303.5 294.833,304.5 295.5,305.5C 296.711,304.726 296.711,303.893 295.5,303C 296.931,302.535 298.097,301.701 299,300.5C 301.303,301.744 301.803,303.411 300.5,305.5C 300.808,306.308 301.308,306.975 302,307.5C 303.252,304.986 303.752,302.32 303.5,299.5 Z"/></g>
<g><path style="opacity:1" fill="#c69d1e" d="M 305.5,300.5 C 306.239,300.369 306.906,300.536 307.5,301C 306.736,303.069 306.236,305.236 306,307.5C 305.503,305.19 305.337,302.857 305.5,300.5 Z"/></g>
<g><path style="opacity:1" fill="#cca635" d="M 284.5,295.5 C 285.041,297.75 285.374,300.084 285.5,302.5C 286.192,301.975 286.692,301.308 287,300.5C 287.57,303.844 288.736,304.177 290.5,301.5C 290.833,302 291.167,302.5 291.5,303C 290.503,304.596 289.337,306.096 288,307.5C 287.517,306.552 287.351,305.552 287.5,304.5C 285.04,304.301 282.707,303.635 280.5,302.5C 283.096,300.9 284.43,298.567 284.5,295.5 Z"/></g>
<g><path style="opacity:1" fill="#fcfaf3" d="M 321.5,293.5 C 325.095,294.905 325.262,296.572 322,298.5C 321.506,296.866 321.34,295.199 321.5,293.5 Z"/></g>
<g><path style="opacity:1" fill="#fbf7ed" d="M 315.5,293.5 C 316.649,293.791 317.316,294.624 317.5,296C 317.235,298.882 316.235,298.882 314.5,296C 315.252,295.329 315.586,294.496 315.5,293.5 Z"/></g>
<g><path style="opacity:1" fill="#fbf8ef" d="M 342.5,297.5 C 340.439,296.249 340.106,294.582 341.5,292.5C 343.754,293.714 344.087,295.381 342.5,297.5 Z"/></g>
<g><path style="opacity:1" fill="#f8f2e2" d="M 324.5,291.5 C 328.833,291.5 333.167,291.5 337.5,291.5C 338.239,291.369 338.906,291.536 339.5,292C 332.458,292.714 332.124,293.714 338.5,295C 334.167,295.667 329.833,295.667 325.5,295C 324.663,293.989 324.33,292.822 324.5,291.5 Z"/></g>
<g><path style="opacity:1" fill="#f9f4e6" d="M 301.5,291.5 C 305.833,291.5 310.167,291.5 314.5,291.5C 314.67,292.822 314.337,293.989 313.5,295C 308.98,295.814 304.646,295.647 300.5,294.5C 302.288,294.785 303.955,294.452 305.5,293.5C 303.577,292.692 301.577,292.192 299.5,292C 300.094,291.536 300.761,291.369 301.5,291.5 Z"/></g>
<g><path style="opacity:1" fill="#f9f4e7" d="M 299.5,293.5 C 298.756,296.884 297.423,297.218 295.5,294.5C 296.403,292.38 297.737,292.046 299.5,293.5 Z"/></g>
<g><path style="opacity:1" fill="#fbf8ef" d="M 358.5,288.5 C 362.312,290.931 362.312,291.931 358.5,291.5C 358.5,290.5 358.5,289.5 358.5,288.5 Z"/></g>
<g><path style="opacity:1" fill="#000000" d="M -0.5,319.5 C 212.833,319.5 426.167,319.5 639.5,319.5C 639.5,372.833 639.5,426.167 639.5,479.5C 426.167,479.5 212.833,479.5 -0.5,479.5C -0.5,426.167 -0.5,372.833 -0.5,319.5 Z"/></g>
</svg>
