<?xml version="1.0" encoding="UTF-8"?>
<!DOCTYPE svg PUBLIC "-//W3C//DTD SVG 1.1//EN" "http://www.w3.org/Graphics/SVG/1.1/DTD/svg11.dtd">
<svg xmlns="http://www.w3.org/2000/svg" version="1.1" width="640px" height="480px" style="shape-rendering:geometricPrecision; text-rendering:geometricPrecision; image-rendering:optimizeQuality; fill-rule:evenodd; clip-rule:evenodd" xmlns:xlink="http://www.w3.org/1999/xlink">
<g><path style="opacity:1" fill="#0f46af" d="M -0.5,-0.5 C 212.833,-0.5 426.167,-0.5 639.5,-0.5C 639.5,52.8333 639.5,106.167 639.5,159.5C 426.167,159.5 212.833,159.5 -0.5,159.5C -0.5,106.167 -0.5,52.8333 -0.5,-0.5 Z"/></g>
<g><path style="opacity:1" fill="#fefefe" d="M -0.5,159.5 C 212.833,159.5 426.167,159.5 639.5,159.5C 639.5,212.833 639.5,266.167 639.5,319.5C 426.167,319.5 212.833,319.5 -0.5,319.5C -0.5,266.167 -0.5,212.833 -0.5,159.5 Z"/></g>
<g><path style="opacity:1" fill="#ffd84b" d="M 334.5,172.5 C 339.443,172.288 340.11,173.288 336.5,175.5C 337.025,176.192 337.692,176.692 338.5,177C 335.156,177.57 334.823,178.736 337.5,180.5C 335.167,182.002 333.501,181.502 332.5,179C 333.096,176.775 333.763,174.608 334.5,172.5 Z"/></g>
<g><path style="opacity:1" fill="#ffd334" d="M 308.5,170.5 C 314.263,170.783 315.93,173.616 313.5,179C 309.26,180.539 306.593,179.206 305.5,175C 306.315,173.357 307.315,171.857 308.5,170.5 Z"/></g>
<g><path style="opacity:1" fill="#fffbed" d="M 309.5,172.5 C 312.084,173.048 313.084,174.715 312.5,177.5C 311.167,177.5 309.833,177.5 308.5,177.5C 308.366,175.708 308.699,174.042 309.5,172.5 Z"/></g>
<g><path style="opacity:1" fill="#ffd644" d="M 317.5,170.5 C 319.167,170.5 320.833,170.5 322.5,170.5C 321.198,173.813 321.198,176.813 322.5,179.5C 321.522,179.023 320.689,178.357 320,177.5C 319.692,178.308 319.192,178.975 318.5,179.5C 317.516,176.572 317.183,173.572 317.5,170.5 Z"/></g>
<g><path style="opacity:1" fill="#ffd64a" d="M 288.5,176.5 C 291.563,178.051 294.229,180.218 296.5,183C 295.451,183.492 294.451,183.326 293.5,182.5C 292.167,183.833 290.833,185.167 289.5,186.5C 288.513,183.232 288.18,179.898 288.5,176.5 Z"/></g>
<g><path style="opacity:1" fill="#ffd230" d="M 296.5,173.5 C 301.952,172.132 304.452,174.132 304,179.5C 302.758,180.872 301.258,181.872 299.5,182.5C 297.506,179.85 296.506,176.85 296.5,173.5 Z"/></g>
<g><path style="opacity:1" fill="#fffcf4" d="M 298.5,175.5 C 299.5,175.5 300.5,175.5 301.5,175.5C 300.941,180.639 299.941,180.639 298.5,175.5 Z"/></g>
<g><path style="opacity:1" fill="#ffd336" d="M 342.5,173.5 C 344.311,175.385 345.478,177.719 346,180.5C 346.583,178.998 347.416,177.665 348.5,176.5C 348.939,179.687 348.106,182.687 346,185.5C 345,183.167 344,180.833 343,178.5C 342.417,180.002 341.584,181.335 340.5,182.5C 340.167,182.167 339.833,181.833 339.5,181.5C 340.513,178.812 341.513,176.146 342.5,173.5 Z"/></g>
<g><path style="opacity:1" fill="#ffd333" d="M 356.5,180.5 C 357.289,180.783 357.956,181.283 358.5,182C 357.044,183.745 355.711,185.578 354.5,187.5C 355.025,188.192 355.692,188.692 356.5,189C 354.681,189.783 353.348,189.283 352.5,187.5C 353.861,185.15 355.194,182.816 356.5,180.5 Z"/></g>
<g><path style="opacity:1" fill="#ffd336" d="M 282.5,179.5 C 284.045,180.23 284.878,181.563 285,183.5C 285.667,185.5 285.667,187.5 285,189.5C 282.331,187.66 279.831,185.66 277.5,183.5C 278.002,182.479 278.668,182.312 279.5,183C 280.667,184.167 281.833,185.333 283,186.5C 283.018,184.203 282.851,181.869 282.5,179.5 Z"/></g>
<g><path style="opacity:1" fill="#c2a436" d="M 319.5,188.5 C 318.5,188.5 317.5,188.5 316.5,188.5C 316.878,185.978 317.711,183.645 319,181.5C 319.374,182.416 319.874,183.25 320.5,184C 320.129,185.603 319.795,187.103 319.5,188.5 Z"/></g>
<g><path style="opacity:1" fill="#ffd53e" d="M 363.5,186.5 C 364.586,186.62 365.253,187.287 365.5,188.5C 365.077,191.108 364.077,193.442 362.5,195.5C 361.797,192.316 359.797,190.816 356.5,191C 358.898,189.476 361.231,187.976 363.5,186.5 Z"/></g>
<g><path style="opacity:1" fill="#262e9a" d="M 316.5,188.5 C 317.5,188.5 318.5,188.5 319.5,188.5C 318.833,191.833 318.167,195.167 317.5,198.5C 316.89,200.434 315.89,202.101 314.5,203.5C 314.43,198.391 315.097,193.391 316.5,188.5 Z"/></g>
<g><path style="opacity:1" fill="#ffd22d" d="M 272.5,186.5 C 274.25,187.742 275.917,189.242 277.5,191C 281.338,190.58 281.504,191.747 278,194.5C 275.406,192.296 273.572,189.63 272.5,186.5 Z"/></g>
<g><path style="opacity:1" fill="#ffd43a" d="M 267.5,191.5 C 270.637,192.713 273.637,194.213 276.5,196C 272.667,195.833 270.833,197.667 271,201.5C 268.272,198.446 267.105,195.112 267.5,191.5 Z"/></g>
<g><path style="opacity:1" fill="#ffd43b" d="M 376.5,199.5 C 377.497,199.47 378.164,199.97 378.5,201C 377.211,203.741 375.545,206.241 373.5,208.5C 372.904,207.284 372.737,205.951 373,204.5C 371.795,203.929 370.628,203.262 369.5,202.5C 371.875,201.34 374.208,200.34 376.5,199.5 Z"/></g>
<g><path style="opacity:1" fill="#ffd125" d="M 261.5,198.5 C 262.239,198.369 262.906,198.536 263.5,199C 262.289,199.893 262.289,200.726 263.5,201.5C 268.112,199.948 269.446,201.448 267.5,206C 266.668,206.688 266.002,206.521 265.5,205.5C 266.167,204.833 266.833,204.167 267.5,203.5C 267,203.167 266.5,202.833 266,202.5C 261.384,204.381 259.884,203.047 261.5,198.5 Z"/></g>
<g><path style="opacity:1" fill="#bca13b" d="M 290.5,205.5 C 289.5,204.167 288.5,204.167 287.5,205.5C 287.168,203.209 286.334,200.876 285,198.5C 287.322,200.492 289.155,202.825 290.5,205.5 Z"/></g>
<g><path style="opacity:1" fill="#aa9756" d="M 349.5,205.5 C 347.589,206.075 345.922,207.075 344.5,208.5C 346.612,205.865 348.612,203.032 350.5,200C 351.332,199.312 351.998,199.479 352.5,200.5C 350.73,201.82 350.397,203.32 351.5,205C 350.906,205.464 350.239,205.631 349.5,205.5 Z"/></g>
<g><path style="opacity:1" fill="#ffd331" d="M 379.5,207.5 C 380.873,207.343 382.207,207.51 383.5,208C 379.319,211.114 379.985,212.948 385.5,213.5C 383.424,215.288 381.257,216.954 379,218.5C 378.5,218 378,217.5 377.5,217C 381.396,215.306 381.062,214.14 376.5,213.5C 376.977,212.522 377.643,211.689 378.5,211C 377.049,211.263 375.716,211.096 374.5,210.5C 376.145,209.304 377.811,208.304 379.5,207.5 Z"/></g>
<g><path style="opacity:1" fill="#0a2598" d="M 287.5,209.5 C 288.355,212.175 289.522,214.842 291,217.5C 291.816,218.823 292.983,219.489 294.5,219.5C 294.395,223.548 294.728,227.548 295.5,231.5C 294.849,232.091 294.182,232.757 293.5,233.5C 292.264,232.754 290.93,232.421 289.5,232.5C 288.504,232.586 287.671,232.252 287,231.5C 286.317,224.139 286.483,216.805 287.5,209.5 Z"/></g>
<g><path style="opacity:1" fill="#132f84" d="M 349.5,205.5 C 350.341,207.379 350.675,209.379 350.5,211.5C 348.659,214.458 346.325,217.125 343.5,219.5C 343.656,216.934 343.322,214.434 342.5,212C 342.978,210.697 343.645,209.531 344.5,208.5C 345.922,207.075 347.589,206.075 349.5,205.5 Z"/></g>
<g><path style="opacity:1" fill="#24561f" d="M 278.5,215.5 C 276.744,214.448 276.077,212.781 276.5,210.5C 276.685,208.804 277.519,207.471 279,206.5C 281.203,207.002 283.036,208.668 284.5,211.5C 283.168,213.833 281.168,215.166 278.5,215.5 Z"/></g>
<g><path style="opacity:1" fill="#01219d" d="M 350.5,211.5 C 350.5,212.167 350.5,212.833 350.5,213.5C 350.907,220.668 348.574,226.668 343.5,231.5C 342.662,231.158 342.328,230.492 342.5,229.5C 343.324,226.236 343.658,222.902 343.5,219.5C 346.325,217.125 348.659,214.458 350.5,211.5 Z"/></g>
<g><path style="opacity:1" fill="#375f2e" d="M 368.5,226.5 C 367.778,226.918 367.278,227.584 367,228.5C 365.385,227.614 363.885,226.614 362.5,225.5C 366.691,222.78 366.358,222.113 361.5,223.5C 358.873,221.849 358.873,220.016 361.5,218C 358.044,216.377 355.044,214.044 352.5,211C 353.973,210.29 354.64,209.124 354.5,207.5C 355.93,207.579 357.264,207.246 358.5,206.5C 360.391,209.131 362.391,211.631 364.5,214C 361.844,216.229 362.177,218.062 365.5,219.5C 366.192,218.975 366.692,218.308 367,217.5C 369.509,220.205 370.009,223.205 368.5,226.5 Z"/></g>
<g><path style="opacity:1" fill="#ffd43d" d="M 254.5,211.5 C 254.735,210.903 255.235,210.57 256,210.5C 258.512,212.06 261.012,212.726 263.5,212.5C 263.081,213.672 262.415,214.672 261.5,215.5C 259.302,213.902 256.969,212.569 254.5,211.5 Z"/></g>
<g><path style="opacity:1" fill="#0b2b81" d="M 290.5,205.5 C 294.175,209.335 295.509,214.001 294.5,219.5C 292.983,219.489 291.816,218.823 291,217.5C 289.522,214.842 288.355,212.175 287.5,209.5C 287.5,208.167 287.5,206.833 287.5,205.5C 288.5,204.167 289.5,204.167 290.5,205.5 Z"/></g>
<g><path style="opacity:1" fill="#877a69" d="M 276.5,210.5 C 276.077,212.781 276.744,214.448 278.5,215.5C 279.562,216.575 279.562,217.575 278.5,218.5C 277.787,216.565 276.787,216.232 275.5,217.5C 275.167,217.5 274.833,217.5 274.5,217.5C 273.493,214.788 274.159,212.454 276.5,210.5 Z"/></g>
<g><path style="opacity:1" fill="#ffd63f" d="M 385.5,217.5 C 388.244,218.072 389.077,219.738 388,222.5C 387.085,221.672 386.419,220.672 386,219.5C 385.77,223.213 384.603,223.88 382.5,221.5C 382.002,222.603 381.669,223.603 381.5,224.5C 379.783,223.332 379.116,221.665 379.5,219.5C 381.786,219.405 383.786,218.738 385.5,217.5 Z"/></g>
<g><path style="opacity:1" fill="#ffd22e" d="M 252.5,214.5 C 253.158,215.398 253.824,216.398 254.5,217.5C 255.192,216.975 255.692,216.308 256,215.5C 256.23,219.213 257.397,219.88 259.5,217.5C 260.509,219.185 260.009,220.518 258,221.5C 255.953,220.391 253.787,219.724 251.5,219.5C 251.366,217.708 251.699,216.042 252.5,214.5 Z"/></g>
<g><path style="opacity:1" fill="#1c3375" d="M 336.5,225.5 C 334.75,224.341 333.75,222.674 333.5,220.5C 334.458,220.047 335.292,219.381 336,218.5C 336.497,220.81 336.663,223.143 336.5,225.5 Z"/></g>
<g><path style="opacity:1" fill="#263a7f" d="M 303.5,222.5 C 303.167,223.167 302.833,223.833 302.5,224.5C 300.674,222.545 300.174,220.212 301,217.5C 302.883,218.653 303.716,220.319 303.5,222.5 Z"/></g>
<g><path style="opacity:1" fill="#ddb81a" d="M 317.5,198.5 C 319.017,198.511 320.184,199.177 321,200.5C 324.941,207.399 329.108,214.066 333.5,220.5C 333.75,222.674 334.75,224.341 336.5,225.5C 337.079,228.331 338.412,230.664 340.5,232.5C 340.771,236.13 342.438,237.13 345.5,235.5C 344.859,236.482 344.193,237.482 343.5,238.5C 344.193,239.518 344.859,240.518 345.5,241.5C 347.265,244.709 349.265,247.709 351.5,250.5C 351.5,250.833 351.5,251.167 351.5,251.5C 352.913,254.661 354.58,257.661 356.5,260.5C 357.028,261.721 357.695,262.887 358.5,264C 357.906,264.464 357.239,264.631 356.5,264.5C 355.5,264.5 354.5,264.5 353.5,264.5C 350.167,264.5 346.833,264.5 343.5,264.5C 339.833,264.5 336.167,264.5 332.5,264.5C 323.5,264.5 314.5,264.5 305.5,264.5C 301.833,264.5 298.167,264.5 294.5,264.5C 291.167,264.5 287.833,264.5 284.5,264.5C 283.5,264.5 282.5,264.5 281.5,264.5C 279.204,264.196 278.871,263.196 280.5,261.5C 282.5,258.167 284.5,254.833 286.5,251.5C 286.5,251.167 286.5,250.833 286.5,250.5C 288.735,247.709 290.735,244.709 292.5,241.5C 293.028,240.279 293.695,239.113 294.5,238C 293.619,237.292 292.953,236.458 292.5,235.5C 294.872,237.148 296.206,236.481 296.5,233.5C 298.735,230.709 300.735,227.709 302.5,224.5C 302.833,223.833 303.167,223.167 303.5,222.5C 307.416,216.338 311.083,210.005 314.5,203.5C 315.89,202.101 316.89,200.434 317.5,198.5 Z"/></g>
<g><path style="opacity:1" fill="#f6ede5" d="M 313.5,211.5 C 314.167,211.5 314.833,211.5 315.5,211.5C 319.666,210.944 323.332,211.944 326.5,214.5C 332.485,224.464 338.485,234.464 344.5,244.5C 342.167,244.5 339.833,244.5 337.5,244.5C 334.019,243.22 330.519,242.887 327,243.5C 324.563,242.2 322.063,241.2 319.5,240.5C 319.5,238.833 319.5,237.167 319.5,235.5C 320.268,236.263 320.768,237.263 321,238.5C 321.283,235.258 322.117,234.924 323.5,237.5C 324.425,236.359 325.259,236.359 326,237.5C 326.374,236.584 326.874,235.75 327.5,235C 324.635,232.597 324.801,231.764 328,232.5C 329.852,230.77 329.686,229.604 327.5,229C 328.167,228.667 328.833,228.333 329.5,228C 328.889,222.1 325.389,218.267 319,216.5C 315.276,217.612 312.109,219.612 309.5,222.5C 308.691,224.071 308.357,225.738 308.5,227.5C 309.552,227.351 310.552,227.517 311.5,228C 308.351,228.776 307.851,230.276 310,232.5C 310.667,231.833 311.333,231.167 312,230.5C 313.191,233.534 315.358,235.201 318.5,235.5C 318.5,237.5 318.5,239.5 318.5,241.5C 313.648,241.217 309.148,239.884 305,237.5C 301.746,238.591 299.246,240.591 297.5,243.5C 296.833,243.833 296.167,244.167 295.5,244.5C 294.833,244.5 294.167,244.5 293.5,244.5C 299.93,233.298 306.597,222.298 313.5,211.5 Z"/></g>
<g><path style="opacity:1" fill="#5f6d8f" d="M 315.5,211.5 C 317.265,210.539 319.265,210.205 321.5,210.5C 324.367,210.369 326.033,211.703 326.5,214.5C 323.332,211.944 319.666,210.944 315.5,211.5 Z"/></g>
<g><path style="opacity:1" fill="#519b70" d="M 314.5,209.5 C 316.833,209.5 319.167,209.5 321.5,209.5C 321.5,209.833 321.5,210.167 321.5,210.5C 319.265,210.205 317.265,210.539 315.5,211.5C 314.833,211.5 314.167,211.5 313.5,211.5C 313.833,210.833 314.167,210.167 314.5,209.5 Z"/></g>
<g><path style="opacity:1" fill="#f38b2e" d="M 315.5,207.5 C 317.5,207.5 319.5,207.5 321.5,207.5C 323.933,208.548 323.933,209.214 321.5,209.5C 319.167,209.5 316.833,209.5 314.5,209.5C 314.328,208.508 314.662,207.842 315.5,207.5 Z"/></g>
<g><path style="opacity:1" fill="#f2e2d8" d="M 321.5,207.5 C 319.5,207.5 317.5,207.5 315.5,207.5C 317.87,201.069 319.87,201.069 321.5,207.5 Z"/></g>
<g><path style="opacity:1" fill="#ab9333" d="M 362.5,225.5 C 362.737,226.791 362.404,227.791 361.5,228.5C 360.778,228.082 360.278,227.416 360,226.5C 359.329,227.252 358.496,227.586 357.5,227.5C 358.833,226.167 360.167,224.833 361.5,223.5C 366.358,222.113 366.691,222.78 362.5,225.5 Z"/></g>
<g><path style="opacity:1" fill="#2d4284" d="M 350.5,213.5 C 351.833,219.5 351.833,225.5 350.5,231.5C 350.662,229.473 350.495,227.473 350,225.5C 348.615,228.386 346.449,230.386 343.5,231.5C 348.574,226.668 350.907,220.668 350.5,213.5 Z"/></g>
<g><path style="opacity:1" fill="#01219b" d="M 350.5,231.5 C 350.167,231.5 349.833,231.5 349.5,231.5C 347.742,231.877 346.075,232.544 344.5,233.5C 343.702,233.043 343.369,232.376 343.5,231.5C 346.449,230.386 348.615,228.386 350,225.5C 350.495,227.473 350.662,229.473 350.5,231.5 Z"/></g>
<g><path style="opacity:1" fill="#ffd84f" d="M 248.5,225.5 C 250.045,226.23 250.878,227.563 251,229.5C 251.949,225.622 253.115,225.622 254.5,229.5C 255.167,228.833 255.833,228.167 256.5,227.5C 257.292,229.195 256.958,230.862 255.5,232.5C 253.167,231.833 250.833,231.167 248.5,230.5C 247.948,228.997 247.948,227.331 248.5,225.5 Z"/></g>
<g><path style="opacity:1" fill="#04239a" d="M 277.5,226.5 C 279.5,227.833 281.5,229.167 283.5,230.5C 283.657,231.873 283.49,233.207 283,234.5C 280.406,232.296 278.572,229.63 277.5,226.5 Z"/></g>
<g><path style="opacity:1" fill="#eadedc" d="M 275.5,228.5 C 275.5,229.833 275.5,231.167 275.5,232.5C 274.118,232.402 272.618,232.402 271,232.5C 269.925,229.469 270.925,227.469 274,226.5C 274.278,227.416 274.778,228.082 275.5,228.5 Z"/></g>
<g><path style="opacity:1" fill="#c3bab4" d="M 362.5,225.5 C 363.885,226.614 365.385,227.614 367,228.5C 367.278,227.584 367.778,226.918 368.5,226.5C 368.583,228.57 369.583,228.903 371.5,227.5C 372.713,227.747 373.38,228.414 373.5,229.5C 372.883,229.389 372.383,229.056 372,228.5C 371,229.833 370,231.167 369,232.5C 368.026,230.122 367.359,230.456 367,233.5C 366,230.833 365,230.833 364,233.5C 363.667,233.167 363.333,232.833 363,232.5C 362.517,233.448 362.351,234.448 362.5,235.5C 361.532,233.393 361.198,231.059 361.5,228.5C 362.404,227.791 362.737,226.791 362.5,225.5 Z"/></g>
<g><path style="opacity:1" fill="#ffd649" d="M 384.5,225.5 C 386.5,225.5 388.5,225.5 390.5,225.5C 391.127,229.945 389.46,231.612 385.5,230.5C 382.684,233.257 382.018,232.757 383.5,229C 382.692,228.692 382.025,228.192 381.5,227.5C 382.602,226.824 383.602,226.158 384.5,225.5 Z"/></g>
<g><path style="opacity:1" fill="#0d2e81" d="M 361.5,228.5 C 361.198,231.059 361.532,233.393 362.5,235.5C 362.5,236.167 362.5,236.833 362.5,237.5C 362.5,239.167 362.5,240.833 362.5,242.5C 362.672,243.492 362.338,244.158 361.5,244.5C 361.783,237.269 360.95,236.936 359,243.5C 357.887,245.329 356.387,246.163 354.5,246C 358.059,243.72 359.559,240.553 359,236.5C 357.945,239.056 356.112,240.723 353.5,241.5C 353.335,237.818 353.501,234.152 354,230.5C 355.518,229.837 356.685,228.837 357.5,227.5C 358.496,227.586 359.329,227.252 360,226.5C 360.278,227.416 360.778,228.082 361.5,228.5 Z"/></g>
<g><path style="opacity:1" fill="#2a5a25" d="M 373.5,229.5 C 374.209,230.404 375.209,230.737 376.5,230.5C 377.113,234.929 375.78,238.595 372.5,241.5C 371.5,241.5 370.5,241.5 369.5,241.5C 369.443,246.682 368.776,246.682 367.5,241.5C 365.185,240.84 363.519,239.507 362.5,237.5C 362.5,236.833 362.5,236.167 362.5,235.5C 362.351,234.448 362.517,233.448 363,232.5C 363.333,232.833 363.667,233.167 364,233.5C 365,230.833 366,230.833 367,233.5C 367.359,230.456 368.026,230.122 369,232.5C 370,231.167 371,229.833 372,228.5C 372.383,229.056 372.883,229.389 373.5,229.5 Z"/></g>
<g><path style="opacity:1" fill="#1d3680" d="M 276.5,225.5 C 277.167,225.5 277.5,225.833 277.5,226.5C 278.572,229.63 280.406,232.296 283,234.5C 283.49,233.207 283.657,231.873 283.5,230.5C 284.486,234.97 284.819,239.637 284.5,244.5C 282.613,241.423 280.446,238.423 278,235.5C 278.074,239.811 279.907,243.311 283.5,246C 281.255,245.805 279.422,244.638 278,242.5C 277.098,240.073 276.264,237.74 275.5,235.5C 275.5,234.5 275.5,233.5 275.5,232.5C 275.5,231.167 275.5,229.833 275.5,228.5C 276.404,227.791 276.737,226.791 276.5,225.5 Z"/></g>
<g><path style="opacity:1" fill="#10325c" d="M 295.5,231.5 C 296.338,231.842 296.672,232.508 296.5,233.5C 296.206,236.481 294.872,237.148 292.5,235.5C 291.694,234.272 290.694,233.272 289.5,232.5C 290.93,232.421 292.264,232.754 293.5,233.5C 294.182,232.757 294.849,232.091 295.5,231.5 Z"/></g>
<g><path style="opacity:1" fill="#213a65" d="M 342.5,229.5 C 342.328,230.492 342.662,231.158 343.5,231.5C 343.369,232.376 343.702,233.043 344.5,233.5C 346.075,232.544 347.742,231.877 349.5,231.5C 348.167,232.833 346.833,234.167 345.5,235.5C 342.438,237.13 340.771,236.13 340.5,232.5C 341.167,231.5 341.833,230.5 342.5,229.5 Z"/></g>
<g><path style="opacity:1" fill="#ffd543" d="M 386.5,233.5 C 388.288,233.215 389.955,233.548 391.5,234.5C 388.602,236.284 385.602,236.618 382.5,235.5C 383.949,234.828 385.282,234.161 386.5,233.5 Z"/></g>
<g><path style="opacity:1" fill="#ebcbc0" d="M 319.5,235.5 C 319.5,233.833 319.5,232.167 319.5,230.5C 320.497,230.53 321.164,230.03 321.5,229C 320.063,223.731 318.396,223.397 316.5,228C 316.684,229.376 317.351,230.209 318.5,230.5C 318.5,232.167 318.5,233.833 318.5,235.5C 315.358,235.201 313.191,233.534 312,230.5C 311.333,231.167 310.667,231.833 310,232.5C 307.851,230.276 308.351,228.776 311.5,228C 310.552,227.517 309.552,227.351 308.5,227.5C 308.357,225.738 308.691,224.071 309.5,222.5C 312.109,219.612 315.276,217.612 319,216.5C 325.389,218.267 328.889,222.1 329.5,228C 328.833,228.333 328.167,228.667 327.5,229C 329.686,229.604 329.852,230.77 328,232.5C 324.801,231.764 324.635,232.597 327.5,235C 326.874,235.75 326.374,236.584 326,237.5C 325.259,236.359 324.425,236.359 323.5,237.5C 322.117,234.924 321.283,235.258 321,238.5C 320.768,237.263 320.268,236.263 319.5,235.5 Z"/></g>
<g><path style="opacity:1" fill="#cc3025" d="M 319.5,230.5 C 319.167,229.167 318.833,229.167 318.5,230.5C 317.351,230.209 316.684,229.376 316.5,228C 318.396,223.397 320.063,223.731 321.5,229C 321.164,230.03 320.497,230.53 319.5,230.5 Z"/></g>
<g><path style="opacity:1" fill="#ffd541" d="M 249.5,233.5 C 254.815,233.497 256.815,236.164 255.5,241.5C 252.482,241.296 249.482,240.963 246.5,240.5C 246.15,237.547 247.15,235.213 249.5,233.5 Z"/></g>
<g><path style="opacity:1" fill="#fffdf7" d="M 249.5,236.5 C 250.978,236.238 252.311,236.571 253.5,237.5C 251.926,238.631 250.259,238.798 248.5,238C 249.056,237.617 249.389,237.117 249.5,236.5 Z"/></g>
<g><path style="opacity:1" fill="#0a249e" d="M 275.5,235.5 C 276.264,237.74 277.098,240.073 278,242.5C 279.422,244.638 281.255,245.805 283.5,246C 279.907,243.311 278.074,239.811 278,235.5C 280.446,238.423 282.613,241.423 284.5,244.5C 284.595,246.786 285.262,248.786 286.5,250.5C 286.5,250.833 286.5,251.167 286.5,251.5C 279.855,253.29 276.188,250.956 275.5,244.5C 275.5,244.167 275.5,243.833 275.5,243.5C 275.5,241.167 275.5,238.833 275.5,236.5C 275.5,236.167 275.5,235.833 275.5,235.5 Z"/></g>
<g><path style="opacity:1" fill="#263a7f" d="M 292.5,235.5 C 292.953,236.458 293.619,237.292 294.5,238C 293.695,239.113 293.028,240.279 292.5,241.5C 290.084,239.295 290.084,237.295 292.5,235.5 Z"/></g>
<g><path style="opacity:1" fill="#2e4182" d="M 345.5,235.5 C 346.497,235.47 347.164,235.97 347.5,237C 347.101,238.728 346.434,240.228 345.5,241.5C 344.859,240.518 344.193,239.518 343.5,238.5C 344.193,237.482 344.859,236.482 345.5,235.5 Z"/></g>
<g><path style="opacity:1" fill="#f1c507" d="M 318.5,241.5 C 321.813,244.478 325.147,247.478 328.5,250.5C 328.167,250.833 327.833,251.167 327.5,251.5C 324.328,249.748 321.328,247.748 318.5,245.5C 318.167,245.667 317.833,245.833 317.5,246C 319.5,248 321.5,250 323.5,252C 312.833,252.667 302.167,252.667 291.5,252C 294.829,250.199 296.829,247.365 297.5,243.5C 299.246,240.591 301.746,238.591 305,237.5C 309.148,239.884 313.648,241.217 318.5,241.5 Z"/></g>
<g><path style="opacity:1" fill="#06239e" d="M 361.5,244.5 C 361.5,245.833 361.5,247.167 361.5,248.5C 358.766,251.143 355.433,252.143 351.5,251.5C 351.5,251.167 351.5,250.833 351.5,250.5C 353.126,247.754 353.793,244.754 353.5,241.5C 356.112,240.723 357.945,239.056 359,236.5C 359.559,240.553 358.059,243.72 354.5,246C 356.387,246.163 357.887,245.329 359,243.5C 360.95,236.936 361.783,237.269 361.5,244.5 Z"/></g>
<g><path style="opacity:1" fill="#ffd334" d="M 385.5,238.5 C 390.396,238.058 392.396,240.058 391.5,244.5C 390.551,240.727 388.384,239.727 385,241.5C 385.263,242.951 385.096,244.284 384.5,245.5C 383.154,242.9 383.488,240.567 385.5,238.5 Z"/></g>
<g><path style="opacity:1" fill="#d8cbca" d="M 275.5,236.5 C 275.5,238.833 275.5,241.167 275.5,243.5C 273.284,244.203 271.451,245.536 270,247.5C 269.833,246.5 269.667,245.5 269.5,244.5C 271.111,241.554 273.111,238.887 275.5,236.5 Z"/></g>
<g><path style="opacity:1" fill="#b6b5ac" d="M 362.5,237.5 C 363.519,239.507 365.185,240.84 367.5,241.5C 368.776,246.682 369.443,246.682 369.5,241.5C 370.5,241.5 371.5,241.5 372.5,241.5C 372.328,242.492 372.662,243.158 373.5,243.5C 371.563,244.931 369.73,246.598 368,248.5C 366.669,246.004 364.836,244.004 362.5,242.5C 362.5,240.833 362.5,239.167 362.5,237.5 Z"/></g>
<g><path style="opacity:1" fill="#427965" d="M 293.5,244.5 C 294.167,244.5 294.833,244.5 295.5,244.5C 294.438,246.757 292.772,247.923 290.5,248C 291.636,246.855 292.636,245.688 293.5,244.5 Z"/></g>
<g><path style="opacity:1" fill="#8d8f20" d="M 342.5,251.5 C 337.097,253.205 331.43,253.872 325.5,253.5C 328.741,252.016 332.074,251.516 335.5,252C 333.833,250.333 332.167,248.667 330.5,247C 330.833,246.833 331.167,246.667 331.5,246.5C 334.091,249.13 337.091,250.63 340.5,251C 339.167,249.667 337.833,248.333 336.5,247C 339.146,247.46 341.146,248.96 342.5,251.5 Z"/></g>
<g><path style="opacity:1" fill="#ffd230" d="M 382.5,246.5 C 385.721,247.709 388.721,249.376 391.5,251.5C 388.711,253.617 385.711,254.284 382.5,253.5C 383.311,252.784 383.978,251.95 384.5,251C 383.586,249.594 382.92,248.094 382.5,246.5 Z"/></g>
<g><path style="opacity:1" fill="#ffd647" d="M 254.5,250.5 C 255.376,250.369 256.043,250.702 256.5,251.5C 253.846,253.895 254.179,255.895 257.5,257.5C 246.197,258.268 245.197,255.935 254.5,250.5 Z"/></g>
<g><path style="opacity:1" fill="#285a22" d="M 362.5,242.5 C 364.836,244.004 366.669,246.004 368,248.5C 369.73,246.598 371.563,244.931 373.5,243.5C 374.42,244.806 375.42,246.806 376.5,249.5C 375.288,254.778 371.955,257.112 366.5,256.5C 366.714,258.144 366.38,259.644 365.5,261C 366.803,261.21 368.136,261.043 369.5,260.5C 371.569,260.824 371.902,261.658 370.5,263C 371.833,263.333 373.167,263.667 374.5,264C 372.167,267 369.833,270 367.5,273C 364.044,272.907 361.044,273.907 358.5,276C 359.313,277.314 360.313,278.481 361.5,279.5C 360.687,280.814 359.687,281.981 358.5,283C 359.833,283.333 361.167,283.667 362.5,284C 357.684,288.637 352.351,289.47 346.5,286.5C 344.39,287.054 342.39,287.888 340.5,289C 341.938,289.219 343.271,289.719 344.5,290.5C 344.291,291.086 343.957,291.586 343.5,292C 347.237,292.999 347.237,294.332 343.5,296C 345.797,297.16 345.464,298.16 342.5,299C 338.442,299.767 334.442,299.6 330.5,298.5C 330.167,298.667 329.833,298.833 329.5,299C 330.833,300 332.167,301 333.5,302C 332.833,302.167 332.167,302.333 331.5,302.5C 329.577,301.908 327.911,300.908 326.5,299.5C 325.833,298.167 324.833,297.167 323.5,296.5C 322.342,295.05 322.842,294.05 325,293.5C 326.128,291.655 326.628,289.655 326.5,287.5C 327.325,285.19 328.658,283.19 330.5,281.5C 332.61,278.998 334.61,278.998 336.5,281.5C 337.873,281.343 339.207,281.51 340.5,282C 340.167,283.667 339.833,285.333 339.5,287C 340.908,287.315 342.241,286.982 343.5,286C 344.147,280.578 345.647,275.411 348,270.5C 350.021,273.286 351.521,272.953 352.5,269.5C 354.317,271.416 355.484,273.749 356,276.5C 357.236,275.601 358.07,274.434 358.5,273C 357.006,270.361 356.339,267.528 356.5,264.5C 357.239,264.631 357.906,264.464 358.5,264C 357.695,262.887 357.028,261.721 356.5,260.5C 357.239,260.631 357.906,260.464 358.5,260C 359.085,258.698 359.751,257.531 360.5,256.5C 361.644,258.1 362.811,259.767 364,261.5C 365.07,257.858 364.236,254.858 361.5,252.5C 361.5,251.167 361.5,249.833 361.5,248.5C 361.5,247.167 361.5,245.833 361.5,244.5C 362.338,244.158 362.672,243.492 362.5,242.5 Z"/></g>
<g><path style="opacity:1" fill="#0f315c" d="M 275.5,244.5 C 276.188,250.956 279.855,253.29 286.5,251.5C 284.5,254.833 282.5,258.167 280.5,261.5C 278.75,260.341 277.75,258.674 277.5,256.5C 277.405,254.214 276.738,252.214 275.5,250.5C 275.5,248.5 275.5,246.5 275.5,244.5 Z"/></g>
<g><path style="opacity:1" fill="#dec8c4" d="M 275.5,250.5 C 276.738,252.214 277.405,254.214 277.5,256.5C 276.115,257.574 274.949,258.907 274,260.5C 273.667,260.167 273.333,259.833 273,259.5C 273.754,256.606 274.587,253.606 275.5,250.5 Z"/></g>
<g><path style="opacity:1" fill="#2a8191" d="M 337.5,244.5 C 339.833,244.5 342.167,244.5 344.5,244.5C 348.031,250.389 351.697,256.223 355.5,262C 331.167,262.667 306.833,262.667 282.5,262C 283.916,259.165 285.583,256.498 287.5,254C 300.162,253.5 312.829,253.333 325.5,253.5C 331.43,253.872 337.097,253.205 342.5,251.5C 343.552,251.649 344.552,251.483 345.5,251C 342.947,248.575 340.28,246.408 337.5,244.5 Z"/></g>
<g><path style="opacity:1" fill="#092e57" d="M 361.5,248.5 C 361.5,249.833 361.5,251.167 361.5,252.5C 360.566,253.568 360.232,254.901 360.5,256.5C 359.751,257.531 359.085,258.698 358.5,260C 357.906,260.464 357.239,260.631 356.5,260.5C 354.58,257.661 352.913,254.661 351.5,251.5C 355.433,252.143 358.766,251.143 361.5,248.5 Z"/></g>
<g><path style="opacity:1" fill="#d1c5c0" d="M 361.5,252.5 C 364.236,254.858 365.07,257.858 364,261.5C 362.811,259.767 361.644,258.1 360.5,256.5C 360.232,254.901 360.566,253.568 361.5,252.5 Z"/></g>
<g><path style="opacity:1" fill="#ffd53d" d="M 380.5,264.5 C 384.843,264.347 387.01,266.347 387,270.5C 386.333,271.167 385.667,271.833 385,272.5C 384.885,266.082 382.718,265.082 378.5,269.5C 378.167,269.167 377.833,268.833 377.5,268.5C 378.172,266.84 379.172,265.507 380.5,264.5 Z"/></g>
<g><path style="opacity:1" fill="#ffd438" d="M 256.5,260.5 C 259.041,262.44 259.041,264.607 256.5,267C 252.002,268.477 249.835,266.977 250,262.5C 250.333,262.167 250.667,261.833 251,261.5C 251.271,265.13 252.938,266.13 256,264.5C 256.49,263.207 256.657,261.873 256.5,260.5 Z"/></g>
<g><path style="opacity:1" fill="#ffd437" d="M 257.5,268.5 C 258.873,268.343 260.207,268.51 261.5,269C 258.687,271.106 255.687,271.939 252.5,271.5C 254.36,270.675 256.026,269.675 257.5,268.5 Z"/></g>
<g><path style="opacity:1" fill="#e8e8e8" d="M 281.5,264.5 C 282.5,264.5 283.5,264.5 284.5,264.5C 284.833,265.5 285.5,266.167 286.5,266.5C 294.009,271.717 302.009,272.717 310.5,269.5C 312.137,268.782 313.803,268.616 315.5,269C 314.01,271.2 314.343,273.034 316.5,274.5C 317.228,271.788 318.061,269.121 319,266.5C 319.667,269.167 320.333,271.833 321,274.5C 322.299,273.91 323.132,272.91 323.5,271.5C 322.863,270.218 322.863,269.218 323.5,268.5C 334.331,273.223 344.331,271.89 353.5,264.5C 354.5,264.5 355.5,264.5 356.5,264.5C 356.339,267.528 357.006,270.361 358.5,273C 358.07,274.434 357.236,275.601 356,276.5C 355.484,273.749 354.317,271.416 352.5,269.5C 351.521,272.953 350.021,273.286 348,270.5C 345.647,275.411 344.147,280.578 343.5,286C 342.241,286.982 340.908,287.315 339.5,287C 339.833,285.333 340.167,283.667 340.5,282C 339.207,281.51 337.873,281.343 336.5,281.5C 336.64,279.876 335.973,278.71 334.5,278C 336.81,277.503 339.143,277.337 341.5,277.5C 341.03,273.92 339.696,273.253 337.5,275.5C 336.289,274.726 336.289,273.893 337.5,273C 335.365,272.365 333.365,272.699 331.5,274C 332.849,275.635 332.682,277.135 331,278.5C 330.3,276.968 329.134,275.968 327.5,275.5C 327.167,276.167 326.833,276.833 326.5,277.5C 321.554,276.386 316.554,276.219 311.5,277C 315.833,277.333 320.167,277.667 324.5,278C 323.234,278.309 322.067,278.809 321,279.5C 318.708,278.092 316.541,278.259 314.5,280C 317.167,280.667 317.167,281.333 314.5,282C 319.62,282.709 324.62,282.209 329.5,280.5C 330.107,280.624 330.44,280.957 330.5,281.5C 328.658,283.19 327.325,285.19 326.5,287.5C 325.341,285.623 323.674,285.123 321.5,286C 320.891,287.948 320.224,289.782 319.5,291.5C 319.201,287.868 317.201,285.868 313.5,285.5C 312.1,286.1 311.1,287.1 310.5,288.5C 308.966,279.915 304.633,277.915 297.5,282.5C 298.902,283.842 298.569,284.676 296.5,285C 297.791,288.025 297.124,288.359 294.5,286C 293.628,280.376 292.128,274.876 290,269.5C 289,270.833 288,272.167 287,273.5C 286.71,271.956 286.044,270.623 285,269.5C 283.39,271.597 282.223,273.93 281.5,276.5C 280.155,275.653 279.155,274.487 278.5,273C 279.937,270.311 280.937,267.477 281.5,264.5 Z"/></g>
<g><path style="opacity:1" fill="#e1e1e4" d="M 294.5,265.5 C 294.5,265.167 294.5,264.833 294.5,264.5C 298.167,264.5 301.833,264.5 305.5,264.5C 307.506,265.485 309.173,266.818 310.5,268.5C 304.723,270.022 299.39,269.022 294.5,265.5 Z"/></g>
<g><path style="opacity:1" fill="#1b2d97" d="M 286.5,266.5 C 288.948,265.527 291.615,265.194 294.5,265.5C 299.39,269.022 304.723,270.022 310.5,268.5C 310.5,268.833 310.5,269.167 310.5,269.5C 302.009,272.717 294.009,271.717 286.5,266.5 Z"/></g>
<g><path style="opacity:1" fill="#34444b" d="M 284.5,264.5 C 287.833,264.5 291.167,264.5 294.5,264.5C 294.5,264.833 294.5,265.167 294.5,265.5C 291.615,265.194 288.948,265.527 286.5,266.5C 285.5,266.167 284.833,265.5 284.5,264.5 Z"/></g>
<g><path style="opacity:1" fill="#293783" d="M 305.5,264.5 C 314.5,264.5 323.5,264.5 332.5,264.5C 330.745,265.792 328.745,266.792 326.5,267.5C 332.763,270.084 338.429,269.084 343.5,264.5C 346.833,264.5 350.167,264.5 353.5,264.5C 344.331,271.89 334.331,273.223 323.5,268.5C 322.863,269.218 322.863,270.218 323.5,271.5C 323.132,272.91 322.299,273.91 321,274.5C 320.333,271.833 319.667,269.167 319,266.5C 318.061,269.121 317.228,271.788 316.5,274.5C 314.343,273.034 314.01,271.2 315.5,269C 313.803,268.616 312.137,268.782 310.5,269.5C 310.5,269.167 310.5,268.833 310.5,268.5C 309.173,266.818 307.506,265.485 305.5,264.5 Z"/></g>
<g><path style="opacity:1" fill="#e4e4e5" d="M 332.5,264.5 C 336.167,264.5 339.833,264.5 343.5,264.5C 338.429,269.084 332.763,270.084 326.5,267.5C 328.745,266.792 330.745,265.792 332.5,264.5 Z"/></g>
<g><path style="opacity:1" fill="#2a5b23" d="M 274.5,217.5 C 274.833,217.5 275.167,217.5 275.5,217.5C 275.48,219.143 276.147,220.476 277.5,221.5C 276.754,222.736 276.421,224.07 276.5,225.5C 276.737,226.791 276.404,227.791 275.5,228.5C 274.778,228.082 274.278,227.416 274,226.5C 270.925,227.469 269.925,229.469 271,232.5C 272.618,232.402 274.118,232.402 275.5,232.5C 275.5,233.5 275.5,234.5 275.5,235.5C 275.5,235.833 275.5,236.167 275.5,236.5C 273.111,238.887 271.111,241.554 269.5,244.5C 269.667,245.5 269.833,246.5 270,247.5C 271.451,245.536 273.284,244.203 275.5,243.5C 275.5,243.833 275.5,244.167 275.5,244.5C 275.5,246.5 275.5,248.5 275.5,250.5C 274.587,253.606 273.754,256.606 273,259.5C 273.333,259.833 273.667,260.167 274,260.5C 274.949,258.907 276.115,257.574 277.5,256.5C 277.75,258.674 278.75,260.341 280.5,261.5C 278.871,263.196 279.204,264.196 281.5,264.5C 280.937,267.477 279.937,270.311 278.5,273C 279.155,274.487 280.155,275.653 281.5,276.5C 282.223,273.93 283.39,271.597 285,269.5C 286.044,270.623 286.71,271.956 287,273.5C 288,272.167 289,270.833 290,269.5C 292.128,274.876 293.628,280.376 294.5,286C 297.124,288.359 297.791,288.025 296.5,285C 298.569,284.676 298.902,283.842 297.5,282.5C 304.633,277.915 308.966,279.915 310.5,288.5C 310.733,290.062 311.4,291.395 312.5,292.5C 312.881,293.931 313.881,294.764 315.5,295C 314.364,296.145 313.364,297.312 312.5,298.5C 310.765,300.235 308.765,301.568 306.5,302.5C 304.185,302.201 304.185,301.368 306.5,300C 302.5,299.667 298.5,299.333 294.5,299C 294.311,296.705 292.977,294.705 290.5,293C 291.833,292.667 293.167,292.333 294.5,292C 293.448,290.284 294.114,289.284 296.5,289C 294.019,286.37 291.352,286.037 288.5,288C 283.025,289.402 278.358,288.069 274.5,284C 278.47,283.775 279.137,282.441 276.5,280C 278.601,274.424 276.601,272.09 270.5,273C 268.167,270 265.833,267 263.5,264C 264.624,263.751 265.624,263.251 266.5,262.5C 265.674,261.549 265.508,260.549 266,259.5C 267.584,260.861 269.418,261.528 271.5,261.5C 271.898,257.241 269.898,255.408 265.5,256C 261.941,253.72 260.441,250.553 261,246.5C 261.414,246.957 261.914,247.291 262.5,247.5C 263.131,242.839 264.964,242.506 268,246.5C 268.667,245.167 268.667,243.833 268,242.5C 262.974,240.119 260.808,236.119 261.5,230.5C 263.143,230.52 264.476,229.853 265.5,228.5C 266.5,229.833 267.5,231.167 268.5,232.5C 268.88,227.999 269.213,223.499 269.5,219C 269.833,218.5 270.167,218 270.5,217.5C 271.924,220.106 273.257,220.106 274.5,217.5 Z"/></g>
<g><path style="opacity:1" fill="#ffd53b" d="M 260.5,272.5 C 261.189,271.226 262.023,271.226 263,272.5C 263.667,273.5 263.667,274.5 263,275.5C 260.71,277.595 258.21,278.262 255.5,277.5C 257.287,276.684 258.954,275.684 260.5,274.5C 261.773,273.743 261.773,273.077 260.5,272.5 Z"/></g>
<g><path style="opacity:1" fill="#ffd540" d="M 376.5,271.5 C 379.274,272.723 381.941,274.223 384.5,276C 381.743,280.85 380.576,280.683 381,275.5C 380.311,276.357 379.478,277.023 378.5,277.5C 378.331,276.603 377.998,275.603 377.5,274.5C 376.549,275.326 375.549,275.492 374.5,275C 375.305,273.887 375.972,272.721 376.5,271.5 Z"/></g>
<g><path style="opacity:1" fill="#ffd43b" d="M 263.5,277.5 C 265.544,278.031 267.211,279.198 268.5,281C 266.578,282.876 264.411,284.376 262,285.5C 260.5,285.333 259.667,284.5 259.5,283C 261.005,281.323 262.338,279.489 263.5,277.5 Z"/></g>
<g><path style="opacity:1" fill="#b0b1b0" d="M 336.5,281.5 C 334.61,278.998 332.61,278.998 330.5,281.5C 330.44,280.957 330.107,280.624 329.5,280.5C 324.62,282.209 319.62,282.709 314.5,282C 317.167,281.333 317.167,280.667 314.5,280C 316.541,278.259 318.708,278.092 321,279.5C 322.067,278.809 323.234,278.309 324.5,278C 320.167,277.667 315.833,277.333 311.5,277C 316.554,276.219 321.554,276.386 326.5,277.5C 326.833,276.833 327.167,276.167 327.5,275.5C 329.134,275.968 330.3,276.968 331,278.5C 332.682,277.135 332.849,275.635 331.5,274C 333.365,272.699 335.365,272.365 337.5,273C 336.289,273.893 336.289,274.726 337.5,275.5C 339.696,273.253 341.03,273.92 341.5,277.5C 339.143,277.337 336.81,277.503 334.5,278C 335.973,278.71 336.64,279.876 336.5,281.5 Z"/></g>
<g><path style="opacity:1" fill="#ffd22e" d="M 372.5,277.5 C 375.283,279.067 377.949,280.9 380.5,283C 377.833,283.333 375.167,283.667 372.5,284C 373.685,285.353 375.019,286.52 376.5,287.5C 376.167,287.833 375.833,288.167 375.5,288.5C 372.888,287.221 370.555,285.555 368.5,283.5C 371.107,282.682 373.774,282.182 376.5,282C 374.249,281.252 372.916,279.752 372.5,277.5 Z"/></g>
<g><path style="opacity:1" fill="#ffd438" d="M 268.5,284.5 C 271.127,284.293 272.793,285.46 273.5,288C 272.056,290.449 270.222,292.615 268,294.5C 267.5,294 267,293.5 266.5,293C 268.351,291.316 270.018,289.483 271.5,287.5C 271,287.167 270.5,286.833 270,286.5C 268.037,287.625 266.204,288.959 264.5,290.5C 264.167,290.167 263.833,289.833 263.5,289.5C 264.882,287.451 266.548,285.785 268.5,284.5 Z"/></g>
<g><path style="opacity:1" fill="#404b5c" d="M 313.5,285.5 C 314.823,287.471 316.156,289.471 317.5,291.5C 315.955,292.452 314.288,292.785 312.5,292.5C 311.4,291.395 310.733,290.062 310.5,288.5C 311.1,287.1 312.1,286.1 313.5,285.5 Z"/></g>
<g><path style="opacity:1" fill="#35426a" d="M 326.5,287.5 C 326.628,289.655 326.128,291.655 325,293.5C 322.842,294.05 322.342,295.05 323.5,296.5C 322.833,296.5 322.5,296.833 322.5,297.5C 320.958,296.699 319.292,296.366 317.5,296.5C 318.209,295.596 319.209,295.263 320.5,295.5C 320.567,294.041 320.234,292.708 319.5,291.5C 320.224,289.782 320.891,287.948 321.5,286C 323.674,285.123 325.341,285.623 326.5,287.5 Z"/></g>
<g><path style="opacity:1" fill="#dddee0" d="M 322.5,287.5 C 323.788,289.035 323.788,290.701 322.5,292.5C 321.566,290.905 321.566,289.239 322.5,287.5 Z"/></g>
<g><path style="opacity:1" fill="#ffd233" d="M 365.5,286.5 C 367.685,288.762 370.352,290.262 373.5,291C 372.382,292.074 371.382,293.24 370.5,294.5C 368.789,291.804 367.122,289.138 365.5,286.5 Z"/></g>
<g><path style="opacity:1" fill="#132689" d="M 313.5,285.5 C 317.201,285.868 319.201,287.868 319.5,291.5C 320.234,292.708 320.567,294.041 320.5,295.5C 319.209,295.263 318.209,295.596 317.5,296.5C 315.72,297.99 315.054,299.99 315.5,302.5C 314.5,302.5 313.5,302.5 312.5,302.5C 312.5,301.167 312.5,299.833 312.5,298.5C 313.364,297.312 314.364,296.145 315.5,295C 313.881,294.764 312.881,293.931 312.5,292.5C 314.288,292.785 315.955,292.452 317.5,291.5C 316.156,289.471 314.823,287.471 313.5,285.5 Z"/></g>
<g><path style="opacity:1" fill="#ffd43c" d="M 277.5,292.5 C 278.376,292.369 279.043,292.702 279.5,293.5C 277.833,295.5 276.167,297.5 274.5,299.5C 272.022,298.278 271.022,296.278 271.5,293.5C 273.735,293.795 275.735,293.461 277.5,292.5 Z"/></g>
<g><path style="opacity:1" fill="#2b3399" d="M 323.5,296.5 C 324.833,297.167 325.833,298.167 326.5,299.5C 326.815,301.226 326.981,302.893 327,304.5C 325.989,303.663 324.822,303.33 323.5,303.5C 323.167,301.5 322.833,299.5 322.5,297.5C 322.5,296.833 322.833,296.5 323.5,296.5 Z"/></g>
<g><path style="opacity:1" fill="#ffd336" d="M 361.5,290.5 C 363.764,292.097 365.764,294.097 367.5,296.5C 364.602,300.65 362.269,300.317 360.5,295.5C 359.5,295 358.5,294.5 357.5,294C 359.167,293.667 360.833,293.333 362.5,293C 361.748,292.329 361.414,291.496 361.5,290.5 Z"/></g>
<g><path style="opacity:1" fill="#ffd641" d="M 281.5,294.5 C 283.2,295.016 284.533,296.016 285.5,297.5C 284.079,300.009 282.412,302.343 280.5,304.5C 276.478,302.023 276.478,300.689 280.5,300.5C 279.674,299.549 279.508,298.549 280,297.5C 280.893,298.711 281.726,298.711 282.5,297.5C 281.873,296.583 281.539,295.583 281.5,294.5 Z"/></g>
<g><path style="opacity:1" fill="#ffd336" d="M 355.5,295.5 C 357.045,296.23 357.878,297.563 358,299.5C 358.798,301.259 358.631,302.926 357.5,304.5C 354.888,303.221 352.555,301.555 350.5,299.5C 353.147,299.895 354.813,298.562 355.5,295.5 Z"/></g>
<g><path style="opacity:1" fill="#ffd439" d="M 287.5,298.5 C 288.79,299.058 289.623,300.058 290,301.5C 290.893,300.289 291.726,300.289 292.5,301.5C 291.42,303.996 290.086,306.33 288.5,308.5C 286.503,308.014 285.169,306.847 284.5,305C 286.429,303.306 287.429,301.139 287.5,298.5 Z"/></g>
<g><path style="opacity:1" fill="#ffd333" d="M 347.5,299.5 C 349.79,302.077 350.956,305.077 351,308.5C 349.748,306.999 348.748,305.332 348,303.5C 346.933,302.809 345.766,302.309 344.5,302C 345.571,301.148 346.571,300.315 347.5,299.5 Z"/></g>
<g><path style="opacity:1" fill="#0f46af" d="M -0.5,319.5 C 212.833,319.5 426.167,319.5 639.5,319.5C 639.5,372.833 639.5,426.167 639.5,479.5C 426.167,479.5 212.833,479.5 -0.5,479.5C -0.5,426.167 -0.5,372.833 -0.5,319.5 Z"/></g>
</svg>
