<?xml version="1.0" encoding="UTF-8"?>
<!DOCTYPE svg PUBLIC "-//W3C//DTD SVG 1.1//EN" "http://www.w3.org/Graphics/SVG/1.1/DTD/svg11.dtd">
<svg xmlns="http://www.w3.org/2000/svg" version="1.1" width="640px" height="480px" style="shape-rendering:geometricPrecision; text-rendering:geometricPrecision; image-rendering:optimizeQuality; fill-rule:evenodd; clip-rule:evenodd" xmlns:xlink="http://www.w3.org/1999/xlink">
<g><path style="opacity:1" fill="#3d9900" d="M -0.5,0.5 C -0.5,0.166667 -0.5,-0.166667 -0.5,-0.5C 212.833,-0.5 426.167,-0.5 639.5,-0.5C 639.5,52.8333 639.5,106.167 639.5,159.5C 466.167,159.5 292.833,159.5 119.5,159.5C 79.7315,106.282 39.7315,53.2823 -0.5,0.5 Z"/></g>
<g><path style="opacity:1" fill="#0273cd" d="M -0.5,0.5 C 39.7315,53.2823 79.7315,106.282 119.5,159.5C 139.491,186.137 159.491,212.804 179.5,239.5C 159.491,266.196 139.491,292.863 119.5,319.5C 79.8089,372.852 40.1422,426.185 0.5,479.5C 0.166667,479.5 -0.166667,479.5 -0.5,479.5C -0.5,319.833 -0.5,160.167 -0.5,0.5 Z"/></g>
<g><path style="opacity:1" fill="#fefefe" d="M 119.5,159.5 C 292.833,159.5 466.167,159.5 639.5,159.5C 639.5,212.833 639.5,266.167 639.5,319.5C 466.167,319.5 292.833,319.5 119.5,319.5C 139.491,292.863 159.491,266.196 179.5,239.5C 159.491,212.804 139.491,186.137 119.5,159.5 Z"/></g>
<g><path style="opacity:1" fill="#5e5636" d="M 330.5,170.5 C 329.833,170.5 329.167,170.5 328.5,170.5C 329.167,167.833 329.833,167.833 330.5,170.5 Z"/></g>
<g><path style="opacity:1" fill="#6e612b" d="M 311.5,171.5 C 310.5,170.167 309.5,170.167 308.5,171.5C 309.5,167.5 310.5,167.5 311.5,171.5 Z"/></g>
<g><path style="opacity:1" fill="#f7d000" d="M 311.5,171.5 C 311.821,173.048 312.821,173.715 314.5,173.5C 314.232,175.099 314.566,176.432 315.5,177.5C 314.9,178.9 313.9,179.9 312.5,180.5C 311.662,180.842 311.328,181.508 311.5,182.5C 310.391,182.443 309.391,182.11 308.5,181.5C 308.179,179.952 307.179,179.285 305.5,179.5C 305.768,177.901 305.434,176.568 304.5,175.5C 305.833,174.167 307.167,172.833 308.5,171.5C 309.5,170.167 310.5,170.167 311.5,171.5 Z"/></g>
<g><path style="opacity:1" fill="#7a755f" d="M 328.5,170.5 C 327.198,172.028 325.531,173.028 323.5,173.5C 322.957,173.44 322.624,173.107 322.5,172.5C 324.495,171.705 326.495,171.039 328.5,170.5 Z"/></g>
<g><path style="opacity:1" fill="#f0cb05" d="M 328.5,170.5 C 329.167,170.5 329.833,170.5 330.5,170.5C 330.328,171.492 330.662,172.158 331.5,172.5C 332.833,173.167 334.167,173.833 335.5,174.5C 333.618,175.221 333.285,176.221 334.5,177.5C 332.807,178.853 331.474,180.52 330.5,182.5C 329.391,182.443 328.391,182.11 327.5,181.5C 327.5,181.167 327.5,180.833 327.5,180.5C 326.167,179.833 324.833,179.167 323.5,178.5C 325.382,177.779 325.715,176.779 324.5,175.5C 323.662,175.158 323.328,174.492 323.5,173.5C 325.531,173.028 327.198,172.028 328.5,170.5 Z"/></g>
<g><path style="opacity:1" fill="#5e542a" d="M 308.5,171.5 C 307.167,172.833 305.833,174.167 304.5,175.5C 303.733,174.828 303.066,173.995 302.5,173C 304.586,172.685 306.586,172.185 308.5,171.5 Z"/></g>
<g><path style="opacity:1" fill="#554c24" d="M 331.5,172.5 C 333.288,172.215 334.955,172.548 336.5,173.5C 336.376,174.107 336.043,174.44 335.5,174.5C 334.167,173.833 332.833,173.167 331.5,172.5 Z"/></g>
<g><path style="opacity:1" fill="#675c2e" d="M 290.5,173.5 C 289.167,174.5 287.833,175.5 286.5,176.5C 287.046,174.697 287.88,173.03 289,171.5C 289.717,172.044 290.217,172.711 290.5,173.5 Z"/></g>
<g><path style="opacity:1" fill="#98853d" d="M 311.5,171.5 C 313.167,171.5 314.833,171.5 316.5,171.5C 316.167,173.5 315.833,175.5 315.5,177.5C 314.566,176.432 314.232,175.099 314.5,173.5C 312.821,173.715 311.821,173.048 311.5,171.5 Z"/></g>
<g><path style="opacity:1" fill="#756832" d="M 351.5,174.5 C 350.883,174.389 350.383,174.056 350,173.5C 348.556,175.155 346.722,175.822 344.5,175.5C 344.768,177.099 344.434,178.432 343.5,179.5C 343.5,177.833 343.5,176.167 343.5,174.5C 346.421,174.854 348.754,173.854 350.5,171.5C 351.386,172.325 351.719,173.325 351.5,174.5 Z"/></g>
<g><path style="opacity:1" fill="#f6d001" d="M 351.5,174.5 C 351.5,175.833 352.167,176.5 353.5,176.5C 353.446,178.194 353.446,179.86 353.5,181.5C 352.552,182.978 351.219,183.978 349.5,184.5C 347.801,184.473 346.467,183.806 345.5,182.5C 344.5,181.833 343.5,181.167 342.5,180.5C 342.5,179.833 342.833,179.5 343.5,179.5C 344.434,178.432 344.768,177.099 344.5,175.5C 346.722,175.822 348.556,175.155 350,173.5C 350.383,174.056 350.883,174.389 351.5,174.5 Z"/></g>
<g><path style="opacity:1" fill="#f8d100" d="M 290.5,173.5 C 290.5,174.167 290.833,174.5 291.5,174.5C 292.209,175.404 293.209,175.737 294.5,175.5C 294.263,176.791 294.596,177.791 295.5,178.5C 295.414,179.496 295.748,180.329 296.5,181C 294.881,181.236 293.881,182.069 293.5,183.5C 292.778,183.918 292.278,184.584 292,185.5C 291.617,184.944 291.117,184.611 290.5,184.5C 289.432,183.566 288.099,183.232 286.5,183.5C 286.768,181.901 286.434,180.568 285.5,179.5C 284.185,178.105 284.519,177.105 286.5,176.5C 287.833,175.5 289.167,174.5 290.5,173.5 Z"/></g>
<g><path style="opacity:1" fill="#706438" d="M 295.5,178.5 C 294.596,177.791 294.263,176.791 294.5,175.5C 293.209,175.737 292.209,175.404 291.5,174.5C 293.117,173.962 294.784,173.629 296.5,173.5C 296.371,175.216 296.038,176.883 295.5,178.5 Z"/></g>
<g><path style="opacity:1" fill="#6f6334" d="M 353.5,176.5 C 354.675,176.281 355.675,176.614 356.5,177.5C 355.476,178.852 354.476,180.185 353.5,181.5C 353.446,179.86 353.446,178.194 353.5,176.5 Z"/></g>
<g><path style="opacity:1" fill="#6d6132" d="M 324.5,175.5 C 325.715,176.779 325.382,177.779 323.5,178.5C 323.557,177.391 323.89,176.391 324.5,175.5 Z"/></g>
<g><path style="opacity:1" fill="#62561d" d="M 271.5,179.5 C 270.1,180.1 269.1,181.1 268.5,182.5C 268.34,180.801 268.506,179.134 269,177.5C 269.995,178.066 270.828,178.733 271.5,179.5 Z"/></g>
<g><path style="opacity:1" fill="#f4ce02" d="M 271.5,179.5 C 272.568,180.434 273.901,180.768 275.5,180.5C 275.285,182.179 275.952,183.179 277.5,183.5C 278.833,184.5 278.833,185.5 277.5,186.5C 275.955,187.23 275.122,188.563 275,190.5C 274.329,189.748 273.496,189.414 272.5,189.5C 271.209,189.263 270.209,189.596 269.5,190.5C 269.028,188.469 268.028,186.802 266.5,185.5C 266.5,184.833 266.5,184.167 266.5,183.5C 266.842,182.662 267.508,182.328 268.5,182.5C 269.1,181.1 270.1,180.1 271.5,179.5 Z"/></g>
<g><path style="opacity:1" fill="#938140" d="M 304.5,175.5 C 305.434,176.568 305.768,177.901 305.5,179.5C 307.179,179.285 308.179,179.952 308.5,181.5C 306.833,181.5 305.167,181.5 303.5,181.5C 303.833,179.5 304.167,177.5 304.5,175.5 Z"/></g>
<g><path style="opacity:1" fill="#514a27" d="M 315.5,177.5 C 316.267,178.172 316.934,179.005 317.5,180C 315.866,180.494 314.199,180.66 312.5,180.5C 313.9,179.9 314.9,178.9 315.5,177.5 Z"/></g>
<g><path style="opacity:1" fill="#4b4421" d="M 323.5,178.5 C 324.833,179.167 326.167,179.833 327.5,180.5C 325.712,180.785 324.045,180.452 322.5,179.5C 322.624,178.893 322.957,178.56 323.5,178.5 Z"/></g>
<g><path style="opacity:1" fill="#eec905" d="M 365.5,179.5 C 366.5,180.833 367.5,180.833 368.5,179.5C 369.9,180.1 370.9,181.1 371.5,182.5C 372.833,183.833 372.833,185.167 371.5,186.5C 370.596,187.209 370.263,188.209 370.5,189.5C 368.585,189.216 366.919,189.549 365.5,190.5C 363.86,188.602 362.193,186.602 360.5,184.5C 360.957,183.702 361.624,183.369 362.5,183.5C 363.022,181.781 364.022,180.448 365.5,179.5 Z"/></g>
<g><path style="opacity:1" fill="#806e1b" d="M 277.5,183.5 C 275.952,183.179 275.285,182.179 275.5,180.5C 273.901,180.768 272.568,180.434 271.5,179.5C 272.93,179.579 274.264,179.246 275.5,178.5C 276.322,180.139 276.989,181.805 277.5,183.5 Z"/></g>
<g><path style="opacity:1" fill="#93886b" d="M 334.5,177.5 C 335.391,178.261 336.058,179.261 336.5,180.5C 334.505,181.295 332.505,181.961 330.5,182.5C 331.474,180.52 332.807,178.853 334.5,177.5 Z"/></g>
<g><path style="opacity:1" fill="#514c32" d="M 365.5,179.5 C 364.022,180.448 363.022,181.781 362.5,183.5C 362.338,181.473 362.505,179.473 363,177.5C 363.995,178.066 364.828,178.733 365.5,179.5 Z"/></g>
<g><path style="opacity:1" fill="#605837" d="M 371.5,182.5 C 370.9,181.1 369.9,180.1 368.5,179.5C 368.811,178.522 369.478,177.855 370.5,177.5C 371.452,179.045 371.785,180.712 371.5,182.5 Z"/></g>
<g><path style="opacity:1" fill="#726943" d="M 295.5,178.5 C 299.488,181.291 298.821,182.958 293.5,183.5C 293.881,182.069 294.881,181.236 296.5,181C 295.748,180.329 295.414,179.496 295.5,178.5 Z"/></g>
<g><path style="opacity:1" fill="#5c5430" d="M 342.5,180.5 C 343.5,181.167 344.5,181.833 345.5,182.5C 344.022,182.762 342.689,182.429 341.5,181.5C 341.624,180.893 341.957,180.56 342.5,180.5 Z"/></g>
<g><path style="opacity:1" fill="#5f5738" d="M 308.5,181.5 C 309.391,182.11 310.391,182.443 311.5,182.5C 309.987,185.048 308.987,184.715 308.5,181.5 Z"/></g>
<g><path style="opacity:1" fill="#5b5437" d="M 327.5,181.5 C 328.391,182.11 329.391,182.443 330.5,182.5C 328.987,185.048 327.987,184.715 327.5,181.5 Z"/></g>
<g><path style="opacity:1" fill="#5a5126" d="M 285.5,179.5 C 286.434,180.568 286.768,181.901 286.5,183.5C 288.099,183.232 289.432,183.566 290.5,184.5C 288.833,184.5 287.167,184.5 285.5,184.5C 285.5,182.833 285.5,181.167 285.5,179.5 Z"/></g>
<g><path style="opacity:1" fill="#534d31" d="M 353.5,181.5 C 354.404,182.209 354.737,183.209 354.5,184.5C 352.833,184.5 351.167,184.5 349.5,184.5C 351.219,183.978 352.552,182.978 353.5,181.5 Z"/></g>
<g><path style="opacity:1" fill="#685d2a" d="M 266.5,183.5 C 266.5,184.167 266.5,184.833 266.5,185.5C 263.833,184.833 263.833,184.167 266.5,183.5 Z"/></g>
<g><path style="opacity:1" fill="#7b6d33" d="M 345.5,182.5 C 346.467,183.806 347.801,184.473 349.5,184.5C 346.97,188.343 345.637,187.677 345.5,182.5 Z"/></g>
<g><path style="opacity:1" fill="#7f7037" d="M 371.5,182.5 C 376.555,183.488 376.555,184.821 371.5,186.5C 372.833,185.167 372.833,183.833 371.5,182.5 Z"/></g>
<g><path style="opacity:1" fill="#6b644c" d="M 277.5,183.5 C 281.5,184.5 281.5,185.5 277.5,186.5C 278.833,185.5 278.833,184.5 277.5,183.5 Z"/></g>
<g><path style="opacity:1" fill="#686143" d="M 293.5,183.5 C 293.5,184.5 293.5,185.5 293.5,186.5C 291.821,186.715 290.821,186.048 290.5,184.5C 291.117,184.611 291.617,184.944 292,185.5C 292.278,184.584 292.778,183.918 293.5,183.5 Z"/></g>
<g><path style="opacity:1" fill="#514c30" d="M 266.5,185.5 C 268.028,186.802 269.028,188.469 269.5,190.5C 269.44,191.043 269.107,191.376 268.5,191.5C 267.705,189.505 267.039,187.505 266.5,185.5 Z"/></g>
<g><path style="opacity:1" fill="#85742e" d="M 371.5,186.5 C 371.5,187.833 371.5,189.167 371.5,190.5C 369.5,190.5 367.5,190.5 365.5,190.5C 366.919,189.549 368.585,189.216 370.5,189.5C 370.263,188.209 370.596,187.209 371.5,186.5 Z"/></g>
<g><path style="opacity:1" fill="#605835" d="M 277.5,186.5 C 276.699,188.042 276.366,189.708 276.5,191.5C 274.62,191.771 273.287,191.104 272.5,189.5C 273.496,189.414 274.329,189.748 275,190.5C 275.122,188.563 275.955,187.23 277.5,186.5 Z"/></g>
<g><path style="opacity:1" fill="#4b4b4b" d="M 351.5,284.5 C 354.623,281.924 356.457,278.59 357,274.5C 357.83,246.997 357.664,219.664 356.5,192.5C 331.672,191.502 306.672,191.169 281.5,191.5C 281.169,218.672 281.502,245.672 282.5,272.5C 282.405,275.692 283.071,278.692 284.5,281.5C 282.306,279.779 281.139,277.445 281,274.5C 280.5,246.502 280.333,218.502 280.5,190.5C 306.5,190.5 332.5,190.5 358.5,190.5C 358.667,218.835 358.5,247.169 358,275.5C 357.758,280.013 355.592,283.013 351.5,284.5 Z"/></g>
<g><path style="opacity:1" fill="#fbfcfb" d="M 356.5,192.5 C 357.664,219.664 357.83,246.997 357,274.5C 356.457,278.59 354.623,281.924 351.5,284.5C 342.859,285.211 334.192,285.711 325.5,286C 323.131,286.536 321.131,287.703 319.5,289.5C 317.446,287.806 315.112,286.639 312.5,286C 304.475,285.699 296.475,285.199 288.5,284.5C 287.564,283.026 286.23,282.026 284.5,281.5C 283.071,278.692 282.405,275.692 282.5,272.5C 282.5,245.833 282.5,219.167 282.5,192.5C 307.167,192.5 331.833,192.5 356.5,192.5 Z"/></g>
<g><path style="opacity:1" fill="#0c963c" d="M 328.5,224.5 C 327.341,223.544 326.174,222.544 325,221.5C 322.901,222.287 320.734,222.62 318.5,222.5C 317.652,221.375 316.652,221.375 315.5,222.5C 313.799,223.211 312.799,224.545 312.5,226.5C 311.5,226.5 310.5,226.5 309.5,226.5C 310.17,229.59 309.003,231.257 306,231.5C 303.587,230.415 301.087,229.415 298.5,228.5C 294.286,231.2 290.62,230.533 287.5,226.5C 289.555,225.813 291.221,224.646 292.5,223C 294.78,222.767 296.78,221.934 298.5,220.5C 299.256,217.023 300.256,213.69 301.5,210.5C 302.5,210.5 303.5,210.5 304.5,210.5C 304.972,207.185 306.805,204.851 310,203.5C 310.333,202.5 310.667,201.5 311,200.5C 312.947,199.89 314.781,199.057 316.5,198C 322.089,196.782 325.089,198.948 325.5,204.5C 327.484,204.383 329.15,205.05 330.5,206.5C 334.651,203.764 338.651,203.931 342.5,207C 343.337,208.011 343.67,209.178 343.5,210.5C 345.262,210.357 346.929,210.691 348.5,211.5C 349.678,214.392 351.344,216.892 353.5,219C 351.848,221.323 350.181,223.656 348.5,226C 344.981,226.377 341.481,226.877 338,227.5C 336.029,227.532 334.529,226.698 333.5,225C 331.866,224.506 330.199,224.34 328.5,224.5 Z"/></g>
<g><path style="opacity:1" fill="#eff1ef" d="M 318.5,222.5 C 318.737,223.791 318.404,224.791 317.5,225.5C 316.833,224.5 316.167,223.5 315.5,222.5C 316.652,221.375 317.652,221.375 318.5,222.5 Z"/></g>
<g><path style="opacity:1" fill="#71482f" d="M 328.5,224.5 C 326.193,225.977 324.36,227.977 323,230.5C 322.333,239.5 322.333,248.5 323,257.5C 325.136,264.709 326.636,272.043 327.5,279.5C 324.71,279.222 322.21,279.889 320,281.5C 319.098,281.257 318.265,280.923 317.5,280.5C 318.809,262.125 318.809,243.791 317.5,225.5C 318.404,224.791 318.737,223.791 318.5,222.5C 320.734,222.62 322.901,222.287 325,221.5C 326.174,222.544 327.341,223.544 328.5,224.5 Z"/></g>
<g><path style="opacity:1" fill="#9d6833" d="M 315.5,222.5 C 316.167,223.5 316.833,224.5 317.5,225.5C 318.809,243.791 318.809,262.125 317.5,280.5C 316.85,280.804 316.183,281.137 315.5,281.5C 313.827,279.914 311.827,279.247 309.5,279.5C 311.972,270.995 314.138,262.328 316,253.5C 316.667,245.5 316.667,237.5 316,229.5C 315.578,227.574 314.411,226.574 312.5,226.5C 312.799,224.545 313.799,223.211 315.5,222.5 Z"/></g>
<g><path style="opacity:1" fill="#bdbdbd" d="M 356.5,192.5 C 331.833,192.5 307.167,192.5 282.5,192.5C 282.5,219.167 282.5,245.833 282.5,272.5C 281.502,245.672 281.169,218.672 281.5,191.5C 306.672,191.169 331.672,191.502 356.5,192.5 Z"/></g>
<g><path style="opacity:1" fill="#7d7d7d" d="M 372.5,257.5 C 373.045,255.407 373.878,253.407 375,251.5C 376.5,257.501 378,263.501 379.5,269.5C 379.523,271.067 379.023,272.4 378,273.5C 377.983,267.742 376.817,262.075 374.5,256.5C 373.817,256.863 373.15,257.196 372.5,257.5 Z"/></g>
<g><path style="opacity:1" fill="#7c7c7c" d="M 266.5,257.5 C 268.757,258.562 269.923,260.228 270,262.5C 268.198,261.211 267.031,259.544 266.5,257.5 Z"/></g>
<g><path style="opacity:1" fill="#707070" d="M 266.5,257.5 C 265.85,257.196 265.183,256.863 264.5,256.5C 263.21,258.657 262.376,260.99 262,263.5C 261.693,259.38 262.36,255.38 264,251.5C 264.655,253.628 265.489,255.628 266.5,257.5 Z"/></g>
<g><path style="opacity:1" fill="#808080" d="M 372.5,257.5 C 371.969,259.544 370.802,261.211 369,262.5C 369.077,260.228 370.243,258.562 372.5,257.5 Z"/></g>
<g><path style="opacity:1" fill="#757575" d="M 372.5,269.5 C 369.147,267.843 367.147,268.843 366.5,272.5C 364.171,270.004 364.004,267.337 366,264.5C 365.737,265.951 365.904,267.284 366.5,268.5C 367.833,267.833 369.167,267.167 370.5,266.5C 371.919,267.005 372.585,268.005 372.5,269.5 Z"/></g>
<g><path style="opacity:1" fill="#f4f4f4" d="M 372.5,269.5 C 372.371,271.216 372.038,272.883 371.5,274.5C 370.883,274.611 370.383,274.944 370,275.5C 368.961,274.29 367.794,273.29 366.5,272.5C 367.147,268.843 369.147,267.843 372.5,269.5 Z"/></g>
<g><path style="opacity:1" fill="#6f6f6f" d="M 271.5,273.5 C 271.539,272.417 271.873,271.417 272.5,270.5C 271.975,269.808 271.308,269.308 270.5,269C 272.061,268.682 273.228,267.849 274,266.5C 274.838,269.481 274.005,271.814 271.5,273.5 Z"/></g>
<g><path style="opacity:1" fill="#3e3e3e" d="M 267.5,274.5 C 266.833,274.167 266.167,273.833 265.5,273.5C 265.848,268.625 266.515,268.959 267.5,274.5 Z"/></g>
<g><path style="opacity:1" fill="#787878" d="M 265.5,273.5 C 265.59,276.152 264.924,278.485 263.5,280.5C 263.896,277.956 263.229,275.789 261.5,274C 262.959,274.355 264.293,274.189 265.5,273.5 Z"/></g>
<g><path style="opacity:1" fill="#e9e9e9" d="M 265.5,273.5 C 266.167,273.833 266.833,274.167 267.5,274.5C 267.427,276.027 268.094,277.027 269.5,277.5C 270.5,280.5 272.5,282.5 275.5,283.5C 280.282,286.07 285.282,287.737 290.5,288.5C 294.123,289.269 299.123,289.936 305.5,290.5C 303.116,291.011 301.116,292.011 299.5,293.5C 298.527,295.948 298.194,298.615 298.5,301.5C 296.901,301.232 295.568,301.566 294.5,302.5C 293.209,302.737 292.209,302.404 291.5,301.5C 289.346,300.178 286.346,299.512 282.5,299.5C 282.082,298.778 281.416,298.278 280.5,298C 281.416,297.722 282.082,297.222 282.5,296.5C 283.167,296.167 283.833,295.833 284.5,295.5C 285.263,291.862 283.93,290.362 280.5,291C 283.817,292.085 284.151,293.585 281.5,295.5C 280.749,294.624 280.249,293.624 280,292.5C 279.722,293.416 279.222,294.082 278.5,294.5C 278.421,293.07 278.754,291.736 279.5,290.5C 278.265,287.956 277.099,287.956 276,290.5C 275.667,289.167 275.333,287.833 275,286.5C 273.984,287.634 273.317,287.301 273,285.5C 271.871,287.141 270.371,288.141 268.5,288.5C 269.209,289.404 270.209,289.737 271.5,289.5C 271.688,291.103 271.188,292.437 270,293.5C 268.296,291.627 266.463,289.96 264.5,288.5C 263.662,288.158 263.328,287.492 263.5,286.5C 263.5,284.5 263.5,282.5 263.5,280.5C 264.924,278.485 265.59,276.152 265.5,273.5 Z"/></g>
<g><path style="opacity:1" fill="#606060" d="M 271.5,273.5 C 271.267,275.062 270.6,276.395 269.5,277.5C 268.094,277.027 267.427,276.027 267.5,274.5C 268.962,275.471 270.295,275.138 271.5,273.5 Z"/></g>
<g><path style="opacity:1" fill="#6d6d6d" d="M 366.5,272.5 C 367.794,273.29 368.961,274.29 370,275.5C 370.383,274.944 370.883,274.611 371.5,274.5C 370.931,277.719 369.264,280.052 366.5,281.5C 367.117,279.771 368.117,278.271 369.5,277C 367.859,275.871 366.859,274.371 366.5,272.5 Z"/></g>
<g><path style="opacity:1" fill="#636363" d="M 372.5,269.5 C 374.589,273.501 375.922,277.835 376.5,282.5C 374.672,279.865 373.505,276.865 373,273.5C 372.617,274.056 372.117,274.389 371.5,274.5C 372.038,272.883 372.371,271.216 372.5,269.5 Z"/></g>
<g><path style="opacity:1" fill="#7a7a7a" d="M 269.5,277.5 C 271.833,279.167 273.833,281.167 275.5,283.5C 272.5,282.5 270.5,280.5 269.5,277.5 Z"/></g>
<g><path style="opacity:1" fill="#5e5e5e" d="M 284.5,281.5 C 286.23,282.026 287.564,283.026 288.5,284.5C 286.368,284.446 285.035,283.446 284.5,281.5 Z"/></g>
<g><path style="opacity:1" fill="#e4e4e4" d="M 376.5,282.5 C 376.842,288.213 374.176,292.213 368.5,294.5C 359.639,298.607 350.305,300.94 340.5,301.5C 340.817,298.428 340.484,295.428 339.5,292.5C 337.465,291.959 335.465,291.292 333.5,290.5C 339.807,289.669 346.141,289.169 352.5,289C 354.852,288.76 356.852,287.927 358.5,286.5C 361.159,284.836 363.825,283.17 366.5,281.5C 369.264,280.052 370.931,277.719 371.5,274.5C 372.117,274.389 372.617,274.056 373,273.5C 373.505,276.865 374.672,279.865 376.5,282.5 Z"/></g>
<g><path style="opacity:1" fill="#828282" d="M 263.5,280.5 C 263.5,282.5 263.5,284.5 263.5,286.5C 260.833,284.5 260.833,282.5 263.5,280.5 Z"/></g>
<g><path style="opacity:1" fill="#2d2d2d" d="M 268.5,288.5 C 267.195,285.62 268.195,284.12 271.5,284C 269.859,285.129 268.859,286.629 268.5,288.5 Z"/></g>
<g><path style="opacity:1" fill="#676767" d="M 288.5,284.5 C 296.475,285.199 304.475,285.699 312.5,286C 315.112,286.639 317.446,287.806 319.5,289.5C 321.131,287.703 323.131,286.536 325.5,286C 334.192,285.711 342.859,285.211 351.5,284.5C 349.852,285.927 347.852,286.76 345.5,287C 342.167,287.333 338.833,287.667 335.5,288C 343.263,288.805 350.93,288.305 358.5,286.5C 356.852,287.927 354.852,288.76 352.5,289C 346.141,289.169 339.807,289.669 333.5,290.5C 335.465,291.292 337.465,291.959 339.5,292.5C 340.484,295.428 340.817,298.428 340.5,301.5C 350.305,300.94 359.639,298.607 368.5,294.5C 365.454,297.357 361.787,299.19 357.5,300C 351.905,301.347 346.238,302.18 340.5,302.5C 340.923,304.781 340.256,306.448 338.5,307.5C 339.58,304.257 339.747,300.924 339,297.5C 336.959,298.423 334.792,298.756 332.5,298.5C 332.5,294.833 332.5,291.167 332.5,287.5C 326.897,286.242 322.563,287.909 319.5,292.5C 317.707,289.434 315.04,287.6 311.5,287C 304.5,286.667 297.5,286.333 290.5,286C 289.584,285.722 288.918,285.222 288.5,284.5 Z"/></g>
<g><path style="opacity:1" fill="#4a4a4a" d="M 365.5,286.5 C 366.793,285.355 367.959,285.689 369,287.5C 368.591,285.775 368.758,284.108 369.5,282.5C 371.332,283.248 372.999,284.248 374.5,285.5C 374.154,286.696 373.654,286.696 373,285.5C 372.101,287.516 370.767,289.183 369,290.5C 368.34,288.676 367.173,287.343 365.5,286.5 Z"/></g>
<g><path style="opacity:1" fill="#2a2a2a" d="M 278.5,294.5 C 277.883,294.611 277.383,294.944 277,295.5C 277,294.167 277,292.833 277,291.5C 274.965,293.912 273.965,293.245 274,289.5C 273.03,289.624 272.197,289.624 271.5,289.5C 270.209,289.737 269.209,289.404 268.5,288.5C 270.371,288.141 271.871,287.141 273,285.5C 273.317,287.301 273.984,287.634 275,286.5C 275.333,287.833 275.667,289.167 276,290.5C 277.099,287.956 278.265,287.956 279.5,290.5C 278.754,291.736 278.421,293.07 278.5,294.5 Z"/></g>
<g><path style="opacity:1" fill="#4e4e4e" d="M 365.5,286.5 C 363.649,287.866 363.316,289.533 364.5,291.5C 365.478,291.023 366.311,290.357 367,289.5C 367.667,290.167 367.667,290.833 367,291.5C 365.004,291.996 363.337,292.996 362,294.5C 359.341,289.309 358.341,289.642 359,295.5C 357.954,293.91 356.787,292.41 355.5,291C 359.203,290.244 362.537,288.744 365.5,286.5 Z"/></g>
<g><path style="opacity:1" fill="#b6b6b6" d="M 264.5,288.5 C 266.463,289.96 268.296,291.627 270,293.5C 271.188,292.437 271.688,291.103 271.5,289.5C 272.197,289.624 273.03,289.624 274,289.5C 273.965,293.245 274.965,293.912 277,291.5C 277,292.833 277,294.167 277,295.5C 277.383,294.944 277.883,294.611 278.5,294.5C 279.287,296.104 280.62,296.771 282.5,296.5C 282.082,297.222 281.416,297.722 280.5,298C 281.416,298.278 282.082,298.778 282.5,299.5C 277.546,298.527 272.879,296.694 268.5,294C 266.536,292.549 265.203,290.716 264.5,288.5 Z"/></g>
<g><path style="opacity:1" fill="#f1f1f1" d="M 333.5,292.5 C 336.969,291.887 338.969,293.221 339.5,296.5C 337.5,296.833 335.5,297.167 333.5,297.5C 333.5,295.833 333.5,294.167 333.5,292.5 Z"/></g>
<g><path style="opacity:1" fill="#4b4b4b" d="M 351.5,291.5 C 352.833,292.5 354.167,293.5 355.5,294.5C 355.5,295.5 355.5,296.5 355.5,297.5C 351.107,297.543 350.774,297.043 354.5,296C 353.234,295.691 352.067,295.191 351,294.5C 350.727,296.101 350.227,297.601 349.5,299C 348.365,299.749 347.365,299.583 346.5,298.5C 349.015,297.8 349.682,296.467 348.5,294.5C 349.77,293.712 350.77,292.712 351.5,291.5 Z"/></g>
<g><path style="opacity:1" fill="#5c5c5c" d="M 299.5,306.5 C 298.566,305.432 298.232,304.099 298.5,302.5C 297.167,302.5 295.833,302.5 294.5,302.5C 295.568,301.566 296.901,301.232 298.5,301.5C 298.194,298.615 298.527,295.948 299.5,293.5C 301.116,292.011 303.116,291.011 305.5,290.5C 299.123,289.936 294.123,289.269 290.5,288.5C 295.92,288.562 301.253,288.395 306.5,288C 307.342,290.068 307.342,292.235 306.5,294.5C 306.709,295.994 307.376,297.161 308.5,298C 305.469,298.495 302.469,298.329 299.5,297.5C 299.5,300.5 299.5,303.5 299.5,306.5 Z"/></g>
<g><path style="opacity:1" fill="#fbfbfb" d="M 299.5,293.5 C 301.435,292.85 303.435,292.517 305.5,292.5C 306.124,297.392 304.458,298.558 300.5,296C 299.748,295.329 299.414,294.496 299.5,293.5 Z"/></g>
<g><path style="opacity:1" fill="#2b2b2b" d="M 284.5,295.5 C 283.833,295.833 283.167,296.167 282.5,296.5C 280.62,296.771 279.287,296.104 278.5,294.5C 279.222,294.082 279.722,293.416 280,292.5C 280.249,293.624 280.749,294.624 281.5,295.5C 284.151,293.585 283.817,292.085 280.5,291C 283.93,290.362 285.263,291.862 284.5,295.5 Z"/></g>
<g><path style="opacity:1" fill="#303030" d="M 284.5,295.5 C 288.551,291.342 290.051,292.342 289,298.5C 287.921,296.606 286.587,296.273 285,297.5C 284.536,296.906 284.369,296.239 284.5,295.5 Z"/></g>
<g><path style="opacity:1" fill="#242424" d="M 294.5,297.5 C 293.432,298.434 292.099,298.768 290.5,298.5C 290.5,296.5 290.5,294.5 290.5,292.5C 295.027,292.005 296.361,293.672 294.5,297.5 Z"/></g>
<g><path style="opacity:1" fill="#cccccc" d="M 294.5,297.5 C 293.5,297.5 292.5,297.5 291.5,297.5C 291.238,296.022 291.571,294.689 292.5,293.5C 294.111,294.32 294.778,295.654 294.5,297.5 Z"/></g>
<g><path style="opacity:1" fill="#262626" d="M 343.5,294.5 C 344.874,296.517 344.707,298.517 343,300.5C 342.5,300 342,299.5 341.5,299C 343.107,297.951 343.773,296.451 343.5,294.5 Z"/></g>
<g><path style="opacity:1" fill="#606060" d="M 282.5,299.5 C 286.346,299.512 289.346,300.178 291.5,301.5C 288.219,301.58 285.219,300.913 282.5,299.5 Z"/></g>
<g><path style="opacity:1" fill="#3f3f3f" d="M 311.5,301.5 C 313.167,301.5 314.833,301.5 316.5,301.5C 316.382,304.25 315.049,306.25 312.5,307.5C 311.534,305.604 311.201,303.604 311.5,301.5 Z"/></g>
<g><path style="opacity:1" fill="#2c2c2c" d="M 324.5,305.5 C 324.414,304.504 324.748,303.671 325.5,303C 324.833,302.667 324.167,302.333 323.5,302C 329.678,301.029 330.011,302.196 324.5,305.5 Z"/></g>
<g><path style="opacity:1" fill="#303030" d="M 324.5,305.5 C 325.609,306.29 326.942,306.79 328.5,307C 324.385,307.158 320.385,307.158 316.5,307C 318.305,299.835 320.472,299.669 323,306.5C 323.383,305.944 323.883,305.611 324.5,305.5 Z"/></g>
<g><path style="opacity:1" fill="#757575" d="M 299.5,306.5 C 312.366,310.129 325.366,310.463 338.5,307.5C 336.852,308.927 334.852,309.76 332.5,310C 323.833,310.667 315.167,310.667 306.5,310C 303.555,309.861 301.221,308.694 299.5,306.5 Z"/></g>
<g><path style="opacity:1" fill="#e22118" d="M 119.5,319.5 C 292.833,319.5 466.167,319.5 639.5,319.5C 639.5,372.833 639.5,426.167 639.5,479.5C 426.5,479.5 213.5,479.5 0.5,479.5C 40.1422,426.185 79.8089,372.852 119.5,319.5 Z"/></g>
</svg>
