<?xml version="1.0" encoding="UTF-8"?>
<!DOCTYPE svg PUBLIC "-//W3C//DTD SVG 1.1//EN" "http://www.w3.org/Graphics/SVG/1.1/DTD/svg11.dtd">
<svg xmlns="http://www.w3.org/2000/svg" version="1.1" width="640px" height="480px" style="shape-rendering:geometricPrecision; text-rendering:geometricPrecision; image-rendering:optimizeQuality; fill-rule:evenodd; clip-rule:evenodd" xmlns:xlink="http://www.w3.org/1999/xlink">
<g><path style="opacity:1" fill="#239d45" d="M 0.5,-0.5 C 213.5,-0.5 426.5,-0.5 639.5,-0.5C 639.5,79.5 639.5,159.5 639.5,239.5C 639.167,239.5 638.833,239.5 638.5,239.5C 425.833,159.5 213.167,79.5 0.5,-0.5 Z"/></g>
<g><path style="opacity:1" fill="#be0327" d="M -0.5,-0.5 C -0.166667,-0.5 0.166667,-0.5 0.5,-0.5C 213.167,79.5 425.833,159.5 638.5,239.5C 425.833,319.5 213.167,399.5 0.5,479.5C 0.166667,479.5 -0.166667,479.5 -0.5,479.5C -0.5,319.5 -0.5,159.5 -0.5,-0.5 Z"/></g>
<g><path style="opacity:1" fill="#f2df93" d="M 221.5,378.5 C 204.167,378.5 186.833,378.5 169.5,378.5C 169.5,377.5 169.5,376.5 169.5,375.5C 172.258,368.241 177.258,363.074 184.5,360C 167.138,359.606 150.138,356.94 133.5,352C 123.889,349.05 115.889,343.717 109.5,336C 99.4759,330.159 88.8092,325.993 77.5,323.5C 80.4001,320.698 83.9001,319.365 88,319.5C 96.9075,321.029 105.408,323.529 113.5,327C 101.833,319.333 90.1667,311.667 78.5,304C 65.6525,293.471 58.8192,279.971 58,263.5C 67.1667,276.667 78.3333,287.833 91.5,297C 92.1667,297.667 92.8333,297.667 93.5,297C 79.6694,282.178 69.8361,265.011 64,245.5C 61.3149,236.341 62.3149,227.675 67,219.5C 69.4927,228.817 72.826,237.817 77,246.5C 75.5819,236.235 74.2486,225.901 73,215.5C 71.8655,200.728 72.5321,186.061 75,171.5C 78.5322,161.991 81.1988,162.324 83,172.5C 83.7943,175.471 84.461,178.471 85,181.5C 85.3333,189.833 85.6667,198.167 86,206.5C 87.5954,188.157 89.2621,169.824 91,151.5C 93.1946,140.752 99.0279,132.752 108.5,127.5C 108.833,127.833 109.167,128.167 109.5,128.5C 106.284,141.079 103.784,153.746 102,166.5C 105.628,159.543 110.628,153.877 117,149.5C 126.351,131.815 139.518,117.648 156.5,107C 158.902,106.186 161.235,106.353 163.5,107.5C 159.021,113.147 154.354,118.647 149.5,124C 156.69,120.745 164.024,117.412 171.5,114C 179.366,110.825 187.532,108.992 196,108.5C 200.389,108.852 204.556,110.018 208.5,112C 206.099,114.062 203.433,115.729 200.5,117C 187.871,120.237 175.538,124.237 163.5,129C 173.291,131.283 182.958,130.783 192.5,127.5C 192.218,129.835 190.885,132.002 188.5,134C 185.052,135.927 181.385,137.261 177.5,138C 169.091,138.093 160.757,138.76 152.5,140C 150.545,140.953 148.878,142.287 147.5,144C 153.3,145.98 159.134,145.813 165,143.5C 165.5,143.667 166,143.833 166.5,144C 162.66,147.92 157.994,150.253 152.5,151C 134.138,149.219 119.638,155.719 109,170.5C 106.31,174.91 104.643,179.577 104,184.5C 109.871,176.753 116.204,169.42 123,162.5C 125.547,169.692 124.547,176.358 120,182.5C 114.624,187.544 108.958,192.211 103,196.5C 97.8044,202.056 94.3044,208.556 92.5,216C 92.499,219.043 93.3324,219.21 95,216.5C 97.3333,212.5 99.6667,208.5 102,204.5C 102.667,208.167 102.667,211.833 102,215.5C 100.227,221.713 97.8941,227.713 95,233.5C 93.1923,241.441 92.1923,249.441 92,257.5C 95.1932,249.564 97.6932,241.398 99.5,233C 99.8333,232.5 100.167,232 100.5,231.5C 105.067,242.758 107.234,254.425 107,266.5C 104.742,271.18 102.909,276.013 101.5,281C 102.329,286.317 103.663,291.483 105.5,296.5C 105.783,297.289 106.283,297.956 107,298.5C 107.817,292.984 107.651,287.65 106.5,282.5C 106.34,280.801 106.506,279.134 107,277.5C 112.973,285.777 117.639,294.777 121,304.5C 122.244,301.362 122.911,298.028 123,294.5C 128.959,310.788 138.459,324.621 151.5,336C 155.007,338.254 158.673,340.254 162.5,342C 172.475,343.451 182.142,345.951 191.5,349.5C 191.364,332.112 190.364,314.778 188.5,297.5C 177.405,302.989 166.405,302.822 155.5,297C 148.647,291.435 145.481,284.268 146,275.5C 151.984,282.411 159.484,285.911 168.5,286C 159.055,281.555 151.888,274.721 147,265.5C 146.333,263.5 146.333,261.5 147,259.5C 152.858,264.397 159.358,267.897 166.5,270C 160.164,264.167 156.997,257 157,248.5C 167.573,254.405 176.24,262.405 183,272.5C 183.843,257.12 183.343,241.786 181.5,226.5C 170.727,231.289 162.56,228.622 157,218.5C 154.96,212.972 153.96,207.305 154,201.5C 155.899,205.66 158.899,208.66 163,210.5C 164.059,210.37 164.892,209.87 165.5,209C 159.114,198.736 156.948,187.57 159,175.5C 161.675,183.839 166.342,190.839 173,196.5C 172.051,193.654 171.051,190.654 170,187.5C 169.164,179.857 171.83,178.523 178,183.5C 184.06,191.06 186.726,199.727 186,209.5C 195.423,199.475 198.423,187.808 195,174.5C 185.123,174.366 177.623,170.033 172.5,161.5C 172.667,161.167 172.833,160.833 173,160.5C 177.18,163.002 181.68,163.836 186.5,163C 189.651,161.839 191.151,159.672 191,156.5C 186.024,158.457 180.857,158.957 175.5,158C 165.87,153.056 166.537,149.889 177.5,148.5C 182.781,148.822 187.781,150.156 192.5,152.5C 191.739,147.458 191.739,142.291 192.5,137C 201.846,138.368 206.013,143.868 205,153.5C 203.607,157.769 202.107,161.936 200.5,166C 201.428,171.88 202.595,177.714 204,183.5C 206.34,176.304 210.507,170.471 216.5,166C 218.025,164.991 219.692,164.491 221.5,164.5C 224.059,164.198 226.393,164.532 228.5,165.5C 226.871,166.625 225.371,167.959 224,169.5C 221.829,173.802 220.662,178.136 220.5,182.5C 226.684,180.834 231.184,177.167 234,171.5C 237.501,177.858 236.834,183.858 232,189.5C 228.117,193.05 223.951,196.217 219.5,199C 225.929,199.968 231.429,198.135 236,193.5C 236.06,203.127 231.227,208.96 221.5,211C 214.498,211.71 207.665,210.877 201,208.5C 197.802,208.696 195.802,210.363 195,213.5C 191.944,222.947 190.611,232.614 191,242.5C 193.01,232.485 196.677,223.152 202,214.5C 201.474,220.448 201.474,226.448 202,232.5C 202.098,234.619 202.931,236.286 204.5,237.5C 213.037,232.102 218.371,224.435 220.5,214.5C 226.075,218.051 227.908,223.051 226,229.5C 223.463,237.046 218.963,243.213 212.5,248C 220.2,249.334 227.533,248.334 234.5,245C 238.392,240.712 239.559,241.879 238,248.5C 234.036,257.513 227.036,261.513 217,260.5C 211.134,259.902 205.301,259.402 199.5,259C 194.848,260.306 192.515,263.306 192.5,268C 195.768,281.112 198.768,294.279 201.5,307.5C 203.099,298.441 205.932,289.774 210,281.5C 212.588,276.22 216.588,273.886 222,274.5C 222.167,275.667 222.333,276.833 222.5,278C 221.828,281.652 220.995,285.152 220,288.5C 226.39,283.445 231.723,278.112 236,272.5C 237.62,280.302 235.953,287.302 231,293.5C 228.049,296.572 225.216,299.739 222.5,303C 229.339,302.178 233.839,298.345 236,291.5C 239.285,297.243 238.951,302.909 235,308.5C 232.833,310.667 230.667,312.833 228.5,315C 221.538,318.03 214.371,320.196 207,321.5C 201.512,330.105 199.679,339.439 201.5,349.5C 206.459,347.236 211.459,345.069 216.5,343C 227.87,339.665 239.203,336.332 250.5,333C 253.04,330.795 255.207,328.295 257,325.5C 259.09,318.888 261.757,312.555 265,306.5C 270.388,301.615 275.221,296.282 279.5,290.5C 280.172,295.139 280.338,299.806 280,304.5C 286.671,297.148 289.338,288.481 288,278.5C 293.612,269.52 293.946,260.187 289,250.5C 287.234,242.549 288.734,235.383 293.5,229C 297.599,226.835 298.599,228.168 296.5,233C 296.933,243.925 300.766,253.425 308,261.5C 308.861,255.415 308.527,249.415 307,243.5C 299.152,230.955 295.152,217.288 295,202.5C 284.249,194.993 276.915,184.993 273,172.5C 272.113,167.928 272.78,163.595 275,159.5C 277.185,160.928 279.185,162.595 281,164.5C 284.292,169.583 287.459,174.75 290.5,180C 292.695,181.373 295.029,181.706 297.5,181C 292.458,173.081 287.291,165.248 282,157.5C 280.883,155.876 279.383,154.876 277.5,154.5C 266.676,159.89 256.009,159.723 245.5,154C 243.5,152 241.5,150 239.5,148C 246.23,147.83 252.897,147.163 259.5,146C 254.355,142.627 248.689,140.627 242.5,140C 234.651,139.325 226.817,139.492 219,140.5C 209.842,139.337 202.342,135.17 196.5,128C 199.818,128.487 203.152,129.32 206.5,130.5C 208.704,130.473 209.538,129.473 209,127.5C 206.205,125.707 203.705,123.54 201.5,121C 208.76,122.276 215.76,121.276 222.5,118C 227.648,116.891 232.315,117.891 236.5,121C 240.533,125.368 244.866,129.368 249.5,133C 251.212,134.751 253.212,135.418 255.5,135C 243.127,126.748 236.627,115.248 236,100.5C 253.383,110.882 267.049,124.882 277,142.5C 285.868,148.698 292.534,156.698 297,166.5C 298.574,154.361 296.074,143.194 289.5,133C 294.225,132.778 298.058,134.611 301,138.5C 304.137,143.108 306.47,148.108 308,153.5C 310.756,165.705 312.756,178.038 314,190.5C 315.969,186.804 316.969,182.804 317,178.5C 317.535,172.115 317.535,165.781 317,159.5C 327.874,172.998 331.54,188.331 328,205.5C 325.765,218.768 322.765,231.768 319,244.5C 325.962,237.294 329.629,228.627 330,218.5C 337.101,225.797 339.434,234.464 337,244.5C 334.078,253.676 330.078,262.343 325,270.5C 319.957,278.087 314.79,285.587 309.5,293C 323.988,284.961 334.488,273.128 341,257.5C 342.089,272.567 337.422,285.567 327,296.5C 315.199,308.973 301.699,319.14 286.5,327C 293.129,326.277 299.795,325.944 306.5,326C 307.308,326.308 307.975,326.808 308.5,327.5C 301.728,334.397 293.728,339.564 284.5,343C 259.062,352.754 232.729,358.421 205.5,360C 215.354,362.348 220.687,368.515 221.5,378.5 Z"/></g>
<g><path style="opacity:1" fill="#de8969" d="M 221.5,164.5 C 224.024,163.2 226.691,163.2 229.5,164.5C 229.376,165.107 229.043,165.44 228.5,165.5C 226.393,164.532 224.059,164.198 221.5,164.5 Z"/></g>
<g><path style="opacity:1" fill="#b4d6f3" d="M 638.5,239.5 C 638.833,239.5 639.167,239.5 639.5,239.5C 639.5,319.5 639.5,399.5 639.5,479.5C 426.5,479.5 213.5,479.5 0.5,479.5C 213.167,399.5 425.833,319.5 638.5,239.5 Z"/></g>
<g><path style="opacity:1" fill="#de8a6a" d="M 106.5,282.5 C 107.651,287.65 107.817,292.984 107,298.5C 106.283,297.956 105.783,297.289 105.5,296.5C 106.486,292.03 106.819,287.363 106.5,282.5 Z"/></g>
<g><path style="opacity:1" fill="#d25952" d="M 169.5,375.5 C 169.5,376.5 169.5,377.5 169.5,378.5C 186.833,378.5 204.167,378.5 221.5,378.5C 204.008,379.497 186.341,379.83 168.5,379.5C 168.232,377.901 168.566,376.568 169.5,375.5 Z"/></g>
</svg>
