<?xml version="1.0" encoding="UTF-8"?>
<!DOCTYPE svg PUBLIC "-//W3C//DTD SVG 1.1//EN" "http://www.w3.org/Graphics/SVG/1.1/DTD/svg11.dtd">
<svg xmlns="http://www.w3.org/2000/svg" version="1.1" width="640px" height="480px" style="shape-rendering:geometricPrecision; text-rendering:geometricPrecision; image-rendering:optimizeQuality; fill-rule:evenodd; clip-rule:evenodd" xmlns:xlink="http://www.w3.org/1999/xlink">
<g><path style="opacity:1" fill="#3e5eb9" d="M -0.5,-0.5 C 212.833,-0.5 426.167,-0.5 639.5,-0.5C 639.5,29.5 639.5,59.5 639.5,89.5C 426.167,89.5 212.833,89.5 -0.5,89.5C -0.5,59.5 -0.5,29.5 -0.5,-0.5 Z"/></g>
<g><path style="opacity:1" fill="#fed900" d="M -0.5,89.5 C 212.833,89.5 426.167,89.5 639.5,89.5C 639.5,99.5 639.5,109.5 639.5,119.5C 426.167,119.5 212.833,119.5 -0.5,119.5C -0.5,109.5 -0.5,99.5 -0.5,89.5 Z"/></g>
<g><path style="opacity:1" fill="#b00c0b" d="M -0.5,119.5 C 212.833,119.5 426.167,119.5 639.5,119.5C 639.5,199.5 639.5,279.5 639.5,359.5C 426.167,359.5 212.833,359.5 -0.5,359.5C -0.5,279.5 -0.5,199.5 -0.5,119.5 Z"/></g>
<g><path style="opacity:1" fill="#020101" d="M 333.5,137.5 C 327.158,137.334 320.825,137.5 314.5,138C 309.55,143.62 305.384,149.787 302,156.5C 301.333,160.5 301.333,164.5 302,168.5C 304.333,172.167 306.667,175.833 309,179.5C 309.333,181.5 309.667,183.5 310,185.5C 312.966,187.034 316.133,188.2 319.5,189C 321.737,191.03 323.237,193.53 324,196.5C 325.491,198.004 327.324,198.837 329.5,199C 330.126,199.75 330.626,200.584 331,201.5C 331.333,210.167 331.667,218.833 332,227.5C 333.924,232.922 337.757,235.922 343.5,236.5C 344.681,238.135 344.681,239.802 343.5,241.5C 340.25,243.612 337.25,245.945 334.5,248.5C 331.949,250.578 330.116,253.244 329,256.5C 328.769,260.584 328.102,264.584 327,268.5C 323.352,272.479 319.352,276.145 315,279.5C 314.104,282.025 314.604,284.192 316.5,286C 323.833,289.333 331.167,292.667 338.5,296C 339.517,297.049 339.684,298.216 339,299.5C 337.352,300.717 335.519,301.55 333.5,302C 327.139,303.206 320.806,304.539 314.5,306C 311.597,306.956 310.097,308.789 310,311.5C 320.448,316.322 330.948,321.155 341.5,326C 345.884,328.717 349.218,332.384 351.5,337C 360.675,335.78 369.675,333.613 378.5,330.5C 359.211,338.887 338.878,342.887 317.5,342.5C 288.378,342.626 261.378,335.126 236.5,320C 219.704,309.874 204.038,298.208 189.5,285C 176.5,272 163.5,259 150.5,246C 130.833,245.333 111.167,245.333 91.5,246C 92.6349,250.748 92.8015,255.581 92,260.5C 91.3333,259.833 90.6667,259.167 90,258.5C 89.8311,265.524 89.3311,272.524 88.5,279.5C 87.914,279.291 87.414,278.957 87,278.5C 84.6533,282.191 83.1533,286.191 82.5,290.5C 81.8076,289.975 81.3076,289.308 81,288.5C 78.7664,290.7 76.2664,292.533 73.5,294C 71.393,295.264 70.393,297.097 70.5,299.5C 67.2307,299.116 64.3974,297.782 62,295.5C 61.0943,297.612 59.5943,298.445 57.5,298C 53.5575,294.342 51.2242,289.842 50.5,284.5C 52.3642,288.553 54.6975,292.387 57.5,296C 59.1068,296.115 60.6068,295.615 62,294.5C 63.7374,295.62 65.5708,296.62 67.5,297.5C 72.1667,293.833 76.8333,290.167 81.5,286.5C 83.2695,283.294 84.7695,279.961 86,276.5C 86.6667,275.167 87.3333,275.167 88,276.5C 88.3333,269.5 88.6667,262.5 89,255.5C 89.6667,256.167 90.3333,256.833 91,257.5C 92.6723,243.502 86.6723,238.169 73,241.5C 68.0709,240.892 63.2376,239.892 58.5,238.5C 58.5,239.5 58.5,240.5 58.5,241.5C 56.8333,241.5 55.1667,241.5 53.5,241.5C 53.5,242.5 53.5,243.5 53.5,244.5C 51.1432,244.337 48.8098,244.503 46.5,245C 39.6108,250.616 35.7775,257.782 35,266.5C 35.6667,265.833 36.3333,265.167 37,264.5C 37.3607,267.525 37.8607,270.525 38.5,273.5C 38.7472,274.713 39.4138,275.38 40.5,275.5C 40.5852,276.995 39.9185,277.995 38.5,278.5C 37.6331,275.016 36.4664,271.683 35,268.5C 33.3324,271.21 32.499,271.043 32.5,268C 33.783,259.434 37.4497,252.101 43.5,246C 39.1667,245.667 34.8333,245.333 30.5,245C 29.1772,244.184 28.5106,243.017 28.5,241.5C 31.2546,244.007 34.588,245.007 38.5,244.5C 43.4326,244.698 48.0993,243.698 52.5,241.5C 51.4104,240.391 51.4104,239.391 52.5,238.5C 53.8498,239.95 55.5165,240.617 57.5,240.5C 57.5,239.5 57.5,238.5 57.5,237.5C 62.3793,238.18 67.2127,239.18 72,240.5C 77.6557,237.906 83.1557,238.072 88.5,241C 89.1667,242 89.8333,243 90.5,244C 109.833,244.667 129.167,244.667 148.5,244C 146.981,242.649 145.648,241.149 144.5,239.5C 145.857,237.814 147.19,236.148 148.5,234.5C 149.167,234.5 149.5,234.167 149.5,233.5C 154.298,229.203 158.965,224.703 163.5,220C 134.833,219.667 106.167,219.333 77.5,219C 76.944,218.617 76.6107,218.117 76.5,217.5C 106.125,218.651 135.791,218.817 165.5,218C 167.167,216.333 168.833,214.667 170.5,213C 139.125,212.182 107.791,212.348 76.5,213.5C 76.6107,212.883 76.944,212.383 77.5,212C 108.833,211.667 140.167,211.333 171.5,211C 175.668,207.998 179.335,204.498 182.5,200.5C 183.5,200.167 184.167,199.5 184.5,198.5C 185.167,198.5 185.5,198.167 185.5,197.5C 187.167,196.167 188.833,194.833 190.5,193.5C 191.5,193.167 192.167,192.5 192.5,191.5C 193.167,191.5 193.5,191.167 193.5,190.5C 214.047,171.485 237.381,156.652 263.5,146C 286.206,136.826 309.539,133.993 333.5,137.5 Z"/></g>
<g><path style="opacity:1" fill="#fdfdfd" d="M 333.5,137.5 C 338.29,138.725 343.29,139.392 348.5,139.5C 349.568,140.434 350.901,140.768 352.5,140.5C 360.012,143.001 367.679,145.335 375.5,147.5C 376.209,148.404 377.209,148.737 378.5,148.5C 381.088,150.625 384.088,151.958 387.5,152.5C 389.181,154.008 391.181,155.008 393.5,155.5C 397.164,158.335 401.164,160.668 405.5,162.5C 405.973,163.906 406.973,164.573 408.5,164.5C 408.973,165.906 409.973,166.573 411.5,166.5C 411.973,167.906 412.973,168.573 414.5,168.5C 415.262,170.262 416.596,171.262 418.5,171.5C 419.262,173.262 420.596,174.262 422.5,174.5C 423.585,176.587 425.251,177.92 427.5,178.5C 429.239,181.243 431.573,183.243 434.5,184.5C 443.833,194.5 453.5,204.167 463.5,213.5C 466.436,218.105 470.102,222.105 474.5,225.5C 477.101,229.771 480.434,233.437 484.5,236.5C 485.8,237.601 486.3,238.934 486,240.5C 481.896,244.095 478.396,248.095 475.5,252.5C 471.102,255.895 467.436,259.895 464.5,264.5C 453.833,274.5 443.5,284.833 433.5,295.5C 426.874,300.126 420.54,305.126 414.5,310.5C 412.147,311.34 410.147,312.674 408.5,314.5C 406.973,314.427 405.973,315.094 405.5,316.5C 403.326,316.75 401.659,317.75 400.5,319.5C 397.669,320.079 395.336,321.412 393.5,323.5C 390.515,324.326 387.849,325.659 385.5,327.5C 382.759,327.707 380.426,328.707 378.5,330.5C 369.675,333.613 360.675,335.78 351.5,337C 349.218,332.384 345.884,328.717 341.5,326C 330.948,321.155 320.448,316.322 310,311.5C 310.097,308.789 311.597,306.956 314.5,306C 320.806,304.539 327.139,303.206 333.5,302C 335.519,301.55 337.352,300.717 339,299.5C 339.684,298.216 339.517,297.049 338.5,296C 331.167,292.667 323.833,289.333 316.5,286C 314.604,284.192 314.104,282.025 315,279.5C 319.352,276.145 323.352,272.479 327,268.5C 328.102,264.584 328.769,260.584 329,256.5C 330.116,253.244 331.949,250.578 334.5,248.5C 337.25,245.945 340.25,243.612 343.5,241.5C 344.681,239.802 344.681,238.135 343.5,236.5C 337.757,235.922 333.924,232.922 332,227.5C 331.667,218.833 331.333,210.167 331,201.5C 330.626,200.584 330.126,199.75 329.5,199C 327.324,198.837 325.491,198.004 324,196.5C 323.237,193.53 321.737,191.03 319.5,189C 316.133,188.2 312.966,187.034 310,185.5C 309.667,183.5 309.333,181.5 309,179.5C 306.667,175.833 304.333,172.167 302,168.5C 301.333,164.5 301.333,160.5 302,156.5C 305.384,149.787 309.55,143.62 314.5,138C 320.825,137.5 327.158,137.334 333.5,137.5 Z"/></g>
<g><path style="opacity:1" fill="#271918" d="M 333.5,137.5 C 338.75,137.302 343.75,137.969 348.5,139.5C 343.29,139.392 338.29,138.725 333.5,137.5 Z"/></g>
<g><path style="opacity:1" fill="#2f2524" d="M 352.5,140.5 C 360.687,141.458 368.354,143.792 375.5,147.5C 367.679,145.335 360.012,143.001 352.5,140.5 Z"/></g>
<g><path style="opacity:1" fill="#2c1e1d" d="M 378.5,148.5 C 381.912,149.042 384.912,150.375 387.5,152.5C 384.088,151.958 381.088,150.625 378.5,148.5 Z"/></g>
<g><path style="opacity:1" fill="#301e1d" d="M 393.5,155.5 C 398.165,156.828 402.165,159.161 405.5,162.5C 401.164,160.668 397.164,158.335 393.5,155.5 Z"/></g>
<g><path style="opacity:1" fill="#333333" d="M 290.5,196.5 C 291.738,196.19 291.738,195.69 290.5,195C 285.312,192.816 280.978,189.482 277.5,185C 276.207,184.51 274.873,184.343 273.5,184.5C 273.351,185.552 273.517,186.552 274,187.5C 278.189,192.178 283.356,195.178 289.5,196.5C 289.866,198.905 290.533,201.238 291.5,203.5C 291.333,204.167 291.167,204.833 291,205.5C 289.29,204.055 287.456,203.222 285.5,203C 286.097,204.062 286.43,205.228 286.5,206.5C 284.66,211.684 283.66,217.018 283.5,222.5C 281.847,222.34 280.514,221.674 279.5,220.5C 274.793,218.128 270.793,214.795 267.5,210.5C 266.081,211.005 265.415,212.005 265.5,213.5C 265.631,214.239 265.464,214.906 265,215.5C 262.672,214.336 260.838,212.67 259.5,210.5C 258.011,208.195 256.511,205.862 255,203.5C 253.963,206.089 252.463,207.422 250.5,207.5C 248.738,206.738 247.738,205.404 247.5,203.5C 246.363,200.771 245.03,198.104 243.5,195.5C 242.186,196.313 241.019,197.313 240,198.5C 239.053,193.97 239.553,189.636 241.5,185.5C 239.671,184.718 238.171,185.384 237,187.5C 239.962,174.183 247.295,163.85 259,156.5C 259.374,157.416 259.874,158.25 260.5,159C 280.202,157.822 292.869,166.489 298.5,185C 294.5,184 290.5,183 286.5,182C 291.567,186.952 294.234,192.786 294.5,199.5C 292.739,198.965 291.406,197.965 290.5,196.5 Z"/></g>
<g><path style="opacity:1" fill="#28191a" d="M 405.5,162.5 C 407.027,162.427 408.027,163.094 408.5,164.5C 406.973,164.573 405.973,163.906 405.5,162.5 Z"/></g>
<g><path style="opacity:1" fill="#2b1d1d" d="M 408.5,164.5 C 410.027,164.427 411.027,165.094 411.5,166.5C 409.973,166.573 408.973,165.906 408.5,164.5 Z"/></g>
<g><path style="opacity:1" fill="#271818" d="M 411.5,166.5 C 413.027,166.427 414.027,167.094 414.5,168.5C 412.973,168.573 411.973,167.906 411.5,166.5 Z"/></g>
<g><path style="opacity:1" fill="#a8a8a8" d="M 266.5,168.5 C 273.876,172.519 281.543,176.019 289.5,179C 279.987,180.409 271.987,177.575 265.5,170.5C 265.863,169.817 266.196,169.15 266.5,168.5 Z"/></g>
<g><path style="opacity:1" fill="#2a1d1c" d="M 414.5,168.5 C 416.404,168.738 417.738,169.738 418.5,171.5C 416.596,171.262 415.262,170.262 414.5,168.5 Z"/></g>
<g><path style="opacity:1" fill="#2b1e1e" d="M 418.5,171.5 C 420.404,171.738 421.738,172.738 422.5,174.5C 420.596,174.262 419.262,173.262 418.5,171.5 Z"/></g>
<g><path style="opacity:1" fill="#a7a7a7" d="M 253.5,174.5 C 256.05,174.884 257.383,176.384 257.5,179C 257.156,186.371 254.656,192.871 250,198.5C 251.605,190.588 252.772,182.588 253.5,174.5 Z"/></g>
<g><path style="opacity:1" fill="#301e1e" d="M 422.5,174.5 C 424.749,175.08 426.415,176.413 427.5,178.5C 425.251,177.92 423.585,176.587 422.5,174.5 Z"/></g>
<g><path style="opacity:1" fill="#342221" d="M 427.5,178.5 C 430.427,179.757 432.761,181.757 434.5,184.5C 431.573,183.243 429.239,181.243 427.5,178.5 Z"/></g>
<g><path style="opacity:1" fill="#a5a5a5" d="M 290.5,196.5 C 290.167,196.5 289.833,196.5 289.5,196.5C 283.356,195.178 278.189,192.178 274,187.5C 273.517,186.552 273.351,185.552 273.5,184.5C 274.873,184.343 276.207,184.51 277.5,185C 280.978,189.482 285.312,192.816 290.5,195C 291.738,195.69 291.738,196.19 290.5,196.5 Z"/></g>
<g><path style="opacity:1" fill="#221413" d="M 555.5,187.5 C 552.797,187.045 550.13,186.378 547.5,185.5C 545.865,186.046 544.199,186.38 542.5,186.5C 546.98,183.852 551.313,184.185 555.5,187.5 Z"/></g>
<g><path style="opacity:1" fill="#f9f9f9" d="M 555.5,187.5 C 557.214,188.738 559.214,189.405 561.5,189.5C 564.797,191.601 568.463,192.935 572.5,193.5C 572.918,194.222 573.584,194.722 574.5,195C 572.509,195.374 570.842,196.207 569.5,197.5C 562.469,199.064 555.802,201.398 549.5,204.5C 548.167,204.5 546.833,204.5 545.5,204.5C 541.007,202.328 536.34,200.328 531.5,198.5C 532.833,196.167 532.833,193.833 531.5,191.5C 535.389,189.996 539.056,188.33 542.5,186.5C 544.199,186.38 545.865,186.046 547.5,185.5C 550.13,186.378 552.797,187.045 555.5,187.5 Z"/></g>
<g><path style="opacity:1" fill="#481812" d="M 555.5,187.5 C 558.01,187.054 560.01,187.72 561.5,189.5C 559.214,189.405 557.214,188.738 555.5,187.5 Z"/></g>
<g><path style="opacity:1" fill="#aeaeae" d="M 261.5,189.5 C 263.017,189.511 264.184,190.177 265,191.5C 265.667,196.167 265.667,200.833 265,205.5C 264.71,207.044 264.044,208.377 263,209.5C 262.61,202.816 262.11,196.15 261.5,189.5 Z"/></g>
<g><path style="opacity:1" fill="#440504" d="M 442.5,190.5 C 470.833,190.5 499.167,190.5 527.5,190.5C 524.167,191.167 520.833,191.833 517.5,192.5C 516.833,192.5 516.167,192.5 515.5,192.5C 491.167,191.833 466.833,191.167 442.5,190.5 Z"/></g>
<g><path style="opacity:1" fill="#2a1f1f" d="M 561.5,189.5 C 565.537,190.065 569.203,191.399 572.5,193.5C 568.463,192.935 564.797,191.601 561.5,189.5 Z"/></g>
<g><path style="opacity:1" fill="#655600" d="M 106.5,192.5 C 134.995,191.502 163.662,191.169 192.5,191.5C 192.167,192.5 191.5,193.167 190.5,193.5C 162.672,192.502 134.672,192.169 106.5,192.5 Z"/></g>
<g><path style="opacity:1" fill="#fed800" d="M 106.5,192.5 C 134.672,192.169 162.672,192.502 190.5,193.5C 188.833,194.833 187.167,196.167 185.5,197.5C 158.831,197.667 132.165,197.5 105.5,197C 104.084,195.085 104.418,193.585 106.5,192.5 Z"/></g>
<g><path style="opacity:1" fill="#fed800" d="M 515.5,192.5 C 516.167,192.5 516.833,192.5 517.5,192.5C 517.714,194.144 517.38,195.644 516.5,197C 494.169,197.5 471.836,197.667 449.5,197.5C 447.704,196.207 446.037,194.707 444.5,193C 468.164,192.5 491.831,192.333 515.5,192.5 Z"/></g>
<g><path style="opacity:1" fill="#1d1515" d="M 572.5,193.5 C 574.308,193.491 575.975,193.991 577.5,195C 574.978,196.341 572.311,197.174 569.5,197.5C 570.842,196.207 572.509,195.374 574.5,195C 573.584,194.722 572.918,194.222 572.5,193.5 Z"/></g>
<g><path style="opacity:1" fill="#412403" d="M 193.5,190.5 C 193.5,191.167 193.167,191.5 192.5,191.5C 163.662,191.169 134.995,191.502 106.5,192.5C 104.418,193.585 104.084,195.085 105.5,197C 132.165,197.5 158.831,197.667 185.5,197.5C 185.5,198.167 185.167,198.5 184.5,198.5C 158.5,198.5 132.5,198.5 106.5,198.5C 104.278,198.441 103.278,197.275 103.5,195C 103.439,193.289 104.106,191.956 105.5,191C 134.831,190.5 164.165,190.333 193.5,190.5 Z"/></g>
<g><path style="opacity:1" fill="#452907" d="M 542.5,186.5 C 539.056,188.33 535.389,189.996 531.5,191.5C 532.833,193.833 532.833,196.167 531.5,198.5C 536.34,200.328 541.007,202.328 545.5,204.5C 540.429,203.31 535.429,201.81 530.5,200C 504.169,199.5 477.835,199.333 451.5,199.5C 450.5,199.167 449.833,198.5 449.5,197.5C 471.836,197.667 494.169,197.5 516.5,197C 517.38,195.644 517.714,194.144 517.5,192.5C 520.833,191.833 524.167,191.167 527.5,190.5C 532.5,189.167 537.5,187.833 542.5,186.5 Z"/></g>
<g><path style="opacity:1" fill="#dcbc00" d="M 521.5,196.5 C 520.577,197.303 519.577,197.47 518.5,197C 519.833,195.667 519.833,194.333 518.5,193C 520.934,192.667 521.934,193.834 521.5,196.5 Z"/></g>
<g><path style="opacity:1" fill="#eeca00" d="M 525.5,192.5 C 527.199,192.34 528.866,192.506 530.5,193C 531.833,194.333 531.833,195.667 530.5,197C 528.866,197.494 527.199,197.66 525.5,197.5C 525.5,195.833 525.5,194.167 525.5,192.5 Z"/></g>
<g><path style="opacity:1" fill="#f3cf00" d="M 521.5,196.5 C 522.29,195.391 522.79,194.058 523,192.5C 524.365,193.593 524.699,194.926 524,196.5C 523.023,197.774 522.189,197.774 521.5,196.5 Z"/></g>
<g><path style="opacity:1" fill="#5e0606" d="M 106.5,198.5 C 132.5,198.5 158.5,198.5 184.5,198.5C 184.167,199.5 183.5,200.167 182.5,200.5C 157.167,199.833 131.833,199.167 106.5,198.5 Z"/></g>
<g><path style="opacity:1" fill="#321e1c" d="M 569.5,197.5 C 563.242,200.588 556.575,202.922 549.5,204.5C 555.802,201.398 562.469,199.064 569.5,197.5 Z"/></g>
<g><path style="opacity:1" fill="#989898" d="M 216.5,230.5 C 216.5,221.5 216.5,212.5 216.5,203.5C 214.167,203.5 211.833,203.5 209.5,203.5C 209.5,212.5 209.5,221.5 209.5,230.5C 208.506,221.348 208.173,212.015 208.5,202.5C 211.5,202.5 214.5,202.5 217.5,202.5C 217.827,212.015 217.494,221.348 216.5,230.5 Z"/></g>
<g><path style="opacity:1" fill="#fdfdfd" d="M 216.5,230.5 C 214.167,230.5 211.833,230.5 209.5,230.5C 209.5,221.5 209.5,212.5 209.5,203.5C 211.833,203.5 214.167,203.5 216.5,203.5C 216.5,212.5 216.5,221.5 216.5,230.5 Z"/></g>
<g><path style="opacity:1" fill="#fdfdfd" d="M 225.5,203.5 C 228.167,203.5 230.833,203.5 233.5,203.5C 233.5,212.5 233.5,221.5 233.5,230.5C 230.833,230.5 228.167,230.5 225.5,230.5C 225.5,221.5 225.5,212.5 225.5,203.5 Z"/></g>
<g><path style="opacity:1" fill="#585858" d="M 225.5,203.5 C 228.287,202.523 231.287,202.19 234.5,202.5C 234.827,212.015 234.494,221.348 233.5,230.5C 233.5,221.5 233.5,212.5 233.5,203.5C 230.833,203.5 228.167,203.5 225.5,203.5 Z"/></g>
<g><path style="opacity:1" fill="#6e6e6e" d="M 246.5,203.5 C 245.167,203.5 243.833,203.5 242.5,203.5C 242.5,212.5 242.5,221.5 242.5,230.5C 241.506,221.348 241.173,212.015 241.5,202.5C 243.415,202.216 245.081,202.549 246.5,203.5 Z"/></g>
<g><path style="opacity:1" fill="#fafafa" d="M 246.5,203.5 C 246.833,203.5 247.167,203.5 247.5,203.5C 247.738,205.404 248.738,206.738 250.5,207.5C 250.5,215.167 250.5,222.833 250.5,230.5C 247.833,230.5 245.167,230.5 242.5,230.5C 242.5,221.5 242.5,212.5 242.5,203.5C 243.833,203.5 245.167,203.5 246.5,203.5 Z"/></g>
<g><path style="opacity:1" fill="#a7a7a7" d="M 271.5,203.5 C 272.675,203.281 273.675,203.614 274.5,204.5C 276.82,210.129 279.32,215.462 282,220.5C 275.798,216.472 272.298,210.806 271.5,203.5 Z"/></g>
<g><path style="opacity:1" fill="#fefffe" d="M 293.5,207.5 C 293.5,206.5 293.5,205.5 293.5,204.5C 295.265,203.539 297.265,203.205 299.5,203.5C 299.5,212.167 299.5,220.833 299.5,229.5C 297.167,229.5 294.833,229.5 292.5,229.5C 292.203,222.08 292.536,214.746 293.5,207.5 Z"/></g>
<g><path style="opacity:1" fill="#afafaf" d="M 293.5,207.5 C 292.536,214.746 292.203,222.08 292.5,229.5C 294.833,229.5 297.167,229.5 299.5,229.5C 299.5,220.833 299.5,212.167 299.5,203.5C 297.265,203.205 295.265,203.539 293.5,204.5C 292.957,204.44 292.624,204.107 292.5,203.5C 295.086,202.52 297.753,202.187 300.5,202.5C 300.5,211.833 300.5,221.167 300.5,230.5C 297.5,230.5 294.5,230.5 291.5,230.5C 290.868,222.427 291.535,214.76 293.5,207.5 Z"/></g>
<g><path style="opacity:1" fill="#0a0a0a" d="M 334.5,203.5 C 337.167,203.5 339.833,203.5 342.5,203.5C 342.5,212.5 342.5,221.5 342.5,230.5C 339.833,230.5 337.167,230.5 334.5,230.5C 334.5,221.5 334.5,212.5 334.5,203.5 Z"/></g>
<g><path style="opacity:1" fill="#7c7c7c" d="M 334.5,203.5 C 337.287,202.523 340.287,202.19 343.5,202.5C 343.827,212.015 343.494,221.348 342.5,230.5C 342.5,221.5 342.5,212.5 342.5,203.5C 339.833,203.5 337.167,203.5 334.5,203.5 Z"/></g>
<g><path style="opacity:1" fill="#b5b5b5" d="M 359.5,203.5 C 356.833,203.5 354.167,203.5 351.5,203.5C 351.5,212.5 351.5,221.5 351.5,230.5C 350.506,221.348 350.173,212.015 350.5,202.5C 353.713,202.19 356.713,202.523 359.5,203.5 Z"/></g>
<g><path style="opacity:1" fill="#010101" d="M 359.5,203.5 C 359.5,212.5 359.5,221.5 359.5,230.5C 356.833,230.5 354.167,230.5 351.5,230.5C 351.5,221.5 351.5,212.5 351.5,203.5C 354.167,203.5 356.833,203.5 359.5,203.5 Z"/></g>
<g><path style="opacity:1" fill="#5f5f5f" d="M 375.5,230.5 C 375.5,221.5 375.5,212.5 375.5,203.5C 373.167,203.5 370.833,203.5 368.5,203.5C 368.5,212.5 368.5,221.5 368.5,230.5C 367.506,221.348 367.173,212.015 367.5,202.5C 370.5,202.5 373.5,202.5 376.5,202.5C 376.827,212.015 376.494,221.348 375.5,230.5 Z"/></g>
<g><path style="opacity:1" fill="#010101" d="M 375.5,230.5 C 373.167,230.5 370.833,230.5 368.5,230.5C 368.5,221.5 368.5,212.5 368.5,203.5C 370.833,203.5 373.167,203.5 375.5,203.5C 375.5,212.5 375.5,221.5 375.5,230.5 Z"/></g>
<g><path style="opacity:1" fill="#060606" d="M 384.5,203.5 C 387.167,203.5 389.833,203.5 392.5,203.5C 392.5,212.5 392.5,221.5 392.5,230.5C 389.833,230.5 387.167,230.5 384.5,230.5C 384.5,221.5 384.5,212.5 384.5,203.5 Z"/></g>
<g><path style="opacity:1" fill="#8c8c8c" d="M 384.5,203.5 C 387.287,202.523 390.287,202.19 393.5,202.5C 393.827,212.015 393.494,221.348 392.5,230.5C 392.5,221.5 392.5,212.5 392.5,203.5C 389.833,203.5 387.167,203.5 384.5,203.5 Z"/></g>
<g><path style="opacity:1" fill="#a4a4a4" d="M 409.5,203.5 C 406.833,203.5 404.167,203.5 401.5,203.5C 401.5,212.5 401.5,221.5 401.5,230.5C 400.506,221.348 400.173,212.015 400.5,202.5C 403.713,202.19 406.713,202.523 409.5,203.5 Z"/></g>
<g><path style="opacity:1" fill="#010101" d="M 409.5,203.5 C 409.5,212.5 409.5,221.5 409.5,230.5C 406.833,230.5 404.167,230.5 401.5,230.5C 401.5,221.5 401.5,212.5 401.5,203.5C 404.167,203.5 406.833,203.5 409.5,203.5 Z"/></g>
<g><path style="opacity:1" fill="#656565" d="M 425.5,230.5 C 425.5,221.5 425.5,212.5 425.5,203.5C 423.167,203.5 420.833,203.5 418.5,203.5C 418.5,212.5 418.5,221.5 418.5,230.5C 417.506,221.348 417.173,212.015 417.5,202.5C 420.5,202.5 423.5,202.5 426.5,202.5C 426.827,212.015 426.494,221.348 425.5,230.5 Z"/></g>
<g><path style="opacity:1" fill="#010101" d="M 425.5,230.5 C 423.167,230.5 420.833,230.5 418.5,230.5C 418.5,221.5 418.5,212.5 418.5,203.5C 420.833,203.5 423.167,203.5 425.5,203.5C 425.5,212.5 425.5,221.5 425.5,230.5 Z"/></g>
<g><path style="opacity:1" fill="#2c1e1d" d="M 518.5,205.5 C 518.735,204.903 519.235,204.57 520,204.5C 525.055,206.233 529.888,208.233 534.5,210.5C 529.035,209.234 523.701,207.567 518.5,205.5 Z"/></g>
<g><path style="opacity:1" fill="#241412" d="M 518.5,205.5 C 516.208,207.267 513.542,208.267 510.5,208.5C 512.792,206.733 515.458,205.733 518.5,205.5 Z"/></g>
<g><path style="opacity:1" fill="#f8f8f8" d="M 518.5,205.5 C 523.701,207.567 529.035,209.234 534.5,210.5C 536.214,211.738 538.214,212.405 540.5,212.5C 541.974,213.675 543.64,214.675 545.5,215.5C 542.652,216.659 539.985,217.992 537.5,219.5C 531.512,221.162 525.512,222.828 519.5,224.5C 516.725,223.077 513.725,222.411 510.5,222.5C 509.01,220.72 507.01,220.054 504.5,220.5C 504.082,219.778 503.416,219.278 502.5,219C 503.056,218.617 503.389,218.117 503.5,217.5C 504.139,216.903 504.472,216.07 504.5,215C 504.316,213.624 503.649,212.791 502.5,212.5C 505.453,211.738 508.12,210.405 510.5,208.5C 513.542,208.267 516.208,207.267 518.5,205.5 Z"/></g>
<g><path style="opacity:1" fill="#481812" d="M 534.5,210.5 C 537.01,210.054 539.01,210.72 540.5,212.5C 538.214,212.405 536.214,211.738 534.5,210.5 Z"/></g>
<g><path style="opacity:1" fill="#e5e5e5" d="M 259.5,210.5 C 260.838,212.67 262.672,214.336 265,215.5C 265.464,214.906 265.631,214.239 265.5,213.5C 266.117,213.389 266.617,213.056 267,212.5C 267.499,218.491 267.666,224.491 267.5,230.5C 264.5,230.5 261.5,230.5 258.5,230.5C 258.176,223.646 258.509,216.979 259.5,210.5 Z"/></g>
<g><path style="opacity:1" fill="#302714" d="M 434.5,184.5 C 437.431,186.091 440.098,188.091 442.5,190.5C 466.833,191.167 491.167,191.833 515.5,192.5C 491.831,192.333 468.164,192.5 444.5,193C 446.037,194.707 447.704,196.207 449.5,197.5C 449.833,198.5 450.5,199.167 451.5,199.5C 454.963,203.464 458.63,207.298 462.5,211C 475.5,211.667 488.5,211.667 501.5,211C 504.432,209.855 507.432,209.022 510.5,208.5C 508.12,210.405 505.453,211.738 502.5,212.5C 500.833,212.5 499.167,212.5 497.5,212.5C 497.5,214.5 497.5,216.5 497.5,218.5C 499.565,218.483 501.565,218.15 503.5,217.5C 503.389,218.117 503.056,218.617 502.5,219C 503.416,219.278 504.082,219.778 504.5,220.5C 493.2,219.399 481.867,219.233 470.5,220C 472.464,221.451 473.797,223.284 474.5,225.5C 470.102,222.105 466.436,218.105 463.5,213.5C 453.5,204.167 443.833,194.5 434.5,184.5 Z"/></g>
<g><path style="opacity:1" fill="#eecb00" d="M 76.5,217.5 C 76.5,216.167 76.5,214.833 76.5,213.5C 107.791,212.348 139.125,212.182 170.5,213C 168.833,214.667 167.167,216.333 165.5,218C 135.791,218.817 106.125,218.651 76.5,217.5 Z"/></g>
<g><path style="opacity:1" fill="#e3c100" d="M 463.5,213.5 C 471.656,212.343 479.99,212.177 488.5,213C 489.676,214.914 490.676,214.748 491.5,212.5C 492.584,213.665 493.417,214.998 494,216.5C 494.085,214.915 494.251,213.582 494.5,212.5C 497.167,214.5 497.167,216.5 494.5,218.5C 493.28,217.289 492.113,217.289 491,218.5C 490.549,216.071 489.715,215.904 488.5,218C 481.833,218.667 475.167,218.667 468.5,218C 466.963,216.293 465.296,214.793 463.5,213.5 Z"/></g>
<g><path style="opacity:1" fill="#e2c000" d="M 502.5,212.5 C 503.301,214.042 503.634,215.708 503.5,217.5C 501.565,218.15 499.565,218.483 497.5,218.5C 497.5,216.5 497.5,214.5 497.5,212.5C 499.167,212.5 500.833,212.5 502.5,212.5 Z"/></g>
<g><path style="opacity:1" fill="#262522" d="M 502.5,212.5 C 503.649,212.791 504.316,213.624 504.5,215C 504.472,216.07 504.139,216.903 503.5,217.5C 503.634,215.708 503.301,214.042 502.5,212.5 Z"/></g>
<g><path style="opacity:1" fill="#2a1f1e" d="M 540.5,212.5 C 543.475,212.713 546.142,213.713 548.5,215.5C 545.138,217.621 541.471,218.955 537.5,219.5C 539.985,217.992 542.652,216.659 545.5,215.5C 543.64,214.675 541.974,213.675 540.5,212.5 Z"/></g>
<g><path style="opacity:1" fill="#fafafa" d="M 279.5,220.5 C 280.514,221.674 281.847,222.34 283.5,222.5C 283.5,225.167 283.5,227.833 283.5,230.5C 280.833,230.5 278.167,230.5 275.5,230.5C 275.335,226.818 275.501,223.152 276,219.5C 277.011,220.337 278.178,220.67 279.5,220.5 Z"/></g>
<g><path style="opacity:1" fill="#564c4c" d="M 504.5,220.5 C 507.01,220.054 509.01,220.72 510.5,222.5C 508.214,222.405 506.214,221.738 504.5,220.5 Z"/></g>
<g><path style="opacity:1" fill="#3e2926" d="M 537.5,219.5 C 537.389,220.117 537.056,220.617 536.5,221C 530.735,222.533 525.068,224.366 519.5,226.5C 516.292,225.391 513.292,224.058 510.5,222.5C 513.725,222.411 516.725,223.077 519.5,224.5C 525.512,222.828 531.512,221.162 537.5,219.5 Z"/></g>
<g><path style="opacity:1" fill="#240801" d="M 149.5,233.5 C 149.5,234.167 149.167,234.5 148.5,234.5C 109.499,234.333 70.4986,234.5 31.5,235C 29.0807,236.509 28.0807,238.675 28.5,241.5C 26.9257,238.57 27.5924,236.07 30.5,234C 70.1653,233.5 109.832,233.333 149.5,233.5 Z"/></g>
<g><path style="opacity:1" fill="#260d08" d="M 474.5,225.5 C 477.297,227.795 479.964,230.295 482.5,233C 524.335,233.167 566.002,233.667 607.5,234.5C 566.153,233.839 525.153,234.506 484.5,236.5C 480.434,233.437 477.101,229.771 474.5,225.5 Z"/></g>
<g><path style="opacity:1" fill="#756300" d="M 607.5,234.5 C 607.5,234.833 607.5,235.167 607.5,235.5C 594.754,235.187 582.087,235.52 569.5,236.5C 569.062,235.494 568.396,235.494 567.5,236.5C 540.167,235.167 512.833,235.167 485.5,236.5C 485.167,236.5 484.833,236.5 484.5,236.5C 525.153,234.506 566.153,233.839 607.5,234.5 Z"/></g>
<g><path style="opacity:1" fill="#1e0b01" d="M 607.5,235.5 C 607.5,235.167 607.5,234.833 607.5,234.5C 611.33,235.689 612.33,238.022 610.5,241.5C 610.975,238.687 609.975,236.687 607.5,235.5 Z"/></g>
<g><path style="opacity:1" fill="#e3c100" d="M 148.5,234.5 C 147.19,236.148 145.857,237.814 144.5,239.5C 145.648,241.149 146.981,242.649 148.5,244C 129.167,244.667 109.833,244.667 90.5,244C 89.8333,243 89.1667,242 88.5,241C 83.1557,238.072 77.6557,237.906 72,240.5C 67.2127,239.18 62.3793,238.18 57.5,237.5C 57.5,238.5 57.5,239.5 57.5,240.5C 55.5165,240.617 53.8498,239.95 52.5,238.5C 51.4104,239.391 51.4104,240.391 52.5,241.5C 48.0993,243.698 43.4326,244.698 38.5,244.5C 34.588,245.007 31.2546,244.007 28.5,241.5C 28.0807,238.675 29.0807,236.509 31.5,235C 70.4986,234.5 109.499,234.333 148.5,234.5 Z"/></g>
<g><path style="opacity:1" fill="#f1cd00" d="M 485.5,236.5 C 512.833,235.167 540.167,235.167 567.5,236.5C 563.268,238.4 559.601,241.067 556.5,244.5C 532.498,244.667 508.498,244.5 484.5,244C 486.019,242.649 487.352,241.149 488.5,239.5C 487.812,238.145 486.812,237.145 485.5,236.5 Z"/></g>
<g><path style="opacity:1" fill="#fad400" d="M 607.5,235.5 C 609.975,236.687 610.975,238.687 610.5,241.5C 609.711,241.783 609.044,242.283 608.5,243C 602.843,243.499 597.176,243.666 591.5,243.5C 584.017,240.895 576.684,238.562 569.5,236.5C 582.087,235.52 594.754,235.187 607.5,235.5 Z"/></g>
<g><path style="opacity:1" fill="#302f2e" d="M 569.5,236.5 C 576.684,238.562 584.017,240.895 591.5,243.5C 596.64,244.488 601.974,244.821 607.5,244.5C 603.688,245.324 599.688,245.824 595.5,246C 601.45,250.399 604.284,256.232 604,263.5C 602.632,261.185 601.799,261.185 601.5,263.5C 602.76,266.423 603.26,269.423 603,272.5C 602,271.833 601,271.167 600,270.5C 599.211,274.091 599.378,277.591 600.5,281C 599.004,281.507 597.837,281.007 597,279.5C 595.847,282.711 595.18,286.044 595,289.5C 593.981,288.313 592.814,287.313 591.5,286.5C 590.063,289.041 588.897,291.708 588,294.5C 587.163,292.993 585.996,292.493 584.5,293C 582.208,296.416 580.041,299.916 578,303.5C 571.35,298.017 565.183,292.017 559.5,285.5C 557.445,287.555 555.112,289.221 552.5,290.5C 549.621,282.696 547.454,274.696 546,266.5C 544.981,267.687 543.814,268.687 542.5,269.5C 542.167,269 541.833,268.5 541.5,268C 543.867,260.083 547.867,253.25 553.5,247.5C 554.833,246.833 555.833,245.833 556.5,244.5C 559.601,241.067 563.268,238.4 567.5,236.5C 568.396,235.494 569.062,235.494 569.5,236.5 Z"/></g>
<g><path style="opacity:1" fill="#333232" d="M 50.5,284.5 C 49.2876,283.77 48.2876,282.77 47.5,281.5C 46.6667,283.5 45.8333,285.5 45,287.5C 44.4024,283.943 43.569,280.443 42.5,277C 42.1639,275.97 41.4972,275.47 40.5,275.5C 39.4138,275.38 38.7472,274.713 38.5,273.5C 37.8607,270.525 37.3607,267.525 37,264.5C 36.3333,265.167 35.6667,265.833 35,266.5C 35.7775,257.782 39.6108,250.616 46.5,245C 48.8098,244.503 51.1432,244.337 53.5,244.5C 53.5,243.5 53.5,242.5 53.5,241.5C 55.1667,241.5 56.8333,241.5 58.5,241.5C 58.5,240.5 58.5,239.5 58.5,238.5C 63.2376,239.892 68.0709,240.892 73,241.5C 86.6723,238.169 92.6723,243.502 91,257.5C 90.3333,256.833 89.6667,256.167 89,255.5C 88.6667,262.5 88.3333,269.5 88,276.5C 87.3333,275.167 86.6667,275.167 86,276.5C 84.7695,279.961 83.2695,283.294 81.5,286.5C 76.8333,290.167 72.1667,293.833 67.5,297.5C 65.5708,296.62 63.7374,295.62 62,294.5C 60.6068,295.615 59.1068,296.115 57.5,296C 54.6975,292.387 52.3642,288.553 50.5,284.5 Z"/></g>
<g><path style="opacity:1" fill="#6c5a07" d="M 610.5,241.5 C 610.5,243.5 609.5,244.5 607.5,244.5C 601.974,244.821 596.64,244.488 591.5,243.5C 597.176,243.666 602.843,243.499 608.5,243C 609.044,242.283 609.711,241.783 610.5,241.5 Z"/></g>
<g><path style="opacity:1" fill="#261008" d="M 484.5,236.5 C 484.833,236.5 485.167,236.5 485.5,236.5C 486.812,237.145 487.812,238.145 488.5,239.5C 487.352,241.149 486.019,242.649 484.5,244C 508.498,244.5 532.498,244.667 556.5,244.5C 555.833,245.833 554.833,246.833 553.5,247.5C 542.019,246.168 530.186,245.501 518,245.5C 506.167,245.667 494.333,245.833 482.5,246C 480.297,248.372 477.963,250.539 475.5,252.5C 478.396,248.095 481.896,244.095 486,240.5C 486.3,238.934 485.8,237.601 484.5,236.5 Z"/></g>
<g><path style="opacity:1" fill="#a3a3a3" d="M 64.5,248.5 C 70.2747,253.1 75.9414,257.934 81.5,263C 73.7816,261.47 67.7816,257.303 63.5,250.5C 63.8627,249.817 64.1961,249.15 64.5,248.5 Z"/></g>
<g><path style="opacity:1" fill="#989898" d="M 209.5,248.5 C 209.5,257.5 209.5,266.5 209.5,275.5C 211.833,275.5 214.167,275.5 216.5,275.5C 216.5,266.5 216.5,257.5 216.5,248.5C 217.494,257.652 217.827,266.985 217.5,276.5C 214.5,276.5 211.5,276.5 208.5,276.5C 208.173,266.985 208.506,257.652 209.5,248.5 Z"/></g>
<g><path style="opacity:1" fill="#fdfdfd" d="M 209.5,248.5 C 211.833,248.5 214.167,248.5 216.5,248.5C 216.5,257.5 216.5,266.5 216.5,275.5C 214.167,275.5 211.833,275.5 209.5,275.5C 209.5,266.5 209.5,257.5 209.5,248.5 Z"/></g>
<g><path style="opacity:1" fill="#fdfdfd" d="M 233.5,248.5 C 233.5,257.5 233.5,266.5 233.5,275.5C 230.833,275.5 228.167,275.5 225.5,275.5C 225.5,266.5 225.5,257.5 225.5,248.5C 228.167,248.5 230.833,248.5 233.5,248.5 Z"/></g>
<g><path style="opacity:1" fill="#585858" d="M 233.5,248.5 C 234.494,257.652 234.827,266.985 234.5,276.5C 231.287,276.81 228.287,276.477 225.5,275.5C 228.167,275.5 230.833,275.5 233.5,275.5C 233.5,266.5 233.5,257.5 233.5,248.5 Z"/></g>
<g><path style="opacity:1" fill="#727272" d="M 242.5,248.5 C 242.5,257.5 242.5,266.5 242.5,275.5C 245.167,275.5 247.833,275.5 250.5,275.5C 247.713,276.477 244.713,276.81 241.5,276.5C 241.173,266.985 241.506,257.652 242.5,248.5 Z"/></g>
<g><path style="opacity:1" fill="#fafafa" d="M 242.5,248.5 C 245.167,248.5 247.833,248.5 250.5,248.5C 250.5,257.5 250.5,266.5 250.5,275.5C 247.833,275.5 245.167,275.5 242.5,275.5C 242.5,266.5 242.5,257.5 242.5,248.5 Z"/></g>
<g><path style="opacity:1" fill="#9f9f9f" d="M 259.5,248.5 C 259.5,257.5 259.5,266.5 259.5,275.5C 261.833,275.5 264.167,275.5 266.5,275.5C 266.5,266.5 266.5,257.5 266.5,248.5C 267.494,257.652 267.827,266.985 267.5,276.5C 264.5,276.5 261.5,276.5 258.5,276.5C 258.173,266.985 258.506,257.652 259.5,248.5 Z"/></g>
<g><path style="opacity:1" fill="#fdfdfd" d="M 259.5,248.5 C 261.833,248.5 264.167,248.5 266.5,248.5C 266.5,257.5 266.5,266.5 266.5,275.5C 264.167,275.5 261.833,275.5 259.5,275.5C 259.5,266.5 259.5,257.5 259.5,248.5 Z"/></g>
<g><path style="opacity:1" fill="#fafafa" d="M 275.5,248.5 C 278.167,248.5 280.833,248.5 283.5,248.5C 283.5,257.833 283.5,267.167 283.5,276.5C 280.833,276.5 278.167,276.5 275.5,276.5C 275.5,267.167 275.5,257.833 275.5,248.5 Z"/></g>
<g><path style="opacity:1" fill="#828282" d="M 292.5,248.5 C 292.5,257.5 292.5,266.5 292.5,275.5C 295.167,275.5 297.833,275.5 300.5,275.5C 297.713,276.477 294.713,276.81 291.5,276.5C 291.173,266.985 291.506,257.652 292.5,248.5 Z"/></g>
<g><path style="opacity:1" fill="#f7f7f7" d="M 292.5,248.5 C 295.167,248.5 297.833,248.5 300.5,248.5C 300.5,257.5 300.5,266.5 300.5,275.5C 297.833,275.5 295.167,275.5 292.5,275.5C 292.5,266.5 292.5,257.5 292.5,248.5 Z"/></g>
<g><path style="opacity:1" fill="#0a0a0a" d="M 334.5,248.5 C 337.167,248.5 339.833,248.5 342.5,248.5C 342.5,257.5 342.5,266.5 342.5,275.5C 339.833,275.5 337.167,275.5 334.5,275.5C 334.5,266.5 334.5,257.5 334.5,248.5 Z"/></g>
<g><path style="opacity:1" fill="#7c7c7c" d="M 342.5,248.5 C 343.494,257.652 343.827,266.985 343.5,276.5C 340.287,276.81 337.287,276.477 334.5,275.5C 337.167,275.5 339.833,275.5 342.5,275.5C 342.5,266.5 342.5,257.5 342.5,248.5 Z"/></g>
<g><path style="opacity:1" fill="#b5b5b5" d="M 351.5,248.5 C 351.5,257.5 351.5,266.5 351.5,275.5C 354.167,275.5 356.833,275.5 359.5,275.5C 356.713,276.477 353.713,276.81 350.5,276.5C 350.173,266.985 350.506,257.652 351.5,248.5 Z"/></g>
<g><path style="opacity:1" fill="#010101" d="M 351.5,248.5 C 354.167,248.5 356.833,248.5 359.5,248.5C 359.5,257.5 359.5,266.5 359.5,275.5C 356.833,275.5 354.167,275.5 351.5,275.5C 351.5,266.5 351.5,257.5 351.5,248.5 Z"/></g>
<g><path style="opacity:1" fill="#5f5f5f" d="M 368.5,248.5 C 368.5,257.5 368.5,266.5 368.5,275.5C 370.833,275.5 373.167,275.5 375.5,275.5C 375.5,266.5 375.5,257.5 375.5,248.5C 376.494,257.652 376.827,266.985 376.5,276.5C 373.5,276.5 370.5,276.5 367.5,276.5C 367.173,266.985 367.506,257.652 368.5,248.5 Z"/></g>
<g><path style="opacity:1" fill="#010101" d="M 368.5,248.5 C 370.833,248.5 373.167,248.5 375.5,248.5C 375.5,257.5 375.5,266.5 375.5,275.5C 373.167,275.5 370.833,275.5 368.5,275.5C 368.5,266.5 368.5,257.5 368.5,248.5 Z"/></g>
<g><path style="opacity:1" fill="#060606" d="M 392.5,248.5 C 392.5,257.5 392.5,266.5 392.5,275.5C 389.833,275.5 387.167,275.5 384.5,275.5C 384.5,266.5 384.5,257.5 384.5,248.5C 387.167,248.5 389.833,248.5 392.5,248.5 Z"/></g>
<g><path style="opacity:1" fill="#8c8c8c" d="M 392.5,248.5 C 393.494,257.652 393.827,266.985 393.5,276.5C 390.287,276.81 387.287,276.477 384.5,275.5C 387.167,275.5 389.833,275.5 392.5,275.5C 392.5,266.5 392.5,257.5 392.5,248.5 Z"/></g>
<g><path style="opacity:1" fill="#a4a4a4" d="M 401.5,248.5 C 401.5,257.5 401.5,266.5 401.5,275.5C 404.167,275.5 406.833,275.5 409.5,275.5C 406.713,276.477 403.713,276.81 400.5,276.5C 400.173,266.985 400.506,257.652 401.5,248.5 Z"/></g>
<g><path style="opacity:1" fill="#010101" d="M 401.5,248.5 C 404.167,248.5 406.833,248.5 409.5,248.5C 409.5,257.5 409.5,266.5 409.5,275.5C 406.833,275.5 404.167,275.5 401.5,275.5C 401.5,266.5 401.5,257.5 401.5,248.5 Z"/></g>
<g><path style="opacity:1" fill="#656565" d="M 418.5,248.5 C 418.5,257.5 418.5,266.5 418.5,275.5C 420.833,275.5 423.167,275.5 425.5,275.5C 425.5,266.5 425.5,257.5 425.5,248.5C 426.494,257.652 426.827,266.985 426.5,276.5C 423.5,276.5 420.5,276.5 417.5,276.5C 417.173,266.985 417.506,257.652 418.5,248.5 Z"/></g>
<g><path style="opacity:1" fill="#010101" d="M 418.5,248.5 C 420.833,248.5 423.167,248.5 425.5,248.5C 425.5,257.5 425.5,266.5 425.5,275.5C 423.167,275.5 420.833,275.5 418.5,275.5C 418.5,266.5 418.5,257.5 418.5,248.5 Z"/></g>
<g><path style="opacity:1" fill="#a8a8a8" d="M 52.5,250.5 C 53.6935,250.97 54.3601,251.97 54.5,253.5C 53.0401,260.418 49.5401,266.085 44,270.5C 46.907,263.97 49.7403,257.304 52.5,250.5 Z"/></g>
<g><path style="opacity:1" fill="#a2a2a2" d="M 575.5,257.5 C 576.552,257.351 577.552,257.517 578.5,258C 580.809,260.487 583.476,262.487 586.5,264C 581.279,264.392 577.613,262.225 575.5,257.5 Z"/></g>
<g><path style="opacity:1" fill="#311816" d="M 475.5,252.5 C 472.564,257.105 468.898,261.105 464.5,264.5C 467.436,259.895 471.102,255.895 475.5,252.5 Z"/></g>
<g><path style="opacity:1" fill="#a4a4a4" d="M 559.5,263.5 C 560.5,263.5 561.5,263.5 562.5,263.5C 561.906,271.565 557.906,276.732 550.5,279C 554.662,274.511 557.662,269.344 559.5,263.5 Z"/></g>
<g><path style="opacity:1" fill="#a4a4a4" d="M 67.5,263.5 C 70.9809,267.763 74.4809,272.097 78,276.5C 78.6667,277.167 78.6667,277.833 78,278.5C 73,276.167 69.3333,272.5 67,267.5C 66.4209,266.072 66.5876,264.738 67.5,263.5 Z"/></g>
<g><path style="opacity:1" fill="#a0a0a0" d="M 55.5,265.5 C 57.4841,265.484 58.4841,266.484 58.5,268.5C 57.9664,274.231 55.7998,279.231 52,283.5C 52.8385,277.475 54.0052,271.475 55.5,265.5 Z"/></g>
<g><path style="opacity:1" fill="#a4a4a4" d="M 577.5,268.5 C 578.496,268.414 579.329,268.748 580,269.5C 581.002,273.164 582.836,276.331 585.5,279C 581.96,278.819 579.46,276.986 578,273.5C 577.506,271.866 577.34,270.199 577.5,268.5 Z"/></g>
<g><path style="opacity:1" fill="#ababab" d="M 62.5,275.5 C 63.4959,275.414 64.3292,275.748 65,276.5C 66.2246,282.268 65.2246,287.601 62,292.5C 62.2175,286.868 62.3842,281.201 62.5,275.5 Z"/></g>
<g><path style="opacity:1" fill="#311b1a" d="M 464.5,264.5 C 455.424,275.08 445.758,285.246 435.5,295C 434.906,295.464 434.239,295.631 433.5,295.5C 443.5,284.833 453.833,274.5 464.5,264.5 Z"/></g>
<g><path style="opacity:1" fill="#a9a9a9" d="M 564.5,277.5 C 565.833,277.5 567.167,277.5 568.5,277.5C 568.665,280.518 568.498,283.518 568,286.5C 567.333,287.167 566.667,287.833 566,288.5C 565.68,284.786 565.18,281.119 564.5,277.5 Z"/></g>
<g><path style="opacity:1" fill="#a2a2a2" d="M 573.5,278.5 C 576.388,278.22 577.888,279.553 578,282.5C 578.933,287.451 578.266,292.118 576,296.5C 575.825,290.38 574.992,284.38 573.5,278.5 Z"/></g>
<g><path style="opacity:1" fill="#311b1a" d="M 433.5,295.5 C 428.034,301.636 421.701,306.636 414.5,310.5C 420.54,305.126 426.874,300.126 433.5,295.5 Z"/></g>
<g><path style="opacity:1" fill="#2a1716" d="M 414.5,310.5 C 413.198,312.822 411.198,314.155 408.5,314.5C 410.147,312.674 412.147,311.34 414.5,310.5 Z"/></g>
<g><path style="opacity:1" fill="#291b1b" d="M 405.5,316.5 C 404.341,318.25 402.674,319.25 400.5,319.5C 401.659,317.75 403.326,316.75 405.5,316.5 Z"/></g>
<g><path style="opacity:1" fill="#2c1a1a" d="M 400.5,319.5 C 398.664,321.588 396.331,322.921 393.5,323.5C 395.336,321.412 397.669,320.079 400.5,319.5 Z"/></g>
<g><path style="opacity:1" fill="#251716" d="M 385.5,327.5 C 383.574,329.293 381.241,330.293 378.5,330.5C 380.426,328.707 382.759,327.707 385.5,327.5 Z"/></g>
<g><path style="opacity:1" fill="#fed900" d="M -0.5,359.5 C 212.833,359.5 426.167,359.5 639.5,359.5C 639.5,369.5 639.5,379.5 639.5,389.5C 426.167,389.5 212.833,389.5 -0.5,389.5C -0.5,379.5 -0.5,369.5 -0.5,359.5 Z"/></g>
<g><path style="opacity:1" fill="#3e5eb9" d="M -0.5,389.5 C 212.833,389.5 426.167,389.5 639.5,389.5C 639.5,419.5 639.5,449.5 639.5,479.5C 426.167,479.5 212.833,479.5 -0.5,479.5C -0.5,449.5 -0.5,419.5 -0.5,389.5 Z"/></g>
</svg>
