<?xml version="1.0" encoding="UTF-8"?>
<!DOCTYPE svg PUBLIC "-//W3C//DTD SVG 1.1//EN" "http://www.w3.org/Graphics/SVG/1.1/DTD/svg11.dtd">
<svg xmlns="http://www.w3.org/2000/svg" version="1.1" width="640px" height="480px" style="shape-rendering:geometricPrecision; text-rendering:geometricPrecision; image-rendering:optimizeQuality; fill-rule:evenodd; clip-rule:evenodd" xmlns:xlink="http://www.w3.org/1999/xlink">
<g><path style="opacity:1" fill="#298b08" d="M -0.5,-0.5 C 212.833,-0.5 426.167,-0.5 639.5,-0.5C 639.5,55.8333 639.5,112.167 639.5,168.5C 548.833,168.5 458.167,168.5 367.5,168.5C 339.384,148.103 308.384,142.269 274.5,151C 262.11,155.027 250.777,160.86 240.5,168.5C 160.167,168.5 79.8333,168.5 -0.5,168.5C -0.5,112.167 -0.5,55.8333 -0.5,-0.5 Z"/></g>
<g><path style="opacity:1" fill="#0b6bc4" d="M 367.5,168.5 C 367.833,169.5 368.5,170.167 369.5,170.5C 400.306,198.759 411.139,233.426 402,274.5C 396.916,292.684 387.749,308.35 374.5,321.5C 342.025,349.944 305.358,356.777 264.5,342C 253.109,336.646 242.775,329.813 233.5,321.5C 203.244,288.991 195.411,251.657 210,209.5C 216.69,194.33 226.19,181.33 238.5,170.5C 239.5,170.167 240.167,169.5 240.5,168.5C 250.777,160.86 262.11,155.027 274.5,151C 308.384,142.269 339.384,148.103 367.5,168.5 Z"/></g>
<g><path style="opacity:1" fill="#fac426" d="M 299.5,221.5 C 303.884,221.826 308.217,221.492 312.5,220.5C 312.376,219.893 312.043,219.56 311.5,219.5C 307.171,205.512 302.838,191.512 298.5,177.5C 299.769,172.695 301.435,168.028 303.5,163.5C 310.639,182.583 316.972,201.916 322.5,221.5C 334.518,221.168 346.518,221.501 358.5,222.5C 355.314,225.521 351.98,228.354 348.5,231C 331.157,231.833 313.824,231.666 296.5,230.5C 297.705,227.55 298.705,224.55 299.5,221.5 Z"/></g>
<g><path style="opacity:1" fill="#d3b91c" d="M -0.5,169.5 C -0.5,169.167 -0.5,168.833 -0.5,168.5C 79.8333,168.5 160.167,168.5 240.5,168.5C 240.167,169.5 239.5,170.167 238.5,170.5C 159.002,169.501 79.3351,169.167 -0.5,169.5 Z"/></g>
<g><path style="opacity:1" fill="#d4ba1c" d="M 367.5,168.5 C 458.167,168.5 548.833,168.5 639.5,168.5C 639.5,168.833 639.5,169.167 639.5,169.5C 549.332,169.167 459.332,169.501 369.5,170.5C 368.5,170.167 367.833,169.5 367.5,168.5 Z"/></g>
<g><path style="opacity:1" fill="#fec521" d="M -0.5,169.5 C 79.3351,169.167 159.002,169.501 238.5,170.5C 226.19,181.33 216.69,194.33 210,209.5C 195.411,251.657 203.244,288.991 233.5,321.5C 155.5,321.5 77.5,321.5 -0.5,321.5C -0.5,270.833 -0.5,220.167 -0.5,169.5 Z"/></g>
<g><path style="opacity:1" fill="#fec521" d="M 639.5,169.5 C 639.5,220.167 639.5,270.833 639.5,321.5C 551.167,321.5 462.833,321.5 374.5,321.5C 387.749,308.35 396.916,292.684 402,274.5C 411.139,233.426 400.306,198.759 369.5,170.5C 459.332,169.501 549.332,169.167 639.5,169.5 Z"/></g>
<g><path style="opacity:1" fill="#f4c22b" d="M 257.5,176.5 C 264.803,185.984 271.97,195.65 279,205.5C 279.135,209.538 277.301,211.205 273.5,210.5C 266.623,200.579 259.623,190.745 252.5,181C 254.24,179.483 255.906,177.983 257.5,176.5 Z"/></g>
<g><path style="opacity:1" fill="#f5c22b" d="M 351.5,179.5 C 354.897,179.737 356.73,181.404 357,184.5C 349.678,194.785 341.844,204.285 333.5,213C 332.167,211.667 330.833,210.333 329.5,209C 336.665,199.007 343.999,189.174 351.5,179.5 Z"/></g>
<g><path style="opacity:1" fill="#fac426" d="M 224.5,223.5 C 232.167,222.833 239.833,222.167 247.5,221.5C 259.833,221.5 272.167,221.5 284.5,221.5C 287.363,209.912 291.029,198.578 295.5,187.5C 297.881,191.635 299.881,195.968 301.5,200.5C 296.561,216.984 291.228,233.317 285.5,249.5C 282.909,247.62 280.409,245.62 278,243.5C 277.879,239.678 278.713,236.011 280.5,232.5C 265.178,231.667 249.844,231.167 234.5,231C 230.92,228.723 227.586,226.223 224.5,223.5 Z"/></g>
<g><path style="opacity:1" fill="#5c8a8b" d="M 311.5,219.5 C 312.043,219.56 312.376,219.893 312.5,220.5C 308.217,221.492 303.884,221.826 299.5,221.5C 303.5,220.833 307.5,220.167 311.5,219.5 Z"/></g>
<g><path style="opacity:1" fill="#aba858" d="M 247.5,221.5 C 239.833,222.167 232.167,222.833 224.5,223.5C 223.711,223.217 223.044,222.717 222.5,222C 230.827,221.5 239.16,221.334 247.5,221.5 Z"/></g>
<g><path style="opacity:1" fill="#f8c328" d="M 317.5,238.5 C 320.337,236.598 323.671,235.931 327.5,236.5C 329.072,240.026 330.572,243.693 332,247.5C 343.767,239.366 355.267,230.866 366.5,222C 372.5,221.333 378.5,221.333 384.5,222C 367.693,233.973 351.026,246.14 334.5,258.5C 338.928,269.756 342.261,281.089 344.5,292.5C 340.583,290.292 336.75,287.959 333,285.5C 327.725,269.842 322.558,254.175 317.5,238.5 Z"/></g>
<g><path style="opacity:1" fill="#f8c328" d="M 248.5,235.5 C 252.182,235.335 255.848,235.501 259.5,236C 272.833,245.667 286.167,255.333 299.5,265C 297.017,267.406 294.35,269.573 291.5,271.5C 287.742,269.539 284.242,267.205 281,264.5C 276.504,278.656 272.004,292.822 267.5,307C 263.637,310.525 259.47,313.692 255,316.5C 259.897,296.968 265.73,277.635 272.5,258.5C 262.974,251.141 253.308,243.974 243.5,237C 245.382,236.802 247.048,236.302 248.5,235.5 Z"/></g>
<g><path style="opacity:1" fill="#5a8a8d" d="M 327.5,236.5 C 323.671,235.931 320.337,236.598 317.5,238.5C 316.596,237.791 316.263,236.791 316.5,235.5C 320.371,235.185 324.038,235.518 327.5,236.5 Z"/></g>
<g><path style="opacity:1" fill="#f7c329" d="M 316.5,257.5 C 317.675,257.281 318.675,257.614 319.5,258.5C 320.5,261.167 321.5,263.833 322.5,266.5C 319.837,268.992 317.004,271.326 314,273.5C 313.333,274.167 313.333,274.833 314,275.5C 325.667,283.833 337.333,292.167 349,300.5C 351.38,305.294 352.713,310.294 353,315.5C 336.888,303.546 320.388,292.213 303.5,281.5C 293.777,287.784 284.277,294.451 275,301.5C 275.215,296.824 275.882,292.157 277,287.5C 290.351,277.637 303.518,267.637 316.5,257.5 Z"/></g>
<g><path style="opacity:1" fill="#f2c12e" d="M 256.5,257.5 C 257.376,257.369 258.043,257.702 258.5,258.5C 259.167,260.167 259.833,261.833 260.5,263.5C 248.422,268.304 236.089,272.304 223.5,275.5C 223.414,273.323 222.747,271.323 221.5,269.5C 221.833,269.167 222.167,268.833 222.5,268.5C 234.042,265.122 245.375,261.456 256.5,257.5 Z"/></g>
<g><path style="opacity:1" fill="#f5c22b" d="M 347.5,260.5 C 359.988,263.937 371.988,268.437 383.5,274C 383.146,276.264 382.146,278.098 380.5,279.5C 368.747,275.36 357.08,271.027 345.5,266.5C 346.747,264.677 347.414,262.677 347.5,260.5 Z"/></g>
<g><path style="opacity:1" fill="#fcc424" d="M 305.5,294.5 C 305.5,307.167 305.5,319.833 305.5,332.5C 303.167,332.5 300.833,332.5 298.5,332.5C 298.5,322.833 298.5,313.167 298.5,303.5C 299.477,300.713 299.81,297.713 299.5,294.5C 301.5,294.5 303.5,294.5 305.5,294.5 Z"/></g>
<g><path style="opacity:1" fill="#b4aa54" d="M 305.5,294.5 C 303.5,294.5 301.5,294.5 299.5,294.5C 299.81,297.713 299.477,300.713 298.5,303.5C 298.5,300.167 298.5,296.833 298.5,293.5C 301.059,293.198 303.393,293.532 305.5,294.5 Z"/></g>
<g><path style="opacity:1" fill="#ee2118" d="M -0.5,321.5 C 77.5,321.5 155.5,321.5 233.5,321.5C 242.775,329.813 253.109,336.646 264.5,342C 305.358,356.777 342.025,349.944 374.5,321.5C 462.833,321.5 551.167,321.5 639.5,321.5C 639.5,374.167 639.5,426.833 639.5,479.5C 426.167,479.5 212.833,479.5 -0.5,479.5C -0.5,426.833 -0.5,374.167 -0.5,321.5 Z"/></g>
</svg>
