<?xml version="1.0" encoding="UTF-8"?>
<!DOCTYPE svg PUBLIC "-//W3C//DTD SVG 1.1//EN" "http://www.w3.org/Graphics/SVG/1.1/DTD/svg11.dtd">
<svg xmlns="http://www.w3.org/2000/svg" version="1.1" width="640px" height="480px" style="shape-rendering:geometricPrecision; text-rendering:geometricPrecision; image-rendering:optimizeQuality; fill-rule:evenodd; clip-rule:evenodd" xmlns:xlink="http://www.w3.org/1999/xlink">
<g><path style="opacity:1" fill="#fefefe" d="M -0.5,-0.5 C 62.1667,-0.5 124.833,-0.5 187.5,-0.5C 187.5,61.8333 187.5,124.167 187.5,186.5C 125.5,186.5 63.5,186.5 1.5,186.5C 1.5,195.167 1.5,203.833 1.5,212.5C 1.5,230.5 1.5,248.5 1.5,266.5C 1.5,275.167 1.5,283.833 1.5,292.5C 62.9977,293.499 124.664,293.832 186.5,293.5C 186.5,355.5 186.5,417.5 186.5,479.5C 124.167,479.5 61.8333,479.5 -0.5,479.5C -0.5,319.5 -0.5,159.5 -0.5,-0.5 Z"/></g>
<g><path style="opacity:1" fill="#0f3795" d="M 187.5,-0.5 C 196.5,-0.5 205.5,-0.5 214.5,-0.5C 214.5,70.5 214.5,141.5 214.5,212.5C 143.5,212.5 72.5,212.5 1.5,212.5C 1.5,203.833 1.5,195.167 1.5,186.5C 63.5,186.5 125.5,186.5 187.5,186.5C 187.5,124.167 187.5,61.8333 187.5,-0.5 Z"/></g>
<g><path style="opacity:1" fill="#d52828" d="M 214.5,-0.5 C 231.833,-0.5 249.167,-0.5 266.5,-0.5C 266.5,70.5 266.5,141.5 266.5,212.5C 390.833,212.5 515.167,212.5 639.5,212.5C 639.5,230.5 639.5,248.5 639.5,266.5C 515.167,266.5 390.833,266.5 266.5,266.5C 266.5,337.5 266.5,408.5 266.5,479.5C 249.167,479.5 231.833,479.5 214.5,479.5C 214.5,408.5 214.5,337.5 214.5,266.5C 143.5,266.5 72.5,266.5 1.5,266.5C 1.5,248.5 1.5,230.5 1.5,212.5C 72.5,212.5 143.5,212.5 214.5,212.5C 214.5,141.5 214.5,70.5 214.5,-0.5 Z"/></g>
<g><path style="opacity:1" fill="#083796" d="M 266.5,-0.5 C 275.5,-0.5 284.5,-0.5 293.5,-0.5C 293.5,61.8333 293.5,124.167 293.5,186.5C 408.833,186.5 524.167,186.5 639.5,186.5C 639.5,195.167 639.5,203.833 639.5,212.5C 515.167,212.5 390.833,212.5 266.5,212.5C 266.5,141.5 266.5,70.5 266.5,-0.5 Z"/></g>
<g><path style="opacity:1" fill="#fefefe" d="M 293.5,-0.5 C 408.833,-0.5 524.167,-0.5 639.5,-0.5C 639.5,61.8333 639.5,124.167 639.5,186.5C 524.167,186.5 408.833,186.5 293.5,186.5C 293.5,124.167 293.5,61.8333 293.5,-0.5 Z"/></g>
<g><path style="opacity:1" fill="#0b3795" d="M 1.5,266.5 C 72.5,266.5 143.5,266.5 214.5,266.5C 214.5,337.5 214.5,408.5 214.5,479.5C 205.5,479.5 196.5,479.5 187.5,479.5C 187.5,417.167 187.5,354.833 187.5,292.5C 125.5,292.5 63.5,292.5 1.5,292.5C 1.5,283.833 1.5,275.167 1.5,266.5 Z"/></g>
<g><path style="opacity:1" fill="#083796" d="M 639.5,266.5 C 639.5,275.167 639.5,283.833 639.5,292.5C 524.167,292.5 408.833,292.5 293.5,292.5C 293.5,354.833 293.5,417.167 293.5,479.5C 284.5,479.5 275.5,479.5 266.5,479.5C 266.5,408.5 266.5,337.5 266.5,266.5C 390.833,266.5 515.167,266.5 639.5,266.5 Z"/></g>
<g><path style="opacity:1" fill="#d4dded" d="M 1.5,292.5 C 63.5,292.5 125.5,292.5 187.5,292.5C 187.5,354.833 187.5,417.167 187.5,479.5C 187.167,479.5 186.833,479.5 186.5,479.5C 186.5,417.5 186.5,355.5 186.5,293.5C 124.664,293.832 62.9977,293.499 1.5,292.5 Z"/></g>
<g><path style="opacity:1" fill="#fefefe" d="M 639.5,292.5 C 639.5,354.833 639.5,417.167 639.5,479.5C 524.167,479.5 408.833,479.5 293.5,479.5C 293.5,417.167 293.5,354.833 293.5,292.5C 408.833,292.5 524.167,292.5 639.5,292.5 Z"/></g>
</svg>
