<?xml version="1.0" encoding="UTF-8"?>
<!DOCTYPE svg PUBLIC "-//W3C//DTD SVG 1.1//EN" "http://www.w3.org/Graphics/SVG/1.1/DTD/svg11.dtd">
<svg xmlns="http://www.w3.org/2000/svg" version="1.1" width="640px" height="480px" style="shape-rendering:geometricPrecision; text-rendering:geometricPrecision; image-rendering:optimizeQuality; fill-rule:evenodd; clip-rule:evenodd" xmlns:xlink="http://www.w3.org/1999/xlink">
<g><path style="opacity:1" fill="#fcfcfd" d="M 0.5,-0.5 C 12.8333,-0.5 25.1667,-0.5 37.5,-0.5C 64.688,19.6909 91.8547,40.0243 119,60.5C 119.5,40.1694 119.667,19.8361 119.5,-0.5C 124.833,-0.5 130.167,-0.5 135.5,-0.5C 135.5,31.5 135.5,63.5 135.5,95.5C 90.1667,95.5 44.8333,95.5 -0.5,95.5C -0.5,90.1667 -0.5,84.8333 -0.5,79.5C 20.8359,79.6666 42.1693,79.5 63.5,79C 42.2892,62.9495 20.9559,47.1161 -0.5,31.5C -0.5,27.8333 -0.5,24.1667 -0.5,20.5C 25.3401,40.168 51.3401,59.668 77.5,79C 87.5,79.6667 97.5,79.6667 107.5,79C 71.6502,52.6367 35.9835,26.1367 0.5,-0.5 Z"/></g>
<g><path style="opacity:1" fill="#022169" d="M 37.5,-0.5 C 64.8333,-0.5 92.1667,-0.5 119.5,-0.5C 119.667,19.8361 119.5,40.1694 119,60.5C 91.8547,40.0243 64.688,19.6909 37.5,-0.5 Z"/></g>
<g><path style="opacity:1" fill="#c91931" d="M 135.5,-0.5 C 151.833,-0.5 168.167,-0.5 184.5,-0.5C 184.5,31.5 184.5,63.5 184.5,95.5C 229.5,95.5 274.5,95.5 319.5,95.5C 319.5,111.833 319.5,128.167 319.5,144.5C 274.5,144.5 229.5,144.5 184.5,144.5C 184.5,176.167 184.5,207.833 184.5,239.5C 168.167,239.5 151.833,239.5 135.5,239.5C 135.5,207.833 135.5,176.167 135.5,144.5C 90.1667,144.5 44.8333,144.5 -0.5,144.5C -0.5,128.167 -0.5,111.833 -0.5,95.5C 44.8333,95.5 90.1667,95.5 135.5,95.5C 135.5,63.5 135.5,31.5 135.5,-0.5 Z"/></g>
<g><path style="opacity:1" fill="#fcfcfc" d="M 184.5,-0.5 C 189.833,-0.5 195.167,-0.5 200.5,-0.5C 200.333,19.1695 200.5,38.8362 201,58.5C 227.351,38.9699 253.517,19.3033 279.5,-0.5C 284.167,-0.5 288.833,-0.5 293.5,-0.5C 262.312,23.0249 231.145,46.6916 200,70.5C 199.502,73.4816 199.335,76.4816 199.5,79.5C 205.176,79.6661 210.843,79.4994 216.5,79C 250.505,52.6713 284.838,26.838 319.5,1.5C 319.666,11.1724 319.5,20.8391 319,30.5C 297.59,46.7883 276.09,62.9549 254.5,79C 276.164,79.5 297.831,79.6666 319.5,79.5C 319.5,84.8333 319.5,90.1667 319.5,95.5C 274.5,95.5 229.5,95.5 184.5,95.5C 184.5,63.5 184.5,31.5 184.5,-0.5 Z"/></g>
<g><path style="opacity:1" fill="#032169" d="M 200.5,-0.5 C 226.833,-0.5 253.167,-0.5 279.5,-0.5C 253.517,19.3033 227.351,38.9699 201,58.5C 200.5,38.8362 200.333,19.1695 200.5,-0.5 Z"/></g>
<g><path style="opacity:1" fill="#c91731" d="M 293.5,-0.5 C 302.167,-0.5 310.833,-0.5 319.5,-0.5C 319.5,0.166667 319.5,0.833333 319.5,1.5C 284.838,26.838 250.505,52.6713 216.5,79C 210.843,79.4994 205.176,79.6661 199.5,79.5C 199.335,76.4816 199.502,73.4816 200,70.5C 231.145,46.6916 262.312,23.0249 293.5,-0.5 Z"/></g>
<g><path style="opacity:1" fill="#012169" d="M 319.5,-0.5 C 426.167,-0.5 532.833,-0.5 639.5,-0.5C 639.5,159.5 639.5,319.5 639.5,479.5C 426.167,479.5 212.833,479.5 -0.5,479.5C -0.5,399.5 -0.5,319.5 -0.5,239.5C -0.166667,239.5 0.166667,239.5 0.5,239.5C 9.5,239.5 18.5,239.5 27.5,239.5C 32.6278,239.888 37.6278,239.388 42.5,238C 67.7315,218.469 93.2315,199.302 119,180.5C 119.5,200.164 119.667,219.831 119.5,239.5C 124.833,239.5 130.167,239.5 135.5,239.5C 151.833,239.5 168.167,239.5 184.5,239.5C 189.5,239.5 194.5,239.5 199.5,239.5C 200.167,220.167 200.833,200.833 201.5,181.5C 227.137,200.658 252.804,219.824 278.5,239C 291.829,239.5 305.163,239.667 318.5,239.5C 319.491,233.021 319.824,226.354 319.5,219.5C 319.793,215.563 319.46,211.73 318.5,208C 296.655,192.244 274.989,176.244 253.5,160C 275.497,159.5 297.497,159.333 319.5,159.5C 319.5,154.5 319.5,149.5 319.5,144.5C 319.5,128.167 319.5,111.833 319.5,95.5C 319.5,90.1667 319.5,84.8333 319.5,79.5C 297.831,79.6666 276.164,79.5 254.5,79C 276.09,62.9549 297.59,46.7883 319,30.5C 319.5,20.8391 319.666,11.1724 319.5,1.5C 319.5,0.833333 319.5,0.166667 319.5,-0.5 Z"/></g>
<g><path style="opacity:1" fill="#c91731" d="M -0.5,-0.5 C -0.166667,-0.5 0.166667,-0.5 0.5,-0.5C 35.9835,26.1367 71.6502,52.6367 107.5,79C 97.5,79.6667 87.5,79.6667 77.5,79C 51.3401,59.668 25.3401,40.168 -0.5,20.5C -0.5,13.5 -0.5,6.5 -0.5,-0.5 Z"/></g>
<g><path style="opacity:1" fill="#032269" d="M -0.5,31.5 C 20.9559,47.1161 42.2892,62.9495 63.5,79C 42.1693,79.5 20.8359,79.6666 -0.5,79.5C -0.5,63.5 -0.5,47.5 -0.5,31.5 Z"/></g>
<g><path style="opacity:1" fill="#f5f6f8" d="M 543.5,303.5 C 542.662,303.842 542.328,304.508 542.5,305.5C 541.833,305.5 541.5,305.833 541.5,306.5C 539.512,309.128 537.512,311.795 535.5,314.5C 535.5,314.833 535.5,315.167 535.5,315.5C 530.389,321.399 525.056,327.066 519.5,332.5C 518.903,332.735 518.57,333.235 518.5,334C 519.889,341.166 521.222,348.333 522.5,355.5C 493.784,366.306 465.117,366.139 436.5,355C 435.941,354.275 435.608,353.442 435.5,352.5C 436.809,348.6 437.476,344.6 437.5,340.5C 438.266,338.316 438.933,335.982 439.5,333.5C 439.145,332.478 438.478,331.811 437.5,331.5C 435.5,328.833 433.167,326.5 430.5,324.5C 428.075,320.648 425.409,316.981 422.5,313.5C 422.5,312.833 422.167,312.5 421.5,312.5C 421.5,312.167 421.5,311.833 421.5,311.5C 420.5,310.167 419.5,308.833 418.5,307.5C 410.329,303.069 404.996,305.403 402.5,314.5C 400.375,317.088 399.042,320.088 398.5,323.5C 397.363,328.816 395.197,333.816 392,338.5C 390.275,339.464 388.441,340.131 386.5,340.5C 392.845,329.812 398.678,318.812 404,307.5C 407.027,304.203 410.861,302.536 415.5,302.5C 406.381,286.309 400.547,268.976 398,250.5C 396.563,196.517 396.063,142.517 396.5,88.5C 451.833,88.5 507.167,88.5 562.5,88.5C 562.973,137.501 563.14,186.501 563,235.5C 561.473,259.611 554.973,282.278 543.5,303.5 Z"/></g>
<g><path style="opacity:1" fill="#0673c4" d="M 558.5,111.5 C 558.5,149.833 558.5,188.167 558.5,226.5C 557.5,226.5 556.5,226.5 555.5,226.5C 548.808,222.128 542.141,217.795 535.5,213.5C 537.483,210.739 539.65,208.072 542,205.5C 543.128,203.655 543.628,201.655 543.5,199.5C 541.508,199.672 539.842,199.005 538.5,197.5C 535.687,198.219 532.854,198.886 530,199.5C 528.779,198.728 527.779,197.728 527,196.5C 526.617,197.056 526.117,197.389 525.5,197.5C 525.74,194.421 525.407,191.421 524.5,188.5C 527.109,185.617 528.942,182.283 530,178.5C 530.284,168.687 531.45,159.02 533.5,149.5C 533.736,137.789 528.403,129.956 517.5,126C 498.124,127.046 478.79,126.379 459.5,124C 455.711,120.853 452.044,117.686 448.5,114.5C 445.148,111.352 441.482,108.518 437.5,106C 432.475,104.909 427.809,105.743 423.5,108.5C 422.692,110.423 422.192,112.423 422,114.5C 417.352,116.995 413.019,119.995 409,123.5C 407.663,128.084 408.829,131.751 412.5,134.5C 412.918,135.222 413.584,135.722 414.5,136C 417.95,136.175 421.283,136.342 424.5,136.5C 425.273,151.442 427.773,166.109 432,180.5C 436.667,183.833 441.333,187.167 446,190.5C 447.266,194.395 447.766,198.395 447.5,202.5C 445.533,202.261 443.699,202.594 442,203.5C 441.333,201.5 440.667,199.5 440,197.5C 439.241,199.063 438.074,200.063 436.5,200.5C 436.539,199.244 436.039,198.244 435,197.5C 432.012,198.744 429.845,197.744 428.5,194.5C 427.343,197.784 427.176,201.118 428,204.5C 429.632,208.032 430.799,211.699 431.5,215.5C 428.406,213.653 425.072,213.153 421.5,214C 415.938,216.894 410.938,220.561 406.5,225C 404.655,226.128 402.655,226.628 400.5,226.5C 400.5,181.833 400.5,137.167 400.5,92.5C 453.167,92.5 505.833,92.5 558.5,92.5C 558.5,98.8333 558.5,105.167 558.5,111.5 Z"/></g>
<g><path style="opacity:1" fill="#f5f6f7" d="M 448.5,114.5 C 448.033,117.826 446.866,118.159 445,115.5C 443.691,117.891 442.691,117.891 442,115.5C 439.389,116.071 436.889,116.904 434.5,118C 436.787,120.649 439.453,121.149 442.5,119.5C 447.447,120.26 447.781,122.093 443.5,125C 440.39,125.053 438.056,126.386 436.5,129C 435.056,129.781 433.723,129.614 432.5,128.5C 433.823,123.912 433.323,123.578 431,127.5C 430.481,126.484 429.647,125.818 428.5,125.5C 425.64,128.072 422.807,128.072 420,125.5C 418.189,126.078 416.355,126.578 414.5,127C 417.029,128.062 419.696,128.895 422.5,129.5C 420.021,130.673 417.521,130.673 415,129.5C 414.5,129.833 414,130.167 413.5,130.5C 414.325,131.386 415.325,131.719 416.5,131.5C 416.5,132.5 416.5,133.5 416.5,134.5C 415.167,134.5 413.833,134.5 412.5,134.5C 408.829,131.751 407.663,128.084 409,123.5C 413.019,119.995 417.352,116.995 422,114.5C 422.192,112.423 422.692,110.423 423.5,108.5C 427.809,105.743 432.475,104.909 437.5,106C 441.482,108.518 445.148,111.352 448.5,114.5 Z"/></g>
<g><path style="opacity:1" fill="#bcbdbd" d="M 448.5,114.5 C 452.044,117.686 455.711,120.853 459.5,124C 478.79,126.379 498.124,127.046 517.5,126C 528.403,129.956 533.736,137.789 533.5,149.5C 531.45,159.02 530.284,168.687 530,178.5C 528.942,182.283 527.109,185.617 524.5,188.5C 525.407,191.421 525.74,194.421 525.5,197.5C 525.715,199.179 525.048,200.179 523.5,200.5C 522.622,197.239 521.956,193.906 521.5,190.5C 518.739,189.08 515.739,188.413 512.5,188.5C 512.5,191.833 512.5,195.167 512.5,198.5C 510.918,199.876 509.085,200.876 507,201.5C 506.235,201.43 505.735,201.097 505.5,200.5C 506.909,198.695 507.409,196.695 507,194.5C 505.815,192.623 504.815,190.623 504,188.5C 501.778,186.722 499.612,186.555 497.5,188C 492.02,188.72 486.52,189.22 481,189.5C 476.042,189.35 471.208,188.85 466.5,188C 461.713,190.736 459.38,194.903 459.5,200.5C 459.011,203.324 457.344,204.657 454.5,204.5C 454.348,195.955 453.348,195.622 451.5,203.5C 450.167,203.167 448.833,202.833 447.5,202.5C 447.766,198.395 447.266,194.395 446,190.5C 441.333,187.167 436.667,183.833 432,180.5C 427.773,166.109 425.273,151.442 424.5,136.5C 421.283,136.342 417.95,136.175 414.5,136C 413.584,135.722 412.918,135.222 412.5,134.5C 413.833,134.5 415.167,134.5 416.5,134.5C 416.5,133.5 416.5,132.5 416.5,131.5C 415.325,131.719 414.325,131.386 413.5,130.5C 414,130.167 414.5,129.833 415,129.5C 417.521,130.673 420.021,130.673 422.5,129.5C 419.696,128.895 417.029,128.062 414.5,127C 416.355,126.578 418.189,126.078 420,125.5C 422.807,128.072 425.64,128.072 428.5,125.5C 429.647,125.818 430.481,126.484 431,127.5C 433.323,123.578 433.823,123.912 432.5,128.5C 433.723,129.614 435.056,129.781 436.5,129C 438.056,126.386 440.39,125.053 443.5,125C 447.781,122.093 447.447,120.26 442.5,119.5C 439.453,121.149 436.787,120.649 434.5,118C 436.889,116.904 439.389,116.071 442,115.5C 442.691,117.891 443.691,117.891 445,115.5C 446.866,118.159 448.033,117.826 448.5,114.5 Z"/></g>
<g><path style="opacity:1" fill="#3b3b3a" d="M 423.5,114.5 C 431.646,118.338 430.979,120.172 421.5,120C 421.043,119.586 420.709,119.086 420.5,118.5C 421.91,117.431 422.91,116.097 423.5,114.5 Z"/></g>
<g><path style="opacity:1" fill="#f9f9f9" d="M 452.5,125.5 C 453.376,125.369 454.043,125.702 454.5,126.5C 453.515,128.098 453.349,129.765 454,131.5C 455.185,133.377 456.185,135.377 457,137.5C 457.333,136.5 457.667,135.5 458,134.5C 458.29,136.952 458.956,139.285 460,141.5C 460.539,138.471 461.206,135.471 462,132.5C 462.333,134.833 462.667,137.167 463,139.5C 463.748,137.668 464.748,136.001 466,134.5C 466.173,138.541 466.673,142.541 467.5,146.5C 468.308,144.577 468.808,142.577 469,140.5C 469.192,142.577 469.692,144.577 470.5,146.5C 470.833,146.167 471.167,145.833 471.5,145.5C 473.617,141.323 475.284,136.99 476.5,132.5C 477.743,136.914 479.243,141.247 481,145.5C 481.648,140.796 481.481,136.129 480.5,131.5C 481.822,131.33 482.989,131.663 484,132.5C 484.054,135.861 485.054,138.861 487,141.5C 487.471,139.754 488.138,138.087 489,136.5C 489.701,139.327 490.701,141.994 492,144.5C 492.333,140.833 492.667,137.167 493,133.5C 494.011,134.337 495.178,134.67 496.5,134.5C 496.339,138.844 497.839,142.511 501,145.5C 501.278,141.806 501.278,138.139 501,134.5C 502.312,139.313 504.812,143.313 508.5,146.5C 509.464,142.544 508.464,139.044 505.5,136C 508.517,138.312 511.684,140.812 515,143.5C 513.608,138.217 514.608,137.551 518,141.5C 518.333,140.5 518.667,139.5 519,138.5C 520.333,139.833 521.667,141.167 523,142.5C 523.566,139.021 522.233,136.355 519,134.5C 518.333,133.833 518.333,133.167 519,132.5C 522.349,134.853 525.349,137.52 528,140.5C 528.311,142.556 528.811,144.556 529.5,146.5C 529.154,147.696 528.654,147.696 528,146.5C 525.955,156.027 524.955,165.694 525,175.5C 523.539,171.822 522.206,168.155 521,164.5C 520.527,167.951 521.027,171.285 522.5,174.5C 519.563,180.888 517.73,180.221 517,172.5C 514.752,169.672 512.752,166.672 511,163.5C 511,166.833 511,170.167 511,173.5C 509.239,166.965 505.739,161.631 500.5,157.5C 499.5,158.833 498.5,158.833 497.5,157.5C 497.167,158.167 496.833,158.833 496.5,159.5C 497.515,163.131 497.681,166.798 497,170.5C 496.163,168.649 495.329,166.816 494.5,165C 493.833,164.333 493.167,164.333 492.5,165C 493.731,166.183 493.731,167.349 492.5,168.5C 489.409,166.759 487.742,164.093 487.5,160.5C 487.167,160.667 486.833,160.833 486.5,161C 483.515,179.119 481.849,178.952 481.5,160.5C 481.17,164.433 481.003,168.433 481,172.5C 480.333,173.167 479.667,173.833 479,174.5C 477.055,173.137 474.888,172.303 472.5,172C 470.8,168.709 469.633,165.209 469,161.5C 468.667,161.167 468.333,160.833 468,160.5C 467.798,162.256 467.298,163.922 466.5,165.5C 465.571,164.311 465.238,162.978 465.5,161.5C 461.777,161.358 460.944,162.691 463,165.5C 463.667,168.167 463.667,170.833 463,173.5C 462.359,171.187 461.026,169.52 459,168.5C 457.078,170.789 455.745,173.455 455,176.5C 452.292,173.706 449.792,173.873 447.5,177C 444.518,177.498 441.518,177.665 438.5,177.5C 439.47,174.339 441.137,171.506 443.5,169C 450.525,169.652 455.858,166.818 459.5,160.5C 459,160.167 458.5,159.833 458,159.5C 455.63,161.768 452.797,163.101 449.5,163.5C 448.5,163.333 447.5,163.167 446.5,163C 448.587,162.208 450.421,161.041 452,159.5C 452.688,158.668 452.521,158.002 451.5,157.5C 449.368,159.117 447.035,159.617 444.5,159C 445.96,158.189 446.293,157.355 445.5,156.5C 441.235,157.439 436.902,157.772 432.5,157.5C 432.5,156.5 432.5,155.5 432.5,154.5C 434.842,154.496 436.842,153.663 438.5,152C 437.5,151.667 436.5,151.333 435.5,151C 441.419,150.105 446.085,147.105 449.5,142C 446.874,143.628 443.874,144.795 440.5,145.5C 439.5,145.333 438.5,145.167 437.5,145C 438.337,143.989 438.67,142.822 438.5,141.5C 435.482,141.665 432.482,141.498 429.5,141C 435.155,139.793 435.488,138.46 430.5,137C 434.043,135.392 437.043,133.058 439.5,130C 441.5,129.333 443.5,129.333 445.5,130C 444.36,131.973 443.027,133.807 441.5,135.5C 442.833,136.833 444.167,136.833 445.5,135.5C 447.351,131.788 449.684,128.454 452.5,125.5 Z"/></g>
<g><path style="opacity:1" fill="#c0c0c0" d="M 453.5,138.5 C 455.31,142.377 454.31,145.543 450.5,148C 448.956,149.187 447.289,149.52 445.5,149C 449.025,146.099 451.692,142.599 453.5,138.5 Z"/></g>
<g><path style="opacity:1" fill="#fcfcfc" d="M -0.5,144.5 C 44.8333,144.5 90.1667,144.5 135.5,144.5C 135.5,176.167 135.5,207.833 135.5,239.5C 130.167,239.5 124.833,239.5 119.5,239.5C 119.667,219.831 119.5,200.164 119,180.5C 93.2315,199.302 67.7315,218.469 42.5,238C 37.6278,239.388 32.6278,239.888 27.5,239.5C 57.699,215.813 88.3657,192.646 119.5,170C 120.456,166.606 120.789,163.106 120.5,159.5C 115.041,159.103 109.708,159.603 104.5,161C 69.6492,187.03 34.9826,213.197 0.5,239.5C 0.166667,239.5 -0.166667,239.5 -0.5,239.5C -0.5,229.5 -0.5,219.5 -0.5,209.5C 21.623,193.217 43.623,176.717 65.5,160C 43.5025,159.5 21.5025,159.333 -0.5,159.5C -0.5,154.5 -0.5,149.5 -0.5,144.5 Z"/></g>
<g><path style="opacity:1" fill="#fdfdfd" d="M 319.5,144.5 C 319.5,149.5 319.5,154.5 319.5,159.5C 297.497,159.333 275.497,159.5 253.5,160C 274.989,176.244 296.655,192.244 318.5,208C 319.46,211.73 319.793,215.563 319.5,219.5C 293.044,200.217 266.711,180.717 240.5,161C 230.934,159.387 221.267,159.053 211.5,160C 247.35,186.363 283.016,212.863 318.5,239.5C 305.163,239.667 291.829,239.5 278.5,239C 252.804,219.824 227.137,200.658 201.5,181.5C 201.44,180.957 201.107,180.624 200.5,180.5C 199.5,200.155 199.167,219.822 199.5,239.5C 194.5,239.5 189.5,239.5 184.5,239.5C 184.5,207.833 184.5,176.167 184.5,144.5C 229.5,144.5 274.5,144.5 319.5,144.5 Z"/></g>
<g><path style="opacity:1" fill="#032269" d="M -0.5,159.5 C 21.5025,159.333 43.5025,159.5 65.5,160C 43.623,176.717 21.623,193.217 -0.5,209.5C -0.5,192.833 -0.5,176.167 -0.5,159.5 Z"/></g>
<g><path style="opacity:1" fill="#c91731" d="M 27.5,239.5 C 18.5,239.5 9.5,239.5 0.5,239.5C 34.9826,213.197 69.6492,187.03 104.5,161C 109.708,159.603 115.041,159.103 120.5,159.5C 120.789,163.106 120.456,166.606 119.5,170C 88.3657,192.646 57.699,215.813 27.5,239.5 Z"/></g>
<g><path style="opacity:1" fill="#c91731" d="M 319.5,219.5 C 319.824,226.354 319.491,233.021 318.5,239.5C 283.016,212.863 247.35,186.363 211.5,160C 221.267,159.053 230.934,159.387 240.5,161C 266.711,180.717 293.044,200.217 319.5,219.5 Z"/></g>
<g><path style="opacity:1" fill="#7f8fb3" d="M 201.5,181.5 C 200.833,200.833 200.167,220.167 199.5,239.5C 199.167,219.822 199.5,200.155 200.5,180.5C 201.107,180.624 201.44,180.957 201.5,181.5 Z"/></g>
<g><path style="opacity:1" fill="#0b72c0" d="M 505.5,200.5 C 503.119,199.58 500.786,199.58 498.5,200.5C 496.299,198.167 493.799,197.834 491,199.5C 488.908,199.121 486.908,198.454 485,197.5C 483.715,197.95 482.548,198.617 481.5,199.5C 480.281,198.737 479.281,197.737 478.5,196.5C 477.081,197.005 476.415,198.005 476.5,199.5C 475.778,199.918 475.278,200.584 475,201.5C 473.758,200.128 472.258,199.128 470.5,198.5C 467.966,201.485 465.299,201.818 462.5,199.5C 461.583,200.127 460.583,200.461 459.5,200.5C 459.38,194.903 461.713,190.736 466.5,188C 471.208,188.85 476.042,189.35 481,189.5C 486.52,189.22 492.02,188.72 497.5,188C 499.612,186.555 501.778,186.722 504,188.5C 504.815,190.623 505.815,192.623 507,194.5C 507.409,196.695 506.909,198.695 505.5,200.5 Z"/></g>
<g><path style="opacity:1" fill="#91c1e5" d="M 558.5,111.5 C 559.499,149.996 559.832,188.663 559.5,227.5C 557.901,227.768 556.568,227.434 555.5,226.5C 556.5,226.5 557.5,226.5 558.5,226.5C 558.5,188.167 558.5,149.833 558.5,111.5 Z"/></g>
<g><path style="opacity:1" fill="#1874c0" d="M 523.5,200.5 C 520.552,200.223 517.719,200.556 515,201.5C 514.764,199.881 513.931,198.881 512.5,198.5C 512.5,195.167 512.5,191.833 512.5,188.5C 515.739,188.413 518.739,189.08 521.5,190.5C 521.956,193.906 522.622,197.239 523.5,200.5 Z"/></g>
<g><path style="opacity:1" fill="#3980c0" d="M 454.5,204.5 C 453.209,204.737 452.209,204.404 451.5,203.5C 453.348,195.622 454.348,195.955 454.5,204.5 Z"/></g>
<g><path style="opacity:1" fill="#044f1f" d="M 436.5,200.5 C 436.369,201.376 436.702,202.043 437.5,202.5C 439.883,201.538 440.883,202.538 440.5,205.5C 445.198,203.913 449.698,204.246 454,206.5C 457.444,206.052 460.111,204.385 462,201.5C 465.232,202.985 468.232,202.651 471,200.5C 472.567,201.856 474.4,202.523 476.5,202.5C 476.5,201.5 476.5,200.5 476.5,199.5C 477.117,199.389 477.617,199.056 478,198.5C 479.019,199.687 480.186,200.687 481.5,201.5C 482.548,200.617 483.715,199.95 485,199.5C 492.17,200.401 499.336,201.401 506.5,202.5C 508.689,202.406 510.689,201.739 512.5,200.5C 513.328,201.415 514.328,202.081 515.5,202.5C 519.652,202.259 523.485,201.259 527,199.5C 528.688,201.848 530.522,202.015 532.5,200C 536.156,199.164 539.49,199.831 542.5,202C 540.678,204.821 538.511,207.321 536,209.5C 535.209,210.745 534.709,212.078 534.5,213.5C 530.489,213.502 526.822,214.668 523.5,217C 520.986,219.415 518.319,221.581 515.5,223.5C 512.412,223.623 509.745,222.623 507.5,220.5C 509.473,217.36 511.64,214.36 514,211.5C 514.688,210.668 514.521,210.002 513.5,209.5C 510.791,212.208 508.458,215.208 506.5,218.5C 504.62,218.229 503.287,218.896 502.5,220.5C 499.779,220.963 497.112,221.629 494.5,222.5C 492.396,220.901 490.396,219.068 488.5,217C 485.794,215.092 482.794,214.259 479.5,214.5C 478.5,214.5 477.5,214.5 476.5,214.5C 472.756,214.928 469.756,216.595 467.5,219.5C 464.94,221.273 462.607,223.273 460.5,225.5C 457.574,226.461 454.574,227.127 451.5,227.5C 451.802,224.941 451.468,222.607 450.5,220.5C 449.29,220.932 448.29,221.599 447.5,222.5C 446.791,223.404 445.791,223.737 444.5,223.5C 443.5,223.5 442.5,223.5 441.5,223.5C 438.688,220.599 435.688,217.932 432.5,215.5C 432.938,215.565 433.272,215.399 433.5,215C 430.668,209.841 429.501,204.341 430,198.5C 430.739,199.574 431.739,200.241 433,200.5C 434.261,199.342 435.427,199.342 436.5,200.5 Z"/></g>
<g><path style="opacity:1" fill="#023118" d="M 505.5,200.5 C 505.735,201.097 506.235,201.43 507,201.5C 509.085,200.876 510.918,199.876 512.5,198.5C 513.931,198.881 514.764,199.881 515,201.5C 517.719,200.556 520.552,200.223 523.5,200.5C 525.048,200.179 525.715,199.179 525.5,197.5C 526.117,197.389 526.617,197.056 527,196.5C 527.779,197.728 528.779,198.728 530,199.5C 532.854,198.886 535.687,198.219 538.5,197.5C 539.842,199.005 541.508,199.672 543.5,199.5C 543.628,201.655 543.128,203.655 542,205.5C 539.65,208.072 537.483,210.739 535.5,213.5C 535.167,213.5 534.833,213.5 534.5,213.5C 534.709,212.078 535.209,210.745 536,209.5C 538.511,207.321 540.678,204.821 542.5,202C 539.49,199.831 536.156,199.164 532.5,200C 530.522,202.015 528.688,201.848 527,199.5C 523.485,201.259 519.652,202.259 515.5,202.5C 514.328,202.081 513.328,201.415 512.5,200.5C 510.689,201.739 508.689,202.406 506.5,202.5C 499.336,201.401 492.17,200.401 485,199.5C 483.715,199.95 482.548,200.617 481.5,201.5C 480.186,200.687 479.019,199.687 478,198.5C 477.617,199.056 477.117,199.389 476.5,199.5C 476.415,198.005 477.081,197.005 478.5,196.5C 479.281,197.737 480.281,198.737 481.5,199.5C 482.548,198.617 483.715,197.95 485,197.5C 486.908,198.454 488.908,199.121 491,199.5C 493.799,197.834 496.299,198.167 498.5,200.5C 500.786,199.58 503.119,199.58 505.5,200.5 Z"/></g>
<g><path style="opacity:1" fill="#07341d" d="M 447.5,202.5 C 448.833,202.833 450.167,203.167 451.5,203.5C 452.209,204.404 453.209,204.737 454.5,204.5C 457.344,204.657 459.011,203.324 459.5,200.5C 460.583,200.461 461.583,200.127 462.5,199.5C 465.299,201.818 467.966,201.485 470.5,198.5C 472.258,199.128 473.758,200.128 475,201.5C 475.278,200.584 475.778,199.918 476.5,199.5C 476.5,200.5 476.5,201.5 476.5,202.5C 474.4,202.523 472.567,201.856 471,200.5C 468.232,202.651 465.232,202.985 462,201.5C 460.111,204.385 457.444,206.052 454,206.5C 449.698,204.246 445.198,203.913 440.5,205.5C 440.883,202.538 439.883,201.538 437.5,202.5C 436.702,202.043 436.369,201.376 436.5,200.5C 438.074,200.063 439.241,199.063 440,197.5C 440.667,199.5 441.333,201.5 442,203.5C 443.699,202.594 445.533,202.261 447.5,202.5 Z"/></g>
<g><path style="opacity:1" fill="#013419" d="M 436.5,200.5 C 435.427,199.342 434.261,199.342 433,200.5C 431.739,200.241 430.739,199.574 430,198.5C 429.501,204.341 430.668,209.841 433.5,215C 433.272,215.399 432.938,215.565 432.5,215.5C 432.167,215.5 431.833,215.5 431.5,215.5C 430.799,211.699 429.632,208.032 428,204.5C 427.176,201.118 427.343,197.784 428.5,194.5C 429.845,197.744 432.012,198.744 435,197.5C 436.039,198.244 436.539,199.244 436.5,200.5 Z"/></g>
<g><path style="opacity:1" fill="#003210" d="M 459.5,208.5 C 461.359,208.461 462.692,209.294 463.5,211C 462.451,211.492 461.451,211.326 460.5,210.5C 456.69,211.588 453.023,212.921 449.5,214.5C 448.808,213.975 448.308,213.308 448,212.5C 447.814,214.9 447.314,217.234 446.5,219.5C 444.5,217.167 442.5,214.833 440.5,212.5C 442.329,211.718 443.829,212.384 445,214.5C 445.36,212.579 446.194,210.912 447.5,209.5C 451.671,211.797 455.671,211.464 459.5,208.5 Z"/></g>
<g><path style="opacity:1" fill="#dfddd8" d="M 476.5,214.5 C 476.167,215.167 475.833,215.833 475.5,216.5C 472.833,217.5 470.167,218.5 467.5,219.5C 469.756,216.595 472.756,214.928 476.5,214.5 Z"/></g>
<g><path style="opacity:1" fill="#d92a16" d="M 475.5,216.5 C 476.833,218.5 476.833,220.5 475.5,222.5C 472.284,222.655 469.617,221.655 467.5,219.5C 470.167,218.5 472.833,217.5 475.5,216.5 Z"/></g>
<g><path style="opacity:1" fill="#f8f7f6" d="M 467.5,219.5 C 469.617,221.655 472.284,222.655 475.5,222.5C 475.53,223.497 475.03,224.164 474,224.5C 471.755,225.137 469.588,225.97 467.5,227C 468.373,228.045 469.373,228.878 470.5,229.5C 471.538,231.519 472.872,231.853 474.5,230.5C 476.048,230.821 476.715,231.821 476.5,233.5C 472.094,234.699 467.761,235.366 463.5,235.5C 461.968,232.544 461.635,229.544 462.5,226.5C 462.043,225.702 461.376,225.369 460.5,225.5C 462.607,223.273 464.94,221.273 467.5,219.5 Z"/></g>
<g><path style="opacity:1" fill="#ede9e5" d="M 479.5,214.5 C 482.794,214.259 485.794,215.092 488.5,217C 490.396,219.068 492.396,220.901 494.5,222.5C 494.821,224.048 495.821,224.715 497.5,224.5C 498.842,225.793 500.509,226.626 502.5,227C 501.833,227.333 501.167,227.667 500.5,228C 501.416,228.278 502.082,228.778 502.5,229.5C 500.801,229.38 499.135,229.046 497.5,228.5C 496.261,228.942 495.261,229.609 494.5,230.5C 494.205,228.577 493.372,226.91 492,225.5C 491.508,226.549 491.674,227.549 492.5,228.5C 488.568,230.033 484.568,231.366 480.5,232.5C 479.893,232.376 479.56,232.043 479.5,231.5C 481.334,229.303 483.668,227.637 486.5,226.5C 487.386,225.675 487.719,224.675 487.5,223.5C 489.104,222.713 489.771,221.38 489.5,219.5C 486.171,219.998 483.005,220.998 480,222.5C 479.503,219.854 479.336,217.187 479.5,214.5 Z"/></g>
<g><path style="opacity:1" fill="#d7220c" d="M 502.5,220.5 C 503.451,221.919 503.784,223.585 503.5,225.5C 501.5,225.167 499.5,224.833 497.5,224.5C 495.821,224.715 494.821,224.048 494.5,222.5C 497.112,221.629 499.779,220.963 502.5,220.5 Z"/></g>
<g><path style="opacity:1" fill="#f21909" d="M 447.5,222.5 C 449.308,223.918 449.975,225.918 449.5,228.5C 448.5,228.5 447.5,228.5 446.5,228.5C 444.585,228.784 442.919,228.451 441.5,227.5C 441.082,226.778 440.416,226.278 439.5,226C 441.491,225.626 443.158,224.793 444.5,223.5C 445.791,223.737 446.791,223.404 447.5,222.5 Z"/></g>
<g><path style="opacity:1" fill="#1a3e17" d="M 515.5,223.5 C 515.5,223.833 515.5,224.167 515.5,224.5C 512.854,225.487 510.188,226.487 507.5,227.5C 506.516,224.572 506.183,221.572 506.5,218.5C 508.458,215.208 510.791,212.208 513.5,209.5C 514.521,210.002 514.688,210.668 514,211.5C 511.64,214.36 509.473,217.36 507.5,220.5C 509.745,222.623 512.412,223.623 515.5,223.5 Z"/></g>
<g><path style="opacity:1" fill="#77321a" d="M 450.5,220.5 C 450.665,223.518 450.498,226.518 450,229.5C 449.329,230.252 448.496,230.586 447.5,230.5C 447.167,229.833 446.833,229.167 446.5,228.5C 447.5,228.5 448.5,228.5 449.5,228.5C 449.975,225.918 449.308,223.918 447.5,222.5C 448.29,221.599 449.29,220.932 450.5,220.5 Z"/></g>
<g><path style="opacity:1" fill="#f0c13d" d="M 487.5,223.5 C 487.719,224.675 487.386,225.675 486.5,226.5C 483.668,227.637 481.334,229.303 479.5,231.5C 477.955,230.77 477.122,229.437 477,227.5C 475.955,228.373 475.122,229.373 474.5,230.5C 472.872,231.853 471.538,231.519 470.5,229.5C 475.479,226.685 480.812,224.351 486.5,222.5C 487.107,222.624 487.44,222.957 487.5,223.5 Z"/></g>
<g><path style="opacity:1" fill="#af321c" d="M 441.5,223.5 C 442.5,223.5 443.5,223.5 444.5,223.5C 443.158,224.793 441.491,225.626 439.5,226C 440.416,226.278 441.082,226.778 441.5,227.5C 439.345,227.628 437.345,227.128 435.5,226C 437.723,225.434 439.723,224.6 441.5,223.5 Z"/></g>
<g><path style="opacity:1" fill="#9d5f36" d="M 476.5,214.5 C 477.5,214.5 478.5,214.5 479.5,214.5C 479.336,217.187 479.503,219.854 480,222.5C 483.005,220.998 486.171,219.998 489.5,219.5C 489.771,221.38 489.104,222.713 487.5,223.5C 487.44,222.957 487.107,222.624 486.5,222.5C 480.812,224.351 475.479,226.685 470.5,229.5C 469.373,228.878 468.373,228.045 467.5,227C 469.588,225.97 471.755,225.137 474,224.5C 475.03,224.164 475.53,223.497 475.5,222.5C 476.833,220.5 476.833,218.5 475.5,216.5C 475.833,215.833 476.167,215.167 476.5,214.5 Z"/></g>
<g><path style="opacity:1" fill="#7c4d2b" d="M 506.5,218.5 C 506.183,221.572 506.516,224.572 507.5,227.5C 510.188,226.487 512.854,225.487 515.5,224.5C 515.938,224.435 516.272,224.601 516.5,225C 515.934,225.995 515.267,226.828 514.5,227.5C 514.44,226.957 514.107,226.624 513.5,226.5C 509.986,228.117 506.319,229.117 502.5,229.5C 502.082,228.778 501.416,228.278 500.5,228C 501.167,227.667 501.833,227.333 502.5,227C 500.509,226.626 498.842,225.793 497.5,224.5C 499.5,224.833 501.5,225.167 503.5,225.5C 503.784,223.585 503.451,221.919 502.5,220.5C 503.287,218.896 504.62,218.229 506.5,218.5 Z"/></g>
<g><path style="opacity:1" fill="#efc13c" d="M 514.5,227.5 C 514.5,228.833 514.5,230.167 514.5,231.5C 511.069,231.045 508.736,232.379 507.5,235.5C 505.938,235.267 504.605,234.6 503.5,233.5C 502.508,233.328 501.842,233.662 501.5,234.5C 499.641,234.539 498.308,233.706 497.5,232C 499.315,231.243 500.981,230.41 502.5,229.5C 506.319,229.117 509.986,228.117 513.5,226.5C 514.107,226.624 514.44,226.957 514.5,227.5 Z"/></g>
<g><path style="opacity:1" fill="#9e7f6b" d="M 502.5,229.5 C 500.981,230.41 499.315,231.243 497.5,232C 498.308,233.706 499.641,234.539 501.5,234.5C 500.469,235.249 499.302,235.915 498,236.5C 496.569,234.636 495.403,232.636 494.5,230.5C 495.261,229.609 496.261,228.942 497.5,228.5C 499.135,229.046 500.801,229.38 502.5,229.5 Z"/></g>
<g><path style="opacity:1" fill="#eeeae7" d="M 494.5,230.5 C 495.403,232.636 496.569,234.636 498,236.5C 499.302,235.915 500.469,235.249 501.5,234.5C 501.842,233.662 502.508,233.328 503.5,233.5C 503.5,235.167 503.5,236.833 503.5,238.5C 500.123,238.959 496.789,239.626 493.5,240.5C 493.263,241.791 493.596,242.791 494.5,243.5C 493.586,246.728 493.253,250.061 493.5,253.5C 493.511,249.054 491.511,245.721 487.5,243.5C 488.566,241.299 489.233,238.965 489.5,236.5C 490.415,233.914 492.082,231.914 494.5,230.5 Z"/></g>
<g><path style="opacity:1" fill="#f1c23c" d="M 489.5,236.5 C 489.233,238.965 488.566,241.299 487.5,243.5C 486.523,246.287 486.19,249.287 486.5,252.5C 486.768,254.099 486.434,255.432 485.5,256.5C 483.858,254.919 481.858,254.253 479.5,254.5C 476.687,254.025 474.687,255.025 473.5,257.5C 472.167,258.167 471.167,259.167 470.5,260.5C 469.833,260.5 469.167,260.5 468.5,260.5C 467.072,257.697 466.405,254.697 466.5,251.5C 466.5,248.833 466.5,246.167 466.5,243.5C 466.829,241.597 468.162,239.931 470.5,238.5C 476.809,236.673 483.143,235.006 489.5,233.5C 489.5,234.5 489.5,235.5 489.5,236.5 Z"/></g>
<g><path style="opacity:1" fill="#9e633d" d="M 517.5,237.5 C 517.44,236.957 517.107,236.624 516.5,236.5C 508.936,239.36 501.603,241.694 494.5,243.5C 493.596,242.791 493.263,241.791 493.5,240.5C 496.789,239.626 500.123,238.959 503.5,238.5C 503.5,236.833 503.5,235.167 503.5,233.5C 504.605,234.6 505.938,235.267 507.5,235.5C 507.56,236.043 507.893,236.376 508.5,236.5C 512.461,234.957 516.461,233.624 520.5,232.5C 520.741,235.034 519.741,236.7 517.5,237.5 Z"/></g>
<g><path style="opacity:1" fill="#a76d44" d="M 450.5,220.5 C 451.468,222.607 451.802,224.941 451.5,227.5C 454.574,227.127 457.574,226.461 460.5,225.5C 461.376,225.369 462.043,225.702 462.5,226.5C 461.635,229.544 461.968,232.544 463.5,235.5C 467.761,235.366 472.094,234.699 476.5,233.5C 476.715,231.821 476.048,230.821 474.5,230.5C 475.122,229.373 475.955,228.373 477,227.5C 477.122,229.437 477.955,230.77 479.5,231.5C 479.56,232.043 479.893,232.376 480.5,232.5C 484.568,231.366 488.568,230.033 492.5,228.5C 491.674,227.549 491.508,226.549 492,225.5C 493.372,226.91 494.205,228.577 494.5,230.5C 492.082,231.914 490.415,233.914 489.5,236.5C 489.5,235.5 489.5,234.5 489.5,233.5C 483.143,235.006 476.809,236.673 470.5,238.5C 468.162,239.931 466.829,241.597 466.5,243.5C 466.597,239.184 465.263,238.184 462.5,240.5C 462.265,239.903 461.765,239.57 461,239.5C 451.795,241.532 444.628,246.532 439.5,254.5C 438.527,252.052 438.194,249.385 438.5,246.5C 438.833,246.5 439.167,246.5 439.5,246.5C 439.5,245.167 439.5,243.833 439.5,242.5C 442.789,241.626 446.123,240.959 449.5,240.5C 449.635,238.446 448.968,236.779 447.5,235.5C 445.128,234.086 442.961,234.42 441,236.5C 440.506,234.866 440.34,233.199 440.5,231.5C 442.806,231.007 445.139,230.674 447.5,230.5C 448.496,230.586 449.329,230.252 450,229.5C 450.498,226.518 450.665,223.518 450.5,220.5 Z"/></g>
<g><path style="opacity:1" fill="#977042" d="M 456.5,233.5 C 455.833,234.167 455.167,234.833 454.5,235.5C 454.281,234.325 454.614,233.325 455.5,232.5C 456.107,232.624 456.44,232.957 456.5,233.5 Z"/></g>
<g><path style="opacity:1" fill="#f1ede9" d="M 453.5,236.5 C 454.167,236.5 454.5,236.167 454.5,235.5C 455.167,234.833 455.833,234.167 456.5,233.5C 457.791,233.737 458.791,233.404 459.5,232.5C 460.117,232.389 460.617,232.056 461,231.5C 461.494,233.134 461.66,234.801 461.5,236.5C 458.502,237.342 455.502,237.842 452.5,238C 453.056,237.617 453.389,237.117 453.5,236.5 Z"/></g>
<g><path style="opacity:1" fill="#f2c33b" d="M 459.5,232.5 C 458.791,233.404 457.791,233.737 456.5,233.5C 456.44,232.957 456.107,232.624 455.5,232.5C 454.614,233.325 454.281,234.325 454.5,235.5C 454.5,236.167 454.167,236.5 453.5,236.5C 451.5,236.167 449.5,235.833 447.5,235.5C 447.389,234.883 447.056,234.383 446.5,234C 451.097,232.358 455.597,230.524 460,228.5C 460.195,229.819 460.028,231.153 459.5,232.5 Z"/></g>
<g><path style="opacity:1" fill="#e1dbd3" d="M 466.5,243.5 C 466.5,246.167 466.5,248.833 466.5,251.5C 465.732,250.737 465.232,249.737 465,248.5C 463.008,249.665 461.175,250.998 459.5,252.5C 459.5,251.167 459.5,249.833 459.5,248.5C 459.415,245.351 460.415,242.684 462.5,240.5C 465.263,238.184 466.597,239.184 466.5,243.5 Z"/></g>
<g><path style="opacity:1" fill="#a38777" d="M 517.5,237.5 C 517.5,241.167 517.5,244.833 517.5,248.5C 517.5,249.167 517.167,249.5 516.5,249.5C 516.81,246.287 516.477,243.287 515.5,240.5C 515.427,238.973 516.094,237.973 517.5,237.5 Z"/></g>
<g><path style="opacity:1" fill="#facb3d" d="M 462.5,240.5 C 460.415,242.684 459.415,245.351 459.5,248.5C 459.11,251.797 458.11,254.797 456.5,257.5C 455.391,257.443 454.391,257.11 453.5,256.5C 451.833,255.167 450.167,255.167 448.5,256.5C 445.856,257.144 444.189,258.811 443.5,261.5C 442.833,261.5 442.167,261.5 441.5,261.5C 440.833,259.167 440.167,256.833 439.5,254.5C 444.628,246.532 451.795,241.532 461,239.5C 461.765,239.57 462.265,239.903 462.5,240.5 Z"/></g>
<g><path style="opacity:1" fill="#ece8e4" d="M 515.5,240.5 C 516.477,243.287 516.81,246.287 516.5,249.5C 516.027,250.906 515.027,251.573 513.5,251.5C 513.5,249.167 513.5,246.833 513.5,244.5C 513.66,242.847 514.326,241.514 515.5,240.5 Z"/></g>
<g><path style="opacity:1" fill="#1272c0" d="M 536.5,267.5 C 536.167,267.5 535.833,267.5 535.5,267.5C 527.908,266.291 521.908,268.957 517.5,275.5C 516.167,275.833 514.833,276.167 513.5,276.5C 513.313,274.436 512.813,272.436 512,270.5C 511.085,271.328 510.419,272.328 510,273.5C 509.833,273 509.667,272.5 509.5,272C 510.414,270.594 511.08,269.094 511.5,267.5C 513.027,267.573 514.027,266.906 514.5,265.5C 515.88,265.038 516.547,264.038 516.5,262.5C 515.604,260.664 514.604,258.997 513.5,257.5C 513.5,255.5 513.5,253.5 513.5,251.5C 515.027,251.573 516.027,250.906 516.5,249.5C 517.167,249.5 517.5,249.167 517.5,248.5C 520.095,247.407 522.262,245.74 524,243.5C 529.397,239.739 534.897,239.572 540.5,243C 544.167,246 547.833,249 551.5,252C 553.025,253.009 554.692,253.509 556.5,253.5C 555.882,261.557 553.882,269.224 550.5,276.5C 546.335,272.659 541.668,269.659 536.5,267.5 Z"/></g>
<g><path style="opacity:1" fill="#f7c83c" d="M 517.5,237.5 C 516.094,237.973 515.427,238.973 515.5,240.5C 514.326,241.514 513.66,242.847 513.5,244.5C 512.676,248.312 512.176,252.312 512,256.5C 511.581,255.328 510.915,254.328 510,253.5C 509.383,254.449 509.549,255.282 510.5,256C 509.906,256.464 509.239,256.631 508.5,256.5C 506.598,254.849 504.598,254.516 502.5,255.5C 499.572,256.591 497.406,258.591 496,261.5C 494.731,259.007 493.898,256.34 493.5,253.5C 493.253,250.061 493.586,246.728 494.5,243.5C 501.603,241.694 508.936,239.36 516.5,236.5C 517.107,236.624 517.44,236.957 517.5,237.5 Z"/></g>
<g><path style="opacity:1" fill="#1171bf" d="M 432.5,243.5 C 426.369,250.131 420.036,256.631 413.5,263C 414.167,263.667 414.833,263.667 415.5,263C 421.702,256.631 428.035,250.464 434.5,244.5C 435.605,245.6 436.938,246.267 438.5,246.5C 438.194,249.385 438.527,252.052 439.5,254.5C 440.167,256.833 440.833,259.167 441.5,261.5C 441.279,262.735 440.612,263.735 439.5,264.5C 439.624,265.107 439.957,265.44 440.5,265.5C 440.815,270.041 442.649,271.041 446,268.5C 446.383,269.056 446.883,269.389 447.5,269.5C 447.842,270.338 448.508,270.672 449.5,270.5C 449.5,271.5 449.5,272.5 449.5,273.5C 448.768,274.808 447.934,276.142 447,277.5C 445.935,271.81 444.769,271.476 443.5,276.5C 439.262,272.772 434.595,269.606 429.5,267C 427.19,266.503 424.857,266.337 422.5,266.5C 421.341,265.544 420.174,264.544 419,263.5C 417.5,264 416,264.5 414.5,265C 415.448,265.483 416.448,265.649 417.5,265.5C 417.5,266.5 417.5,267.5 417.5,268.5C 417.027,269.906 416.027,270.573 414.5,270.5C 412.486,270.608 410.82,269.942 409.5,268.5C 410.6,267.442 411.934,266.608 413.5,266C 413,265.5 412.5,265 412,264.5C 410.255,265.956 408.422,267.289 406.5,268.5C 406.624,269.107 406.957,269.44 407.5,269.5C 409.139,270.473 410.473,271.806 411.5,273.5C 410.171,275.377 408.838,275.544 407.5,274C 405.263,267.648 403.596,261.148 402.5,254.5C 408.307,250.526 413.974,246.36 419.5,242C 424.268,239.688 428.601,240.188 432.5,243.5 Z"/></g>
<g><path style="opacity:1" fill="#a33816" d="M 475.5,243.5 C 478.956,244.536 479.29,246.203 476.5,248.5C 474.296,247.218 473.962,245.551 475.5,243.5 Z"/></g>
<g><path style="opacity:1" fill="#236cb1" d="M 487.5,243.5 C 491.511,245.721 493.511,249.054 493.5,253.5C 493.898,256.34 494.731,259.007 496,261.5C 497.406,258.591 499.572,256.591 502.5,255.5C 503.468,257.607 503.802,259.941 503.5,262.5C 501.901,262.232 500.568,262.566 499.5,263.5C 499.167,263.5 498.833,263.5 498.5,263.5C 496.833,263.5 495.167,263.5 493.5,263.5C 493.303,267.806 495.303,269.806 499.5,269.5C 500.103,271.626 500.103,273.959 499.5,276.5C 498.833,276.5 498.5,276.833 498.5,277.5C 494.112,273.779 489.445,270.445 484.5,267.5C 483.508,267.672 482.842,267.338 482.5,266.5C 485.022,265.989 487.355,264.989 489.5,263.5C 490.791,262.458 490.791,261.292 489.5,260C 486.151,259.612 482.817,259.779 479.5,260.5C 479.5,258.5 479.5,256.5 479.5,254.5C 481.858,254.253 483.858,254.919 485.5,256.5C 485.56,257.043 485.893,257.376 486.5,257.5C 487.788,255.701 487.788,254.035 486.5,252.5C 486.19,249.287 486.523,246.287 487.5,243.5 Z"/></g>
<g><path style="opacity:1" fill="#facb3c" d="M 439.5,246.5 C 441.707,245.261 444.041,244.761 446.5,245C 444.333,247.167 442.167,249.333 440,251.5C 439.506,249.866 439.34,248.199 439.5,246.5 Z"/></g>
<g><path style="opacity:1" fill="#1270bc" d="M 466.5,251.5 C 466.405,254.697 467.072,257.697 468.5,260.5C 468.5,261.167 468.5,261.833 468.5,262.5C 467.662,262.842 467.328,263.508 467.5,264.5C 468.15,266.435 468.483,268.435 468.5,270.5C 465.792,273.209 462.792,275.542 459.5,277.5C 459.108,275.821 458.608,274.154 458,272.5C 456.477,274.569 455.643,276.903 455.5,279.5C 454.5,279.5 453.5,279.5 452.5,279.5C 452.5,276.5 452.5,273.5 452.5,270.5C 454.117,271.589 454.95,273.256 455,275.5C 456.401,272.933 457.568,270.267 458.5,267.5C 459.167,267.5 459.5,267.167 459.5,266.5C 462.349,265.08 463.016,263.08 461.5,260.5C 458.43,260.368 455.43,260.701 452.5,261.5C 452.216,259.585 452.549,257.919 453.5,256.5C 454.391,257.11 455.391,257.443 456.5,257.5C 457.172,258.267 458.005,258.934 459,259.5C 459.497,257.19 459.663,254.857 459.5,252.5C 461.175,250.998 463.008,249.665 465,248.5C 465.232,249.737 465.732,250.737 466.5,251.5 Z"/></g>
<g><path style="opacity:1" fill="#a73116" d="M 480.5,247.5 C 482.346,247.222 483.68,247.889 484.5,249.5C 483.68,251.111 482.346,251.778 480.5,251.5C 480.5,250.167 480.5,248.833 480.5,247.5 Z"/></g>
<g><path style="opacity:1" fill="#9c3916" d="M 474.5,249.5 C 475.833,249.5 477.167,249.5 478.5,249.5C 478.778,251.346 478.111,252.68 476.5,253.5C 474.889,252.68 474.222,251.346 474.5,249.5 Z"/></g>
<g><path style="opacity:1" fill="#a64018" d="M 471.5,249.5 C 472.139,250.097 472.472,250.93 472.5,252C 471.802,256.032 470.469,256.365 468.5,253C 469.071,251.401 470.071,250.234 471.5,249.5 Z"/></g>
<g><path style="opacity:1" fill="#866833" d="M 459.5,248.5 C 459.5,249.833 459.5,251.167 459.5,252.5C 459.663,254.857 459.497,257.19 459,259.5C 458.005,258.934 457.172,258.267 456.5,257.5C 458.11,254.797 459.11,251.797 459.5,248.5 Z"/></g>
<g><path style="opacity:1" fill="#9f7733" d="M 513.5,244.5 C 513.5,246.833 513.5,249.167 513.5,251.5C 513.5,253.5 513.5,255.5 513.5,257.5C 513.5,258.167 513.167,258.5 512.5,258.5C 510.847,258.34 509.514,257.674 508.5,256.5C 509.239,256.631 509.906,256.464 510.5,256C 509.549,255.282 509.383,254.449 510,253.5C 510.915,254.328 511.581,255.328 512,256.5C 512.176,252.312 512.676,248.312 513.5,244.5 Z"/></g>
<g><path style="opacity:1" fill="#2c5b90" d="M 432.5,243.5 C 433.492,243.328 434.158,243.662 434.5,244.5C 428.035,250.464 421.702,256.631 415.5,263C 414.833,263.667 414.167,263.667 413.5,263C 420.036,256.631 426.369,250.131 432.5,243.5 Z"/></g>
<g><path style="opacity:1" fill="#2d6aab" d="M 448.5,256.5 C 449.451,257.919 449.784,259.585 449.5,261.5C 447.5,262.833 445.5,262.833 443.5,261.5C 444.189,258.811 445.856,257.144 448.5,256.5 Z"/></g>
<g><path style="opacity:1" fill="#654b3d" d="M 448.5,256.5 C 450.167,255.167 451.833,255.167 453.5,256.5C 452.549,257.919 452.216,259.585 452.5,261.5C 451.698,260.048 451.198,258.382 451,256.5C 450.802,258.382 450.302,260.048 449.5,261.5C 449.784,259.585 449.451,257.919 448.5,256.5 Z"/></g>
<g><path style="opacity:1" fill="#695637" d="M 486.5,252.5 C 487.788,254.035 487.788,255.701 486.5,257.5C 485.893,257.376 485.56,257.043 485.5,256.5C 486.434,255.432 486.768,254.099 486.5,252.5 Z"/></g>
<g><path style="opacity:1" fill="#906042" d="M 502.5,255.5 C 504.598,254.516 506.598,254.849 508.5,256.5C 506.744,257.552 506.077,259.219 506.5,261.5C 507.5,261.5 508.5,261.5 509.5,261.5C 506.456,263.011 503.122,263.678 499.5,263.5C 500.568,262.566 501.901,262.232 503.5,262.5C 503.802,259.941 503.468,257.607 502.5,255.5 Z"/></g>
<g><path style="opacity:1" fill="#136cb6" d="M 508.5,256.5 C 509.514,257.674 510.847,258.34 512.5,258.5C 512.611,259.117 512.944,259.617 513.5,260C 512.584,260.278 511.918,260.778 511.5,261.5C 510.833,261.5 510.167,261.5 509.5,261.5C 508.5,261.5 507.5,261.5 506.5,261.5C 506.077,259.219 506.744,257.552 508.5,256.5 Z"/></g>
<g><path style="opacity:1" fill="#276aac" d="M 473.5,257.5 C 475.104,258.287 475.771,259.62 475.5,261.5C 473.585,261.784 471.919,261.451 470.5,260.5C 471.167,259.167 472.167,258.167 473.5,257.5 Z"/></g>
<g><path style="opacity:1" fill="#7e4c30" d="M 479.5,254.5 C 479.5,256.5 479.5,258.5 479.5,260.5C 482.817,259.779 486.151,259.612 489.5,260C 490.791,261.292 490.791,262.458 489.5,263.5C 489.083,262.876 488.416,262.543 487.5,262.5C 483.209,263.493 478.876,264.16 474.5,264.5C 474.5,265.833 474.5,267.167 474.5,268.5C 473.833,268.167 473.167,267.833 472.5,267.5C 471.205,268.488 469.872,269.488 468.5,270.5C 468.483,268.435 468.15,266.435 467.5,264.5C 470.914,264.264 474.247,263.598 477.5,262.5C 477.043,261.702 476.376,261.369 475.5,261.5C 475.771,259.62 475.104,258.287 473.5,257.5C 474.687,255.025 476.687,254.025 479.5,254.5 Z"/></g>
<g><path style="opacity:1" fill="#b6734b" d="M 452.5,261.5 C 455.43,260.701 458.43,260.368 461.5,260.5C 461.5,261.5 461.5,262.5 461.5,263.5C 454.579,264.887 447.579,265.553 440.5,265.5C 439.957,265.44 439.624,265.107 439.5,264.5C 440.612,263.735 441.279,262.735 441.5,261.5C 442.167,261.5 442.833,261.5 443.5,261.5C 445.5,262.833 447.5,262.833 449.5,261.5C 450.302,260.048 450.802,258.382 451,256.5C 451.198,258.382 451.698,260.048 452.5,261.5 Z"/></g>
<g><path style="opacity:1" fill="#634c44" d="M 468.5,260.5 C 469.167,260.5 469.833,260.5 470.5,260.5C 471.919,261.451 473.585,261.784 475.5,261.5C 473.393,262.468 471.059,262.802 468.5,262.5C 468.5,261.833 468.5,261.167 468.5,260.5 Z"/></g>
<g><path style="opacity:1" fill="#d08152" d="M 475.5,261.5 C 476.376,261.369 477.043,261.702 477.5,262.5C 474.247,263.598 470.914,264.264 467.5,264.5C 467.328,263.508 467.662,262.842 468.5,262.5C 471.059,262.802 473.393,262.468 475.5,261.5 Z"/></g>
<g><path style="opacity:1" fill="#d68655" d="M 509.5,261.5 C 510.167,261.5 510.833,261.5 511.5,261.5C 512.552,261.351 513.552,261.517 514.5,262C 508.071,264.293 501.405,265.293 494.5,265C 496.058,264.79 497.391,264.29 498.5,263.5C 498.833,263.5 499.167,263.5 499.5,263.5C 503.122,263.678 506.456,263.011 509.5,261.5 Z"/></g>
<g><path style="opacity:1" fill="#764a2c" d="M 513.5,257.5 C 514.604,258.997 515.604,260.664 516.5,262.5C 516.547,264.038 515.88,265.038 514.5,265.5C 511.332,264.556 507.999,264.556 504.5,265.5C 501.66,265.898 498.993,266.731 496.5,268C 497.448,268.483 498.448,268.649 499.5,268.5C 499.5,268.833 499.5,269.167 499.5,269.5C 495.303,269.806 493.303,267.806 493.5,263.5C 495.167,263.5 496.833,263.5 498.5,263.5C 497.391,264.29 496.058,264.79 494.5,265C 501.405,265.293 508.071,264.293 514.5,262C 513.552,261.517 512.552,261.351 511.5,261.5C 511.918,260.778 512.584,260.278 513.5,260C 512.944,259.617 512.611,259.117 512.5,258.5C 513.167,258.5 513.5,258.167 513.5,257.5 Z"/></g>
<g><path style="opacity:1" fill="#5f4d4b" d="M 422.5,266.5 C 422.158,267.338 421.492,267.672 420.5,267.5C 419.732,266.737 419.232,265.737 419,264.5C 418.51,265.793 418.343,267.127 418.5,268.5C 418.167,268.5 417.833,268.5 417.5,268.5C 417.5,267.5 417.5,266.5 417.5,265.5C 416.448,265.649 415.448,265.483 414.5,265C 416,264.5 417.5,264 419,263.5C 420.174,264.544 421.341,265.544 422.5,266.5 Z"/></g>
<g><path style="opacity:1" fill="#ecbd39" d="M 489.5,263.5 C 487.355,264.989 485.022,265.989 482.5,266.5C 480.975,265.611 479.975,266.278 479.5,268.5C 477.833,268.5 476.167,268.5 474.5,268.5C 474.5,267.167 474.5,265.833 474.5,264.5C 478.876,264.16 483.209,263.493 487.5,262.5C 488.416,262.543 489.083,262.876 489.5,263.5 Z"/></g>
<g><path style="opacity:1" fill="#6a4d32" d="M 461.5,260.5 C 463.016,263.08 462.349,265.08 459.5,266.5C 458.5,265.167 457.5,265.167 456.5,266.5C 456.167,266.5 455.833,266.5 455.5,266.5C 453.081,266.195 450.414,266.195 447.5,266.5C 447.5,267.5 447.5,268.5 447.5,269.5C 446.883,269.389 446.383,269.056 446,268.5C 442.649,271.041 440.815,270.041 440.5,265.5C 447.579,265.553 454.579,264.887 461.5,263.5C 461.5,262.5 461.5,261.5 461.5,260.5 Z"/></g>
<g><path style="opacity:1" fill="#f2c43b" d="M 459.5,266.5 C 459.5,267.167 459.167,267.5 458.5,267.5C 457.508,267.672 456.842,267.338 456.5,266.5C 457.5,265.167 458.5,265.167 459.5,266.5 Z"/></g>
<g><path style="opacity:1" fill="#f1c23b" d="M 514.5,265.5 C 514.027,266.906 513.027,267.573 511.5,267.5C 509.244,265.903 507.91,266.569 507.5,269.5C 506.391,269.557 505.391,269.89 504.5,270.5C 504.5,268.833 504.5,267.167 504.5,265.5C 507.999,264.556 511.332,264.556 514.5,265.5 Z"/></g>
<g><path style="opacity:1" fill="#e7ba39" d="M 455.5,266.5 C 454.5,267.5 453.5,268.5 452.5,269.5C 451.609,270.11 450.609,270.443 449.5,270.5C 448.508,270.672 447.842,270.338 447.5,269.5C 447.5,268.5 447.5,267.5 447.5,266.5C 450.414,266.195 453.081,266.195 455.5,266.5 Z"/></g>
<g><path style="opacity:1" fill="#f4c63b" d="M 472.5,267.5 C 471.325,267.719 470.325,267.386 469.5,266.5C 470.723,265.386 472.056,265.219 473.5,266C 472.944,266.383 472.611,266.883 472.5,267.5 Z"/></g>
<g><path style="opacity:1" fill="#ae8129" d="M 504.5,265.5 C 504.5,267.167 504.5,268.833 504.5,270.5C 504.167,270.5 503.833,270.5 503.5,270.5C 502.167,269.833 500.833,269.167 499.5,268.5C 498.448,268.649 497.448,268.483 496.5,268C 498.993,266.731 501.66,265.898 504.5,265.5 Z"/></g>
<g><path style="opacity:1" fill="#f4f5f7" d="M 535.5,267.5 C 536.171,268.847 536.171,270.014 535.5,271C 529.461,272.44 523.461,273.94 517.5,275.5C 521.908,268.957 527.908,266.291 535.5,267.5 Z"/></g>
<g><path style="opacity:1" fill="#3d414f" d="M 409.5,268.5 C 408.508,268.328 407.842,268.662 407.5,269.5C 406.957,269.44 406.624,269.107 406.5,268.5C 408.422,267.289 410.255,265.956 412,264.5C 412.5,265 413,265.5 413.5,266C 411.934,266.608 410.6,267.442 409.5,268.5 Z"/></g>
<g><path style="opacity:1" fill="#f1f0ef" d="M 422.5,266.5 C 424.857,266.337 427.19,266.503 429.5,267C 434.595,269.606 439.262,272.772 443.5,276.5C 444.694,277.272 445.694,278.272 446.5,279.5C 446.125,281.698 445.458,283.698 444.5,285.5C 442.287,284.227 439.954,283.227 437.5,282.5C 432.381,280.949 427.381,278.782 422.5,276C 421.167,274 421.167,272 422.5,270C 421.244,269.583 420.577,268.75 420.5,267.5C 421.492,267.672 422.158,267.338 422.5,266.5 Z"/></g>
<g><path style="opacity:1" fill="#a58c7e" d="M 482.5,266.5 C 482.842,267.338 483.508,267.672 484.5,267.5C 484.559,271.736 485.559,275.736 487.5,279.5C 486.502,282.028 485.669,282.028 485,279.5C 483.56,280.93 483.226,282.597 484,284.5C 484.667,281.833 485.333,281.833 486,284.5C 486.906,281.879 487.406,282.046 487.5,285C 487.406,287.954 486.906,288.121 486,285.5C 484.989,286.337 483.822,286.67 482.5,286.5C 482.909,282.152 483.076,277.819 483,273.5C 482.667,274.833 482.333,276.167 482,277.5C 481.667,274.833 481.333,272.167 481,269.5C 480.617,268.944 480.117,268.611 479.5,268.5C 479.975,266.278 480.975,265.611 482.5,266.5 Z"/></g>
<g><path style="opacity:1" fill="#f3f1f1" d="M 484.5,267.5 C 489.445,270.445 494.112,273.779 498.5,277.5C 497.788,282.349 496.454,287.016 494.5,291.5C 492.747,288.995 491.247,286.329 490,283.5C 489.346,282.304 488.846,282.304 488.5,283.5C 490.808,287.777 492.808,292.11 494.5,296.5C 490.232,295.668 488.066,293.002 488,288.5C 487.047,290.592 485.714,290.925 484,289.5C 483.506,291.134 483.34,292.801 483.5,294.5C 482.292,293.766 480.959,293.433 479.5,293.5C 479.338,291.473 479.505,289.473 480,287.5C 482.033,288.016 482.033,287.35 480,285.5C 479.501,279.843 479.334,274.176 479.5,268.5C 480.117,268.611 480.617,268.944 481,269.5C 481.333,272.167 481.667,274.833 482,277.5C 482.333,276.167 482.667,274.833 483,273.5C 483.076,277.819 482.909,282.152 482.5,286.5C 483.822,286.67 484.989,286.337 486,285.5C 486.906,288.121 487.406,287.954 487.5,285C 487.406,282.046 486.906,281.879 486,284.5C 485.333,281.833 484.667,281.833 484,284.5C 483.226,282.597 483.56,280.93 485,279.5C 485.669,282.028 486.502,282.028 487.5,279.5C 485.559,275.736 484.559,271.736 484.5,267.5 Z"/></g>
<g><path style="opacity:1" fill="#36485f" d="M 511.5,267.5 C 511.08,269.094 510.414,270.594 509.5,272C 509.667,272.5 509.833,273 510,273.5C 510.419,272.328 511.085,271.328 512,270.5C 512.813,272.436 513.313,274.436 513.5,276.5C 511.57,276.771 510.236,277.771 509.5,279.5C 509.247,275.96 508.581,272.627 507.5,269.5C 507.91,266.569 509.244,265.903 511.5,267.5 Z"/></g>
<g><path style="opacity:1" fill="#0071c2" d="M 507.5,269.5 C 508.581,272.627 509.247,275.96 509.5,279.5C 508.5,279.5 507.5,279.5 506.5,279.5C 506.253,276.061 506.586,272.728 507.5,269.5 Z"/></g>
<g><path style="opacity:1" fill="#374a61" d="M 455.5,266.5 C 455.833,266.5 456.167,266.5 456.5,266.5C 456.842,267.338 457.508,267.672 458.5,267.5C 457.568,270.267 456.401,272.933 455,275.5C 454.95,273.256 454.117,271.589 452.5,270.5C 452.5,270.167 452.5,269.833 452.5,269.5C 453.5,268.5 454.5,267.5 455.5,266.5 Z"/></g>
<g><path style="opacity:1" fill="#f5f3f2" d="M 472.5,267.5 C 473.167,267.833 473.833,268.167 474.5,268.5C 473.537,272.101 472.87,275.767 472.5,279.5C 473.5,279.5 474.5,279.5 475.5,279.5C 475.543,283.893 475.043,284.226 474,280.5C 473.333,283.167 472.667,283.167 472,280.5C 471.605,282.179 471.772,283.845 472.5,285.5C 472.333,286.167 472.167,286.833 472,287.5C 471.667,286.5 471.333,285.5 471,284.5C 469.921,287.063 469.421,289.729 469.5,292.5C 468.542,294.302 467.875,296.302 467.5,298.5C 467.5,299.167 467.167,299.5 466.5,299.5C 465.414,299.38 464.747,298.713 464.5,297.5C 463.667,294.167 462.833,290.833 462,287.5C 461.768,288.737 461.268,289.737 460.5,290.5C 459.391,290.443 458.391,290.11 457.5,289.5C 457.413,286.402 457.913,286.068 459,288.5C 461.901,285.373 462.067,282.04 459.5,278.5C 459.5,278.167 459.5,277.833 459.5,277.5C 462.792,275.542 465.792,273.209 468.5,270.5C 469.872,269.488 471.205,268.488 472.5,267.5 Z"/></g>
<g><path style="opacity:1" fill="#2f4861" d="M 459.5,277.5 C 459.5,277.833 459.5,278.167 459.5,278.5C 458.041,278.433 456.708,278.766 455.5,279.5C 455.643,276.903 456.477,274.569 458,272.5C 458.608,274.154 459.108,275.821 459.5,277.5 Z"/></g>
<g><path style="opacity:1" fill="#92634a" d="M 474.5,268.5 C 476.167,268.5 477.833,268.5 479.5,268.5C 479.334,274.176 479.501,279.843 480,285.5C 482.033,287.35 482.033,288.016 480,287.5C 479.505,289.473 479.338,291.473 479.5,293.5C 478.833,293.5 478.5,293.833 478.5,294.5C 477.883,294.389 477.383,294.056 477,293.5C 476.833,295.5 476.667,297.5 476.5,299.5C 476.539,301.952 477.206,303.952 478.5,305.5C 478.5,305.833 478.5,306.167 478.5,306.5C 476.5,306.5 474.5,306.5 472.5,306.5C 472.5,307.5 472.5,308.5 472.5,309.5C 471.5,309.5 470.5,309.5 469.5,309.5C 469.5,310.833 469.5,312.167 469.5,313.5C 468.234,311.306 468.234,308.972 469.5,306.5C 468.675,305.614 467.675,305.281 466.5,305.5C 466.657,306.873 466.49,308.207 466,309.5C 465.505,307.527 465.338,305.527 465.5,303.5C 468.694,304.758 472.027,305.424 475.5,305.5C 475.5,301.833 475.5,298.167 475.5,294.5C 476.575,290.062 474.908,288.062 470.5,288.5C 470.768,290.099 470.434,291.432 469.5,292.5C 469.421,289.729 469.921,287.063 471,284.5C 471.333,285.5 471.667,286.5 472,287.5C 472.167,286.833 472.333,286.167 472.5,285.5C 471.772,283.845 471.605,282.179 472,280.5C 472.667,283.167 473.333,283.167 474,280.5C 475.043,284.226 475.543,283.893 475.5,279.5C 474.5,279.5 473.5,279.5 472.5,279.5C 472.87,275.767 473.537,272.101 474.5,268.5 Z"/></g>
<g><path style="opacity:1" fill="#d78756" d="M 477.5,270.5 C 478.645,274.311 478.812,278.311 478,282.5C 476.977,281.4 476.477,280.067 476.5,278.5C 477.095,275.86 477.428,273.193 477.5,270.5 Z"/></g>
<g><path style="opacity:1" fill="#334b68" d="M 499.5,269.5 C 499.5,269.167 499.5,268.833 499.5,268.5C 500.833,269.167 502.167,269.833 503.5,270.5C 503.5,273.5 503.5,276.5 503.5,279.5C 503.167,279.5 502.833,279.5 502.5,279.5C 500.5,279.5 499.5,278.5 499.5,276.5C 500.103,273.959 500.103,271.626 499.5,269.5 Z"/></g>
<g><path style="opacity:1" fill="#2e4f6f" d="M 449.5,273.5 C 449.795,275.735 449.461,277.735 448.5,279.5C 447.833,279.5 447.167,279.5 446.5,279.5C 445.694,278.272 444.694,277.272 443.5,276.5C 444.769,271.476 445.935,271.81 447,277.5C 447.934,276.142 448.768,274.808 449.5,273.5 Z"/></g>
<g><path style="opacity:1" fill="#a28679" d="M 446.5,279.5 C 447.167,279.5 447.833,279.5 448.5,279.5C 448.354,281.78 448.687,284.113 449.5,286.5C 448.5,286.5 447.5,286.5 446.5,286.5C 445.508,286.672 444.842,286.338 444.5,285.5C 445.458,283.698 446.125,281.698 446.5,279.5 Z"/></g>
<g><path style="opacity:1" fill="#ebe7e6" d="M 452.5,279.5 C 453.5,279.5 454.5,279.5 455.5,279.5C 455.753,283.04 456.419,286.373 457.5,289.5C 457.67,290.822 457.337,291.989 456.5,293C 458.085,295.069 459.419,297.236 460.5,299.5C 459.833,299.167 459.167,298.833 458.5,298.5C 456.833,296.5 455.167,294.5 453.5,292.5C 452.627,288.232 452.294,283.898 452.5,279.5 Z"/></g>
<g><path style="opacity:1" fill="#f3f4f5" d="M 506.5,279.5 C 507.5,279.5 508.5,279.5 509.5,279.5C 510.219,281.764 510.552,284.097 510.5,286.5C 508.448,287.053 508.115,288.053 509.5,289.5C 509.167,290.167 508.833,290.833 508.5,291.5C 507.307,291.03 506.64,290.03 506.5,288.5C 507.089,285.641 507.089,282.641 506.5,279.5 Z"/></g>
<g><path style="opacity:1" fill="#8c4e2c" d="M 537.5,277.5 C 537.616,280.86 537.949,284.193 538.5,287.5C 528.442,286.86 518.775,287.527 509.5,289.5C 508.115,288.053 508.448,287.053 510.5,286.5C 514.833,286.5 519.167,286.5 523.5,286.5C 523.5,284.167 523.5,281.833 523.5,279.5C 524.552,279.351 525.552,279.517 526.5,280C 524.44,281.493 524.107,283.326 525.5,285.5C 526.167,284.5 526.833,283.5 527.5,282.5C 528.167,283.833 528.833,285.167 529.5,286.5C 530.971,283.679 530.637,281.179 528.5,279C 529.448,278.517 530.448,278.351 531.5,278.5C 531.336,281.187 531.503,283.854 532,286.5C 532.498,283.518 532.665,280.518 532.5,277.5C 534.167,277.5 535.833,277.5 537.5,277.5 Z"/></g>
<g><path style="opacity:1" fill="#d98856" d="M 533.5,278.5 C 534.5,278.5 535.5,278.5 536.5,278.5C 536.5,280.833 536.5,283.167 536.5,285.5C 535.5,285.5 534.5,285.5 533.5,285.5C 533.5,283.167 533.5,280.833 533.5,278.5 Z"/></g>
<g><path style="opacity:1" fill="#ada49f" d="M 434.5,289.5 C 433.22,290.931 431.553,291.598 429.5,291.5C 429.5,289.833 429.5,288.167 429.5,286.5C 427.435,286.517 425.435,286.85 423.5,287.5C 423.5,287.167 423.5,286.833 423.5,286.5C 425.306,285.976 426.972,285.309 428.5,284.5C 428.586,283.504 428.252,282.671 427.5,282C 433.918,280.393 436.251,282.893 434.5,289.5 Z"/></g>
<g><path style="opacity:1" fill="#aa6d4a" d="M 420.5,267.5 C 420.577,268.75 421.244,269.583 422.5,270C 421.167,272 421.167,274 422.5,276C 427.381,278.782 432.381,280.949 437.5,282.5C 435.155,284.357 434.822,286.69 436.5,289.5C 435.833,289.5 435.167,289.5 434.5,289.5C 436.251,282.893 433.918,280.393 427.5,282C 428.252,282.671 428.586,283.504 428.5,284.5C 427.259,282.491 425.592,280.825 423.5,279.5C 423.162,281.655 423.162,283.989 423.5,286.5C 423.5,286.833 423.5,287.167 423.5,287.5C 420.485,286.631 419.485,284.798 420.5,282C 419.618,276.952 416.618,274.119 411.5,273.5C 410.473,271.806 409.139,270.473 407.5,269.5C 407.842,268.662 408.508,268.328 409.5,268.5C 410.82,269.942 412.486,270.608 414.5,270.5C 415.287,272.104 416.62,272.771 418.5,272.5C 418.5,271.167 418.5,269.833 418.5,268.5C 418.343,267.127 418.51,265.793 419,264.5C 419.232,265.737 419.732,266.737 420.5,267.5 Z"/></g>
<g><path style="opacity:1" fill="#f6f4f2" d="M 428.5,284.5 C 426.972,285.309 425.306,285.976 423.5,286.5C 423.162,283.989 423.162,281.655 423.5,279.5C 425.592,280.825 427.259,282.491 428.5,284.5 Z"/></g>
<g><path style="opacity:1" fill="#eff0f1" d="M 417.5,268.5 C 417.833,268.5 418.167,268.5 418.5,268.5C 418.5,269.833 418.5,271.167 418.5,272.5C 416.62,272.771 415.287,272.104 414.5,270.5C 416.027,270.573 417.027,269.906 417.5,268.5 Z"/></g>
<g><path style="opacity:1" fill="#b5a096" d="M 459.5,278.5 C 462.067,282.04 461.901,285.373 459,288.5C 457.913,286.068 457.413,286.402 457.5,289.5C 456.419,286.373 455.753,283.04 455.5,279.5C 456.708,278.766 458.041,278.433 459.5,278.5 Z"/></g>
<g><path style="opacity:1" fill="#db8958" d="M 476.5,283.5 C 477.117,283.611 477.617,283.944 478,284.5C 478.667,287.167 478.667,289.833 478,292.5C 476.608,289.722 476.108,286.722 476.5,283.5 Z"/></g>
<g><path style="opacity:1" fill="#9a6446" d="M 507.5,269.5 C 506.586,272.728 506.253,276.061 506.5,279.5C 507.089,282.641 507.089,285.641 506.5,288.5C 506.64,290.03 507.307,291.03 508.5,291.5C 506.833,295.167 504.167,297.833 500.5,299.5C 500.5,299.167 500.5,298.833 500.5,298.5C 501.458,298.047 502.292,297.381 503,296.5C 503.736,293.408 503.569,290.408 502.5,287.5C 503.473,285.052 503.806,282.385 503.5,279.5C 503.5,276.5 503.5,273.5 503.5,270.5C 503.833,270.5 504.167,270.5 504.5,270.5C 505.391,269.89 506.391,269.557 507.5,269.5 Z"/></g>
<g><path style="opacity:1" fill="#b46f46" d="M 535.5,267.5 C 535.833,267.5 536.167,267.5 536.5,267.5C 537.048,269.532 538.381,270.532 540.5,270.5C 540.818,273.481 539.818,275.815 537.5,277.5C 535.833,277.5 534.167,277.5 532.5,277.5C 532.665,280.518 532.498,283.518 532,286.5C 531.503,283.854 531.336,281.187 531.5,278.5C 530.448,278.351 529.448,278.517 528.5,279C 530.637,281.179 530.971,283.679 529.5,286.5C 528.833,285.167 528.167,283.833 527.5,282.5C 526.833,283.5 526.167,284.5 525.5,285.5C 524.107,283.326 524.44,281.493 526.5,280C 525.552,279.517 524.552,279.351 523.5,279.5C 523.5,281.833 523.5,284.167 523.5,286.5C 519.167,286.5 514.833,286.5 510.5,286.5C 510.552,284.097 510.219,281.764 509.5,279.5C 510.236,277.771 511.57,276.771 513.5,276.5C 514.833,276.167 516.167,275.833 517.5,275.5C 523.461,273.94 529.461,272.44 535.5,271C 536.171,270.014 536.171,268.847 535.5,267.5 Z"/></g>
<g><path style="opacity:1" fill="#e2dad6" d="M 502.5,279.5 C 502.833,279.5 503.167,279.5 503.5,279.5C 503.806,282.385 503.473,285.052 502.5,287.5C 502.047,286.542 501.381,285.708 500.5,285C 502.192,283.599 502.859,281.766 502.5,279.5 Z"/></g>
<g><path style="opacity:1" fill="#915e42" d="M 452.5,269.5 C 452.5,269.833 452.5,270.167 452.5,270.5C 452.5,273.5 452.5,276.5 452.5,279.5C 452.294,283.898 452.627,288.232 453.5,292.5C 451.186,290.523 448.853,288.523 446.5,286.5C 447.5,286.5 448.5,286.5 449.5,286.5C 448.687,284.113 448.354,281.78 448.5,279.5C 449.461,277.735 449.795,275.735 449.5,273.5C 449.5,272.5 449.5,271.5 449.5,270.5C 450.609,270.443 451.609,270.11 452.5,269.5 Z"/></g>
<g><path style="opacity:1" fill="#86553a" d="M 538.5,287.5 C 539.404,288.209 539.737,289.209 539.5,290.5C 534.737,290.226 530.07,290.559 525.5,291.5C 524.791,290.596 523.791,290.263 522.5,290.5C 520.041,290.31 518.374,291.31 517.5,293.5C 517.5,292.5 517.5,291.5 517.5,290.5C 522.834,289.984 529.834,288.984 538.5,287.5 Z"/></g>
<g><path style="opacity:1" fill="#c0b1aa" d="M 466.5,299.5 C 466.167,300.167 465.833,300.833 465.5,301.5C 463.926,301.063 462.759,300.063 462,298.5C 463.012,295.659 461.845,294.326 458.5,294.5C 459.167,293.167 459.833,291.833 460.5,290.5C 461.268,289.737 461.768,288.737 462,287.5C 462.833,290.833 463.667,294.167 464.5,297.5C 464.747,298.713 465.414,299.38 466.5,299.5 Z"/></g>
<g><path style="opacity:1" fill="#ede7e5" d="M 502.5,287.5 C 503.569,290.408 503.736,293.408 503,296.5C 502.292,297.381 501.458,298.047 500.5,298.5C 500.659,295.813 499.825,293.48 498,291.5C 497.751,292.624 497.251,293.624 496.5,294.5C 496.167,294.167 495.833,293.833 495.5,293.5C 496.37,291.474 497.87,290.141 500,289.5C 500.333,290.167 500.667,290.833 501,291.5C 501.21,289.942 501.71,288.609 502.5,287.5 Z"/></g>
<g><path style="opacity:1" fill="#ca7d4f" d="M 538.5,287.5 C 529.834,288.984 522.834,289.984 517.5,290.5C 517.5,291.5 517.5,292.5 517.5,293.5C 511.027,309.761 498.86,318.094 481,318.5C 471.338,318.281 462.838,315.115 455.5,309C 456.056,308.617 456.389,308.117 456.5,307.5C 460.57,309.26 461.903,308.094 460.5,304C 459.552,303.517 458.552,303.351 457.5,303.5C 458.301,301.958 458.634,300.292 458.5,298.5C 459.167,298.833 459.833,299.167 460.5,299.5C 461.129,301.997 462.796,303.33 465.5,303.5C 465.338,305.527 465.505,307.527 466,309.5C 466.49,308.207 466.657,306.873 466.5,305.5C 467.675,305.281 468.675,305.614 469.5,306.5C 468.234,308.972 468.234,311.306 469.5,313.5C 470.5,313.5 471.5,313.5 472.5,313.5C 472.5,312.167 472.5,310.833 472.5,309.5C 472.5,308.5 472.5,307.5 472.5,306.5C 474.5,306.5 476.5,306.5 478.5,306.5C 484.331,306.709 489.664,305.376 494.5,302.5C 495.391,301.89 496.391,301.557 497.5,301.5C 499.027,301.573 500.027,300.906 500.5,299.5C 504.167,297.833 506.833,295.167 508.5,291.5C 508.833,290.833 509.167,290.167 509.5,289.5C 518.775,287.527 528.442,286.86 538.5,287.5 Z"/></g>
<g><path style="opacity:1" fill="#d88756" d="M 437.5,282.5 C 439.954,283.227 442.287,284.227 444.5,285.5C 444.842,286.338 445.508,286.672 446.5,286.5C 448.853,288.523 451.186,290.523 453.5,292.5C 455.167,294.5 456.833,296.5 458.5,298.5C 458.634,300.292 458.301,301.958 457.5,303.5C 456.566,304.568 456.232,305.901 456.5,307.5C 456.389,308.117 456.056,308.617 455.5,309C 462.838,315.115 471.338,318.281 481,318.5C 498.86,318.094 511.027,309.761 517.5,293.5C 518.374,291.31 520.041,290.31 522.5,290.5C 517.355,304.283 508.355,314.783 495.5,322C 481.63,325.4 468.63,323.4 456.5,316C 450.666,311.838 448,306.338 448.5,299.5C 447.627,297.587 446.627,295.753 445.5,294C 446.738,294.077 447.738,293.911 448.5,293.5C 445.479,291.577 442.146,290.577 438.5,290.5C 437.508,290.672 436.842,290.338 436.5,289.5C 434.822,286.69 435.155,284.357 437.5,282.5 Z"/></g>
<g><path style="opacity:1" fill="#bcaaa1" d="M 494.5,296.5 C 495.284,298.029 496.284,299.696 497.5,301.5C 496.391,301.557 495.391,301.89 494.5,302.5C 491.399,299.067 487.732,296.4 483.5,294.5C 483.34,292.801 483.506,291.134 484,289.5C 485.714,290.925 487.047,290.592 488,288.5C 488.066,293.002 490.232,295.668 494.5,296.5 Z"/></g>
<g><path style="opacity:1" fill="#b8734a" d="M 438.5,290.5 C 442.146,290.577 445.479,291.577 448.5,293.5C 447.738,293.911 446.738,294.077 445.5,294C 446.627,295.753 447.627,297.587 448.5,299.5C 448,306.338 450.666,311.838 456.5,316C 468.63,323.4 481.63,325.4 495.5,322C 508.355,314.783 517.355,304.283 522.5,290.5C 523.791,290.263 524.791,290.596 525.5,291.5C 525.371,293.216 525.038,294.883 524.5,296.5C 520.295,304.367 514.962,311.533 508.5,318C 503.644,321.116 498.644,323.949 493.5,326.5C 483.833,329.167 474.167,329.167 464.5,326.5C 454.352,321.686 447.352,314.02 443.5,303.5C 442.202,298.949 440.535,294.616 438.5,290.5 Z"/></g>
<g><path style="opacity:1" fill="#c5b7b0" d="M 475.5,294.5 C 472.55,295.308 469.883,296.642 467.5,298.5C 467.875,296.302 468.542,294.302 469.5,292.5C 470.434,291.432 470.768,290.099 470.5,288.5C 474.908,288.062 476.575,290.062 475.5,294.5 Z"/></g>
<g><path style="opacity:1" fill="#dc8b58" d="M 478.5,294.5 C 478.5,298.167 478.5,301.833 478.5,305.5C 477.206,303.952 476.539,301.952 476.5,299.5C 476.667,297.5 476.833,295.5 477,293.5C 477.383,294.056 477.883,294.389 478.5,294.5 Z"/></g>
<g><path style="opacity:1" fill="#a18678" d="M 499.5,276.5 C 499.5,278.5 500.5,279.5 502.5,279.5C 502.859,281.766 502.192,283.599 500.5,285C 501.381,285.708 502.047,286.542 502.5,287.5C 501.71,288.609 501.21,289.942 501,291.5C 500.667,290.833 500.333,290.167 500,289.5C 497.87,290.141 496.37,291.474 495.5,293.5C 495.833,293.833 496.167,294.167 496.5,294.5C 497.251,293.624 497.751,292.624 498,291.5C 499.825,293.48 500.659,295.813 500.5,298.5C 500.5,298.833 500.5,299.167 500.5,299.5C 500.027,300.906 499.027,301.573 497.5,301.5C 496.284,299.696 495.284,298.029 494.5,296.5C 492.808,292.11 490.808,287.777 488.5,283.5C 488.846,282.304 489.346,282.304 490,283.5C 491.247,286.329 492.747,288.995 494.5,291.5C 496.454,287.016 497.788,282.349 498.5,277.5C 498.5,276.833 498.833,276.5 499.5,276.5 Z"/></g>
<g><path style="opacity:1" fill="#0d73c3" d="M 443.5,303.5 C 447.352,314.02 454.352,321.686 464.5,326.5C 459.926,331.413 454.259,333.246 447.5,332C 442.212,328.768 437.378,324.935 433,320.5C 426.885,313.104 421.385,305.271 416.5,297C 419.959,293.886 423.959,292.886 428.5,294C 434.183,296.201 439.183,299.368 443.5,303.5 Z"/></g>
<g><path style="opacity:1" fill="#1172c2" d="M 493.5,326.5 C 498.644,323.949 503.644,321.116 508.5,318C 514.962,311.533 520.295,304.367 524.5,296.5C 528.781,293.153 533.448,292.653 538.5,295C 540.18,295.347 541.18,296.347 541.5,298C 534.674,313.017 524.007,324.35 509.5,332C 503.038,333.262 497.705,331.428 493.5,326.5 Z"/></g>
<g><path style="opacity:1" fill="#886757" d="M 457.5,289.5 C 458.391,290.11 459.391,290.443 460.5,290.5C 459.833,291.833 459.167,293.167 458.5,294.5C 461.845,294.326 463.012,295.659 462,298.5C 462.759,300.063 463.926,301.063 465.5,301.5C 465.5,302.167 465.5,302.833 465.5,303.5C 462.796,303.33 461.129,301.997 460.5,299.5C 459.419,297.236 458.085,295.069 456.5,293C 457.337,291.989 457.67,290.822 457.5,289.5 Z"/></g>
<g><path style="opacity:1" fill="#0d71c0" d="M 479.5,293.5 C 480.959,293.433 482.292,293.766 483.5,294.5C 483.423,295.75 482.756,296.583 481.5,297C 484.037,299.195 485.037,302.028 484.5,305.5C 482.833,305.5 481.167,305.5 479.5,305.5C 479.5,301.5 479.5,297.5 479.5,293.5 Z"/></g>
<g><path style="opacity:1" fill="#1d0f05" d="M 507.5,298.5 C 508.5,298.5 509.5,298.5 510.5,298.5C 510.5,299.833 510.5,301.167 510.5,302.5C 509.5,302.5 508.5,302.5 507.5,302.5C 507.5,301.167 507.5,299.833 507.5,298.5 Z"/></g>
<g><path style="opacity:1" fill="#265a8b" d="M 475.5,294.5 C 475.5,298.167 475.5,301.833 475.5,305.5C 472.027,305.424 468.694,304.758 465.5,303.5C 465.5,302.833 465.5,302.167 465.5,301.5C 465.833,300.833 466.167,300.167 466.5,299.5C 467.167,299.5 467.5,299.167 467.5,298.5C 469.883,296.642 472.55,295.308 475.5,294.5 Z"/></g>
<g><path style="opacity:1" fill="#211207" d="M 457.5,303.5 C 458.552,303.351 459.552,303.517 460.5,304C 461.903,308.094 460.57,309.26 456.5,307.5C 456.232,305.901 456.566,304.568 457.5,303.5 Z"/></g>
<g><path style="opacity:1" fill="#f1f1f4" d="M 543.5,303.5 C 549.07,302.416 553.57,304.083 557,308.5C 563.074,321.659 570.408,333.993 579,345.5C 579.826,350.589 579.492,355.589 578,360.5C 574.86,367.586 571.526,374.586 568,381.5C 564.471,389.846 558.304,392.679 549.5,390C 543.337,387.086 537.337,383.919 531.5,380.5C 497.153,393.815 462.82,393.815 428.5,380.5C 423.33,383.586 417.997,386.419 412.5,389C 405.023,392.258 398.856,390.758 394,384.5C 389.394,375.622 385.061,366.622 381,357.5C 379.932,352.232 380.599,347.232 383,342.5C 383.816,341.177 384.983,340.511 386.5,340.5C 385.4,341.605 384.733,342.938 384.5,344.5C 381.749,348.689 382.083,352.689 385.5,356.5C 388.196,366.392 392.862,375.225 399.5,383C 402.899,383.546 406.232,383.213 409.5,382C 414.761,379.79 419.594,376.957 424,373.5C 459.934,390.23 496.1,390.73 532.5,375C 534.545,374.51 536.545,374.677 538.5,375.5C 538.973,376.906 539.973,377.573 541.5,377.5C 546.235,382.022 551.902,383.856 558.5,383C 559.056,382.617 559.389,382.117 559.5,381.5C 561.822,380.198 563.155,378.198 563.5,375.5C 565.81,372.898 567.643,369.898 569,366.5C 571.13,361.913 572.963,357.247 574.5,352.5C 576.501,346.155 574.334,341.488 568,338.5C 563.493,331.445 559.659,324.112 556.5,316.5C 556.34,314.847 555.674,313.514 554.5,312.5C 554.155,309.802 552.822,307.802 550.5,306.5C 548.052,305.527 545.385,305.194 542.5,305.5C 542.328,304.508 542.662,303.842 543.5,303.5 Z"/></g>
<g><path style="opacity:1" fill="#34557a" d="M 479.5,293.5 C 479.5,297.5 479.5,301.5 479.5,305.5C 481.167,305.5 482.833,305.5 484.5,305.5C 485.037,302.028 484.037,299.195 481.5,297C 482.756,296.583 483.423,295.75 483.5,294.5C 487.732,296.4 491.399,299.067 494.5,302.5C 489.664,305.376 484.331,306.709 478.5,306.5C 478.5,306.167 478.5,305.833 478.5,305.5C 478.5,301.833 478.5,298.167 478.5,294.5C 478.5,293.833 478.833,293.5 479.5,293.5 Z"/></g>
<g><path style="opacity:1" fill="#1c0e04" d="M 497.5,305.5 C 498.5,305.5 499.5,305.5 500.5,305.5C 500.5,306.833 500.5,308.167 500.5,309.5C 499.5,309.5 498.5,309.5 497.5,309.5C 497.5,308.167 497.5,306.833 497.5,305.5 Z"/></g>
<g><path style="opacity:1" fill="#2f231e" d="M 550.5,306.5 C 552.822,307.802 554.155,309.802 554.5,312.5C 552.674,310.853 551.34,308.853 550.5,306.5 Z"/></g>
<g><path style="opacity:1" fill="#393634" d="M 418.5,307.5 C 418.167,307.5 417.833,307.5 417.5,307.5C 414.592,306.431 411.592,306.264 408.5,307C 406.361,309.478 404.361,311.978 402.5,314.5C 404.996,305.403 410.329,303.069 418.5,307.5 Z"/></g>
<g><path style="opacity:1" fill="#110601" d="M 472.5,309.5 C 472.5,310.833 472.5,312.167 472.5,313.5C 471.5,313.5 470.5,313.5 469.5,313.5C 469.5,312.167 469.5,310.833 469.5,309.5C 470.5,309.5 471.5,309.5 472.5,309.5 Z"/></g>
<g><path style="opacity:1" fill="#261509" d="M 484.5,310.5 C 485.5,310.5 486.5,310.5 487.5,310.5C 487.5,312.167 487.5,313.833 487.5,315.5C 483.716,315.475 482.716,313.808 484.5,310.5 Z"/></g>
<g><path style="opacity:1" fill="#d09b82" d="M 541.5,306.5 C 544.167,306.5 546.833,306.5 549.5,306.5C 549.427,314.854 549.76,323.188 550.5,331.5C 548.95,330.559 547.284,329.893 545.5,329.5C 544.432,328.566 543.099,328.232 541.5,328.5C 541.5,321.167 541.5,313.833 541.5,306.5 Z"/></g>
<g><path style="opacity:1" fill="#3a3837" d="M 402.5,314.5 C 401.958,317.912 400.625,320.912 398.5,323.5C 399.042,320.088 400.375,317.088 402.5,314.5 Z"/></g>
<g><path style="opacity:1" fill="#d2a088" d="M 417.5,307.5 C 417.833,307.5 418.167,307.5 418.5,307.5C 419.5,308.833 420.5,310.167 421.5,311.5C 418.884,315.752 417.05,320.419 416,325.5C 415.31,327.35 414.144,328.684 412.5,329.5C 410.973,329.427 409.973,330.094 409.5,331.5C 407.983,331.511 406.816,332.177 406,333.5C 404.955,332.627 404.122,331.627 403.5,330.5C 404.708,329.766 406.041,329.433 407.5,329.5C 407.417,325.665 408.917,322.665 412,320.5C 413.537,316.061 415.37,311.727 417.5,307.5 Z"/></g>
<g><path style="opacity:1" fill="#e5ccc0" d="M 417.5,307.5 C 415.37,311.727 413.537,316.061 412,320.5C 408.917,322.665 407.417,325.665 407.5,329.5C 406.041,329.433 404.708,329.766 403.5,330.5C 402.069,328.811 401.236,326.811 401,324.5C 397.76,330.017 396.927,329.684 398.5,323.5C 400.625,320.912 401.958,317.912 402.5,314.5C 404.361,311.978 406.361,309.478 408.5,307C 411.592,306.264 414.592,306.431 417.5,307.5 Z"/></g>
<g><path style="opacity:1" fill="#b37558" d="M 421.5,311.5 C 421.5,311.833 421.5,312.167 421.5,312.5C 421.666,318.842 421.5,325.175 421,331.5C 420.184,330.177 419.017,329.511 417.5,329.5C 415.833,329.5 414.167,329.5 412.5,329.5C 414.144,328.684 415.31,327.35 416,325.5C 417.05,320.419 418.884,315.752 421.5,311.5 Z"/></g>
<g><path style="opacity:1" fill="#e3ccc2" d="M 541.5,306.5 C 541.5,313.833 541.5,321.167 541.5,328.5C 540.193,329.153 538.86,329.82 537.5,330.5C 536.833,325.015 536.167,319.681 535.5,314.5C 537.512,311.795 539.512,309.128 541.5,306.5 Z"/></g>
<g><path style="opacity:1" fill="#b16b49" d="M 541.5,306.5 C 541.5,305.833 541.833,305.5 542.5,305.5C 545.385,305.194 548.052,305.527 550.5,306.5C 551.34,308.853 552.674,310.853 554.5,312.5C 555.674,313.514 556.34,314.847 556.5,316.5C 559.953,323.339 558.953,329.339 553.5,334.5C 552.145,333.812 551.145,332.812 550.5,331.5C 549.76,323.188 549.427,314.854 549.5,306.5C 546.833,306.5 544.167,306.5 541.5,306.5 Z"/></g>
<g><path style="opacity:1" fill="#bb6f4b" d="M 422.5,313.5 C 425.409,316.981 428.075,320.648 430.5,324.5C 429.249,332.845 427.915,341.178 426.5,349.5C 423.32,348.982 420.987,347.316 419.5,344.5C 422.125,334.347 423.125,324.014 422.5,313.5 Z"/></g>
<g><path style="opacity:1" fill="#f2ebe7" d="M 412.5,342.5 C 412.205,344.735 412.539,346.735 413.5,348.5C 412.358,352.117 410.692,355.45 408.5,358.5C 408.737,359.791 408.404,360.791 407.5,361.5C 400.394,358.011 397.394,352.344 398.5,344.5C 397.746,341.909 396.079,340.076 393.5,339C 395.291,335.249 397.457,331.749 400,328.5C 403.29,333.957 407.457,338.623 412.5,342.5 Z"/></g>
<g><path style="opacity:1" fill="#a64618" d="M 559.5,344.5 C 558.675,348.647 558.175,352.981 558,357.5C 556.624,358.705 555.458,360.038 554.5,361.5C 553.391,361.557 552.391,361.89 551.5,362.5C 550.508,355.352 550.175,348.019 550.5,340.5C 554.214,336.95 557.381,332.95 560,328.5C 562.416,331.663 564.582,334.996 566.5,338.5C 562.897,339.108 560.564,341.108 559.5,344.5 Z"/></g>
<g><path style="opacity:1" fill="#211c19" d="M 421.5,312.5 C 422.167,312.5 422.5,312.833 422.5,313.5C 423.125,324.014 422.125,334.347 419.5,344.5C 420.987,347.316 423.32,348.982 426.5,349.5C 428.579,351.873 431.246,353.206 434.5,353.5C 435.057,348.948 436.057,344.615 437.5,340.5C 437.476,344.6 436.809,348.6 435.5,352.5C 435.608,353.442 435.941,354.275 436.5,355C 465.117,366.139 493.784,366.306 522.5,355.5C 523.167,355.167 523.833,354.833 524.5,354.5C 529.922,352.622 534.922,349.956 539.5,346.5C 536.141,336.451 534.808,326.118 535.5,315.5C 535.5,315.167 535.5,314.833 535.5,314.5C 536.167,319.681 536.833,325.015 537.5,330.5C 538.86,329.82 540.193,329.153 541.5,328.5C 543.099,328.232 544.432,328.566 545.5,329.5C 547.284,329.893 548.95,330.559 550.5,331.5C 551.145,332.812 552.145,333.812 553.5,334.5C 558.953,329.339 559.953,323.339 556.5,316.5C 559.659,324.112 563.493,331.445 568,338.5C 574.334,341.488 576.501,346.155 574.5,352.5C 575.328,347.148 573.328,343.481 568.5,341.5C 566.833,340.167 565.167,340.167 563.5,341.5C 562.167,342.5 560.833,343.5 559.5,344.5C 560.564,341.108 562.897,339.108 566.5,338.5C 564.582,334.996 562.416,331.663 560,328.5C 557.381,332.95 554.214,336.95 550.5,340.5C 543.844,346.165 536.51,350.832 528.5,354.5C 521.288,357.79 513.955,360.457 506.5,362.5C 494.573,364.204 482.573,364.871 470.5,364.5C 465.7,364.65 461.033,363.984 456.5,362.5C 447.766,361.033 439.433,358.366 431.5,354.5C 424.66,351.25 418.327,347.25 412.5,342.5C 407.457,338.623 403.29,333.957 400,328.5C 397.457,331.749 395.291,335.249 393.5,339C 396.079,340.076 397.746,341.909 398.5,344.5C 397.5,343.833 396.5,343.167 395.5,342.5C 394.866,341.053 393.699,340.387 392,340.5C 388.977,340.927 386.477,342.261 384.5,344.5C 384.733,342.938 385.4,341.605 386.5,340.5C 388.441,340.131 390.275,339.464 392,338.5C 395.197,333.816 397.363,328.816 398.5,323.5C 396.927,329.684 397.76,330.017 401,324.5C 401.236,326.811 402.069,328.811 403.5,330.5C 404.122,331.627 404.955,332.627 406,333.5C 406.816,332.177 407.983,331.511 409.5,331.5C 407.887,332.838 407.387,334.505 408,336.5C 411.074,339.286 414.241,341.952 417.5,344.5C 418.808,341.27 419.808,337.936 420.5,334.5C 419.908,332.577 418.908,330.911 417.5,329.5C 419.017,329.511 420.184,330.177 421,331.5C 421.5,325.175 421.666,318.842 421.5,312.5 Z"/></g>
<g><path style="opacity:1" fill="#444242" d="M 519.5,332.5 C 520.942,339.788 522.609,347.121 524.5,354.5C 523.833,354.833 523.167,355.167 522.5,355.5C 521.222,348.333 519.889,341.166 518.5,334C 518.57,333.235 518.903,332.735 519.5,332.5 Z"/></g>
<g><path style="opacity:1" fill="#0d266c" d="M 513.5,337.5 C 514.117,337.611 514.617,337.944 515,338.5C 516.05,343.448 516.55,348.448 516.5,353.5C 491.794,360.164 467.127,360.164 442.5,353.5C 443.581,348.527 444.581,343.527 445.5,338.5C 455.685,346.925 467.018,353.258 479.5,357.5C 492.144,352.853 503.477,346.186 513.5,337.5 Z"/></g>
<g><path style="opacity:1" fill="#281811" d="M 437.5,331.5 C 438.478,331.811 439.145,332.478 439.5,333.5C 438.933,335.982 438.266,338.316 437.5,340.5C 437.5,337.5 437.5,334.5 437.5,331.5 Z"/></g>
<g><path style="opacity:1" fill="#b15930" d="M 430.5,324.5 C 433.167,326.5 435.5,328.833 437.5,331.5C 437.5,334.5 437.5,337.5 437.5,340.5C 436.057,344.615 435.057,348.948 434.5,353.5C 431.246,353.206 428.579,351.873 426.5,349.5C 427.915,341.178 429.249,332.845 430.5,324.5 Z"/></g>
<g><path style="opacity:1" fill="#363434" d="M 412.5,329.5 C 412.027,330.906 411.027,331.573 409.5,331.5C 409.973,330.094 410.973,329.427 412.5,329.5 Z"/></g>
<g><path style="opacity:1" fill="#f4f4f4" d="M 545.5,329.5 C 547.937,331.433 550.271,333.6 552.5,336C 549.207,339.639 545.54,342.806 541.5,345.5C 539.638,341.903 538.304,338.069 537.5,334C 539.089,330.703 541.755,329.203 545.5,329.5 Z"/></g>
<g><path style="opacity:1" fill="#4a5b91" d="M 542.5,336.5 C 544.337,336.639 544.67,337.306 543.5,338.5C 542.702,338.043 542.369,337.376 542.5,336.5 Z"/></g>
<g><path style="opacity:1" fill="#e6ccc0" d="M 535.5,315.5 C 534.808,326.118 536.141,336.451 539.5,346.5C 534.922,349.956 529.922,352.622 524.5,354.5C 522.609,347.121 520.942,339.788 519.5,332.5C 525.056,327.066 530.389,321.399 535.5,315.5 Z"/></g>
<g><path style="opacity:1" fill="#eeeff0" d="M 412.5,329.5 C 414.167,329.5 415.833,329.5 417.5,329.5C 418.908,330.911 419.908,332.577 420.5,334.5C 419.808,337.936 418.808,341.27 417.5,344.5C 414.241,341.952 411.074,339.286 408,336.5C 407.387,334.505 407.887,332.838 409.5,331.5C 411.027,331.573 412.027,330.906 412.5,329.5 Z"/></g>
<g><path style="opacity:1" fill="#d1a089" d="M 563.5,341.5 C 565.167,340.167 566.833,340.167 568.5,341.5C 568.5,348.5 568.5,355.5 568.5,362.5C 567.783,364.937 566.783,367.27 565.5,369.5C 564.575,368.643 563.908,367.643 563.5,366.5C 564.833,358.167 564.833,349.833 563.5,341.5 Z"/></g>
<g><path style="opacity:1" fill="#e4c8bb" d="M 563.5,341.5 C 564.833,349.833 564.833,358.167 563.5,366.5C 561.661,365.248 559.828,365.248 558,366.5C 558.019,364.893 558.185,363.226 558.5,361.5C 559.338,361.158 559.672,360.492 559.5,359.5C 559.5,354.5 559.5,349.5 559.5,344.5C 560.833,343.5 562.167,342.5 563.5,341.5 Z"/></g>
<g><path style="opacity:1" fill="#443f3c" d="M 384.5,344.5 C 384.395,348.548 384.728,352.548 385.5,356.5C 382.083,352.689 381.749,348.689 384.5,344.5 Z"/></g>
<g><path style="opacity:1" fill="#1f1d1c" d="M 412.5,360.5 C 410.938,360.267 409.605,359.6 408.5,358.5C 410.692,355.45 412.358,352.117 413.5,348.5C 413.435,348.062 413.601,347.728 414,347.5C 419.845,350.712 421.012,355.212 417.5,361C 415.613,361.78 413.946,361.613 412.5,360.5 Z"/></g>
<g><path style="opacity:1" fill="#bd7757" d="M 568.5,341.5 C 573.328,343.481 575.328,347.148 574.5,352.5C 572.5,355.833 570.5,359.167 568.5,362.5C 568.5,355.5 568.5,348.5 568.5,341.5 Z"/></g>
<g><path style="opacity:1" fill="#e0d3cd" d="M 412.5,360.5 C 412.105,356.888 413.272,353.554 416,350.5C 419.223,355.098 418.056,358.431 412.5,360.5 Z"/></g>
<g><path style="opacity:1" fill="#171312" d="M 559.5,344.5 C 559.5,349.5 559.5,354.5 559.5,359.5C 557.833,360.167 556.167,360.833 554.5,361.5C 555.458,360.038 556.624,358.705 558,357.5C 558.175,352.981 558.675,348.647 559.5,344.5 Z"/></g>
<g><path style="opacity:1" fill="#a8532c" d="M 550.5,340.5 C 550.175,348.019 550.508,355.352 551.5,362.5C 545.484,367.178 538.817,370.845 531.5,373.5C 530.596,372.791 530.263,371.791 530.5,370.5C 530.868,367.944 530.034,365.944 528,364.5C 526.941,364.63 526.108,365.13 525.5,366C 527.376,366.918 528.376,368.418 528.5,370.5C 522.844,370.133 521.011,367.133 523,361.5C 524.667,360.167 526.333,360.167 528,361.5C 528.483,360.552 528.649,359.552 528.5,358.5C 529.376,358.369 530.043,358.702 530.5,359.5C 531.667,362.5 532.833,365.5 534,368.5C 534.75,367.874 535.584,367.374 536.5,367C 533.477,363.744 533.977,361.244 538,359.5C 539.505,361.298 539.672,363.132 538.5,365C 540.279,364.956 541.945,364.289 543.5,363C 540.246,360.235 538.746,356.735 539,352.5C 539.333,352.833 539.667,353.167 540,353.5C 540.483,352.552 540.649,351.552 540.5,350.5C 535.968,351.625 534.968,353.958 537.5,357.5C 533.949,362.115 532.115,361.449 532,355.5C 531.329,356.252 530.496,356.586 529.5,356.5C 528.662,356.158 528.328,355.492 528.5,354.5C 536.51,350.832 543.844,346.165 550.5,340.5 Z"/></g>
<g><path style="opacity:1" fill="#1c0e05" d="M 540.5,350.5 C 542.578,347.169 545.244,346.336 548.5,348C 547.551,348.617 546.718,348.451 546,347.5C 545.308,348.025 544.808,348.692 544.5,349.5C 545.789,352.58 547.455,355.414 549.5,358C 548.534,359.678 547.201,360.345 545.5,360C 545.957,359.586 546.291,359.086 546.5,358.5C 545.333,356.167 544.167,353.833 543,351.5C 542.329,350.748 541.496,350.414 540.5,350.5 Z"/></g>
<g><path style="opacity:1" fill="#1b0f08" d="M 540.5,350.5 C 540.649,351.552 540.483,352.552 540,353.5C 539.667,353.167 539.333,352.833 539,352.5C 538.746,356.735 540.246,360.235 543.5,363C 541.945,364.289 540.279,364.956 538.5,365C 539.672,363.132 539.505,361.298 538,359.5C 533.977,361.244 533.477,363.744 536.5,367C 535.584,367.374 534.75,367.874 534,368.5C 532.833,365.5 531.667,362.5 530.5,359.5C 530.043,358.702 529.376,358.369 528.5,358.5C 528.833,357.833 529.167,357.167 529.5,356.5C 530.496,356.586 531.329,356.252 532,355.5C 532.115,361.449 533.949,362.115 537.5,357.5C 534.968,353.958 535.968,351.625 540.5,350.5 Z"/></g>
<g><path style="opacity:1" fill="#b16846" d="M 528.5,354.5 C 528.328,355.492 528.662,356.158 529.5,356.5C 529.167,357.167 528.833,357.833 528.5,358.5C 523.45,358.218 520.45,360.552 519.5,365.5C 520.516,371.135 523.516,372.801 528.5,370.5C 529.167,370.5 529.833,370.5 530.5,370.5C 530.263,371.791 530.596,372.791 531.5,373.5C 525.306,376.918 518.639,379.251 511.5,380.5C 511.527,378.801 512.194,377.467 513.5,376.5C 512.947,374.724 511.613,372.89 509.5,371C 512.466,367.096 511.466,364.929 506.5,364.5C 506.5,363.833 506.5,363.167 506.5,362.5C 513.955,360.457 521.288,357.79 528.5,354.5 Z"/></g>
<g><path style="opacity:1" fill="#d09b83" d="M 395.5,342.5 C 394.081,348.412 392.914,354.412 392,360.5C 391.764,362.119 390.931,363.119 389.5,363.5C 388.404,360.968 387.071,358.635 385.5,356.5C 384.728,352.548 384.395,348.548 384.5,344.5C 386.477,342.261 388.977,340.927 392,340.5C 393.699,340.387 394.866,341.053 395.5,342.5 Z"/></g>
<g><path style="opacity:1" fill="#ba7b5d" d="M 395.5,342.5 C 396.5,343.167 397.5,343.833 398.5,344.5C 398.334,349.844 398.501,355.177 399,360.5C 399.45,362.519 400.283,364.352 401.5,366C 399.099,366.805 399.266,367.638 402,368.5C 402.497,370.81 402.663,373.143 402.5,375.5C 401.5,376.833 400.5,376.833 399.5,375.5C 397.992,373.819 396.992,371.819 396.5,369.5C 395.187,365.694 394.02,366.027 393,370.5C 391.82,368.14 390.653,365.807 389.5,363.5C 390.931,363.119 391.764,362.119 392,360.5C 392.914,354.412 394.081,348.412 395.5,342.5 Z"/></g>
<g><path style="opacity:1" fill="#e0cdc4" d="M 412.5,342.5 C 418.327,347.25 424.66,351.25 431.5,354.5C 431.5,356.167 431.5,357.833 431.5,359.5C 431.018,360.416 430.685,361.416 430.5,362.5C 431.277,364.447 432.277,366.28 433.5,368C 433.37,369.059 432.87,369.892 432,370.5C 431.077,369.241 430.243,367.908 429.5,366.5C 428.362,370.49 430.029,372.157 434.5,371.5C 435.167,372.167 435.833,372.833 436.5,373.5C 436.833,373.5 437.167,373.5 437.5,373.5C 437.715,375.179 437.048,376.179 435.5,376.5C 425.236,373.038 415.903,368.038 407.5,361.5C 408.404,360.791 408.737,359.791 408.5,358.5C 409.605,359.6 410.938,360.267 412.5,360.5C 413.946,361.613 415.613,361.78 417.5,361C 421.012,355.212 419.845,350.712 414,347.5C 413.601,347.728 413.435,348.062 413.5,348.5C 412.539,346.735 412.205,344.735 412.5,342.5 Z"/></g>
<g><path style="opacity:1" fill="#262221" d="M 431.5,359.5 C 433.199,359.34 434.866,359.506 436.5,360C 437.731,361.183 437.731,362.349 436.5,363.5C 435.614,362.675 435.281,361.675 435.5,360.5C 434.5,360.5 433.5,360.5 432.5,360.5C 433.252,363.09 434.252,365.59 435.5,368C 435.352,369.256 435.018,370.423 434.5,371.5C 430.029,372.157 428.362,370.49 429.5,366.5C 430.243,367.908 431.077,369.241 432,370.5C 432.87,369.892 433.37,369.059 433.5,368C 432.277,366.28 431.277,364.447 430.5,362.5C 430.685,361.416 431.018,360.416 431.5,359.5 Z"/></g>
<g><path style="opacity:1" fill="#252221" d="M 423.5,354.5 C 426.956,354.753 428.789,356.42 429,359.5C 426.441,355.23 424.941,355.564 424.5,360.5C 427.548,360.494 428.048,361.494 426,363.5C 424.155,360.816 422.988,361.149 422.5,364.5C 423.498,366.612 424.831,367.612 426.5,367.5C 426,367.833 425.5,368.167 425,368.5C 422.61,367.722 420.443,366.555 418.5,365C 421.209,362.062 422.876,358.562 423.5,354.5 Z"/></g>
<g><path style="opacity:1" fill="#d8b7a8" d="M 431.5,354.5 C 439.433,358.366 447.766,361.033 456.5,362.5C 457.11,363.391 457.443,364.391 457.5,365.5C 455.586,368.684 454.92,372.351 455.5,376.5C 454.34,378.203 455.007,378.869 457.5,378.5C 457.768,380.099 457.434,381.432 456.5,382.5C 449.18,381.324 442.18,379.324 435.5,376.5C 437.048,376.179 437.715,375.179 437.5,373.5C 440.107,375.042 440.774,374.542 439.5,372C 439.941,368.515 441.274,365.515 443.5,363C 442.5,362.5 441.5,362 440.5,361.5C 439.163,365.524 437.829,369.524 436.5,373.5C 435.833,372.833 435.167,372.167 434.5,371.5C 435.018,370.423 435.352,369.256 435.5,368C 434.252,365.59 433.252,363.09 432.5,360.5C 433.5,360.5 434.5,360.5 435.5,360.5C 435.281,361.675 435.614,362.675 436.5,363.5C 437.731,362.349 437.731,361.183 436.5,360C 434.866,359.506 433.199,359.34 431.5,359.5C 431.5,357.833 431.5,356.167 431.5,354.5 Z"/></g>
<g><path style="opacity:1" fill="#1d120c" d="M 528.5,358.5 C 528.649,359.552 528.483,360.552 528,361.5C 526.333,360.167 524.667,360.167 523,361.5C 521.011,367.133 522.844,370.133 528.5,370.5C 523.516,372.801 520.516,371.135 519.5,365.5C 520.45,360.552 523.45,358.218 528.5,358.5 Z"/></g>
<g><path style="opacity:1" fill="#25201e" d="M 398.5,344.5 C 397.394,352.344 400.394,358.011 407.5,361.5C 415.903,368.038 425.236,373.038 435.5,376.5C 442.18,379.324 449.18,381.324 456.5,382.5C 467.288,385.402 478.288,386.068 489.5,384.5C 497.231,384.544 504.564,383.211 511.5,380.5C 518.639,379.251 525.306,376.918 531.5,373.5C 538.817,370.845 545.484,367.178 551.5,362.5C 552.391,361.89 553.391,361.557 554.5,361.5C 553.63,363.274 552.297,364.607 550.5,365.5C 546.528,367.822 542.528,370.155 538.5,372.5C 537.438,373.425 537.438,374.425 538.5,375.5C 536.545,374.677 534.545,374.51 532.5,375C 496.1,390.73 459.934,390.23 424,373.5C 419.594,376.957 414.761,379.79 409.5,382C 406.232,383.213 402.899,383.546 399.5,383C 392.862,375.225 388.196,366.392 385.5,356.5C 387.071,358.635 388.404,360.968 389.5,363.5C 390.653,365.807 391.82,368.14 393,370.5C 394.02,366.027 395.187,365.694 396.5,369.5C 395.883,369.389 395.383,369.056 395,368.5C 394.178,374.029 396.011,378.529 400.5,382C 403.536,381.995 406.536,381.495 409.5,380.5C 414.197,378.822 418.197,376.156 421.5,372.5C 418.139,370.489 414.806,368.489 411.5,366.5C 408.756,363.277 405.756,362.944 402.5,365.5C 403.788,368.967 403.788,372.3 402.5,375.5C 402.663,373.143 402.497,370.81 402,368.5C 399.266,367.638 399.099,366.805 401.5,366C 400.283,364.352 399.45,362.519 399,360.5C 398.501,355.177 398.334,349.844 398.5,344.5 Z"/></g>
<g><path style="opacity:1" fill="#1e1b1a" d="M 437.5,373.5 C 437.167,373.5 436.833,373.5 436.5,373.5C 437.829,369.524 439.163,365.524 440.5,361.5C 441.5,362 442.5,362.5 443.5,363C 441.274,365.515 439.941,368.515 439.5,372C 440.774,374.542 440.107,375.042 437.5,373.5 Z"/></g>
<g><path style="opacity:1" fill="#ebebeb" d="M 400.5,359.5 C 406.742,361.569 406.742,362.569 400.5,362.5C 400.5,361.5 400.5,360.5 400.5,359.5 Z"/></g>
<g><path style="opacity:1" fill="#1b110c" d="M 514.5,362.5 C 515.552,362.351 516.552,362.517 517.5,363C 517.167,363.333 516.833,363.667 516.5,364C 517.383,367.55 518.716,370.883 520.5,374C 519.5,374.5 518.5,375 517.5,375.5C 516.56,372.197 515.727,368.864 515,365.5C 514.25,364.874 513.416,364.374 512.5,364C 513.416,363.722 514.082,363.222 514.5,362.5 Z"/></g>
<g><path style="opacity:1" fill="#ca9982" d="M 411.5,366.5 C 411.648,371.319 410.982,375.985 409.5,380.5C 406.536,381.495 403.536,381.995 400.5,382C 396.011,378.529 394.178,374.029 395,368.5C 395.383,369.056 395.883,369.389 396.5,369.5C 396.992,371.819 397.992,373.819 399.5,375.5C 400.5,379.5 401.5,379.5 402.5,375.5C 403.788,372.3 403.788,368.967 402.5,365.5C 405.756,362.944 408.756,363.277 411.5,366.5 Z"/></g>
<g><path style="opacity:1" fill="#cda18c" d="M 456.5,362.5 C 461.033,363.984 465.7,364.65 470.5,364.5C 473.358,365.166 476.358,365.833 479.5,366.5C 479.043,367.298 478.376,367.631 477.5,367.5C 474.5,367.5 471.5,367.5 468.5,367.5C 468.262,371.099 469.262,371.433 471.5,368.5C 471.833,370.333 472.167,372.167 472.5,374C 472.4,376.302 471.733,378.302 470.5,380C 475.61,381.437 476.944,379.604 474.5,374.5C 474.833,372.833 475.167,371.167 475.5,369.5C 476.107,369.624 476.44,369.957 476.5,370.5C 476.56,371.043 476.893,371.376 477.5,371.5C 478.182,370.757 478.849,370.091 479.5,369.5C 479.789,373.106 479.456,376.606 478.5,380C 479.833,380.667 481.167,380.667 482.5,380C 481.594,378.301 481.261,376.467 481.5,374.5C 482.833,374.5 484.167,374.5 485.5,374.5C 485.739,376.467 485.406,378.301 484.5,380C 486.134,380.494 487.801,380.66 489.5,380.5C 489.5,381.833 489.5,383.167 489.5,384.5C 478.288,386.068 467.288,385.402 456.5,382.5C 457.434,381.432 457.768,380.099 457.5,378.5C 459.167,378.5 460.833,378.5 462.5,378.5C 462.649,377.448 462.483,376.448 462,375.5C 460.951,377.107 459.451,377.773 457.5,377.5C 457.5,375.833 457.5,374.167 457.5,372.5C 461.5,372.167 461.5,371.833 457.5,371.5C 457.232,369.901 457.566,368.568 458.5,367.5C 460.124,367.36 461.29,368.027 462,369.5C 462.49,368.207 462.657,366.873 462.5,365.5C 460.833,365.5 459.167,365.5 457.5,365.5C 457.443,364.391 457.11,363.391 456.5,362.5 Z"/></g>
<g><path style="opacity:1" fill="#bd8165" d="M 506.5,362.5 C 506.5,363.167 506.5,363.833 506.5,364.5C 505.234,365.09 503.901,365.59 502.5,366C 504.045,367.822 504.712,369.989 504.5,372.5C 501.925,378.107 503.259,379.607 508.5,377C 506.688,375.373 506.521,373.873 508,372.5C 509.25,374.706 511.084,376.039 513.5,376.5C 512.194,377.467 511.527,378.801 511.5,380.5C 504.564,383.211 497.231,384.544 489.5,384.5C 489.5,383.167 489.5,381.833 489.5,380.5C 488.235,376.546 488.235,372.546 489.5,368.5C 490.086,368.709 490.586,369.043 491,369.5C 491.789,373.091 491.622,376.591 490.5,380C 493.157,380.175 495.824,380.008 498.5,379.5C 498.649,378.448 498.483,377.448 498,376.5C 496.951,378.107 495.451,378.773 493.5,378.5C 493.238,377.022 493.571,375.689 494.5,374.5C 495.904,375.999 496.57,375.666 496.5,373.5C 496.57,371.334 495.904,371.001 494.5,372.5C 493.571,371.311 493.238,369.978 493.5,368.5C 495.124,368.36 496.29,369.027 497,370.5C 497.483,369.552 497.649,368.552 497.5,367.5C 493.154,367.334 488.821,367.501 484.5,368C 485.406,369.699 485.739,371.533 485.5,373.5C 484.167,373.5 482.833,373.5 481.5,373.5C 481.785,371.712 481.452,370.045 480.5,368.5C 479.893,368.624 479.56,368.957 479.5,369.5C 478.849,370.091 478.182,370.757 477.5,371.5C 476.893,371.376 476.56,371.043 476.5,370.5C 477.404,369.791 477.737,368.791 477.5,367.5C 478.376,367.631 479.043,367.298 479.5,366.5C 476.358,365.833 473.358,365.166 470.5,364.5C 482.573,364.871 494.573,364.204 506.5,362.5 Z"/></g>
<g><path style="opacity:1" fill="#20140d" d="M 530.5,370.5 C 529.833,370.5 529.167,370.5 528.5,370.5C 528.376,368.418 527.376,366.918 525.5,366C 526.108,365.13 526.941,364.63 528,364.5C 530.034,365.944 530.868,367.944 530.5,370.5 Z"/></g>
<g><path style="opacity:1" fill="#b87d62" d="M 559.5,359.5 C 559.672,360.492 559.338,361.158 558.5,361.5C 554.843,365.775 553.676,370.775 555,376.5C 555.689,377.357 556.522,378.023 557.5,378.5C 559.587,375.327 561.421,371.994 563,368.5C 563.497,370.81 563.663,373.143 563.5,375.5C 561.674,377.147 560.34,379.147 559.5,381.5C 556.29,382.643 553.29,382.31 550.5,380.5C 551.833,375.5 551.833,370.5 550.5,365.5C 552.297,364.607 553.63,363.274 554.5,361.5C 556.167,360.833 557.833,360.167 559.5,359.5 Z"/></g>
<g><path style="opacity:1" fill="#241f1d" d="M 445.5,363.5 C 452.289,363.258 453.955,365.925 450.5,371.5C 451.093,373.382 451.76,375.215 452.5,377C 451.004,377.507 449.837,377.007 449,375.5C 447.866,370.203 447.032,370.203 446.5,375.5C 445.448,375.649 444.448,375.483 443.5,375C 445.046,371.35 445.713,367.516 445.5,363.5 Z"/></g>
<g><path style="opacity:1" fill="#cdae9f" d="M 447.5,365.5 C 448.5,365.5 449.5,365.5 450.5,365.5C 450.5,366.833 450.5,368.167 450.5,369.5C 449.5,369.5 448.5,369.5 447.5,369.5C 447.5,368.167 447.5,366.833 447.5,365.5 Z"/></g>
<g><path style="opacity:1" fill="#574740" d="M 457.5,365.5 C 459.167,365.5 460.833,365.5 462.5,365.5C 462.657,366.873 462.49,368.207 462,369.5C 461.29,368.027 460.124,367.36 458.5,367.5C 458.44,366.957 458.107,366.624 457.5,366.5C 456.833,369.977 456.166,373.311 455.5,376.5C 454.92,372.351 455.586,368.684 457.5,365.5 Z"/></g>
<g><path style="opacity:1" fill="#090706" d="M 458.5,367.5 C 457.566,368.568 457.232,369.901 457.5,371.5C 461.5,371.833 461.5,372.167 457.5,372.5C 457.5,374.167 457.5,375.833 457.5,377.5C 459.451,377.773 460.951,377.107 462,375.5C 462.483,376.448 462.649,377.448 462.5,378.5C 460.833,378.5 459.167,378.5 457.5,378.5C 455.007,378.869 454.34,378.203 455.5,376.5C 456.166,373.311 456.833,369.977 457.5,366.5C 458.107,366.624 458.44,366.957 458.5,367.5 Z"/></g>
<g><path style="opacity:1" fill="#c18163" d="M 411.5,366.5 C 414.806,368.489 418.139,370.489 421.5,372.5C 418.197,376.156 414.197,378.822 409.5,380.5C 410.982,375.985 411.648,371.319 411.5,366.5 Z"/></g>
<g><path style="opacity:1" fill="#221915" d="M 489.5,380.5 C 487.801,380.66 486.134,380.494 484.5,380C 485.406,378.301 485.739,376.467 485.5,374.5C 484.167,374.5 482.833,374.5 481.5,374.5C 481.261,376.467 481.594,378.301 482.5,380C 481.167,380.667 479.833,380.667 478.5,380C 479.456,376.606 479.789,373.106 479.5,369.5C 479.56,368.957 479.893,368.624 480.5,368.5C 481.452,370.045 481.785,371.712 481.5,373.5C 482.833,373.5 484.167,373.5 485.5,373.5C 485.739,371.533 485.406,369.699 484.5,368C 488.821,367.501 493.154,367.334 497.5,367.5C 497.649,368.552 497.483,369.552 497,370.5C 496.29,369.027 495.124,368.36 493.5,368.5C 493.238,369.978 493.571,371.311 494.5,372.5C 495.904,371.001 496.57,371.334 496.5,373.5C 496.57,375.666 495.904,375.999 494.5,374.5C 493.571,375.689 493.238,377.022 493.5,378.5C 495.451,378.773 496.951,378.107 498,376.5C 498.483,377.448 498.649,378.448 498.5,379.5C 495.824,380.008 493.157,380.175 490.5,380C 491.622,376.591 491.789,373.091 491,369.5C 490.586,369.043 490.086,368.709 489.5,368.5C 488.235,372.546 488.235,376.546 489.5,380.5 Z"/></g>
<g><path style="opacity:1" fill="#ce9c84" d="M 550.5,365.5 C 551.833,370.5 551.833,375.5 550.5,380.5C 547.406,379.787 544.406,378.787 541.5,377.5C 541.027,376.094 540.027,375.427 538.5,375.5C 537.438,374.425 537.438,373.425 538.5,372.5C 542.528,370.155 546.528,367.822 550.5,365.5 Z"/></g>
<g><path style="opacity:1" fill="#1f1510" d="M 506.5,364.5 C 511.466,364.929 512.466,367.096 509.5,371C 511.613,372.89 512.947,374.724 513.5,376.5C 511.084,376.039 509.25,374.706 508,372.5C 506.521,373.873 506.688,375.373 508.5,377C 503.259,379.607 501.925,378.107 504.5,372.5C 504.712,369.989 504.045,367.822 502.5,366C 503.901,365.59 505.234,365.09 506.5,364.5 Z"/></g>
<g><path style="opacity:1" fill="#ba7758" d="M 506.5,366.5 C 509.861,367.203 510.194,368.537 507.5,370.5C 506.571,369.311 506.238,367.978 506.5,366.5 Z"/></g>
<g><path style="opacity:1" fill="#2c221e" d="M 574.5,352.5 C 572.963,357.247 571.13,361.913 569,366.5C 567.643,369.898 565.81,372.898 563.5,375.5C 563.663,373.143 563.497,370.81 563,368.5C 561.421,371.994 559.587,375.327 557.5,378.5C 556.522,378.023 555.689,377.357 555,376.5C 553.676,370.775 554.843,365.775 558.5,361.5C 558.185,363.226 558.019,364.893 558,366.5C 559.828,365.248 561.661,365.248 563.5,366.5C 563.908,367.643 564.575,368.643 565.5,369.5C 566.783,367.27 567.783,364.937 568.5,362.5C 570.5,359.167 572.5,355.833 574.5,352.5 Z"/></g>
<g><path style="opacity:1" fill="#d3ad9c" d="M 557.5,367.5 C 558.978,367.238 560.311,367.571 561.5,368.5C 556.612,379.019 555.278,378.686 557.5,367.5 Z"/></g>
<g><path style="opacity:1" fill="#2e241f" d="M 477.5,367.5 C 477.737,368.791 477.404,369.791 476.5,370.5C 476.44,369.957 476.107,369.624 475.5,369.5C 475.167,371.167 474.833,372.833 474.5,374.5C 476.944,379.604 475.61,381.437 470.5,380C 471.733,378.302 472.4,376.302 472.5,374C 472.167,372.167 471.833,370.333 471.5,368.5C 469.262,371.433 468.262,371.099 468.5,367.5C 471.5,367.5 474.5,367.5 477.5,367.5 Z"/></g>
<g><path style="opacity:1" fill="#2e2926" d="M 538.5,375.5 C 540.027,375.427 541.027,376.094 541.5,377.5C 539.973,377.573 538.973,376.906 538.5,375.5 Z"/></g>
<g><path style="opacity:1" fill="#1b1512" d="M 399.5,375.5 C 400.5,376.833 401.5,376.833 402.5,375.5C 401.5,379.5 400.5,379.5 399.5,375.5 Z"/></g>
<g><path style="opacity:1" fill="#3a3330" d="M 541.5,377.5 C 544.406,378.787 547.406,379.787 550.5,380.5C 553.29,382.31 556.29,382.643 559.5,381.5C 559.389,382.117 559.056,382.617 558.5,383C 551.902,383.856 546.235,382.022 541.5,377.5 Z"/></g>
<g><path style="opacity:1" fill="#2a201c" d="M 563.5,375.5 C 563.155,378.198 561.822,380.198 559.5,381.5C 560.34,379.147 561.674,377.147 563.5,375.5 Z"/></g>
</svg>
