<?xml version="1.0" encoding="UTF-8"?>
<!DOCTYPE svg PUBLIC "-//W3C//DTD SVG 1.1//EN" "http://www.w3.org/Graphics/SVG/1.1/DTD/svg11.dtd">
<svg xmlns="http://www.w3.org/2000/svg" version="1.1" width="640px" height="480px" style="shape-rendering:geometricPrecision; text-rendering:geometricPrecision; image-rendering:optimizeQuality; fill-rule:evenodd; clip-rule:evenodd" xmlns:xlink="http://www.w3.org/1999/xlink">
<g><path style="opacity:1" fill="#fcfcfd" d="M 0.5,-0.5 C 12.8333,-0.5 25.1667,-0.5 37.5,-0.5C 64.688,19.6909 91.8547,40.0243 119,60.5C 119.5,40.1694 119.667,19.8361 119.5,-0.5C 124.833,-0.5 130.167,-0.5 135.5,-0.5C 135.5,31.5 135.5,63.5 135.5,95.5C 90.1667,95.5 44.8333,95.5 -0.5,95.5C -0.5,90.1667 -0.5,84.8333 -0.5,79.5C 20.8359,79.6666 42.1693,79.5 63.5,79C 42.2892,62.9495 20.9559,47.1161 -0.5,31.5C -0.5,27.8333 -0.5,24.1667 -0.5,20.5C 25.3401,40.168 51.3401,59.668 77.5,79C 87.5,79.6667 97.5,79.6667 107.5,79C 71.6502,52.6367 35.9835,26.1367 0.5,-0.5 Z"/></g>
<g><path style="opacity:1" fill="#022169" d="M 37.5,-0.5 C 64.8333,-0.5 92.1667,-0.5 119.5,-0.5C 119.667,19.8361 119.5,40.1694 119,60.5C 91.8547,40.0243 64.688,19.6909 37.5,-0.5 Z"/></g>
<g><path style="opacity:1" fill="#c91931" d="M 135.5,-0.5 C 151.833,-0.5 168.167,-0.5 184.5,-0.5C 184.5,31.5 184.5,63.5 184.5,95.5C 229.5,95.5 274.5,95.5 319.5,95.5C 319.5,111.833 319.5,128.167 319.5,144.5C 274.5,144.5 229.5,144.5 184.5,144.5C 184.5,176.167 184.5,207.833 184.5,239.5C 168.167,239.5 151.833,239.5 135.5,239.5C 135.5,207.833 135.5,176.167 135.5,144.5C 90.1667,144.5 44.8333,144.5 -0.5,144.5C -0.5,128.167 -0.5,111.833 -0.5,95.5C 44.8333,95.5 90.1667,95.5 135.5,95.5C 135.5,63.5 135.5,31.5 135.5,-0.5 Z"/></g>
<g><path style="opacity:1" fill="#fcfcfc" d="M 184.5,-0.5 C 189.833,-0.5 195.167,-0.5 200.5,-0.5C 200.333,19.1695 200.5,38.8362 201,58.5C 227.351,38.9699 253.517,19.3033 279.5,-0.5C 284.167,-0.5 288.833,-0.5 293.5,-0.5C 262.312,23.0249 231.145,46.6916 200,70.5C 199.502,73.4816 199.335,76.4816 199.5,79.5C 205.176,79.6661 210.843,79.4994 216.5,79C 250.505,52.6713 284.838,26.838 319.5,1.5C 319.807,11.5824 319.474,21.5824 318.5,31.5C 297.044,47.1161 275.711,62.9495 254.5,79C 276.164,79.5 297.831,79.6666 319.5,79.5C 319.5,84.8333 319.5,90.1667 319.5,95.5C 274.5,95.5 229.5,95.5 184.5,95.5C 184.5,63.5 184.5,31.5 184.5,-0.5 Z"/></g>
<g><path style="opacity:1" fill="#032169" d="M 200.5,-0.5 C 226.833,-0.5 253.167,-0.5 279.5,-0.5C 253.517,19.3033 227.351,38.9699 201,58.5C 200.5,38.8362 200.333,19.1695 200.5,-0.5 Z"/></g>
<g><path style="opacity:1" fill="#c91731" d="M 293.5,-0.5 C 302.167,-0.5 310.833,-0.5 319.5,-0.5C 319.5,0.166667 319.5,0.833333 319.5,1.5C 284.838,26.838 250.505,52.6713 216.5,79C 210.843,79.4994 205.176,79.6661 199.5,79.5C 199.335,76.4816 199.502,73.4816 200,70.5C 231.145,46.6916 262.312,23.0249 293.5,-0.5 Z"/></g>
<g><path style="opacity:1" fill="#67bee4" d="M 319.5,-0.5 C 426.167,-0.5 532.833,-0.5 639.5,-0.5C 639.5,159.5 639.5,319.5 639.5,479.5C 426.167,479.5 212.833,479.5 -0.5,479.5C -0.5,399.5 -0.5,319.5 -0.5,239.5C -0.166667,239.5 0.166667,239.5 0.5,239.5C 9.5,239.5 18.5,239.5 27.5,239.5C 31.8333,239.5 36.1667,239.5 40.5,239.5C 66.8333,239.5 93.1667,239.5 119.5,239.5C 119.5,219.833 119.5,200.167 119.5,180.5C 120.499,199.424 120.833,219.09 120.5,239.5C 125.5,239.5 130.5,239.5 135.5,239.5C 151.833,239.5 168.167,239.5 184.5,239.5C 189.5,239.5 194.5,239.5 199.5,239.5C 199.833,239.5 200.167,239.5 200.5,239.5C 226.672,239.831 252.672,239.498 278.5,238.5C 291.754,239.481 305.087,239.814 318.5,239.5C 319.491,233.021 319.824,226.354 319.5,219.5C 319.5,215.833 319.5,212.167 319.5,208.5C 319.5,192.167 319.5,175.833 319.5,159.5C 319.5,154.5 319.5,149.5 319.5,144.5C 319.5,128.167 319.5,111.833 319.5,95.5C 319.5,90.1667 319.5,84.8333 319.5,79.5C 319.83,63.3246 319.496,47.3246 318.5,31.5C 319.474,21.5824 319.807,11.5824 319.5,1.5C 319.5,0.833333 319.5,0.166667 319.5,-0.5 Z"/></g>
<g><path style="opacity:1" fill="#c91731" d="M -0.5,-0.5 C -0.166667,-0.5 0.166667,-0.5 0.5,-0.5C 35.9835,26.1367 71.6502,52.6367 107.5,79C 97.5,79.6667 87.5,79.6667 77.5,79C 51.3401,59.668 25.3401,40.168 -0.5,20.5C -0.5,13.5 -0.5,6.5 -0.5,-0.5 Z"/></g>
<g><path style="opacity:1" fill="#032269" d="M 318.5,31.5 C 319.496,47.3246 319.83,63.3246 319.5,79.5C 297.831,79.6666 276.164,79.5 254.5,79C 275.711,62.9495 297.044,47.1161 318.5,31.5 Z"/></g>
<g><path style="opacity:1" fill="#032269" d="M -0.5,31.5 C 20.9559,47.1161 42.2892,62.9495 63.5,79C 42.1693,79.5 20.8359,79.6666 -0.5,79.5C -0.5,63.5 -0.5,47.5 -0.5,31.5 Z"/></g>
<g><path style="opacity:1" fill="#fdfdfd" d="M -0.5,144.5 C 44.8333,144.5 90.1667,144.5 135.5,144.5C 135.5,176.167 135.5,207.833 135.5,239.5C 130.5,239.5 125.5,239.5 120.5,239.5C 120.833,219.09 120.499,199.424 119.5,180.5C 92.8604,199.813 66.5271,219.48 40.5,239.5C 36.1667,239.5 31.8333,239.5 27.5,239.5C 57.699,215.813 88.3657,192.646 119.5,170C 120.456,166.606 120.789,163.106 120.5,159.5C 115.041,159.103 109.708,159.603 104.5,161C 69.6492,187.03 34.9826,213.197 0.5,239.5C 0.166667,239.5 -0.166667,239.5 -0.5,239.5C -0.5,229.5 -0.5,219.5 -0.5,209.5C 21.623,193.217 43.623,176.717 65.5,160C 43.5025,159.5 21.5025,159.333 -0.5,159.5C -0.5,154.5 -0.5,149.5 -0.5,144.5 Z"/></g>
<g><path style="opacity:1" fill="#fdfdfd" d="M 319.5,144.5 C 319.5,149.5 319.5,154.5 319.5,159.5C 297.497,159.333 275.497,159.5 253.5,160C 275.352,176.42 297.352,192.587 319.5,208.5C 319.5,212.167 319.5,215.833 319.5,219.5C 293.044,200.217 266.711,180.717 240.5,161C 230.934,159.387 221.267,159.053 211.5,160C 247.35,186.363 283.016,212.863 318.5,239.5C 305.087,239.814 291.754,239.481 278.5,238.5C 252.655,219.744 226.989,200.744 201.5,181.5C 201.44,180.957 201.107,180.624 200.5,180.5C 199.5,200.155 199.167,219.822 199.5,239.5C 194.5,239.5 189.5,239.5 184.5,239.5C 184.5,207.833 184.5,176.167 184.5,144.5C 229.5,144.5 274.5,144.5 319.5,144.5 Z"/></g>
<g><path style="opacity:1" fill="#032269" d="M -0.5,159.5 C 21.5025,159.333 43.5025,159.5 65.5,160C 43.623,176.717 21.623,193.217 -0.5,209.5C -0.5,192.833 -0.5,176.167 -0.5,159.5 Z"/></g>
<g><path style="opacity:1" fill="#c91731" d="M 27.5,239.5 C 18.5,239.5 9.5,239.5 0.5,239.5C 34.9826,213.197 69.6492,187.03 104.5,161C 109.708,159.603 115.041,159.103 120.5,159.5C 120.789,163.106 120.456,166.606 119.5,170C 88.3657,192.646 57.699,215.813 27.5,239.5 Z"/></g>
<g><path style="opacity:1" fill="#c91731" d="M 319.5,219.5 C 319.824,226.354 319.491,233.021 318.5,239.5C 283.016,212.863 247.35,186.363 211.5,160C 221.267,159.053 230.934,159.387 240.5,161C 266.711,180.717 293.044,200.217 319.5,219.5 Z"/></g>
<g><path style="opacity:1" fill="#032269" d="M 319.5,159.5 C 319.5,175.833 319.5,192.167 319.5,208.5C 297.352,192.587 275.352,176.42 253.5,160C 275.497,159.5 297.497,159.333 319.5,159.5 Z"/></g>
<g><path style="opacity:1" fill="#7f8fb3" d="M 201.5,181.5 C 200.503,200.659 200.17,219.993 200.5,239.5C 200.167,239.5 199.833,239.5 199.5,239.5C 199.167,219.822 199.5,200.155 200.5,180.5C 201.107,180.624 201.44,180.957 201.5,181.5 Z"/></g>
<g><path style="opacity:1" fill="#022169" d="M 119.5,180.5 C 119.5,200.167 119.5,219.833 119.5,239.5C 93.1667,239.5 66.8333,239.5 40.5,239.5C 66.5271,219.48 92.8604,199.813 119.5,180.5 Z"/></g>
<g><path style="opacity:1" fill="#032169" d="M 201.5,181.5 C 226.989,200.744 252.655,219.744 278.5,238.5C 252.672,239.498 226.672,239.831 200.5,239.5C 200.17,219.993 200.503,200.659 201.5,181.5 Z"/></g>
<g><path style="opacity:1" fill="#080a0b" d="M 419.5,191.5 C 473.833,191.5 528.167,191.5 582.5,191.5C 582.667,240.168 582.5,288.834 582,337.5C 576.682,353.155 567.182,365.655 553.5,375C 537.337,386.332 519.837,395.165 501,401.5C 475.351,393.017 452.685,379.684 433,361.5C 427,354.819 422.667,347.153 420,338.5C 419.5,289.501 419.333,240.501 419.5,191.5 Z"/></g>
<g><path style="opacity:1" fill="#5b0716" d="M 421.5,194.5 C 474.331,193.501 527.331,193.168 580.5,193.5C 580.5,210.833 580.5,228.167 580.5,245.5C 580.167,245.5 579.833,245.5 579.5,245.5C 579.5,228.5 579.5,211.5 579.5,194.5C 571.833,194.5 564.167,194.5 556.5,194.5C 525.498,194.333 494.498,194.5 463.5,195C 464.416,195.278 465.082,195.778 465.5,196.5C 464.833,196.5 464.167,196.5 463.5,196.5C 449.745,194.545 435.745,193.878 421.5,194.5 Z"/></g>
<g><path style="opacity:1" fill="#cf1534" d="M 421.5,194.5 C 435.745,193.878 449.745,194.545 463.5,196.5C 463.717,199.421 463.051,202.087 461.5,204.5C 460.094,204.973 459.427,205.973 459.5,207.5C 458.009,210.091 455.675,211.091 452.5,210.5C 449.088,209.958 446.088,208.625 443.5,206.5C 442.903,205.861 442.07,205.528 441,205.5C 439.301,205.387 438.134,206.053 437.5,207.5C 436.081,208.451 434.415,208.784 432.5,208.5C 430.596,208.738 429.262,209.738 428.5,211.5C 427.167,212.833 427.167,214.167 428.5,215.5C 428.443,216.609 428.11,217.609 427.5,218.5C 426.5,218.833 425.833,219.5 425.5,220.5C 423.694,225.47 424.694,229.803 428.5,233.5C 428.383,235.484 429.05,237.15 430.5,238.5C 435.403,238.977 440.07,239.977 444.5,241.5C 445.538,243.519 446.872,243.853 448.5,242.5C 452.064,240.081 456.064,238.414 460.5,237.5C 462.415,237.784 464.081,237.451 465.5,236.5C 466.209,235.596 467.209,235.263 468.5,235.5C 469.5,235.5 470.5,235.5 471.5,235.5C 471.5,237.5 472.5,238.5 474.5,238.5C 474.56,239.043 474.893,239.376 475.5,239.5C 476.605,237.389 478.271,236.055 480.5,235.5C 481.988,237.845 483.988,238.179 486.5,236.5C 487.449,237.152 488.615,237.486 490,237.5C 492.221,237.607 494.054,236.94 495.5,235.5C 497.898,235.741 499.898,235.074 501.5,233.5C 503.144,233.714 504.644,233.38 506,232.5C 506.39,235.104 507.224,237.438 508.5,239.5C 509.539,241.531 511.205,242.864 513.5,243.5C 514.964,244.16 516.631,244.493 518.5,244.5C 521.205,244.684 523.538,244.017 525.5,242.5C 529.653,240.833 533.486,238.5 537,235.5C 536.534,232.9 535.034,230.734 532.5,229C 534.247,228.648 535.914,228.148 537.5,227.5C 538.5,226.167 539.5,226.167 540.5,227.5C 541.5,227.5 542.5,227.5 543.5,227.5C 544.167,226.5 544.833,225.5 545.5,224.5C 546.488,225.795 547.488,227.128 548.5,228.5C 549.99,230.28 551.99,230.946 554.5,230.5C 557.692,230.595 560.692,229.929 563.5,228.5C 564.167,228.833 564.833,229.167 565.5,229.5C 568.192,230.591 568.858,232.257 567.5,234.5C 564.813,234.336 562.146,234.503 559.5,235C 558.944,235.383 558.611,235.883 558.5,236.5C 557.566,237.568 557.232,238.901 557.5,240.5C 559.167,240.5 560.833,240.5 562.5,240.5C 565.959,241.865 569.292,241.531 572.5,239.5C 577.195,238.89 578.528,236.557 576.5,232.5C 574.897,231.404 573.397,230.07 572,228.5C 571.683,222.344 568.516,219.677 562.5,220.5C 559.545,221.159 556.545,221.492 553.5,221.5C 551.167,221.167 549.833,219.833 549.5,217.5C 550.9,216.9 551.9,215.9 552.5,214.5C 552.842,213.662 553.508,213.328 554.5,213.5C 556.736,212.611 558.736,211.278 560.5,209.5C 561.386,210.325 561.719,211.325 561.5,212.5C 562.791,212.737 563.791,212.404 564.5,211.5C 565.152,210.551 565.486,209.385 565.5,208C 565.392,206.319 564.725,205.152 563.5,204.5C 562.432,203.566 561.099,203.232 559.5,203.5C 559.784,201.585 559.451,199.919 558.5,198.5C 558.267,196.938 557.6,195.605 556.5,194.5C 564.167,194.5 571.833,194.5 579.5,194.5C 579.5,211.5 579.5,228.5 579.5,245.5C 557.167,245.5 534.833,245.5 512.5,245.5C 511.503,264.326 511.17,283.326 511.5,302.5C 534.167,302.5 556.833,302.5 579.5,302.5C 579.833,302.5 580.167,302.5 580.5,302.5C 580.5,309.833 580.5,317.167 580.5,324.5C 557.833,324.5 535.167,324.5 512.5,324.5C 512.5,347.5 512.5,370.5 512.5,393.5C 508.92,395.923 504.92,397.59 500.5,398.5C 496.815,397.161 493.149,395.828 489.5,394.5C 489.5,371.167 489.5,347.833 489.5,324.5C 466.833,324.5 444.167,324.5 421.5,324.5C 421.5,317.167 421.5,309.833 421.5,302.5C 444.167,302.5 466.833,302.5 489.5,302.5C 489.5,283.5 489.5,264.5 489.5,245.5C 466.833,245.5 444.167,245.5 421.5,245.5C 421.5,228.5 421.5,211.5 421.5,194.5 Z"/></g>
<g><path style="opacity:1" fill="#664a0a" d="M 463.5,196.5 C 464.167,196.5 464.833,196.5 465.5,196.5C 466.728,197.306 467.728,198.306 468.5,199.5C 468.5,200.833 467.833,201.5 466.5,201.5C 466.688,199.897 466.188,198.563 465,197.5C 464.667,199.167 464.333,200.833 464,202.5C 463.583,203.756 462.75,204.423 461.5,204.5C 463.051,202.087 463.717,199.421 463.5,196.5 Z"/></g>
<g><path style="opacity:1" fill="#f5c800" d="M 558.5,198.5 C 558.5,200.5 558.5,202.5 558.5,204.5C 560.167,204.5 561.833,204.5 563.5,204.5C 564.369,206.717 564.702,209.05 564.5,211.5C 562.952,211.179 562.285,210.179 562.5,208.5C 558.825,208.5 556.159,210.167 554.5,213.5C 553.508,213.328 552.842,213.662 552.5,214.5C 550.821,214.892 549.154,215.392 547.5,216C 548.044,216.717 548.711,217.217 549.5,217.5C 549.833,219.833 551.167,221.167 553.5,221.5C 554.449,222.152 555.615,222.486 557,222.5C 559.221,222.607 561.054,221.94 562.5,220.5C 568.516,219.677 571.683,222.344 572,228.5C 573.397,230.07 574.897,231.404 576.5,232.5C 576.657,233.873 576.49,235.207 576,236.5C 574.482,237.163 573.315,238.163 572.5,239.5C 569.518,239.963 566.518,240.296 563.5,240.5C 563.414,239.504 563.748,238.671 564.5,238C 563.833,237.667 563.167,237.333 562.5,237C 563.416,236.722 564.082,236.222 564.5,235.5C 565.791,235.737 566.791,235.404 567.5,234.5C 568.858,232.257 568.192,230.591 565.5,229.5C 565.655,226.147 564.988,225.814 563.5,228.5C 560.692,229.929 557.692,230.595 554.5,230.5C 553.164,228.99 551.997,227.323 551,225.5C 550.764,227.119 549.931,228.119 548.5,228.5C 547.488,227.128 546.488,225.795 545.5,224.5C 545.013,223.527 544.513,222.527 544,221.5C 543.505,223.473 543.338,225.473 543.5,227.5C 542.5,227.5 541.5,227.5 540.5,227.5C 539.059,222.361 538.059,222.361 537.5,227.5C 535.914,228.148 534.247,228.648 532.5,229C 535.034,230.734 536.534,232.9 537,235.5C 533.486,238.5 529.653,240.833 525.5,242.5C 521.548,243.272 517.548,243.605 513.5,243.5C 512.496,242.317 511.662,240.984 511,239.5C 510.23,240.598 509.397,240.598 508.5,239.5C 505.78,233.316 507.78,230.316 514.5,230.5C 516.167,235.348 519.5,237.515 524.5,237C 526.363,235.582 526.863,233.749 526,231.5C 524.226,230.035 522.392,228.702 520.5,227.5C 520.081,224.675 521.081,222.509 523.5,221C 527.167,220.667 530.833,220.333 534.5,220C 527.245,216.793 521.578,218.627 517.5,225.5C 515.216,225.975 513.216,226.975 511.5,228.5C 508.303,230.558 504.97,232.225 501.5,233.5C 499.214,233.595 497.214,234.262 495.5,235.5C 492.545,236.159 489.545,236.492 486.5,236.5C 486.5,235.833 486.167,235.5 485.5,235.5C 485.196,234.85 484.863,234.183 484.5,233.5C 486.423,232.692 488.423,232.192 490.5,232C 489.934,231.005 489.267,230.172 488.5,229.5C 488.209,230.649 487.376,231.316 486,231.5C 484.091,230.844 482.258,230.344 480.5,230C 483.136,231.41 483.803,233.243 482.5,235.5C 481.833,235.5 481.167,235.5 480.5,235.5C 479.739,234.609 478.739,233.942 477.5,233.5C 477.241,235.21 476.241,236.877 474.5,238.5C 473.833,237.167 472.833,236.167 471.5,235.5C 470.74,233.015 469.74,233.015 468.5,235.5C 467.209,235.263 466.209,235.596 465.5,236.5C 464.566,235.432 464.232,234.099 464.5,232.5C 465.8,231.399 466.3,230.066 466,228.5C 463.024,230.875 459.857,231.542 456.5,230.5C 457.15,228.565 457.483,226.565 457.5,224.5C 456.167,224.5 454.833,224.5 453.5,224.5C 453.286,222.856 453.62,221.356 454.5,220C 452.866,219.506 451.199,219.34 449.5,219.5C 447.644,216.462 445.31,214.796 442.5,214.5C 440.821,214.285 439.821,214.952 439.5,216.5C 437.265,216.205 435.265,216.539 433.5,217.5C 433.167,217.5 432.833,217.5 432.5,217.5C 432.167,216.833 431.833,216.167 431.5,215.5C 430.992,213.767 430.159,213.434 429,214.5C 428.517,213.552 428.351,212.552 428.5,211.5C 430.404,211.262 431.738,210.262 432.5,208.5C 434.415,208.784 436.081,208.451 437.5,207.5C 439.435,206.85 441.435,206.517 443.5,206.5C 446.088,208.625 449.088,209.958 452.5,210.5C 454.726,211.756 457.059,211.756 459.5,210.5C 459.337,212.857 459.503,215.19 460,217.5C 462,220.171 464,222.171 466,223.5C 467.525,219.797 470.025,216.797 473.5,214.5C 472.174,214.795 470.841,214.295 469.5,213C 470.126,212.25 470.626,211.416 471,210.5C 474.031,211.226 473.864,210.559 470.5,208.5C 467.887,209.331 466.72,210.998 467,213.5C 467.333,213.167 467.667,212.833 468,212.5C 470.308,216.532 469.142,218.032 464.5,217C 466.657,215.915 466.824,214.749 465,213.5C 464.309,215.891 463.309,215.891 462,213.5C 461.667,214.167 461.333,214.833 461,215.5C 460.506,213.866 460.34,212.199 460.5,210.5C 464.241,211.401 466.241,210.068 466.5,206.5C 465.448,206.649 464.448,206.483 463.5,206C 465.167,205.667 466.833,205.333 468.5,205C 464.815,204.086 465.148,203.419 469.5,203C 468.263,202.768 467.263,202.268 466.5,201.5C 467.833,201.5 468.5,200.833 468.5,199.5C 469.71,199.068 470.71,198.401 471.5,197.5C 472.833,197.5 474.167,197.5 475.5,197.5C 475.5,199.833 475.5,202.167 475.5,204.5C 477.5,204.5 479.5,204.5 481.5,204.5C 481.938,204.435 482.272,204.601 482.5,205C 480.934,205.608 479.6,206.442 478.5,207.5C 474.846,208.141 473.846,210.141 475.5,213.5C 475.511,215.017 476.177,216.184 477.5,217C 480.667,218.167 483.833,219.333 487,220.5C 489.607,219.877 492.107,219.21 494.5,218.5C 504.701,216.988 514.701,214.654 524.5,211.5C 527.152,211.59 529.485,210.924 531.5,209.5C 534.167,209.5 536.833,209.5 539.5,209.5C 543.069,211.441 546.735,211.774 550.5,210.5C 551.922,210.25 552.922,209.417 553.5,208C 552.421,206.141 551.088,204.641 549.5,203.5C 544.754,202.211 540.087,202.544 535.5,204.5C 531.2,204.755 527.2,205.755 523.5,207.5C 519.907,207.641 516.407,208.308 513,209.5C 510.735,208.741 508.568,207.741 506.5,206.5C 506.217,205.711 505.717,205.044 505,204.5C 504.878,206.437 504.045,207.77 502.5,208.5C 502.158,207.662 501.492,207.328 500.5,207.5C 499.054,206.387 497.387,206.22 495.5,207C 495.201,208.32 495.034,209.82 495,211.5C 494.329,210.748 493.496,210.414 492.5,210.5C 492.443,209.391 492.11,208.391 491.5,207.5C 490.486,206.326 489.153,205.66 487.5,205.5C 487.672,204.508 487.338,203.842 486.5,203.5C 486.232,201.901 486.566,200.568 487.5,199.5C 487.821,201.048 488.821,201.715 490.5,201.5C 495.327,202.293 500.327,202.293 505.5,201.5C 508.728,203.53 512.228,204.863 516,205.5C 522.664,204.279 529.164,202.446 535.5,200C 540.664,199.09 545.664,199.59 550.5,201.5C 553.429,201.072 555.263,199.405 556,196.5C 556.708,197.381 557.542,198.047 558.5,198.5 Z"/></g>
<g><path style="opacity:1" fill="#3c2107" d="M 558.5,198.5 C 559.451,199.919 559.784,201.585 559.5,203.5C 561.099,203.232 562.432,203.566 563.5,204.5C 561.833,204.5 560.167,204.5 558.5,204.5C 558.5,202.5 558.5,200.5 558.5,198.5 Z"/></g>
<g><path style="opacity:1" fill="#997806" d="M 471.5,197.5 C 472.919,196.549 474.585,196.216 476.5,196.5C 476.5,198.833 476.5,201.167 476.5,203.5C 478.415,203.216 480.081,203.549 481.5,204.5C 479.5,204.5 477.5,204.5 475.5,204.5C 475.5,202.167 475.5,199.833 475.5,197.5C 474.167,197.5 472.833,197.5 471.5,197.5 Z"/></g>
<g><path style="opacity:1" fill="#6d2318" d="M 549.5,203.5 C 544.848,203.998 540.181,204.331 535.5,204.5C 540.087,202.544 544.754,202.211 549.5,203.5 Z"/></g>
<g><path style="opacity:1" fill="#bc1a2d" d="M 556.5,194.5 C 557.6,195.605 558.267,196.938 558.5,198.5C 557.542,198.047 556.708,197.381 556,196.5C 555.263,199.405 553.429,201.072 550.5,201.5C 545.664,199.59 540.664,199.09 535.5,200C 529.164,202.446 522.664,204.279 516,205.5C 512.228,204.863 508.728,203.53 505.5,201.5C 500.673,200.707 495.673,200.707 490.5,201.5C 488.821,201.715 487.821,201.048 487.5,199.5C 487.33,198.178 487.663,197.011 488.5,196C 487.256,195.544 486.423,196.044 486,197.5C 485.211,199.712 485.378,201.712 486.5,203.5C 487.338,203.842 487.672,204.508 487.5,205.5C 488.287,207.104 489.62,207.771 491.5,207.5C 492.11,208.391 492.443,209.391 492.5,210.5C 497.32,215.171 498.653,214.171 496.5,207.5C 497.833,207.5 499.167,207.5 500.5,207.5C 501.492,207.328 502.158,207.662 502.5,208.5C 503.209,209.404 504.209,209.737 505.5,209.5C 505.263,208.209 505.596,207.209 506.5,206.5C 508.568,207.741 510.735,208.741 513,209.5C 516.407,208.308 519.907,207.641 523.5,207.5C 527.837,207.416 531.837,206.416 535.5,204.5C 540.181,204.331 544.848,203.998 549.5,203.5C 551.088,204.641 552.421,206.141 553.5,208C 552.922,209.417 551.922,210.25 550.5,210.5C 546.821,210.276 543.154,209.942 539.5,209.5C 536.833,209.5 534.167,209.5 531.5,209.5C 528.848,209.41 526.515,210.076 524.5,211.5C 514.701,214.654 504.701,216.988 494.5,218.5C 488.881,219.009 483.547,218.176 478.5,216C 477.891,214.052 477.224,212.218 476.5,210.5C 476.782,209.222 477.449,208.222 478.5,207.5C 479.6,206.442 480.934,205.608 482.5,205C 482.272,204.601 481.938,204.435 481.5,204.5C 480.081,203.549 478.415,203.216 476.5,203.5C 476.5,201.167 476.5,198.833 476.5,196.5C 474.585,196.216 472.919,196.549 471.5,197.5C 470.71,198.401 469.71,199.068 468.5,199.5C 467.728,198.306 466.728,197.306 465.5,196.5C 465.082,195.778 464.416,195.278 463.5,195C 494.498,194.5 525.498,194.333 556.5,194.5 Z"/></g>
<g><path style="opacity:1" fill="#3e1e09" d="M 487.5,199.5 C 486.566,200.568 486.232,201.901 486.5,203.5C 485.378,201.712 485.211,199.712 486,197.5C 486.423,196.044 487.256,195.544 488.5,196C 487.663,197.011 487.33,198.178 487.5,199.5 Z"/></g>
<g><path style="opacity:1" fill="#57370c" d="M 505.5,201.5 C 500.327,202.293 495.327,202.293 490.5,201.5C 495.673,200.707 500.673,200.707 505.5,201.5 Z"/></g>
<g><path style="opacity:1" fill="#4c230e" d="M 443.5,206.5 C 441.435,206.517 439.435,206.85 437.5,207.5C 438.134,206.053 439.301,205.387 441,205.5C 442.07,205.528 442.903,205.861 443.5,206.5 Z"/></g>
<g><path style="opacity:1" fill="#49300c" d="M 487.5,205.5 C 489.153,205.66 490.486,206.326 491.5,207.5C 489.62,207.771 488.287,207.104 487.5,205.5 Z"/></g>
<g><path style="opacity:1" fill="#471f0c" d="M 506.5,206.5 C 505.596,207.209 505.263,208.209 505.5,209.5C 504.209,209.737 503.209,209.404 502.5,208.5C 504.045,207.77 504.878,206.437 505,204.5C 505.717,205.044 506.217,205.711 506.5,206.5 Z"/></g>
<g><path style="opacity:1" fill="#552710" d="M 535.5,204.5 C 531.837,206.416 527.837,207.416 523.5,207.5C 527.2,205.755 531.2,204.755 535.5,204.5 Z"/></g>
<g><path style="opacity:1" fill="#42280c" d="M 461.5,204.5 C 461.573,206.027 460.906,207.027 459.5,207.5C 459.427,205.973 460.094,204.973 461.5,204.5 Z"/></g>
<g><path style="opacity:1" fill="#6a430d" d="M 563.5,204.5 C 564.725,205.152 565.392,206.319 565.5,208C 565.486,209.385 565.152,210.551 564.5,211.5C 564.702,209.05 564.369,206.717 563.5,204.5 Z"/></g>
<g><path style="opacity:1" fill="#623f0d" d="M 432.5,208.5 C 431.738,210.262 430.404,211.262 428.5,211.5C 429.262,209.738 430.596,208.738 432.5,208.5 Z"/></g>
<g><path style="opacity:1" fill="#53340d" d="M 459.5,207.5 C 459.5,208.5 459.5,209.5 459.5,210.5C 457.059,211.756 454.726,211.756 452.5,210.5C 455.675,211.091 458.009,210.091 459.5,207.5 Z"/></g>
<g><path style="opacity:1" fill="#675207" d="M 478.5,207.5 C 477.449,208.222 476.782,209.222 476.5,210.5C 476.737,211.791 476.404,212.791 475.5,213.5C 473.846,210.141 474.846,208.141 478.5,207.5 Z"/></g>
<g><path style="opacity:1" fill="#5d3d0c" d="M 531.5,209.5 C 529.485,210.924 527.152,211.59 524.5,211.5C 526.515,210.076 528.848,209.41 531.5,209.5 Z"/></g>
<g><path style="opacity:1" fill="#4a1e0e" d="M 539.5,209.5 C 543.154,209.942 546.821,210.276 550.5,210.5C 546.735,211.774 543.069,211.441 539.5,209.5 Z"/></g>
<g><path style="opacity:1" fill="#2d1607" d="M 476.5,210.5 C 477.224,212.218 477.891,214.052 478.5,216C 483.547,218.176 488.881,219.009 494.5,218.5C 492.107,219.21 489.607,219.877 487,220.5C 483.833,219.333 480.667,218.167 477.5,217C 476.177,216.184 475.511,215.017 475.5,213.5C 476.404,212.791 476.737,211.791 476.5,210.5 Z"/></g>
<g><path style="opacity:1" fill="#582611" d="M 500.5,207.5 C 499.167,207.5 497.833,207.5 496.5,207.5C 498.653,214.171 497.32,215.171 492.5,210.5C 493.496,210.414 494.329,210.748 495,211.5C 495.034,209.82 495.201,208.32 495.5,207C 497.387,206.22 499.054,206.387 500.5,207.5 Z"/></g>
<g><path style="opacity:1" fill="#73191b" d="M 564.5,211.5 C 563.791,212.404 562.791,212.737 561.5,212.5C 561.719,211.325 561.386,210.325 560.5,209.5C 558.736,211.278 556.736,212.611 554.5,213.5C 556.159,210.167 558.825,208.5 562.5,208.5C 562.285,210.179 562.952,211.179 564.5,211.5 Z"/></g>
<g><path style="opacity:1" fill="#937307" d="M 428.5,211.5 C 428.351,212.552 428.517,213.552 429,214.5C 430.159,213.434 430.992,213.767 431.5,215.5C 430.5,215.5 429.5,215.5 428.5,215.5C 427.167,214.167 427.167,212.833 428.5,211.5 Z"/></g>
<g><path style="opacity:1" fill="#34120a" d="M 442.5,214.5 C 441.71,215.401 440.71,216.068 439.5,216.5C 439.821,214.952 440.821,214.285 442.5,214.5 Z"/></g>
<g><path style="opacity:1" fill="#bd182e" d="M 449.5,219.5 C 450.209,220.404 451.209,220.737 452.5,220.5C 452.579,221.93 452.246,223.264 451.5,224.5C 453.167,225.167 454.833,225.833 456.5,226.5C 455.754,227.736 455.421,229.07 455.5,230.5C 454.5,230.833 453.833,231.5 453.5,232.5C 451.565,233.81 449.565,235.143 447.5,236.5C 445.021,234.924 442.354,233.924 439.5,233.5C 441.081,230.756 442.081,227.756 442.5,224.5C 442.564,222.443 441.898,220.777 440.5,219.5C 439.833,219.5 439.5,219.167 439.5,218.5C 439.5,217.833 439.5,217.167 439.5,216.5C 440.71,216.068 441.71,215.401 442.5,214.5C 445.31,214.796 447.644,216.462 449.5,219.5 Z"/></g>
<g><path style="opacity:1" fill="#6f2519" d="M 552.5,214.5 C 551.9,215.9 550.9,216.9 549.5,217.5C 548.711,217.217 548.044,216.717 547.5,216C 549.154,215.392 550.821,214.892 552.5,214.5 Z"/></g>
<g><path style="opacity:1" fill="#807673" d="M 428.5,215.5 C 429.5,215.5 430.5,215.5 431.5,215.5C 431.833,216.167 432.167,216.833 432.5,217.5C 431.081,218.451 429.415,218.784 427.5,218.5C 428.11,217.609 428.443,216.609 428.5,215.5 Z"/></g>
<g><path style="opacity:1" fill="#847b78" d="M 439.5,216.5 C 439.5,217.167 439.5,217.833 439.5,218.5C 437.265,218.795 435.265,218.461 433.5,217.5C 435.265,216.539 437.265,216.205 439.5,216.5 Z"/></g>
<g><path style="opacity:1" fill="#f0f0ef" d="M 432.5,217.5 C 432.833,217.5 433.167,217.5 433.5,217.5C 435.265,218.461 437.265,218.795 439.5,218.5C 439.5,219.167 439.833,219.5 440.5,219.5C 440.631,220.376 440.298,221.043 439.5,221.5C 435.701,220.207 432.034,220.207 428.5,221.5C 427.209,221.737 426.209,221.404 425.5,220.5C 425.833,219.5 426.5,218.833 427.5,218.5C 429.415,218.784 431.081,218.451 432.5,217.5 Z"/></g>
<g><path style="opacity:1" fill="#b99800" d="M 466.5,201.5 C 467.263,202.268 468.263,202.768 469.5,203C 465.148,203.419 464.815,204.086 468.5,205C 466.833,205.333 465.167,205.667 463.5,206C 464.448,206.483 465.448,206.649 466.5,206.5C 466.241,210.068 464.241,211.401 460.5,210.5C 460.34,212.199 460.506,213.866 461,215.5C 461.333,214.833 461.667,214.167 462,213.5C 463.309,215.891 464.309,215.891 465,213.5C 466.824,214.749 466.657,215.915 464.5,217C 469.142,218.032 470.308,216.532 468,212.5C 467.667,212.833 467.333,213.167 467,213.5C 466.72,210.998 467.887,209.331 470.5,208.5C 473.864,210.559 474.031,211.226 471,210.5C 470.626,211.416 470.126,212.25 469.5,213C 470.841,214.295 472.174,214.795 473.5,214.5C 470.025,216.797 467.525,219.797 466,223.5C 464,222.171 462,220.171 460,217.5C 459.503,215.19 459.337,212.857 459.5,210.5C 459.5,209.5 459.5,208.5 459.5,207.5C 460.906,207.027 461.573,206.027 461.5,204.5C 462.75,204.423 463.583,203.756 464,202.5C 464.333,200.833 464.667,199.167 465,197.5C 466.188,198.563 466.688,199.897 466.5,201.5 Z"/></g>
<g><path style="opacity:1" fill="#391c09" d="M 520.5,227.5 C 519.778,226.449 518.778,225.782 517.5,225.5C 521.578,218.627 527.245,216.793 534.5,220C 530.833,220.333 527.167,220.667 523.5,221C 521.081,222.509 520.081,224.675 520.5,227.5 Z"/></g>
<g><path style="opacity:1" fill="#5b350b" d="M 562.5,220.5 C 561.054,221.94 559.221,222.607 557,222.5C 555.615,222.486 554.449,222.152 553.5,221.5C 556.545,221.492 559.545,221.159 562.5,220.5 Z"/></g>
<g><path style="opacity:1" fill="#261504" d="M 545.5,224.5 C 544.833,225.5 544.167,226.5 543.5,227.5C 543.338,225.473 543.505,223.473 544,221.5C 544.513,222.527 545.013,223.527 545.5,224.5 Z"/></g>
<g><path style="opacity:1" fill="#897000" d="M 488.5,229.5 C 486.696,227.533 484.696,225.699 482.5,224C 485.589,225.022 488.923,225.689 492.5,226C 490.833,226.333 489.167,226.667 487.5,227C 488.252,227.671 488.586,228.504 488.5,229.5 Z"/></g>
<g><path style="opacity:1" fill="#a62527" d="M 517.5,225.5 C 518.778,225.782 519.778,226.449 520.5,227.5C 522.392,228.702 524.226,230.035 526,231.5C 526.863,233.749 526.363,235.582 524.5,237C 519.5,237.515 516.167,235.348 514.5,230.5C 513.5,229.833 512.5,229.167 511.5,228.5C 513.216,226.975 515.216,225.975 517.5,225.5 Z"/></g>
<g><path style="opacity:1" fill="#53260f" d="M 540.5,227.5 C 539.5,226.167 538.5,226.167 537.5,227.5C 538.059,222.361 539.059,222.361 540.5,227.5 Z"/></g>
<g><path style="opacity:1" fill="#351d0a" d="M 554.5,230.5 C 551.99,230.946 549.99,230.28 548.5,228.5C 549.931,228.119 550.764,227.119 551,225.5C 551.997,227.323 553.164,228.99 554.5,230.5 Z"/></g>
<g><path style="opacity:1" fill="#3a2309" d="M 565.5,229.5 C 564.833,229.167 564.167,228.833 563.5,228.5C 564.988,225.814 565.655,226.147 565.5,229.5 Z"/></g>
<g><path style="opacity:1" fill="#2b1808" d="M 449.5,219.5 C 451.199,219.34 452.866,219.506 454.5,220C 453.62,221.356 453.286,222.856 453.5,224.5C 454.833,224.5 456.167,224.5 457.5,224.5C 457.483,226.565 457.15,228.565 456.5,230.5C 456.167,230.5 455.833,230.5 455.5,230.5C 455.421,229.07 455.754,227.736 456.5,226.5C 454.833,225.833 453.167,225.167 451.5,224.5C 452.246,223.264 452.579,221.93 452.5,220.5C 451.209,220.737 450.209,220.404 449.5,219.5 Z"/></g>
<g><path style="opacity:1" fill="#898274" d="M 440.5,219.5 C 441.898,220.777 442.564,222.443 442.5,224.5C 442.081,227.756 441.081,230.756 439.5,233.5C 438.596,232.791 438.263,231.791 438.5,230.5C 434.963,230.942 431.63,231.942 428.5,233.5C 424.694,229.803 423.694,225.47 425.5,220.5C 426.209,221.404 427.209,221.737 428.5,221.5C 432.034,220.207 435.701,220.207 439.5,221.5C 440.298,221.043 440.631,220.376 440.5,219.5 Z"/></g>
<g><path style="opacity:1" fill="#fbfbfb" d="M 428.5,221.5 C 432.584,221.043 436.417,221.71 440,223.5C 440.667,224.5 440.667,225.5 440,226.5C 437.781,226.94 435.281,227.607 432.5,228.5C 429.466,228.277 427.133,226.944 425.5,224.5C 426.34,223.265 427.34,222.265 428.5,221.5 Z"/></g>
<g><path style="opacity:1" fill="#f0c400" d="M 439.5,233.5 C 442.354,233.924 445.021,234.924 447.5,236.5C 449.565,235.143 451.565,233.81 453.5,232.5C 457.082,232.271 460.416,232.271 463.5,232.5C 462.925,234.411 461.925,236.078 460.5,237.5C 456.064,238.414 452.064,240.081 448.5,242.5C 447.167,242.167 445.833,241.833 444.5,241.5C 440.07,239.977 435.403,238.977 430.5,238.5C 429.05,237.15 428.383,235.484 428.5,233.5C 431.63,231.942 434.963,230.942 438.5,230.5C 438.263,231.791 438.596,232.791 439.5,233.5 Z"/></g>
<g><path style="opacity:1" fill="#735b03" d="M 464.5,232.5 C 464.167,232.5 463.833,232.5 463.5,232.5C 460.416,232.271 457.082,232.271 453.5,232.5C 453.833,231.5 454.5,230.833 455.5,230.5C 455.833,230.5 456.167,230.5 456.5,230.5C 459.857,231.542 463.024,230.875 466,228.5C 466.3,230.066 465.8,231.399 464.5,232.5 Z"/></g>
<g><path style="opacity:1" fill="#8a7100" d="M 488.5,229.5 C 489.267,230.172 489.934,231.005 490.5,232C 488.423,232.192 486.423,232.692 484.5,233.5C 484.863,234.183 485.196,234.85 485.5,235.5C 484.348,236.625 483.348,236.625 482.5,235.5C 483.803,233.243 483.136,231.41 480.5,230C 482.258,230.344 484.091,230.844 486,231.5C 487.376,231.316 488.209,230.649 488.5,229.5 Z"/></g>
<g><path style="opacity:1" fill="#4a1810" d="M 511.5,228.5 C 512.5,229.167 513.5,229.833 514.5,230.5C 507.78,230.316 505.78,233.316 508.5,239.5C 507.224,237.438 506.39,235.104 506,232.5C 504.644,233.38 503.144,233.714 501.5,233.5C 504.97,232.225 508.303,230.558 511.5,228.5 Z"/></g>
<g><path style="opacity:1" fill="#43240b" d="M 501.5,233.5 C 499.898,235.074 497.898,235.741 495.5,235.5C 497.214,234.262 499.214,233.595 501.5,233.5 Z"/></g>
<g><path style="opacity:1" fill="#321209" d="M 471.5,235.5 C 470.5,235.5 469.5,235.5 468.5,235.5C 469.74,233.015 470.74,233.015 471.5,235.5 Z"/></g>
<g><path style="opacity:1" fill="#592410" d="M 567.5,234.5 C 566.791,235.404 565.791,235.737 564.5,235.5C 562.435,235.517 560.435,235.85 558.5,236.5C 558.611,235.883 558.944,235.383 559.5,235C 562.146,234.503 564.813,234.336 567.5,234.5 Z"/></g>
<g><path style="opacity:1" fill="#251706" d="M 480.5,235.5 C 478.271,236.055 476.605,237.389 475.5,239.5C 474.893,239.376 474.56,239.043 474.5,238.5C 476.241,236.877 477.241,235.21 477.5,233.5C 478.739,233.942 479.739,234.609 480.5,235.5 Z"/></g>
<g><path style="opacity:1" fill="#541715" d="M 463.5,232.5 C 463.833,232.5 464.167,232.5 464.5,232.5C 464.232,234.099 464.566,235.432 465.5,236.5C 464.081,237.451 462.415,237.784 460.5,237.5C 461.925,236.078 462.925,234.411 463.5,232.5 Z"/></g>
<g><path style="opacity:1" fill="#39150a" d="M 471.5,235.5 C 472.833,236.167 473.833,237.167 474.5,238.5C 472.5,238.5 471.5,237.5 471.5,235.5 Z"/></g>
<g><path style="opacity:1" fill="#3b100e" d="M 480.5,235.5 C 481.167,235.5 481.833,235.5 482.5,235.5C 483.348,236.625 484.348,236.625 485.5,235.5C 486.167,235.5 486.5,235.833 486.5,236.5C 483.988,238.179 481.988,237.845 480.5,235.5 Z"/></g>
<g><path style="opacity:1" fill="#6a1a17" d="M 495.5,235.5 C 494.054,236.94 492.221,237.607 490,237.5C 488.615,237.486 487.449,237.152 486.5,236.5C 489.545,236.492 492.545,236.159 495.5,235.5 Z"/></g>
<g><path style="opacity:1" fill="#ac8c03" d="M 564.5,235.5 C 564.082,236.222 563.416,236.722 562.5,237C 563.167,237.333 563.833,237.667 564.5,238C 563.748,238.671 563.414,239.504 563.5,240.5C 563.167,240.5 562.833,240.5 562.5,240.5C 560.833,240.5 559.167,240.5 557.5,240.5C 557.232,238.901 557.566,237.568 558.5,236.5C 560.435,235.85 562.435,235.517 564.5,235.5 Z"/></g>
<g><path style="opacity:1" fill="#572c0f" d="M 576.5,232.5 C 578.528,236.557 577.195,238.89 572.5,239.5C 573.315,238.163 574.482,237.163 576,236.5C 576.49,235.207 576.657,233.873 576.5,232.5 Z"/></g>
<g><path style="opacity:1" fill="#4e2e0d" d="M 508.5,239.5 C 509.397,240.598 510.23,240.598 511,239.5C 511.662,240.984 512.496,242.317 513.5,243.5C 511.205,242.864 509.539,241.531 508.5,239.5 Z"/></g>
<g><path style="opacity:1" fill="#35160a" d="M 572.5,239.5 C 569.292,241.531 565.959,241.865 562.5,240.5C 562.833,240.5 563.167,240.5 563.5,240.5C 566.518,240.296 569.518,239.963 572.5,239.5 Z"/></g>
<g><path style="opacity:1" fill="#4f2a0b" d="M 444.5,241.5 C 445.833,241.833 447.167,242.167 448.5,242.5C 446.872,243.853 445.538,243.519 444.5,241.5 Z"/></g>
<g><path style="opacity:1" fill="#441a0d" d="M 525.5,242.5 C 523.538,244.017 521.205,244.684 518.5,244.5C 516.631,244.493 514.964,244.16 513.5,243.5C 517.548,243.605 521.548,243.272 525.5,242.5 Z"/></g>
<g><path style="opacity:1" fill="#f9f7f7" d="M 421.5,245.5 C 444.167,245.5 466.833,245.5 489.5,245.5C 489.5,264.5 489.5,283.5 489.5,302.5C 466.833,302.5 444.167,302.5 421.5,302.5C 421.5,283.5 421.5,264.5 421.5,245.5 Z"/></g>
<g><path style="opacity:1" fill="#f8f8f8" d="M 512.5,245.5 C 534.833,245.5 557.167,245.5 579.5,245.5C 579.833,245.5 580.167,245.5 580.5,245.5C 580.5,264.5 580.5,283.5 580.5,302.5C 580.167,302.5 579.833,302.5 579.5,302.5C 557.34,301.503 535.006,301.169 512.5,301.5C 512.5,282.833 512.5,264.167 512.5,245.5 Z"/></g>
<g><path style="opacity:1" fill="#60766a" d="M 466.5,252.5 C 469.976,251.357 473.642,251.19 477.5,252C 475.846,252.608 474.179,253.108 472.5,253.5C 470.735,252.539 468.735,252.205 466.5,252.5 Z"/></g>
<g><path style="opacity:1" fill="#436853" d="M 446.5,253.5 C 444.901,253.232 443.568,253.566 442.5,254.5C 440.915,253.998 440.415,252.998 441,251.5C 442.948,252.109 444.782,252.776 446.5,253.5 Z"/></g>
<g><path style="opacity:1" fill="#30533e" d="M 548.5,260.5 C 548.646,262.942 547.813,263.609 546,262.5C 544.961,263.244 544.461,264.244 544.5,265.5C 544.299,263.268 543.966,260.935 543.5,258.5C 544.323,255.023 544.823,251.356 545,247.5C 545.219,248.938 545.719,250.271 546.5,251.5C 548.003,251.165 549.336,251.165 550.5,251.5C 548.87,254.276 548.203,257.276 548.5,260.5 Z"/></g>
<g><path style="opacity:1" fill="#17944c" d="M 573.5,263.5 C 572.554,262.069 571.388,260.736 570,259.5C 568.301,260.406 566.467,260.739 564.5,260.5C 564.167,260.5 563.833,260.5 563.5,260.5C 560.548,259.701 557.881,260.367 555.5,262.5C 555.167,262.5 554.833,262.5 554.5,262.5C 553.448,262.351 552.448,262.517 551.5,263C 554.278,264.392 557.278,264.892 560.5,264.5C 565.479,266.597 568.146,270.43 568.5,276C 568.612,277.662 567.946,278.829 566.5,279.5C 564.462,277.03 562.795,274.363 561.5,271.5C 561.586,270.504 561.252,269.671 560.5,269C 557.854,268.503 555.187,268.336 552.5,268.5C 551.328,267.295 549.995,267.295 548.5,268.5C 547.431,267.09 546.097,266.09 544.5,265.5C 544.461,264.244 544.961,263.244 546,262.5C 547.813,263.609 548.646,262.942 548.5,260.5C 557.954,249.879 567.454,249.879 577,260.5C 577.82,262.728 577.487,264.728 576,266.5C 575.623,265.058 574.79,264.058 573.5,263.5 Z"/></g>
<g><path style="opacity:1" fill="#24834a" d="M 466.5,252.5 C 468.735,252.205 470.735,252.539 472.5,253.5C 471.192,254.232 469.858,255.066 468.5,256C 470.709,257.873 472.542,260.04 474,262.5C 477.26,257.524 481.26,256.524 486,259.5C 487.387,265.864 486.221,266.698 482.5,262C 481.833,261.333 481.167,261.333 480.5,262C 478.415,264.419 477.415,267.253 477.5,270.5C 482.776,271.293 484.609,274.293 483,279.5C 481.159,276.822 478.659,275.155 475.5,274.5C 474.169,277.049 475.002,278.716 478,279.5C 478.755,282.303 478.422,284.97 477,287.5C 476.459,284.791 474.959,282.791 472.5,281.5C 471.265,282.34 470.265,283.34 469.5,284.5C 467.804,286.129 466.804,285.796 466.5,283.5C 466.952,279.425 468.452,275.758 471,272.5C 472.169,265.839 469.836,260.839 464,257.5C 461.08,259.742 459.58,262.742 459.5,266.5C 466.497,268.443 468.33,272.776 465,279.5C 465.076,275.651 463.576,272.651 460.5,270.5C 459.131,272.764 458.131,275.097 457.5,277.5C 456.974,275.77 455.974,274.436 454.5,273.5C 454.5,272.833 454.167,272.5 453.5,272.5C 452.847,271.193 452.18,269.86 451.5,268.5C 451.624,267.893 451.957,267.56 452.5,267.5C 453.376,267.631 454.043,267.298 454.5,266.5C 452.957,263.914 451.291,261.414 449.5,259C 445.365,258.493 442.865,260.326 442,264.5C 441.174,267.793 440.674,271.126 440.5,274.5C 440.631,275.239 440.464,275.906 440,276.5C 438.549,274.536 436.716,273.203 434.5,272.5C 430.564,272.954 428.397,275.288 428,279.5C 424.459,272.397 426.625,269.063 434.5,269.5C 434.377,265.194 432.377,262.527 428.5,261.5C 428.132,269.188 426.798,269.188 424.5,261.5C 425.643,256.747 428.643,255.247 433.5,257C 436,258.167 437.833,260 439,262.5C 441.675,260.185 442.841,257.518 442.5,254.5C 443.568,253.566 444.901,253.232 446.5,253.5C 448.801,254.06 451.134,254.56 453.5,255C 453.043,255.414 452.709,255.914 452.5,256.5C 454.192,258.359 455.692,260.359 457,262.5C 458.353,257.316 461.519,253.983 466.5,252.5 Z"/></g>
<g><path style="opacity:1" fill="#44574d" d="M 529.5,261.5 C 529.217,262.289 528.717,262.956 528,263.5C 526.599,261.808 524.766,261.141 522.5,261.5C 524.771,258.853 527.104,258.853 529.5,261.5 Z"/></g>
<g><path style="opacity:1" fill="#456652" d="M 530.5,260.5 C 532.945,260.435 535.611,260.269 538.5,260C 539.823,260.816 540.489,261.983 540.5,263.5C 537.385,261.952 534.051,260.952 530.5,260.5 Z"/></g>
<g><path style="opacity:1" fill="#3e5347" d="M 563.5,260.5 C 561.095,261.768 558.428,262.435 555.5,262.5C 557.881,260.367 560.548,259.701 563.5,260.5 Z"/></g>
<g><path style="opacity:1" fill="#405348" d="M 516.5,261.5 C 518.19,261.758 520.19,261.758 522.5,261.5C 519.915,262.039 517.748,263.372 516,265.5C 513.981,263.876 514.148,262.543 516.5,261.5 Z"/></g>
<g><path style="opacity:1" fill="#475a50" d="M 573.5,263.5 C 570.375,263.467 567.375,262.467 564.5,260.5C 566.467,260.739 568.301,260.406 570,259.5C 571.388,260.736 572.554,262.069 573.5,263.5 Z"/></g>
<g><path style="opacity:1" fill="#476957" d="M 554.5,262.5 C 556.5,263.167 558.5,263.833 560.5,264.5C 557.278,264.892 554.278,264.392 551.5,263C 552.448,262.517 553.448,262.351 554.5,262.5 Z"/></g>
<g><path style="opacity:1" fill="#0f502b" d="M 544.5,265.5 C 546.097,266.09 547.431,267.09 548.5,268.5C 549.995,267.295 551.328,267.295 552.5,268.5C 551.662,268.842 551.328,269.508 551.5,270.5C 549.495,269.961 547.495,269.295 545.5,268.5C 544.873,267.583 544.539,266.583 544.5,265.5 Z"/></g>
<g><path style="opacity:1" fill="#229450" d="M 447.5,267.5 C 448.5,267.5 449.5,267.5 450.5,267.5C 451.244,271.119 451.577,274.785 451.5,278.5C 451.753,280.827 451.086,282.827 449.5,284.5C 448.163,280.156 446.829,275.822 445.5,271.5C 445.34,269.645 446.007,268.312 447.5,267.5 Z"/></g>
<g><path style="opacity:1" fill="#304d3c" d="M 539.5,270.5 C 539.083,269.876 538.416,269.543 537.5,269.5C 534.215,271.72 530.549,272.887 526.5,273C 524.839,275.853 522.839,278.353 520.5,280.5C 519.394,277.934 519.727,275.6 521.5,273.5C 521.343,274.873 521.51,276.207 522,277.5C 523,275.167 524,272.833 525,270.5C 528.483,271.623 531.817,270.623 535,267.5C 537.132,268.78 539.298,268.78 541.5,267.5C 542.5,268 543.5,268.5 544.5,269C 542.846,269.608 541.179,270.108 539.5,270.5 Z"/></g>
<g><path style="opacity:1" fill="#17964d" d="M 543.5,258.5 C 543.966,260.935 544.299,263.268 544.5,265.5C 544.539,266.583 544.873,267.583 545.5,268.5C 547.495,269.295 549.495,269.961 551.5,270.5C 558.155,274.148 560.821,279.814 559.5,287.5C 558.246,285.462 556.579,283.796 554.5,282.5C 553.094,282.027 552.427,281.027 552.5,279.5C 551.969,277.376 550.635,275.876 548.5,275C 547.207,274.51 545.873,274.343 544.5,274.5C 544.307,270.551 543.807,270.551 543,274.5C 540.016,275.652 537.85,277.652 536.5,280.5C 534.003,281.129 532.67,282.796 532.5,285.5C 530.744,284.448 530.077,282.781 530.5,280.5C 532.105,275.896 535.105,272.562 539.5,270.5C 541.179,270.108 542.846,269.608 544.5,269C 543.5,268.5 542.5,268 541.5,267.5C 539.298,268.78 537.132,268.78 535,267.5C 531.817,270.623 528.483,271.623 525,270.5C 524,272.833 523,275.167 522,277.5C 521.51,276.207 521.343,274.873 521.5,273.5C 521.724,269.438 523.724,266.605 527.5,265C 532.019,264.825 536.353,264.325 540.5,263.5C 540.489,261.983 539.823,260.816 538.5,260C 535.611,260.269 532.945,260.435 530.5,260.5C 530.5,261.167 530.167,261.5 529.5,261.5C 527.104,258.853 524.771,258.853 522.5,261.5C 520.19,261.758 518.19,261.758 516.5,261.5C 521.134,253.686 527.801,251.186 536.5,254C 538.993,255.419 541.326,256.919 543.5,258.5 Z"/></g>
<g><path style="opacity:1" fill="#304e3c" d="M 552.5,268.5 C 555.187,268.336 557.854,268.503 560.5,269C 561.252,269.671 561.586,270.504 561.5,271.5C 558.547,270.183 555.547,269.183 552.5,268.5 Z"/></g>
<g><path style="opacity:1" fill="#18241c" d="M 552.5,279.5 C 551.167,278.167 549.833,278.167 548.5,279.5C 547.167,280.833 545.833,280.833 544.5,279.5C 543.518,278.859 542.518,278.193 541.5,277.5C 540.305,279.297 538.638,280.297 536.5,280.5C 537.85,277.652 540.016,275.652 543,274.5C 543.807,270.551 544.307,270.551 544.5,274.5C 545.873,274.343 547.207,274.51 548.5,275C 550.635,275.876 551.969,277.376 552.5,279.5 Z"/></g>
<g><path style="opacity:1" fill="#597364" d="M 447.5,267.5 C 449.167,266.167 450.833,266.167 452.5,267.5C 451.957,267.56 451.624,267.893 451.5,268.5C 452.18,269.86 452.847,271.193 453.5,272.5C 452.833,274.5 452.167,276.5 451.5,278.5C 451.577,274.785 451.244,271.119 450.5,267.5C 449.5,267.5 448.5,267.5 447.5,267.5 Z"/></g>
<g><path style="opacity:1" fill="#2e5c39" d="M 434.5,272.5 C 436.716,273.203 438.549,274.536 440,276.5C 440.464,275.906 440.631,275.239 440.5,274.5C 442.293,276.426 443.293,278.759 443.5,281.5C 443.5,282.167 443.167,282.5 442.5,282.5C 441.5,281.833 440.5,281.167 439.5,280.5C 437.833,277.833 436.167,275.167 434.5,272.5 Z"/></g>
<g><path style="opacity:1" fill="#864837" d="M 544.5,279.5 C 545.833,280.833 547.167,280.833 548.5,279.5C 548.334,283.514 548.501,287.514 549,291.5C 549.131,294.371 550.297,296.705 552.5,298.5C 548.167,299.833 543.833,299.833 539.5,298.5C 540.865,297.059 542.365,295.726 544,294.5C 544.499,289.511 544.666,284.511 544.5,279.5 Z"/></g>
<g><path style="opacity:1" fill="#188446" d="M 439.5,280.5 C 440.5,281.167 441.5,281.833 442.5,282.5C 442.389,283.117 442.056,283.617 441.5,284C 438.635,284.183 435.969,284.683 433.5,285.5C 432.496,286.683 431.662,288.016 431,289.5C 429.177,282.302 432.01,279.302 439.5,280.5 Z"/></g>
<g><path style="opacity:1" fill="#2c4937" d="M 536.5,280.5 C 535.855,282.826 534.522,284.493 532.5,285.5C 532.67,282.796 534.003,281.129 536.5,280.5 Z"/></g>
<g><path style="opacity:1" fill="#744737" d="M 443.5,281.5 C 446.375,285.623 448.041,290.29 448.5,295.5C 446.856,295.714 445.356,295.38 444,294.5C 444.018,287.423 440.518,284.423 433.5,285.5C 435.969,284.683 438.635,284.183 441.5,284C 442.056,283.617 442.389,283.117 442.5,282.5C 443.167,282.5 443.5,282.167 443.5,281.5 Z"/></g>
<g><path style="opacity:1" fill="#285f3f" d="M 530.5,280.5 C 530.077,282.781 530.744,284.448 532.5,285.5C 532.005,287.482 531.505,289.482 531,291.5C 530.667,291.167 530.333,290.833 530,290.5C 529.192,286.973 529.359,283.64 530.5,280.5 Z"/></g>
<g><path style="opacity:1" fill="#724234" d="M 454.5,273.5 C 455.974,274.436 456.974,275.77 457.5,277.5C 458.607,282.081 458.773,286.748 458,291.5C 456.667,292.833 455.333,292.833 454,291.5C 453.455,285.234 453.622,279.234 454.5,273.5 Z"/></g>
<g><path style="opacity:1" fill="#385545" d="M 554.5,282.5 C 556.579,283.796 558.246,285.462 559.5,287.5C 559.688,289.103 559.188,290.437 558,291.5C 557.281,288.26 556.115,285.26 554.5,282.5 Z"/></g>
<g><path style="opacity:1" fill="#744a3c" d="M 466.5,283.5 C 466.804,285.796 467.804,286.129 469.5,284.5C 469.513,289.145 468.013,293.145 465,296.5C 463.115,296.138 462.281,294.971 462.5,293C 462.978,289.378 464.311,286.212 466.5,283.5 Z"/></g>
<g><path style="opacity:1" fill="#ea90a0" d="M 512.5,245.5 C 512.5,264.167 512.5,282.833 512.5,301.5C 535.006,301.169 557.34,301.503 579.5,302.5C 556.833,302.5 534.167,302.5 511.5,302.5C 511.17,283.326 511.503,264.326 512.5,245.5 Z"/></g>
<g><path style="opacity:1" fill="#fafafa" d="M 421.5,324.5 C 444.167,324.5 466.833,324.5 489.5,324.5C 489.5,347.833 489.5,371.167 489.5,394.5C 468.624,386.146 450.124,374.146 434,358.5C 425.393,348.849 421.226,337.516 421.5,324.5 Z"/></g>
<g><path style="opacity:1" fill="#fafafa" d="M 580.5,324.5 C 580.469,337.894 575.969,349.561 567,359.5C 551.305,374.766 533.138,386.099 512.5,393.5C 512.5,370.5 512.5,347.5 512.5,324.5C 535.167,324.5 557.833,324.5 580.5,324.5 Z"/></g>
<g><path style="opacity:1" fill="#8d4f3b" d="M 553.5,337.5 C 551.449,336.513 549.782,335.18 548.5,333.5C 553.698,327.803 559.698,326.969 566.5,331C 568.5,335.333 567.167,337 562.5,336C 558.895,332.482 555.895,332.982 553.5,337.5 Z"/></g>
<g><path style="opacity:1" fill="#5b5b5b" d="M 472.5,333.5 C 472.082,332.778 471.416,332.278 470.5,332C 471.931,331.535 473.097,330.701 474,329.5C 474.773,331.352 474.273,332.686 472.5,333.5 Z"/></g>
<g><path style="opacity:1" fill="#e7db06" d="M 548.5,333.5 C 549.782,335.18 551.449,336.513 553.5,337.5C 555.493,339.163 557.826,340.33 560.5,341C 561.277,345.973 559.61,350.14 555.5,353.5C 548.75,348.127 541.417,343.794 533.5,340.5C 533.501,335.328 536.001,331.994 541,330.5C 543.222,332.194 545.722,333.194 548.5,333.5 Z"/></g>
<g><path style="opacity:1" fill="#456a52" d="M 447.5,339.5 C 446.362,341.971 444.862,344.304 443,346.5C 441.731,345.095 441.231,343.429 441.5,341.5C 439.801,341.66 438.134,341.494 436.5,341C 436.493,339.417 436.826,337.751 437.5,336C 435.964,334.401 435.464,332.567 436,330.5C 437.791,332.513 439.125,332.513 440,330.5C 442.039,331.978 442.872,333.978 442.5,336.5C 443.822,336.67 444.989,336.337 446,335.5C 446.41,336.901 446.91,338.234 447.5,339.5 Z"/></g>
<g><path style="opacity:1" fill="#767676" d="M 479.5,343.5 C 477.771,343.228 476.105,343.228 474.5,343.5C 476.731,341.89 478.731,340.057 480.5,338C 479.906,337.536 479.239,337.369 478.5,337.5C 479.833,336.067 481.333,334.733 483,333.5C 483.536,335.567 483.036,337.401 481.5,339C 482.612,341.108 481.946,342.608 479.5,343.5 Z"/></g>
<g><path style="opacity:1" fill="#858585" d="M 448.5,333.5 C 449.946,332.387 451.613,332.22 453.5,333C 455.669,335.819 457.169,338.986 458,342.5C 458.748,340.668 459.748,339.001 461,337.5C 461.021,340.505 460.521,343.505 459.5,346.5C 456.633,343.412 454.799,339.746 454,335.5C 452.556,333.845 450.722,333.178 448.5,333.5 Z"/></g>
<g><path style="opacity:1" fill="#787878" d="M 472.5,333.5 C 472.771,335.312 473.438,336.978 474.5,338.5C 475.736,337.754 477.07,337.421 478.5,337.5C 474.754,338.883 471.421,341.05 468.5,344C 465.233,343.937 463.066,345.437 462,348.5C 461.701,344.797 463.534,342.964 467.5,343C 468.833,341.667 470.167,340.333 471.5,339C 470.5,338.667 469.5,338.333 468.5,338C 470.07,336.603 471.404,335.103 472.5,333.5 Z"/></g>
<g><path style="opacity:1" fill="#767676" d="M 479.5,343.5 C 479.128,347.043 477.128,349.21 473.5,350C 474.833,350.333 476.167,350.667 477.5,351C 477.167,351.333 476.833,351.667 476.5,352C 474.402,351.968 472.402,351.301 470.5,350C 472.569,349.676 472.902,348.842 471.5,347.5C 474.406,346.582 477.072,345.249 479.5,343.5 Z"/></g>
<g><path style="opacity:1" fill="#808080" d="M 447.5,339.5 C 448.117,339.611 448.617,339.944 449,340.5C 449.333,346.5 449.667,352.5 450,358.5C 451.563,361.728 454.063,363.895 457.5,365C 454.142,365.489 451.475,364.322 449.5,361.5C 448.404,358.257 447.737,354.924 447.5,351.5C 448.624,347.462 448.624,343.462 447.5,339.5 Z"/></g>
<g><path style="opacity:1" fill="#727272" d="M 462.5,353.5 C 464.366,354.014 466.2,354.68 468,355.5C 471.545,353.999 472.045,354.499 469.5,357C 470.451,357.718 470.617,358.551 470,359.5C 468.04,356.294 465.374,355.294 462,356.5C 461.53,355.423 461.697,354.423 462.5,353.5 Z"/></g>
<g><path style="opacity:1" fill="#0c8e46" d="M 533.5,340.5 C 541.417,343.794 548.75,348.127 555.5,353.5C 556.303,354.423 556.47,355.423 556,356.5C 550.414,360.513 545.247,364.846 540.5,369.5C 539.293,368.811 537.959,368.645 536.5,369C 537.126,368.25 537.626,367.416 538,366.5C 538.914,367.654 539.747,367.487 540.5,366C 539.333,364.5 538.167,363 537,361.5C 536.252,363.332 535.252,364.999 534,366.5C 533.085,365.672 532.419,364.672 532,363.5C 531.667,364.167 531.333,364.833 531,365.5C 531,362.833 531,360.167 531,357.5C 530.333,359.5 529.667,361.5 529,363.5C 528.458,358.279 527.624,358.279 526.5,363.5C 525.817,363.137 525.15,362.804 524.5,362.5C 524.336,359.813 524.503,357.146 525,354.5C 525.414,354.043 525.914,353.709 526.5,353.5C 527.287,350.152 528.121,346.818 529,343.5C 530.129,341.859 531.629,340.859 533.5,340.5 Z"/></g>
<g><path style="opacity:1" fill="#808080" d="M 475.5,368.5 C 474.761,368.369 474.094,368.536 473.5,369C 475.35,371.018 477.35,372.851 479.5,374.5C 479.043,375.298 478.376,375.631 477.5,375.5C 474.728,372.306 471.728,369.306 468.5,366.5C 469.279,364.073 470.446,364.073 472,366.5C 472.333,365.833 472.667,365.167 473,364.5C 473.662,365.984 474.496,367.317 475.5,368.5 Z"/></g>
<g><path style="opacity:1" fill="#147a40" d="M 540.5,369.5 C 537.366,372.57 533.7,373.237 529.5,371.5C 528.833,371.167 528.167,370.833 527.5,370.5C 525.394,368.281 524.394,365.615 524.5,362.5C 525.15,362.804 525.817,363.137 526.5,363.5C 527.624,358.279 528.458,358.279 529,363.5C 529.667,361.5 530.333,359.5 531,357.5C 531,360.167 531,362.833 531,365.5C 531.333,364.833 531.667,364.167 532,363.5C 532.419,364.672 533.085,365.672 534,366.5C 535.252,364.999 536.252,363.332 537,361.5C 538.167,363 539.333,364.5 540.5,366C 539.747,367.487 538.914,367.654 538,366.5C 537.626,367.416 537.126,368.25 536.5,369C 537.959,368.645 539.293,368.811 540.5,369.5 Z"/></g>
<g><path style="opacity:1" fill="#484848" d="M 475.5,368.5 C 478.003,370.833 480.669,372.999 483.5,375C 481.679,377.137 479.346,377.97 476.5,377.5C 476.5,377.167 476.5,376.833 476.5,376.5C 477.167,376.5 477.5,376.167 477.5,375.5C 478.376,375.631 479.043,375.298 479.5,374.5C 477.35,372.851 475.35,371.018 473.5,369C 474.094,368.536 474.761,368.369 475.5,368.5 Z"/></g>
<g><path style="opacity:1" fill="#f3f3f3" d="M 468.5,366.5 C 471.728,369.306 474.728,372.306 477.5,375.5C 477.5,376.167 477.167,376.5 476.5,376.5C 475.504,376.414 474.671,376.748 474,377.5C 472.14,373.78 470.307,370.114 468.5,366.5 Z"/></g>
<g><path style="opacity:1" fill="#878787" d="M 468.5,366.5 C 470.307,370.114 472.14,373.78 474,377.5C 474.671,376.748 475.504,376.414 476.5,376.5C 476.5,376.833 476.5,377.167 476.5,377.5C 474.81,378.103 473.31,379.103 472,380.5C 470.059,376.952 468.393,373.286 467,369.5C 465.933,368.809 464.766,368.309 463.5,368C 465.247,367.648 466.914,367.148 468.5,366.5 Z"/></g>
<g><path style="opacity:1" fill="#7d4637" d="M 527.5,370.5 C 528.167,370.833 528.833,371.167 529.5,371.5C 529.66,373.199 529.494,374.866 529,376.5C 514.657,388.158 512.824,386.324 523.5,371C 524.793,370.51 526.127,370.343 527.5,370.5 Z"/></g>
</svg>
