<?xml version="1.0" encoding="UTF-8"?>
<!DOCTYPE svg PUBLIC "-//W3C//DTD SVG 1.1//EN" "http://www.w3.org/Graphics/SVG/1.1/DTD/svg11.dtd">
<svg xmlns="http://www.w3.org/2000/svg" version="1.1" width="640px" height="480px" style="shape-rendering:geometricPrecision; text-rendering:geometricPrecision; image-rendering:optimizeQuality; fill-rule:evenodd; clip-rule:evenodd" xmlns:xlink="http://www.w3.org/1999/xlink">
<g><path style="opacity:1" fill="#fefffe" d="M -0.5,-0.5 C 57.8333,-0.5 116.167,-0.5 174.5,-0.5C 174.5,57.5 174.5,115.5 174.5,173.5C 116.167,173.5 57.8333,173.5 -0.5,173.5C -0.5,115.5 -0.5,57.5 -0.5,-0.5 Z"/></g>
<g><path style="opacity:1" fill="#002e6c" d="M 175.5,-0.5 C 218.833,-0.5 262.167,-0.5 305.5,-0.5C 305.5,57.8333 305.5,116.167 305.5,174.5C 416.833,174.5 528.167,174.5 639.5,174.5C 639.5,217.833 639.5,261.167 639.5,304.5C 528.167,304.5 416.833,304.5 305.5,304.5C 305.5,362.833 305.5,421.167 305.5,479.5C 262.167,479.5 218.833,479.5 175.5,479.5C 175.5,421.167 175.5,362.833 175.5,304.5C 116.833,304.5 58.1667,304.5 -0.5,304.5C -0.5,261.167 -0.5,217.833 -0.5,174.5C 58.1667,174.5 116.833,174.5 175.5,174.5C 175.5,116.167 175.5,57.8333 175.5,-0.5 Z"/></g>
<g><path style="opacity:1" fill="#fefffe" d="M 306.5,-0.5 C 417.5,-0.5 528.5,-0.5 639.5,-0.5C 639.5,57.5 639.5,115.5 639.5,173.5C 528.5,173.5 417.5,173.5 306.5,173.5C 306.5,115.5 306.5,57.5 306.5,-0.5 Z"/></g>
<g><path style="opacity:1" fill="#7d95b4" d="M 174.5,-0.5 C 174.833,-0.5 175.167,-0.5 175.5,-0.5C 175.5,57.8333 175.5,116.167 175.5,174.5C 116.833,174.5 58.1667,174.5 -0.5,174.5C -0.5,174.167 -0.5,173.833 -0.5,173.5C 57.8333,173.5 116.167,173.5 174.5,173.5C 174.5,115.5 174.5,57.5 174.5,-0.5 Z"/></g>
<g><path style="opacity:1" fill="#859cb8" d="M 305.5,-0.5 C 305.833,-0.5 306.167,-0.5 306.5,-0.5C 306.5,57.5 306.5,115.5 306.5,173.5C 417.5,173.5 528.5,173.5 639.5,173.5C 639.5,173.833 639.5,174.167 639.5,174.5C 528.167,174.5 416.833,174.5 305.5,174.5C 305.5,116.167 305.5,57.8333 305.5,-0.5 Z"/></g>
<g><path style="opacity:1" fill="#fefffe" d="M -0.5,305.5 C 57.8333,305.5 116.167,305.5 174.5,305.5C 174.5,363.5 174.5,421.5 174.5,479.5C 116.167,479.5 57.8333,479.5 -0.5,479.5C -0.5,421.5 -0.5,363.5 -0.5,305.5 Z"/></g>
<g><path style="opacity:1" fill="#8ea3bd" d="M 639.5,304.5 C 639.5,304.833 639.5,305.167 639.5,305.5C 528.5,305.5 417.5,305.5 306.5,305.5C 306.5,363.5 306.5,421.5 306.5,479.5C 306.167,479.5 305.833,479.5 305.5,479.5C 305.5,421.167 305.5,362.833 305.5,304.5C 416.833,304.5 528.167,304.5 639.5,304.5 Z"/></g>
<g><path style="opacity:1" fill="#fefffe" d="M 639.5,305.5 C 639.5,363.5 639.5,421.5 639.5,479.5C 528.5,479.5 417.5,479.5 306.5,479.5C 306.5,421.5 306.5,363.5 306.5,305.5C 417.5,305.5 528.5,305.5 639.5,305.5 Z"/></g>
<g><path style="opacity:1" fill="#708aac" d="M -0.5,305.5 C -0.5,305.167 -0.5,304.833 -0.5,304.5C 58.1667,304.5 116.833,304.5 175.5,304.5C 175.5,362.833 175.5,421.167 175.5,479.5C 175.167,479.5 174.833,479.5 174.5,479.5C 174.5,421.5 174.5,363.5 174.5,305.5C 116.167,305.5 57.8333,305.5 -0.5,305.5 Z"/></g>
</svg>
