<?xml version="1.0" encoding="UTF-8"?>
<!DOCTYPE svg PUBLIC "-//W3C//DTD SVG 1.1//EN" "http://www.w3.org/Graphics/SVG/1.1/DTD/svg11.dtd">
<svg xmlns="http://www.w3.org/2000/svg" version="1.1" width="640px" height="480px" style="shape-rendering:geometricPrecision; text-rendering:geometricPrecision; image-rendering:optimizeQuality; fill-rule:evenodd; clip-rule:evenodd" xmlns:xlink="http://www.w3.org/1999/xlink">
<g><path style="opacity:1" fill="#07892f" d="M 0.5,-0.5 C 213.5,-0.5 426.5,-0.5 639.5,-0.5C 639.5,159.5 639.5,319.5 639.5,479.5C 639.167,479.5 638.833,479.5 638.5,479.5C 542.473,406.813 446.14,334.48 349.5,262.5C 347.802,257.917 346.635,253.25 346,248.5C 359.777,237.691 373.277,226.525 386.5,215C 369.49,214.833 352.49,214.333 335.5,213.5C 330.165,195.828 324.831,178.161 319.5,160.5C 314.169,178.161 308.835,195.828 303.5,213.5C 297.537,214.496 291.537,214.829 285.5,214.5C 190.321,143.076 95.3208,71.4097 0.5,-0.5 Z"/></g>
<g><path style="opacity:1" fill="#fbdc09" d="M -0.5,-0.5 C -0.166667,-0.5 0.166667,-0.5 0.5,-0.5C 95.3208,71.4097 190.321,143.076 285.5,214.5C 274.495,214.333 263.495,214.5 252.5,215C 266.207,226.51 279.873,238.01 293.5,249.5C 288.24,267.379 282.906,285.212 277.5,303C 279.631,302.602 281.631,301.602 283.5,300C 295.355,289.978 307.355,280.144 319.5,270.5C 333.275,281.141 346.775,292.141 360,303.5C 360.667,301.833 360.667,300.167 360,298.5C 356.392,286.512 352.892,274.512 349.5,262.5C 446.14,334.48 542.473,406.813 638.5,479.5C 425.5,479.5 212.5,479.5 -0.5,479.5C -0.5,319.5 -0.5,159.5 -0.5,-0.5 Z"/></g>
<g><path style="opacity:1" fill="#d9171a" d="M 349.5,262.5 C 352.892,274.512 356.392,286.512 360,298.5C 360.667,300.167 360.667,301.833 360,303.5C 346.775,292.141 333.275,281.141 319.5,270.5C 307.355,280.144 295.355,289.978 283.5,300C 281.631,301.602 279.631,302.602 277.5,303C 282.906,285.212 288.24,267.379 293.5,249.5C 279.873,238.01 266.207,226.51 252.5,215C 263.495,214.5 274.495,214.333 285.5,214.5C 291.537,214.829 297.537,214.496 303.5,213.5C 308.835,195.828 314.169,178.161 319.5,160.5C 324.831,178.161 330.165,195.828 335.5,213.5C 352.49,214.333 369.49,214.833 386.5,215C 373.277,226.525 359.777,237.691 346,248.5C 346.635,253.25 347.802,257.917 349.5,262.5 Z"/></g>
</svg>
