<?xml version="1.0" encoding="UTF-8"?>
<!DOCTYPE svg PUBLIC "-//W3C//DTD SVG 1.1//EN" "http://www.w3.org/Graphics/SVG/1.1/DTD/svg11.dtd">
<svg xmlns="http://www.w3.org/2000/svg" version="1.1" width="640px" height="480px" style="shape-rendering:geometricPrecision; text-rendering:geometricPrecision; image-rendering:optimizeQuality; fill-rule:evenodd; clip-rule:evenodd" xmlns:xlink="http://www.w3.org/1999/xlink">
<g><path style="opacity:1" fill="#dd200f" d="M -0.5,-0.5 C 212.833,-0.5 426.167,-0.5 639.5,-0.5C 639.5,39.5 639.5,79.5 639.5,119.5C 426.167,119.5 212.833,119.5 -0.5,119.5C -0.5,79.5 -0.5,39.5 -0.5,-0.5 Z"/></g>
<g><path style="opacity:1" fill="#fefefe" d="M -0.5,119.5 C 212.833,119.5 426.167,119.5 639.5,119.5C 639.5,199.5 639.5,279.5 639.5,359.5C 426.167,359.5 212.833,359.5 -0.5,359.5C -0.5,279.5 -0.5,199.5 -0.5,119.5 Z"/></g>
<g><path style="opacity:1" fill="#ef7f10" d="M 346.5,188.5 C 345.511,183.025 345.178,177.358 345.5,171.5C 345.5,170.5 345.5,169.5 345.5,168.5C 342.5,168.5 339.5,168.5 336.5,168.5C 339.285,155.976 342.785,143.643 347,131.5C 354.667,135.833 362.333,140.167 370,144.5C 370.315,145.908 369.982,147.241 369,148.5C 361.235,161.699 353.735,175.032 346.5,188.5 Z"/></g>
<g><path style="opacity:1" fill="#ef7f10" d="M 289.5,132.5 C 290.376,132.369 291.043,132.702 291.5,133.5C 293.121,137.244 295.121,140.744 297.5,144C 296.137,145.945 295.303,148.112 295,150.5C 293.964,163.479 293.297,176.479 293,189.5C 285.38,174.426 277.88,159.259 270.5,144C 270.645,143.228 270.978,142.561 271.5,142C 277.72,139.059 283.72,135.892 289.5,132.5 Z"/></g>
<g><path style="opacity:1" fill="#1e110e" d="M 314.5,135.5 C 320.842,135.334 327.175,135.5 333.5,136C 335.715,136.17 337.715,136.837 339.5,138C 332.949,138.743 327.449,141.576 323,146.5C 320.053,155.996 322.553,163.829 330.5,170C 333.536,172.006 336.869,172.84 340.5,172.5C 340.5,191.5 340.5,210.5 340.5,229.5C 327.026,226.798 313.693,223.465 300.5,219.5C 299.334,195.84 299.167,172.174 300,148.5C 302.545,141.497 307.379,137.164 314.5,135.5 Z"/></g>
<g><path style="opacity:1" fill="#fa0000" d="M 312.5,138.5 C 317.844,138.334 323.177,138.501 328.5,139C 317.765,145.133 315.598,153.633 322,164.5C 325.516,170.501 330.682,173.835 337.5,174.5C 337.5,191.833 337.5,209.167 337.5,226.5C 325.741,223.977 314.074,220.977 302.5,217.5C 301.334,194.841 301.167,172.174 302,149.5C 304.02,144.315 307.52,140.648 312.5,138.5 Z"/></g>
<g><path style="opacity:1" fill="#ef7f10" d="M 346.5,214.5 C 345.511,209.025 345.178,203.358 345.5,197.5C 357.443,178.383 369.61,159.383 382,140.5C 387.416,148.33 392.583,156.33 397.5,164.5C 391.848,170.652 386.015,176.652 380,182.5C 374.864,181.186 369.697,181.186 364.5,182.5C 364.167,183 363.833,183.5 363.5,184C 366.167,187 366.167,190 363.5,193C 364.627,194.057 365.127,195.223 365,196.5C 358.938,202.73 352.771,208.73 346.5,214.5 Z"/></g>
<g><path style="opacity:1" fill="#ef7f10" d="M 293.5,197.5 C 293.821,203.026 293.488,208.36 292.5,213.5C 286.707,208.208 281.04,202.708 275.5,197C 276.167,195.667 276.833,194.333 277.5,193C 276.5,191.333 275.5,189.667 274.5,188C 276.029,186.418 276.529,184.585 276,182.5C 270.506,181.407 265.006,181.24 259.5,182C 253.833,175.667 248.167,169.333 242.5,163C 248,156.166 254,150.166 260.5,145C 271.886,162.275 282.886,179.775 293.5,197.5 Z"/></g>
<g><path style="opacity:1" fill="#ef7f10" d="M 230.5,166.5 C 240.181,172.999 249.181,180.499 257.5,189C 257.05,190.285 256.383,191.452 255.5,192.5C 256.711,193.874 257.711,195.374 258.5,197C 255.931,199.524 255.931,202.024 258.5,204.5C 257.284,207.25 255.284,208.417 252.5,208C 243.229,203.689 234.062,199.189 225,194.5C 226.503,185.162 228.336,175.829 230.5,166.5 Z"/></g>
<g><path style="opacity:1" fill="#ef7f0f" d="M 405.5,168.5 C 406.376,168.369 407.043,168.702 407.5,169.5C 410.64,176.917 413.973,184.251 417.5,191.5C 406.5,197.5 395.5,203.5 384.5,209.5C 382.091,207.157 381.424,204.49 382.5,201.5C 382.278,199.945 381.611,198.611 380.5,197.5C 383.1,194.295 383.1,191.128 380.5,188C 389.019,181.636 397.353,175.136 405.5,168.5 Z"/></g>
<g><path style="opacity:1" fill="#f5b26c" d="M 345.5,171.5 C 345.178,177.358 345.511,183.025 346.5,188.5C 346.217,189.289 345.717,189.956 345,190.5C 344.18,183.986 344.347,177.653 345.5,171.5 Z"/></g>
<g><path style="opacity:1" fill="#1d100e" d="M 273.5,207.5 C 273.17,227.674 273.503,247.674 274.5,267.5C 281.547,275.45 290.214,277.617 300.5,274C 303.997,272.589 306.664,270.256 308.5,267C 309.483,266.409 310.15,266.743 310.5,268C 308.592,276.817 304.592,284.484 298.5,291C 282.705,299.696 270.872,295.862 263,279.5C 262,276.5 261,273.5 260,270.5C 259.333,249.5 259.333,228.5 260,207.5C 260.925,206.953 261.758,206.287 262.5,205.5C 259.833,202.833 259.833,200.167 262.5,197.5C 259.833,194.5 259.833,191.5 262.5,188.5C 260.73,187.18 260.397,185.68 261.5,184C 265.486,183.501 269.486,183.334 273.5,183.5C 273.607,185.903 272.607,187.736 270.5,189C 275.228,191.222 275.561,193.889 271.5,197C 275.452,199.927 275.452,202.761 271.5,205.5C 271.855,206.522 272.522,207.189 273.5,207.5 Z"/></g>
<g><path style="opacity:1" fill="#1c0f0c" d="M 380.5,208.5 C 380.667,229.503 380.5,250.503 380,271.5C 379.338,273.813 378.838,276.146 378.5,278.5C 374.602,286.229 368.602,291.729 360.5,295C 351.268,296.802 343.768,293.969 338,286.5C 333.46,280.545 331.127,273.878 331,266.5C 338.756,275.852 348.256,278.019 359.5,273C 361.96,271.542 364.127,269.709 366,267.5C 366.333,247.5 366.667,227.5 367,207.5C 367.692,206.975 368.192,206.308 368.5,205.5C 365.961,202.816 365.961,200.149 368.5,197.5C 365.853,194.558 365.853,191.558 368.5,188.5C 367.453,186.944 366.786,185.277 366.5,183.5C 370.767,183.203 374.934,183.536 379,184.5C 379.496,186.035 379.33,187.535 378.5,189C 379.167,190.333 379.833,191.667 380.5,193C 379.711,194.626 378.711,196.126 377.5,197.5C 381.118,199.53 381.451,202.03 378.5,205C 378.978,206.303 379.645,207.469 380.5,208.5 Z"/></g>
<g><path style="opacity:1" fill="#f80000" d="M 264.5,186.5 C 265.833,186.5 267.167,186.5 268.5,186.5C 268.262,189.408 269.262,191.742 271.5,193.5C 267.41,196.434 267.743,198.934 272.5,201C 269.355,203.068 268.855,205.568 271,208.5C 271.333,228.5 271.667,248.5 272,268.5C 281.33,278.092 292.163,280.092 304.5,274.5C 304.833,275 305.167,275.5 305.5,276C 298.475,293.208 287.141,297.208 271.5,288C 266.957,283.415 264.124,277.915 263,271.5C 262.333,250.5 262.333,229.5 263,208.5C 266.038,205.981 265.872,203.481 262.5,201C 266.366,198.421 266.366,195.755 262.5,193C 264.229,191.211 264.896,189.044 264.5,186.5 Z"/></g>
<g><path style="opacity:1" fill="#f80000" d="M 371.5,186.5 C 373.199,186.34 374.866,186.506 376.5,187C 375.978,187.561 375.645,188.228 375.5,189C 376.167,190.333 376.833,191.667 377.5,193C 376.711,194.626 375.711,196.126 374.5,197.5C 375.5,198.833 376.5,200.167 377.5,201.5C 374.947,203.962 374.947,206.295 377.5,208.5C 378.666,229.159 378.833,249.825 378,270.5C 375.005,285.849 365.839,293.349 350.5,293C 342.081,288.952 336.914,282.452 335,273.5C 336.579,275.041 338.413,276.208 340.5,277C 349.059,278.638 357.059,277.304 364.5,273C 366.617,271.269 368.117,269.102 369,266.5C 369.333,247.167 369.667,227.833 370,208.5C 372.291,205.545 371.791,203.212 368.5,201.5C 372.432,198.708 372.432,195.875 368.5,193C 370.919,191.491 371.919,189.325 371.5,186.5 Z"/></g>
<g><path style="opacity:1" fill="#f7be83" d="M 293.5,197.5 C 294.816,203.013 294.816,208.68 293.5,214.5C 292.893,214.376 292.56,214.043 292.5,213.5C 293.488,208.36 293.821,203.026 293.5,197.5 Z"/></g>
<g><path style="opacity:1" fill="#f7bf85" d="M 345.5,197.5 C 345.178,203.358 345.511,209.025 346.5,214.5C 346.44,215.043 346.107,215.376 345.5,215.5C 344.183,209.346 344.183,203.346 345.5,197.5 Z"/></g>
<g><path style="opacity:1" fill="#ef7f0f" d="M 216.5,199.5 C 229.301,204.102 241.968,209.102 254.5,214.5C 255.495,219.792 255.828,225.125 255.5,230.5C 242.51,229.44 229.51,228.44 216.5,227.5C 216.5,218.167 216.5,208.833 216.5,199.5 Z"/></g>
<g><path style="opacity:1" fill="#ef7f0f" d="M 418.5,199.5 C 419.75,199.577 420.583,200.244 421,201.5C 424.424,209.67 427.257,218.003 429.5,226.5C 414.105,227.675 398.771,229.341 383.5,231.5C 383.171,225.794 383.505,220.128 384.5,214.5C 395.923,209.45 407.257,204.45 418.5,199.5 Z"/></g>
<g><path style="opacity:1" fill="#f0821a" d="M 274.5,207.5 C 274.565,204.002 275.899,203.502 278.5,206C 283.354,210.355 288.354,214.522 293.5,218.5C 294.833,221.833 294.833,225.167 293.5,228.5C 288.08,225.373 282.58,222.373 277,219.5C 277.102,215.044 276.268,211.044 274.5,207.5 Z"/></g>
<g><path style="opacity:1" fill="#ef8217" d="M 346.5,226.5 C 345.532,224.393 345.198,222.059 345.5,219.5C 350.971,214.199 356.638,209.033 362.5,204C 363.167,203.333 363.833,203.333 364.5,204C 362.967,208.988 361.967,214.154 361.5,219.5C 356.594,222.121 351.594,224.454 346.5,226.5 Z"/></g>
<g><path style="opacity:1" fill="#f7c087" d="M 345.5,219.5 C 345.198,222.059 345.532,224.393 346.5,226.5C 346.44,227.043 346.107,227.376 345.5,227.5C 344.2,224.691 344.2,222.024 345.5,219.5 Z"/></g>
<g><path style="opacity:1" fill="#f0861f" d="M 276.5,223.5 C 281.925,225.377 287.259,227.544 292.5,230C 287.177,230.499 281.844,230.666 276.5,230.5C 276.5,228.167 276.5,225.833 276.5,223.5 Z"/></g>
<g><path style="opacity:1" fill="#ef8217" d="M 358.5,224.5 C 359.5,224.5 360.5,224.5 361.5,224.5C 361.5,226.5 361.5,228.5 361.5,230.5C 356.821,230.666 352.155,230.499 347.5,230C 351.402,228.435 355.069,226.602 358.5,224.5 Z"/></g>
<g><path style="opacity:1" fill="#ef7e0e" d="M 254.5,236.5 C 254.5,243.833 254.5,251.167 254.5,258.5C 242.087,258.813 229.753,258.479 217.5,257.5C 216.167,249.835 214.834,242.168 213.5,234.5C 227.345,234.701 241.011,235.367 254.5,236.5 Z"/></g>
<g><path style="opacity:1" fill="#8a93a9" d="M 273.5,207.5 C 273.833,207.5 274.167,207.5 274.5,207.5C 274.5,223.5 274.5,239.5 274.5,255.5C 304.671,255.169 334.671,255.502 364.5,256.5C 334.5,256.5 304.5,256.5 274.5,256.5C 274.5,257.833 274.5,259.167 274.5,260.5C 274.5,262.833 274.5,265.167 274.5,267.5C 273.503,247.674 273.17,227.674 273.5,207.5 Z"/></g>
<g><path style="opacity:1" fill="#ef7e0d" d="M 416.5,233.5 C 419.5,233.5 422.5,233.5 425.5,233.5C 424.313,242.143 423.313,250.81 422.5,259.5C 409.5,259.5 396.5,259.5 383.5,259.5C 383.5,251.833 383.5,244.167 383.5,236.5C 394.711,236.199 405.711,235.199 416.5,233.5 Z"/></g>
<g><path style="opacity:1" fill="#121212" d="M 285.5,234.5 C 287.411,234.574 288.578,235.574 289,237.5C 292.047,234.69 293.38,235.357 293,239.5C 291.315,241.017 289.815,242.684 288.5,244.5C 290.813,247.121 292.147,250.121 292.5,253.5C 289.962,252.323 287.629,250.656 285.5,248.5C 284.352,250.149 283.019,251.649 281.5,253C 278.909,253.301 278.075,252.134 279,249.5C 280.685,247.983 282.185,246.316 283.5,244.5C 281.588,242.343 279.921,240.009 278.5,237.5C 278.833,236.5 279.5,235.833 280.5,235.5C 281.814,236.313 282.981,237.313 284,238.5C 284.41,237.099 284.91,235.766 285.5,234.5 Z"/></g>
<g><path style="opacity:1" fill="#151515" d="M 301.5,234.5 C 302.5,234.5 303.5,234.5 304.5,234.5C 304.343,235.873 304.51,237.207 305,238.5C 305.908,236.561 307.408,235.561 309.5,235.5C 308.929,238.931 307.596,242.098 305.5,245C 307.652,247.133 308.819,249.633 309,252.5C 308.282,253.451 307.449,253.617 306.5,253C 304.981,251.649 303.648,250.149 302.5,248.5C 300.371,250.656 298.038,252.323 295.5,253.5C 295.853,250.121 297.187,247.121 299.5,244.5C 297.187,241.879 295.853,238.879 295.5,235.5C 297.39,235.297 298.89,235.963 300,237.5C 300.513,236.473 301.013,235.473 301.5,234.5 Z"/></g>
<g><path style="opacity:1" fill="#151515" d="M 318.5,234.5 C 320.411,234.574 321.578,235.574 322,237.5C 325.047,234.69 326.38,235.357 326,239.5C 324.38,241.241 322.88,243.075 321.5,245C 324.321,247.141 325.654,249.975 325.5,253.5C 322.956,252.532 320.789,250.865 319,248.5C 317.316,250.351 315.483,252.018 313.5,253.5C 312.5,253.167 311.833,252.5 311.5,251.5C 312.779,248.888 314.445,246.555 316.5,244.5C 314.588,242.343 312.921,240.009 311.5,237.5C 313.622,234.86 315.456,235.194 317,238.5C 317.41,237.099 317.91,235.766 318.5,234.5 Z"/></g>
<g><path style="opacity:1" fill="#151515" d="M 335.5,234.5 C 336.5,234.5 337.5,234.5 338.5,234.5C 338.343,235.873 338.51,237.207 339,238.5C 339.908,236.561 341.408,235.561 343.5,235.5C 342.929,238.931 341.596,242.098 339.5,245C 341.652,247.133 342.819,249.633 343,252.5C 342.282,253.451 341.449,253.617 340.5,253C 338.981,251.649 337.648,250.149 336.5,248.5C 334.371,250.656 332.038,252.323 329.5,253.5C 329.853,250.121 331.187,247.121 333.5,244.5C 331.187,241.879 329.853,238.879 329.5,235.5C 331.39,235.297 332.89,235.963 334,237.5C 334.513,236.473 335.013,235.473 335.5,234.5 Z"/></g>
<g><path style="opacity:1" fill="#121212" d="M 352.5,234.5 C 354.411,234.574 355.578,235.574 356,237.5C 359.047,234.69 360.38,235.357 360,239.5C 355.013,242.677 354.68,246.011 359,249.5C 359.49,250.793 359.657,252.127 359.5,253.5C 356.956,252.532 354.789,250.865 353,248.5C 351.316,250.351 349.483,252.018 347.5,253.5C 346.5,253.167 345.833,252.5 345.5,251.5C 346.779,248.888 348.445,246.555 350.5,244.5C 348.588,242.343 346.921,240.009 345.5,237.5C 345.833,236.5 346.5,235.833 347.5,235.5C 348.814,236.313 349.981,237.313 351,238.5C 351.41,237.099 351.91,235.766 352.5,234.5 Z"/></g>
<g><path style="opacity:1" fill="#a4a5a7" d="M 380.5,208.5 C 380.837,227.689 381.837,246.689 383.5,265.5C 381.938,269.87 380.271,274.203 378.5,278.5C 378.838,276.146 379.338,273.813 380,271.5C 380.5,250.503 380.667,229.503 380.5,208.5 Z"/></g>
<g><path style="opacity:1" fill="#0a3d9c" d="M 364.5,256.5 C 365.833,257.833 365.833,259.167 364.5,260.5C 334.833,260.5 305.167,260.5 275.5,260.5C 275.167,260.5 274.833,260.5 274.5,260.5C 274.5,259.167 274.5,257.833 274.5,256.5C 304.5,256.5 334.5,256.5 364.5,256.5 Z"/></g>
<g><path style="opacity:1" fill="#f3a04c" d="M 254.5,236.5 C 255.492,243.982 255.825,251.648 255.5,259.5C 242.456,260.147 229.789,259.48 217.5,257.5C 229.753,258.479 242.087,258.813 254.5,258.5C 254.5,251.167 254.5,243.833 254.5,236.5 Z"/></g>
<g><path style="opacity:1" fill="#9cb0d7" d="M 275.5,260.5 C 305.167,260.5 334.833,260.5 364.5,260.5C 358.167,261.167 351.833,261.833 345.5,262.5C 340.5,262.5 335.5,262.5 330.5,262.5C 323.167,261.167 315.833,261.167 308.5,262.5C 303.833,262.5 299.167,262.5 294.5,262.5C 288.167,261.833 281.833,261.167 275.5,260.5 Z"/></g>
<g><path style="opacity:1" fill="#14409e" d="M 294.5,262.5 C 299.167,262.5 303.833,262.5 308.5,262.5C 305.731,269.472 300.565,272.472 293,271.5C 290.167,271.333 287.333,271.167 284.5,271C 287.227,267.468 290.56,264.634 294.5,262.5 Z"/></g>
<g><path style="opacity:1" fill="#10409d" d="M 330.5,262.5 C 335.5,262.5 340.5,262.5 345.5,262.5C 349.1,264.43 352.1,267.097 354.5,270.5C 348.416,271.91 342.416,271.743 336.5,270C 333.906,267.914 331.906,265.414 330.5,262.5 Z"/></g>
<g><path style="opacity:1" fill="#12409e" d="M 248.5,265.5 C 251.881,265.46 255.214,265.793 258.5,266.5C 258.188,270.675 258.855,274.675 260.5,278.5C 247.517,279.499 234.517,279.832 221.5,279.5C 220.956,275.9 219.956,272.4 218.5,269C 218.63,267.941 219.13,267.108 220,266.5C 223.26,270.092 227.26,272.425 232,273.5C 237.885,271.473 243.385,268.807 248.5,265.5 Z"/></g>
<g><path style="opacity:1" fill="#11409d" d="M 383.5,265.5 C 386.91,265.457 390.243,265.957 393.5,267C 397.796,269.639 402.296,271.805 407,273.5C 412.198,272.735 416.531,270.402 420,266.5C 420.692,267.025 421.192,267.692 421.5,268.5C 420.488,272.402 418.821,275.902 416.5,279C 403.66,279.827 390.993,279.66 378.5,278.5C 380.271,274.203 381.938,269.87 383.5,265.5 Z"/></g>
<g><path style="opacity:1" fill="#17439f" d="M 314.5,271.5 C 318.936,271.21 323.27,271.71 327.5,273C 329.451,274.734 330.451,276.901 330.5,279.5C 323.492,279.666 316.492,279.5 309.5,279C 308.72,277.927 308.887,276.76 310,275.5C 311.397,273.93 312.897,272.596 314.5,271.5 Z"/></g>
<g><path style="opacity:1" fill="#13429e" d="M 230.5,282.5 C 232.857,282.337 235.19,282.503 237.5,283C 242.288,285.729 247.288,287.895 252.5,289.5C 255.863,288.985 258.863,287.652 261.5,285.5C 265.132,289.633 269.465,292.8 274.5,295C 256.158,295.833 237.824,295.666 219.5,294.5C 219.291,293.914 218.957,293.414 218.5,293C 222.101,288.889 226.101,285.389 230.5,282.5 Z"/></g>
<g><path style="opacity:1" fill="#16429f" d="M 316.5,281.5 C 324.692,281.345 331.526,284.345 337,290.5C 338.559,292.217 339.392,294.217 339.5,296.5C 326.829,296.667 314.162,296.5 301.5,296C 300.483,294.951 300.316,293.784 301,292.5C 305.478,287.694 310.644,284.027 316.5,281.5 Z"/></g>
<g><path style="opacity:1" fill="#15429e" d="M 400.5,282.5 C 404.792,282.035 408.792,282.868 412.5,285C 415.349,288.016 418.349,290.85 421.5,293.5C 421.291,294.086 420.957,294.586 420.5,295C 402.167,295.667 383.833,295.667 365.5,295C 369.98,292.343 373.98,289.177 377.5,285.5C 380.043,287.565 382.876,288.899 386,289.5C 391.475,288.345 396.309,286.011 400.5,282.5 Z"/></g>
<g><path style="opacity:1" fill="#0f3f9d" d="M 404.5,312.5 C 376.5,312.5 348.5,312.5 320.5,312.5C 298.167,312.5 275.833,312.5 253.5,312.5C 247.491,312.666 241.491,312.499 235.5,312C 233.5,311.333 232.167,310 231.5,308C 238.562,303.219 246.062,299.386 254,296.5C 260.416,298.124 266.249,300.958 271.5,305C 274.167,305.667 276.833,305.667 279.5,305C 284.46,300.852 290.127,298.352 296.5,297.5C 299.259,297.542 301.925,298.042 304.5,299C 308.931,302.106 313.764,304.272 319,305.5C 326.879,303.391 334.546,300.725 342,297.5C 344.547,297.762 347.047,298.262 349.5,299C 353.931,302.106 358.764,304.272 364,305.5C 370.969,302.557 377.969,299.557 385,296.5C 393.437,297.712 400.104,301.712 405,308.5C 405.579,309.928 405.412,311.262 404.5,312.5 Z"/></g>
<g><path style="opacity:1" fill="#c7d2e8" d="M 253.5,312.5 C 275.833,312.5 298.167,312.5 320.5,312.5C 320.5,312.833 320.5,313.167 320.5,313.5C 306.656,313.171 292.99,313.504 279.5,314.5C 277.167,314.5 274.833,314.5 272.5,314.5C 266.167,313.833 259.833,313.167 253.5,312.5 Z"/></g>
<g><path style="opacity:1" fill="#8aa2cf" d="M 320.5,313.5 C 320.5,313.167 320.5,312.833 320.5,312.5C 348.5,312.5 376.5,312.5 404.5,312.5C 392.167,313.167 379.833,313.833 367.5,314.5C 364.167,314.5 360.833,314.5 357.5,314.5C 345.345,313.505 333.011,313.171 320.5,313.5 Z"/></g>
<g><path style="opacity:1" fill="#f8f9fc" d="M 279.5,314.5 C 292.99,313.504 306.656,313.171 320.5,313.5C 333.011,313.171 345.345,313.505 357.5,314.5C 354.286,315.44 351.286,316.94 348.5,319C 346.091,319.935 343.591,320.435 341,320.5C 334.057,317.783 326.89,315.783 319.5,314.5C 312.057,316.633 304.557,318.633 297,320.5C 290.82,319.492 284.986,317.492 279.5,314.5 Z"/></g>
<g><path style="opacity:1" fill="#0e3e9d" d="M 272.5,314.5 C 274.833,314.5 277.167,314.5 279.5,314.5C 284.986,317.492 290.82,319.492 297,320.5C 304.557,318.633 312.057,316.633 319.5,314.5C 326.89,315.783 334.057,317.783 341,320.5C 343.591,320.435 346.091,319.935 348.5,319C 351.286,316.94 354.286,315.44 357.5,314.5C 360.833,314.5 364.167,314.5 367.5,314.5C 376.492,316.496 384.158,320.829 390.5,327.5C 361.338,328.498 332.005,328.831 302.5,328.5C 286.452,328.182 270.452,328.515 254.5,329.5C 252.167,327.833 250.167,325.833 248.5,323.5C 256.216,319.706 264.216,316.706 272.5,314.5 Z"/></g>
<g><path style="opacity:1" fill="#6d8cc4" d="M 390.5,327.5 C 391.043,327.56 391.376,327.893 391.5,328.5C 361.669,329.83 332.003,329.83 302.5,328.5C 332.005,328.831 361.338,328.498 390.5,327.5 Z"/></g>
<g><path style="opacity:1" fill="#113f9d" d="M 291.5,330.5 C 296.58,330.25 301.58,330.75 306.5,332C 310.607,334.72 314.94,336.887 319.5,338.5C 326.635,335.265 333.968,332.598 341.5,330.5C 349.494,331.163 356.828,333.663 363.5,338C 349.891,343.031 336.057,347.531 322,351.5C 307.304,348.273 292.637,344.94 278,341.5C 277.228,341.645 276.561,341.978 276,342.5C 275.219,341.056 275.386,339.723 276.5,338.5C 281.434,335.535 286.434,332.869 291.5,330.5 Z"/></g>
<g><path style="opacity:1" fill="#dd200f" d="M -0.5,359.5 C 212.833,359.5 426.167,359.5 639.5,359.5C 639.5,399.5 639.5,439.5 639.5,479.5C 426.167,479.5 212.833,479.5 -0.5,479.5C -0.5,439.5 -0.5,399.5 -0.5,359.5 Z"/></g>
</svg>
