<?xml version="1.0" encoding="UTF-8"?>
<!DOCTYPE svg PUBLIC "-//W3C//DTD SVG 1.1//EN" "http://www.w3.org/Graphics/SVG/1.1/DTD/svg11.dtd">
<svg xmlns="http://www.w3.org/2000/svg" version="1.1" width="640px" height="480px" style="shape-rendering:geometricPrecision; text-rendering:geometricPrecision; image-rendering:optimizeQuality; fill-rule:evenodd; clip-rule:evenodd" xmlns:xlink="http://www.w3.org/1999/xlink">
<g><path style="opacity:1" fill="#fffefe" d="M -0.5,-0.5 C 90.1667,-0.5 180.833,-0.5 271.5,-0.5C 271.5,63.5 271.5,127.5 271.5,191.5C 180.833,191.5 90.1667,191.5 -0.5,191.5C -0.5,127.5 -0.5,63.5 -0.5,-0.5 Z"/></g>
<g><path style="opacity:1" fill="#fe0000" d="M 271.5,-0.5 C 303.5,-0.5 335.5,-0.5 367.5,-0.5C 367.5,63.5 367.5,127.5 367.5,191.5C 458.167,191.5 548.833,191.5 639.5,191.5C 639.5,223.5 639.5,255.5 639.5,287.5C 548.833,287.5 458.167,287.5 367.5,287.5C 367.5,351.5 367.5,415.5 367.5,479.5C 335.5,479.5 303.5,479.5 271.5,479.5C 271.5,415.5 271.5,351.5 271.5,287.5C 180.833,287.5 90.1667,287.5 -0.5,287.5C -0.5,255.5 -0.5,223.5 -0.5,191.5C 90.1667,191.5 180.833,191.5 271.5,191.5C 271.5,127.5 271.5,63.5 271.5,-0.5 Z"/></g>
<g><path style="opacity:1" fill="#fffefe" d="M 367.5,-0.5 C 458.167,-0.5 548.833,-0.5 639.5,-0.5C 639.5,63.5 639.5,127.5 639.5,191.5C 548.833,191.5 458.167,191.5 367.5,191.5C 367.5,127.5 367.5,63.5 367.5,-0.5 Z"/></g>
<g><path style="opacity:1" fill="#ff0803" d="M 149.5,134.5 C 147.365,136.369 144.698,137.036 141.5,136.5C 134.471,136.377 127.471,136.71 120.5,137.5C 122.243,127.223 123.576,116.889 124.5,106.5C 115.101,106.938 105.767,107.938 96.5,109.5C 94.631,107.365 93.9644,104.698 94.5,101.5C 94.811,94.9102 94.4777,88.4102 93.5,82C 103.809,82.7805 114.142,83.6138 124.5,84.5C 123.268,74.1815 122.434,63.8481 122,53.5C 131.455,54.54 140.955,54.7067 150.5,54C 147.966,63.9699 146.632,74.1366 146.5,84.5C 156.934,83.8963 167.267,82.563 177.5,80.5C 176.283,90.4921 176.283,100.492 177.5,110.5C 167.267,108.419 156.934,107.086 146.5,106.5C 147.498,115.826 148.498,125.159 149.5,134.5 Z"/></g>
<g><path style="opacity:1" fill="#ff0803" d="M 517.5,134.5 C 515.365,136.369 512.698,137.036 509.5,136.5C 502.471,136.377 495.471,136.71 488.5,137.5C 490.243,127.223 491.576,116.889 492.5,106.5C 483.101,106.938 473.767,107.938 464.5,109.5C 462.631,107.365 461.964,104.698 462.5,101.5C 462.811,94.9102 462.478,88.4102 461.5,82C 471.804,82.8 482.137,83.6333 492.5,84.5C 491.268,74.1815 490.434,63.8481 490,53.5C 499.455,54.54 508.955,54.7067 518.5,54C 515.966,63.9699 514.632,74.1366 514.5,84.5C 524.934,83.9142 535.267,82.5808 545.5,80.5C 544.58,90.5312 544.247,100.531 544.5,110.5C 534.578,108.657 524.578,107.323 514.5,106.5C 515.06,115.893 516.06,125.227 517.5,134.5 Z"/></g>
<g><path style="opacity:1" fill="#ff7169" d="M 94.5,101.5 C 93.9644,104.698 94.631,107.365 96.5,109.5C 95.791,110.404 94.791,110.737 93.5,110.5C 93.19,107.287 93.5233,104.287 94.5,101.5 Z"/></g>
<g><path style="opacity:1" fill="#ff7169" d="M 462.5,101.5 C 461.964,104.698 462.631,107.365 464.5,109.5C 463.791,110.404 462.791,110.737 461.5,110.5C 461.19,107.287 461.523,104.287 462.5,101.5 Z"/></g>
<g><path style="opacity:1" fill="#ff6e67" d="M 149.5,134.5 C 150.404,135.209 150.737,136.209 150.5,137.5C 147.287,137.81 144.287,137.477 141.5,136.5C 144.698,137.036 147.365,136.369 149.5,134.5 Z"/></g>
<g><path style="opacity:1" fill="#ff6e67" d="M 517.5,134.5 C 518.404,135.209 518.737,136.209 518.5,137.5C 515.287,137.81 512.287,137.477 509.5,136.5C 512.698,137.036 515.365,136.369 517.5,134.5 Z"/></g>
<g><path style="opacity:1" fill="#fffefe" d="M -0.5,287.5 C 90.1667,287.5 180.833,287.5 271.5,287.5C 271.5,351.5 271.5,415.5 271.5,479.5C 180.833,479.5 90.1667,479.5 -0.5,479.5C -0.5,415.5 -0.5,351.5 -0.5,287.5 Z"/></g>
<g><path style="opacity:1" fill="#fffefe" d="M 639.5,287.5 C 639.5,351.5 639.5,415.5 639.5,479.5C 548.833,479.5 458.167,479.5 367.5,479.5C 367.5,415.5 367.5,351.5 367.5,287.5C 458.167,287.5 548.833,287.5 639.5,287.5 Z"/></g>
<g><path style="opacity:1" fill="#ff0803" d="M 149.5,422.5 C 147.365,424.369 144.698,425.036 141.5,424.5C 134.471,424.377 127.471,424.71 120.5,425.5C 122.243,415.223 123.576,404.889 124.5,394.5C 115.101,394.938 105.767,395.938 96.5,397.5C 94.631,395.365 93.9644,392.698 94.5,389.5C 94.811,382.91 94.4777,376.41 93.5,370C 103.809,370.781 114.142,371.614 124.5,372.5C 123.268,362.181 122.434,351.848 122,341.5C 131.455,342.54 140.955,342.707 150.5,342C 147.966,351.97 146.632,362.137 146.5,372.5C 156.934,371.896 167.267,370.563 177.5,368.5C 176.283,378.492 176.283,388.492 177.5,398.5C 167.267,396.419 156.934,395.086 146.5,394.5C 147.498,403.826 148.498,413.159 149.5,422.5 Z"/></g>
<g><path style="opacity:1" fill="#ff0803" d="M 517.5,422.5 C 515.365,424.369 512.698,425.036 509.5,424.5C 502.471,424.377 495.471,424.71 488.5,425.5C 490.243,415.223 491.576,404.889 492.5,394.5C 483.101,394.938 473.767,395.938 464.5,397.5C 462.631,395.365 461.964,392.698 462.5,389.5C 462.811,382.91 462.478,376.41 461.5,370C 471.809,370.781 482.142,371.614 492.5,372.5C 491.268,362.181 490.434,351.848 490,341.5C 499.455,342.54 508.955,342.707 518.5,342C 515.966,351.97 514.632,362.137 514.5,372.5C 524.934,371.914 535.267,370.581 545.5,368.5C 544.283,378.492 544.283,388.492 545.5,398.5C 535.267,396.419 524.934,395.086 514.5,394.5C 515.498,403.826 516.498,413.159 517.5,422.5 Z"/></g>
<g><path style="opacity:1" fill="#ff7169" d="M 94.5,389.5 C 93.9644,392.698 94.631,395.365 96.5,397.5C 95.791,398.404 94.791,398.737 93.5,398.5C 93.19,395.287 93.5233,392.287 94.5,389.5 Z"/></g>
<g><path style="opacity:1" fill="#ff7169" d="M 462.5,389.5 C 461.964,392.698 462.631,395.365 464.5,397.5C 463.791,398.404 462.791,398.737 461.5,398.5C 461.19,395.287 461.523,392.287 462.5,389.5 Z"/></g>
<g><path style="opacity:1" fill="#ff6e67" d="M 149.5,422.5 C 150.404,423.209 150.737,424.209 150.5,425.5C 147.287,425.81 144.287,425.477 141.5,424.5C 144.698,425.036 147.365,424.369 149.5,422.5 Z"/></g>
<g><path style="opacity:1" fill="#ff6e67" d="M 517.5,422.5 C 518.404,423.209 518.737,424.209 518.5,425.5C 515.287,425.81 512.287,425.477 509.5,424.5C 512.698,425.036 515.365,424.369 517.5,422.5 Z"/></g>
</svg>
