<?xml version="1.0" encoding="UTF-8"?>
<!DOCTYPE svg PUBLIC "-//W3C//DTD SVG 1.1//EN" "http://www.w3.org/Graphics/SVG/1.1/DTD/svg11.dtd">
<svg xmlns="http://www.w3.org/2000/svg" version="1.1" width="640px" height="480px" style="shape-rendering:geometricPrecision; text-rendering:geometricPrecision; image-rendering:optimizeQuality; fill-rule:evenodd; clip-rule:evenodd" xmlns:xlink="http://www.w3.org/1999/xlink">
<g><path style="opacity:1" fill="#cd1125" d="M -0.5,-0.5 C 212.833,-0.5 426.167,-0.5 639.5,-0.5C 639.5,52.8333 639.5,106.167 639.5,159.5C 426.167,159.5 212.833,159.5 -0.5,159.5C -0.5,106.167 -0.5,52.8333 -0.5,-0.5 Z"/></g>
<g><path style="opacity:1" fill="#fbd015" d="M -0.5,159.5 C 212.833,159.5 426.167,159.5 639.5,159.5C 639.5,212.833 639.5,266.167 639.5,319.5C 549.621,320.16 459.954,319.493 370.5,317.5C 364.875,297.79 358.541,278.29 351.5,259C 367.715,246.61 384.049,234.443 400.5,222.5C 401.289,222.217 401.956,221.717 402.5,221C 381.503,220.5 360.503,220.333 339.5,220.5C 333.037,200.445 326.371,180.445 319.5,160.5C 312.629,180.445 305.963,200.445 299.5,220.5C 278.497,220.333 257.497,220.5 236.5,221C 237.044,221.717 237.711,222.217 238.5,222.5C 254.951,234.443 271.285,246.61 287.5,259C 280.459,278.29 274.125,297.79 268.5,317.5C 179.046,319.493 89.3789,320.16 -0.5,319.5C -0.5,266.167 -0.5,212.833 -0.5,159.5 Z"/></g>
<g><path style="opacity:1" fill="#030200" d="M 339.5,220.5 C 359.833,221.167 380.167,221.833 400.5,222.5C 384.049,234.443 367.715,246.61 351.5,259C 358.541,278.29 364.875,297.79 370.5,317.5C 370.5,317.833 370.5,318.167 370.5,318.5C 353.665,306.251 336.665,294.251 319.5,282.5C 302.335,294.251 285.335,306.251 268.5,318.5C 268.5,318.167 268.5,317.833 268.5,317.5C 274.125,297.79 280.459,278.29 287.5,259C 271.285,246.61 254.951,234.443 238.5,222.5C 258.833,221.833 279.167,221.167 299.5,220.5C 305.963,200.445 312.629,180.445 319.5,160.5C 326.371,180.445 333.037,200.445 339.5,220.5 Z"/></g>
<g><path style="opacity:1" fill="#211b02" d="M 299.5,220.5 C 279.167,221.167 258.833,221.833 238.5,222.5C 237.711,222.217 237.044,221.717 236.5,221C 257.497,220.5 278.497,220.333 299.5,220.5 Z"/></g>
<g><path style="opacity:1" fill="#221c03" d="M 339.5,220.5 C 360.503,220.333 381.503,220.5 402.5,221C 401.956,221.717 401.289,222.217 400.5,222.5C 380.167,221.833 359.833,221.167 339.5,220.5 Z"/></g>
<g><path style="opacity:1" fill="#f9cf15" d="M 370.5,318.5 C 336.5,319.833 302.5,319.833 268.5,318.5C 285.335,306.251 302.335,294.251 319.5,282.5C 336.665,294.251 353.665,306.251 370.5,318.5 Z"/></g>
<g><path style="opacity:1" fill="#006b3e" d="M 268.5,317.5 C 268.5,317.833 268.5,318.167 268.5,318.5C 302.5,319.833 336.5,319.833 370.5,318.5C 370.5,318.167 370.5,317.833 370.5,317.5C 459.954,319.493 549.621,320.16 639.5,319.5C 639.5,372.833 639.5,426.167 639.5,479.5C 426.167,479.5 212.833,479.5 -0.5,479.5C -0.5,426.167 -0.5,372.833 -0.5,319.5C 89.3789,320.16 179.046,319.493 268.5,317.5 Z"/></g>
</svg>
