<?xml version="1.0" encoding="UTF-8"?>
<!DOCTYPE svg PUBLIC "-//W3C//DTD SVG 1.1//EN" "http://www.w3.org/Graphics/SVG/1.1/DTD/svg11.dtd">
<svg xmlns="http://www.w3.org/2000/svg" version="1.1" width="640px" height="480px" style="shape-rendering:geometricPrecision; text-rendering:geometricPrecision; image-rendering:optimizeQuality; fill-rule:evenodd; clip-rule:evenodd" xmlns:xlink="http://www.w3.org/1999/xlink">
<g><path style="opacity:1" fill="#fefefe" d="M -0.5,-0.5 C 212.833,-0.5 426.167,-0.5 639.5,-0.5C 639.5,106.833 639.5,214.167 639.5,321.5C 536.5,321.5 433.5,321.5 330.5,321.5C 330.5,319.833 330.5,318.167 330.5,316.5C 350.5,316.5 370.5,316.5 390.5,316.5C 390.5,314.833 390.5,313.167 390.5,311.5C 413.339,311.831 436.006,311.497 458.5,310.5C 458.234,306.429 458.567,302.429 459.5,298.5C 453.753,295.304 448.419,291.638 443.5,287.5C 443.5,253.167 443.5,218.833 443.5,184.5C 445.833,184.5 448.167,184.5 450.5,184.5C 450.5,181.5 450.5,178.5 450.5,175.5C 453.167,175.5 455.833,175.5 458.5,175.5C 459.492,168.352 459.825,161.019 459.5,153.5C 455.629,153.185 451.962,153.518 448.5,154.5C 447.521,157.625 447.187,160.958 447.5,164.5C 443.5,164.5 439.5,164.5 435.5,164.5C 434.521,161.375 434.187,158.042 434.5,154.5C 431.375,153.521 428.042,153.187 424.5,153.5C 424.5,132.167 424.5,110.833 424.5,89.5C 425.833,89.5 427.167,89.5 428.5,89.5C 428.5,86.5 428.5,83.5 428.5,80.5C 430.5,80.5 432.5,80.5 434.5,80.5C 435.49,74.3554 435.823,68.0221 435.5,61.5C 430.5,61.5 425.5,61.5 420.5,61.5C 420.5,64.5 420.5,67.5 420.5,70.5C 417.167,70.5 413.833,70.5 410.5,70.5C 410.5,67.8333 410.5,65.1667 410.5,62.5C 403.687,61.5088 396.687,61.1755 389.5,61.5C 389.5,64.5 389.5,67.5 389.5,70.5C 386.167,70.5 382.833,70.5 379.5,70.5C 379.5,67.8333 379.5,65.1667 379.5,62.5C 375.702,61.5166 371.702,61.1832 367.5,61.5C 367.177,68.0221 367.51,74.3554 368.5,80.5C 369.5,80.5 370.5,80.5 371.5,80.5C 371.5,83.5 371.5,86.5 371.5,89.5C 372.209,90.404 373.209,90.7373 374.5,90.5C 374.822,111.909 374.488,133.242 373.5,154.5C 373.5,157.833 373.5,161.167 373.5,164.5C 368.5,164.5 363.5,164.5 358.5,164.5C 358.813,160.958 358.479,157.625 357.5,154.5C 356.432,153.566 355.099,153.232 353.5,153.5C 353.5,126.5 353.5,99.5 353.5,72.5C 355.167,72.5 356.833,72.5 358.5,72.5C 358.5,68.5 358.5,64.5 358.5,60.5C 360.833,60.5 363.167,60.5 365.5,60.5C 365.5,55.1667 365.5,49.8333 365.5,44.5C 361.167,44.5 356.833,44.5 352.5,44.5C 352.5,47.1667 352.5,49.8333 352.5,52.5C 348.833,52.5 345.167,52.5 341.5,52.5C 341.5,49.8333 341.5,47.1667 341.5,44.5C 336.167,44.5 330.833,44.5 325.5,44.5C 324.532,46.6074 324.198,48.9407 324.5,51.5C 321.167,51.5 317.833,51.5 314.5,51.5C 314.802,48.9407 314.468,46.6074 313.5,44.5C 308.167,44.5 302.833,44.5 297.5,44.5C 297.5,47.1667 297.5,49.8333 297.5,52.5C 293.833,52.5 290.167,52.5 286.5,52.5C 286.5,49.8333 286.5,47.1667 286.5,44.5C 282.167,44.5 277.833,44.5 273.5,44.5C 273.5,49.8333 273.5,55.1667 273.5,60.5C 275.833,60.5 278.167,60.5 280.5,60.5C 280.5,64.5 280.5,68.5 280.5,72.5C 282.167,72.5 283.833,72.5 285.5,72.5C 285.5,99.5 285.5,126.5 285.5,153.5C 283.585,153.216 281.919,153.549 280.5,154.5C 280.5,157.833 280.5,161.167 280.5,164.5C 275.5,164.5 270.5,164.5 265.5,164.5C 265.5,161.167 265.5,157.833 265.5,154.5C 264.512,133.242 264.178,111.909 264.5,90.5C 265.791,90.7373 266.791,90.404 267.5,89.5C 267.5,86.5 267.5,83.5 267.5,80.5C 268.5,80.5 269.5,80.5 270.5,80.5C 271.49,74.3554 271.823,68.0221 271.5,61.5C 267.298,61.1832 263.298,61.5166 259.5,62.5C 259.5,65.1667 259.5,67.8333 259.5,70.5C 256.167,70.5 252.833,70.5 249.5,70.5C 249.5,67.5 249.5,64.5 249.5,61.5C 242.313,61.1755 235.313,61.5088 228.5,62.5C 228.5,65.1667 228.5,67.8333 228.5,70.5C 225.167,70.5 221.833,70.5 218.5,70.5C 218.5,67.5 218.5,64.5 218.5,61.5C 213.5,61.5 208.5,61.5 203.5,61.5C 203.177,68.0221 203.51,74.3554 204.5,80.5C 206.5,80.5 208.5,80.5 210.5,80.5C 210.5,83.5 210.5,86.5 210.5,89.5C 211.833,89.5 213.167,89.5 214.5,89.5C 214.5,110.833 214.5,132.167 214.5,153.5C 210.958,153.187 207.625,153.521 204.5,154.5C 203.521,157.625 203.187,160.958 203.5,164.5C 199.5,164.5 195.5,164.5 191.5,164.5C 191.813,160.958 191.479,157.625 190.5,154.5C 187.038,153.518 183.371,153.185 179.5,153.5C 179.175,161.019 179.508,168.352 180.5,175.5C 183.167,175.5 185.833,175.5 188.5,175.5C 188.5,178.5 188.5,181.5 188.5,184.5C 190.833,184.5 193.167,184.5 195.5,184.5C 195.5,218.833 195.5,253.167 195.5,287.5C 195.5,287.833 195.5,288.167 195.5,288.5C 190.185,291.826 184.852,295.159 179.5,298.5C 180.433,302.429 180.766,306.429 180.5,310.5C 203.167,310.5 225.833,310.5 248.5,310.5C 248.5,312.5 248.5,314.5 248.5,316.5C 268.833,316.5 289.167,316.5 309.5,316.5C 309.5,318.167 309.5,319.833 309.5,321.5C 206.167,321.5 102.833,321.5 -0.5,321.5C -0.5,214.167 -0.5,106.833 -0.5,-0.5 Z"/></g>
<g><path style="opacity:1" fill="#0d0201" d="M 313.5,44.5 C 313.5,47.1667 313.5,49.8333 313.5,52.5C 317.5,52.5 321.5,52.5 325.5,52.5C 325.5,49.8333 325.5,47.1667 325.5,44.5C 330.833,44.5 336.167,44.5 341.5,44.5C 341.5,47.1667 341.5,49.8333 341.5,52.5C 345.167,52.5 348.833,52.5 352.5,52.5C 352.5,49.8333 352.5,47.1667 352.5,44.5C 356.833,44.5 361.167,44.5 365.5,44.5C 365.5,49.8333 365.5,55.1667 365.5,60.5C 363.167,60.5 360.833,60.5 358.5,60.5C 358.5,64.5 358.5,68.5 358.5,72.5C 356.833,72.5 355.167,72.5 353.5,72.5C 352.502,99.6616 352.169,126.995 352.5,154.5C 354.167,154.5 355.833,154.5 357.5,154.5C 357.5,158.167 357.5,161.833 357.5,165.5C 363.026,165.821 368.36,165.488 373.5,164.5C 373.5,161.167 373.5,157.833 373.5,154.5C 375.489,133.192 376.156,111.526 375.5,89.5C 374.167,89.5 372.833,89.5 371.5,89.5C 371.5,86.5 371.5,83.5 371.5,80.5C 370.5,80.5 369.5,80.5 368.5,80.5C 368.5,74.5 368.5,68.5 368.5,62.5C 372.167,62.5 375.833,62.5 379.5,62.5C 379.5,65.1667 379.5,67.8333 379.5,70.5C 382.833,70.5 386.167,70.5 389.5,70.5C 390.473,68.0521 390.806,65.3854 390.5,62.5C 397.167,62.5 403.833,62.5 410.5,62.5C 410.5,65.1667 410.5,67.8333 410.5,70.5C 413.833,70.5 417.167,70.5 420.5,70.5C 421.473,68.0521 421.806,65.3854 421.5,62.5C 425.833,62.5 430.167,62.5 434.5,62.5C 434.5,68.5 434.5,74.5 434.5,80.5C 432.5,80.5 430.5,80.5 428.5,80.5C 428.5,83.5 428.5,86.5 428.5,89.5C 427.167,89.5 425.833,89.5 424.5,89.5C 423.503,110.994 423.169,132.66 423.5,154.5C 427.167,154.5 430.833,154.5 434.5,154.5C 434.187,158.042 434.521,161.375 435.5,164.5C 439.634,165.485 443.968,165.818 448.5,165.5C 448.5,161.833 448.5,158.167 448.5,154.5C 451.833,154.5 455.167,154.5 458.5,154.5C 458.5,161.5 458.5,168.5 458.5,175.5C 455.833,175.5 453.167,175.5 450.5,175.5C 449.527,177.948 449.194,180.615 449.5,183.5C 447.167,183.5 444.833,183.5 442.5,183.5C 442.168,218.337 442.502,253.004 443.5,287.5C 448.419,291.638 453.753,295.304 459.5,298.5C 458.567,302.429 458.234,306.429 458.5,310.5C 435.5,310.5 412.5,310.5 389.5,310.5C 389.5,312.167 389.5,313.833 389.5,315.5C 369.66,315.17 349.993,315.503 330.5,316.5C 330.5,318.167 330.5,319.833 330.5,321.5C 330.334,325.514 330.501,329.514 331,333.5C 332.271,334.883 333.771,335.883 335.5,336.5C 335.5,337.167 335.167,337.5 334.5,337.5C 331.741,336.358 329.074,335.024 326.5,333.5C 326.5,332.833 326.833,332.5 327.5,332.5C 328.487,327.695 328.821,322.695 328.5,317.5C 327.174,315.805 327.507,314.472 329.5,313.5C 329.5,313.167 329.5,312.833 329.5,312.5C 329.833,312.5 330.167,312.5 330.5,312.5C 349.471,314.488 368.804,315.154 388.5,314.5C 388.5,310.833 388.5,307.167 388.5,303.5C 368.326,303.17 348.326,303.503 328.5,304.5C 328.167,304.5 327.833,304.5 327.5,304.5C 326.833,304.833 326.167,305.167 325.5,305.5C 325.5,305.167 325.5,304.833 325.5,304.5C 325.5,303.833 325.5,303.167 325.5,302.5C 326.725,301.848 327.392,300.681 327.5,299C 327.486,297.615 327.152,296.449 326.5,295.5C 326.167,295.5 325.833,295.5 325.5,295.5C 322.713,294.523 319.713,294.19 316.5,294.5C 315.833,294.5 315.167,294.5 314.5,294.5C 313.504,294.586 312.671,294.252 312,293.5C 311.505,295.473 311.338,297.473 311.5,299.5C 311.5,299.833 311.5,300.167 311.5,300.5C 307.886,298.693 304.22,296.86 300.5,295C 289.505,294.5 278.505,294.333 267.5,294.5C 266.833,294.5 266.5,294.167 266.5,293.5C 267.451,292.081 267.784,290.415 267.5,288.5C 243.455,288.186 219.455,288.52 195.5,289.5C 195.5,289.167 195.5,288.833 195.5,288.5C 195.5,288.167 195.5,287.833 195.5,287.5C 196.498,253.004 196.832,218.337 196.5,183.5C 194.167,183.5 191.833,183.5 189.5,183.5C 189.806,180.615 189.473,177.948 188.5,175.5C 185.833,175.5 183.167,175.5 180.5,175.5C 180.5,168.5 180.5,161.5 180.5,154.5C 183.833,154.5 187.167,154.5 190.5,154.5C 190.5,158.167 190.5,161.833 190.5,165.5C 195.167,165.5 199.833,165.5 204.5,165.5C 204.5,161.833 204.5,158.167 204.5,154.5C 208.167,154.5 211.833,154.5 215.5,154.5C 215.831,132.66 215.497,110.994 214.5,89.5C 213.167,89.5 211.833,89.5 210.5,89.5C 210.5,86.5 210.5,83.5 210.5,80.5C 208.5,80.5 206.5,80.5 204.5,80.5C 204.5,74.5 204.5,68.5 204.5,62.5C 208.833,62.5 213.167,62.5 217.5,62.5C 217.194,65.3854 217.527,68.0521 218.5,70.5C 221.833,70.5 225.167,70.5 228.5,70.5C 228.5,67.8333 228.5,65.1667 228.5,62.5C 235.167,62.5 241.833,62.5 248.5,62.5C 248.194,65.3854 248.527,68.0521 249.5,70.5C 252.833,70.5 256.167,70.5 259.5,70.5C 259.5,67.8333 259.5,65.1667 259.5,62.5C 263.167,62.5 266.833,62.5 270.5,62.5C 270.5,68.5 270.5,74.5 270.5,80.5C 269.5,80.5 268.5,80.5 267.5,80.5C 267.5,83.5 267.5,86.5 267.5,89.5C 266.167,89.5 264.833,89.5 263.5,89.5C 262.844,111.526 263.511,133.192 265.5,154.5C 265.5,157.833 265.5,161.167 265.5,164.5C 270.5,164.5 275.5,164.5 280.5,164.5C 280.5,161.167 280.5,157.833 280.5,154.5C 282.5,154.5 284.5,154.5 286.5,154.5C 286.831,126.995 286.498,99.6616 285.5,72.5C 283.833,72.5 282.167,72.5 280.5,72.5C 280.5,68.5 280.5,64.5 280.5,60.5C 278.167,60.5 275.833,60.5 273.5,60.5C 273.5,55.1667 273.5,49.8333 273.5,44.5C 277.833,44.5 282.167,44.5 286.5,44.5C 286.5,47.1667 286.5,49.8333 286.5,52.5C 290.167,52.5 293.833,52.5 297.5,52.5C 297.5,49.8333 297.5,47.1667 297.5,44.5C 302.833,44.5 308.167,44.5 313.5,44.5 Z"/></g>
<g><path style="opacity:1" fill="#8d8d8d" d="M 313.5,44.5 C 314.468,46.6074 314.802,48.9407 314.5,51.5C 317.833,51.5 321.167,51.5 324.5,51.5C 324.198,48.9407 324.532,46.6074 325.5,44.5C 325.5,47.1667 325.5,49.8333 325.5,52.5C 321.5,52.5 317.5,52.5 313.5,52.5C 313.5,49.8333 313.5,47.1667 313.5,44.5 Z"/></g>
<g><path style="opacity:1" fill="#d5000b" d="M 284.5,46.5 C 284.5,49.1667 284.5,51.8333 284.5,54.5C 289.5,54.5 294.5,54.5 299.5,54.5C 299.5,51.8333 299.5,49.1667 299.5,46.5C 303.5,46.5 307.5,46.5 311.5,46.5C 311.5,49.1667 311.5,51.8333 311.5,54.5C 316.833,54.5 322.167,54.5 327.5,54.5C 327.5,51.8333 327.5,49.1667 327.5,46.5C 331.5,46.5 335.5,46.5 339.5,46.5C 339.5,48.8333 339.5,51.1667 339.5,53.5C 344.5,53.5 349.5,53.5 354.5,53.5C 354.5,51.1667 354.5,48.8333 354.5,46.5C 357.833,46.5 361.167,46.5 364.5,46.5C 364.5,50.5 364.5,54.5 364.5,58.5C 334.833,58.5 305.167,58.5 275.5,58.5C 275.5,54.5 275.5,50.5 275.5,46.5C 278.5,46.5 281.5,46.5 284.5,46.5 Z"/></g>
<g><path style="opacity:1" fill="#7a0007" d="M 311.5,46.5 C 312.468,48.6074 312.802,50.9407 312.5,53.5C 317.167,53.5 321.833,53.5 326.5,53.5C 326.198,50.9407 326.532,48.6074 327.5,46.5C 327.5,49.1667 327.5,51.8333 327.5,54.5C 322.167,54.5 316.833,54.5 311.5,54.5C 311.5,51.8333 311.5,49.1667 311.5,46.5 Z"/></g>
<g><path style="opacity:1" fill="#570005" d="M 284.5,46.5 C 285.468,48.6074 285.802,50.9407 285.5,53.5C 289.833,53.5 294.167,53.5 298.5,53.5C 298.198,50.9407 298.532,48.6074 299.5,46.5C 299.5,49.1667 299.5,51.8333 299.5,54.5C 294.5,54.5 289.5,54.5 284.5,54.5C 284.5,51.8333 284.5,49.1667 284.5,46.5 Z"/></g>
<g><path style="opacity:1" fill="#d7000b" d="M 282.5,60.5 C 307.167,60.5 331.833,60.5 356.5,60.5C 356.5,63.8333 356.5,67.1667 356.5,70.5C 331.833,70.5 307.167,70.5 282.5,70.5C 282.5,67.1667 282.5,63.8333 282.5,60.5 Z"/></g>
<g><path style="opacity:1" fill="#525252" d="M 228.5,62.5 C 235.313,61.5088 242.313,61.1755 249.5,61.5C 249.5,64.5 249.5,67.5 249.5,70.5C 248.527,68.0521 248.194,65.3854 248.5,62.5C 241.833,62.5 235.167,62.5 228.5,62.5 Z"/></g>
<g><path style="opacity:1" fill="#525252" d="M 410.5,62.5 C 403.833,62.5 397.167,62.5 390.5,62.5C 390.806,65.3854 390.473,68.0521 389.5,70.5C 389.5,67.5 389.5,64.5 389.5,61.5C 396.687,61.1755 403.687,61.5088 410.5,62.5 Z"/></g>
<g><path style="opacity:1" fill="#545454" d="M 218.5,70.5 C 217.527,68.0521 217.194,65.3854 217.5,62.5C 213.167,62.5 208.833,62.5 204.5,62.5C 204.5,68.5 204.5,74.5 204.5,80.5C 203.51,74.3554 203.177,68.0221 203.5,61.5C 208.5,61.5 213.5,61.5 218.5,61.5C 218.5,64.5 218.5,67.5 218.5,70.5 Z"/></g>
<g><path style="opacity:1" fill="#363636" d="M 259.5,62.5 C 263.298,61.5166 267.298,61.1832 271.5,61.5C 271.823,68.0221 271.49,74.3554 270.5,80.5C 270.5,74.5 270.5,68.5 270.5,62.5C 266.833,62.5 263.167,62.5 259.5,62.5 Z"/></g>
<g><path style="opacity:1" fill="#363636" d="M 379.5,62.5 C 375.833,62.5 372.167,62.5 368.5,62.5C 368.5,68.5 368.5,74.5 368.5,80.5C 367.51,74.3554 367.177,68.0221 367.5,61.5C 371.702,61.1832 375.702,61.5166 379.5,62.5 Z"/></g>
<g><path style="opacity:1" fill="#545454" d="M 434.5,80.5 C 434.5,74.5 434.5,68.5 434.5,62.5C 430.167,62.5 425.833,62.5 421.5,62.5C 421.806,65.3854 421.473,68.0521 420.5,70.5C 420.5,67.5 420.5,64.5 420.5,61.5C 425.5,61.5 430.5,61.5 435.5,61.5C 435.823,68.0221 435.49,74.3554 434.5,80.5 Z"/></g>
<g><path style="opacity:1" fill="#d5000b" d="M 205.5,63.5 C 209.167,63.5 212.833,63.5 216.5,63.5C 216.5,66.5 216.5,69.5 216.5,72.5C 221.167,72.5 225.833,72.5 230.5,72.5C 230.5,69.5 230.5,66.5 230.5,63.5C 236.167,63.5 241.833,63.5 247.5,63.5C 247.5,66.5 247.5,69.5 247.5,72.5C 252.167,72.5 256.833,72.5 261.5,72.5C 261.5,69.5 261.5,66.5 261.5,63.5C 264.167,63.5 266.833,63.5 269.5,63.5C 269.5,68.5 269.5,73.5 269.5,78.5C 248.167,78.5 226.833,78.5 205.5,78.5C 205.5,73.5 205.5,68.5 205.5,63.5 Z"/></g>
<g><path style="opacity:1" fill="#d5000b" d="M 369.5,63.5 C 372.167,63.5 374.833,63.5 377.5,63.5C 377.5,66.5 377.5,69.5 377.5,72.5C 382.167,72.5 386.833,72.5 391.5,72.5C 391.5,69.5 391.5,66.5 391.5,63.5C 397.167,63.5 402.833,63.5 408.5,63.5C 408.5,66.5 408.5,69.5 408.5,72.5C 413.167,72.5 417.833,72.5 422.5,72.5C 422.5,69.5 422.5,66.5 422.5,63.5C 426.167,63.5 429.833,63.5 433.5,63.5C 433.5,68.5 433.5,73.5 433.5,78.5C 412.167,78.5 390.833,78.5 369.5,78.5C 369.5,73.5 369.5,68.5 369.5,63.5 Z"/></g>
<g><path style="opacity:1" fill="#c9c9c9" d="M 285.5,72.5 C 286.498,99.6616 286.831,126.995 286.5,154.5C 284.5,154.5 282.5,154.5 280.5,154.5C 281.919,153.549 283.585,153.216 285.5,153.5C 285.5,126.5 285.5,99.5 285.5,72.5 Z"/></g>
<g><path style="opacity:1" fill="#d8000b" d="M 288.5,72.5 C 309.167,72.5 329.833,72.5 350.5,72.5C 350.5,99.5 350.5,126.5 350.5,153.5C 345.5,153.5 340.5,153.5 335.5,153.5C 335.666,144.494 335.5,135.494 335,126.5C 328.919,114.889 320.086,112.389 308.5,119C 306.623,121.251 305.123,123.751 304,126.5C 303.5,135.494 303.334,144.494 303.5,153.5C 298.5,153.5 293.5,153.5 288.5,153.5C 288.5,126.5 288.5,99.5 288.5,72.5 Z"/></g>
<g><path style="opacity:1" fill="#cacaca" d="M 353.5,72.5 C 353.5,99.5 353.5,126.5 353.5,153.5C 355.099,153.232 356.432,153.566 357.5,154.5C 355.833,154.5 354.167,154.5 352.5,154.5C 352.169,126.995 352.502,99.6616 353.5,72.5 Z"/></g>
<g><path style="opacity:1" fill="#af0009" d="M 265.5,81.5 C 248.167,81.5 230.833,81.5 213.5,81.5C 213.5,83.5 213.5,85.5 213.5,87.5C 212.532,85.3926 212.198,83.0593 212.5,80.5C 230.341,80.1699 248.008,80.5033 265.5,81.5 Z"/></g>
<g><path style="opacity:1" fill="#610005" d="M 322.5,110.5 C 322.5,100.5 322.5,90.5 322.5,80.5C 320.5,80.5 318.5,80.5 316.5,80.5C 316.5,90.5 316.5,100.5 316.5,110.5C 315.506,100.347 315.172,90.0135 315.5,79.5C 318.167,79.5 320.833,79.5 323.5,79.5C 323.828,90.0135 323.494,100.347 322.5,110.5 Z"/></g>
<g><path style="opacity:1" fill="#020000" d="M 322.5,110.5 C 320.5,110.5 318.5,110.5 316.5,110.5C 316.5,100.5 316.5,90.5 316.5,80.5C 318.5,80.5 320.5,80.5 322.5,80.5C 322.5,90.5 322.5,100.5 322.5,110.5 Z"/></g>
<g><path style="opacity:1" fill="#af0009" d="M 373.5,81.5 C 390.992,80.5033 408.659,80.1699 426.5,80.5C 426.802,83.0593 426.468,85.3926 425.5,87.5C 425.5,85.5 425.5,83.5 425.5,81.5C 408.167,81.5 390.833,81.5 373.5,81.5 Z"/></g>
<g><path style="opacity:1" fill="#d9000b" d="M 265.5,81.5 C 265.5,83.5 265.5,85.5 265.5,87.5C 248.167,87.5 230.833,87.5 213.5,87.5C 213.5,85.5 213.5,83.5 213.5,81.5C 230.833,81.5 248.167,81.5 265.5,81.5 Z"/></g>
<g><path style="opacity:1" fill="#d9000b" d="M 373.5,81.5 C 390.833,81.5 408.167,81.5 425.5,81.5C 425.5,83.5 425.5,85.5 425.5,87.5C 408.167,87.5 390.833,87.5 373.5,87.5C 373.5,85.5 373.5,83.5 373.5,81.5 Z"/></g>
<g><path style="opacity:1" fill="#050000" d="M 300.5,85.5 C 302.833,85.5 305.167,85.5 307.5,85.5C 307.5,93.1667 307.5,100.833 307.5,108.5C 305.167,108.5 302.833,108.5 300.5,108.5C 300.5,100.833 300.5,93.1667 300.5,85.5 Z"/></g>
<g><path style="opacity:1" fill="#050000" d="M 331.5,85.5 C 333.833,85.5 336.167,85.5 338.5,85.5C 338.5,93.1667 338.5,100.833 338.5,108.5C 336.167,108.5 333.833,108.5 331.5,108.5C 331.5,100.833 331.5,93.1667 331.5,85.5 Z"/></g>
<g><path style="opacity:1" fill="#8d8d8d" d="M 214.5,89.5 C 215.497,110.994 215.831,132.66 215.5,154.5C 211.833,154.5 208.167,154.5 204.5,154.5C 207.625,153.521 210.958,153.187 214.5,153.5C 214.5,132.167 214.5,110.833 214.5,89.5 Z"/></g>
<g><path style="opacity:1" fill="#780006" d="M 217.5,89.5 C 217.5,110.833 217.5,132.167 217.5,153.5C 220.5,153.5 223.5,153.5 226.5,153.5C 223.375,154.479 220.042,154.813 216.5,154.5C 216.169,132.66 216.503,110.994 217.5,89.5 Z"/></g>
<g><path style="opacity:1" fill="#d8000b" d="M 217.5,89.5 C 232.167,89.5 246.833,89.5 261.5,89.5C 261.5,110.833 261.5,132.167 261.5,153.5C 258.833,153.5 256.167,153.5 253.5,153.5C 253.666,146.825 253.5,140.158 253,133.5C 248.729,124.447 241.895,121.613 232.5,125C 230.622,126.543 229.122,128.376 228,130.5C 226.604,138.08 226.104,145.747 226.5,153.5C 223.5,153.5 220.5,153.5 217.5,153.5C 217.5,132.167 217.5,110.833 217.5,89.5 Z"/></g>
<g><path style="opacity:1" fill="#adadad" d="M 267.5,89.5 C 266.791,90.404 265.791,90.7373 264.5,90.5C 264.178,111.909 264.512,133.242 265.5,154.5C 263.511,133.192 262.844,111.526 263.5,89.5C 264.833,89.5 266.167,89.5 267.5,89.5 Z"/></g>
<g><path style="opacity:1" fill="#adadad" d="M 371.5,89.5 C 372.833,89.5 374.167,89.5 375.5,89.5C 376.156,111.526 375.489,133.192 373.5,154.5C 374.488,133.242 374.822,111.909 374.5,90.5C 373.209,90.7373 372.209,90.404 371.5,89.5 Z"/></g>
<g><path style="opacity:1" fill="#d8000b" d="M 421.5,89.5 C 421.5,110.833 421.5,132.167 421.5,153.5C 418.5,153.5 415.5,153.5 412.5,153.5C 412.666,146.492 412.5,139.492 412,132.5C 407.365,123.321 400.532,121.155 391.5,126C 388.894,127.938 387.061,130.438 386,133.5C 385.5,140.158 385.334,146.825 385.5,153.5C 382.833,153.5 380.167,153.5 377.5,153.5C 377.5,132.167 377.5,110.833 377.5,89.5C 392.167,89.5 406.833,89.5 421.5,89.5 Z"/></g>
<g><path style="opacity:1" fill="#780006" d="M 421.5,89.5 C 422.497,110.994 422.831,132.66 422.5,154.5C 418.958,154.813 415.625,154.479 412.5,153.5C 415.5,153.5 418.5,153.5 421.5,153.5C 421.5,132.167 421.5,110.833 421.5,89.5 Z"/></g>
<g><path style="opacity:1" fill="#8d8d8d" d="M 424.5,89.5 C 424.5,110.833 424.5,132.167 424.5,153.5C 428.042,153.187 431.375,153.521 434.5,154.5C 430.833,154.5 427.167,154.5 423.5,154.5C 423.169,132.66 423.503,110.994 424.5,89.5 Z"/></g>
<g><path style="opacity:1" fill="#5f5f5f" d="M 190.5,154.5 C 187.167,154.5 183.833,154.5 180.5,154.5C 180.5,161.5 180.5,168.5 180.5,175.5C 179.508,168.352 179.175,161.019 179.5,153.5C 183.371,153.185 187.038,153.518 190.5,154.5 Z"/></g>
<g><path style="opacity:1" fill="#5f5f5f" d="M 448.5,154.5 C 451.962,153.518 455.629,153.185 459.5,153.5C 459.825,161.019 459.492,168.352 458.5,175.5C 458.5,168.5 458.5,161.5 458.5,154.5C 455.167,154.5 451.833,154.5 448.5,154.5 Z"/></g>
<g><path style="opacity:1" fill="#790006" d="M 412.5,156.5 C 419.313,155.509 426.313,155.175 433.5,155.5C 433.5,159.167 433.5,162.833 433.5,166.5C 432.521,163.375 432.187,160.042 432.5,156.5C 425.833,156.5 419.167,156.5 412.5,156.5 Z"/></g>
<g><path style="opacity:1" fill="#d7000b" d="M 181.5,156.5 C 183.833,156.5 186.167,156.5 188.5,156.5C 188.187,160.042 188.521,163.375 189.5,166.5C 194.833,166.5 200.167,166.5 205.5,166.5C 206.479,163.375 206.813,160.042 206.5,156.5C 213.167,156.5 219.833,156.5 226.5,156.5C 226.5,159.833 226.5,163.167 226.5,166.5C 234.316,167.492 242.316,167.826 250.5,167.5C 250.5,169.5 250.5,171.5 250.5,173.5C 227.5,173.5 204.5,173.5 181.5,173.5C 181.5,167.833 181.5,162.167 181.5,156.5 Z"/></g>
<g><path style="opacity:1" fill="#6f0006" d="M 181.5,156.5 C 183.948,155.527 186.615,155.194 189.5,155.5C 189.5,159.167 189.5,162.833 189.5,166.5C 188.521,163.375 188.187,160.042 188.5,156.5C 186.167,156.5 183.833,156.5 181.5,156.5 Z"/></g>
<g><path style="opacity:1" fill="#7b0007" d="M 226.5,156.5 C 219.833,156.5 213.167,156.5 206.5,156.5C 206.813,160.042 206.479,163.375 205.5,166.5C 205.5,162.833 205.5,159.167 205.5,155.5C 212.687,155.175 219.687,155.509 226.5,156.5 Z"/></g>
<g><path style="opacity:1" fill="#d8000b" d="M 412.5,156.5 C 419.167,156.5 425.833,156.5 432.5,156.5C 432.187,160.042 432.521,163.375 433.5,166.5C 438.833,166.5 444.167,166.5 449.5,166.5C 450.479,163.375 450.813,160.042 450.5,156.5C 452.5,156.5 454.5,156.5 456.5,156.5C 456.5,162.167 456.5,167.833 456.5,173.5C 433.833,173.5 411.167,173.5 388.5,173.5C 388.5,171.5 388.5,169.5 388.5,167.5C 396.684,167.826 404.684,167.492 412.5,166.5C 412.5,163.167 412.5,159.833 412.5,156.5 Z"/></g>
<g><path style="opacity:1" fill="#9a0009" d="M 456.5,173.5 C 456.5,167.833 456.5,162.167 456.5,156.5C 454.5,156.5 452.5,156.5 450.5,156.5C 450.813,160.042 450.479,163.375 449.5,166.5C 449.5,162.833 449.5,159.167 449.5,155.5C 452.167,155.5 454.833,155.5 457.5,155.5C 457.823,161.69 457.49,167.69 456.5,173.5 Z"/></g>
<g><path style="opacity:1" fill="#747474" d="M 190.5,154.5 C 191.479,157.625 191.813,160.958 191.5,164.5C 195.5,164.5 199.5,164.5 203.5,164.5C 203.187,160.958 203.521,157.625 204.5,154.5C 204.5,158.167 204.5,161.833 204.5,165.5C 199.833,165.5 195.167,165.5 190.5,165.5C 190.5,161.833 190.5,158.167 190.5,154.5 Z"/></g>
<g><path style="opacity:1" fill="#696969" d="M 357.5,154.5 C 358.479,157.625 358.813,160.958 358.5,164.5C 363.5,164.5 368.5,164.5 373.5,164.5C 368.36,165.488 363.026,165.821 357.5,165.5C 357.5,161.833 357.5,158.167 357.5,154.5 Z"/></g>
<g><path style="opacity:1" fill="#747474" d="M 448.5,154.5 C 448.5,158.167 448.5,161.833 448.5,165.5C 443.968,165.818 439.634,165.485 435.5,164.5C 439.5,164.5 443.5,164.5 447.5,164.5C 447.187,160.958 447.521,157.625 448.5,154.5 Z"/></g>
<g><path style="opacity:1" fill="#980009" d="M 226.5,166.5 C 234.833,166.5 243.167,166.5 251.5,166.5C 251.802,169.059 251.468,171.393 250.5,173.5C 250.5,171.5 250.5,169.5 250.5,167.5C 242.316,167.826 234.316,167.492 226.5,166.5 Z"/></g>
<g><path style="opacity:1" fill="#980009" d="M 412.5,166.5 C 404.684,167.492 396.684,167.826 388.5,167.5C 388.5,169.5 388.5,171.5 388.5,173.5C 387.532,171.393 387.198,169.059 387.5,166.5C 395.833,166.5 404.167,166.5 412.5,166.5 Z"/></g>
<g><path style="opacity:1" fill="#d9000b" d="M 250.5,175.5 C 250.5,177.5 250.5,179.5 250.5,181.5C 230.5,181.5 210.5,181.5 190.5,181.5C 190.5,179.5 190.5,177.5 190.5,175.5C 210.5,175.5 230.5,175.5 250.5,175.5 Z"/></g>
<g><path style="opacity:1" fill="#d9000b" d="M 388.5,175.5 C 408.5,175.5 428.5,175.5 448.5,175.5C 448.5,177.5 448.5,179.5 448.5,181.5C 428.5,181.5 408.5,181.5 388.5,181.5C 388.5,179.5 388.5,177.5 388.5,175.5 Z"/></g>
<g><path style="opacity:1" fill="#660006" d="M 250.5,175.5 C 251.468,177.607 251.802,179.941 251.5,182.5C 230.993,182.83 210.66,182.497 190.5,181.5C 210.5,181.5 230.5,181.5 250.5,181.5C 250.5,179.5 250.5,177.5 250.5,175.5 Z"/></g>
<g><path style="opacity:1" fill="#7f0007" d="M 264.5,166.5 C 263.521,163.375 263.187,160.042 263.5,156.5C 260.167,156.5 256.833,156.5 253.5,156.5C 253.5,164.833 253.5,173.167 253.5,181.5C 297.5,181.5 341.5,181.5 385.5,181.5C 385.5,173.167 385.5,164.833 385.5,156.5C 382.167,156.5 378.833,156.5 375.5,156.5C 375.813,160.042 375.479,163.375 374.5,166.5C 374.5,162.833 374.5,159.167 374.5,155.5C 378.5,155.5 382.5,155.5 386.5,155.5C 386.5,164.5 386.5,173.5 386.5,182.5C 341.833,182.5 297.167,182.5 252.5,182.5C 252.5,173.5 252.5,164.5 252.5,155.5C 256.5,155.5 260.5,155.5 264.5,155.5C 264.5,159.167 264.5,162.833 264.5,166.5 Z"/></g>
<g><path style="opacity:1" fill="#940008" d="M 356.5,166.5 C 355.521,163.375 355.187,160.042 355.5,156.5C 348.833,156.5 342.167,156.5 335.5,156.5C 335.5,160.167 335.5,163.833 335.5,167.5C 324.654,167.828 313.987,167.494 303.5,166.5C 313.833,166.5 324.167,166.5 334.5,166.5C 334.5,162.833 334.5,159.167 334.5,155.5C 341.833,155.5 349.167,155.5 356.5,155.5C 356.5,159.167 356.5,162.833 356.5,166.5 Z"/></g>
<g><path style="opacity:1" fill="#d8000b" d="M 303.5,166.5 C 313.987,167.494 324.654,167.828 335.5,167.5C 335.5,163.833 335.5,160.167 335.5,156.5C 342.167,156.5 348.833,156.5 355.5,156.5C 355.187,160.042 355.521,163.375 356.5,166.5C 362.5,166.5 368.5,166.5 374.5,166.5C 375.479,163.375 375.813,160.042 375.5,156.5C 378.833,156.5 382.167,156.5 385.5,156.5C 385.5,164.833 385.5,173.167 385.5,181.5C 341.5,181.5 297.5,181.5 253.5,181.5C 253.5,173.167 253.5,164.833 253.5,156.5C 256.833,156.5 260.167,156.5 263.5,156.5C 263.187,160.042 263.521,163.375 264.5,166.5C 270.5,166.5 276.5,166.5 282.5,166.5C 282.5,162.833 282.5,159.167 282.5,155.5C 289.5,155.5 296.5,155.5 303.5,155.5C 303.5,159.167 303.5,162.833 303.5,166.5 Z"/></g>
<g><path style="opacity:1" fill="#660006" d="M 388.5,175.5 C 388.5,177.5 388.5,179.5 388.5,181.5C 408.5,181.5 428.5,181.5 448.5,181.5C 428.34,182.497 408.007,182.83 387.5,182.5C 387.198,179.941 387.532,177.607 388.5,175.5 Z"/></g>
<g><path style="opacity:1" fill="#9a9a9a" d="M 188.5,175.5 C 189.473,177.948 189.806,180.615 189.5,183.5C 191.833,183.5 194.167,183.5 196.5,183.5C 196.832,218.337 196.498,253.004 195.5,287.5C 195.5,253.167 195.5,218.833 195.5,184.5C 193.167,184.5 190.833,184.5 188.5,184.5C 188.5,181.5 188.5,178.5 188.5,175.5 Z"/></g>
<g><path style="opacity:1" fill="#690005" d="M 251.5,184.5 C 233.833,184.5 216.167,184.5 198.5,184.5C 198.5,218.5 198.5,252.5 198.5,286.5C 197.502,252.337 197.168,218.004 197.5,183.5C 215.674,183.17 233.674,183.503 251.5,184.5 Z"/></g>
<g><path style="opacity:1" fill="#d8000b" d="M 251.5,184.5 C 253.167,184.5 254.833,184.5 256.5,184.5C 256.5,187.167 256.5,189.833 256.5,192.5C 260.167,192.5 263.833,192.5 267.5,192.5C 267.5,223.833 267.5,255.167 267.5,286.5C 265.167,286.5 262.833,286.5 260.5,286.5C 260.827,276.652 260.494,266.986 259.5,257.5C 258.323,248.483 253.323,242.65 244.5,240C 232.468,238.938 224.302,244.105 220,255.5C 219.5,266.161 219.333,276.828 219.5,287.5C 212.313,287.825 205.313,287.491 198.5,286.5C 198.5,252.5 198.5,218.5 198.5,184.5C 216.167,184.5 233.833,184.5 251.5,184.5 Z"/></g>
<g><path style="opacity:1" fill="#d9000c" d="M 258.5,184.5 C 299.5,184.5 340.5,184.5 381.5,184.5C 381.5,186.5 381.5,188.5 381.5,190.5C 340.5,190.5 299.5,190.5 258.5,190.5C 258.5,188.5 258.5,186.5 258.5,184.5 Z"/></g>
<g><path style="opacity:1" fill="#d8000b" d="M 387.5,184.5 C 405.167,184.5 422.833,184.5 440.5,184.5C 440.5,218.5 440.5,252.5 440.5,286.5C 433.687,287.491 426.687,287.825 419.5,287.5C 419.667,276.828 419.5,266.161 419,255.5C 410.893,238.267 399.227,235.267 384,246.5C 381.384,249.729 379.884,253.396 379.5,257.5C 378.506,266.986 378.173,276.652 378.5,286.5C 376.167,286.5 373.833,286.5 371.5,286.5C 371.5,255.167 371.5,223.833 371.5,192.5C 375.167,192.5 378.833,192.5 382.5,192.5C 382.5,189.833 382.5,187.167 382.5,184.5C 384.167,184.5 385.833,184.5 387.5,184.5 Z"/></g>
<g><path style="opacity:1" fill="#690005" d="M 387.5,184.5 C 405.326,183.503 423.326,183.17 441.5,183.5C 441.832,218.004 441.498,252.337 440.5,286.5C 440.5,252.5 440.5,218.5 440.5,184.5C 422.833,184.5 405.167,184.5 387.5,184.5 Z"/></g>
<g><path style="opacity:1" fill="#9a9a9a" d="M 450.5,175.5 C 450.5,178.5 450.5,181.5 450.5,184.5C 448.167,184.5 445.833,184.5 443.5,184.5C 443.5,218.833 443.5,253.167 443.5,287.5C 442.502,253.004 442.168,218.337 442.5,183.5C 444.833,183.5 447.167,183.5 449.5,183.5C 449.194,180.615 449.527,177.948 450.5,175.5 Z"/></g>
<g><path style="opacity:1" fill="#d9000b" d="M 269.5,192.5 C 302.833,192.5 336.167,192.5 369.5,192.5C 369.5,225.833 369.5,259.167 369.5,292.5C 362.167,292.5 354.833,292.5 347.5,292.5C 347.954,276.429 347.454,260.429 346,244.5C 340.609,232.882 331.442,227.549 318.5,228.5C 306.385,228.138 297.885,233.471 293,244.5C 291.546,260.429 291.046,276.429 291.5,292.5C 284.167,292.5 276.833,292.5 269.5,292.5C 269.5,259.167 269.5,225.833 269.5,192.5 Z"/></g>
<g><path style="opacity:1" fill="#810007" d="M 259.5,257.5 C 260.494,266.986 260.827,276.652 260.5,286.5C 262.833,286.5 265.167,286.5 267.5,286.5C 265.052,287.473 262.385,287.806 259.5,287.5C 259.5,277.5 259.5,267.5 259.5,257.5 Z"/></g>
<g><path style="opacity:1" fill="#810007" d="M 379.5,257.5 C 379.5,267.5 379.5,277.5 379.5,287.5C 376.615,287.806 373.948,287.473 371.5,286.5C 373.833,286.5 376.167,286.5 378.5,286.5C 378.173,276.652 378.506,266.986 379.5,257.5 Z"/></g>
<g><path style="opacity:1" fill="#e7c90d" d="M 293.5,284.5 C 294.708,285.234 296.041,285.567 297.5,285.5C 297.799,287.604 297.466,289.604 296.5,291.5C 293.971,289.937 292.971,287.604 293.5,284.5 Z"/></g>
<g><path style="opacity:1" fill="#eccd0d" d="M 344.5,284.5 C 345.147,285.274 345.48,286.274 345.5,287.5C 344.947,291.969 343.947,292.303 342.5,288.5C 342.803,286.886 343.47,285.552 344.5,284.5 Z"/></g>
<g><path style="opacity:1" fill="#dcc00c" d="M 299.5,287.5 C 300.583,287.539 301.583,287.873 302.5,288.5C 303.833,290.5 303.833,292.5 302.5,294.5C 299.971,292.937 298.971,290.604 299.5,287.5 Z"/></g>
<g><path style="opacity:1" fill="#e5c80c" d="M 339.5,287.5 C 340.147,288.274 340.48,289.274 340.5,290.5C 339.947,294.969 338.947,295.303 337.5,291.5C 337.803,289.886 338.47,288.552 339.5,287.5 Z"/></g>
<g><path style="opacity:1" fill="#cc000c" d="M 266.5,293.5 C 263.378,294.561 260.378,295.895 257.5,297.5C 233.328,297.831 209.328,297.498 185.5,296.5C 189.221,294.646 192.554,292.313 195.5,289.5C 219.455,288.52 243.455,288.186 267.5,288.5C 267.784,290.415 267.451,292.081 266.5,293.5 Z"/></g>
<g><path style="opacity:1" fill="#cc000c" d="M 453.5,296.5 C 429.672,297.498 405.672,297.831 381.5,297.5C 378.644,295.907 375.644,294.573 372.5,293.5C 371.548,291.955 371.215,290.288 371.5,288.5C 394.836,288.333 418.169,288.5 441.5,289C 445.385,291.725 449.385,294.225 453.5,296.5 Z"/></g>
<g><path style="opacity:1" fill="#dbbf0c" d="M 305.5,290.5 C 306.583,290.539 307.583,290.873 308.5,291.5C 309.833,293.5 309.833,295.5 308.5,297.5C 305.971,295.937 304.971,293.604 305.5,290.5 Z"/></g>
<g><path style="opacity:1" fill="#eccd0d" d="M 333.5,290.5 C 335.978,292.483 336.145,294.816 334,297.5C 333.503,295.19 333.337,292.857 333.5,290.5 Z"/></g>
<g><path style="opacity:1" fill="#ebcd0d" d="M 314.5,294.5 C 314.799,296.604 314.466,298.604 313.5,300.5C 312.817,300.137 312.15,299.804 311.5,299.5C 311.338,297.473 311.505,295.473 312,293.5C 312.671,294.252 313.504,294.586 314.5,294.5 Z"/></g>
<g><path style="opacity:1" fill="#c3000b" d="M 316.5,294.5 C 319.713,294.19 322.713,294.523 325.5,295.5C 322.089,298.355 319.089,298.022 316.5,294.5 Z"/></g>
<g><path style="opacity:1" fill="#d1000b" d="M 340.5,294.5 C 350.839,294.334 361.172,294.5 371.5,295C 372.833,295.667 374.167,296.333 375.5,297C 372.774,297.182 370.107,297.682 367.5,298.5C 373.245,299.091 378.912,299.924 384.5,301C 366.833,301.667 349.167,301.667 331.5,301C 334.567,298.812 337.567,296.645 340.5,294.5 Z"/></g>
<g><path style="opacity:1" fill="#cbb00b" d="M 330.5,292.5 C 331.152,293.449 331.486,294.615 331.5,296C 331.276,300.798 330.276,301.298 328.5,297.5C 328.437,295.486 329.103,293.819 330.5,292.5 Z"/></g>
<g><path style="opacity:1" fill="#e5c80d" d="M 319.5,298.5 C 319.88,300.698 319.213,302.365 317.5,303.5C 316.371,301.372 316.204,299.039 317,296.5C 317.708,297.381 318.542,298.047 319.5,298.5 Z"/></g>
<g><path style="opacity:1" fill="#dfc20c" d="M 326.5,296.5 C 326.66,298.199 326.494,299.866 326,301.5C 324.855,300.364 323.688,299.364 322.5,298.5C 323.833,297.833 325.167,297.167 326.5,296.5 Z"/></g>
<g><path style="opacity:1" fill="#480003" d="M 453.5,296.5 C 454.289,296.783 454.956,297.283 455.5,298C 430.663,298.83 405.997,298.663 381.5,297.5C 405.672,297.831 429.672,297.498 453.5,296.5 Z"/></g>
<g><path style="opacity:1" fill="#ac0009" d="M 456.5,299.5 C 456.5,299.833 456.5,300.167 456.5,300.5C 433.994,300.169 411.66,300.503 389.5,301.5C 388.527,301.013 387.527,300.513 386.5,300C 409.831,299.5 433.164,299.333 456.5,299.5 Z"/></g>
<g><path style="opacity:1" fill="#d9000b" d="M 389.5,301.5 C 411.66,300.503 433.994,300.169 456.5,300.5C 456.5,303.167 456.5,305.833 456.5,308.5C 434.5,308.5 412.5,308.5 390.5,308.5C 390.802,305.941 390.468,303.607 389.5,301.5 Z"/></g>
<g><path style="opacity:1" fill="#d4b90c" d="M 325.5,302.5 C 325.5,303.167 325.5,303.833 325.5,304.5C 323.102,307.461 321.436,307.128 320.5,303.5C 321.436,299.872 323.102,299.539 325.5,302.5 Z"/></g>
<g><path style="opacity:1" fill="#d8000b" d="M 328.5,304.5 C 348.326,303.503 368.326,303.17 388.5,303.5C 388.5,307.167 388.5,310.833 388.5,314.5C 368.804,315.154 349.471,314.488 330.5,312.5C 332.007,309.382 331.34,306.715 328.5,304.5 Z"/></g>
<g><path style="opacity:1" fill="#c6ac0b" d="M 317.5,304.5 C 317.611,305.117 317.944,305.617 318.5,306C 316.934,306.608 315.6,307.442 314.5,308.5C 313.662,308.158 313.328,307.492 313.5,306.5C 314.605,305.4 315.938,304.733 317.5,304.5 Z"/></g>
<g><path style="opacity:1" fill="#750006" d="M 456.5,299.5 C 457.479,302.625 457.813,305.958 457.5,309.5C 434.994,309.831 412.66,309.497 390.5,308.5C 412.5,308.5 434.5,308.5 456.5,308.5C 456.5,305.833 456.5,303.167 456.5,300.5C 456.5,300.167 456.5,299.833 456.5,299.5 Z"/></g>
<g><path style="opacity:1" fill="#c4ab0b" d="M 329.5,312.5 C 329.5,312.833 329.5,313.167 329.5,313.5C 327.516,313.617 325.85,312.95 324.5,311.5C 325.333,311.167 326.167,310.833 327,310.5C 328.376,310.684 329.209,311.351 329.5,312.5 Z"/></g>
<g><path style="opacity:1" fill="#dfc20c" d="M 318.5,345.5 C 315.325,345.16 313.159,343.493 312,340.5C 311.333,331.5 311.333,322.5 312,313.5C 312.949,311.907 314.115,310.574 315.5,309.5C 324.794,308.708 324.794,309.541 315.5,312C 314.874,312.75 314.374,313.584 314,314.5C 313.333,322.833 313.333,331.167 314,339.5C 316.053,343.292 319.219,344.458 323.5,343C 324.424,341.511 325.424,341.344 326.5,342.5C 324.464,344.984 321.798,345.984 318.5,345.5 Z"/></g>
<g><path style="opacity:1" fill="#444444" d="M 458.5,310.5 C 436.006,311.497 413.339,311.831 390.5,311.5C 390.5,313.167 390.5,314.833 390.5,316.5C 370.5,316.5 350.5,316.5 330.5,316.5C 349.993,315.503 369.66,315.17 389.5,315.5C 389.5,313.833 389.5,312.167 389.5,310.5C 412.5,310.5 435.5,310.5 458.5,310.5 Z"/></g>
<g><path style="opacity:1" fill="#181004" d="M 326.5,295.5 C 327.152,296.449 327.486,297.615 327.5,299C 327.392,300.681 326.725,301.848 325.5,302.5C 323.102,299.539 321.436,299.872 320.5,303.5C 321.436,307.128 323.102,307.461 325.5,304.5C 325.5,304.833 325.5,305.167 325.5,305.5C 325.586,306.496 325.252,307.329 324.5,308C 329.146,308.994 330.146,307.827 327.5,304.5C 327.833,304.5 328.167,304.5 328.5,304.5C 331.34,306.715 332.007,309.382 330.5,312.5C 330.167,312.5 329.833,312.5 329.5,312.5C 329.209,311.351 328.376,310.684 327,310.5C 326.167,310.833 325.333,311.167 324.5,311.5C 325.85,312.95 327.516,313.617 329.5,313.5C 327.507,314.472 327.174,315.805 328.5,317.5C 327.195,319.397 326.529,321.731 326.5,324.5C 326.551,327.253 326.884,329.92 327.5,332.5C 326.833,332.5 326.5,332.833 326.5,333.5C 323.634,330.896 320.301,329.729 316.5,330C 315.409,332.064 315.242,334.231 316,336.5C 317.388,335.446 318.888,335.28 320.5,336C 327.166,339.331 333.499,343.164 339.5,347.5C 333.298,351.532 326.965,355.365 320.5,359C 319.167,359.667 317.833,359.667 316.5,359C 310.167,355.167 303.833,351.333 297.5,347.5C 301.199,344.65 305.199,342.317 309.5,340.5C 310.167,341.167 310.833,341.833 311.5,342.5C 307.642,343.096 304.309,344.762 301.5,347.5C 307.04,351.101 312.706,354.435 318.5,357.5C 323.955,354.939 329.288,352.105 334.5,349C 335.833,348 335.833,347 334.5,346C 332.413,345.208 330.579,344.041 329,342.5C 326.45,346.192 322.95,347.858 318.5,347.5C 318.5,346.833 318.5,346.167 318.5,345.5C 321.798,345.984 324.464,344.984 326.5,342.5C 325.424,341.344 324.424,341.511 323.5,343C 319.219,344.458 316.053,343.292 314,339.5C 313.333,331.167 313.333,322.833 314,314.5C 314.374,313.584 314.874,312.75 315.5,312C 324.794,309.541 324.794,308.708 315.5,309.5C 315.5,308.833 315.167,308.5 314.5,308.5C 315.6,307.442 316.934,306.608 318.5,306C 317.944,305.617 317.611,305.117 317.5,304.5C 317.5,304.167 317.5,303.833 317.5,303.5C 319.213,302.365 319.88,300.698 319.5,298.5C 320.5,298.5 321.5,298.5 322.5,298.5C 323.688,299.364 324.855,300.364 326,301.5C 326.494,299.866 326.66,298.199 326.5,296.5C 326.5,296.167 326.5,295.833 326.5,295.5 Z"/></g>
<g><path style="opacity:1" fill="#e8ca0d" d="M 323.5,313.5 C 327.094,314.561 327.26,315.895 324,317.5C 323.51,316.207 323.343,314.873 323.5,313.5 Z"/></g>
<g><path style="opacity:1" fill="#e8ca0d" d="M 319.5,313.5 C 321.176,314.183 321.843,315.517 321.5,317.5C 317.155,317.702 316.488,316.369 319.5,313.5 Z"/></g>
<g><path style="opacity:1" fill="#e4c60d" d="M 327.5,304.5 C 330.146,307.827 329.146,308.994 324.5,308C 325.252,307.329 325.586,306.496 325.5,305.5C 326.167,305.167 326.833,304.833 327.5,304.5 Z"/></g>
<g><path style="opacity:1" fill="#fadedf" d="M 324.5,321.5 C 321.5,321.5 318.5,321.5 315.5,321.5C 315.343,320.127 315.51,318.793 316,317.5C 319.149,318.562 321.982,319.895 324.5,321.5 Z"/></g>
<g><path style="opacity:1" fill="#d2b60b" d="M 328.5,317.5 C 328.821,322.695 328.487,327.695 327.5,332.5C 326.884,329.92 326.551,327.253 326.5,324.5C 326.529,321.731 327.195,319.397 328.5,317.5 Z"/></g>
<g><path style="opacity:1" fill="#d9000b" d="M -0.5,321.5 C 102.833,321.5 206.167,321.5 309.5,321.5C 309.793,325.437 309.46,329.27 308.5,333C 303.167,336 297.833,339 292.5,342C 290.19,342.497 287.857,342.663 285.5,342.5C 285.5,345.833 285.5,349.167 285.5,352.5C 287.857,352.337 290.19,352.503 292.5,353C 299,356.833 305.5,360.667 312,364.5C 312.5,384.831 312.667,405.164 312.5,425.5C 301.833,425.5 291.167,425.5 280.5,425.5C 280.5,430.833 280.5,436.167 280.5,441.5C 284.298,442.483 288.298,442.817 292.5,442.5C 292.5,439.833 292.5,437.167 292.5,434.5C 295.833,434.5 299.167,434.5 302.5,434.5C 302.5,437.167 302.5,439.833 302.5,442.5C 305.833,442.5 309.167,442.5 312.5,442.5C 312.5,443.5 312.5,444.5 312.5,445.5C 309.167,445.5 305.833,445.5 302.5,445.5C 302.5,448.167 302.5,450.833 302.5,453.5C 299.167,453.5 295.833,453.5 292.5,453.5C 292.5,450.833 292.5,448.167 292.5,445.5C 288.298,445.183 284.298,445.517 280.5,446.5C 280.5,451.833 280.5,457.167 280.5,462.5C 291.167,462.5 301.833,462.5 312.5,462.5C 312.5,465.833 312.5,469.167 312.5,472.5C 316.5,472.5 320.5,472.5 324.5,472.5C 324.167,436.494 324.5,400.494 325.5,364.5C 331.833,360.667 338.167,356.833 344.5,353C 346.81,352.503 349.143,352.337 351.5,352.5C 351.5,349.167 351.5,345.833 351.5,342.5C 345.588,342.217 340.254,340.217 335.5,336.5C 333.771,335.883 332.271,334.883 331,333.5C 330.501,329.514 330.334,325.514 330.5,321.5C 433.5,321.5 536.5,321.5 639.5,321.5C 639.5,374.167 639.5,426.833 639.5,479.5C 426.167,479.5 212.833,479.5 -0.5,479.5C -0.5,426.833 -0.5,374.167 -0.5,321.5 Z"/></g>
<g><path style="opacity:1" fill="#d2000b" d="M 315.5,321.5 C 318.5,321.5 321.5,321.5 324.5,321.5C 324.813,324.247 324.48,326.914 323.5,329.5C 321.119,327.604 318.619,327.271 316,328.5C 315.503,326.19 315.337,323.857 315.5,321.5 Z"/></g>
<g><path style="opacity:1" fill="#ebcd0d" d="M 326.5,333.5 C 329.074,335.024 331.741,336.358 334.5,337.5C 338.866,341.201 343.866,343.535 349.5,344.5C 349.5,346.5 349.5,348.5 349.5,350.5C 347.801,350.34 346.134,350.506 344.5,351C 335.958,356.103 327.291,360.937 318.5,365.5C 309.709,360.937 301.042,356.103 292.5,351C 290.866,350.506 289.199,350.34 287.5,350.5C 287.5,348.5 287.5,346.5 287.5,344.5C 289.199,344.66 290.866,344.494 292.5,344C 298.082,340.96 303.582,337.793 309,334.5C 309.495,336.473 309.662,338.473 309.5,340.5C 305.199,342.317 301.199,344.65 297.5,347.5C 303.833,351.333 310.167,355.167 316.5,359C 317.833,359.667 319.167,359.667 320.5,359C 326.965,355.365 333.298,351.532 339.5,347.5C 333.499,343.164 327.166,339.331 320.5,336C 318.888,335.28 317.388,335.446 316,336.5C 315.242,334.231 315.409,332.064 316.5,330C 320.301,329.729 323.634,330.896 326.5,333.5 Z"/></g>
<g><path style="opacity:1" fill="#180b03" d="M 195.5,288.5 C 195.5,288.833 195.5,289.167 195.5,289.5C 192.554,292.313 189.221,294.646 185.5,296.5C 184.711,296.783 184.044,297.283 183.5,298C 208.337,298.83 233.003,298.663 257.5,297.5C 260.378,295.895 263.378,294.561 266.5,293.5C 266.5,294.167 266.833,294.5 267.5,294.5C 266.4,295.558 265.066,296.392 263.5,297C 266.226,297.182 268.893,297.682 271.5,298.5C 265.755,299.091 260.088,299.924 254.5,301C 273.671,301.829 292.671,301.662 311.5,300.5C 311.5,300.167 311.5,299.833 311.5,299.5C 312.15,299.804 312.817,300.137 313.5,300.5C 314.466,298.604 314.799,296.604 314.5,294.5C 315.167,294.5 315.833,294.5 316.5,294.5C 319.089,298.022 322.089,298.355 325.5,295.5C 325.833,295.5 326.167,295.5 326.5,295.5C 326.5,295.833 326.5,296.167 326.5,296.5C 325.167,297.167 323.833,297.833 322.5,298.5C 321.5,298.5 320.5,298.5 319.5,298.5C 318.542,298.047 317.708,297.381 317,296.5C 316.204,299.039 316.371,301.372 317.5,303.5C 317.5,303.833 317.5,304.167 317.5,304.5C 315.938,304.733 314.605,305.4 313.5,306.5C 313.328,307.492 313.662,308.158 314.5,308.5C 315.167,308.5 315.5,308.833 315.5,309.5C 314.115,310.574 312.949,311.907 312,313.5C 311.333,322.5 311.333,331.5 312,340.5C 313.159,343.493 315.325,345.16 318.5,345.5C 318.5,346.167 318.5,346.833 318.5,347.5C 315.326,346.99 312.992,345.323 311.5,342.5C 310.833,341.833 310.167,341.167 309.5,340.5C 309.662,338.473 309.495,336.473 309,334.5C 303.582,337.793 298.082,340.96 292.5,344C 290.866,344.494 289.199,344.66 287.5,344.5C 287.5,346.5 287.5,348.5 287.5,350.5C 289.199,350.34 290.866,350.506 292.5,351C 301.042,356.103 309.709,360.937 318.5,365.5C 327.291,360.937 335.958,356.103 344.5,351C 346.134,350.506 347.801,350.34 349.5,350.5C 349.5,348.5 349.5,346.5 349.5,344.5C 343.866,343.535 338.866,341.201 334.5,337.5C 335.167,337.5 335.5,337.167 335.5,336.5C 340.254,340.217 345.588,342.217 351.5,342.5C 351.5,345.833 351.5,349.167 351.5,352.5C 349.143,352.337 346.81,352.503 344.5,353C 338.167,356.833 331.833,360.667 325.5,364.5C 324.5,400.494 324.167,436.494 324.5,472.5C 320.5,472.5 316.5,472.5 312.5,472.5C 312.5,469.167 312.5,465.833 312.5,462.5C 301.833,462.5 291.167,462.5 280.5,462.5C 280.5,457.167 280.5,451.833 280.5,446.5C 284.167,446.5 287.833,446.5 291.5,446.5C 291.198,449.059 291.532,451.393 292.5,453.5C 295.833,453.5 299.167,453.5 302.5,453.5C 303.468,451.393 303.802,449.059 303.5,446.5C 306.713,446.81 309.713,446.477 312.5,445.5C 312.5,444.5 312.5,443.5 312.5,442.5C 309.713,441.523 306.713,441.19 303.5,441.5C 303.802,438.941 303.468,436.607 302.5,434.5C 299.167,434.5 295.833,434.5 292.5,434.5C 291.532,436.607 291.198,438.941 291.5,441.5C 287.833,441.5 284.167,441.5 280.5,441.5C 280.5,436.167 280.5,430.833 280.5,425.5C 291.167,425.5 301.833,425.5 312.5,425.5C 312.667,405.164 312.5,384.831 312,364.5C 305.5,360.667 299,356.833 292.5,353C 290.19,352.503 287.857,352.337 285.5,352.5C 285.5,349.167 285.5,345.833 285.5,342.5C 287.857,342.663 290.19,342.497 292.5,342C 297.833,339 303.167,336 308.5,333C 309.46,329.27 309.793,325.437 309.5,321.5C 309.5,319.833 309.5,318.167 309.5,316.5C 289.167,316.5 268.833,316.5 248.5,316.5C 248.5,314.5 248.5,312.5 248.5,310.5C 225.833,310.5 203.167,310.5 180.5,310.5C 180.766,306.429 180.433,302.429 179.5,298.5C 184.852,295.159 190.185,291.826 195.5,288.5 Z"/></g>
<g><path style="opacity:1" fill="#d0000b" d="M 311.5,342.5 C 312.992,345.323 315.326,346.99 318.5,347.5C 322.95,347.858 326.45,346.192 329,342.5C 330.579,344.041 332.413,345.208 334.5,346C 335.833,347 335.833,348 334.5,349C 329.288,352.105 323.955,354.939 318.5,357.5C 312.706,354.435 307.04,351.101 301.5,347.5C 304.309,344.762 307.642,343.096 311.5,342.5 Z"/></g>
<g><path style="opacity:1" fill="#ba000b" d="M 316.5,337.5 C 319.463,337.151 321.796,338.151 323.5,340.5C 320.505,343.174 317.838,342.841 315.5,339.5C 315.863,338.817 316.196,338.15 316.5,337.5 Z"/></g>
<g><path style="opacity:1" fill="#750006" d="M 182.5,299.5 C 182.5,299.833 182.5,300.167 182.5,300.5C 182.5,303.167 182.5,305.833 182.5,308.5C 204.5,308.5 226.5,308.5 248.5,308.5C 226.34,309.497 204.006,309.831 181.5,309.5C 181.187,305.958 181.521,302.625 182.5,299.5 Z"/></g>
<g><path style="opacity:1" fill="#d8000b" d="M 313.5,306.5 C 312.506,309.124 311.506,311.79 310.5,314.5C 290.5,314.5 270.5,314.5 250.5,314.5C 250.5,310.833 250.5,307.167 250.5,303.5C 271.836,303.333 293.169,303.5 314.5,304C 313.748,304.671 313.414,305.504 313.5,306.5 Z"/></g>
<g><path style="opacity:1" fill="#d9000b" d="M 182.5,300.5 C 205.006,300.169 227.34,300.503 249.5,301.5C 248.532,303.607 248.198,305.941 248.5,308.5C 226.5,308.5 204.5,308.5 182.5,308.5C 182.5,305.833 182.5,303.167 182.5,300.5 Z"/></g>
<g><path style="opacity:1" fill="#ac0009" d="M 182.5,300.5 C 182.5,300.167 182.5,299.833 182.5,299.5C 205.836,299.333 229.169,299.5 252.5,300C 251.473,300.513 250.473,301.013 249.5,301.5C 227.34,300.503 205.006,300.169 182.5,300.5 Z"/></g>
<g><path style="opacity:1" fill="#480003" d="M 185.5,296.5 C 209.328,297.498 233.328,297.831 257.5,297.5C 233.003,298.663 208.337,298.83 183.5,298C 184.044,297.283 184.711,296.783 185.5,296.5 Z"/></g>
<g><path style="opacity:1" fill="#d1000b" d="M 267.5,294.5 C 278.505,294.333 289.505,294.5 300.5,295C 304.22,296.86 307.886,298.693 311.5,300.5C 292.671,301.662 273.671,301.829 254.5,301C 260.088,299.924 265.755,299.091 271.5,298.5C 268.893,297.682 266.226,297.182 263.5,297C 265.066,296.392 266.4,295.558 267.5,294.5 Z"/></g>
<g><path style="opacity:1" fill="#cdb20b" d="M 314.5,366.5 C 316.844,367.672 319.177,367.672 321.5,366.5C 322.452,368.045 322.785,369.712 322.5,371.5C 319.833,371.5 317.167,371.5 314.5,371.5C 314.5,369.833 314.5,368.167 314.5,366.5 Z"/></g>
<g><path style="opacity:1" fill="#ac960a" d="M 314.5,372.5 C 317.167,372.5 319.833,372.5 322.5,372.5C 322.5,403.5 322.5,434.5 322.5,465.5C 319.833,465.5 317.167,465.5 314.5,465.5C 314.5,434.5 314.5,403.5 314.5,372.5 Z"/></g>
<g><path style="opacity:1" fill="#f7d80d" d="M 315.5,373.5 C 317.5,373.5 319.5,373.5 321.5,373.5C 321.5,403.833 321.5,434.167 321.5,464.5C 319.5,464.5 317.5,464.5 315.5,464.5C 315.5,434.167 315.5,403.833 315.5,373.5 Z"/></g>
<g><path style="opacity:1" fill="#f5d50d" d="M 305.5,440.5 C 305.5,437.833 305.5,435.167 305.5,432.5C 300.167,432.5 294.833,432.5 289.5,432.5C 289.5,435.167 289.5,437.833 289.5,440.5C 287.167,440.5 284.833,440.5 282.5,440.5C 282.5,436.167 282.5,431.833 282.5,427.5C 292.5,427.5 302.5,427.5 312.5,427.5C 312.5,431.833 312.5,436.167 312.5,440.5C 310.167,440.5 307.833,440.5 305.5,440.5 Z"/></g>
<g><path style="opacity:1" fill="#7a6a06" d="M 305.5,440.5 C 304.532,438.393 304.198,436.059 304.5,433.5C 299.833,433.5 295.167,433.5 290.5,433.5C 290.802,436.059 290.468,438.393 289.5,440.5C 289.5,437.833 289.5,435.167 289.5,432.5C 294.833,432.5 300.167,432.5 305.5,432.5C 305.5,435.167 305.5,437.833 305.5,440.5 Z"/></g>
<g><path style="opacity:1" fill="#550005" d="M 292.5,434.5 C 292.5,437.167 292.5,439.833 292.5,442.5C 288.298,442.817 284.298,442.483 280.5,441.5C 284.167,441.5 287.833,441.5 291.5,441.5C 291.198,438.941 291.532,436.607 292.5,434.5 Z"/></g>
<g><path style="opacity:1" fill="#510005" d="M 302.5,434.5 C 303.468,436.607 303.802,438.941 303.5,441.5C 306.713,441.19 309.713,441.523 312.5,442.5C 309.167,442.5 305.833,442.5 302.5,442.5C 302.5,439.833 302.5,437.167 302.5,434.5 Z"/></g>
<g><path style="opacity:1" fill="#590005" d="M 312.5,445.5 C 309.713,446.477 306.713,446.81 303.5,446.5C 303.802,449.059 303.468,451.393 302.5,453.5C 302.5,450.833 302.5,448.167 302.5,445.5C 305.833,445.5 309.167,445.5 312.5,445.5 Z"/></g>
<g><path style="opacity:1" fill="#8a0009" d="M 280.5,446.5 C 284.298,445.517 288.298,445.183 292.5,445.5C 292.5,448.167 292.5,450.833 292.5,453.5C 291.532,451.393 291.198,449.059 291.5,446.5C 287.833,446.5 284.167,446.5 280.5,446.5 Z"/></g>
<g><path style="opacity:1" fill="#b19a0a" d="M 312.5,448.5 C 310.167,448.5 307.833,448.5 305.5,448.5C 305.802,451.059 305.468,453.393 304.5,455.5C 304.5,455.167 304.5,454.833 304.5,454.5C 304.5,452.167 304.5,449.833 304.5,447.5C 307.385,447.194 310.052,447.527 312.5,448.5 Z"/></g>
<g><path style="opacity:1" fill="#f5d50d" d="M 289.5,447.5 C 289.5,450.167 289.5,452.833 289.5,455.5C 294.5,455.5 299.5,455.5 304.5,455.5C 305.468,453.393 305.802,451.059 305.5,448.5C 307.833,448.5 310.167,448.5 312.5,448.5C 312.5,452.5 312.5,456.5 312.5,460.5C 302.5,460.5 292.5,460.5 282.5,460.5C 282.5,456.167 282.5,451.833 282.5,447.5C 284.833,447.5 287.167,447.5 289.5,447.5 Z"/></g>
<g><path style="opacity:1" fill="#393205" d="M 289.5,447.5 C 290.468,449.607 290.802,451.941 290.5,454.5C 295.167,454.5 299.833,454.5 304.5,454.5C 304.5,454.833 304.5,455.167 304.5,455.5C 299.5,455.5 294.5,455.5 289.5,455.5C 289.5,452.833 289.5,450.167 289.5,447.5 Z"/></g>
<g><path style="opacity:1" fill="#e2c40c" d="M 314.5,466.5 C 317.167,466.5 319.833,466.5 322.5,466.5C 322.5,467.833 322.5,469.167 322.5,470.5C 319.833,470.5 317.167,470.5 314.5,470.5C 314.5,469.167 314.5,467.833 314.5,466.5 Z"/></g>
</svg>
