<?xml version="1.0" encoding="UTF-8"?>
<!DOCTYPE svg PUBLIC "-//W3C//DTD SVG 1.1//EN" "http://www.w3.org/Graphics/SVG/1.1/DTD/svg11.dtd">
<svg xmlns="http://www.w3.org/2000/svg" version="1.1" width="640px" height="480px" style="shape-rendering:geometricPrecision; text-rendering:geometricPrecision; image-rendering:optimizeQuality; fill-rule:evenodd; clip-rule:evenodd" xmlns:xlink="http://www.w3.org/1999/xlink">
<g><path style="opacity:1" fill="#0d5daf" d="M -0.5,-0.5 C 34.8333,-0.5 70.1667,-0.5 105.5,-0.5C 105.5,34.8333 105.5,70.1667 105.5,105.5C 70.1667,105.5 34.8333,105.5 -0.5,105.5C -0.5,70.1667 -0.5,34.8333 -0.5,-0.5 Z"/></g>
<g><path style="opacity:1" fill="#fefefe" d="M 106.5,-0.5 C 124.167,-0.5 141.833,-0.5 159.5,-0.5C 159.5,34.8333 159.5,70.1667 159.5,105.5C 194.663,106.498 229.996,106.832 265.5,106.5C 265.5,124.167 265.5,141.833 265.5,159.5C 230.167,159.5 194.833,159.5 159.5,159.5C 159.5,195.167 159.5,230.833 159.5,266.5C 141.833,266.5 124.167,266.5 106.5,266.5C 106.832,230.663 106.498,194.996 105.5,159.5C 70.1667,159.5 34.8333,159.5 -0.5,159.5C -0.5,141.833 -0.5,124.167 -0.5,106.5C 35.1667,106.5 70.8333,106.5 106.5,106.5C 106.5,70.8333 106.5,35.1667 106.5,-0.5 Z"/></g>
<g><path style="opacity:1" fill="#0d5daf" d="M 159.5,-0.5 C 319.5,-0.5 479.5,-0.5 639.5,-0.5C 639.5,17.1667 639.5,34.8333 639.5,52.5C 515.167,52.5 390.833,52.5 266.5,52.5C 265.503,69.9921 265.17,87.6588 265.5,105.5C 230.167,105.5 194.833,105.5 159.5,105.5C 159.5,70.1667 159.5,34.8333 159.5,-0.5 Z"/></g>
<g><path style="opacity:1" fill="#fefefe" d="M 266.5,52.5 C 390.833,52.5 515.167,52.5 639.5,52.5C 639.5,70.1667 639.5,87.8333 639.5,105.5C 515.167,105.5 390.833,105.5 266.5,105.5C 266.5,87.8333 266.5,70.1667 266.5,52.5 Z"/></g>
<g><path style="opacity:1" fill="#568fc7" d="M 105.5,-0.5 C 105.833,-0.5 106.167,-0.5 106.5,-0.5C 106.5,35.1667 106.5,70.8333 106.5,106.5C 70.8333,106.5 35.1667,106.5 -0.5,106.5C -0.5,106.167 -0.5,105.833 -0.5,105.5C 34.8333,105.5 70.1667,105.5 105.5,105.5C 105.5,70.1667 105.5,34.8333 105.5,-0.5 Z"/></g>
<g><path style="opacity:1" fill="#7aa4d2" d="M 266.5,52.5 C 266.5,70.1667 266.5,87.8333 266.5,105.5C 390.833,105.5 515.167,105.5 639.5,105.5C 639.5,105.833 639.5,106.167 639.5,106.5C 515.167,106.5 390.833,106.5 266.5,106.5C 266.5,124.167 266.5,141.833 266.5,159.5C 266.5,177.167 266.5,194.833 266.5,212.5C 265.503,195.008 265.17,177.341 265.5,159.5C 265.5,141.833 265.5,124.167 265.5,106.5C 229.996,106.832 194.663,106.498 159.5,105.5C 194.833,105.5 230.167,105.5 265.5,105.5C 265.17,87.6588 265.503,69.9921 266.5,52.5 Z"/></g>
<g><path style="opacity:1" fill="#0d5daf" d="M 639.5,106.5 C 639.5,124.167 639.5,141.833 639.5,159.5C 515.167,159.5 390.833,159.5 266.5,159.5C 266.5,141.833 266.5,124.167 266.5,106.5C 390.833,106.5 515.167,106.5 639.5,106.5 Z"/></g>
<g><path style="opacity:1" fill="#0d5daf" d="M -0.5,159.5 C 34.8333,159.5 70.1667,159.5 105.5,159.5C 105.5,194.833 105.5,230.167 105.5,265.5C 70.1667,265.5 34.8333,265.5 -0.5,265.5C -0.5,230.167 -0.5,194.833 -0.5,159.5 Z"/></g>
<g><path style="opacity:1" fill="#115faf" d="M 265.5,159.5 C 265.17,177.341 265.503,195.008 266.5,212.5C 390.833,212.5 515.167,212.5 639.5,212.5C 639.5,230.5 639.5,248.5 639.5,266.5C 479.5,266.5 319.5,266.5 159.5,266.5C 159.5,230.833 159.5,195.167 159.5,159.5C 194.833,159.5 230.167,159.5 265.5,159.5 Z"/></g>
<g><path style="opacity:1" fill="#fefffe" d="M 266.5,159.5 C 390.833,159.5 515.167,159.5 639.5,159.5C 639.5,177.167 639.5,194.833 639.5,212.5C 515.167,212.5 390.833,212.5 266.5,212.5C 266.5,194.833 266.5,177.167 266.5,159.5 Z"/></g>
<g><path style="opacity:0.937" fill="#5991c9" d="M 105.5,159.5 C 106.498,194.996 106.832,230.663 106.5,266.5C 70.8333,266.5 35.1667,266.5 -0.5,266.5C -0.5,266.167 -0.5,265.833 -0.5,265.5C 34.8333,265.5 70.1667,265.5 105.5,265.5C 105.5,230.167 105.5,194.833 105.5,159.5 Z"/></g>
<g><path style="opacity:1" fill="#fefffe" d="M -0.5,266.5 C 35.1667,266.5 70.8333,266.5 106.5,266.5C 124.167,266.5 141.833,266.5 159.5,266.5C 319.5,266.5 479.5,266.5 639.5,266.5C 639.5,284.167 639.5,301.833 639.5,319.5C 426.167,319.5 212.833,319.5 -0.5,319.5C -0.5,301.833 -0.5,284.167 -0.5,266.5 Z"/></g>
<g><path style="opacity:1" fill="#0d5daf" d="M -0.5,319.5 C 212.833,319.5 426.167,319.5 639.5,319.5C 639.5,337.167 639.5,354.833 639.5,372.5C 426.167,372.5 212.833,372.5 -0.5,372.5C -0.5,354.833 -0.5,337.167 -0.5,319.5 Z"/></g>
<g><path style="opacity:1" fill="#fcfdfe" d="M -0.5,372.5 C 212.833,372.5 426.167,372.5 639.5,372.5C 639.5,390.5 639.5,408.5 639.5,426.5C 426.167,426.5 212.833,426.5 -0.5,426.5C -0.5,408.5 -0.5,390.5 -0.5,372.5 Z"/></g>
<g><path style="opacity:1" fill="#0d5daf" d="M -0.5,426.5 C 212.833,426.5 426.167,426.5 639.5,426.5C 639.5,444.167 639.5,461.833 639.5,479.5C 426.167,479.5 212.833,479.5 -0.5,479.5C -0.5,461.833 -0.5,444.167 -0.5,426.5 Z"/></g>
</svg>
