<?xml version="1.0" encoding="UTF-8"?>
<!DOCTYPE svg PUBLIC "-//W3C//DTD SVG 1.1//EN" "http://www.w3.org/Graphics/SVG/1.1/DTD/svg11.dtd">
<svg xmlns="http://www.w3.org/2000/svg" version="1.1" width="640px" height="480px" style="shape-rendering:geometricPrecision; text-rendering:geometricPrecision; image-rendering:optimizeQuality; fill-rule:evenodd; clip-rule:evenodd" xmlns:xlink="http://www.w3.org/1999/xlink">
<g><path style="opacity:1" fill="#fefefe" d="M -0.5,-0.5 C 212.833,-0.5 426.167,-0.5 639.5,-0.5C 639.5,79.5 639.5,159.5 639.5,239.5C 559.5,239.5 479.5,239.5 399.5,239.5C 397.42,180.821 372.086,135.321 323.5,103C 274.644,75.256 224.311,72.256 172.5,94C 113.153,124.157 82.1527,172.657 79.5,239.5C 52.8333,239.5 26.1667,239.5 -0.5,239.5C -0.5,159.5 -0.5,79.5 -0.5,-0.5 Z"/></g>
<g><path style="opacity:1" fill="#d00d33" d="M 399.5,239.5 C 292.833,239.5 186.167,239.5 79.5,239.5C 82.1527,172.657 113.153,124.157 172.5,94C 224.311,72.256 274.644,75.256 323.5,103C 372.086,135.321 397.42,180.821 399.5,239.5 Z"/></g>
<g><path style="opacity:1" fill="#d00c33" d="M -0.5,239.5 C 26.1667,239.5 52.8333,239.5 79.5,239.5C 82.1686,306.384 113.169,354.884 172.5,385C 225.687,407.014 277.02,403.347 326.5,374C 373.15,341.549 397.483,296.716 399.5,239.5C 479.5,239.5 559.5,239.5 639.5,239.5C 639.5,319.5 639.5,399.5 639.5,479.5C 426.167,479.5 212.833,479.5 -0.5,479.5C -0.5,399.5 -0.5,319.5 -0.5,239.5 Z"/></g>
<g><path style="opacity:1" fill="#fefefe" d="M 79.5,239.5 C 186.167,239.5 292.833,239.5 399.5,239.5C 397.483,296.716 373.15,341.549 326.5,374C 277.02,403.347 225.687,407.014 172.5,385C 113.169,354.884 82.1686,306.384 79.5,239.5 Z"/></g>
</svg>
