<?xml version="1.0" encoding="UTF-8"?>
<!DOCTYPE svg PUBLIC "-//W3C//DTD SVG 1.1//EN" "http://www.w3.org/Graphics/SVG/1.1/DTD/svg11.dtd">
<svg xmlns="http://www.w3.org/2000/svg" version="1.1" width="640px" height="480px" style="shape-rendering:geometricPrecision; text-rendering:geometricPrecision; image-rendering:optimizeQuality; fill-rule:evenodd; clip-rule:evenodd" xmlns:xlink="http://www.w3.org/1999/xlink">
<g><path style="opacity:1" fill="#ce1125" d="M -0.5,-0.5 C 212.833,-0.5 426.167,-0.5 639.5,-0.5C 639.5,159.5 639.5,319.5 639.5,479.5C 426.167,479.5 212.833,479.5 -0.5,479.5C -0.5,319.5 -0.5,159.5 -0.5,-0.5 Z"/></g>
<g><path style="opacity:1" fill="#fbce16" d="M 188.5,2.5 C 191.806,9.0854 194.14,16.0854 195.5,23.5C 203.174,23.3336 210.841,23.5003 218.5,24C 212.052,27.9544 206.052,32.4544 200.5,37.5C 203.205,44.4417 205.372,51.4417 207,58.5C 201.269,53.7648 195.269,49.4315 189,45.5C 183.067,49.0965 177.4,53.0965 172,57.5C 173.667,50.5 175.333,43.5 177,36.5C 171.59,32.2119 166.09,28.0452 160.5,24C 167.826,23.5003 175.159,23.3337 182.5,23.5C 184.5,16.5 186.5,9.5 188.5,2.5 Z"/></g>
<g><path style="opacity:1" fill="#fbce16" d="M 449.5,2.5 C 452.405,9.21607 454.739,16.2161 456.5,23.5C 463.841,23.3337 471.174,23.5003 478.5,24C 473,28.1667 467.5,32.3333 462,36.5C 463.667,43.5 465.333,50.5 467,57.5C 461.6,53.0965 455.933,49.0965 450,45.5C 444.234,48.9289 438.734,52.7623 433.5,57C 432.833,57.6667 432.167,57.6667 431.5,57C 433.927,50.5547 436.26,44.0547 438.5,37.5C 432.948,32.4544 426.948,27.9544 420.5,24C 428.159,23.5003 435.826,23.3336 443.5,23.5C 445.092,16.3899 447.092,9.38989 449.5,2.5 Z"/></g>
<g><path style="opacity:1" fill="#fbcd16" d="M 318.5,3.5 C 319.497,3.47008 320.164,3.97008 320.5,5C 322.401,10.8707 324.401,16.704 326.5,22.5C 333.811,23.3313 341.144,23.8313 348.5,24C 344.167,27 339.833,30 335.5,33C 333.603,34.2647 332.27,35.9313 331.5,38C 333.199,44.2628 335.199,50.4294 337.5,56.5C 337.167,56.8333 336.833,57.1667 336.5,57.5C 331.071,53.3722 325.571,49.3722 320,45.5C 313.923,49.1236 308.09,53.1236 302.5,57.5C 302.167,57.1667 301.833,56.8333 301.5,56.5C 303.801,50.4294 305.801,44.2628 307.5,38C 302.791,32.3024 297.125,27.6357 290.5,24C 297.856,23.8313 305.189,23.3313 312.5,22.5C 314.908,16.2761 316.908,9.94277 318.5,3.5 Z"/></g>
<g><path style="opacity:1" fill="#b5ad2a" d="M 67.5,66.5 C 235.5,66.5 403.5,66.5 571.5,66.5C 571.167,67.5 570.5,68.1667 569.5,68.5C 402.833,67.1667 236.167,67.1667 69.5,68.5C 68.5,68.1667 67.8333,67.5 67.5,66.5 Z"/></g>
<g><path style="opacity:1" fill="#fbd016" d="M 569.5,68.5 C 502.167,114.833 434.833,161.167 367.5,207.5C 352.546,187.538 332.546,179.372 307.5,183C 292.638,186.589 280.638,194.422 271.5,206.5C 203.869,160.858 136.536,114.858 69.5,68.5C 236.167,67.1667 402.833,67.1667 569.5,68.5 Z"/></g>
<g><path style="opacity:1" fill="#02795d" d="M 67.5,66.5 C 67.8333,67.5 68.5,68.1667 69.5,68.5C 136.536,114.858 203.869,160.858 271.5,206.5C 258.217,228.493 258.217,250.493 271.5,272.5C 204.167,318.5 136.833,364.5 69.5,410.5C 68.5,410.833 67.8333,411.5 67.5,412.5C 66.1667,297.167 66.1667,181.833 67.5,66.5 Z"/></g>
<g><path style="opacity:1" fill="#01795d" d="M 571.5,66.5 C 572.833,181.833 572.833,297.167 571.5,412.5C 571.167,411.5 570.5,410.833 569.5,410.5C 502.167,364.5 434.833,318.5 367.5,272.5C 379.47,250.796 379.47,229.129 367.5,207.5C 434.833,161.167 502.167,114.833 569.5,68.5C 570.5,68.1667 571.167,67.5 571.5,66.5 Z"/></g>
<g><path style="opacity:1" fill="#ce1526" d="M 367.5,207.5 C 379.47,229.129 379.47,250.796 367.5,272.5C 345.834,298.217 319.834,303.717 289.5,289C 282.678,284.343 276.678,278.843 271.5,272.5C 258.217,250.493 258.217,228.493 271.5,206.5C 280.638,194.422 292.638,186.589 307.5,183C 332.546,179.372 352.546,187.538 367.5,207.5 Z"/></g>
<g><path style="opacity:1" fill="#fbcf16" d="M 331.5,222.5 C 343.833,223.167 356.167,223.833 368.5,224.5C 358.353,231.412 348.353,238.579 338.5,246C 342.775,257.97 346.441,269.803 349.5,281.5C 339.5,274.167 329.5,266.833 319.5,259.5C 309.323,267.225 298.989,274.392 288.5,281C 292.5,269.333 296.5,257.667 300.5,246C 290.647,238.579 280.647,231.412 270.5,224.5C 282.833,223.833 295.167,223.167 307.5,222.5C 311.467,210.937 315.467,199.27 319.5,187.5C 323.533,199.27 327.533,210.937 331.5,222.5 Z"/></g>
<g><path style="opacity:1" fill="#f9cf17" d="M 132.5,250.5 C 127.334,245.349 121.334,241.349 114.5,238.5C 113.073,246.047 113.74,253.38 116.5,260.5C 117.905,267.217 120.572,273.384 124.5,279C 100.531,277.031 88.1978,264.031 87.5,240C 88.5925,231.17 89.7592,222.336 91,213.5C 91.5264,207.448 91.5264,201.448 91,195.5C 93.3834,198.273 96.2167,200.439 99.5,202C 109.5,206.667 119.5,211.333 129.5,216C 148.421,228.142 154.254,244.975 147,266.5C 146.333,267.833 145.667,267.833 145,266.5C 141.733,260.407 137.566,255.074 132.5,250.5 Z"/></g>
<g><path style="opacity:1" fill="#dd5120" d="M 307.5,222.5 C 295.167,223.167 282.833,223.833 270.5,224.5C 269.957,224.44 269.624,224.107 269.5,223.5C 282.149,222.501 294.816,222.168 307.5,222.5 Z"/></g>
<g><path style="opacity:1" fill="#dd5120" d="M 331.5,222.5 C 344.184,222.168 356.851,222.501 369.5,223.5C 369.376,224.107 369.043,224.44 368.5,224.5C 356.167,223.833 343.833,223.167 331.5,222.5 Z"/></g>
<g><path style="opacity:1" fill="#cb1d26" d="M 132.5,250.5 C 134.058,258.114 134.892,265.78 135,273.5C 128.677,269.336 122.51,265.003 116.5,260.5C 113.74,253.38 113.073,246.047 114.5,238.5C 121.334,241.349 127.334,245.349 132.5,250.5 Z"/></g>
<g><path style="opacity:1" fill="#fbd016" d="M 271.5,272.5 C 276.678,278.843 282.678,284.343 289.5,289C 319.834,303.717 345.834,298.217 367.5,272.5C 434.833,318.5 502.167,364.5 569.5,410.5C 402.833,411.833 236.167,411.833 69.5,410.5C 136.833,364.5 204.167,318.5 271.5,272.5 Z"/></g>
<g><path style="opacity:1" fill="#dec11e" d="M 69.5,410.5 C 236.167,411.833 402.833,411.833 569.5,410.5C 570.5,410.833 571.167,411.5 571.5,412.5C 403.5,412.5 235.5,412.5 67.5,412.5C 67.8333,411.5 68.5,410.833 69.5,410.5 Z"/></g>
<g><path style="opacity:1" fill="#fbce16" d="M 161.5,439.5 C 168.5,438.833 175.5,438.167 182.5,437.5C 184.56,430.82 186.726,424.153 189,417.5C 191.492,424.306 193.992,431.139 196.5,438C 203.5,438.333 210.5,438.667 217.5,439C 211.622,443.1 205.956,447.433 200.5,452C 203.228,458.772 205.394,465.606 207,472.5C 201.177,467.922 195.177,463.588 189,459.5C 183.333,463.833 177.667,468.167 172,472.5C 173.392,465.64 175.225,458.807 177.5,452C 172.637,447.312 167.304,443.146 161.5,439.5 Z"/></g>
<g><path style="opacity:1" fill="#fbce16" d="M 449.5,417.5 C 452.405,424.216 454.739,431.216 456.5,438.5C 463.841,438.334 471.174,438.5 478.5,439C 472.913,442.71 467.413,446.543 462,450.5C 463.463,457.886 465.129,465.219 467,472.5C 461.333,468.167 455.667,463.833 450,459.5C 444.411,463.378 438.911,467.378 433.5,471.5C 433.792,464.835 435.459,458.335 438.5,452C 433.044,447.433 427.378,443.1 421.5,439C 428.5,438.667 435.5,438.333 442.5,438C 445.137,431.256 447.47,424.422 449.5,417.5 Z"/></g>
<g><path style="opacity:1" fill="#fbce16" d="M 326.5,437.5 C 333.5,438.167 340.5,438.833 347.5,439.5C 342.213,442.947 337.046,446.614 332,450.5C 333.06,458.003 334.726,465.336 337,472.5C 331.308,467.974 325.474,463.641 319.5,459.5C 313.577,463.711 307.744,468.045 302,472.5C 304.274,465.336 305.94,458.003 307,450.5C 301.954,446.614 296.787,442.947 291.5,439.5C 298.5,438.833 305.5,438.167 312.5,437.5C 314.826,430.856 317.159,424.189 319.5,417.5C 321.841,424.189 324.174,430.856 326.5,437.5 Z"/></g>
<g><path style="opacity:1" fill="#e46e1d" d="M 182.5,437.5 C 175.5,438.167 168.5,438.833 161.5,439.5C 160.711,439.217 160.044,438.717 159.5,438C 167.159,437.5 174.826,437.334 182.5,437.5 Z"/></g>
<g><path style="opacity:1" fill="#e46c1e" d="M 312.5,437.5 C 305.5,438.167 298.5,438.833 291.5,439.5C 290.957,439.44 290.624,439.107 290.5,438.5C 297.803,437.503 305.137,437.169 312.5,437.5 Z"/></g>
<g><path style="opacity:1" fill="#e46c1d" d="M 326.5,437.5 C 333.863,437.169 341.197,437.503 348.5,438.5C 348.376,439.107 348.043,439.44 347.5,439.5C 340.5,438.833 333.5,438.167 326.5,437.5 Z"/></g>
</svg>
