<?xml version="1.0" encoding="UTF-8"?>
<!DOCTYPE svg PUBLIC "-//W3C//DTD SVG 1.1//EN" "http://www.w3.org/Graphics/SVG/1.1/DTD/svg11.dtd">
<svg xmlns="http://www.w3.org/2000/svg" version="1.1" width="640px" height="480px" style="shape-rendering:geometricPrecision; text-rendering:geometricPrecision; image-rendering:optimizeQuality; fill-rule:evenodd; clip-rule:evenodd" xmlns:xlink="http://www.w3.org/1999/xlink">
<g><path style="opacity:1" fill="#bd0027" d="M -0.5,-0.5 C 212.833,-0.5 426.167,-0.5 639.5,-0.5C 639.5,159.5 639.5,319.5 639.5,479.5C 426.167,479.5 212.833,479.5 -0.5,479.5C -0.5,319.5 -0.5,159.5 -0.5,-0.5 Z"/></g>
<g><path style="opacity:1" fill="#3b59a2" d="M 25.5,26.5 C 221.833,26.5 418.167,26.5 614.5,26.5C 614.5,169.167 614.5,311.833 614.5,454.5C 418.167,454.5 221.833,454.5 25.5,454.5C 25.5,311.833 25.5,169.167 25.5,26.5 Z"/></g>
<g><path style="opacity:1" fill="#bd0528" d="M 313.5,51.5 C 318.597,51.5427 323.264,53.0427 327.5,56C 387.665,92.2275 422.165,145.394 431,215.5C 436.757,287.934 413.257,348.767 360.5,398C 348.528,407.655 335.861,416.322 322.5,424C 320.577,424.808 318.577,425.308 316.5,425.5C 312.626,424.565 308.96,423.065 305.5,421C 238.469,377.639 204.469,315.639 203.5,235C 207.139,153.484 243.806,92.3173 313.5,51.5 Z"/></g>
<g><path style="opacity:1" fill="#cbdfe3" d="M 409.5,280.5 C 405.223,281.702 400.89,282.702 396.5,283.5C 393.394,283.897 391.061,282.731 389.5,280C 387.966,279.077 386.299,278.577 384.5,278.5C 380.5,280.167 376.5,281.833 372.5,283.5C 368.912,282.205 365.245,281.205 361.5,280.5C 357.105,281.946 352.605,282.946 348,283.5C 346.167,283.333 344.333,283.167 342.5,283C 337.925,280.242 333.258,277.742 328.5,275.5C 325.586,269.516 323.753,263.183 323,256.5C 322.078,230.167 321.244,203.834 320.5,177.5C 322.375,184.284 324.875,190.951 328,197.5C 330.627,201.153 333.96,202.153 338,200.5C 338.81,195.743 338.476,191.076 337,186.5C 333.274,181.772 329.941,176.772 327,171.5C 325.69,167.93 324.857,164.263 324.5,160.5C 332.755,160.884 338.588,164.884 342,172.5C 347.813,178.49 354.313,183.49 361.5,187.5C 362.442,187.392 363.275,187.059 364,186.5C 364.841,182.88 364.174,179.546 362,176.5C 353.799,164.977 342.632,158.477 328.5,157C 327.426,156.261 326.759,155.261 326.5,154C 334.432,145.472 344.099,142.805 355.5,146C 360.077,150.066 365.244,151.566 371,150.5C 371.667,148.5 371.667,146.5 371,144.5C 357.776,130.764 343.61,129.93 328.5,142C 327.5,142.667 326.5,142.667 325.5,142C 329.132,131.701 336.132,124.701 346.5,121C 354.086,114.413 353.086,111.413 343.5,112C 339.993,114.254 336.327,116.254 332.5,118C 327.436,124.625 323.269,131.792 320,139.5C 319.667,127.5 319.333,115.5 319,103.5C 318.032,98.2246 315.532,93.8913 311.5,90.5C 305.761,101.038 304.928,112.038 309,123.5C 310.559,127.619 312.393,131.619 314.5,135.5C 314.167,135.833 313.833,136.167 313.5,136.5C 310.335,131.022 306.335,126.188 301.5,122C 293.94,117.907 285.94,116.74 277.5,118.5C 278.648,120.149 279.981,121.649 281.5,123C 290.334,126.05 298.667,130.05 306.5,135C 309.154,138.327 310.154,142.161 309.5,146.5C 298.682,143.833 287.682,143 276.5,144C 268.227,147.273 262.227,152.94 258.5,161C 264.926,157.965 271.426,154.798 278,151.5C 285.293,154.28 292.793,156.28 300.5,157.5C 293.744,161.305 287.577,165.971 282,171.5C 276.819,178.208 275.153,185.541 277,193.5C 282.052,182.441 290.219,174.941 301.5,171C 306.748,166.204 307.914,167.371 305,174.5C 299.77,183.513 297.436,193.18 298,203.5C 299.726,204.576 301.559,204.743 303.5,204C 307.398,200.271 311.065,196.438 314.5,192.5C 314.333,213.836 314.5,235.169 315,256.5C 315.903,263.008 317.403,269.342 319.5,275.5C 313.527,279.473 308.527,284.473 304.5,290.5C 292.609,281.627 282.109,271.293 273,259.5C 275.182,265.573 276.682,271.906 277.5,278.5C 277.548,283.984 276.214,288.984 273.5,293.5C 258.833,293.5 244.167,293.5 229.5,293.5C 211.158,224.544 224.658,162.544 270,107.5C 283.573,92.5714 299.24,80.5714 317,71.5C 360.376,94.5578 389.709,129.558 405,176.5C 414.543,210.789 416.043,245.456 409.5,280.5 Z"/></g>
<g><path style="opacity:1" fill="#299f4a" d="M 320.5,177.5 C 319.889,174.279 318.722,171.279 317,168.5C 316.887,176.606 316.054,184.606 314.5,192.5C 311.065,196.438 307.398,200.271 303.5,204C 301.559,204.743 299.726,204.576 298,203.5C 297.436,193.18 299.77,183.513 305,174.5C 307.914,167.371 306.748,166.204 301.5,171C 290.219,174.941 282.052,182.441 277,193.5C 275.153,185.541 276.819,178.208 282,171.5C 287.577,165.971 293.744,161.305 300.5,157.5C 292.793,156.28 285.293,154.28 278,151.5C 271.426,154.798 264.926,157.965 258.5,161C 262.227,152.94 268.227,147.273 276.5,144C 287.682,143 298.682,143.833 309.5,146.5C 310.154,142.161 309.154,138.327 306.5,135C 298.667,130.05 290.334,126.05 281.5,123C 279.981,121.649 278.648,120.149 277.5,118.5C 285.94,116.74 293.94,117.907 301.5,122C 306.335,126.188 310.335,131.022 313.5,136.5C 313.833,136.167 314.167,135.833 314.5,135.5C 312.393,131.619 310.559,127.619 309,123.5C 304.928,112.038 305.761,101.038 311.5,90.5C 315.532,93.8913 318.032,98.2246 319,103.5C 319.333,115.5 319.667,127.5 320,139.5C 323.269,131.792 327.436,124.625 332.5,118C 336.327,116.254 339.993,114.254 343.5,112C 353.086,111.413 354.086,114.413 346.5,121C 336.132,124.701 329.132,131.701 325.5,142C 326.5,142.667 327.5,142.667 328.5,142C 343.61,129.93 357.776,130.764 371,144.5C 371.667,146.5 371.667,148.5 371,150.5C 365.244,151.566 360.077,150.066 355.5,146C 344.099,142.805 334.432,145.472 326.5,154C 326.759,155.261 327.426,156.261 328.5,157C 342.632,158.477 353.799,164.977 362,176.5C 364.174,179.546 364.841,182.88 364,186.5C 363.275,187.059 362.442,187.392 361.5,187.5C 354.313,183.49 347.813,178.49 342,172.5C 338.588,164.884 332.755,160.884 324.5,160.5C 324.857,164.263 325.69,167.93 327,171.5C 329.941,176.772 333.274,181.772 337,186.5C 338.476,191.076 338.81,195.743 338,200.5C 333.96,202.153 330.627,201.153 328,197.5C 324.875,190.951 322.375,184.284 320.5,177.5 Z"/></g>
<g><path style="opacity:1" fill="#a79472" d="M 320.5,177.5 C 321.244,203.834 322.078,230.167 323,256.5C 323.753,263.183 325.586,269.516 328.5,275.5C 330.01,280.854 332.343,285.854 335.5,290.5C 335.932,291.71 336.599,292.71 337.5,293.5C 344.5,307.833 355.167,318.5 369.5,325.5C 378.186,332.282 377.186,337.448 366.5,341C 358.338,341.755 353.005,338.255 350.5,330.5C 349.83,327.327 348.664,324.327 347,321.5C 340.724,311.926 334.224,302.592 327.5,293.5C 327.443,292.391 327.11,291.391 326.5,290.5C 323.893,285.62 321.56,280.62 319.5,275.5C 317.403,269.342 315.903,263.008 315,256.5C 314.5,235.169 314.333,213.836 314.5,192.5C 316.054,184.606 316.887,176.606 317,168.5C 318.722,171.279 319.889,174.279 320.5,177.5 Z"/></g>
<g><path style="opacity:1" fill="#c32839" d="M 268.5,237.5 C 271.833,237.5 275.167,237.5 278.5,237.5C 278.5,241.5 278.5,245.5 278.5,249.5C 277.265,249.279 276.265,248.612 275.5,247.5C 262.475,253.334 256.308,249 257,234.5C 260.446,225.192 266.612,222.692 275.5,227C 276.872,228.242 277.872,229.742 278.5,231.5C 277.635,232.583 276.635,232.749 275.5,232C 270.505,225.912 265.672,226.078 261,232.5C 259.528,238.076 260.695,242.909 264.5,247C 271.447,248.882 275.113,246.382 275.5,239.5C 272.612,240.01 270.279,239.344 268.5,237.5 Z"/></g>
<g><path style="opacity:1" fill="#bf142e" d="M 288.5,225.5 C 289.5,225.5 290.5,225.5 291.5,225.5C 291.334,231.509 291.501,237.509 292,243.5C 294.053,247.292 297.219,248.458 301.5,247C 302.701,246.097 303.535,244.931 304,243.5C 304.499,237.509 304.666,231.509 304.5,225.5C 305.5,225.5 306.5,225.5 307.5,225.5C 307.666,231.842 307.5,238.175 307,244.5C 305.499,248.963 302.333,250.963 297.5,250.5C 293.467,250.314 290.634,248.314 289,244.5C 288.5,238.175 288.334,231.842 288.5,225.5 Z"/></g>
<g><path style="opacity:1" fill="#c22235" d="M 332.5,225.5 C 333.978,225.238 335.311,225.571 336.5,226.5C 339.572,234.052 342.239,241.718 344.5,249.5C 343.178,249.67 342.011,249.337 341,248.5C 340.187,246.564 339.687,244.564 339.5,242.5C 336.15,242.335 332.817,242.502 329.5,243C 328.601,245.192 327.601,247.358 326.5,249.5C 325.675,250.386 324.675,250.719 323.5,250.5C 326.217,242.065 329.217,233.732 332.5,225.5 Z"/></g>
<g><path style="opacity:1" fill="#c01b31" d="M 379.5,225.5 C 379.831,233.528 379.498,241.528 378.5,249.5C 377.669,242.858 377.169,236.191 377,229.5C 376.283,230.044 375.783,230.711 375.5,231.5C 373.833,237.5 372.167,243.5 370.5,249.5C 369.022,249.762 367.689,249.429 366.5,248.5C 364.432,242.462 362.265,236.462 360,230.5C 359.5,236.825 359.334,243.158 359.5,249.5C 358.5,249.5 357.5,249.5 356.5,249.5C 356.5,241.5 356.5,233.5 356.5,225.5C 358.288,225.215 359.955,225.548 361.5,226.5C 363.568,232.538 365.735,238.538 368,244.5C 370.858,238.426 373.025,232.092 374.5,225.5C 376.167,225.5 377.833,225.5 379.5,225.5 Z"/></g>
<g><path style="opacity:1" fill="#d66578" d="M 379.5,225.5 C 380.493,233.65 380.826,241.983 380.5,250.5C 379.167,250.5 377.833,250.5 376.5,250.5C 376.823,243.978 376.49,237.645 375.5,231.5C 375.783,230.711 376.283,230.044 377,229.5C 377.169,236.191 377.669,242.858 378.5,249.5C 379.498,241.528 379.831,233.528 379.5,225.5 Z"/></g>
<g><path style="opacity:1" fill="#d6667a" d="M 268.5,237.5 C 271.962,236.518 275.629,236.185 279.5,236.5C 279.818,241.032 279.485,245.366 278.5,249.5C 278.5,245.5 278.5,241.5 278.5,237.5C 275.167,237.5 271.833,237.5 268.5,237.5 Z"/></g>
<g><path style="opacity:1" fill="#e4d7dc" d="M 333.5,229.5 C 335.601,232.797 336.935,236.463 337.5,240.5C 335.167,240.5 332.833,240.5 330.5,240.5C 331.301,236.765 332.301,233.099 333.5,229.5 Z"/></g>
<g><path style="opacity:1" fill="#fbf8fe" d="M 304.5,290.5 C 305.795,291.488 307.128,292.488 308.5,293.5C 311.462,296.964 314.629,300.297 318,303.5C 319.411,305.65 320.245,307.984 320.5,310.5C 313.5,310.5 306.5,310.5 299.5,310.5C 297.833,310.5 296.167,310.5 294.5,310.5C 283.828,310.667 273.161,310.5 262.5,310C 266.807,304.872 270.473,299.372 273.5,293.5C 276.214,288.984 277.548,283.984 277.5,278.5C 276.682,271.906 275.182,265.573 273,259.5C 282.109,271.293 292.609,281.627 304.5,290.5 Z"/></g>
<g><path style="opacity:1" fill="#1d9a3d" d="M 319.5,275.5 C 321.56,280.62 323.893,285.62 326.5,290.5C 319.167,290.5 311.833,290.5 304.5,290.5C 308.527,284.473 313.527,279.473 319.5,275.5 Z"/></g>
<g><path style="opacity:1" fill="#229c3f" d="M 328.5,275.5 C 333.258,277.742 337.925,280.242 342.5,283C 344.333,283.167 346.167,283.333 348,283.5C 352.605,282.946 357.105,281.946 361.5,280.5C 365.245,281.205 368.912,282.205 372.5,283.5C 376.5,281.833 380.5,280.167 384.5,278.5C 386.299,278.577 387.966,279.077 389.5,280C 391.061,282.731 393.394,283.897 396.5,283.5C 400.89,282.702 405.223,281.702 409.5,280.5C 408.993,284.083 407.993,287.417 406.5,290.5C 382.833,290.5 359.167,290.5 335.5,290.5C 332.343,285.854 330.01,280.854 328.5,275.5 Z"/></g>
<g><path style="opacity:1" fill="#fcf8a1" d="M 335.5,290.5 C 359.167,290.5 382.833,290.5 406.5,290.5C 406.5,291.5 406.5,292.5 406.5,293.5C 383.5,293.5 360.5,293.5 337.5,293.5C 336.599,292.71 335.932,291.71 335.5,290.5 Z"/></g>
<g><path style="opacity:1" fill="#f7f69e" d="M 304.5,290.5 C 311.833,290.5 319.167,290.5 326.5,290.5C 327.11,291.391 327.443,292.391 327.5,293.5C 321.167,293.5 314.833,293.5 308.5,293.5C 307.128,292.488 305.795,291.488 304.5,290.5 Z"/></g>
<g><path style="opacity:1" fill="#aed1d7" d="M 229.5,293.5 C 244.167,293.5 258.833,293.5 273.5,293.5C 270.473,299.372 266.807,304.872 262.5,310C 273.161,310.5 283.828,310.667 294.5,310.5C 294.5,312.5 294.5,314.5 294.5,316.5C 281.023,315.956 267.69,314.289 254.5,311.5C 254.974,315.281 256.641,318.448 259.5,321C 266.167,321.333 272.833,321.667 279.5,322C 276.424,322.346 273.424,323.012 270.5,324C 286.833,324.667 303.167,324.667 319.5,324C 325.713,321.356 328.713,316.856 328.5,310.5C 319.266,314.53 309.6,316.53 299.5,316.5C 299.5,314.5 299.5,312.5 299.5,310.5C 306.5,310.5 313.5,310.5 320.5,310.5C 320.245,307.984 319.411,305.65 318,303.5C 314.629,300.297 311.462,296.964 308.5,293.5C 314.833,293.5 321.167,293.5 327.5,293.5C 334.224,302.592 340.724,311.926 347,321.5C 348.664,324.327 349.83,327.327 350.5,330.5C 340.756,332.161 331.089,331.828 321.5,329.5C 317.837,329.66 315.171,331.327 313.5,334.5C 314.779,336.146 316.445,337.313 318.5,338C 325.833,338.333 333.167,338.667 340.5,339C 346.75,340.039 351.583,343.206 355,348.5C 356.041,351.636 355.207,354.136 352.5,356C 337.906,360.737 322.906,362.737 307.5,362C 302.073,364.551 296.407,366.217 290.5,367C 285.594,370.089 280.594,372.923 275.5,375.5C 270.555,371.587 266.555,366.92 263.5,361.5C 272.133,352.942 282.633,348.608 295,348.5C 302.507,349.751 310.007,351.085 317.5,352.5C 319.923,352.406 322.256,351.906 324.5,351C 325.451,350.282 325.617,349.449 325,348.5C 318.53,344.241 311.363,342.407 303.5,343C 298.167,341 292.833,339 287.5,337C 276.408,337.968 266.075,335.635 256.5,330C 251.882,329.006 247.215,328.506 242.5,328.5C 236.411,317.575 232.077,305.908 229.5,293.5 Z"/></g>
<g><path style="opacity:1" fill="#add1d8" d="M 337.5,293.5 C 360.5,293.5 383.5,293.5 406.5,293.5C 404.701,299.563 402.701,305.563 400.5,311.5C 398.345,311.372 396.345,311.872 394.5,313C 388.225,320.319 380.225,323.985 370.5,324C 369.944,324.383 369.611,324.883 369.5,325.5C 355.167,318.5 344.5,307.833 337.5,293.5 Z"/></g>
<g><path style="opacity:1" fill="#0b0c0b" d="M 294.5,310.5 C 296.167,310.5 297.833,310.5 299.5,310.5C 299.5,312.5 299.5,314.5 299.5,316.5C 297.833,316.5 296.167,316.5 294.5,316.5C 294.5,314.5 294.5,312.5 294.5,310.5 Z"/></g>
<g><path style="opacity:1" fill="#a68b66" d="M 294.5,316.5 C 296.167,316.5 297.833,316.5 299.5,316.5C 309.6,316.53 319.266,314.53 328.5,310.5C 328.713,316.856 325.713,321.356 319.5,324C 303.167,324.667 286.833,324.667 270.5,324C 273.424,323.012 276.424,322.346 279.5,322C 272.833,321.667 266.167,321.333 259.5,321C 256.641,318.448 254.974,315.281 254.5,311.5C 267.69,314.289 281.023,315.956 294.5,316.5 Z"/></g>
<g><path style="opacity:1" fill="#fcf7a0" d="M 400.5,311.5 C 384.918,351.584 358.918,383.084 322.5,406C 318.833,408 315.167,408 311.5,406C 298.135,397.47 286.135,387.303 275.5,375.5C 280.594,372.923 285.594,370.089 290.5,367C 296.407,366.217 302.073,364.551 307.5,362C 322.906,362.737 337.906,360.737 352.5,356C 355.207,354.136 356.041,351.636 355,348.5C 351.583,343.206 346.75,340.039 340.5,339C 333.167,338.667 325.833,338.333 318.5,338C 316.445,337.313 314.779,336.146 313.5,334.5C 315.171,331.327 317.837,329.66 321.5,329.5C 331.089,331.828 340.756,332.161 350.5,330.5C 353.005,338.255 358.338,341.755 366.5,341C 377.186,337.448 378.186,332.282 369.5,325.5C 369.611,324.883 369.944,324.383 370.5,324C 380.225,323.985 388.225,320.319 394.5,313C 396.345,311.872 398.345,311.372 400.5,311.5 Z"/></g>
<g><path style="opacity:1" fill="#fbf7a1" d="M 242.5,328.5 C 247.215,328.506 251.882,329.006 256.5,330C 266.075,335.635 276.408,337.968 287.5,337C 292.833,339 298.167,341 303.5,343C 311.363,342.407 318.53,344.241 325,348.5C 325.617,349.449 325.451,350.282 324.5,351C 322.256,351.906 319.923,352.406 317.5,352.5C 310.007,351.085 302.507,349.751 295,348.5C 282.633,348.608 272.133,352.942 263.5,361.5C 254.755,351.693 247.755,340.693 242.5,328.5 Z"/></g>
<g><path style="opacity:1" fill="#703872" d="M 25.5,26.5 C 25.5,169.167 25.5,311.833 25.5,454.5C 221.833,454.5 418.167,454.5 614.5,454.5C 418.001,455.5 221.334,455.833 24.5,455.5C 24.1671,312.332 24.5004,169.332 25.5,26.5 Z"/></g>
</svg>
