<?xml version="1.0" encoding="UTF-8"?>
<!DOCTYPE svg PUBLIC "-//W3C//DTD SVG 1.1//EN" "http://www.w3.org/Graphics/SVG/1.1/DTD/svg11.dtd">
<svg xmlns="http://www.w3.org/2000/svg" version="1.1" width="640px" height="480px" style="shape-rendering:geometricPrecision; text-rendering:geometricPrecision; image-rendering:optimizeQuality; fill-rule:evenodd; clip-rule:evenodd" xmlns:xlink="http://www.w3.org/1999/xlink">
<g><path style="opacity:1" fill="#4997d0" d="M -0.5,-0.5 C 70.5,-0.5 141.5,-0.5 212.5,-0.5C 212.5,159.5 212.5,319.5 212.5,479.5C 141.5,479.5 70.5,479.5 -0.5,479.5C -0.5,319.5 -0.5,159.5 -0.5,-0.5 Z"/></g>
<g><path style="opacity:1" fill="#fefefe" d="M 212.5,-0.5 C 283.833,-0.5 355.167,-0.5 426.5,-0.5C 426.5,159.5 426.5,319.5 426.5,479.5C 355.167,479.5 283.833,479.5 212.5,479.5C 212.5,319.5 212.5,159.5 212.5,-0.5 Z"/></g>
<g><path style="opacity:1" fill="#4997d0" d="M 426.5,-0.5 C 497.5,-0.5 568.5,-0.5 639.5,-0.5C 639.5,159.5 639.5,319.5 639.5,479.5C 568.5,479.5 497.5,479.5 426.5,479.5C 426.5,319.5 426.5,159.5 426.5,-0.5 Z"/></g>
<g><path style="opacity:1" fill="#decb72" d="M 314.5,169.5 C 314.5,170.167 314.5,170.833 314.5,171.5C 311.833,170.833 311.833,170.167 314.5,169.5 Z"/></g>
<g><path style="opacity:1" fill="#57783b" d="M 381.5,187.5 C 380.833,187.833 380.167,188.167 379.5,188.5C 375.51,182.688 373.01,176.354 372,169.5C 378.049,174.032 381.216,180.032 381.5,187.5 Z"/></g>
<g><path style="opacity:1" fill="#531d15" d="M 323.5,188.5 C 317.5,187.167 313.833,183.5 312.5,177.5C 313.458,177.047 314.292,176.381 315,175.5C 315.527,181.006 317.861,183.672 322,183.5C 322.667,184.833 323.333,186.167 324,187.5C 324.333,187.167 324.667,186.833 325,186.5C 325.528,187.816 325.028,188.483 323.5,188.5 Z"/></g>
<g><path style="opacity:1" fill="#5e833d" d="M 266.5,179.5 C 265.206,180.29 264.039,181.29 263,182.5C 261.812,181.437 261.312,180.103 261.5,178.5C 263.718,174.771 266.551,171.438 270,168.5C 269.455,172.283 268.288,175.95 266.5,179.5 Z"/></g>
<g><path style="opacity:1" fill="#567a37" d="M 267.5,186.5 C 266.833,186.5 266.5,186.833 266.5,187.5C 265.193,188.153 263.86,188.82 262.5,189.5C 261.614,188.675 261.281,187.675 261.5,186.5C 263.5,184.167 265.5,181.833 267.5,179.5C 270.405,177.032 273.739,175.865 277.5,176C 274.665,180.001 271.332,183.501 267.5,186.5 Z"/></g>
<g><path style="opacity:1" fill="#91a287" d="M 259.5,173.5 C 259.56,172.957 259.893,172.624 260.5,172.5C 261.466,174.396 261.799,176.396 261.5,178.5C 261.312,180.103 261.812,181.437 263,182.5C 264.039,181.29 265.206,180.29 266.5,179.5C 266.833,179.5 267.167,179.5 267.5,179.5C 265.5,181.833 263.5,184.167 261.5,186.5C 260.836,185.352 260.669,184.019 261,182.5C 260.617,183.056 260.117,183.389 259.5,183.5C 259.879,180.265 259.879,176.932 259.5,173.5 Z"/></g>
<g><path style="opacity:1" fill="#587a3a" d="M 387.5,198.5 C 387.167,198.5 386.833,198.5 386.5,198.5C 385.863,195.544 385.363,192.544 385,189.5C 384.667,189.833 384.333,190.167 384,190.5C 382.125,185.125 382.125,179.791 384,174.5C 386.8,178.387 388.8,182.72 390,187.5C 391.051,191.696 390.217,195.363 387.5,198.5 Z"/></g>
<g><path style="opacity:1" fill="#5c7e3d" d="M 259.5,173.5 C 259.879,176.932 259.879,180.265 259.5,183.5C 259.108,185.179 258.608,186.846 258,188.5C 257.085,187.672 256.419,186.672 256,185.5C 255.564,187.847 255.064,190.181 254.5,192.5C 254.253,193.713 253.586,194.38 252.5,194.5C 249.636,188.002 249.969,181.669 253.5,175.5C 254.485,177.772 255.319,180.105 256,182.5C 256.117,179.037 257.284,176.037 259.5,173.5 Z"/></g>
<g><path style="opacity:1" fill="#4c8230" d="M 348.5,195.5 C 348.328,196.492 348.662,197.158 349.5,197.5C 361.397,212.93 364.897,230.263 360,249.5C 357.373,257.417 354.206,265.083 350.5,272.5C 348.75,273.659 347.75,275.326 347.5,277.5C 345.777,279.253 344.277,281.253 343,283.5C 341.198,282.211 340.031,280.544 339.5,278.5C 340.167,277.5 340.833,276.5 341.5,275.5C 343.485,272.202 345.485,268.869 347.5,265.5C 349.164,261.504 350.831,257.504 352.5,253.5C 353.725,252.063 354.725,250.396 355.5,248.5C 355.222,245.933 355.056,243.267 355,240.5C 354.31,241.738 353.81,241.738 353.5,240.5C 353.5,239.833 353.5,239.167 353.5,238.5C 354.404,237.791 354.737,236.791 354.5,235.5C 357.286,223.095 354.952,211.762 347.5,201.5C 347.167,200.5 346.5,199.833 345.5,199.5C 345.5,198.833 345.167,198.5 344.5,198.5C 343.745,196.534 342.579,196.2 341,197.5C 340.667,196.167 340.333,194.833 340,193.5C 339.333,196.167 338.667,196.167 338,193.5C 337.722,194.416 337.222,195.082 336.5,195.5C 336.631,194.761 336.464,194.094 336,193.5C 334.482,193.943 333.315,193.276 332.5,191.5C 331.272,193.176 329.939,193.509 328.5,192.5C 327.952,189.916 326.285,188.916 323.5,189.5C 323.5,189.167 323.5,188.833 323.5,188.5C 325.028,188.483 325.528,187.816 325,186.5C 324.667,186.833 324.333,187.167 324,187.5C 323.333,186.167 322.667,184.833 322,183.5C 317.861,183.672 315.527,181.006 315,175.5C 314.292,176.381 313.458,177.047 312.5,177.5C 312.704,175.315 313.37,173.315 314.5,171.5C 314.5,170.833 314.5,170.167 314.5,169.5C 314.5,168.167 314.5,166.833 314.5,165.5C 316.857,165.337 319.19,165.503 321.5,166C 322.833,168 322.833,170 321.5,172C 331.31,178.981 340.31,186.815 348.5,195.5 Z"/></g>
<g><path style="opacity:1" fill="#fbfcfa" d="M 369.5,185.5 C 370.736,187.611 372.236,189.611 374,191.5C 374.398,195.628 375.898,199.294 378.5,202.5C 378.167,202.833 377.833,203.167 377.5,203.5C 375.684,201.559 373.684,200.892 371.5,201.5C 373.829,206.825 377.496,210.825 382.5,213.5C 380.488,212.986 378.488,212.82 376.5,213C 378.396,215.068 380.396,216.901 382.5,218.5C 382.986,221.382 382.986,224.048 382.5,226.5C 382.267,224.938 381.6,223.605 380.5,222.5C 380.44,221.957 380.107,221.624 379.5,221.5C 379.167,222.667 378.833,223.833 378.5,225C 381.106,232.595 382.44,240.261 382.5,248C 381.929,249.205 381.262,250.372 380.5,251.5C 379.667,249.5 378.833,247.5 378,245.5C 376.36,249.392 375.027,253.392 374,257.5C 372.984,256.366 372.317,256.699 372,258.5C 370.964,261.753 370.297,265.086 370,268.5C 368.414,270.67 367.08,273.004 366,275.5C 366.259,265.245 364.592,264.911 361,274.5C 360.667,274.833 360.333,275.167 360,275.5C 359.667,274.5 359.333,273.5 359,272.5C 358.153,274.193 357.32,275.86 356.5,277.5C 354.05,276.289 352.05,274.622 350.5,272.5C 354.206,265.083 357.373,257.417 360,249.5C 364.897,230.263 361.397,212.93 349.5,197.5C 350.122,196.373 350.955,195.373 352,194.5C 353.113,196.329 354.613,197.163 356.5,197C 361.002,193.33 365.335,189.497 369.5,185.5 Z"/></g>
<g><path style="opacity:1" fill="#d5d3ca" d="M 261.5,186.5 C 261.281,187.675 261.614,188.675 262.5,189.5C 263.86,188.82 265.193,188.153 266.5,187.5C 266.833,188.167 267.167,188.833 267.5,189.5C 262.016,193.444 257.683,198.444 254.5,204.5C 253.957,204.44 253.624,204.107 253.5,203.5C 255.303,199.929 256.47,196.262 257,192.5C 255.726,195.391 254.226,198.058 252.5,200.5C 251.709,198.691 251.709,196.691 252.5,194.5C 253.586,194.38 254.253,193.713 254.5,192.5C 255.064,190.181 255.564,187.847 256,185.5C 256.419,186.672 257.085,187.672 258,188.5C 258.608,186.846 259.108,185.179 259.5,183.5C 260.117,183.389 260.617,183.056 261,182.5C 260.669,184.019 260.836,185.352 261.5,186.5 Z"/></g>
<g><path style="opacity:1" fill="#f5eba6" d="M 291.5,190.5 C 301.987,189.506 312.654,189.172 323.5,189.5C 326.285,188.916 327.952,189.916 328.5,192.5C 327.737,193.268 326.737,193.768 325.5,194C 316.846,195 308.179,195.333 299.5,195C 298.934,194.005 298.267,193.172 297.5,192.5C 295.898,190.926 293.898,190.259 291.5,190.5 Z"/></g>
<g><path style="opacity:1" fill="#fdfdfc" d="M 267.5,190.5 C 269.774,191.597 271.941,192.93 274,194.5C 276.688,191.598 278.854,191.931 280.5,195.5C 282.785,199.727 285.785,203.393 289.5,206.5C 295.192,216.222 299.525,226.556 302.5,237.5C 299.997,238.371 297.33,239.037 294.5,239.5C 294.047,238.542 293.381,237.708 292.5,237C 288.629,234.82 284.629,233.487 280.5,233C 284.696,235.261 288.696,237.761 292.5,240.5C 290.209,243.889 289.876,247.556 291.5,251.5C 287.603,255.46 283.269,258.96 278.5,262C 279.022,262.561 279.355,263.228 279.5,264C 278.586,265.406 277.92,266.906 277.5,268.5C 276.5,269.167 275.5,269.833 274.5,270.5C 271.183,264.876 269.683,265.542 270,272.5C 269.667,272.167 269.333,271.833 269,271.5C 267.942,266.448 266.609,261.448 265,256.5C 264.667,256.833 264.333,257.167 264,257.5C 262.98,253.598 261.48,249.932 259.5,246.5C 258.506,250.481 257.506,250.481 256.5,246.5C 258.483,243.397 259.316,240.064 259,236.5C 258.617,237.056 258.117,237.389 257.5,237.5C 257.167,237.5 256.833,237.5 256.5,237.5C 258.318,232.651 258.818,227.651 258,222.5C 257.667,223.167 257.333,223.833 257,224.5C 256.333,222.167 256.333,219.833 257,217.5C 259.795,215.707 262.295,213.54 264.5,211C 262.575,211.135 260.575,211.302 258.5,211.5C 263.211,208.117 266.877,203.784 269.5,198.5C 267.833,198.5 266.167,198.5 264.5,198.5C 265.9,195.965 266.9,193.298 267.5,190.5 Z"/></g>
<g><path style="opacity:1" fill="#b4b7b8" d="M 267.5,186.5 C 269.146,188.812 271.146,190.812 273.5,192.5C 274.98,191.011 275.813,189.345 276,187.5C 279.336,192.002 283.169,196.002 287.5,199.5C 287.5,200.167 287.833,200.5 288.5,200.5C 288.5,201.5 288.5,202.5 288.5,203.5C 286.194,200.527 283.527,197.86 280.5,195.5C 278.854,191.931 276.688,191.598 274,194.5C 271.941,192.93 269.774,191.597 267.5,190.5C 267.5,190.167 267.5,189.833 267.5,189.5C 267.167,188.833 266.833,188.167 266.5,187.5C 266.5,186.833 266.833,186.5 267.5,186.5 Z"/></g>
<g><path style="opacity:1" fill="#829673" d="M 381.5,187.5 C 382.699,191.099 383.699,194.765 384.5,198.5C 384.167,198.5 383.833,198.5 383.5,198.5C 383.5,197.167 382.833,196.5 381.5,196.5C 382.13,193.684 381.464,191.018 379.5,188.5C 380.167,188.167 380.833,187.833 381.5,187.5 Z"/></g>
<g><path style="opacity:1" fill="#b6babc" d="M 368.5,182.5 C 369.404,183.209 369.737,184.209 369.5,185.5C 365.335,189.497 361.002,193.33 356.5,197C 354.613,197.163 353.113,196.329 352,194.5C 350.955,195.373 350.122,196.373 349.5,197.5C 348.662,197.158 348.328,196.492 348.5,195.5C 349.812,193.521 351.479,191.855 353.5,190.5C 353.94,191.698 354.273,192.865 354.5,194C 355.5,194.667 356.5,194.667 357.5,194C 361.095,190.95 364.595,187.784 368,184.5C 368.464,183.906 368.631,183.239 368.5,182.5 Z"/></g>
<g><path style="opacity:1" fill="#4f7330" d="M 267.5,189.5 C 267.5,189.833 267.5,190.167 267.5,190.5C 266.9,193.298 265.9,195.965 264.5,198.5C 266.167,198.5 267.833,198.5 269.5,198.5C 266.877,203.784 263.211,208.117 258.5,211.5C 253.594,212.046 252.594,210.546 255.5,207C 254.906,206.536 254.239,206.369 253.5,206.5C 253.833,205.833 254.167,205.167 254.5,204.5C 257.683,198.444 262.016,193.444 267.5,189.5 Z"/></g>
<g><path style="opacity:1" fill="#cfb45c" d="M 291.5,190.5 C 293.898,190.259 295.898,190.926 297.5,192.5C 295.051,193.791 292.384,194.791 289.5,195.5C 288.702,195.043 288.369,194.376 288.5,193.5C 288.81,191.856 289.81,190.856 291.5,190.5 Z"/></g>
<g><path style="opacity:1" fill="#597b3c" d="M 250.5,207.5 C 246.467,205.996 244.3,202.996 244,198.5C 243.173,194.459 243.34,190.459 244.5,186.5C 248.757,192.742 250.757,199.742 250.5,207.5 Z"/></g>
<g><path style="opacity:1" fill="#f6f6f3" d="M 344.5,198.5 C 342.167,201.5 339.5,204.167 336.5,206.5C 335.488,205.128 334.488,203.795 333.5,202.5C 334.957,200.372 335.957,198.038 336.5,195.5C 337.222,195.082 337.722,194.416 338,193.5C 338.667,196.167 339.333,196.167 340,193.5C 340.333,194.833 340.667,196.167 341,197.5C 342.579,196.2 343.745,196.534 344.5,198.5 Z"/></g>
<g><path style="opacity:1" fill="#825c50" d="M 280.5,195.5 C 283.527,197.86 286.194,200.527 288.5,203.5C 289.11,204.391 289.443,205.391 289.5,206.5C 285.785,203.393 282.785,199.727 280.5,195.5 Z"/></g>
<g><path style="opacity:1" fill="#5e823e" d="M 381.5,198.5 C 383.086,200.67 384.42,203.004 385.5,205.5C 385.5,205.833 385.5,206.167 385.5,206.5C 384.448,206.351 383.448,206.517 382.5,207C 384.041,208.371 385.375,209.871 386.5,211.5C 386.833,212.167 387.167,212.833 387.5,213.5C 386.5,213.5 385.5,213.5 384.5,213.5C 383.833,213.5 383.167,213.5 382.5,213.5C 377.496,210.825 373.829,206.825 371.5,201.5C 373.684,200.892 375.684,201.559 377.5,203.5C 377.833,203.167 378.167,202.833 378.5,202.5C 375.898,199.294 374.398,195.628 374,191.5C 372.236,189.611 370.736,187.611 369.5,185.5C 369.737,184.209 369.404,183.209 368.5,182.5C 367.782,180.863 367.616,179.197 368,177.5C 373.472,181.806 377.639,187.14 380.5,193.5C 377.17,195.054 377.503,196.721 381.5,198.5 Z"/></g>
<g><path style="opacity:1" fill="#b17277" d="M 381.5,196.5 C 382.833,196.5 383.5,197.167 383.5,198.5C 382.833,198.5 382.167,198.5 381.5,198.5C 381.5,197.833 381.5,197.167 381.5,196.5 Z"/></g>
<g><path style="opacity:1" fill="#e4d283" d="M 336.5,195.5 C 335.957,198.038 334.957,200.372 333.5,202.5C 319.827,201.2 306.16,201.367 292.5,203C 294.217,201.441 296.217,200.608 298.5,200.5C 298.884,198.335 298.217,196.668 296.5,195.5C 295.808,196.025 295.308,196.692 295,197.5C 293.301,196.594 291.467,196.261 289.5,196.5C 289.567,197.959 289.234,199.292 288.5,200.5C 287.833,200.5 287.5,200.167 287.5,199.5C 287.205,197.265 287.539,195.265 288.5,193.5C 288.369,194.376 288.702,195.043 289.5,195.5C 292.384,194.791 295.051,193.791 297.5,192.5C 298.267,193.172 298.934,194.005 299.5,195C 308.179,195.333 316.846,195 325.5,194C 326.737,193.768 327.737,193.268 328.5,192.5C 329.939,193.509 331.272,193.176 332.5,191.5C 333.315,193.276 334.482,193.943 336,193.5C 336.464,194.094 336.631,194.761 336.5,195.5 Z"/></g>
<g><path style="opacity:1" fill="#e5e9e2" d="M 381.5,198.5 C 382.167,198.5 382.833,198.5 383.5,198.5C 383.833,198.5 384.167,198.5 384.5,198.5C 384.586,200.677 385.253,202.677 386.5,204.5C 386.376,205.107 386.043,205.44 385.5,205.5C 384.42,203.004 383.086,200.67 381.5,198.5 Z"/></g>
<g><path style="opacity:1" fill="#f5eba4" d="M 333.5,202.5 C 334.488,203.795 335.488,205.128 336.5,206.5C 336.328,207.492 336.662,208.158 337.5,208.5C 337.5,209.167 337.833,209.5 338.5,209.5C 343.244,217.986 346.577,226.986 348.5,236.5C 348.5,237.5 348.5,238.5 348.5,239.5C 348.5,240.167 348.5,240.833 348.5,241.5C 345.813,241.664 343.146,241.497 340.5,241C 339.726,236.743 337.392,235.577 333.5,237.5C 334.167,237.833 334.833,238.167 335.5,238.5C 335.192,239.308 334.692,239.975 334,240.5C 333.077,239.241 332.243,237.908 331.5,236.5C 331.167,236.667 330.833,236.833 330.5,237C 330.034,238.299 330.034,239.799 330.5,241.5C 333.187,241.336 335.854,241.503 338.5,242C 335.167,242.667 331.833,242.667 328.5,242C 329.535,240.493 329.368,238.993 328,237.5C 326.442,243.847 325.275,243.514 324.5,236.5C 322.61,236.297 321.11,236.963 320,238.5C 318.989,237.663 317.822,237.33 316.5,237.5C 316.799,239.604 316.466,241.604 315.5,243.5C 311.571,244.433 307.571,244.766 303.5,244.5C 303.802,241.941 303.468,239.607 302.5,237.5C 299.525,226.556 295.192,216.222 289.5,206.5C 289.443,205.391 289.11,204.391 288.5,203.5C 288.5,202.5 288.5,201.5 288.5,200.5C 289.234,199.292 289.567,197.959 289.5,196.5C 291.467,196.261 293.301,196.594 295,197.5C 295.308,196.692 295.808,196.025 296.5,195.5C 298.217,196.668 298.884,198.335 298.5,200.5C 296.217,200.608 294.217,201.441 292.5,203C 306.16,201.367 319.827,201.2 333.5,202.5 Z"/></g>
<g><path style="opacity:1" fill="#fafbfa" d="M 347.5,201.5 C 354.952,211.762 357.286,223.095 354.5,235.5C 352.5,235.833 350.5,236.167 348.5,236.5C 346.577,226.986 343.244,217.986 338.5,209.5C 340.874,206.126 343.874,203.459 347.5,201.5 Z"/></g>
<g><path style="opacity:1" fill="#aaaeaf" d="M 344.5,198.5 C 345.167,198.5 345.5,198.833 345.5,199.5C 342.805,202.526 340.138,205.526 337.5,208.5C 336.662,208.158 336.328,207.492 336.5,206.5C 339.5,204.167 342.167,201.5 344.5,198.5 Z"/></g>
<g><path style="opacity:1" fill="#f9faf9" d="M 385.5,206.5 C 387.597,207.879 387.93,209.545 386.5,211.5C 385.375,209.871 384.041,208.371 382.5,207C 383.448,206.517 384.448,206.351 385.5,206.5 Z"/></g>
<g><path style="opacity:1" fill="#758c62" d="M 254.5,204.5 C 254.167,205.167 253.833,205.833 253.5,206.5C 251.566,209.117 251.233,211.783 252.5,214.5C 252.027,215.906 251.027,216.573 249.5,216.5C 248.662,216.158 248.328,215.492 248.5,214.5C 249.924,212.485 250.59,210.152 250.5,207.5C 251.924,205.485 252.59,203.152 252.5,200.5C 254.226,198.058 255.726,195.391 257,192.5C 256.47,196.262 255.303,199.929 253.5,203.5C 253.624,204.107 253.957,204.44 254.5,204.5 Z"/></g>
<g><path style="opacity:1" fill="#835f50" d="M 345.5,199.5 C 346.5,199.833 347.167,200.5 347.5,201.5C 343.874,203.459 340.874,206.126 338.5,209.5C 337.833,209.5 337.5,209.167 337.5,208.5C 340.138,205.526 342.805,202.526 345.5,199.5 Z"/></g>
<g><path style="opacity:1" fill="#d3b456" d="M 305.5,210.5 C 309.695,210.948 314.028,211.114 318.5,211C 320.312,212.627 320.479,214.127 319,215.5C 317.667,214.167 316.333,212.833 315,211.5C 314.5,211.667 314,211.833 313.5,212C 314.167,213.333 315.167,214.333 316.5,215C 314.892,215.658 313.725,215.158 313,213.5C 312.612,214.428 311.945,215.095 311,215.5C 309.523,214.556 308.523,213.223 308,211.5C 307.405,212.899 307.572,214.232 308.5,215.5C 306.604,216.466 304.604,216.799 302.5,216.5C 301.019,210.491 301.852,210.157 305,215.5C 306.628,214.038 306.795,212.372 305.5,210.5 Z"/></g>
<g><path style="opacity:1" fill="#8b9776" d="M 384.5,198.5 C 385.222,198.918 385.722,199.584 386,200.5C 386.464,199.906 386.631,199.239 386.5,198.5C 386.833,198.5 387.167,198.5 387.5,198.5C 387.36,200.124 388.027,201.29 389.5,202C 387.543,204.409 387.543,206.909 389.5,209.5C 389.881,210.931 390.881,211.764 392.5,212C 391.36,213.973 390.027,215.807 388.5,217.5C 387.893,217.376 387.56,217.043 387.5,216.5C 388.625,215.652 388.625,214.652 387.5,213.5C 387.167,212.833 386.833,212.167 386.5,211.5C 387.93,209.545 387.597,207.879 385.5,206.5C 385.5,206.167 385.5,205.833 385.5,205.5C 386.043,205.44 386.376,205.107 386.5,204.5C 385.253,202.677 384.586,200.677 384.5,198.5 Z"/></g>
<g><path style="opacity:1" fill="#e6eae3" d="M 253.5,206.5 C 254.239,206.369 254.906,206.536 255.5,207C 252.594,210.546 253.594,212.046 258.5,211.5C 256.574,212.486 254.574,213.486 252.5,214.5C 251.233,211.783 251.566,209.117 253.5,206.5 Z"/></g>
<g><path style="opacity:1" fill="#d9bd63" d="M 329.5,209.5 C 332.833,209.5 334.5,211.167 334.5,214.5C 330.849,214.838 329.183,213.172 329.5,209.5 Z"/></g>
<g><path style="opacity:1" fill="#496c2d" d="M 248.5,214.5 C 248.328,215.492 248.662,216.158 249.5,216.5C 249.557,217.609 249.89,218.609 250.5,219.5C 250.5,220.833 250.5,222.167 250.5,223.5C 250.162,225.854 249.662,228.187 249,230.5C 247.664,227.022 246.831,223.356 246.5,219.5C 246.36,217.97 245.693,216.97 244.5,216.5C 239.743,200.185 241.076,199.518 248.5,214.5 Z"/></g>
<g><path style="opacity:1" fill="#6f934c" d="M 388.5,233.5 C 387.5,232.833 386.5,232.167 385.5,231.5C 384.263,230.035 383.263,228.368 382.5,226.5C 382.986,224.048 382.986,221.382 382.5,218.5C 383.117,218.389 383.617,218.056 384,217.5C 385.932,222.462 387.765,227.462 389.5,232.5C 389.376,233.107 389.043,233.44 388.5,233.5 Z"/></g>
<g><path style="opacity:1" fill="#668d40" d="M 238.5,220.5 C 241.314,226.795 244.647,232.795 248.5,238.5C 245.737,238.256 243.571,236.923 242,234.5C 238.71,229.488 237.21,224.155 237.5,218.5C 238.298,218.957 238.631,219.624 238.5,220.5 Z"/></g>
<g><path style="opacity:1" fill="#4f7331" d="M 256.5,237.5 C 254.13,240.199 251.797,242.865 249.5,245.5C 249.552,243.097 249.219,240.764 248.5,238.5C 244.647,232.795 241.314,226.795 238.5,220.5C 240.836,222.004 242.669,224.004 244,226.5C 244.498,223.183 244.665,219.85 244.5,216.5C 245.693,216.97 246.36,217.97 246.5,219.5C 246.831,223.356 247.664,227.022 249,230.5C 249.662,228.187 250.162,225.854 250.5,223.5C 251.249,222.469 251.915,221.302 252.5,220C 251.906,219.536 251.239,219.369 250.5,219.5C 249.89,218.609 249.557,217.609 249.5,216.5C 251.027,216.573 252.027,215.906 252.5,214.5C 254.574,213.486 256.574,212.486 258.5,211.5C 260.575,211.302 262.575,211.135 264.5,211C 262.295,213.54 259.795,215.707 257,217.5C 256.333,219.833 256.333,222.167 257,224.5C 257.333,223.833 257.667,223.167 258,222.5C 258.818,227.651 258.318,232.651 256.5,237.5 Z"/></g>
<g><path style="opacity:1" fill="#f1f3ee" d="M 250.5,219.5 C 251.239,219.369 251.906,219.536 252.5,220C 251.915,221.302 251.249,222.469 250.5,223.5C 250.5,222.167 250.5,220.833 250.5,219.5 Z"/></g>
<g><path style="opacity:1" fill="#d7bb60" d="M 315.5,228.5 C 317.5,228.5 319.5,228.5 321.5,228.5C 321.286,230.144 321.62,231.644 322.5,233C 322.167,233.167 321.833,233.333 321.5,233.5C 320.115,229.622 318.949,229.622 318,233.5C 316.047,229.578 314.881,229.912 314.5,234.5C 312.234,234.859 310.401,234.192 309,232.5C 308.275,234.158 307.108,234.658 305.5,234C 305.833,233.667 306.167,233.333 306.5,233C 305.643,232.311 304.977,231.478 304.5,230.5C 308.313,229.833 311.979,229.166 315.5,228.5 Z"/></g>
<g><path style="opacity:1" fill="#4d6b31" d="M 380.5,222.5 C 381.6,223.605 382.267,224.938 382.5,226.5C 383.263,228.368 384.263,230.035 385.5,231.5C 385.796,233.403 386.463,235.07 387.5,236.5C 387.5,237.167 387.5,237.833 387.5,238.5C 387.719,239.675 387.386,240.675 386.5,241.5C 385.893,241.376 385.56,241.043 385.5,240.5C 386.043,240.44 386.376,240.107 386.5,239.5C 383.208,233.942 381.208,228.275 380.5,222.5 Z"/></g>
<g><path style="opacity:1" fill="#dabe65" d="M 340.5,227.5 C 341.552,227.351 342.552,227.517 343.5,228C 343.167,229 342.833,230 342.5,231C 343.5,231.333 344.5,231.667 345.5,232C 338.229,233.3 330.896,233.8 323.5,233.5C 323.579,232.07 323.246,230.736 322.5,229.5C 324.949,228.09 327.116,228.424 329,230.5C 329.333,229.833 329.667,229.167 330,228.5C 331.507,232.236 332.34,232.236 332.5,228.5C 334.124,228.36 335.29,229.027 336,230.5C 336.667,227.833 337.333,227.833 338,230.5C 338.333,229.833 338.667,229.167 339,228.5C 339.249,229.624 339.749,230.624 340.5,231.5C 341.292,230.3 341.292,228.967 340.5,227.5 Z"/></g>
<g><path style="opacity:1" fill="#dbdbd3" d="M 385.5,231.5 C 386.5,232.167 387.5,232.833 388.5,233.5C 389.11,234.391 389.443,235.391 389.5,236.5C 388.833,236.5 388.167,236.5 387.5,236.5C 386.463,235.07 385.796,233.403 385.5,231.5 Z"/></g>
<g><path style="opacity:1" fill="#919a79" d="M 251.5,236.5 C 250.833,236.5 250.167,236.5 249.5,236.5C 247.915,235.998 247.415,234.998 248,233.5C 249.425,234.212 250.925,234.379 252.5,234C 251.748,234.671 251.414,235.504 251.5,236.5 Z"/></g>
<g><path style="opacity:1" fill="#abb0b3" d="M 294.5,239.5 C 293.833,239.833 293.167,240.167 292.5,240.5C 288.696,237.761 284.696,235.261 280.5,233C 284.629,233.487 288.629,234.82 292.5,237C 293.381,237.708 294.047,238.542 294.5,239.5 Z"/></g>
<g><path style="opacity:1" fill="#984b47" d="M 249.5,236.5 C 250.167,236.5 250.833,236.5 251.5,236.5C 250.833,239.167 250.167,239.167 249.5,236.5 Z"/></g>
<g><path style="opacity:1" fill="#b35362" d="M 387.5,236.5 C 388.167,236.5 388.833,236.5 389.5,236.5C 389.5,237.167 389.5,237.833 389.5,238.5C 388.833,238.5 388.167,238.5 387.5,238.5C 387.5,237.833 387.5,237.167 387.5,236.5 Z"/></g>
<g><path style="opacity:1" fill="#a3aaa8" d="M 354.5,235.5 C 354.737,236.791 354.404,237.791 353.5,238.5C 353.565,238.062 353.399,237.728 353,237.5C 351.67,238.582 350.17,239.249 348.5,239.5C 348.5,238.5 348.5,237.5 348.5,236.5C 350.5,236.167 352.5,235.833 354.5,235.5 Z"/></g>
<g><path style="opacity:1" fill="#5e833c" d="M 248.5,246.5 C 247.5,246.5 246.5,246.5 245.5,246.5C 239.613,244.455 236.113,240.455 235,234.5C 240.341,237.681 244.841,241.681 248.5,246.5 Z"/></g>
<g><path style="opacity:1" fill="#e8ebe5" d="M 387.5,238.5 C 388.167,238.5 388.833,238.5 389.5,238.5C 388.86,241.865 388.026,245.198 387,248.5C 386.517,247.552 386.351,246.552 386.5,245.5C 386.439,243.408 385.439,241.908 383.5,241C 384.094,240.536 384.761,240.369 385.5,240.5C 385.56,241.043 385.893,241.376 386.5,241.5C 387.386,240.675 387.719,239.675 387.5,238.5 Z"/></g>
<g><path style="opacity:1" fill="#537536" d="M 393.5,244.5 C 405.914,234.415 407.248,235.582 397.5,248C 390.767,251.765 389.434,250.599 393.5,244.5 Z"/></g>
<g><path style="opacity:1" fill="#c97985" d="M 391.5,242.5 C 392.833,242.5 393.5,243.167 393.5,244.5C 392.508,244.672 391.842,244.338 391.5,243.5C 391.5,243.167 391.5,242.833 391.5,242.5 Z"/></g>
<g><path style="opacity:1" fill="#e7d485" d="M 348.5,241.5 C 348.982,244.831 347.982,247.497 345.5,249.5C 343.022,248.836 340.355,248.503 337.5,248.5C 322.504,249.633 307.504,250.633 292.5,251.5C 292.167,251.5 291.833,251.5 291.5,251.5C 289.876,247.556 290.209,243.889 292.5,240.5C 293.167,240.167 293.833,239.833 294.5,239.5C 297.33,239.037 299.997,238.371 302.5,237.5C 303.468,239.607 303.802,241.941 303.5,244.5C 307.571,244.766 311.571,244.433 315.5,243.5C 316.466,241.604 316.799,239.604 316.5,237.5C 317.822,237.33 318.989,237.663 320,238.5C 321.11,236.963 322.61,236.297 324.5,236.5C 325.275,243.514 326.442,243.847 328,237.5C 329.368,238.993 329.535,240.493 328.5,242C 331.833,242.667 335.167,242.667 338.5,242C 335.854,241.503 333.187,241.336 330.5,241.5C 330.034,239.799 330.034,238.299 330.5,237C 330.833,236.833 331.167,236.667 331.5,236.5C 332.243,237.908 333.077,239.241 334,240.5C 334.692,239.975 335.192,239.308 335.5,238.5C 334.833,238.167 334.167,237.833 333.5,237.5C 337.392,235.577 339.726,236.743 340.5,241C 343.146,241.497 345.813,241.664 348.5,241.5 Z"/></g>
<g><path style="opacity:1" fill="#c5cbbb" d="M 256.5,237.5 C 256.833,237.5 257.167,237.5 257.5,237.5C 254.575,240.935 252.242,244.769 250.5,249C 252.12,253.556 251.12,254.389 247.5,251.5C 250.167,250.833 250.167,250.167 247.5,249.5C 247.611,248.883 247.944,248.383 248.5,248C 247.263,247.768 246.263,247.268 245.5,246.5C 246.5,246.5 247.5,246.5 248.5,246.5C 249.167,246.5 249.5,246.167 249.5,245.5C 251.797,242.865 254.13,240.199 256.5,237.5 Z"/></g>
<g><path style="opacity:1" fill="#648e4d" d="M 353.5,240.5 C 353.81,241.738 354.31,241.738 355,240.5C 355.056,243.267 355.222,245.933 355.5,248.5C 354.725,250.396 353.725,252.063 352.5,253.5C 351.167,254.833 349.833,256.167 348.5,257.5C 350.288,253.95 351.455,250.283 352,246.5C 350.159,250.183 347.826,253.516 345,256.5C 344.833,256.167 344.667,255.833 344.5,255.5C 348.294,250.901 351.294,245.901 353.5,240.5 Z"/></g>
<g><path style="opacity:1" fill="#f2f4f0" d="M 353.5,238.5 C 353.5,239.167 353.5,239.833 353.5,240.5C 351.294,245.901 348.294,250.901 344.5,255.5C 344.667,255.833 344.833,256.167 345,256.5C 347.826,253.516 350.159,250.183 352,246.5C 351.455,250.283 350.288,253.95 348.5,257.5C 347.185,258.476 345.852,259.476 344.5,260.5C 341.131,258.477 338.131,255.977 335.5,253C 338.365,252.817 341.031,252.317 343.5,251.5C 344.5,251.167 345.167,250.5 345.5,249.5C 347.982,247.497 348.982,244.831 348.5,241.5C 348.5,240.833 348.5,240.167 348.5,239.5C 350.17,239.249 351.67,238.582 353,237.5C 353.399,237.728 353.565,238.062 353.5,238.5 Z"/></g>
<g><path style="opacity:1" fill="#d3b75e" d="M 345.5,249.5 C 345.167,250.5 344.5,251.167 343.5,251.5C 339.629,251.185 335.962,251.518 332.5,252.5C 331.5,252.5 330.5,252.5 329.5,252.5C 322.798,252.336 316.131,252.669 309.5,253.5C 304.897,254.383 300.23,254.717 295.5,254.5C 294.5,253.833 293.5,253.167 292.5,252.5C 292.5,252.167 292.5,251.833 292.5,251.5C 307.504,250.633 322.504,249.633 337.5,248.5C 340.355,248.503 343.022,248.836 345.5,249.5 Z"/></g>
<g><path style="opacity:1" fill="#517334" d="M 274.5,270.5 C 272.879,273.171 270.546,275.171 267.5,276.5C 266.468,274.622 265.134,272.955 263.5,271.5C 263.665,268.482 263.498,265.482 263,262.5C 262.632,263.91 261.799,264.91 260.5,265.5C 259.194,264.088 258.36,262.421 258,260.5C 257.333,261.833 257.333,263.167 258,264.5C 259.845,266.867 261.011,269.533 261.5,272.5C 261.167,272.5 260.833,272.5 260.5,272.5C 259.847,271.193 259.18,269.86 258.5,268.5C 257.386,267.224 256.386,267.224 255.5,268.5C 249.278,269.221 243.944,267.387 239.5,263C 245.401,262.196 250.901,263.363 256,266.5C 256.579,265.072 256.412,263.738 255.5,262.5C 255.672,261.508 255.338,260.842 254.5,260.5C 254.489,258.314 253.489,257.481 251.5,258C 252.056,258.383 252.389,258.883 252.5,259.5C 248.933,257.443 245.766,254.777 243,251.5C 240.992,254.139 239.159,254.139 237.5,251.5C 238.873,251.657 240.207,251.49 241.5,251C 240.289,250.107 240.289,249.274 241.5,248.5C 243.243,250.038 245.243,251.038 247.5,251.5C 251.12,254.389 252.12,253.556 250.5,249C 252.242,244.769 254.575,240.935 257.5,237.5C 258.117,237.389 258.617,237.056 259,236.5C 259.316,240.064 258.483,243.397 256.5,246.5C 257.506,250.481 258.506,250.481 259.5,246.5C 261.48,249.932 262.98,253.598 264,257.5C 264.333,257.167 264.667,256.833 265,256.5C 266.609,261.448 267.942,266.448 269,271.5C 269.333,271.833 269.667,272.167 270,272.5C 269.683,265.542 271.183,264.876 274.5,270.5 Z"/></g>
<g><path style="opacity:1" fill="#b54d5f" d="M 247.5,249.5 C 250.167,250.167 250.167,250.833 247.5,251.5C 247.5,250.833 247.5,250.167 247.5,249.5 Z"/></g>
<g><path style="opacity:1" fill="#713a2a" d="M 329.5,252.5 C 330.5,252.5 331.5,252.5 332.5,252.5C 334.624,254.059 336.291,256.059 337.5,258.5C 337.145,259.522 336.478,260.189 335.5,260.5C 333.139,258.806 331.139,256.806 329.5,254.5C 329.5,253.833 329.5,253.167 329.5,252.5 Z"/></g>
<g><path style="opacity:1" fill="#713b29" d="M 292.5,252.5 C 293.5,253.167 294.5,253.833 295.5,254.5C 294.136,256.191 292.803,257.858 291.5,259.5C 290.005,259.585 289.005,258.919 288.5,257.5C 289.857,255.814 291.19,254.148 292.5,252.5 Z"/></g>
<g><path style="opacity:1" fill="#fcfcfc" d="M 309.5,253.5 C 311.294,255.797 313.294,257.963 315.5,260C 308.468,266.507 301.468,273.007 294.5,279.5C 291.477,276.822 290.81,277.488 292.5,281.5C 292.167,282.167 291.833,282.833 291.5,283.5C 289.695,282.763 288.029,281.763 286.5,280.5C 285.702,280.957 285.369,281.624 285.5,282.5C 285.167,282.5 284.833,282.5 284.5,282.5C 283.445,278.725 282.112,275.058 280.5,271.5C 281.458,271.953 282.292,272.619 283,273.5C 286.288,272.464 287.121,270.464 285.5,267.5C 287.14,264.532 289.14,261.865 291.5,259.5C 292.803,257.858 294.136,256.191 295.5,254.5C 300.23,254.717 304.897,254.383 309.5,253.5 Z"/></g>
<g><path style="opacity:1" fill="#fbfbfa" d="M 329.5,254.5 C 331.139,256.806 333.139,258.806 335.5,260.5C 336.919,263.1 338.585,265.6 340.5,268C 339.941,268.725 339.608,269.558 339.5,270.5C 340.187,272.177 340.854,273.844 341.5,275.5C 340.833,276.5 340.167,277.5 339.5,278.5C 333.188,272.854 327.188,266.854 321.5,260.5C 323.473,257.52 326.14,255.52 329.5,254.5 Z"/></g>
<g><path style="opacity:1" fill="#6c8f49" d="M 237.5,251.5 C 239.159,254.139 240.992,254.139 243,251.5C 245.766,254.777 248.933,257.443 252.5,259.5C 253.167,259.833 253.833,260.167 254.5,260.5C 255.338,260.842 255.672,261.508 255.5,262.5C 250.787,262.81 247.12,260.977 244.5,257C 240.839,256.171 237.505,254.671 234.5,252.5C 235.325,251.614 236.325,251.281 237.5,251.5 Z"/></g>
<g><path style="opacity:1" fill="#afb1b4" d="M 291.5,251.5 C 291.833,251.5 292.167,251.5 292.5,251.5C 292.5,251.833 292.5,252.167 292.5,252.5C 291.19,254.148 289.857,255.814 288.5,257.5C 289.005,258.919 290.005,259.585 291.5,259.5C 289.14,261.865 287.14,264.532 285.5,267.5C 287.121,270.464 286.288,272.464 283,273.5C 282.292,272.619 281.458,271.953 280.5,271.5C 279.833,270.167 278.833,269.167 277.5,268.5C 277.92,266.906 278.586,265.406 279.5,264C 279.355,263.228 279.022,262.561 278.5,262C 283.269,258.96 287.603,255.46 291.5,251.5 Z"/></g>
<g><path style="opacity:1" fill="#afb2b0" d="M 332.5,252.5 C 335.962,251.518 339.629,251.185 343.5,251.5C 341.031,252.317 338.365,252.817 335.5,253C 338.131,255.977 341.131,258.477 344.5,260.5C 345.852,259.476 347.185,258.476 348.5,257.5C 348.141,259.371 347.141,260.871 345.5,262C 346.167,262.333 346.833,262.667 347.5,263C 346.226,263.977 346.226,264.811 347.5,265.5C 345.485,268.869 343.485,272.202 341.5,275.5C 340.854,273.844 340.187,272.177 339.5,270.5C 339.608,269.558 339.941,268.725 340.5,268C 338.585,265.6 336.919,263.1 335.5,260.5C 336.478,260.189 337.145,259.522 337.5,258.5C 336.291,256.059 334.624,254.059 332.5,252.5 Z"/></g>
<g><path style="opacity:1" fill="#517335" d="M 391.5,242.5 C 391.5,242.833 391.5,243.167 391.5,243.5C 390.883,243.611 390.383,243.944 390,244.5C 389.162,247.852 388.329,251.185 387.5,254.5C 392.394,250.775 397.728,249.942 403.5,252C 401.365,253.381 399.032,254.381 396.5,255C 393.385,260.621 388.718,264.121 382.5,265.5C 381.128,267.62 381.795,268.62 384.5,268.5C 388.527,268.051 392.527,267.384 396.5,266.5C 397.416,266.543 398.083,266.876 398.5,267.5C 393.766,270.924 388.432,272.258 382.5,271.5C 382.217,270.711 381.717,270.044 381,269.5C 379.623,271.754 378.123,273.92 376.5,276C 378.821,276.008 380.821,275.175 382.5,273.5C 384.575,273.302 386.575,273.135 388.5,273C 384.743,278.105 379.91,281.605 374,283.5C 372.744,283.352 371.577,283.018 370.5,282.5C 369.494,282.062 369.494,281.396 370.5,280.5C 373.754,278.323 375.754,275.323 376.5,271.5C 376.833,271.5 377.167,271.5 377.5,271.5C 378.686,270.295 378.686,268.961 377.5,267.5C 378.167,267.5 378.833,267.5 379.5,267.5C 381.065,265.491 382.065,263.157 382.5,260.5C 383.246,256.148 383.913,251.648 384.5,247C 383.294,243.363 383.96,242.863 386.5,245.5C 386.351,246.552 386.517,247.552 387,248.5C 388.026,245.198 388.86,241.865 389.5,238.5C 389.5,237.833 389.5,237.167 389.5,236.5C 389.443,235.391 389.11,234.391 388.5,233.5C 389.043,233.44 389.376,233.107 389.5,232.5C 387.765,227.462 385.932,222.462 384,217.5C 383.617,218.056 383.117,218.389 382.5,218.5C 380.396,216.901 378.396,215.068 376.5,213C 378.488,212.82 380.488,212.986 382.5,213.5C 383.167,213.5 383.833,213.5 384.5,213.5C 385.167,214.833 386.167,215.833 387.5,216.5C 387.56,217.043 387.893,217.376 388.5,217.5C 390.027,215.807 391.36,213.973 392.5,212C 390.881,211.764 389.881,210.931 389.5,209.5C 390.609,202.944 393.109,196.944 397,191.5C 398.252,198.008 397.086,204.008 393.5,209.5C 393.667,209.833 393.833,210.167 394,210.5C 402.779,201.021 403.779,202.021 397,213.5C 396.495,218.545 396.162,223.545 396,228.5C 397.167,226.667 398.333,224.833 399.5,223C 400.332,222.312 400.998,222.479 401.5,223.5C 400.495,227.683 398.995,231.683 397,235.5C 393.493,239.754 391.66,239.421 391.5,234.5C 390.2,237.309 390.2,239.976 391.5,242.5 Z"/></g>
<g><path style="opacity:1" fill="#c1cbb9" d="M 387.5,219.5 C 388.649,219.791 389.316,220.624 389.5,222C 389.333,222.833 389.167,223.667 389,224.5C 387.991,222.975 387.491,221.308 387.5,219.5 Z"/></g>
<g><path style="opacity:1" fill="#f0f3ee" d="M 390.5,217.5 C 391.552,217.351 392.552,217.517 393.5,218C 392.283,219.648 391.45,221.481 391,223.5C 390.505,221.527 390.338,219.527 390.5,217.5 Z"/></g>
<g><path style="opacity:1" fill="#edefeb" d="M 384.5,213.5 C 385.5,213.5 386.5,213.5 387.5,213.5C 388.625,214.652 388.625,215.652 387.5,216.5C 386.167,215.833 385.167,214.833 384.5,213.5 Z"/></g>
<g><path style="opacity:1" fill="#b6c2ad" d="M 254.5,260.5 C 253.833,260.167 253.167,259.833 252.5,259.5C 252.389,258.883 252.056,258.383 251.5,258C 253.489,257.481 254.489,258.314 254.5,260.5 Z"/></g>
<g><path style="opacity:1" fill="#f0f3ee" d="M 352.5,253.5 C 350.831,257.504 349.164,261.504 347.5,265.5C 346.226,264.811 346.226,263.977 347.5,263C 346.833,262.667 346.167,262.333 345.5,262C 347.141,260.871 348.141,259.371 348.5,257.5C 349.833,256.167 351.167,254.833 352.5,253.5 Z"/></g>
<g><path style="opacity:1" fill="#aab99e" d="M 387.5,254.5 C 388.206,257.1 387.372,259.433 385,261.5C 384.939,258.849 385.773,256.516 387.5,254.5 Z"/></g>
<g><path style="opacity:1" fill="#d7cfc7" d="M 263.5,271.5 C 263.591,273.698 262.925,274.031 261.5,272.5C 261.011,269.533 259.845,266.867 258,264.5C 257.333,263.167 257.333,261.833 258,260.5C 258.36,262.421 259.194,264.088 260.5,265.5C 261.799,264.91 262.632,263.91 263,262.5C 263.498,265.482 263.665,268.482 263.5,271.5 Z"/></g>
<g><path style="opacity:1" fill="#fcfcfc" d="M 336.5,282.5 C 330.79,290.544 323.79,297.21 315.5,302.5C 309.906,303.048 304.573,302.048 299.5,299.5C 300.222,299.082 300.722,298.416 301,297.5C 303.423,300.206 304.59,299.539 304.5,295.5C 304.07,290.641 302.07,286.641 298.5,283.5C 299.072,281.745 299.906,280.078 301,278.5C 306.739,273.05 312.572,267.717 318.5,262.5C 324.966,268.78 330.966,275.447 336.5,282.5 Z"/></g>
<g><path style="opacity:1" fill="#5d813c" d="M 380.5,222.5 C 381.208,228.275 383.208,233.942 386.5,239.5C 386.376,240.107 386.043,240.44 385.5,240.5C 384.761,240.369 384.094,240.536 383.5,241C 385.439,241.908 386.439,243.408 386.5,245.5C 383.96,242.863 383.294,243.363 384.5,247C 383.913,251.648 383.246,256.148 382.5,260.5C 381.883,260.389 381.383,260.056 381,259.5C 380.178,262.117 379.678,264.784 379.5,267.5C 378.833,267.5 378.167,267.5 377.5,267.5C 376.442,266.4 375.608,265.066 375,263.5C 374.84,267.287 374.174,270.954 373,274.5C 372.333,273.833 371.667,273.167 371,272.5C 370.5,274.5 370,276.5 369.5,278.5C 369.543,279.416 369.876,280.083 370.5,280.5C 369.494,281.396 369.494,282.062 370.5,282.5C 368.833,284.5 367.167,286.5 365.5,288.5C 364.662,288.158 364.328,287.492 364.5,286.5C 365.478,286.189 366.145,285.522 366.5,284.5C 365.215,276.817 364.215,277.15 363.5,285.5C 361.177,282.874 358.843,280.207 356.5,277.5C 357.32,275.86 358.153,274.193 359,272.5C 359.333,273.5 359.667,274.5 360,275.5C 360.333,275.167 360.667,274.833 361,274.5C 364.592,264.911 366.259,265.245 366,275.5C 367.08,273.004 368.414,270.67 370,268.5C 370.297,265.086 370.964,261.753 372,258.5C 372.317,256.699 372.984,256.366 374,257.5C 375.027,253.392 376.36,249.392 378,245.5C 378.833,247.5 379.667,249.5 380.5,251.5C 381.262,250.372 381.929,249.205 382.5,248C 382.44,240.261 381.106,232.595 378.5,225C 378.833,223.833 379.167,222.667 379.5,221.5C 380.107,221.624 380.44,221.957 380.5,222.5 Z"/></g>
<g><path style="opacity:1" fill="#c1cbb9" d="M 382.5,260.5 C 382.065,263.157 381.065,265.491 379.5,267.5C 379.678,264.784 380.178,262.117 381,259.5C 381.383,260.056 381.883,260.389 382.5,260.5 Z"/></g>
<g><path style="opacity:1" fill="#6c8f4b" d="M 398.5,267.5 C 398.083,266.876 397.416,266.543 396.5,266.5C 392.527,267.384 388.527,268.051 384.5,268.5C 389.652,265.299 395.319,264.132 401.5,265C 400.627,266.045 399.627,266.878 398.5,267.5 Z"/></g>
<g><path style="opacity:1" fill="#b13850" d="M 255.5,268.5 C 257.337,268.639 257.67,269.306 256.5,270.5C 255.702,270.043 255.369,269.376 255.5,268.5 Z"/></g>
<g><path style="opacity:1" fill="#6c3320" d="M 277.5,268.5 C 278.833,269.167 279.833,270.167 280.5,271.5C 279.596,272.209 279.263,273.209 279.5,274.5C 278.326,275.514 277.66,276.847 277.5,278.5C 276.277,282.615 274.277,286.282 271.5,289.5C 271.047,290.458 270.381,291.292 269.5,292C 266.413,292.259 263.413,292.759 260.5,293.5C 259.833,293.5 259.167,293.5 258.5,293.5C 257.972,292.279 257.305,291.113 256.5,290C 257.823,289.184 258.489,288.017 258.5,286.5C 259.5,286.167 260.167,285.5 260.5,284.5C 261.5,284.167 262.167,283.5 262.5,282.5C 263.5,282.167 264.167,281.5 264.5,280.5C 266.262,279.738 267.262,278.404 267.5,276.5C 270.546,275.171 272.879,273.171 274.5,270.5C 275.5,269.833 276.5,269.167 277.5,268.5 Z"/></g>
<g><path style="opacity:1" fill="#859872" d="M 263.5,271.5 C 265.134,272.955 266.468,274.622 267.5,276.5C 267.262,278.404 266.262,279.738 264.5,280.5C 264.267,278.938 263.6,277.605 262.5,276.5C 261.833,275.167 261.167,273.833 260.5,272.5C 260.833,272.5 261.167,272.5 261.5,272.5C 262.925,274.031 263.591,273.698 263.5,271.5 Z"/></g>
<g><path style="opacity:1" fill="#e6e9e3" d="M 377.5,267.5 C 378.686,268.961 378.686,270.295 377.5,271.5C 377.631,270.624 377.298,269.957 376.5,269.5C 375.227,270.257 375.227,270.923 376.5,271.5C 375.754,275.323 373.754,278.323 370.5,280.5C 369.876,280.083 369.543,279.416 369.5,278.5C 370,276.5 370.5,274.5 371,272.5C 371.667,273.167 372.333,273.833 373,274.5C 374.174,270.954 374.84,267.287 375,263.5C 375.608,265.066 376.442,266.4 377.5,267.5 Z"/></g>
<g><path style="opacity:1" fill="#b85464" d="M 377.5,271.5 C 377.167,271.5 376.833,271.5 376.5,271.5C 375.227,270.923 375.227,270.257 376.5,269.5C 377.298,269.957 377.631,270.624 377.5,271.5 Z"/></g>
<g><path style="opacity:1" fill="#b34057" d="M 382.5,271.5 C 382.5,272.167 382.5,272.833 382.5,273.5C 379.833,272.833 379.833,272.167 382.5,271.5 Z"/></g>
<g><path style="opacity:1" fill="#6e3420" d="M 350.5,272.5 C 352.05,274.622 354.05,276.289 356.5,277.5C 358.843,280.207 361.177,282.874 363.5,285.5C 363.5,286.167 363.833,286.5 364.5,286.5C 364.328,287.492 364.662,288.158 365.5,288.5C 365.5,289.167 365.833,289.5 366.5,289.5C 367.234,290.708 367.567,292.041 367.5,293.5C 367.5,294.167 367.167,294.5 366.5,294.5C 363.167,294.5 359.833,294.5 356.5,294.5C 356.167,294.5 355.833,294.5 355.5,294.5C 354.396,292.611 353.063,290.945 351.5,289.5C 351.443,288.391 351.11,287.391 350.5,286.5C 353.091,287.254 354.924,288.921 356,291.5C 356.01,287.347 353.843,285.347 349.5,285.5C 349.125,283.302 348.458,281.302 347.5,279.5C 347.5,278.833 347.5,278.167 347.5,277.5C 347.75,275.326 348.75,273.659 350.5,272.5 Z"/></g>
<g><path style="opacity:1" fill="#e8e7e3" d="M 382.5,271.5 C 379.833,272.167 379.833,272.833 382.5,273.5C 380.821,275.175 378.821,276.008 376.5,276C 378.123,273.92 379.623,271.754 381,269.5C 381.717,270.044 382.217,270.711 382.5,271.5 Z"/></g>
<g><path style="opacity:1" fill="#557737" d="M 262.5,276.5 C 263.6,277.605 264.267,278.938 264.5,280.5C 264.167,281.5 263.5,282.167 262.5,282.5C 257.976,280.652 254.31,277.652 251.5,273.5C 251.833,273.167 252.167,272.833 252.5,272.5C 255.778,274.036 259.111,275.369 262.5,276.5 Z"/></g>
<g><path style="opacity:1" fill="#5f7e38" d="M 280.5,271.5 C 282.112,275.058 283.445,278.725 284.5,282.5C 284.833,283.167 285.167,283.833 285.5,284.5C 285.5,286.167 285.5,287.833 285.5,289.5C 284.833,290.833 283.833,291.833 282.5,292.5C 281.508,292.672 280.842,292.338 280.5,291.5C 281.625,290.652 281.625,289.652 280.5,288.5C 280.859,286.629 281.859,285.129 283.5,284C 281.934,283.7 280.601,284.2 279.5,285.5C 279.5,281.833 279.5,278.167 279.5,274.5C 279.263,273.209 279.596,272.209 280.5,271.5 Z"/></g>
<g><path style="opacity:1" fill="#5b7c3f" d="M 294.5,279.5 C 294.167,280.5 293.5,281.167 292.5,281.5C 290.81,277.488 291.477,276.822 294.5,279.5 Z"/></g>
<g><path style="opacity:1" fill="#a6abae" d="M 329.5,252.5 C 329.5,253.167 329.5,253.833 329.5,254.5C 326.14,255.52 323.473,257.52 321.5,260.5C 327.188,266.854 333.188,272.854 339.5,278.5C 340.031,280.544 341.198,282.211 343,283.5C 344.277,281.253 345.777,279.253 347.5,277.5C 347.5,278.167 347.5,278.833 347.5,279.5C 346.952,281.394 345.952,283.06 344.5,284.5C 344.863,285.183 345.196,285.85 345.5,286.5C 344.833,287.833 343.833,288.833 342.5,289.5C 341.389,288.34 340.389,287.007 339.5,285.5C 338.818,286.243 338.151,286.909 337.5,287.5C 337.5,287.167 337.5,286.833 337.5,286.5C 339.078,284.625 338.745,283.292 336.5,282.5C 330.966,275.447 324.966,268.78 318.5,262.5C 312.572,267.717 306.739,273.05 301,278.5C 299.906,280.078 299.072,281.745 298.5,283.5C 296.5,284.5 294.5,285.5 292.5,286.5C 291.833,286.5 291.5,286.167 291.5,285.5C 291.5,284.833 291.5,284.167 291.5,283.5C 291.833,282.833 292.167,282.167 292.5,281.5C 293.5,281.167 294.167,280.5 294.5,279.5C 301.468,273.007 308.468,266.507 315.5,260C 313.294,257.963 311.294,255.797 309.5,253.5C 316.131,252.669 322.798,252.336 329.5,252.5 Z"/></g>
<g><path style="opacity:1" fill="#fbfcfc" d="M 314.5,254.5 C 317.304,253.362 320.304,253.195 323.5,254C 321.833,255.167 320.167,256.333 318.5,257.5C 317.148,256.476 315.815,255.476 314.5,254.5 Z"/></g>
<g><path style="opacity:1" fill="#d7ddd2" d="M 364.5,286.5 C 363.833,286.5 363.5,286.167 363.5,285.5C 364.215,277.15 365.215,276.817 366.5,284.5C 366.145,285.522 365.478,286.189 364.5,286.5 Z"/></g>
<g><path style="opacity:1" fill="#7e8249" d="M 291.5,283.5 C 291.5,284.167 291.5,284.833 291.5,285.5C 289.784,283.975 287.784,282.975 285.5,282.5C 285.369,281.624 285.702,280.957 286.5,280.5C 288.029,281.763 289.695,282.763 291.5,283.5 Z"/></g>
<g><path style="opacity:1" fill="#5e7c44" d="M 260.5,284.5 C 260.167,285.5 259.5,286.167 258.5,286.5C 257.244,286.539 256.244,286.039 255.5,285C 257.134,284.506 258.801,284.34 260.5,284.5 Z"/></g>
<g><path style="opacity:1" fill="#c29223" d="M 280.5,288.5 C 279.596,287.791 279.263,286.791 279.5,285.5C 280.601,284.2 281.934,283.7 283.5,284C 281.859,285.129 280.859,286.629 280.5,288.5 Z"/></g>
<g><path style="opacity:1" fill="#5b7430" d="M 347.5,279.5 C 348.458,281.302 349.125,283.302 349.5,285.5C 348.167,285.833 346.833,286.167 345.5,286.5C 345.196,285.85 344.863,285.183 344.5,284.5C 345.952,283.06 346.952,281.394 347.5,279.5 Z"/></g>
<g><path style="opacity:1" fill="#769953" d="M 382.5,285.5 C 377.512,287.822 372.179,289.155 366.5,289.5C 365.833,289.5 365.5,289.167 365.5,288.5C 370.958,286.386 376.624,285.386 382.5,285.5 Z"/></g>
<g><path style="opacity:1" fill="#55723b" d="M 277.5,278.5 C 279.027,281.796 278.693,284.962 276.5,288C 277.044,288.717 277.711,289.217 278.5,289.5C 278.5,289.833 278.5,290.167 278.5,290.5C 277.5,290.5 276.5,290.5 275.5,290.5C 274.432,289.566 273.099,289.232 271.5,289.5C 274.277,286.282 276.277,282.615 277.5,278.5 Z"/></g>
<g><path style="opacity:1" fill="#e5e4da" d="M 279.5,274.5 C 279.5,278.167 279.5,281.833 279.5,285.5C 279.263,286.791 279.596,287.791 280.5,288.5C 281.625,289.652 281.625,290.652 280.5,291.5C 280.167,290.5 279.5,289.833 278.5,289.5C 277.711,289.217 277.044,288.717 276.5,288C 278.693,284.962 279.027,281.796 277.5,278.5C 277.66,276.847 278.326,275.514 279.5,274.5 Z"/></g>
<g><path style="opacity:1" fill="#d5d0b2" d="M 285.5,284.5 C 288.167,286.167 288.167,287.833 285.5,289.5C 285.5,287.833 285.5,286.167 285.5,284.5 Z"/></g>
<g><path style="opacity:1" fill="#496a2d" d="M 382.5,285.5 C 383.552,285.351 384.552,285.517 385.5,286C 380.278,290.447 374.278,292.947 367.5,293.5C 367.567,292.041 367.234,290.708 366.5,289.5C 372.179,289.155 377.512,287.822 382.5,285.5 Z"/></g>
<g><path style="opacity:1" fill="#537330" d="M 298.5,283.5 C 302.07,286.641 304.07,290.641 304.5,295.5C 304.59,299.539 303.423,300.206 301,297.5C 300.722,298.416 300.222,299.082 299.5,299.5C 298.833,299.167 298.167,298.833 297.5,298.5C 296.5,296.833 295.167,295.5 293.5,294.5C 292.4,293.395 291.733,292.062 291.5,290.5C 296.182,289.84 296.515,288.507 292.5,286.5C 294.5,285.5 296.5,284.5 298.5,283.5 Z"/></g>
<g><path style="opacity:1" fill="#eeaf22" d="M 284.5,282.5 C 284.833,282.5 285.167,282.5 285.5,282.5C 287.784,282.975 289.784,283.975 291.5,285.5C 291.5,286.167 291.833,286.5 292.5,286.5C 296.515,288.507 296.182,289.84 291.5,290.5C 289.251,291.08 287.585,292.413 286.5,294.5C 284.527,295.487 282.527,296.487 280.5,297.5C 279.702,297.043 279.369,296.376 279.5,295.5C 280.5,294.5 281.5,293.5 282.5,292.5C 283.833,291.833 284.833,290.833 285.5,289.5C 288.167,287.833 288.167,286.167 285.5,284.5C 285.167,283.833 284.833,283.167 284.5,282.5 Z"/></g>
<g><path style="opacity:1" fill="#518238" d="M 336.5,282.5 C 338.745,283.292 339.078,284.625 337.5,286.5C 333.036,290.463 328.702,294.63 324.5,299C 321.968,300.765 319.301,302.265 316.5,303.5C 315.833,303.5 315.5,303.167 315.5,302.5C 323.79,297.21 330.79,290.544 336.5,282.5 Z"/></g>
<g><path style="opacity:1" fill="#f0f4ef" d="M 337.5,286.5 C 337.5,286.833 337.5,287.167 337.5,287.5C 334.758,291.981 332.258,296.647 330,301.5C 329.184,302.823 328.017,303.489 326.5,303.5C 324.393,304.3 322.226,304.967 320,305.5C 318.301,305.613 317.134,304.947 316.5,303.5C 319.301,302.265 321.968,300.765 324.5,299C 328.702,294.63 333.036,290.463 337.5,286.5 Z"/></g>
<g><path style="opacity:1" fill="#e6aa22" d="M 349.5,285.5 C 353.843,285.347 356.01,287.347 356,291.5C 354.924,288.921 353.091,287.254 350.5,286.5C 347.833,288.167 347.833,289.833 350.5,291.5C 351.164,293.487 352.331,295.154 354,296.5C 354.717,295.956 355.217,295.289 355.5,294.5C 355.833,294.5 356.167,294.5 356.5,294.5C 355.587,296.086 355.587,297.586 356.5,299C 354.455,299.49 352.455,299.323 350.5,298.5C 350.5,297.833 350.167,297.5 349.5,297.5C 347.679,293.932 345.012,292.265 341.5,292.5C 339.908,290.775 340.242,289.775 342.5,289.5C 343.833,288.833 344.833,287.833 345.5,286.5C 346.833,286.167 348.167,285.833 349.5,285.5 Z"/></g>
<g><path style="opacity:1" fill="#556829" d="M 350.5,286.5 C 351.11,287.391 351.443,288.391 351.5,289.5C 350.662,289.842 350.328,290.508 350.5,291.5C 347.833,289.833 347.833,288.167 350.5,286.5 Z"/></g>
<g><path style="opacity:1" fill="#dee3d9" d="M 275.5,290.5 C 276.5,290.5 277.5,290.5 278.5,290.5C 278.5,291.167 278.5,291.833 278.5,292.5C 277.127,292.657 275.793,292.49 274.5,292C 275.056,291.617 275.389,291.117 275.5,290.5 Z"/></g>
<g><path style="opacity:1" fill="#a78f3f" d="M 278.5,289.5 C 279.5,289.833 280.167,290.5 280.5,291.5C 280.842,292.338 281.508,292.672 282.5,292.5C 281.5,293.5 280.5,294.5 279.5,295.5C 279.5,295.167 279.5,294.833 279.5,294.5C 279.672,293.508 279.338,292.842 278.5,292.5C 278.5,291.833 278.5,291.167 278.5,290.5C 278.5,290.167 278.5,289.833 278.5,289.5 Z"/></g>
<g><path style="opacity:1" fill="#eee9e0" d="M 291.5,290.5 C 291.733,292.062 292.4,293.395 293.5,294.5C 292.167,294.5 291.5,295.167 291.5,296.5C 291.167,296.5 290.833,296.5 290.5,296.5C 289.329,295.655 287.995,294.989 286.5,294.5C 287.585,292.413 289.251,291.08 291.5,290.5 Z"/></g>
<g><path style="opacity:1" fill="#658c3c" d="M 271.5,289.5 C 273.099,289.232 274.432,289.566 275.5,290.5C 275.389,291.117 275.056,291.617 274.5,292C 275.793,292.49 277.127,292.657 278.5,292.5C 279.338,292.842 279.672,293.508 279.5,294.5C 272.978,294.823 266.645,294.49 260.5,293.5C 263.413,292.759 266.413,292.259 269.5,292C 270.381,291.292 271.047,290.458 271.5,289.5 Z"/></g>
<g><path style="opacity:1" fill="#b0b698" d="M 351.5,289.5 C 353.063,290.945 354.396,292.611 355.5,294.5C 355.217,295.289 354.717,295.956 354,296.5C 352.331,295.154 351.164,293.487 350.5,291.5C 350.328,290.508 350.662,289.842 351.5,289.5 Z"/></g>
<g><path style="opacity:1" fill="#b04659" d="M 293.5,294.5 C 293.5,295.167 293.5,295.833 293.5,296.5C 292.833,296.5 292.167,296.5 291.5,296.5C 291.5,295.167 292.167,294.5 293.5,294.5 Z"/></g>
<g><path style="opacity:1" fill="#d2d8ca" d="M 293.5,294.5 C 295.167,295.5 296.5,296.833 297.5,298.5C 295.847,298.34 294.514,297.674 293.5,296.5C 293.5,295.833 293.5,295.167 293.5,294.5 Z"/></g>
<g><path style="opacity:1" fill="#6f3b29" d="M 261.5,296.5 C 262.959,296.433 264.292,296.766 265.5,297.5C 263.872,298.853 262.538,298.519 261.5,296.5 Z"/></g>
<g><path style="opacity:1" fill="#718b5e" d="M 290.5,296.5 C 290.833,296.5 291.167,296.5 291.5,296.5C 292.167,296.5 292.833,296.5 293.5,296.5C 294.514,297.674 295.847,298.34 297.5,298.5C 298.167,298.833 298.833,299.167 299.5,299.5C 304.573,302.048 309.906,303.048 315.5,302.5C 315.5,303.167 315.833,303.5 316.5,303.5C 317.134,304.947 318.301,305.613 320,305.5C 322.226,304.967 324.393,304.3 326.5,303.5C 327.091,304.151 327.757,304.818 328.5,305.5C 328.376,306.107 328.043,306.44 327.5,306.5C 327.265,305.903 326.765,305.57 326,305.5C 324.5,306 323,306.5 321.5,307C 323.904,307.508 324.571,308.675 323.5,310.5C 320.959,307.9 318.459,307.9 316,310.5C 315.493,309.004 315.993,307.837 317.5,307C 310.498,304.768 303.498,302.602 296.5,300.5C 295.542,300.047 294.708,299.381 294,298.5C 293.517,299.448 293.351,300.448 293.5,301.5C 293.167,301.5 292.833,301.5 292.5,301.5C 292.719,300.325 292.386,299.325 291.5,298.5C 290.232,299.428 288.899,299.595 287.5,299C 288.942,298.623 289.942,297.79 290.5,296.5 Z"/></g>
<g><path style="opacity:1" fill="#587f3c" d="M 342.5,289.5 C 340.242,289.775 339.908,290.775 341.5,292.5C 345.012,292.265 347.679,293.932 349.5,297.5C 348.508,297.328 347.842,297.662 347.5,298.5C 344.246,298.794 341.579,300.127 339.5,302.5C 338.167,302.5 336.833,302.5 335.5,302.5C 334.761,302.631 334.094,302.464 333.5,302C 336.422,301.583 339.089,300.583 341.5,299C 339.444,298.689 337.444,298.189 335.5,297.5C 333.585,299.071 332.585,301.071 332.5,303.5C 330.19,306.102 328.357,309.102 327,312.5C 326.322,310.402 326.489,308.402 327.5,306.5C 328.043,306.44 328.376,306.107 328.5,305.5C 327.757,304.818 327.091,304.151 326.5,303.5C 328.017,303.489 329.184,302.823 330,301.5C 332.258,296.647 334.758,291.981 337.5,287.5C 338.151,286.909 338.818,286.243 339.5,285.5C 340.389,287.007 341.389,288.34 342.5,289.5 Z"/></g>
<g><path style="opacity:1" fill="#f1eeeb" d="M 347.5,298.5 C 347.842,297.662 348.508,297.328 349.5,297.5C 350.167,297.5 350.5,297.833 350.5,298.5C 349.833,298.833 349.167,299.167 348.5,299.5C 348.5,298.833 348.167,298.5 347.5,298.5 Z"/></g>
<g><path style="opacity:1" fill="#cbd3c5" d="M 335.5,302.5 C 336.167,303.167 336.833,303.833 337.5,304.5C 336.833,304.5 336.167,304.5 335.5,304.5C 334.209,304.737 333.209,304.404 332.5,303.5C 332.585,301.071 333.585,299.071 335.5,297.5C 337.444,298.189 339.444,298.689 341.5,299C 339.089,300.583 336.422,301.583 333.5,302C 334.094,302.464 334.761,302.631 335.5,302.5 Z"/></g>
<g><path style="opacity:1" fill="#c5b8b0" d="M 347.5,298.5 C 348.167,298.5 348.5,298.833 348.5,299.5C 347.167,300.5 345.833,301.5 344.5,302.5C 343.833,302.5 343.167,302.5 342.5,302.5C 341.508,302.328 340.842,302.662 340.5,303.5C 339.833,303.5 339.5,303.167 339.5,302.5C 341.579,300.127 344.246,298.794 347.5,298.5 Z"/></g>
<g><path style="opacity:1" fill="#d49aa2" d="M 296.5,300.5 C 295.947,302.552 294.947,302.885 293.5,301.5C 293.351,300.448 293.517,299.448 294,298.5C 294.708,299.381 295.542,300.047 296.5,300.5 Z"/></g>
<g><path style="opacity:1" fill="#b94d60" d="M 342.5,302.5 C 342.289,304.424 341.623,304.757 340.5,303.5C 340.842,302.662 341.508,302.328 342.5,302.5 Z"/></g>
<g><path style="opacity:1" fill="#537535" d="M 258.5,293.5 C 259.167,293.5 259.833,293.5 260.5,293.5C 266.645,294.49 272.978,294.823 279.5,294.5C 279.5,294.833 279.5,295.167 279.5,295.5C 279.369,296.376 279.702,297.043 280.5,297.5C 282.527,296.487 284.527,295.487 286.5,294.5C 287.995,294.989 289.329,295.655 290.5,296.5C 289.942,297.79 288.942,298.623 287.5,299C 288.899,299.595 290.232,299.428 291.5,298.5C 292.386,299.325 292.719,300.325 292.5,301.5C 292.047,302.458 291.381,303.292 290.5,304C 299.127,304.072 299.127,306.406 290.5,311C 286.878,312.106 283.211,312.439 279.5,312C 281.156,310.171 283.156,308.837 285.5,308C 285,307.833 284.5,307.667 284,307.5C 268.469,311.395 267.635,309.562 281.5,302C 279.167,301.667 276.833,301.333 274.5,301C 275.672,300.581 276.672,299.915 277.5,299C 273.452,298.696 269.452,298.196 265.5,297.5C 264.292,296.766 262.959,296.433 261.5,296.5C 260.167,295.833 259.167,294.833 258.5,293.5 Z"/></g>
<g><path style="opacity:1" fill="#547637" d="M 335.5,304.5 C 336.167,304.5 336.833,304.5 337.5,304.5C 343.541,306.02 348.874,308.853 353.5,313C 346.746,314.021 340.913,312.188 336,307.5C 335.517,306.552 335.351,305.552 335.5,304.5 Z"/></g>
<g><path style="opacity:1" fill="#547635" d="M 356.5,294.5 C 359.833,294.5 363.167,294.5 366.5,294.5C 370.054,295.249 373.72,296.082 377.5,297C 372.29,300.054 366.623,301.721 360.5,302C 362.792,303.29 364.792,304.957 366.5,307C 364.432,307.687 362.432,307.52 360.5,306.5C 359.718,308.329 360.384,309.829 362.5,311C 355.352,310.592 349.352,307.759 344.5,302.5C 345.833,301.5 347.167,300.5 348.5,299.5C 349.167,299.167 349.833,298.833 350.5,298.5C 352.455,299.323 354.455,299.49 356.5,299C 355.587,297.586 355.587,296.086 356.5,294.5 Z"/></g>
</svg>
