<?xml version="1.0" encoding="UTF-8"?>
<!DOCTYPE svg PUBLIC "-//W3C//DTD SVG 1.1//EN" "http://www.w3.org/Graphics/SVG/1.1/DTD/svg11.dtd">
<svg xmlns="http://www.w3.org/2000/svg" version="1.1" width="640px" height="480px" style="shape-rendering:geometricPrecision; text-rendering:geometricPrecision; image-rendering:optimizeQuality; fill-rule:evenodd; clip-rule:evenodd" xmlns:xlink="http://www.w3.org/1999/xlink">
<g><path style="opacity:1" fill="#cd1025" d="M -0.5,-0.5 C 72.8333,-0.5 146.167,-0.5 219.5,-0.5C 219.5,79.5 219.5,159.5 219.5,239.5C 219.5,319.5 219.5,399.5 219.5,479.5C 146.167,479.5 72.8333,479.5 -0.5,479.5C -0.5,319.5 -0.5,159.5 -0.5,-0.5 Z"/></g>
<g><path style="opacity:1" fill="#fbd115" d="M 219.5,-0.5 C 359.5,-0.5 499.5,-0.5 639.5,-0.5C 639.5,79.5 639.5,159.5 639.5,239.5C 499.5,239.5 359.5,239.5 219.5,239.5C 219.5,159.5 219.5,79.5 219.5,-0.5 Z"/></g>
<g><path style="opacity:1" fill="#030000" d="M 127.5,214.5 C 146.167,215.167 164.833,215.833 183.5,216.5C 168.214,227.121 153.214,238.121 138.5,249.5C 145.08,267.555 150.746,285.555 155.5,303.5C 140.167,292.5 124.833,281.5 109.5,270.5C 94.3603,281.14 79.3603,291.973 64.5,303C 63.8333,303.667 63.1667,303.667 62.5,303C 68.3958,285.146 74.3958,267.313 80.5,249.5C 65.7861,238.121 50.7861,227.121 35.5,216.5C 54.1667,215.833 72.8333,215.167 91.5,214.5C 97.3014,196.429 103.301,178.429 109.5,160.5C 115.699,178.429 121.699,196.429 127.5,214.5 Z"/></g>
<g><path style="opacity:1" fill="#36050a" d="M 91.5,214.5 C 72.8333,215.167 54.1667,215.833 35.5,216.5C 34.7109,216.217 34.0442,215.717 33.5,215C 52.8305,214.5 72.1638,214.333 91.5,214.5 Z"/></g>
<g><path style="opacity:1" fill="#37050a" d="M 127.5,214.5 C 146.836,214.333 166.17,214.5 185.5,215C 184.956,215.717 184.289,216.217 183.5,216.5C 164.833,215.833 146.167,215.167 127.5,214.5 Z"/></g>
<g><path style="opacity:1" fill="#009e48" d="M 219.5,239.5 C 359.5,239.5 499.5,239.5 639.5,239.5C 639.5,319.5 639.5,399.5 639.5,479.5C 499.5,479.5 359.5,479.5 219.5,479.5C 219.5,399.5 219.5,319.5 219.5,239.5 Z"/></g>
</svg>
