<?xml version="1.0" encoding="UTF-8"?>
<!DOCTYPE svg PUBLIC "-//W3C//DTD SVG 1.1//EN" "http://www.w3.org/Graphics/SVG/1.1/DTD/svg11.dtd">
<svg xmlns="http://www.w3.org/2000/svg" version="1.1" width="640px" height="480px" style="shape-rendering:geometricPrecision; text-rendering:geometricPrecision; image-rendering:optimizeQuality; fill-rule:evenodd; clip-rule:evenodd" xmlns:xlink="http://www.w3.org/1999/xlink">
<g><path style="opacity:1" fill="#399408" d="M 1.5,0.5 C 1.5,0.166667 1.5,-0.166667 1.5,-0.5C 214.167,-0.5 426.833,-0.5 639.5,-0.5C 639.5,159.5 639.5,319.5 639.5,479.5C 426.833,479.5 214.167,479.5 1.5,479.5C 3.1209,477.883 5.1209,476.716 7.5,476C 211.277,397.944 414.944,319.611 618.5,241C 413.516,161.062 208.516,81.2287 3.5,1.5C 2.83333,1.16667 2.16667,0.833333 1.5,0.5 Z"/></g>
<g><path style="opacity:1" fill="#dcdcda" d="M -0.5,-0.5 C 0.166667,-0.5 0.833333,-0.5 1.5,-0.5C 1.5,-0.166667 1.5,0.166667 1.5,0.5C 1.5,7.16667 1.5,13.8333 1.5,20.5C 0.833333,20.1667 0.166667,19.8333 -0.5,19.5C -0.5,12.8333 -0.5,6.16667 -0.5,-0.5 Z"/></g>
<g><path style="opacity:1" fill="#030200" d="M 1.5,0.5 C 2.16667,0.833333 2.83333,1.16667 3.5,1.5C 18.1843,14.1812 33.1843,26.5145 48.5,38.5C 129.773,105.767 210.773,173.434 291.5,241.5C 206.286,310.269 121.286,379.269 36.5,448.5C 25.1667,457.5 13.8333,466.5 2.5,475.5C 1.50728,467.35 1.17395,459.017 1.5,450.5C 1.5,450.167 1.5,449.833 1.5,449.5C 87.8029,380.342 174.136,311.175 260.5,242C 183.159,174.519 104.159,109.186 23.5,46C 16.64,40.7363 9.30666,36.2363 1.5,32.5C 1.5,28.5 1.5,24.5 1.5,20.5C 1.5,13.8333 1.5,7.16667 1.5,0.5 Z"/></g>
<g><path style="opacity:1" fill="#fdfefc" d="M 3.5,1.5 C 208.516,81.2287 413.516,161.062 618.5,241C 414.944,319.611 211.277,397.944 7.5,476C 5.1209,476.716 3.1209,477.883 1.5,479.5C 0.833333,479.5 0.166667,479.5 -0.5,479.5C -0.5,470.167 -0.5,460.833 -0.5,451.5C 0.166628,459.676 0.833295,468.01 1.5,476.5C 2.10667,476.376 2.44001,476.043 2.5,475.5C 13.8333,466.5 25.1667,457.5 36.5,448.5C 209.6,379.118 382.6,309.451 555.5,239.5C 387.188,170.73 218.188,103.73 48.5,38.5C 33.1843,26.5145 18.1843,14.1812 3.5,1.5 Z"/></g>
<g><path style="opacity:0.938" fill="#eed63d" d="M -0.5,19.5 C 0.166667,19.8333 0.833333,20.1667 1.5,20.5C 1.5,24.5 1.5,28.5 1.5,32.5C 0.833333,32.5 0.166667,32.5 -0.5,32.5C -0.5,28.1667 -0.5,23.8333 -0.5,19.5 Z"/></g>
<g><path style="opacity:1" fill="#dd200f" d="M 1.5,32.5 C 9.30666,36.2363 16.64,40.7363 23.5,46C 104.159,109.186 183.159,174.519 260.5,242C 174.136,311.175 87.8029,380.342 1.5,449.5C 0.1678,310.598 0.1678,171.598 1.5,32.5 Z"/></g>
<g><path style="opacity:1" fill="#fedd0a" d="M 48.5,38.5 C 218.188,103.73 387.188,170.73 555.5,239.5C 382.6,309.451 209.6,379.118 36.5,448.5C 121.286,379.269 206.286,310.269 291.5,241.5C 210.773,173.434 129.773,105.767 48.5,38.5 Z"/></g>
<g><path style="opacity:0.982" fill="#e44938" d="M -0.5,32.5 C 0.166667,32.5 0.833333,32.5 1.5,32.5C 0.1678,171.598 0.1678,310.598 1.5,449.5C 1.5,449.833 1.5,450.167 1.5,450.5C 0.833333,450.5 0.166667,450.5 -0.5,450.5C -0.5,311.167 -0.5,171.833 -0.5,32.5 Z"/></g>
<g><path style="opacity:1" fill="#cac8c1" d="M -0.5,451.5 C -0.5,451.167 -0.5,450.833 -0.5,450.5C 0.166667,450.5 0.833333,450.5 1.5,450.5C 1.17395,459.017 1.50728,467.35 2.5,475.5C 2.44001,476.043 2.10667,476.376 1.5,476.5C 0.833295,468.01 0.166628,459.676 -0.5,451.5 Z"/></g>
</svg>
