<?xml version="1.0" encoding="UTF-8"?>
<!DOCTYPE svg PUBLIC "-//W3C//DTD SVG 1.1//EN" "http://www.w3.org/Graphics/SVG/1.1/DTD/svg11.dtd">
<svg xmlns="http://www.w3.org/2000/svg" version="1.1" width="640px" height="480px" style="shape-rendering:geometricPrecision; text-rendering:geometricPrecision; image-rendering:optimizeQuality; fill-rule:evenodd; clip-rule:evenodd" xmlns:xlink="http://www.w3.org/1999/xlink">
<g><path style="opacity:1" fill="#00209f" d="M -0.5,-0.5 C 212.833,-0.5 426.167,-0.5 639.5,-0.5C 639.5,79.5 639.5,159.5 639.5,239.5C 558.167,239.5 476.833,239.5 395.5,239.5C 395.83,219.326 395.497,199.326 394.5,179.5C 344.5,179.5 294.5,179.5 244.5,179.5C 243.503,199.326 243.17,219.326 243.5,239.5C 162.167,239.5 80.8333,239.5 -0.5,239.5C -0.5,159.5 -0.5,79.5 -0.5,-0.5 Z"/></g>
<g><path style="opacity:1" fill="#fbfbfb" d="M 244.5,179.5 C 294.5,179.5 344.5,179.5 394.5,179.5C 394.831,209.005 394.498,238.338 393.5,267.5C 391.914,266.852 390.247,266.352 388.5,266C 389.8,264.421 389.466,263.255 387.5,262.5C 387.103,261.475 386.437,261.308 385.5,262C 383.136,263.842 380.803,265.675 378.5,267.5C 376.012,269.255 373.678,271.255 371.5,273.5C 369.379,273.675 367.379,273.341 365.5,272.5C 365.5,272.167 365.5,271.833 365.5,271.5C 366.216,269.444 366.883,267.277 367.5,265C 369.473,264.505 371.473,264.338 373.5,264.5C 373.768,262.901 373.434,261.568 372.5,260.5C 372.657,259.127 372.49,257.793 372,256.5C 371.617,257.056 371.117,257.389 370.5,257.5C 370.368,254.43 370.701,251.43 371.5,248.5C 372.156,249.278 372.989,249.944 374,250.5C 374.765,250.43 375.265,250.097 375.5,249.5C 376.858,247.257 376.192,245.591 373.5,244.5C 373.5,243.833 373.5,243.167 373.5,242.5C 383.011,236.265 382.011,234.932 370.5,238.5C 368.901,238.232 367.568,238.566 366.5,239.5C 365.884,240.202 365.884,241.202 366.5,242.5C 365.71,243.401 364.71,244.068 363.5,244.5C 364.207,241.214 364.54,237.881 364.5,234.5C 365.268,235.263 365.768,236.263 366,237.5C 366.671,236.748 367.504,236.414 368.5,236.5C 369.569,233.804 368.569,231.804 365.5,230.5C 365.5,230.167 365.5,229.833 365.5,229.5C 374.113,220.723 373.113,219.39 362.5,225.5C 359.079,226.159 356.413,224.826 354.5,221.5C 354.586,220.504 354.252,219.671 353.5,219C 356.651,217.839 358.151,215.672 358,212.5C 355.003,214.402 352.169,216.402 349.5,218.5C 347.62,218.229 346.287,218.896 345.5,220.5C 345.557,221.609 345.89,222.609 346.5,223.5C 345.2,226.432 343.2,228.766 340.5,230.5C 339.729,227.577 340.396,224.744 342.5,222C 342.167,221.833 341.833,221.667 341.5,221.5C 339.748,224.672 337.748,227.672 335.5,230.5C 335.167,229.833 334.833,229.167 334.5,228.5C 335.468,225.174 335.968,221.841 336,218.5C 334.388,222.065 332.555,225.398 330.5,228.5C 330.429,225.403 330.262,222.07 330,218.5C 329.08,221.101 328.413,223.768 328,226.5C 327.302,227.691 326.469,228.691 325.5,229.5C 324.734,232.48 323.901,235.48 323,238.5C 322.675,231.476 322.175,224.476 321.5,217.5C 322.472,220.098 323.472,220.098 324.5,217.5C 325.29,218.609 325.79,219.942 326,221.5C 328.275,217.986 328.775,214.319 327.5,210.5C 327.56,209.957 327.893,209.624 328.5,209.5C 329.281,210.737 330.281,211.737 331.5,212.5C 332.298,212.043 332.631,211.376 332.5,210.5C 333.65,211.85 334.317,211.684 334.5,210C 334.097,208.527 333.43,207.194 332.5,206C 332.833,205.833 333.167,205.667 333.5,205.5C 336.248,206.813 339.081,207.813 342,208.5C 342.374,207.584 342.874,206.75 343.5,206C 340.039,202.736 336.039,200.403 331.5,199C 333.845,198.83 336.179,199.163 338.5,200C 342.121,202.387 345.621,204.22 349,205.5C 349.52,203.711 349.187,202.044 348,200.5C 346.513,199.845 345.347,198.845 344.5,197.5C 346.902,197.478 349.568,197.311 352.5,197C 350.844,195.171 348.844,193.837 346.5,193C 342.312,192.824 338.312,192.324 334.5,191.5C 335.75,191.423 336.583,190.756 337,189.5C 338.965,190.885 340.798,190.718 342.5,189C 338.819,186.705 334.819,186.038 330.5,187C 326.626,188.431 323.293,190.597 320.5,193.5C 320.5,192.5 320.5,191.5 320.5,190.5C 322.912,190.306 323.912,188.973 323.5,186.5C 323.938,182.092 321.938,180.425 317.5,181.5C 317.5,182.5 317.5,183.5 317.5,184.5C 316.89,185.391 316.557,186.391 316.5,187.5C 318.081,189.142 318.747,191.142 318.5,193.5C 312.224,186.846 304.891,185.179 296.5,188.5C 295.711,188.783 295.044,189.283 294.5,190C 295.942,190.377 296.942,191.21 297.5,192.5C 293.039,192.151 289.372,193.651 286.5,197C 289.242,197.2 291.909,197.367 294.5,197.5C 291.144,199.218 289.644,201.885 290,205.5C 291.309,203.109 292.309,203.109 293,205.5C 296.017,201.483 300.017,199.15 305,198.5C 305.167,198.833 305.333,199.167 305.5,199.5C 301.844,200.993 298.511,202.993 295.5,205.5C 294.479,206.002 294.312,206.668 295,207.5C 296.016,206.366 296.683,206.699 297,208.5C 300.215,207.529 303.382,206.695 306.5,206C 304.964,207.599 304.464,209.433 305,211.5C 306.016,210.366 306.683,210.699 307,212.5C 310.536,208.195 311.703,208.529 310.5,213.5C 310.83,216.324 311.664,218.991 313,221.5C 313.333,220.167 313.667,218.833 314,217.5C 314.708,218.381 315.542,219.047 316.5,219.5C 316.5,220.167 316.5,220.833 316.5,221.5C 315.833,226.167 315.167,230.833 314.5,235.5C 314.483,233.435 314.15,231.435 313.5,229.5C 311.112,226.699 309.612,223.366 309,219.5C 308.818,222.226 308.318,224.893 307.5,227.5C 305.911,224.579 304.411,221.579 303,218.5C 302.841,221.882 303.341,225.215 304.5,228.5C 304.167,229.167 303.833,229.833 303.5,230.5C 301.433,228.044 299.599,225.378 298,222.5C 298.096,225.967 298.93,229.3 300.5,232.5C 297.119,230.12 294.453,227.12 292.5,223.5C 293.11,222.609 293.443,221.609 293.5,220.5C 292.252,218.31 290.586,217.977 288.5,219.5C 286.816,216.388 284.316,214.055 281,212.5C 281.423,216.012 282.923,219.012 285.5,221.5C 285.5,221.833 285.5,222.167 285.5,222.5C 282.701,224.302 279.701,225.635 276.5,226.5C 275.811,225.226 274.977,225.226 274,226.5C 272.189,223.658 269.689,222.158 266.5,222C 268.966,224.479 271.299,226.979 273.5,229.5C 273.5,229.833 273.5,230.167 273.5,230.5C 270.431,231.804 269.431,233.804 270.5,236.5C 271.15,236.804 271.817,237.137 272.5,237.5C 273.176,236.398 273.842,235.398 274.5,234.5C 274.5,237.5 274.5,240.5 274.5,243.5C 273.508,243.672 272.842,243.338 272.5,242.5C 272.5,241.5 272.5,240.5 272.5,239.5C 271.432,238.566 270.099,238.232 268.5,238.5C 256.989,234.932 255.989,236.265 265.5,242.5C 265.5,242.833 265.5,243.167 265.5,243.5C 263.018,245.085 262.352,247.085 263.5,249.5C 264.209,250.404 265.209,250.737 266.5,250.5C 266.263,249.209 266.596,248.209 267.5,247.5C 268.207,250.786 268.54,254.119 268.5,257.5C 267.508,257.328 266.842,257.662 266.5,258.5C 265.539,260.265 265.205,262.265 265.5,264.5C 267.527,264.338 269.527,264.505 271.5,265C 272.117,267.277 272.784,269.444 273.5,271.5C 273.5,271.833 273.5,272.167 273.5,272.5C 271.565,273.15 269.565,273.483 267.5,273.5C 265.5,271.833 263.5,270.167 261.5,268.5C 259.022,266.197 256.355,264.031 253.5,262C 252.563,261.308 251.897,261.475 251.5,262.5C 249.896,263.287 249.229,264.62 249.5,266.5C 247.784,266.629 246.117,266.962 244.5,267.5C 244.5,238.167 244.5,208.833 244.5,179.5 Z"/></g>
<g><path style="opacity:1" fill="#283d90" d="M 323.5,186.5 C 321.579,185.637 319.579,184.971 317.5,184.5C 317.5,183.5 317.5,182.5 317.5,181.5C 321.938,180.425 323.938,182.092 323.5,186.5 Z"/></g>
<g><path style="opacity:1" fill="#bb1226" d="M 317.5,184.5 C 319.579,184.971 321.579,185.637 323.5,186.5C 323.912,188.973 322.912,190.306 320.5,190.5C 319.965,188.554 318.632,187.554 316.5,187.5C 316.557,186.391 316.89,185.391 317.5,184.5 Z"/></g>
<g><path style="opacity:1" fill="#16651f" d="M 318.5,193.5 C 319.628,201.301 320.294,201.301 320.5,193.5C 323.293,190.597 326.626,188.431 330.5,187C 334.819,186.038 338.819,186.705 342.5,189C 340.798,190.718 338.965,190.885 337,189.5C 336.583,190.756 335.75,191.423 334.5,191.5C 330.342,192.498 326.342,193.998 322.5,196C 323.516,198.278 324.516,200.445 325.5,202.5C 325.178,204.722 325.845,206.556 327.5,208C 325.014,208.705 325.014,209.538 327.5,210.5C 328.775,214.319 328.275,217.986 326,221.5C 325.79,219.942 325.29,218.609 324.5,217.5C 322.747,215.658 322.414,213.658 323.5,211.5C 322.303,208.962 321.636,206.629 321.5,204.5C 320.252,207.506 320.252,210.506 321.5,213.5C 320.311,214.429 318.978,214.762 317.5,214.5C 317.5,213.5 317.5,212.5 317.5,211.5C 316.5,211.5 315.5,211.5 314.5,211.5C 314.196,207.785 314.863,204.285 316.5,201C 313.956,199.437 313.956,197.937 316.5,196.5C 313.926,194.976 311.259,193.642 308.5,192.5C 305.965,191.651 303.465,190.651 301,189.5C 299.005,191.076 297.505,190.743 296.5,188.5C 304.891,185.179 312.224,186.846 318.5,193.5 Z"/></g>
<g><path style="opacity:1" fill="#a8b4aa" d="M 296.5,188.5 C 297.505,190.743 299.005,191.076 301,189.5C 303.465,190.651 305.965,191.651 308.5,192.5C 305.038,192.94 301.371,192.94 297.5,192.5C 296.942,191.21 295.942,190.377 294.5,190C 295.044,189.283 295.711,188.783 296.5,188.5 Z"/></g>
<g><path style="opacity:1" fill="#947627" d="M 316.5,187.5 C 318.632,187.554 319.965,188.554 320.5,190.5C 320.5,191.5 320.5,192.5 320.5,193.5C 320.294,201.301 319.628,201.301 318.5,193.5C 318.747,191.142 318.081,189.142 316.5,187.5 Z"/></g>
<g><path style="opacity:1" fill="#206026" d="M 334.5,191.5 C 338.312,192.324 342.312,192.824 346.5,193C 348.844,193.837 350.844,195.171 352.5,197C 349.568,197.311 346.902,197.478 344.5,197.5C 345.347,198.845 346.513,199.845 348,200.5C 349.187,202.044 349.52,203.711 349,205.5C 345.621,204.22 342.121,202.387 338.5,200C 336.179,199.163 333.845,198.83 331.5,199C 336.039,200.403 340.039,202.736 343.5,206C 342.874,206.75 342.374,207.584 342,208.5C 339.081,207.813 336.248,206.813 333.5,205.5C 333.167,205.667 332.833,205.833 332.5,206C 333.43,207.194 334.097,208.527 334.5,210C 334.317,211.684 333.65,211.85 332.5,210.5C 330.165,207.775 327.832,205.109 325.5,202.5C 324.516,200.445 323.516,198.278 322.5,196C 326.342,193.998 330.342,192.498 334.5,191.5 Z"/></g>
<g><path style="opacity:1" fill="#26622a" d="M 297.5,192.5 C 301.371,192.94 305.038,192.94 308.5,192.5C 311.259,193.642 313.926,194.976 316.5,196.5C 313.956,197.937 313.956,199.437 316.5,201C 314.863,204.285 314.196,207.785 314.5,211.5C 315.5,211.5 316.5,211.5 317.5,211.5C 317.5,212.5 317.5,213.5 317.5,214.5C 318.978,214.762 320.311,214.429 321.5,213.5C 320.252,210.506 320.252,207.506 321.5,204.5C 321.636,206.629 322.303,208.962 323.5,211.5C 322.414,213.658 322.747,215.658 324.5,217.5C 323.472,220.098 322.472,220.098 321.5,217.5C 321.38,216.414 320.713,215.747 319.5,215.5C 317.532,216.1 316.532,217.433 316.5,219.5C 315.542,219.047 314.708,218.381 314,217.5C 313.667,218.833 313.333,220.167 313,221.5C 311.664,218.991 310.83,216.324 310.5,213.5C 311.703,208.529 310.536,208.195 307,212.5C 306.683,210.699 306.016,210.366 305,211.5C 304.464,209.433 304.964,207.599 306.5,206C 303.382,206.695 300.215,207.529 297,208.5C 296.683,206.699 296.016,206.366 295,207.5C 294.312,206.668 294.479,206.002 295.5,205.5C 298.511,202.993 301.844,200.993 305.5,199.5C 305.333,199.167 305.167,198.833 305,198.5C 300.017,199.15 296.017,201.483 293,205.5C 292.309,203.109 291.309,203.109 290,205.5C 289.644,201.885 291.144,199.218 294.5,197.5C 291.909,197.367 289.242,197.2 286.5,197C 289.372,193.651 293.039,192.151 297.5,192.5 Z"/></g>
<g><path style="opacity:1" fill="#4f6e54" d="M 325.5,202.5 C 327.832,205.109 330.165,207.775 332.5,210.5C 332.631,211.376 332.298,212.043 331.5,212.5C 330.281,211.737 329.281,210.737 328.5,209.5C 327.893,209.624 327.56,209.957 327.5,210.5C 325.014,209.538 325.014,208.705 327.5,208C 325.845,206.556 325.178,204.722 325.5,202.5 Z"/></g>
<g><path style="opacity:1" fill="#cd9e2a" d="M 288.5,219.5 C 287.5,220.167 286.5,220.833 285.5,221.5C 282.923,219.012 281.423,216.012 281,212.5C 284.316,214.055 286.816,216.388 288.5,219.5 Z"/></g>
<g><path style="opacity:1" fill="#cd9e2b" d="M 354.5,221.5 C 353.833,221.5 353.167,221.5 352.5,221.5C 352.167,220.5 351.5,219.833 350.5,219.5C 349.833,219.5 349.5,219.167 349.5,218.5C 352.169,216.402 355.003,214.402 358,212.5C 358.151,215.672 356.651,217.839 353.5,219C 354.252,219.671 354.586,220.504 354.5,221.5 Z"/></g>
<g><path style="opacity:1" fill="#304392" d="M 293.5,220.5 C 291.585,220.784 289.919,220.451 288.5,219.5C 290.586,217.977 292.252,218.31 293.5,220.5 Z"/></g>
<g><path style="opacity:1" fill="#31428f" d="M 349.5,218.5 C 349.5,219.167 349.833,219.5 350.5,219.5C 349.081,220.451 347.415,220.784 345.5,220.5C 346.287,218.896 347.62,218.229 349.5,218.5 Z"/></g>
<g><path style="opacity:1" fill="#c11f29" d="M 288.5,219.5 C 289.919,220.451 291.585,220.784 293.5,220.5C 293.443,221.609 293.11,222.609 292.5,223.5C 291.508,223.328 290.842,223.662 290.5,224.5C 287.046,223.268 285.046,224.601 284.5,228.5C 283.833,228.167 283.167,227.833 282.5,227.5C 283.075,225.589 284.075,223.922 285.5,222.5C 285.5,222.167 285.5,221.833 285.5,221.5C 286.5,220.833 287.5,220.167 288.5,219.5 Z"/></g>
<g><path style="opacity:1" fill="#c41f2a" d="M 350.5,219.5 C 351.5,219.833 352.167,220.5 352.5,221.5C 354.252,223.246 355.585,225.246 356.5,227.5C 355.833,227.833 355.167,228.167 354.5,228.5C 353.653,224.931 351.653,223.598 348.5,224.5C 348.158,223.662 347.492,223.328 346.5,223.5C 345.89,222.609 345.557,221.609 345.5,220.5C 347.415,220.784 349.081,220.451 350.5,219.5 Z"/></g>
<g><path style="opacity:1" fill="#1c3181" d="M 290.5,224.5 C 295.207,229.205 299.54,234.205 303.5,239.5C 302.12,239.962 301.453,240.962 301.5,242.5C 302.046,244.135 302.38,245.801 302.5,247.5C 296.19,243.185 290.19,238.518 284.5,233.5C 284.5,231.833 284.5,230.167 284.5,228.5C 285.046,224.601 287.046,223.268 290.5,224.5 Z"/></g>
<g><path style="opacity:1" fill="#1c3182" d="M 354.5,228.5 C 354.5,230.167 354.5,231.833 354.5,233.5C 348.81,238.518 342.81,243.185 336.5,247.5C 336.433,245.599 336.767,243.766 337.5,242C 337.361,240.699 336.695,239.866 335.5,239.5C 339.46,234.205 343.793,229.205 348.5,224.5C 351.653,223.598 353.653,224.931 354.5,228.5 Z"/></g>
<g><path style="opacity:1" fill="#d1a02c" d="M 276.5,226.5 C 276.167,227.167 275.833,227.833 275.5,228.5C 274.833,228.833 274.167,229.167 273.5,229.5C 271.299,226.979 268.966,224.479 266.5,222C 269.689,222.158 272.189,223.658 274,226.5C 274.977,225.226 275.811,225.226 276.5,226.5 Z"/></g>
<g><path style="opacity:1" fill="#ca9e35" d="M 365.5,229.5 C 364.833,229.167 364.167,228.833 363.5,228.5C 362.89,227.609 362.557,226.609 362.5,225.5C 373.113,219.39 374.113,220.723 365.5,229.5 Z"/></g>
<g><path style="opacity:1" fill="#afada8" d="M 330.5,228.5 C 329.772,230.512 328.938,232.512 328,234.5C 327.95,232.256 327.117,230.589 325.5,229.5C 326.469,228.691 327.302,227.691 328,226.5C 328.413,223.768 329.08,221.101 330,218.5C 330.262,222.07 330.429,225.403 330.5,228.5 Z"/></g>
<g><path style="opacity:1" fill="#564a8d" d="M 285.5,222.5 C 284.075,223.922 283.075,225.589 282.5,227.5C 281.833,228.167 281.167,228.833 280.5,229.5C 279.081,228.549 277.415,228.216 275.5,228.5C 275.833,227.833 276.167,227.167 276.5,226.5C 279.701,225.635 282.701,224.302 285.5,222.5 Z"/></g>
<g><path style="opacity:1" fill="#d8d6da" d="M 282.5,227.5 C 283.167,227.833 283.833,228.167 284.5,228.5C 284.5,230.167 284.5,231.833 284.5,233.5C 283.128,232.488 281.795,231.488 280.5,230.5C 280.5,230.167 280.5,229.833 280.5,229.5C 281.167,228.833 281.833,228.167 282.5,227.5 Z"/></g>
<g><path style="opacity:1" fill="#ddd9d6" d="M 356.5,227.5 C 356.833,227.5 357.167,227.5 357.5,227.5C 357.833,228.833 358.167,230.167 358.5,231.5C 357.167,232.167 355.833,232.833 354.5,233.5C 354.5,231.833 354.5,230.167 354.5,228.5C 355.167,228.167 355.833,227.833 356.5,227.5 Z"/></g>
<g><path style="opacity:1" fill="#544c87" d="M 352.5,221.5 C 353.167,221.5 353.833,221.5 354.5,221.5C 356.413,224.826 359.079,226.159 362.5,225.5C 362.557,226.609 362.89,227.609 363.5,228.5C 361.379,228.675 359.379,228.341 357.5,227.5C 357.167,227.5 356.833,227.5 356.5,227.5C 355.585,225.246 354.252,223.246 352.5,221.5 Z"/></g>
<g><path style="opacity:1" fill="#9f8d62" d="M 316.5,221.5 C 316.828,226.875 316.495,232.208 315.5,237.5C 314.702,237.043 314.369,236.376 314.5,235.5C 315.167,230.833 315.833,226.167 316.5,221.5 Z"/></g>
<g><path style="opacity:1" fill="#c51c27" d="M 357.5,227.5 C 359.379,228.341 361.379,228.675 363.5,228.5C 364.167,228.833 364.833,229.167 365.5,229.5C 365.5,229.833 365.5,230.167 365.5,230.5C 366.5,232.5 367.5,234.5 368.5,236.5C 367.504,236.414 366.671,236.748 366,237.5C 365.768,236.263 365.268,235.263 364.5,234.5C 363.952,231.916 362.285,230.916 359.5,231.5C 359.167,231.5 358.833,231.5 358.5,231.5C 358.167,230.167 357.833,228.833 357.5,227.5 Z"/></g>
<g><path style="opacity:1" fill="#c0bbb1" d="M 340.5,230.5 C 339.207,232.296 337.707,233.963 336,235.5C 335.667,234.167 335.333,232.833 335,231.5C 332.319,236.199 329.653,240.865 327,245.5C 327.897,241.474 329.231,237.474 331,233.5C 331.78,231.613 331.613,229.946 330.5,228.5C 332.555,225.398 334.388,222.065 336,218.5C 335.968,221.841 335.468,225.174 334.5,228.5C 334.833,229.167 335.167,229.833 335.5,230.5C 337.748,227.672 339.748,224.672 341.5,221.5C 341.833,221.667 342.167,221.833 342.5,222C 340.396,224.744 339.729,227.577 340.5,230.5 Z"/></g>
<g><path style="opacity:1" fill="#bf1c2c" d="M 275.5,228.5 C 277.415,228.216 279.081,228.549 280.5,229.5C 280.5,229.833 280.5,230.167 280.5,230.5C 279.833,230.5 279.5,230.833 279.5,231.5C 277.833,231.5 276.167,231.5 274.5,231.5C 274.5,232.5 274.5,233.5 274.5,234.5C 273.842,235.398 273.176,236.398 272.5,237.5C 271.817,237.137 271.15,236.804 270.5,236.5C 271.5,234.5 272.5,232.5 273.5,230.5C 273.5,230.167 273.5,229.833 273.5,229.5C 274.167,229.167 274.833,228.833 275.5,228.5 Z"/></g>
<g><path style="opacity:1" fill="#173285" d="M 279.5,231.5 C 285.833,236.833 292.167,242.167 298.5,247.5C 296.692,248.918 296.025,250.918 296.5,253.5C 295.833,253.833 295.167,254.167 294.5,254.5C 290.957,252.562 287.29,250.895 283.5,249.5C 280.5,247.5 277.5,245.5 274.5,243.5C 274.5,240.5 274.5,237.5 274.5,234.5C 274.5,233.5 274.5,232.5 274.5,231.5C 276.167,231.5 277.833,231.5 279.5,231.5 Z"/></g>
<g><path style="opacity:1" fill="#bdb8ad" d="M 313.5,229.5 C 312.503,229.47 311.836,229.97 311.5,231C 312.897,234.408 313.397,237.908 313,241.5C 311.321,237.122 309.654,232.789 308,228.5C 307.833,229.333 307.667,230.167 307.5,231C 309.163,235.455 310.329,239.955 311,244.5C 308.672,240.202 306.339,235.869 304,231.5C 303.877,236.436 302.71,236.769 300.5,232.5C 298.93,229.3 298.096,225.967 298,222.5C 299.599,225.378 301.433,228.044 303.5,230.5C 303.833,229.833 304.167,229.167 304.5,228.5C 303.341,225.215 302.841,221.882 303,218.5C 304.411,221.579 305.911,224.579 307.5,227.5C 308.318,224.893 308.818,222.226 309,219.5C 309.612,223.366 311.112,226.699 313.5,229.5 Z"/></g>
<g><path style="opacity:1" fill="#143185" d="M 359.5,231.5 C 362.285,230.916 363.952,231.916 364.5,234.5C 364.54,237.881 364.207,241.214 363.5,244.5C 356.658,248.422 349.658,252.088 342.5,255.5C 342.663,253.143 342.497,250.81 342,248.5C 341.617,247.944 341.117,247.611 340.5,247.5C 346.833,242.167 353.167,236.833 359.5,231.5 Z"/></g>
<g><path style="opacity:1" fill="#694d85" d="M 365.5,230.5 C 368.569,231.804 369.569,233.804 368.5,236.5C 367.5,234.5 366.5,232.5 365.5,230.5 Z"/></g>
<g><path style="opacity:1" fill="#724e81" d="M 273.5,230.5 C 272.5,232.5 271.5,234.5 270.5,236.5C 269.431,233.804 270.431,231.804 273.5,230.5 Z"/></g>
<g><path style="opacity:1" fill="#cb9d2f" d="M 268.5,238.5 C 268.5,238.833 268.5,239.167 268.5,239.5C 267.272,240.306 266.272,241.306 265.5,242.5C 255.989,236.265 256.989,234.932 268.5,238.5 Z"/></g>
<g><path style="opacity:1" fill="#c99d35" d="M 373.5,242.5 C 372.833,241.833 372.167,241.167 371.5,240.5C 371.167,239.833 370.833,239.167 370.5,238.5C 382.011,234.932 383.011,236.265 373.5,242.5 Z"/></g>
<g><path style="opacity:1" fill="#d11034" d="M -0.5,239.5 C 80.8333,239.5 162.167,239.5 243.5,239.5C 243.5,253.833 243.5,268.167 243.5,282.5C 243.5,288.167 243.5,293.833 243.5,299.5C 294.167,299.5 344.833,299.5 395.5,299.5C 395.5,294.167 395.5,288.833 395.5,283.5C 395.5,268.833 395.5,254.167 395.5,239.5C 476.833,239.5 558.167,239.5 639.5,239.5C 639.5,319.5 639.5,399.5 639.5,479.5C 426.167,479.5 212.833,479.5 -0.5,479.5C -0.5,399.5 -0.5,319.5 -0.5,239.5 Z"/></g>
<g><path style="opacity:1" fill="#283e8f" d="M 268.5,238.5 C 270.099,238.232 271.432,238.566 272.5,239.5C 271.039,240.686 269.705,240.686 268.5,239.5C 268.5,239.167 268.5,238.833 268.5,238.5 Z"/></g>
<g><path style="opacity:1" fill="#c11612" d="M 303.5,239.5 C 308.164,243.331 312.33,247.664 316,252.5C 316.78,254.387 316.613,256.054 315.5,257.5C 314.508,257.672 313.842,257.338 313.5,256.5C 310.017,253.261 306.35,250.261 302.5,247.5C 302.38,245.801 302.046,244.135 301.5,242.5C 301.453,240.962 302.12,239.962 303.5,239.5 Z"/></g>
<g><path style="opacity:1" fill="#c31212" d="M 335.5,239.5 C 336.695,239.866 337.361,240.699 337.5,242C 336.767,243.766 336.433,245.599 336.5,247.5C 332.61,250.271 328.943,253.271 325.5,256.5C 324.504,256.414 323.671,256.748 323,257.5C 322.333,255.833 322.333,254.167 323,252.5C 326.67,247.664 330.836,243.331 335.5,239.5 Z"/></g>
<g><path style="opacity:1" fill="#ddb8cc" d="M 394.5,179.5 C 395.497,199.326 395.83,219.326 395.5,239.5C 395.5,254.167 395.5,268.833 395.5,283.5C 394.833,283.5 394.5,283.167 394.5,282.5C 394.819,277.637 394.486,272.97 393.5,268.5C 393.5,268.167 393.5,267.833 393.5,267.5C 394.498,238.338 394.831,209.005 394.5,179.5 Z"/></g>
<g><path style="opacity:1" fill="#c79722" d="M 321.5,217.5 C 322.175,224.476 322.675,231.476 323,238.5C 323.901,235.48 324.734,232.48 325.5,229.5C 327.117,230.589 327.95,232.256 328,234.5C 328.938,232.512 329.772,230.512 330.5,228.5C 331.613,229.946 331.78,231.613 331,233.5C 329.231,237.474 327.897,241.474 327,245.5C 329.653,240.865 332.319,236.199 335,231.5C 335.333,232.833 335.667,234.167 336,235.5C 337.707,233.963 339.207,232.296 340.5,230.5C 343.2,228.766 345.2,226.432 346.5,223.5C 347.492,223.328 348.158,223.662 348.5,224.5C 343.793,229.205 339.46,234.205 335.5,239.5C 330.836,243.331 326.67,247.664 323,252.5C 322.333,254.167 322.333,255.833 323,257.5C 323.671,256.748 324.504,256.414 325.5,256.5C 324.89,257.391 324.557,258.391 324.5,259.5C 322.273,260.401 321.273,262.067 321.5,264.5C 320.849,265.091 320.182,265.757 319.5,266.5C 318.818,265.757 318.151,265.091 317.5,264.5C 317.727,262.067 316.727,260.401 314.5,259.5C 314.833,258.833 315.167,258.167 315.5,257.5C 316.613,256.054 316.78,254.387 316,252.5C 312.33,247.664 308.164,243.331 303.5,239.5C 299.54,234.205 295.207,229.205 290.5,224.5C 290.842,223.662 291.508,223.328 292.5,223.5C 294.453,227.12 297.119,230.12 300.5,232.5C 302.71,236.769 303.877,236.436 304,231.5C 306.339,235.869 308.672,240.202 311,244.5C 310.329,239.955 309.163,235.455 307.5,231C 307.667,230.167 307.833,229.333 308,228.5C 309.654,232.789 311.321,237.122 313,241.5C 313.397,237.908 312.897,234.408 311.5,231C 311.836,229.97 312.503,229.47 313.5,229.5C 314.15,231.435 314.483,233.435 314.5,235.5C 314.369,236.376 314.702,237.043 315.5,237.5C 316.495,232.208 316.828,226.875 316.5,221.5C 316.5,220.833 316.5,220.167 316.5,219.5C 316.532,217.433 317.532,216.1 319.5,215.5C 320.713,215.747 321.38,216.414 321.5,217.5 Z"/></g>
<g><path style="opacity:1" fill="#74395f" d="M 366.5,239.5 C 367.568,238.566 368.901,238.232 370.5,238.5C 370.833,239.167 371.167,239.833 371.5,240.5C 371.265,241.097 370.765,241.43 370,241.5C 368.697,241.022 367.531,240.355 366.5,239.5 Z"/></g>
<g><path style="opacity:1" fill="#c01c29" d="M 268.5,239.5 C 269.705,240.686 271.039,240.686 272.5,239.5C 272.5,240.5 272.5,241.5 272.5,242.5C 271.833,242.5 271.5,242.833 271.5,243.5C 270.167,243.5 268.833,243.5 267.5,243.5C 267.5,244.833 267.5,246.167 267.5,247.5C 266.596,248.209 266.263,249.209 266.5,250.5C 265.209,250.737 264.209,250.404 263.5,249.5C 264.167,247.5 264.833,245.5 265.5,243.5C 265.5,243.167 265.5,242.833 265.5,242.5C 266.272,241.306 267.272,240.306 268.5,239.5 Z"/></g>
<g><path style="opacity:1" fill="#193286" d="M 271.5,243.5 C 274.466,245.988 277.799,247.988 281.5,249.5C 281.433,250.959 281.766,252.292 282.5,253.5C 283.476,254.815 284.476,256.148 285.5,257.5C 283.709,258.17 282.042,258.837 280.5,259.5C 276.267,259.461 272.267,258.795 268.5,257.5C 268.54,254.119 268.207,250.786 267.5,247.5C 267.5,246.167 267.5,244.833 267.5,243.5C 268.833,243.5 270.167,243.5 271.5,243.5 Z"/></g>
<g><path style="opacity:1" fill="#1b3385" d="M 367.5,243.5 C 368.833,243.5 370.167,243.5 371.5,243.5C 371.5,245.167 371.5,246.833 371.5,248.5C 370.701,251.43 370.368,254.43 370.5,257.5C 366.409,258.895 362.076,259.562 357.5,259.5C 356.048,258.698 354.382,258.198 352.5,258C 353.733,256.333 355.067,254.833 356.5,253.5C 356.833,252.167 357.167,250.833 357.5,249.5C 361.201,247.988 364.534,245.988 367.5,243.5 Z"/></g>
<g><path style="opacity:1" fill="#c8242c" d="M 366.5,239.5 C 367.531,240.355 368.697,241.022 370,241.5C 370.765,241.43 371.265,241.097 371.5,240.5C 372.167,241.167 372.833,241.833 373.5,242.5C 373.5,243.167 373.5,243.833 373.5,244.5C 374.167,246.167 374.833,247.833 375.5,249.5C 375.265,250.097 374.765,250.43 374,250.5C 372.989,249.944 372.156,249.278 371.5,248.5C 371.5,246.833 371.5,245.167 371.5,243.5C 370.167,243.5 368.833,243.5 367.5,243.5C 367.5,242.833 367.167,242.5 366.5,242.5C 365.884,241.202 365.884,240.202 366.5,239.5 Z"/></g>
<g><path style="opacity:1" fill="#434088" d="M 265.5,243.5 C 264.833,245.5 264.167,247.5 263.5,249.5C 262.352,247.085 263.018,245.085 265.5,243.5 Z"/></g>
<g><path style="opacity:1" fill="#a47f22" d="M 272.5,242.5 C 272.842,243.338 273.508,243.672 274.5,243.5C 277.5,245.5 280.5,247.5 283.5,249.5C 282.833,249.5 282.167,249.5 281.5,249.5C 277.799,247.988 274.466,245.988 271.5,243.5C 271.5,242.833 271.833,242.5 272.5,242.5 Z"/></g>
<g><path style="opacity:1" fill="#463b82" d="M 373.5,244.5 C 376.192,245.591 376.858,247.257 375.5,249.5C 374.833,247.833 374.167,246.167 373.5,244.5 Z"/></g>
<g><path style="opacity:1" fill="#bb2b17" d="M 298.5,247.5 C 302.979,250.243 307.312,253.243 311.5,256.5C 310.687,257.653 309.687,257.653 308.5,256.5C 307.417,257.365 307.251,258.365 308,259.5C 310.027,259.986 312.193,259.986 314.5,259.5C 316.727,260.401 317.727,262.067 317.5,264.5C 316.833,264.5 316.167,264.5 315.5,264.5C 314.609,265.11 313.609,265.443 312.5,265.5C 309.039,262.931 305.372,260.597 301.5,258.5C 301.909,254.262 300.242,252.595 296.5,253.5C 296.025,250.918 296.692,248.918 298.5,247.5 Z"/></g>
<g><path style="opacity:1" fill="#c41d15" d="M 340.5,247.5 C 341.117,247.611 341.617,247.944 342,248.5C 342.497,250.81 342.663,253.143 342.5,255.5C 337.261,258.458 331.928,261.458 326.5,264.5C 325.056,263.019 324.389,263.352 324.5,265.5C 323.609,264.89 322.609,264.557 321.5,264.5C 321.273,262.067 322.273,260.401 324.5,259.5C 330.272,261.929 332.272,260.263 330.5,254.5C 333.475,251.677 336.808,249.344 340.5,247.5 Z"/></g>
<g><path style="opacity:1" fill="#c7951a" d="M 358.5,231.5 C 358.833,231.5 359.167,231.5 359.5,231.5C 353.167,236.833 346.833,242.167 340.5,247.5C 336.808,249.344 333.475,251.677 330.5,254.5C 329.18,255.942 327.514,256.608 325.5,256.5C 328.943,253.271 332.61,250.271 336.5,247.5C 342.81,243.185 348.81,238.518 354.5,233.5C 355.833,232.833 357.167,232.167 358.5,231.5 Z"/></g>
<g><path style="opacity:1" fill="#dededd" d="M 281.5,249.5 C 282.167,249.5 282.833,249.5 283.5,249.5C 283.833,250.167 284.167,250.833 284.5,251.5C 284.5,252.833 283.833,253.5 282.5,253.5C 281.766,252.292 281.433,250.959 281.5,249.5 Z"/></g>
<g><path style="opacity:1" fill="#c4921b" d="M 280.5,230.5 C 281.795,231.488 283.128,232.488 284.5,233.5C 290.19,238.518 296.19,243.185 302.5,247.5C 306.35,250.261 310.017,253.261 313.5,256.5C 312.833,256.5 312.167,256.5 311.5,256.5C 307.312,253.243 302.979,250.243 298.5,247.5C 292.167,242.167 285.833,236.833 279.5,231.5C 279.5,230.833 279.833,230.5 280.5,230.5 Z"/></g>
<g><path style="opacity:1" fill="#e9e9e8" d="M 357.5,249.5 C 357.167,250.833 356.833,252.167 356.5,253.5C 355.167,253.5 354.5,252.833 354.5,251.5C 354.973,250.094 355.973,249.427 357.5,249.5 Z"/></g>
<g><path style="opacity:1" fill="#1a307e" d="M 285.5,252.5 C 288.5,253.833 291.5,255.167 294.5,256.5C 294.5,257.167 294.5,257.833 294.5,258.5C 294.03,259.693 293.03,260.36 291.5,260.5C 290.274,260.48 289.274,260.147 288.5,259.5C 287.011,257.355 286.011,255.022 285.5,252.5 Z"/></g>
<g><path style="opacity:1" fill="#b28920" d="M 283.5,249.5 C 287.29,250.895 290.957,252.562 294.5,254.5C 294.5,255.167 294.5,255.833 294.5,256.5C 291.5,255.167 288.5,253.833 285.5,252.5C 285.5,251.833 285.167,251.5 284.5,251.5C 284.167,250.833 283.833,250.167 283.5,249.5 Z"/></g>
<g><path style="opacity:1" fill="#123081" d="M 353.5,252.5 C 352.713,255.408 351.38,258.074 349.5,260.5C 349.167,260.5 348.833,260.5 348.5,260.5C 346.801,260.473 345.467,259.806 344.5,258.5C 346.562,255.288 349.562,253.288 353.5,252.5 Z"/></g>
<g><path style="opacity:1" fill="#3b332d" d="M 284.5,251.5 C 285.167,251.5 285.5,251.833 285.5,252.5C 286.011,255.022 287.011,257.355 288.5,259.5C 285.833,259.5 283.167,259.5 280.5,259.5C 282.042,258.837 283.709,258.17 285.5,257.5C 284.476,256.148 283.476,254.815 282.5,253.5C 283.833,253.5 284.5,252.833 284.5,251.5 Z"/></g>
<g><path style="opacity:1" fill="#759e64" d="M 301.5,258.5 C 300.358,260.972 298.358,261.972 295.5,261.5C 295.737,260.209 295.404,259.209 294.5,258.5C 294.5,257.833 294.5,257.167 294.5,256.5C 294.5,255.833 294.5,255.167 294.5,254.5C 295.167,254.167 295.833,253.833 296.5,253.5C 300.242,252.595 301.909,254.262 301.5,258.5 Z"/></g>
<g><path style="opacity:1" fill="#ccc8c2" d="M 311.5,256.5 C 312.167,256.5 312.833,256.5 313.5,256.5C 313.842,257.338 314.508,257.672 315.5,257.5C 315.167,258.167 314.833,258.833 314.5,259.5C 312.193,259.986 310.027,259.986 308,259.5C 307.251,258.365 307.417,257.365 308.5,256.5C 309.687,257.653 310.687,257.653 311.5,256.5 Z"/></g>
<g><path style="opacity:1" fill="#b69d99" d="M 330.5,254.5 C 332.272,260.263 330.272,261.929 324.5,259.5C 324.557,258.391 324.89,257.391 325.5,256.5C 327.514,256.608 329.18,255.942 330.5,254.5 Z"/></g>
<g><path style="opacity:1" fill="#473b27" d="M 354.5,251.5 C 354.5,252.833 355.167,253.5 356.5,253.5C 355.067,254.833 353.733,256.333 352.5,258C 354.382,258.198 356.048,258.698 357.5,259.5C 354.763,259.401 352.096,259.735 349.5,260.5C 351.38,258.074 352.713,255.408 353.5,252.5C 353.5,251.833 353.833,251.5 354.5,251.5 Z"/></g>
<g><path style="opacity:1" fill="#c19018" d="M 366.5,242.5 C 367.167,242.5 367.5,242.833 367.5,243.5C 364.534,245.988 361.201,247.988 357.5,249.5C 355.973,249.427 354.973,250.094 354.5,251.5C 353.833,251.5 353.5,251.833 353.5,252.5C 349.562,253.288 346.562,255.288 344.5,258.5C 343.652,260.093 342.319,261.26 340.5,262C 342.161,265.15 341.161,266.65 337.5,266.5C 337.247,264.173 337.914,262.173 339.5,260.5C 339.062,259.494 338.396,259.494 337.5,260.5C 336.52,263.086 336.187,265.753 336.5,268.5C 335.596,267.791 335.263,266.791 335.5,265.5C 333.738,265.643 332.071,265.309 330.5,264.5C 329.261,264.942 328.261,265.609 327.5,266.5C 327.167,266.5 326.833,266.5 326.5,266.5C 325.833,266.167 325.167,265.833 324.5,265.5C 324.389,263.352 325.056,263.019 326.5,264.5C 331.928,261.458 337.261,258.458 342.5,255.5C 349.658,252.088 356.658,248.422 363.5,244.5C 364.71,244.068 365.71,243.401 366.5,242.5 Z"/></g>
<g><path style="opacity:1" fill="#d93338" d="M 387.5,262.5 C 389.466,263.255 389.8,264.421 388.5,266C 390.247,266.352 391.914,266.852 393.5,267.5C 393.5,267.833 393.5,268.167 393.5,268.5C 391.473,268.662 389.473,268.495 387.5,268C 386.922,266.583 385.922,265.75 384.5,265.5C 385.167,264.167 386.167,263.167 387.5,262.5 Z"/></g>
<g><path style="opacity:1" fill="#f2e9ed" d="M 244.5,179.5 C 244.5,208.833 244.5,238.167 244.5,267.5C 246.628,268.629 248.961,268.796 251.5,268C 252.078,266.583 253.078,265.75 254.5,265.5C 256.749,266.08 258.415,267.413 259.5,269.5C 261.5,271.167 263.5,272.833 265.5,274.5C 260.995,277.038 256.328,279.038 251.5,280.5C 250.833,280.5 250.167,280.5 249.5,280.5C 247.297,280.604 245.297,281.27 243.5,282.5C 243.5,268.167 243.5,253.833 243.5,239.5C 243.17,219.326 243.503,199.326 244.5,179.5 Z"/></g>
<g><path style="opacity:1" fill="#cd0213" d="M 311.5,266.5 C 312.036,269.698 311.369,272.365 309.5,274.5C 309.167,274.5 308.833,274.5 308.5,274.5C 307.833,271.5 307.167,268.5 306.5,265.5C 308.164,264.777 309.831,265.11 311.5,266.5 Z"/></g>
<g><path style="opacity:1" fill="#c21112" d="M 336.5,268.5 C 337.391,267.89 338.391,267.557 339.5,267.5C 339.25,269.674 338.25,271.341 336.5,272.5C 335.325,271.026 334.325,269.36 333.5,267.5C 332.575,268.357 331.908,269.357 331.5,270.5C 330.833,271.833 330.167,273.167 329.5,274.5C 327.631,272.365 326.964,269.698 327.5,266.5C 328.261,265.609 329.261,264.942 330.5,264.5C 332.071,265.309 333.738,265.643 335.5,265.5C 335.263,266.791 335.596,267.791 336.5,268.5 Z"/></g>
<g><path style="opacity:1" fill="#f8f8f7" d="M 384.5,265.5 C 385.922,265.75 386.922,266.583 387.5,268C 389.473,268.495 391.473,268.662 393.5,268.5C 394.486,272.97 394.819,277.637 394.5,282.5C 392.57,282.229 391.236,281.229 390.5,279.5C 389.521,277.855 388.188,276.521 386.5,275.5C 385.708,276.7 385.708,278.033 386.5,279.5C 384.801,279.66 383.134,279.494 381.5,279C 378.968,277.235 376.301,275.735 373.5,274.5C 375.5,272.833 377.5,271.167 379.5,269.5C 380.585,267.413 382.251,266.08 384.5,265.5 Z"/></g>
<g><path style="opacity:1" fill="#dc4146" d="M 251.5,262.5 C 252.833,263.167 253.833,264.167 254.5,265.5C 253.078,265.75 252.078,266.583 251.5,268C 248.961,268.796 246.628,268.629 244.5,267.5C 246.117,266.962 247.784,266.629 249.5,266.5C 249.229,264.62 249.896,263.287 251.5,262.5 Z"/></g>
<g><path style="opacity:1" fill="#5e482f" d="M 251.5,262.5 C 251.897,261.475 252.563,261.308 253.5,262C 256.355,264.031 259.022,266.197 261.5,268.5C 260.833,268.833 260.167,269.167 259.5,269.5C 258.415,267.413 256.749,266.08 254.5,265.5C 253.833,264.167 252.833,263.167 251.5,262.5 Z"/></g>
<g><path style="opacity:1" fill="#a6a2b7" d="M 315.5,264.5 C 316.167,264.5 316.833,264.5 317.5,264.5C 318.151,265.091 318.818,265.757 319.5,266.5C 320.182,265.757 320.849,265.091 321.5,264.5C 322.609,264.557 323.609,264.89 324.5,265.5C 325.167,265.833 325.833,266.167 326.5,266.5C 326.137,268.777 325.137,269.444 323.5,268.5C 322.702,268.957 322.369,269.624 322.5,270.5C 321.5,270.5 320.5,270.5 319.5,270.5C 319.5,269.167 318.833,268.5 317.5,268.5C 316.167,268.5 314.833,268.5 313.5,268.5C 314.167,267.167 314.833,265.833 315.5,264.5 Z"/></g>
<g><path style="opacity:1" fill="#7b560f" d="M 344.5,258.5 C 345.467,259.806 346.801,260.473 348.5,260.5C 346.735,261.461 344.735,261.795 342.5,261.5C 342.215,263.288 342.548,264.955 343.5,266.5C 344.192,265.975 344.692,265.308 345,264.5C 345.167,265 345.333,265.5 345.5,266C 344.227,268.216 344.227,270.383 345.5,272.5C 342.593,273.734 340.259,275.734 338.5,278.5C 337.304,278.154 337.304,277.654 338.5,277C 337.906,276.536 337.239,276.369 336.5,276.5C 339.717,274.817 342.05,272.151 343.5,268.5C 342.311,267.571 340.978,267.238 339.5,267.5C 338.391,267.557 337.391,267.89 336.5,268.5C 336.187,265.753 336.52,263.086 337.5,260.5C 338.396,259.494 339.062,259.494 339.5,260.5C 337.914,262.173 337.247,264.173 337.5,266.5C 341.161,266.65 342.161,265.15 340.5,262C 342.319,261.26 343.652,260.093 344.5,258.5 Z"/></g>
<g><path style="opacity:1" fill="#5c442f" d="M 387.5,262.5 C 386.167,263.167 385.167,264.167 384.5,265.5C 382.251,266.08 380.585,267.413 379.5,269.5C 378.662,269.158 378.328,268.492 378.5,267.5C 380.803,265.675 383.136,263.842 385.5,262C 386.437,261.308 387.103,261.475 387.5,262.5 Z"/></g>
<g><path style="opacity:1" fill="#5e5c83" d="M 313.5,268.5 C 314.833,268.5 316.167,268.5 317.5,268.5C 317.5,269.167 317.5,269.833 317.5,270.5C 316.167,270.5 314.833,270.5 313.5,270.5C 313.5,270.167 313.5,269.833 313.5,269.5C 313.5,269.167 313.5,268.833 313.5,268.5 Z"/></g>
<g><path style="opacity:1" fill="#a3853e" d="M 261.5,268.5 C 263.5,270.167 265.5,271.833 267.5,273.5C 267.591,275.698 266.925,276.031 265.5,274.5C 263.5,272.833 261.5,271.167 259.5,269.5C 260.167,269.167 260.833,268.833 261.5,268.5 Z"/></g>
<g><path style="opacity:1" fill="#8a7f6a" d="M 266.5,258.5 C 266.5,260.167 266.5,261.833 266.5,263.5C 269.32,263.248 271.986,263.748 274.5,265C 273.577,267.041 273.244,269.208 273.5,271.5C 272.784,269.444 272.117,267.277 271.5,265C 269.527,264.505 267.527,264.338 265.5,264.5C 265.205,262.265 265.539,260.265 266.5,258.5 Z"/></g>
<g><path style="opacity:1" fill="#c00e12" d="M 303.5,267.5 C 304.494,268.999 304.494,270.666 303.5,272.5C 301.299,272.142 299.965,270.808 299.5,268.5C 300.905,268.24 302.238,267.907 303.5,267.5 Z"/></g>
<g><path style="opacity:1" fill="#874316" d="M 326.5,266.5 C 326.833,266.5 327.167,266.5 327.5,266.5C 326.964,269.698 327.631,272.365 329.5,274.5C 328.194,275.467 327.527,276.801 327.5,278.5C 327.167,279.5 326.5,280.167 325.5,280.5C 325.158,279.662 324.492,279.328 323.5,279.5C 324.167,278.833 324.833,278.167 325.5,277.5C 326.598,276.399 326.765,275.066 326,273.5C 325.578,271.574 324.411,270.574 322.5,270.5C 322.369,269.624 322.702,268.957 323.5,268.5C 325.137,269.444 326.137,268.777 326.5,266.5 Z"/></g>
<g><path style="opacity:1" fill="#928b80" d="M 372.5,260.5 C 373.434,261.568 373.768,262.901 373.5,264.5C 371.473,264.338 369.473,264.505 367.5,265C 366.883,267.277 366.216,269.444 365.5,271.5C 365.756,269.208 365.423,267.041 364.5,265C 365.416,264.722 366.082,264.222 366.5,263.5C 367.833,263.5 369.167,263.5 370.5,263.5C 372.048,263.179 372.715,262.179 372.5,260.5 Z"/></g>
<g><path style="opacity:1" fill="#a98c48" d="M 378.5,267.5 C 378.328,268.492 378.662,269.158 379.5,269.5C 377.5,271.167 375.5,272.833 373.5,274.5C 372.508,274.672 371.842,274.338 371.5,273.5C 373.678,271.255 376.012,269.255 378.5,267.5 Z"/></g>
<g><path style="opacity:1" fill="#9d480f" d="M 306.5,265.5 C 307.167,268.5 307.833,271.5 308.5,274.5C 306.716,274.107 305.05,273.441 303.5,272.5C 304.494,270.666 304.494,268.999 303.5,267.5C 303.821,265.952 304.821,265.285 306.5,265.5 Z"/></g>
<g><path style="opacity:1" fill="#64361f" d="M 315.5,264.5 C 314.833,265.833 314.167,267.167 313.5,268.5C 313.5,268.833 313.5,269.167 313.5,269.5C 312.523,272.287 312.19,275.287 312.5,278.5C 313.791,278.263 314.791,278.596 315.5,279.5C 313.577,282.218 312.244,281.884 311.5,278.5C 311.473,276.801 310.806,275.467 309.5,274.5C 311.369,272.365 312.036,269.698 311.5,266.5C 312.167,266.5 312.5,266.167 312.5,265.5C 313.609,265.443 314.609,265.11 315.5,264.5 Z"/></g>
<g><path style="opacity:1" fill="#a04a0f" d="M 336.5,272.5 C 335.081,273.451 333.415,273.784 331.5,273.5C 331.5,272.5 331.5,271.5 331.5,270.5C 331.908,269.357 332.575,268.357 333.5,267.5C 334.325,269.36 335.325,271.026 336.5,272.5 Z"/></g>
<g><path style="opacity:1" fill="#17681a" d="M 273.5,272.5 C 278.46,280.227 284.46,281.227 291.5,275.5C 292.167,275.5 292.5,275.167 292.5,274.5C 292.973,273.094 293.973,272.427 295.5,272.5C 296.241,274.354 297.241,276.021 298.5,277.5C 300.838,279.011 301.504,278.677 300.5,276.5C 301.833,276.5 303.167,276.5 304.5,276.5C 304.703,278.39 304.037,279.89 302.5,281C 302.728,281.399 303.062,281.565 303.5,281.5C 301.745,282.792 299.745,283.792 297.5,284.5C 303.472,285.664 309.472,285.83 315.5,285C 315.624,284.03 315.624,283.197 315.5,282.5C 318.187,282.664 320.854,282.497 323.5,282C 324.416,281.722 325.082,281.222 325.5,280.5C 326.5,280.167 327.167,279.5 327.5,278.5C 329.262,278.643 330.929,278.309 332.5,277.5C 332.793,279.023 332.793,280.357 332.5,281.5C 331.159,283.12 329.326,284.12 327,284.5C 325.081,283.029 324.081,283.362 324,285.5C 329.956,285.416 336.123,285.416 342.5,285.5C 342.5,284.5 342.5,283.5 342.5,282.5C 344.685,282.704 346.685,283.37 348.5,284.5C 347.833,282.5 347.167,280.5 346.5,278.5C 345.209,278.737 344.209,278.404 343.5,277.5C 344.959,277.567 346.292,277.234 347.5,276.5C 351.065,279.539 355.065,280.205 359.5,278.5C 361.5,277.167 363.167,275.5 364.5,273.5C 364.5,272.833 364.833,272.5 365.5,272.5C 367.379,273.341 369.379,273.675 371.5,273.5C 371.842,274.338 372.508,274.672 373.5,274.5C 376.301,275.735 378.968,277.235 381.5,279C 383.134,279.494 384.801,279.66 386.5,279.5C 388.14,280.79 388.64,282.457 388,284.5C 385.31,283.071 382.477,282.071 379.5,281.5C 382.732,283.368 385.899,285.368 389,287.5C 392.077,285.698 392.243,283.698 389.5,281.5C 389.863,280.817 390.196,280.15 390.5,279.5C 391.236,281.229 392.57,282.229 394.5,282.5C 394.5,283.167 394.833,283.5 395.5,283.5C 395.5,288.833 395.5,294.167 395.5,299.5C 344.833,299.5 294.167,299.5 243.5,299.5C 243.5,293.833 243.5,288.167 243.5,282.5C 245.297,281.27 247.297,280.604 249.5,280.5C 249.731,282.461 249.065,284.461 247.5,286.5C 249.369,287.624 251.369,288.457 253.5,289C 252.304,289.654 252.304,290.154 253.5,290.5C 254.672,290.081 255.672,289.415 256.5,288.5C 254.833,287.833 253.167,287.167 251.5,286.5C 255.172,284.283 259.005,283.616 263,284.5C 263.774,282.597 263.44,280.93 262,279.5C 258.796,282.569 254.963,284.069 250.5,284C 251.833,283.333 252.833,282.333 253.5,281C 252.906,280.536 252.239,280.369 251.5,280.5C 256.328,279.038 260.995,277.038 265.5,274.5C 266.925,276.031 267.591,275.698 267.5,273.5C 269.565,273.483 271.565,273.15 273.5,272.5 Z"/></g>
<g><path style="opacity:1" fill="#c69315" d="M 268.5,257.5 C 272.267,258.795 276.267,259.461 280.5,259.5C 283.167,259.5 285.833,259.5 288.5,259.5C 289.274,260.147 290.274,260.48 291.5,260.5C 293.03,260.36 294.03,259.693 294.5,258.5C 295.404,259.209 295.737,260.209 295.5,261.5C 298.358,261.972 300.358,260.972 301.5,258.5C 305.372,260.597 309.039,262.931 312.5,265.5C 312.5,266.167 312.167,266.5 311.5,266.5C 309.831,265.11 308.164,264.777 306.5,265.5C 304.821,265.285 303.821,265.952 303.5,267.5C 302.238,267.907 300.905,268.24 299.5,268.5C 299.965,270.808 301.299,272.142 303.5,272.5C 305.05,273.441 306.716,274.107 308.5,274.5C 308.833,274.5 309.167,274.5 309.5,274.5C 310.806,275.467 311.473,276.801 311.5,278.5C 309.738,278.643 308.071,278.309 306.5,277.5C 305.261,279.007 305.595,280.174 307.5,281C 306.207,281.49 304.873,281.657 303.5,281.5C 303.062,281.565 302.728,281.399 302.5,281C 304.037,279.89 304.703,278.39 304.5,276.5C 303.167,276.5 301.833,276.5 300.5,276.5C 298.887,273.714 297.054,271.047 295,268.5C 294.421,269.928 294.588,271.262 295.5,272.5C 293.973,272.427 292.973,273.094 292.5,274.5C 292.852,271.21 292.352,267.877 291,264.5C 290.25,265.126 289.416,265.626 288.5,266C 289.624,266.249 290.624,266.749 291.5,267.5C 289.117,268.387 286.784,269.387 284.5,270.5C 281.954,270.148 280.288,268.815 279.5,266.5C 278.292,265.766 276.959,265.433 275.5,265.5C 275.285,267.179 275.952,268.179 277.5,268.5C 277.5,269.167 277.5,269.833 277.5,270.5C 275.344,270.872 275.344,271.872 277.5,273.5C 278.518,272.807 279.518,272.141 280.5,271.5C 281.167,271.5 281.5,271.833 281.5,272.5C 280.5,272.833 279.833,273.5 279.5,274.5C 278.254,276.023 278.754,277.023 281,277.5C 282.03,277.164 282.53,276.497 282.5,275.5C 282.5,274.833 282.5,274.167 282.5,273.5C 283.167,273.5 283.833,273.5 284.5,273.5C 284.5,274.167 284.5,274.833 284.5,275.5C 285.211,277.842 286.544,278.175 288.5,276.5C 289.391,275.89 290.391,275.557 291.5,275.5C 284.46,281.227 278.46,280.227 273.5,272.5C 273.5,272.167 273.5,271.833 273.5,271.5C 273.244,269.208 273.577,267.041 274.5,265C 271.986,263.748 269.32,263.248 266.5,263.5C 266.5,261.833 266.5,260.167 266.5,258.5C 266.842,257.662 267.508,257.328 268.5,257.5 Z"/></g>
<g><path style="opacity:1" fill="#1a317b" d="M 286.5,273.5 C 286.5,274.833 285.833,275.5 284.5,275.5C 284.5,274.833 284.5,274.167 284.5,273.5C 284.786,271.067 285.452,271.067 286.5,273.5 Z"/></g>
<g><path style="opacity:1" fill="#233278" d="M 281.5,272.5 C 282.167,272.5 282.5,272.833 282.5,273.5C 282.5,274.167 282.5,274.833 282.5,275.5C 281.209,275.737 280.209,275.404 279.5,274.5C 279.833,273.5 280.5,272.833 281.5,272.5 Z"/></g>
<g><path style="opacity:1" fill="#223170" d="M 277.5,270.5 C 278.791,270.263 279.791,270.596 280.5,271.5C 279.518,272.141 278.518,272.807 277.5,273.5C 275.344,271.872 275.344,270.872 277.5,270.5 Z"/></g>
<g><path style="opacity:1" fill="#503d06" d="M 300.5,276.5 C 301.504,278.677 300.838,279.011 298.5,277.5C 297.241,276.021 296.241,274.354 295.5,272.5C 294.588,271.262 294.421,269.928 295,268.5C 297.054,271.047 298.887,273.714 300.5,276.5 Z"/></g>
<g><path style="opacity:1" fill="#876d19" d="M 292.5,274.5 C 292.5,275.167 292.167,275.5 291.5,275.5C 290.391,275.557 289.391,275.89 288.5,276.5C 288.068,275.29 287.401,274.29 286.5,273.5C 285.452,271.067 284.786,271.067 284.5,273.5C 283.833,273.5 283.167,273.5 282.5,273.5C 282.5,272.833 282.167,272.5 281.5,272.5C 281.5,271.833 281.167,271.5 280.5,271.5C 279.791,270.596 278.791,270.263 277.5,270.5C 277.5,269.833 277.5,269.167 277.5,268.5C 278.833,268.5 279.5,267.833 279.5,266.5C 280.288,268.815 281.954,270.148 284.5,270.5C 286.784,269.387 289.117,268.387 291.5,267.5C 290.624,266.749 289.624,266.249 288.5,266C 289.416,265.626 290.25,265.126 291,264.5C 292.352,267.877 292.852,271.21 292.5,274.5 Z"/></g>
<g><path style="opacity:1" fill="#183067" d="M 287.5,272.5 C 288.251,271.427 289.251,271.26 290.5,272C 289.648,273.728 288.648,273.895 287.5,272.5 Z"/></g>
<g><path style="opacity:1" fill="#1b3076" d="M 279.5,266.5 C 279.5,267.833 278.833,268.5 277.5,268.5C 275.952,268.179 275.285,267.179 275.5,265.5C 276.959,265.433 278.292,265.766 279.5,266.5 Z"/></g>
<g><path style="opacity:1" fill="#214d1b" d="M 286.5,273.5 C 287.401,274.29 288.068,275.29 288.5,276.5C 286.544,278.175 285.211,277.842 284.5,275.5C 285.833,275.5 286.5,274.833 286.5,273.5 Z"/></g>
<g><path style="opacity:1" fill="#d53c15" d="M 317.5,268.5 C 318.833,268.5 319.5,269.167 319.5,270.5C 320.5,275.833 321.5,275.833 322.5,270.5C 324.411,270.574 325.578,271.574 326,273.5C 326.765,275.066 326.598,276.399 325.5,277.5C 323.888,274.092 322.888,274.759 322.5,279.5C 321.833,279.5 321.167,279.5 320.5,279.5C 319.167,274.167 317.833,274.167 316.5,279.5C 316.167,279.5 315.833,279.5 315.5,279.5C 314.791,278.596 313.791,278.263 312.5,278.5C 312.19,275.287 312.523,272.287 313.5,269.5C 313.5,269.833 313.5,270.167 313.5,270.5C 314.833,275.833 316.167,275.833 317.5,270.5C 317.5,269.833 317.5,269.167 317.5,268.5 Z"/></g>
<g><path style="opacity:1" fill="#d79b15" d="M 319.5,270.5 C 320.5,270.5 321.5,270.5 322.5,270.5C 321.5,275.833 320.5,275.833 319.5,270.5 Z"/></g>
<g><path style="opacity:1" fill="#e8a416" d="M 313.5,270.5 C 314.833,270.5 316.167,270.5 317.5,270.5C 316.167,275.833 314.833,275.833 313.5,270.5 Z"/></g>
<g><path style="opacity:1" fill="#efac16" d="M 320.5,279.5 C 319.167,279.5 317.833,279.5 316.5,279.5C 317.833,274.167 319.167,274.167 320.5,279.5 Z"/></g>
<g><path style="opacity:1" fill="#e9ae1c" d="M 325.5,277.5 C 324.833,278.167 324.167,278.833 323.5,279.5C 323.167,279.5 322.833,279.5 322.5,279.5C 322.888,274.759 323.888,274.092 325.5,277.5 Z"/></g>
<g><path style="opacity:1" fill="#d29f14" d="M 339.5,267.5 C 340.978,267.238 342.311,267.571 343.5,268.5C 342.05,272.151 339.717,274.817 336.5,276.5C 334.019,277.696 334.019,279.196 336.5,281C 335.207,281.49 333.873,281.657 332.5,281.5C 332.793,280.357 332.793,279.023 332.5,277.5C 330.929,278.309 329.262,278.643 327.5,278.5C 327.527,276.801 328.194,275.467 329.5,274.5C 330.167,273.167 330.833,271.833 331.5,270.5C 331.5,271.5 331.5,272.5 331.5,273.5C 333.415,273.784 335.081,273.451 336.5,272.5C 338.25,271.341 339.25,269.674 339.5,267.5 Z"/></g>
<g><path style="opacity:1" fill="#3b4e18" d="M 279.5,274.5 C 280.209,275.404 281.209,275.737 282.5,275.5C 282.53,276.497 282.03,277.164 281,277.5C 278.754,277.023 278.254,276.023 279.5,274.5 Z"/></g>
<g><path style="opacity:1" fill="#8c721a" d="M 359.5,266.5 C 359.328,267.492 359.662,268.158 360.5,268.5C 360.5,269.167 360.5,269.833 360.5,270.5C 358.408,271.286 358.741,272.286 361.5,273.5C 362.386,272.675 362.719,271.675 362.5,270.5C 363.167,271.5 363.833,272.5 364.5,273.5C 363.167,275.5 361.5,277.167 359.5,278.5C 358.1,277.9 357.1,276.9 356.5,275.5C 355.833,274.167 355.167,272.833 354.5,271.5C 354.167,271.5 353.833,271.5 353.5,271.5C 352.833,271.5 352.167,271.5 351.5,271.5C 349.007,271.131 348.34,271.797 349.5,273.5C 347.183,274.534 346.183,273.534 346.5,270.5C 347.791,269.222 349.791,268.555 352.5,268.5C 352.922,263.244 353.922,262.744 355.5,267C 353.441,268.185 353.274,269.352 355,270.5C 357.227,269.883 358.727,268.549 359.5,266.5 Z"/></g>
<g><path style="opacity:1" fill="#0a3084" d="M 356.5,275.5 C 356.443,271.867 357.443,271.7 359.5,275C 358.552,275.483 357.552,275.649 356.5,275.5 Z"/></g>
<g><path style="opacity:1" fill="#c9d1ca" d="M 298.5,277.5 C 298.5,279.167 298.5,280.833 298.5,282.5C 295.722,282.978 293.722,281.978 292.5,279.5C 293.376,278.749 294.376,278.249 295.5,278C 293.729,277.465 293.396,276.631 294.5,275.5C 295.86,276.18 297.193,276.847 298.5,277.5 Z"/></g>
<g><path style="opacity:1" fill="#43621f" d="M 345.5,272.5 C 345.733,274.062 346.4,275.395 347.5,276.5C 346.292,277.234 344.959,277.567 343.5,277.5C 344.209,278.404 345.209,278.737 346.5,278.5C 347.167,280.5 347.833,282.5 348.5,284.5C 346.685,283.37 344.685,282.704 342.5,282.5C 342.5,283.5 342.5,284.5 342.5,285.5C 336.123,285.416 329.956,285.416 324,285.5C 324.081,283.362 325.081,283.029 327,284.5C 329.326,284.12 331.159,283.12 332.5,281.5C 333.873,281.657 335.207,281.49 336.5,281C 334.019,279.196 334.019,277.696 336.5,276.5C 337.239,276.369 337.906,276.536 338.5,277C 337.304,277.654 337.304,278.154 338.5,278.5C 340.259,275.734 342.593,273.734 345.5,272.5 Z"/></g>
<g><path style="opacity:1" fill="#f7f7f7" d="M 343.5,277.5 C 342.957,277.56 342.624,277.893 342.5,278.5C 346.11,280.712 345.443,281.712 340.5,281.5C 340.343,280.127 340.51,278.793 341,277.5C 341.977,276.226 342.811,276.226 343.5,277.5 Z"/></g>
<g><path style="opacity:1" fill="#425e11" d="M 311.5,278.5 C 312.244,281.884 313.577,282.218 315.5,279.5C 315.833,279.5 316.167,279.5 316.5,279.5C 316.443,280.609 316.11,281.609 315.5,282.5C 315.624,283.197 315.624,284.03 315.5,285C 309.472,285.83 303.472,285.664 297.5,284.5C 299.745,283.792 301.745,282.792 303.5,281.5C 304.873,281.657 306.207,281.49 307.5,281C 305.595,280.174 305.261,279.007 306.5,277.5C 308.071,278.309 309.738,278.643 311.5,278.5 Z"/></g>
<g><path style="opacity:1" fill="#c79615" d="M 372.5,260.5 C 372.715,262.179 372.048,263.179 370.5,263.5C 370.5,262.167 370.5,260.833 370.5,259.5C 369.167,259.5 367.833,259.5 366.5,259.5C 366.5,260.833 366.5,262.167 366.5,263.5C 366.082,264.222 365.416,264.722 364.5,265C 365.423,267.041 365.756,269.208 365.5,271.5C 365.5,271.833 365.5,272.167 365.5,272.5C 364.833,272.5 364.5,272.833 364.5,273.5C 363.833,272.5 363.167,271.5 362.5,270.5C 361.833,270.5 361.167,270.5 360.5,270.5C 360.5,269.833 360.5,269.167 360.5,268.5C 361.5,268.5 362.5,268.5 363.5,268.5C 363.5,267.5 363.5,266.5 363.5,265.5C 362.041,265.433 360.708,265.766 359.5,266.5C 358.727,268.549 357.227,269.883 355,270.5C 353.274,269.352 353.441,268.185 355.5,267C 353.922,262.744 352.922,263.244 352.5,268.5C 349.791,268.555 347.791,269.222 346.5,270.5C 346.183,273.534 347.183,274.534 349.5,273.5C 350.5,273.167 351.167,272.5 351.5,271.5C 352.167,271.5 352.833,271.5 353.5,271.5C 352.833,272.5 352.167,273.5 351.5,274.5C 349.11,276.028 349.61,277.028 353,277.5C 354.03,277.164 354.53,276.497 354.5,275.5C 354.5,274.167 354.5,272.833 354.5,271.5C 355.167,272.833 355.833,274.167 356.5,275.5C 357.1,276.9 358.1,277.9 359.5,278.5C 355.065,280.205 351.065,279.539 347.5,276.5C 346.4,275.395 345.733,274.062 345.5,272.5C 344.227,270.383 344.227,268.216 345.5,266C 345.333,265.5 345.167,265 345,264.5C 344.692,265.308 344.192,265.975 343.5,266.5C 342.548,264.955 342.215,263.288 342.5,261.5C 344.735,261.795 346.735,261.461 348.5,260.5C 348.833,260.5 349.167,260.5 349.5,260.5C 352.096,259.735 354.763,259.401 357.5,259.5C 362.076,259.562 366.409,258.895 370.5,257.5C 371.117,257.389 371.617,257.056 372,256.5C 372.49,257.793 372.657,259.127 372.5,260.5 Z"/></g>
<g><path style="opacity:1" fill="#265215" d="M 351.5,274.5 C 352.209,275.404 353.209,275.737 354.5,275.5C 354.53,276.497 354.03,277.164 353,277.5C 349.61,277.028 349.11,276.028 351.5,274.5 Z"/></g>
<g><path style="opacity:1" fill="#1c2f6a" d="M 353.5,271.5 C 353.833,271.5 354.167,271.5 354.5,271.5C 354.5,272.833 354.5,274.167 354.5,275.5C 353.209,275.737 352.209,275.404 351.5,274.5C 352.167,273.5 352.833,272.5 353.5,271.5 Z"/></g>
<g><path style="opacity:1" fill="#1d316a" d="M 351.5,271.5 C 351.167,272.5 350.5,273.167 349.5,273.5C 348.34,271.797 349.007,271.131 351.5,271.5 Z"/></g>
<g><path style="opacity:1" fill="#193073" d="M 360.5,270.5 C 361.167,270.5 361.833,270.5 362.5,270.5C 362.719,271.675 362.386,272.675 361.5,273.5C 358.741,272.286 358.408,271.286 360.5,270.5 Z"/></g>
<g><path style="opacity:1" fill="#213277" d="M 360.5,268.5 C 359.662,268.158 359.328,267.492 359.5,266.5C 360.708,265.766 362.041,265.433 363.5,265.5C 363.5,266.5 363.5,267.5 363.5,268.5C 362.5,268.5 361.5,268.5 360.5,268.5 Z"/></g>
<g><path style="opacity:1" fill="#f0b416" d="M 370.5,263.5 C 369.167,263.5 367.833,263.5 366.5,263.5C 366.5,262.167 366.5,260.833 366.5,259.5C 367.833,259.5 369.167,259.5 370.5,259.5C 370.5,260.833 370.5,262.167 370.5,263.5 Z"/></g>
<g><path style="opacity:1" fill="#b68c12" d="M 379.5,281.5 C 376.978,281.872 374.978,281.039 373.5,279C 376.077,278.455 378.077,279.289 379.5,281.5 Z"/></g>
<g><path style="opacity:1" fill="#20304b" d="M 316.5,279.5 C 317.833,279.5 319.167,279.5 320.5,279.5C 321.167,282.167 321.833,282.167 322.5,279.5C 322.833,279.5 323.167,279.5 323.5,279.5C 324.492,279.328 325.158,279.662 325.5,280.5C 325.082,281.222 324.416,281.722 323.5,282C 320.854,282.497 318.187,282.664 315.5,282.5C 316.11,281.609 316.443,280.609 316.5,279.5 Z"/></g>
<g><path style="opacity:1" fill="#987519" d="M 320.5,279.5 C 321.167,279.5 321.833,279.5 322.5,279.5C 321.833,282.167 321.167,282.167 320.5,279.5 Z"/></g>
<g><path style="opacity:1" fill="#7d6d0f" d="M 271.5,278.5 C 272.75,278.577 273.583,279.244 274,280.5C 275.483,278.054 276.649,278.388 277.5,281.5C 277.167,282.167 276.833,282.833 276.5,283.5C 274.167,284.833 271.833,284.833 269.5,283.5C 270.456,281.925 271.123,280.258 271.5,278.5 Z"/></g>
<g><path style="opacity:1" fill="#9a8212" d="M 249.5,280.5 C 250.167,280.5 250.833,280.5 251.5,280.5C 252.239,280.369 252.906,280.536 253.5,281C 252.833,282.333 251.833,283.333 250.5,284C 254.963,284.069 258.796,282.569 262,279.5C 263.44,280.93 263.774,282.597 263,284.5C 259.005,283.616 255.172,284.283 251.5,286.5C 253.167,287.167 254.833,287.833 256.5,288.5C 255.672,289.415 254.672,290.081 253.5,290.5C 252.304,290.154 252.304,289.654 253.5,289C 251.369,288.457 249.369,287.624 247.5,286.5C 249.065,284.461 249.731,282.461 249.5,280.5 Z"/></g>
<g><path style="opacity:1" fill="#7c6d0f" d="M 362.5,278.5 C 363.75,278.577 364.583,279.244 365,280.5C 365.308,279.692 365.808,279.025 366.5,278.5C 370.873,283.847 369.539,285.514 362.5,283.5C 361.465,281.872 361.465,280.205 362.5,278.5 Z"/></g>
<g><path style="opacity:1" fill="#d8a51d" d="M 390.5,279.5 C 390.196,280.15 389.863,280.817 389.5,281.5C 392.243,283.698 392.077,285.698 389,287.5C 385.899,285.368 382.732,283.368 379.5,281.5C 382.477,282.071 385.31,283.071 388,284.5C 388.64,282.457 388.14,280.79 386.5,279.5C 385.708,278.033 385.708,276.7 386.5,275.5C 388.188,276.521 389.521,277.855 390.5,279.5 Z"/></g>
<g><path style="opacity:1" fill="#f4f6f5" d="M 355.5,285.5 C 362.479,288.577 369.812,290.077 377.5,290C 376.542,291.147 376.875,292.147 378.5,293C 370.695,294.245 363.362,293.078 356.5,289.5C 355.722,288.844 355.056,288.011 354.5,287C 354.57,286.235 354.903,285.735 355.5,285.5 Z"/></g>
<g><path style="opacity:1" fill="#dcdfdd" d="M 290.5,287.5 C 291.138,288.524 291.805,289.524 292.5,290.5C 292.457,291.416 292.124,292.083 291.5,292.5C 288.689,292.429 286.022,291.762 283.5,290.5C 276.414,293.292 269.08,294.459 261.5,294C 263.768,291.968 263.102,290.635 259.5,290C 264.167,289.667 268.833,289.333 273.5,289C 278.776,287.189 284.109,285.689 289.5,284.5C 289.263,285.791 289.596,286.791 290.5,287.5 Z"/></g>
<g><path style="opacity:1" fill="#a3a8a4" d="M 348.5,284.5 C 351.059,284.198 353.393,284.532 355.5,285.5C 354.903,285.735 354.57,286.235 354.5,287C 355.056,288.011 355.722,288.844 356.5,289.5C 350.18,292.381 343.513,294.048 336.5,294.5C 336.762,293.022 336.429,291.689 335.5,290.5C 335.704,291.529 335.204,292.529 334,293.5C 333.517,292.552 333.351,291.552 333.5,290.5C 332.325,290.281 331.325,290.614 330.5,291.5C 331.127,292.417 331.461,293.417 331.5,294.5C 331.167,294.5 330.833,294.5 330.5,294.5C 326.833,294.5 323.167,294.5 319.5,294.5C 319.587,291.402 319.087,291.068 318,293.5C 317,290.833 316,290.833 315,293.5C 314.25,292.874 313.416,292.374 312.5,292C 318.239,290.926 323.906,290.093 329.5,289.5C 335.852,288.979 342.185,288.313 348.5,287.5C 348.5,286.5 348.5,285.5 348.5,284.5 Z"/></g>
<g><path style="opacity:1" fill="#f0f1f0" d="M 336.5,294.5 C 334.833,294.5 333.167,294.5 331.5,294.5C 331.461,293.417 331.127,292.417 330.5,291.5C 331.325,290.614 332.325,290.281 333.5,290.5C 333.351,291.552 333.517,292.552 334,293.5C 335.204,292.529 335.704,291.529 335.5,290.5C 336.429,291.689 336.762,293.022 336.5,294.5 Z"/></g>
<g><path style="opacity:1" fill="#828f84" d="M 290.5,287.5 C 303.416,289.298 316.416,289.964 329.5,289.5C 323.906,290.093 318.239,290.926 312.5,292C 313.416,292.374 314.25,292.874 315,293.5C 316,290.833 317,290.833 318,293.5C 319.087,291.068 319.587,291.402 319.5,294.5C 323.167,294.5 326.833,294.5 330.5,294.5C 317.385,296.199 304.385,295.533 291.5,292.5C 292.124,292.083 292.457,291.416 292.5,290.5C 291.805,289.524 291.138,288.524 290.5,287.5 Z"/></g>
<g><path style="opacity:1" fill="#fefffe" d="M 309.5,290.5 C 310.586,290.62 311.253,291.287 311.5,292.5C 311.167,293.167 310.833,293.833 310.5,294.5C 309.571,293.311 309.238,291.978 309.5,290.5 Z"/></g>
</svg>
