<?xml version="1.0" encoding="UTF-8"?>
<!DOCTYPE svg PUBLIC "-//W3C//DTD SVG 1.1//EN" "http://www.w3.org/Graphics/SVG/1.1/DTD/svg11.dtd">
<svg xmlns="http://www.w3.org/2000/svg" version="1.1" width="640px" height="480px" style="shape-rendering:geometricPrecision; text-rendering:geometricPrecision; image-rendering:optimizeQuality; fill-rule:evenodd; clip-rule:evenodd" xmlns:xlink="http://www.w3.org/1999/xlink">
<g><path style="opacity:1" fill="#fee000" d="M -0.5,-0.5 C 106.167,-0.5 212.833,-0.5 319.5,-0.5C 319.5,159.5 319.5,319.5 319.5,479.5C 212.833,479.5 106.167,479.5 -0.5,479.5C -0.5,319.5 -0.5,159.5 -0.5,-0.5 Z"/></g>
<g><path style="opacity:1" fill="#fefefe" d="M 319.5,-0.5 C 426.167,-0.5 532.833,-0.5 639.5,-0.5C 639.5,159.5 639.5,319.5 639.5,479.5C 532.833,479.5 426.167,479.5 319.5,479.5C 319.5,319.5 319.5,159.5 319.5,-0.5 Z"/></g>
<g><path style="opacity:1" fill="#fcef37" d="M 458.5,112.5 C 459.626,113.858 459.626,115.192 458.5,116.5C 457.167,115.167 455.833,115.167 454.5,116.5C 453.374,115.192 453.374,113.858 454.5,112.5C 455.473,110.052 455.806,107.385 455.5,104.5C 450.167,103.833 450.167,103.167 455.5,102.5C 456.167,95.8333 456.833,95.8333 457.5,102.5C 462.833,103.167 462.833,103.833 457.5,104.5C 457.194,107.385 457.527,110.052 458.5,112.5 Z"/></g>
<g><path style="opacity:1" fill="#e3dc7c" d="M 458.5,112.5 C 457.527,110.052 457.194,107.385 457.5,104.5C 462.833,103.833 462.833,103.167 457.5,102.5C 456.833,95.8333 456.167,95.8333 455.5,102.5C 450.167,103.167 450.167,103.833 455.5,104.5C 455.806,107.385 455.473,110.052 454.5,112.5C 454.5,110.167 454.5,107.833 454.5,105.5C 453.167,105.5 451.833,105.5 450.5,105.5C 450.5,104.167 450.5,102.833 450.5,101.5C 451.833,101.5 453.167,101.5 454.5,101.5C 454.5,99.8333 454.5,98.1667 454.5,96.5C 455.833,96.5 457.167,96.5 458.5,96.5C 458.5,98.1667 458.5,99.8333 458.5,101.5C 459.833,101.5 461.167,101.5 462.5,101.5C 462.5,102.833 462.5,104.167 462.5,105.5C 461.167,105.5 459.833,105.5 458.5,105.5C 458.5,107.833 458.5,110.167 458.5,112.5 Z"/></g>
<g><path style="opacity:1" fill="#faec3e" d="M 459.5,143.5 C 458.839,144.718 458.172,146.051 457.5,147.5C 456.824,146.398 456.158,145.398 455.5,144.5C 453.724,144.206 451.724,144.04 449.5,144C 446.78,141.24 447.446,139.406 451.5,138.5C 455.279,141.217 455.945,140.717 453.5,137C 454.685,135.647 456.019,134.48 457.5,133.5C 461.107,134.964 461.774,136.964 459.5,139.5C 459.833,139.833 460.167,140.167 460.5,140.5C 463.095,137.933 465.428,138.266 467.5,141.5C 466.5,143.167 465.167,144.5 463.5,145.5C 462.378,144.37 461.044,143.703 459.5,143.5 Z"/></g>
<g><path style="opacity:1" fill="#f2e64f" d="M 486.5,152.5 C 486.631,153.376 486.298,154.043 485.5,154.5C 480.422,152.213 475.089,151.046 469.5,151C 459.5,150.333 449.5,150.333 439.5,151C 435.973,151.145 432.64,151.978 429.5,153.5C 428.893,153.376 428.56,153.043 428.5,152.5C 429.301,150.958 429.634,149.292 429.5,147.5C 425.292,147.206 424.625,145.54 427.5,142.5C 426.497,137.303 426.997,137.303 429,142.5C 430,142.833 431,143.167 432,143.5C 430.084,151.791 432.084,152.791 438,146.5C 438.496,144.965 438.33,143.465 437.5,142C 438.333,139.5 439.833,139 442,140.5C 442.163,142.676 442.996,144.509 444.5,146C 448.026,147.337 451.692,147.837 455.5,147.5C 455.5,146.5 455.5,145.5 455.5,144.5C 456.158,145.398 456.824,146.398 457.5,147.5C 458.172,146.051 458.839,144.718 459.5,143.5C 459.5,144.833 459.5,146.167 459.5,147.5C 463.308,147.837 466.974,147.337 470.5,146C 472.004,144.509 472.837,142.676 473,140.5C 474.88,139.07 476.38,139.404 477.5,141.5C 476.001,146.049 477.668,149.049 482.5,150.5C 483.72,150.113 484.387,149.28 484.5,148C 483.107,146.699 482.607,145.199 483,143.5C 484,143.167 485,142.833 486,142.5C 488.103,135.925 488.603,135.925 487.5,142.5C 489.945,144.364 490.112,146.364 488,148.5C 487.333,147.167 486.667,147.167 486,148.5C 485.421,149.928 485.588,151.262 486.5,152.5 Z"/></g>
<g><path style="opacity:1" fill="#f6f5e9" d="M 473.5,145.5 C 474.478,145.811 475.145,146.478 475.5,147.5C 470.275,149.059 469.608,148.392 473.5,145.5 Z"/></g>
<g><path style="opacity:1" fill="#f6f5e9" d="M 440.5,145.5 C 445.907,148.236 445.574,148.903 439.5,147.5C 439.863,146.817 440.196,146.15 440.5,145.5 Z"/></g>
<g><path style="opacity:1" fill="#f6ea44" d="M 485.5,155.5 C 487.113,156.838 487.613,158.505 487,160.5C 479.663,156.758 471.83,155.091 463.5,155.5C 457.167,154.167 450.833,154.167 444.5,155.5C 438.908,155.219 433.575,156.219 428.5,158.5C 427.289,157.726 427.289,156.893 428.5,156C 447.45,151.502 466.45,151.336 485.5,155.5 Z"/></g>
<g><path style="opacity:1" fill="#e8e298" d="M 444.5,155.5 C 450.833,154.167 457.167,154.167 463.5,155.5C 461.585,155.216 459.919,155.549 458.5,156.5C 457.5,155.167 456.5,155.167 455.5,156.5C 452.038,155.518 448.371,155.185 444.5,155.5 Z"/></g>
<g><path style="opacity:1" fill="#f9f8f1" d="M 486.5,152.5 C 487.885,153.947 487.552,154.947 485.5,155.5C 466.45,151.336 447.45,151.502 428.5,156C 427.289,156.893 427.289,157.726 428.5,158.5C 433.575,156.219 438.908,155.219 444.5,155.5C 448.371,155.185 452.038,155.518 455.5,156.5C 452.22,157.732 451.886,159.399 454.5,161.5C 454.167,161.833 453.833,162.167 453.5,162.5C 450.543,160.166 447.876,160.666 445.5,164C 446.725,165.563 448.225,166.73 450,167.5C 453.926,164.381 455.759,165.381 455.5,170.5C 450.551,171.041 445.884,170.208 441.5,168C 440.751,166.266 440.251,164.433 440,162.5C 435.738,161.179 434.571,162.679 436.5,167C 435.574,170.686 433.241,172.853 429.5,173.5C 428.386,172.277 428.219,170.944 429,169.5C 429.333,169.833 429.667,170.167 430,170.5C 430.874,167.997 430.207,165.997 428,164.5C 427.667,164.833 427.333,165.167 427,165.5C 425.905,164.307 425.072,162.973 424.5,161.5C 425.939,158.59 427.273,155.59 428.5,152.5C 428.56,153.043 428.893,153.376 429.5,153.5C 432.64,151.978 435.973,151.145 439.5,151C 449.5,150.333 459.5,150.333 469.5,151C 475.089,151.046 480.422,152.213 485.5,154.5C 486.298,154.043 486.631,153.376 486.5,152.5 Z"/></g>
<g><path style="opacity:1" fill="#e1db95" d="M 490.5,164.5 C 492.432,165.976 492.765,167.643 491.5,169.5C 491.297,167.956 490.63,166.622 489.5,165.5C 489.624,164.893 489.957,164.56 490.5,164.5 Z"/></g>
<g><path style="opacity:1" fill="#f5e848" d="M 458.5,156.5 C 461.78,157.732 462.114,159.399 459.5,161.5C 459.833,161.833 460.167,162.167 460.5,162.5C 463.457,160.166 466.124,160.666 468.5,164C 467.275,165.563 465.775,166.73 464,167.5C 460.074,164.381 458.241,165.381 458.5,170.5C 463.808,171.257 468.641,170.257 473,167.5C 473.333,165.833 473.667,164.167 474,162.5C 476.167,161 477.667,161.5 478.5,164C 478.241,165.261 477.574,166.261 476.5,167C 478.213,168.378 479.547,170.045 480.5,172C 486.267,174.4 487.601,172.9 484.5,167.5C 484.622,165.006 485.622,164.339 487.5,165.5C 488.427,163.887 489.261,162.221 490,160.5C 490.49,161.793 490.657,163.127 490.5,164.5C 489.957,164.56 489.624,164.893 489.5,165.5C 490.63,166.622 491.297,167.956 491.5,169.5C 490.922,171.443 489.922,171.777 488.5,170.5C 487.212,172.299 487.212,173.965 488.5,175.5C 488.423,176.75 487.756,177.583 486.5,178C 488.311,179.041 488.645,180.207 487.5,181.5C 476.654,178.106 465.487,176.772 454,177.5C 447.833,177.667 441.667,177.833 435.5,178C 432.278,178.199 429.278,179.032 426.5,180.5C 425.308,179.434 425.641,178.601 427.5,178C 432.393,176.488 437.393,175.488 442.5,175C 451.494,174.5 460.494,174.334 469.5,174.5C 473.986,175.683 478.652,176.183 483.5,176C 479.218,174.843 474.884,174.01 470.5,173.5C 459.162,173.333 447.828,173.5 436.5,174C 433.026,174.301 429.692,175.134 426.5,176.5C 425.893,176.376 425.56,176.043 425.5,175.5C 426.091,174.849 426.757,174.182 427.5,173.5C 426.327,170.511 424.66,168.677 422.5,168C 423.022,167.05 423.689,166.216 424.5,165.5C 423.122,163.292 423.122,161.959 424.5,161.5C 425.072,162.973 425.905,164.307 427,165.5C 427.333,165.167 427.667,164.833 428,164.5C 430.207,165.997 430.874,167.997 430,170.5C 429.667,170.167 429.333,169.833 429,169.5C 428.219,170.944 428.386,172.277 429.5,173.5C 433.241,172.853 435.574,170.686 436.5,167C 434.571,162.679 435.738,161.179 440,162.5C 440.251,164.433 440.751,166.266 441.5,168C 445.884,170.208 450.551,171.041 455.5,170.5C 455.759,165.381 453.926,164.381 450,167.5C 448.225,166.73 446.725,165.563 445.5,164C 447.876,160.666 450.543,160.166 453.5,162.5C 453.833,162.167 454.167,161.833 454.5,161.5C 451.886,159.399 452.22,157.732 455.5,156.5C 456.5,155.167 457.5,155.167 458.5,156.5 Z"/></g>
<g><path style="opacity:1" fill="#f3f2e5" d="M 473.5,168.5 C 475.196,168.685 476.529,169.519 477.5,171C 475.5,171.667 473.5,171.667 471.5,171C 472.381,170.292 473.047,169.458 473.5,168.5 Z"/></g>
<g><path style="opacity:1" fill="#f4f3e6" d="M 438.5,168.5 C 440.196,168.685 441.529,169.519 442.5,171C 440.5,171.667 438.5,171.667 436.5,171C 437.381,170.292 438.047,169.458 438.5,168.5 Z"/></g>
<g><path style="opacity:1" fill="#f3f3ec" d="M 389.5,173.5 C 388.081,176.1 386.415,178.6 384.5,181C 383.423,181.47 382.423,181.303 381.5,180.5C 381.389,179.883 381.056,179.383 380.5,179C 382.641,175.68 385.641,173.846 389.5,173.5 Z"/></g>
<g><path style="opacity:1" fill="#e8e3a5" d="M 470.5,173.5 C 474.884,174.01 479.218,174.843 483.5,176C 478.652,176.183 473.986,175.683 469.5,174.5C 470.167,174.5 470.5,174.167 470.5,173.5 Z"/></g>
<g><path style="opacity:1" fill="#f1e442" d="M 366.5,179.5 C 362.167,177.833 360.833,179.167 362.5,183.5C 357.291,183.631 355.625,181.297 357.5,176.5C 361.863,173.342 364.863,174.342 366.5,179.5 Z"/></g>
<g><path style="opacity:1" fill="#bcbcb8" d="M 556.5,183.5 C 557.761,186.946 556.428,188.946 552.5,189.5C 552.774,185.1 550.44,182.767 545.5,182.5C 546.736,180.172 548.736,179.006 551.5,179C 553.684,174.36 557.017,173.36 561.5,176C 563.65,181.019 561.984,183.519 556.5,183.5 Z"/></g>
<g><path style="opacity:1" fill="#e1d647" d="M 391.5,172.5 C 391.611,173.117 391.944,173.617 392.5,174C 389.794,176.371 387.461,179.037 385.5,182C 386.448,182.483 387.448,182.649 388.5,182.5C 388.167,183.5 387.5,184.167 386.5,184.5C 385.5,183.167 384.5,183.167 383.5,184.5C 380.203,185.855 379.87,185.355 382.5,183C 381.001,182.162 380.668,181.329 381.5,180.5C 382.423,181.303 383.423,181.47 384.5,181C 386.415,178.6 388.081,176.1 389.5,173.5C 389.842,172.662 390.508,172.328 391.5,172.5 Z"/></g>
<g><path style="opacity:1" fill="#fbfbfb" d="M 409.5,224.5 C 412.595,223.881 412.929,222.881 410.5,221.5C 409.06,222.952 407.394,223.952 405.5,224.5C 407.766,220.687 409.932,216.687 412,212.5C 412.667,209.167 412.667,205.833 412,202.5C 410.909,205.755 409.909,209.089 409,212.5C 402.891,206.877 396.391,201.877 389.5,197.5C 387.5,194.833 385.167,192.5 382.5,190.5C 381.942,189.21 380.942,188.377 379.5,188C 381.319,187.26 382.652,186.093 383.5,184.5C 384.5,183.167 385.5,183.167 386.5,184.5C 387.223,187.822 388.057,191.155 389,194.5C 388.823,188.018 391.157,182.685 396,178.5C 403.974,184.495 408.641,192.495 410,202.5C 410.991,201.57 411.491,200.404 411.5,199C 409.694,190.379 405.361,183.379 398.5,178C 404.922,174.98 410.088,176.48 414,182.5C 422.005,196.141 422.338,209.808 415,223.5C 413.358,226.768 411.525,227.101 409.5,224.5 Z"/></g>
<g><path style="opacity:1" fill="#e8e5ca" d="M 470.5,173.5 C 470.5,174.167 470.167,174.5 469.5,174.5C 460.494,174.334 451.494,174.5 442.5,175C 437.393,175.488 432.393,176.488 427.5,178C 425.641,178.601 425.308,179.434 426.5,180.5C 426.44,181.043 426.107,181.376 425.5,181.5C 424.207,179.364 424.207,177.364 425.5,175.5C 425.56,176.043 425.893,176.376 426.5,176.5C 429.692,175.134 433.026,174.301 436.5,174C 447.828,173.5 459.162,173.333 470.5,173.5 Z"/></g>
<g><path style="opacity:1" fill="#bab8a4" d="M 366.5,179.5 C 366.5,180.167 366.833,180.5 367.5,180.5C 365.858,181.803 364.191,183.136 362.5,184.5C 362.5,184.167 362.5,183.833 362.5,183.5C 360.833,179.167 362.167,177.833 366.5,179.5 Z"/></g>
<g><path style="opacity:1" fill="#d2ce9a" d="M 488.5,175.5 C 489.833,179.5 489.833,183.5 488.5,187.5C 488.672,186.508 488.338,185.842 487.5,185.5C 488.833,184.167 488.833,182.833 487.5,181.5C 488.645,180.207 488.311,179.041 486.5,178C 487.756,177.583 488.423,176.75 488.5,175.5 Z"/></g>
<g><path style="opacity:1" fill="#e9dd3f" d="M 556.5,183.5 C 553.513,183.052 552.513,181.552 553.5,179C 557.293,178.513 558.293,180.013 556.5,183.5 Z"/></g>
<g><path style="opacity:1" fill="#efe341" d="M 372.5,181.5 C 369.239,183.09 366.573,185.424 364.5,188.5C 362.896,187.713 362.229,186.38 362.5,184.5C 364.191,183.136 365.858,181.803 367.5,180.5C 369.586,178.977 371.252,179.31 372.5,181.5 Z"/></g>
<g><path style="opacity:1" fill="#fcfcfb" d="M 534.5,191.5 C 532.5,193.5 530.5,195.5 528.5,197.5C 521.475,203.529 514.475,209.529 507.5,215.5C 506.25,215.423 505.417,214.756 505,213.5C 504.667,210.5 504.333,207.5 504,204.5C 503.667,204.167 503.333,203.833 503,203.5C 501.932,208.768 502.599,213.768 505,218.5C 505.671,219.252 506.504,219.586 507.5,219.5C 508.167,221.833 508.833,224.167 509.5,226.5C 507.606,225.952 505.94,224.952 504.5,223.5C 504.167,223.833 503.833,224.167 503.5,224.5C 504.243,225.182 504.909,225.849 505.5,226.5C 503.466,229.205 501.799,228.872 500.5,225.5C 496.025,220.577 494.025,214.743 494.5,208C 494.337,198.156 497.171,189.323 503,181.5C 507.077,177.52 511.577,176.854 516.5,179.5C 507.962,185.565 504.129,193.565 505,203.5C 506.376,193.734 511.043,186.067 519,180.5C 523.834,184.645 526.167,189.979 526,196.5C 528.628,194.874 530.961,192.874 533,190.5C 533.383,191.056 533.883,191.389 534.5,191.5 Z"/></g>
<g><path style="opacity:1" fill="#ede13a" d="M 545.5,182.5 C 550.44,182.767 552.774,185.1 552.5,189.5C 549.545,187.878 546.878,185.878 544.5,183.5C 545.167,183.5 545.5,183.167 545.5,182.5 Z"/></g>
<g><path style="opacity:1" fill="#efe33a" d="M 370.5,193.5 C 369.167,192.833 368.167,191.833 367.5,190.5C 369.415,186.728 372.415,184.894 376.5,185C 376.833,185.333 377.167,185.667 377.5,186C 374.261,187.736 371.927,190.236 370.5,193.5 Z"/></g>
<g><path style="opacity:1" fill="#c6c5c1" d="M 544.5,183.5 C 546.878,185.878 549.545,187.878 552.5,189.5C 552.011,192.324 550.344,193.657 547.5,193.5C 546.211,188.018 543.211,186.685 538.5,189.5C 536.938,189.733 535.605,190.4 534.5,191.5C 533.883,191.389 533.383,191.056 533,190.5C 530.961,192.874 528.628,194.874 526,196.5C 526.167,189.979 523.834,184.645 519,180.5C 511.043,186.067 506.376,193.734 505,203.5C 504.129,193.565 507.962,185.565 516.5,179.5C 511.577,176.854 507.077,177.52 503,181.5C 497.171,189.323 494.337,198.156 494.5,208C 494.025,214.743 496.025,220.577 500.5,225.5C 499.833,225.5 499.167,225.5 498.5,225.5C 498.158,224.662 497.492,224.328 496.5,224.5C 490.668,210.476 491.501,196.81 499,183.5C 502.676,178.581 507.51,175.581 513.5,174.5C 525.486,170.901 534.32,174.901 540,186.5C 541.271,185.117 542.771,184.117 544.5,183.5 Z"/></g>
<g><path style="opacity:1" fill="#ddd249" d="M 525.5,174.5 C 526.091,177.614 527.758,180.114 530.5,182C 531.749,182.74 532.749,182.573 533.5,181.5C 532.595,183.624 532.595,185.624 533.5,187.5C 531.878,185.561 530.044,185.228 528,186.5C 527.536,185.906 527.369,185.239 527.5,184.5C 529.028,184.483 529.528,183.816 529,182.5C 526.251,179.95 524.085,177.617 522.5,175.5C 523.391,174.89 524.391,174.557 525.5,174.5 Z"/></g>
<g><path style="opacity:1" fill="#f8f8f5" d="M 525.5,174.5 C 529.446,175.459 532.113,177.792 533.5,181.5C 532.749,182.573 531.749,182.74 530.5,182C 527.758,180.114 526.091,177.614 525.5,174.5 Z"/></g>
<g><path style="opacity:1" fill="#f7f6f2" d="M 513.5,174.5 C 516.713,174.19 519.713,174.523 522.5,175.5C 524.085,177.617 526.251,179.95 529,182.5C 529.528,183.816 529.028,184.483 527.5,184.5C 523.2,179.848 517.866,177.015 511.5,176C 512.416,175.722 513.082,175.222 513.5,174.5 Z"/></g>
<g><path style="opacity:1" fill="#c0b856" d="M 382.5,190.5 C 385.167,192.5 387.5,194.833 389.5,197.5C 388.833,197.5 388.5,197.833 388.5,198.5C 385.835,196.36 383.502,193.86 381.5,191C 381.728,190.601 382.062,190.435 382.5,190.5 Z"/></g>
<g><path style="opacity:1" fill="#b8b8b7" d="M 391.5,172.5 C 390.508,172.328 389.842,172.662 389.5,173.5C 385.641,173.846 382.641,175.68 380.5,179C 381.056,179.383 381.389,179.883 381.5,180.5C 380.668,181.329 381.001,182.162 382.5,183C 379.87,185.355 380.203,185.855 383.5,184.5C 382.652,186.093 381.319,187.26 379.5,188C 380.942,188.377 381.942,189.21 382.5,190.5C 382.062,190.435 381.728,190.601 381.5,191C 383.502,193.86 385.835,196.36 388.5,198.5C 390.371,201.061 392.371,203.561 394.5,206C 392.699,206.317 392.366,206.984 393.5,208C 398.317,209.514 402.983,212.014 407.5,215.5C 407.833,215.167 408.167,214.833 408.5,214.5C 401.227,209.895 394.894,204.228 389.5,197.5C 396.391,201.877 402.891,206.877 409,212.5C 409.909,209.089 410.909,205.755 412,202.5C 412.667,205.833 412.667,209.167 412,212.5C 409.932,216.687 407.766,220.687 405.5,224.5C 402.539,223.796 402.206,224.463 404.5,226.5C 404.376,227.107 404.043,227.44 403.5,227.5C 402.054,226.387 400.387,226.22 398.5,227C 392.622,231.21 387.789,236.377 384,242.5C 383.042,245.075 382.542,247.741 382.5,250.5C 382.808,255.229 383.974,259.562 386,263.5C 384.647,262.315 383.48,260.981 382.5,259.5C 381.167,260.5 379.833,261.5 378.5,262.5C 372.234,258.403 366.4,253.737 361,248.5C 360.667,245.5 360.333,242.5 360,239.5C 358.587,241.414 356.753,242.747 354.5,243.5C 348.811,238.643 342.978,233.977 337,229.5C 334.228,220.451 337.395,215.951 346.5,216C 348.609,214.859 350.442,213.359 352,211.5C 354.035,213.912 355.035,213.245 355,209.5C 358.261,206.784 361.428,203.951 364.5,201C 366.112,200.28 367.612,200.446 369,201.5C 369.14,198.719 370.306,196.553 372.5,195C 371.956,194.283 371.289,193.783 370.5,193.5C 371.927,190.236 374.261,187.736 377.5,186C 377.167,185.667 376.833,185.333 376.5,185C 372.415,184.894 369.415,186.728 367.5,190.5C 366.29,190.068 365.29,189.401 364.5,188.5C 366.573,185.424 369.239,183.09 372.5,181.5C 373.212,182.739 374.212,183.239 375.5,183C 381.052,173.058 389.385,169.392 400.5,172C 397.518,172.498 394.518,172.665 391.5,172.5 Z"/></g>
<g><path style="opacity:1" fill="#f5e943" d="M 487.5,185.5 C 488.338,185.842 488.672,186.508 488.5,187.5C 488.509,189.661 489.176,190.994 490.5,191.5C 490.441,193.767 489.608,194.433 488,193.5C 484.868,195.783 484.701,198.283 487.5,201C 487.43,201.765 487.097,202.265 486.5,202.5C 483.172,199.553 479.172,198.053 474.5,198C 463.359,196.406 452.359,196.24 441.5,197.5C 436.951,197.609 432.618,198.609 428.5,200.5C 429.819,198.536 429.819,196.203 428.5,193.5C 427.167,193.5 425.833,193.5 424.5,193.5C 424.343,192.127 424.51,190.793 425,189.5C 425.889,190.888 426.389,190.722 426.5,189C 425.153,181.906 425.82,181.739 428.5,188.5C 429.628,189.262 430.795,189.929 432,190.5C 432.441,193.244 431.941,195.244 430.5,196.5C 437.121,195.595 439.455,191.928 437.5,185.5C 440.766,185.433 442.266,187.099 442,190.5C 445.735,194.096 450.235,195.429 455.5,194.5C 456.025,189.882 454.692,188.882 451.5,191.5C 445.172,189.385 445.005,187.052 451,184.5C 455.736,187.1 456.236,186.6 452.5,183C 455.619,178.578 458.619,178.578 461.5,183C 459.055,186.717 459.721,187.217 463.5,184.5C 465.167,185.667 466.833,186.833 468.5,188C 466.833,189.167 465.167,190.333 463.5,191.5C 459.769,188.537 458.102,189.537 458.5,194.5C 464.391,195.596 469.391,194.096 473.5,190C 472,187.833 472.5,186.333 475,185.5C 476.5,185.667 477.333,186.5 477.5,188C 476.661,192.711 478.661,195.877 483.5,197.5C 484.614,196.277 484.781,194.944 484,193.5C 483.667,193.833 483.333,194.167 483,194.5C 482.126,191.997 482.793,189.997 485,188.5C 485.333,188.833 485.667,189.167 486,189.5C 486.41,188.099 486.91,186.766 487.5,185.5 Z"/></g>
<g><path style="opacity:1" fill="#f2efd4" d="M 472.5,192.5 C 474.346,192.222 475.68,192.889 476.5,194.5C 474.833,195.833 473.167,195.833 471.5,194.5C 471.863,193.817 472.196,193.15 472.5,192.5 Z"/></g>
<g><path style="opacity:1" fill="#f3f1e1" d="M 439.5,192.5 C 444.732,193.405 444.732,194.405 439.5,195.5C 438.438,194.575 438.438,193.575 439.5,192.5 Z"/></g>
<g><path style="opacity:1" fill="#f6e936" d="M 547.5,193.5 C 546.957,193.56 546.624,193.893 546.5,194.5C 548.562,196.403 549.896,198.737 550.5,201.5C 551.451,200.674 552.451,200.508 553.5,201C 558.5,204.323 562.333,208.49 565,213.5C 568.01,212.289 570.177,213.289 571.5,216.5C 570.71,217.794 569.71,218.961 568.5,220C 570.526,219.537 572.526,218.704 574.5,217.5C 575.167,217.667 575.833,217.833 576.5,218C 571.833,222 567.167,226 562.5,230C 560.559,230.743 558.726,230.576 557,229.5C 556.25,230.126 555.416,230.626 554.5,231C 562.804,230.484 565.804,234.317 563.5,242.5C 562.185,241.524 560.852,240.524 559.5,239.5C 558.679,242.447 558.179,245.447 558,248.5C 552.224,252.641 546.724,257.141 541.5,262C 540.833,262.667 540.167,262.667 539.5,262C 537.963,260.293 536.296,258.793 534.5,257.5C 534.216,254.223 534.549,251.057 535.5,248C 533.855,245.206 531.855,242.706 529.5,240.5C 527.522,236.522 524.522,233.522 520.5,231.5C 519.738,229.738 518.404,228.738 516.5,228.5C 513.264,225.719 510.264,222.719 507.5,219.5C 507.937,217.926 508.937,216.759 510.5,216C 513.249,214.877 515.749,213.377 518,211.5C 518.718,212.451 519.551,212.617 520.5,212C 521.731,210.595 523.064,209.429 524.5,208.5C 526.138,207.343 527.804,206.176 529.5,205C 528.231,205.109 527.231,204.942 526.5,204.5C 530.5,199.5 534.5,194.5 538.5,189.5C 543.211,186.685 546.211,188.018 547.5,193.5 Z"/></g>
<g><path style="opacity:1" fill="#f9e839" d="M 452.5,198.5 C 462.28,198.08 471.947,198.914 481.5,201C 483.452,201.366 485.118,202.199 486.5,203.5C 486.5,203.833 486.5,204.167 486.5,204.5C 469.379,200.264 452.045,199.431 434.5,202C 432.359,202.573 430.359,203.406 428.5,204.5C 427.227,203.923 427.227,203.257 428.5,202.5C 436.173,199.403 444.173,198.07 452.5,198.5 Z"/></g>
<g><path style="opacity:1" fill="#eae4a9" d="M 441.5,197.5 C 452.359,196.24 463.359,196.406 474.5,198C 479.172,198.053 483.172,199.553 486.5,202.5C 486.5,202.833 486.5,203.167 486.5,203.5C 485.118,202.199 483.452,201.366 481.5,201C 471.947,198.914 462.28,198.08 452.5,198.5C 449.038,197.518 445.371,197.185 441.5,197.5 Z"/></g>
<g><path style="opacity:1" fill="#bc1c0e" d="M 486.5,204.5 C 486.423,205.75 485.756,206.583 484.5,207C 481.048,207.885 477.714,208.718 474.5,209.5C 473.833,209.5 473.167,209.5 472.5,209.5C 461.5,210.833 450.5,210.833 439.5,209.5C 436.784,209.322 434.117,208.822 431.5,208C 429.574,207.578 428.574,206.411 428.5,204.5C 430.359,203.406 432.359,202.573 434.5,202C 452.045,199.431 469.379,200.264 486.5,204.5 Z"/></g>
<g><path style="opacity:1" fill="#ede139" d="M 389.5,197.5 C 394.894,204.228 401.227,209.895 408.5,214.5C 408.167,214.833 407.833,215.167 407.5,215.5C 402.983,212.014 398.317,209.514 393.5,208C 392.366,206.984 392.699,206.317 394.5,206C 392.371,203.561 390.371,201.061 388.5,198.5C 388.5,197.833 388.833,197.5 389.5,197.5 Z"/></g>
<g><path style="opacity:1" fill="#b7b5a5" d="M 538.5,189.5 C 534.5,194.5 530.5,199.5 526.5,204.5C 524.238,205.345 523.571,206.678 524.5,208.5C 523.064,209.429 521.731,210.595 520.5,212C 519.551,212.617 518.718,212.451 518,211.5C 515.749,213.377 513.249,214.877 510.5,216C 508.937,216.759 507.937,217.926 507.5,219.5C 506.504,219.586 505.671,219.252 505,218.5C 502.599,213.768 501.932,208.768 503,203.5C 503.333,203.833 503.667,204.167 504,204.5C 504.333,207.5 504.667,210.5 505,213.5C 505.417,214.756 506.25,215.423 507.5,215.5C 516.297,211.601 523.297,205.601 528.5,197.5C 530.5,195.5 532.5,193.5 534.5,191.5C 535.605,190.4 536.938,189.733 538.5,189.5 Z"/></g>
<g><path style="opacity:1" fill="#b3ac5f" d="M 526.5,204.5 C 527.231,204.942 528.231,205.109 529.5,205C 527.804,206.176 526.138,207.343 524.5,208.5C 523.571,206.678 524.238,205.345 526.5,204.5 Z"/></g>
<g><path style="opacity:1" fill="#e1d645" d="M 528.5,197.5 C 523.297,205.601 516.297,211.601 507.5,215.5C 514.475,209.529 521.475,203.529 528.5,197.5 Z"/></g>
<g><path style="opacity:1" fill="#f3f2ee" d="M 439.5,209.5 C 450.5,210.833 461.5,210.833 472.5,209.5C 475.448,218.062 479.448,226.062 484.5,233.5C 483.542,234.962 482.376,236.295 481,237.5C 478.006,234.18 475.506,230.513 473.5,226.5C 474.09,225.201 475.09,224.368 476.5,224C 476,223.5 475.5,223 475,222.5C 473.951,223.517 472.784,223.684 471.5,223C 470.783,221.348 470.45,219.848 470.5,218.5C 465.543,219.437 465.209,221.27 469.5,224C 468.062,224.219 466.729,224.719 465.5,225.5C 465.667,225.833 465.833,226.167 466,226.5C 467.722,226.962 469.555,227.128 471.5,227C 474.032,230.702 476.365,234.535 478.5,238.5C 477.579,240.756 475.912,241.756 473.5,241.5C 466.548,232.601 461.381,222.601 458,211.5C 457.392,213.154 456.892,214.821 456.5,216.5C 453.792,224.92 449.792,232.586 444.5,239.5C 441.369,240.119 439.036,238.785 437.5,235.5C 438.974,231.891 440.974,228.557 443.5,225.5C 445.216,225.003 446.883,224.669 448.5,224.5C 444.81,222.949 444.81,221.116 448.5,219C 448,218.833 447.5,218.667 447,218.5C 445.333,219.5 443.667,220.5 442,221.5C 439.999,219.055 438.499,219.555 437.5,223C 438.793,223.49 440.127,223.657 441.5,223.5C 440.018,227.129 438.018,230.462 435.5,233.5C 433.456,232.969 431.789,231.802 430.5,230C 431.582,228.67 432.249,227.17 432.5,225.5C 434.833,220.167 437.167,214.833 439.5,209.5 Z"/></g>
<g><path style="opacity:1" fill="#fbfbfb" d="M 373.5,213.5 C 375.03,216.897 377.53,219.563 381,221.5C 385.13,220.372 387.464,217.705 388,213.5C 389.771,214.304 391.271,215.471 392.5,217C 384.94,221.136 384.607,225.803 391.5,231C 390.333,232.167 389.167,233.333 388,234.5C 387.321,230.715 385.155,228.049 381.5,226.5C 377.691,229.142 374.024,231.975 370.5,235C 368.833,235.667 367.167,235.667 365.5,235C 368.667,232.5 371.833,230 375,227.5C 375.814,225.098 375.647,222.765 374.5,220.5C 373.019,219.52 371.685,218.353 370.5,217C 371.71,215.961 372.71,214.794 373.5,213.5 Z"/></g>
<g><path style="opacity:1" fill="#f4f2e8" d="M 549.5,217.5 C 544.913,218.903 543.08,221.903 544,226.5C 547.833,229.667 551.667,232.833 555.5,236C 553.167,236.667 550.833,236.667 548.5,236C 545.207,232.361 541.54,229.194 537.5,226.5C 535.814,227.857 534.148,229.19 532.5,230.5C 531.549,231.919 531.216,233.585 531.5,235.5C 525.15,233.15 524.984,230.484 531,227.5C 532.228,222.851 530.728,219.517 526.5,217.5C 527.793,215.704 529.293,214.037 531,212.5C 531.597,216.572 533.763,219.572 537.5,221.5C 541.813,220.024 543.979,217.024 544,212.5C 546.191,213.833 548.024,215.5 549.5,217.5 Z"/></g>
<g><path style="opacity:1" fill="#e4d83b" d="M 549.5,217.5 C 548.024,215.5 546.191,213.833 544,212.5C 543.979,217.024 541.813,220.024 537.5,221.5C 533.763,219.572 531.597,216.572 531,212.5C 529.293,214.037 527.793,215.704 526.5,217.5C 524.007,220.288 521.674,220.121 519.5,217C 523.667,213.5 527.833,210 532,206.5C 533.167,207.667 534.333,208.833 535.5,210C 534.328,210.419 533.328,211.085 532.5,212C 535.93,216.494 539.263,216.494 542.5,212C 539.774,208.37 540.774,207.037 545.5,208C 549.152,210.653 552.486,213.653 555.5,217C 553.654,220.108 551.654,220.275 549.5,217.5 Z"/></g>
<g><path style="opacity:1" fill="#fdfdfd" d="M 456.5,216.5 C 460.392,225.286 465.059,233.62 470.5,241.5C 467.833,245.167 465.167,248.833 462.5,252.5C 461.391,252.443 460.391,252.11 459.5,251.5C 458.391,250.71 457.058,250.21 455.5,250C 452.572,245.568 448.905,242.068 444.5,239.5C 449.792,232.586 453.792,224.92 456.5,216.5 Z"/></g>
<g><path style="opacity:1" fill="#e4d83b" d="M 571.5,216.5 C 574.187,216.336 576.854,216.503 579.5,217C 580.823,217.816 581.489,218.983 581.5,220.5C 576.162,225 570.662,229.333 565,233.5C 564.502,236.482 564.335,239.482 564.5,242.5C 564.167,243.833 563.833,243.833 563.5,242.5C 565.804,234.317 562.804,230.484 554.5,231C 555.416,230.626 556.25,230.126 557,229.5C 558.726,230.576 560.559,230.743 562.5,230C 567.167,226 571.833,222 576.5,218C 575.833,217.833 575.167,217.667 574.5,217.5C 572.526,218.704 570.526,219.537 568.5,220C 569.71,218.961 570.71,217.794 571.5,216.5 Z"/></g>
<g><path style="opacity:1" fill="#bebebc" d="M 472.5,209.5 C 473.167,209.5 473.833,209.5 474.5,209.5C 476.519,215.872 479.352,221.872 483,227.5C 483.876,229.635 485.376,230.969 487.5,231.5C 487.027,232.906 486.027,233.573 484.5,233.5C 479.448,226.062 475.448,218.062 472.5,209.5 Z"/></g>
<g><path style="opacity:1" fill="#fcee36" d="M 581.5,220.5 C 581.665,223.518 581.498,226.518 581,229.5C 575.742,234.203 570.242,238.537 564.5,242.5C 564.335,239.482 564.502,236.482 565,233.5C 570.662,229.333 576.162,225 581.5,220.5 Z"/></g>
<g><path style="opacity:1" fill="#e7db3c" d="M 437.5,235.5 C 436.167,235.5 435.5,234.833 435.5,233.5C 438.018,230.462 440.018,227.129 441.5,223.5C 440.127,223.657 438.793,223.49 437.5,223C 438.499,219.555 439.999,219.055 442,221.5C 443.667,220.5 445.333,219.5 447,218.5C 447.5,218.667 448,218.833 448.5,219C 444.81,221.116 444.81,222.949 448.5,224.5C 446.883,224.669 445.216,225.003 443.5,225.5C 440.974,228.557 438.974,231.891 437.5,235.5 Z"/></g>
<g><path style="opacity:1" fill="#b3b097" d="M 507.5,219.5 C 510.264,222.719 513.264,225.719 516.5,228.5C 515.041,228.567 513.708,228.234 512.5,227.5C 511.895,225.519 510.895,225.185 509.5,226.5C 508.833,224.167 508.167,221.833 507.5,219.5 Z"/></g>
<g><path style="opacity:1" fill="#c0c0bf" d="M 473.5,241.5 C 472.5,241.5 471.5,241.5 470.5,241.5C 465.059,233.62 460.392,225.286 456.5,216.5C 456.892,214.821 457.392,213.154 458,211.5C 461.381,222.601 466.548,232.601 473.5,241.5 Z"/></g>
<g><path style="opacity:1" fill="#ede137" d="M 496.5,224.5 C 497.492,224.328 498.158,224.662 498.5,225.5C 500.167,227.5 501.833,229.5 503.5,231.5C 501.938,231.733 500.605,232.4 499.5,233.5C 497.448,231.122 495.448,228.789 493.5,226.5C 494.5,225.833 495.5,225.167 496.5,224.5 Z"/></g>
<g><path style="opacity:1" fill="#f1e53b" d="M 426.5,227.5 C 427.609,227.557 428.609,227.89 429.5,228.5C 427.446,231.373 425.113,234.039 422.5,236.5C 420.973,236.573 419.973,235.906 419.5,234.5C 420.811,231.189 423.145,228.855 426.5,227.5 Z"/></g>
<g><path style="opacity:1" fill="#bbbab1" d="M 493.5,226.5 C 495.448,228.789 497.448,231.122 499.5,233.5C 499.106,235.71 497.773,237.043 495.5,237.5C 494.737,233.615 492.404,231.281 488.5,230.5C 489.579,228.457 491.246,227.124 493.5,226.5 Z"/></g>
<g><path style="opacity:1" fill="#dbd04b" d="M 509.5,226.5 C 510.895,225.185 511.895,225.519 512.5,227.5C 510.972,227.517 510.472,228.184 511,229.5C 514.904,233.079 519.071,236.245 523.5,239C 522.646,240.022 521.646,240.855 520.5,241.5C 519.755,239.253 518.422,237.42 516.5,236C 513.603,233.59 510.603,231.423 507.5,229.5C 504.539,230.204 504.206,229.537 506.5,227.5C 506.376,226.893 506.043,226.56 505.5,226.5C 504.909,225.849 504.243,225.182 503.5,224.5C 503.833,224.167 504.167,223.833 504.5,223.5C 505.94,224.952 507.606,225.952 509.5,226.5 Z"/></g>
<g><path style="opacity:1" fill="#b9b8b7" d="M 432.5,225.5 C 432.249,227.17 431.582,228.67 430.5,230C 431.789,231.802 433.456,232.969 435.5,233.5C 435.5,234.833 436.167,235.5 437.5,235.5C 439.036,238.785 441.369,240.119 444.5,239.5C 448.905,242.068 452.572,245.568 455.5,250C 457.058,250.21 458.391,250.71 459.5,251.5C 458.167,251.5 456.833,251.5 455.5,251.5C 455.5,253.833 455.5,256.167 455.5,258.5C 453.973,258.427 452.973,259.094 452.5,260.5C 451.833,260.5 451.167,260.5 450.5,260.5C 445.363,257.094 440.029,253.928 434.5,251C 435.517,249.951 435.684,248.784 435,247.5C 431.739,244.784 428.572,241.951 425.5,239C 424.551,238.383 423.718,238.549 423,239.5C 422.517,238.552 422.351,237.552 422.5,236.5C 425.113,234.039 427.446,231.373 429.5,228.5C 430.272,227.306 431.272,226.306 432.5,225.5 Z"/></g>
<g><path style="opacity:1" fill="#f1e437" d="M 484.5,233.5 C 486.027,233.573 487.027,232.906 487.5,231.5C 488.167,231.5 488.5,231.167 488.5,230.5C 492.404,231.281 494.737,233.615 495.5,237.5C 494.167,238.167 493.167,239.167 492.5,240.5C 491.508,240.328 490.842,240.662 490.5,241.5C 488.495,243.334 486.328,245.001 484,246.5C 483.685,248.586 483.185,250.586 482.5,252.5C 481.833,252.833 481.167,253.167 480.5,253.5C 476.164,255.332 472.164,257.665 468.5,260.5C 466.565,261.15 464.565,261.483 462.5,261.5C 462.5,258.5 462.5,255.5 462.5,252.5C 465.167,248.833 467.833,245.167 470.5,241.5C 471.5,241.5 472.5,241.5 473.5,241.5C 475.912,241.756 477.579,240.756 478.5,238.5C 476.365,234.535 474.032,230.702 471.5,227C 469.555,227.128 467.722,226.962 466,226.5C 465.833,226.167 465.667,225.833 465.5,225.5C 466.729,224.719 468.062,224.219 469.5,224C 465.209,221.27 465.543,219.437 470.5,218.5C 470.45,219.848 470.783,221.348 471.5,223C 472.784,223.684 473.951,223.517 475,222.5C 475.5,223 476,223.5 476.5,224C 475.09,224.368 474.09,225.201 473.5,226.5C 475.506,230.513 478.006,234.18 481,237.5C 482.376,236.295 483.542,234.962 484.5,233.5 Z"/></g>
<g><path style="opacity:1" fill="#ddd24b" d="M 409.5,224.5 C 408.308,225.566 408.641,226.399 410.5,227C 409.648,228.728 408.648,228.895 407.5,227.5C 404.062,229.759 400.729,232.259 397.5,235C 396.228,236.307 395.228,237.807 394.5,239.5C 393.5,239.167 392.833,238.5 392.5,237.5C 396.213,234.116 399.879,230.783 403.5,227.5C 404.043,227.44 404.376,227.107 404.5,226.5C 402.206,224.463 402.539,223.796 405.5,224.5C 407.394,223.952 409.06,222.952 410.5,221.5C 412.929,222.881 412.595,223.881 409.5,224.5 Z"/></g>
<g><path style="opacity:1" fill="#fdfdfc" d="M 503.5,231.5 C 508.279,236.021 513.279,240.354 518.5,244.5C 521.613,248.515 522.113,252.848 520,257.5C 519.196,258.804 518.029,259.471 516.5,259.5C 507.332,254.668 499.332,248.335 492.5,240.5C 493.167,239.167 494.167,238.167 495.5,237.5C 497.773,237.043 499.106,235.71 499.5,233.5C 500.605,232.4 501.938,231.733 503.5,231.5 Z"/></g>
<g><path style="opacity:1" fill="#c2bb57" d="M 532.5,230.5 C 532.755,231.936 533.088,233.436 533.5,235C 532.744,236.38 532.078,236.547 531.5,235.5C 531.216,233.585 531.549,231.919 532.5,230.5 Z"/></g>
<g><path style="opacity:1" fill="#b1afa1" d="M 520.5,231.5 C 524.522,233.522 527.522,236.522 529.5,240.5C 526.118,237.785 523.118,234.785 520.5,231.5 Z"/></g>
<g><path style="opacity:1" fill="#b3b3b2" d="M 426.5,227.5 C 423.145,228.855 420.811,231.189 419.5,234.5C 418.469,233.645 417.303,232.978 416,232.5C 409.716,237.357 403.05,242.69 396,248.5C 395.586,248.043 395.086,247.709 394.5,247.5C 392.524,252.165 393.69,255.832 398,258.5C 398.414,258.043 398.914,257.709 399.5,257.5C 399.109,258.718 399.776,259.552 401.5,260C 406.904,260.772 412.238,260.439 417.5,259C 422.474,256.898 427.474,255.231 432.5,254C 428.976,257.025 425.309,259.858 421.5,262.5C 420.707,261.645 421.04,260.811 422.5,260C 417.225,260.752 411.892,261.585 406.5,262.5C 392.755,260.64 388.922,253.64 395,241.5C 398.74,238.049 402.573,234.715 406.5,231.5C 407.429,230.311 407.762,228.978 407.5,227.5C 408.648,228.895 409.648,228.728 410.5,227C 408.641,226.399 408.308,225.566 409.5,224.5C 411.525,227.101 413.358,226.768 415,223.5C 422.338,209.808 422.005,196.141 414,182.5C 410.088,176.48 404.922,174.98 398.5,178C 405.361,183.379 409.694,190.379 411.5,199C 411.491,200.404 410.991,201.57 410,202.5C 408.641,192.495 403.974,184.495 396,178.5C 391.157,182.685 388.823,188.018 389,194.5C 388.057,191.155 387.223,187.822 386.5,184.5C 387.5,184.167 388.167,183.5 388.5,182.5C 400.874,169.403 411.041,171.069 419,187.5C 423.302,198.325 423.469,209.159 419.5,220C 421.41,222.942 423.744,225.442 426.5,227.5 Z"/></g>
<g><path style="opacity:1" fill="#b9b592" d="M 498.5,225.5 C 499.167,225.5 499.833,225.5 500.5,225.5C 501.799,228.872 503.466,229.205 505.5,226.5C 506.043,226.56 506.376,226.893 506.5,227.5C 504.206,229.537 504.539,230.204 507.5,229.5C 507.351,230.552 507.517,231.552 508,232.5C 511.67,235.734 515.17,239.067 518.5,242.5C 518.5,243.167 518.5,243.833 518.5,244.5C 513.279,240.354 508.279,236.021 503.5,231.5C 501.833,229.5 500.167,227.5 498.5,225.5 Z"/></g>
<g><path style="opacity:1" fill="#fdfdfc" d="M 490.5,241.5 C 497.417,249.242 505.417,255.742 514.5,261C 504.311,263.045 494.645,261.378 485.5,256C 484.29,254.961 483.29,253.794 482.5,252.5C 483.185,250.586 483.685,248.586 484,246.5C 486.328,245.001 488.495,243.334 490.5,241.5 Z"/></g>
<g><path style="opacity:1" fill="#b4b1a0" d="M 529.5,240.5 C 531.855,242.706 533.855,245.206 535.5,248C 534.549,251.057 534.216,254.223 534.5,257.5C 533.442,258.6 532.608,259.934 532,261.5C 531.346,262.696 530.846,262.696 530.5,261.5C 533.285,254.352 532.952,247.352 529.5,240.5 Z"/></g>
<g><path style="opacity:1" fill="#d3c53d" d="M 455.5,258.5 C 455.027,259.906 454.027,260.573 452.5,260.5C 452.973,259.094 453.973,258.427 455.5,258.5 Z"/></g>
<g><path style="opacity:1" fill="#b8b8b8" d="M 490.5,241.5 C 490.842,240.662 491.508,240.328 492.5,240.5C 499.332,248.335 507.332,254.668 516.5,259.5C 518.029,259.471 519.196,258.804 520,257.5C 522.113,252.848 521.613,248.515 518.5,244.5C 518.5,243.833 518.5,243.167 518.5,242.5C 525.748,250.442 524.748,257.275 515.5,263C 507.44,264.743 499.607,263.909 492,260.5C 491.228,260.645 490.561,260.978 490,261.5C 486.484,259.172 483.318,256.505 480.5,253.5C 481.167,253.167 481.833,252.833 482.5,252.5C 483.29,253.794 484.29,254.961 485.5,256C 494.645,261.378 504.311,263.045 514.5,261C 505.417,255.742 497.417,249.242 490.5,241.5 Z"/></g>
<g><path style="opacity:1" fill="#9b1a07" d="M 459.5,251.5 C 460.391,252.11 461.391,252.443 462.5,252.5C 462.5,255.5 462.5,258.5 462.5,261.5C 464.565,261.483 466.565,261.15 468.5,260.5C 471.285,259.916 472.952,260.916 473.5,263.5C 470.08,265.222 466.414,265.889 462.5,265.5C 462.5,268.833 462.5,272.167 462.5,275.5C 458.991,274.526 457.824,272.193 459,268.5C 459.75,267.874 460.584,267.374 461.5,267C 459.667,266.5 458.5,265.333 458,263.5C 456.206,266.709 455.039,270.042 454.5,273.5C 454.5,270.833 454.5,268.167 454.5,265.5C 451.549,265.713 448.882,265.046 446.5,263.5C 447.035,261.554 448.368,260.554 450.5,260.5C 451.167,260.5 451.833,260.5 452.5,260.5C 454.027,260.573 455.027,259.906 455.5,258.5C 455.5,256.167 455.5,253.833 455.5,251.5C 456.833,251.5 458.167,251.5 459.5,251.5 Z"/></g>
<g><path style="opacity:1" fill="#f6e833" d="M 446.5,263.5 C 448.882,265.046 451.549,265.713 454.5,265.5C 454.5,268.167 454.5,270.833 454.5,273.5C 454.167,274.167 453.833,274.833 453.5,275.5C 450.705,277.751 448.372,280.418 446.5,283.5C 441.779,287.554 437.446,291.887 433.5,296.5C 427.917,293.253 422.917,289.253 418.5,284.5C 421.715,281.269 425.048,278.103 428.5,275C 434.734,271.392 440.734,267.559 446.5,263.5 Z"/></g>
<g><path style="opacity:1" fill="#bab9b8" d="M 473.5,263.5 C 479.768,267.643 486.101,271.81 492.5,276C 495.086,280.062 498.42,283.228 502.5,285.5C 501.078,285.709 499.745,286.209 498.5,287C 495.017,290.239 491.35,293.239 487.5,296C 486.748,296.671 486.414,297.504 486.5,298.5C 485.404,296.897 484.07,295.397 482.5,294C 482.833,293.667 483.167,293.333 483.5,293C 479.724,291.053 476.39,288.553 473.5,285.5C 471.496,281.834 468.829,278.834 465.5,276.5C 465.217,275.711 464.717,275.044 464,274.5C 463.79,276.058 463.29,277.391 462.5,278.5C 462.5,277.5 462.5,276.5 462.5,275.5C 462.5,272.167 462.5,268.833 462.5,265.5C 466.414,265.889 470.08,265.222 473.5,263.5 Z"/></g>
<g><path style="opacity:1" fill="#faf8f7" d="M 465.5,276.5 C 468.143,287.72 472.31,298.387 478,308.5C 479.617,310.763 481.45,312.763 483.5,314.5C 483.625,321.561 485.292,328.227 488.5,334.5C 487.199,335.884 487.199,337.384 488.5,339C 487.584,339.278 486.918,339.778 486.5,340.5C 483.034,346.217 484.701,348.717 491.5,348C 492.71,346.961 493.71,345.794 494.5,344.5C 495.833,345.167 497.167,345.833 498.5,346.5C 499.648,347.164 500.981,347.331 502.5,347C 501.944,347.383 501.611,347.883 501.5,348.5C 489.046,351.412 476.379,352.746 463.5,352.5C 462.502,328.006 462.169,303.339 462.5,278.5C 463.29,277.391 463.79,276.058 464,274.5C 464.717,275.044 465.217,275.711 465.5,276.5 Z"/></g>
<g><path style="opacity:1" fill="#fbf9f9" d="M 453.5,276.5 C 454.487,281.305 454.821,286.305 454.5,291.5C 454.5,309.5 454.5,327.5 454.5,345.5C 454.5,347.5 454.5,349.5 454.5,351.5C 450.6,352.43 446.6,352.763 442.5,352.5C 435.825,352.666 429.158,352.5 422.5,352C 417.924,351.728 413.591,350.895 409.5,349.5C 412.007,348.108 414.673,347.108 417.5,346.5C 419.57,347.507 421.57,347.174 423.5,345.5C 426.278,348.307 429.611,349.14 433.5,348C 436.04,344.039 435.04,341.039 430.5,339C 431.536,337.224 431.536,335.391 430.5,333.5C 433.472,328.243 434.806,322.576 434.5,316.5C 444.017,304.795 450.35,291.461 453.5,276.5 Z"/></g>
<g><path style="opacity:1" fill="#975756" d="M 453.5,276.5 C 453.5,276.167 453.5,275.833 453.5,275.5C 455.167,278.261 456.167,281.428 456.5,285C 455.883,287.277 455.216,289.444 454.5,291.5C 454.821,286.305 454.487,281.305 453.5,276.5 Z"/></g>
<g><path style="opacity:1" fill="#f1e432" d="M 413.5,287.5 C 420.127,290.983 425.793,295.65 430.5,301.5C 431.752,304.163 432.752,306.83 433.5,309.5C 434.563,318.159 432.896,326.159 428.5,333.5C 425,336.831 421.334,339.998 417.5,343C 418.684,344.145 418.684,345.312 417.5,346.5C 414.673,347.108 412.007,348.108 409.5,349.5C 405.513,349.348 404.013,347.348 405,343.5C 410.105,338.608 415.439,333.941 421,329.5C 422.454,327.756 422.621,326.089 421.5,324.5C 419.712,321.772 419.212,318.772 420,315.5C 420.995,314.934 421.828,314.267 422.5,313.5C 423.922,309.207 423.088,305.207 420,301.5C 413.032,293.548 404.866,291.548 395.5,295.5C 384.503,291.333 375.669,294.333 369,304.5C 367.466,307.595 367.299,310.595 368.5,313.5C 370.677,314.365 371.677,316.032 371.5,318.5C 370.302,321.142 369.468,323.809 369,326.5C 375.012,338.285 383.845,341.618 395.5,336.5C 397.204,338.849 399.537,339.849 402.5,339.5C 402.5,340.167 402.167,340.5 401.5,340.5C 395.014,340.96 388.347,341.46 381.5,342C 383.928,343.443 386.595,344.276 389.5,344.5C 390.787,343.217 392.787,342.55 395.5,342.5C 397.455,342.724 399.121,343.391 400.5,344.5C 400.389,345.117 400.056,345.617 399.5,346C 401.342,347.346 402.342,349.179 402.5,351.5C 393.056,352.357 384.056,351.024 375.5,347.5C 375.657,346.127 375.49,344.793 375,343.5C 371.055,341.384 367.555,338.718 364.5,335.5C 358.14,328.012 355.806,319.346 357.5,309.5C 358.085,306.152 359.418,303.152 361.5,300.5C 364.874,296.124 368.874,292.458 373.5,289.5C 386.475,283.561 399.808,282.894 413.5,287.5 Z"/></g>
<g><path style="opacity:1" fill="#b1b0b0" d="M 546.5,289.5 C 550.141,292.805 553.808,296.138 557.5,299.5C 562.719,308.946 563.886,318.946 561,329.5C 558.879,333.053 557.379,336.72 556.5,340.5C 556.785,338.712 556.452,337.045 555.5,335.5C 552.335,338.91 548.668,341.577 544.5,343.5C 543.566,344.568 543.232,345.901 543.5,347.5C 533.197,352.597 522.531,353.597 511.5,350.5C 515.069,349.043 518.402,347.043 521.5,344.5C 522.318,342.892 522.985,341.225 523.5,339.5C 522.23,338.712 521.23,337.712 520.5,336.5C 534.079,341.309 544.079,337.309 550.5,324.5C 548.082,323.271 547.082,321.271 547.5,318.5C 547.615,315.983 548.615,313.983 550.5,312.5C 546.03,304.187 539.196,299.187 530,297.5C 527.729,298.271 525.562,299.271 523.5,300.5C 517.918,296.822 512.251,296.988 506.5,301C 502.607,304.39 499.273,308.223 496.5,312.5C 499.545,315.688 500.211,319.355 498.5,323.5C 496.656,324.204 496.156,325.537 497,327.5C 502.68,333.451 509.514,337.451 517.5,339.5C 517.649,340.552 517.483,341.552 517,342.5C 512.326,345.674 507.159,347.674 501.5,348.5C 501.611,347.883 501.944,347.383 502.5,347C 500.981,347.331 499.648,347.164 498.5,346.5C 499.249,345.469 499.915,344.302 500.5,343C 496.686,340.353 493.353,337.187 490.5,333.5C 489.817,333.863 489.15,334.196 488.5,334.5C 485.292,328.227 483.625,321.561 483.5,314.5C 484.742,312.611 484.742,310.611 483.5,308.5C 486.138,306.582 487.805,303.915 488.5,300.5C 493.599,295.728 498.599,291.061 503.5,286.5C 506.074,286.844 508.741,286.344 511.5,285C 523.778,282.065 535.445,283.565 546.5,289.5 Z"/></g>
<g><path style="opacity:1" fill="#f6f5f1" d="M 446.5,283.5 C 443.689,292.807 439.689,301.474 434.5,309.5C 434.167,309.5 433.833,309.5 433.5,309.5C 432.752,306.83 431.752,304.163 430.5,301.5C 431.925,300.078 432.925,298.411 433.5,296.5C 437.446,291.887 441.779,287.554 446.5,283.5 Z"/></g>
<g><path style="opacity:1" fill="#afada0" d="M 418.5,284.5 C 422.917,289.253 427.917,293.253 433.5,296.5C 432.925,298.411 431.925,300.078 430.5,301.5C 425.793,295.65 420.127,290.983 413.5,287.5C 414.922,286.075 416.589,285.075 418.5,284.5 Z"/></g>
<g><path style="opacity:1" fill="#f8f6f6" d="M 473.5,285.5 C 476.39,288.553 479.724,291.053 483.5,293C 483.167,293.333 482.833,293.667 482.5,294C 484.07,295.397 485.404,296.897 486.5,298.5C 487.5,298.833 488.167,299.5 488.5,300.5C 487.805,303.915 486.138,306.582 483.5,308.5C 478.816,301.461 475.483,293.794 473.5,285.5 Z"/></g>
<g><path style="opacity:1" fill="#ecdf34" d="M 502.5,285.5 C 502.5,286.167 502.833,286.5 503.5,286.5C 498.599,291.061 493.599,295.728 488.5,300.5C 488.167,299.5 487.5,298.833 486.5,298.5C 486.414,297.504 486.748,296.671 487.5,296C 491.35,293.239 495.017,290.239 498.5,287C 499.745,286.209 501.078,285.709 502.5,285.5 Z"/></g>
<g><path style="opacity:1" fill="#adadab" d="M 373.5,289.5 C 368.874,292.458 364.874,296.124 361.5,300.5C 360.316,299.312 360.316,298.145 361.5,297C 356.853,295.366 355.52,292.366 357.5,288C 361.666,285.749 365.166,286.583 368,290.5C 369.7,288.701 371.533,288.368 373.5,289.5 Z"/></g>
<g><path style="opacity:1" fill="#91110d" d="M 462.5,275.5 C 462.5,276.5 462.5,277.5 462.5,278.5C 462.169,303.339 462.502,328.006 463.5,352.5C 462.516,355.07 461.349,355.07 460,352.5C 458.506,353.747 457.006,353.747 455.5,352.5C 457.991,351.459 457.991,350.626 455.5,350C 458.167,349.333 458.167,348.667 455.5,348C 457.857,346.78 457.524,345.947 454.5,345.5C 454.5,327.5 454.5,309.5 454.5,291.5C 455.216,289.444 455.883,287.277 456.5,285C 456.167,281.428 455.167,278.261 453.5,275.5C 453.833,274.833 454.167,274.167 454.5,273.5C 455.039,270.042 456.206,266.709 458,263.5C 458.5,265.333 459.667,266.5 461.5,267C 460.584,267.374 459.75,267.874 459,268.5C 457.824,272.193 458.991,274.526 462.5,275.5 Z"/></g>
<g><path style="opacity:1" fill="#f5e836" d="M 558.5,295.5 C 557.448,295.649 556.448,295.483 555.5,295C 553.826,293.494 552.826,291.661 552.5,289.5C 555.303,287.047 558.303,286.88 561.5,289C 562.85,292.138 561.85,294.305 558.5,295.5 Z"/></g>
<g><path style="opacity:1" fill="#cbc041" d="M 546.5,289.5 C 548.549,290.641 550.549,290.641 552.5,289.5C 552.826,291.661 553.826,293.494 555.5,295C 556.448,295.483 557.448,295.649 558.5,295.5C 557.766,296.708 557.433,298.041 557.5,299.5C 553.808,296.138 550.141,292.805 546.5,289.5 Z"/></g>
<g><path style="opacity:1" fill="#e4d731" d="M 422.5,313.5 C 417.43,300.682 408.43,296.015 395.5,299.5C 382.492,295.84 373.492,300.506 368.5,313.5C 367.299,310.595 367.466,307.595 369,304.5C 375.669,294.333 384.503,291.333 395.5,295.5C 404.866,291.548 413.032,293.548 420,301.5C 423.088,305.207 423.922,309.207 422.5,313.5 Z"/></g>
<g><path style="opacity:1" fill="#a51d16" d="M 465.5,276.5 C 468.829,278.834 471.496,281.834 473.5,285.5C 475.483,293.794 478.816,301.461 483.5,308.5C 484.742,310.611 484.742,312.611 483.5,314.5C 481.45,312.763 479.617,310.763 478,308.5C 472.31,298.387 468.143,287.72 465.5,276.5 Z"/></g>
<g><path style="opacity:1" fill="#fbfbf9" d="M 422.5,313.5 C 421.828,314.267 420.995,314.934 420,315.5C 419.212,318.772 419.712,321.772 421.5,324.5C 414.922,329.277 408.589,334.277 402.5,339.5C 399.537,339.849 397.204,338.849 395.5,336.5C 383.845,341.618 375.012,338.285 369,326.5C 369.468,323.809 370.302,321.142 371.5,318.5C 371.677,316.032 370.677,314.365 368.5,313.5C 373.492,300.506 382.492,295.84 395.5,299.5C 408.43,296.015 417.43,300.682 422.5,313.5 Z"/></g>
<g><path style="opacity:1" fill="#fefefe" d="M 520.5,336.5 C 511.738,334.379 504.404,330.046 498.5,323.5C 500.211,319.355 499.545,315.688 496.5,312.5C 499.273,308.223 502.607,304.39 506.5,301C 512.251,296.988 517.918,296.822 523.5,300.5C 525.562,299.271 527.729,298.271 530,297.5C 539.196,299.187 546.03,304.187 550.5,312.5C 548.615,313.983 547.615,315.983 547.5,318.5C 547.082,321.271 548.082,323.271 550.5,324.5C 544.079,337.309 534.079,341.309 520.5,336.5 Z"/></g>
<g><path style="opacity:1" fill="#a3241c" d="M 453.5,275.5 C 453.5,275.833 453.5,276.167 453.5,276.5C 450.35,291.461 444.017,304.795 434.5,316.5C 434.5,314.167 434.5,311.833 434.5,309.5C 439.689,301.474 443.689,292.807 446.5,283.5C 448.372,280.418 450.705,277.751 453.5,275.5 Z"/></g>
<g><path style="opacity:1" fill="#b5ab24" d="M 425.5,314.5 C 426.971,317.743 427.971,321.243 428.5,325C 428.387,326.28 427.72,327.113 426.5,327.5C 426.29,324.614 426.123,321.614 426,318.5C 424.666,317.122 424.499,315.789 425.5,314.5 Z"/></g>
<g><path style="opacity:1" fill="#aea02c" d="M 433.5,309.5 C 433.833,309.5 434.167,309.5 434.5,309.5C 434.5,311.833 434.5,314.167 434.5,316.5C 434.806,322.576 433.472,328.243 430.5,333.5C 429.833,333.5 429.167,333.5 428.5,333.5C 432.896,326.159 434.563,318.159 433.5,309.5 Z"/></g>
<g><path style="opacity:1" fill="#b9af35" d="M 357.5,309.5 C 355.806,319.346 358.14,328.012 364.5,335.5C 363.5,335.5 362.5,335.5 361.5,335.5C 356.553,327.356 355.22,318.689 357.5,309.5 Z"/></g>
<g><path style="opacity:1" fill="#ccc131" d="M 556.5,340.5 C 556.833,341.167 557.167,341.833 557.5,342.5C 552.825,341.339 550.159,343.006 549.5,347.5C 548.041,347.433 546.708,347.766 545.5,348.5C 545.634,346.708 545.301,345.042 544.5,343.5C 548.668,341.577 552.335,338.91 555.5,335.5C 556.452,337.045 556.785,338.712 556.5,340.5 Z"/></g>
<g><path style="opacity:1" fill="#c6b927" d="M 401.5,340.5 C 401.167,341.833 400.833,343.167 400.5,344.5C 399.121,343.391 397.455,342.724 395.5,342.5C 392.787,342.55 390.787,343.217 389.5,344.5C 386.595,344.276 383.928,343.443 381.5,342C 388.347,341.46 395.014,340.96 401.5,340.5 Z"/></g>
<g><path style="opacity:1" fill="#bbbbbb" d="M 361.5,342.5 C 363.527,342.338 365.527,342.505 367.5,343C 370.167,345 370.167,347 367.5,349C 365.866,349.494 364.199,349.66 362.5,349.5C 360.278,349.441 359.278,348.275 359.5,346C 359.387,344.301 360.053,343.134 361.5,342.5 Z"/></g>
<g><path style="opacity:1" fill="#f1e439" d="M 557.5,342.5 C 560.223,345.178 559.889,347.678 556.5,350C 553.386,351.087 551.053,350.254 549.5,347.5C 550.159,343.006 552.825,341.339 557.5,342.5 Z"/></g>
<g><path style="opacity:1" fill="#9a9991" d="M 361.5,335.5 C 362.5,335.5 363.5,335.5 364.5,335.5C 367.555,338.718 371.055,341.384 375,343.5C 375.49,344.793 375.657,346.127 375.5,347.5C 374.15,350.106 372.65,350.106 371,347.5C 368.586,350.48 365.752,351.147 362.5,349.5C 364.199,349.66 365.866,349.494 367.5,349C 370.167,347 370.167,345 367.5,343C 365.527,342.505 363.527,342.338 361.5,342.5C 361.85,340.374 361.85,338.041 361.5,335.5 Z"/></g>
<g><path style="opacity:1" fill="#7f793d" d="M 544.5,343.5 C 545.301,345.042 545.634,346.708 545.5,348.5C 544.673,349.439 544.006,349.105 543.5,347.5C 543.232,345.901 543.566,344.568 544.5,343.5 Z"/></g>
<g><path style="opacity:1" fill="#a31d15" d="M 498.5,323.5 C 504.404,330.046 511.738,334.379 520.5,336.5C 521.23,337.712 522.23,338.712 523.5,339.5C 522.985,341.225 522.318,342.892 521.5,344.5C 518.402,347.043 515.069,349.043 511.5,350.5C 504.155,351.766 496.821,353.266 489.5,355C 480.518,355.88 471.518,356.38 462.5,356.5C 462.5,359.5 462.5,362.5 462.5,365.5C 458.538,365.095 457.871,363.595 460.5,361C 458.941,359.244 457.274,359.244 455.5,361C 458.167,361.667 458.167,362.333 455.5,363C 456.624,363.839 457.291,365.006 457.5,366.5C 456.932,368.204 456.932,369.704 457.5,371C 456.756,372.039 455.756,372.539 454.5,372.5C 454.625,367.378 454.625,362.044 454.5,356.5C 451.833,356.5 449.167,356.5 446.5,356.5C 436.133,356.681 425.8,356.181 415.5,355C 410.922,354.466 406.588,353.3 402.5,351.5C 402.342,349.179 401.342,347.346 399.5,346C 400.056,345.617 400.389,345.117 400.5,344.5C 400.833,343.167 401.167,341.833 401.5,340.5C 402.167,340.5 402.5,340.167 402.5,339.5C 408.589,334.277 414.922,329.277 421.5,324.5C 422.621,326.089 422.454,327.756 421,329.5C 415.439,333.941 410.105,338.608 405,343.5C 404.013,347.348 405.513,349.348 409.5,349.5C 413.591,350.895 417.924,351.728 422.5,352C 429.158,352.5 435.825,352.666 442.5,352.5C 444.304,353.162 446.304,353.495 448.5,353.5C 450.952,353.461 452.952,352.794 454.5,351.5C 454.5,349.5 454.5,347.5 454.5,345.5C 457.524,345.947 457.857,346.78 455.5,348C 458.167,348.667 458.167,349.333 455.5,350C 457.991,350.626 457.991,351.459 455.5,352.5C 457.006,353.747 458.506,353.747 460,352.5C 461.349,355.07 462.516,355.07 463.5,352.5C 476.379,352.746 489.046,351.412 501.5,348.5C 507.159,347.674 512.326,345.674 517,342.5C 517.483,341.552 517.649,340.552 517.5,339.5C 509.514,337.451 502.68,333.451 497,327.5C 496.156,325.537 496.656,324.204 498.5,323.5 Z"/></g>
<g><path style="opacity:1" fill="#a6a5a2" d="M 428.5,333.5 C 429.167,333.5 429.833,333.5 430.5,333.5C 431.536,335.391 431.536,337.224 430.5,339C 435.04,341.039 436.04,344.039 433.5,348C 429.611,349.14 426.278,348.307 423.5,345.5C 421.57,347.174 419.57,347.507 417.5,346.5C 418.684,345.312 418.684,344.145 417.5,343C 421.334,339.998 425,336.831 428.5,333.5 Z"/></g>
<g><path style="opacity:1" fill="#f5e836" d="M 486.5,340.5 C 488.527,340.338 490.527,340.505 492.5,341C 493.823,341.816 494.489,342.983 494.5,344.5C 493.71,345.794 492.71,346.961 491.5,348C 484.701,348.717 483.034,346.217 486.5,340.5 Z"/></g>
<g><path style="opacity:1" fill="#ccc235" d="M 498.5,346.5 C 497.167,345.833 495.833,345.167 494.5,344.5C 494.489,342.983 493.823,341.816 492.5,341C 490.527,340.505 488.527,340.338 486.5,340.5C 486.918,339.778 487.584,339.278 488.5,339C 487.199,337.384 487.199,335.884 488.5,334.5C 489.15,334.196 489.817,333.863 490.5,333.5C 493.353,337.187 496.686,340.353 500.5,343C 499.915,344.302 499.249,345.469 498.5,346.5 Z"/></g>
<g><path style="opacity:1" fill="#ba8585" d="M 454.5,351.5 C 452.952,352.794 450.952,353.461 448.5,353.5C 446.304,353.495 444.304,353.162 442.5,352.5C 446.6,352.763 450.6,352.43 454.5,351.5 Z"/></g>
<g><path style="opacity:1" fill="#a97473" d="M 446.5,356.5 C 449.167,356.5 451.833,356.5 454.5,356.5C 454.625,362.044 454.625,367.378 454.5,372.5C 454.5,373.167 454.167,373.5 453.5,373.5C 453.5,368.167 453.5,362.833 453.5,357.5C 450.941,357.802 448.607,357.468 446.5,356.5 Z"/></g>
<g><path style="opacity:1" fill="#880e0b" d="M 462.5,365.5 C 462.336,368.187 462.503,370.854 463,373.5C 465.07,375.07 466.57,377.07 467.5,379.5C 461.367,378.886 455.367,378.886 449.5,379.5C 449.707,377.199 451.041,375.199 453.5,373.5C 454.167,373.5 454.5,373.167 454.5,372.5C 455.756,372.539 456.756,372.039 457.5,371C 456.932,369.704 456.932,368.204 457.5,366.5C 457.291,365.006 456.624,363.839 455.5,363C 458.167,362.333 458.167,361.667 455.5,361C 457.274,359.244 458.941,359.244 460.5,361C 457.871,363.595 458.538,365.095 462.5,365.5 Z"/></g>
<g><path style="opacity:1" fill="#9d190e" d="M 467.5,379.5 C 468.043,379.56 468.376,379.893 468.5,380.5C 462.969,382.378 457.302,382.878 451.5,382C 450.619,381.292 449.953,380.458 449.5,379.5C 455.367,378.886 461.367,378.886 467.5,379.5 Z"/></g>
</svg>
