<?xml version="1.0" encoding="UTF-8"?>
<!DOCTYPE svg PUBLIC "-//W3C//DTD SVG 1.1//EN" "http://www.w3.org/Graphics/SVG/1.1/DTD/svg11.dtd">
<svg xmlns="http://www.w3.org/2000/svg" version="1.1" width="640px" height="480px" style="shape-rendering:geometricPrecision; text-rendering:geometricPrecision; image-rendering:optimizeQuality; fill-rule:evenodd; clip-rule:evenodd" xmlns:xlink="http://www.w3.org/1999/xlink">
<g><path style="opacity:1" fill="#18c3df" d="M -0.5,-0.5 C 212.833,-0.5 426.167,-0.5 639.5,-0.5C 639.5,52.8333 639.5,106.167 639.5,159.5C 426.167,159.5 212.833,159.5 -0.5,159.5C -0.5,106.167 -0.5,52.8333 -0.5,-0.5 Z"/></g>
<g><path style="opacity:1" fill="#fefefe" d="M -0.5,159.5 C 212.833,159.5 426.167,159.5 639.5,159.5C 639.5,212.833 639.5,266.167 639.5,319.5C 426.167,319.5 212.833,319.5 -0.5,319.5C -0.5,266.167 -0.5,212.833 -0.5,159.5 Z"/></g>
<g><path style="opacity:1" fill="#2dc5e0" d="M 185.5,170.5 C 188.456,176.035 190.456,182.035 191.5,188.5C 198.175,188.334 204.842,188.5 211.5,189C 205.892,192.276 200.558,195.943 195.5,200C 197.593,205.445 199.593,210.945 201.5,216.5C 200.998,217.521 200.332,217.688 199.5,217C 195.286,213.118 190.786,209.618 186,206.5C 180.846,210.922 175.68,214.588 170.5,217.5C 172.402,211.962 174.402,206.462 176.5,201C 176.241,199.739 175.574,198.739 174.5,198C 170.167,195 165.833,192 161.5,189C 167.859,188.831 174.193,188.331 180.5,187.5C 182.374,181.88 184.041,176.213 185.5,170.5 Z"/></g>
<g><path style="opacity:1" fill="#2dc5e0" d="M 452.5,170.5 C 454.867,175.928 456.867,181.595 458.5,187.5C 464.807,188.331 471.141,188.831 477.5,189C 473.167,192 468.833,195 464.5,198C 463.426,198.739 462.759,199.739 462.5,201C 464.97,206.738 466.803,212.572 468,218.5C 463,214.5 458,210.5 453,206.5C 448.41,209.879 443.91,213.379 439.5,217C 438.668,217.688 438.002,217.521 437.5,216.5C 439.407,210.945 441.407,205.445 443.5,200C 438.442,195.943 433.108,192.276 427.5,189C 434.158,188.5 440.825,188.334 447.5,188.5C 448.767,182.37 450.433,176.37 452.5,170.5 Z"/></g>
<g><path style="opacity:1" fill="#28c5e0" d="M 318.5,213.5 C 319.586,213.62 320.253,214.287 320.5,215.5C 322.075,220.725 323.742,225.892 325.5,231C 331.833,231.333 338.167,231.667 344.5,232C 338.739,234.938 333.739,238.771 329.5,243.5C 331.543,249.113 333.043,254.779 334,260.5C 329.436,256.469 324.603,252.802 319.5,249.5C 314.397,252.802 309.564,256.469 305,260.5C 306.538,254.218 307.871,247.884 309,241.5C 304.412,238.456 299.912,235.29 295.5,232C 301.5,231.667 307.5,231.333 313.5,231C 315.67,225.322 317.337,219.488 318.5,213.5 Z"/></g>
<g><path style="opacity:1" fill="#2dc5e0" d="M 185.5,250.5 C 188.456,256.035 190.456,262.035 191.5,268.5C 198.175,268.334 204.842,268.5 211.5,269C 205.892,272.276 200.558,275.943 195.5,280C 197.593,285.445 199.593,290.945 201.5,296.5C 200.998,297.521 200.332,297.688 199.5,297C 195.286,293.118 190.786,289.618 186,286.5C 180.846,290.922 175.68,294.588 170.5,297.5C 172.402,291.962 174.402,286.462 176.5,281C 176.241,279.739 175.574,278.739 174.5,278C 170.167,275 165.833,272 161.5,269C 167.859,268.831 174.193,268.331 180.5,267.5C 182.374,261.88 184.041,256.213 185.5,250.5 Z"/></g>
<g><path style="opacity:1" fill="#2dc5e0" d="M 452.5,250.5 C 454.867,255.928 456.867,261.595 458.5,267.5C 464.807,268.331 471.141,268.831 477.5,269C 473.167,272 468.833,275 464.5,278C 463.426,278.739 462.759,279.739 462.5,281C 464.97,286.738 466.803,292.572 468,298.5C 463,294.5 458,290.5 453,286.5C 448.41,289.879 443.91,293.379 439.5,297C 438.668,297.688 438.002,297.521 437.5,296.5C 439.407,290.945 441.407,285.445 443.5,280C 438.442,275.943 433.108,272.276 427.5,269C 434.158,268.5 440.825,268.334 447.5,268.5C 448.767,262.37 450.433,256.37 452.5,250.5 Z"/></g>
<g><path style="opacity:1" fill="#18c3df" d="M -0.5,319.5 C 212.833,319.5 426.167,319.5 639.5,319.5C 639.5,372.833 639.5,426.167 639.5,479.5C 426.167,479.5 212.833,479.5 -0.5,479.5C -0.5,426.167 -0.5,372.833 -0.5,319.5 Z"/></g>
</svg>
