<?xml version="1.0" encoding="UTF-8"?>
<!DOCTYPE svg PUBLIC "-//W3C//DTD SVG 1.1//EN" "http://www.w3.org/Graphics/SVG/1.1/DTD/svg11.dtd">
<svg xmlns="http://www.w3.org/2000/svg" version="1.1" width="640px" height="480px" style="shape-rendering:geometricPrecision; text-rendering:geometricPrecision; image-rendering:optimizeQuality; fill-rule:evenodd; clip-rule:evenodd" xmlns:xlink="http://www.w3.org/1999/xlink">
<g><path style="opacity:1" fill="#ec1b2e" d="M -0.5,-0.5 C 212.833,-0.5 426.167,-0.5 639.5,-0.5C 639.5,159.5 639.5,319.5 639.5,479.5C 426.167,479.5 212.833,479.5 -0.5,479.5C -0.5,319.5 -0.5,159.5 -0.5,-0.5 Z"/></g>
<g><path style="opacity:1" fill="#fffcfc" d="M 303.5,234.5 C 294.699,226.561 289.865,216.561 289,204.5C 287.921,191.894 290.421,180.061 296.5,169C 296.026,167.392 295.359,167.226 294.5,168.5C 285.291,185.593 284.124,203.26 291,221.5C 294.199,227.907 298.366,233.574 303.5,238.5C 272.246,221.318 259.746,194.984 266,159.5C 278.308,121.428 304.474,102.595 344.5,103C 339.287,106.546 335.12,111.046 332,116.5C 331.333,121.167 331.333,125.833 332,130.5C 334.391,136.949 337.058,143.282 340,149.5C 341.944,171.455 332.777,186.621 312.5,195C 300.309,206.073 297.309,219.239 303.5,234.5 Z"/></g>
<g><path style="opacity:1" fill="#ed2f39" d="M 299.5,147.5 C 301.73,149.535 304.23,151.201 307,152.5C 314.258,149.361 315.425,151.028 310.5,157.5C 312.167,159.5 313.833,161.5 315.5,163.5C 312.966,164.777 310.466,164.777 308,163.5C 306.088,165.657 304.421,167.991 303,170.5C 302.333,167.833 301.667,165.167 301,162.5C 298.198,161.67 295.365,160.837 292.5,160C 294.37,158.634 296.37,157.467 298.5,156.5C 299.484,153.572 299.817,150.572 299.5,147.5 Z"/></g>
<g><path style="opacity:1" fill="#fffcfc" d="M 303.5,247.5 C 278.588,259.401 256.588,255.235 237.5,235C 236.517,234.409 235.85,234.743 235.5,236C 254.987,257.119 277.987,261.952 304.5,250.5C 283.142,270.34 258.475,275.84 230.5,267C 193.821,249.145 178.654,219.978 185,179.5C 185.75,175.581 187.083,171.915 189,168.5C 191.656,181.163 199.323,188.163 212,189.5C 231.54,184.458 247.54,189.791 260,205.5C 263.588,212.763 265.921,220.429 267,228.5C 274.592,243.712 286.758,250.045 303.5,247.5 Z"/></g>
<g><path style="opacity:1" fill="#fffbfc" d="M 317.5,233.5 C 316.475,233.103 316.308,232.437 317,231.5C 331.564,209.307 352.064,200.307 378.5,204.5C 356.025,198.712 336.858,204.378 321,221.5C 318.318,224.865 316.151,228.531 314.5,232.5C 319.428,200.717 338.428,181.217 371.5,174C 413.463,171.299 441.463,189.632 455.5,229C 455.167,229.5 454.833,230 454.5,230.5C 444.747,222.295 434.413,221.462 423.5,228C 418.944,231.803 414.61,235.803 410.5,240C 398.762,246.242 386.762,246.909 374.5,242C 367.928,238.098 361.928,233.431 356.5,228C 344.043,221.515 332.043,222.181 320.5,230C 319.29,231.039 318.29,232.206 317.5,233.5 Z"/></g>
<g><path style="opacity:1" fill="#ef3b43" d="M 303.5,234.5 C 305.296,235.793 306.963,237.293 308.5,239C 306.605,238.62 304.938,238.453 303.5,238.5C 298.366,233.574 294.199,227.907 291,221.5C 284.124,203.26 285.291,185.593 294.5,168.5C 295.359,167.226 296.026,167.392 296.5,169C 290.421,180.061 287.921,191.894 289,204.5C 289.865,216.561 294.699,226.561 303.5,234.5 Z"/></g>
<g><path style="opacity:1" fill="#ed2a36" d="M 385.5,199.5 C 387.516,201.348 389.683,203.015 392,204.5C 394.227,203.637 396.393,202.637 398.5,201.5C 398.833,201.833 399.167,202.167 399.5,202.5C 395.33,206.999 395.664,211.166 400.5,215C 397.833,215.333 395.167,215.667 392.5,216C 390.877,218.08 389.377,220.246 388,222.5C 387.333,219.833 386.667,217.167 386,214.5C 383.423,213.729 380.923,212.729 378.5,211.5C 380.583,210.041 382.75,208.708 385,207.5C 385.497,204.854 385.664,202.187 385.5,199.5 Z"/></g>
<g><path style="opacity:1" fill="#ed2b37" d="M 224.5,213.5 C 226.774,214.597 228.941,215.93 231,217.5C 233.515,216.885 235.848,215.885 238,214.5C 237.52,217.165 236.687,219.831 235.5,222.5C 236.559,225.068 238.226,227.235 240.5,229C 237.486,229.128 234.486,229.128 231.5,229C 230,231.167 228.5,233.333 227,235.5C 226.474,232.728 225.641,230.062 224.5,227.5C 215.789,226.362 215.456,224.362 223.5,221.5C 224.48,218.914 224.813,216.247 224.5,213.5 Z"/></g>
<g><path style="opacity:1" fill="#ef3a44" d="M 317.5,233.5 C 317.217,234.289 316.717,234.956 316,235.5C 315.768,234.263 315.268,233.263 314.5,232.5C 316.151,228.531 318.318,224.865 321,221.5C 336.858,204.378 356.025,198.712 378.5,204.5C 352.064,200.307 331.564,209.307 317,231.5C 316.308,232.437 316.475,233.103 317.5,233.5 Z"/></g>
<g><path style="opacity:1" fill="#fffcfc" d="M 333.5,246.5 C 353.907,255.929 365.574,271.929 368.5,294.5C 369.702,290.135 369.535,285.802 368,281.5C 362.414,264.591 351.58,252.591 335.5,245.5C 331.242,244.017 326.909,242.684 322.5,241.5C 370.795,238.795 397.795,261.462 403.5,309.5C 403.217,338.07 391.384,360.404 368,376.5C 369.314,372.015 370.148,367.348 370.5,362.5C 370.297,355.262 367.297,349.428 361.5,345C 339.843,336.528 330.343,320.694 333,297.5C 335,292.833 337,288.167 339,283.5C 343.017,269.394 339.517,257.56 328.5,248C 325.382,246.107 322.049,244.774 318.5,244C 323.544,244.285 328.544,245.118 333.5,246.5 Z"/></g>
<g><path style="opacity:1" fill="#ef3d45" d="M 303.5,247.5 C 304.527,246.152 305.86,245.652 307.5,246C 306.672,246.915 305.672,247.581 304.5,248C 307.113,249.071 307.113,249.905 304.5,250.5C 277.987,261.952 254.987,257.119 235.5,236C 235.85,234.743 236.517,234.409 237.5,235C 256.588,255.235 278.588,259.401 303.5,247.5 Z"/></g>
<g><path style="opacity:1" fill="#fffcfc" d="M 313.5,275.5 C 307.891,292.453 296.891,304.786 280.5,312.5C 281.365,313.583 282.365,313.749 283.5,313C 298.619,305.719 308.952,294.219 314.5,278.5C 317.294,270.012 318.127,261.345 317,252.5C 331.088,285.154 325.254,313.654 299.5,338C 274.771,356.137 248.104,359.47 219.5,348C 214.134,345.322 209.134,342.156 204.5,338.5C 207.167,337.833 209.833,337.167 212.5,336.5C 220.05,335.309 225.55,331.309 229,324.5C 231.281,318.71 232.614,312.71 233,306.5C 238.229,294.272 247.062,285.772 259.5,281C 268.842,280.766 278.175,280.766 287.5,281C 302.998,277.168 311.832,267.334 314,251.5C 314.77,259.548 314.603,267.548 313.5,275.5 Z"/></g>
<g><path style="opacity:1" fill="#f04249" d="M 335.5,245.5 C 351.58,252.591 362.414,264.591 368,281.5C 369.535,285.802 369.702,290.135 368.5,294.5C 365.574,271.929 353.907,255.929 333.5,246.5C 334.492,246.672 335.158,246.338 335.5,245.5 Z"/></g>
<g><path style="opacity:1" fill="#ed2c38" d="M 362.5,297.5 C 364.774,298.597 366.941,299.93 369,301.5C 371.35,300.496 373.684,299.496 376,298.5C 375.661,301.047 374.827,303.547 373.5,306C 374.376,308.879 376.042,311.213 378.5,313C 375.486,313.128 372.486,313.128 369.5,313C 368,315.167 366.5,317.333 365,319.5C 364.713,317.109 364.213,314.776 363.5,312.5C 360.997,311.036 358.33,309.869 355.5,309C 357.667,307.5 359.833,306 362,304.5C 362.497,302.19 362.663,299.857 362.5,297.5 Z"/></g>
<g><path style="opacity:1" fill="#ee3842" d="M 313.5,275.5 C 313.263,276.791 313.596,277.791 314.5,278.5C 308.952,294.219 298.619,305.719 283.5,313C 282.365,313.749 281.365,313.583 280.5,312.5C 296.891,304.786 307.891,292.453 313.5,275.5 Z"/></g>
<g><path style="opacity:1" fill="#ed2b38" d="M 262.5,304.5 C 264.296,305.793 265.963,307.293 267.5,309C 270.17,309.543 272.67,309.043 275,307.5C 275.5,307.833 276,308.167 276.5,308.5C 275.5,310.5 274.5,312.5 273.5,314.5C 275.288,316.576 276.954,318.743 278.5,321C 275.833,321 273.167,321 270.5,321C 268.877,323.08 267.377,325.246 266,327.5C 264.748,324.986 264.248,322.32 264.5,319.5C 261.375,319.135 258.375,318.302 255.5,317C 261.517,315.048 263.851,310.881 262.5,304.5 Z"/></g>
<g><path style="opacity:1" fill="#f798a0" d="M 212.5,336.5 C 209.833,337.167 207.167,337.833 204.5,338.5C 203.711,338.217 203.044,337.717 202.5,337C 205.817,336.502 209.15,336.335 212.5,336.5 Z"/></g>
</svg>
