<?xml version="1.0" encoding="UTF-8"?>
<!DOCTYPE svg PUBLIC "-//W3C//DTD SVG 1.1//EN" "http://www.w3.org/Graphics/SVG/1.1/DTD/svg11.dtd">
<svg xmlns="http://www.w3.org/2000/svg" version="1.1" width="640px" height="480px" style="shape-rendering:geometricPrecision; text-rendering:geometricPrecision; image-rendering:optimizeQuality; fill-rule:evenodd; clip-rule:evenodd" xmlns:xlink="http://www.w3.org/1999/xlink">
<g><path style="opacity:1" fill="#003797" d="M -0.5,-0.5 C 61.5,-0.5 123.5,-0.5 185.5,-0.5C 185.5,61.5 185.5,123.5 185.5,185.5C 123.5,185.5 61.5,185.5 -0.5,185.5C -0.5,123.5 -0.5,61.5 -0.5,-0.5 Z"/></g>
<g><path style="opacity:1" fill="#fefffe" d="M 186.5,-0.5 C 195.167,-0.5 203.833,-0.5 212.5,-0.5C 212.5,70.5 212.5,141.5 212.5,212.5C 141.5,212.5 70.5,212.5 -0.5,212.5C -0.5,203.833 -0.5,195.167 -0.5,186.5C 61.8333,186.5 124.167,186.5 186.5,186.5C 186.5,124.167 186.5,61.8333 186.5,-0.5 Z"/></g>
<g><path style="opacity:1" fill="#d72b2a" d="M 212.5,-0.5 C 230.5,-0.5 248.5,-0.5 266.5,-0.5C 266.5,70.5 266.5,141.5 266.5,212.5C 390.833,212.5 515.167,212.5 639.5,212.5C 639.5,230.5 639.5,248.5 639.5,266.5C 515.167,266.5 390.833,266.5 266.5,266.5C 266.5,337.5 266.5,408.5 266.5,479.5C 248.5,479.5 230.5,479.5 212.5,479.5C 212.5,408.5 212.5,337.5 212.5,266.5C 141.5,266.5 70.5,266.5 -0.5,266.5C -0.5,248.5 -0.5,230.5 -0.5,212.5C 70.5,212.5 141.5,212.5 212.5,212.5C 212.5,141.5 212.5,70.5 212.5,-0.5 Z"/></g>
<g><path style="opacity:1" fill="#fefffe" d="M 266.5,-0.5 C 275.167,-0.5 283.833,-0.5 292.5,-0.5C 292.5,61.8333 292.5,124.167 292.5,186.5C 408.167,186.5 523.833,186.5 639.5,186.5C 639.5,195.167 639.5,203.833 639.5,212.5C 515.167,212.5 390.833,212.5 266.5,212.5C 266.5,141.5 266.5,70.5 266.5,-0.5 Z"/></g>
<g><path style="opacity:1" fill="#003797" d="M 293.5,-0.5 C 408.833,-0.5 524.167,-0.5 639.5,-0.5C 639.5,61.5 639.5,123.5 639.5,185.5C 524.167,185.5 408.833,185.5 293.5,185.5C 293.5,123.5 293.5,61.5 293.5,-0.5 Z"/></g>
<g><path style="opacity:1" fill="#4d74b6" d="M 185.5,-0.5 C 185.833,-0.5 186.167,-0.5 186.5,-0.5C 186.5,61.8333 186.5,124.167 186.5,186.5C 124.167,186.5 61.8333,186.5 -0.5,186.5C -0.5,186.167 -0.5,185.833 -0.5,185.5C 61.5,185.5 123.5,185.5 185.5,185.5C 185.5,123.5 185.5,61.5 185.5,-0.5 Z"/></g>
<g><path style="opacity:1" fill="#4d74b6" d="M 292.5,-0.5 C 292.833,-0.5 293.167,-0.5 293.5,-0.5C 293.5,61.5 293.5,123.5 293.5,185.5C 408.833,185.5 524.167,185.5 639.5,185.5C 639.5,185.833 639.5,186.167 639.5,186.5C 523.833,186.5 408.167,186.5 292.5,186.5C 292.5,124.167 292.5,61.8333 292.5,-0.5 Z"/></g>
<g><path style="opacity:1" fill="#fefffe" d="M -0.5,266.5 C 70.5,266.5 141.5,266.5 212.5,266.5C 212.5,337.5 212.5,408.5 212.5,479.5C 203.833,479.5 195.167,479.5 186.5,479.5C 186.5,417.167 186.5,354.833 186.5,292.5C 124.167,292.5 61.8333,292.5 -0.5,292.5C -0.5,283.833 -0.5,275.167 -0.5,266.5 Z"/></g>
<g><path style="opacity:1" fill="#fefffe" d="M 639.5,266.5 C 639.5,275.167 639.5,283.833 639.5,292.5C 523.833,292.5 408.167,292.5 292.5,292.5C 292.5,354.833 292.5,417.167 292.5,479.5C 283.833,479.5 275.167,479.5 266.5,479.5C 266.5,408.5 266.5,337.5 266.5,266.5C 390.833,266.5 515.167,266.5 639.5,266.5 Z"/></g>
<g><path style="opacity:1" fill="#4d74b6" d="M 639.5,292.5 C 639.5,292.833 639.5,293.167 639.5,293.5C 524.167,293.5 408.833,293.5 293.5,293.5C 293.5,355.5 293.5,417.5 293.5,479.5C 293.167,479.5 292.833,479.5 292.5,479.5C 292.5,417.167 292.5,354.833 292.5,292.5C 408.167,292.5 523.833,292.5 639.5,292.5 Z"/></g>
<g><path style="opacity:1" fill="#003797" d="M -0.5,293.5 C 61.5,293.5 123.5,293.5 185.5,293.5C 185.5,355.5 185.5,417.5 185.5,479.5C 123.5,479.5 61.5,479.5 -0.5,479.5C -0.5,417.5 -0.5,355.5 -0.5,293.5 Z"/></g>
<g><path style="opacity:1" fill="#4d74b6" d="M -0.5,293.5 C -0.5,293.167 -0.5,292.833 -0.5,292.5C 61.8333,292.5 124.167,292.5 186.5,292.5C 186.5,354.833 186.5,417.167 186.5,479.5C 186.167,479.5 185.833,479.5 185.5,479.5C 185.5,417.5 185.5,355.5 185.5,293.5C 123.5,293.5 61.5,293.5 -0.5,293.5 Z"/></g>
<g><path style="opacity:1" fill="#003797" d="M 639.5,293.5 C 639.5,355.5 639.5,417.5 639.5,479.5C 524.167,479.5 408.833,479.5 293.5,479.5C 293.5,417.5 293.5,355.5 293.5,293.5C 408.833,293.5 524.167,293.5 639.5,293.5 Z"/></g>
</svg>
