<?xml version="1.0" encoding="UTF-8"?>
<!DOCTYPE svg PUBLIC "-//W3C//DTD SVG 1.1//EN" "http://www.w3.org/Graphics/SVG/1.1/DTD/svg11.dtd">
<svg xmlns="http://www.w3.org/2000/svg" version="1.1" width="640px" height="480px" style="shape-rendering:geometricPrecision; text-rendering:geometricPrecision; image-rendering:optimizeQuality; fill-rule:evenodd; clip-rule:evenodd" xmlns:xlink="http://www.w3.org/1999/xlink">
<g><path style="opacity:1" fill="#fe9932" d="M -0.5,-0.5 C 212.833,-0.5 426.167,-0.5 639.5,-0.5C 639.5,52.8333 639.5,106.167 639.5,159.5C 426.167,159.5 212.833,159.5 -0.5,159.5C -0.5,106.167 -0.5,52.8333 -0.5,-0.5 Z"/></g>
<g><path style="opacity:1" fill="#fefefe" d="M -0.5,159.5 C 212.833,159.5 426.167,159.5 639.5,159.5C 639.5,212.833 639.5,266.167 639.5,319.5C 426.167,319.5 212.833,319.5 -0.5,319.5C -0.5,266.167 -0.5,212.833 -0.5,159.5 Z"/></g>
<g><path style="opacity:1" fill="#0f088b" d="M 309.5,175.5 C 348.641,173.832 373.141,191.832 383,229.5C 385.519,267.332 368.686,291.499 332.5,302C 299.977,306.656 276.144,294.489 261,265.5C 249.226,232.494 257.393,205.661 285.5,185C 293.191,180.721 301.191,177.554 309.5,175.5 Z"/></g>
<g><path style="opacity:1" fill="#f3f3f9" d="M 314.5,183.5 C 317.833,183.5 321.167,183.5 324.5,183.5C 324.5,184.5 324.5,185.5 324.5,186.5C 326.827,186.753 328.827,186.086 330.5,184.5C 332.833,185.167 335.167,185.833 337.5,186.5C 338.401,190.299 340.568,191.299 344,189.5C 348.481,190.135 350.981,192.635 351.5,197C 358.333,197.167 361.833,200.667 362,207.5C 366.365,208.019 368.865,210.519 369.5,215C 368.67,216.465 368.504,217.965 369,219.5C 372.625,221.056 374.458,223.889 374.5,228C 371.823,230.793 371.99,233.293 375,235.5C 376.188,239.751 375.355,243.417 372.5,246.5C 374.435,249.988 374.435,253.654 372.5,257.5C 371.372,258.262 370.205,258.929 369,259.5C 370.056,263.355 369.223,266.855 366.5,270C 364.899,270.273 363.399,270.773 362,271.5C 361.833,278.333 358.333,281.833 351.5,282C 350.981,286.365 348.481,288.865 344,289.5C 342.535,288.67 341.035,288.504 339.5,289C 338.939,290.676 337.939,292.009 336.5,293C 332.927,294.69 329.594,294.523 326.5,292.5C 324.594,294.242 322.26,295.242 319.5,295.5C 318.167,295.333 316.833,295.167 315.5,295C 313.293,291.99 310.793,291.823 308,294.5C 303.889,294.458 301.056,292.625 299.5,289C 297.965,288.504 296.465,288.67 295,289.5C 290.781,288.917 288.448,286.583 288,282.5C 280.955,282.122 277.289,278.455 277,271.5C 272.635,270.981 270.135,268.481 269.5,264C 271.299,260.568 270.299,258.401 266.5,257.5C 265.833,255.167 265.167,252.833 264.5,250.5C 266.086,248.827 266.753,246.827 266.5,244.5C 265.5,244.5 264.5,244.5 263.5,244.5C 263.5,241.167 263.5,237.833 263.5,234.5C 264.5,234.5 265.5,234.5 266.5,234.5C 266.604,231.91 265.937,229.577 264.5,227.5C 264.626,223.563 266.46,220.896 270,219.5C 270.496,217.965 270.33,216.465 269.5,215C 270.135,210.519 272.635,208.019 277,207.5C 277.121,200.712 280.621,197.212 287.5,197C 288.019,192.635 290.519,190.135 295,189.5C 296.465,190.33 297.965,190.496 299.5,190C 300.896,186.46 303.563,184.626 307.5,184.5C 309.577,185.937 311.91,186.604 314.5,186.5C 314.5,185.5 314.5,184.5 314.5,183.5 Z"/></g>
<g><path style="opacity:1" fill="#7570bd" d="M 331.5,195.5 C 331.167,195.5 330.833,195.5 330.5,195.5C 331.327,192.868 332.16,190.202 333,187.5C 333.433,190.419 332.933,193.086 331.5,195.5 Z"/></g>
<g><path style="opacity:1" fill="#6660b5" d="M 359.5,216.5 C 360.665,214.584 362.332,213.751 364.5,214C 363.09,215.372 361.423,216.205 359.5,216.5 Z"/></g>
<g><path style="opacity:1" fill="#6f6bba" d="M 275.5,227.5 C 275.5,227.833 275.5,228.167 275.5,228.5C 272.868,227.673 270.202,226.84 267.5,226C 270.419,225.567 273.086,226.067 275.5,227.5 Z"/></g>
<g><path style="opacity:1" fill="#201690" d="M 330.5,195.5 C 330.833,195.5 331.167,195.5 331.5,195.5C 329.558,207.054 327.058,218.387 324,229.5C 329.816,218.536 336.15,207.869 343,197.5C 343.654,196.304 344.154,196.304 344.5,197.5C 339.05,208.908 332.716,219.741 325.5,230C 326,230.5 326.5,231 327,231.5C 334.368,220.946 343.201,212.613 353.5,206.5C 346.185,215.649 338.018,223.982 329,231.5C 328.333,232.167 328.333,232.833 329,233.5C 338.334,226.415 348.5,220.748 359.5,216.5C 350.181,223.628 340.181,229.794 329.5,235C 341.28,231.694 353.28,228.861 365.5,226.5C 368.063,226.737 368.063,227.237 365.5,228C 353.958,231.681 342.292,234.848 330.5,237.5C 341.096,237.906 351.763,238.239 362.5,238.5C 362.5,239.167 362.5,239.833 362.5,240.5C 351.787,241.315 341.12,241.649 330.5,241.5C 343.03,244.288 355.364,247.788 367.5,252C 366.833,252.167 366.167,252.333 365.5,252.5C 353.262,250.131 341.262,247.298 329.5,244C 340.181,249.206 350.181,255.372 359.5,262.5C 348.5,258.252 338.334,252.585 329,245.5C 328.5,246 328,246.5 327.5,247C 337.189,253.682 345.022,261.849 351,271.5C 342.204,265.038 334.371,257.538 327.5,249C 326.833,248.333 326.167,248.333 325.5,249C 333.478,260.131 339.978,271.965 345,284.5C 337.232,273.298 330.232,261.631 324,249.5C 327.438,260.176 329.938,271.176 331.5,282.5C 331.5,283.167 331.167,283.5 330.5,283.5C 326.892,272.674 323.892,261.674 321.5,250.5C 321.647,262.126 320.98,273.792 319.5,285.5C 318.02,273.792 317.353,262.126 317.5,250.5C 315.109,261.672 312.109,272.672 308.5,283.5C 307.833,283.5 307.5,283.167 307.5,282.5C 309.062,271.176 311.562,260.176 315,249.5C 309.1,260.966 302.434,271.966 295,282.5C 299.69,270.63 305.856,259.463 313.5,249C 312.833,248.333 312.167,248.333 311.5,249C 304.961,257.04 297.628,264.206 289.5,270.5C 289.167,270.5 288.833,270.5 288.5,270.5C 294.602,261.23 302.269,253.397 311.5,247C 311,246.5 310.5,246 310,245.5C 299.537,253.144 288.37,259.31 276.5,264C 287.034,256.566 298.034,249.9 309.5,244C 297.036,247.427 284.37,250.093 271.5,252C 283.535,247.376 295.868,243.876 308.5,241.5C 296.528,241.431 284.528,240.764 272.5,239.5C 284.486,237.722 296.486,237.055 308.5,237.5C 297.226,235.52 286.226,232.52 275.5,228.5C 275.5,228.167 275.5,227.833 275.5,227.5C 287.045,229.441 298.378,231.941 309.5,235C 298.034,229.1 287.034,222.434 276.5,215C 288.37,219.69 299.537,225.856 310,233.5C 310.667,232.833 310.667,232.167 310,231.5C 300.815,223.948 292.648,215.448 285.5,206C 295.175,212.574 303.841,220.574 311.5,230C 312.167,230.667 312.833,230.667 313.5,230C 311.333,227.167 309.167,224.333 307,221.5C 302.319,212.477 297.986,203.477 294,194.5C 301.768,205.702 308.768,217.369 315,229.5C 311.573,217.031 308.906,204.365 307,191.5C 311.484,203.616 315.15,215.949 318,228.5C 317.058,216.462 317.558,204.462 319.5,192.5C 321.442,204.462 321.942,216.462 321,228.5C 323.456,217.297 326.623,206.297 330.5,195.5 Z"/></g>
<g><path style="opacity:1" fill="#8b89c8" d="M 362.5,238.5 C 374.5,239.167 374.5,239.833 362.5,240.5C 362.5,239.833 362.5,239.167 362.5,238.5 Z"/></g>
<g><path style="opacity:1" fill="#6963b7" d="M 359.5,262.5 C 361.423,262.795 363.09,263.628 364.5,265C 362.332,265.249 360.665,264.416 359.5,262.5 Z"/></g>
<g><path style="opacity:1" fill="#877cc3" d="M 288.5,270.5 C 288.833,270.5 289.167,270.5 289.5,270.5C 288.438,272.757 286.772,273.923 284.5,274C 285.705,272.624 287.038,271.458 288.5,270.5 Z"/></g>
<g><path style="opacity:1" fill="#8b88c8" d="M 307.5,282.5 C 307.5,283.167 307.833,283.5 308.5,283.5C 307.774,286.179 306.941,288.846 306,291.5C 305.68,288.28 306.18,285.28 307.5,282.5 Z"/></g>
<g><path style="opacity:1" fill="#8b89c8" d="M 331.5,282.5 C 332.82,285.28 333.32,288.28 333,291.5C 332.059,288.846 331.226,286.179 330.5,283.5C 331.167,283.5 331.5,283.167 331.5,282.5 Z"/></g>
<g><path style="opacity:1" fill="#128806" d="M -0.5,319.5 C 212.833,319.5 426.167,319.5 639.5,319.5C 639.5,372.833 639.5,426.167 639.5,479.5C 426.167,479.5 212.833,479.5 -0.5,479.5C -0.5,426.167 -0.5,372.833 -0.5,319.5 Z"/></g>
</svg>
