<?xml version="1.0" encoding="UTF-8"?>
<!DOCTYPE svg PUBLIC "-//W3C//DTD SVG 1.1//EN" "http://www.w3.org/Graphics/SVG/1.1/DTD/svg11.dtd">
<svg xmlns="http://www.w3.org/2000/svg" version="1.1" width="640px" height="480px" style="shape-rendering:geometricPrecision; text-rendering:geometricPrecision; image-rendering:optimizeQuality; fill-rule:evenodd; clip-rule:evenodd" xmlns:xlink="http://www.w3.org/1999/xlink">
<g><path style="opacity:1" fill="#249f40" d="M -0.5,-0.5 C 212.833,-0.5 426.167,-0.5 639.5,-0.5C 639.5,46.8333 639.5,94.1667 639.5,141.5C 634.833,141.5 630.167,141.5 625.5,141.5C 625.5,145.5 625.5,149.5 625.5,153.5C 628.482,153.037 631.482,152.704 634.5,152.5C 634.5,151.5 634.5,150.5 634.5,149.5C 632.833,149.5 631.167,149.5 629.5,149.5C 629.5,147.833 629.5,146.167 629.5,144.5C 632.833,144.5 636.167,144.5 639.5,144.5C 639.5,148.833 639.5,153.167 639.5,157.5C 634.833,157.5 630.167,157.5 625.5,157.5C 625.5,158.833 625.5,160.167 625.5,161.5C 623.833,161.5 622.167,161.5 620.5,161.5C 620.5,159.833 620.5,158.167 620.5,156.5C 609.321,156.172 598.321,156.505 587.5,157.5C 587.5,158.833 587.5,160.167 587.5,161.5C 585.833,161.5 584.167,161.5 582.5,161.5C 582.5,160.167 582.5,158.833 582.5,157.5C 571.167,157.5 559.833,157.5 548.5,157.5C 548.5,158.833 548.5,160.167 548.5,161.5C 546.833,161.5 545.167,161.5 543.5,161.5C 543.5,160.167 543.5,158.833 543.5,157.5C 533.167,157.5 522.833,157.5 512.5,157.5C 512.5,158.833 512.5,160.167 512.5,161.5C 510.833,161.5 509.167,161.5 507.5,161.5C 507.5,159.833 507.5,158.167 507.5,156.5C 496.321,156.172 485.321,156.505 474.5,157.5C 474.5,158.833 474.5,160.167 474.5,161.5C 472.5,161.5 470.5,161.5 468.5,161.5C 468.5,160.167 468.5,158.833 468.5,157.5C 457.5,157.5 446.5,157.5 435.5,157.5C 435.5,158.833 435.5,160.167 435.5,161.5C 433.833,161.5 432.167,161.5 430.5,161.5C 430.5,159.833 430.5,158.167 430.5,156.5C 419.986,156.172 409.653,156.506 399.5,157.5C 399.5,158.833 399.5,160.167 399.5,161.5C 397.5,161.5 395.5,161.5 393.5,161.5C 393.5,160.167 393.5,158.833 393.5,157.5C 382.5,157.5 371.5,157.5 360.5,157.5C 360.5,158.833 360.5,160.167 360.5,161.5C 358.5,161.5 356.5,161.5 354.5,161.5C 354.5,160.167 354.5,158.833 354.5,157.5C 343.833,157.5 333.167,157.5 322.5,157.5C 322.5,158.833 322.5,160.167 322.5,161.5C 320.5,161.5 318.5,161.5 316.5,161.5C 316.5,160.167 316.5,158.833 316.5,157.5C 305.833,157.5 295.167,157.5 284.5,157.5C 284.5,158.833 284.5,160.167 284.5,161.5C 282.5,161.5 280.5,161.5 278.5,161.5C 278.5,160.167 278.5,158.833 278.5,157.5C 268.013,156.506 257.346,156.172 246.5,156.5C 246.5,158.167 246.5,159.833 246.5,161.5C 244.833,161.5 243.167,161.5 241.5,161.5C 241.5,160.167 241.5,158.833 241.5,157.5C 230.5,157.5 219.5,157.5 208.5,157.5C 208.5,158.833 208.5,160.167 208.5,161.5C 206.833,161.5 205.167,161.5 203.5,161.5C 203.5,160.167 203.5,158.833 203.5,157.5C 192.5,157.5 181.5,157.5 170.5,157.5C 170.5,158.833 170.5,160.167 170.5,161.5C 168.833,161.5 167.167,161.5 165.5,161.5C 165.5,160.167 165.5,158.833 165.5,157.5C 154.833,157.5 144.167,157.5 133.5,157.5C 133.5,158.833 133.5,160.167 133.5,161.5C 131.5,161.5 129.5,161.5 127.5,161.5C 127.5,160.167 127.5,158.833 127.5,157.5C 116.679,156.505 105.679,156.172 94.5,156.5C 94.5,158.167 94.5,159.833 94.5,161.5C 92.8333,161.5 91.1667,161.5 89.5,161.5C 89.5,160.167 89.5,158.833 89.5,157.5C 78.8333,157.5 68.1667,157.5 57.5,157.5C 57.5,158.833 57.5,160.167 57.5,161.5C 55.5,161.5 53.5,161.5 51.5,161.5C 51.5,160.167 51.5,158.833 51.5,157.5C 41.1667,157.5 30.8333,157.5 20.5,157.5C 20.5,158.833 20.5,160.167 20.5,161.5C 18.5,161.5 16.5,161.5 14.5,161.5C 14.5,160.167 14.5,158.833 14.5,157.5C 9.5,157.5 4.5,157.5 -0.5,157.5C -0.5,155.833 -0.5,154.167 -0.5,152.5C 4.16667,152.5 8.83333,152.5 13.5,152.5C 13.5,148.833 13.5,145.167 13.5,141.5C 10.5,141.5 7.5,141.5 4.5,141.5C 4.5,142.5 4.5,143.5 4.5,144.5C 6.5,144.5 8.5,144.5 10.5,144.5C 10.5,146.167 10.5,147.833 10.5,149.5C 7.16667,149.5 3.83333,149.5 0.5,149.5C 0.8064,146.615 0.473067,143.948 -0.5,141.5C -0.5,140.167 -0.5,138.833 -0.5,137.5C 9.5,137.5 19.5,137.5 29.5,137.5C 29.5,136.167 29.5,134.833 29.5,133.5C 19.5,133.5 9.5,133.5 -0.5,133.5C -0.5,88.8333 -0.5,44.1667 -0.5,-0.5 Z"/></g>
<g><path style="opacity:1" fill="#d8eedd" d="M -0.5,133.5 C 9.5,133.5 19.5,133.5 29.5,133.5C 29.5,134.833 29.5,136.167 29.5,137.5C 19.5,137.5 9.5,137.5 -0.5,137.5C -0.5,136.167 -0.5,134.833 -0.5,133.5 Z"/></g>
<g><path style="opacity:1" fill="#f7fbf8" d="M 34.5,133.5 C 35.5,133.5 36.5,133.5 37.5,133.5C 37.5,138.833 37.5,144.167 37.5,149.5C 39.1667,149.5 40.8333,149.5 42.5,149.5C 42.5,144.5 42.5,139.5 42.5,134.5C 43.5,134.5 44.5,134.5 45.5,134.5C 45.5,139.5 45.5,144.5 45.5,149.5C 47.1667,149.5 48.8333,149.5 50.5,149.5C 50.5,144.5 50.5,139.5 50.5,134.5C 51.5,134.5 52.5,134.5 53.5,134.5C 53.8288,140.206 53.4954,145.872 52.5,151.5C 46.561,152.457 40.561,152.79 34.5,152.5C 34.5,149.833 34.5,147.167 34.5,144.5C 31.1667,144.5 27.8333,144.5 24.5,144.5C 24.5,146.167 24.5,147.833 24.5,149.5C 26.1667,149.5 27.8333,149.5 29.5,149.5C 29.5,150.5 29.5,151.5 29.5,152.5C 26.4552,152.508 23.4552,152.841 20.5,153.5C 20.5,149.5 20.5,145.5 20.5,141.5C 25.1667,141.5 29.8333,141.5 34.5,141.5C 34.5,138.833 34.5,136.167 34.5,133.5 Z"/></g>
<g><path style="opacity:1" fill="#fefffe" d="M 59.5,134.5 C 119.5,135.167 119.5,135.833 59.5,136.5C 59.5,135.833 59.5,135.167 59.5,134.5 Z"/></g>
<g><path style="opacity:1" fill="#f0f8f2" d="M 126.5,134.5 C 127.814,136.915 128.481,139.748 128.5,143C 128.458,146.251 128.125,149.417 127.5,152.5C 121.833,152.5 116.167,152.5 110.5,152.5C 110.5,149.833 110.5,147.167 110.5,144.5C 106.833,144.5 103.167,144.5 99.5,144.5C 99.5,146.167 99.5,147.833 99.5,149.5C 101.5,149.5 103.5,149.5 105.5,149.5C 105.5,150.5 105.5,151.5 105.5,152.5C 102.14,152.616 98.8067,152.949 95.5,153.5C 95.5,149.5 95.5,145.5 95.5,141.5C 100.5,141.5 105.5,141.5 110.5,141.5C 110.5,139.167 110.5,136.833 110.5,134.5C 111.5,134.5 112.5,134.5 113.5,134.5C 113.5,139.5 113.5,144.5 113.5,149.5C 115.167,149.5 116.833,149.5 118.5,149.5C 118.5,144.167 118.5,138.833 118.5,133.5C 119.5,133.5 120.5,133.5 121.5,133.5C 121.5,138.833 121.5,144.167 121.5,149.5C 122.833,149.5 124.167,149.5 125.5,149.5C 125.179,144.305 125.513,139.305 126.5,134.5 Z"/></g>
<g><path style="opacity:1" fill="#b0dcba" d="M 126.5,134.5 C 127.209,133.596 128.209,133.263 129.5,133.5C 130.123,140.255 129.456,146.588 127.5,152.5C 128.125,149.417 128.458,146.251 128.5,143C 128.481,139.748 127.814,136.915 126.5,134.5 Z"/></g>
<g><path style="opacity:1" fill="#fefffe" d="M 134.5,134.5 C 194.5,135.167 194.5,135.833 134.5,136.5C 134.5,135.833 134.5,135.167 134.5,134.5 Z"/></g>
<g><path style="opacity:1" fill="#ecf6ee" d="M 200.5,149.5 C 201.166,144.651 201.833,139.651 202.5,134.5C 203.495,140.128 203.829,145.794 203.5,151.5C 203.389,152.117 203.056,152.617 202.5,153C 196.843,153.499 191.176,153.666 185.5,153.5C 185.5,150.5 185.5,147.5 185.5,144.5C 181.833,144.5 178.167,144.5 174.5,144.5C 174.5,146.167 174.5,147.833 174.5,149.5C 176.5,149.5 178.5,149.5 180.5,149.5C 180.5,150.5 180.5,151.5 180.5,152.5C 177.214,152.929 174.047,152.929 171,152.5C 170.501,148.848 170.335,145.182 170.5,141.5C 175.5,141.5 180.5,141.5 185.5,141.5C 185.5,139.167 185.5,136.833 185.5,134.5C 186.5,134.5 187.5,134.5 188.5,134.5C 188.5,139.5 188.5,144.5 188.5,149.5C 189.833,149.5 191.167,149.5 192.5,149.5C 192.334,144.489 192.501,139.489 193,134.5C 194.011,133.663 195.178,133.33 196.5,133.5C 196.5,138.833 196.5,144.167 196.5,149.5C 197.833,149.5 199.167,149.5 200.5,149.5 Z"/></g>
<g><path style="opacity:1" fill="#a3d7af" d="M 203.5,151.5 C 203.829,145.794 203.495,140.128 202.5,134.5C 201.833,139.651 201.166,144.651 200.5,149.5C 200.5,144.167 200.5,138.833 200.5,133.5C 201.833,133.5 203.167,133.5 204.5,133.5C 204.823,139.69 204.49,145.69 203.5,151.5 Z"/></g>
<g><path style="opacity:1" fill="#d8eedd" d="M 209.5,133.5 C 224.833,133.5 240.167,133.5 255.5,133.5C 255.5,134.833 255.5,136.167 255.5,137.5C 240.167,137.5 224.833,137.5 209.5,137.5C 209.5,136.167 209.5,134.833 209.5,133.5 Z"/></g>
<g><path style="opacity:1" fill="#f9fcf9" d="M 260.5,134.5 C 261.5,134.5 262.5,134.5 263.5,134.5C 263.5,139.5 263.5,144.5 263.5,149.5C 265.167,149.5 266.833,149.5 268.5,149.5C 268.5,144.5 268.5,139.5 268.5,134.5C 269.5,134.5 270.5,134.5 271.5,134.5C 271.5,139.5 271.5,144.5 271.5,149.5C 273.167,149.5 274.833,149.5 276.5,149.5C 276.5,144.5 276.5,139.5 276.5,134.5C 277.5,134.5 278.5,134.5 279.5,134.5C 279.5,140.5 279.5,146.5 279.5,152.5C 273.167,152.5 266.833,152.5 260.5,152.5C 260.5,149.833 260.5,147.167 260.5,144.5C 257.167,144.5 253.833,144.5 250.5,144.5C 250.5,146.167 250.5,147.833 250.5,149.5C 252.167,149.5 253.833,149.5 255.5,149.5C 255.5,150.5 255.5,151.5 255.5,152.5C 252.455,152.508 249.455,152.841 246.5,153.5C 246.5,149.5 246.5,145.5 246.5,141.5C 251.167,141.5 255.833,141.5 260.5,141.5C 260.5,139.167 260.5,136.833 260.5,134.5 Z"/></g>
<g><path style="opacity:1" fill="#fefffe" d="M 285.5,134.5 C 345.5,135.167 345.5,135.833 285.5,136.5C 285.5,135.833 285.5,135.167 285.5,134.5 Z"/></g>
<g><path style="opacity:1" fill="#f6fbf7" d="M 351.5,149.5 C 352.166,144.651 352.833,139.651 353.5,134.5C 354.495,140.128 354.829,145.794 354.5,151.5C 348.69,152.49 342.69,152.823 336.5,152.5C 336.5,149.833 336.5,147.167 336.5,144.5C 332.833,144.5 329.167,144.5 325.5,144.5C 325.5,146.167 325.5,147.833 325.5,149.5C 327.5,149.5 329.5,149.5 331.5,149.5C 331.5,150.5 331.5,151.5 331.5,152.5C 328.373,152.876 325.373,152.876 322.5,152.5C 321.574,148.906 321.241,145.24 321.5,141.5C 326.5,141.5 331.5,141.5 336.5,141.5C 336.5,138.833 336.5,136.167 336.5,133.5C 337.5,133.5 338.5,133.5 339.5,133.5C 339.5,138.833 339.5,144.167 339.5,149.5C 341.167,149.5 342.833,149.5 344.5,149.5C 344.5,144.167 344.5,138.833 344.5,133.5C 345.5,133.5 346.5,133.5 347.5,133.5C 347.5,138.833 347.5,144.167 347.5,149.5C 348.833,149.5 350.167,149.5 351.5,149.5 Z"/></g>
<g><path style="opacity:1" fill="#aedbb8" d="M 354.5,151.5 C 354.829,145.794 354.495,140.128 353.5,134.5C 352.833,139.651 352.166,144.651 351.5,149.5C 351.5,144.167 351.5,138.833 351.5,133.5C 352.833,133.5 354.167,133.5 355.5,133.5C 355.823,139.69 355.49,145.69 354.5,151.5 Z"/></g>
<g><path style="opacity:1" fill="#daefdf" d="M 361.5,133.5 C 376.833,133.5 392.167,133.5 407.5,133.5C 407.5,134.833 407.5,136.167 407.5,137.5C 392.167,137.5 376.833,137.5 361.5,137.5C 361.5,136.167 361.5,134.833 361.5,133.5 Z"/></g>
<g><path style="opacity:1" fill="#f5fbf6" d="M 412.5,133.5 C 413.5,133.5 414.5,133.5 415.5,133.5C 415.5,138.833 415.5,144.167 415.5,149.5C 417.167,149.5 418.833,149.5 420.5,149.5C 420.5,144.5 420.5,139.5 420.5,134.5C 421.5,134.5 422.5,134.5 423.5,134.5C 423.5,139.5 423.5,144.5 423.5,149.5C 425.167,149.5 426.833,149.5 428.5,149.5C 428.5,144.167 428.5,138.833 428.5,133.5C 429.5,133.5 430.5,133.5 431.5,133.5C 431.666,139.509 431.499,145.509 431,151.5C 424.924,152.476 418.758,152.81 412.5,152.5C 412.5,149.833 412.5,147.167 412.5,144.5C 408.833,144.5 405.167,144.5 401.5,144.5C 401.5,146.167 401.5,147.833 401.5,149.5C 403.5,149.5 405.5,149.5 407.5,149.5C 407.5,150.5 407.5,151.5 407.5,152.5C 405.08,152.292 402.747,152.626 400.5,153.5C 399.522,153.023 398.689,152.357 398,151.5C 397.502,148.183 397.335,144.85 397.5,141.5C 402.5,141.5 407.5,141.5 412.5,141.5C 412.5,138.833 412.5,136.167 412.5,133.5 Z"/></g>
<g><path style="opacity:1" fill="#f3f9f4" d="M 495.5,149.5 C 496.166,144.651 496.833,139.651 497.5,134.5C 498.167,139.651 498.834,144.651 499.5,149.5C 500.833,149.5 502.167,149.5 503.5,149.5C 504.166,144.651 504.833,139.651 505.5,134.5C 506.496,140.463 506.829,146.463 506.5,152.5C 500.69,153.49 494.69,153.823 488.5,153.5C 488.5,150.5 488.5,147.5 488.5,144.5C 484.833,144.5 481.167,144.5 477.5,144.5C 477.5,146.167 477.5,147.833 477.5,149.5C 479.5,149.5 481.5,149.5 483.5,149.5C 483.5,150.5 483.5,151.5 483.5,152.5C 480.214,152.929 477.047,152.929 474,152.5C 473.501,148.848 473.335,145.182 473.5,141.5C 478.5,141.5 483.5,141.5 488.5,141.5C 488.5,139.167 488.5,136.833 488.5,134.5C 489.5,134.5 490.5,134.5 491.5,134.5C 491.5,139.5 491.5,144.5 491.5,149.5C 492.833,149.5 494.167,149.5 495.5,149.5 Z"/></g>
<g><path style="opacity:1" fill="#a5d8b1" d="M 499.5,149.5 C 498.834,144.651 498.167,139.651 497.5,134.5C 496.833,139.651 496.166,144.651 495.5,149.5C 495.5,144.167 495.5,138.833 495.5,133.5C 496.833,133.5 498.167,133.5 499.5,133.5C 499.5,138.833 499.5,144.167 499.5,149.5 Z"/></g>
<g><path style="opacity:1" fill="#94d0a2" d="M 506.5,152.5 C 506.829,146.463 506.496,140.463 505.5,134.5C 504.833,139.651 504.166,144.651 503.5,149.5C 503.5,144.167 503.5,138.833 503.5,133.5C 504.833,133.5 506.167,133.5 507.5,133.5C 507.823,140.022 507.49,146.355 506.5,152.5 Z"/></g>
<g><path style="opacity:1" fill="#fefffe" d="M 558.5,134.5 C 558.5,135.167 558.5,135.833 558.5,136.5C 498.5,135.833 498.5,135.167 558.5,134.5 Z"/></g>
<g><path style="opacity:1" fill="#f5faf6" d="M 563.5,141.5 C 564.165,139.302 564.832,136.969 565.5,134.5C 566.167,139.651 566.834,144.651 567.5,149.5C 568.833,149.5 570.167,149.5 571.5,149.5C 571.5,144.167 571.5,138.833 571.5,133.5C 572.5,133.5 573.5,133.5 574.5,133.5C 574.5,138.833 574.5,144.167 574.5,149.5C 576.167,149.5 577.833,149.5 579.5,149.5C 579.5,144.167 579.5,138.833 579.5,133.5C 580.5,133.5 581.5,133.5 582.5,133.5C 582.5,139.833 582.5,146.167 582.5,152.5C 576.167,152.5 569.833,152.5 563.5,152.5C 563.5,149.833 563.5,147.167 563.5,144.5C 560.167,144.5 556.833,144.5 553.5,144.5C 553.5,146.167 553.5,147.833 553.5,149.5C 555.167,149.5 556.833,149.5 558.5,149.5C 558.5,150.5 558.5,151.5 558.5,152.5C 555.482,152.704 552.482,153.037 549.5,153.5C 549.5,149.5 549.5,145.5 549.5,141.5C 554.167,141.5 558.833,141.5 563.5,141.5 Z"/></g>
<g><path style="opacity:1" fill="#98d2a6" d="M 567.5,149.5 C 566.834,144.651 566.167,139.651 565.5,134.5C 564.832,136.969 564.165,139.302 563.5,141.5C 563.5,138.833 563.5,136.167 563.5,133.5C 564.833,133.5 566.167,133.5 567.5,133.5C 567.5,138.833 567.5,144.167 567.5,149.5 Z"/></g>
<g><path style="opacity:1" fill="#a7d8b3" d="M 59.5,134.5 C 74.6576,133.504 89.9909,133.17 105.5,133.5C 105.5,134.833 105.5,136.167 105.5,137.5C 89.9909,137.83 74.6576,137.496 59.5,136.5C 119.5,135.833 119.5,135.167 59.5,134.5 Z"/></g>
<g><path style="opacity:1" fill="#a7d8b3" d="M 134.5,134.5 C 149.658,133.504 164.991,133.17 180.5,133.5C 180.5,134.833 180.5,136.167 180.5,137.5C 164.991,137.83 149.658,137.496 134.5,136.5C 194.5,135.833 194.5,135.167 134.5,134.5 Z"/></g>
<g><path style="opacity:1" fill="#a8d8b3" d="M 285.5,134.5 C 300.658,133.504 315.991,133.17 331.5,133.5C 331.5,134.833 331.5,136.167 331.5,137.5C 315.991,137.83 300.658,137.496 285.5,136.5C 345.5,135.833 345.5,135.167 285.5,134.5 Z"/></g>
<g><path style="opacity:1" fill="#a6d8b2" d="M 436.5,133.5 C 452.167,133.5 467.833,133.5 483.5,133.5C 483.5,134.833 483.5,136.167 483.5,137.5C 467.833,137.5 452.167,137.5 436.5,137.5C 436.5,136.167 436.5,134.833 436.5,133.5 Z"/></g>
<g><path style="opacity:1" fill="#fefffe" d="M 437.5,134.5 C 452.515,134.167 467.515,134.501 482.5,135.5C 475,135.833 467.5,136.167 460,136.5C 452.136,136.497 444.636,135.831 437.5,134.5 Z"/></g>
<g><path style="opacity:1" fill="#a7d8b3" d="M 558.5,134.5 C 498.5,135.167 498.5,135.833 558.5,136.5C 543.342,137.496 528.009,137.83 512.5,137.5C 512.5,136.167 512.5,134.833 512.5,133.5C 528.009,133.17 543.342,133.504 558.5,134.5 Z"/></g>
<g><path style="opacity:1" fill="#a6d8b2" d="M 588.5,133.5 C 604.167,133.5 619.833,133.5 635.5,133.5C 635.5,134.833 635.5,136.167 635.5,137.5C 619.833,137.5 604.167,137.5 588.5,137.5C 588.5,136.167 588.5,134.833 588.5,133.5 Z"/></g>
<g><path style="opacity:1" fill="#fefffe" d="M 589.5,134.5 C 604.515,134.167 619.515,134.501 634.5,135.5C 627,135.833 619.5,136.167 612,136.5C 604.136,136.497 596.636,135.831 589.5,134.5 Z"/></g>
<g><path style="opacity:1" fill="#f4faf5" d="M -0.5,141.5 C 0.473067,143.948 0.8064,146.615 0.5,149.5C 3.83333,149.5 7.16667,149.5 10.5,149.5C 10.5,147.833 10.5,146.167 10.5,144.5C 8.5,144.5 6.5,144.5 4.5,144.5C 4.5,143.5 4.5,142.5 4.5,141.5C 7.5,141.5 10.5,141.5 13.5,141.5C 13.5,145.167 13.5,148.833 13.5,152.5C 8.83333,152.5 4.16667,152.5 -0.5,152.5C -0.5,148.833 -0.5,145.167 -0.5,141.5 Z"/></g>
<g><path style="opacity:1" fill="#f5faf6" d="M 59.5,141.5 C 65.1667,141.5 70.8333,141.5 76.5,141.5C 76.5,144.167 76.5,146.833 76.5,149.5C 79.8333,149.5 83.1667,149.5 86.5,149.5C 86.5,147.833 86.5,146.167 86.5,144.5C 84.5,144.5 82.5,144.5 80.5,144.5C 80.5,143.5 80.5,142.5 80.5,141.5C 83.5,141.5 86.5,141.5 89.5,141.5C 89.5,145.167 89.5,148.833 89.5,152.5C 83.8333,152.5 78.1667,152.5 72.5,152.5C 72.5,149.833 72.5,147.167 72.5,144.5C 69.1667,144.5 65.8333,144.5 62.5,144.5C 62.5,147.167 62.5,149.833 62.5,152.5C 61.5,152.5 60.5,152.5 59.5,152.5C 59.5,148.833 59.5,145.167 59.5,141.5 Z"/></g>
<g><path style="opacity:1" fill="#f7fbf8" d="M 164.5,152.5 C 159.167,152.5 153.833,152.5 148.5,152.5C 148.806,149.615 148.473,146.948 147.5,144.5C 144.167,144.5 140.833,144.5 137.5,144.5C 137.5,147.167 137.5,149.833 137.5,152.5C 136.5,152.5 135.5,152.5 134.5,152.5C 134.5,148.833 134.5,145.167 134.5,141.5C 140.167,141.5 145.833,141.5 151.5,141.5C 151.5,144.167 151.5,146.833 151.5,149.5C 154.833,149.5 158.167,149.5 161.5,149.5C 161.5,147.833 161.5,146.167 161.5,144.5C 159.5,144.5 157.5,144.5 155.5,144.5C 155.5,143.5 155.5,142.5 155.5,141.5C 158.5,141.5 161.5,141.5 164.5,141.5C 164.5,145.167 164.5,148.833 164.5,152.5 Z"/></g>
<g><path style="opacity:1" fill="#f9fcf9" d="M 209.5,141.5 C 215.167,141.5 220.833,141.5 226.5,141.5C 226.5,144.167 226.5,146.833 226.5,149.5C 229.833,149.5 233.167,149.5 236.5,149.5C 236.5,147.833 236.5,146.167 236.5,144.5C 234.5,144.5 232.5,144.5 230.5,144.5C 230.5,143.5 230.5,142.5 230.5,141.5C 233.5,141.5 236.5,141.5 239.5,141.5C 239.5,145.167 239.5,148.833 239.5,152.5C 234.167,152.5 228.833,152.5 223.5,152.5C 223.5,149.833 223.5,147.167 223.5,144.5C 219.833,144.5 216.167,144.5 212.5,144.5C 212.5,147.167 212.5,149.833 212.5,152.5C 211.5,152.5 210.5,152.5 209.5,152.5C 209.5,148.833 209.5,145.167 209.5,141.5 Z"/></g>
<g><path style="opacity:1" fill="#f9fcfa" d="M 315.5,152.5 C 310.167,152.5 304.833,152.5 299.5,152.5C 299.806,149.615 299.473,146.948 298.5,144.5C 295.167,144.5 291.833,144.5 288.5,144.5C 288.5,147.167 288.5,149.833 288.5,152.5C 287.5,152.5 286.5,152.5 285.5,152.5C 285.5,148.833 285.5,145.167 285.5,141.5C 291.167,141.5 296.833,141.5 302.5,141.5C 302.5,144.167 302.5,146.833 302.5,149.5C 305.833,149.5 309.167,149.5 312.5,149.5C 312.5,147.833 312.5,146.167 312.5,144.5C 310.5,144.5 308.5,144.5 306.5,144.5C 306.5,143.5 306.5,142.5 306.5,141.5C 309.5,141.5 312.5,141.5 315.5,141.5C 315.5,145.167 315.5,148.833 315.5,152.5 Z"/></g>
<g><path style="opacity:1" fill="#fafdfb" d="M 361.5,141.5 C 367.167,141.5 372.833,141.5 378.5,141.5C 378.5,144.167 378.5,146.833 378.5,149.5C 381.833,149.5 385.167,149.5 388.5,149.5C 388.5,147.833 388.5,146.167 388.5,144.5C 386.5,144.5 384.5,144.5 382.5,144.5C 382.5,143.5 382.5,142.5 382.5,141.5C 385.5,141.5 388.5,141.5 391.5,141.5C 391.5,145.167 391.5,148.833 391.5,152.5C 386.167,152.5 380.833,152.5 375.5,152.5C 375.5,149.833 375.5,147.167 375.5,144.5C 371.833,144.5 368.167,144.5 364.5,144.5C 364.5,147.167 364.5,149.833 364.5,152.5C 363.5,152.5 362.5,152.5 361.5,152.5C 361.5,148.833 361.5,145.167 361.5,141.5 Z"/></g>
<g><path style="opacity:1" fill="#f5fbf6" d="M 467.5,152.5 C 462.167,152.5 456.833,152.5 451.5,152.5C 451.806,149.615 451.473,146.948 450.5,144.5C 447.167,144.5 443.833,144.5 440.5,144.5C 440.5,147.167 440.5,149.833 440.5,152.5C 439.5,152.5 438.5,152.5 437.5,152.5C 437.5,148.833 437.5,145.167 437.5,141.5C 443.167,141.5 448.833,141.5 454.5,141.5C 454.5,144.167 454.5,146.833 454.5,149.5C 457.833,149.5 461.167,149.5 464.5,149.5C 464.5,147.833 464.5,146.167 464.5,144.5C 462.5,144.5 460.5,144.5 458.5,144.5C 458.5,143.5 458.5,142.5 458.5,141.5C 461.5,141.5 464.5,141.5 467.5,141.5C 467.5,145.167 467.5,148.833 467.5,152.5 Z"/></g>
<g><path style="opacity:1" fill="#edf7ef" d="M 512.5,141.5 C 518.167,141.5 523.833,141.5 529.5,141.5C 529.5,144.167 529.5,146.833 529.5,149.5C 532.833,149.5 536.167,149.5 539.5,149.5C 539.5,147.833 539.5,146.167 539.5,144.5C 537.833,144.5 536.167,144.5 534.5,144.5C 534.5,143.5 534.5,142.5 534.5,141.5C 537.5,141.5 540.5,141.5 543.5,141.5C 543.5,145.167 543.5,148.833 543.5,152.5C 537.833,152.5 532.167,152.5 526.5,152.5C 526.5,149.833 526.5,147.167 526.5,144.5C 523.167,144.5 519.833,144.5 516.5,144.5C 516.5,147.167 516.5,149.833 516.5,152.5C 515.167,152.5 513.833,152.5 512.5,152.5C 512.5,148.833 512.5,145.167 512.5,141.5 Z"/></g>
<g><path style="opacity:1" fill="#ecf6ee" d="M 588.5,141.5 C 594.167,141.5 599.833,141.5 605.5,141.5C 605.5,144.167 605.5,146.833 605.5,149.5C 608.833,149.5 612.167,149.5 615.5,149.5C 615.5,147.833 615.5,146.167 615.5,144.5C 613.833,144.5 612.167,144.5 610.5,144.5C 610.5,143.5 610.5,142.5 610.5,141.5C 613.5,141.5 616.5,141.5 619.5,141.5C 619.5,145.167 619.5,148.833 619.5,152.5C 613.833,152.5 608.167,152.5 602.5,152.5C 602.5,149.833 602.5,147.167 602.5,144.5C 599.167,144.5 595.833,144.5 592.5,144.5C 592.5,147.5 592.5,150.5 592.5,153.5C 591.178,153.67 590.011,153.337 589,152.5C 588.501,148.848 588.335,145.182 588.5,141.5 Z"/></g>
<g><path style="opacity:1" fill="#f9fcfa" d="M 639.5,141.5 C 639.5,142.5 639.5,143.5 639.5,144.5C 636.167,144.5 632.833,144.5 629.5,144.5C 629.5,146.167 629.5,147.833 629.5,149.5C 631.167,149.5 632.833,149.5 634.5,149.5C 634.5,150.5 634.5,151.5 634.5,152.5C 631.482,152.704 628.482,153.037 625.5,153.5C 625.5,149.5 625.5,145.5 625.5,141.5C 630.167,141.5 634.833,141.5 639.5,141.5 Z"/></g>
<g><path style="opacity:1" fill="#d3ebd8" d="M 66.5,149.5 C 67.5,149.5 68.5,149.5 69.5,149.5C 69.5,150.5 69.5,151.5 69.5,152.5C 68.5,152.5 67.5,152.5 66.5,152.5C 66.5,151.5 66.5,150.5 66.5,149.5 Z"/></g>
<g><path style="opacity:1" fill="#b0dcb9" d="M 140.5,149.5 C 141.833,149.5 143.167,149.5 144.5,149.5C 144.5,150.833 144.5,152.167 144.5,153.5C 141.5,153.833 140.167,152.5 140.5,149.5 Z"/></g>
<g><path style="opacity:1" fill="#e9f5eb" d="M 216.5,149.5 C 217.5,149.5 218.5,149.5 219.5,149.5C 219.5,150.5 219.5,151.5 219.5,152.5C 218.5,152.5 217.5,152.5 216.5,152.5C 216.5,151.5 216.5,150.5 216.5,149.5 Z"/></g>
<g><path style="opacity:1" fill="#d6eddb" d="M 292.5,149.5 C 293.5,149.5 294.5,149.5 295.5,149.5C 295.5,150.5 295.5,151.5 295.5,152.5C 294.5,152.5 293.5,152.5 292.5,152.5C 292.5,151.5 292.5,150.5 292.5,149.5 Z"/></g>
<g><path style="opacity:1" fill="#e3f2e6" d="M 368.5,149.5 C 369.5,149.5 370.5,149.5 371.5,149.5C 371.5,150.5 371.5,151.5 371.5,152.5C 370.5,152.5 369.5,152.5 368.5,152.5C 368.5,151.5 368.5,150.5 368.5,149.5 Z"/></g>
<g><path style="opacity:1" fill="#b6dfbf" d="M 443.5,149.5 C 444.833,149.5 446.167,149.5 447.5,149.5C 447.5,150.5 447.5,151.5 447.5,152.5C 446.167,152.5 444.833,152.5 443.5,152.5C 443.5,151.5 443.5,150.5 443.5,149.5 Z"/></g>
<g><path style="opacity:1" fill="#ebf6ee" d="M 519.5,149.5 C 520.5,149.5 521.5,149.5 522.5,149.5C 522.5,150.5 522.5,151.5 522.5,152.5C 521.5,152.5 520.5,152.5 519.5,152.5C 519.5,151.5 519.5,150.5 519.5,149.5 Z"/></g>
<g><path style="opacity:1" fill="#b1dcba" d="M 595.5,149.5 C 596.833,149.5 598.167,149.5 599.5,149.5C 599.833,152.5 598.5,153.833 595.5,153.5C 595.5,152.167 595.5,150.833 595.5,149.5 Z"/></g>
<g><path style="opacity:1" fill="#8ecd9c" d="M 147.5,144.5 C 148.473,146.948 148.806,149.615 148.5,152.5C 153.833,152.5 159.167,152.5 164.5,152.5C 159.025,153.489 153.358,153.822 147.5,153.5C 147.5,150.5 147.5,147.5 147.5,144.5 Z"/></g>
<g><path style="opacity:1" fill="#8bcc99" d="M 298.5,144.5 C 299.473,146.948 299.806,149.615 299.5,152.5C 304.833,152.5 310.167,152.5 315.5,152.5C 310.025,153.489 304.358,153.822 298.5,153.5C 298.5,150.5 298.5,147.5 298.5,144.5 Z"/></g>
<g><path style="opacity:1" fill="#90ce9d" d="M 450.5,144.5 C 451.473,146.948 451.806,149.615 451.5,152.5C 456.833,152.5 462.167,152.5 467.5,152.5C 462.025,153.489 456.358,153.822 450.5,153.5C 450.5,150.5 450.5,147.5 450.5,144.5 Z"/></g>
<g><path style="opacity:1" fill="#71c184" d="M 127.5,157.5 C 116.833,157.5 106.167,157.5 95.5,157.5C 95.7678,159.099 95.4345,160.432 94.5,161.5C 94.5,159.833 94.5,158.167 94.5,156.5C 105.679,156.172 116.679,156.505 127.5,157.5 Z"/></g>
<g><path style="opacity:1" fill="#70c083" d="M 278.5,157.5 C 268.167,157.5 257.833,157.5 247.5,157.5C 247.768,159.099 247.434,160.432 246.5,161.5C 246.5,159.833 246.5,158.167 246.5,156.5C 257.346,156.172 268.013,156.506 278.5,157.5 Z"/></g>
<g><path style="opacity:1" fill="#72c184" d="M 399.5,157.5 C 409.653,156.506 419.986,156.172 430.5,156.5C 430.5,158.167 430.5,159.833 430.5,161.5C 429.566,160.432 429.232,159.099 429.5,157.5C 419.5,157.5 409.5,157.5 399.5,157.5 Z"/></g>
<g><path style="opacity:1" fill="#71c184" d="M 474.5,157.5 C 485.321,156.505 496.321,156.172 507.5,156.5C 507.5,158.167 507.5,159.833 507.5,161.5C 506.566,160.432 506.232,159.099 506.5,157.5C 495.833,157.5 485.167,157.5 474.5,157.5 Z"/></g>
<g><path style="opacity:1" fill="#6fc082" d="M 587.5,157.5 C 598.321,156.505 609.321,156.172 620.5,156.5C 620.5,158.167 620.5,159.833 620.5,161.5C 619.566,160.432 619.232,159.099 619.5,157.5C 608.833,157.5 598.167,157.5 587.5,157.5 Z"/></g>
<g><path style="opacity:1" fill="#fefefe" d="M -0.5,157.5 C 4.5,157.5 9.5,157.5 14.5,157.5C 14.5,158.833 14.5,160.167 14.5,161.5C 16.5,161.5 18.5,161.5 20.5,161.5C 20.5,160.167 20.5,158.833 20.5,157.5C 30.8333,157.5 41.1667,157.5 51.5,157.5C 51.5,158.833 51.5,160.167 51.5,161.5C 53.5,161.5 55.5,161.5 57.5,161.5C 57.5,160.167 57.5,158.833 57.5,157.5C 68.1667,157.5 78.8333,157.5 89.5,157.5C 89.5,158.833 89.5,160.167 89.5,161.5C 91.1667,161.5 92.8333,161.5 94.5,161.5C 95.4345,160.432 95.7678,159.099 95.5,157.5C 106.167,157.5 116.833,157.5 127.5,157.5C 127.5,158.833 127.5,160.167 127.5,161.5C 129.5,161.5 131.5,161.5 133.5,161.5C 133.5,160.167 133.5,158.833 133.5,157.5C 144.167,157.5 154.833,157.5 165.5,157.5C 165.5,158.833 165.5,160.167 165.5,161.5C 167.167,161.5 168.833,161.5 170.5,161.5C 170.5,160.167 170.5,158.833 170.5,157.5C 181.5,157.5 192.5,157.5 203.5,157.5C 203.5,158.833 203.5,160.167 203.5,161.5C 205.167,161.5 206.833,161.5 208.5,161.5C 208.5,160.167 208.5,158.833 208.5,157.5C 219.5,157.5 230.5,157.5 241.5,157.5C 241.5,158.833 241.5,160.167 241.5,161.5C 243.167,161.5 244.833,161.5 246.5,161.5C 247.434,160.432 247.768,159.099 247.5,157.5C 257.833,157.5 268.167,157.5 278.5,157.5C 278.5,158.833 278.5,160.167 278.5,161.5C 280.5,161.5 282.5,161.5 284.5,161.5C 284.5,160.167 284.5,158.833 284.5,157.5C 295.167,157.5 305.833,157.5 316.5,157.5C 316.5,158.833 316.5,160.167 316.5,161.5C 318.5,161.5 320.5,161.5 322.5,161.5C 322.5,160.167 322.5,158.833 322.5,157.5C 333.167,157.5 343.833,157.5 354.5,157.5C 354.5,158.833 354.5,160.167 354.5,161.5C 356.5,161.5 358.5,161.5 360.5,161.5C 360.5,160.167 360.5,158.833 360.5,157.5C 371.5,157.5 382.5,157.5 393.5,157.5C 393.5,158.833 393.5,160.167 393.5,161.5C 395.5,161.5 397.5,161.5 399.5,161.5C 399.5,160.167 399.5,158.833 399.5,157.5C 409.5,157.5 419.5,157.5 429.5,157.5C 429.232,159.099 429.566,160.432 430.5,161.5C 432.167,161.5 433.833,161.5 435.5,161.5C 435.5,160.167 435.5,158.833 435.5,157.5C 446.5,157.5 457.5,157.5 468.5,157.5C 468.5,158.833 468.5,160.167 468.5,161.5C 470.5,161.5 472.5,161.5 474.5,161.5C 474.5,160.167 474.5,158.833 474.5,157.5C 485.167,157.5 495.833,157.5 506.5,157.5C 506.232,159.099 506.566,160.432 507.5,161.5C 509.167,161.5 510.833,161.5 512.5,161.5C 512.5,160.167 512.5,158.833 512.5,157.5C 522.833,157.5 533.167,157.5 543.5,157.5C 543.5,158.833 543.5,160.167 543.5,161.5C 545.167,161.5 546.833,161.5 548.5,161.5C 548.5,160.167 548.5,158.833 548.5,157.5C 559.833,157.5 571.167,157.5 582.5,157.5C 582.5,158.833 582.5,160.167 582.5,161.5C 584.167,161.5 585.833,161.5 587.5,161.5C 587.5,160.167 587.5,158.833 587.5,157.5C 598.167,157.5 608.833,157.5 619.5,157.5C 619.232,159.099 619.566,160.432 620.5,161.5C 622.167,161.5 623.833,161.5 625.5,161.5C 625.5,160.167 625.5,158.833 625.5,157.5C 630.167,157.5 634.833,157.5 639.5,157.5C 639.5,212.167 639.5,266.833 639.5,321.5C 634.833,321.5 630.167,321.5 625.5,321.5C 625.5,320.167 625.5,318.833 625.5,317.5C 623.833,317.5 622.167,317.5 620.5,317.5C 619.566,318.568 619.232,319.901 619.5,321.5C 608.833,321.5 598.167,321.5 587.5,321.5C 587.5,320.167 587.5,318.833 587.5,317.5C 585.833,317.5 584.167,317.5 582.5,317.5C 582.5,318.833 582.5,320.167 582.5,321.5C 571.5,321.5 560.5,321.5 549.5,321.5C 549.5,320.167 549.5,318.833 549.5,317.5C 547.265,317.205 545.265,317.539 543.5,318.5C 543.5,319.5 543.5,320.5 543.5,321.5C 533.167,321.5 522.833,321.5 512.5,321.5C 512.5,320.167 512.5,318.833 512.5,317.5C 510.833,317.5 509.167,317.5 507.5,317.5C 506.566,318.568 506.232,319.901 506.5,321.5C 495.833,321.5 485.167,321.5 474.5,321.5C 473.566,320.432 473.232,319.099 473.5,317.5C 471.833,317.5 470.167,317.5 468.5,317.5C 468.5,318.833 468.5,320.167 468.5,321.5C 457.5,321.5 446.5,321.5 435.5,321.5C 435.5,320.167 435.5,318.833 435.5,317.5C 433.833,317.5 432.167,317.5 430.5,317.5C 429.566,318.568 429.232,319.901 429.5,321.5C 419.5,321.5 409.5,321.5 399.5,321.5C 398.566,320.432 398.232,319.099 398.5,317.5C 396.833,317.5 395.167,317.5 393.5,317.5C 393.5,318.833 393.5,320.167 393.5,321.5C 382.5,321.5 371.5,321.5 360.5,321.5C 360.5,320.167 360.5,318.833 360.5,317.5C 358.5,317.5 356.5,317.5 354.5,317.5C 354.5,318.833 354.5,320.167 354.5,321.5C 343.833,321.5 333.167,321.5 322.5,321.5C 322.5,320.167 322.5,318.833 322.5,317.5C 320.5,317.5 318.5,317.5 316.5,317.5C 316.5,318.833 316.5,320.167 316.5,321.5C 305.833,321.5 295.167,321.5 284.5,321.5C 284.5,320.167 284.5,318.833 284.5,317.5C 282.5,317.5 280.5,317.5 278.5,317.5C 278.5,318.833 278.5,320.167 278.5,321.5C 267.833,321.5 257.167,321.5 246.5,321.5C 246.5,320.167 246.5,318.833 246.5,317.5C 244.833,317.5 243.167,317.5 241.5,317.5C 241.5,318.833 241.5,320.167 241.5,321.5C 230.5,321.5 219.5,321.5 208.5,321.5C 208.5,320.167 208.5,318.833 208.5,317.5C 206.5,317.5 204.5,317.5 202.5,317.5C 202.5,318.833 202.5,320.167 202.5,321.5C 192.167,321.5 181.833,321.5 171.5,321.5C 171.5,320.167 171.5,318.833 171.5,317.5C 169.265,317.205 167.265,317.539 165.5,318.5C 165.5,319.5 165.5,320.5 165.5,321.5C 154.833,321.5 144.167,321.5 133.5,321.5C 133.5,320.167 133.5,318.833 133.5,317.5C 131.5,317.5 129.5,317.5 127.5,317.5C 127.5,318.833 127.5,320.167 127.5,321.5C 116.833,321.5 106.167,321.5 95.5,321.5C 95.7678,319.901 95.4345,318.568 94.5,317.5C 92.8333,317.5 91.1667,317.5 89.5,317.5C 89.5,318.833 89.5,320.167 89.5,321.5C 78.8333,321.5 68.1667,321.5 57.5,321.5C 57.5,320.167 57.5,318.833 57.5,317.5C 55.5,317.5 53.5,317.5 51.5,317.5C 51.5,318.833 51.5,320.167 51.5,321.5C 41.1667,321.5 30.8333,321.5 20.5,321.5C 20.5,320.167 20.5,318.833 20.5,317.5C 18.8333,317.5 17.1667,317.5 15.5,317.5C 15.5,318.833 15.5,320.167 15.5,321.5C 10.1667,321.5 4.83333,321.5 -0.5,321.5C -0.5,266.833 -0.5,212.167 -0.5,157.5 Z"/></g>
<g><path style="opacity:1" fill="#dc1e13" d="M 300.5,169.5 C 302.25,170.742 303.917,172.242 305.5,174C 310.01,175.784 314.51,175.617 319,173.5C 323.471,174.513 327.971,174.679 332.5,174C 334.552,173.07 336.052,171.57 337,169.5C 337.784,180.045 332.95,184.212 322.5,182C 321.069,181.535 319.903,180.701 319,179.5C 307.666,185.749 301.499,182.416 300.5,169.5 Z"/></g>
<g><path style="opacity:1" fill="#db0e06" d="M 344.5,188.5 C 344.5,187.833 344.833,187.5 345.5,187.5C 369.507,213.738 372.674,242.404 355,273.5C 349.167,282 342,289.167 333.5,295C 343.301,297.738 353.301,299.072 363.5,299C 361.913,299.862 360.246,300.529 358.5,301C 348.167,301.333 337.833,301.667 327.5,302C 324.628,304.537 322.128,307.37 320,310.5C 317.128,307.963 314.628,305.13 312.5,302C 302.167,301.667 291.833,301.333 281.5,301C 279.754,300.529 278.087,299.862 276.5,299C 286.314,298.563 295.981,297.23 305.5,295C 276.683,274.218 267.183,246.718 277,212.5C 280.696,202.154 286.696,193.487 295,186.5C 290.63,195.284 287.297,204.617 285,214.5C 280.268,242.987 289.268,265.987 312,283.5C 311.971,251.826 311.638,220.16 311,188.5C 313.719,186.271 316.553,184.271 319.5,182.5C 322.406,183.897 324.906,185.897 327,188.5C 327.333,219.833 327.667,251.167 328,282.5C 350.035,265.077 358.701,242.411 354,214.5C 352.111,205.328 348.944,196.662 344.5,188.5 Z"/></g>
<g><path style="opacity:1" fill="#db120a" d="M 289.5,182.5 C 290.239,182.369 290.906,182.536 291.5,183C 265,201.477 255.167,226.643 262,258.5C 264.963,269.265 270.13,278.765 277.5,287C 271.975,285.188 267.142,282.021 263,277.5C 249.164,259.486 245.164,239.486 251,217.5C 258.957,200.372 271.79,188.706 289.5,182.5 Z"/></g>
<g><path style="opacity:1" fill="#db1109" d="M 347.5,183.5 C 369.106,188.93 383.273,202.597 390,224.5C 393.07,247.291 386.57,266.791 370.5,283C 367.77,285.204 364.77,286.537 361.5,287C 379.839,264.972 384.006,240.472 374,213.5C 368.101,200.776 359.268,190.776 347.5,183.5 Z"/></g>
<g><path style="opacity:1" fill="#f08982" d="M 345.5,187.5 C 344.833,187.5 344.5,187.833 344.5,188.5C 343.733,187.828 343.066,186.995 342.5,186C 343.998,185.415 344.998,185.915 345.5,187.5 Z"/></g>
<g><path style="opacity:1" fill="#da0301" d="M 94.5,317.5 C 94.5,319.167 94.5,320.833 94.5,322.5C 105.679,322.828 116.679,322.495 127.5,321.5C 127.5,320.167 127.5,318.833 127.5,317.5C 129.5,317.5 131.5,317.5 133.5,317.5C 133.5,318.833 133.5,320.167 133.5,321.5C 144.167,321.5 154.833,321.5 165.5,321.5C 165.5,320.5 165.5,319.5 165.5,318.5C 167.167,318.5 168.833,318.5 170.5,318.5C 170.263,319.791 170.596,320.791 171.5,321.5C 181.833,321.5 192.167,321.5 202.5,321.5C 202.5,320.167 202.5,318.833 202.5,317.5C 204.5,317.5 206.5,317.5 208.5,317.5C 208.5,318.833 208.5,320.167 208.5,321.5C 219.5,321.5 230.5,321.5 241.5,321.5C 241.5,320.167 241.5,318.833 241.5,317.5C 243.167,317.5 244.833,317.5 246.5,317.5C 246.5,318.833 246.5,320.167 246.5,321.5C 257.167,321.5 267.833,321.5 278.5,321.5C 278.5,320.167 278.5,318.833 278.5,317.5C 280.5,317.5 282.5,317.5 284.5,317.5C 284.5,318.833 284.5,320.167 284.5,321.5C 295.167,321.5 305.833,321.5 316.5,321.5C 316.5,320.167 316.5,318.833 316.5,317.5C 318.5,317.5 320.5,317.5 322.5,317.5C 322.5,318.833 322.5,320.167 322.5,321.5C 333.167,321.5 343.833,321.5 354.5,321.5C 354.5,320.167 354.5,318.833 354.5,317.5C 356.5,317.5 358.5,317.5 360.5,317.5C 360.5,318.833 360.5,320.167 360.5,321.5C 371.5,321.5 382.5,321.5 393.5,321.5C 393.5,320.167 393.5,318.833 393.5,317.5C 395.167,317.5 396.833,317.5 398.5,317.5C 398.232,319.099 398.566,320.432 399.5,321.5C 409.653,322.494 419.986,322.828 430.5,322.5C 430.5,320.833 430.5,319.167 430.5,317.5C 432.167,317.5 433.833,317.5 435.5,317.5C 435.5,318.833 435.5,320.167 435.5,321.5C 446.5,321.5 457.5,321.5 468.5,321.5C 468.5,320.167 468.5,318.833 468.5,317.5C 470.167,317.5 471.833,317.5 473.5,317.5C 473.232,319.099 473.566,320.432 474.5,321.5C 485.321,322.495 496.321,322.828 507.5,322.5C 507.5,320.833 507.5,319.167 507.5,317.5C 509.167,317.5 510.833,317.5 512.5,317.5C 512.5,318.833 512.5,320.167 512.5,321.5C 522.833,321.5 533.167,321.5 543.5,321.5C 543.5,320.5 543.5,319.5 543.5,318.5C 545.167,318.5 546.833,318.5 548.5,318.5C 548.263,319.791 548.596,320.791 549.5,321.5C 560.5,321.5 571.5,321.5 582.5,321.5C 582.5,320.167 582.5,318.833 582.5,317.5C 584.167,317.5 585.833,317.5 587.5,317.5C 587.5,318.833 587.5,320.167 587.5,321.5C 598.321,322.495 609.321,322.828 620.5,322.5C 620.5,320.833 620.5,319.167 620.5,317.5C 622.167,317.5 623.833,317.5 625.5,317.5C 625.5,318.833 625.5,320.167 625.5,321.5C 630.167,321.5 634.833,321.5 639.5,321.5C 639.5,326.5 639.5,331.5 639.5,336.5C 634.833,336.5 630.167,336.5 625.5,336.5C 625.5,340.167 625.5,343.833 625.5,347.5C 628.833,347.5 632.167,347.5 635.5,347.5C 635.5,346.5 635.5,345.5 635.5,344.5C 633.5,344.5 631.5,344.5 629.5,344.5C 629.5,342.833 629.5,341.167 629.5,339.5C 632.833,339.5 636.167,339.5 639.5,339.5C 639.5,386.167 639.5,432.833 639.5,479.5C 426.167,479.5 212.833,479.5 -0.5,479.5C -0.5,435.5 -0.5,391.5 -0.5,347.5C 4.16667,347.5 8.83333,347.5 13.5,347.5C 13.5,343.833 13.5,340.167 13.5,336.5C 10.7131,335.523 7.7131,335.19 4.5,335.5C 4.23219,337.099 4.56552,338.432 5.5,339.5C 7.16667,339.5 8.83333,339.5 10.5,339.5C 10.5,341.167 10.5,342.833 10.5,344.5C 7.16667,344.5 3.83333,344.5 0.5,344.5C 0.8064,341.615 0.473067,338.948 -0.5,336.5C -0.5,334.833 -0.5,333.167 -0.5,331.5C 9.5,331.5 19.5,331.5 29.5,331.5C 29.5,330.5 29.5,329.5 29.5,328.5C 19.5,328.5 9.5,328.5 -0.5,328.5C -0.5,326.167 -0.5,323.833 -0.5,321.5C 4.83333,321.5 10.1667,321.5 15.5,321.5C 15.5,320.167 15.5,318.833 15.5,317.5C 17.1667,317.5 18.8333,317.5 20.5,317.5C 20.5,318.833 20.5,320.167 20.5,321.5C 30.8333,321.5 41.1667,321.5 51.5,321.5C 51.5,320.167 51.5,318.833 51.5,317.5C 53.5,317.5 55.5,317.5 57.5,317.5C 57.5,318.833 57.5,320.167 57.5,321.5C 68.1667,321.5 78.8333,321.5 89.5,321.5C 89.5,320.167 89.5,318.833 89.5,317.5C 91.1667,317.5 92.8333,317.5 94.5,317.5 Z"/></g>
<g><path style="opacity:1" fill="#e7615f" d="M 165.5,318.5 C 167.265,317.539 169.265,317.205 171.5,317.5C 171.5,318.833 171.5,320.167 171.5,321.5C 170.596,320.791 170.263,319.791 170.5,318.5C 168.833,318.5 167.167,318.5 165.5,318.5 Z"/></g>
<g><path style="opacity:1" fill="#e7615f" d="M 543.5,318.5 C 545.265,317.539 547.265,317.205 549.5,317.5C 549.5,318.833 549.5,320.167 549.5,321.5C 548.596,320.791 548.263,319.791 548.5,318.5C 546.833,318.5 545.167,318.5 543.5,318.5 Z"/></g>
<g><path style="opacity:1" fill="#e75c5b" d="M 94.5,317.5 C 95.4345,318.568 95.7678,319.901 95.5,321.5C 106.167,321.5 116.833,321.5 127.5,321.5C 116.679,322.495 105.679,322.828 94.5,322.5C 94.5,320.833 94.5,319.167 94.5,317.5 Z"/></g>
<g><path style="opacity:1" fill="#e75d5b" d="M 430.5,317.5 C 430.5,319.167 430.5,320.833 430.5,322.5C 419.986,322.828 409.653,322.494 399.5,321.5C 409.5,321.5 419.5,321.5 429.5,321.5C 429.232,319.901 429.566,318.568 430.5,317.5 Z"/></g>
<g><path style="opacity:1" fill="#e75c5a" d="M 507.5,317.5 C 507.5,319.167 507.5,320.833 507.5,322.5C 496.321,322.828 485.321,322.495 474.5,321.5C 485.167,321.5 495.833,321.5 506.5,321.5C 506.232,319.901 506.566,318.568 507.5,317.5 Z"/></g>
<g><path style="opacity:1" fill="#e75a59" d="M 620.5,317.5 C 620.5,319.167 620.5,320.833 620.5,322.5C 609.321,322.828 598.321,322.495 587.5,321.5C 598.167,321.5 608.833,321.5 619.5,321.5C 619.232,319.901 619.566,318.568 620.5,317.5 Z"/></g>
<g><path style="opacity:1" fill="#fefafa" d="M -0.5,328.5 C 9.5,328.5 19.5,328.5 29.5,328.5C 29.5,329.5 29.5,330.5 29.5,331.5C 19.5,331.5 9.5,331.5 -0.5,331.5C -0.5,330.5 -0.5,329.5 -0.5,328.5 Z"/></g>
<g><path style="opacity:1" fill="#fef5f5" d="M 37.5,328.5 C 37.5,333.833 37.5,339.167 37.5,344.5C 39.4147,344.784 41.0813,344.451 42.5,343.5C 42.5,338.5 42.5,333.5 42.5,328.5C 43.5,328.5 44.5,328.5 45.5,328.5C 45.5,333.833 45.5,339.167 45.5,344.5C 47.1667,344.5 48.8333,344.5 50.5,344.5C 50.5,339.167 50.5,333.833 50.5,328.5C 51.5,328.5 52.5,328.5 53.5,328.5C 53.5,334.833 53.5,341.167 53.5,347.5C 47.1667,347.5 40.8333,347.5 34.5,347.5C 34.5,344.833 34.5,342.167 34.5,339.5C 31.1667,339.5 27.8333,339.5 24.5,339.5C 24.5,341.167 24.5,342.833 24.5,344.5C 26.1667,344.5 27.8333,344.5 29.5,344.5C 29.5,345.5 29.5,346.5 29.5,347.5C 26.5,347.5 23.5,347.5 20.5,347.5C 20.5,343.833 20.5,340.167 20.5,336.5C 25.1667,336.5 29.8333,336.5 34.5,336.5C 34.5,333.833 34.5,331.167 34.5,328.5C 35.5,328.5 36.5,328.5 37.5,328.5 Z"/></g>
<g><path style="opacity:1" fill="#e75e5d" d="M 37.5,328.5 C 38.4872,333.305 38.8205,338.305 38.5,343.5C 39.8333,343.5 41.1667,343.5 42.5,343.5C 41.0813,344.451 39.4147,344.784 37.5,344.5C 37.5,339.167 37.5,333.833 37.5,328.5 Z"/></g>
<g><path style="opacity:1" fill="#fef9f9" d="M 59.5,328.5 C 74.8333,328.5 90.1667,328.5 105.5,328.5C 105.5,329.5 105.5,330.5 105.5,331.5C 90.1667,331.5 74.8333,331.5 59.5,331.5C 59.5,330.5 59.5,329.5 59.5,328.5 Z"/></g>
<g><path style="opacity:1" fill="#fdebea" d="M 113.5,343.5 C 114.919,344.451 116.585,344.784 118.5,344.5C 118.5,339.167 118.5,333.833 118.5,328.5C 119.5,328.5 120.5,328.5 121.5,328.5C 121.5,333.833 121.5,339.167 121.5,344.5C 122.833,344.5 124.167,344.5 125.5,344.5C 125.5,339.167 125.5,333.833 125.5,328.5C 126.833,328.5 128.167,328.5 129.5,328.5C 129.5,334.833 129.5,341.167 129.5,347.5C 123.167,347.5 116.833,347.5 110.5,347.5C 110.5,344.833 110.5,342.167 110.5,339.5C 106.833,339.5 103.167,339.5 99.5,339.5C 99.5,341.167 99.5,342.833 99.5,344.5C 101.5,344.5 103.5,344.5 105.5,344.5C 105.5,345.5 105.5,346.5 105.5,347.5C 102.167,347.5 98.8333,347.5 95.5,347.5C 95.5,343.833 95.5,340.167 95.5,336.5C 100.5,336.5 105.5,336.5 110.5,336.5C 110.5,333.833 110.5,331.167 110.5,328.5C 111.5,328.5 112.5,328.5 113.5,328.5C 113.5,333.5 113.5,338.5 113.5,343.5 Z"/></g>
<g><path style="opacity:1" fill="#e75d5c" d="M 118.5,328.5 C 118.5,333.833 118.5,339.167 118.5,344.5C 116.585,344.784 114.919,344.451 113.5,343.5C 114.833,343.5 116.167,343.5 117.5,343.5C 117.179,338.305 117.513,333.305 118.5,328.5 Z"/></g>
<g><path style="opacity:1" fill="#fef9f9" d="M 134.5,328.5 C 149.833,328.5 165.167,328.5 180.5,328.5C 180.5,329.5 180.5,330.5 180.5,331.5C 165.167,331.5 149.833,331.5 134.5,331.5C 134.5,330.5 134.5,329.5 134.5,328.5 Z"/></g>
<g><path style="opacity:1" fill="#fdeaea" d="M 188.5,343.5 C 189.919,344.451 191.585,344.784 193.5,344.5C 193.5,339.167 193.5,333.833 193.5,328.5C 194.5,328.5 195.5,328.5 196.5,328.5C 196.5,333.833 196.5,339.167 196.5,344.5C 197.833,344.5 199.167,344.5 200.5,344.5C 200.5,339.167 200.5,333.833 200.5,328.5C 201.833,328.5 203.167,328.5 204.5,328.5C 204.5,334.833 204.5,341.167 204.5,347.5C 198.167,347.5 191.833,347.5 185.5,347.5C 185.5,344.833 185.5,342.167 185.5,339.5C 181.833,339.5 178.167,339.5 174.5,339.5C 174.5,341.167 174.5,342.833 174.5,344.5C 176.5,344.5 178.5,344.5 180.5,344.5C 180.5,345.5 180.5,346.5 180.5,347.5C 177.167,347.5 173.833,347.5 170.5,347.5C 170.5,343.833 170.5,340.167 170.5,336.5C 175.5,336.5 180.5,336.5 185.5,336.5C 185.5,333.833 185.5,331.167 185.5,328.5C 186.5,328.5 187.5,328.5 188.5,328.5C 188.5,333.5 188.5,338.5 188.5,343.5 Z"/></g>
<g><path style="opacity:1" fill="#fefafa" d="M 209.5,328.5 C 224.833,328.5 240.167,328.5 255.5,328.5C 255.5,329.5 255.5,330.5 255.5,331.5C 240.167,331.5 224.833,331.5 209.5,331.5C 209.5,330.5 209.5,329.5 209.5,328.5 Z"/></g>
<g><path style="opacity:1" fill="#fef9f9" d="M 263.5,328.5 C 263.5,333.833 263.5,339.167 263.5,344.5C 265.415,344.784 267.081,344.451 268.5,343.5C 268.5,338.5 268.5,333.5 268.5,328.5C 269.5,328.5 270.5,328.5 271.5,328.5C 271.5,333.833 271.5,339.167 271.5,344.5C 273.167,344.5 274.833,344.5 276.5,344.5C 276.5,339.167 276.5,333.833 276.5,328.5C 277.5,328.5 278.5,328.5 279.5,328.5C 279.5,334.833 279.5,341.167 279.5,347.5C 273.167,347.5 266.833,347.5 260.5,347.5C 260.5,344.833 260.5,342.167 260.5,339.5C 256.833,339.5 253.167,339.5 249.5,339.5C 249.5,341.167 249.5,342.833 249.5,344.5C 251.5,344.5 253.5,344.5 255.5,344.5C 255.5,345.5 255.5,346.5 255.5,347.5C 252.5,347.5 249.5,347.5 246.5,347.5C 246.5,343.833 246.5,340.167 246.5,336.5C 251.167,336.5 255.833,336.5 260.5,336.5C 260.5,333.833 260.5,331.167 260.5,328.5C 261.5,328.5 262.5,328.5 263.5,328.5 Z"/></g>
<g><path style="opacity:1" fill="#e65151" d="M 263.5,328.5 C 264.487,333.305 264.821,338.305 264.5,343.5C 265.833,343.5 267.167,343.5 268.5,343.5C 267.081,344.451 265.415,344.784 263.5,344.5C 263.5,339.167 263.5,333.833 263.5,328.5 Z"/></g>
<g><path style="opacity:1" fill="#fef9f9" d="M 285.5,328.5 C 300.833,328.5 316.167,328.5 331.5,328.5C 331.5,329.5 331.5,330.5 331.5,331.5C 316.167,331.5 300.833,331.5 285.5,331.5C 285.5,330.5 285.5,329.5 285.5,328.5 Z"/></g>
<g><path style="opacity:1" fill="#fdf2f1" d="M 339.5,343.5 C 340.919,344.451 342.585,344.784 344.5,344.5C 344.5,339.167 344.5,333.833 344.5,328.5C 345.5,328.5 346.5,328.5 347.5,328.5C 347.5,333.5 347.5,338.5 347.5,343.5C 348.919,344.451 350.585,344.784 352.5,344.5C 352.5,339.167 352.5,333.833 352.5,328.5C 353.5,328.5 354.5,328.5 355.5,328.5C 355.5,334.833 355.5,341.167 355.5,347.5C 349.167,347.5 342.833,347.5 336.5,347.5C 336.5,344.833 336.5,342.167 336.5,339.5C 332.833,339.5 329.167,339.5 325.5,339.5C 325.5,341.167 325.5,342.833 325.5,344.5C 327.5,344.5 329.5,344.5 331.5,344.5C 331.5,345.5 331.5,346.5 331.5,347.5C 328.167,347.5 324.833,347.5 321.5,347.5C 321.5,343.833 321.5,340.167 321.5,336.5C 326.5,336.5 331.5,336.5 336.5,336.5C 336.5,333.833 336.5,331.167 336.5,328.5C 337.5,328.5 338.5,328.5 339.5,328.5C 339.5,333.5 339.5,338.5 339.5,343.5 Z"/></g>
<g><path style="opacity:1" fill="#e65757" d="M 344.5,328.5 C 344.5,333.833 344.5,339.167 344.5,344.5C 342.585,344.784 340.919,344.451 339.5,343.5C 340.833,343.5 342.167,343.5 343.5,343.5C 343.179,338.305 343.513,333.305 344.5,328.5 Z"/></g>
<g><path style="opacity:1" fill="#ea7271" d="M 352.5,328.5 C 352.5,333.833 352.5,339.167 352.5,344.5C 350.585,344.784 348.919,344.451 347.5,343.5C 348.833,343.5 350.167,343.5 351.5,343.5C 351.179,338.305 351.513,333.305 352.5,328.5 Z"/></g>
<g><path style="opacity:1" fill="#fefafa" d="M 361.5,328.5 C 376.833,328.5 392.167,328.5 407.5,328.5C 407.5,329.5 407.5,330.5 407.5,331.5C 392.167,331.5 376.833,331.5 361.5,331.5C 361.5,330.5 361.5,329.5 361.5,328.5 Z"/></g>
<g><path style="opacity:1" fill="#fef5f5" d="M 412.5,328.5 C 413.5,328.5 414.5,328.5 415.5,328.5C 415.5,333.833 415.5,339.167 415.5,344.5C 417.167,344.5 418.833,344.5 420.5,344.5C 420.5,339.167 420.5,333.833 420.5,328.5C 421.5,328.5 422.5,328.5 423.5,328.5C 423.5,333.833 423.5,339.167 423.5,344.5C 425.167,344.5 426.833,344.5 428.5,344.5C 428.5,339.167 428.5,333.833 428.5,328.5C 429.5,328.5 430.5,328.5 431.5,328.5C 431.5,334.833 431.5,341.167 431.5,347.5C 425.167,347.5 418.833,347.5 412.5,347.5C 412.5,344.833 412.5,342.167 412.5,339.5C 408.833,339.5 405.167,339.5 401.5,339.5C 401.5,341.167 401.5,342.833 401.5,344.5C 403.5,344.5 405.5,344.5 407.5,344.5C 407.5,345.5 407.5,346.5 407.5,347.5C 404.167,347.5 400.833,347.5 397.5,347.5C 397.5,343.833 397.5,340.167 397.5,336.5C 402.5,336.5 407.5,336.5 412.5,336.5C 412.5,333.833 412.5,331.167 412.5,328.5 Z"/></g>
<g><path style="opacity:1" fill="#fef8f8" d="M 437.5,328.5 C 452.833,328.5 468.167,328.5 483.5,328.5C 483.5,329.5 483.5,330.5 483.5,331.5C 468.167,331.5 452.833,331.5 437.5,331.5C 437.5,330.5 437.5,329.5 437.5,328.5 Z"/></g>
<g><path style="opacity:1" fill="#fde3e2" d="M 488.5,328.5 C 489.5,328.5 490.5,328.5 491.5,328.5C 491.5,333.833 491.5,339.167 491.5,344.5C 492.833,344.5 494.167,344.5 495.5,344.5C 495.5,339.167 495.5,333.833 495.5,328.5C 496.833,328.5 498.167,328.5 499.5,328.5C 499.5,333.833 499.5,339.167 499.5,344.5C 500.833,344.5 502.167,344.5 503.5,344.5C 503.5,339.167 503.5,333.833 503.5,328.5C 504.833,328.5 506.167,328.5 507.5,328.5C 507.5,334.833 507.5,341.167 507.5,347.5C 501.167,347.5 494.833,347.5 488.5,347.5C 488.5,344.833 488.5,342.167 488.5,339.5C 484.833,339.5 481.167,339.5 477.5,339.5C 477.5,341.167 477.5,342.833 477.5,344.5C 479.5,344.5 481.5,344.5 483.5,344.5C 483.5,345.5 483.5,346.5 483.5,347.5C 480.167,347.5 476.833,347.5 473.5,347.5C 473.185,343.629 473.518,339.962 474.5,336.5C 479.167,336.5 483.833,336.5 488.5,336.5C 488.5,333.833 488.5,331.167 488.5,328.5 Z"/></g>
<g><path style="opacity:1" fill="#fef9f9" d="M 512.5,328.5 C 527.833,328.5 543.167,328.5 558.5,328.5C 558.5,329.5 558.5,330.5 558.5,331.5C 543.167,331.5 527.833,331.5 512.5,331.5C 512.5,330.5 512.5,329.5 512.5,328.5 Z"/></g>
<g><path style="opacity:1" fill="#feeeee" d="M 564.5,328.5 C 565.5,328.5 566.5,328.5 567.5,328.5C 567.5,333.833 567.5,339.167 567.5,344.5C 568.833,344.5 570.167,344.5 571.5,344.5C 571.5,339.167 571.5,333.833 571.5,328.5C 572.5,328.5 573.5,328.5 574.5,328.5C 574.5,333.833 574.5,339.167 574.5,344.5C 576.415,344.784 578.081,344.451 579.5,343.5C 579.5,338.5 579.5,333.5 579.5,328.5C 580.5,328.5 581.5,328.5 582.5,328.5C 582.5,334.833 582.5,341.167 582.5,347.5C 576.167,347.5 569.833,347.5 563.5,347.5C 563.5,344.833 563.5,342.167 563.5,339.5C 560.167,339.5 556.833,339.5 553.5,339.5C 553.5,341.167 553.5,342.833 553.5,344.5C 555.167,344.5 556.833,344.5 558.5,344.5C 558.5,345.5 558.5,346.5 558.5,347.5C 555.5,347.5 552.5,347.5 549.5,347.5C 549.5,343.833 549.5,340.167 549.5,336.5C 554.5,336.5 559.5,336.5 564.5,336.5C 564.5,333.833 564.5,331.167 564.5,328.5 Z"/></g>
<g><path style="opacity:1" fill="#e44949" d="M 574.5,328.5 C 575.487,333.305 575.821,338.305 575.5,343.5C 576.833,343.5 578.167,343.5 579.5,343.5C 578.081,344.451 576.415,344.784 574.5,344.5C 574.5,339.167 574.5,333.833 574.5,328.5 Z"/></g>
<g><path style="opacity:1" fill="#fef9f9" d="M 588.5,328.5 C 603.833,328.5 619.167,328.5 634.5,328.5C 634.5,329.5 634.5,330.5 634.5,331.5C 619.167,331.5 603.833,331.5 588.5,331.5C 588.5,330.5 588.5,329.5 588.5,328.5 Z"/></g>
<g><path style="opacity:1" fill="#ec7978" d="M 193.5,328.5 C 193.5,333.833 193.5,339.167 193.5,344.5C 191.585,344.784 189.919,344.451 188.5,343.5C 189.833,343.5 191.167,343.5 192.5,343.5C 192.179,338.305 192.513,333.305 193.5,328.5 Z"/></g>
<g><path style="opacity:1" fill="#eb7979" d="M 13.5,336.5 C 10.8333,336.5 8.16667,336.5 5.5,336.5C 5.5,337.5 5.5,338.5 5.5,339.5C 4.56552,338.432 4.23219,337.099 4.5,335.5C 7.7131,335.19 10.7131,335.523 13.5,336.5 Z"/></g>
<g><path style="opacity:1" fill="#e96c6c" d="M 488.5,328.5 C 488.5,331.167 488.5,333.833 488.5,336.5C 483.833,336.5 479.167,336.5 474.5,336.5C 478.634,335.515 482.968,335.182 487.5,335.5C 487.198,332.941 487.532,330.607 488.5,328.5 Z"/></g>
<g><path style="opacity:1" fill="#ed8180" d="M 564.5,328.5 C 564.5,331.167 564.5,333.833 564.5,336.5C 559.5,336.5 554.5,336.5 549.5,336.5C 553.97,335.514 558.637,335.181 563.5,335.5C 563.198,332.941 563.532,330.607 564.5,328.5 Z"/></g>
<g><path style="opacity:1" fill="#fef4f4" d="M -0.5,336.5 C 0.473067,338.948 0.8064,341.615 0.5,344.5C 3.83333,344.5 7.16667,344.5 10.5,344.5C 10.5,342.833 10.5,341.167 10.5,339.5C 8.83333,339.5 7.16667,339.5 5.5,339.5C 5.5,338.5 5.5,337.5 5.5,336.5C 8.16667,336.5 10.8333,336.5 13.5,336.5C 13.5,340.167 13.5,343.833 13.5,347.5C 8.83333,347.5 4.16667,347.5 -0.5,347.5C -0.5,343.833 -0.5,340.167 -0.5,336.5 Z"/></g>
<g><path style="opacity:1" fill="#fdeeee" d="M 59.5,336.5 C 65.1667,336.5 70.8333,336.5 76.5,336.5C 76.5,339.167 76.5,341.833 76.5,344.5C 79.8333,344.5 83.1667,344.5 86.5,344.5C 86.5,342.833 86.5,341.167 86.5,339.5C 84.5,339.5 82.5,339.5 80.5,339.5C 80.5,338.5 80.5,337.5 80.5,336.5C 83.5,336.5 86.5,336.5 89.5,336.5C 89.5,340.167 89.5,343.833 89.5,347.5C 83.8333,347.5 78.1667,347.5 72.5,347.5C 72.5,344.833 72.5,342.167 72.5,339.5C 69.1667,339.5 65.8333,339.5 62.5,339.5C 62.5,342.167 62.5,344.833 62.5,347.5C 61.5,347.5 60.5,347.5 59.5,347.5C 59.5,343.833 59.5,340.167 59.5,336.5 Z"/></g>
<g><path style="opacity:1" fill="#fdeeed" d="M 134.5,336.5 C 140.167,336.5 145.833,336.5 151.5,336.5C 151.5,339.167 151.5,341.833 151.5,344.5C 154.833,344.5 158.167,344.5 161.5,344.5C 161.5,342.833 161.5,341.167 161.5,339.5C 159.5,339.5 157.5,339.5 155.5,339.5C 155.5,338.5 155.5,337.5 155.5,336.5C 158.5,336.5 161.5,336.5 164.5,336.5C 164.5,340.167 164.5,343.833 164.5,347.5C 158.833,347.5 153.167,347.5 147.5,347.5C 147.5,344.833 147.5,342.167 147.5,339.5C 144.167,339.5 140.833,339.5 137.5,339.5C 137.5,342.167 137.5,344.833 137.5,347.5C 136.5,347.5 135.5,347.5 134.5,347.5C 134.5,343.833 134.5,340.167 134.5,336.5 Z"/></g>
<g><path style="opacity:1" fill="#fef5f5" d="M 236.5,339.5 C 234.958,338.837 233.291,338.17 231.5,337.5C 234.086,336.52 236.753,336.187 239.5,336.5C 239.5,340.167 239.5,343.833 239.5,347.5C 234.167,347.5 228.833,347.5 223.5,347.5C 223.5,344.833 223.5,342.167 223.5,339.5C 219.833,339.5 216.167,339.5 212.5,339.5C 212.5,342.167 212.5,344.833 212.5,347.5C 211.5,347.5 210.5,347.5 209.5,347.5C 209.5,343.833 209.5,340.167 209.5,336.5C 215.167,336.5 220.833,336.5 226.5,336.5C 226.5,339.167 226.5,341.833 226.5,344.5C 229.833,344.5 233.167,344.5 236.5,344.5C 236.5,342.833 236.5,341.167 236.5,339.5 Z"/></g>
<g><path style="opacity:1" fill="#fdefef" d="M 285.5,336.5 C 291.167,336.5 296.833,336.5 302.5,336.5C 302.5,339.167 302.5,341.833 302.5,344.5C 305.833,344.5 309.167,344.5 312.5,344.5C 312.5,342.833 312.5,341.167 312.5,339.5C 310.5,339.5 308.5,339.5 306.5,339.5C 306.5,338.5 306.5,337.5 306.5,336.5C 309.5,336.5 312.5,336.5 315.5,336.5C 315.5,340.167 315.5,343.833 315.5,347.5C 309.833,347.5 304.167,347.5 298.5,347.5C 298.5,344.833 298.5,342.167 298.5,339.5C 295.167,339.5 291.833,339.5 288.5,339.5C 288.5,342.167 288.5,344.833 288.5,347.5C 287.5,347.5 286.5,347.5 285.5,347.5C 285.5,343.833 285.5,340.167 285.5,336.5 Z"/></g>
<g><path style="opacity:1" fill="#fef4f4" d="M 361.5,336.5 C 367.167,336.5 372.833,336.5 378.5,336.5C 378.5,339.167 378.5,341.833 378.5,344.5C 381.833,344.5 385.167,344.5 388.5,344.5C 388.5,342.833 388.5,341.167 388.5,339.5C 386.5,339.5 384.5,339.5 382.5,339.5C 382.5,338.5 382.5,337.5 382.5,336.5C 385.5,336.5 388.5,336.5 391.5,336.5C 391.5,340.167 391.5,343.833 391.5,347.5C 386.167,347.5 380.833,347.5 375.5,347.5C 375.5,344.833 375.5,342.167 375.5,339.5C 371.833,339.5 368.167,339.5 364.5,339.5C 364.5,342.167 364.5,344.833 364.5,347.5C 363.5,347.5 362.5,347.5 361.5,347.5C 361.5,343.833 361.5,340.167 361.5,336.5 Z"/></g>
<g><path style="opacity:1" fill="#fdefef" d="M 453.5,336.5 C 453.5,339.167 453.5,341.833 453.5,344.5C 457.167,344.5 460.833,344.5 464.5,344.5C 464.784,342.585 464.451,340.919 463.5,339.5C 461.833,339.5 460.167,339.5 458.5,339.5C 458.5,338.5 458.5,337.5 458.5,336.5C 461.5,336.5 464.5,336.5 467.5,336.5C 467.5,340.167 467.5,343.833 467.5,347.5C 461.833,347.5 456.167,347.5 450.5,347.5C 450.5,344.833 450.5,342.167 450.5,339.5C 447.167,339.5 443.833,339.5 440.5,339.5C 440.5,342.167 440.5,344.833 440.5,347.5C 439.5,347.5 438.5,347.5 437.5,347.5C 437.5,343.833 437.5,340.167 437.5,336.5C 442.833,336.5 448.167,336.5 453.5,336.5 Z"/></g>
<g><path style="opacity:1" fill="#feeeed" d="M 529.5,336.5 C 529.5,339.167 529.5,341.833 529.5,344.5C 533.167,344.5 536.833,344.5 540.5,344.5C 540.784,342.585 540.451,340.919 539.5,339.5C 537.5,339.5 535.5,339.5 533.5,339.5C 533.5,338.5 533.5,337.5 533.5,336.5C 536.833,336.5 540.167,336.5 543.5,336.5C 543.5,340.167 543.5,343.833 543.5,347.5C 537.833,347.5 532.167,347.5 526.5,347.5C 526.5,344.833 526.5,342.167 526.5,339.5C 523.167,339.5 519.833,339.5 516.5,339.5C 515.835,341.698 515.168,344.031 514.5,346.5C 513.832,344.031 513.165,341.698 512.5,339.5C 512.5,338.5 512.5,337.5 512.5,336.5C 518.167,336.5 523.833,336.5 529.5,336.5 Z"/></g>
<g><path style="opacity:1" fill="#fdedec" d="M 605.5,336.5 C 605.5,339.167 605.5,341.833 605.5,344.5C 609.167,344.5 612.833,344.5 616.5,344.5C 616.784,342.585 616.451,340.919 615.5,339.5C 613.833,339.5 612.167,339.5 610.5,339.5C 610.5,338.5 610.5,337.5 610.5,336.5C 613.5,336.5 616.5,336.5 619.5,336.5C 619.5,340.167 619.5,343.833 619.5,347.5C 613.833,347.5 608.167,347.5 602.5,347.5C 602.5,344.833 602.5,342.167 602.5,339.5C 599.167,339.5 595.833,339.5 592.5,339.5C 592.5,342.167 592.5,344.833 592.5,347.5C 591.5,347.5 590.5,347.5 589.5,347.5C 589.577,343.785 589.244,340.119 588.5,336.5C 594.167,336.5 599.833,336.5 605.5,336.5 Z"/></g>
<g><path style="opacity:1" fill="#fef3f3" d="M 639.5,336.5 C 639.5,337.5 639.5,338.5 639.5,339.5C 636.167,339.5 632.833,339.5 629.5,339.5C 629.5,341.167 629.5,342.833 629.5,344.5C 631.5,344.5 633.5,344.5 635.5,344.5C 635.5,345.5 635.5,346.5 635.5,347.5C 632.167,347.5 628.833,347.5 625.5,347.5C 625.5,343.833 625.5,340.167 625.5,336.5C 630.167,336.5 634.833,336.5 639.5,336.5 Z"/></g>
<g><path style="opacity:1" fill="#f39f9d" d="M 239.5,336.5 C 236.753,336.187 234.086,336.52 231.5,337.5C 233.291,338.17 234.958,338.837 236.5,339.5C 234.5,339.5 232.5,339.5 230.5,339.5C 230.5,338.167 230.5,336.833 230.5,335.5C 233.713,335.19 236.713,335.523 239.5,336.5 Z"/></g>
<g><path style="opacity:1" fill="#f0908f" d="M 512.5,339.5 C 513.165,341.698 513.832,344.031 514.5,346.5C 515.168,344.031 515.835,341.698 516.5,339.5C 516.5,342.167 516.5,344.833 516.5,347.5C 515.167,347.5 513.833,347.5 512.5,347.5C 512.5,344.833 512.5,342.167 512.5,339.5 Z"/></g>
<g><path style="opacity:1" fill="#e85e5b" d="M 453.5,336.5 C 454.468,338.607 454.802,340.941 454.5,343.5C 457.5,343.5 460.5,343.5 463.5,343.5C 463.5,342.167 463.5,340.833 463.5,339.5C 464.451,340.919 464.784,342.585 464.5,344.5C 460.833,344.5 457.167,344.5 453.5,344.5C 453.5,341.833 453.5,339.167 453.5,336.5 Z"/></g>
<g><path style="opacity:1" fill="#e75955" d="M 529.5,336.5 C 530.468,338.607 530.802,340.941 530.5,343.5C 533.5,343.5 536.5,343.5 539.5,343.5C 539.5,342.167 539.5,340.833 539.5,339.5C 540.451,340.919 540.784,342.585 540.5,344.5C 536.833,344.5 533.167,344.5 529.5,344.5C 529.5,341.833 529.5,339.167 529.5,336.5 Z"/></g>
<g><path style="opacity:1" fill="#e75b59" d="M 605.5,336.5 C 606.468,338.607 606.802,340.941 606.5,343.5C 609.5,343.5 612.5,343.5 615.5,343.5C 615.5,342.167 615.5,340.833 615.5,339.5C 616.451,340.919 616.784,342.585 616.5,344.5C 612.833,344.5 609.167,344.5 605.5,344.5C 605.5,341.833 605.5,339.167 605.5,336.5 Z"/></g>
<g><path style="opacity:1" fill="#fefafa" d="M 216.5,344.5 C 217.5,344.5 218.5,344.5 219.5,344.5C 219.5,345.5 219.5,346.5 219.5,347.5C 218.5,347.5 217.5,347.5 216.5,347.5C 216.5,346.5 216.5,345.5 216.5,344.5 Z"/></g>
<g><path style="opacity:1" fill="#fce8e8" d="M 66.5,344.5 C 67.5,344.5 68.5,344.5 69.5,344.5C 69.5,345.5 69.5,346.5 69.5,347.5C 68.5,347.5 67.5,347.5 66.5,347.5C 66.5,346.5 66.5,345.5 66.5,344.5 Z"/></g>
<g><path style="opacity:1" fill="#fbcecc" d="M 140.5,344.5 C 141.833,344.5 143.167,344.5 144.5,344.5C 144.5,345.5 144.5,346.5 144.5,347.5C 143.167,347.5 141.833,347.5 140.5,347.5C 140.5,346.5 140.5,345.5 140.5,344.5 Z"/></g>
<g><path style="opacity:1" fill="#fceaea" d="M 292.5,344.5 C 293.5,344.5 294.5,344.5 295.5,344.5C 295.5,345.5 295.5,346.5 295.5,347.5C 294.5,347.5 293.5,347.5 292.5,347.5C 292.5,346.5 292.5,345.5 292.5,344.5 Z"/></g>
<g><path style="opacity:1" fill="#fdf1f1" d="M 368.5,344.5 C 369.5,344.5 370.5,344.5 371.5,344.5C 371.5,345.5 371.5,346.5 371.5,347.5C 370.5,347.5 369.5,347.5 368.5,347.5C 368.5,346.5 368.5,345.5 368.5,344.5 Z"/></g>
<g><path style="opacity:1" fill="#facdcc" d="M 443.5,344.5 C 444.833,344.5 446.167,344.5 447.5,344.5C 447.5,345.5 447.5,346.5 447.5,347.5C 446.167,347.5 444.833,347.5 443.5,347.5C 443.5,346.5 443.5,345.5 443.5,344.5 Z"/></g>
<g><path style="opacity:1" fill="#fcecec" d="M 519.5,344.5 C 520.5,344.5 521.5,344.5 522.5,344.5C 522.5,345.5 522.5,346.5 522.5,347.5C 521.5,347.5 520.5,347.5 519.5,347.5C 519.5,346.5 519.5,345.5 519.5,344.5 Z"/></g>
<g><path style="opacity:1" fill="#fbcecc" d="M 595.5,344.5 C 596.833,344.5 598.167,344.5 599.5,344.5C 599.5,345.5 599.5,346.5 599.5,347.5C 598.167,347.5 596.833,347.5 595.5,347.5C 595.5,346.5 595.5,345.5 595.5,344.5 Z"/></g>
</svg>
