<?xml version="1.0" encoding="UTF-8"?>
<!DOCTYPE svg PUBLIC "-//W3C//DTD SVG 1.1//EN" "http://www.w3.org/Graphics/SVG/1.1/DTD/svg11.dtd">
<svg xmlns="http://www.w3.org/2000/svg" version="1.1" width="640px" height="480px" style="shape-rendering:geometricPrecision; text-rendering:geometricPrecision; image-rendering:optimizeQuality; fill-rule:evenodd; clip-rule:evenodd" xmlns:xlink="http://www.w3.org/1999/xlink">
<g><path style="opacity:1" fill="#cd1125" d="M -0.5,-0.5 C 212.833,-0.5 426.167,-0.5 639.5,-0.5C 639.5,52.8333 639.5,106.167 639.5,159.5C 426.167,159.5 212.833,159.5 -0.5,159.5C -0.5,106.167 -0.5,52.8333 -0.5,-0.5 Z"/></g>
<g><path style="opacity:1" fill="#fefefe" d="M -0.5,159.5 C 212.833,159.5 426.167,159.5 639.5,159.5C 639.5,212.833 639.5,266.167 639.5,319.5C 426.167,319.5 212.833,319.5 -0.5,319.5C -0.5,266.167 -0.5,212.833 -0.5,159.5 Z"/></g>
<g><path style="opacity:1" fill="#449665" d="M 398.5,192.5 C 400.017,192.511 401.184,193.177 402,194.5C 402.851,197.053 402.518,199.386 401,201.5C 399.092,198.794 398.259,195.794 398.5,192.5 Z"/></g>
<g><path style="opacity:1" fill="#1b8147" d="M 322.5,197.5 C 326.724,199.78 331.058,201.78 335.5,203.5C 335.688,205.103 335.188,206.437 334,207.5C 333.5,223.83 333.333,240.163 333.5,256.5C 336.972,256.874 339.972,255.874 342.5,253.5C 345.514,259.875 347.514,266.542 348.5,273.5C 339.833,273.5 331.167,273.5 322.5,273.5C 322.5,248.167 322.5,222.833 322.5,197.5 Z"/></g>
<g><path style="opacity:1" fill="#0a7c40" d="M 438.5,197.5 C 442.656,200.079 446.989,202.413 451.5,204.5C 450.855,205.646 450.022,206.646 449,207.5C 448.5,223.83 448.333,240.163 448.5,256.5C 452.08,257.077 455.08,256.077 457.5,253.5C 460.675,259.841 462.675,266.508 463.5,273.5C 455.167,273.5 446.833,273.5 438.5,273.5C 438.5,248.167 438.5,222.833 438.5,197.5 Z"/></g>
<g><path style="opacity:1" fill="#097c40" d="M 248.5,243.5 C 247.957,243.56 247.624,243.893 247.5,244.5C 255.323,245.82 262.99,245.82 270.5,244.5C 276.5,244.5 282.5,244.5 288.5,244.5C 288.798,241.735 289.798,239.235 291.5,237C 295.04,234.595 298.874,232.762 303,231.5C 307.004,233.672 310.67,236.339 314,239.5C 315.456,250.731 315.956,262.064 315.5,273.5C 276.494,273.167 237.494,273.5 198.5,274.5C 194.896,284.468 187.896,288.468 177.5,286.5C 180.756,284.289 183.922,281.955 187,279.5C 188.555,274.618 188.888,269.618 188,264.5C 186.03,260.727 184.197,256.894 182.5,253C 185.719,250.469 189.219,248.302 193,246.5C 192.449,251.099 194.282,254.265 198.5,256C 204.157,256.499 209.824,256.666 215.5,256.5C 216.006,252.993 215.34,249.826 213.5,247C 217.012,244.743 220.346,242.243 223.5,239.5C 224.495,244.792 224.828,250.125 224.5,255.5C 251.5,255.5 278.5,255.5 305.5,255.5C 305.665,251.818 305.499,248.152 305,244.5C 304.424,241.876 303.09,241.209 301,242.5C 300.502,245.817 300.335,249.15 300.5,252.5C 279.167,252.5 257.833,252.5 236.5,252.5C 236.335,248.818 236.501,245.152 237,241.5C 251.195,226.971 265.695,212.804 280.5,199C 281.332,198.312 281.998,198.479 282.5,199.5C 283.921,202.009 285.588,204.343 287.5,206.5C 286.271,207.281 284.938,207.781 283.5,208C 271.604,219.728 259.937,231.562 248.5,243.5 Z"/></g>
<g><path style="opacity:1" fill="#2c8a54" d="M 411.5,201.5 C 414.76,205.924 413.593,208.924 408,210.5C 406.333,209.833 404.667,209.167 403,208.5C 397.575,212.562 392.408,212.395 387.5,208C 392.942,209.453 397.776,208.286 402,204.5C 406.785,207.923 409.951,206.923 411.5,201.5 Z"/></g>
<g><path style="opacity:1" fill="#037a3e" d="M 427.5,202.5 C 428.498,225.661 428.831,248.994 428.5,272.5C 408.932,273.135 389.599,272.468 370.5,270.5C 369.901,263.609 370.735,256.942 373,250.5C 376.781,246.01 381.614,244.343 387.5,245.5C 387.422,242.748 387.255,240.082 387,237.5C 390.035,234.13 393.368,231.13 397,228.5C 397.5,237.16 397.666,245.827 397.5,254.5C 399.607,255.468 401.941,255.802 404.5,255.5C 404.5,244.5 404.5,233.5 404.5,222.5C 407.438,220.066 410.271,217.399 413,214.5C 413.5,227.829 413.667,241.163 413.5,254.5C 415.607,255.468 417.941,255.802 420.5,255.5C 420.5,240.167 420.5,224.833 420.5,209.5C 422.5,206.833 424.833,204.5 427.5,202.5 Z"/></g>
<g><path style="opacity:1" fill="#c1dfd0" d="M 404.5,222.5 C 404.5,233.5 404.5,244.5 404.5,255.5C 401.941,255.802 399.607,255.468 397.5,254.5C 399.5,254.5 401.5,254.5 403.5,254.5C 403.172,243.654 403.506,232.987 404.5,222.5 Z"/></g>
<g><path style="opacity:1" fill="#84bfa1" d="M 248.5,243.5 C 255.648,244.492 262.981,244.825 270.5,244.5C 262.99,245.82 255.323,245.82 247.5,244.5C 247.624,243.893 247.957,243.56 248.5,243.5 Z"/></g>
<g><path style="opacity:1" fill="#a5d0bb" d="M 420.5,209.5 C 420.5,224.833 420.5,240.167 420.5,255.5C 417.941,255.802 415.607,255.468 413.5,254.5C 415.5,254.5 417.5,254.5 419.5,254.5C 419.171,239.324 419.504,224.324 420.5,209.5 Z"/></g>
<g><path style="opacity:1" fill="#e1efe8" d="M 382.5,252.5 C 384.167,252.5 385.833,252.5 387.5,252.5C 387.65,256.161 386.15,257.161 383,255.5C 382.517,254.552 382.351,253.552 382.5,252.5 Z"/></g>
<g><path style="opacity:1" fill="#298f5b" d="M 370.5,270.5 C 389.599,272.468 408.932,273.135 428.5,272.5C 428.831,248.994 428.498,225.661 427.5,202.5C 427.783,201.711 428.283,201.044 429,200.5C 429.5,224.831 429.667,249.164 429.5,273.5C 409.833,273.5 390.167,273.5 370.5,273.5C 370.5,272.5 370.5,271.5 370.5,270.5 Z"/></g>
<g><path style="opacity:1" fill="#25854d" d="M 211.5,278.5 C 216.493,278.997 217.493,281.164 214.5,285C 209.148,285.175 208.148,283.009 211.5,278.5 Z"/></g>
<g><path style="opacity:1" fill="#000000" d="M -0.5,319.5 C 212.833,319.5 426.167,319.5 639.5,319.5C 639.5,372.833 639.5,426.167 639.5,479.5C 426.167,479.5 212.833,479.5 -0.5,479.5C -0.5,426.167 -0.5,372.833 -0.5,319.5 Z"/></g>
</svg>
