<?xml version="1.0" encoding="UTF-8"?>
<!DOCTYPE svg PUBLIC "-//W3C//DTD SVG 1.1//EN" "http://www.w3.org/Graphics/SVG/1.1/DTD/svg11.dtd">
<svg xmlns="http://www.w3.org/2000/svg" version="1.1" width="640px" height="480px" style="shape-rendering:geometricPrecision; text-rendering:geometricPrecision; image-rendering:optimizeQuality; fill-rule:evenodd; clip-rule:evenodd" xmlns:xlink="http://www.w3.org/1999/xlink">
<g><path style="opacity:1" fill="#b90000" d="M -0.5,-0.5 C 212.833,-0.5 426.167,-0.5 639.5,-0.5C 639.5,159.5 639.5,319.5 639.5,479.5C 426.167,479.5 212.833,479.5 -0.5,479.5C -0.5,319.5 -0.5,159.5 -0.5,-0.5 Z"/></g>
<g><path style="opacity:1" fill="#1a1513" d="M 421.5,124.5 C 421.688,126.103 421.188,127.437 420,128.5C 419.025,125.24 417.858,122.073 416.5,119C 412.871,119.11 409.204,119.276 405.5,119.5C 406.881,115.758 409.048,112.424 412,109.5C 412.772,105.11 412.606,100.777 411.5,96.5C 413.836,95.9766 416.17,96.4766 418.5,98C 420.167,98.6667 421.833,98.6667 423.5,98C 426.333,95.8333 429.167,93.6667 432,91.5C 432.469,94.9444 431.969,98.2778 430.5,101.5C 430.453,103 431.119,104 432.5,104.5C 438.167,101.542 443.501,102.042 448.5,106C 459.25,108.232 469.917,107.899 480.5,105C 484.833,104.333 489.167,104.333 493.5,105C 498.167,106.667 502.833,108.333 507.5,110C 510.625,115.603 508.958,119.27 502.5,121C 489.833,124.333 477.167,127.667 464.5,131C 450.48,136.875 445.313,147.375 449,162.5C 447.574,171.483 446.24,180.483 445,189.5C 443.423,199.477 440.756,209.144 437,218.5C 436.615,225.581 436.949,232.581 438,239.5C 435.347,248.338 430.18,255.171 422.5,260C 419.142,261.453 415.642,262.287 412,262.5C 404.203,260.593 396.37,258.759 388.5,257C 363.553,255.575 339.386,250.409 316,241.5C 298.944,252.879 281.611,263.879 264,274.5C 263.316,275.784 263.483,276.951 264.5,278C 274.646,281.83 283.146,287.997 290,296.5C 300.902,309.412 310.236,323.412 318,338.5C 321.167,341.667 324.333,344.833 327.5,348C 329.909,349.707 332.575,350.54 335.5,350.5C 336.111,347.039 334.944,344.372 332,342.5C 331.517,341.552 331.351,340.552 331.5,339.5C 335.445,342.85 337.778,347.183 338.5,352.5C 340.953,354.92 343.953,356.086 347.5,356C 352.596,361.703 353.929,360.37 351.5,352C 353.084,349.408 355.084,347.074 357.5,345C 354.316,343.496 351.149,341.996 348,340.5C 346.667,337.167 345.333,333.833 344,330.5C 342.36,332.579 341.194,334.912 340.5,337.5C 336.845,338.586 333.178,338.586 329.5,337.5C 328.227,336.923 328.227,336.257 329.5,335.5C 332.758,336.417 336.091,336.751 339.5,336.5C 340.045,333.083 341.378,330.083 343.5,327.5C 346.242,330.692 348.242,334.358 349.5,338.5C 353.038,340.769 356.705,342.769 360.5,344.5C 357.936,347.222 355.603,350.056 353.5,353C 356.764,365.521 354.431,367.188 346.5,358C 345.552,357.517 344.552,357.351 343.5,357.5C 343.571,364.356 340.404,369.023 334,371.5C 330.333,376.5 326.667,381.5 323,386.5C 320.731,396.319 316.731,405.319 311,413.5C 308.179,415.322 305.679,417.489 303.5,420C 300.331,420.978 297.497,420.478 295,418.5C 294.333,415.167 294.333,411.833 295,408.5C 297.598,397.375 300.598,386.375 304,375.5C 306.946,363.987 303.446,355.154 293.5,349C 272.797,337.301 254.797,322.301 239.5,304C 234.313,301.582 228.98,299.582 223.5,298C 215.236,289.875 211.736,280.041 213,268.5C 217.123,260.365 222.789,253.365 230,247.5C 243.428,226.067 259.761,207.067 279,190.5C 277.341,170.205 275.674,149.871 274,129.5C 272.951,128.483 271.784,128.316 270.5,129C 267.532,132.147 264.198,134.814 260.5,137C 237.849,144.827 214.516,148.827 190.5,149C 183.589,149.741 177.923,152.741 173.5,158C 174.774,159.221 176.274,160.054 178,160.5C 181.654,158.795 185.487,157.795 189.5,157.5C 189.509,159.308 189.009,160.975 188,162.5C 183.306,166.148 183.639,169.482 189,172.5C 190.009,174.025 190.509,175.692 190.5,177.5C 185.86,176.603 181.194,176.436 176.5,177C 173.64,179.36 170.64,181.527 167.5,183.5C 166.192,180.294 165.525,176.96 165.5,173.5C 161.106,172.596 157.106,170.93 153.5,168.5C 156.299,166.786 159.299,165.453 162.5,164.5C 163.287,163.758 163.953,162.925 164.5,162C 157.957,159.422 155.123,154.588 156,147.5C 153.333,142.167 150.667,136.833 148,131.5C 141.859,125.205 136.192,118.538 131,111.5C 129.051,106.703 127.884,101.703 127.5,96.5C 127.974,92.185 130.307,90.3516 134.5,91C 146.093,99.9221 157.093,109.589 167.5,120C 174.107,125.4 181.44,126.733 189.5,124C 204.276,115.279 219.609,107.612 235.5,101C 242.906,97.9751 250.573,95.9751 258.5,95C 263.37,91.2907 268.036,87.2907 272.5,83C 285.258,78.9873 296.425,81.4873 306,90.5C 309.305,98.3865 312.305,106.386 315,114.5C 318,119.5 321,124.5 324,129.5C 330.994,146.15 336.994,163.15 342,180.5C 343.375,182.376 344.542,184.376 345.5,186.5C 364.085,195.625 382.418,204.958 400.5,214.5C 399.543,202.824 401.043,191.491 405,180.5C 410.833,164.5 418.5,149.5 428,135.5C 428.687,131.42 429.687,127.42 431,123.5C 430.813,112.065 428.479,111.731 424,122.5C 423.292,123.381 422.458,124.047 421.5,124.5 Z"/></g>
<g><path style="opacity:1" fill="#f0f0f0" d="M 436.5,104.5 C 446.422,104.589 450.089,109.422 447.5,119C 444.5,119.333 441.5,119.667 438.5,120C 437.54,121.419 436.707,122.919 436,124.5C 435.786,134.204 435.12,143.87 434,153.5C 432.414,156.341 430.58,159.007 428.5,161.5C 426.12,158.119 423.12,155.453 419.5,153.5C 422.254,147.653 425.754,142.32 430,137.5C 431.406,131.709 432.573,125.875 433.5,120C 432.708,115.843 432.542,111.677 433,107.5C 434.145,106.364 435.312,105.364 436.5,104.5 Z"/></g>
<g><path style="opacity:1" fill="#fcfcfc" d="M 306.5,103.5 C 307.376,103.369 308.043,103.702 308.5,104.5C 311.694,113.89 316.194,122.557 322,130.5C 328.062,145.186 333.229,160.186 337.5,175.5C 337.167,176.5 336.833,177.5 336.5,178.5C 328.653,185.528 320.153,191.528 311,196.5C 306.738,195.468 302.571,194.135 298.5,192.5C 300.655,169.247 296.655,147.08 286.5,126C 287.936,117.229 292.936,111.562 301.5,109C 303.373,107.296 305.04,105.463 306.5,103.5 Z"/></g>
<g><path style="opacity:1" fill="#fafafa" d="M 236.5,102.5 C 238.144,102.286 239.644,102.62 241,103.5C 244.719,109.108 246.885,115.274 247.5,122C 247.695,124.352 247.028,126.352 245.5,128C 241.389,129.891 237.056,130.891 232.5,131C 222.167,131.333 211.833,131.667 201.5,132C 194.167,136.333 186.833,140.667 179.5,145C 173.014,147.182 170.014,144.849 170.5,138C 170.864,133.697 172.364,129.863 175,126.5C 178.33,128.138 181.83,128.638 185.5,128C 202.282,118.942 219.282,110.442 236.5,102.5 Z"/></g>
<g><path style="opacity:1" fill="#ebebeb" d="M 141.5,99.5 C 144.823,101.152 146.49,103.819 146.5,107.5C 146.034,112.665 144.867,117.665 143,122.5C 140.51,121.018 139.343,118.852 139.5,116C 140.934,110.593 141.601,105.093 141.5,99.5 Z"/></g>
<g><path style="opacity:1" fill="#f4e500" d="M 421.5,124.5 C 420.136,122.78 419.136,120.78 418.5,118.5C 415.215,117.676 411.882,117.176 408.5,117C 410.333,114.5 412.167,112 414,109.5C 414.333,105.833 414.667,102.167 415,98.5C 417.192,99.3995 419.358,100.399 421.5,101.5C 424.009,100.079 426.343,98.4121 428.5,96.5C 429.528,98.4401 429.528,100.44 428.5,102.5C 431.247,107.844 430.08,112.177 425,115.5C 423.729,118.484 422.562,121.484 421.5,124.5 Z"/></g>
<g><path style="opacity:1" fill="#f7f7f7" d="M 262.5,94.5 C 263.809,96.5706 264.475,99.0706 264.5,102C 264.848,105.867 265.014,109.701 265,113.5C 260.73,118.461 255.73,122.461 250,125.5C 249.66,121.442 248.993,117.442 248,113.5C 246.13,109.104 244.297,104.771 242.5,100.5C 247.819,99.3373 253.153,98.1706 258.5,97C 260.32,96.7996 261.653,95.9663 262.5,94.5 Z"/></g>
<g><path style="opacity:1" fill="#f9f9f9" d="M 130.5,93.5 C 134.025,93.3459 136.859,94.6792 139,97.5C 139.645,103.635 138.978,109.635 137,115.5C 132.021,108.902 129.854,101.568 130.5,93.5 Z"/></g>
<g><path style="opacity:1" fill="#f0d805" d="M 284.5,87.5 C 286.527,87.3379 288.527,87.5045 290.5,88C 291.574,88.7387 292.241,89.7387 292.5,91C 288.374,96.7445 284.874,102.911 282,109.5C 281.333,111.5 281.333,113.5 282,115.5C 283.303,117.94 284.47,120.44 285.5,123C 277.191,128.53 271.191,126.53 267.5,117C 267.759,115.739 268.426,114.739 269.5,114C 274.374,113.983 277.874,111.816 280,107.5C 281.714,100.809 283.214,94.1422 284.5,87.5 Z"/></g>
<g><path style="opacity:1" fill="#f6f6f6" d="M 291.5,84.5 C 300.261,86.0939 305.594,91.2606 307.5,100C 303.271,105.45 297.938,109.45 291.5,112C 289.3,114.234 287.467,116.734 286,119.5C 283.826,116.454 283.159,113.12 284,109.5C 287.739,103.271 291.239,96.9372 294.5,90.5C 293.481,88.4893 292.481,86.4893 291.5,84.5 Z"/></g>
<g><path style="opacity:1" fill="#f6f6f6" d="M 278.5,83.5 C 282.226,83.1774 285.893,83.5108 289.5,84.5C 286.478,84.9282 283.978,86.2615 282,88.5C 280.785,93.0509 280.119,97.7176 280,102.5C 278.443,108.563 274.61,111.896 268.5,112.5C 267.808,111.975 267.308,111.308 267,110.5C 266.333,104.167 266.333,97.8333 267,91.5C 269.823,87.1878 273.657,84.5211 278.5,83.5 Z"/></g>
<g><path style="opacity:1" fill="#ecdb0d" d="M 148.5,106.5 C 151.936,107.602 153.936,109.936 154.5,113.5C 153.214,119.205 151.714,124.872 150,130.5C 147.662,128.843 146.162,126.676 145.5,124C 146.825,118.211 147.825,112.377 148.5,106.5 Z"/></g>
<g><path style="opacity:1" fill="#f5f5f5" d="M 485.5,108.5 C 493.792,106.592 501.126,108.592 507.5,114.5C 504.997,117.919 501.664,119.419 497.5,119C 493.307,115.635 489.307,112.135 485.5,108.5 Z"/></g>
<g><path style="opacity:1" fill="#f5f5f5" d="M 449.5,108.5 C 451.792,108.244 453.959,108.577 456,109.5C 458.705,115.742 461.538,121.908 464.5,128C 462.668,128.748 461.001,129.748 459.5,131C 458.365,131.749 457.365,131.583 456.5,130.5C 454.397,126.894 451.731,123.727 448.5,121C 450.824,117.036 451.157,112.87 449.5,108.5 Z"/></g>
<g><path style="opacity:1" fill="#e6e6e6" d="M 477.5,107.5 C 479.288,107.215 480.955,107.548 482.5,108.5C 486.685,112.519 491.018,116.353 495.5,120C 492.463,121.85 489.463,121.85 486.5,120C 482.833,116.333 479.167,112.667 475.5,109C 476.416,108.722 477.082,108.222 477.5,107.5 Z"/></g>
<g><path style="opacity:1" fill="#f0df0a" d="M 467.5,109.5 C 469.527,109.338 471.527,109.505 473.5,110C 477.682,114.349 482.015,118.515 486.5,122.5C 483.979,123.966 481.312,124.466 478.5,124C 474.132,119.967 470.132,115.634 466.5,111C 467.056,110.617 467.389,110.117 467.5,109.5 Z"/></g>
<g><path style="opacity:1" fill="#f6f6f6" d="M 458.5,109.5 C 459.552,109.351 460.552,109.517 461.5,110C 466.5,115 471.5,120 476.5,125C 473.23,126.321 469.897,126.987 466.5,127C 463.154,121.455 460.487,115.621 458.5,109.5 Z"/></g>
<g><path style="opacity:1" fill="#f0f0f0" d="M 156.5,113.5 C 159.173,115.506 161.506,117.839 163.5,120.5C 160.35,126.129 157.183,131.796 154,137.5C 152.923,135.884 152.423,134.051 152.5,132C 153.778,125.833 155.112,119.666 156.5,113.5 Z"/></g>
<g><path style="opacity:1" fill="#f5f5f5" d="M 264.5,116.5 C 265.848,119.985 267.848,123.152 270.5,126C 265.286,131.771 258.953,135.104 251.5,136C 249.416,134.499 248.083,132.499 247.5,130C 251.629,126.764 255.962,123.764 260.5,121C 262.041,119.629 263.375,118.129 264.5,116.5 Z"/></g>
<g><path style="opacity:1" fill="#fafafa" d="M 439.5,121.5 C 446.945,121.923 452.278,125.59 455.5,132.5C 453.517,134.984 451.35,137.317 449,139.5C 446.933,147.678 445.933,156.011 446,164.5C 444.8,175.903 443.133,187.237 441,198.5C 439.13,199.743 436.964,200.41 434.5,200.5C 428.3,200.378 422.633,198.545 417.5,195C 416.106,194.044 415.439,192.711 415.5,191C 416.544,185.869 418.377,181.035 421,176.5C 426,168.833 431,161.167 436,153.5C 436.408,143.815 437.075,134.148 438,124.5C 438.513,123.473 439.013,122.473 439.5,121.5 Z"/></g>
<g><path style="opacity:1" fill="#f2f2f2" d="M 165.5,121.5 C 168.018,122.924 170.351,124.591 172.5,126.5C 169.952,130.476 168.619,134.81 168.5,139.5C 163.936,139.55 160.436,141.55 158,145.5C 156.581,143.664 155.414,141.664 154.5,139.5C 158.691,133.778 162.358,127.778 165.5,121.5 Z"/></g>
<g><path style="opacity:1" fill="#f7f7f7" d="M 280.5,127.5 C 282.766,127.141 284.599,127.808 286,129.5C 292.338,144.034 295.838,159.2 296.5,175C 296.515,180.588 295.848,186.088 294.5,191.5C 290.5,189.833 286.5,188.167 282.5,186.5C 279.513,167.273 277.513,147.939 276.5,128.5C 278.099,128.768 279.432,128.434 280.5,127.5 Z"/></g>
<g><path style="opacity:1" fill="#f5f5f5" d="M 243.5,130.5 C 245.533,132.163 247.366,134.163 249,136.5C 249.591,137.483 249.257,138.15 248,138.5C 236.86,142.248 225.527,143.914 214,143.5C 213.202,140.289 213.702,137.289 215.5,134.5C 221.472,133.67 227.472,133.17 233.5,133C 237.133,132.851 240.466,132.018 243.5,130.5 Z"/></g>
<g><path style="opacity:1" fill="#f2f2f2" d="M 202.5,133.5 C 206.226,133.177 209.893,133.511 213.5,134.5C 211.414,137.678 211.08,141.012 212.5,144.5C 204.621,146.153 196.621,146.987 188.5,147C 180.79,148.353 174.457,152.02 169.5,158C 166.055,160.222 163.055,159.722 160.5,156.5C 158.702,153.711 158.202,150.711 159,147.5C 160.833,145.667 162.667,143.833 164.5,142C 166.259,141.202 167.926,141.369 169.5,142.5C 170.074,144.059 170.74,145.559 171.5,147C 174.167,147.667 176.833,147.667 179.5,147C 187.336,142.637 195.003,138.137 202.5,133.5 Z"/></g>
<g><path style="opacity:1" fill="#f5f5f5" d="M 417.5,156.5 C 421.147,156.622 423.981,158.288 426,161.5C 426.667,162.833 426.667,164.167 426,165.5C 420.762,172.575 416.596,180.241 413.5,188.5C 410.843,189.259 408.177,189.926 405.5,190.5C 405.167,190.167 404.833,189.833 404.5,189.5C 408.569,178.367 412.903,167.367 417.5,156.5 Z"/></g>
<g><path style="opacity:1" fill="#f2e300" d="M 170.5,159.5 C 172.865,160.594 175.365,161.261 178,161.5C 180.829,160.797 183.662,160.63 186.5,161C 181.137,165.634 181.47,169.968 187.5,174C 179.946,172.965 173.613,175.131 168.5,180.5C 167.741,177.843 167.074,175.177 166.5,172.5C 163.628,171.042 160.628,169.875 157.5,169C 159.635,167.619 161.968,166.619 164.5,166C 165.191,164.933 165.691,163.766 166,162.5C 167.652,161.601 169.152,160.601 170.5,159.5 Z"/></g>
<g><path style="opacity:1" fill="#efe000" d="M 337.5,179.5 C 338.496,179.414 339.329,179.748 340,180.5C 340.402,181.872 340.902,183.205 341.5,184.5C 333.814,191.354 325.98,198.021 318,204.5C 316.84,216.675 317.673,228.675 320.5,240.5C 317.453,241.145 315.287,240.145 314,237.5C 311.048,227.011 308.881,216.344 307.5,205.5C 298.951,201.392 290.284,197.559 281.5,194C 280.328,192.132 280.495,190.298 282,188.5C 290.406,191.858 298.906,195.025 307.5,198C 309.5,198.667 311.5,198.667 313.5,198C 322.256,192.735 330.256,186.568 337.5,179.5 Z"/></g>
<g><path style="opacity:1" fill="#f9f9f9" d="M 340.5,187.5 C 360.334,196.418 379.667,206.418 398.5,217.5C 396.377,219.745 395.377,222.412 395.5,225.5C 370.109,223.707 347.442,215.04 327.5,199.5C 327.667,199.167 327.833,198.833 328,198.5C 332.36,194.968 336.527,191.301 340.5,187.5 Z"/></g>
<g><path style="opacity:1" fill="#f5f5f5" d="M 406.5,191.5 C 408.833,191.5 411.167,191.5 413.5,191.5C 413.239,198.538 413.572,205.538 414.5,212.5C 414.167,213.167 413.833,213.833 413.5,214.5C 410.242,213.583 406.909,213.249 403.5,213.5C 402.613,207.855 402.446,202.188 403,196.5C 403.257,194.093 404.424,192.427 406.5,191.5 Z"/></g>
<g><path style="opacity:1" fill="#fcfcfc" d="M 278.5,194.5 C 287.436,198.485 296.436,202.485 305.5,206.5C 306.657,209.784 306.824,213.118 306,216.5C 283.686,228.483 265.519,244.983 251.5,266C 248.5,266.667 245.5,266.667 242.5,266C 237.047,261.94 231.047,258.94 224.5,257C 227.685,254.116 230.518,250.949 233,247.5C 236.922,239.984 241.589,232.984 247,226.5C 257.033,215.301 267.533,204.634 278.5,194.5 Z"/></g>
<g><path style="opacity:1" fill="#f8f8f8" d="M 415.5,196.5 C 422.816,200.996 430.816,202.996 439.5,202.5C 437.23,210.142 435.064,217.809 433,225.5C 427.802,221.904 422.469,218.57 417,215.5C 415.683,209.243 415.183,202.909 415.5,196.5 Z"/></g>
<g><path style="opacity:1" fill="#fcfcfc" d="M 323.5,201.5 C 325.308,201.491 326.975,201.991 328.5,203C 348.559,217.244 370.892,225.577 395.5,228C 401.351,233.901 403.018,240.901 400.5,249C 401.028,251.881 401.694,254.715 402.5,257.5C 391.991,255.192 381.324,254.026 370.5,254C 354.836,251.162 339.502,247.162 324.5,242C 320.114,234.839 318.447,227.005 319.5,218.5C 319.667,214.167 319.833,209.833 320,205.5C 321.376,204.295 322.542,202.962 323.5,201.5 Z"/></g>
<g><path style="opacity:1" fill="#f1da05" d="M 403.5,215.5 C 406.518,215.335 409.518,215.502 412.5,216C 414.82,217.488 414.987,219.321 413,221.5C 411.685,227.204 413.018,232.204 417,236.5C 420.516,238.926 423.849,241.593 427,244.5C 427.424,249.583 425.258,251.583 420.5,250.5C 417.813,242.285 413.48,235.118 407.5,229C 404.242,228.788 401.076,228.288 398,227.5C 397.413,222.344 399.246,218.344 403.5,215.5 Z"/></g>
<g><path style="opacity:1" fill="#fafafa" d="M 306.5,218.5 C 307.117,218.611 307.617,218.944 308,219.5C 308.699,226.675 310.533,233.509 313.5,240C 296.419,251.291 279.252,262.458 262,273.5C 259.819,270.656 257.653,267.822 255.5,265C 267.977,244.446 284.977,228.946 306.5,218.5 Z"/></g>
<g><path style="opacity:1" fill="#f5f5f5" d="M 415.5,218.5 C 423.059,220.859 429.559,224.859 435,230.5C 436.784,238.98 434.451,246.313 428,252.5C 428.138,250.51 428.638,248.51 429.5,246.5C 429.281,245.062 428.781,243.729 428,242.5C 422.221,239.125 417.888,234.458 415,228.5C 414.457,225.132 414.624,221.799 415.5,218.5 Z"/></g>
<g><path style="opacity:1" fill="#f6f6f6" d="M 400.5,231.5 C 403.107,230.198 405.773,230.364 408.5,232C 412.514,239.032 416.514,246.032 420.5,253C 422.5,253.333 424.5,253.667 426.5,254C 420.43,259.197 413.43,260.864 405.5,259C 404.565,255.497 403.565,251.997 402.5,248.5C 403.465,244.191 403.631,239.857 403,235.5C 402.392,233.934 401.558,232.6 400.5,231.5 Z"/></g>
<g><path style="opacity:1" fill="#f7f7f7" d="M 221.5,258.5 C 224.479,259.317 227.479,260.151 230.5,261C 235.764,266.13 242.097,268.797 249.5,269C 247.787,270.378 246.453,272.045 245.5,274C 236.833,274.333 228.167,274.667 219.5,275C 218.228,276.307 217.228,277.807 216.5,279.5C 215.34,275.541 215.173,271.541 216,267.5C 217.662,264.351 219.495,261.351 221.5,258.5 Z"/></g>
<g><path style="opacity:1" fill="#edd505" d="M 252.5,267.5 C 259.161,270.335 261.327,275.335 259,282.5C 257.446,285.102 255.28,286.269 252.5,286C 250.833,284.333 249.167,282.667 247.5,281C 242.833,280.333 238.167,280.333 233.5,281C 229.909,283.805 225.909,284.805 221.5,284C 219.536,281.833 219.202,279.499 220.5,277C 228.833,276.667 237.167,276.333 245.5,276C 248.393,273.609 250.727,270.775 252.5,267.5 Z"/></g>
<g><path style="opacity:1" fill="#f6f6f6" d="M 261.5,279.5 C 268.011,281.672 273.845,285.005 279,289.5C 279.725,292.377 279.225,295.043 277.5,297.5C 276.635,298.583 275.635,298.749 274.5,298C 268.938,294.052 262.938,290.885 256.5,288.5C 259.471,286.203 261.138,283.203 261.5,279.5 Z"/></g>
<g><path style="opacity:1" fill="#f7f7f7" d="M 216.5,281.5 C 218.257,282.292 219.591,283.625 220.5,285.5C 225.228,287.044 229.562,286.211 233.5,283C 237.833,282.333 242.167,282.333 246.5,283C 248.323,284.658 249.99,286.491 251.5,288.5C 244.894,294.477 237.227,297.643 228.5,298C 222.655,293.798 218.655,288.298 216.5,281.5 Z"/></g>
<g><path style="opacity:1" fill="#f7f7f7" d="M 252.5,290.5 C 259.505,291.052 265.505,293.718 270.5,298.5C 263.833,303.167 258.167,308.833 253.5,315.5C 248.648,311.482 244.315,306.982 240.5,302C 239.167,301.333 237.833,300.667 236.5,300C 242.062,297.059 247.395,293.892 252.5,290.5 Z"/></g>
<g><path style="opacity:1" fill="#f7f7f7" d="M 281.5,292.5 C 290.625,300.626 298.292,309.959 304.5,320.5C 301.803,324.311 298.303,325.311 294,323.5C 289.581,314.99 284.414,306.99 278.5,299.5C 280.327,297.513 281.327,295.179 281.5,292.5 Z"/></g>
<g><path style="opacity:1" fill="#fafafa" d="M 271.5,300.5 C 276.444,300.602 279.944,302.935 282,307.5C 288.095,316.684 293.428,326.351 298,336.5C 306.667,342.5 315.333,348.5 324,354.5C 324.92,357.308 324.087,359.475 321.5,361C 316.836,363.582 311.836,364.749 306.5,364.5C 306.435,360.208 305.102,356.375 302.5,353C 285.872,343.042 270.372,331.542 256,318.5C 256.126,315.902 257.126,313.569 259,311.5C 262.742,307.253 266.908,303.586 271.5,300.5 Z"/></g>
<g><path style="opacity:1" fill="#f5f5f5" d="M 305.5,322.5 C 310.248,327.648 313.748,333.648 316,340.5C 320.133,343.631 323.966,347.131 327.5,351C 331.95,351.977 335.95,353.811 339.5,356.5C 341.147,360.453 340.48,363.953 337.5,367C 331.816,369.558 327.15,368.391 323.5,363.5C 324.758,361.313 325.758,358.98 326.5,356.5C 326.281,355.062 325.781,353.729 325,352.5C 316.667,346.833 308.333,341.167 300,335.5C 298.247,332.995 296.747,330.329 295.5,327.5C 299.443,326.862 302.776,325.195 305.5,322.5 Z"/></g>
<g><path style="opacity:1" fill="#f0e000" d="M 331.5,339.5 C 330.5,339.167 329.833,338.5 329.5,337.5C 333.178,338.586 336.845,338.586 340.5,337.5C 341.194,334.912 342.36,332.579 344,330.5C 345.333,333.833 346.667,337.167 348,340.5C 351.149,341.996 354.316,343.496 357.5,345C 355.084,347.074 353.084,349.408 351.5,352C 353.929,360.37 352.596,361.703 347.5,356C 343.953,356.086 340.953,354.92 338.5,352.5C 337.778,347.183 335.445,342.85 331.5,339.5 Z"/></g>
<g><path style="opacity:1" fill="#f6f6f6" d="M 317.5,364.5 C 321.908,366.866 326.575,369.032 331.5,371C 330.743,372.512 329.743,373.846 328.5,375C 321.144,375.636 313.811,375.469 306.5,374.5C 307.092,371.873 307.425,369.206 307.5,366.5C 311.16,366.841 314.493,366.175 317.5,364.5 Z"/></g>
<g><path style="opacity:1" fill="#efefef" d="M 305.5,376.5 C 312.208,376.726 318.875,377.392 325.5,378.5C 325.023,379.478 324.357,380.311 323.5,381C 317.145,382.771 310.811,384.604 304.5,386.5C 304.167,386 303.833,385.5 303.5,385C 304.406,382.209 305.073,379.376 305.5,376.5 Z"/></g>
<g><path style="opacity:1" fill="#eedc0a" d="M 317.5,384.5 C 321.912,385.225 322.246,387.391 318.5,391C 312.735,392.533 307.068,394.366 301.5,396.5C 301.167,396.167 300.833,395.833 300.5,395.5C 300.93,392.724 302.096,390.39 304,388.5C 308.686,387.375 313.186,386.042 317.5,384.5 Z"/></g>
<g><path style="opacity:1" fill="#ececec" d="M 316.5,393.5 C 317.376,393.369 318.043,393.702 318.5,394.5C 317.752,396.332 316.752,397.999 315.5,399.5C 309.819,401.005 304.319,403.005 299,405.5C 298.542,402.904 299.375,400.737 301.5,399C 306.547,396.999 311.547,395.166 316.5,393.5 Z"/></g>
<g><path style="opacity:1" fill="#f4f4f4" d="M 311.5,402.5 C 312.675,402.281 313.675,402.614 314.5,403.5C 310.972,411.22 305.306,416.053 297.5,418C 296.272,414.826 296.439,411.659 298,408.5C 302.436,406.195 306.936,404.195 311.5,402.5 Z"/></g>
</svg>
