<?xml version="1.0" encoding="UTF-8"?>
<!DOCTYPE svg PUBLIC "-//W3C//DTD SVG 1.1//EN" "http://www.w3.org/Graphics/SVG/1.1/DTD/svg11.dtd">
<svg xmlns="http://www.w3.org/2000/svg" version="1.1" width="640px" height="480px" style="shape-rendering:geometricPrecision; text-rendering:geometricPrecision; image-rendering:optimizeQuality; fill-rule:evenodd; clip-rule:evenodd" xmlns:xlink="http://www.w3.org/1999/xlink">
<g><path style="opacity:1" fill="#fefffe" d="M -0.5,-0.5 C 212.833,-0.5 426.167,-0.5 639.5,-0.5C 639.5,14.5 639.5,29.5 639.5,44.5C 426.167,44.5 212.833,44.5 -0.5,44.5C -0.5,29.5 -0.5,14.5 -0.5,-0.5 Z"/></g>
<g><path style="opacity:1" fill="#0038b8" d="M -0.5,44.5 C 212.833,44.5 426.167,44.5 639.5,44.5C 639.5,65.5 639.5,86.5 639.5,107.5C 426.167,107.5 212.833,107.5 -0.5,107.5C -0.5,86.5 -0.5,65.5 -0.5,44.5 Z"/></g>
<g><path style="opacity:1" fill="#fefefe" d="M -0.5,107.5 C 212.833,107.5 426.167,107.5 639.5,107.5C 639.5,196.5 639.5,285.5 639.5,374.5C 426.167,374.5 212.833,374.5 -0.5,374.5C -0.5,285.5 -0.5,196.5 -0.5,107.5 Z"/></g>
<g><path style="opacity:1" fill="#0639b8" d="M 417.5,298.5 C 394.5,299.167 371.5,299.833 348.5,300.5C 336.441,319.603 324.608,338.936 313,358.5C 302.155,339.473 291.321,320.473 280.5,301.5C 257.167,300.833 233.833,300.167 210.5,299.5C 221.821,279.527 233.155,259.527 244.5,239.5C 233.293,219.585 221.96,199.752 210.5,180C 233.5,179.667 256.5,179.333 279.5,179C 290.54,159.751 301.707,140.585 313,121.5C 324.626,140.584 336.126,159.75 347.5,179C 371.174,179.167 394.84,179.667 418.5,180.5C 406.953,200.432 395.286,220.265 383.5,240C 394.712,259.593 406.045,279.093 417.5,298.5 Z"/></g>
<g><path style="opacity:1" fill="#fbfbfd" d="M 312.5,146.5 C 313.376,146.369 314.043,146.702 314.5,147.5C 320.708,158.083 327.041,168.583 333.5,179C 320.487,179.833 307.487,179.666 294.5,178.5C 300.956,168.055 306.956,157.388 312.5,146.5 Z"/></g>
<g><path style="opacity:1" fill="#809bdb" d="M 270.5,193.5 C 258.345,192.505 246.011,192.171 233.5,192.5C 238.92,191.813 245.086,191.48 252,191.5C 258.5,191.833 265,192.167 271.5,192.5C 271.376,193.107 271.043,193.44 270.5,193.5 Z"/></g>
<g><path style="opacity:1" fill="#fdfefe" d="M 286.5,191.5 C 304.179,191.167 321.846,191.5 339.5,192.5C 348.533,207.704 357.366,223.038 366,238.5C 366.667,239.5 366.667,240.5 366,241.5C 356.292,257.085 346.458,272.585 336.5,288C 319.821,288.208 303.155,287.708 286.5,286.5C 278.2,271.704 269.7,257.037 261,242.5C 260.333,241.167 260.333,239.833 261,238.5C 269.512,222.806 278.012,207.14 286.5,191.5 Z"/></g>
<g><path style="opacity:1" fill="#90a7e0" d="M 393.5,192.5 C 380.989,192.171 368.655,192.505 356.5,193.5C 355.957,193.44 355.624,193.107 355.5,192.5C 368.327,191.175 380.994,191.175 393.5,192.5 Z"/></g>
<g><path style="opacity:1" fill="#fbfcfd" d="M 233.5,192.5 C 246.011,192.171 258.345,192.505 270.5,193.5C 265.003,204.498 259.003,215.165 252.5,225.5C 245.89,214.608 239.557,203.608 233.5,192.5 Z"/></g>
<g><path style="opacity:1" fill="#fbfbfd" d="M 393.5,192.5 C 387.515,203.802 381.015,214.802 374,225.5C 367.888,214.939 362.055,204.273 356.5,193.5C 368.655,192.505 380.989,192.171 393.5,192.5 Z"/></g>
<g><path style="opacity:1" fill="#fafbfd" d="M 269.5,286.5 C 257.5,287.833 245.5,287.833 233.5,286.5C 239.738,275.695 246.238,265.028 253,254.5C 258.781,265.063 264.281,275.73 269.5,286.5 Z"/></g>
<g><path style="opacity:1" fill="#fbfbfd" d="M 393.5,286.5 C 381.011,287.495 368.344,287.829 355.5,287.5C 361.738,276.695 368.238,266.028 375,255.5C 381.178,265.861 387.345,276.194 393.5,286.5 Z"/></g>
<g><path style="opacity:1" fill="#9eb3e4" d="M 233.5,286.5 C 245.5,287.833 257.5,287.833 269.5,286.5C 270.043,286.56 270.376,286.893 270.5,287.5C 257.833,288.833 245.167,288.833 232.5,287.5C 232.624,286.893 232.957,286.56 233.5,286.5 Z"/></g>
<g><path style="opacity:1" fill="#7e98da" d="M 393.5,286.5 C 394.043,286.56 394.376,286.893 394.5,287.5C 381.339,288.825 368.339,288.825 355.5,287.5C 368.344,287.829 381.011,287.495 393.5,286.5 Z"/></g>
<g><path style="opacity:1" fill="#456cca" d="M 417.5,298.5 C 418.043,298.56 418.376,298.893 418.5,299.5C 395.176,300.5 371.843,300.833 348.5,300.5C 371.5,299.833 394.5,299.167 417.5,298.5 Z"/></g>
<g><path style="opacity:1" fill="#c9d4f0" d="M 210.5,299.5 C 233.833,300.167 257.167,300.833 280.5,301.5C 256.824,301.833 233.157,301.5 209.5,300.5C 209.624,299.893 209.957,299.56 210.5,299.5 Z"/></g>
<g><path style="opacity:1" fill="#fafbfd" d="M 295.5,301.5 C 307.66,300.34 319.993,300.173 332.5,301C 326.028,310.785 319.695,320.618 313.5,330.5C 307.239,320.973 301.239,311.306 295.5,301.5 Z"/></g>
<g><path style="opacity:1" fill="#0238b8" d="M -0.5,374.5 C 212.833,374.5 426.167,374.5 639.5,374.5C 639.5,395.5 639.5,416.5 639.5,437.5C 426.167,437.5 212.833,437.5 -0.5,437.5C -0.5,416.5 -0.5,395.5 -0.5,374.5 Z"/></g>
<g><path style="opacity:1" fill="#fefffe" d="M -0.5,437.5 C 212.833,437.5 426.167,437.5 639.5,437.5C 639.5,451.5 639.5,465.5 639.5,479.5C 426.167,479.5 212.833,479.5 -0.5,479.5C -0.5,465.5 -0.5,451.5 -0.5,437.5 Z"/></g>
</svg>
