<?xml version="1.0" encoding="UTF-8"?>
<!DOCTYPE svg PUBLIC "-//W3C//DTD SVG 1.1//EN" "http://www.w3.org/Graphics/SVG/1.1/DTD/svg11.dtd">
<svg xmlns="http://www.w3.org/2000/svg" version="1.1" width="640px" height="480px" style="shape-rendering:geometricPrecision; text-rendering:geometricPrecision; image-rendering:optimizeQuality; fill-rule:evenodd; clip-rule:evenodd" xmlns:xlink="http://www.w3.org/1999/xlink">
<g><path style="opacity:1" fill="#fecb00" d="M -0.5,-0.5 C 19.5,-0.5 39.5,-0.5 59.5,-0.5C 146.099,64.4793 232.765,129.479 319.5,194.5C 406.593,129.966 493.259,64.966 579.5,-0.5C 599.5,-0.5 619.5,-0.5 639.5,-0.5C 639.5,14.5 639.5,29.5 639.5,44.5C 552.852,109.476 466.185,174.476 379.5,239.5C 466.185,304.524 552.852,369.524 639.5,434.5C 639.5,449.5 639.5,464.5 639.5,479.5C 619.5,479.5 599.5,479.5 579.5,479.5C 493.259,414.034 406.593,349.034 319.5,284.5C 232.765,349.521 146.099,414.521 59.5,479.5C 39.5,479.5 19.5,479.5 -0.5,479.5C -0.5,464.5 -0.5,449.5 -0.5,434.5C 86.1482,369.524 172.815,304.524 259.5,239.5C 172.815,174.476 86.1482,109.476 -0.5,44.5C -0.5,29.5 -0.5,14.5 -0.5,-0.5 Z"/></g>
<g><path style="opacity:1" fill="#019900" d="M 59.5,-0.5 C 232.833,-0.5 406.167,-0.5 579.5,-0.5C 493.259,64.966 406.593,129.966 319.5,194.5C 232.765,129.479 146.099,64.4793 59.5,-0.5 Z"/></g>
<g><path style="opacity:1" fill="#000000" d="M -0.5,44.5 C 86.1482,109.476 172.815,174.476 259.5,239.5C 172.815,304.524 86.1482,369.524 -0.5,434.5C -0.5,304.5 -0.5,174.5 -0.5,44.5 Z"/></g>
<g><path style="opacity:1" fill="#000000" d="M 639.5,44.5 C 639.5,174.5 639.5,304.5 639.5,434.5C 552.852,369.524 466.185,304.524 379.5,239.5C 466.185,174.476 552.852,109.476 639.5,44.5 Z"/></g>
<g><path style="opacity:1" fill="#019900" d="M 579.5,479.5 C 406.167,479.5 232.833,479.5 59.5,479.5C 146.099,414.521 232.765,349.521 319.5,284.5C 406.593,349.034 493.259,414.034 579.5,479.5 Z"/></g>
</svg>
