<?xml version="1.0" encoding="UTF-8"?>
<!DOCTYPE svg PUBLIC "-//W3C//DTD SVG 1.1//EN" "http://www.w3.org/Graphics/SVG/1.1/DTD/svg11.dtd">
<svg xmlns="http://www.w3.org/2000/svg" version="1.1" width="640px" height="480px" style="shape-rendering:geometricPrecision; text-rendering:geometricPrecision; image-rendering:optimizeQuality; fill-rule:evenodd; clip-rule:evenodd" xmlns:xlink="http://www.w3.org/1999/xlink">
<g><path style="opacity:1" fill="#000000" d="M 0.5,-0.5 C 213.5,-0.5 426.5,-0.5 639.5,-0.5C 639.5,52.8333 639.5,106.167 639.5,159.5C 533.167,159.5 426.833,159.5 320.5,159.5C 213.516,106.675 106.849,53.3412 0.5,-0.5 Z"/></g>
<g><path style="opacity:1" fill="#fe0000" d="M -0.5,-0.5 C -0.166667,-0.5 0.166667,-0.5 0.5,-0.5C 106.849,53.3412 213.516,106.675 320.5,159.5C 373.106,186.137 425.772,212.803 478.5,239.5C 425.772,266.197 373.106,292.863 320.5,319.5C 213.516,372.325 106.849,425.659 0.5,479.5C 0.166667,479.5 -0.166667,479.5 -0.5,479.5C -0.5,319.5 -0.5,159.5 -0.5,-0.5 Z"/></g>
<g><path style="opacity:1" fill="#fffefe" d="M 320.5,159.5 C 426.833,159.5 533.167,159.5 639.5,159.5C 639.5,212.833 639.5,266.167 639.5,319.5C 533.167,319.5 426.833,319.5 320.5,319.5C 373.106,292.863 425.772,266.197 478.5,239.5C 425.772,212.803 373.106,186.137 320.5,159.5 Z"/></g>
<g><path style="opacity:1" fill="#fff7f7" d="M 178.5,245.5 C 171.5,246.167 164.5,246.833 157.5,247.5C 159.542,254.762 161.042,262.096 162,269.5C 157.699,263.367 152.866,257.7 147.5,252.5C 142.81,258.023 138.31,263.689 134,269.5C 134.516,262.757 135.683,256.09 137.5,249.5C 138.404,248.791 138.737,247.791 138.5,246.5C 131.313,246.825 124.313,246.491 117.5,245.5C 123.752,243.041 129.752,240.041 135.5,236.5C 130.953,230.575 126.287,224.742 121.5,219C 128.536,221.43 135.369,224.597 142,228.5C 144.209,221.278 146.209,213.944 148,206.5C 149.727,213.864 151.56,221.197 153.5,228.5C 160.375,224.723 167.375,221.556 174.5,219C 169.263,224.4 164.597,230.234 160.5,236.5C 166.243,240.038 172.243,243.038 178.5,245.5 Z"/></g>
<g><path style="opacity:1" fill="#ff9898" d="M 117.5,245.5 C 124.313,246.491 131.313,246.825 138.5,246.5C 138.737,247.791 138.404,248.791 137.5,249.5C 130.568,247.696 123.235,246.863 115.5,247C 116.044,246.283 116.711,245.783 117.5,245.5 Z"/></g>
<g><path style="opacity:1" fill="#ff9797" d="M 178.5,245.5 C 179.289,245.783 179.956,246.283 180.5,247C 172.841,247.5 165.174,247.666 157.5,247.5C 164.5,246.833 171.5,246.167 178.5,245.5 Z"/></g>
<g><path style="opacity:1" fill="#009800" d="M 320.5,319.5 C 426.833,319.5 533.167,319.5 639.5,319.5C 639.5,372.833 639.5,426.167 639.5,479.5C 426.5,479.5 213.5,479.5 0.5,479.5C 106.849,425.659 213.516,372.325 320.5,319.5 Z"/></g>
</svg>
