<?xml version="1.0" encoding="UTF-8"?>
<!DOCTYPE svg PUBLIC "-//W3C//DTD SVG 1.1//EN" "http://www.w3.org/Graphics/SVG/1.1/DTD/svg11.dtd">
<svg xmlns="http://www.w3.org/2000/svg" version="1.1" width="640px" height="480px" style="shape-rendering:geometricPrecision; text-rendering:geometricPrecision; image-rendering:optimizeQuality; fill-rule:evenodd; clip-rule:evenodd" xmlns:xlink="http://www.w3.org/1999/xlink">
<g><path style="opacity:1" fill="#03abc1" d="M -0.5,-0.5 C 212.833,-0.5 426.167,-0.5 639.5,-0.5C 639.5,159.5 639.5,319.5 639.5,479.5C 426.167,479.5 212.833,479.5 -0.5,479.5C -0.5,319.5 -0.5,159.5 -0.5,-0.5 Z"/></g>
<g><path style="opacity:1" fill="#f1e83a" d="M 344.5,100.5 C 345.117,100.611 345.617,100.944 346,101.5C 348.629,109.334 349.962,117.334 350,125.5C 343.885,129.295 340.719,127.628 340.5,120.5C 341.52,113.757 342.853,107.091 344.5,100.5 Z"/></g>
<g><path style="opacity:1" fill="#f0e839" d="M 325.5,102.5 C 329.748,109.168 333.082,116.334 335.5,124C 334.976,127.355 332.976,129.188 329.5,129.5C 327.234,129.069 325.734,127.736 325,125.5C 324.353,117.811 324.52,110.144 325.5,102.5 Z"/></g>
<g><path style="opacity:1" fill="#f5e936" d="M 364.5,102.5 C 365.657,110.656 365.823,118.99 365,127.5C 359.897,130.907 356.73,129.574 355.5,123.5C 358.228,116.379 361.228,109.379 364.5,102.5 Z"/></g>
<g><path style="opacity:1" fill="#f7ea33" d="M 307.5,109.5 C 312.189,114.703 316.356,120.37 320,126.5C 320.667,132.161 318.167,134.328 312.5,133C 312,132.5 311.5,132 311,131.5C 308.763,124.339 307.596,117.006 307.5,109.5 Z"/></g>
<g><path style="opacity:1" fill="#f5e935" d="M 382.5,109.5 C 383.205,117.503 381.871,125.337 378.5,133C 372,134.5 369.5,132 371,125.5C 374.598,119.961 378.431,114.628 382.5,109.5 Z"/></g>
<g><path style="opacity:1" fill="#f5e934" d="M 289.5,117.5 C 296.679,122.513 302.679,128.679 307.5,136C 304.964,140.84 301.464,141.673 297,138.5C 294.394,131.514 291.894,124.514 289.5,117.5 Z"/></g>
<g><path style="opacity:1" fill="#f4e936" d="M 399.5,118.5 C 400.097,118.735 400.43,119.235 400.5,120C 398.196,126.578 395.696,133.078 393,139.5C 390.716,141.984 388.216,142.151 385.5,140C 383.813,138.087 383.313,135.92 384,133.5C 389.062,128.269 394.229,123.269 399.5,118.5 Z"/></g>
<g><path style="opacity:1" fill="#f6e934" d="M 414.5,130.5 C 415.043,130.56 415.376,130.893 415.5,131.5C 412.372,138.263 408.372,144.43 403.5,150C 397.468,150.805 395.135,148.305 396.5,142.5C 402.269,138.049 408.269,134.049 414.5,130.5 Z"/></g>
<g><path style="opacity:1" fill="#f2e837" d="M 274.5,131.5 C 274.56,130.957 274.893,130.624 275.5,130.5C 282.43,134.213 288.93,138.546 295,143.5C 295.171,149.313 292.338,151.48 286.5,150C 282.243,143.928 278.243,137.761 274.5,131.5 Z"/></g>
<g><path style="opacity:1" fill="#feeb2d" d="M 334.5,136.5 C 373.182,134.24 398.015,151.573 409,188.5C 412.628,226.514 396.461,251.68 360.5,264C 325.321,269.663 300.154,256.496 285,224.5C 274.642,190.237 284.476,163.404 314.5,144C 321.017,140.777 327.683,138.277 334.5,136.5 Z"/></g>
<g><path style="opacity:1" fill="#f6e934" d="M 262.5,146.5 C 269.674,147.335 276.674,149.668 283.5,153.5C 286.335,156.671 286.002,159.504 282.5,162C 280.833,162.667 279.167,162.667 277.5,162C 272.324,156.991 267.324,151.825 262.5,146.5 Z"/></g>
<g><path style="opacity:1" fill="#f5e935" d="M 426.5,145.5 C 427.239,145.369 427.906,145.536 428.5,146C 423.867,151.635 418.867,156.968 413.5,162C 408.594,163.756 405.927,162.089 405.5,157C 405.439,155.289 406.106,153.956 407.5,153C 413.904,150.372 420.238,147.872 426.5,145.5 Z"/></g>
<g><path style="opacity:1" fill="#f5e935" d="M 31.5,26.5 C 33.9288,26.585 35.9288,27.585 37.5,29.5C 38.9561,32.2861 39.9561,35.2861 40.5,38.5C 41.086,38.2907 41.586,37.9574 42,37.5C 42.5946,38.8989 42.4279,40.2322 41.5,41.5C 43.6582,43.0263 43.3249,44.5263 40.5,46C 49.8189,46.3098 52.4856,50.6431 48.5,59C 46.2199,59.2117 44.2199,60.0451 42.5,61.5C 41.5762,59.6095 40.2429,58.1095 38.5,57C 40.5039,55.5773 42.0039,53.744 43,51.5C 43.49,52.7932 43.6567,54.1266 43.5,55.5C 44.5,55.5 45.5,55.5 46.5,55.5C 46.5324,50.7871 44.1991,49.2871 39.5,51C 35.4366,60.8244 38.7699,64.8244 49.5,63C 52.3939,60.0913 53.2272,56.5913 52,52.5C 49.2999,46.0648 46.7999,39.5648 44.5,33C 46.6584,26.2908 50.8251,24.7908 57,28.5C 64.8347,24.7031 68.8347,27.0365 69,35.5C 66.9429,41.2808 64.6096,46.9474 62,52.5C 60.1667,61.3333 63.6667,64.8333 72.5,63C 75.6829,61.9817 77.0162,59.815 76.5,56.5C 76.2025,50.7367 73.3692,49.07 68,51.5C 67.51,52.7932 67.3433,54.1266 67.5,55.5C 69.9115,55.8633 71.4115,54.8633 72,52.5C 72.513,54.5206 73.6797,56.0206 75.5,57C 73.6797,57.9794 72.513,59.4794 72,61.5C 70.5604,59.9544 68.7271,59.121 66.5,59C 62.453,54.827 62.7863,50.827 67.5,47C 69.5,46.6667 71.5,46.3333 73.5,46C 70.3977,44.386 70.0644,42.5526 72.5,40.5C 71.1091,38.0642 71.6091,37.3975 74,38.5C 73.4241,33.486 75.2574,29.6526 79.5,27C 80.635,26.2506 81.635,26.4173 82.5,27.5C 78.6769,34.739 78.5102,42.0724 82,49.5C 83.7591,56.0092 82.2591,61.5092 77.5,66C 82.3696,67.6048 82.7029,69.7715 78.5,72.5C 81.4928,75.1546 82.8261,78.4879 82.5,82.5C 81.1824,88.4395 80.1824,94.4395 79.5,100.5C 78.9984,104.992 80.3317,108.825 83.5,112C 76.7669,111.042 74.1002,107.208 75.5,100.5C 74.6086,99.4104 73.6086,99.4104 72.5,100.5C 71.246,98.7408 71.5794,97.2408 73.5,96C 71.5188,95.3946 71.1854,94.3946 72.5,93C 65.4409,92.2758 62.6076,88.4424 64,81.5C 68.4185,76.3055 71.9185,76.3055 74.5,81.5C 73.3539,82.7187 72.3539,84.0521 71.5,85.5C 70.6143,84.675 70.281,83.675 70.5,82.5C 69.5,82.5 68.5,82.5 67.5,82.5C 66.5071,87.6752 68.5071,89.5086 73.5,88C 77.7695,83.2909 77.4361,78.9576 72.5,75C 63.1059,73.3953 59.6059,77.2287 62,86.5C 69.6667,102.5 77.3333,118.5 85,134.5C 88.0558,144.22 84.8892,150.72 75.5,154C 84.58,156.991 87.7467,163.157 85,172.5C 77.6065,188.954 69.9399,205.287 62,221.5C 59.6829,230.159 62.8496,234.325 71.5,234C 75.8608,231.774 77.3608,228.274 76,223.5C 74.1799,220.797 71.6799,219.964 68.5,221C 67.6198,222.356 67.2865,223.856 67.5,225.5C 68.5,225.5 69.5,225.5 70.5,225.5C 70.281,224.325 70.6143,223.325 71.5,222.5C 72.316,224.287 73.316,225.954 74.5,227.5C 73.0944,229.026 71.9277,230.693 71,232.5C 62.5076,229.058 61.3409,223.891 67.5,217C 69.1667,216.667 70.8333,216.333 72.5,216C 72.0598,213.838 71.7265,211.671 71.5,209.5C 72.325,208.614 73.325,208.281 74.5,208.5C 73.7449,202.675 76.0782,198.675 81.5,196.5C 81.8333,196.833 82.1667,197.167 82.5,197.5C 80.1938,200.59 79.1938,204.09 79.5,208C 79.706,212.287 80.5393,216.453 82,220.5C 83.409,226.316 82.2424,231.483 78.5,236C 82.5,238.333 82.5,240.667 78.5,243C 82.3049,247.091 83.4716,251.924 82,257.5C 78.5456,265.618 78.7123,273.618 82.5,281.5C 79.876,282.116 77.7093,281.116 76,278.5C 74.7475,275.986 74.2475,273.32 74.5,270.5C 71.7952,270.62 71.1285,269.62 72.5,267.5C 70.3546,266.318 70.3546,264.818 72.5,263C 65.4719,262.302 62.6385,258.468 64,251.5C 66.183,249.553 68.5164,247.886 71,246.5C 71.9277,248.307 73.0944,249.974 74.5,251.5C 73.316,253.046 72.316,254.713 71.5,256.5C 70.6143,255.675 70.281,254.675 70.5,253.5C 69.5,253.5 68.5,253.5 67.5,253.5C 67.0826,258.068 69.0826,259.568 73.5,258C 76.2868,255.833 77.1201,252.999 76,249.5C 71.7481,243.347 67.0814,243.014 62,248.5C 61.3333,251.5 61.3333,254.5 62,257.5C 68.7279,271.956 75.7279,286.289 83,300.5C 86.2774,307.194 86.2774,313.861 83,320.5C 80.7068,322.372 78.2068,323.872 75.5,325C 84.58,327.991 87.7467,334.157 85,343.5C 77.5261,359.586 69.8595,375.586 62,391.5C 59.3746,401.147 62.8746,405.314 72.5,404C 77.3643,399.965 77.6976,395.632 73.5,391C 68.5071,389.491 66.5071,391.325 67.5,396.5C 68.5,396.5 69.5,396.5 70.5,396.5C 70.281,395.325 70.6143,394.325 71.5,393.5C 72.3539,394.948 73.3539,396.281 74.5,397.5C 71.9185,402.695 68.4185,402.695 64,397.5C 62.5891,390.573 65.4224,386.74 72.5,386C 71.1854,384.605 71.5188,383.605 73.5,383C 71.5794,381.759 71.246,380.259 72.5,378.5C 73.6086,379.59 74.6086,379.59 75.5,378.5C 74.0769,371.851 76.7436,368.018 83.5,367C 80.3317,370.175 78.9984,374.008 79.5,378.5C 80.3897,384.341 81.3897,390.174 82.5,396C 82.6349,400.1 81.3016,403.6 78.5,406.5C 82.7029,409.229 82.3696,411.395 77.5,413C 82.1532,416.788 83.6532,421.622 82,427.5C 78.5586,435.606 78.7252,443.606 82.5,451.5C 79.0002,451.907 76.5002,450.241 75,446.5C 74.6667,444.5 74.3333,442.5 74,440.5C 71.6091,441.602 71.1091,440.936 72.5,438.5C 70.0644,436.447 70.3977,434.614 73.5,433C 65.5675,432.955 62.5675,429.121 64.5,421.5C 66.9013,420.313 69.2347,418.979 71.5,417.5C 72.4238,419.39 73.7571,420.89 75.5,422C 73.6797,422.979 72.513,424.479 72,426.5C 71.4115,424.137 69.9115,423.137 67.5,423.5C 67.4676,428.213 69.8009,429.713 74.5,428C 78.6969,418.178 75.3636,414.178 64.5,416C 63.6667,416.833 62.8333,417.667 62,418.5C 61.3901,422.236 61.7235,425.903 63,429.5C 66.0086,434.514 68.1752,439.847 69.5,445.5C 67.7158,452.642 63.5492,454.308 57,450.5C 49.1996,454.339 45.1996,452.006 45,443.5C 47.0571,437.719 49.3904,432.053 52,426.5C 54.1667,417.333 50.6667,413.833 41.5,416C 38.5583,416.94 37.2249,418.94 37.5,422C 37.3119,427.812 39.9786,429.812 45.5,428C 46.3802,426.644 46.7135,425.144 46.5,423.5C 45.5,423.5 44.5,423.5 43.5,423.5C 43.6567,424.873 43.49,426.207 43,427.5C 42.0039,425.256 40.5039,423.423 38.5,422C 40.2429,420.89 41.5762,419.39 42.5,417.5C 50.3401,419.349 52.3401,423.849 48.5,431C 46.1955,431.895 43.8622,432.729 41.5,433.5C 42.1667,434.5 42.8333,435.5 43.5,436.5C 42.9747,437.192 42.3081,437.692 41.5,438C 42.731,439.183 42.731,440.349 41.5,441.5C 40.914,441.291 40.414,440.957 40,440.5C 40.5209,446.284 38.1875,450.284 33,452.5C 32.5,452.167 32,451.833 31.5,451.5C 35.2916,443.953 35.4582,436.286 32,428.5C 30.2886,422.306 31.7886,417.14 36.5,413C 31.8444,411.249 31.5111,409.082 35.5,406.5C 32.9057,403.478 31.5724,399.978 31.5,396C 34.0622,388.031 34.8956,379.864 34,371.5C 29.5034,365.744 30.5034,365.077 37,369.5C 38.8489,372.54 40.0156,375.874 40.5,379.5C 41.6869,378.106 42.3535,378.273 42.5,380C 42.2409,381.261 41.5742,382.261 40.5,383C 42.4812,383.605 42.8146,384.605 41.5,386C 49.1062,387.051 51.7729,391.218 49.5,398.5C 47.1622,399.616 44.9955,400.95 43,402.5C 42.0723,400.693 40.9056,399.026 39.5,397.5C 40.9056,395.974 42.0723,394.307 43,392.5C 43.7677,396.828 45.2677,397.328 47.5,394C 46.2018,390.795 43.8684,389.795 40.5,391C 36.3541,395.625 36.6875,399.959 41.5,404C 48.3025,405.773 52.3025,403.273 53.5,396.5C 45.8918,378.614 37.7251,360.948 29,343.5C 26.3209,334.696 29.1543,328.529 37.5,325C 29.6604,320.849 26.8271,314.349 29,305.5C 37.7251,288.052 45.8918,270.386 53.5,252.5C 51.6035,245.552 47.2702,243.385 40.5,246C 36.5,250 36.5,254 40.5,258C 44.8444,259.476 47.1778,257.976 47.5,253.5C 46.1667,253.5 44.8333,253.5 43.5,253.5C 43.6495,254.552 43.4828,255.552 43,256.5C 41.8333,254.833 40.6667,253.167 39.5,251.5C 40.9056,249.974 42.0723,248.307 43,246.5C 51.4924,249.942 52.6591,255.109 46.5,262C 44.8333,262.333 43.1667,262.667 41.5,263C 43.9574,264.512 43.9574,265.846 41.5,267C 42.3366,268.011 42.67,269.178 42.5,270.5C 41.5,270.5 40.5,270.5 39.5,270.5C 40.337,277.045 37.6703,280.879 31.5,282C 33.8606,278.367 34.8606,274.367 34.5,270C 34.1312,264.198 33.1312,258.531 31.5,253C 31.4473,249.106 32.7807,245.773 35.5,243C 31.5,240.667 31.5,238.333 35.5,236C 32.8928,233.015 31.5594,229.515 31.5,225.5C 32.8211,219.55 33.8211,213.55 34.5,207.5C 34.9133,203.701 33.9133,200.367 31.5,197.5C 34.124,196.884 36.2907,197.884 38,200.5C 39.2525,203.014 39.7525,205.68 39.5,208.5C 42.2048,208.38 42.8715,209.38 41.5,211.5C 43.6454,212.682 43.6454,214.182 41.5,216C 50.8637,217.649 52.8637,222.316 47.5,230C 45.5975,230.199 44.0975,231.033 43,232.5C 42.0723,230.693 40.9056,229.026 39.5,227.5C 40.6667,225.833 41.8333,224.167 43,222.5C 43.4828,223.448 43.6495,224.448 43.5,225.5C 44.8333,225.5 46.1667,225.5 47.5,225.5C 47.1778,221.024 44.8444,219.524 40.5,221C 36.5899,224.925 36.5899,228.925 40.5,233C 47.2702,235.615 51.6035,233.448 53.5,226.5C 46.2253,209.281 38.392,192.281 30,175.5C 25.9482,165.814 28.4482,158.647 37.5,154C 31.0881,151.758 28.0881,147.258 28.5,140.5C 28.4446,136.944 29.2779,133.611 31,130.5C 39.464,114.741 46.964,98.5743 53.5,82C 52.008,75.582 48.008,73.2486 41.5,75C 36.5639,78.9576 36.2305,83.2909 40.5,88C 43.8684,89.2052 46.2018,88.2052 47.5,85C 45.2677,81.6723 43.7677,82.1723 43,86.5C 42.0723,84.6927 40.9056,83.026 39.5,81.5C 40.9056,79.974 42.0723,78.3073 43,76.5C 44.9955,78.0504 47.1622,79.3838 49.5,80.5C 51.7729,87.7822 49.1062,91.9489 41.5,93C 42.8146,94.3946 42.4812,95.3946 40.5,96C 42.2112,97.1332 42.7112,98.6332 42,100.5C 41.586,100.043 41.086,99.7093 40.5,99.5C 40.0864,104.835 37.7531,109.002 33.5,112C 32.5,112.667 31.5,112.667 30.5,112C 33.5279,108.415 34.8613,104.248 34.5,99.5C 33.8977,93.5927 32.8977,87.7594 31.5,82C 31.625,78.3591 32.9583,75.1925 35.5,72.5C 31.5111,69.9176 31.8444,67.7509 36.5,66C 31.912,61.8113 30.412,56.6447 32,50.5C 35.4594,42.3565 35.2927,34.3565 31.5,26.5 Z"/></g>
<g><path style="opacity:1" fill="#25aeba" d="M 56.5,145.5 C 59.0985,149.585 62.7652,152.418 67.5,154C 63.052,156.114 59.552,159.281 57,163.5C 54.3843,158.886 50.551,155.72 45.5,154C 50.7577,153.058 54.4244,150.224 56.5,145.5 Z"/></g>
<g><path style="opacity:1" fill="#21adbb" d="M 56.5,89.5 C 65.0869,105.009 72.9202,121.009 80,137.5C 81.0005,146.163 77.1671,149.663 68.5,148C 65.3114,146.456 64.1447,143.956 65,140.5C 66.6995,139.594 68.5328,139.261 70.5,139.5C 70.2148,141.288 70.5481,142.955 71.5,144.5C 73.2733,141.94 75.2733,139.607 77.5,137.5C 75.5761,135.991 74.4094,133.991 74,131.5C 70.8359,128.855 69.6693,129.855 70.5,134.5C 67.1934,134.063 64.1934,134.73 61.5,136.5C 60.3384,131.869 60.1717,127.202 61,122.5C 61.5,122 62,121.5 62.5,121C 64.7612,120.761 66.7612,120.594 68.5,120.5C 66.8247,116.656 63.8247,114.823 59.5,115C 62.5756,109.883 61.7422,105.383 57,101.5C 52.2578,105.383 51.4244,109.883 54.5,115C 50.1753,114.823 47.1753,116.656 45.5,120.5C 47.2388,120.594 49.2388,120.761 51.5,121C 52,121.5 52.5,122 53,122.5C 53.6667,127.167 53.6667,131.833 53,136.5C 50.3396,135.166 47.5063,134.332 44.5,134C 43.7734,132.601 43.2734,131.101 43,129.5C 40.7446,132.13 38.578,134.797 36.5,137.5C 39.2829,139.257 41.4496,141.59 43,144.5C 42.7967,140.363 44.63,138.863 48.5,140C 50.0511,143.572 49.0511,146.239 45.5,148C 35.9983,149.153 32.4983,144.987 35,135.5C 42.4516,120.265 49.6182,104.932 56.5,89.5 Z"/></g>
<g><path style="opacity:1" fill="#1daebb" d="M 56.5,63.5 C 58.8426,66.3296 61.8426,68.1629 65.5,69C 62.2744,70.198 59.4411,72.0314 57,74.5C 54.8995,71.5332 52.0662,69.6998 48.5,69C 52.0414,68.3352 54.708,66.5019 56.5,63.5 Z"/></g>
<g><path style="opacity:1" fill="#18adbd" d="M 50.5,32.5 C 52.9363,32.317 55.103,32.9837 57,34.5C 58.897,32.9837 61.0637,32.317 63.5,32.5C 62.6295,38.9431 60.4628,44.9431 57,50.5C 53.931,44.7905 51.7644,38.7905 50.5,32.5 Z"/></g>
<g><path style="opacity:1" fill="#f4e937" d="M 252.5,163.5 C 253.097,162.861 253.93,162.528 255,162.5C 262.21,163.815 269.377,165.315 276.5,167C 277.919,170.163 277.585,173.163 275.5,176C 273.833,176.667 272.167,176.667 270.5,176C 264.344,172.003 258.344,167.836 252.5,163.5 Z"/></g>
<g><path style="opacity:1" fill="#f3e836" d="M 433.5,162.5 C 434.873,162.343 436.207,162.51 437.5,163C 431.492,168.514 424.825,173.014 417.5,176.5C 411.97,173.885 411.303,170.385 415.5,166C 421.644,164.867 427.644,163.701 433.5,162.5 Z"/></g>
<g><path style="opacity:1" fill="#22aebb" d="M 39.5,159.5 C 46.2138,159.05 49.3804,162.05 49,168.5C 45.0242,170.382 42.8575,169.048 42.5,164.5C 42.1667,164.667 41.8333,164.833 41.5,165C 40.3764,167.619 38.7098,169.785 36.5,171.5C 37.3202,173.111 38.6536,173.778 40.5,173.5C 41.2887,179.735 42.6221,179.902 44.5,174C 47.6592,173.989 50.4926,173.155 53,171.5C 53.6667,176.5 53.6667,181.5 53,186.5C 45.0966,186.058 43.93,188.225 49.5,193C 50.938,193.219 52.2713,193.719 53.5,194.5C 51.4651,199.626 52.7984,203.626 57.5,206.5C 61.3079,203.016 62.3079,198.849 60.5,194C 70.3536,190.636 70.5202,188.136 61,186.5C 60.3333,181.5 60.3333,176.5 61,171.5C 63.5074,173.155 66.3408,173.989 69.5,174C 70.0897,175.509 70.7564,177.009 71.5,178.5C 73.4993,176.196 75.4993,173.863 77.5,171.5C 75.2632,169.353 73.2632,167.02 71.5,164.5C 70.7564,165.991 70.0897,167.491 69.5,169C 65.3381,169.548 63.8381,167.714 65,163.5C 72.3276,157.302 77.4942,158.802 80.5,168C 73.3583,185.452 65.5249,202.619 57,219.5C 49.3934,203.954 42.06,188.287 35,172.5C 33.243,166.825 34.743,162.492 39.5,159.5 Z"/></g>
<g><path style="opacity:1" fill="#9ed269" d="M 255.5,180.5 C 253.167,181.167 250.833,181.833 248.5,182.5C 247.957,182.44 247.624,182.107 247.5,181.5C 250.086,180.52 252.753,180.187 255.5,180.5 Z"/></g>
<g><path style="opacity:1" fill="#f8ea33" d="M 255.5,180.5 C 261.29,180.096 266.956,180.596 272.5,182C 274.545,189.21 271.879,191.876 264.5,190C 259.02,187.759 253.687,185.259 248.5,182.5C 250.833,181.833 253.167,181.167 255.5,180.5 Z"/></g>
<g><path style="opacity:1" fill="#f3e837" d="M 419.5,180.5 C 427.547,180.277 435.547,180.777 443.5,182C 436.536,185.265 429.536,188.432 422.5,191.5C 417.922,190.182 416.422,187.182 418,182.5C 418.717,181.956 419.217,181.289 419.5,180.5 Z"/></g>
<g><path style="opacity:1" fill="#f0e83a" d="M 263.5,195.5 C 271.619,195.469 273.619,198.969 269.5,206C 261.209,205.929 253.209,204.262 245.5,201C 251.665,199.344 257.665,197.511 263.5,195.5 Z"/></g>
<g><path style="opacity:1" fill="#f5e935" d="M 421.5,195.5 C 429.547,197.011 437.547,198.845 445.5,201C 437.64,203.634 429.64,205.301 421.5,206C 417.565,202.504 417.565,199.004 421.5,195.5 Z"/></g>
<g><path style="opacity:1" fill="#f4e936" d="M 280.5,329.5 C 280.158,330.338 279.492,330.672 278.5,330.5C 266.124,327.096 254.124,322.596 242.5,317C 244.087,316.138 245.754,315.471 247.5,315C 247.167,314.667 246.833,314.333 246.5,314C 242.146,313.582 238.146,312.248 234.5,310C 236.635,308.619 238.968,307.619 241.5,307C 236.619,306.215 231.953,304.882 227.5,303C 231.092,301.919 234.759,300.919 238.5,300C 233.894,298.839 229.227,297.839 224.5,297C 222.445,296.313 220.779,295.146 219.5,293.5C 220.325,292.614 221.325,292.281 222.5,292.5C 226.019,293.808 229.685,293.808 233.5,292.5C 233.376,291.893 233.043,291.56 232.5,291.5C 222.624,288.315 214.124,282.981 207,275.5C 206.517,274.552 206.351,273.552 206.5,272.5C 210.856,273.511 214.856,275.344 218.5,278C 219.833,278.667 221.167,278.667 222.5,278C 212.075,269.578 203.075,259.911 195.5,249C 196.409,246.681 198.075,246.014 200.5,247C 205.833,252.333 211.167,257.667 216.5,263C 218.055,264.289 219.721,264.956 221.5,265C 211.856,255.38 204.19,244.38 198.5,232C 199.926,228.303 202.26,227.637 205.5,230C 210.283,237.117 215.449,243.95 221,250.5C 217.213,241.888 214.213,232.888 212,223.5C 211.333,219.833 211.333,216.167 212,212.5C 213.396,210.473 215.062,210.14 217,211.5C 219.57,222.123 222.903,232.456 227,242.5C 227.167,242 227.333,241.5 227.5,241C 225.856,234.583 225.356,228.083 226,221.5C 227.667,220.167 229.333,220.167 231,221.5C 242.619,268.453 271.786,298.286 318.5,311C 326.503,312.167 334.503,313.334 342.5,314.5C 341.761,317.65 340.261,320.316 338,322.5C 335.711,320.94 333.211,319.773 330.5,319C 321.53,317.797 312.53,316.797 303.5,316C 301.051,315.275 298.717,314.275 296.5,313C 291.199,308.7 286.199,304.034 281.5,299C 266.158,294.658 254.658,285.492 247,271.5C 242.281,266.278 237.115,261.612 231.5,257.5C 230.833,258.5 230.167,259.5 229.5,260.5C 227.568,259.48 225.568,259.313 223.5,260C 227.127,263.788 229.127,268.288 229.5,273.5C 227.473,273.338 225.473,273.505 223.5,274C 225.833,277.667 228.833,280.667 232.5,283C 230.744,283.202 229.078,283.702 227.5,284.5C 230.622,287.568 234.289,289.902 238.5,291.5C 239.038,294.715 240.705,297.048 243.5,298.5C 242.167,299.62 241.667,300.953 242,302.5C 244.49,303.743 246.99,304.91 249.5,306C 248.272,306.779 247.272,307.779 246.5,309C 249.572,311.809 253.239,313.476 257.5,314C 256.421,314.956 255.255,315.789 254,316.5C 253.333,317.167 253.333,317.833 254,318.5C 262.439,323.137 271.272,326.803 280.5,329.5 Z"/></g>
<g><path style="opacity:1" fill="#f7ea33" d="M 254.5,221.5 C 252.5,220.833 250.5,220.167 248.5,219.5C 253.687,216.741 259.02,214.241 264.5,212C 272.706,210.359 275.04,213.192 271.5,220.5C 265.896,221.454 260.229,221.788 254.5,221.5 Z"/></g>
<g><path style="opacity:1" fill="#f8ea32" d="M 419.5,211.5 C 427.736,212.611 435.403,215.444 442.5,220C 434.939,221.598 427.272,221.931 419.5,221C 416.888,217.836 416.888,214.669 419.5,211.5 Z"/></g>
<g><path style="opacity:1" fill="#f5e935" d="M 429.5,317.5 C 430.5,316.833 431.5,316.167 432.5,315.5C 433.496,315.586 434.329,315.252 435,314.5C 434.621,312.925 434.788,311.425 435.5,310C 439.871,309.629 442.205,307.296 442.5,303C 444.996,301.92 447.33,300.586 449.5,299C 447.109,298.309 447.109,297.309 449.5,296C 453.551,293.982 457.217,291.482 460.5,288.5C 459.167,287.833 457.833,287.167 456.5,286.5C 459.006,284.494 461.173,282.16 463,279.5C 463.49,278.207 463.657,276.873 463.5,275.5C 460.84,276.347 458.174,276.847 455.5,277C 459.508,273.811 461.508,269.645 461.5,264.5C 455.908,264.087 450.908,265.587 446.5,269C 438.356,274.808 432.023,282.141 427.5,291C 418.833,295.333 410.167,299.667 401.5,304C 397.038,307.219 393.038,310.886 389.5,315C 376.819,317.24 364.152,319.574 351.5,322C 341.474,330.205 330.808,337.372 319.5,343.5C 323.834,342.663 328.168,342.163 332.5,342C 331.5,342.833 330.5,343.667 329.5,344.5C 330.025,345.192 330.692,345.692 331.5,346C 330.313,347.019 329.313,348.186 328.5,349.5C 337.598,350.894 346.932,351.727 356.5,352C 342.833,352.333 329.167,352.667 315.5,353C 312.813,354.195 310.146,354.362 307.5,353.5C 304.157,356.095 302.99,355.095 304,350.5C 305.378,348.787 307.045,347.453 309,346.5C 309.346,344.152 310.513,342.319 312.5,341C 318.915,338.528 325.248,335.862 331.5,333C 337.833,326.667 344.167,320.333 350.5,314C 399.458,309.689 433.958,285.189 454,240.5C 456.136,234.291 457.802,227.958 459,221.5C 460.667,220.167 462.333,220.167 464,221.5C 464.22,228.178 464.22,234.845 464,241.5C 467.754,231.359 471.254,221.192 474.5,211C 476.888,210.135 478.388,210.968 479,213.5C 479.667,216.167 479.667,218.833 479,221.5C 476.476,232.417 472.809,242.75 468,252.5C 474.287,244.757 480.454,236.924 486.5,229C 489.567,227.836 491.233,228.836 491.5,232C 486.228,244.616 478.561,255.616 468.5,265C 469.167,265.667 469.833,265.667 470.5,265C 477.763,259.74 484.43,253.74 490.5,247C 492.607,246.146 493.941,246.812 494.5,249C 491.789,254.382 488.289,259.215 484,263.5C 478.5,268.333 473,273.167 467.5,278C 468.833,278.667 470.167,278.667 471.5,278C 475.144,275.344 479.144,273.511 483.5,272.5C 483.026,276.281 481.359,279.448 478.5,282C 472.5,286 466.5,290 460.5,294C 463.167,294.333 465.833,294.667 468.5,295C 469.833,295.667 469.833,296.333 468.5,297C 462.58,299.642 456.58,301.975 450.5,304C 453.882,304.176 457.215,304.676 460.5,305.5C 460.167,305.833 459.833,306.167 459.5,306.5C 454.072,307.917 448.739,309.584 443.5,311.5C 446.167,312.167 448.833,312.833 451.5,313.5C 446.175,314.713 440.842,315.88 435.5,317C 435.043,317.414 434.709,317.914 434.5,318.5C 435.912,319.806 437.579,320.64 439.5,321C 440.711,321.893 440.711,322.726 439.5,323.5C 428.891,330.569 417.224,333.736 404.5,333C 413.518,330.907 421.684,327.074 429,321.5C 429.49,320.207 429.657,318.873 429.5,317.5 Z"/></g>
<g><path style="opacity:1" fill="#98d06c" d="M 248.5,219.5 C 250.5,220.167 252.5,220.833 254.5,221.5C 252.076,221.808 249.743,221.474 247.5,220.5C 247.624,219.893 247.957,219.56 248.5,219.5 Z"/></g>
<g><path style="opacity:1" fill="#f6e934" d="M 270.5,225.5 C 276.787,225.954 278.787,229.121 276.5,235C 268.974,237.507 261.308,238.84 253.5,239C 259.236,234.481 264.903,229.981 270.5,225.5 Z"/></g>
<g><path style="opacity:1" fill="#f1e839" d="M 415.5,225.5 C 417.655,225.372 419.655,225.872 421.5,227C 426.833,231 432.167,235 437.5,239C 430.025,239.218 422.691,238.218 415.5,236C 411.713,232.589 411.713,229.089 415.5,225.5 Z"/></g>
<g><path style="opacity:1" fill="#35b0b4" d="M 56.5,233.5 C 58.8714,235.868 61.5381,237.868 64.5,239.5C 61.5737,240.922 59.0737,242.922 57,245.5C 55.0251,242.919 52.5251,240.919 49.5,239.5C 51.1128,238.573 52.7795,237.739 54.5,237C 55.8228,236.184 56.4894,235.017 56.5,233.5 Z"/></g>
<g><path style="opacity:1" fill="#f5e935" d="M 277.5,239.5 C 286.247,240.344 287.58,243.844 281.5,250C 275.262,252.637 268.929,254.637 262.5,256C 267.394,250.279 272.394,244.779 277.5,239.5 Z"/></g>
<g><path style="opacity:1" fill="#f6e934" d="M 408.5,239.5 C 410.655,239.372 412.655,239.872 414.5,241C 419.185,245.551 423.518,250.384 427.5,255.5C 420.636,254.714 413.969,252.548 407.5,249C 404.753,245.553 405.087,242.386 408.5,239.5 Z"/></g>
<g><path style="opacity:1" fill="#f5e935" d="M 287.5,251.5 C 292.795,250.963 295.295,253.297 295,258.5C 289.064,264.374 282.23,268.54 274.5,271C 278.304,264.051 282.637,257.551 287.5,251.5 Z"/></g>
<g><path style="opacity:1" fill="#f6e934" d="M 398.5,251.5 C 401.652,250.959 404.152,251.959 406,254.5C 409.849,259.871 412.849,265.538 415,271.5C 408.833,268.084 402.833,264.418 397,260.5C 394.788,257.021 395.288,254.021 398.5,251.5 Z"/></g>
<g><path style="opacity:1" fill="#23aeba" d="M 56.5,259.5 C 64.2253,274.619 71.7253,289.952 79,305.5C 81.9889,312.856 79.6556,317.522 72,319.5C 66.3645,318.731 64.1978,315.731 65.5,310.5C 66.723,309.386 68.0563,309.219 69.5,310C 70.0897,311.509 70.7564,313.009 71.5,314.5C 73.2632,311.98 75.2632,309.647 77.5,307.5C 75.4993,305.137 73.4993,302.804 71.5,300.5C 70.7564,301.991 70.0897,303.491 69.5,305C 66.3408,305.011 63.5074,305.845 61,307.5C 60.3333,302.5 60.3333,297.5 61,292.5C 70.5202,290.864 70.3536,288.364 60.5,285C 62.5927,279.795 61.426,275.628 57,272.5C 52.3348,276.004 51.5014,280.17 54.5,285C 50.3689,284.961 47.3689,286.795 45.5,290.5C 48.0272,291.214 50.5272,291.88 53,292.5C 53.6667,297.5 53.6667,302.5 53,307.5C 50.4926,305.845 47.6592,305.011 44.5,305C 42.6221,299.098 41.2887,299.265 40.5,305.5C 38.6536,305.222 37.3202,305.889 36.5,307.5C 37.3202,309.111 38.6536,309.778 40.5,309.5C 41.2887,315.735 42.6221,315.902 44.5,310C 49.0833,309.066 50.5833,310.9 49,315.5C 44.3333,320.833 39.6667,320.833 35,315.5C 34.3333,312.167 34.3333,308.833 35,305.5C 42.4516,290.265 49.6182,274.932 56.5,259.5 Z"/></g>
<g><path style="opacity:1" fill="#f3e837" d="M 298.5,261.5 C 305,260.499 307.5,263.165 306,269.5C 300.968,274.867 295.635,279.867 290,284.5C 291.537,276.394 294.37,268.727 298.5,261.5 Z"/></g>
<g><path style="opacity:1" fill="#f3e937" d="M 386.5,261.5 C 389.652,260.959 392.152,261.959 394,264.5C 396.306,270.279 398.472,276.112 400.5,282C 400.167,282.5 399.833,283 399.5,283.5C 394.816,278.981 389.982,274.648 385,270.5C 382.788,267.021 383.288,264.021 386.5,261.5 Z"/></g>
<g><path style="opacity:1" fill="#f1e839" d="M 312.5,268.5 C 316.733,267.742 319.399,269.409 320.5,273.5C 317.014,280.825 312.514,287.492 307,293.5C 307.221,287.508 307.888,281.508 309,275.5C 309.653,272.861 310.82,270.527 312.5,268.5 Z"/></g>
<g><path style="opacity:1" fill="#f6e934" d="M 373.5,268.5 C 377.73,267.563 380.23,269.229 381,273.5C 382.184,279.824 382.851,286.157 383,292.5C 378.513,287.524 374.513,282.191 371,276.5C 369.837,273.029 370.67,270.362 373.5,268.5 Z"/></g>
<g><path style="opacity:1" fill="#f5e935" d="M 326.5,273.5 C 328.857,273.337 331.19,273.503 333.5,274C 334.804,274.804 335.471,275.971 335.5,277.5C 332.868,284.763 329.701,291.763 326,298.5C 324.691,290.869 324.358,283.203 325,275.5C 325.717,274.956 326.217,274.289 326.5,273.5 Z"/></g>
<g><path style="opacity:1" fill="#f7e933" d="M 357.5,273.5 C 360.365,273.055 362.865,273.722 365,275.5C 365.667,283.5 365.667,291.5 365,299.5C 360.197,292.08 357.197,284.08 356,275.5C 356.717,274.956 357.217,274.289 357.5,273.5 Z"/></g>
<g><path style="opacity:1" fill="#f7ea33" d="M 342.5,274.5 C 346.942,273.705 349.609,275.372 350.5,279.5C 349.578,286.762 347.745,293.762 345,300.5C 343.183,293.899 341.683,287.232 340.5,280.5C 340.363,278.159 341.03,276.159 342.5,274.5 Z"/></g>
<g><path style="opacity:1" fill="#8bcd73" d="M 232.5,291.5 C 233.043,291.56 233.376,291.893 233.5,292.5C 229.685,293.808 226.019,293.808 222.5,292.5C 226.042,292.813 229.375,292.479 232.5,291.5 Z"/></g>
<g><path style="opacity:1" fill="#80cb78" d="M 432.5,315.5 C 431.5,316.167 430.5,316.833 429.5,317.5C 428.957,317.44 428.624,317.107 428.5,316.5C 429.689,315.571 431.022,315.238 432.5,315.5 Z"/></g>
<g><path style="opacity:1" fill="#24aeba" d="M 56.5,315.5 C 59.3583,319.52 63.025,322.686 67.5,325C 62.7917,326.378 59.2917,329.212 57,333.5C 54.5449,328.851 50.7116,326.017 45.5,325C 50.6146,323.377 54.2813,320.211 56.5,315.5 Z"/></g>
<g><path style="opacity:1" fill="#a4d366" d="M 280.5,329.5 C 283.526,330.174 286.526,331.007 289.5,332C 285.583,332.567 281.917,332.067 278.5,330.5C 279.492,330.672 280.158,330.338 280.5,329.5 Z"/></g>
<g><path style="opacity:1" fill="#20adbb" d="M 38.5,330.5 C 42.5164,329.9 46.0164,330.9 49,333.5C 50.5833,338.1 49.0833,339.934 44.5,339C 43.7734,337.601 43.2734,336.101 43,334.5C 41.4496,337.41 39.2829,339.743 36.5,341.5C 38.578,344.203 40.7446,346.87 43,349.5C 43.2734,347.899 43.7734,346.399 44.5,345C 47.5063,344.668 50.3396,343.834 53,342.5C 53.6667,347.167 53.6667,351.833 53,356.5C 52.5,357 52,357.5 51.5,358C 49.3435,358.078 47.3435,358.245 45.5,358.5C 47.1753,362.344 50.1753,364.177 54.5,364C 51.5893,369.026 52.4226,373.526 57,377.5C 61.7422,373.617 62.5756,369.117 59.5,364C 63.8247,364.177 66.8247,362.344 68.5,358.5C 66.7612,358.406 64.7612,358.239 62.5,358C 62,357.5 61.5,357 61,356.5C 60.1717,351.798 60.3384,347.131 61.5,342.5C 64.1934,344.27 67.1934,344.937 70.5,344.5C 70.3398,346.199 70.5065,347.866 71,349.5C 73.2537,346.915 75.4204,344.248 77.5,341.5C 75.2733,339.393 73.2733,337.06 71.5,334.5C 70.5481,336.045 70.2148,337.712 70.5,339.5C 64.2651,339.777 62.9318,337.277 66.5,332C 71.0383,329.697 75.205,330.197 79,333.5C 80.373,335.695 80.7063,338.029 80,340.5C 72.5902,356.985 64.9235,373.318 57,389.5C 49.6667,374.167 42.3333,358.833 35,343.5C 34.3333,340.5 34.3333,337.5 35,334.5C 36.1022,333.051 37.2689,331.718 38.5,330.5 Z"/></g>
<g><path style="opacity:1" fill="#f6e934" d="M 348.5,368.5 C 348.808,366.076 348.474,363.743 347.5,361.5C 346.893,361.624 346.56,361.957 346.5,362.5C 344.53,366.151 341.53,368.151 337.5,368.5C 337.662,366.473 337.495,364.473 337,362.5C 333.413,366.063 329.246,367.397 324.5,366.5C 326.435,362.068 329.768,359.235 334.5,358C 347.461,356.881 360.461,355.881 373.5,355C 379.06,354.602 382.06,351.769 382.5,346.5C 385.541,346.594 387.207,345.094 387.5,342C 400.523,341.837 413.523,342.337 426.5,343.5C 425.918,350.969 421.918,353.802 414.5,352C 413.646,350.978 412.646,350.145 411.5,349.5C 410.686,352.419 409.686,355.252 408.5,358C 407.167,358.667 405.833,358.667 404.5,358C 403.226,356.779 401.726,355.946 400,355.5C 397.847,357.773 395.68,360.106 393.5,362.5C 391.803,361.636 390.637,360.303 390,358.5C 388.285,360.759 386.452,362.926 384.5,365C 383.5,365.667 382.5,365.667 381.5,365C 378.76,361.575 376.427,361.908 374.5,366C 372.866,366.494 371.199,366.66 369.5,366.5C 369.778,364.654 369.111,363.32 367.5,362.5C 366.006,366.748 363.006,368.748 358.5,368.5C 358.831,361.009 357.164,360.509 353.5,367C 351.975,368.009 350.308,368.509 348.5,368.5 Z"/></g>
<g><path style="opacity:1" fill="#32b2b0" d="M 319.5,343.5 C 319.773,345.958 318.773,347.625 316.5,348.5C 314.885,347.846 313.218,347.346 311.5,347C 313.11,345.505 314.776,345.339 316.5,346.5C 317.141,345.007 318.141,344.007 319.5,343.5 Z"/></g>
<g><path style="opacity:1" fill="#84cb79" d="M 346.5,362.5 C 346.56,361.957 346.893,361.624 347.5,361.5C 348.474,363.743 348.808,366.076 348.5,368.5C 347.833,366.5 347.167,364.5 346.5,362.5 Z"/></g>
<g><path style="opacity:1" fill="#1eaeba" d="M 56.5,404.5 C 59.171,406.837 62.171,408.671 65.5,410C 61.9338,410.7 59.1005,412.533 57,415.5C 54.8802,412.57 52.0469,410.737 48.5,410C 52.0703,409.389 54.737,407.556 56.5,404.5 Z"/></g>
<g><path style="opacity:1" fill="#1cadbc" d="M 56.5,428.5 C 60.4637,433.777 62.7971,439.777 63.5,446.5C 61.0637,446.683 58.897,446.016 57,444.5C 55.103,446.016 52.9363,446.683 50.5,446.5C 51.891,440.327 53.891,434.327 56.5,428.5 Z"/></g>
</svg>
