<?xml version="1.0" encoding="UTF-8"?>
<!DOCTYPE svg PUBLIC "-//W3C//DTD SVG 1.1//EN" "http://www.w3.org/Graphics/SVG/1.1/DTD/svg11.dtd">
<svg xmlns="http://www.w3.org/2000/svg" version="1.1" width="640px" height="480px" style="shape-rendering:geometricPrecision; text-rendering:geometricPrecision; image-rendering:optimizeQuality; fill-rule:evenodd; clip-rule:evenodd" xmlns:xlink="http://www.w3.org/1999/xlink">
<g><path style="opacity:1" fill="#000000" d="M -0.5,-0.5 C 212.833,-0.5 426.167,-0.5 639.5,-0.5C 639.5,47.5 639.5,95.5 639.5,143.5C 552.831,143.167 466.164,143.5 379.5,144.5C 377.155,148.528 374.822,152.528 372.5,156.5C 371.833,156.5 371.5,156.167 371.5,155.5C 373.988,151.194 376.488,146.861 379,142.5C 386.641,138.859 392.308,133.192 396,125.5C 405.856,108.588 412.523,90.5883 416,71.5C 398.679,87.1553 385.013,105.489 375,126.5C 373.855,131.083 373.189,135.749 373,140.5C 371.239,143.411 369.739,146.411 368.5,149.5C 367.662,149.158 367.328,148.492 367.5,147.5C 368.028,146.279 368.695,145.113 369.5,144C 368.207,143.51 366.873,143.343 365.5,143.5C 358.641,132.459 351.141,121.793 343,111.5C 338.801,106.966 334.301,102.799 329.5,99C 322.803,94.4206 316.136,94.4206 309.5,99C 304.699,102.799 300.199,106.966 296,111.5C 287.859,121.793 280.359,132.459 273.5,143.5C 272.127,143.343 270.793,143.51 269.5,144C 270.305,145.113 270.972,146.279 271.5,147.5C 271.672,148.492 271.338,149.158 270.5,149.5C 269.261,146.411 267.761,143.411 266,140.5C 265.811,135.749 265.145,131.083 264,126.5C 253.987,105.489 240.321,87.1553 223,71.5C 227.204,93.7661 235.537,114.433 248,133.5C 251.174,137.683 255.174,140.683 260,142.5C 262.512,146.861 265.012,151.194 267.5,155.5C 267.5,156.167 267.167,156.5 266.5,156.5C 264.178,152.528 261.845,148.528 259.5,144.5C 172.836,143.5 86.1692,143.167 -0.5,143.5C -0.5,95.5 -0.5,47.5 -0.5,-0.5 Z"/></g>
<g><path style="opacity:1" fill="#f9f9f9" d="M 270.5,149.5 C 270.008,151.819 269.008,153.819 267.5,155.5C 265.012,151.194 262.512,146.861 260,142.5C 255.174,140.683 251.174,137.683 248,133.5C 235.537,114.433 227.204,93.7661 223,71.5C 240.321,87.1553 253.987,105.489 264,126.5C 265.145,131.083 265.811,135.749 266,140.5C 267.761,143.411 269.261,146.411 270.5,149.5 Z"/></g>
<g><path style="opacity:1" fill="#f9f8f8" d="M 371.5,155.5 C 369.992,153.819 368.992,151.819 368.5,149.5C 369.739,146.411 371.239,143.411 373,140.5C 373.189,135.749 373.855,131.083 375,126.5C 385.013,105.489 398.679,87.1553 416,71.5C 412.523,90.5883 405.856,108.588 396,125.5C 392.308,133.192 386.641,138.859 379,142.5C 376.488,146.861 373.988,151.194 371.5,155.5 Z"/></g>
<g><path style="opacity:1" fill="#fefefe" d="M -0.5,143.5 C 86.1692,143.167 172.836,143.5 259.5,144.5C 261.845,148.528 264.178,152.528 266.5,156.5C 265.594,160.149 264.26,163.649 262.5,167C 174.834,167.5 87.1673,167.667 -0.5,167.5C -0.5,159.5 -0.5,151.5 -0.5,143.5 Z"/></g>
<g><path style="opacity:1" fill="#f0e7e7" d="M 273.5,143.5 C 273.34,145.153 272.674,146.486 271.5,147.5C 270.972,146.279 270.305,145.113 269.5,144C 270.793,143.51 272.127,143.343 273.5,143.5 Z"/></g>
<g><path style="opacity:1" fill="#f1e7e7" d="M 365.5,143.5 C 366.873,143.343 368.207,143.51 369.5,144C 368.695,145.113 368.028,146.279 367.5,147.5C 366.326,146.486 365.66,145.153 365.5,143.5 Z"/></g>
<g><path style="opacity:1" fill="#fefefe" d="M 639.5,143.5 C 639.5,151.5 639.5,159.5 639.5,167.5C 551.833,167.667 464.166,167.5 376.5,167C 374.74,163.649 373.406,160.149 372.5,156.5C 374.822,152.528 377.155,148.528 379.5,144.5C 466.164,143.5 552.831,143.167 639.5,143.5 Z"/></g>
<g><path style="opacity:1" fill="#ba0000" d="M 365.5,143.5 C 365.66,145.153 366.326,146.486 367.5,147.5C 367.328,148.492 367.662,149.158 368.5,149.5C 368.992,151.819 369.992,153.819 371.5,155.5C 371.5,156.167 371.833,156.5 372.5,156.5C 373.406,160.149 374.74,163.649 376.5,167C 464.166,167.5 551.833,167.667 639.5,167.5C 639.5,215.5 639.5,263.5 639.5,311.5C 551.833,311.333 464.166,311.5 376.5,312C 374.74,315.351 373.406,318.851 372.5,322.5C 371.833,322.5 371.5,322.833 371.5,323.5C 369.992,325.181 368.992,327.181 368.5,329.5C 367.662,329.842 367.328,330.508 367.5,331.5C 366.326,332.514 365.66,333.847 365.5,335.5C 358.641,346.541 351.141,357.207 343,367.5C 338.801,372.034 334.301,376.201 329.5,380C 322.803,384.579 316.136,384.579 309.5,380C 304.699,376.201 300.199,372.034 296,367.5C 287.859,357.207 280.359,346.541 273.5,335.5C 273.34,333.847 272.674,332.514 271.5,331.5C 271.672,330.508 271.338,329.842 270.5,329.5C 270.008,327.181 269.008,325.181 267.5,323.5C 267.5,322.833 267.167,322.5 266.5,322.5C 265.594,318.851 264.26,315.351 262.5,312C 174.834,311.5 87.1673,311.333 -0.5,311.5C -0.5,263.5 -0.5,215.5 -0.5,167.5C 87.1673,167.667 174.834,167.5 262.5,167C 264.26,163.649 265.594,160.149 266.5,156.5C 267.167,156.5 267.5,156.167 267.5,155.5C 269.008,153.819 270.008,151.819 270.5,149.5C 271.338,149.158 271.672,148.492 271.5,147.5C 272.674,146.486 273.34,145.153 273.5,143.5C 280.359,132.459 287.859,121.793 296,111.5C 300.199,106.966 304.699,102.799 309.5,99C 316.136,94.4206 322.803,94.4206 329.5,99C 334.301,102.799 338.801,106.966 343,111.5C 351.141,121.793 358.641,132.459 365.5,143.5 Z"/></g>
<g><path style="opacity:1" fill="#fefafa" d="M 322.5,97.5 C 330.961,116.47 334.961,136.47 334.5,157.5C 334.546,179.222 330.713,200.222 323,220.5C 322.5,179.501 322.333,138.501 322.5,97.5 Z"/></g>
<g><path style="opacity:1" fill="#fefafa" d="M 315.5,97.5 C 316.665,138.331 316.831,179.331 316,220.5C 300.897,179.542 300.73,138.542 315.5,97.5 Z"/></g>
<g><path style="opacity:1" fill="#030000" d="M 261.5,168.5 C 262.497,168.47 263.164,168.97 263.5,170C 282.368,216.658 282.034,263.158 262.5,309.5C 249.119,277.666 244.952,244.666 250,210.5C 252.923,196.233 256.757,182.233 261.5,168.5 Z"/></g>
<g><path style="opacity:1" fill="#030000" d="M 375.5,168.5 C 376.497,168.47 377.164,168.97 377.5,170C 396.416,216.662 396.083,263.162 376.5,309.5C 363.119,277.666 358.952,244.666 364,210.5C 366.923,196.233 370.757,182.233 375.5,168.5 Z"/></g>
<g><path style="opacity:1" fill="#fefaf9" d="M 316.5,221.5 C 326.919,222.433 331.919,228.266 331.5,239C 331.497,243.01 330.664,246.844 329,250.5C 326.937,253.054 325.103,255.72 323.5,258.5C 338.269,299.566 338.102,340.566 323,381.5C 322.5,340.168 322.333,298.835 322.5,257.5C 320.5,257.5 318.5,257.5 316.5,257.5C 316.667,298.835 316.5,340.168 316,381.5C 300.879,340.569 300.712,299.569 315.5,258.5C 306.851,248.876 305.351,238.209 311,226.5C 312.73,224.598 314.563,222.931 316.5,221.5 Z"/></g>
<g><path style="opacity:1" fill="#fefefe" d="M -0.5,311.5 C 87.1673,311.333 174.834,311.5 262.5,312C 264.26,315.351 265.594,318.851 266.5,322.5C 264.07,327.037 261.403,331.37 258.5,335.5C 172.167,335.5 85.8333,335.5 -0.5,335.5C -0.5,327.5 -0.5,319.5 -0.5,311.5 Z"/></g>
<g><path style="opacity:1" fill="#fefefe" d="M 639.5,311.5 C 639.5,319.5 639.5,327.5 639.5,335.5C 553.167,335.5 466.833,335.5 380.5,335.5C 377.833,331.167 375.167,326.833 372.5,322.5C 373.406,318.851 374.74,315.351 376.5,312C 464.166,311.5 551.833,311.333 639.5,311.5 Z"/></g>
<g><path style="opacity:1" fill="#f4f3f3" d="M 267.5,323.5 C 269.008,325.181 270.008,327.181 270.5,329.5C 260.599,348.305 249.932,366.639 238.5,384.5C 236.833,383.667 235.167,382.833 233.5,382C 245.06,362.612 256.394,343.112 267.5,323.5 Z"/></g>
<g><path style="opacity:1" fill="#f3f3f3" d="M 371.5,323.5 C 382.948,342.891 394.281,362.391 405.5,382C 403.409,383.675 401.242,384.175 399,383.5C 388.556,365.608 378.39,347.608 368.5,329.5C 368.992,327.181 369.992,325.181 371.5,323.5 Z"/></g>
<g><path style="opacity:1" fill="#f0e7e7" d="M 271.5,331.5 C 272.674,332.514 273.34,333.847 273.5,335.5C 272.167,335.5 270.833,335.5 269.5,335.5C 270.167,334.167 270.833,332.833 271.5,331.5 Z"/></g>
<g><path style="opacity:1" fill="#f0e7e7" d="M 367.5,331.5 C 368.167,332.833 368.833,334.167 369.5,335.5C 368.167,335.5 366.833,335.5 365.5,335.5C 365.66,333.847 366.326,332.514 367.5,331.5 Z"/></g>
<g><path style="opacity:1" fill="#006500" d="M -0.5,335.5 C 85.8333,335.5 172.167,335.5 258.5,335.5C 250.012,350.473 241.512,365.473 233,380.5C 232.251,381.635 232.417,382.635 233.5,383.5C 235.429,384.38 237.263,385.38 239,386.5C 249.67,369.832 259.836,352.832 269.5,335.5C 270.833,335.5 272.167,335.5 273.5,335.5C 280.359,346.541 287.859,357.207 296,367.5C 300.199,372.034 304.699,376.201 309.5,380C 316.136,384.579 322.803,384.579 329.5,380C 334.301,376.201 338.801,372.034 343,367.5C 351.141,357.207 358.641,346.541 365.5,335.5C 366.833,335.5 368.167,335.5 369.5,335.5C 379.164,352.832 389.33,369.832 400,386.5C 401.737,385.38 403.571,384.38 405.5,383.5C 406.583,382.635 406.749,381.635 406,380.5C 397.488,365.473 388.988,350.473 380.5,335.5C 466.833,335.5 553.167,335.5 639.5,335.5C 639.5,383.5 639.5,431.5 639.5,479.5C 426.167,479.5 212.833,479.5 -0.5,479.5C -0.5,431.5 -0.5,383.5 -0.5,335.5 Z"/></g>
<g><path style="opacity:1" fill="#151915" d="M 266.5,322.5 C 267.167,322.5 267.5,322.833 267.5,323.5C 256.394,343.112 245.06,362.612 233.5,382C 235.167,382.833 236.833,383.667 238.5,384.5C 249.932,366.639 260.599,348.305 270.5,329.5C 271.338,329.842 271.672,330.508 271.5,331.5C 270.833,332.833 270.167,334.167 269.5,335.5C 259.836,352.832 249.67,369.832 239,386.5C 237.263,385.38 235.429,384.38 233.5,383.5C 232.417,382.635 232.251,381.635 233,380.5C 241.512,365.473 250.012,350.473 258.5,335.5C 261.403,331.37 264.07,327.037 266.5,322.5 Z"/></g>
<g><path style="opacity:1" fill="#151914" d="M 372.5,322.5 C 375.167,326.833 377.833,331.167 380.5,335.5C 388.988,350.473 397.488,365.473 406,380.5C 406.749,381.635 406.583,382.635 405.5,383.5C 403.571,384.38 401.737,385.38 400,386.5C 389.33,369.832 379.164,352.832 369.5,335.5C 368.833,334.167 368.167,332.833 367.5,331.5C 367.328,330.508 367.662,329.842 368.5,329.5C 378.39,347.608 388.556,365.608 399,383.5C 401.242,384.175 403.409,383.675 405.5,382C 394.281,362.391 382.948,342.891 371.5,323.5C 371.5,322.833 371.833,322.5 372.5,322.5 Z"/></g>
</svg>
