<?xml version="1.0" encoding="UTF-8"?>
<!DOCTYPE svg PUBLIC "-//W3C//DTD SVG 1.1//EN" "http://www.w3.org/Graphics/SVG/1.1/DTD/svg11.dtd">
<svg xmlns="http://www.w3.org/2000/svg" version="1.1" width="640px" height="480px" style="shape-rendering:geometricPrecision; text-rendering:geometricPrecision; image-rendering:optimizeQuality; fill-rule:evenodd; clip-rule:evenodd" xmlns:xlink="http://www.w3.org/1999/xlink">
<g><path style="opacity:1" fill="#e63e2d" d="M -0.5,-0.5 C 212.833,-0.5 426.167,-0.5 639.5,-0.5C 639.5,90.8333 639.5,182.167 639.5,273.5C 634.73,273.308 630.063,272.475 625.5,271C 614.255,266.918 603.255,262.251 592.5,257C 582.224,252.091 571.557,250.758 560.5,253C 549.928,257.286 539.928,262.619 530.5,269C 493.46,288.282 458.46,285.282 425.5,260C 419.968,256.894 414.301,254.394 408.5,252.5C 417.725,249.351 427.059,246.185 436.5,243C 426.5,242.667 416.5,242.333 406.5,242C 412.964,235.103 420.964,231.436 430.5,231C 422.649,224.603 413.649,220.936 403.5,220C 407.693,216.635 411.693,213.135 415.5,209.5C 418.073,208.121 419.573,206.121 420,203.5C 410.625,207.622 401.125,211.122 391.5,214C 395.835,204.984 402.835,198.984 412.5,196C 409.911,194.803 407.244,193.803 404.5,193C 397.114,192.444 389.781,192.444 382.5,193C 386.5,186 390.5,179 394.5,172C 394,171.833 393.5,171.667 393,171.5C 386.012,177.82 379.012,184.154 372,190.5C 371.195,186.091 372.195,182.091 375,178.5C 378.008,174.326 381.508,170.659 385.5,167.5C 375.364,165.7 366.031,167.7 357.5,173.5C 356.902,166.574 357.569,159.741 359.5,153C 359.167,152.833 358.833,152.667 358.5,152.5C 353.177,160.47 348.343,168.804 344,177.5C 340.802,167.182 342.635,157.849 349.5,149.5C 338.958,150.699 330.458,155.699 324,164.5C 322.926,157.384 321.426,150.384 319.5,143.5C 316.829,153.344 314.662,163.344 313,173.5C 310.274,170.714 308.607,167.381 308,163.5C 307.667,157.833 307.333,152.167 307,146.5C 298.787,153.036 293.453,161.369 291,171.5C 287,164.833 283,158.167 279,151.5C 280.173,161.857 281.506,172.191 283,182.5C 275.534,176.238 271.201,168.238 270,158.5C 263.995,166.848 260.995,176.182 261,186.5C 257.376,183.611 253.876,180.611 250.5,177.5C 250.167,177.5 249.833,177.5 249.5,177.5C 248.099,174.685 246.099,173.352 243.5,173.5C 248.167,181.5 252.833,189.5 257.5,197.5C 256.635,198.583 255.635,198.749 254.5,198C 246.896,194.335 240.896,188.835 236.5,181.5C 234.534,191.516 235.534,201.183 239.5,210.5C 239.167,210.833 238.833,211.167 238.5,211.5C 232.114,208.871 225.614,206.538 219,204.5C 218.5,204.833 218,205.167 217.5,205.5C 224.662,211.825 231.995,217.992 239.5,224C 229.606,224.818 221.106,221.652 214,214.5C 214.307,225.419 218.473,234.586 226.5,242C 218.5,242.333 210.5,242.667 202.5,243C 211.605,246.42 220.605,249.92 229.5,253.5C 225.753,253.392 222.086,253.892 218.5,255C 201.386,261.724 184.386,268.724 167.5,276C 147.267,282.522 127.267,281.855 107.5,274C 97.5,268.667 87.5,263.333 77.5,258C 64.6039,252.495 51.6039,252.162 38.5,257C 25.7456,263.377 12.7456,269.21 -0.5,274.5C -0.5,182.833 -0.5,91.1667 -0.5,-0.5 Z"/></g>
<g><path style="opacity:1" fill="#dba73f" d="M 412.5,51.5 C 414.857,51.3367 417.19,51.5034 419.5,52C 421.098,60.1377 418.098,66.1377 410.5,70C 406.952,71.9407 403.286,73.6074 399.5,75C 379.626,79.6248 360.626,86.6248 342.5,96C 355.134,95.4363 367.801,95.4363 380.5,96C 386.616,96.5514 390.616,99.7181 392.5,105.5C 389.215,106.324 385.882,106.824 382.5,107C 379.797,110.019 376.464,112.019 372.5,113C 365.606,114.718 358.606,115.718 351.5,116C 331.597,130.883 310.931,132.216 289.5,120C 285.984,116.651 282.651,113.151 279.5,109.5C 271.879,109.192 265.879,106.025 261.5,100C 255.65,98.9884 249.984,99.4884 244.5,101.5C 244.167,101.167 243.833,100.833 243.5,100.5C 248.094,94.6993 254.094,91.1993 261.5,90C 264.955,84.9824 269.622,83.3157 275.5,85C 281.705,87.8789 287.372,91.5455 292.5,96C 295.47,96.0217 296.636,94.5217 296,91.5C 290.114,86.6134 283.947,82.1134 277.5,78C 258.256,76.691 238.923,76.0243 219.5,76C 215.041,75.58 211.375,73.7467 208.5,70.5C 222.853,68.9235 237.186,67.0902 251.5,65C 275.632,52.7115 296.466,56.8782 314,77.5C 329.737,65.2206 347.57,57.7206 367.5,55C 382.66,53.9296 397.66,52.7629 412.5,51.5 Z"/></g>
<g><path style="opacity:1" fill="#fdc64a" d="M 274.5,59.5 C 290.366,59.4331 303.033,65.7664 312.5,78.5C 307.833,82.8333 303.167,87.1667 298.5,91.5C 291.856,85.8453 284.856,80.6786 277.5,76C 259.5,75.6667 241.5,75.3333 223.5,75C 219.623,74.7435 215.957,73.7435 212.5,72C 233.86,70.7214 254.527,66.5548 274.5,59.5 Z"/></g>
<g><path style="opacity:1" fill="#fec74a" d="M 410.5,53.5 C 413.167,53.5 415.833,53.5 418.5,53.5C 418.901,59.4899 416.568,63.9899 411.5,67C 400.129,67.2185 388.795,67.3851 377.5,67.5C 387.116,68.8599 396.783,69.6933 406.5,70C 404.283,71.2754 401.949,72.2754 399.5,73C 391.165,73.051 382.831,73.051 374.5,73C 380.158,73.7398 385.825,74.4065 391.5,75C 363.33,83.7535 336.663,95.7535 311.5,111C 304.226,111.448 298.392,108.615 294,102.5C 293.333,101.5 293.333,100.5 294,99.5C 311.06,78.2151 332.894,64.3818 359.5,58C 376.598,55.9561 393.598,54.4561 410.5,53.5 Z"/></g>
<g><path style="opacity:1" fill="#fdc74a" d="M 267.5,86.5 C 273.456,85.8752 278.789,87.3752 283.5,91C 286.333,93.1667 289.167,95.3333 292,97.5C 291.411,101.672 292.911,105.172 296.5,108C 299.908,110.747 303.742,112.58 308,113.5C 317.008,109.412 325.841,104.912 334.5,100C 337.101,99.0797 339.768,98.413 342.5,98C 356.167,97.3333 369.833,97.3333 383.5,98C 385.976,99.3088 387.976,101.142 389.5,103.5C 382.858,104.331 376.191,104.831 369.5,105C 365.271,106.115 361.271,107.781 357.5,110C 347.071,118.88 335.071,124.547 321.5,127C 303.652,128.385 289.652,121.719 279.5,107C 271.958,107.562 266.291,104.728 262.5,98.5C 257.457,97.4471 252.457,97.2804 247.5,98C 251.494,94.5269 256.161,92.5269 261.5,92C 263.396,89.932 265.396,88.0987 267.5,86.5 Z"/></g>
<g><path style="opacity:1" fill="#fcc64a" d="M 368.5,106.5 C 383.326,105.229 383.992,107.062 370.5,112C 352.591,115.202 351.924,113.369 368.5,106.5 Z"/></g>
<g><path style="opacity:1" fill="#ddab40" d="M 415.5,209.5 C 411.693,213.135 407.693,216.635 403.5,220C 413.649,220.936 422.649,224.603 430.5,231C 420.964,231.436 412.964,235.103 406.5,242C 416.5,242.333 426.5,242.667 436.5,243C 427.059,246.185 417.725,249.351 408.5,252.5C 403.833,252.5 399.167,252.5 394.5,252.5C 405.002,251.403 415.335,248.903 425.5,245C 408.503,244.5 391.503,244.333 374.5,244.5C 375.426,249.463 376.092,254.463 376.5,259.5C 376.167,260.5 375.5,261.167 374.5,261.5C 373.119,237.58 361.452,220.747 339.5,211C 312.444,201.955 289.944,208.455 272,230.5C 265.353,240.129 261.853,250.796 261.5,262.5C 260.29,262.068 259.29,261.401 258.5,260.5C 260.343,255.543 261.676,250.21 262.5,244.5C 244.488,244.41 226.488,244.243 208.5,244C 217.979,247.103 227.312,250.27 236.5,253.5C 234.167,253.5 231.833,253.5 229.5,253.5C 220.605,249.92 211.605,246.42 202.5,243C 210.5,242.667 218.5,242.333 226.5,242C 218.473,234.586 214.307,225.419 214,214.5C 221.106,221.652 229.606,224.818 239.5,224C 231.995,217.992 224.662,211.825 217.5,205.5C 218,205.167 218.5,204.833 219,204.5C 225.614,206.538 232.114,208.871 238.5,211.5C 238.833,211.167 239.167,210.833 239.5,210.5C 235.534,201.183 234.534,191.516 236.5,181.5C 240.896,188.835 246.896,194.335 254.5,198C 255.635,198.749 256.635,198.583 257.5,197.5C 252.833,189.5 248.167,181.5 243.5,173.5C 246.099,173.352 248.099,174.685 249.5,177.5C 248.761,177.369 248.094,177.536 247.5,178C 256.67,193.321 266.003,208.488 275.5,223.5C 279.804,219.351 284.47,215.684 289.5,212.5C 278.646,203.145 267.646,193.978 256.5,185C 253.882,182.894 251.882,180.394 250.5,177.5C 253.876,180.611 257.376,183.611 261,186.5C 260.995,176.182 263.995,166.848 270,158.5C 271.201,168.238 275.534,176.238 283,182.5C 281.506,172.191 280.173,161.857 279,151.5C 283,158.167 287,164.833 291,171.5C 293.453,161.369 298.787,153.036 307,146.5C 307.333,152.167 307.667,157.833 308,163.5C 308.607,167.381 310.274,170.714 313,173.5C 314.662,163.344 316.829,153.344 319.5,143.5C 321.426,150.384 322.926,157.384 324,164.5C 330.458,155.699 338.958,150.699 349.5,149.5C 342.635,157.849 340.802,167.182 344,177.5C 348.343,168.804 353.177,160.47 358.5,152.5C 358.833,152.667 359.167,152.833 359.5,153C 357.569,159.741 356.902,166.574 357.5,173.5C 366.031,167.7 375.364,165.7 385.5,167.5C 381.508,170.659 378.008,174.326 375,178.5C 372.195,182.091 371.195,186.091 372,190.5C 379.012,184.154 386.012,177.82 393,171.5C 393.5,171.667 394,171.833 394.5,172C 390.5,179 386.5,186 382.5,193C 389.781,192.444 397.114,192.444 404.5,193C 407.244,193.803 409.911,194.803 412.5,196C 402.835,198.984 395.835,204.984 391.5,214C 401.125,211.122 410.625,207.622 420,203.5C 419.573,206.121 418.073,208.121 415.5,209.5 Z"/></g>
<g><path style="opacity:1" fill="#fdc649" d="M 387.5,193.5 C 394.679,193.089 401.679,193.923 408.5,196C 399.474,199.692 393.141,206.026 389.5,215C 381.609,218.626 373.609,221.626 365.5,224C 370.667,214.833 375.833,205.667 381,196.5C 383.294,195.578 385.461,194.578 387.5,193.5 Z"/></g>
<g><path style="opacity:1" fill="#fdc649" d="M 236.5,185.5 C 239.814,188.231 242.814,191.397 245.5,195C 249.914,198.124 254.748,200.291 260,201.5C 264.041,208.417 268.208,215.25 272.5,222C 262.943,219.039 253.276,216.039 243.5,213C 237.409,204.876 235.076,195.71 236.5,185.5 Z"/></g>
<g><path style="opacity:1" fill="#fcc649" d="M 249.5,177.5 C 249.833,177.5 250.167,177.5 250.5,177.5C 251.882,180.394 253.882,182.894 256.5,185C 267.646,193.978 278.646,203.145 289.5,212.5C 284.47,215.684 279.804,219.351 275.5,223.5C 266.003,208.488 256.67,193.321 247.5,178C 248.094,177.536 248.761,177.369 249.5,177.5 Z"/></g>
<g><path style="opacity:1" fill="#fcc649" d="M 388.5,176.5 C 389.043,176.56 389.376,176.893 389.5,177.5C 380.466,193.373 371.633,209.373 363,225.5C 358.779,221.311 354.279,217.478 349.5,214C 362.699,201.633 375.699,189.133 388.5,176.5 Z"/></g>
<g><path style="opacity:1" fill="#fcc649" d="M 373.5,168.5 C 376.187,168.336 378.854,168.503 381.5,169C 373.784,175.375 369.618,183.542 369,193.5C 362.698,198.801 356.698,204.468 351,210.5C 352.27,199.156 353.937,187.822 356,176.5C 361.367,172.563 367.2,169.896 373.5,168.5 Z"/></g>
<g><path style="opacity:1" fill="#fdc649" d="M 268.5,163.5 C 271.015,168.857 273.849,174.19 277,179.5C 279.333,181.5 281.667,183.5 284,185.5C 285.372,191.954 286.539,198.454 287.5,205C 287.167,205.833 286.833,206.667 286.5,207.5C 278.722,201.523 271.222,195.19 264,188.5C 262.742,179.629 264.242,171.296 268.5,163.5 Z"/></g>
<g><path style="opacity:1" fill="#fdc649" d="M 355.5,159.5 C 356.097,159.735 356.43,160.235 356.5,161C 353.396,178.455 350.563,195.955 348,213.5C 342.175,210.517 336.342,207.85 330.5,205.5C 338.846,190.14 347.179,174.806 355.5,159.5 Z"/></g>
<g><path style="opacity:1" fill="#fdc649" d="M 281.5,159.5 C 290.474,174.77 299.474,190.104 308.5,205.5C 302.694,207.102 297.027,209.102 291.5,211.5C 290.914,211.291 290.414,210.957 290,210.5C 287.164,193.487 284.331,176.487 281.5,159.5 Z"/></g>
<g><path style="opacity:1" fill="#fcc649" d="M 318.5,150.5 C 320.117,151.589 320.95,153.256 321,155.5C 323.177,172.226 325.677,188.892 328.5,205.5C 322.167,205.5 315.833,205.5 309.5,205.5C 312.592,187.187 315.592,168.853 318.5,150.5 Z"/></g>
<g><path style="opacity:1" fill="#fcc649" d="M 345.5,150.5 C 346.043,150.56 346.376,150.893 346.5,151.5C 344.726,154.715 343.226,158.048 342,161.5C 341.576,167.862 341.576,174.195 342,180.5C 338.73,187.576 334.897,194.243 330.5,200.5C 327.688,189.281 325.854,177.947 325,166.5C 330.101,158.875 336.934,153.542 345.5,150.5 Z"/></g>
<g><path style="opacity:1" fill="#fdc649" d="M 304.5,150.5 C 305.324,154.312 305.824,158.312 306,162.5C 307.778,167.882 309.944,173.048 312.5,178C 311,185.833 309.5,193.666 308,201.5C 302.144,191.952 296.977,182.119 292.5,172C 294.547,163.738 298.547,156.572 304.5,150.5 Z"/></g>
<g><path style="opacity:1" fill="#fdc74a" d="M 374.5,261.5 C 337.054,290.331 299.387,290.665 261.5,262.5C 261.853,250.796 265.353,240.129 272,230.5C 289.944,208.455 312.444,201.955 339.5,211C 361.452,220.747 373.119,237.58 374.5,261.5 Z"/></g>
<g><path style="opacity:1" fill="#fdc649" d="M 222.5,208.5 C 222.735,207.903 223.235,207.57 224,207.5C 240.583,213.415 257.083,219.415 273.5,225.5C 269.812,230.876 266.646,236.542 264,242.5C 250.584,230.576 236.75,219.243 222.5,208.5 Z"/></g>
<g><path style="opacity:1" fill="#fcc649" d="M 415.5,209.5 C 414.448,209.351 413.448,209.517 412.5,210C 399.646,221.022 386.646,231.855 373.5,242.5C 370.752,237.334 367.752,232.334 364.5,227.5C 380.937,220.742 397.437,214.075 414,207.5C 415.03,207.836 415.53,208.503 415.5,209.5 Z"/></g>
<g><path style="opacity:1" fill="#fdc649" d="M 215.5,218.5 C 220.168,221.501 225.168,224.001 230.5,226C 234.833,226.333 239.167,226.667 243.5,227C 249.208,232.377 255.208,237.377 261.5,242C 250.5,242.667 239.5,242.667 228.5,242C 221.436,235.707 217.102,227.874 215.5,218.5 Z"/></g>
<g><path style="opacity:1" fill="#fdc649" d="M 400.5,222.5 C 410.08,221.894 418.746,224.394 426.5,230C 417.356,230.901 410.023,234.901 404.5,242C 395.158,242.65 385.825,242.983 376.5,243C 384.692,236.302 392.692,229.469 400.5,222.5 Z"/></g>
<g><path style="opacity:1" fill="#fdc64b" d="M 258.5,260.5 C 251.553,256.962 244.219,254.629 236.5,253.5C 227.312,250.27 217.979,247.103 208.5,244C 226.488,244.243 244.488,244.41 262.5,244.5C 261.676,250.21 260.343,255.543 258.5,260.5 Z"/></g>
<g><path style="opacity:1" fill="#fdc64b" d="M 394.5,252.5 C 388.034,253.737 382.034,256.07 376.5,259.5C 376.092,254.463 375.426,249.463 374.5,244.5C 391.503,244.333 408.503,244.5 425.5,245C 415.335,248.903 405.002,251.403 394.5,252.5 Z"/></g>
<g><path style="opacity:1" fill="#fefdfd" d="M 639.5,273.5 C 639.5,285.5 639.5,297.5 639.5,309.5C 632.28,308.595 625.28,306.762 618.5,304C 607.619,298.726 596.619,293.726 585.5,289C 575.052,286.674 564.719,287.007 554.5,290C 543.603,295.23 532.936,300.897 522.5,307C 500.299,316.545 477.632,317.878 454.5,311C 442.838,304.838 431.504,298.171 420.5,291C 409.818,286.411 398.818,285.411 387.5,288C 373.669,295.748 360.002,303.748 346.5,312C 325.343,320.99 304.343,320.657 283.5,311C 272.431,303.604 261.098,296.604 249.5,290C 235.732,286.421 222.066,286.754 208.5,291C 197.167,297 185.833,303 174.5,309C 156.658,315.617 138.325,317.284 119.5,314C 113.511,312.448 107.844,310.115 102.5,307C 93.8325,299.674 84.1659,294.007 73.5,290C 60.6234,287.438 47.9568,288.105 35.5,292C 27.837,295.829 20.5037,300.163 13.5,305C 9.0862,307.526 4.41953,309.359 -0.5,310.5C -0.5,298.5 -0.5,286.5 -0.5,274.5C 12.7456,269.21 25.7456,263.377 38.5,257C 51.6039,252.162 64.6039,252.495 77.5,258C 87.5,263.333 97.5,268.667 107.5,274C 127.267,281.855 147.267,282.522 167.5,276C 184.386,268.724 201.386,261.724 218.5,255C 222.086,253.892 225.753,253.392 229.5,253.5C 231.833,253.5 234.167,253.5 236.5,253.5C 244.219,254.629 251.553,256.962 258.5,260.5C 259.29,261.401 260.29,262.068 261.5,262.5C 299.387,290.665 337.054,290.331 374.5,261.5C 375.5,261.167 376.167,260.5 376.5,259.5C 382.034,256.07 388.034,253.737 394.5,252.5C 399.167,252.5 403.833,252.5 408.5,252.5C 414.301,254.394 419.968,256.894 425.5,260C 458.46,285.282 493.46,288.282 530.5,269C 539.928,262.619 549.928,257.286 560.5,253C 571.557,250.758 582.224,252.091 592.5,257C 603.255,262.251 614.255,266.918 625.5,271C 630.063,272.475 634.73,273.308 639.5,273.5 Z"/></g>
<g><path style="opacity:1" fill="#045a89" d="M 639.5,309.5 C 639.5,320.167 639.5,330.833 639.5,341.5C 632.31,340.452 625.31,338.619 618.5,336C 607.616,331.058 596.616,326.391 585.5,322C 576.143,318.774 566.809,318.774 557.5,322C 546.34,327.746 535.34,333.746 524.5,340C 506.639,347.885 487.973,350.552 468.5,348C 461.972,346.602 455.639,344.602 449.5,342C 438.695,335.428 427.695,329.094 416.5,323C 406.935,318.878 397.268,318.545 387.5,322C 378.658,326.585 370.325,331.918 362.5,338C 341.557,350.323 319.223,353.656 295.5,348C 289.264,345.883 283.264,343.216 277.5,340C 267.054,332.442 255.72,326.442 243.5,322C 233.662,320.885 223.996,321.552 214.5,324C 202.05,329.058 189.717,334.391 177.5,340C 153.98,350.959 130.313,351.293 106.5,341C 93.8675,333.85 80.8675,327.517 67.5,322C 58.2775,319.63 49.2775,320.296 40.5,324C 27.0445,330.729 13.3778,336.896 -0.5,342.5C -0.5,331.833 -0.5,321.167 -0.5,310.5C 4.41953,309.359 9.0862,307.526 13.5,305C 20.5037,300.163 27.837,295.829 35.5,292C 47.9568,288.105 60.6234,287.438 73.5,290C 84.1659,294.007 93.8325,299.674 102.5,307C 107.844,310.115 113.511,312.448 119.5,314C 138.325,317.284 156.658,315.617 174.5,309C 185.833,303 197.167,297 208.5,291C 222.066,286.754 235.732,286.421 249.5,290C 261.098,296.604 272.431,303.604 283.5,311C 304.343,320.657 325.343,320.99 346.5,312C 360.002,303.748 373.669,295.748 387.5,288C 398.818,285.411 409.818,286.411 420.5,291C 431.504,298.171 442.838,304.838 454.5,311C 477.632,317.878 500.299,316.545 522.5,307C 532.936,300.897 543.603,295.23 554.5,290C 564.719,287.007 575.052,286.674 585.5,289C 596.619,293.726 607.619,298.726 618.5,304C 625.28,306.762 632.28,308.595 639.5,309.5 Z"/></g>
<g><path style="opacity:1" fill="#fdfdfe" d="M 639.5,341.5 C 639.5,353.167 639.5,364.833 639.5,376.5C 633.659,376.193 627.992,375.026 622.5,373C 609.564,366.356 596.231,360.689 582.5,356C 572.995,354.855 563.662,355.522 554.5,358C 544.5,363.333 534.5,368.667 524.5,374C 501.286,384.546 477.62,385.879 453.5,378C 442.572,372.065 431.906,365.732 421.5,359C 408.633,353.411 395.633,353.077 382.5,358C 371.833,364.667 361.167,371.333 350.5,378C 325.63,388.894 301.297,387.894 277.5,375C 269.844,369.17 261.844,363.837 253.5,359C 239.315,353.375 224.982,353.041 210.5,358C 197.375,364.396 184.375,371.063 171.5,378C 153.795,384.017 135.795,385.017 117.5,381C 111.933,379.217 106.599,376.883 101.5,374C 73.9811,350.499 45.6478,349.499 16.5,371C 11.0423,374.064 5.37561,376.564 -0.5,378.5C -0.5,366.5 -0.5,354.5 -0.5,342.5C 13.3778,336.896 27.0445,330.729 40.5,324C 49.2775,320.296 58.2775,319.63 67.5,322C 80.8675,327.517 93.8675,333.85 106.5,341C 130.313,351.293 153.98,350.959 177.5,340C 189.717,334.391 202.05,329.058 214.5,324C 223.996,321.552 233.662,320.885 243.5,322C 255.72,326.442 267.054,332.442 277.5,340C 283.264,343.216 289.264,345.883 295.5,348C 319.223,353.656 341.557,350.323 362.5,338C 370.325,331.918 378.658,326.585 387.5,322C 397.268,318.545 406.935,318.878 416.5,323C 427.695,329.094 438.695,335.428 449.5,342C 455.639,344.602 461.972,346.602 468.5,348C 487.973,350.552 506.639,347.885 524.5,340C 535.34,333.746 546.34,327.746 557.5,322C 566.809,318.774 576.143,318.774 585.5,322C 596.616,326.391 607.616,331.058 618.5,336C 625.31,338.619 632.31,340.452 639.5,341.5 Z"/></g>
<g><path style="opacity:1" fill="#045a8a" d="M 639.5,376.5 C 639.5,387.5 639.5,398.5 639.5,409.5C 631.906,408.804 624.573,406.971 617.5,404C 605.729,398.448 593.729,393.448 581.5,389C 571.854,387.613 562.521,388.613 553.5,392C 538.525,401.821 522.525,409.488 505.5,415C 487.844,419.117 470.511,418.117 453.5,412C 441.576,405.733 429.909,399.067 418.5,392C 408.736,388.187 398.736,387.521 388.5,390C 375.665,397.919 362.665,405.585 349.5,413C 325.192,422.735 301.526,421.401 278.5,409C 268.825,402.827 258.825,397.16 248.5,392C 236.971,388.638 225.471,388.805 214,392.5C 199.442,398.529 184.942,404.696 170.5,411C 149.387,418.523 128.387,418.19 107.5,410C 96.6254,404.063 85.6254,398.396 74.5,393C 63.5787,388.937 52.5787,388.604 41.5,392C 27.8307,399.003 13.8307,405.17 -0.5,410.5C -0.5,399.833 -0.5,389.167 -0.5,378.5C 5.37561,376.564 11.0423,374.064 16.5,371C 45.6478,349.499 73.9811,350.499 101.5,374C 106.599,376.883 111.933,379.217 117.5,381C 135.795,385.017 153.795,384.017 171.5,378C 184.375,371.063 197.375,364.396 210.5,358C 224.982,353.041 239.315,353.375 253.5,359C 261.844,363.837 269.844,369.17 277.5,375C 301.297,387.894 325.63,388.894 350.5,378C 361.167,371.333 371.833,364.667 382.5,358C 395.633,353.077 408.633,353.411 421.5,359C 431.906,365.732 442.572,372.065 453.5,378C 477.62,385.879 501.286,384.546 524.5,374C 534.5,368.667 544.5,363.333 554.5,358C 563.662,355.522 572.995,354.855 582.5,356C 596.231,360.689 609.564,366.356 622.5,373C 627.992,375.026 633.659,376.193 639.5,376.5 Z"/></g>
<g><path style="opacity:1" fill="#fdfdfe" d="M 639.5,409.5 C 639.5,421.5 639.5,433.5 639.5,445.5C 633.356,444.631 627.356,443.131 621.5,441C 610.619,435.726 599.619,430.726 588.5,426C 576.37,422.381 564.37,422.714 552.5,427C 539.724,434.721 526.391,441.388 512.5,447C 491.506,453.628 470.84,452.961 450.5,445C 440.094,438.268 429.428,431.935 418.5,426C 407.611,421.784 396.611,421.45 385.5,425C 372.093,433.399 358.426,441.399 344.5,449C 321.693,457.733 299.693,456.067 278.5,444C 269.704,437.211 260.37,431.211 250.5,426C 237.5,422.667 224.5,422.667 211.5,426C 199.041,432.063 186.708,438.396 174.5,445C 156.668,451.653 138.335,453.319 119.5,450C 113.511,448.448 107.844,446.115 102.5,443C 93.8325,435.674 84.1659,430.007 73.5,426C 57.3707,422.423 42.0374,424.423 27.5,432C 19.1497,438.676 9.81642,443.509 -0.5,446.5C -0.5,434.5 -0.5,422.5 -0.5,410.5C 13.8307,405.17 27.8307,399.003 41.5,392C 52.5787,388.604 63.5787,388.937 74.5,393C 85.6254,398.396 96.6254,404.063 107.5,410C 128.387,418.19 149.387,418.523 170.5,411C 184.942,404.696 199.442,398.529 214,392.5C 225.471,388.805 236.971,388.638 248.5,392C 258.825,397.16 268.825,402.827 278.5,409C 301.526,421.401 325.192,422.735 349.5,413C 362.665,405.585 375.665,397.919 388.5,390C 398.736,387.521 408.736,388.187 418.5,392C 429.909,399.067 441.576,405.733 453.5,412C 470.511,418.117 487.844,419.117 505.5,415C 522.525,409.488 538.525,401.821 553.5,392C 562.521,388.613 571.854,387.613 581.5,389C 593.729,393.448 605.729,398.448 617.5,404C 624.573,406.971 631.906,408.804 639.5,409.5 Z"/></g>
<g><path style="opacity:1" fill="#015989" d="M 639.5,445.5 C 639.5,456.833 639.5,468.167 639.5,479.5C 426.167,479.5 212.833,479.5 -0.5,479.5C -0.5,468.5 -0.5,457.5 -0.5,446.5C 9.81642,443.509 19.1497,438.676 27.5,432C 42.0374,424.423 57.3707,422.423 73.5,426C 84.1659,430.007 93.8325,435.674 102.5,443C 107.844,446.115 113.511,448.448 119.5,450C 138.335,453.319 156.668,451.653 174.5,445C 186.708,438.396 199.041,432.063 211.5,426C 224.5,422.667 237.5,422.667 250.5,426C 260.37,431.211 269.704,437.211 278.5,444C 299.693,456.067 321.693,457.733 344.5,449C 358.426,441.399 372.093,433.399 385.5,425C 396.611,421.45 407.611,421.784 418.5,426C 429.428,431.935 440.094,438.268 450.5,445C 470.84,452.961 491.506,453.628 512.5,447C 526.391,441.388 539.724,434.721 552.5,427C 564.37,422.714 576.37,422.381 588.5,426C 599.619,430.726 610.619,435.726 621.5,441C 627.356,443.131 633.356,444.631 639.5,445.5 Z"/></g>
</svg>
