<?xml version="1.0" encoding="UTF-8"?>
<!DOCTYPE svg PUBLIC "-//W3C//DTD SVG 1.1//EN" "http://www.w3.org/Graphics/SVG/1.1/DTD/svg11.dtd">
<svg xmlns="http://www.w3.org/2000/svg" version="1.1" width="640px" height="480px" style="shape-rendering:geometricPrecision; text-rendering:geometricPrecision; image-rendering:optimizeQuality; fill-rule:evenodd; clip-rule:evenodd" xmlns:xlink="http://www.w3.org/1999/xlink">
<g><path style="opacity:1" fill="#ff0200" d="M -0.5,-0.5 C 212.833,-0.5 426.167,-0.5 639.5,-0.5C 639.5,159.5 639.5,319.5 639.5,479.5C 426.167,479.5 212.833,479.5 -0.5,479.5C -0.5,319.5 -0.5,159.5 -0.5,-0.5 Z"/></g>
<g><path style="opacity:1" fill="#fffa00" d="M 187.5,222.5 C 185.833,221.833 184.167,221.167 182.5,220.5C 186.871,218.269 191.538,217.269 196.5,217.5C 205.927,218.19 215.261,219.524 224.5,221.5C 226.881,221.512 228.548,220.512 229.5,218.5C 219.779,214.806 210.445,210.306 201.5,205C 195.974,203.046 190.307,201.713 184.5,201C 190.967,198.633 197.633,197.966 204.5,199C 213.136,201.934 221.802,204.767 230.5,207.5C 233.396,206.976 234.063,205.476 232.5,203C 222.984,197.744 213.984,191.744 205.5,185C 201.469,182.545 197.136,180.879 192.5,180C 201.107,178.796 209.441,179.796 217.5,183C 223.73,187.282 230.396,190.782 237.5,193.5C 238.91,193.132 239.91,192.299 240.5,191C 231.871,184.705 224.205,177.372 217.5,169C 213.159,165.828 208.492,163.161 203.5,161C 211.391,160.807 218.725,162.807 225.5,167C 231.552,172.053 237.885,176.719 244.5,181C 246.906,181.779 248.573,180.946 249.5,178.5C 242.373,171.565 236.206,163.898 231,155.5C 227.088,150.917 222.588,147.083 217.5,144C 222.556,143.766 227.223,145.099 231.5,148C 239.136,154.635 246.47,161.635 253.5,169C 255.298,170.505 257.132,170.672 259,169.5C 254.164,160.835 249.497,151.835 245,142.5C 241.887,137.387 238.054,132.887 233.5,129C 240.505,130.296 246.338,133.796 251,139.5C 255.652,147.297 261.152,154.464 267.5,161C 268.784,161.684 269.951,161.517 271,160.5C 266.958,148.056 262.292,135.723 257,123.5C 249.036,115.901 249.87,114.734 259.5,120C 261.333,121.833 263.167,123.667 265,125.5C 269.349,134.198 273.682,142.864 278,151.5C 280.538,155.343 282.705,155.343 284.5,151.5C 281.962,142.308 280.128,132.975 279,123.5C 277.429,117.859 274.929,112.693 271.5,108C 277.132,109.954 281.298,113.787 284,119.5C 286.875,129.337 290.208,139.003 294,148.5C 295.699,149.406 297.533,149.739 299.5,149.5C 298.796,139.187 298.296,128.854 298,118.5C 297.24,112.584 295.907,106.918 294,101.5C 297.427,104.256 300.093,107.59 302,111.5C 304.887,122.375 307.221,133.375 309,144.5C 310.401,146.192 312.234,146.859 314.5,146.5C 314.87,136.679 316.37,127.013 319,117.5C 319.333,111.5 319.667,105.5 320,99.5C 322.478,102.789 324.144,106.456 325,110.5C 324.925,122.49 324.758,134.49 324.5,146.5C 326.167,146.5 327.833,146.5 329.5,146.5C 330.819,137.042 333.652,128.042 338,119.5C 339.836,113.304 340.836,106.97 341,100.5C 343.81,104.931 344.976,109.764 344.5,115C 342.587,126.478 340.921,137.978 339.5,149.5C 341.167,149.5 342.833,149.5 344.5,149.5C 344.687,147.436 345.187,145.436 346,143.5C 350.667,134.833 355.333,126.167 360,117.5C 361.126,113.535 362.126,109.535 363,105.5C 365.27,109.93 365.937,114.597 365,119.5C 360.885,130.064 357.052,140.731 353.5,151.5C 353.833,153.167 354.833,154.167 356.5,154.5C 363.013,144.143 370.513,134.476 379,125.5C 380.927,122.052 382.261,118.385 383,114.5C 384.965,119.86 384.632,125.193 382,130.5C 376.633,139.706 371.466,149.039 366.5,158.5C 367.347,159.845 368.513,160.845 370,161.5C 371.333,159.5 372.667,157.5 374,155.5C 382,148.167 390,140.833 398,133.5C 399.861,131.112 401.194,128.446 402,125.5C 402.569,131.892 401.236,137.892 398,143.5C 392.333,150.5 386.667,157.5 381,164.5C 378.847,166.875 379.18,168.875 382,170.5C 390.542,162.814 399.708,155.981 409.5,150C 419.733,138.51 421.233,140.01 414,154.5C 406.19,162.066 398.19,169.4 390,176.5C 389.612,178.076 390.112,179.409 391.5,180.5C 402.19,174.488 413.19,168.988 424.5,164C 427.312,162.023 429.978,159.856 432.5,157.5C 433.218,160.242 432.718,162.909 431,165.5C 428.5,168 426,170.5 423.5,173C 415.164,177.499 407.164,182.499 399.5,188C 398.151,189.635 398.318,191.135 400,192.5C 411.967,188.131 424.134,184.298 436.5,181C 447.531,173.48 448.531,175.147 439.5,186C 428.703,191.38 417.703,196.38 406.5,201C 405.62,202.356 405.286,203.856 405.5,205.5C 415.705,203.31 426.039,201.81 436.5,201C 442.079,200.319 447.412,198.819 452.5,196.5C 453.229,198.595 452.563,200.428 450.5,202C 448.33,203.586 445.996,204.92 443.5,206C 432.539,209.157 421.539,212.157 410.5,215C 410.034,216.299 410.034,217.799 410.5,219.5C 420.508,219.553 430.508,219.886 440.5,220.5C 446.612,220.452 452.612,219.952 458.5,219C 455.409,222.879 451.409,225.212 446.5,226C 435.229,227.781 423.896,228.948 412.5,229.5C 412.5,231.167 412.5,232.833 412.5,234.5C 423.91,235.748 435.244,237.581 446.5,240C 451.551,240.492 456.551,240.492 461.5,240C 459.232,242.968 456.232,244.634 452.5,245C 439.171,245.104 425.837,244.937 412.5,244.5C 412.286,246.144 412.62,247.644 413.5,249C 423.637,251.934 433.637,255.268 443.5,259C 448.769,260.106 454.103,260.773 459.5,261C 455.248,264.306 450.415,265.806 445,265.5C 433.427,263.898 421.927,261.898 410.5,259.5C 410.238,260.978 410.571,262.311 411.5,263.5C 421.833,269 432.167,274.5 442.5,280C 446.347,281.616 450.347,282.616 454.5,283C 450.142,285.372 445.476,286.038 440.5,285C 429.623,281.313 418.79,277.479 408,273.5C 405.5,274.333 405,275.833 406.5,278C 416.855,284.845 426.855,292.178 436.5,300C 446.698,304.275 445.698,305.608 433.5,304C 423.006,298.587 412.673,292.921 402.5,287C 399.679,286.494 398.512,287.66 399,290.5C 408.719,299.097 417.886,308.264 426.5,318C 428.67,319.586 431.004,320.92 433.5,322C 427.607,323.062 422.274,321.729 417.5,318C 409.529,311.017 401.196,304.517 392.5,298.5C 391.354,299.145 390.354,299.978 389.5,301C 396.86,309.552 403.36,318.719 409,328.5C 412.201,332.036 415.701,335.203 419.5,338C 414.959,339.114 410.959,338.114 407.5,335C 398.885,326.263 390.385,317.429 382,308.5C 380.978,309.354 380.145,310.354 379.5,311.5C 386.448,323.062 392.615,335.062 398,347.5C 404.546,353.767 403.712,354.933 395.5,351C 387.116,342.616 380.283,333.116 375,322.5C 373.471,321.271 372.304,319.771 371.5,318C 369.799,317.655 368.466,318.322 367.5,320C 372.177,331.869 376.011,344.035 379,356.5C 380.123,359.249 381.623,361.749 383.5,364C 378.584,362.442 374.751,359.275 372,354.5C 367.952,344.072 363.119,334.072 357.5,324.5C 356.098,324.865 355.098,325.699 354.5,327C 357.3,342.611 360.133,358.111 363,373.5C 358.548,371.045 355.548,367.379 354,362.5C 351.143,351.736 347.976,341.07 344.5,330.5C 343.311,329.571 341.978,329.238 340.5,329.5C 340.095,345.957 340.595,362.29 342,378.5C 337.473,374.941 334.806,370.274 334,364.5C 333.094,354.488 332.094,344.488 331,334.5C 329.951,332.893 328.451,332.227 326.5,332.5C 325.423,345.024 324.09,357.524 322.5,370C 322.825,373.214 322.992,376.38 323,379.5C 320.045,375.648 318.045,371.315 317,366.5C 317.032,355.176 317.199,343.843 317.5,332.5C 315.5,332.5 313.5,332.5 311.5,332.5C 309.26,344.391 306.094,356.058 302,367.5C 301.667,371.5 301.333,375.5 301,379.5C 298.149,374.904 296.982,369.904 297.5,364.5C 298.706,353.14 300.04,341.806 301.5,330.5C 299.856,330.286 298.356,330.62 297,331.5C 291.333,345.5 285.667,359.5 280,373.5C 278.541,370.331 277.708,366.998 277.5,363.5C 280.422,351.731 283.756,340.065 287.5,328.5C 287.167,326.833 286.167,325.833 284.5,325.5C 278.922,335.24 272.756,344.573 266,353.5C 263.726,357.714 261.726,362.047 260,366.5C 259.333,361.5 259.333,356.5 260,351.5C 264.577,341.347 269.41,331.347 274.5,321.5C 273.653,320.155 272.487,319.155 271,318.5C 264.133,326.879 256.8,334.879 249,342.5C 245.501,346.672 242.834,351.338 241,356.5C 239.523,347.931 241.523,340.264 247,333.5C 252.551,326.95 257.717,320.117 262.5,313C 261.534,311.322 260.201,310.655 258.5,311C 251.032,318.807 242.699,325.473 233.5,331C 229.964,334.201 226.797,337.701 224,341.5C 223.335,336.819 224.335,332.486 227,328.5C 233.667,320.5 241,313.167 249,306.5C 251.314,304.631 251.647,302.631 250,300.5C 249.667,300.167 249.333,299.833 249,299.5C 240.236,306.136 230.736,311.636 220.5,316C 215.921,318.702 212.088,322.202 209,326.5C 209.006,319.657 211.839,314.157 217.5,310C 226.28,304.38 234.613,298.214 242.5,291.5C 242.135,290.098 241.301,289.098 240,288.5C 228.988,293.06 217.821,297.226 206.5,301C 203.073,302.796 199.906,304.963 197,307.5C 197.396,303.388 199.229,299.888 202.5,297C 212.183,291.158 222.183,285.824 232.5,281C 236.343,279.182 236.343,277.348 232.5,275.5C 221.907,277.988 211.241,280.155 200.5,282C 195.75,283.523 191.416,285.023 187.5,286.5C 191.074,281.435 195.74,277.601 201.5,275C 211.05,271.697 220.716,268.863 230.5,266.5C 230.837,263.17 229.337,261.504 226,261.5C 214.517,262.258 203.017,262.758 191.5,263C 180.518,266.687 179.851,265.353 189.5,259C 192.089,257.803 194.756,256.803 197.5,256C 206.819,254.535 216.152,253.202 225.5,252C 227.192,250.599 227.859,248.766 227.5,246.5C 214.588,245.987 201.755,244.654 189,242.5C 185.786,242.825 182.62,242.992 179.5,243C 182.952,239.94 186.952,237.94 191.5,237C 203.197,237.215 214.864,237.048 226.5,236.5C 226.773,234.549 226.107,233.049 224.5,232C 212.266,228.358 199.932,225.192 187.5,222.5 Z"/></g>
<g><path style="opacity:1" fill="#ff1700" d="M 310.5,158.5 C 350.974,157.187 379.474,174.854 396,211.5C 407.71,252.04 396.544,284.54 362.5,309C 328.703,326.664 296.703,323.998 266.5,301C 239.9,274.763 232.733,243.93 245,208.5C 258.359,180.631 280.192,163.965 310.5,158.5 Z"/></g>
<g><path style="opacity:1" fill="#fffd00" d="M 310.5,170.5 C 334.969,168.597 355.636,176.43 372.5,194C 353.503,193.623 336.003,198.456 320,208.5C 313.586,203.543 306.419,200.043 298.5,198C 288.673,195.368 278.673,194.035 268.5,194C 280.073,181.716 294.073,173.883 310.5,170.5 Z"/></g>
<g><path style="opacity:1" fill="#fffd00" d="M 366.5,213.5 C 372.537,213.171 378.537,213.504 384.5,214.5C 393.525,240.018 389.691,263.351 373,284.5C 371.784,258.566 360.951,237.732 340.5,222C 348.848,217.919 357.515,215.086 366.5,213.5 Z"/></g>
<g><path style="opacity:1" fill="#fffd00" d="M 255.5,214.5 C 270.537,213.431 284.871,215.931 298.5,222C 279.889,239.056 269.723,260.223 268,285.5C 250.891,264.119 246.724,240.452 255.5,214.5 Z"/></g>
<g><path style="opacity:1" fill="#ffb600" d="M 182.5,220.5 C 184.167,221.167 185.833,221.833 187.5,222.5C 185.143,222.663 182.81,222.497 180.5,222C 181.044,221.283 181.711,220.783 182.5,220.5 Z"/></g>
<g><path style="opacity:1" fill="#fff900" d="M 304.5,228.5 C 305.239,228.369 305.906,228.536 306.5,229C 290.512,249.295 282.679,272.462 283,298.5C 278.524,296.15 276.691,292.317 277.5,287C 278.275,263.622 287.275,244.122 304.5,228.5 Z"/></g>
<g><path style="opacity:1" fill="#fff900" d="M 358.5,297.5 C 357.833,293.5 357.167,289.5 356.5,285.5C 354.47,264.74 347.136,246.074 334.5,229.5C 334.667,229.167 334.833,228.833 335,228.5C 354.79,246.078 364.123,268.078 363,294.5C 361.729,295.883 360.229,296.883 358.5,297.5 Z"/></g>
<g><path style="opacity:1" fill="#fff800" d="M 312.5,234.5 C 313.239,234.369 313.906,234.536 314.5,235C 303.591,251.621 298.258,269.954 298.5,290C 298.711,295.182 299.045,300.348 299.5,305.5C 297.738,305.643 296.071,305.309 294.5,304.5C 290.827,278.523 296.827,255.189 312.5,234.5 Z"/></g>
<g><path style="opacity:1" fill="#fffc00" d="M 319.5,240.5 C 325.648,248.38 329.815,257.38 332,267.5C 333.977,280.828 333.977,294.161 332,307.5C 324.64,309.803 317.14,310.136 309.5,308.5C 304.061,284.463 307.395,261.797 319.5,240.5 Z"/></g>
<g><path style="opacity:1" fill="#fff500" d="M 328.5,236.5 C 339.857,249.232 346.357,264.232 348,281.5C 348.801,288.889 348.467,296.223 347,303.5C 345.915,304.293 344.748,304.96 343.5,305.5C 345.609,280.938 340.609,257.938 328.5,236.5 Z"/></g>
<g><path style="opacity:1" fill="#ffb500" d="M 356.5,285.5 C 357.167,289.5 357.833,293.5 358.5,297.5C 358.44,298.043 358.107,298.376 357.5,298.5C 356.508,294.217 356.174,289.884 356.5,285.5 Z"/></g>
</svg>
