<?xml version="1.0" encoding="UTF-8"?>
<!DOCTYPE svg PUBLIC "-//W3C//DTD SVG 1.1//EN" "http://www.w3.org/Graphics/SVG/1.1/DTD/svg11.dtd">
<svg xmlns="http://www.w3.org/2000/svg" version="1.1" width="640px" height="480px" style="shape-rendering:geometricPrecision; text-rendering:geometricPrecision; image-rendering:optimizeQuality; fill-rule:evenodd; clip-rule:evenodd" xmlns:xlink="http://www.w3.org/1999/xlink">
<g><path style="opacity:1" fill="#971e31" d="M -0.5,-0.5 C 212.833,-0.5 426.167,-0.5 639.5,-0.5C 639.5,63.5 639.5,127.5 639.5,191.5C 426.167,191.5 212.833,191.5 -0.5,191.5C -0.5,127.5 -0.5,63.5 -0.5,-0.5 Z"/></g>
<g><path style="opacity:1" fill="#fefffe" d="M -0.5,191.5 C 212.833,191.5 426.167,191.5 639.5,191.5C 639.5,223.5 639.5,255.5 639.5,287.5C 426.167,287.5 212.833,287.5 -0.5,287.5C -0.5,255.5 -0.5,223.5 -0.5,191.5 Z"/></g>
<g><path style="opacity:1" fill="#971e31" d="M -0.5,287.5 C 212.833,287.5 426.167,287.5 639.5,287.5C 639.5,351.5 639.5,415.5 639.5,479.5C 426.167,479.5 212.833,479.5 -0.5,479.5C -0.5,415.5 -0.5,351.5 -0.5,287.5 Z"/></g>
</svg>
