<?xml version="1.0" encoding="UTF-8"?>
<!DOCTYPE svg PUBLIC "-//W3C//DTD SVG 1.1//EN" "http://www.w3.org/Graphics/SVG/1.1/DTD/svg11.dtd">
<svg xmlns="http://www.w3.org/2000/svg" version="1.1" width="640px" height="480px" style="shape-rendering:geometricPrecision; text-rendering:geometricPrecision; image-rendering:optimizeQuality; fill-rule:evenodd; clip-rule:evenodd" xmlns:xlink="http://www.w3.org/1999/xlink">
<g><path style="opacity:1" fill="#ed161e" d="M -0.5,-0.5 C 212.833,-0.5 426.167,-0.5 639.5,-0.5C 639.5,39.5 639.5,79.5 639.5,119.5C 426.167,119.5 212.833,119.5 -0.5,119.5C -0.5,79.5 -0.5,39.5 -0.5,-0.5 Z"/></g>
<g><path style="opacity:1" fill="#fefefe" d="M -0.5,119.5 C 212.833,119.5 426.167,119.5 639.5,119.5C 639.5,199.5 639.5,279.5 639.5,359.5C 507.5,359.5 375.5,359.5 243.5,359.5C 258.521,353.652 273.521,347.486 288.5,341C 297.368,336.844 306.368,336.511 315.5,340C 321.167,344.333 326.833,348.667 332.5,353C 336.203,355.354 340.203,356.854 344.5,357.5C 343.202,353.45 342.035,349.45 341,345.5C 351.38,349.073 361.547,353.24 371.5,358C 375.541,358.827 379.541,358.66 383.5,357.5C 381.525,354.391 379.192,351.557 376.5,349C 360.694,340.56 352.027,327.393 350.5,309.5C 350.366,300.462 354.699,296.629 363.5,298C 375.142,301.945 387.142,303.611 399.5,303C 412.463,306.877 425.13,311.543 437.5,317C 442.5,317.667 447.5,317.667 452.5,317C 453.308,316.692 453.975,316.192 454.5,315.5C 450.401,308.566 445.068,302.733 438.5,298C 427.919,291.136 416.586,285.803 404.5,282C 411.516,276.372 418.85,276.038 426.5,281C 432.651,281.966 438.651,281.466 444.5,279.5C 445.631,277.926 445.798,276.259 445,274.5C 436.257,267.546 427.424,260.712 418.5,254C 410.593,250.273 402.26,248.273 393.5,248C 406.766,245.842 420.099,244.342 433.5,243.5C 433.739,241.533 433.406,239.699 432.5,238C 418.605,234.867 404.938,231.033 391.5,226.5C 392.27,224.728 393.603,223.728 395.5,223.5C 405.889,226.799 416.555,228.132 427.5,227.5C 426.909,224.386 425.242,221.886 422.5,220C 402.412,209.545 383.246,197.712 365,184.5C 364.058,181.77 365.058,180.437 368,180.5C 378.032,182.788 387.865,185.788 397.5,189.5C 396.776,185.955 394.776,182.788 391.5,180C 386.77,176.968 381.77,174.468 376.5,172.5C 380.393,171.185 384.393,170.518 388.5,170.5C 386.915,165.727 384.248,161.56 380.5,158C 376.326,155.412 371.993,153.079 367.5,151C 358.125,148.653 349.125,145.32 340.5,141C 334.865,136.367 329.532,131.367 324.5,126C 321.705,124.7 319.039,123.2 316.5,121.5C 313.137,127.373 308.804,132.54 303.5,137C 296.76,141.07 290.593,145.904 285,151.5C 283.958,154.804 285.125,156.971 288.5,158C 280.094,161.19 273.761,166.69 269.5,174.5C 270.145,175.646 270.978,176.646 272,177.5C 274.289,176.014 276.789,175.014 279.5,174.5C 280.932,174.733 281.432,175.4 281,176.5C 267.253,185.959 253.087,194.793 238.5,203C 234.764,205.659 232.431,209.159 231.5,213.5C 239.539,213.229 247.539,212.563 255.5,211.5C 256.78,218.835 254.447,224.669 248.5,229C 235.095,235.022 222.762,242.522 211.5,251.5C 213.364,258.208 217.697,261.041 224.5,260C 230.488,258.227 236.321,256.06 242,253.5C 242.772,253.645 243.439,253.978 244,254.5C 244.667,256.5 244.667,258.5 244,260.5C 225.901,268.964 208.568,278.631 192,289.5C 191.506,291.134 191.34,292.801 191.5,294.5C 199.984,297.083 208.651,297.916 217.5,297C 226.387,293.891 235.054,290.224 243.5,286C 247.122,284.894 250.789,284.561 254.5,285C 240.216,295.595 224.216,301.762 206.5,303.5C 206.5,306.833 206.5,310.167 206.5,313.5C 217.536,313.748 228.536,313.248 239.5,312C 251.336,308.499 263.169,304.999 275,301.5C 283.854,303.343 287.521,308.676 286,317.5C 284.144,324.359 280.311,329.859 274.5,334C 265.833,339 257.167,344 248.5,349C 244.975,351.901 242.308,355.401 240.5,359.5C 160.167,359.5 79.8333,359.5 -0.5,359.5C -0.5,279.5 -0.5,199.5 -0.5,119.5 Z"/></g>
<g><path style="opacity:1" fill="#08a952" d="M 243.5,359.5 C 242.5,359.5 241.5,359.5 240.5,359.5C 242.308,355.401 244.975,351.901 248.5,349C 257.167,344 265.833,339 274.5,334C 280.311,329.859 284.144,324.359 286,317.5C 287.521,308.676 283.854,303.343 275,301.5C 263.169,304.999 251.336,308.499 239.5,312C 228.536,313.248 217.536,313.748 206.5,313.5C 206.5,310.167 206.5,306.833 206.5,303.5C 224.216,301.762 240.216,295.595 254.5,285C 250.789,284.561 247.122,284.894 243.5,286C 235.054,290.224 226.387,293.891 217.5,297C 208.651,297.916 199.984,297.083 191.5,294.5C 191.34,292.801 191.506,291.134 192,289.5C 208.568,278.631 225.901,268.964 244,260.5C 244.667,258.5 244.667,256.5 244,254.5C 243.439,253.978 242.772,253.645 242,253.5C 236.321,256.06 230.488,258.227 224.5,260C 217.697,261.041 213.364,258.208 211.5,251.5C 222.762,242.522 235.095,235.022 248.5,229C 254.447,224.669 256.78,218.835 255.5,211.5C 247.539,212.563 239.539,213.229 231.5,213.5C 232.431,209.159 234.764,205.659 238.5,203C 253.087,194.793 267.253,185.959 281,176.5C 281.432,175.4 280.932,174.733 279.5,174.5C 276.789,175.014 274.289,176.014 272,177.5C 270.978,176.646 270.145,175.646 269.5,174.5C 273.761,166.69 280.094,161.19 288.5,158C 285.125,156.971 283.958,154.804 285,151.5C 290.593,145.904 296.76,141.07 303.5,137C 308.804,132.54 313.137,127.373 316.5,121.5C 319.039,123.2 321.705,124.7 324.5,126C 329.532,131.367 334.865,136.367 340.5,141C 349.125,145.32 358.125,148.653 367.5,151C 371.993,153.079 376.326,155.412 380.5,158C 384.248,161.56 386.915,165.727 388.5,170.5C 384.393,170.518 380.393,171.185 376.5,172.5C 381.77,174.468 386.77,176.968 391.5,180C 394.776,182.788 396.776,185.955 397.5,189.5C 387.865,185.788 378.032,182.788 368,180.5C 365.058,180.437 364.058,181.77 365,184.5C 383.246,197.712 402.412,209.545 422.5,220C 425.242,221.886 426.909,224.386 427.5,227.5C 416.555,228.132 405.889,226.799 395.5,223.5C 393.603,223.728 392.27,224.728 391.5,226.5C 404.938,231.033 418.605,234.867 432.5,238C 433.406,239.699 433.739,241.533 433.5,243.5C 420.099,244.342 406.766,245.842 393.5,248C 402.26,248.273 410.593,250.273 418.5,254C 427.424,260.712 436.257,267.546 445,274.5C 445.798,276.259 445.631,277.926 444.5,279.5C 438.651,281.466 432.651,281.966 426.5,281C 418.85,276.038 411.516,276.372 404.5,282C 416.586,285.803 427.919,291.136 438.5,298C 445.068,302.733 450.401,308.566 454.5,315.5C 453.975,316.192 453.308,316.692 452.5,317C 447.5,317.667 442.5,317.667 437.5,317C 425.13,311.543 412.463,306.877 399.5,303C 387.142,303.611 375.142,301.945 363.5,298C 354.699,296.629 350.366,300.462 350.5,309.5C 352.027,327.393 360.694,340.56 376.5,349C 379.192,351.557 381.525,354.391 383.5,357.5C 379.541,358.66 375.541,358.827 371.5,358C 361.547,353.24 351.38,349.073 341,345.5C 342.035,349.45 343.202,353.45 344.5,357.5C 340.203,356.854 336.203,355.354 332.5,353C 326.833,348.667 321.167,344.333 315.5,340C 306.368,336.511 297.368,336.844 288.5,341C 273.521,347.486 258.521,353.652 243.5,359.5 Z"/></g>
<g><path style="opacity:1" fill="#edf9f2" d="M 291.5,166.5 C 294.166,166.066 295.333,167.066 295,169.5C 292.978,172.759 290.145,174.259 286.5,174C 285.549,173.282 285.383,172.449 286,171.5C 287.812,169.7 289.645,168.033 291.5,166.5 Z"/></g>
<g><path style="opacity:1" fill="#eff9f3" d="M 331.5,170.5 C 335.679,170.142 338.179,171.809 339,175.5C 334.765,179.827 331.265,179.494 328.5,174.5C 328.787,172.557 329.787,171.223 331.5,170.5 Z"/></g>
<g><path style="opacity:1" fill="#f6fcf8" d="M 314.5,172.5 C 317.187,172.336 319.854,172.503 322.5,173C 323.035,177.18 321.035,179.847 316.5,181C 313.518,181.498 310.518,181.665 307.5,181.5C 307.343,180.127 307.51,178.793 308,177.5C 309.965,175.45 312.132,173.783 314.5,172.5 Z"/></g>
<g><path style="opacity:1" fill="#f5fbf8" d="M 343.5,174.5 C 346.187,174.336 348.854,174.503 351.5,175C 352.38,176.356 352.714,177.856 352.5,179.5C 349.813,179.664 347.146,179.497 344.5,179C 343.62,177.644 343.286,176.144 343.5,174.5 Z"/></g>
<g><path style="opacity:1" fill="#f7fcf9" d="M 299.5,178.5 C 304.213,178.468 305.713,180.801 304,185.5C 299.35,191.07 293.517,194.403 286.5,195.5C 286.144,192.436 286.977,189.769 289,187.5C 292.665,184.601 296.165,181.601 299.5,178.5 Z"/></g>
<g><path style="opacity:1" fill="#f8fcfa" d="M 318.5,195.5 C 320.857,195.337 323.19,195.503 325.5,196C 326.554,197.388 326.72,198.888 326,200.5C 320.964,203.634 315.464,204.967 309.5,204.5C 309.343,203.127 309.51,201.793 310,200.5C 312.682,198.415 315.516,196.748 318.5,195.5 Z"/></g>
<g><path style="opacity:1" fill="#f6fbf8" d="M 334.5,195.5 C 338.883,194.755 341.383,196.422 342,200.5C 338.478,203.594 334.312,204.927 329.5,204.5C 329.891,200.779 331.558,197.779 334.5,195.5 Z"/></g>
<g><path style="opacity:1" fill="#f6fcf8" d="M 283.5,199.5 C 292.537,198.666 294.537,201.833 289.5,209C 282.752,211.909 279.586,209.743 280,202.5C 281.145,201.364 282.312,200.364 283.5,199.5 Z"/></g>
<g><path style="opacity:1" fill="#f8fcfa" d="M 350.5,199.5 C 358.058,198.904 361.891,202.237 362,209.5C 356.32,211.124 350.82,210.624 345.5,208C 344.326,203.643 345.992,200.81 350.5,199.5 Z"/></g>
<g><path style="opacity:1" fill="#f8fcfa" d="M 268.5,205.5 C 274.015,204.678 277.349,207.012 278.5,212.5C 275.37,216.123 271.536,218.79 267,220.5C 263.313,218.157 260.813,214.824 259.5,210.5C 261.854,207.517 264.854,205.85 268.5,205.5 Z"/></g>
<g><path style="opacity:1" fill="#f7fcf9" d="M 374.5,215.5 C 379.677,214.703 384.177,216.036 388,219.5C 388.483,220.448 388.649,221.448 388.5,222.5C 385.15,222.665 381.817,222.498 378.5,222C 375.307,220.974 373.974,218.808 374.5,215.5 Z"/></g>
<g><path style="opacity:1" fill="#f8fcfa" d="M 309.5,225.5 C 316.997,224.804 318.997,227.637 315.5,234C 311.597,234.448 308.93,232.782 307.5,229C 307.978,227.697 308.645,226.531 309.5,225.5 Z"/></g>
<g><path style="opacity:1" fill="#f3faf6" d="M 292.5,229.5 C 297.6,229.277 300.6,231.611 301.5,236.5C 298.193,236.937 295.193,236.27 292.5,234.5C 291.334,232.833 291.334,231.166 292.5,229.5 Z"/></g>
<g><path style="opacity:1" fill="#f9fdfa" d="M 323.5,230.5 C 329.109,230.109 331.776,232.776 331.5,238.5C 331.902,243.069 329.902,244.569 325.5,243C 318.494,239.51 317.827,235.343 323.5,230.5 Z"/></g>
<g><path style="opacity:1" fill="#f6fcf8" d="M 267.5,243.5 C 278.699,243.802 279.366,246.636 269.5,252C 264.342,254.165 259.009,255.165 253.5,255C 251.586,253.587 250.253,251.753 249.5,249.5C 255.37,246.872 261.37,244.872 267.5,243.5 Z"/></g>
<g><path style="opacity:1" fill="#f2faf5" d="M 370.5,258.5 C 375.447,257.628 379.613,258.961 383,262.5C 384.042,265.804 382.875,267.971 379.5,269C 372.996,269.93 366.662,269.264 360.5,267C 357.833,265.333 357.833,263.667 360.5,262C 363.85,260.514 367.184,259.347 370.5,258.5 Z"/></g>
<g><path style="opacity:1" fill="#f9fdfb" d="M 388.5,264.5 C 394.526,263.676 399.693,265.342 404,269.5C 405.536,275.135 403.369,278.135 397.5,278.5C 391.519,277.673 387.519,274.506 385.5,269C 386.008,267.107 387.008,265.607 388.5,264.5 Z"/></g>
<g><path style="opacity:1" fill="#f6fcf9" d="M 278.5,265.5 C 284.327,265.994 288.827,268.661 292,273.5C 292.568,287.582 288.901,288.916 281,277.5C 278.344,273.743 277.51,269.743 278.5,265.5 Z"/></g>
<g><path style="opacity:1" fill="#f7fcf9" d="M 313.5,269.5 C 318.513,269.256 322.346,271.256 325,275.5C 324.994,281.805 321.828,283.971 315.5,282C 312.372,278.273 311.705,274.106 313.5,269.5 Z"/></g>
<g><path style="opacity:1" fill="#f3fbf6" d="M 301.5,270.5 C 305.059,272.08 307.059,274.913 307.5,279C 307.167,282.74 305.167,284.073 301.5,283C 298.86,278.768 298.86,274.601 301.5,270.5 Z"/></g>
<g><path style="opacity:1" fill="#ed161f" d="M -0.5,359.5 C 79.8333,359.5 160.167,359.5 240.5,359.5C 241.5,359.5 242.5,359.5 243.5,359.5C 375.5,359.5 507.5,359.5 639.5,359.5C 639.5,399.5 639.5,439.5 639.5,479.5C 426.167,479.5 212.833,479.5 -0.5,479.5C -0.5,439.5 -0.5,399.5 -0.5,359.5 Z"/></g>
</svg>
