<?xml version="1.0" encoding="UTF-8"?>
<!DOCTYPE svg PUBLIC "-//W3C//DTD SVG 1.1//EN" "http://www.w3.org/Graphics/SVG/1.1/DTD/svg11.dtd">
<svg xmlns="http://www.w3.org/2000/svg" version="1.1" width="640px" height="480px" style="shape-rendering:geometricPrecision; text-rendering:geometricPrecision; image-rendering:optimizeQuality; fill-rule:evenodd; clip-rule:evenodd" xmlns:xlink="http://www.w3.org/1999/xlink">
<g><path style="opacity:1" fill="#001f9f" d="M -0.5,-0.5 C 212.833,-0.5 426.167,-0.5 639.5,-0.5C 639.5,47.5 639.5,95.5 639.5,143.5C 426.167,143.5 212.833,143.5 -0.5,143.5C -0.5,95.5 -0.5,47.5 -0.5,-0.5 Z"/></g>
<g><path style="opacity:1" fill="#fefefe" d="M -0.5,143.5 C 212.833,143.5 426.167,143.5 639.5,143.5C 639.5,207.5 639.5,271.5 639.5,335.5C 426.167,335.5 212.833,335.5 -0.5,335.5C -0.5,271.5 -0.5,207.5 -0.5,143.5 Z"/></g>
<g><path style="opacity:1" fill="#040404" d="M 317.5,151.5 C 320.659,151.481 323.326,152.648 325.5,155C 338.219,157.385 346.052,164.885 349,177.5C 350.455,184.444 350.788,191.444 350,198.5C 347.836,210.311 344.503,221.644 340,232.5C 351.975,248.642 364.141,264.642 376.5,280.5C 379.311,280.355 382.145,280.355 385,280.5C 388.894,289.289 393.061,297.955 397.5,306.5C 383.744,315.366 368.744,321.2 352.5,324C 316.866,330.765 282.533,326.765 249.5,312C 246.96,310.569 244.627,308.902 242.5,307C 246.815,297.711 251.315,288.545 256,279.5C 259.115,281.885 262.115,281.885 265,279.5C 276.5,263.833 288,248.167 299.5,232.5C 290.568,215.458 287.068,197.458 289,178.5C 291.103,171.787 294.603,165.954 299.5,161C 305.486,157.535 311.486,154.368 317.5,151.5 Z"/></g>
<g><path style="opacity:1" fill="#f8f8f8" d="M 325.5,163.5 C 334.841,165.771 340.341,171.771 342,181.5C 343.578,196.612 340.911,210.946 334,224.5C 332.333,222.167 330.667,219.833 329,217.5C 328.5,211.175 328.334,204.842 328.5,198.5C 331.187,198.664 333.854,198.497 336.5,198C 333,194.5 329.5,191 326,187.5C 325.5,179.507 325.334,171.507 325.5,163.5 Z"/></g>
<g><path style="opacity:1" fill="#f2f2f2" d="M 310.5,163.5 C 311.5,163.5 312.5,163.5 313.5,163.5C 313.666,171.507 313.5,179.507 313,187.5C 309.85,191.617 306.35,195.451 302.5,199C 305.482,199.498 308.482,199.665 311.5,199.5C 311.666,205.509 311.499,211.509 311,217.5C 309,220.167 307,222.833 305,225.5C 297.423,210.956 294.756,195.623 297,179.5C 298.95,171.888 303.45,166.555 310.5,163.5 Z"/></g>
<g><path style="opacity:1" fill="#efefef" d="M 374.5,289.5 C 376.948,289.01 378.615,289.843 379.5,292C 378.211,294.741 376.545,297.241 374.5,299.5C 371.976,297.81 369.976,295.643 368.5,293C 370.618,291.918 372.618,290.751 374.5,289.5 Z"/></g>
<g><path style="opacity:1" fill="#f2f2f2" d="M 267.5,291.5 C 270.688,292.967 274.021,294.134 277.5,295C 278.861,296.584 279.528,298.418 279.5,300.5C 276.5,301.167 273.5,301.833 270.5,302.5C 269.699,298.765 268.699,295.099 267.5,291.5 Z"/></g>
<g><path style="opacity:1" fill="#dcdcdc" d="M 259.5,292.5 C 264.018,297.083 263.184,299.75 257,300.5C 256.5,300.167 256,299.833 255.5,299.5C 256.861,297.15 258.194,294.816 259.5,292.5 Z"/></g>
<g><path style="opacity:1" fill="#eeeeee" d="M 358.5,295.5 C 361.022,295.128 363.022,295.961 364.5,298C 362.017,300.406 359.35,302.573 356.5,304.5C 353.61,302.957 351.943,300.624 351.5,297.5C 354.067,297.279 356.401,296.612 358.5,295.5 Z"/></g>
<g><path style="opacity:1" fill="#e4e4e4" d="M 381.5,296.5 C 382.933,298.519 384.267,300.686 385.5,303C 376.551,306.397 375.217,304.23 381.5,296.5 Z"/></g>
<g><path style="opacity:1" fill="#ececec" d="M 286.5,297.5 C 291.941,297.265 296.274,299.265 299.5,303.5C 296.72,304.973 293.887,306.307 291,307.5C 289.231,304.294 287.731,300.961 286.5,297.5 Z"/></g>
<g><path style="opacity:1" fill="#f3f3f3" d="M 336.5,299.5 C 346.585,300.518 346.918,303.018 337.5,307C 336.5,307.667 335.5,307.667 334.5,307C 332.919,305.172 331.585,303.172 330.5,301C 332.708,300.809 334.708,300.309 336.5,299.5 Z"/></g>
<g><path style="opacity:1" fill="#ececec" d="M 306.5,300.5 C 311.844,300.334 317.177,300.501 322.5,301C 323.833,302.333 323.833,303.667 322.5,305C 318.793,306.402 315.126,307.902 311.5,309.5C 309.048,306.929 307.381,303.929 306.5,300.5 Z"/></g>
<g><path style="opacity:1" fill="#dfdfdf" d="M 260.5,302.5 C 261.833,302.5 263.167,302.5 264.5,302.5C 264.421,303.93 264.754,305.264 265.5,306.5C 262.684,307.13 260.018,306.464 257.5,304.5C 258.602,303.824 259.602,303.158 260.5,302.5 Z"/></g>
<g><path style="opacity:1" fill="#eeeeee" d="M 365.5,302.5 C 367.916,303.916 369.916,305.916 371.5,308.5C 367.753,310.85 363.753,311.517 359.5,310.5C 358.674,309.549 358.508,308.549 359,307.5C 361.352,305.97 363.519,304.303 365.5,302.5 Z"/></g>
<g><path style="opacity:1" fill="#ededed" d="M 280.5,303.5 C 282.913,305.985 284.58,308.985 285.5,312.5C 282.324,313.262 279.158,312.929 276,311.5C 273.644,310.107 273.144,308.274 274.5,306C 276.723,305.434 278.723,304.6 280.5,303.5 Z"/></g>
<g><path style="opacity:1" fill="#eeeeee" d="M 346.5,306.5 C 356.214,313.271 354.714,316.271 342,315.5C 338.918,315.252 337.418,313.585 337.5,310.5C 340.645,309.426 343.645,308.093 346.5,306.5 Z"/></g>
<g><path style="opacity:1" fill="#ededed" d="M 297.5,308.5 C 299.199,308.34 300.866,308.506 302.5,309C 304.032,311.034 305.365,313.201 306.5,315.5C 302.07,316.739 297.737,316.406 293.5,314.5C 292.754,313.264 292.421,311.93 292.5,310.5C 294.553,310.598 296.22,309.931 297.5,308.5 Z"/></g>
<g><path style="opacity:1" fill="#eeeeee" d="M 322.5,308.5 C 323.873,308.343 325.207,308.51 326.5,309C 328.363,311.364 330.029,313.864 331.5,316.5C 326.167,317.833 320.833,317.833 315.5,316.5C 314.96,315.252 314.293,314.085 313.5,313C 316.613,311.583 319.613,310.083 322.5,308.5 Z"/></g>
<g><path style="opacity:1" fill="#009542" d="M -0.5,335.5 C 212.833,335.5 426.167,335.5 639.5,335.5C 639.5,383.5 639.5,431.5 639.5,479.5C 426.167,479.5 212.833,479.5 -0.5,479.5C -0.5,431.5 -0.5,383.5 -0.5,335.5 Z"/></g>
</svg>
