<?xml version="1.0" encoding="UTF-8"?>
<!DOCTYPE svg PUBLIC "-//W3C//DTD SVG 1.1//EN" "http://www.w3.org/Graphics/SVG/1.1/DTD/svg11.dtd">
<svg xmlns="http://www.w3.org/2000/svg" version="1.1" width="640px" height="480px" style="shape-rendering:geometricPrecision; text-rendering:geometricPrecision; image-rendering:optimizeQuality; fill-rule:evenodd; clip-rule:evenodd" xmlns:xlink="http://www.w3.org/1999/xlink">
<g><path style="opacity:1" fill="#000066" d="M -0.5,-0.5 C 72.1667,-0.5 144.833,-0.5 217.5,-0.5C 217.5,14.1667 217.5,28.8333 217.5,43.5C 217.5,57.8333 217.5,72.1667 217.5,86.5C 217.5,101.167 217.5,115.833 217.5,130.5C 217.5,144.833 217.5,159.167 217.5,173.5C 217.5,188.167 217.5,202.833 217.5,217.5C 144.833,217.5 72.1667,217.5 -0.5,217.5C -0.5,144.833 -0.5,72.1667 -0.5,-0.5 Z"/></g>
<g><path style="opacity:1" fill="#cc0602" d="M 217.5,-0.5 C 358.167,-0.5 498.833,-0.5 639.5,-0.5C 639.5,14.1667 639.5,28.8333 639.5,43.5C 498.833,43.5 358.167,43.5 217.5,43.5C 217.5,28.8333 217.5,14.1667 217.5,-0.5 Z"/></g>
<g><path style="opacity:1" fill="#fbfbfc" d="M 106.5,42.5 C 107.75,42.5774 108.583,43.244 109,44.5C 114.798,59.0887 120.298,73.7553 125.5,88.5C 144.836,88.3334 164.17,88.5 183.5,89C 168.301,99.0305 152.968,108.864 137.5,118.5C 143.407,134.056 149.407,149.556 155.5,165C 154.833,165.667 154.167,165.667 153.5,165C 138.732,155.198 123.566,146.032 108,137.5C 92.5164,146.576 77.1831,155.909 62,165.5C 61.3333,164.167 61.3333,162.833 62,161.5C 67.448,147.604 72.6147,133.604 77.5,119.5C 76.9904,117.912 75.9904,116.745 74.5,116C 59.9982,107.25 45.6649,98.2502 31.5,89C 50.8419,88.833 70.1753,88.333 89.5,87.5C 95.4578,72.5889 101.124,57.5889 106.5,42.5 Z"/></g>
<g><path style="opacity:1" fill="#fefefe" d="M 217.5,43.5 C 358.167,43.5 498.833,43.5 639.5,43.5C 639.5,57.8333 639.5,72.1667 639.5,86.5C 498.833,86.5 358.167,86.5 217.5,86.5C 217.5,72.1667 217.5,57.8333 217.5,43.5 Z"/></g>
<g><path style="opacity:1" fill="#cc0803" d="M 217.5,86.5 C 358.167,86.5 498.833,86.5 639.5,86.5C 639.5,101.167 639.5,115.833 639.5,130.5C 498.833,130.5 358.167,130.5 217.5,130.5C 217.5,115.833 217.5,101.167 217.5,86.5 Z"/></g>
<g><path style="opacity:1" fill="#f8ecee" d="M 217.5,130.5 C 358.167,130.5 498.833,130.5 639.5,130.5C 639.5,130.833 639.5,131.167 639.5,131.5C 499.167,131.5 358.833,131.5 218.5,131.5C 218.5,145.5 218.5,159.5 218.5,173.5C 218.167,173.5 217.833,173.5 217.5,173.5C 217.5,159.167 217.5,144.833 217.5,130.5 Z"/></g>
<g><path style="opacity:1" fill="#fefffe" d="M 639.5,131.5 C 639.5,145.5 639.5,159.5 639.5,173.5C 499.167,173.5 358.833,173.5 218.5,173.5C 218.5,159.5 218.5,145.5 218.5,131.5C 358.833,131.5 499.167,131.5 639.5,131.5 Z"/></g>
<g><path style="opacity:1" fill="#cc0502" d="M 217.5,173.5 C 217.833,173.5 218.167,173.5 218.5,173.5C 358.833,173.5 499.167,173.5 639.5,173.5C 639.5,188.167 639.5,202.833 639.5,217.5C 498.833,217.5 358.167,217.5 217.5,217.5C 217.5,202.833 217.5,188.167 217.5,173.5 Z"/></g>
<g><path style="opacity:1" fill="#fefcfc" d="M -0.5,217.5 C 72.1667,217.5 144.833,217.5 217.5,217.5C 358.167,217.5 498.833,217.5 639.5,217.5C 639.5,232.167 639.5,246.833 639.5,261.5C 426.167,261.5 212.833,261.5 -0.5,261.5C -0.5,246.833 -0.5,232.167 -0.5,217.5 Z"/></g>
<g><path style="opacity:1" fill="#cc0502" d="M -0.5,261.5 C 212.833,261.5 426.167,261.5 639.5,261.5C 639.5,276.167 639.5,290.833 639.5,305.5C 426.167,305.5 212.833,305.5 -0.5,305.5C -0.5,290.833 -0.5,276.167 -0.5,261.5 Z"/></g>
<g><path style="opacity:1" fill="#fefffe" d="M -0.5,305.5 C 212.833,305.5 426.167,305.5 639.5,305.5C 639.5,319.833 639.5,334.167 639.5,348.5C 426.167,348.5 212.833,348.5 -0.5,348.5C -0.5,334.167 -0.5,319.833 -0.5,305.5 Z"/></g>
<g><path style="opacity:1" fill="#cd0a04" d="M -0.5,348.5 C 212.833,348.5 426.167,348.5 639.5,348.5C 639.5,363.167 639.5,377.833 639.5,392.5C 426.167,392.5 212.833,392.5 -0.5,392.5C -0.5,377.833 -0.5,363.167 -0.5,348.5 Z"/></g>
<g><path style="opacity:1" fill="#fefefe" d="M -0.5,392.5 C 212.833,392.5 426.167,392.5 639.5,392.5C 639.5,406.833 639.5,421.167 639.5,435.5C 426.167,435.5 212.833,435.5 -0.5,435.5C -0.5,421.167 -0.5,406.833 -0.5,392.5 Z"/></g>
<g><path style="opacity:1" fill="#cb0000" d="M -0.5,435.5 C 212.833,435.5 426.167,435.5 639.5,435.5C 639.5,450.167 639.5,464.833 639.5,479.5C 426.167,479.5 212.833,479.5 -0.5,479.5C -0.5,464.833 -0.5,450.167 -0.5,435.5 Z"/></g>
</svg>
