<?xml version="1.0" encoding="UTF-8"?>
<!DOCTYPE svg PUBLIC "-//W3C//DTD SVG 1.1//EN" "http://www.w3.org/Graphics/SVG/1.1/DTD/svg11.dtd">
<svg xmlns="http://www.w3.org/2000/svg" version="1.1" width="640px" height="480px" style="shape-rendering:geometricPrecision; text-rendering:geometricPrecision; image-rendering:optimizeQuality; fill-rule:evenodd; clip-rule:evenodd" xmlns:xlink="http://www.w3.org/1999/xlink">
<g><path style="opacity:1" fill="#e60012" d="M -0.5,-0.5 C 212.833,-0.5 426.167,-0.5 639.5,-0.5C 639.5,39.5 639.5,79.5 639.5,119.5C 426.167,119.5 212.833,119.5 -0.5,119.5C -0.5,79.5 -0.5,39.5 -0.5,-0.5 Z"/></g>
<g><path style="opacity:1" fill="#000000" d="M -0.5,119.5 C 212.833,119.5 426.167,119.5 639.5,119.5C 639.5,199.5 639.5,279.5 639.5,359.5C 426.167,359.5 212.833,359.5 -0.5,359.5C -0.5,279.5 -0.5,199.5 -0.5,119.5 Z"/></g>
<g><path style="opacity:1" fill="#f9f9f9" d="M 309.5,179.5 C 327.923,177.588 344.256,182.422 358.5,194C 333.095,182.14 310.595,186.306 291,206.5C 275.849,228.44 275.849,250.44 291,272.5C 310.578,292.75 333.078,296.916 358.5,285C 336.515,301.917 313.182,303.917 288.5,291C 258.856,269.256 252.022,241.756 268,208.5C 278.012,193.254 291.845,183.587 309.5,179.5 Z"/></g>
<g><path style="opacity:1" fill="#f9f9f9" d="M 379.5,197.5 C 385.601,205.51 391.601,213.677 397.5,222C 408.277,219.74 418.943,217.074 429.5,214C 422.974,222.359 416.641,230.859 410.5,239.5C 416.641,248.141 422.974,256.641 429.5,265C 418.943,261.926 408.277,259.26 397.5,257C 391.544,265.079 385.711,273.245 380,281.5C 379.832,270.818 379.332,260.151 378.5,249.5C 368.751,246.315 359.085,242.982 349.5,239.5C 359.085,236.018 368.751,232.685 378.5,229.5C 379.499,218.854 379.832,208.187 379.5,197.5 Z"/></g>
<g><path style="opacity:1" fill="#239e45" d="M -0.5,359.5 C 212.833,359.5 426.167,359.5 639.5,359.5C 639.5,399.5 639.5,439.5 639.5,479.5C 426.167,479.5 212.833,479.5 -0.5,479.5C -0.5,439.5 -0.5,399.5 -0.5,359.5 Z"/></g>
</svg>
