<?xml version="1.0" encoding="UTF-8"?>
<!DOCTYPE svg PUBLIC "-//W3C//DTD SVG 1.1//EN" "http://www.w3.org/Graphics/SVG/1.1/DTD/svg11.dtd">
<svg xmlns="http://www.w3.org/2000/svg" version="1.1" width="640px" height="480px" style="shape-rendering:geometricPrecision; text-rendering:geometricPrecision; image-rendering:optimizeQuality; fill-rule:evenodd; clip-rule:evenodd" xmlns:xlink="http://www.w3.org/1999/xlink">
<g><path style="opacity:1" fill="#002a7e" d="M -0.5,-0.5 C 212.833,-0.5 426.167,-0.5 639.5,-0.5C 639.5,79.5 639.5,159.5 639.5,239.5C 426.167,239.5 212.833,239.5 -0.5,239.5C -0.5,159.5 -0.5,79.5 -0.5,-0.5 Z"/></g>
<g><path style="opacity:1" fill="#13100f" d="M 238.5,173.5 C 238.5,173.167 238.5,172.833 238.5,172.5C 243.363,161.099 248.53,149.766 254,138.5C 255.167,137.333 256.333,136.167 257.5,135C 252.446,130.682 246.779,129.515 240.5,131.5C 240.5,131.167 240.5,130.833 240.5,130.5C 241.531,129.751 242.698,129.085 244,128.5C 251.625,96.5087 239.125,83.6754 206.5,90C 199.98,92.13 193.313,93.63 186.5,94.5C 186.5,95.8333 186.5,97.1667 186.5,98.5C 194.799,96.6755 203.132,95.0088 211.5,93.5C 213.099,93.2322 214.432,93.5655 215.5,94.5C 215.167,94.5 214.833,94.5 214.5,94.5C 213.209,94.2627 212.209,94.596 211.5,95.5C 209.901,95.2322 208.568,95.5655 207.5,96.5C 206.209,96.2627 205.209,96.596 204.5,97.5C 203.833,97.5 203.5,97.8333 203.5,98.5C 202.209,98.2627 201.209,98.596 200.5,99.5C 199.833,99.5 199.5,99.8333 199.5,100.5C 198.833,100.833 198.167,101.167 197.5,101.5C 196.167,102.167 195.167,103.167 194.5,104.5C 193.508,104.328 192.842,104.662 192.5,105.5C 191.4,106.605 190.733,107.938 190.5,109.5C 189.883,109.611 189.383,109.944 189,110.5C 188.758,113.697 188.592,116.697 188.5,119.5C 186.45,111.406 185.117,103.073 184.5,94.5C 183.167,94.5 181.833,94.5 180.5,94.5C 179.833,94.5 179.167,94.5 178.5,94.5C 177.5,94.5 176.5,94.5 175.5,94.5C 173.973,94.573 172.973,93.9063 172.5,92.5C 173.322,86.7907 171.489,85.4573 167,88.5C 166.517,89.448 166.351,90.448 166.5,91.5C 166.5,92.8333 165.833,93.5 164.5,93.5C 154.144,91.1391 143.644,89.4724 133,88.5C 120.804,87.7664 112.47,93.0997 108,104.5C 106.847,112.75 107.681,120.75 110.5,128.5C 112.022,129.562 113.688,130.229 115.5,130.5C 115.5,130.833 115.5,131.167 115.5,131.5C 108.513,129.33 102.18,130.496 96.5,135C 98.7089,136.873 100.542,139.04 102,141.5C 106.24,151.645 110.74,161.645 115.5,171.5C 115.167,171.5 114.833,171.5 114.5,171.5C 109.124,161.078 103.957,150.411 99,139.5C 97.3149,137.983 95.8149,136.316 94.5,134.5C 97.0368,132.733 99.7034,131.233 102.5,130C 99.482,127.769 98.8153,124.936 100.5,121.5C 97.0773,118.58 96.744,115.413 99.5,112C 98.1059,111.044 97.4393,109.711 97.5,108C 98.0471,105.783 99.0471,103.783 100.5,102C 98.8881,99.0059 99.5547,96.8392 102.5,95.5C 103.263,94.7321 104.263,94.2321 105.5,94C 104.017,88.9735 106.017,86.8069 111.5,87.5C 112.421,81.7075 115.255,80.3742 120,83.5C 122.155,77.9917 125.155,77.325 129,81.5C 132.123,77.5664 135.29,77.5664 138.5,81.5C 141.923,78.588 144.923,78.9213 147.5,82.5C 151.9,79.3547 155.066,80.3547 157,85.5C 160.805,82.4612 163.805,83.1279 166,87.5C 167.074,86.3816 168.24,85.3816 169.5,84.5C 167.651,79.5984 168.485,75.2651 172,71.5C 172.55,68.7366 173.383,66.0699 174.5,63.5C 174.167,62.8333 173.833,62.1667 173.5,61.5C 171.999,62.7515 170.332,63.7515 168.5,64.5C 165.991,63.0787 163.657,61.4121 161.5,59.5C 163.759,57.4552 166.259,55.7885 169,54.5C 170.626,55.2887 172.126,56.2887 173.5,57.5C 174.308,57.1924 174.975,56.6924 175.5,56C 171.347,50.7506 171.847,45.9172 177,41.5C 182.153,45.9172 182.653,50.7506 178.5,56C 179.025,56.6924 179.692,57.1924 180.5,57.5C 182.001,56.2485 183.668,55.2485 185.5,54.5C 188.009,55.9213 190.343,57.5879 192.5,59.5C 190.343,61.4121 188.009,63.0787 185.5,64.5C 183.668,63.7515 182.001,62.7515 180.5,61.5C 180.167,62.1667 179.833,62.8333 179.5,63.5C 180.336,68.5434 182.502,72.8767 186,76.5C 186.725,79.3766 186.225,82.0433 184.5,84.5C 185.328,85.4147 186.328,86.0814 187.5,86.5C 190.193,83.5238 193.36,82.8571 197,84.5C 199.532,80.2388 202.698,79.5721 206.5,82.5C 209.214,79.0661 212.214,78.7327 215.5,81.5C 218.71,77.5664 221.877,77.5664 225,81.5C 228.469,77.583 231.636,77.9163 234.5,82.5C 239.178,80.8334 241.845,82.5 242.5,87.5C 247.983,86.8069 249.983,88.9735 248.5,94C 254.616,94.9451 255.949,97.9451 252.5,103C 256.295,104.064 257.461,106.564 256,110.5C 255.5,111 255,111.5 254.5,112C 257.38,115.543 257.047,118.71 253.5,121.5C 256.536,125.189 255.87,128.022 251.5,130C 254.621,130.726 257.287,132.226 259.5,134.5C 252.501,143.495 247.335,153.495 244,164.5C 242.643,167.898 240.81,170.898 238.5,173.5 Z"/></g>
<g><path style="opacity:1" fill="#d1b132" d="M 248.5,95.5 C 253.493,95.997 254.493,98.1637 251.5,102C 246.382,101.824 245.382,99.6576 248.5,95.5 Z"/></g>
<g><path style="opacity:1" fill="#dcba34" d="M 102.5,95.5 C 107.493,95.997 108.493,98.1637 105.5,102C 104.216,102.684 103.049,102.517 102,101.5C 101.322,99.4024 101.489,97.4024 102.5,95.5 Z"/></g>
<g><path style="opacity:1" fill="#2f280d" d="M 141.5,93.5 C 140.209,93.2627 139.209,93.596 138.5,94.5C 137.833,94.5 137.167,94.5 136.5,94.5C 135.833,94.5 135.167,94.5 134.5,94.5C 133.833,94.5 133.167,94.5 132.5,94.5C 131.506,104.319 131.173,114.319 131.5,124.5C 131.5,125.167 131.167,125.5 130.5,125.5C 131.142,114.779 130.475,104.446 128.5,94.5C 127.167,105.5 127.167,116.5 128.5,127.5C 128.158,128.338 127.492,128.672 126.5,128.5C 127.144,117.116 126.477,106.116 124.5,95.5C 124.5,94.8333 124.167,94.5 123.5,94.5C 127.072,93.0973 130.905,92.4307 135,92.5C 137.361,92.5039 139.527,92.8373 141.5,93.5 Z"/></g>
<g><path style="opacity:1" fill="#ecc838" d="M 243.5,88.5 C 247.35,88.7007 248.35,90.5341 246.5,94C 241.289,94.5464 240.289,92.713 243.5,88.5 Z"/></g>
<g><path style="opacity:1" fill="#ebc738" d="M 240.5,130.5 C 239.325,130.719 238.325,130.386 237.5,129.5C 241.229,121.213 242.395,112.546 241,103.5C 237.608,96.8772 232.108,93.3772 224.5,93C 219.98,92.1864 215.646,92.353 211.5,93.5C 203.132,95.0088 194.799,96.6755 186.5,98.5C 186.5,97.1667 186.5,95.8333 186.5,94.5C 193.313,93.63 199.98,92.13 206.5,90C 239.125,83.6754 251.625,96.5087 244,128.5C 242.698,129.085 241.531,129.751 240.5,130.5 Z"/></g>
<g><path style="opacity:1" fill="#bea12e" d="M 175.5,88.5 C 179.161,88.3501 180.161,89.8501 178.5,93C 174.707,93.4866 173.707,91.9866 175.5,88.5 Z"/></g>
<g><path style="opacity:1" fill="#ebc738" d="M 164.5,93.5 C 165.209,94.404 166.209,94.7373 167.5,94.5C 167.5,95.8333 167.5,97.1667 167.5,98.5C 158.895,96.5156 150.229,94.8489 141.5,93.5C 139.527,92.8373 137.361,92.5039 135,92.5C 130.905,92.4307 127.072,93.0973 123.5,94.5C 113.099,98.8018 109.599,106.468 113,117.5C 113.857,121.596 115.024,125.596 116.5,129.5C 116.376,130.107 116.043,130.44 115.5,130.5C 113.688,130.229 112.022,129.562 110.5,128.5C 107.681,120.75 106.847,112.75 108,104.5C 112.47,93.0997 120.804,87.7664 133,88.5C 143.644,89.4724 154.144,91.1391 164.5,93.5 Z"/></g>
<g><path style="opacity:1" fill="#efca39" d="M 107.5,88.5 C 111.485,88.6294 112.818,90.4628 111.5,94C 106.728,94.8104 105.395,92.9771 107.5,88.5 Z"/></g>
<g><path style="opacity:1" fill="#f4cf3a" d="M 183.5,86.5 C 186.966,87.109 187.966,88.9423 186.5,92C 181.289,92.5464 180.289,90.713 183.5,86.5 Z"/></g>
<g><path style="opacity:1" fill="#e6c337" d="M 172.5,92.5 C 170.379,92.6747 168.379,92.3414 166.5,91.5C 166.351,90.448 166.517,89.448 167,88.5C 171.489,85.4573 173.322,86.7907 172.5,92.5 Z"/></g>
<g><path style="opacity:1" fill="#efca39" d="M 191.5,84.5 C 195.485,84.6294 196.818,86.4628 195.5,90C 190.728,90.8104 189.395,88.9771 191.5,84.5 Z"/></g>
<g><path style="opacity:1" fill="#ecc738" d="M 159.5,84.5 C 163.35,84.7007 164.35,86.5341 162.5,90C 157.289,90.5464 156.289,88.713 159.5,84.5 Z"/></g>
<g><path style="opacity:1" fill="#e8c537" d="M 235.5,83.5 C 240.159,83.0146 241.492,84.848 239.5,89C 234.728,89.8104 233.395,87.9771 235.5,83.5 Z"/></g>
<g><path style="opacity:1" fill="#e9c537" d="M 114.5,83.5 C 119.159,83.0146 120.492,84.848 118.5,89C 113.728,89.8104 112.395,87.9771 114.5,83.5 Z"/></g>
<g><path style="opacity:1" fill="#eac638" d="M 200.5,82.5 C 205.159,82.0146 206.492,83.848 204.5,88C 199.728,88.8104 198.395,86.9771 200.5,82.5 Z"/></g>
<g><path style="opacity:1" fill="#e8c437" d="M 149.5,82.5 C 154.159,82.0146 155.492,83.848 153.5,88C 148.728,88.8104 147.395,86.9771 149.5,82.5 Z"/></g>
<g><path style="opacity:1" fill="#ebc738" d="M 210.5,80.5 C 215.289,82.1998 215.622,84.5332 211.5,87.5C 207.967,85.5798 207.633,83.2465 210.5,80.5 Z"/></g>
<g><path style="opacity:1" fill="#edc838" d="M 170.5,81.5 C 174.833,81.5 179.167,81.5 183.5,81.5C 183.357,85.3047 181.357,86.9714 177.5,86.5C 173.411,86.9787 171.078,85.312 170.5,81.5 Z"/></g>
<g><path style="opacity:1" fill="#dbba34" d="M 141.5,80.5 C 145.473,81.0755 146.473,83.2421 144.5,87C 139.382,86.8242 138.382,84.6576 141.5,80.5 Z"/></g>
<g><path style="opacity:1" fill="#eeca39" d="M 227.5,80.5 C 231.485,80.6294 232.818,82.4628 231.5,86C 226.728,86.8104 225.395,84.9771 227.5,80.5 Z"/></g>
<g><path style="opacity:1" fill="#f4cf3a" d="M 218.5,80.5 C 224.175,80.8597 224.842,82.8597 220.5,86.5C 217.61,85.1627 216.943,83.1627 218.5,80.5 Z"/></g>
<g><path style="opacity:1" fill="#eac638" d="M 131.5,80.5 C 136.159,80.0146 137.492,81.848 135.5,86C 131.266,86.267 129.933,84.4336 131.5,80.5 Z"/></g>
<g><path style="opacity:1" fill="#f3ce3a" d="M 123.5,80.5 C 127.35,80.7007 128.35,82.5341 126.5,86C 121.722,86.0734 120.722,84.2401 123.5,80.5 Z"/></g>
<g><path style="opacity:1" fill="#ccad31" d="M 179.5,72.5 C 184.503,74.4256 184.503,75.7589 179.5,76.5C 179.5,75.1667 179.5,73.8333 179.5,72.5 Z"/></g>
<g><path style="opacity:1" fill="#ceae31" d="M 172.5,72.5 C 174.176,73.1834 174.843,74.5168 174.5,76.5C 170.155,76.7019 169.488,75.3686 172.5,72.5 Z"/></g>
<g><path style="opacity:1" fill="#f1cc39" d="M 175.5,71.5 C 176.5,71.5 177.5,71.5 178.5,71.5C 178.5,73.5 178.5,75.5 178.5,77.5C 180.5,77.5 182.5,77.5 184.5,77.5C 184.5,78.5 184.5,79.5 184.5,80.5C 179.5,80.5 174.5,80.5 169.5,80.5C 169.5,79.5 169.5,78.5 169.5,77.5C 171.5,77.5 173.5,77.5 175.5,77.5C 175.5,75.5 175.5,73.5 175.5,71.5 Z"/></g>
<g><path style="opacity:1" fill="#eeca39" d="M 176.5,63.5 C 178.834,65.1757 179.834,67.509 179.5,70.5C 177.833,70.5 176.167,70.5 174.5,70.5C 174.878,68.079 175.545,65.7457 176.5,63.5 Z"/></g>
<g><path style="opacity:1" fill="#e7c437" d="M 184.5,56.5 C 190.527,57.8461 190.86,59.8461 185.5,62.5C 180.696,60.9515 180.363,58.9515 184.5,56.5 Z"/></g>
<g><path style="opacity:1" fill="#ebc738" d="M 175.5,57.5 C 178.166,57.0658 179.333,58.0658 179,60.5C 175.403,62.0661 174.237,61.0661 175.5,57.5 Z"/></g>
<g><path style="opacity:1" fill="#eac638" d="M 167.5,56.5 C 172.041,56.8152 173.041,58.6485 170.5,62C 168.064,62.4363 166.064,61.603 164.5,59.5C 165.77,58.7124 166.77,57.7124 167.5,56.5 Z"/></g>
<g><path style="opacity:1" fill="#e8c537" d="M 176.5,44.5 C 181.575,47.7786 181.742,51.4452 177,55.5C 174.002,51.8886 173.835,48.222 176.5,44.5 Z"/></g>
<g><path style="opacity:1" fill="#edc938" d="M 100.5,104.5 C 104.35,104.701 105.35,106.534 103.5,110C 98.2894,110.546 97.2894,108.713 100.5,104.5 Z"/></g>
<g><path style="opacity:1" fill="#e9c638" d="M 250.5,104.5 C 255.159,104.015 256.492,105.848 254.5,110C 249.728,110.81 248.395,108.977 250.5,104.5 Z"/></g>
<g><path style="opacity:1" fill="#f4cf3a" d="M 100.5,113.5 C 104.35,113.701 105.35,115.534 103.5,119C 98.7217,119.073 97.7217,117.24 100.5,113.5 Z"/></g>
<g><path style="opacity:1" fill="#e8c437" d="M 250.5,113.5 C 255.159,113.015 256.492,114.848 254.5,119C 249.728,119.81 248.395,117.977 250.5,113.5 Z"/></g>
<g><path style="opacity:1" fill="#171306" d="M 166.5,91.5 C 168.379,92.3414 170.379,92.6747 172.5,92.5C 172.973,93.9063 173.973,94.573 175.5,94.5C 173.889,96.8334 174.389,98.5001 177,99.5C 179.611,98.5001 180.111,96.8334 178.5,94.5C 179.167,94.5 179.833,94.5 180.5,94.5C 181.866,104.125 182.866,113.792 183.5,123.5C 185.484,123.383 187.15,124.05 188.5,125.5C 188.92,123.674 188.92,121.674 188.5,119.5C 188.592,116.697 188.758,113.697 189,110.5C 189.383,109.944 189.883,109.611 190.5,109.5C 190.334,113.846 190.501,118.179 191,122.5C 191.419,123.672 192.085,124.672 193,125.5C 193.821,118.654 193.654,111.987 192.5,105.5C 192.842,104.662 193.508,104.328 194.5,104.5C 194.5,111.833 194.5,119.167 194.5,126.5C 195.5,126.5 196.5,126.5 197.5,126.5C 198.167,126.5 198.833,126.5 199.5,126.5C 200.492,126.672 201.158,126.338 201.5,125.5C 202.167,125.5 202.833,125.5 203.5,125.5C 204.167,125.5 204.833,125.5 205.5,125.5C 206.167,125.167 206.833,124.833 207.5,124.5C 208.167,124.5 208.833,124.5 209.5,124.5C 210.167,124.167 210.833,123.833 211.5,123.5C 212.167,123.5 212.833,123.5 213.5,123.5C 214.494,114.014 214.827,104.348 214.5,94.5C 214.833,94.5 215.167,94.5 215.5,94.5C 214.432,93.5655 213.099,93.2322 211.5,93.5C 215.646,92.353 219.98,92.1864 224.5,93C 232.108,93.3772 237.608,96.8772 241,103.5C 242.395,112.546 241.229,121.213 237.5,129.5C 238.325,130.386 239.325,130.719 240.5,130.5C 240.5,130.833 240.5,131.167 240.5,131.5C 234.846,133.656 231.012,137.656 229,143.5C 229.018,136.546 226.518,130.712 221.5,126C 216.463,123.839 211.796,124.506 207.5,128C 203.29,132.042 199.29,136.208 195.5,140.5C 194.91,132.085 190.577,126.918 182.5,125C 168.449,121.85 160.449,127.35 158.5,141.5C 153.927,134.426 147.927,128.926 140.5,125C 135.655,123.837 131.821,125.337 129,129.5C 126.451,133.815 125.118,138.481 125,143.5C 123.08,138.424 119.914,134.424 115.5,131.5C 115.5,131.167 115.5,130.833 115.5,130.5C 116.043,130.44 116.376,130.107 116.5,129.5C 115.024,125.596 113.857,121.596 113,117.5C 109.599,106.468 113.099,98.8018 123.5,94.5C 124.167,94.5 124.5,94.8333 124.5,95.5C 123.176,107.007 123.176,118.673 124.5,130.5C 125.107,130.376 125.44,130.043 125.5,129.5C 126.167,129.5 126.5,129.167 126.5,128.5C 127.492,128.672 128.158,128.338 128.5,127.5C 129.167,127.5 129.5,127.167 129.5,126.5C 130.167,126.5 130.5,126.167 130.5,125.5C 131.167,125.5 131.5,125.167 131.5,124.5C 132.492,124.672 133.158,124.338 133.5,123.5C 133.833,123.5 134.167,123.5 134.5,123.5C 136.5,123.5 138.5,123.5 140.5,123.5C 141.167,123.5 141.833,123.5 142.5,123.5C 142.842,124.338 143.508,124.672 144.5,124.5C 145.167,124.5 145.833,124.5 146.5,124.5C 146.842,125.338 147.508,125.672 148.5,125.5C 149.5,125.5 150.5,125.5 151.5,125.5C 151.666,116.494 151.5,107.494 151,98.5C 150.617,97.944 150.117,97.6107 149.5,97.5C 148.791,96.596 147.791,96.2627 146.5,96.5C 146.158,95.6618 145.492,95.3284 144.5,95.5C 143.833,95.5 143.167,95.5 142.5,95.5C 142.158,94.6618 141.492,94.3284 140.5,94.5C 139.833,94.5 139.167,94.5 138.5,94.5C 139.209,93.596 140.209,93.2627 141.5,93.5C 150.229,94.8489 158.895,96.5156 167.5,98.5C 167.5,97.1667 167.5,95.8333 167.5,94.5C 166.209,94.7373 165.209,94.404 164.5,93.5C 165.833,93.5 166.5,92.8333 166.5,91.5 Z"/></g>
<g><path style="opacity:1" fill="#f4cf3a" d="M 175.5,115.5 C 180.493,115.997 181.493,118.164 178.5,122C 173.382,121.824 172.382,119.658 175.5,115.5 Z"/></g>
<g><path style="opacity:1" fill="#d4b433" d="M 175.5,107.5 C 180.493,107.997 181.493,110.164 178.5,114C 173.382,113.824 172.382,111.658 175.5,107.5 Z"/></g>
<g><path style="opacity:1" fill="#e2bf36" d="M 192.5,105.5 C 193.654,111.987 193.821,118.654 193,125.5C 192.085,124.672 191.419,123.672 191,122.5C 190.501,118.179 190.334,113.846 190.5,109.5C 190.733,107.938 191.4,106.605 192.5,105.5 Z"/></g>
<g><path style="opacity:1" fill="#eac738" d="M 160.5,104.5 C 161.79,105.058 162.623,106.058 163,107.5C 163.667,112.833 163.667,118.167 163,123.5C 162.333,124.167 161.667,124.833 161,125.5C 160.5,118.508 160.334,111.508 160.5,104.5 Z"/></g>
<g><path style="opacity:1" fill="#e3c036" d="M 197.5,101.5 C 197.5,109.833 197.5,118.167 197.5,126.5C 196.5,126.5 195.5,126.5 194.5,126.5C 194.5,119.167 194.5,111.833 194.5,104.5C 195.167,103.167 196.167,102.167 197.5,101.5 Z"/></g>
<g><path style="opacity:1" fill="#efca39" d="M 156.5,101.5 C 157.15,101.804 157.817,102.137 158.5,102.5C 159.498,110.472 159.831,118.472 159.5,126.5C 158.5,126.5 157.5,126.5 156.5,126.5C 156.5,118.167 156.5,109.833 156.5,101.5 Z"/></g>
<g><path style="opacity:1" fill="#695919" d="M 199.5,100.5 C 199.5,109.167 199.5,117.833 199.5,126.5C 198.833,126.5 198.167,126.5 197.5,126.5C 197.5,118.167 197.5,109.833 197.5,101.5C 198.167,101.167 198.833,100.833 199.5,100.5 Z"/></g>
<g><path style="opacity:1" fill="#e9c638" d="M 175.5,101.5 C 176.833,101.5 178.167,101.5 179.5,101.5C 179.99,103.948 179.157,105.615 177,106.5C 174.389,105.5 173.889,103.833 175.5,101.5 Z"/></g>
<g><path style="opacity:1" fill="#fbd53c" d="M 237.5,100.5 C 238.807,109.137 238.807,117.803 237.5,126.5C 236.167,117.833 236.167,109.167 237.5,100.5 Z"/></g>
<g><path style="opacity:1" fill="#f0cb39" d="M 117.5,99.5 C 118.658,108.991 118.825,118.658 118,128.5C 115.991,123.39 115.157,118.057 115.5,112.5C 115.667,108.833 115.833,105.167 116,101.5C 116.717,100.956 117.217,100.289 117.5,99.5 Z"/></g>
<g><path style="opacity:1" fill="#c1a42e" d="M 237.5,100.5 C 236.167,109.167 236.167,117.833 237.5,126.5C 237.013,127.473 236.513,128.473 236,129.5C 235.333,119.167 235.333,108.833 236,98.5C 236.717,99.0442 237.217,99.7109 237.5,100.5 Z"/></g>
<g><path style="opacity:1" fill="#615317" d="M 200.5,99.5 C 201.209,98.596 202.209,98.2627 203.5,98.5C 203.5,107.5 203.5,116.5 203.5,125.5C 202.833,125.5 202.167,125.5 201.5,125.5C 201.826,116.651 201.493,107.984 200.5,99.5 Z"/></g>
<g><path style="opacity:1" fill="#fcd53c" d="M 200.5,99.5 C 201.493,107.984 201.826,116.651 201.5,125.5C 201.158,126.338 200.492,126.672 199.5,126.5C 199.5,117.833 199.5,109.167 199.5,100.5C 199.5,99.8333 199.833,99.5 200.5,99.5 Z"/></g>
<g><path style="opacity:1" fill="#e5c237" d="M 152.5,99.5 C 153.496,99.4142 154.329,99.7476 155,100.5C 155.5,109.16 155.666,117.827 155.5,126.5C 154.5,126.5 153.5,126.5 152.5,126.5C 152.5,117.5 152.5,108.5 152.5,99.5 Z"/></g>
<g><path style="opacity:1" fill="#f8d23b" d="M 231.5,96.5 C 232.496,96.4142 233.329,96.7476 234,97.5C 234.5,108.828 234.667,120.162 234.5,131.5C 233.5,131.5 232.5,131.5 231.5,131.5C 231.5,119.833 231.5,108.167 231.5,96.5 Z"/></g>
<g><path style="opacity:1" fill="#675818" d="M 204.5,97.5 C 205.209,96.596 206.209,96.2627 207.5,96.5C 207.5,105.833 207.5,115.167 207.5,124.5C 206.833,124.833 206.167,125.167 205.5,125.5C 205.827,115.985 205.494,106.652 204.5,97.5 Z"/></g>
<g><path style="opacity:1" fill="#fdd63c" d="M 204.5,97.5 C 205.494,106.652 205.827,115.985 205.5,125.5C 204.833,125.5 204.167,125.5 203.5,125.5C 203.5,116.5 203.5,107.5 203.5,98.5C 203.5,97.8333 203.833,97.5 204.5,97.5 Z"/></g>
<g><path style="opacity:1" fill="#e6c337" d="M 149.5,97.5 C 150.117,97.6107 150.617,97.944 151,98.5C 151.5,107.494 151.666,116.494 151.5,125.5C 150.5,125.5 149.5,125.5 148.5,125.5C 148.173,115.985 148.506,106.652 149.5,97.5 Z"/></g>
<g><path style="opacity:1" fill="#554815" d="M 146.5,96.5 C 147.791,96.2627 148.791,96.596 149.5,97.5C 148.506,106.652 148.173,115.985 148.5,125.5C 147.508,125.672 146.842,125.338 146.5,124.5C 146.5,115.167 146.5,105.833 146.5,96.5 Z"/></g>
<g><path style="opacity:1" fill="#eeca39" d="M 120.5,96.5 C 121.829,101.96 122.496,107.793 122.5,114C 122.167,119.833 121.833,125.667 121.5,131.5C 120.914,131.291 120.414,130.957 120,130.5C 119.19,119.091 119.357,107.757 120.5,96.5 Z"/></g>
<g><path style="opacity:1" fill="#fed73c" d="M 207.5,96.5 C 209.472,105.44 210.139,114.773 209.5,124.5C 208.833,124.5 208.167,124.5 207.5,124.5C 207.5,115.167 207.5,105.833 207.5,96.5 Z"/></g>
<g><path style="opacity:1" fill="#fbd43c" d="M 144.5,95.5 C 145.492,95.3284 146.158,95.6618 146.5,96.5C 146.5,105.833 146.5,115.167 146.5,124.5C 145.833,124.5 145.167,124.5 144.5,124.5C 144.5,114.833 144.5,105.167 144.5,95.5 Z"/></g>
<g><path style="opacity:1" fill="#a18826" d="M 124.5,95.5 C 124.172,107.012 124.505,118.346 125.5,129.5C 125.44,130.043 125.107,130.376 124.5,130.5C 123.176,118.673 123.176,107.007 124.5,95.5 Z"/></g>
<g><path style="opacity:1" fill="#f0cc39" d="M 227.5,95.5 C 228.5,95.5 229.5,95.5 230.5,95.5C 230.832,107.186 230.499,118.852 229.5,130.5C 228.914,130.291 228.414,129.957 228,129.5C 227.5,118.172 227.333,106.838 227.5,95.5 Z"/></g>
<g><path style="opacity:1" fill="#fed73c" d="M 211.5,95.5 C 213.472,104.44 214.139,113.773 213.5,123.5C 212.833,123.5 212.167,123.5 211.5,123.5C 211.5,114.167 211.5,104.833 211.5,95.5 Z"/></g>
<g><path style="opacity:1" fill="#705f1b" d="M 207.5,96.5 C 208.568,95.5655 209.901,95.2322 211.5,95.5C 211.5,104.833 211.5,114.167 211.5,123.5C 210.833,123.833 210.167,124.167 209.5,124.5C 210.139,114.773 209.472,105.44 207.5,96.5 Z"/></g>
<g><path style="opacity:1" fill="#e2bf36" d="M 180.5,94.5 C 181.833,94.5 183.167,94.5 184.5,94.5C 185.117,103.073 186.45,111.406 188.5,119.5C 188.92,121.674 188.92,123.674 188.5,125.5C 187.15,124.05 185.484,123.383 183.5,123.5C 182.866,113.792 181.866,104.125 180.5,94.5 Z"/></g>
<g><path style="opacity:1" fill="#d6b533" d="M 175.5,94.5 C 176.5,94.5 177.5,94.5 178.5,94.5C 180.111,96.8334 179.611,98.5001 177,99.5C 174.389,98.5001 173.889,96.8334 175.5,94.5 Z"/></g>
<g><path style="opacity:1" fill="#e7c437" d="M 169.5,94.5 C 172.272,94.6273 173.605,96.1273 173.5,99C 172.17,107.135 171.17,115.302 170.5,123.5C 168.516,123.383 166.85,124.05 165.5,125.5C 165.167,125.167 164.833,124.833 164.5,124.5C 167.634,114.774 169.3,104.774 169.5,94.5 Z"/></g>
<g><path style="opacity:1" fill="#5d4e16" d="M 142.5,95.5 C 143.167,95.5 143.833,95.5 144.5,95.5C 144.5,105.167 144.5,114.833 144.5,124.5C 143.508,124.672 142.842,124.338 142.5,123.5C 142.5,114.167 142.5,104.833 142.5,95.5 Z"/></g>
<g><path style="opacity:1" fill="#fcd53c" d="M 140.5,94.5 C 141.492,94.3284 142.158,94.6618 142.5,95.5C 142.5,104.833 142.5,114.167 142.5,123.5C 141.833,123.5 141.167,123.5 140.5,123.5C 140.5,113.833 140.5,104.167 140.5,94.5 Z"/></g>
<g><path style="opacity:1" fill="#a08726" d="M 128.5,94.5 C 128.172,105.346 128.506,116.013 129.5,126.5C 129.5,127.167 129.167,127.5 128.5,127.5C 127.167,116.5 127.167,105.5 128.5,94.5 Z"/></g>
<g><path style="opacity:1" fill="#fed73c" d="M 124.5,95.5 C 126.477,106.116 127.144,117.116 126.5,128.5C 126.5,129.167 126.167,129.5 125.5,129.5C 124.505,118.346 124.172,107.012 124.5,95.5 Z"/></g>
<g><path style="opacity:1" fill="#f2cd3a" d="M 223.5,94.5 C 224.5,94.5 225.5,94.5 226.5,94.5C 226.667,105.505 226.5,116.505 226,127.5C 225.586,127.043 225.086,126.709 224.5,126.5C 223.501,115.854 223.168,105.187 223.5,94.5 Z"/></g>
<g><path style="opacity:1" fill="#bfa12d" d="M 221.5,94.5 C 222.823,104.341 222.823,114.341 221.5,124.5C 220.893,124.376 220.56,124.043 220.5,123.5C 221.494,114.014 221.827,104.348 221.5,94.5 Z"/></g>
<g><path style="opacity:1" fill="#fed73c" d="M 221.5,94.5 C 221.827,104.348 221.494,114.014 220.5,123.5C 219.834,118.845 219.501,114.012 219.5,109C 219.506,103.784 220.173,98.951 221.5,94.5 Z"/></g>
<g><path style="opacity:1" fill="#a98f28" d="M 217.5,94.5 C 218.494,103.986 218.827,113.652 218.5,123.5C 217.209,123.737 216.209,123.404 215.5,122.5C 217.472,113.56 218.139,104.227 217.5,94.5 Z"/></g>
<g><path style="opacity:1" fill="#fed83c" d="M 215.5,94.5 C 216.167,94.5 216.833,94.5 217.5,94.5C 218.139,104.227 217.472,113.56 215.5,122.5C 215.5,113.167 215.5,103.833 215.5,94.5 Z"/></g>
<g><path style="opacity:1" fill="#978024" d="M 211.5,95.5 C 212.209,94.596 213.209,94.2627 214.5,94.5C 214.827,104.348 214.494,114.014 213.5,123.5C 214.139,113.773 213.472,104.44 211.5,95.5 Z"/></g>
<g><path style="opacity:1" fill="#655518" d="M 134.5,94.5 C 135.167,94.5 135.833,94.5 136.5,94.5C 137.167,131.833 137.833,131.833 138.5,94.5C 139.167,94.5 139.833,94.5 140.5,94.5C 140.5,104.167 140.5,113.833 140.5,123.5C 138.5,123.5 136.5,123.5 134.5,123.5C 134.5,113.833 134.5,104.167 134.5,94.5 Z"/></g>
<g><path style="opacity:1" fill="#fed83c" d="M 136.5,94.5 C 137.167,94.5 137.833,94.5 138.5,94.5C 137.833,131.833 137.167,131.833 136.5,94.5 Z"/></g>
<g><path style="opacity:1" fill="#fed73c" d="M 132.5,94.5 C 133.167,94.5 133.833,94.5 134.5,94.5C 134.5,104.167 134.5,113.833 134.5,123.5C 134.167,123.5 133.833,123.5 133.5,123.5C 132.506,114.014 132.173,104.348 132.5,94.5 Z"/></g>
<g><path style="opacity:1" fill="#8d7721" d="M 132.5,94.5 C 132.173,104.348 132.506,114.014 133.5,123.5C 133.158,124.338 132.492,124.672 131.5,124.5C 131.173,114.319 131.506,104.319 132.5,94.5 Z"/></g>
<g><path style="opacity:1" fill="#fdd63c" d="M 128.5,94.5 C 130.475,104.446 131.142,114.779 130.5,125.5C 130.5,126.167 130.167,126.5 129.5,126.5C 128.506,116.013 128.172,105.346 128.5,94.5 Z"/></g>
<g><path style="opacity:1" fill="#efca39" d="M 101.5,122.5 C 106.159,122.015 107.492,123.848 105.5,128C 101.266,128.267 99.9329,126.434 101.5,122.5 Z"/></g>
<g><path style="opacity:1" fill="#e6c337" d="M 248.5,122.5 C 253.159,122.015 254.492,123.848 252.5,128C 247.728,128.81 246.395,126.977 248.5,122.5 Z"/></g>
<g><path style="opacity:1" fill="#f3ce3a" d="M 240.5,131.5 C 246.779,129.515 252.446,130.682 257.5,135C 256.333,136.167 255.167,137.333 254,138.5C 248.53,149.766 243.363,161.099 238.5,172.5C 237.527,173.791 236.527,173.791 235.5,172.5C 235.002,171.397 234.669,170.397 234.5,169.5C 232.736,172.177 231.57,171.844 231,168.5C 229.582,171.001 228.582,170.668 228,167.5C 226.582,170.001 225.582,169.668 225,166.5C 224.221,167.728 223.221,168.728 222,169.5C 220.032,168.643 218.032,167.643 216,166.5C 215.29,167.973 214.124,168.64 212.5,168.5C 212.649,167.448 212.483,166.448 212,165.5C 210.447,169.299 209.114,169.299 208,165.5C 207.29,166.973 206.124,167.64 204.5,167.5C 204.167,163.5 203.833,163.5 203.5,167.5C 202.5,167.5 201.5,167.5 200.5,167.5C 200.167,163.5 199.833,163.5 199.5,167.5C 198.5,167.5 197.5,167.5 196.5,167.5C 196.167,163.5 195.833,163.5 195.5,167.5C 194.5,167.5 193.5,167.5 192.5,167.5C 192.167,163.5 191.833,163.5 191.5,167.5C 190.5,167.5 189.5,167.5 188.5,167.5C 188.167,163.5 187.833,163.5 187.5,167.5C 186.167,167.5 184.833,167.5 183.5,167.5C 183.167,162.167 182.833,162.167 182.5,167.5C 180.833,167.5 179.167,167.5 177.5,167.5C 177.167,162.167 176.833,162.167 176.5,167.5C 174.833,167.5 173.167,167.5 171.5,167.5C 171.167,162.167 170.833,162.167 170.5,167.5C 167.833,167.5 165.167,167.5 162.5,167.5C 162.167,163.5 161.833,163.5 161.5,167.5C 159.167,167.5 156.833,167.5 154.5,167.5C 154.167,163.5 153.833,163.5 153.5,167.5C 151.926,167.063 150.759,166.063 150,164.5C 149.43,167.844 148.264,168.177 146.5,165.5C 145.614,166.325 145.281,167.325 145.5,168.5C 144.141,167.993 143.141,166.993 142.5,165.5C 141.614,166.325 141.281,167.325 141.5,168.5C 139.876,168.64 138.71,167.973 138,166.5C 135.968,167.643 133.968,168.643 132,169.5C 131.055,169.095 130.388,168.428 130,167.5C 127.809,170.482 125.476,170.815 123,168.5C 122.418,171.668 121.418,172.001 120,169.5C 119.585,171.291 118.585,172.624 117,173.5C 116.283,172.956 115.783,172.289 115.5,171.5C 110.74,161.645 106.24,151.645 102,141.5C 100.542,139.04 98.7089,136.873 96.5,135C 102.18,130.496 108.513,129.33 115.5,131.5C 119.914,134.424 123.08,138.424 125,143.5C 125.118,138.481 126.451,133.815 129,129.5C 131.821,125.337 135.655,123.837 140.5,125C 147.927,128.926 153.927,134.426 158.5,141.5C 160.449,127.35 168.449,121.85 182.5,125C 190.577,126.918 194.91,132.085 195.5,140.5C 199.29,136.208 203.29,132.042 207.5,128C 211.796,124.506 216.463,123.839 221.5,126C 226.518,130.712 229.018,136.546 229,143.5C 231.012,137.656 234.846,133.656 240.5,131.5 Z"/></g>
<g><path style="opacity:1" fill="#5c4d16" d="M 171.5,127.5 C 172.586,127.62 173.253,128.287 173.5,129.5C 173.167,130.167 172.833,130.833 172.5,131.5C 171.571,130.311 171.238,128.978 171.5,127.5 Z"/></g>
<g><path style="opacity:1" fill="#413711" d="M 174.5,127.5 C 175.586,127.62 176.253,128.287 176.5,129.5C 176.167,130.167 175.833,130.833 175.5,131.5C 174.571,130.311 174.238,128.978 174.5,127.5 Z"/></g>
<g><path style="opacity:1" fill="#514514" d="M 177.5,127.5 C 178.586,127.62 179.253,128.287 179.5,129.5C 179.167,130.167 178.833,130.833 178.5,131.5C 177.571,130.311 177.238,128.978 177.5,127.5 Z"/></g>
<g><path style="opacity:1" fill="#605217" d="M 180.5,127.5 C 181.586,127.62 182.253,128.287 182.5,129.5C 182.167,130.167 181.833,130.833 181.5,131.5C 180.571,130.311 180.238,128.978 180.5,127.5 Z"/></g>
<g><path style="opacity:1" fill="#5d4f18" d="M 140.5,129.5 C 142.344,130.204 142.844,131.537 142,133.5C 141.209,132.255 140.709,130.922 140.5,129.5 Z"/></g>
<g><path style="opacity:1" fill="#483d12" d="M 212.5,129.5 C 213.465,130.721 213.298,132.054 212,133.5C 211.421,132.072 211.588,130.738 212.5,129.5 Z"/></g>
<g><path style="opacity:1" fill="#4b3f14" d="M 215.5,129.5 C 216.797,130.849 216.63,132.182 215,133.5C 214.805,132.181 214.972,130.847 215.5,129.5 Z"/></g>
<g><path style="opacity:1" fill="#65561b" d="M 134.5,130.5 C 136.273,131.314 136.773,132.648 136,134.5C 134.812,133.437 134.312,132.103 134.5,130.5 Z"/></g>
<g><path style="opacity:1" fill="#413713" d="M 144.5,129.5 C 146.099,130.799 146.599,132.465 146,134.5C 144.731,133.095 144.231,131.429 144.5,129.5 Z"/></g>
<g><path style="opacity:1" fill="#504416" d="M 208.5,130.5 C 209.797,131.849 209.63,133.182 208,134.5C 207.421,133.072 207.588,131.738 208.5,130.5 Z"/></g>
<g><path style="opacity:1" fill="#4e4216" d="M 218.5,130.5 C 219.776,131.386 219.776,132.386 218.5,133.5C 217.913,132.767 217.913,131.767 218.5,130.5 Z"/></g>
<g><path style="opacity:1" fill="#493e14" d="M 131.5,132.5 C 133.416,133.665 134.249,135.332 134,137.5C 132.628,136.09 131.795,134.423 131.5,132.5 Z"/></g>
<g><path style="opacity:1" fill="#433913" d="M 187.5,132.5 C 188.376,132.369 189.043,132.702 189.5,133.5C 187.993,137.355 187.326,137.021 187.5,132.5 Z"/></g>
<g><path style="opacity:1" fill="#3f3512" d="M 221.5,132.5 C 222.522,133.892 222.189,135.225 220.5,136.5C 220.167,136.333 219.833,136.167 219.5,136C 220.305,134.887 220.972,133.721 221.5,132.5 Z"/></g>
<g><path style="opacity:1" fill="#564916" d="M 148.5,132.5 C 150.273,133.314 150.773,134.648 150,136.5C 148.812,135.437 148.312,134.103 148.5,132.5 Z"/></g>
<g><path style="opacity:1" fill="#0b0902" d="M 176.5,133.5 C 177.269,135.667 178.269,137.834 179.5,140C 181.464,140.624 183.131,140.124 184.5,138.5C 184.833,138.833 185.167,139.167 185.5,139.5C 180.21,145.085 177.376,151.752 177,159.5C 176.628,151.76 173.795,145.093 168.5,139.5C 168.833,139.167 169.167,138.833 169.5,138.5C 174.586,141.458 176.919,139.792 176.5,133.5 Z"/></g>
<g><path style="opacity:1" fill="#584b17" d="M 204.5,132.5 C 205.797,133.849 205.63,135.182 204,136.5C 203.805,135.181 203.972,133.847 204.5,132.5 Z"/></g>
<g><path style="opacity:1" fill="#2f280f" d="M 102.5,137.5 C 103.497,136.287 104.497,136.454 105.5,138C 104.423,138.47 103.423,138.303 102.5,137.5 Z"/></g>
<g><path style="opacity:1" fill="#3a3211" d="M 106.5,135.5 C 108.085,136.002 108.585,137.002 108,138.5C 106.961,137.756 106.461,136.756 106.5,135.5 Z"/></g>
<g><path style="opacity:1" fill="#453b12" d="M 129.5,135.5 C 131.085,136.002 131.585,137.002 131,138.5C 129.961,137.756 129.461,136.756 129.5,135.5 Z"/></g>
<g><path style="opacity:1" fill="#493f15" d="M 223.5,135.5 C 224.334,137.263 223.834,138.93 222,140.5C 221.878,138.718 222.378,137.052 223.5,135.5 Z"/></g>
<g><path style="opacity:1" fill="#594b18" d="M 189.5,136.5 C 190.376,136.369 191.043,136.702 191.5,137.5C 189.993,141.355 189.326,141.021 189.5,136.5 Z"/></g>
<g><path style="opacity:1" fill="#2a230b" d="M 246.5,135.5 C 247.713,136.497 247.546,137.497 246,138.5C 245.53,137.423 245.697,136.423 246.5,135.5 Z"/></g>
<g><path style="opacity:1" fill="#382f10" d="M 249.5,136.5 C 251.975,136.747 251.975,137.413 249.5,138.5C 248.537,138.03 248.537,137.363 249.5,136.5 Z"/></g>
<g><path style="opacity:1" fill="#383012" d="M 110.5,136.5 C 112.026,137.105 113.026,138.271 113.5,140C 111.522,139.967 110.522,138.8 110.5,136.5 Z"/></g>
<g><path style="opacity:1" fill="#453b12" d="M 114.5,137.5 C 116.344,138.204 116.844,139.537 116,141.5C 115.209,140.255 114.709,138.922 114.5,137.5 Z"/></g>
<g><path style="opacity:1" fill="#625318" d="M 237.5,137.5 C 239.97,138.36 240.137,139.694 238,141.5C 237.51,140.207 237.343,138.873 237.5,137.5 Z"/></g>
<g><path style="opacity:1" fill="#141005" d="M 139.5,136.5 C 140.918,138.187 142.251,140.02 143.5,142C 144.738,141.923 145.738,142.089 146.5,142.5C 145.597,147.809 145.431,153.142 146,158.5C 144.462,152.588 141.295,147.755 136.5,144C 137.549,143.508 138.549,143.674 139.5,144.5C 140.614,141.844 140.614,139.177 139.5,136.5 Z"/></g>
<g><path style="opacity:1" fill="#151106" d="M 213.5,136.5 C 213.986,138.952 213.986,141.618 213.5,144.5C 214.552,144.351 215.552,144.517 216.5,145C 212.449,148.721 209.616,153.221 208,158.5C 207.833,157.667 207.667,156.833 207.5,156C 208.738,151.474 208.738,146.974 207.5,142.5C 210.868,142.476 212.868,140.476 213.5,136.5 Z"/></g>
<g><path style="opacity:1" fill="#393110" d="M 241.5,136.5 C 242.376,136.369 243.043,136.702 243.5,137.5C 241.993,141.355 241.326,141.021 241.5,136.5 Z"/></g>
<g><path style="opacity:1" fill="#312910" d="M 128.5,141.5 C 129.077,140.227 129.743,140.227 130.5,141.5C 130.03,142.463 129.363,142.463 128.5,141.5 Z"/></g>
<g><path style="opacity:1" fill="#473c11" d="M 234.5,139.5 C 236.646,139.696 236.812,140.696 235,142.5C 234.517,141.552 234.351,140.552 234.5,139.5 Z"/></g>
<g><path style="opacity:1" fill="#5f5119" d="M 224.5,140.5 C 225.559,142.07 225.059,143.403 223,144.5C 222.7,142.934 223.2,141.601 224.5,140.5 Z"/></g>
<g><path style="opacity:1" fill="#1a1608" d="M 240.5,143.5 C 241.043,143.56 241.376,143.893 241.5,144.5C 239.844,146.412 239.511,148.412 240.5,150.5C 241.768,149.572 243.101,149.405 244.5,150C 240.033,153.465 235.867,157.298 232,161.5C 232.353,158.9 232.853,156.233 233.5,153.5C 232.828,151.168 232.661,148.834 233,146.5C 233.483,147.448 233.649,148.448 233.5,149.5C 236.387,148.29 238.72,146.29 240.5,143.5 Z"/></g>
<g><path style="opacity:1" fill="#1c1709" d="M 112.5,143.5 C 114.814,145.477 117.147,147.477 119.5,149.5C 120.192,148.975 120.692,148.308 121,147.5C 121.451,152.239 121.785,156.905 122,161.5C 118.77,156.637 114.604,152.804 109.5,150C 110.899,149.405 112.232,149.572 113.5,150.5C 113.833,149.833 114.167,149.167 114.5,148.5C 113.813,146.823 113.146,145.156 112.5,143.5 Z"/></g>
<g><path style="opacity:1" fill="#040302" d="M 238.5,172.5 C 238.5,172.833 238.5,173.167 238.5,173.5C 238.489,175.017 237.823,176.184 236.5,177C 228.042,179.855 219.375,181.855 210.5,183C 182.009,185.846 153.676,184.846 125.5,180C 120.167,179.151 116.501,176.318 114.5,171.5C 114.833,171.5 115.167,171.5 115.5,171.5C 115.783,172.289 116.283,172.956 117,173.5C 118.585,172.624 119.585,171.291 120,169.5C 121.418,172.001 122.418,171.668 123,168.5C 125.476,170.815 127.809,170.482 130,167.5C 130.388,168.428 131.055,169.095 132,169.5C 133.968,168.643 135.968,167.643 138,166.5C 138.71,167.973 139.876,168.64 141.5,168.5C 141.281,167.325 141.614,166.325 142.5,165.5C 143.141,166.993 144.141,167.993 145.5,168.5C 148.385,168.806 151.052,168.473 153.5,167.5C 153.833,163.5 154.167,163.5 154.5,167.5C 156.833,167.5 159.167,167.5 161.5,167.5C 161.833,163.5 162.167,163.5 162.5,167.5C 165.167,167.5 167.833,167.5 170.5,167.5C 170.833,162.167 171.167,162.167 171.5,167.5C 173.167,167.5 174.833,167.5 176.5,167.5C 176.833,162.167 177.167,162.167 177.5,167.5C 179.167,167.5 180.833,167.5 182.5,167.5C 182.833,162.167 183.167,162.167 183.5,167.5C 184.833,167.5 186.167,167.5 187.5,167.5C 187.833,163.5 188.167,163.5 188.5,167.5C 189.5,167.5 190.5,167.5 191.5,167.5C 191.833,163.5 192.167,163.5 192.5,167.5C 193.5,167.5 194.5,167.5 195.5,167.5C 195.833,163.5 196.167,163.5 196.5,167.5C 197.5,167.5 198.5,167.5 199.5,167.5C 199.833,163.5 200.167,163.5 200.5,167.5C 201.5,167.5 202.5,167.5 203.5,167.5C 203.833,163.5 204.167,163.5 204.5,167.5C 206.124,167.64 207.29,166.973 208,165.5C 209.114,169.299 210.447,169.299 212,165.5C 212.483,166.448 212.649,167.448 212.5,168.5C 214.124,168.64 215.29,167.973 216,166.5C 218.032,167.643 220.032,168.643 222,169.5C 223.221,168.728 224.221,167.728 225,166.5C 225.582,169.668 226.582,170.001 228,167.5C 228.582,170.668 229.582,171.001 231,168.5C 231.57,171.844 232.736,172.177 234.5,169.5C 234.669,170.397 235.002,171.397 235.5,172.5C 236.527,173.791 237.527,173.791 238.5,172.5 Z"/></g>
<g><path style="opacity:1" fill="#4c4113" d="M 153.5,167.5 C 151.052,168.473 148.385,168.806 145.5,168.5C 145.281,167.325 145.614,166.325 146.5,165.5C 148.264,168.177 149.43,167.844 150,164.5C 150.759,166.063 151.926,167.063 153.5,167.5 Z"/></g>
<g><path style="opacity:1" fill="#cd1125" d="M -0.5,239.5 C 212.833,239.5 426.167,239.5 639.5,239.5C 639.5,319.5 639.5,399.5 639.5,479.5C 426.167,479.5 212.833,479.5 -0.5,479.5C -0.5,399.5 -0.5,319.5 -0.5,239.5 Z"/></g>
</svg>
