<?xml version="1.0" encoding="UTF-8"?>
<!DOCTYPE svg PUBLIC "-//W3C//DTD SVG 1.1//EN" "http://www.w3.org/Graphics/SVG/1.1/DTD/svg11.dtd">
<svg xmlns="http://www.w3.org/2000/svg" version="1.1" width="640px" height="480px" style="shape-rendering:geometricPrecision; text-rendering:geometricPrecision; image-rendering:optimizeQuality; fill-rule:evenodd; clip-rule:evenodd" xmlns:xlink="http://www.w3.org/1999/xlink">
<g><path style="opacity:1" fill="#fcb912" d="M -0.5,-0.5 C 212.833,-0.5 426.167,-0.5 639.5,-0.5C 639.5,52.5 639.5,105.5 639.5,158.5C 426.167,158.5 212.833,158.5 -0.5,158.5C -0.5,105.5 -0.5,52.5 -0.5,-0.5 Z"/></g>
<g><path style="opacity:1" fill="#016a43" d="M -0.5,158.5 C 212.833,158.5 426.167,158.5 639.5,158.5C 639.5,212.5 639.5,266.5 639.5,320.5C 426.167,320.5 212.833,320.5 -0.5,320.5C -0.5,266.5 -0.5,212.5 -0.5,158.5 Z"/></g>
<g><path style="opacity:1" fill="#c0272c" d="M -0.5,320.5 C 212.833,320.5 426.167,320.5 639.5,320.5C 639.5,373.5 639.5,426.5 639.5,479.5C 426.167,479.5 212.833,479.5 -0.5,479.5C -0.5,426.5 -0.5,373.5 -0.5,320.5 Z"/></g>
</svg>
