<?xml version="1.0" encoding="UTF-8"?>
<!DOCTYPE svg PUBLIC "-//W3C//DTD SVG 1.1//EN" "http://www.w3.org/Graphics/SVG/1.1/DTD/svg11.dtd">
<svg xmlns="http://www.w3.org/2000/svg" version="1.1" width="640px" height="480px" style="shape-rendering:geometricPrecision; text-rendering:geometricPrecision; image-rendering:optimizeQuality; fill-rule:evenodd; clip-rule:evenodd" xmlns:xlink="http://www.w3.org/1999/xlink">
<g><path style="opacity:1" fill="#01785e" d="M -0.5,-0.5 C 212.833,-0.5 426.167,-0.5 639.5,-0.5C 639.5,159.5 639.5,319.5 639.5,479.5C 426.167,479.5 212.833,479.5 -0.5,479.5C -0.5,319.5 -0.5,159.5 -0.5,-0.5 Z"/></g>
<g><path style="opacity:1" fill="#f5cf18" d="M 325.5,107.5 C 331.5,108.167 337.5,108.833 343.5,109.5C 338.408,112.424 333.742,115.924 329.5,120C 330.936,125.244 332.602,130.41 334.5,135.5C 334.167,135.833 333.833,136.167 333.5,136.5C 328.833,133.167 324.167,129.833 319.5,126.5C 314.397,129.802 309.564,133.469 305,137.5C 306.057,131.642 307.557,125.809 309.5,120C 305.18,116.027 300.513,112.361 295.5,109C 301.528,108.83 307.528,108.33 313.5,107.5C 315.306,102.08 317.306,96.7462 319.5,91.5C 321.702,96.7748 323.702,102.108 325.5,107.5 Z"/></g>
<g><path style="opacity:1" fill="#529546" d="M 325.5,107.5 C 331.868,107.17 338.202,107.504 344.5,108.5C 344.376,109.107 344.043,109.44 343.5,109.5C 337.5,108.833 331.5,108.167 325.5,107.5 Z"/></g>
<g><path style="opacity:1" fill="#f3ce19" d="M 244.5,122.5 C 247.815,124.808 251.149,127.141 254.5,129.5C 257.672,127.748 260.672,125.748 263.5,123.5C 263.833,124 264.167,124.5 264.5,125C 262.615,128.308 261.781,131.808 262,135.5C 264.833,137.667 267.667,139.833 270.5,142C 266.5,142.333 262.5,142.667 258.5,143C 256.613,146.659 255.113,150.492 254,154.5C 252.731,150.859 251.564,147.192 250.5,143.5C 246.204,142.672 241.871,142.172 237.5,142C 241.471,139.858 244.805,137.024 247.5,133.5C 246.29,129.872 245.29,126.206 244.5,122.5 Z"/></g>
<g><path style="opacity:1" fill="#f3ce19" d="M 393.5,122.5 C 394.097,122.735 394.43,123.235 394.5,124C 393.399,127.136 392.399,130.303 391.5,133.5C 394.567,136.55 397.901,139.384 401.5,142C 397.129,142.172 392.796,142.672 388.5,143.5C 387.436,147.192 386.269,150.859 385,154.5C 383.887,150.492 382.387,146.659 380.5,143C 376.5,142.667 372.5,142.333 368.5,142C 371.333,139.833 374.167,137.667 377,135.5C 377.219,131.808 376.385,128.308 374.5,125C 374.833,124.5 375.167,124 375.5,123.5C 378.328,125.748 381.328,127.748 384.5,129.5C 387.829,127.494 390.829,125.161 393.5,122.5 Z"/></g>
<g><path style="opacity:1" fill="#fcfdfd" d="M 318.5,153.5 C 332.924,164.64 342.091,179.307 346,197.5C 347.488,205.445 347.822,213.445 347,221.5C 345.762,230.776 343.762,239.776 341,248.5C 352.573,224.67 353.406,200.503 343.5,176C 346.21,172.083 348.544,167.916 350.5,163.5C 357.89,175.058 361.223,187.725 360.5,201.5C 360.717,208.956 359.884,216.289 358,223.5C 355.348,231.482 352.348,239.149 349,246.5C 368.334,228.584 391.167,220.418 417.5,222C 415.47,223.896 413.803,226.063 412.5,228.5C 388.143,229.669 366.81,238.169 348.5,254C 356.261,249.29 364.595,245.29 373.5,242C 395.72,235.565 417.72,236.231 439.5,244C 439.957,244.414 440.291,244.914 440.5,245.5C 424.567,279.813 397.567,296.98 359.5,297C 378.638,299.601 396.638,296.267 413.5,287C 419.104,283.284 424.604,279.451 430,275.5C 432.584,276.104 435.084,276.937 437.5,278C 418.609,298.081 395.276,306.748 367.5,304C 348.947,301.223 332.947,293.39 319.5,280.5C 291.927,304.98 260.927,310.48 226.5,297C 216.543,292.191 207.876,285.691 200.5,277.5C 203.759,276.234 207.093,275.734 210.5,276C 228.702,292.401 250.036,299.401 274.5,297C 238.471,295.45 213.138,278.284 198.5,245.5C 203.298,242.283 208.631,240.116 214.5,239C 233.625,235.787 252.292,237.454 270.5,244C 277.343,247.422 284.01,250.755 290.5,254C 272.507,238.332 251.507,230.332 227.5,230C 225.65,226.638 223.317,223.638 220.5,221C 247.159,220.217 270.326,228.717 290,246.5C 286.652,239.149 283.652,231.482 281,223.5C 275.813,202.56 278.146,182.56 288,163.5C 290.381,167.766 292.881,171.932 295.5,176C 285.593,200.488 286.427,224.655 298,248.5C 284.459,212.37 291.292,180.703 318.5,153.5 Z"/></g>
<g><path style="opacity:1" fill="#f0cd1b" d="M 217.5,164.5 C 219.565,168.376 220.898,172.709 221.5,177.5C 225.637,177.146 229.637,177.646 233.5,179C 230.333,180.833 227.167,182.667 224,184.5C 224.186,188.484 224.186,192.484 224,196.5C 221.561,193.388 218.561,191.055 215,189.5C 211.708,191.736 208.208,193.236 204.5,194C 206.067,190.475 207.733,186.975 209.5,183.5C 206.979,180.146 203.979,177.312 200.5,175C 204.855,175.419 209.188,175.253 213.5,174.5C 215.406,171.36 216.74,168.027 217.5,164.5 Z"/></g>
<g><path style="opacity:1" fill="#efcc1b" d="M 419.5,165.5 C 422.196,167.851 424.196,170.851 425.5,174.5C 429.764,174.769 434.097,174.936 438.5,175C 435.076,177.38 432.076,180.213 429.5,183.5C 430.881,187.146 432.548,190.646 434.5,194C 434.167,194.167 433.833,194.333 433.5,194.5C 430.239,192.953 427.072,191.287 424,189.5C 420.439,191.055 417.439,193.388 415,196.5C 414.814,192.484 414.814,188.484 415,184.5C 411.833,182.667 408.667,180.833 405.5,179C 409.363,177.646 413.363,177.146 417.5,177.5C 418.295,173.524 418.962,169.524 419.5,165.5 Z"/></g>
<g><path style="opacity:1" fill="#f8fbfa" d="M 368.5,310.5 C 391.5,311.167 414.5,311.833 437.5,312.5C 435.998,314.175 434.665,316.008 433.5,318C 408.833,318.667 384.167,318.667 359.5,318C 344.68,315.346 331.347,309.513 319.5,300.5C 307.395,309.711 293.728,315.544 278.5,318C 254.167,318.667 229.833,318.667 205.5,318C 203.833,315.667 202.167,313.333 200.5,311C 227.535,310.946 254.535,310.28 281.5,309C 296.082,305.545 308.749,298.712 319.5,288.5C 333.228,301.529 349.561,308.862 368.5,310.5 Z"/></g>
<g><path style="opacity:1" fill="#9ac9c0" d="M 368.5,310.5 C 391.843,310.167 415.176,310.5 438.5,311.5C 438.376,312.107 438.043,312.44 437.5,312.5C 414.5,311.833 391.5,311.167 368.5,310.5 Z"/></g>
<g><path style="opacity:1" fill="#66ae9e" d="M 424.5,328.5 C 354.5,327.167 284.5,327.167 214.5,328.5C 213.957,328.44 213.624,328.107 213.5,327.5C 284.167,326.167 354.833,326.167 425.5,327.5C 425.376,328.107 425.043,328.44 424.5,328.5 Z"/></g>
<g><path style="opacity:1" fill="#eaf4f1" d="M 214.5,328.5 C 284.5,327.167 354.5,327.167 424.5,328.5C 423.733,329.172 423.066,330.005 422.5,331C 353.833,331.667 285.167,331.667 216.5,331C 215.934,330.005 215.267,329.172 214.5,328.5 Z"/></g>
<g><path style="opacity:1" fill="#fefefe" d="M 226.5,340.5 C 288.332,339.335 350.332,339.168 412.5,340C 410.208,341.29 408.208,342.957 406.5,345C 348.5,345.667 290.5,345.667 232.5,345C 230.905,342.898 228.905,341.398 226.5,340.5 Z"/></g>
<g><path style="opacity:1" fill="#99c9bf" d="M 393.5,353.5 C 344.167,352.167 294.833,352.167 245.5,353.5C 244.711,353.217 244.044,352.717 243.5,352C 294.167,351.333 344.833,351.333 395.5,352C 394.956,352.717 394.289,353.217 393.5,353.5 Z"/></g>
<g><path style="opacity:1" fill="#fefefe" d="M 245.5,353.5 C 294.833,352.167 344.167,352.167 393.5,353.5C 390.354,355.575 387.021,357.408 383.5,359C 340.833,359.667 298.167,359.667 255.5,359C 251.979,357.408 248.646,355.575 245.5,353.5 Z"/></g>
<g><path style="opacity:1" fill="#98c8be" d="M 368.5,365.5 C 335.833,364.167 303.167,364.167 270.5,365.5C 269.244,365.539 268.244,365.039 267.5,364C 302.167,363.333 336.833,363.333 371.5,364C 370.756,365.039 369.756,365.539 368.5,365.5 Z"/></g>
<g><path style="opacity:1" fill="#fbfdfc" d="M 270.5,365.5 C 303.167,364.167 335.833,364.167 368.5,365.5C 335.785,376.109 303.118,376.109 270.5,365.5 Z"/></g>
</svg>
