<?xml version="1.0" encoding="UTF-8"?>
<!DOCTYPE svg PUBLIC "-//W3C//DTD SVG 1.1//EN" "http://www.w3.org/Graphics/SVG/1.1/DTD/svg11.dtd">
<svg xmlns="http://www.w3.org/2000/svg" version="1.1" width="640px" height="480px" style="shape-rendering:geometricPrecision; text-rendering:geometricPrecision; image-rendering:optimizeQuality; fill-rule:evenodd; clip-rule:evenodd" xmlns:xlink="http://www.w3.org/1999/xlink">
<g><path style="opacity:1" fill="#fefffe" d="M -0.5,-0.5 C 70.5,-0.5 141.5,-0.5 212.5,-0.5C 212.5,79.5 212.5,159.5 212.5,239.5C 212.5,319.5 212.5,399.5 212.5,479.5C 141.5,479.5 70.5,479.5 -0.5,479.5C -0.5,319.5 -0.5,159.5 -0.5,-0.5 Z"/></g>
<g><path style="opacity:1" fill="#fc3d32" d="M 212.5,-0.5 C 354.833,-0.5 497.167,-0.5 639.5,-0.5C 639.5,79.5 639.5,159.5 639.5,239.5C 497.167,239.5 354.833,239.5 212.5,239.5C 212.5,159.5 212.5,79.5 212.5,-0.5 Z"/></g>
<g><path style="opacity:1" fill="#007e3a" d="M 212.5,239.5 C 354.833,239.5 497.167,239.5 639.5,239.5C 639.5,319.5 639.5,399.5 639.5,479.5C 497.167,479.5 354.833,479.5 212.5,479.5C 212.5,399.5 212.5,319.5 212.5,239.5 Z"/></g>
</svg>
