<?xml version="1.0" encoding="UTF-8"?>
<!DOCTYPE svg PUBLIC "-//W3C//DTD SVG 1.1//EN" "http://www.w3.org/Graphics/SVG/1.1/DTD/svg11.dtd">
<svg xmlns="http://www.w3.org/2000/svg" version="1.1" width="640px" height="480px" style="shape-rendering:geometricPrecision; text-rendering:geometricPrecision; image-rendering:optimizeQuality; fill-rule:evenodd; clip-rule:evenodd" xmlns:xlink="http://www.w3.org/1999/xlink">
<g><path style="opacity:1" fill="#cb0000" d="M 319.5,-0.5 C 426.167,-0.5 532.833,-0.5 639.5,-0.5C 639.5,10.8333 639.5,22.1667 639.5,33.5C 532.833,33.5 426.167,33.5 319.5,33.5C 319.5,22.1667 319.5,10.8333 319.5,-0.5 Z"/></g>
<g><path style="opacity:1" fill="#030065" d="M -0.5,-0.5 C 106.167,-0.5 212.833,-0.5 319.5,-0.5C 319.5,10.8333 319.5,22.1667 319.5,33.5C 319.5,44.8333 319.5,56.1667 319.5,67.5C 319.5,79.1667 319.5,90.8333 319.5,102.5C 319.5,113.833 319.5,125.167 319.5,136.5C 319.5,147.833 319.5,159.167 319.5,170.5C 319.5,181.833 319.5,193.167 319.5,204.5C 319.5,216.167 319.5,227.833 319.5,239.5C 319.5,250.833 319.5,262.167 319.5,273.5C 213.001,274.499 106.335,274.833 -0.5,274.5C -0.5,182.833 -0.5,91.1667 -0.5,-0.5 Z"/></g>
<g><path style="opacity:1" fill="#fefcfc" d="M 319.5,33.5 C 426.167,33.5 532.833,33.5 639.5,33.5C 639.5,44.8333 639.5,56.1667 639.5,67.5C 532.833,67.5 426.167,67.5 319.5,67.5C 319.5,56.1667 319.5,44.8333 319.5,33.5 Z"/></g>
<g><path style="opacity:1" fill="#f9c708" d="M 112.5,60.5 C 134.225,57.8093 154.225,62.3093 172.5,74C 140.598,63.3119 113.098,70.1452 90,94.5C 69.9523,121.356 68.2856,149.356 85,178.5C 107.562,208.353 136.729,217.519 172.5,206C 134.764,228.227 99.9309,224.394 68,194.5C 46.8454,169.101 41.8454,140.768 53,109.5C 64.8689,83.4618 84.7022,67.1285 112.5,60.5 Z"/></g>
<g><path style="opacity:1" fill="#cc0703" d="M 319.5,67.5 C 426.167,67.5 532.833,67.5 639.5,67.5C 639.5,79.1667 639.5,90.8333 639.5,102.5C 532.833,102.5 426.167,102.5 319.5,102.5C 319.5,90.8333 319.5,79.1667 319.5,67.5 Z"/></g>
<g><path style="opacity:1" fill="#f6c40a" d="M 206.5,74.5 C 209.44,87.2186 211.606,100.219 213,113.5C 220.333,102.833 227.667,92.1667 235,81.5C 232.152,92.535 228.819,103.535 225,114.5C 224.333,115.833 224.333,117.167 225,118.5C 235.117,111.698 245.617,105.865 256.5,101C 248.5,109.667 240.5,118.333 232.5,127C 245.172,126.761 257.839,126.428 270.5,126C 258.5,130.667 246.5,135.333 234.5,140C 246.5,144.667 258.5,149.333 270.5,154C 257.839,153.572 245.172,153.239 232.5,153C 240.5,161.667 248.5,170.333 256.5,179C 245.617,174.135 235.117,168.302 225,161.5C 228.333,174.167 231.667,186.833 235,199.5C 227.915,188.328 220.581,177.328 213,166.5C 211,179.167 209,191.833 207,204.5C 204.814,191.868 202.814,179.201 201,166.5C 193.667,177.167 186.333,187.833 179,198.5C 182.532,186.234 185.865,173.901 189,161.5C 178.391,168.378 167.558,174.545 156.5,180C 165.167,170.667 173.833,161.333 182.5,152C 169.519,152.921 156.519,153.588 143.5,154C 155.5,149.333 167.5,144.667 179.5,140C 167.5,135.333 155.5,130.667 143.5,126C 156.536,126.393 169.536,127.059 182.5,128C 173.12,118.307 164.287,108.473 156,98.5C 167,105.167 178,111.833 189,118.5C 189.667,117.167 189.667,115.833 189,114.5C 185.429,103.461 182.095,92.4615 179,81.5C 186.333,92.1667 193.667,102.833 201,113.5C 202.695,100.469 204.528,87.4687 206.5,74.5 Z"/></g>
<g><path style="opacity:1" fill="#fefffe" d="M 319.5,102.5 C 426.167,102.5 532.833,102.5 639.5,102.5C 639.5,113.833 639.5,125.167 639.5,136.5C 532.833,136.5 426.167,136.5 319.5,136.5C 319.5,125.167 319.5,113.833 319.5,102.5 Z"/></g>
<g><path style="opacity:1" fill="#cb0000" d="M 319.5,136.5 C 426.167,136.5 532.833,136.5 639.5,136.5C 639.5,147.833 639.5,159.167 639.5,170.5C 532.833,170.5 426.167,170.5 319.5,170.5C 319.5,159.167 319.5,147.833 319.5,136.5 Z"/></g>
<g><path style="opacity:1" fill="#fefcfb" d="M 319.5,170.5 C 426.167,170.5 532.833,170.5 639.5,170.5C 639.5,181.833 639.5,193.167 639.5,204.5C 532.833,204.5 426.167,204.5 319.5,204.5C 319.5,193.167 319.5,181.833 319.5,170.5 Z"/></g>
<g><path style="opacity:1" fill="#cd0b04" d="M 319.5,204.5 C 426.167,204.5 532.833,204.5 639.5,204.5C 639.5,216.167 639.5,227.833 639.5,239.5C 532.833,239.5 426.167,239.5 319.5,239.5C 319.5,227.833 319.5,216.167 319.5,204.5 Z"/></g>
<g><path style="opacity:1" fill="#fefffe" d="M 319.5,239.5 C 426.167,239.5 532.833,239.5 639.5,239.5C 639.5,250.833 639.5,262.167 639.5,273.5C 532.833,273.5 426.167,273.5 319.5,273.5C 319.5,262.167 319.5,250.833 319.5,239.5 Z"/></g>
<g><path style="opacity:1" fill="#cc0803" d="M 319.5,273.5 C 426.167,273.5 532.833,273.5 639.5,273.5C 639.5,285.167 639.5,296.833 639.5,308.5C 426.167,308.5 212.833,308.5 -0.5,308.5C -0.5,297.167 -0.5,285.833 -0.5,274.5C 106.335,274.833 213.001,274.499 319.5,273.5 Z"/></g>
<g><path style="opacity:1" fill="#fefdfd" d="M -0.5,308.5 C 212.833,308.5 426.167,308.5 639.5,308.5C 639.5,319.833 639.5,331.167 639.5,342.5C 426.167,342.5 212.833,342.5 -0.5,342.5C -0.5,331.167 -0.5,319.833 -0.5,308.5 Z"/></g>
<g><path style="opacity:1" fill="#cb0000" d="M -0.5,342.5 C 212.833,342.5 426.167,342.5 639.5,342.5C 639.5,353.833 639.5,365.167 639.5,376.5C 426.167,376.5 212.833,376.5 -0.5,376.5C -0.5,365.167 -0.5,353.833 -0.5,342.5 Z"/></g>
<g><path style="opacity:1" fill="#fefefe" d="M -0.5,376.5 C 212.833,376.5 426.167,376.5 639.5,376.5C 639.5,387.833 639.5,399.167 639.5,410.5C 426.167,410.5 212.833,410.5 -0.5,410.5C -0.5,399.167 -0.5,387.833 -0.5,376.5 Z"/></g>
<g><path style="opacity:1" fill="#cc0603" d="M -0.5,410.5 C 212.833,410.5 426.167,410.5 639.5,410.5C 639.5,422.167 639.5,433.833 639.5,445.5C 426.167,445.5 212.833,445.5 -0.5,445.5C -0.5,433.833 -0.5,422.167 -0.5,410.5 Z"/></g>
<g><path style="opacity:1" fill="#fefffe" d="M -0.5,445.5 C 212.833,445.5 426.167,445.5 639.5,445.5C 639.5,456.833 639.5,468.167 639.5,479.5C 426.167,479.5 212.833,479.5 -0.5,479.5C -0.5,468.167 -0.5,456.833 -0.5,445.5 Z"/></g>
</svg>
