<?xml version="1.0" encoding="UTF-8"?>
<!DOCTYPE svg PUBLIC "-//W3C//DTD SVG 1.1//EN" "http://www.w3.org/Graphics/SVG/1.1/DTD/svg11.dtd">
<svg xmlns="http://www.w3.org/2000/svg" version="1.1" width="640px" height="480px" style="shape-rendering:geometricPrecision; text-rendering:geometricPrecision; image-rendering:optimizeQuality; fill-rule:evenodd; clip-rule:evenodd" xmlns:xlink="http://www.w3.org/1999/xlink">
<g><path style="opacity:1" fill="#010000" d="M -0.5,-0.5 C 212.833,-0.5 426.167,-0.5 639.5,-0.5C 639.5,52.8333 639.5,106.167 639.5,159.5C 426.167,159.5 212.833,159.5 -0.5,159.5C -0.5,106.167 -0.5,52.8333 -0.5,-0.5 Z"/></g>
<g><path style="opacity:1" fill="#e51408" d="M 299.5,9.5 C 302.695,8.96069 305.195,9.96069 307,12.5C 308.98,28.5031 308.98,44.5031 307,60.5C 302.491,45.4548 299.324,30.1214 297.5,14.5C 297.437,12.4861 298.103,10.8194 299.5,9.5 Z"/></g>
<g><path style="opacity:1" fill="#e21308" d="M 315.5,8.5 C 321.895,8.40187 324.562,11.5685 323.5,18C 323.097,32.2869 321.597,46.4536 319,60.5C 315.761,46.6061 313.927,32.4394 313.5,18C 313.331,14.5988 313.998,11.4322 315.5,8.5 Z"/></g>
<g><path style="opacity:1" fill="#df1309" d="M 331.5,9.5 C 336.156,8.34018 338.823,10.0068 339.5,14.5C 337.935,30.2432 334.768,45.5766 330,60.5C 328.023,44.498 328.023,28.498 330,12.5C 330.513,11.4734 331.013,10.4734 331.5,9.5 Z"/></g>
<g><path style="opacity:1" fill="#e61409" d="M 295.5,47.5 C 295.815,51.3714 295.482,55.0381 294.5,58.5C 289.397,44.4267 285.064,30.0934 281.5,15.5C 282.852,11.7459 285.518,10.5792 289.5,12C 290,12.5 290.5,13 291,13.5C 293.669,24.6835 295.169,36.0168 295.5,47.5 Z"/></g>
<g><path style="opacity:1" fill="#e21309" d="M 347.5,10.5 C 349.722,10.178 351.556,10.8446 353,12.5C 353.228,21.3692 351.894,30.0359 349,38.5C 346.534,46.2308 343.867,53.8974 341,61.5C 340.169,45.3119 341.502,29.3119 345,13.5C 346.045,12.6266 346.878,11.6266 347.5,10.5 Z"/></g>
<g><path style="opacity:1" fill="#e61408" d="M 267.5,14.5 C 271.49,13.6155 274.323,14.9489 276,18.5C 280.912,32.8018 283.578,47.4684 284,62.5C 277.162,49.3188 271.495,35.6522 267,21.5C 266.297,19.0709 266.463,16.7375 267.5,14.5 Z"/></g>
<g><path style="opacity:1" fill="#e31308" d="M 363.5,13.5 C 366.699,13.6964 368.699,15.3631 369.5,18.5C 365.144,34.4017 359.311,49.735 352,64.5C 352.717,48.8644 355.384,33.5311 360,18.5C 360.997,16.6769 362.164,15.0103 363.5,13.5 Z"/></g>
<g><path style="opacity:1" fill="#e41308" d="M 377.5,18.5 C 383.499,18.002 385.666,20.6687 384,26.5C 378.307,40.8861 371.307,54.5527 363,67.5C 365.499,50.5109 370.332,34.1776 377.5,18.5 Z"/></g>
<g><path style="opacity:1" fill="#e31308" d="M 253.5,18.5 C 256.652,17.9586 259.152,18.9586 261,21.5C 267.368,35.9831 271.702,50.9831 274,66.5C 264.664,52.8285 257.164,38.1618 251.5,22.5C 251.752,20.9271 252.418,19.5938 253.5,18.5 Z"/></g>
<g><path style="opacity:1" fill="#e51308" d="M 239.5,23.5 C 241.936,23.317 244.103,23.9837 246,25.5C 253.795,39.9073 259.795,54.9073 264,70.5C 253.265,57.5311 244.431,43.3644 237.5,28C 237.519,26.167 238.185,24.667 239.5,23.5 Z"/></g>
<g><path style="opacity:1" fill="#e51308" d="M 392.5,23.5 C 397.325,23.4881 399.491,25.8214 399,30.5C 391.518,44.9686 382.852,58.6352 373,71.5C 377.048,54.5253 383.548,38.5253 392.5,23.5 Z"/></g>
<g><path style="opacity:1" fill="#e61408" d="M 406.5,30.5 C 411.501,29.6714 413.668,31.6714 413,36.5C 404.104,50.0642 394.437,63.0642 384,75.5C 389.347,59.4727 396.847,44.4727 406.5,30.5 Z"/></g>
<g><path style="opacity:1" fill="#e51308" d="M 225.5,30.5 C 226.873,30.3433 228.207,30.51 229.5,31C 237.132,41.0874 243.632,51.9207 249,63.5C 250.967,67.4005 252.3,71.4005 253,75.5C 242.57,63.7403 232.904,51.4069 224,38.5C 221.676,35.1481 222.176,32.4815 225.5,30.5 Z"/></g>
<g><path style="opacity:1" fill="#e71408" d="M 211.5,38.5 C 215.664,38.1429 218.831,39.8095 221,43.5C 230.249,55.3544 237.916,68.021 244,81.5C 230.797,69.8093 219.297,56.8093 209.5,42.5C 209.752,40.9271 210.418,39.5938 211.5,38.5 Z"/></g>
<g><path style="opacity:1" fill="#e71408" d="M 419.5,38.5 C 426.425,37.5723 428.259,40.239 425,46.5C 415.6,58.5908 405.267,69.9241 394,80.5C 400.678,65.4924 409.178,51.4924 419.5,38.5 Z"/></g>
<g><path style="opacity:1" fill="#e81408" d="M 198.5,47.5 C 201.482,47.1044 204.149,47.7711 206.5,49.5C 217.118,60.9467 226.785,73.1134 235.5,86C 234.833,86.6667 234.167,86.6667 233.5,86C 220.767,76.2727 208.934,65.4394 198,53.5C 197.322,51.4024 197.489,49.4024 198.5,47.5 Z"/></g>
<g><path style="opacity:1" fill="#e61408" d="M 433.5,46.5 C 437.803,46.9631 439.636,49.2965 439,53.5C 427.919,65.4182 416.086,76.4182 403.5,86.5C 402.479,85.9984 402.312,85.3317 403,84.5C 411.996,70.8107 422.163,58.144 433.5,46.5 Z"/></g>
<g><path style="opacity:1" fill="#770b05" d="M 295.5,47.5 C 296.648,51.9811 296.815,56.6478 296,61.5C 295.487,60.4734 294.987,59.4734 294.5,58.5C 295.482,55.0381 295.815,51.3714 295.5,47.5 Z"/></g>
<g><path style="opacity:1" fill="#e81408" d="M 187.5,56.5 C 189.655,56.372 191.655,56.872 193.5,58C 205.232,69.0627 216.232,80.7293 226.5,93C 221.69,90.9183 217.023,88.2516 212.5,85C 204.212,79.0474 196.212,72.7141 188.5,66C 184.956,63.1268 184.623,59.9601 187.5,56.5 Z"/></g>
<g><path style="opacity:1" fill="#e51308" d="M 444.5,56.5 C 448.843,56.3474 451.01,58.3474 451,62.5C 438.579,74.3682 425.246,85.0349 411,94.5C 420.496,80.617 431.663,67.9504 444.5,56.5 Z"/></g>
<g><path style="opacity:1" fill="#e71408" d="M 177.5,66.5 C 178.873,66.3433 180.207,66.51 181.5,67C 194.775,76.8268 207.108,87.8268 218.5,100C 204.357,93.5849 191.024,85.5849 178.5,76C 173.7,73.1531 173.367,69.9864 177.5,66.5 Z"/></g>
<g><path style="opacity:1" fill="#e71408" d="M 454.5,67.5 C 462.638,67.9409 463.638,71.1076 457.5,77C 445.177,86.3684 432.177,94.3684 418.5,101C 429.742,88.9217 441.742,77.755 454.5,67.5 Z"/></g>
<g><path style="opacity:1" fill="#e61408" d="M 167.5,78.5 C 169.199,78.3398 170.866,78.5065 172.5,79C 186.399,88.2306 199.732,98.2306 212.5,109C 196.445,102.972 181.111,95.3057 166.5,86C 163.933,83.1784 164.266,80.6784 167.5,78.5 Z"/></g>
<g><path style="opacity:1" fill="#e41308" d="M 463.5,78.5 C 470.439,77.5779 472.439,80.0779 469.5,86C 454.933,95.6156 439.6,103.616 423.5,110C 436.158,98.4927 449.492,87.9927 463.5,78.5 Z"/></g>
<g><path style="opacity:1" fill="#f11408" d="M 306.5,80.5 C 332.124,78.9248 356.124,84.4248 378.5,97C 395.193,107.542 407.86,121.709 416.5,139.5C 351.167,140.833 285.833,140.833 220.5,139.5C 232.96,115.212 251.96,98.0455 277.5,88C 287.053,84.5302 296.719,82.0302 306.5,80.5 Z"/></g>
<g><path style="opacity:1" fill="#e61408" d="M 471.5,90.5 C 473.924,90.1924 476.257,90.5258 478.5,91.5C 480.007,93.9686 479.673,96.1353 477.5,98C 462.3,106.109 446.634,112.776 430.5,118C 443.543,107.819 457.209,98.6519 471.5,90.5 Z"/></g>
<g><path style="opacity:1" fill="#e41308" d="M 159.5,90.5 C 176.053,98.1114 191.72,107.278 206.5,118C 189.91,113.464 173.91,107.13 158.5,99C 154.446,95.6598 154.779,92.8265 159.5,90.5 Z"/></g>
<g><path style="opacity:1" fill="#e41308" d="M 151.5,103.5 C 168.851,109.175 185.184,117.008 200.5,127C 184.493,123.778 168.826,119.112 153.5,113C 147.863,110.633 147.196,107.466 151.5,103.5 Z"/></g>
<g><path style="opacity:1" fill="#e71408" d="M 480.5,103.5 C 487.004,103.138 488.671,105.638 485.5,111C 469.336,118.429 452.669,124.096 435.5,128C 449.954,118.774 464.954,110.607 480.5,103.5 Z"/></g>
<g><path style="opacity:1" fill="#e21308" d="M 145.5,116.5 C 163.237,120.915 180.237,127.415 196.5,136C 179.473,134.245 162.806,130.578 146.5,125C 141.657,122.508 141.323,119.674 145.5,116.5 Z"/></g>
<g><path style="opacity:1" fill="#e51308" d="M 485.5,116.5 C 490.993,115.178 493.493,117.178 493,122.5C 492.097,123.701 490.931,124.535 489.5,125C 473.141,130.591 456.474,134.591 439.5,137C 454.569,129.293 469.903,122.46 485.5,116.5 Z"/></g>
<g><path style="opacity:1" fill="#e51408" d="M 485.5,140.5 C 477.316,140.826 469.316,140.492 461.5,139.5C 471.788,135.793 482.288,132.793 493,130.5C 497.724,130.95 499.057,133.283 497,137.5C 493.452,139.512 489.619,140.512 485.5,140.5 Z"/></g>
<g><path style="opacity:1" fill="#ea1408" d="M 176.5,139.5 C 167.682,140.493 158.682,140.827 149.5,140.5C 145.381,140.512 141.548,139.512 138,137.5C 136.529,132.967 138.196,130.633 143,130.5C 154.249,133.27 165.415,136.27 176.5,139.5 Z"/></g>
<g><path style="opacity:1" fill="#730904" d="M 176.5,139.5 C 177.473,139.987 178.473,140.487 179.5,141C 169.325,141.825 159.325,141.658 149.5,140.5C 158.682,140.827 167.682,140.493 176.5,139.5 Z"/></g>
<g><path style="opacity:1" fill="#720904" d="M 461.5,139.5 C 469.316,140.492 477.316,140.826 485.5,140.5C 476.676,141.657 467.676,141.824 458.5,141C 459.527,140.487 460.527,139.987 461.5,139.5 Z"/></g>
<g><path style="opacity:1" fill="#f31407" d="M -0.5,159.5 C 212.833,159.5 426.167,159.5 639.5,159.5C 639.5,212.833 639.5,266.167 639.5,319.5C 426.167,319.5 212.833,319.5 -0.5,319.5C -0.5,266.167 -0.5,212.833 -0.5,159.5 Z"/></g>
<g><path style="opacity:1" fill="#21873a" d="M -0.5,319.5 C 212.833,319.5 426.167,319.5 639.5,319.5C 639.5,372.833 639.5,426.167 639.5,479.5C 426.167,479.5 212.833,479.5 -0.5,479.5C -0.5,426.167 -0.5,372.833 -0.5,319.5 Z"/></g>
</svg>
