<?xml version="1.0" encoding="UTF-8"?>
<!DOCTYPE svg PUBLIC "-//W3C//DTD SVG 1.1//EN" "http://www.w3.org/Graphics/SVG/1.1/DTD/svg11.dtd">
<svg xmlns="http://www.w3.org/2000/svg" version="1.1" width="640px" height="480px" style="shape-rendering:geometricPrecision; text-rendering:geometricPrecision; image-rendering:optimizeQuality; fill-rule:evenodd; clip-rule:evenodd" xmlns:xlink="http://www.w3.org/1999/xlink">
<g><path style="opacity:1" fill="#fefefe" d="M -0.5,-0.5 C 106.167,-0.5 212.833,-0.5 319.5,-0.5C 319.5,159.5 319.5,319.5 319.5,479.5C 212.833,479.5 106.167,479.5 -0.5,479.5C -0.5,319.5 -0.5,159.5 -0.5,-0.5 Z"/></g>
<g><path style="opacity:1" fill="#cd0000" d="M 319.5,-0.5 C 426.167,-0.5 532.833,-0.5 639.5,-0.5C 639.5,159.5 639.5,319.5 639.5,479.5C 532.833,479.5 426.167,479.5 319.5,479.5C 319.5,319.5 319.5,159.5 319.5,-0.5 Z"/></g>
<g><path style="opacity:1" fill="#cd0706" d="M 131.5,51.5 C 151.167,51.5 170.833,51.5 190.5,51.5C 190.83,71.0072 190.497,90.3405 189.5,109.5C 189.5,90.5 189.5,71.5 189.5,52.5C 170.659,52.1698 151.993,52.5031 133.5,53.5C 133.5,72.1667 133.5,90.8333 133.5,109.5C 132.833,109.5 132.167,109.5 131.5,109.5C 131.5,90.1667 131.5,70.8333 131.5,51.5 Z"/></g>
<g><path style="opacity:1" fill="#e06a6a" d="M 131.5,51.5 C 151.326,50.5029 171.326,50.1695 191.5,50.5C 191.5,70.5 191.5,90.5 191.5,110.5C 190.833,110.5 190.167,110.5 189.5,110.5C 189.5,110.167 189.5,109.833 189.5,109.5C 190.497,90.3405 190.83,71.0072 190.5,51.5C 170.833,51.5 151.167,51.5 131.5,51.5 Z"/></g>
<g><path style="opacity:1" fill="#ee9d00" d="M 133.5,53.5 C 151.993,52.5031 170.659,52.1698 189.5,52.5C 189.5,71.5 189.5,90.5 189.5,109.5C 189.167,109.5 188.833,109.5 188.5,109.5C 188.5,90.8333 188.5,72.1667 188.5,53.5C 170.167,53.5 151.833,53.5 133.5,53.5 Z"/></g>
<g><path style="opacity:1" fill="#fbe109" d="M 133.5,53.5 C 151.833,53.5 170.167,53.5 188.5,53.5C 188.5,72.1667 188.5,90.8333 188.5,109.5C 187.503,91.3409 187.17,73.0076 187.5,54.5C 169.992,54.17 152.659,54.5033 135.5,55.5C 135.5,73.8333 135.5,92.1667 135.5,110.5C 134.508,110.672 133.842,110.338 133.5,109.5C 133.5,90.8333 133.5,72.1667 133.5,53.5 Z"/></g>
<g><path style="opacity:1" fill="#707070" d="M 135.5,55.5 C 152.5,55.5 169.5,55.5 186.5,55.5C 186.5,73.5 186.5,91.5 186.5,109.5C 185.503,92.0079 185.17,74.3412 185.5,56.5C 169.5,56.5 153.5,56.5 137.5,56.5C 137.5,74.5 137.5,92.5 137.5,110.5C 136.833,110.5 136.167,110.5 135.5,110.5C 135.5,92.1667 135.5,73.8333 135.5,55.5 Z"/></g>
<g><path style="opacity:1" fill="#a99f46" d="M 135.5,55.5 C 152.659,54.5033 169.992,54.17 187.5,54.5C 187.17,73.0076 187.503,91.3409 188.5,109.5C 188.833,109.5 189.167,109.5 189.5,109.5C 189.5,109.833 189.5,110.167 189.5,110.5C 188.5,110.5 187.5,110.5 186.5,110.5C 186.5,110.167 186.5,109.833 186.5,109.5C 186.5,91.5 186.5,73.5 186.5,55.5C 169.5,55.5 152.5,55.5 135.5,55.5 Z"/></g>
<g><path style="opacity:1" fill="#9f9f9f" d="M 186.5,109.5 C 186.5,109.833 186.5,110.167 186.5,110.5C 184.489,111.417 183.489,113.083 183.5,115.5C 183.348,118.726 184.348,121.393 186.5,123.5C 188.22,124.751 188.553,126.251 187.5,128C 189.706,130.037 191.706,132.203 193.5,134.5C 191.097,134.393 189.264,135.393 188,137.5C 187.818,134.774 187.318,132.107 186.5,129.5C 184.216,130.582 183.05,132.248 183,134.5C 183.689,133.643 184.522,132.977 185.5,132.5C 186.318,135.107 186.818,137.774 187,140.5C 193.94,150.435 195.273,161.102 191,172.5C 189.209,176.439 186.709,179.772 183.5,182.5C 183.423,181.25 182.756,180.417 181.5,180C 178.447,179.821 175.447,179.321 172.5,178.5C 174.946,177.573 175.779,175.906 175,173.5C 174.022,171.525 172.689,169.858 171,168.5C 169.277,171.172 168.11,170.839 167.5,167.5C 166.494,166.604 166.494,165.938 167.5,165.5C 169.989,165.702 172.323,165.202 174.5,164C 166.803,162.749 167.137,161.749 175.5,161C 173.527,160.505 171.527,160.338 169.5,160.5C 169.713,156.484 169.046,152.65 167.5,149C 168.938,148.781 170.271,148.281 171.5,147.5C 170.278,144.911 168.278,144.077 165.5,145C 163.615,147.939 162.115,151.105 161,154.5C 160.23,155.598 159.397,155.598 158.5,154.5C 156.303,150.611 153.97,146.778 151.5,143C 152.731,141.817 152.731,140.651 151.5,139.5C 150.325,140.855 149.325,140.688 148.5,139C 148.833,138.667 149.167,138.333 149.5,138C 147.43,137.052 145.93,135.552 145,133.5C 144.282,134.451 143.449,134.617 142.5,134C 154.113,126.009 166.113,125.509 178.5,132.5C 180.78,129.854 181.113,126.854 179.5,123.5C 173.813,120.205 167.646,118.872 161,119.5C 153.363,119.214 146.197,120.88 139.5,124.5C 137.956,124.703 136.622,125.37 135.5,126.5C 131.142,124.652 127.475,121.818 124.5,118C 125.025,117.308 125.692,116.808 126.5,116.5C 129.087,119.723 132.087,122.39 135.5,124.5C 139.804,120.372 140.471,115.706 137.5,110.5C 137.5,92.5 137.5,74.5 137.5,56.5C 153.5,56.5 169.5,56.5 185.5,56.5C 185.17,74.3412 185.503,92.0079 186.5,109.5 Z"/></g>
<g><path style="opacity:1" fill="#cec7c6" d="M 131.5,109.5 C 132.167,109.5 132.833,109.5 133.5,109.5C 133.842,110.338 134.508,110.672 135.5,110.5C 136.167,110.5 136.833,110.5 137.5,110.5C 140.471,115.706 139.804,120.372 135.5,124.5C 136.927,116.517 133.593,112.684 125.5,113C 126.056,112.617 126.389,112.117 126.5,111.5C 128.028,110.691 129.694,110.024 131.5,109.5 Z"/></g>
<g><path style="opacity:1" fill="#cdcccc" d="M 186.5,110.5 C 187.5,110.5 188.5,110.5 189.5,110.5C 190.167,110.5 190.833,110.5 191.5,110.5C 192.167,110.5 192.833,110.5 193.5,110.5C 194.965,111.737 196.632,112.737 198.5,113.5C 195.597,113.102 192.597,113.602 189.5,115C 187.07,117.305 186.07,120.138 186.5,123.5C 184.348,121.393 183.348,118.726 183.5,115.5C 183.489,113.083 184.489,111.417 186.5,110.5 Z"/></g>
<g><path style="opacity:1" fill="#868484" d="M 126.5,111.5 C 126.389,112.117 126.056,112.617 125.5,113C 133.593,112.684 136.927,116.517 135.5,124.5C 132.087,122.39 129.087,119.723 126.5,116.5C 125.692,116.808 125.025,117.308 124.5,118C 127.475,121.818 131.142,124.652 135.5,126.5C 136.622,125.37 137.956,124.703 139.5,124.5C 136.548,126.785 133.882,129.452 131.5,132.5C 129.253,131.935 127.253,132.601 125.5,134.5C 117.99,135.321 114.323,131.988 114.5,124.5C 116.74,119.593 120.073,115.593 124.5,112.5C 124.842,111.662 125.508,111.328 126.5,111.5 Z"/></g>
<g><path style="opacity:1" fill="#888888" d="M 198.5,113.5 C 202.234,116.231 205.234,119.564 207.5,123.5C 208.373,130.961 205.04,134.628 197.5,134.5C 196.923,133.227 196.257,133.227 195.5,134.5C 196.435,138.193 195.768,138.193 193.5,134.5C 191.706,132.203 189.706,130.037 187.5,128C 188.553,126.251 188.22,124.751 186.5,123.5C 186.07,120.138 187.07,117.305 189.5,115C 192.597,113.602 195.597,113.102 198.5,113.5 Z"/></g>
<g><path style="opacity:1" fill="#d2433b" d="M 193.5,110.5 C 202.833,112.5 208.5,118.167 210.5,127.5C 209.5,126.167 208.5,124.833 207.5,123.5C 205.234,119.564 202.234,116.231 198.5,113.5C 196.632,112.737 194.965,111.737 193.5,110.5 Z"/></g>
<g><path style="opacity:1" fill="#cf2620" d="M 124.5,112.5 C 120.073,115.593 116.74,119.593 114.5,124.5C 113.833,124.833 113.167,125.167 112.5,125.5C 114.434,119.233 118.434,114.9 124.5,112.5 Z"/></g>
<g><path style="opacity:1" fill="#c6c6c6" d="M 194.5,115.5 C 196.688,116.536 196.688,118.036 194.5,120C 196.5,120 198.5,120 200.5,120C 197.107,122.534 193.441,124.201 189.5,125C 191.307,121.885 192.973,118.719 194.5,115.5 Z"/></g>
<g><path style="opacity:1" fill="#dabfbf" d="M 114.5,124.5 C 114.323,131.988 117.99,135.321 125.5,134.5C 123.393,136.652 120.726,137.652 117.5,137.5C 115.159,137.637 113.159,136.97 111.5,135.5C 111.5,135.167 111.5,134.833 111.5,134.5C 111.5,133.833 111.5,133.167 111.5,132.5C 92.1951,130.512 72.5284,129.846 52.5,130.5C 71.9929,129.503 91.6596,129.17 111.5,129.5C 111.232,127.901 111.566,126.568 112.5,125.5C 113.167,125.167 113.833,124.833 114.5,124.5 Z"/></g>
<g><path style="opacity:1" fill="#c6c6c6" d="M 121.5,120.5 C 129.404,131.095 127.738,132.929 116.5,126C 117,125.5 117.5,125 118,124.5C 122.469,127.527 123.302,126.861 120.5,122.5C 120.863,121.817 121.196,121.15 121.5,120.5 Z"/></g>
<g><path style="opacity:1" fill="#cdccca" d="M 207.5,123.5 C 208.5,124.833 209.5,126.167 210.5,127.5C 210.216,129.415 210.549,131.081 211.5,132.5C 211.5,133.167 211.5,133.833 211.5,134.5C 210.173,136.964 208.007,137.964 205,137.5C 201.832,137.894 199.332,136.894 197.5,134.5C 205.04,134.628 208.373,130.961 207.5,123.5 Z"/></g>
<g><path style="opacity:1" fill="#eca9a9" d="M 210.5,127.5 C 230.441,129.142 250.441,130.142 270.5,130.5C 250.472,129.846 230.805,130.512 211.5,132.5C 210.549,131.081 210.216,129.415 210.5,127.5 Z"/></g>
<g><path style="opacity:1" fill="#d22800" d="M 52.5,130.5 C 72.5284,129.846 92.1951,130.512 111.5,132.5C 92.5,132.5 73.5,132.5 54.5,132.5C 54.5,150.833 54.5,169.167 54.5,187.5C 73.5,187.5 92.5,187.5 111.5,187.5C 92.1951,189.488 72.5284,190.154 52.5,189.5C 52.5,169.833 52.5,150.167 52.5,130.5 Z"/></g>
<g><path style="opacity:1" fill="#d02400" d="M 270.5,130.5 C 270.5,150.167 270.5,169.833 270.5,189.5C 250.66,189.83 230.993,189.497 211.5,188.5C 211.5,188.167 211.5,187.833 211.5,187.5C 230.5,187.5 249.5,187.5 268.5,187.5C 268.5,169.167 268.5,150.833 268.5,132.5C 249.5,132.5 230.5,132.5 211.5,132.5C 230.805,130.512 250.472,129.846 270.5,130.5 Z"/></g>
<g><path style="opacity:1" fill="#ead51c" d="M 111.5,132.5 C 111.5,133.167 111.5,133.833 111.5,134.5C 93.1667,134.5 74.8333,134.5 56.5,134.5C 56.5,151.5 56.5,168.5 56.5,185.5C 74.8333,185.5 93.1667,185.5 111.5,185.5C 111.5,186.167 111.5,186.833 111.5,187.5C 92.5,187.5 73.5,187.5 54.5,187.5C 54.5,169.167 54.5,150.833 54.5,132.5C 73.5,132.5 92.5,132.5 111.5,132.5 Z"/></g>
<g><path style="opacity:1" fill="#f5dc0c" d="M 211.5,132.5 C 230.5,132.5 249.5,132.5 268.5,132.5C 268.5,150.833 268.5,169.167 268.5,187.5C 249.5,187.5 230.5,187.5 211.5,187.5C 211.5,186.833 211.5,186.167 211.5,185.5C 229.833,185.5 248.167,185.5 266.5,185.5C 266.5,168.5 266.5,151.5 266.5,134.5C 248.167,134.5 229.833,134.5 211.5,134.5C 211.5,133.833 211.5,133.167 211.5,132.5 Z"/></g>
<g><path style="opacity:1" fill="#757575" d="M 111.5,134.5 C 111.5,134.833 111.5,135.167 111.5,135.5C 94.0079,136.497 76.3412,136.83 58.5,136.5C 58.5,152.167 58.5,167.833 58.5,183.5C 76.3412,183.17 94.0079,183.503 111.5,184.5C 111.5,184.833 111.5,185.167 111.5,185.5C 93.1667,185.5 74.8333,185.5 56.5,185.5C 56.5,168.5 56.5,151.5 56.5,134.5C 74.8333,134.5 93.1667,134.5 111.5,134.5 Z"/></g>
<g><path style="opacity:1" fill="#73736e" d="M 211.5,134.5 C 229.833,134.5 248.167,134.5 266.5,134.5C 266.5,151.5 266.5,168.5 266.5,185.5C 248.167,185.5 229.833,185.5 211.5,185.5C 210.662,185.158 210.328,184.492 210.5,183.5C 228.5,183.5 246.5,183.5 264.5,183.5C 264.5,167.5 264.5,151.5 264.5,135.5C 246.659,135.83 228.992,135.497 211.5,134.5 Z"/></g>
<g><path style="opacity:1" fill="#cccac8" d="M 210.5,183.5 C 210.328,184.492 210.662,185.158 211.5,185.5C 211.5,186.167 211.5,186.833 211.5,187.5C 211.5,187.833 211.5,188.167 211.5,188.5C 210.655,189.671 209.989,191.005 209.5,192.5C 209.34,194.153 208.674,195.486 207.5,196.5C 208.211,186.848 203.878,183.348 194.5,186C 195.044,185.283 195.711,184.783 196.5,184.5C 199.244,182.919 202.244,181.919 205.5,181.5C 207.514,181.437 209.181,182.103 210.5,183.5 Z"/></g>
<g><path style="opacity:1" fill="#878483" d="M 125.5,185.5 C 123.443,189.067 120.777,192.234 117.5,195C 118,195.5 118.5,196 119,196.5C 123.054,192.814 126.388,189.147 129,185.5C 130.833,187.333 132.667,189.167 134.5,191C 133.447,192.749 133.78,194.249 135.5,195.5C 136.27,202.39 133.27,206.39 126.5,207.5C 121.681,205.099 117.681,201.765 114.5,197.5C 113.326,196.486 112.66,195.153 112.5,193.5C 113.117,193.611 113.617,193.944 114,194.5C 114.793,187.535 118.626,184.535 125.5,185.5 Z"/></g>
<g><path style="opacity:1" fill="#858484" d="M 196.5,184.5 C 195.711,184.783 195.044,185.283 194.5,186C 203.878,183.348 208.211,186.848 207.5,196.5C 204.833,201.167 201.167,204.833 196.5,207.5C 188.397,206.727 185.397,202.393 187.5,194.5C 190.839,197.173 193.839,200.173 196.5,203.5C 197.583,202.635 197.749,201.635 197,200.5C 194.131,197.296 190.965,194.463 187.5,192C 190.704,189.131 193.537,185.965 196,182.5C 196.464,183.094 196.631,183.761 196.5,184.5 Z"/></g>
<g><path style="opacity:1" fill="#e8d6d6" d="M 125.5,185.5 C 118.626,184.535 114.793,187.535 114,194.5C 113.617,193.944 113.117,193.611 112.5,193.5C 111.596,192.791 111.263,191.791 111.5,190.5C 91.6596,190.83 71.9929,190.497 52.5,189.5C 72.5284,190.154 92.1951,189.488 111.5,187.5C 111.5,186.833 111.5,186.167 111.5,185.5C 111.5,185.167 111.5,184.833 111.5,184.5C 112.768,182.613 114.601,181.613 117,181.5C 120.964,181.905 123.798,183.238 125.5,185.5 Z"/></g>
<g><path style="opacity:1" fill="#f6d7d7" d="M 211.5,188.5 C 230.993,189.497 250.66,189.83 270.5,189.5C 250.441,189.858 230.441,190.858 210.5,192.5C 210.167,192.5 209.833,192.5 209.5,192.5C 209.989,191.005 210.655,189.671 211.5,188.5 Z"/></g>
<g><path style="opacity:1" fill="#c5c5c5" d="M 195.5,188.5 C 199.09,189.628 202.423,191.295 205.5,193.5C 203.525,194.578 201.692,194.245 200,192.5C 200.783,194.345 201.116,196.345 201,198.5C 198.888,195.273 197.055,191.94 195.5,188.5 Z"/></g>
<g><path style="opacity:1" fill="#a0a0a0" d="M 158.5,154.5 C 151.932,155.187 145.266,155.354 138.5,155C 137.941,155.725 137.608,156.558 137.5,157.5C 138.467,159.762 139.134,162.095 139.5,164.5C 138.5,164.5 137.5,164.5 136.5,164.5C 136.999,168.49 137.499,172.49 138,176.5C 138.337,163.482 139.67,163.482 142,176.5C 142.498,173.183 142.665,169.85 142.5,166.5C 149.163,166.026 155.829,165.526 162.5,165C 164.696,163.392 166.362,163.559 167.5,165.5C 166.494,165.938 166.494,166.604 167.5,167.5C 166.761,167.369 166.094,167.536 165.5,168C 166.833,168.667 166.833,169.333 165.5,170C 167.459,170.931 169.459,171.764 171.5,172.5C 172.386,173.325 172.719,174.325 172.5,175.5C 166.833,175.5 161.167,175.5 155.5,175.5C 155.657,174.127 155.49,172.793 155,171.5C 154.061,174.121 153.228,176.788 152.5,179.5C 150.339,180.035 148.339,180.868 146.5,182C 151.593,180.323 156.926,179.49 162.5,179.5C 169.451,180.588 176.451,181.588 183.5,182.5C 186.709,179.772 189.209,176.439 191,172.5C 195.273,161.102 193.94,150.435 187,140.5C 186.818,137.774 186.318,135.107 185.5,132.5C 184.522,132.977 183.689,133.643 183,134.5C 183.05,132.248 184.216,130.582 186.5,129.5C 187.318,132.107 187.818,134.774 188,137.5C 189.264,135.393 191.097,134.393 193.5,134.5C 195.768,138.193 196.435,138.193 195.5,134.5C 196.257,133.227 196.923,133.227 197.5,134.5C 199.332,136.894 201.832,137.894 205,137.5C 208.007,137.964 210.173,136.964 211.5,134.5C 228.992,135.497 246.659,135.83 264.5,135.5C 264.5,151.5 264.5,167.5 264.5,183.5C 246.5,183.5 228.5,183.5 210.5,183.5C 209.181,182.103 207.514,181.437 205.5,181.5C 202.244,181.919 199.244,182.919 196.5,184.5C 196.631,183.761 196.464,183.094 196,182.5C 193.537,185.965 190.704,189.131 187.5,192C 190.965,194.463 194.131,197.296 197,200.5C 197.749,201.635 197.583,202.635 196.5,203.5C 193.839,200.173 190.839,197.173 187.5,194.5C 183.145,199.009 182.478,204.009 185.5,209.5C 184.503,226.992 184.17,244.659 184.5,262.5C 168.833,262.5 153.167,262.5 137.5,262.5C 137.83,244.659 137.497,226.992 136.5,209.5C 138.533,208.102 139.533,206.102 139.5,203.5C 138.972,199.754 137.639,197.088 135.5,195.5C 133.78,194.249 133.447,192.749 134.5,191C 132.667,189.167 130.833,187.333 129,185.5C 126.388,189.147 123.054,192.814 119,196.5C 118.5,196 118,195.5 117.5,195C 120.777,192.234 123.443,189.067 125.5,185.5C 123.798,183.238 120.964,181.905 117,181.5C 114.601,181.613 112.768,182.613 111.5,184.5C 94.0079,183.503 76.3412,183.17 58.5,183.5C 58.5,167.833 58.5,152.167 58.5,136.5C 76.3412,136.83 94.0079,136.497 111.5,135.5C 113.159,136.97 115.159,137.637 117.5,137.5C 120.726,137.652 123.393,136.652 125.5,134.5C 127.253,132.601 129.253,131.935 131.5,132.5C 133.882,129.452 136.548,126.785 139.5,124.5C 146.197,120.88 153.363,119.214 161,119.5C 167.646,118.872 173.813,120.205 179.5,123.5C 181.113,126.854 180.78,129.854 178.5,132.5C 166.113,125.509 154.113,126.009 142.5,134C 143.449,134.617 144.282,134.451 145,133.5C 145.93,135.552 147.43,137.052 149.5,138C 149.167,138.333 148.833,138.667 148.5,139C 149.325,140.688 150.325,140.855 151.5,139.5C 152.731,140.651 152.731,141.817 151.5,143C 153.97,146.778 156.303,150.611 158.5,154.5 Z"/></g>
<g><path style="opacity:1" fill="#c6c6c6" d="M 167.5,167.5 C 168.11,170.839 169.277,171.172 171,168.5C 172.689,169.858 174.022,171.525 175,173.5C 175.779,175.906 174.946,177.573 172.5,178.5C 175.447,179.321 178.447,179.821 181.5,180C 182.756,180.417 183.423,181.25 183.5,182.5C 176.451,181.588 169.451,180.588 162.5,179.5C 156.926,179.49 151.593,180.323 146.5,182C 148.339,180.868 150.339,180.035 152.5,179.5C 153.228,176.788 154.061,174.121 155,171.5C 155.49,172.793 155.657,174.127 155.5,175.5C 161.167,175.5 166.833,175.5 172.5,175.5C 172.719,174.325 172.386,173.325 171.5,172.5C 169.459,171.764 167.459,170.931 165.5,170C 166.833,169.333 166.833,168.667 165.5,168C 166.094,167.536 166.761,167.369 167.5,167.5 Z"/></g>
<g><path style="opacity:1" fill="#cacaca" d="M 167.5,165.5 C 166.362,163.559 164.696,163.392 162.5,165C 155.829,165.526 149.163,166.026 142.5,166.5C 142.665,169.85 142.498,173.183 142,176.5C 139.67,163.482 138.337,163.482 138,176.5C 137.499,172.49 136.999,168.49 136.5,164.5C 137.5,164.5 138.5,164.5 139.5,164.5C 139.134,162.095 138.467,159.762 137.5,157.5C 137.608,156.558 137.941,155.725 138.5,155C 145.266,155.354 151.932,155.187 158.5,154.5C 159.397,155.598 160.23,155.598 161,154.5C 162.115,151.105 163.615,147.939 165.5,145C 168.278,144.077 170.278,144.911 171.5,147.5C 170.271,148.281 168.938,148.781 167.5,149C 169.046,152.65 169.713,156.484 169.5,160.5C 171.527,160.338 173.527,160.505 175.5,161C 167.137,161.749 166.803,162.749 174.5,164C 172.323,165.202 169.989,165.702 167.5,165.5 Z"/></g>
<g><path style="opacity:1" fill="#cecdcd" d="M 187.5,194.5 C 185.397,202.393 188.397,206.727 196.5,207.5C 194.847,207.66 193.514,208.326 192.5,209.5C 192.167,209.5 191.833,209.5 191.5,209.5C 190.833,209.5 190.167,209.5 189.5,209.5C 189.167,209.5 188.833,209.5 188.5,209.5C 188.167,209.5 187.833,209.5 187.5,209.5C 187.167,209.5 186.833,209.5 186.5,209.5C 186.167,209.5 185.833,209.5 185.5,209.5C 182.478,204.009 183.145,199.009 187.5,194.5 Z"/></g>
<g><path style="opacity:1" fill="#cacaca" d="M 130.5,194.5 C 131.239,194.369 131.906,194.536 132.5,195C 130.793,198.248 128.96,201.415 127,204.5C 126.464,202.433 126.964,200.599 128.5,199C 126.744,198.86 125.078,199.36 123.5,200.5C 123.167,200.167 122.833,199.833 122.5,199.5C 125.231,197.808 127.898,196.142 130.5,194.5 Z"/></g>
<g><path style="opacity:1" fill="#cdcaca" d="M 136.5,209.5 C 136.167,209.5 135.833,209.5 135.5,209.5C 134.833,209.5 134.167,209.5 133.5,209.5C 132.833,209.5 132.167,209.5 131.5,209.5C 129.901,209.768 128.568,209.434 127.5,208.5C 127.5,207.833 127.167,207.5 126.5,207.5C 133.27,206.39 136.27,202.39 135.5,195.5C 137.639,197.088 138.972,199.754 139.5,203.5C 139.533,206.102 138.533,208.102 136.5,209.5 Z"/></g>
<g><path style="opacity:1" fill="#d3382e" d="M 209.5,192.5 C 209.833,192.5 210.167,192.5 210.5,192.5C 208.362,202.239 202.362,207.905 192.5,209.5C 193.514,208.326 194.847,207.66 196.5,207.5C 201.167,204.833 204.833,201.167 207.5,196.5C 208.674,195.486 209.34,194.153 209.5,192.5 Z"/></g>
<g><path style="opacity:1" fill="#d33d34" d="M 114.5,197.5 C 117.681,201.765 121.681,205.099 126.5,207.5C 127.167,207.5 127.5,207.833 127.5,208.5C 121.018,207.35 116.685,203.683 114.5,197.5 Z"/></g>
<g><path style="opacity:1" fill="#d43805" d="M 131.5,209.5 C 132.167,209.5 132.833,209.5 133.5,209.5C 133.5,228.5 133.5,247.5 133.5,266.5C 151.833,266.5 170.167,266.5 188.5,266.5C 188.5,247.5 188.5,228.5 188.5,209.5C 188.833,209.5 189.167,209.5 189.5,209.5C 190.487,229.091 190.821,248.757 190.5,268.5C 170.833,268.5 151.167,268.5 131.5,268.5C 131.5,248.833 131.5,229.167 131.5,209.5 Z"/></g>
<g><path style="opacity:1" fill="#fde303" d="M 133.5,209.5 C 134.167,209.5 134.833,209.5 135.5,209.5C 135.5,227.833 135.5,246.167 135.5,264.5C 152.659,265.497 169.992,265.83 187.5,265.5C 187.5,246.833 187.5,228.167 187.5,209.5C 187.833,209.5 188.167,209.5 188.5,209.5C 188.5,228.5 188.5,247.5 188.5,266.5C 170.167,266.5 151.833,266.5 133.5,266.5C 133.5,247.5 133.5,228.5 133.5,209.5 Z"/></g>
<g><path style="opacity:1" fill="#747474" d="M 135.5,209.5 C 135.833,209.5 136.167,209.5 136.5,209.5C 137.497,226.992 137.83,244.659 137.5,262.5C 153.167,262.5 168.833,262.5 184.5,262.5C 184.17,244.659 184.503,226.992 185.5,209.5C 185.833,209.5 186.167,209.5 186.5,209.5C 186.5,227.833 186.5,246.167 186.5,264.5C 169.5,264.5 152.5,264.5 135.5,264.5C 135.5,246.167 135.5,227.833 135.5,209.5 Z"/></g>
<g><path style="opacity:1" fill="#e1625e" d="M 189.5,209.5 C 190.167,209.5 190.833,209.5 191.5,209.5C 191.5,229.5 191.5,249.5 191.5,269.5C 171.326,269.83 151.326,269.497 131.5,268.5C 151.167,268.5 170.833,268.5 190.5,268.5C 190.821,248.757 190.487,229.091 189.5,209.5 Z"/></g>
<g><path style="opacity:1" fill="#bdaf35" d="M 186.5,209.5 C 186.833,209.5 187.167,209.5 187.5,209.5C 187.5,228.167 187.5,246.833 187.5,265.5C 169.992,265.83 152.659,265.497 135.5,264.5C 152.5,264.5 169.5,264.5 186.5,264.5C 186.5,246.167 186.5,227.833 186.5,209.5 Z"/></g>
</svg>
