<?xml version="1.0" encoding="UTF-8"?>
<!DOCTYPE svg PUBLIC "-//W3C//DTD SVG 1.1//EN" "http://www.w3.org/Graphics/SVG/1.1/DTD/svg11.dtd">
<svg xmlns="http://www.w3.org/2000/svg" version="1.1" width="640px" height="480px" style="shape-rendering:geometricPrecision; text-rendering:geometricPrecision; image-rendering:optimizeQuality; fill-rule:evenodd; clip-rule:evenodd" xmlns:xlink="http://www.w3.org/1999/xlink">
<g><path style="opacity:1" fill="#3b5aa3" d="M -0.5,-0.5 C 212.5,-0.5 425.5,-0.5 638.5,-0.5C 515.53,89.9863 392.196,179.986 268.5,269.5C 255.047,252.208 241.38,235.041 227.5,218C 247.949,225.546 268.282,233.713 288.5,242.5C 289.696,242.154 289.696,241.654 288.5,241C 271.167,228.333 253.833,215.667 236.5,203C 255.521,205.42 274.521,208.254 293.5,211.5C 296.32,212.637 299.32,213.137 302.5,213C 300.512,212.062 298.512,211.228 296.5,210.5C 276.74,203.301 257.073,195.801 237.5,188C 270.206,186.248 302.873,183.914 335.5,181C 303.415,177.994 271.415,174.661 239.5,171C 260.103,163.799 280.77,156.799 301.5,150C 279.503,152.333 257.503,154.666 235.5,157C 254.167,144 272.833,131 291.5,118C 270.422,125.804 249.422,133.804 228.5,142C 242.79,124.042 257.456,106.375 272.5,89C 254.491,101.883 236.825,115.55 219.5,130C 218.833,130.667 218.167,130.667 217.5,130C 226.284,109.297 234.451,88.4634 242,67.5C 228.667,84.8333 215.333,102.167 202,119.5C 204.076,97.7933 206.409,76.1266 209,54.5C 200.804,74.7542 192.804,95.0875 185,115.5C 181.421,82.5323 178.088,49.5323 175,16.5C 172.943,49.5135 170.61,82.5135 168,115.5C 159.138,94.5808 150.471,73.5808 142,52.5C 145.074,75.1635 148.074,97.8302 151,120.5C 137.667,102.5 124.333,84.5 111,66.5C 118.993,86.1709 127.326,105.838 136,125.5C 136.667,126.5 136.667,127.5 136,128.5C 118.327,114.455 100.494,100.955 82.5,88C 96.7349,104.399 110.402,121.232 123.5,138.5C 103.955,131.413 84.6215,123.08 65.5,113.5C 64.707,114.355 65.0403,115.189 66.5,116C 83.0126,128.09 99.346,140.424 115.5,153C 94.1225,150.994 72.7891,148.661 51.5,146C 71.7542,154.196 92.0875,162.196 112.5,170C 79.8329,173.333 47.1662,176.667 14.5,180C 47.1916,182.024 79.8583,184.357 112.5,187C 92.2805,195.61 71.9472,203.943 51.5,212C 69.5101,210.111 87.5101,207.778 105.5,205C 108.833,204.333 112.167,204.333 115.5,205C 99.3444,217.244 83.011,229.244 66.5,241C 65.3044,241.654 65.3044,242.154 66.5,242.5C 86.0453,233.386 105.712,224.886 125.5,217C 111.576,233.678 98.576,250.511 86.5,267.5C 103.481,254.643 120.481,242.143 137.5,230C 128.255,249.975 119.755,270.141 112,290.5C 125.667,273.167 139.333,255.833 153,238.5C 149.667,260.496 146.334,282.496 143,304.5C 151.467,283.569 160.467,262.903 170,242.5C 172.207,272.815 174.041,303.148 175.5,333.5C 175.5,334.833 175.5,336.167 175.5,337.5C 116.871,380.488 58.2047,423.488 -0.5,466.5C -0.5,310.833 -0.5,155.167 -0.5,-0.5 Z"/></g>
<g><path style="opacity:1" fill="#e1ad57" d="M 638.5,-0.5 C 638.833,-0.5 639.167,-0.5 639.5,-0.5C 639.5,27.5 639.5,55.5 639.5,83.5C 426.474,215.679 213.14,347.346 -0.5,478.5C -0.5,474.5 -0.5,470.5 -0.5,466.5C 58.2047,423.488 116.871,380.488 175.5,337.5C 177.027,337.573 178.027,336.906 178.5,335.5C 199.715,320.399 220.715,305.066 241.5,289.5C 242.925,291.031 243.591,290.698 243.5,288.5C 251.807,282.853 259.807,276.853 267.5,270.5C 268.167,270.5 268.5,270.167 268.5,269.5C 392.196,179.986 515.53,89.9863 638.5,-0.5 Z"/></g>
<g><path style="opacity:1" fill="#fbfbfd" d="M 296.5,210.5 C 295.791,211.404 294.791,211.737 293.5,211.5C 274.521,208.254 255.521,205.42 236.5,203C 253.833,215.667 271.167,228.333 288.5,241C 289.696,241.654 289.696,242.154 288.5,242.5C 268.282,233.713 247.949,225.546 227.5,218C 241.38,235.041 255.047,252.208 268.5,269.5C 268.5,270.167 268.167,270.5 267.5,270.5C 250.681,255.828 233.515,241.495 216,227.5C 224.606,248.048 233.773,268.382 243.5,288.5C 243.591,290.698 242.925,291.031 241.5,289.5C 228.834,272.199 215.668,255.199 202,238.5C 201.333,241.833 201.333,245.167 202,248.5C 204.49,265.126 206.657,281.792 208.5,298.5C 208.672,299.492 208.338,300.158 207.5,300.5C 200.635,281.075 193.469,261.741 186,242.5C 182.734,272.127 179.901,301.794 177.5,331.5C 176.833,332.167 176.167,332.833 175.5,333.5C 174.041,303.148 172.207,272.815 170,242.5C 160.467,262.903 151.467,283.569 143,304.5C 146.334,282.496 149.667,260.496 153,238.5C 139.333,255.833 125.667,273.167 112,290.5C 119.755,270.141 128.255,249.975 137.5,230C 120.481,242.143 103.481,254.643 86.5,267.5C 98.576,250.511 111.576,233.678 125.5,217C 105.712,224.886 86.0453,233.386 66.5,242.5C 65.3044,242.154 65.3044,241.654 66.5,241C 83.011,229.244 99.3444,217.244 115.5,205C 112.167,204.333 108.833,204.333 105.5,205C 87.5101,207.778 69.5101,210.111 51.5,212C 71.9472,203.943 92.2805,195.61 112.5,187C 79.8583,184.357 47.1916,182.024 14.5,180C 47.1662,176.667 79.8329,173.333 112.5,170C 92.0875,162.196 71.7542,154.196 51.5,146C 72.7891,148.661 94.1225,150.994 115.5,153C 99.346,140.424 83.0126,128.09 66.5,116C 65.0403,115.189 64.707,114.355 65.5,113.5C 84.6215,123.08 103.955,131.413 123.5,138.5C 110.402,121.232 96.7349,104.399 82.5,88C 100.494,100.955 118.327,114.455 136,128.5C 136.667,127.5 136.667,126.5 136,125.5C 127.326,105.838 118.993,86.1709 111,66.5C 124.333,84.5 137.667,102.5 151,120.5C 148.074,97.8302 145.074,75.1635 142,52.5C 150.471,73.5808 159.138,94.5808 168,115.5C 170.61,82.5135 172.943,49.5135 175,16.5C 178.088,49.5323 181.421,82.5323 185,115.5C 192.804,95.0875 200.804,74.7542 209,54.5C 206.409,76.1266 204.076,97.7933 202,119.5C 215.333,102.167 228.667,84.8333 242,67.5C 234.451,88.4634 226.284,109.297 217.5,130C 218.167,130.667 218.833,130.667 219.5,130C 236.825,115.55 254.491,101.883 272.5,89C 257.456,106.375 242.79,124.042 228.5,142C 249.422,133.804 270.422,125.804 291.5,118C 272.833,131 254.167,144 235.5,157C 257.503,154.666 279.503,152.333 301.5,150C 280.77,156.799 260.103,163.799 239.5,171C 271.415,174.661 303.415,177.994 335.5,181C 302.873,183.914 270.206,186.248 237.5,188C 257.073,195.801 276.74,203.301 296.5,210.5 Z"/></g>
<g><path style="opacity:1" fill="#fefefe" d="M 639.5,83.5 C 639.5,115.167 639.5,146.833 639.5,178.5C 433.646,278.595 227.979,378.928 22.5,479.5C 14.8333,479.5 7.16667,479.5 -0.5,479.5C -0.5,479.167 -0.5,478.833 -0.5,478.5C 213.14,347.346 426.474,215.679 639.5,83.5 Z"/></g>
<g><path style="opacity:1" fill="#3b5aa3" d="M 639.5,178.5 C 639.5,278.833 639.5,379.167 639.5,479.5C 433.833,479.5 228.167,479.5 22.5,479.5C 227.979,378.928 433.646,278.595 639.5,178.5 Z"/></g>
<g><path style="opacity:1" fill="#a5b2d4" d="M 296.5,210.5 C 298.512,211.228 300.512,212.062 302.5,213C 299.32,213.137 296.32,212.637 293.5,211.5C 294.791,211.737 295.791,211.404 296.5,210.5 Z"/></g>
<g><path style="opacity:1" fill="#3e5ca3" d="M 267.5,270.5 C 259.807,276.853 251.807,282.853 243.5,288.5C 233.773,268.382 224.606,248.048 216,227.5C 233.515,241.495 250.681,255.828 267.5,270.5 Z"/></g>
<g><path style="opacity:1" fill="#3e5ca3" d="M 241.5,289.5 C 220.715,305.066 199.715,320.399 178.5,335.5C 177.566,334.432 177.232,333.099 177.5,331.5C 179.901,301.794 182.734,272.127 186,242.5C 193.469,261.741 200.635,281.075 207.5,300.5C 207.709,301.922 208.209,303.255 209,304.5C 209.789,302.288 209.622,300.288 208.5,298.5C 206.657,281.792 204.49,265.126 202,248.5C 201.333,245.167 201.333,241.833 202,238.5C 215.668,255.199 228.834,272.199 241.5,289.5 Z"/></g>
<g><path style="opacity:1" fill="#96a6ce" d="M 208.5,298.5 C 209.622,300.288 209.789,302.288 209,304.5C 208.209,303.255 207.709,301.922 207.5,300.5C 208.338,300.158 208.672,299.492 208.5,298.5 Z"/></g>
<g><path style="opacity:1" fill="#aab3cd" d="M 177.5,331.5 C 177.232,333.099 177.566,334.432 178.5,335.5C 178.027,336.906 177.027,337.573 175.5,337.5C 175.5,336.167 175.5,334.833 175.5,333.5C 176.167,332.833 176.833,332.167 177.5,331.5 Z"/></g>
</svg>
