<?xml version="1.0" encoding="UTF-8"?>
<!DOCTYPE svg PUBLIC "-//W3C//DTD SVG 1.1//EN" "http://www.w3.org/Graphics/SVG/1.1/DTD/svg11.dtd">
<svg xmlns="http://www.w3.org/2000/svg" version="1.1" width="640px" height="480px" style="shape-rendering:geometricPrecision; text-rendering:geometricPrecision; image-rendering:optimizeQuality; fill-rule:evenodd; clip-rule:evenodd" xmlns:xlink="http://www.w3.org/1999/xlink">
<g><path style="opacity:1" fill="#cc2a3d" d="M -0.5,-0.5 C 212.833,-0.5 426.167,-0.5 639.5,-0.5C 639.5,23.5 639.5,47.5 639.5,71.5C 426.167,71.5 212.833,71.5 -0.5,71.5C -0.5,47.5 -0.5,23.5 -0.5,-0.5 Z"/></g>
<g><path style="opacity:1" fill="#006232" d="M -0.5,71.5 C 212.833,71.5 426.167,71.5 639.5,71.5C 639.5,183.5 639.5,295.5 639.5,407.5C 426.167,407.5 212.833,407.5 -0.5,407.5C -0.5,295.5 -0.5,183.5 -0.5,71.5 Z"/></g>
<g><path style="opacity:1" fill="#fcc200" d="M 333.5,134.5 C 347.167,135.167 360.833,135.833 374.5,136.5C 363.358,144.475 352.358,152.642 341.5,161C 346.3,174.395 350.467,187.895 354,201.5C 342.765,192.799 331.265,184.466 319.5,176.5C 307.735,184.466 296.235,192.799 285,201.5C 288.525,187.917 292.692,174.417 297.5,161C 286.858,152.346 275.858,144.179 264.5,136.5C 278.5,135.833 292.5,135.167 306.5,134.5C 310.03,120.911 314.363,107.578 319.5,94.5C 324.395,107.858 329.062,121.191 333.5,134.5 Z"/></g>
<g><path style="opacity:1" fill="#a9a311" d="M 306.5,134.5 C 292.5,135.167 278.5,135.833 264.5,136.5C 263.957,136.44 263.624,136.107 263.5,135.5C 277.818,134.501 292.151,134.167 306.5,134.5 Z"/></g>
<g><path style="opacity:1" fill="#a8a311" d="M 333.5,134.5 C 347.837,134.333 362.171,134.5 376.5,135C 375.956,135.717 375.289,136.217 374.5,136.5C 360.833,135.833 347.167,135.167 333.5,134.5 Z"/></g>
<g><path style="opacity:1" fill="#fcc300" d="M 168.5,155.5 C 172.904,219.825 204.237,265.658 262.5,293C 316.361,312.611 366.361,305.611 412.5,272C 448.835,241.828 468.002,202.994 470,155.5C 482.622,217.297 465.789,269.464 419.5,312C 370.408,350.015 316.741,358.015 258.5,336C 198.029,306.761 166.696,258.428 164.5,191C 164.725,179.024 166.058,167.191 168.5,155.5 Z"/></g>
<g><path style="opacity:1" fill="#cc2a3d" d="M -0.5,407.5 C 212.833,407.5 426.167,407.5 639.5,407.5C 639.5,431.5 639.5,455.5 639.5,479.5C 426.167,479.5 212.833,479.5 -0.5,479.5C -0.5,455.5 -0.5,431.5 -0.5,407.5 Z"/></g>
</svg>
