<?xml version="1.0" encoding="UTF-8"?>
<!DOCTYPE svg PUBLIC "-//W3C//DTD SVG 1.1//EN" "http://www.w3.org/Graphics/SVG/1.1/DTD/svg11.dtd">
<svg xmlns="http://www.w3.org/2000/svg" version="1.1" width="640px" height="480px" style="shape-rendering:geometricPrecision; text-rendering:geometricPrecision; image-rendering:optimizeQuality; fill-rule:evenodd; clip-rule:evenodd" xmlns:xlink="http://www.w3.org/1999/xlink">
<g><path style="opacity:1" fill="#fefefe" d="M -0.5,-0.5 C 212.5,-0.5 425.5,-0.5 638.5,-0.5C 638.5,0.166667 638.833,0.5 639.5,0.5C 639.5,159.833 639.5,319.167 639.5,478.5C 638.833,478.5 638.5,478.833 638.5,479.5C 425.833,479.5 213.167,479.5 0.5,479.5C 0.5,478.833 0.166667,478.5 -0.5,478.5C -0.5,318.833 -0.5,159.167 -0.5,-0.5 Z"/></g>
<g><path style="opacity:1" fill="#e57c69" d="M 334.5,47.5 C 329.463,47.4126 324.463,47.746 319.5,48.5C 319.918,47.7784 320.584,47.2784 321.5,47C 326.02,46.1864 330.354,46.353 334.5,47.5 Z"/></g>
<g><path style="opacity:1" fill="#e58474" d="M 357.5,48.5 C 370.656,47.5044 383.99,47.1711 397.5,47.5C 397.5,50.8333 397.5,54.1667 397.5,57.5C 392.5,57.5 387.5,57.5 382.5,57.5C 386.97,56.5139 391.637,56.1805 396.5,56.5C 396.5,53.8333 396.5,51.1667 396.5,48.5C 383.5,48.5 370.5,48.5 357.5,48.5 Z"/></g>
<g><path style="opacity:1" fill="#e99282" d="M 398.5,48.5 C 411.656,47.5044 424.99,47.1711 438.5,47.5C 438.5,50.8333 438.5,54.1667 438.5,57.5C 433.833,57.5 429.167,57.5 424.5,57.5C 424.829,72.0097 424.496,86.3431 423.5,100.5C 423.5,100.167 423.5,99.8333 423.5,99.5C 423.5,85.1667 423.5,70.8333 423.5,56.5C 428.167,56.5 432.833,56.5 437.5,56.5C 437.5,54.1667 437.5,51.8333 437.5,49.5C 424.677,48.5045 411.677,48.1712 398.5,48.5 Z"/></g>
<g><path style="opacity:1" fill="#d53419" d="M 334.5,47.5 C 336.854,47.838 339.187,48.338 341.5,49C 352.442,57.15 356.275,67.9833 353,81.5C 349.2,97.6632 339.033,104.163 322.5,101C 316.887,99.7178 312.72,96.5512 310,91.5C 303.754,79.0011 304.088,66.6678 311,54.5C 313.731,52.2553 316.564,50.2553 319.5,48.5C 324.463,47.746 329.463,47.4126 334.5,47.5 Z"/></g>
<g><path style="opacity:1" fill="#db4e34" d="M 398.5,48.5 C 411.677,48.1712 424.677,48.5045 437.5,49.5C 424.833,49.5 412.167,49.5 399.5,49.5C 399.5,51.8333 399.5,54.1667 399.5,56.5C 404.363,56.1805 409.03,56.5139 413.5,57.5C 408.5,57.5 403.5,57.5 398.5,57.5C 398.5,54.5 398.5,51.5 398.5,48.5 Z"/></g>
<g><path style="opacity:1" fill="#d6381c" d="M 222.5,99.5 C 218.958,99.8128 215.625,99.4794 212.5,98.5C 217.897,81.8097 223.397,65.143 229,48.5C 231.075,47.8656 233.241,47.5323 235.5,47.5C 237.964,47.5899 240.13,48.2565 242,49.5C 248.212,66.3008 253.712,83.3008 258.5,100.5C 255.102,100.82 251.768,100.487 248.5,99.5C 246.879,96.3479 245.879,93.0145 245.5,89.5C 238.8,89.17 232.134,89.5033 225.5,90.5C 224.341,93.4814 223.341,96.4814 222.5,99.5 Z"/></g>
<g><path style="opacity:1" fill="#eda295" d="M 480.5,48.5 C 468.5,48.5 456.5,48.5 444.5,48.5C 444.5,65.5 444.5,82.5 444.5,99.5C 456.833,99.5 469.167,99.5 481.5,99.5C 469.011,100.495 456.344,100.829 443.5,100.5C 443.5,82.8333 443.5,65.1667 443.5,47.5C 456.011,47.1714 468.345,47.5048 480.5,48.5 Z"/></g>
<g><path style="opacity:1" fill="#d53317" d="M 191.5,48.5 C 196.167,48.5 200.833,48.5 205.5,48.5C 205.5,65.5 205.5,82.5 205.5,99.5C 202.833,99.5 200.167,99.5 197.5,99.5C 197.667,85.8293 197.5,72.1626 197,58.5C 196.487,59.5266 195.987,60.5266 195.5,61.5C 192.775,74.1786 189.942,86.8452 187,99.5C 183.333,100.833 179.667,100.833 176,99.5C 173.162,87.4818 170.329,75.4818 167.5,63.5C 167.291,62.0783 166.791,60.745 166,59.5C 165.5,72.8292 165.333,86.1625 165.5,99.5C 162.5,99.5 159.5,99.5 156.5,99.5C 156.5,82.1667 156.5,64.8333 156.5,47.5C 161.5,47.5 166.5,47.5 171.5,47.5C 174.452,60.2562 177.785,72.9228 181.5,85.5C 185.017,73.0872 188.351,60.7538 191.5,48.5 Z"/></g>
<g><path style="opacity:1" fill="#e1705c" d="M 191.5,48.5 C 196.305,47.5128 201.305,47.1795 206.5,47.5C 206.5,65.1667 206.5,82.8333 206.5,100.5C 203.167,100.5 199.833,100.5 196.5,100.5C 196.829,87.3226 196.495,74.3226 195.5,61.5C 195.987,60.5266 196.487,59.5266 197,58.5C 197.5,72.1626 197.667,85.8293 197.5,99.5C 200.167,99.5 202.833,99.5 205.5,99.5C 205.5,82.5 205.5,65.5 205.5,48.5C 200.833,48.5 196.167,48.5 191.5,48.5 Z"/></g>
<g><path style="opacity:1" fill="#d6381c" d="M 258.5,47.5 C 262.514,47.3345 266.514,47.5012 270.5,48C 274.054,54.9445 277.721,61.7778 281.5,68.5C 284.763,61.8762 287.93,55.2095 291,48.5C 294.73,47.5399 298.563,47.2065 302.5,47.5C 297.623,58.2561 292.456,68.9228 287,79.5C 286.5,86.4921 286.334,93.4921 286.5,100.5C 283.167,100.5 279.833,100.5 276.5,100.5C 276.666,93.4921 276.5,86.4921 276,79.5C 269.888,68.9394 264.055,58.2727 258.5,47.5 Z"/></g>
<g><path style="opacity:1" fill="#d53217" d="M 357.5,48.5 C 370.5,48.5 383.5,48.5 396.5,48.5C 396.5,51.1667 396.5,53.8333 396.5,56.5C 391.637,56.1805 386.97,56.5139 382.5,57.5C 382.5,71.8333 382.5,86.1667 382.5,100.5C 379.167,100.5 375.833,100.5 372.5,100.5C 372.5,86.1667 372.5,71.8333 372.5,57.5C 367.5,57.5 362.5,57.5 357.5,57.5C 357.5,54.5 357.5,51.5 357.5,48.5 Z"/></g>
<g><path style="opacity:1" fill="#d32d11" d="M 437.5,49.5 C 437.5,51.8333 437.5,54.1667 437.5,56.5C 432.833,56.5 428.167,56.5 423.5,56.5C 423.5,70.8333 423.5,85.1667 423.5,99.5C 420.5,99.5 417.5,99.5 414.5,99.5C 414.829,85.3234 414.496,71.3234 413.5,57.5C 409.03,56.5139 404.363,56.1805 399.5,56.5C 399.5,54.1667 399.5,51.8333 399.5,49.5C 412.167,49.5 424.833,49.5 437.5,49.5 Z"/></g>
<g><path style="opacity:1" fill="#d43014" d="M 480.5,48.5 C 480.5,51.1667 480.5,53.8333 480.5,56.5C 471.833,56.5 463.167,56.5 454.5,56.5C 454.5,60.1667 454.5,63.8333 454.5,67.5C 461.982,68.492 469.648,68.8254 477.5,68.5C 477.5,71.1667 477.5,73.8333 477.5,76.5C 469.648,76.1746 461.982,76.508 454.5,77.5C 454.5,81.8333 454.5,86.1667 454.5,90.5C 463.5,90.5 472.5,90.5 481.5,90.5C 481.5,93.5 481.5,96.5 481.5,99.5C 469.167,99.5 456.833,99.5 444.5,99.5C 444.5,82.5 444.5,65.5 444.5,48.5C 456.5,48.5 468.5,48.5 480.5,48.5 Z"/></g>
<g><path style="opacity:1" fill="#fef9f8" d="M 325.5,55.5 C 334.055,54.8959 339.888,58.5626 343,66.5C 343.851,72.2531 343.517,77.9198 342,83.5C 337.314,92.2837 330.481,94.4503 321.5,90C 315.053,81.5517 313.887,72.385 318,62.5C 320.084,59.6068 322.584,57.2735 325.5,55.5 Z"/></g>
<g><path style="opacity:1" fill="#de614c" d="M 413.5,57.5 C 414.496,71.3234 414.829,85.3234 414.5,99.5C 417.5,99.5 420.5,99.5 423.5,99.5C 423.5,99.8333 423.5,100.167 423.5,100.5C 420.167,100.5 416.833,100.5 413.5,100.5C 413.5,86.1667 413.5,71.8333 413.5,57.5 Z"/></g>
<g><path style="opacity:1" fill="#eda397" d="M 167.5,63.5 C 166.505,75.6554 166.171,87.9887 166.5,100.5C 162.958,100.813 159.625,100.479 156.5,99.5C 159.5,99.5 162.5,99.5 165.5,99.5C 165.333,86.1625 165.5,72.8292 166,59.5C 166.791,60.745 167.291,62.0783 167.5,63.5 Z"/></g>
<g><path style="opacity:1" fill="#fdefed" d="M 234.5,59.5 C 238.591,65.7713 240.924,72.7713 241.5,80.5C 237.167,80.5 232.833,80.5 228.5,80.5C 230.903,73.6238 232.903,66.6238 234.5,59.5 Z"/></g>
<g><path style="opacity:1" fill="#e78b7b" d="M 454.5,67.5 C 462.5,67.5 470.5,67.5 478.5,67.5C 478.5,70.8333 478.5,74.1667 478.5,77.5C 470.5,77.5 462.5,77.5 454.5,77.5C 461.982,76.508 469.648,76.1746 477.5,76.5C 477.5,73.8333 477.5,71.1667 477.5,68.5C 469.648,68.8254 461.982,68.492 454.5,67.5 Z"/></g>
<g><path style="opacity:1" fill="#e68677" d="M 212.5,98.5 C 215.625,99.4794 218.958,99.8128 222.5,99.5C 218.981,100.808 215.315,100.808 211.5,99.5C 211.624,98.8933 211.957,98.56 212.5,98.5 Z"/></g>
<g><path style="opacity:1" fill="#d9d9d9" d="M 218.5,209.5 C 219.878,215.293 217.544,217.793 211.5,217C 210.667,216.167 209.833,215.333 209,214.5C 208.577,215.956 207.744,216.456 206.5,216C 197.167,209.333 187.833,202.667 178.5,196C 177.87,192.871 177.204,189.704 176.5,186.5C 175.177,189.913 175.344,193.247 177,196.5C 180.333,198.247 183.167,200.58 185.5,203.5C 183.306,204.632 180.973,205.299 178.5,205.5C 173.421,203.129 168.088,201.629 162.5,201C 156.442,194.882 154.942,187.716 158,179.5C 160.001,176.48 161.668,173.48 163,170.5C 158.118,175.194 154.285,180.528 151.5,186.5C 149.655,203.147 156.655,214.147 172.5,219.5C 177.662,220.731 182.996,221.731 188.5,222.5C 190.138,223.159 191.805,223.826 193.5,224.5C 194.614,225.723 194.781,227.056 194,228.5C 189.051,232.393 183.551,235.393 177.5,237.5C 183.452,237.374 188.785,235.207 193.5,231C 198.662,229.576 200.829,231.41 200,236.5C 197.408,239.762 194.241,242.262 190.5,244C 195.142,243.433 199.309,241.599 203,238.5C 205.609,239.809 207.942,241.476 210,243.5C 210.92,246.308 210.087,248.475 207.5,250C 203.482,250.919 199.815,252.586 196.5,255C 201.316,254.088 206.149,252.922 211,251.5C 215.127,252.021 217.794,254.354 219,258.5C 219.667,259.5 219.667,260.5 219,261.5C 214.384,263.544 209.884,265.877 205.5,268.5C 205.833,268.833 206.167,269.167 206.5,269.5C 211.303,267.063 216.303,265.563 221.5,265C 223.87,268.192 225.536,271.692 226.5,275.5C 226.439,278.628 225.106,280.961 222.5,282.5C 220.821,282.892 219.154,283.392 217.5,284C 216.289,284.893 216.289,285.726 217.5,286.5C 220.421,285.593 223.421,285.26 226.5,285.5C 229.259,289.418 228.925,293.251 225.5,297C 224.5,297.333 223.5,297.667 222.5,298C 227.474,298.935 229.474,301.935 228.5,307C 229.301,310.795 227.967,313.295 224.5,314.5C 227.871,316.106 229.204,318.772 228.5,322.5C 228.919,325.747 227.919,328.414 225.5,330.5C 228.1,333.628 228.1,336.795 225.5,340C 226.367,343.105 226.701,346.272 226.5,349.5C 225.325,349.281 224.325,349.614 223.5,350.5C 223.989,365.372 218.989,378.206 208.5,389C 205.935,391.08 203.268,392.913 200.5,394.5C 199.022,394.762 197.689,394.429 196.5,393.5C 197.63,392.378 198.297,391.044 198.5,389.5C 205.296,381.933 211.129,373.6 216,364.5C 225.576,327.574 216.076,296.74 187.5,272C 185.866,271.506 184.199,271.34 182.5,271.5C 182.548,268.708 181.215,266.875 178.5,266C 172.502,262.171 166.169,259.004 159.5,256.5C 153.823,251.822 148.823,246.489 144.5,240.5C 140.471,237.823 136.471,235.156 132.5,232.5C 129.563,223.945 124.063,221.612 116,225.5C 115.289,223.633 115.789,222.133 117.5,221C 120.882,220.824 124.215,220.324 127.5,219.5C 125.584,217.683 123.251,216.516 120.5,216C 123.482,215.502 126.482,215.335 129.5,215.5C 129.037,212.745 127.37,211.078 124.5,210.5C 123.078,210.291 121.745,209.791 120.5,209C 122.5,208.667 124.5,208.333 126.5,208C 127.727,206.413 127.394,205.079 125.5,204C 122.118,203.824 118.785,203.324 115.5,202.5C 119.853,200.19 124.52,198.69 129.5,198C 129.957,197.586 130.291,197.086 130.5,196.5C 128.376,195.851 126.376,195.017 124.5,194C 125.563,192.812 126.897,192.312 128.5,192.5C 128.677,190.019 127.677,188.186 125.5,187C 121.943,185.592 118.276,184.592 114.5,184C 116.116,182.923 117.949,182.423 120,182.5C 124.488,183.333 128.988,183.5 133.5,183C 134.687,178.167 133.354,174.001 129.5,170.5C 130.365,169.417 131.365,169.251 132.5,170C 134.833,171.5 137.167,173 139.5,174.5C 140.086,174.291 140.586,173.957 141,173.5C 141.497,171.19 141.663,168.857 141.5,166.5C 143.167,166.5 144.833,166.5 146.5,166.5C 146.5,164.5 146.5,162.5 146.5,160.5C 148.604,160.799 150.604,160.466 152.5,159.5C 150.016,156.516 147.35,153.682 144.5,151C 144.833,150.833 145.167,150.667 145.5,150.5C 150.227,152.939 154.894,155.272 159.5,157.5C 159.373,155.085 159.207,152.751 159,150.5C 160.264,152.607 162.097,153.607 164.5,153.5C 164.34,151.801 164.506,150.134 165,148.5C 165.837,150.007 167.004,150.507 168.5,150C 169.249,148.266 169.749,146.433 170,144.5C 170.249,145.624 170.749,146.624 171.5,147.5C 175.34,145.079 179.34,142.912 183.5,141C 195.121,140.062 195.454,141.729 184.5,146C 174.879,154.075 175.546,161.242 186.5,167.5C 190.535,165.973 192.702,162.973 193,158.5C 193.333,160.833 193.667,163.167 194,165.5C 194.915,164.672 195.581,163.672 196,162.5C 196.895,164.804 197.729,167.138 198.5,169.5C 199.799,168.91 200.632,167.91 201,166.5C 201.497,168.81 201.663,171.143 201.5,173.5C 202.5,173.5 203.5,173.5 204.5,173.5C 203.637,176.374 202.303,179.041 200.5,181.5C 202.829,186.652 204.662,191.985 206,197.5C 208.717,203.051 212.883,207.051 218.5,209.5 Z"/></g>
<g><path style="opacity:1" fill="#a9a9a9" d="M 237.5,141.5 C 291.997,140.501 346.664,140.168 401.5,140.5C 401.833,208.669 401.499,276.669 400.5,344.5C 400.5,276.833 400.5,209.167 400.5,141.5C 346.167,141.5 291.833,141.5 237.5,141.5 Z"/></g>
<g><path style="opacity:1" fill="#212121" d="M 237.5,141.5 C 291.833,141.5 346.167,141.5 400.5,141.5C 400.5,209.167 400.5,276.833 400.5,344.5C 399.757,348.915 397.424,352.248 393.5,354.5C 393.167,354.5 392.833,354.5 392.5,354.5C 394.5,352.329 396.334,349.996 398,347.5C 398.5,279.501 398.667,211.501 398.5,143.5C 345.5,143.5 292.5,143.5 239.5,143.5C 238.833,211.167 238.167,278.833 237.5,346.5C 237.5,278.167 237.5,209.833 237.5,141.5 Z"/></g>
<g><path style="opacity:1" fill="#d8d8d8" d="M 467.5,145.5 C 468.978,147.645 470.312,149.979 471.5,152.5C 472.333,151.5 473.167,150.5 474,149.5C 473.951,156.741 475.951,157.407 480,151.5C 480.004,153.368 479.504,155.202 478.5,157C 478.667,158.5 479.5,159.333 481,159.5C 484.773,156.351 488.939,154.184 493.5,153C 490.462,155.703 487.795,158.703 485.5,162C 487.81,162.497 490.143,162.663 492.5,162.5C 492.5,164.167 492.5,165.833 492.5,167.5C 494.167,167.5 495.833,167.5 497.5,167.5C 497.38,169.199 497.046,170.865 496.5,172.5C 496.58,174.33 497.413,175.663 499,176.5C 508.782,169.014 510.448,170.347 504,180.5C 503.316,181.784 503.483,182.951 504.5,184C 510.504,184.3 516.504,184.134 522.5,183.5C 522.804,184.15 523.137,184.817 523.5,185.5C 517.603,185.565 512.936,187.899 509.5,192.5C 511.275,193.957 513.275,195.124 515.5,196C 513.212,196.822 510.878,197.489 508.5,198C 508.833,198.333 509.167,198.667 509.5,199C 513.516,200.502 517.516,202.002 521.5,203.5C 518.893,204.318 516.226,204.818 513.5,205C 511.845,206.444 511.178,208.278 511.5,210.5C 512.873,210.343 514.207,210.51 515.5,211C 513.781,212.057 511.947,212.89 510,213.5C 509.51,214.793 509.343,216.127 509.5,217.5C 511.527,217.338 513.527,217.505 515.5,218C 512.553,218.112 511.22,219.612 511.5,222.5C 514.85,222.335 518.183,222.502 521.5,223C 523.26,223.965 523.594,225.132 522.5,226.5C 514.73,222.927 509.563,225.26 507,233.5C 498.8,237.03 492.467,242.697 488,250.5C 484.535,252.963 481.369,255.796 478.5,259C 475.246,259.25 472.246,260.25 469.5,262C 463.302,266.263 456.969,270.263 450.5,274C 441.813,282.176 434.48,291.342 428.5,301.5C 418.574,322.289 416.74,343.955 423,366.5C 428.582,377.755 436.082,387.588 445.5,396C 453.863,399.657 462.53,400.49 471.5,398.5C 475.468,397.606 479.468,396.773 483.5,396C 486.732,393.255 490.065,390.755 493.5,388.5C 500.115,382.41 504.115,374.744 505.5,365.5C 507.046,358.812 506.546,352.145 504,345.5C 503.583,346.756 502.75,347.423 501.5,347.5C 501.167,346.833 500.833,346.167 500.5,345.5C 501.309,343.987 501.476,342.32 501,340.5C 502.044,341.623 502.71,342.956 503,344.5C 503.635,342.365 503.301,340.365 502,338.5C 499.86,336.36 497.694,334.194 495.5,332C 494.207,331.51 492.873,331.343 491.5,331.5C 483.505,328.808 477.005,330.808 472,337.5C 471.123,339.674 471.623,341.341 473.5,342.5C 473.762,343.978 473.429,345.311 472.5,346.5C 466.045,341.246 466.045,335.746 472.5,330C 484.396,323.955 494.896,325.789 504,335.5C 512.073,353.4 511.073,370.734 501,387.5C 487.177,402.067 470.344,406.9 450.5,402C 438.739,398.563 429.573,391.73 423,381.5C 417.09,372.36 414.59,362.527 415.5,352C 414.552,351.517 413.552,351.351 412.5,351.5C 412.216,348.223 412.549,345.057 413.5,342C 409.566,338.877 409.566,335.71 413.5,332.5C 409.527,327.034 409.527,321.534 413.5,316C 410.56,314.953 409.226,312.786 409.5,309.5C 408.977,304.034 411.311,300.534 416.5,299C 410.934,297.707 409.1,294.207 411,288.5C 411.956,287.106 413.289,286.439 415,286.5C 417.478,287.332 419.978,287.499 422.5,287C 414.574,285.753 411.407,281.253 413,273.5C 413.942,270.399 415.776,268.066 418.5,266.5C 423.127,268.217 427.793,269.383 432.5,270C 429.03,267.853 425.363,266.187 421.5,265C 418.988,259.969 420.321,255.969 425.5,253C 430.414,254.282 435.414,255.282 440.5,256C 436.423,254.213 432.59,252.046 429,249.5C 428.238,244.247 430.572,241.247 436,240.5C 440.576,243.54 445.41,246.207 450.5,248.5C 451.711,247.726 451.711,246.893 450.5,246C 445.723,244.867 441.89,242.367 439,238.5C 437.5,233.333 439.333,231.5 444.5,233C 447.833,235 451.167,237 454.5,239C 456.5,239.667 458.5,239.667 460.5,239C 455.586,237.21 450.919,234.876 446.5,232C 442.666,228.047 443.666,225.38 449.5,224C 458.841,222.932 467.841,220.599 476.5,217C 491.726,203.09 492.226,188.923 478,174.5C 480.151,179.35 481.651,184.517 482.5,190C 482.382,194.157 481.049,197.824 478.5,201C 473.547,202.772 468.547,204.438 463.5,206C 460.5,206.667 457.5,206.667 454.5,206C 453.549,205.282 453.383,204.449 454,203.5C 459.393,201.446 462.559,197.613 463.5,192C 463.491,190.596 462.991,189.43 462,188.5C 461.667,191.167 461.333,193.833 461,196.5C 451.333,203.5 441.667,210.5 432,217.5C 431.667,216.5 431.333,215.5 431,214.5C 428.978,217.759 426.145,219.259 422.5,219C 419.913,217.475 419.08,215.308 420,212.5C 424.279,208.711 428.279,204.711 432,200.5C 433.687,194.599 435.854,188.932 438.5,183.5C 436.87,180.857 435.203,178.191 433.5,175.5C 434.689,174.571 436.022,174.238 437.5,174.5C 437.34,172.801 437.506,171.134 438,169.5C 439.011,170.337 440.178,170.67 441.5,170.5C 441.44,166.673 442.607,166.006 445,168.5C 445.333,165.833 445.667,163.167 446,160.5C 447.728,170.339 451.728,171.672 458,164.5C 460.758,161.662 461.758,158.329 461,154.5C 456.961,149.125 451.794,145.291 445.5,143C 453.451,141.368 460.451,143.534 466.5,149.5C 467.429,148.311 467.762,146.978 467.5,145.5 Z"/></g>
<g><path style="opacity:1" fill="#f7f7f7" d="M 239.5,143.5 C 292.5,143.5 345.5,143.5 398.5,143.5C 398.667,211.501 398.5,279.501 398,347.5C 396.334,349.996 394.5,352.329 392.5,354.5C 389.185,355.329 385.852,356.162 382.5,357C 367.5,357.333 352.5,357.667 337.5,358C 336.263,358.232 335.263,358.732 334.5,359.5C 326.283,359.528 321.117,363.528 319,371.5C 318.063,368.344 316.563,365.511 314.5,363C 308.873,360.623 303.207,358.79 297.5,357.5C 284.996,356.462 272.33,356.462 259.5,357.5C 251.582,356.958 245.082,353.624 240,347.5C 239.5,279.501 239.333,211.501 239.5,143.5 Z"/></g>
<g><path style="opacity:1" fill="#161693" d="M 390.5,240.5 C 388.807,243.184 387.14,245.851 385.5,248.5C 341.833,248.5 298.167,248.5 254.5,248.5C 247.571,242.549 245.405,235.216 248,226.5C 250.296,223.403 252.463,220.237 254.5,217C 251.586,213.085 249.086,208.919 247,204.5C 246.299,201.072 246.632,197.738 248,194.5C 249.97,191.032 252.136,187.699 254.5,184.5C 246.292,175.8 245.459,166.467 252,156.5C 256.967,152.318 262.467,151.484 268.5,154C 271.63,156.128 274.463,158.628 277,161.5C 286.462,150.864 295.962,150.864 305.5,161.5C 307.984,159.517 310.317,157.35 312.5,155C 317.167,153 321.833,153 326.5,155C 328.683,157.35 331.016,159.517 333.5,161.5C 336.354,158.812 339.354,156.312 342.5,154C 345.833,153.333 349.167,153.333 352.5,154C 355.36,156.36 358.36,158.527 361.5,160.5C 364.975,158.192 368.308,155.692 371.5,153C 383.01,151.507 389.677,156.507 391.5,168C 391.363,170.898 390.863,173.731 390,176.5C 388.041,178.777 386.541,181.277 385.5,184C 386.866,187.712 388.699,191.212 391,194.5C 391.667,198.5 391.667,202.5 391,206.5C 388.959,210.084 386.792,213.584 384.5,217C 386.792,220.416 388.959,223.916 391,227.5C 391.706,231.887 391.54,236.22 390.5,240.5 Z"/></g>
<g><path style="opacity:1" fill="#1a1922" d="M 285.5,152.5 C 289.898,152.294 294.232,152.627 298.5,153.5C 300.814,155.477 303.147,157.477 305.5,159.5C 311.516,151.275 319.183,149.442 328.5,154C 330.351,155.684 332.018,157.517 333.5,159.5C 335.984,157.517 338.317,155.35 340.5,153C 348.779,150.538 355.946,152.372 362,158.5C 372.01,147.832 381.677,148.166 391,159.5C 393.941,168.721 392.441,177.055 386.5,184.5C 395.735,195.268 395.735,206.101 386.5,217C 393.042,223.978 394.709,231.811 391.5,240.5C 391.167,240.5 390.833,240.5 390.5,240.5C 391.54,236.22 391.706,231.887 391,227.5C 388.959,223.916 386.792,220.416 384.5,217C 386.792,213.584 388.959,210.084 391,206.5C 391.667,202.5 391.667,198.5 391,194.5C 388.699,191.212 386.866,187.712 385.5,184C 386.541,181.277 388.041,178.777 390,176.5C 390.863,173.731 391.363,170.898 391.5,168C 389.677,156.507 383.01,151.507 371.5,153C 368.308,155.692 364.975,158.192 361.5,160.5C 358.36,158.527 355.36,156.36 352.5,154C 349.167,153.333 345.833,153.333 342.5,154C 339.354,156.312 336.354,158.812 333.5,161.5C 331.016,159.517 328.683,157.35 326.5,155C 321.833,153 317.167,153 312.5,155C 310.317,157.35 307.984,159.517 305.5,161.5C 295.962,150.864 286.462,150.864 277,161.5C 274.463,158.628 271.63,156.128 268.5,154C 262.467,151.484 256.967,152.318 252,156.5C 245.459,166.467 246.292,175.8 254.5,184.5C 252.136,187.699 249.97,191.032 248,194.5C 246.632,197.738 246.299,201.072 247,204.5C 249.086,208.919 251.586,213.085 254.5,217C 252.463,220.237 250.296,223.403 248,226.5C 245.405,235.216 247.571,242.549 254.5,248.5C 253.833,248.5 253.5,248.833 253.5,249.5C 253.167,249.5 252.833,249.5 252.5,249.5C 243.246,238.636 243.246,227.803 252.5,217C 243.209,206.243 243.209,195.577 252.5,185C 251.047,181.928 249.213,179.095 247,176.5C 243.458,164.43 247.292,155.93 258.5,151C 266.172,150.417 272.338,153.251 277,159.5C 279.436,156.553 282.269,154.22 285.5,152.5 Z"/></g>
<g><path style="opacity:1" fill="#808081" d="M 285.5,152.5 C 289.311,151.355 293.311,151.188 297.5,152C 298.056,152.383 298.389,152.883 298.5,153.5C 294.232,152.627 289.898,152.294 285.5,152.5 Z"/></g>
<g><path style="opacity:1" fill="#8d8d8d" d="M 491.5,158.5 C 492.568,159.434 493.901,159.768 495.5,159.5C 495.737,160.791 495.404,161.791 494.5,162.5C 493.665,161.057 492.332,160.057 490.5,159.5C 490.624,158.893 490.957,158.56 491.5,158.5 Z"/></g>
<g><path style="opacity:1" fill="#707070" d="M 134.5,168.5 C 132.874,168.062 131.207,167.728 129.5,167.5C 127.97,167.64 126.97,168.307 126.5,169.5C 125.596,168.791 125.263,167.791 125.5,166.5C 128.187,166.336 130.854,166.503 133.5,167C 134.056,167.383 134.389,167.883 134.5,168.5 Z"/></g>
<g><path style="opacity:1" fill="#1f1f1f" d="M 467.5,142.5 C 469.309,144.099 470.642,146.099 471.5,148.5C 472.5,147.833 473.5,147.167 474.5,146.5C 475.167,148.5 475.833,150.5 476.5,152.5C 478.071,150.585 480.071,149.585 482.5,149.5C 482.08,151.674 482.08,153.674 482.5,155.5C 488.104,151.023 494.438,148.856 501.5,149C 497.666,151.668 494.333,154.835 491.5,158.5C 490.957,158.56 490.624,158.893 490.5,159.5C 492.332,160.057 493.665,161.057 494.5,162.5C 495.552,164.256 497.219,164.923 499.5,164.5C 499.425,167.206 499.092,169.873 498.5,172.5C 502.293,171.433 505.96,170.1 509.5,168.5C 511.067,168.477 512.4,168.977 513.5,170C 509.2,173.102 506.867,177.269 506.5,182.5C 512.333,181.6 518,181.6 523.5,182.5C 523.5,183.167 523.167,183.5 522.5,183.5C 516.504,184.134 510.504,184.3 504.5,184C 503.483,182.951 503.316,181.784 504,180.5C 510.448,170.347 508.782,169.014 499,176.5C 497.413,175.663 496.58,174.33 496.5,172.5C 497.046,170.865 497.38,169.199 497.5,167.5C 495.833,167.5 494.167,167.5 492.5,167.5C 492.5,165.833 492.5,164.167 492.5,162.5C 490.143,162.663 487.81,162.497 485.5,162C 487.795,158.703 490.462,155.703 493.5,153C 488.939,154.184 484.773,156.351 481,159.5C 479.5,159.333 478.667,158.5 478.5,157C 479.504,155.202 480.004,153.368 480,151.5C 475.951,157.407 473.951,156.741 474,149.5C 473.167,150.5 472.333,151.5 471.5,152.5C 470.312,149.979 468.978,147.645 467.5,145.5C 467.5,144.5 467.5,143.5 467.5,142.5 Z"/></g>
<g><path style="opacity:1" fill="#262626" d="M 218.5,209.5 C 212.883,207.051 208.717,203.051 206,197.5C 204.662,191.985 202.829,186.652 200.5,181.5C 202.303,179.041 203.637,176.374 204.5,173.5C 203.5,173.5 202.5,173.5 201.5,173.5C 201.663,171.143 201.497,168.81 201,166.5C 200.632,167.91 199.799,168.91 198.5,169.5C 197.729,167.138 196.895,164.804 196,162.5C 195.581,163.672 194.915,164.672 194,165.5C 193.667,163.167 193.333,160.833 193,158.5C 192.702,162.973 190.535,165.973 186.5,167.5C 175.546,161.242 174.879,154.075 184.5,146C 195.454,141.729 195.121,140.062 183.5,141C 179.34,142.912 175.34,145.079 171.5,147.5C 170.749,146.624 170.249,145.624 170,144.5C 169.749,146.433 169.249,148.266 168.5,150C 167.004,150.507 165.837,150.007 165,148.5C 164.506,150.134 164.34,151.801 164.5,153.5C 162.097,153.607 160.264,152.607 159,150.5C 159.207,152.751 159.373,155.085 159.5,157.5C 154.894,155.272 150.227,152.939 145.5,150.5C 145.167,150.667 144.833,150.833 144.5,151C 147.35,153.682 150.016,156.516 152.5,159.5C 150.604,160.466 148.604,160.799 146.5,160.5C 146.5,162.5 146.5,164.5 146.5,166.5C 144.833,166.5 143.167,166.5 141.5,166.5C 141.663,168.857 141.497,171.19 141,173.5C 140.586,173.957 140.086,174.291 139.5,174.5C 137.167,173 134.833,171.5 132.5,170C 131.365,169.251 130.365,169.417 129.5,170.5C 133.354,174.001 134.687,178.167 133.5,183C 128.988,183.5 124.488,183.333 120,182.5C 117.949,182.423 116.116,182.923 114.5,184C 118.276,184.592 121.943,185.592 125.5,187C 127.677,188.186 128.677,190.019 128.5,192.5C 126.897,192.312 125.563,192.812 124.5,194C 126.376,195.017 128.376,195.851 130.5,196.5C 130.291,197.086 129.957,197.586 129.5,198C 124.52,198.69 119.853,200.19 115.5,202.5C 118.785,203.324 122.118,203.824 125.5,204C 127.394,205.079 127.727,206.413 126.5,208C 124.5,208.333 122.5,208.667 120.5,209C 121.745,209.791 123.078,210.291 124.5,210.5C 123.791,211.404 122.791,211.737 121.5,211.5C 118.654,211.97 116.321,211.137 114.5,209C 115.563,207.812 116.897,207.312 118.5,207.5C 120.564,207.313 122.564,206.813 124.5,206C 120.514,205.501 116.514,205.334 112.5,205.5C 112.5,204.167 112.5,202.833 112.5,201.5C 116.048,199.101 120.048,197.601 124.5,197C 117.609,193.812 117.942,191.479 125.5,190C 123.779,188.473 121.779,187.473 119.5,187C 110.005,187.766 108.672,185.433 115.5,180C 121.157,179.905 126.824,180.072 132.5,180.5C 131.802,176.103 129.802,172.436 126.5,169.5C 126.97,168.307 127.97,167.64 129.5,167.5C 131.207,167.728 132.874,168.062 134.5,168.5C 135.78,169.931 137.447,170.598 139.5,170.5C 139.5,168.167 139.5,165.833 139.5,163.5C 141.167,163.5 142.833,163.5 144.5,163.5C 144.579,162.07 144.246,160.736 143.5,159.5C 147.278,158.952 148.112,157.285 146,154.5C 142.996,152.326 140.163,149.992 137.5,147.5C 140.451,146.776 143.451,146.943 146.5,148C 150,150.167 153.5,152.333 157,154.5C 156.563,152.243 156.063,149.91 155.5,147.5C 158.588,147.639 161.255,148.639 163.5,150.5C 163.215,148.712 163.548,147.045 164.5,145.5C 165.478,145.977 166.311,146.643 167,147.5C 167.896,144.918 169.229,142.584 171,140.5C 171.583,142.002 172.416,143.335 173.5,144.5C 176.304,142.862 178.971,141.029 181.5,139C 185.5,138.333 189.5,138.333 193.5,139C 195.158,139.725 195.658,140.892 195,142.5C 189.548,144.286 184.882,147.286 181,151.5C 179.061,157.644 181.061,162.31 187,165.5C 189.879,162.053 191.712,158.053 192.5,153.5C 192.833,153.667 193.167,153.833 193.5,154C 194.264,156.069 194.764,158.236 195,160.5C 195.535,158.729 196.369,158.396 197.5,159.5C 198.041,161.535 198.708,163.535 199.5,165.5C 200.478,165.023 201.311,164.357 202,163.5C 203.352,165.594 203.852,167.927 203.5,170.5C 204.5,170.5 205.5,170.5 206.5,170.5C 206.662,172.527 206.495,174.527 206,176.5C 204.203,177.927 203.036,179.76 202.5,182C 204.716,187.031 206.549,192.198 208,197.5C 211.761,201.416 215.261,205.416 218.5,209.5 Z"/></g>
<g><path style="opacity:1" fill="#14131a" d="M 297.5,181.5 C 298.822,189.625 301.656,197.291 306,204.5C 319.862,213.278 330.862,210.612 339,196.5C 340.178,191.457 341.511,186.457 343,181.5C 351.477,197.802 349.31,212.635 336.5,226C 315.214,236.466 300.714,230.299 293,207.5C 291.282,198.199 292.782,189.533 297.5,181.5 Z"/></g>
<g><path style="opacity:1" fill="#2f2f2f" d="M 178.5,179.5 C 184.815,177.247 190.315,178.58 195,183.5C 196.357,189.981 193.857,192.481 187.5,191C 183.699,187.624 183.699,184.124 187.5,180.5C 184.572,179.516 181.572,179.183 178.5,179.5 Z"/></g>
<g><path style="opacity:1" fill="#c0c0c0" d="M 188.5,181.5 C 192.976,181.822 194.476,184.156 193,188.5C 189.509,191.446 187.342,190.612 186.5,186C 186.519,184.167 187.185,182.667 188.5,181.5 Z"/></g>
<g><path style="opacity:1" fill="#212121" d="M 188.5,184.5 C 189.5,184.5 190.5,184.5 191.5,184.5C 190.5,189.833 189.5,189.833 188.5,184.5 Z"/></g>
<g><path style="opacity:1" fill="#f4f4f4" d="M 330.5,226.5 C 325.324,228.184 319.991,228.85 314.5,228.5C 306.497,225.249 300.664,219.582 297,211.5C 292.402,203.471 292.402,195.471 297,187.5C 300.463,209.017 312.296,216.184 332.5,209C 338.271,202.963 342.104,195.797 344,187.5C 348.801,204.058 344.301,217.058 330.5,226.5 Z"/></g>
<g><path style="opacity:1" fill="#323232" d="M 218.5,209.5 C 222.37,212.297 222.37,215.13 218.5,218C 213.168,220.239 208.168,219.572 203.5,216C 198.481,213.157 193.814,209.824 189.5,206C 185.635,205.423 181.968,205.923 178.5,207.5C 175.994,207.779 173.994,206.946 172.5,205C 159.951,204.781 153.784,198.281 154,185.5C 153.722,186.416 153.222,187.082 152.5,187.5C 152.5,186.833 152.167,186.5 151.5,186.5C 154.285,180.528 158.118,175.194 163,170.5C 161.668,173.48 160.001,176.48 158,179.5C 154.942,187.716 156.442,194.882 162.5,201C 168.088,201.629 173.421,203.129 178.5,205.5C 180.973,205.299 183.306,204.632 185.5,203.5C 183.167,200.58 180.333,198.247 177,196.5C 175.344,193.247 175.177,189.913 176.5,186.5C 177.204,189.704 177.87,192.871 178.5,196C 187.833,202.667 197.167,209.333 206.5,216C 207.744,216.456 208.577,215.956 209,214.5C 209.833,215.333 210.667,216.167 211.5,217C 217.544,217.793 219.878,215.293 218.5,209.5 Z"/></g>
<g><path style="opacity:1" fill="#a1a1a1" d="M 112.5,201.5 C 112.5,202.833 112.5,204.167 112.5,205.5C 116.514,205.334 120.514,205.501 124.5,206C 122.564,206.813 120.564,207.313 118.5,207.5C 116.393,206.532 114.059,206.198 111.5,206.5C 111.216,204.585 111.549,202.919 112.5,201.5 Z"/></g>
<g><path style="opacity:1" fill="#2d2d2d" d="M 467.5,142.5 C 467.5,143.5 467.5,144.5 467.5,145.5C 467.762,146.978 467.429,148.311 466.5,149.5C 460.451,143.534 453.451,141.368 445.5,143C 451.794,145.291 456.961,149.125 461,154.5C 461.758,158.329 460.758,161.662 458,164.5C 451.728,171.672 447.728,170.339 446,160.5C 445.667,163.167 445.333,165.833 445,168.5C 442.607,166.006 441.44,166.673 441.5,170.5C 440.178,170.67 439.011,170.337 438,169.5C 437.506,171.134 437.34,172.801 437.5,174.5C 436.022,174.238 434.689,174.571 433.5,175.5C 435.203,178.191 436.87,180.857 438.5,183.5C 435.854,188.932 433.687,194.599 432,200.5C 428.279,204.711 424.279,208.711 420,212.5C 419.08,215.308 419.913,217.475 422.5,219C 426.145,219.259 428.978,217.759 431,214.5C 431.333,215.5 431.667,216.5 432,217.5C 441.667,210.5 451.333,203.5 461,196.5C 461.333,193.833 461.667,191.167 462,188.5C 462.991,189.43 463.491,190.596 463.5,192C 462.559,197.613 459.393,201.446 454,203.5C 453.383,204.449 453.549,205.282 454.5,206C 457.5,206.667 460.5,206.667 463.5,206C 468.547,204.438 473.547,202.772 478.5,201C 481.049,197.824 482.382,194.157 482.5,190C 481.651,184.517 480.151,179.35 478,174.5C 492.226,188.923 491.726,203.09 476.5,217C 467.841,220.599 458.841,222.932 449.5,224C 443.666,225.38 442.666,228.047 446.5,232C 450.919,234.876 455.586,237.21 460.5,239C 458.5,239.667 456.5,239.667 454.5,239C 451.167,237 447.833,235 444.5,233C 439.333,231.5 437.5,233.333 439,238.5C 441.89,242.367 445.723,244.867 450.5,246C 451.711,246.893 451.711,247.726 450.5,248.5C 445.41,246.207 440.576,243.54 436,240.5C 430.572,241.247 428.238,244.247 429,249.5C 432.59,252.046 436.423,254.213 440.5,256C 435.414,255.282 430.414,254.282 425.5,253C 420.321,255.969 418.988,259.969 421.5,265C 425.363,266.187 429.03,267.853 432.5,270C 427.793,269.383 423.127,268.217 418.5,266.5C 415.776,268.066 413.942,270.399 413,273.5C 411.407,281.253 414.574,285.753 422.5,287C 419.978,287.499 417.478,287.332 415,286.5C 413.289,286.439 411.956,287.106 411,288.5C 409.1,294.207 410.934,297.707 416.5,299C 411.311,300.534 408.977,304.034 409.5,309.5C 409.226,312.786 410.56,314.953 413.5,316C 409.527,321.534 409.527,327.034 413.5,332.5C 409.566,335.71 409.566,338.877 413.5,342C 412.549,345.057 412.216,348.223 412.5,351.5C 413.552,351.351 414.552,351.517 415.5,352C 414.59,362.527 417.09,372.36 423,381.5C 429.573,391.73 438.739,398.563 450.5,402C 470.344,406.9 487.177,402.067 501,387.5C 511.073,370.734 512.073,353.4 504,335.5C 494.896,325.789 484.396,323.955 472.5,330C 466.045,335.746 466.045,341.246 472.5,346.5C 473.429,345.311 473.762,343.978 473.5,342.5C 475.28,343.99 475.946,345.99 475.5,348.5C 471.766,348.982 468.933,347.649 467,344.5C 465.15,331.009 471.15,324.342 485,324.5C 494.245,323.955 501.245,327.622 506,335.5C 515.889,357.496 512.722,377.33 496.5,395C 483.94,403.916 469.94,407.249 454.5,405C 434.648,400.15 421.481,387.984 415,368.5C 412.681,358.26 410.514,348.094 408.5,338C 408.879,335.908 409.546,333.908 410.5,332C 408.314,327.137 407.981,322.137 409.5,317C 406.529,310.76 406.863,304.76 410.5,299C 407.836,293.648 407.836,288.315 410.5,283C 409.464,279.879 409.297,276.713 410,273.5C 413.553,268.386 416.553,263.053 419,257.5C 422.93,253.912 425.597,249.579 427,244.5C 428.878,242.957 430.378,241.124 431.5,239C 432.793,238.51 434.127,238.343 435.5,238.5C 435.755,235.984 436.589,233.65 438,231.5C 441.34,225.831 446.173,221.998 452.5,220C 477.268,220.575 487.768,208.742 484,184.5C 485.263,192.838 482.763,199.671 476.5,205C 473.5,205.333 470.5,205.667 467.5,206C 465.194,207.986 462.528,209.153 459.5,209.5C 455.976,207.912 452.309,207.412 448.5,208C 442.01,213.157 435.01,217.491 427.5,221C 421.312,222.134 418.146,219.634 418,213.5C 422.333,208.5 426.667,203.5 431,198.5C 432.284,193.272 434.117,188.272 436.5,183.5C 435.233,181.056 433.733,178.723 432,176.5C 431.506,174.866 431.34,173.199 431.5,171.5C 432.833,171.5 434.167,171.5 435.5,171.5C 435.201,169.396 435.534,167.396 436.5,165.5C 437.609,166.59 438.609,166.59 439.5,165.5C 440.874,161.774 442.874,158.441 445.5,155.5C 447.188,159.707 449.355,163.707 452,167.5C 456.427,164.638 458.76,160.638 459,155.5C 458.535,154.069 457.701,152.903 456.5,152C 452.144,148.708 447.477,145.875 442.5,143.5C 445.197,139.832 448.864,138.665 453.5,140C 457.896,141.87 462.229,143.703 466.5,145.5C 466.263,144.209 466.596,143.209 467.5,142.5 Z"/></g>
<g><path style="opacity:1" fill="#2c2c2c" d="M 450.5,179.5 C 453.898,179.18 457.232,179.513 460.5,180.5C 457.233,180.11 453.899,180.61 450.5,182C 454.032,185.39 454.366,189.057 451.5,193C 444.806,194.176 442.306,191.343 444,184.5C 445.965,182.45 448.132,180.783 450.5,179.5 Z"/></g>
<g><path style="opacity:1" fill="#b3b3b3" d="M 447.5,183.5 C 452.182,183.875 453.516,186.208 451.5,190.5C 448.203,192.212 445.87,191.379 444.5,188C 444.957,186.06 445.957,184.56 447.5,183.5 Z"/></g>
<g><path style="opacity:1" fill="#090909" d="M 447.5,186.5 C 449.465,186.948 449.798,187.948 448.5,189.5C 447.614,188.675 447.281,187.675 447.5,186.5 Z"/></g>
<g><path style="opacity:1" fill="#393939" d="M 124.5,210.5 C 127.37,211.078 129.037,212.745 129.5,215.5C 126.482,215.335 123.482,215.502 120.5,216C 123.251,216.516 125.584,217.683 127.5,219.5C 124.215,220.324 120.882,220.824 117.5,221C 115.789,222.133 115.289,223.633 116,225.5C 124.063,221.612 129.563,223.945 132.5,232.5C 131.662,232.842 131.328,233.508 131.5,234.5C 129.38,232.028 127.714,229.194 126.5,226C 122.556,225.01 118.889,225.51 115.5,227.5C 112.218,222.571 113.551,219.404 119.5,218C 117.939,217.059 116.605,215.892 115.5,214.5C 118.447,213.679 121.447,213.179 124.5,213C 123.263,212.768 122.263,212.268 121.5,211.5C 122.791,211.737 123.791,211.404 124.5,210.5 Z"/></g>
<g><path style="opacity:1" fill="#727272" d="M 172.5,219.5 C 178.194,219.24 183.527,220.24 188.5,222.5C 182.996,221.731 177.662,220.731 172.5,219.5 Z"/></g>
<g><path style="opacity:1" fill="#5b5b5b" d="M 330.5,226.5 C 329.653,227.966 328.32,228.8 326.5,229C 322.311,229.812 318.311,229.645 314.5,228.5C 319.991,228.85 325.324,228.184 330.5,226.5 Z"/></g>
<g><path style="opacity:1" fill="#262626" d="M 151.5,186.5 C 152.167,186.5 152.5,186.833 152.5,187.5C 151.769,201.553 157.769,211.387 170.5,217C 177.475,218.119 184.475,219.119 191.5,220C 195.072,223.234 198.239,226.734 201,230.5C 202,232.5 203,234.5 204,236.5C 210.042,239.228 213.709,243.895 215,250.5C 218.879,253.591 221.212,257.591 222,262.5C 228.208,267.349 230.041,273.516 227.5,281C 229.787,286.295 230.12,291.795 228.5,297.5C 230.988,303.279 230.988,308.946 228.5,314.5C 231.961,338.575 227.794,361.241 216,382.5C 207.331,394.754 195.498,401.754 180.5,403.5C 173.798,403.664 167.131,403.331 160.5,402.5C 155.654,401.081 150.987,399.081 146.5,396.5C 146.5,395.833 146.833,395.5 147.5,395.5C 159.887,401.637 172.887,403.137 186.5,400C 191.612,399.024 196.278,397.191 200.5,394.5C 203.268,392.913 205.935,391.08 208.5,389C 218.989,378.206 223.989,365.372 223.5,350.5C 224.325,349.614 225.325,349.281 226.5,349.5C 226.701,346.272 226.367,343.105 225.5,340C 228.1,336.795 228.1,333.628 225.5,330.5C 227.919,328.414 228.919,325.747 228.5,322.5C 229.204,318.772 227.871,316.106 224.5,314.5C 227.967,313.295 229.301,310.795 228.5,307C 229.474,301.935 227.474,298.935 222.5,298C 223.5,297.667 224.5,297.333 225.5,297C 228.925,293.251 229.259,289.418 226.5,285.5C 224.781,284.978 223.448,283.978 222.5,282.5C 225.106,280.961 226.439,278.628 226.5,275.5C 225.536,271.692 223.87,268.192 221.5,265C 216.303,265.563 211.303,267.063 206.5,269.5C 206.167,269.167 205.833,268.833 205.5,268.5C 209.884,265.877 214.384,263.544 219,261.5C 219.667,260.5 219.667,259.5 219,258.5C 217.794,254.354 215.127,252.021 211,251.5C 206.149,252.922 201.316,254.088 196.5,255C 199.815,252.586 203.482,250.919 207.5,250C 210.087,248.475 210.92,246.308 210,243.5C 207.942,241.476 205.609,239.809 203,238.5C 199.309,241.599 195.142,243.433 190.5,244C 194.241,242.262 197.408,239.762 200,236.5C 200.829,231.41 198.662,229.576 193.5,231C 188.785,235.207 183.452,237.374 177.5,237.5C 183.551,235.393 189.051,232.393 194,228.5C 194.781,227.056 194.614,225.723 193.5,224.5C 191.805,223.826 190.138,223.159 188.5,222.5C 183.527,220.24 178.194,219.24 172.5,219.5C 156.655,214.147 149.655,203.147 151.5,186.5 Z"/></g>
<g><path style="opacity:1" fill="#090206" d="M 254.5,248.5 C 298.167,248.5 341.833,248.5 385.5,248.5C 342.01,250.165 298.343,251.165 254.5,251.5C 253.662,251.158 253.328,250.492 253.5,249.5C 253.5,248.833 253.833,248.5 254.5,248.5 Z"/></g>
<g><path style="opacity:1" fill="#8d8d8d" d="M 526.5,276.5 C 527.043,276.56 527.376,276.893 527.5,277.5C 524.384,277.92 521.717,278.92 519.5,280.5C 518.596,279.791 518.263,278.791 518.5,277.5C 521.385,277.806 524.052,277.473 526.5,276.5 Z"/></g>
<g><path style="opacity:1" fill="#545454" d="M 222.5,282.5 C 223.448,283.978 224.781,284.978 226.5,285.5C 223.421,285.26 220.421,285.593 217.5,286.5C 216.289,285.726 216.289,284.893 217.5,284C 219.154,283.392 220.821,282.892 222.5,282.5 Z"/></g>
<g><path style="opacity:1" fill="#272727" d="M 523.5,182.5 C 525.479,183.812 527.145,185.479 528.5,187.5C 524.878,188.325 521.211,188.825 517.5,189C 510.724,191.583 511.057,193.083 518.5,193.5C 518.833,194 519.167,194.5 519.5,195C 518.728,196.221 517.728,197.221 516.5,198C 520.037,199.281 523.204,201.114 526,203.5C 526.49,204.793 526.657,206.127 526.5,207.5C 522.486,207.334 518.486,207.501 514.5,208C 517.633,208.393 520.633,209.226 523.5,210.5C 520.372,212.294 517.039,213.794 513.5,215C 516.553,215.179 519.553,215.679 522.5,216.5C 521.482,217.852 520.149,218.852 518.5,219.5C 524.256,220.746 525.923,224.079 523.5,229.5C 520.628,226.854 517.295,226.021 513.5,227C 510.931,230.725 508.598,234.559 506.5,238.5C 506.68,239.554 507.013,240.554 507.5,241.5C 517.932,243.189 527.099,240.523 535,233.5C 535.056,239.162 533.223,244.162 529.5,248.5C 531.622,252.015 531.955,255.681 530.5,259.5C 531.364,261.197 532.697,262.363 534.5,263C 532.406,264.352 530.073,264.852 527.5,264.5C 527.585,266.929 528.585,268.929 530.5,270.5C 528.167,271.167 525.833,271.833 523.5,272.5C 524.524,273.852 525.524,275.185 526.5,276.5C 524.052,277.473 521.385,277.806 518.5,277.5C 518.263,278.791 518.596,279.791 519.5,280.5C 520.476,281.815 521.476,283.148 522.5,284.5C 519.628,285.783 516.795,285.783 514,284.5C 513.666,286.847 513.833,289.181 514.5,291.5C 511.833,291.5 509.167,291.5 506.5,291.5C 506.421,292.93 506.754,294.264 507.5,295.5C 504.282,296.423 501.282,295.757 498.5,293.5C 497.246,295.259 497.579,296.759 499.5,298C 495.93,298.804 492.763,297.97 490,295.5C 489.493,296.996 489.993,298.163 491.5,299C 488.129,299.744 484.963,299.244 482,297.5C 481.508,298.549 481.674,299.549 482.5,300.5C 482,300.833 481.5,301.167 481,301.5C 479.105,299.818 476.938,299.318 474.5,300C 473.302,302.698 471.302,304.531 468.5,305.5C 466.986,299.476 464.653,293.809 461.5,288.5C 456.642,292.525 451.642,296.358 446.5,300C 441.902,304.757 437.902,309.924 434.5,315.5C 433.833,315.5 433.5,315.167 433.5,314.5C 433.5,313.833 433.5,313.167 433.5,312.5C 434.167,311.833 434.833,311.167 435.5,310.5C 437.7,308.477 438.367,306.143 437.5,303.5C 435.833,302.167 434.167,300.833 432.5,299.5C 431.476,300.852 430.476,302.185 429.5,303.5C 428.662,303.158 428.328,302.492 428.5,301.5C 434.48,291.342 441.813,282.176 450.5,274C 456.969,270.263 463.302,266.263 469.5,262C 472.246,260.25 475.246,259.25 478.5,259C 481.369,255.796 484.535,252.963 488,250.5C 492.467,242.697 498.8,237.03 507,233.5C 509.563,225.26 514.73,222.927 522.5,226.5C 523.594,225.132 523.26,223.965 521.5,223C 518.183,222.502 514.85,222.335 511.5,222.5C 511.22,219.612 512.553,218.112 515.5,218C 513.527,217.505 511.527,217.338 509.5,217.5C 509.343,216.127 509.51,214.793 510,213.5C 511.947,212.89 513.781,212.057 515.5,211C 514.207,210.51 512.873,210.343 511.5,210.5C 511.178,208.278 511.845,206.444 513.5,205C 516.226,204.818 518.893,204.318 521.5,203.5C 517.516,202.002 513.516,200.502 509.5,199C 509.167,198.667 508.833,198.333 508.5,198C 510.878,197.489 513.212,196.822 515.5,196C 513.275,195.124 511.275,193.957 509.5,192.5C 512.936,187.899 517.603,185.565 523.5,185.5C 523.137,184.817 522.804,184.15 522.5,183.5C 523.167,183.5 523.5,183.167 523.5,182.5 Z"/></g>
<g><path style="opacity:1" fill="#d7d7d7" d="M 452.5,275.5 C 454.722,275.178 456.556,275.845 458,277.5C 460.952,286.183 458.119,291.517 449.5,293.5C 449.649,292.448 449.483,291.448 449,290.5C 446.982,288.65 445.149,286.65 443.5,284.5C 446.215,281.118 449.215,278.118 452.5,275.5 Z"/></g>
<g><path style="opacity:1" fill="#d1d1d1" d="M 463.5,268.5 C 464.833,268.5 466.167,268.5 467.5,268.5C 467.591,272.956 468.091,277.29 469,281.5C 466.242,282.795 463.742,284.461 461.5,286.5C 460.676,283.215 460.176,279.882 460,276.5C 458.764,275.601 457.93,274.434 457.5,273C 459.122,270.863 461.122,269.363 463.5,268.5 Z"/></g>
<g><path style="opacity:1" fill="#d7d7d7" d="M 474.5,261.5 C 479.481,261.974 482.481,264.808 483.5,270C 480.929,274.403 477.262,277.569 472.5,279.5C 469.603,274.91 468.436,269.91 469,264.5C 470.876,263.391 472.709,262.391 474.5,261.5 Z"/></g>
<g><path style="opacity:1" fill="#d4d4d4" d="M 489.5,253.5 C 490.764,256.433 492.764,258.766 495.5,260.5C 492.833,263.833 489.833,266.833 486.5,269.5C 484.133,266.606 482.133,263.44 480.5,260C 482.287,256.033 485.287,253.866 489.5,253.5 Z"/></g>
<g><path style="opacity:1" fill="#d7d7d7" d="M 531.5,238.5 C 532.621,240.089 532.454,241.756 531,243.5C 529.365,244.726 527.865,246.059 526.5,247.5C 528.363,249.893 529.696,252.56 530.5,255.5C 526.657,258.014 526.657,260.514 530.5,263C 528.08,263.687 525.913,263.187 524,261.5C 524.203,263.937 525.037,266.271 526.5,268.5C 524.5,268.833 522.5,269.167 520.5,269.5C 521.747,271.323 522.414,273.323 522.5,275.5C 520.076,275.192 517.743,275.526 515.5,276.5C 516.5,278.5 517.5,280.5 518.5,282.5C 517.833,282.833 517.167,283.167 516.5,283.5C 514.272,282.781 512.439,281.448 511,279.5C 510.612,282.849 510.779,286.183 511.5,289.5C 510.127,289.657 508.793,289.49 507.5,289C 506.695,287.028 505.361,285.528 503.5,284.5C 502.969,287.099 502.802,289.765 503,292.5C 499.79,291.299 497.123,289.299 495,286.5C 495.152,289.447 495.319,292.447 495.5,295.5C 491.67,294.515 488.837,292.181 487,288.5C 486.503,291.146 486.336,293.813 486.5,296.5C 483.728,296.405 481.728,295.071 480.5,292.5C 479.833,294.5 479.167,296.5 478.5,298.5C 474.56,295.374 472.226,296.374 471.5,301.5C 470.675,302.386 469.675,302.719 468.5,302.5C 467.005,297.193 465.838,291.859 465,286.5C 473.374,281.914 481.208,276.747 488.5,271C 494.21,266.417 498.043,260.584 500,253.5C 501.141,251.391 502.641,249.558 504.5,248C 510.732,246.057 517.065,244.39 523.5,243C 526.391,241.726 529.058,240.226 531.5,238.5 Z"/></g>
<g><path style="opacity:1" fill="#d2d2d2" d="M 489.5,253.5 C 491.342,244.8 496.508,240.466 505,240.5C 505.638,241.609 506.138,242.775 506.5,244C 501.911,247.755 498.245,252.255 495.5,257.5C 493.21,256.533 491.21,255.2 489.5,253.5 Z"/></g>
<g><path style="opacity:1" fill="#d1d1d1" d="M 441.5,286.5 C 446.677,288.522 448.343,292.189 446.5,297.5C 444.5,299.5 442.5,301.5 440.5,303.5C 437.995,301.494 435.662,299.328 433.5,297C 435.601,293.066 438.268,289.566 441.5,286.5 Z"/></g>
<g><path style="opacity:1" fill="#2a2a2a" d="M 131.5,234.5 C 131.328,233.508 131.662,232.842 132.5,232.5C 136.471,235.156 140.471,237.823 144.5,240.5C 148.823,246.489 153.823,251.822 159.5,256.5C 166.169,259.004 172.502,262.171 178.5,266C 181.215,266.875 182.548,268.708 182.5,271.5C 184.199,271.34 185.866,271.506 187.5,272C 216.076,296.74 225.576,327.574 216,364.5C 211.129,373.6 205.296,381.933 198.5,389.5C 191.08,396.895 182.08,399.561 171.5,397.5C 171.5,397.167 171.5,396.833 171.5,396.5C 177.196,396.975 182.696,396.308 188,394.5C 188.483,393.552 188.649,392.552 188.5,391.5C 182.898,392.65 177.231,393.316 171.5,393.5C 170.732,394.263 170.232,395.263 170,396.5C 169.536,395.906 169.369,395.239 169.5,394.5C 169.672,393.508 169.338,392.842 168.5,392.5C 172.833,391.833 177.167,391.167 181.5,390.5C 184.988,390.295 188.321,389.461 191.5,388C 208.154,371.198 214.488,351.032 210.5,327.5C 210.369,326.761 210.536,326.094 211,325.5C 211.813,327.436 212.313,329.436 212.5,331.5C 213.833,331.5 215.167,331.5 216.5,331.5C 216.563,326.797 216.229,322.13 215.5,317.5C 213.738,317.357 212.071,317.691 210.5,318.5C 210.239,320.595 209.906,322.595 209.5,324.5C 202.822,308.15 191.822,295.483 176.5,286.5C 174.852,292.634 172.352,298.301 169,303.5C 166.846,302.68 165.346,301.18 164.5,299C 162.101,298.289 159.768,298.456 157.5,299.5C 156.494,299.062 156.494,298.396 157.5,297.5C 156.833,297.167 156.167,296.833 155.5,296.5C 153.199,297.396 150.866,297.562 148.5,297C 149.517,295.951 149.684,294.784 149,293.5C 146.413,295.196 143.579,296.196 140.5,296.5C 140.5,295.167 140.5,293.833 140.5,292.5C 137.833,292.833 135.167,293.167 132.5,293.5C 132.762,292.022 132.429,290.689 131.5,289.5C 128.916,290.393 126.249,290.726 123.5,290.5C 124.347,287.84 124.847,285.174 125,282.5C 122.029,284.567 118.862,284.9 115.5,283.5C 117.734,281.619 119.067,279.285 119.5,276.5C 116.753,276.813 114.086,276.48 111.5,275.5C 112.5,274.167 113.5,272.833 114.5,271.5C 112.034,270.877 109.701,270.043 107.5,269C 109.607,267.736 110.607,265.903 110.5,263.5C 104.16,263.987 103.16,262.153 107.5,258C 106.031,253.841 106.697,250.007 109.5,246.5C 105.599,242.629 103.766,237.962 104,232.5C 111.819,239.442 120.819,242.109 131,240.5C 132.612,238.544 132.778,236.544 131.5,234.5 Z"/></g>
<g><path style="opacity:1" fill="#d3d3d3" d="M 194.5,285.5 C 195.873,285.343 197.207,285.51 198.5,286C 201.026,289.026 203.36,292.193 205.5,295.5C 203.167,297.5 200.833,299.5 198.5,301.5C 190.924,297.604 189.591,292.271 194.5,285.5 Z"/></g>
<g><path style="opacity:1" fill="#d4d4d4" d="M 181.5,273.5 C 183.199,273.34 184.866,273.506 186.5,274C 189.779,276.789 192.779,279.789 195.5,283C 192.226,285.446 189.892,288.612 188.5,292.5C 185.914,290.957 183.414,289.291 181,287.5C 180.283,282.78 180.45,278.114 181.5,273.5 Z"/></g>
<g><path style="opacity:1" fill="#cfcfcf" d="M 171.5,266.5 C 175.393,267.113 178.726,268.78 181.5,271.5C 178.739,275.305 177.739,279.639 178.5,284.5C 175.649,283.677 172.982,282.344 170.5,280.5C 170.167,279.5 169.833,278.5 169.5,277.5C 170.589,273.903 171.255,270.237 171.5,266.5 Z"/></g>
<g><path style="opacity:1" fill="#d5d5d5" d="M 159.5,259.5 C 163.384,259.86 166.884,261.193 170,263.5C 171.453,279.09 166.786,281.423 156,270.5C 155.981,266.518 157.148,262.852 159.5,259.5 Z"/></g>
<g><path style="opacity:1" fill="#d2d2d2" d="M 150.5,251.5 C 159.327,255.754 159.827,261.087 152,267.5C 148.5,265.333 145.667,262.5 143.5,259C 146.016,256.651 148.349,254.151 150.5,251.5 Z"/></g>
<g><path style="opacity:1" fill="#d8d8d8" d="M 106.5,237.5 C 109.663,239.246 112.996,240.746 116.5,242C 122.226,243.182 127.893,244.515 133.5,246C 138.036,249.862 140.869,254.695 142,260.5C 144.641,265.144 148.475,268.311 153.5,270C 154.79,272.292 156.457,274.292 158.5,276C 164.005,278.711 169.339,281.544 174.5,284.5C 172.59,289.665 171.257,294.998 170.5,300.5C 169.448,300.649 168.448,300.483 167.5,300C 166.521,297.863 165.188,296.029 163.5,294.5C 162.476,295.853 161.143,296.52 159.5,296.5C 159.663,294.143 159.497,291.81 159,289.5C 157.488,292.857 154.988,294.857 151.5,295.5C 151.663,293.143 151.497,290.81 151,288.5C 144.284,295.817 141.951,294.484 144,284.5C 141.793,287.564 138.959,289.564 135.5,290.5C 135.949,287.71 135.949,285.044 135.5,282.5C 133.58,285.039 131.246,287.039 128.5,288.5C 127.833,288.167 127.167,287.833 126.5,287.5C 128.373,284.276 128.707,280.942 127.5,277.5C 125.724,281.056 123.058,282.389 119.5,281.5C 121.086,279.33 122.42,276.996 123.5,274.5C 121.257,273.526 118.924,273.192 116.5,273.5C 117.167,270.833 117.833,268.167 118.5,265.5C 116.516,265.383 114.85,266.05 113.5,267.5C 113.167,267 112.833,266.5 112.5,266C 114.078,264.028 114.911,261.862 115,259.5C 113.087,261.187 110.92,261.687 108.5,261C 109.687,259.981 110.687,258.814 111.5,257.5C 109.728,256.73 108.728,255.397 108.5,253.5C 109.783,251.159 110.783,248.659 111.5,246C 108.417,244.001 106.751,241.168 106.5,237.5 Z"/></g>
<g><path style="opacity:1" fill="#d4d4d4" d="M 134.5,237.5 C 142.344,239.173 146.844,243.84 148,251.5C 146.866,254 145.032,255.167 142.5,255C 140.427,249.507 136.76,245.507 131.5,243C 132.639,241.22 133.639,239.386 134.5,237.5 Z"/></g>
<g><path style="opacity:1" fill="#cdcdcd" d="M 204.5,298.5 C 207.934,299.115 209.934,301.281 210.5,305C 208.71,306.734 206.71,308.234 204.5,309.5C 202.844,307.54 201.177,305.54 199.5,303.5C 201.006,301.599 202.673,299.932 204.5,298.5 Z"/></g>
<g><path style="opacity:1" fill="#d2d2d2" d="M 435.5,310.5 C 432.777,309.648 430.11,308.481 427.5,307C 428.305,305.887 428.972,304.721 429.5,303.5C 430.476,302.185 431.476,300.852 432.5,299.5C 434.167,300.833 435.833,302.167 437.5,303.5C 438.367,306.143 437.7,308.477 435.5,310.5 Z"/></g>
<g><path style="opacity:1" fill="#d1d1d1" d="M 209.5,307.5 C 210.496,307.414 211.329,307.748 212,308.5C 212.931,310.459 213.764,312.459 214.5,314.5C 212.614,315.406 210.78,316.406 209,317.5C 204.205,313.723 204.371,310.39 209.5,307.5 Z"/></g>
<g><path style="opacity:1" fill="#cdcdcd" d="M 433.5,312.5 C 433.5,313.167 433.5,313.833 433.5,314.5C 432.356,316.1 431.189,317.767 430,319.5C 423.39,317.375 422.724,314.042 428,309.5C 429.765,310.632 431.598,311.632 433.5,312.5 Z"/></g>
<g><path style="opacity:1" fill="#cfcfcf" d="M 210.5,327.5 C 209.596,326.791 209.263,325.791 209.5,324.5C 209.906,322.595 210.239,320.595 210.5,318.5C 212.071,317.691 213.738,317.357 215.5,317.5C 216.229,322.13 216.563,326.797 216.5,331.5C 215.167,331.5 213.833,331.5 212.5,331.5C 212.313,329.436 211.813,327.436 211,325.5C 210.536,326.094 210.369,326.761 210.5,327.5 Z"/></g>
<g><path style="opacity:1" fill="#404040" d="M 136.5,348.5 C 135.25,348.577 134.417,349.244 134,350.5C 133.601,350.272 133.435,349.938 133.5,349.5C 134.105,346.873 134.605,344.207 135,341.5C 135.333,342.833 135.667,344.167 136,345.5C 137.028,343.156 137.694,340.823 138,338.5C 135.92,341.284 135.253,340.951 136,337.5C 137.011,336.663 138.178,336.33 139.5,336.5C 139.744,333.737 141.077,331.571 143.5,330C 152.036,326.894 159.536,328.394 166,334.5C 167.547,337.158 167.38,339.825 165.5,342.5C 165.833,343.167 166.167,343.833 166.5,344.5C 170.314,341.813 171.48,338.147 170,333.5C 165.27,325.807 158.437,322.974 149.5,325C 140.982,326.512 135.149,331.345 132,339.5C 124.751,361.861 129.918,380.527 147.5,395.5C 146.833,395.5 146.5,395.833 146.5,396.5C 128.756,381.213 123.256,362.213 130,339.5C 138.365,321.934 151.198,317.768 168.5,327C 173.825,333.373 173.825,339.706 168.5,346C 166.866,346.494 165.199,346.66 163.5,346.5C 164.004,342.493 164.17,338.493 164,334.5C 155.408,328.449 147.741,329.449 141,337.5C 138.934,340.961 137.434,344.627 136.5,348.5 Z"/></g>
<g><path style="opacity:1" fill="#cccccc" d="M 133.5,349.5 C 132.662,349.842 132.328,350.508 132.5,351.5C 132.211,357.245 132.711,362.912 134,368.5C 134.308,367.692 134.808,367.025 135.5,366.5C 136.498,368.49 137.498,370.49 138.5,372.5C 137.265,374.316 137.265,375.983 138.5,377.5C 138.845,380.198 140.178,382.198 142.5,383.5C 142.908,384.643 143.575,385.643 144.5,386.5C 145.506,386.062 145.506,385.396 144.5,384.5C 146.329,383.718 147.829,384.384 149,386.5C 149.284,390.12 151.117,392.62 154.5,394C 159.965,396.06 165.632,397.226 171.5,397.5C 182.08,399.561 191.08,396.895 198.5,389.5C 198.297,391.044 197.63,392.378 196.5,393.5C 197.689,394.429 199.022,394.762 200.5,394.5C 196.278,397.191 191.612,399.024 186.5,400C 172.887,403.137 159.887,401.637 147.5,395.5C 129.918,380.527 124.751,361.861 132,339.5C 135.149,331.345 140.982,326.512 149.5,325C 158.437,322.974 165.27,325.807 170,333.5C 171.48,338.147 170.314,341.813 166.5,344.5C 166.167,343.833 165.833,343.167 165.5,342.5C 167.38,339.825 167.547,337.158 166,334.5C 159.536,328.394 152.036,326.894 143.5,330C 141.077,331.571 139.744,333.737 139.5,336.5C 138.178,336.33 137.011,336.663 136,337.5C 135.253,340.951 135.92,341.284 138,338.5C 137.694,340.823 137.028,343.156 136,345.5C 135.667,344.167 135.333,342.833 135,341.5C 134.605,344.207 134.105,346.873 133.5,349.5 Z"/></g>
<g><path style="opacity:1" fill="#2c2c2c" d="M 491.5,331.5 C 492.11,332.391 492.443,333.391 492.5,334.5C 485.529,331.031 479.362,332.031 474,337.5C 473.506,339.134 473.34,340.801 473.5,342.5C 471.623,341.341 471.123,339.674 472,337.5C 477.005,330.808 483.505,328.808 491.5,331.5 Z"/></g>
<g><path style="opacity:1" fill="#5d5d5d" d="M 491.5,331.5 C 492.873,331.343 494.207,331.51 495.5,332C 497.694,334.194 499.86,336.36 502,338.5C 503.301,340.365 503.635,342.365 503,344.5C 502.71,342.956 502.044,341.623 501,340.5C 501.476,342.32 501.309,343.987 500.5,345.5C 499.341,340.683 496.674,337.016 492.5,334.5C 492.443,333.391 492.11,332.391 491.5,331.5 Z"/></g>
<g><path style="opacity:1" fill="#d3d3d3" d="M 213.5,333.5 C 214.5,333.5 215.5,333.5 216.5,333.5C 216.5,340.167 216.5,346.833 216.5,353.5C 215.167,353.5 213.833,353.5 212.5,353.5C 212.954,346.841 213.287,340.174 213.5,333.5 Z"/></g>
<g><path style="opacity:1" fill="#353535" d="M 239.5,143.5 C 239.333,211.501 239.5,279.501 240,347.5C 245.082,353.624 251.582,356.958 259.5,357.5C 271.989,357.904 284.655,357.904 297.5,357.5C 303.207,358.79 308.873,360.623 314.5,363C 316.563,365.511 318.063,368.344 319,371.5C 321.117,363.528 326.283,359.528 334.5,359.5C 342.315,358.291 349.982,358.291 357.5,359.5C 348.032,359.044 338.698,359.877 329.5,362C 326.063,363.105 323.563,365.272 322,368.5C 321.371,372.006 320.371,375.34 319,378.5C 318.03,366.531 311.53,360.364 299.5,360C 285.499,359.94 271.499,359.94 257.5,360C 248.787,358.441 242.12,353.941 237.5,346.5C 238.167,278.833 238.833,211.167 239.5,143.5 Z"/></g>
<g><path style="opacity:1" fill="#351f1b" d="M 390.5,240.5 C 390.833,240.5 391.167,240.5 391.5,240.5C 390.076,243.768 388.409,246.934 386.5,250C 391.165,254.498 393.832,259.998 394.5,266.5C 393.137,272.396 390.803,277.896 387.5,283C 390.91,287.487 393.243,292.487 394.5,298C 393.464,304.621 390.797,310.454 386.5,315.5C 397.405,326.452 397.071,336.952 385.5,347C 381.07,349.27 376.403,349.937 371.5,349C 368.897,345.724 365.73,343.224 362,341.5C 359.216,343.28 356.716,345.447 354.5,348C 350.394,350.555 346.061,351.055 341.5,349.5C 339.483,346.65 336.983,344.316 334,342.5C 330.605,345.117 327.105,347.617 323.5,350C 320.5,350.667 317.5,350.667 314.5,350C 311.677,347.012 308.677,344.178 305.5,341.5C 302.349,344.15 299.349,346.984 296.5,350C 293.167,350.667 289.833,350.667 286.5,350C 283.911,346.903 280.911,344.403 277.5,342.5C 274.385,344.439 271.385,346.606 268.5,349C 257.687,351.199 250.52,347.032 247,336.5C 246.333,332.5 246.333,328.5 247,324.5C 248.966,321.399 250.8,318.232 252.5,315C 249.947,311.394 247.78,307.561 246,303.5C 245.333,300.167 245.333,296.833 246,293.5C 248.182,289.99 250.349,286.49 252.5,283C 250.453,279.07 248.286,275.236 246,271.5C 245.333,268.167 245.333,264.833 246,261.5C 248.446,257.606 250.612,253.606 252.5,249.5C 252.833,249.5 253.167,249.5 253.5,249.5C 253.328,250.492 253.662,251.158 254.5,251.5C 298.343,251.165 342.01,250.165 385.5,248.5C 387.14,245.851 388.807,243.184 390.5,240.5 Z"/></g>
<g><path style="opacity:1" fill="#d12d11" d="M 254.5,251.5 C 298.168,251.333 341.835,251.5 385.5,252C 392.74,258.664 394.24,266.497 390,275.5C 388.267,277.723 386.767,280.056 385.5,282.5C 387.43,286.273 389.597,289.94 392,293.5C 392.667,296.833 392.667,300.167 392,303.5C 390.125,307.878 387.625,311.878 384.5,315.5C 392.677,323.147 394.177,331.813 389,341.5C 384.705,346.895 379.205,348.729 372.5,347C 368.989,344.153 365.489,341.32 362,338.5C 358.82,342.013 355.32,345.18 351.5,348C 348.833,348.667 346.167,348.667 343.5,348C 340.322,345.486 337.156,342.986 334,340.5C 330.253,342.626 326.753,345.126 323.5,348C 319.467,349.04 315.801,348.374 312.5,346C 309.955,343.624 307.622,341.124 305.5,338.5C 302.647,342.187 299.314,345.353 295.5,348C 292.833,348.667 290.167,348.667 287.5,348C 284.283,345.274 280.95,342.774 277.5,340.5C 274.201,343.155 270.534,345.321 266.5,347C 254.973,348.149 248.973,342.816 248.5,331C 249.086,325.157 251.086,319.823 254.5,315C 251.688,311.211 249.521,307.044 248,302.5C 247.333,299.5 247.333,296.5 248,293.5C 250.305,289.696 252.805,286.03 255.5,282.5C 245.334,272.39 245.001,262.056 254.5,251.5 Z"/></g>
<g><path style="opacity:1" fill="#3b2107" d="M 350.5,320.5 C 350.986,324.509 349.32,326.342 345.5,326C 344.748,325.329 344.414,324.496 344.5,323.5C 347.833,325.167 349.833,324.167 350.5,320.5 Z"/></g>
<g><path style="opacity:1" fill="#3e2508" d="M 336.5,298.5 C 337.791,298.263 338.791,298.596 339.5,299.5C 339.5,300.167 339.5,300.833 339.5,301.5C 335.603,303.886 332.103,306.886 329,310.5C 328.51,311.793 328.343,313.127 328.5,314.5C 330.655,314.628 332.655,314.128 334.5,313C 337.331,310.999 339.997,308.833 342.5,306.5C 342.842,307.338 343.508,307.672 344.5,307.5C 344.5,312.833 344.5,318.167 344.5,323.5C 343.021,319.082 342.021,314.415 341.5,309.5C 338.853,312.157 335.853,314.323 332.5,316C 330.888,316.72 329.388,316.554 328,315.5C 327.333,313.5 327.333,311.5 328,309.5C 331.058,305.938 334.558,302.938 338.5,300.5C 337.757,299.818 337.091,299.151 336.5,298.5 Z"/></g>
<g><path style="opacity:1" fill="#331d09" d="M 282.5,290.5 C 283.583,290.539 284.583,290.873 285.5,291.5C 286.328,286.868 286.828,282.202 287,277.5C 290.677,273.251 293.343,273.918 295,279.5C 295.333,283.5 295.667,287.5 296,291.5C 299.103,289.697 301.937,287.53 304.5,285C 310.932,284.101 312.765,286.601 310,292.5C 306.764,295.871 302.931,298.371 298.5,300C 302.956,301.979 306.79,304.813 310,308.5C 311.913,314.094 310.08,316.261 304.5,315C 301.098,313.6 298.264,311.433 296,308.5C 295.667,312.833 295.333,317.167 295,321.5C 292.856,326.295 290.19,326.628 287,322.5C 286.667,317.833 286.333,313.167 286,308.5C 283.167,310.667 280.333,312.833 277.5,315C 274.138,316.293 272.138,315.293 271.5,312C 273.45,306.05 277.45,302.05 283.5,300C 276.513,298.348 272.347,294.181 271,287.5C 272.418,285.637 274.251,285.137 276.5,286C 278.747,287.277 280.747,288.777 282.5,290.5 Z"/></g>
<g><path style="opacity:1" fill="#d3bf13" d="M 350.5,308.5 C 350.5,312.5 350.5,316.5 350.5,320.5C 349.833,324.167 347.833,325.167 344.5,323.5C 344.5,318.167 344.5,312.833 344.5,307.5C 344.791,306.351 345.624,305.684 347,305.5C 348.908,305.715 350.074,306.715 350.5,308.5 Z"/></g>
<g><path style="opacity:1" fill="#d7c213" d="M 288.5,305.5 C 290.167,305.5 291.833,305.5 293.5,305.5C 294.463,309.796 294.629,314.129 294,318.5C 293.885,321.008 292.885,323.008 291,324.5C 290.055,324.095 289.388,323.428 289,322.5C 288.501,316.843 288.334,311.176 288.5,305.5 Z"/></g>
<g><path style="opacity:1" fill="#d5c113" d="M 295.5,301.5 C 300.643,302.992 305.143,305.658 309,309.5C 309.986,311.925 309.319,313.591 307,314.5C 302.163,312.669 298.163,309.669 295,305.5C 294.805,304.181 294.972,302.847 295.5,301.5 Z"/></g>
<g><path style="opacity:1" fill="#d7c313" d="M 354.5,301.5 C 358.136,304.109 361.636,307.109 365,310.5C 365.49,311.793 365.657,313.127 365.5,314.5C 363.011,314.702 360.677,314.202 358.5,313C 356.297,310.628 353.963,308.461 351.5,306.5C 350.151,303.54 351.151,301.873 354.5,301.5 Z"/></g>
<g><path style="opacity:1" fill="#d7c313" d="M 339.5,301.5 C 342.89,301.961 343.89,303.627 342.5,306.5C 339.997,308.833 337.331,310.999 334.5,313C 332.655,314.128 330.655,314.628 328.5,314.5C 328.343,313.127 328.51,311.793 329,310.5C 332.103,306.886 335.603,303.886 339.5,301.5 Z"/></g>
<g><path style="opacity:1" fill="#d5c113" d="M 282.5,301.5 C 285.729,301.165 287.229,302.498 287,305.5C 283.16,309.73 278.66,312.563 273.5,314C 272.978,313.439 272.645,312.772 272.5,312C 274.738,307.397 278.072,303.897 282.5,301.5 Z"/></g>
<g><path style="opacity:1" fill="#211f17" d="M 344.5,292.5 C 344.5,293.5 344.5,294.5 344.5,295.5C 346.415,295.784 348.081,295.451 349.5,294.5C 350.167,294.5 350.5,294.833 350.5,295.5C 350.554,297.632 351.554,298.965 353.5,299.5C 354.338,299.842 354.672,300.508 354.5,301.5C 351.151,301.873 350.151,303.54 351.5,306.5C 351.672,307.492 351.338,308.158 350.5,308.5C 350.074,306.715 348.908,305.715 347,305.5C 345.624,305.684 344.791,306.351 344.5,307.5C 343.508,307.672 342.842,307.338 342.5,306.5C 343.89,303.627 342.89,301.961 339.5,301.5C 339.5,300.833 339.5,300.167 339.5,299.5C 342.849,299.127 343.849,297.46 342.5,294.5C 343.167,293.833 343.833,293.167 344.5,292.5 Z"/></g>
<g><path style="opacity:1" fill="#e4e4e4" d="M 344.5,297.5 C 350.555,296.942 351.888,299.109 348.5,304C 343.81,304.141 342.477,301.975 344.5,297.5 Z"/></g>
<g><path style="opacity:1" fill="#e2e2e2" d="M 287.5,297.5 C 293.868,296.035 295.534,298.202 292.5,304C 288.194,304.172 286.527,302.006 287.5,297.5 Z"/></g>
<g><path style="opacity:1" fill="#382008" d="M 350.5,320.5 C 350.5,316.5 350.5,312.5 350.5,308.5C 351.338,308.158 351.672,307.492 351.5,306.5C 353.963,308.461 356.297,310.628 358.5,313C 360.677,314.202 363.011,314.702 365.5,314.5C 365.657,313.127 365.49,311.793 365,310.5C 361.636,307.109 358.136,304.109 354.5,301.5C 354.672,300.508 354.338,299.842 353.5,299.5C 357.939,297.833 361.772,295.166 365,291.5C 365.49,290.207 365.657,288.873 365.5,287.5C 359.558,288.306 354.558,290.972 350.5,295.5C 350.5,294.833 350.167,294.5 349.5,294.5C 349.666,289.156 349.499,283.823 349,278.5C 348.047,276.408 346.714,276.075 345,277.5C 344.501,282.489 344.334,287.489 344.5,292.5C 343.833,293.167 343.167,293.833 342.5,294.5C 338.407,290.952 333.741,288.785 328.5,288C 327.549,288.718 327.383,289.551 328,290.5C 330.729,293.399 333.562,296.066 336.5,298.5C 330.221,297.396 327.055,293.729 327,287.5C 329.064,286.409 331.231,286.242 333.5,287C 336.005,288.753 338.671,290.253 341.5,291.5C 342.327,287.541 342.827,283.541 343,279.5C 345.049,273.366 347.716,273.032 351,278.5C 351.172,282.871 351.672,287.204 352.5,291.5C 355.304,289.862 357.971,288.029 360.5,286C 365.662,284.576 367.829,286.41 367,291.5C 363.908,295.423 360.074,298.423 355.5,300.5C 359.416,302.909 362.916,305.909 366,309.5C 366.667,311.5 366.667,313.5 366,315.5C 364.612,316.554 363.112,316.72 361.5,316C 358.081,314.414 355.081,312.248 352.5,309.5C 351.833,313.313 351.166,316.979 350.5,320.5 Z"/></g>
<g><path style="opacity:1" fill="#d9c513" d="M 353.5,299.5 C 351.554,298.965 350.554,297.632 350.5,295.5C 354.558,290.972 359.558,288.306 365.5,287.5C 365.657,288.873 365.49,290.207 365,291.5C 361.772,295.166 357.939,297.833 353.5,299.5 Z"/></g>
<g><path style="opacity:1" fill="#d6c213" d="M 342.5,294.5 C 343.849,297.46 342.849,299.127 339.5,299.5C 338.791,298.596 337.791,298.263 336.5,298.5C 333.562,296.066 330.729,293.399 328,290.5C 327.383,289.551 327.549,288.718 328.5,288C 333.741,288.785 338.407,290.952 342.5,294.5 Z"/></g>
<g><path style="opacity:1" fill="#d3bf13" d="M 282.5,290.5 C 283.508,292.339 285.008,293.672 287,294.5C 287.483,295.448 287.649,296.448 287.5,297.5C 279.361,298.928 274.361,295.594 272.5,287.5C 276.007,287.92 279.341,288.92 282.5,290.5 Z"/></g>
<g><path style="opacity:1" fill="#d8c413" d="M 305.5,286.5 C 306.833,286.5 308.167,286.5 309.5,286.5C 310.178,290.273 308.844,293.106 305.5,295C 302.192,297.339 298.692,298.172 295,297.5C 294.333,296.833 294.333,296.167 295,295.5C 298.078,291.915 301.578,288.915 305.5,286.5 Z"/></g>
<g><path style="opacity:1" fill="#ddc813" d="M 349.5,294.5 C 348.081,295.451 346.415,295.784 344.5,295.5C 344.5,294.5 344.5,293.5 344.5,292.5C 344.334,287.489 344.501,282.489 345,277.5C 346.714,276.075 348.047,276.408 349,278.5C 349.499,283.823 349.666,289.156 349.5,294.5 Z"/></g>
<g><path style="opacity:1" fill="#d4c013" d="M 289.5,276.5 C 290.5,276.5 291.5,276.5 292.5,276.5C 293.363,282.455 293.697,288.455 293.5,294.5C 291.533,294.739 289.699,294.406 288,293.5C 286.99,287.62 287.49,281.954 289.5,276.5 Z"/></g>
<g><path style="opacity:1" fill="#535353" d="M 505.5,365.5 C 505.808,363.076 505.474,360.743 504.5,358.5C 503.702,360.078 503.202,361.744 503,363.5C 502.609,358.146 502.109,352.812 501.5,347.5C 502.75,347.423 503.583,346.756 504,345.5C 506.546,352.145 507.046,358.812 505.5,365.5 Z"/></g>
<g><path style="opacity:1" fill="#949494" d="M 136.5,348.5 C 136.5,353.5 136.5,358.5 136.5,363.5C 135.5,363.5 134.5,363.5 133.5,363.5C 133.16,360.856 133.827,358.523 135.5,356.5C 134.207,354.897 133.207,353.231 132.5,351.5C 132.328,350.508 132.662,349.842 133.5,349.5C 133.435,349.938 133.601,350.272 134,350.5C 134.417,349.244 135.25,348.577 136.5,348.5 Z"/></g>
<g><path style="opacity:1" fill="#c1c1c1" d="M 503.5,350.5 C 504.306,351.997 504.972,353.664 505.5,355.5C 505.167,355.833 504.833,356.167 504.5,356.5C 503.534,354.604 503.201,352.604 503.5,350.5 Z"/></g>
<g><path style="opacity:1" fill="#cecece" d="M 211.5,355.5 C 212.833,355.5 214.167,355.5 215.5,355.5C 214.384,365.066 210.551,373.399 204,380.5C 203.13,379.892 202.63,379.059 202.5,378C 206.969,371.096 209.969,363.596 211.5,355.5 Z"/></g>
<g><path style="opacity:1" fill="#a6a6a6" d="M 297.5,357.5 C 284.655,357.904 271.989,357.904 259.5,357.5C 272.33,356.462 284.996,356.462 297.5,357.5 Z"/></g>
<g><path style="opacity:1" fill="#545454" d="M 392.5,354.5 C 392.833,354.5 393.167,354.5 393.5,354.5C 392.942,355.79 391.942,356.623 390.5,357C 379.628,359.245 368.628,360.079 357.5,359.5C 349.982,358.291 342.315,358.291 334.5,359.5C 335.263,358.732 336.263,358.232 337.5,358C 352.5,357.667 367.5,357.333 382.5,357C 385.852,356.162 389.185,355.329 392.5,354.5 Z"/></g>
<g><path style="opacity:1" fill="#494949" d="M 132.5,351.5 C 133.207,353.231 134.207,354.897 135.5,356.5C 133.827,358.523 133.16,360.856 133.5,363.5C 134.5,363.5 135.5,363.5 136.5,363.5C 137.499,366.829 138.499,370.162 139.5,373.5C 138.766,374.708 138.433,376.041 138.5,377.5C 137.265,375.983 137.265,374.316 138.5,372.5C 137.498,370.49 136.498,368.49 135.5,366.5C 134.808,367.025 134.308,367.692 134,368.5C 132.711,362.912 132.211,357.245 132.5,351.5 Z"/></g>
<g><path style="opacity:1" fill="#383838" d="M 428.5,301.5 C 428.328,302.492 428.662,303.158 429.5,303.5C 428.972,304.721 428.305,305.887 427.5,307C 430.11,308.481 432.777,309.648 435.5,310.5C 434.833,311.167 434.167,311.833 433.5,312.5C 431.598,311.632 429.765,310.632 428,309.5C 422.724,314.042 423.39,317.375 430,319.5C 431.189,317.767 432.356,316.1 433.5,314.5C 433.5,315.167 433.833,315.5 434.5,315.5C 431.67,319.805 429.504,324.472 428,329.5C 425.244,348.222 428.911,365.555 439,381.5C 443.199,387.846 449.033,391.512 456.5,392.5C 461.5,393.167 466.5,393.833 471.5,394.5C 470.167,394.5 469.5,395.167 469.5,396.5C 470.167,397.167 470.833,397.833 471.5,398.5C 462.53,400.49 453.863,399.657 445.5,396C 436.082,387.588 428.582,377.755 423,366.5C 416.74,343.955 418.574,322.289 428.5,301.5 Z"/></g>
<g><path style="opacity:1" fill="#cdcdcd" d="M 422.5,356.5 C 424.167,356.5 425.833,356.5 427.5,356.5C 428.734,364.872 431.734,372.538 436.5,379.5C 436.167,380.5 435.5,381.167 434.5,381.5C 428.112,374.388 424.112,366.055 422.5,356.5 Z"/></g>
<g><path style="opacity:1" fill="#c7c7c7" d="M 421.5,335.5 C 422.833,335.5 424.167,335.5 425.5,335.5C 425.295,341.878 425.628,348.211 426.5,354.5C 424.833,354.5 423.167,354.5 421.5,354.5C 421.5,348.167 421.5,341.833 421.5,335.5 Z"/></g>
<g><path style="opacity:1" fill="#cecece" d="M 423.5,318.5 C 426.104,318.598 428.104,319.765 429.5,322C 427.183,325.456 426.183,329.29 426.5,333.5C 424.833,333.5 423.167,333.5 421.5,333.5C 421.43,328.391 422.097,323.391 423.5,318.5 Z"/></g>
<g><path style="opacity:1" fill="#797979" d="M 139.5,373.5 C 141.4,375.619 143.066,377.953 144.5,380.5C 143.599,381.29 142.932,382.29 142.5,383.5C 140.178,382.198 138.845,380.198 138.5,377.5C 138.433,376.041 138.766,374.708 139.5,373.5 Z"/></g>
<g><path style="opacity:1" fill="#5c5c5c" d="M 505.5,365.5 C 504.115,374.744 500.115,382.41 493.5,388.5C 494.412,387.262 494.579,385.928 494,384.5C 492.871,386.141 491.371,387.141 489.5,387.5C 491.167,385.167 493.167,383.167 495.5,381.5C 498.609,376.609 500.609,371.276 501.5,365.5C 502.833,365.5 504.167,365.5 505.5,365.5 Z"/></g>
<g><path style="opacity:1" fill="#bdbdbd" d="M 495.5,381.5 C 497.451,380.284 498.951,378.618 500,376.5C 500.015,379.458 498.681,381.792 496,383.5C 495.536,382.906 495.369,382.239 495.5,381.5 Z"/></g>
<g><path style="opacity:1" fill="#c4c4c4" d="M 493.5,388.5 C 492.417,388.539 491.417,388.873 490.5,389.5C 489.702,389.043 489.369,388.376 489.5,387.5C 491.371,387.141 492.871,386.141 494,384.5C 494.579,385.928 494.412,387.262 493.5,388.5 Z"/></g>
<g><path style="opacity:1" fill="#c3c3c3" d="M 436.5,382.5 C 439.788,385.772 443.455,388.772 447.5,391.5C 448.833,392.5 448.833,393.5 447.5,394.5C 442.399,391.736 438.732,387.736 436.5,382.5 Z"/></g>
<g><path style="opacity:1" fill="#545454" d="M 144.5,380.5 C 147.89,384.714 152.223,387.547 157.5,389C 165.447,390.275 173.447,390.775 181.5,390.5C 177.167,391.167 172.833,391.833 168.5,392.5C 162.939,392.055 157.606,390.721 152.5,388.5C 152.167,388.833 151.833,389.167 151.5,389.5C 156.591,394.012 162.591,395.678 169.5,394.5C 169.369,395.239 169.536,395.906 170,396.5C 170.232,395.263 170.732,394.263 171.5,393.5C 171.5,394.5 171.5,395.5 171.5,396.5C 171.5,396.833 171.5,397.167 171.5,397.5C 165.632,397.226 159.965,396.06 154.5,394C 151.117,392.62 149.284,390.12 149,386.5C 147.829,384.384 146.329,383.718 144.5,384.5C 145.506,385.396 145.506,386.062 144.5,386.5C 143.575,385.643 142.908,384.643 142.5,383.5C 142.932,382.29 143.599,381.29 144.5,380.5 Z"/></g>
<g><path style="opacity:1" fill="#c6c6c6" d="M 200.5,380.5 C 202.225,380.843 202.725,381.843 202,383.5C 198.942,387.062 195.442,390.062 191.5,392.5C 190.167,391.5 190.167,390.5 191.5,389.5C 195.522,387.478 198.522,384.478 200.5,380.5 Z"/></g>
<g><path style="opacity:1" fill="#bebebe" d="M 171.5,396.5 C 171.5,395.5 171.5,394.5 171.5,393.5C 177.231,393.316 182.898,392.65 188.5,391.5C 188.649,392.552 188.483,393.552 188,394.5C 182.696,396.308 177.196,396.975 171.5,396.5 Z"/></g>
<g><path style="opacity:1" fill="#c8c8c8" d="M 168.5,392.5 C 169.338,392.842 169.672,393.508 169.5,394.5C 162.591,395.678 156.591,394.012 151.5,389.5C 151.833,389.167 152.167,388.833 152.5,388.5C 157.606,390.721 162.939,392.055 168.5,392.5 Z"/></g>
<g><path style="opacity:1" fill="#d0d0d0" d="M 363.5,395.5 C 364.568,396.434 365.901,396.768 367.5,396.5C 373.772,398.309 379.772,400.642 385.5,403.5C 385.303,409.455 383.637,414.955 380.5,420C 378.833,420.667 377.167,420.667 375.5,420C 367.378,415.873 358.712,413.706 349.5,413.5C 327.822,412.23 306.155,412.23 284.5,413.5C 279.457,414.008 274.457,414.842 269.5,416C 265.934,418.201 262.1,419.701 258,420.5C 256.674,420.245 255.674,419.578 255,418.5C 253.35,414.567 252.35,410.567 252,406.5C 263.979,397.789 277.479,393.289 292.5,393C 316.26,391.782 339.926,392.615 363.5,395.5 Z"/></g>
<g><path style="opacity:1" fill="#cacaca" d="M 469.5,396.5 C 469.5,395.167 470.167,394.5 471.5,394.5C 476.755,392.8 482.088,391.633 487.5,391C 482.23,394.923 476.23,396.756 469.5,396.5 Z"/></g>
<g><path style="opacity:1" fill="#848484" d="M 359.5,392.5 C 363.702,393.132 367.702,394.132 371.5,395.5C 369.901,395.232 368.568,395.566 367.5,396.5C 365.901,396.768 364.568,396.434 363.5,395.5C 364.239,395.631 364.906,395.464 365.5,395C 363.277,394.434 361.277,393.6 359.5,392.5 Z"/></g>
<g><path style="opacity:1" fill="#d9d9d9" d="M 450.5,393.5 C 455.999,394.884 461.666,395.884 467.5,396.5C 461.836,397.629 456.169,397.629 450.5,396.5C 450.5,395.5 450.5,394.5 450.5,393.5 Z"/></g>
<g><path style="opacity:1" fill="#3b3b3b" d="M 323.5,396.5 C 325.792,396.244 327.959,396.577 330,397.5C 330.667,398.5 330.667,399.5 330,400.5C 326.157,396.489 323.657,397.322 322.5,403C 324.063,408.182 326.563,408.682 330,404.5C 330.165,408.977 327.998,410.477 323.5,409C 320.86,404.768 320.86,400.601 323.5,396.5 Z"/></g>
<g><path style="opacity:1" fill="#585858" d="M 489.5,387.5 C 489.369,388.376 489.702,389.043 490.5,389.5C 491.417,388.873 492.417,388.539 493.5,388.5C 490.065,390.755 486.732,393.255 483.5,396C 479.468,396.773 475.468,397.606 471.5,398.5C 470.833,397.833 470.167,397.167 469.5,396.5C 476.23,396.756 482.23,394.923 487.5,391C 482.088,391.633 476.755,392.8 471.5,394.5C 466.5,393.833 461.5,393.167 456.5,392.5C 467.906,393.321 478.906,391.654 489.5,387.5 Z"/></g>
<g><path style="opacity:1" fill="#333333" d="M 288.5,397.5 C 289.496,397.414 290.329,397.748 291,398.5C 293.106,401.929 294.106,405.596 294,409.5C 292.713,406.855 290.547,405.855 287.5,406.5C 286.212,405.546 286.545,402.546 288.5,397.5 Z"/></g>
<g><path style="opacity:1" fill="#303030" d="M 348.5,397.5 C 351.118,397.779 353.618,398.446 356,399.5C 356.051,403.157 355.718,406.823 355,410.5C 354.506,408.866 354.34,407.199 354.5,405.5C 352.833,405.5 351.167,405.5 349.5,405.5C 349.762,406.978 349.429,408.311 348.5,409.5C 348.167,409.333 347.833,409.167 347.5,409C 348.46,405.27 348.793,401.437 348.5,397.5 Z"/></g>
<g><path style="opacity:1" fill="#404040" d="M 300.5,396.5 C 302.256,397.552 302.923,399.219 302.5,401.5C 304.167,401.5 305.833,401.5 307.5,401.5C 307.215,399.712 307.548,398.045 308.5,396.5C 309.833,400.5 309.833,404.5 308.5,408.5C 307.548,406.955 307.215,405.288 307.5,403.5C 305.833,403.5 304.167,403.5 302.5,403.5C 302.799,405.604 302.466,407.604 301.5,409.5C 300.508,405.217 300.174,400.884 300.5,396.5 Z"/></g>
<g><path style="opacity:1" fill="#cdcdcd" d="M 350.5,399.5 C 351.833,399.5 353.167,399.5 354.5,399.5C 354.5,400.833 354.5,402.167 354.5,403.5C 353.167,403.5 351.833,403.5 350.5,403.5C 350.5,402.167 350.5,400.833 350.5,399.5 Z"/></g>
<g><path style="opacity:1" fill="#393939" d="M 314.5,396.5 C 315.496,396.414 316.329,396.748 317,397.5C 317.881,400.93 319.048,404.263 320.5,407.5C 320.167,407.833 319.833,408.167 319.5,408.5C 318.614,407.675 318.281,406.675 318.5,405.5C 315.453,404.855 313.287,405.855 312,408.5C 312.086,404.391 312.92,400.391 314.5,396.5 Z"/></g>
<g><path style="opacity:1" fill="#424242" d="M 332.5,396.5 C 334.256,397.552 334.923,399.219 334.5,401.5C 336.5,401.5 338.5,401.5 340.5,401.5C 342.008,400.654 342.008,403.32 340.5,409.5C 339.534,407.604 339.201,405.604 339.5,403.5C 337.833,403.5 336.167,403.5 334.5,403.5C 334.785,405.288 334.452,406.955 333.5,408.5C 332.509,404.555 332.176,400.555 332.5,396.5 Z"/></g>
<g><path style="opacity:1" fill="#a7a7a7" d="M 160.5,402.5 C 167.131,403.331 173.798,403.664 180.5,403.5C 177.854,404.164 175.021,404.498 172,404.5C 167.867,404.714 164.034,404.048 160.5,402.5 Z"/></g>
<g><path style="opacity:1" fill="#b7b7b7" d="M 289.5,400.5 C 292.459,403.271 292.126,404.271 288.5,403.5C 289.127,402.583 289.461,401.583 289.5,400.5 Z"/></g>
<g><path style="opacity:1" fill="#262626" d="M 275.5,398.5 C 277.857,398.337 280.19,398.503 282.5,399C 283.815,402.724 284.315,406.558 284,410.5C 282.991,408.975 282.491,407.308 282.5,405.5C 280.833,405.5 279.167,405.5 277.5,405.5C 277.66,407.199 277.494,408.866 277,410.5C 275.985,406.56 275.485,402.56 275.5,398.5 Z"/></g>
<g><path style="opacity:1" fill="#c3c3c3" d="M 277.5,400.5 C 279.167,400.5 280.833,400.5 282.5,400.5C 282.616,403.91 280.95,405.244 277.5,404.5C 277.5,403.167 277.5,401.833 277.5,400.5 Z"/></g>
<g><path style="opacity:1" fill="#2d2d2d" d="M 358.5,399.5 C 360.927,402.81 361.093,406.477 359,410.5C 358.501,406.848 358.335,403.182 358.5,399.5 Z"/></g>
<g><path style="opacity:1" fill="#2f2f2f" d="M 349.5,415.5 C 349.5,415.167 349.5,414.833 349.5,414.5C 349.5,414.167 349.5,413.833 349.5,413.5C 358.712,413.706 367.378,415.873 375.5,420C 377.167,420.667 378.833,420.667 380.5,420C 383.637,414.955 385.303,409.455 385.5,403.5C 379.772,400.642 373.772,398.309 367.5,396.5C 368.568,395.566 369.901,395.232 371.5,395.5C 372.552,395.649 373.552,395.483 374.5,395C 375.257,393.488 376.257,392.154 377.5,391C 382.572,390.249 387.572,390.582 392.5,392C 406.195,397.015 419.195,403.348 431.5,411C 433.448,412.439 434.781,414.272 435.5,416.5C 433.397,422.161 430.73,427.494 427.5,432.5C 417.802,427.319 408.135,422.152 398.5,417C 394.24,416.191 390.24,414.691 386.5,412.5C 384.855,414.925 383.689,417.592 383,420.5C 381.874,421.944 380.374,422.61 378.5,422.5C 372.398,419.854 366.064,417.688 359.5,416C 356.183,415.502 352.85,415.335 349.5,415.5 Z"/></g>
<g><path style="opacity:1" fill="#bebebe" d="M 376.5,394.5 C 379.447,395.644 382.113,397.311 384.5,399.5C 382.048,400.314 379.715,399.814 377.5,398C 376.663,396.989 376.33,395.822 376.5,394.5 Z"/></g>
<g><path style="opacity:1" fill="#d8d8d8" d="M 380.5,392.5 C 398.216,395.354 414.549,401.854 429.5,412C 431.594,413.255 432.594,415.088 432.5,417.5C 431.961,421.45 430.628,425.117 428.5,428.5C 427.277,429.614 425.944,429.781 424.5,429C 412.841,421.671 400.508,415.671 387.5,411C 387.444,407.306 387.277,403.473 387,399.5C 384.14,397.688 381.973,395.354 380.5,392.5 Z"/></g>
<g><path style="opacity:1" fill="#222222" d="M 349.5,413.5 C 349.5,413.833 349.5,414.167 349.5,414.5C 327.66,414.831 305.994,414.497 284.5,413.5C 306.155,412.23 327.822,412.23 349.5,413.5 Z"/></g>
<g><path style="opacity:1" fill="#3b3b3b" d="M 359.5,392.5 C 361.277,393.6 363.277,394.434 365.5,395C 364.906,395.464 364.239,395.631 363.5,395.5C 339.926,392.615 316.26,391.782 292.5,393C 277.479,393.289 263.979,397.789 252,406.5C 252.35,410.567 253.35,414.567 255,418.5C 255.674,419.578 256.674,420.245 258,420.5C 262.1,419.701 265.934,418.201 269.5,416C 274.457,414.842 279.457,414.008 284.5,413.5C 305.994,414.497 327.66,414.831 349.5,414.5C 349.5,414.833 349.5,415.167 349.5,415.5C 325.498,415.333 301.498,415.5 277.5,416C 271.138,418.186 264.805,420.352 258.5,422.5C 257.167,422.167 255.833,421.833 254.5,421.5C 253.764,419.459 252.931,417.459 252,415.5C 247.422,414.423 242.922,414.923 238.5,417C 229.328,422.42 219.994,427.587 210.5,432.5C 206.326,427.131 203.826,421.131 203,414.5C 204.5,413 206,411.5 207.5,410C 220.505,402.332 234.172,395.999 248.5,391C 252.5,390.333 256.5,390.333 260.5,391C 261.889,392.957 263.389,394.79 265,396.5C 272.515,393.33 280.348,391.496 288.5,391C 312.216,389.998 335.883,390.498 359.5,392.5 Z"/></g>
<g><path style="opacity:1" fill="#cbcbcb" d="M 258.5,395.5 C 261.166,395.066 262.333,396.066 262,398.5C 259.293,399.437 256.793,400.77 254.5,402.5C 253.417,401.635 253.251,400.635 254,399.5C 255.397,397.93 256.897,396.596 258.5,395.5 Z"/></g>
<g><path style="opacity:1" fill="#dadada" d="M 248.5,392.5 C 251.85,392.335 255.183,392.502 258.5,393C 254.908,395.921 252.075,399.421 250,403.5C 249.956,406.475 250.123,409.475 250.5,412.5C 245.794,413.343 241.128,414.51 236.5,416C 228.01,420.483 219.51,424.983 211,429.5C 207.835,426.166 206.001,422.166 205.5,417.5C 205.406,415.088 206.406,413.255 208.5,412C 221.261,404.119 234.594,397.619 248.5,392.5 Z"/></g>
</svg>
