<?xml version="1.0" encoding="UTF-8"?>
<!DOCTYPE svg PUBLIC "-//W3C//DTD SVG 1.1//EN" "http://www.w3.org/Graphics/SVG/1.1/DTD/svg11.dtd">
<svg xmlns="http://www.w3.org/2000/svg" version="1.1" width="640px" height="480px" style="shape-rendering:geometricPrecision; text-rendering:geometricPrecision; image-rendering:optimizeQuality; fill-rule:evenodd; clip-rule:evenodd" xmlns:xlink="http://www.w3.org/1999/xlink">
<g><path style="opacity:1" fill="#006846" d="M -0.5,-0.5 C 70.5,-0.5 141.5,-0.5 212.5,-0.5C 212.5,159.5 212.5,319.5 212.5,479.5C 141.5,479.5 70.5,479.5 -0.5,479.5C -0.5,319.5 -0.5,159.5 -0.5,-0.5 Z"/></g>
<g><path style="opacity:1" fill="#fefefe" d="M 212.5,-0.5 C 283.833,-0.5 355.167,-0.5 426.5,-0.5C 426.5,159.5 426.5,319.5 426.5,479.5C 355.167,479.5 283.833,479.5 212.5,479.5C 212.5,319.5 212.5,159.5 212.5,-0.5 Z"/></g>
<g><path style="opacity:1" fill="#cd1125" d="M 426.5,-0.5 C 497.5,-0.5 568.5,-0.5 639.5,-0.5C 639.5,159.5 639.5,319.5 639.5,479.5C 568.5,479.5 497.5,479.5 426.5,479.5C 426.5,319.5 426.5,159.5 426.5,-0.5 Z"/></g>
<g><path style="opacity:1" fill="#8c4c27" d="M 354.5,178.5 C 353.749,177.427 352.749,177.26 351.5,178C 349.907,178.949 348.574,180.115 347.5,181.5C 343.516,179.843 339.516,178.176 335.5,176.5C 334.034,177.135 332.7,177.969 331.5,179C 334.943,179.404 336.276,181.071 335.5,184C 338.054,186.398 338.054,188.731 335.5,191C 336.094,191.464 336.761,191.631 337.5,191.5C 337.5,193.167 337.5,194.833 337.5,196.5C 334.203,196.329 333.869,196.995 336.5,198.5C 335.855,200.432 334.521,201.599 332.5,202C 333.167,202.333 333.833,202.667 334.5,203C 333.284,204.74 331.618,205.74 329.5,206C 330.609,207.813 329.942,208.646 327.5,208.5C 327.276,206.213 326.609,204.047 325.5,202C 325.57,201.235 325.903,200.735 326.5,200.5C 328.752,200.084 330.252,198.751 331,196.5C 332.066,191.196 331.4,186.196 329,181.5C 328.833,182 328.667,182.5 328.5,183C 330.127,187.051 330.627,191.217 330,195.5C 329.932,192.681 328.766,190.514 326.5,189C 329.15,186.918 328.816,185.251 325.5,184C 326.308,183.692 326.975,183.192 327.5,182.5C 325.742,178.408 322.742,175.741 318.5,174.5C 317.548,172.955 317.215,171.288 317.5,169.5C 329.441,166.188 340.441,168.354 350.5,176C 352.5,176.333 354.5,176.667 356.5,177C 355.956,177.717 355.289,178.217 354.5,178.5 Z"/></g>
<g><path style="opacity:1" fill="#cd9d61" d="M 319.5,169.5 C 323.514,169.334 327.514,169.501 331.5,170C 332.672,170.419 333.672,171.085 334.5,172C 330.364,172.756 326.031,173.089 321.5,173C 320.177,172.184 319.511,171.017 319.5,169.5 Z"/></g>
<g><path style="opacity:1" fill="#aa7338" d="M 317.5,169.5 C 317.215,171.288 317.548,172.955 318.5,174.5C 322.742,175.741 325.742,178.408 327.5,182.5C 326.975,183.192 326.308,183.692 325.5,184C 328.816,185.251 329.15,186.918 326.5,189C 328.766,190.514 329.932,192.681 330,195.5C 330.627,191.217 330.127,187.051 328.5,183C 328.667,182.5 328.833,182 329,181.5C 331.4,186.196 332.066,191.196 331,196.5C 330.252,198.751 328.752,200.084 326.5,200.5C 327.66,198.797 326.993,198.131 324.5,198.5C 324.739,196.533 324.406,194.699 323.5,193C 324.167,192.667 324.833,192.333 325.5,192C 323.859,190.871 322.859,189.371 322.5,187.5C 322.277,181.277 318.944,177.943 312.5,177.5C 310.143,172.215 311.809,169.548 317.5,169.5 Z"/></g>
<g><path style="opacity:1" fill="#35261e" d="M 347.5,181.5 C 347.5,182.5 347.5,183.5 347.5,184.5C 346.167,184.5 344.833,184.5 343.5,184.5C 342.133,183.147 341.133,183.481 340.5,185.5C 340.624,186.107 340.957,186.44 341.5,186.5C 341.096,187.756 340.429,188.923 339.5,190C 340.615,191.393 341.115,192.893 341,194.5C 340.667,194.833 340.333,195.167 340,195.5C 339.066,194.142 338.232,192.808 337.5,191.5C 336.761,191.631 336.094,191.464 335.5,191C 338.054,188.731 338.054,186.398 335.5,184C 336.276,181.071 334.943,179.404 331.5,179C 332.7,177.969 334.034,177.135 335.5,176.5C 339.516,178.176 343.516,179.843 347.5,181.5 Z"/></g>
<g><path style="opacity:1" fill="#c69659" d="M 308.5,179.5 C 312.159,179.149 315.159,180.149 317.5,182.5C 316.449,183.222 315.782,184.222 315.5,185.5C 312.739,183.788 309.739,182.622 306.5,182C 307.833,181.667 309.167,181.333 310.5,181C 308.657,180.841 307.991,180.341 308.5,179.5 Z"/></g>
<g><path style="opacity:1" fill="#302721" d="M 354.5,179.5 C 353.859,180.482 353.193,181.482 352.5,182.5C 357.28,186.273 361.28,190.607 364.5,195.5C 362.871,194.375 361.371,193.041 360,191.5C 359.601,191.728 359.435,192.062 359.5,192.5C 356.703,190.205 354.036,187.705 351.5,185C 350.563,184.308 349.897,184.475 349.5,185.5C 349.366,187.292 349.699,188.958 350.5,190.5C 349.5,190.5 348.5,190.5 347.5,190.5C 347.703,188.61 347.037,187.11 345.5,186C 346.448,185.517 347.448,185.351 348.5,185.5C 348.5,184.167 348.5,182.833 348.5,181.5C 350.685,181.296 352.685,180.63 354.5,179.5 Z"/></g>
<g><path style="opacity:1" fill="#c1915b" d="M 305.5,176.5 C 305.146,178.541 305.146,180.374 305.5,182C 303.257,184.467 300.59,186.3 297.5,187.5C 296.476,188.852 295.476,190.185 294.5,191.5C 292.958,190.699 291.292,190.366 289.5,190.5C 292.148,187.219 294.314,183.552 296,179.5C 296.333,180.5 296.667,181.5 297,182.5C 298.117,181.051 298.784,179.384 299,177.5C 299.333,178.833 299.667,180.167 300,181.5C 301.044,179.285 301.71,176.952 302,174.5C 303.044,175.623 303.71,176.956 304,178.5C 304.278,177.584 304.778,176.918 305.5,176.5 Z"/></g>
<g><path style="opacity:1" fill="#aa7747" d="M 354.5,178.5 C 354.5,178.833 354.5,179.167 354.5,179.5C 352.685,180.63 350.685,181.296 348.5,181.5C 348.5,182.833 348.5,184.167 348.5,185.5C 347.448,185.351 346.448,185.517 345.5,186C 347.037,187.11 347.703,188.61 347.5,190.5C 347.5,190.833 347.5,191.167 347.5,191.5C 344.387,191.065 343.721,192.065 345.5,194.5C 345.272,196.397 344.272,197.73 342.5,198.5C 343.807,199.865 343.807,201.198 342.5,202.5C 341.833,202.5 341.167,202.5 340.5,202.5C 340.5,200.5 340.5,198.5 340.5,196.5C 341.5,196.5 342.5,196.5 343.5,196.5C 343.5,194.833 343.5,193.167 343.5,191.5C 344.398,190.842 345.398,190.176 346.5,189.5C 345.048,188.06 344.048,186.394 343.5,184.5C 344.833,184.5 346.167,184.5 347.5,184.5C 347.5,183.5 347.5,182.5 347.5,181.5C 348.574,180.115 349.907,178.949 351.5,178C 352.749,177.26 353.749,177.427 354.5,178.5 Z"/></g>
<g><path style="opacity:1" fill="#8d4620" d="M 343.5,184.5 C 344.048,186.394 345.048,188.06 346.5,189.5C 345.398,190.176 344.398,190.842 343.5,191.5C 342.347,190.687 342.347,189.687 343.5,188.5C 343.145,187.478 342.478,186.811 341.5,186.5C 340.957,186.44 340.624,186.107 340.5,185.5C 341.133,183.481 342.133,183.147 343.5,184.5 Z"/></g>
<g><path style="opacity:1" fill="#f8e6b9" d="M 289.5,190.5 C 291.292,190.366 292.958,190.699 294.5,191.5C 297.385,191.194 300.052,191.527 302.5,192.5C 298.818,192.335 295.152,192.501 291.5,193C 289.372,194.667 288.039,196.834 287.5,199.5C 286.369,197.926 286.202,196.259 287,194.5C 288.481,193.529 289.315,192.196 289.5,190.5 Z"/></g>
<g><path style="opacity:1" fill="#f9f8f5" d="M 304.5,194.5 C 304.162,198.685 302.829,202.519 300.5,206C 300.957,206.414 301.291,206.914 301.5,207.5C 299.071,212.044 298.904,216.711 301,221.5C 301.417,222.756 302.25,223.423 303.5,223.5C 304.11,224.391 304.443,225.391 304.5,226.5C 304.247,228.827 304.914,230.827 306.5,232.5C 305.975,233.192 305.308,233.692 304.5,234C 305.5,235.667 306.833,237 308.5,238C 307.207,238.49 305.873,238.657 304.5,238.5C 302.763,234.409 301.096,230.242 299.5,226C 295.91,224.178 292.243,224.011 288.5,225.5C 287.5,224.5 286.5,223.5 285.5,222.5C 285.34,220.801 285.506,219.134 286,217.5C 290.717,213.286 294.883,208.619 298.5,203.5C 298.739,201.533 298.406,199.699 297.5,198C 299.233,196.811 300.9,195.644 302.5,194.5C 303.396,193.494 304.062,193.494 304.5,194.5 Z"/></g>
<g><path style="opacity:1" fill="#c39056" d="M 318.5,193.5 C 317.691,195.028 317.024,196.694 316.5,198.5C 316.702,200.95 316.369,203.283 315.5,205.5C 315.167,205.5 314.833,205.5 314.5,205.5C 316.247,202.074 315.747,199.074 313,196.5C 312.833,196.833 312.667,197.167 312.5,197.5C 312.937,200.051 312.937,202.718 312.5,205.5C 312.957,206.298 313.624,206.631 314.5,206.5C 313.71,207.794 312.71,208.961 311.5,210C 312.094,210.464 312.761,210.631 313.5,210.5C 312.457,212.978 313.124,215.145 315.5,217C 315.146,218.626 315.146,220.459 315.5,222.5C 314.206,221.71 313.039,220.71 312,219.5C 311.617,220.056 311.117,220.389 310.5,220.5C 310.818,215.968 310.485,211.634 309.5,207.5C 309.565,207.062 309.399,206.728 309,206.5C 307.149,209.064 305.316,209.064 303.5,206.5C 303.06,207.698 302.727,208.865 302.5,210C 304.265,210.64 305.932,210.473 307.5,209.5C 307.489,211.017 306.823,212.184 305.5,213C 306.422,215.976 308.089,218.809 310.5,221.5C 310.5,221.833 310.5,222.167 310.5,222.5C 310.5,223.167 310.5,223.833 310.5,224.5C 310.167,224.5 309.833,224.5 309.5,224.5C 308.185,223.524 306.852,222.524 305.5,221.5C 304.893,221.624 304.56,221.957 304.5,222.5C 303.833,222.5 303.5,222.833 303.5,223.5C 302.25,223.423 301.417,222.756 301,221.5C 298.904,216.711 299.071,212.044 301.5,207.5C 301.291,206.914 300.957,206.414 300.5,206C 302.829,202.519 304.162,198.685 304.5,194.5C 309.291,193.146 310.624,190.146 308.5,185.5C 307.325,185.719 306.325,185.386 305.5,184.5C 309.092,183.706 311.925,185.039 314,188.5C 314.667,190.5 315.333,192.5 316,194.5C 316.299,191.202 317.133,190.868 318.5,193.5 Z"/></g>
<g><path style="opacity:1" fill="#975a2b" d="M 308.5,179.5 C 307.991,180.341 308.657,180.841 310.5,181C 309.167,181.333 307.833,181.667 306.5,182C 309.739,182.622 312.739,183.788 315.5,185.5C 316.315,186.429 317.148,187.429 318,188.5C 318.741,187.359 319.575,187.359 320.5,188.5C 321.988,193.08 322.488,197.746 322,202.5C 321.883,199.037 320.716,196.037 318.5,193.5C 317.133,190.868 316.299,191.202 316,194.5C 315.333,192.5 314.667,190.5 314,188.5C 311.925,185.039 309.092,183.706 305.5,184.5C 306.325,185.386 307.325,185.719 308.5,185.5C 310.624,190.146 309.291,193.146 304.5,194.5C 304.062,193.494 303.396,193.494 302.5,194.5C 302.5,193.833 302.5,193.167 302.5,192.5C 300.052,191.527 297.385,191.194 294.5,191.5C 295.476,190.185 296.476,188.852 297.5,187.5C 300.59,186.3 303.257,184.467 305.5,182C 305.146,180.374 305.146,178.541 305.5,176.5C 305.435,176.062 305.601,175.728 306,175.5C 306.662,176.984 307.496,178.317 308.5,179.5 Z"/></g>
<g><path style="opacity:1" fill="#482917" d="M 349.5,185.5 C 356.146,190.808 360.813,197.474 363.5,205.5C 361.61,205.703 360.11,205.037 359,203.5C 356.643,198.768 353.81,194.435 350.5,190.5C 349.699,188.958 349.366,187.292 349.5,185.5 Z"/></g>
<g><path style="opacity:1" fill="#b8b78a" d="M 285.5,193.5 C 284.359,195.549 284.359,197.549 285.5,199.5C 282.315,199.98 279.481,199.314 277,197.5C 273.924,191.228 275.09,186.061 280.5,182C 284.667,180.833 286.167,182.333 285,186.5C 284.667,185.833 284.333,185.167 284,184.5C 283.365,185.966 282.531,187.3 281.5,188.5C 283.338,189.189 285.005,189.522 286.5,189.5C 284.833,190.667 283.167,191.833 281.5,193C 282.793,193.49 284.127,193.657 285.5,193.5 Z"/></g>
<g><path style="opacity:1" fill="#e0b042" d="M 289.5,190.5 C 289.315,192.196 288.481,193.529 287,194.5C 286.202,196.259 286.369,197.926 287.5,199.5C 288.039,196.834 289.372,194.667 291.5,193C 295.152,192.501 298.818,192.335 302.5,192.5C 302.5,193.167 302.5,193.833 302.5,194.5C 300.9,195.644 299.233,196.811 297.5,198C 298.406,199.699 298.739,201.533 298.5,203.5C 295.269,201.78 292.436,199.447 290,196.5C 289.28,198.112 289.446,199.612 290.5,201C 289.906,201.464 289.239,201.631 288.5,201.5C 287.29,201.068 286.29,200.401 285.5,199.5C 284.359,197.549 284.359,195.549 285.5,193.5C 286.833,192.5 288.167,191.5 289.5,190.5 Z"/></g>
<g><path style="opacity:1" fill="#925531" d="M 354.5,179.5 C 365.267,186.941 372.601,196.941 376.5,209.5C 377.859,211.009 377.359,211.676 375,211.5C 372.679,211.091 370.513,210.257 368.5,209C 370.283,207.933 370.783,206.433 370,204.5C 368.643,201.102 366.81,198.102 364.5,195.5C 361.28,190.607 357.28,186.273 352.5,182.5C 353.193,181.482 353.859,180.482 354.5,179.5 Z"/></g>
<g><path style="opacity:1" fill="#442c1d" d="M 347.5,191.5 C 347.389,192.117 347.056,192.617 346.5,193C 349.951,196.74 353.285,200.573 356.5,204.5C 355.635,205.583 354.635,205.749 353.5,205C 351.182,202.403 348.682,199.903 346,197.5C 345.333,198.167 345.333,198.833 346,199.5C 352.222,204.455 352.056,206.455 345.5,205.5C 344.833,204.167 343.833,203.167 342.5,202.5C 343.807,201.198 343.807,199.865 342.5,198.5C 344.272,197.73 345.272,196.397 345.5,194.5C 343.721,192.065 344.387,191.065 347.5,191.5 Z"/></g>
<g><path style="opacity:1" fill="#884d27" d="M 314.5,205.5 C 314.5,205.833 314.5,206.167 314.5,206.5C 313.624,206.631 312.957,206.298 312.5,205.5C 312.937,202.718 312.937,200.051 312.5,197.5C 312.667,197.167 312.833,196.833 313,196.5C 315.747,199.074 316.247,202.074 314.5,205.5 Z"/></g>
<g><path style="opacity:1" fill="#94562d" d="M 349.5,185.5 C 349.897,184.475 350.563,184.308 351.5,185C 354.036,187.705 356.703,190.205 359.5,192.5C 361.5,195.833 363.5,199.167 365.5,202.5C 365.028,204.531 364.028,206.198 362.5,207.5C 361.624,207.369 360.957,207.702 360.5,208.5C 362.527,209.693 364.027,211.36 365,213.5C 366.486,217.776 367.819,222.109 369,226.5C 369.81,230.358 369.643,234.024 368.5,237.5C 367.227,232.133 365.894,226.799 364.5,221.5C 361.19,218.209 359.523,214.209 359.5,209.5C 358.178,209.67 357.011,209.337 356,208.5C 356.947,214.308 359.28,219.641 363,224.5C 363.805,227.696 363.638,230.696 362.5,233.5C 361.748,230.253 361.248,226.919 361,223.5C 360.292,222.619 359.458,221.953 358.5,221.5C 355.485,218.468 353.818,214.801 353.5,210.5C 352.178,210.67 351.011,210.337 350,209.5C 349.333,210.833 349.333,212.167 350,213.5C 352.15,217.503 354.984,220.836 358.5,223.5C 358.5,223.833 358.5,224.167 358.5,224.5C 358.737,225.791 358.404,226.791 357.5,227.5C 357.25,225.326 356.25,223.659 354.5,222.5C 350.668,219.501 347.335,216.001 344.5,212C 346.957,210.846 346.957,209.512 344.5,208C 345.252,207.329 345.586,206.496 345.5,205.5C 352.056,206.455 352.222,204.455 346,199.5C 345.333,198.833 345.333,198.167 346,197.5C 348.682,199.903 351.182,202.403 353.5,205C 354.635,205.749 355.635,205.583 356.5,204.5C 353.285,200.573 349.951,196.74 346.5,193C 347.056,192.617 347.389,192.117 347.5,191.5C 347.5,191.167 347.5,190.833 347.5,190.5C 348.5,190.5 349.5,190.5 350.5,190.5C 353.81,194.435 356.643,198.768 359,203.5C 360.11,205.037 361.61,205.703 363.5,205.5C 360.813,197.474 356.146,190.808 349.5,185.5 Z"/></g>
<g><path style="opacity:1" fill="#4b2d1c" d="M 317.5,182.5 C 318.239,182.369 318.906,182.536 319.5,183C 320.399,184.652 321.399,186.152 322.5,187.5C 322.859,189.371 323.859,190.871 325.5,192C 324.833,192.333 324.167,192.667 323.5,193C 324.406,194.699 324.739,196.533 324.5,198.5C 326.993,198.131 327.66,198.797 326.5,200.5C 325.903,200.735 325.57,201.235 325.5,202C 326.609,204.047 327.276,206.213 327.5,208.5C 329.942,208.646 330.609,207.813 329.5,206C 331.618,205.74 333.284,204.74 334.5,203C 333.833,202.667 333.167,202.333 332.5,202C 334.521,201.599 335.855,200.432 336.5,198.5C 333.869,196.995 334.203,196.329 337.5,196.5C 337.5,194.833 337.5,193.167 337.5,191.5C 338.232,192.808 339.066,194.142 340,195.5C 340.333,195.167 340.667,194.833 341,194.5C 341.115,192.893 340.615,191.393 339.5,190C 340.429,188.923 341.096,187.756 341.5,186.5C 342.478,186.811 343.145,187.478 343.5,188.5C 342.347,189.687 342.347,190.687 343.5,191.5C 343.5,193.167 343.5,194.833 343.5,196.5C 342.5,196.5 341.5,196.5 340.5,196.5C 340.5,198.5 340.5,200.5 340.5,202.5C 339.399,201.2 338.066,200.7 336.5,201C 338.933,203.348 338.933,205.515 336.5,207.5C 335.522,207.023 334.689,206.357 334,205.5C 334.229,208.81 332.729,210.644 329.5,211C 330.551,212.385 331.884,213.385 333.5,214C 332.272,215.49 332.272,216.99 333.5,218.5C 333.19,219.738 332.69,219.738 332,218.5C 331.667,219.833 331.333,221.167 331,222.5C 330.054,219.688 328.387,217.355 326,215.5C 325.667,217.047 326.167,218.38 327.5,219.5C 326.573,221.491 326.406,223.491 327,225.5C 325.39,223.403 324.223,221.07 323.5,218.5C 323.167,219 322.833,219.5 322.5,220C 323.609,222.047 324.276,224.213 324.5,226.5C 323.883,226.389 323.383,226.056 323,225.5C 323,226.833 323,228.167 323,229.5C 320.664,227.46 318.831,225.127 317.5,222.5C 317.338,220.473 317.505,218.473 318,216.5C 318.837,218.007 320.004,218.507 321.5,218C 319.932,215.606 318.599,213.106 317.5,210.5C 318.227,207.122 318.56,203.788 318.5,200.5C 318.253,199.287 317.586,198.62 316.5,198.5C 317.024,196.694 317.691,195.028 318.5,193.5C 320.716,196.037 321.883,199.037 322,202.5C 322.488,197.746 321.988,193.08 320.5,188.5C 319.575,187.359 318.741,187.359 318,188.5C 317.148,187.429 316.315,186.429 315.5,185.5C 315.782,184.222 316.449,183.222 317.5,182.5 Z"/></g>
<g><path style="opacity:1" fill="#38332d" d="M 314.5,205.5 C 314.833,205.5 315.167,205.5 315.5,205.5C 316.043,205.56 316.376,205.893 316.5,206.5C 315.476,207.852 314.476,209.185 313.5,210.5C 312.761,210.631 312.094,210.464 311.5,210C 312.71,208.961 313.71,207.794 314.5,206.5C 314.5,206.167 314.5,205.833 314.5,205.5 Z"/></g>
<g><path style="opacity:1" fill="#673f27" d="M 340.5,202.5 C 341.167,202.5 341.833,202.5 342.5,202.5C 343.833,203.167 344.833,204.167 345.5,205.5C 345.586,206.496 345.252,207.329 344.5,208C 346.957,209.512 346.957,210.846 344.5,212C 347.335,216.001 350.668,219.501 354.5,222.5C 357.407,235.243 356.573,235.576 352,223.5C 350.846,222.257 349.512,221.257 348,220.5C 347.536,221.094 347.369,221.761 347.5,222.5C 345.167,220.833 343.167,218.833 341.5,216.5C 344.127,213.623 343.794,210.956 340.5,208.5C 339.761,208.631 339.094,208.464 338.5,208C 339.244,206.185 339.911,204.352 340.5,202.5 Z"/></g>
<g><path style="opacity:1" fill="#afaa7a" d="M 298.5,203.5 C 294.883,208.619 290.717,213.286 286,217.5C 285.506,219.134 285.34,220.801 285.5,222.5C 284.732,221.737 284.232,220.737 284,219.5C 283.413,223.31 283.913,226.977 285.5,230.5C 280.638,228.786 278.304,225.286 278.5,220C 278.615,217.268 279.448,214.768 281,212.5C 284.825,209.675 288.325,206.508 291.5,203C 290.263,202.768 289.263,202.268 288.5,201.5C 289.239,201.631 289.906,201.464 290.5,201C 289.446,199.612 289.28,198.112 290,196.5C 292.436,199.447 295.269,201.78 298.5,203.5 Z"/></g>
<g><path style="opacity:1" fill="#69462e" d="M 309.5,207.5 C 309.167,208.5 308.5,209.167 307.5,209.5C 305.932,210.473 304.265,210.64 302.5,210C 302.727,208.865 303.06,207.698 303.5,206.5C 305.316,209.064 307.149,209.064 309,206.5C 309.399,206.728 309.565,207.062 309.5,207.5 Z"/></g>
<g><path style="opacity:1" fill="#be8e56" d="M 340.5,208.5 C 343.794,210.956 344.127,213.623 341.5,216.5C 341.985,214.915 341.319,213.415 339.5,212C 340.167,211.667 340.833,211.333 341.5,211C 340.748,210.329 340.414,209.496 340.5,208.5 Z"/></g>
<g><path style="opacity:1" fill="#e3bb49" d="M 271.5,211.5 C 269.896,212.287 269.229,213.62 269.5,215.5C 266.1,215.968 263.767,214.635 262.5,211.5C 263.167,210.167 264.167,209.167 265.5,208.5C 267.919,208.914 269.919,209.914 271.5,211.5 Z"/></g>
<g><path style="opacity:1" fill="#9a5826" d="M 316.5,198.5 C 317.586,198.62 318.253,199.287 318.5,200.5C 318.56,203.788 318.227,207.122 317.5,210.5C 318.599,213.106 319.932,215.606 321.5,218C 320.004,218.507 318.837,218.007 318,216.5C 317.505,218.473 317.338,220.473 317.5,222.5C 317.5,223.167 317.167,223.5 316.5,223.5C 316.5,222.833 316.167,222.5 315.5,222.5C 315.146,220.459 315.146,218.626 315.5,217C 313.124,215.145 312.457,212.978 313.5,210.5C 314.476,209.185 315.476,207.852 316.5,206.5C 316.376,205.893 316.043,205.56 315.5,205.5C 316.369,203.283 316.702,200.95 316.5,198.5 Z"/></g>
<g><path style="opacity:1" fill="#874d2b" d="M 340.5,202.5 C 339.911,204.352 339.244,206.185 338.5,208C 339.094,208.464 339.761,208.631 340.5,208.5C 340.414,209.496 340.748,210.329 341.5,211C 340.833,211.333 340.167,211.667 339.5,212C 341.319,213.415 341.985,214.915 341.5,216.5C 343.167,218.833 345.167,220.833 347.5,222.5C 349.36,225.249 350.527,228.249 351,231.5C 349.171,229.844 347.837,227.844 347,225.5C 344.219,222.9 341.386,220.566 338.5,218.5C 337.377,212.034 336.71,212.034 336.5,218.5C 335.5,218.5 334.5,218.5 333.5,218.5C 332.272,216.99 332.272,215.49 333.5,214C 331.884,213.385 330.551,212.385 329.5,211C 332.729,210.644 334.229,208.81 334,205.5C 334.689,206.357 335.522,207.023 336.5,207.5C 338.933,205.515 338.933,203.348 336.5,201C 338.066,200.7 339.399,201.2 340.5,202.5 Z"/></g>
<g><path style="opacity:1" fill="#4d3425" d="M 364.5,221.5 C 365.443,229.481 365.61,237.481 365,245.5C 364.673,241.358 363.839,237.358 362.5,233.5C 363.638,230.696 363.805,227.696 363,224.5C 359.28,219.641 356.947,214.308 356,208.5C 357.011,209.337 358.178,209.67 359.5,209.5C 359.523,214.209 361.19,218.209 364.5,221.5 Z"/></g>
<g><path style="opacity:1" fill="#a36129" d="M 309.5,207.5 C 310.485,211.634 310.818,215.968 310.5,220.5C 310.5,220.833 310.5,221.167 310.5,221.5C 308.089,218.809 306.422,215.976 305.5,213C 306.823,212.184 307.489,211.017 307.5,209.5C 308.5,209.167 309.167,208.5 309.5,207.5 Z"/></g>
<g><path style="opacity:1" fill="#492e1c" d="M 358.5,221.5 C 358.5,222.167 358.5,222.833 358.5,223.5C 354.984,220.836 352.15,217.503 350,213.5C 349.333,212.167 349.333,210.833 350,209.5C 351.011,210.337 352.178,210.67 353.5,210.5C 353.818,214.801 355.485,218.468 358.5,221.5 Z"/></g>
<g><path style="opacity:1" fill="#a46a33" d="M 365.5,202.5 C 366.135,206.779 367.635,210.779 370,214.5C 370.495,216.473 370.662,218.473 370.5,220.5C 367.643,217.454 365.81,213.787 365,209.5C 364.005,208.934 363.172,208.267 362.5,207.5C 364.028,206.198 365.028,204.531 365.5,202.5 Z"/></g>
<g><path style="opacity:1" fill="#4f3221" d="M 364.5,195.5 C 366.81,198.102 368.643,201.102 370,204.5C 370.783,206.433 370.283,207.933 368.5,209C 370.513,210.257 372.679,211.091 375,211.5C 377.359,211.676 377.859,211.009 376.5,209.5C 377.756,209.461 378.756,209.961 379.5,211C 378.426,211.739 377.759,212.739 377.5,214C 378.08,216.458 378.414,218.958 378.5,221.5C 377.233,231.169 375.9,240.836 374.5,250.5C 373.833,253.167 373.167,253.167 372.5,250.5C 373.246,241.111 372.913,231.778 371.5,222.5C 371.167,221.833 370.833,221.167 370.5,220.5C 370.662,218.473 370.495,216.473 370,214.5C 367.635,210.779 366.135,206.779 365.5,202.5C 363.5,199.167 361.5,195.833 359.5,192.5C 359.435,192.062 359.601,191.728 360,191.5C 361.371,193.041 362.871,194.375 364.5,195.5 Z"/></g>
<g><path style="opacity:1" fill="#8e5029" d="M 310.5,222.5 C 312.815,225.856 315.482,228.19 318.5,229.5C 317.778,229.918 317.278,230.584 317,231.5C 316.617,230.944 316.117,230.611 315.5,230.5C 313.11,229.109 311.443,227.109 310.5,224.5C 310.5,223.833 310.5,223.167 310.5,222.5 Z"/></g>
<g><path style="opacity:1" fill="#7e4120" d="M 371.5,213.5 C 373.03,214.067 374.53,214.733 376,215.5C 376.934,220.351 376.601,225.017 375,229.5C 375.074,223.807 373.907,218.474 371.5,213.5 Z"/></g>
<g><path style="opacity:1" fill="#a56b3c" d="M 338.5,218.5 C 337.662,218.842 337.328,219.508 337.5,220.5C 334.848,221.152 333.182,222.818 332.5,225.5C 331.056,224.019 330.389,224.352 330.5,226.5C 328.677,227.502 326.677,227.502 324.5,226.5C 324.276,224.213 323.609,222.047 322.5,220C 322.833,219.5 323.167,219 323.5,218.5C 324.223,221.07 325.39,223.403 327,225.5C 326.406,223.491 326.573,221.491 327.5,219.5C 326.167,218.38 325.667,217.047 326,215.5C 328.387,217.355 330.054,219.688 331,222.5C 331.333,221.167 331.667,219.833 332,218.5C 332.69,219.738 333.19,219.738 333.5,218.5C 334.5,218.5 335.5,218.5 336.5,218.5C 336.71,212.034 337.377,212.034 338.5,218.5 Z"/></g>
<g><path style="opacity:1" fill="#ac7c3c" d="M 285.5,222.5 C 286.5,223.5 287.5,224.5 288.5,225.5C 290.269,228.277 292.602,230.277 295.5,231.5C 291.958,231.813 288.625,231.479 285.5,230.5C 283.913,226.977 283.413,223.31 284,219.5C 284.232,220.737 284.732,221.737 285.5,222.5 Z"/></g>
<g><path style="opacity:1" fill="#50301b" d="M 315.5,222.5 C 316.167,222.5 316.5,222.833 316.5,223.5C 318.541,225.903 319.708,228.57 320,231.5C 319.283,230.956 318.783,230.289 318.5,229.5C 315.482,228.19 312.815,225.856 310.5,222.5C 310.5,222.167 310.5,221.833 310.5,221.5C 310.5,221.167 310.5,220.833 310.5,220.5C 311.117,220.389 311.617,220.056 312,219.5C 313.039,220.71 314.206,221.71 315.5,222.5 Z"/></g>
<g><path style="opacity:1" fill="#b58753" d="M 317.5,222.5 C 318.831,225.127 320.664,227.46 323,229.5C 323,228.167 323,226.833 323,225.5C 323.383,226.056 323.883,226.389 324.5,226.5C 326.677,227.502 328.677,227.502 330.5,226.5C 330.762,227.978 330.429,229.311 329.5,230.5C 328.914,230.291 328.414,229.957 328,229.5C 327.51,230.793 327.343,232.127 327.5,233.5C 326.041,233.567 324.708,233.234 323.5,232.5C 322.9,233.9 321.9,234.9 320.5,235.5C 319.833,235.5 319.167,235.5 318.5,235.5C 317.833,234.167 316.833,233.167 315.5,232.5C 315.5,231.833 315.5,231.167 315.5,230.5C 316.117,230.611 316.617,230.944 317,231.5C 317.278,230.584 317.778,229.918 318.5,229.5C 318.783,230.289 319.283,230.956 320,231.5C 319.708,228.57 318.541,225.903 316.5,223.5C 317.167,223.5 317.5,223.167 317.5,222.5 Z"/></g>
<g><path style="opacity:1" fill="#5b473d" d="M 358.5,224.5 C 359.626,227.465 360.626,230.465 361.5,233.5C 361.649,234.552 361.483,235.552 361,236.5C 359.346,233.707 358.179,230.707 357.5,227.5C 358.404,226.791 358.737,225.791 358.5,224.5 Z"/></g>
<g><path style="opacity:1" fill="#bebf96" d="M 271.5,211.5 C 274.67,212.506 276.67,214.672 277.5,218C 276.139,220.73 275.639,223.563 276,226.5C 279.898,229.229 282.398,232.895 283.5,237.5C 284.325,238.386 285.325,238.719 286.5,238.5C 285.916,241.285 286.916,242.952 289.5,243.5C 289.5,243.833 289.5,244.167 289.5,244.5C 281.178,247.257 277.012,244.257 277,235.5C 269.834,231.336 268.001,225.503 271.5,218C 271.316,216.624 270.649,215.791 269.5,215.5C 269.229,213.62 269.896,212.287 271.5,211.5 Z"/></g>
<g><path style="opacity:1" fill="#dcb33d" d="M 304.5,238.5 C 304.36,240.124 305.027,241.29 306.5,242C 303.937,242.126 301.604,242.293 299.5,242.5C 298.295,243.686 296.961,243.686 295.5,242.5C 295.217,241.711 294.717,241.044 294,240.5C 292.348,241.399 290.848,242.399 289.5,243.5C 286.916,242.952 285.916,241.285 286.5,238.5C 287.633,235.029 289.967,233.029 293.5,232.5C 291.934,235.494 292.601,236.494 295.5,235.5C 296.167,235.5 296.833,235.5 297.5,235.5C 297.5,236.5 297.5,237.5 297.5,238.5C 298.833,238.5 300.167,238.5 301.5,238.5C 301.5,236.833 301.5,235.167 301.5,233.5C 300.167,233.5 298.833,233.5 297.5,233.5C 297.5,232.167 296.833,231.5 295.5,231.5C 292.602,230.277 290.269,228.277 288.5,225.5C 292.243,224.011 295.91,224.178 299.5,226C 301.096,230.242 302.763,234.409 304.5,238.5 Z"/></g>
<g><path style="opacity:1" fill="#834722" d="M 309.5,224.5 C 310.063,228.311 312.063,230.977 315.5,232.5C 316.833,233.167 317.833,234.167 318.5,235.5C 318.5,236.167 318.5,236.833 318.5,237.5C 312.45,233.783 307.783,228.783 304.5,222.5C 304.56,221.957 304.893,221.624 305.5,221.5C 306.852,222.524 308.185,223.524 309.5,224.5 Z"/></g>
<g><path style="opacity:1" fill="#4d311e" d="M 309.5,224.5 C 309.833,224.5 310.167,224.5 310.5,224.5C 311.443,227.109 313.11,229.109 315.5,230.5C 315.5,231.167 315.5,231.833 315.5,232.5C 312.063,230.977 310.063,228.311 309.5,224.5 Z"/></g>
<g><path style="opacity:1" fill="#432b1c" d="M 337.5,220.5 C 339.023,223.635 339.69,226.968 339.5,230.5C 339.44,231.043 339.107,231.376 338.5,231.5C 337.719,230.271 337.219,228.938 337,227.5C 335.166,230.601 333.832,234.601 333,239.5C 332.737,236.736 331.237,235.069 328.5,234.5C 328.245,236.343 328.078,238.343 328,240.5C 325.843,238.183 324.343,235.516 323.5,232.5C 324.708,233.234 326.041,233.567 327.5,233.5C 327.343,232.127 327.51,230.793 328,229.5C 328.414,229.957 328.914,230.291 329.5,230.5C 330.429,229.311 330.762,227.978 330.5,226.5C 330.389,224.352 331.056,224.019 332.5,225.5C 333.182,222.818 334.848,221.152 337.5,220.5 Z"/></g>
<g><path style="opacity:1" fill="#d9b252" d="M 264.5,234.5 C 264.5,235.167 264.167,235.5 263.5,235.5C 262.524,234.185 261.524,232.852 260.5,231.5C 261.325,230.614 262.325,230.281 263.5,230.5C 263.433,231.959 263.766,233.292 264.5,234.5 Z"/></g>
<g><path style="opacity:1" fill="#c6bd8f" d="M 295.5,231.5 C 296.833,231.5 297.5,232.167 297.5,233.5C 297.5,234.167 297.5,234.833 297.5,235.5C 296.833,235.5 296.167,235.5 295.5,235.5C 295.5,234.5 295.5,233.5 295.5,232.5C 295.5,232.167 295.5,231.833 295.5,231.5 Z"/></g>
<g><path style="opacity:1" fill="#bfb9b6" d="M 358.5,221.5 C 359.458,221.953 360.292,222.619 361,223.5C 361.248,226.919 361.748,230.253 362.5,233.5C 362.167,233.5 361.833,233.5 361.5,233.5C 360.626,230.465 359.626,227.465 358.5,224.5C 358.5,224.167 358.5,223.833 358.5,223.5C 358.5,222.833 358.5,222.167 358.5,221.5 Z"/></g>
<g><path style="opacity:1" fill="#35362f" d="M 293.5,232.5 C 294.167,232.5 294.833,232.5 295.5,232.5C 295.5,233.5 295.5,234.5 295.5,235.5C 292.601,236.494 291.934,235.494 293.5,232.5 Z"/></g>
<g><path style="opacity:1" fill="#3a302a" d="M 362.5,207.5 C 363.172,208.267 364.005,208.934 365,209.5C 365.81,213.787 367.643,217.454 370.5,220.5C 370.833,221.167 371.167,221.833 371.5,222.5C 370.507,230.65 370.174,238.983 370.5,247.5C 369.833,244.833 369.167,242.167 368.5,239.5C 368.5,238.833 368.5,238.167 368.5,237.5C 369.643,234.024 369.81,230.358 369,226.5C 367.819,222.109 366.486,217.776 365,213.5C 364.027,211.36 362.527,209.693 360.5,208.5C 360.957,207.702 361.624,207.369 362.5,207.5 Z"/></g>
<g><path style="opacity:1" fill="#9d6d29" d="M 297.5,233.5 C 298.833,233.5 300.167,233.5 301.5,233.5C 301.5,235.167 301.5,236.833 301.5,238.5C 300.167,238.5 298.833,238.5 297.5,238.5C 297.5,237.5 297.5,236.5 297.5,235.5C 297.5,234.833 297.5,234.167 297.5,233.5 Z"/></g>
<g><path style="opacity:1" fill="#382d26" d="M 304.5,222.5 C 307.783,228.783 312.45,233.783 318.5,237.5C 320.114,240.393 321.447,243.393 322.5,246.5C 321.5,246.167 320.833,245.5 320.5,244.5C 319.167,242.5 317.5,240.833 315.5,239.5C 313.949,236.437 311.782,233.771 309,231.5C 308.667,232.167 308.333,232.833 308,233.5C 307.861,230.555 306.694,228.221 304.5,226.5C 304.443,225.391 304.11,224.391 303.5,223.5C 303.5,222.833 303.833,222.5 304.5,222.5 Z"/></g>
<g><path style="opacity:1" fill="#282321" d="M 318.5,235.5 C 319.167,235.5 319.833,235.5 320.5,235.5C 327.479,243.678 326.812,244.344 318.5,237.5C 318.5,236.833 318.5,236.167 318.5,235.5 Z"/></g>
<g><path style="opacity:1" fill="#ee6834" d="M 264.5,234.5 C 265.473,235.791 266.473,235.791 267.5,234.5C 268.386,235.325 268.719,236.325 268.5,237.5C 266.053,237.615 264.053,238.615 262.5,240.5C 261.903,240.265 261.57,239.765 261.5,239C 262.429,237.923 263.096,236.756 263.5,235.5C 264.167,235.5 264.5,235.167 264.5,234.5 Z"/></g>
<g><path style="opacity:1" fill="#939659" d="M 379.5,275.5 C 378.833,275.5 378.5,275.167 378.5,274.5C 375.092,265.805 377.259,259.138 385,254.5C 386.465,255.369 387.631,254.869 388.5,253C 387.637,250.638 385.97,249.138 383.5,248.5C 385.023,245.812 386.357,245.978 387.5,249C 388.332,249.688 388.998,249.521 389.5,248.5C 386.764,243.477 385.93,238.144 387,232.5C 388,233.833 389,235.167 390,236.5C 390.131,233.629 391.297,231.295 393.5,229.5C 394.806,230.912 395.64,232.579 396,234.5C 396.667,233.167 397.333,233.167 398,234.5C 399.373,236.695 399.706,239.029 399,241.5C 396.306,244.439 393.473,247.272 390.5,250C 392.464,250.624 394.131,250.124 395.5,248.5C 396.386,249.325 396.719,250.325 396.5,251.5C 394.139,251.674 391.806,252.007 389.5,252.5C 389.192,254.924 389.526,257.257 390.5,259.5C 391.62,258.167 392.953,257.667 394.5,258C 392.294,261.268 390.461,264.768 389,268.5C 385.585,270.569 382.418,272.902 379.5,275.5 Z"/></g>
<g><path style="opacity:1" fill="#7f8444" d="M 251.5,231.5 C 247.939,232.473 246.605,234.64 247.5,238C 245.417,239.32 245.751,240.654 248.5,242C 247.5,242.333 246.5,242.667 245.5,243C 247.466,244.347 247.799,245.847 246.5,247.5C 244.303,244.805 241.97,242.305 239.5,240C 239.833,239.5 240.167,239 240.5,238.5C 241.451,239.326 242.451,239.492 243.5,239C 241.164,236.952 241.164,235.118 243.5,233.5C 244.086,233.709 244.586,234.043 245,234.5C 245.216,232.616 245.883,230.949 247,229.5C 248.587,230.727 249.921,230.394 251,228.5C 251.483,229.448 251.649,230.448 251.5,231.5 Z"/></g>
<g><path style="opacity:1" fill="#323029" d="M 295.5,242.5 C 293.703,243.73 291.703,244.396 289.5,244.5C 289.5,244.167 289.5,243.833 289.5,243.5C 290.848,242.399 292.348,241.399 294,240.5C 294.717,241.044 295.217,241.711 295.5,242.5 Z"/></g>
<g><path style="opacity:1" fill="#f697a4" d="M 268.5,237.5 C 269.942,238.82 270.608,240.486 270.5,242.5C 270.5,243.5 270.5,244.5 270.5,245.5C 269.167,245.5 267.833,245.5 266.5,245.5C 265.197,243.858 263.864,242.191 262.5,240.5C 264.053,238.615 266.053,237.615 268.5,237.5 Z"/></g>
<g><path style="opacity:1" fill="#b07740" d="M 304.5,226.5 C 306.694,228.221 307.861,230.555 308,233.5C 308.333,232.833 308.667,232.167 309,231.5C 311.782,233.771 313.949,236.437 315.5,239.5C 315.662,241.527 315.495,243.527 315,245.5C 314.051,241.622 312.885,241.622 311.5,245.5C 310.14,246.18 308.807,246.847 307.5,247.5C 304.794,246.061 302.127,244.394 299.5,242.5C 301.604,242.293 303.937,242.126 306.5,242C 305.027,241.29 304.36,240.124 304.5,238.5C 305.873,238.657 307.207,238.49 308.5,238C 306.833,237 305.5,235.667 304.5,234C 305.308,233.692 305.975,233.192 306.5,232.5C 304.914,230.827 304.247,228.827 304.5,226.5 Z"/></g>
<g><path style="opacity:1" fill="#8e5536" d="M 315.5,239.5 C 317.5,240.833 319.167,242.5 320.5,244.5C 319.15,245.483 318.15,246.816 317.5,248.5C 316.784,247.689 315.95,247.022 315,246.5C 313.216,247.309 311.383,247.976 309.5,248.5C 308.584,248.457 307.917,248.124 307.5,247.5C 308.807,246.847 310.14,246.18 311.5,245.5C 312.885,241.622 314.051,241.622 315,245.5C 315.495,243.527 315.662,241.527 315.5,239.5 Z"/></g>
<g><path style="opacity:1" fill="#62381d" d="M 339.5,230.5 C 348.476,236.815 357.143,243.481 365.5,250.5C 364.406,251.582 363.073,252.248 361.5,252.5C 357.337,248.662 352.67,245.662 347.5,243.5C 345.216,239.715 342.383,236.382 339,233.5C 339.093,236.956 338.093,239.956 336,242.5C 335.667,242.167 335.333,241.833 335,241.5C 334.517,242.448 334.351,243.448 334.5,244.5C 332.857,244.48 331.524,245.147 330.5,246.5C 329.522,246.023 328.689,245.357 328,244.5C 327.935,246.883 327.102,247.55 325.5,246.5C 324.702,246.957 324.369,247.624 324.5,248.5C 323.5,248.167 322.833,247.5 322.5,246.5C 321.447,243.393 320.114,240.393 318.5,237.5C 326.812,244.344 327.479,243.678 320.5,235.5C 321.9,234.9 322.9,233.9 323.5,232.5C 324.343,235.516 325.843,238.183 328,240.5C 328.078,238.343 328.245,236.343 328.5,234.5C 331.237,235.069 332.737,236.736 333,239.5C 333.832,234.601 335.166,230.601 337,227.5C 337.219,228.938 337.719,230.271 338.5,231.5C 339.107,231.376 339.44,231.043 339.5,230.5 Z"/></g>
<g><path style="opacity:1" fill="#e5c05a" d="M 250.5,251.5 C 250.5,251.167 250.5,250.833 250.5,250.5C 251.363,249.06 251.363,247.726 250.5,246.5C 251.76,245.618 252.926,244.618 254,243.5C 254.167,244.333 254.333,245.167 254.5,246C 253.401,248.036 252.068,249.869 250.5,251.5 Z"/></g>
<g><path style="opacity:1" fill="#848484" d="M 368.5,239.5 C 369.167,242.167 369.833,244.833 370.5,247.5C 370.44,248.043 370.107,248.376 369.5,248.5C 368.516,245.572 368.183,242.572 368.5,239.5 Z"/></g>
<g><path style="opacity:1" fill="#422d21" d="M 347.5,243.5 C 352.67,245.662 357.337,248.662 361.5,252.5C 363.073,252.248 364.406,251.582 365.5,250.5C 366.645,251.793 366.311,252.959 364.5,254C 357.507,256.007 350.507,256.341 343.5,255C 341.641,253.442 340.141,251.609 339,249.5C 338.215,251.249 337.382,252.916 336.5,254.5C 335.542,254.047 334.708,253.381 334,252.5C 333.925,254.935 333.092,255.602 331.5,254.5C 331.217,253.711 330.717,253.044 330,252.5C 329.577,253.956 328.744,254.456 327.5,254C 326.361,252.22 325.361,250.386 324.5,248.5C 324.369,247.624 324.702,246.957 325.5,246.5C 327.102,247.55 327.935,246.883 328,244.5C 328.689,245.357 329.522,246.023 330.5,246.5C 331.524,245.147 332.857,244.48 334.5,244.5C 334.351,243.448 334.517,242.448 335,241.5C 335.333,241.833 335.667,242.167 336,242.5C 338.093,239.956 339.093,236.956 339,233.5C 342.383,236.382 345.216,239.715 347.5,243.5 Z"/></g>
<g><path style="opacity:1" fill="#753a1b" d="M 338.5,241.5 C 342.964,245.463 347.298,249.63 351.5,254C 350.5,254.667 349.5,254.667 348.5,254C 344.169,250.516 340.836,246.349 338.5,241.5 Z"/></g>
<g><path style="opacity:1" fill="#247b7e" d="M 266.5,245.5 C 267.833,245.5 269.167,245.5 270.5,245.5C 273.652,244.959 276.152,245.959 278,248.5C 278.617,249.449 278.451,250.282 277.5,251C 279.592,251.953 279.925,253.286 278.5,255C 280.065,256.506 280.399,258.006 279.5,259.5C 270.639,258.974 266.306,254.308 266.5,245.5 Z"/></g>
<g><path style="opacity:1" fill="#ee824e" d="M 297.5,251.5 C 295.565,250.85 293.565,250.517 291.5,250.5C 290.466,248.183 291.466,247.183 294.5,247.5C 294.281,246.325 294.614,245.325 295.5,244.5C 296.59,245.391 296.59,246.391 295.5,247.5C 296.853,248.524 297.52,249.857 297.5,251.5 Z"/></g>
<g><path style="opacity:1" fill="#6e381b" d="M 347.5,243.5 C 350.722,247.122 354.388,250.288 358.5,253C 357.092,253.315 355.759,252.982 354.5,252C 349.954,247.786 345.121,243.953 340,240.5C 339.333,239.5 339.333,238.5 340,237.5C 342.086,240.094 344.586,242.094 347.5,243.5 Z"/></g>
<g><path style="opacity:1" fill="#e5c46b" d="M 246.5,247.5 C 247.167,249.5 247.833,251.5 248.5,253.5C 245.778,252.372 243.445,250.705 241.5,248.5C 243.045,247.548 244.712,247.215 246.5,247.5 Z"/></g>
<g><path style="opacity:1" fill="#649b9b" d="M 270.5,242.5 C 277.073,243.22 281.24,247.22 283,254.5C 285.228,252.887 287.728,252.22 290.5,252.5C 290.5,253.833 290.5,255.167 290.5,256.5C 285.307,254.18 282.473,255.846 282,261.5C 281.31,260.262 280.81,260.262 280.5,261.5C 279.662,261.158 279.328,260.492 279.5,259.5C 280.399,258.006 280.065,256.506 278.5,255C 279.925,253.286 279.592,251.953 277.5,251C 278.451,250.282 278.617,249.449 278,248.5C 276.152,245.959 273.652,244.959 270.5,245.5C 270.5,244.5 270.5,243.5 270.5,242.5 Z"/></g>
<g><path style="opacity:1" fill="#f29fab" d="M 291.5,250.5 C 293.565,250.517 295.565,250.85 297.5,251.5C 296.766,252.708 296.433,254.041 296.5,255.5C 294.863,258.835 292.863,259.168 290.5,256.5C 290.5,255.167 290.5,253.833 290.5,252.5C 290.833,251.833 291.167,251.167 291.5,250.5 Z"/></g>
<g><path style="opacity:1" fill="#e0bd5c" d="M 367.5,258.5 C 367.5,258.167 367.5,257.833 367.5,257.5C 368.234,256.292 368.567,254.959 368.5,253.5C 369.5,253.5 370.5,253.5 371.5,253.5C 371.226,255.981 369.893,257.647 367.5,258.5 Z"/></g>
<g><path style="opacity:1" fill="#3c6b67" d="M 315.5,258.5 C 311.985,257.081 308.319,256.414 304.5,256.5C 304.811,255.522 305.478,254.855 306.5,254.5C 308.382,255.093 310.215,255.76 312,256.5C 313.785,255.646 314.951,256.313 315.5,258.5 Z"/></g>
<g><path style="opacity:1" fill="#a2a570" d="M 251.5,231.5 C 251.047,232.458 250.381,233.292 249.5,234C 253.127,235.221 253.127,236.888 249.5,239C 253.166,239.39 253.332,240.557 250,242.5C 249.199,245.367 249.366,248.034 250.5,250.5C 250.5,250.833 250.5,251.167 250.5,251.5C 250.5,252.833 250.5,254.167 250.5,255.5C 249.347,256.313 249.347,257.313 250.5,258.5C 251.274,259.711 252.107,259.711 253,258.5C 253.333,260.167 253.667,261.833 254,263.5C 254.667,264.833 255.333,264.833 256,263.5C 256.163,265.676 256.996,267.509 258.5,269C 257.263,269.232 256.263,269.732 255.5,270.5C 251.029,270.328 250.696,269.494 254.5,268C 251.993,267.907 249.826,267.074 248,265.5C 247.409,264.517 247.743,263.85 249,263.5C 250.101,264.291 250.934,264.291 251.5,263.5C 249.696,262.232 247.696,261.565 245.5,261.5C 246.937,259.04 247.937,256.374 248.5,253.5C 247.833,251.5 247.167,249.5 246.5,247.5C 247.799,245.847 247.466,244.347 245.5,243C 246.5,242.667 247.5,242.333 248.5,242C 245.751,240.654 245.417,239.32 247.5,238C 246.605,234.64 247.939,232.473 251.5,231.5 Z"/></g>
<g><path style="opacity:1" fill="#343f37" d="M 322.5,257.5 C 323.234,258.708 323.567,260.041 323.5,261.5C 322.178,261.33 321.011,261.663 320,262.5C 319.302,261.309 318.469,260.309 317.5,259.5C 319.167,258.833 320.833,258.167 322.5,257.5 Z"/></g>
<g><path style="opacity:1" fill="#e2b83e" d="M 336.5,254.5 C 339.588,256.628 342.588,258.628 345.5,260.5C 344.094,260.973 343.427,261.973 343.5,263.5C 342.5,263.5 341.5,263.5 340.5,263.5C 340.5,262.833 340.167,262.5 339.5,262.5C 338.666,261.252 337.333,260.585 335.5,260.5C 332.189,260.31 329.689,261.644 328,264.5C 326.923,263.571 325.756,262.904 324.5,262.5C 324.5,261.833 324.167,261.5 323.5,261.5C 323.567,260.041 323.234,258.708 322.5,257.5C 325.516,256.817 328.516,255.817 331.5,254.5C 333.092,255.602 333.925,254.935 334,252.5C 334.708,253.381 335.542,254.047 336.5,254.5 Z"/></g>
<g><path style="opacity:1" fill="#f1705d" d="M 367.5,257.5 C 367.5,257.833 367.5,258.167 367.5,258.5C 367.804,259.15 368.137,259.817 368.5,260.5C 367.398,261.176 366.398,261.842 365.5,262.5C 364.778,261.449 363.778,260.782 362.5,260.5C 363.791,259.527 363.791,258.527 362.5,257.5C 363,257.167 363.5,256.833 364,256.5C 365.138,256.989 366.305,257.322 367.5,257.5 Z"/></g>
<g><path style="opacity:1" fill="#7cb2b2" d="M 304.5,256.5 C 308.319,256.414 311.985,257.081 315.5,258.5C 316.492,258.328 317.158,258.662 317.5,259.5C 318.469,260.309 319.302,261.309 320,262.5C 321.011,261.663 322.178,261.33 323.5,261.5C 324.167,261.5 324.5,261.833 324.5,262.5C 323.518,263.141 322.518,263.807 321.5,264.5C 316.982,261.491 312.149,259.158 307,257.5C 304.553,258.996 303.719,258.663 304.5,256.5 Z"/></g>
<g><path style="opacity:1" fill="#f599a7" d="M 362.5,260.5 C 363.778,260.782 364.778,261.449 365.5,262.5C 364.833,263.833 363.833,264.833 362.5,265.5C 361.5,265.5 360.5,265.5 359.5,265.5C 359.5,264.167 359.5,262.833 359.5,261.5C 360.391,260.89 361.391,260.557 362.5,260.5 Z"/></g>
<g><path style="opacity:1" fill="#7fb3b4" d="M 319.5,274.5 C 319.5,273.167 319.5,271.833 319.5,270.5C 320.417,270.494 320.917,271.494 321,273.5C 321.376,270.99 322.21,268.657 323.5,266.5C 324.5,267.5 325.5,268.5 326.5,269.5C 324.313,272.179 322.813,275.179 322,278.5C 321.066,277.142 320.232,275.808 319.5,274.5 Z"/></g>
<g><path style="opacity:1" fill="#2c7c7d" d="M 290.5,256.5 C 292.863,259.168 294.863,258.835 296.5,255.5C 297.765,256.479 299.099,257.479 300.5,258.5C 301.524,257.147 302.857,256.48 304.5,256.5C 303.719,258.663 304.553,258.996 307,257.5C 312.149,259.158 316.982,261.491 321.5,264.5C 322.518,263.807 323.518,263.141 324.5,262.5C 325.756,262.904 326.923,263.571 328,264.5C 329.689,261.644 332.189,260.31 335.5,260.5C 337.333,260.585 338.666,261.252 339.5,262.5C 337.545,261.677 335.545,261.51 333.5,262C 331.838,264.487 329.504,265.987 326.5,266.5C 329.058,267.225 331.392,267.225 333.5,266.5C 335.693,263.926 337.527,264.259 339,267.5C 340.067,266.809 341.234,266.309 342.5,266C 341.619,265.292 340.953,264.458 340.5,263.5C 341.5,263.5 342.5,263.5 343.5,263.5C 343.5,264.833 343.5,266.167 343.5,267.5C 344.873,267.657 346.207,267.49 347.5,267C 349.688,263.978 352.355,261.478 355.5,259.5C 356.86,260.18 358.193,260.847 359.5,261.5C 359.5,262.833 359.5,264.167 359.5,265.5C 360.5,265.5 361.5,265.5 362.5,265.5C 363.275,269.182 361.941,271.682 358.5,273C 358.833,273.333 359.167,273.667 359.5,274C 352.472,275.259 345.805,274.426 339.5,271.5C 336.043,272.094 333.043,273.427 330.5,275.5C 328.989,276.958 327.989,278.791 327.5,281C 321.089,283.232 318.422,281.065 319.5,274.5C 320.232,275.808 321.066,277.142 322,278.5C 322.813,275.179 324.313,272.179 326.5,269.5C 325.5,268.5 324.5,267.5 323.5,266.5C 322.21,268.657 321.376,270.99 321,273.5C 320.917,271.494 320.417,270.494 319.5,270.5C 311.238,273.422 303.905,271.756 297.5,265.5C 294.593,266.01 291.759,266.677 289,267.5C 286.53,265.562 283.696,264.396 280.5,264C 281.598,263.23 281.598,262.397 280.5,261.5C 280.81,260.262 281.31,260.262 282,261.5C 282.473,255.846 285.307,254.18 290.5,256.5 Z"/></g>
<g><path style="opacity:1" fill="#74a9a9" d="M 339.5,262.5 C 340.167,262.5 340.5,262.833 340.5,263.5C 340.953,264.458 341.619,265.292 342.5,266C 341.234,266.309 340.067,266.809 339,267.5C 337.527,264.259 335.693,263.926 333.5,266.5C 331.392,267.225 329.058,267.225 326.5,266.5C 329.504,265.987 331.838,264.487 333.5,262C 335.545,261.51 337.545,261.677 339.5,262.5 Z"/></g>
<g><path style="opacity:1" fill="#3b3b35" d="M 345.5,260.5 C 347.377,261.659 347.877,263.326 347,265.5C 344.871,266.863 344.371,266.529 345.5,264.5C 345.043,263.702 344.376,263.369 343.5,263.5C 343.427,261.973 344.094,260.973 345.5,260.5 Z"/></g>
<g><path style="opacity:1" fill="#e7c25b" d="M 264.5,275.5 C 263.508,275.672 262.842,275.338 262.5,274.5C 260.992,271.86 261.326,269.527 263.5,267.5C 264.415,268.328 265.081,269.328 265.5,270.5C 264.691,272.071 264.357,273.738 264.5,275.5 Z"/></g>
<g><path style="opacity:1" fill="#fad369" d="M 281.5,269.5 C 281.5,270.167 281.5,270.833 281.5,271.5C 277.348,272.71 275.015,271.043 274.5,266.5C 277.631,265.908 279.964,266.908 281.5,269.5 Z"/></g>
<g><path style="opacity:1" fill="#fefaf0" d="M 277.5,269.5 C 278.497,268.287 279.497,268.454 280.5,270C 279.423,270.47 278.423,270.303 277.5,269.5 Z"/></g>
<g><path style="opacity:1" fill="#46b7d3" d="M 303.5,277.5 C 304.707,281.23 305.04,284.897 304.5,288.5C 302.283,289.369 299.95,289.702 297.5,289.5C 297.443,288.391 297.11,287.391 296.5,286.5C 297.952,284.226 297.285,282.726 294.5,282C 292.302,281.627 290.135,281.127 288,280.5C 287.228,280.645 286.561,280.978 286,281.5C 284.667,277.5 283.333,277.5 282,281.5C 281.316,280.216 281.483,279.049 282.5,278C 284.167,277.667 285.833,277.333 287.5,277C 285.163,275.366 283.163,273.533 281.5,271.5C 281.5,270.833 281.5,270.167 281.5,269.5C 285.731,271.356 290.065,273.023 294.5,274.5C 294.833,274.167 295.167,273.833 295.5,273.5C 293.816,272.146 293.316,270.479 294,268.5C 295.049,267.483 296.216,267.316 297.5,268C 297.633,272.45 299.633,275.617 303.5,277.5 Z"/></g>
<g><path style="opacity:1" fill="#d7bb67" d="M 378.5,274.5 C 378.5,275.167 378.833,275.5 379.5,275.5C 381.665,275.116 383.332,275.783 384.5,277.5C 381.525,277.458 378.525,277.792 375.5,278.5C 375.5,277.833 375.167,277.5 374.5,277.5C 375.091,276.849 375.757,276.182 376.5,275.5C 375.167,273.833 373.833,272.167 372.5,270.5C 373.325,269.614 374.325,269.281 375.5,269.5C 375.273,271.933 376.273,273.599 378.5,274.5 Z"/></g>
<g><path style="opacity:1" fill="#eec244" d="M 258.5,275.5 C 258.5,276.167 258.5,276.833 258.5,277.5C 256.9,278.512 255.566,278.012 254.5,276C 255.946,274.702 257.279,274.535 258.5,275.5 Z"/></g>
<g><path style="opacity:1" fill="#eb9c4f" d="M 319.5,274.5 C 318.422,281.065 321.089,283.232 327.5,281C 327.989,278.791 328.989,276.958 330.5,275.5C 333.546,275.183 335.213,276.516 335.5,279.5C 333.957,283.082 333.623,286.748 334.5,290.5C 334.5,291.167 334.167,291.5 333.5,291.5C 332.833,291.5 332.167,291.5 331.5,291.5C 331.013,290.527 330.513,289.527 330,288.5C 326.313,292.569 323.313,292.235 321,287.5C 320.383,288.449 320.549,289.282 321.5,290C 321,290.167 320.5,290.333 320,290.5C 316.988,290.376 313.821,290.209 310.5,290C 309.687,288.115 308.353,287.449 306.5,288C 307.756,288.417 308.423,289.25 308.5,290.5C 308.5,291.167 308.167,291.5 307.5,291.5C 306.5,291.5 305.5,291.5 304.5,291.5C 304.5,290.5 304.5,289.5 304.5,288.5C 305.04,284.897 304.707,281.23 303.5,277.5C 303.414,276.504 303.748,275.671 304.5,275C 309.489,274.501 314.489,274.334 319.5,274.5 Z"/></g>
<g><path style="opacity:1" fill="#f9d265" d="M 348.5,280.5 C 348.5,279.5 348.5,278.5 348.5,277.5C 350.379,276.659 352.379,276.325 354.5,276.5C 354.082,280.369 352.082,281.702 348.5,280.5 Z"/></g>
<g><path style="opacity:1" fill="#45b3cf" d="M 348.5,277.5 C 348.5,278.5 348.5,279.5 348.5,280.5C 346.32,281.117 344.32,282.117 342.5,283.5C 344.021,283.88 345.687,284.046 347.5,284C 348.517,285.049 348.684,286.216 348,287.5C 346.6,283.821 344.933,283.821 343,287.5C 340.105,288.409 337.272,289.409 334.5,290.5C 333.623,286.748 333.957,283.082 335.5,279.5C 339.913,279.313 344.246,278.646 348.5,277.5 Z"/></g>
<g><path style="opacity:1" fill="#8c9154" d="M 250.5,255.5 C 251.078,257.443 252.078,257.777 253.5,256.5C 254.281,257.729 254.781,259.062 255,260.5C 255.368,259.09 256.201,258.09 257.5,257.5C 259.522,262.18 260.689,267.513 261,273.5C 261.383,274.056 261.883,274.389 262.5,274.5C 262.842,275.338 263.508,275.672 264.5,275.5C 264.435,275.938 264.601,276.272 265,276.5C 265.333,275.833 265.667,275.167 266,274.5C 268.011,278.002 269.344,278.002 270,274.5C 271.216,276.962 271.882,279.629 272,282.5C 273.044,281.377 273.71,280.044 274,278.5C 274.667,279.167 275.333,279.833 276,280.5C 277.623,284.193 279.123,287.86 280.5,291.5C 279.833,291.5 279.167,291.5 278.5,291.5C 277.07,291.421 275.736,291.754 274.5,292.5C 273.833,291.833 273.167,291.167 272.5,290.5C 269.477,292.161 267.143,291.495 265.5,288.5C 267.078,287.702 268.744,287.202 270.5,287C 267.666,286.955 265.166,286.121 263,284.5C 262.833,284.167 262.667,283.833 262.5,283.5C 263.729,282.719 265.062,282.219 266.5,282C 265.5,281.167 264.5,280.333 263.5,279.5C 263.709,278.914 264.043,278.414 264.5,278C 262.527,277.505 260.527,277.338 258.5,277.5C 258.5,276.833 258.5,276.167 258.5,275.5C 259.239,275.631 259.906,275.464 260.5,275C 258.963,273.293 257.296,271.793 255.5,270.5C 256.263,269.732 257.263,269.232 258.5,269C 256.996,267.509 256.163,265.676 256,263.5C 255.333,264.833 254.667,264.833 254,263.5C 253.667,261.833 253.333,260.167 253,258.5C 252.107,259.711 251.274,259.711 250.5,258.5C 249.347,257.313 249.347,256.313 250.5,255.5 Z"/></g>
<g><path style="opacity:1" fill="#e8c04e" d="M 356.5,290.5 C 356.672,291.492 356.338,292.158 355.5,292.5C 355.617,290.516 354.95,288.85 353.5,287.5C 354.325,286.614 355.325,286.281 356.5,286.5C 356.5,287.833 356.5,289.167 356.5,290.5 Z"/></g>
<g><path style="opacity:1" fill="#e8bf4e" d="M 284.5,292.5 C 284.167,293.833 283.833,293.833 283.5,292.5C 283.279,291.265 282.612,290.265 281.5,289.5C 282.41,286.186 283.743,285.852 285.5,288.5C 284.754,289.736 284.421,291.07 284.5,292.5 Z"/></g>
<g><path style="opacity:1" fill="#f6e3a8" d="M 292.5,286.5 C 293.705,285.314 295.039,285.314 296.5,286.5C 297.11,287.391 297.443,288.391 297.5,289.5C 296.833,289.833 296.167,290.167 295.5,290.5C 294.699,288.492 293.366,287.992 291.5,289C 292.999,288.162 293.332,287.329 292.5,286.5 Z"/></g>
<g><path style="opacity:1" fill="#f8cb4a" d="M 292.5,286.5 C 293.332,287.329 292.999,288.162 291.5,289C 293.366,287.992 294.699,288.492 295.5,290.5C 293.833,290.5 292.167,290.5 290.5,290.5C 290.229,288.62 290.896,287.287 292.5,286.5 Z"/></g>
<g><path style="opacity:1" fill="#a14e32" d="M 331.5,291.5 C 323.668,293.156 316.002,292.823 308.5,290.5C 308.423,289.25 307.756,288.417 306.5,288C 308.353,287.449 309.687,288.115 310.5,290C 313.821,290.209 316.988,290.376 320,290.5C 320.5,290.333 321,290.167 321.5,290C 320.549,289.282 320.383,288.449 321,287.5C 323.313,292.235 326.313,292.569 330,288.5C 330.513,289.527 331.013,290.527 331.5,291.5 Z"/></g>
<g><path style="opacity:1" fill="#45b3cf" d="M 308.5,290.5 C 316.002,292.823 323.668,293.156 331.5,291.5C 332.167,291.5 332.833,291.5 333.5,291.5C 332.4,292.558 331.066,293.392 329.5,294C 323.167,294.667 316.833,294.667 310.5,294C 309.058,293.623 308.058,292.79 307.5,291.5C 308.167,291.5 308.5,291.167 308.5,290.5 Z"/></g>
<g><path style="opacity:1" fill="#797f3d" d="M 305.5,297.5 C 304.789,301.147 303.289,301.813 301,299.5C 298.416,300.861 296.416,300.195 295,297.5C 294.692,298.308 294.192,298.975 293.5,299.5C 290.609,298.994 287.942,297.994 285.5,296.5C 285.863,295.817 286.196,295.15 286.5,294.5C 288.044,294.703 289.378,295.37 290.5,296.5C 291.293,295.645 290.96,294.811 289.5,294C 292.789,293.254 295.289,294.42 297,297.5C 297.507,296.004 297.007,294.837 295.5,294C 298.792,293.104 301.125,294.271 302.5,297.5C 303.527,296.209 304.527,296.209 305.5,297.5 Z"/></g>
<g><path style="opacity:1" fill="#e8bf4a" d="M 281.5,294.5 C 282.492,294.328 283.158,294.662 283.5,295.5C 280.846,296.342 278.179,296.842 275.5,297C 274.542,295.853 274.875,294.853 276.5,294C 278.197,293.616 279.863,293.782 281.5,294.5 Z"/></g>
<g><path style="opacity:1" fill="#2d7c60" d="M 316.5,296.5 C 317.725,297.152 318.392,298.319 318.5,300C 318.167,301.167 317.833,302.333 317.5,303.5C 314.547,304.955 312.047,306.955 310,309.5C 309.5,309.333 309,309.167 308.5,309C 310.05,305.949 312.383,303.782 315.5,302.5C 316.461,300.735 316.795,298.735 316.5,296.5 Z"/></g>
<g><path style="opacity:1" fill="#d13d3f" d="M 322.5,296.5 C 323.167,296.5 323.5,296.833 323.5,297.5C 323.5,298.167 323.5,298.833 323.5,299.5C 323.5,299.833 323.5,300.167 323.5,300.5C 323.5,300.833 323.5,301.167 323.5,301.5C 323.511,303.017 324.177,304.184 325.5,305C 328.023,305.518 330.023,306.852 331.5,309C 328.01,308.509 324.843,307.009 322,304.5C 321.283,305.044 320.783,305.711 320.5,306.5C 319.833,306.5 319.5,306.833 319.5,307.5C 317.871,308.625 316.371,309.959 315,311.5C 314.5,311 314,310.5 313.5,310C 316.039,307.63 318.372,305.13 320.5,302.5C 321.167,300.5 321.833,298.5 322.5,296.5 Z"/></g>
<g><path style="opacity:1" fill="#91965b" d="M 374.5,277.5 C 375.167,277.5 375.5,277.833 375.5,278.5C 377.579,282.45 376.913,286.283 373.5,290C 369.227,291.03 364.894,291.697 360.5,292C 359.584,292.278 358.918,292.778 358.5,293.5C 357.508,293.328 356.842,293.662 356.5,294.5C 354.704,295.793 353.037,297.293 351.5,299C 352.328,299.915 353.328,300.581 354.5,301C 350.045,302.979 345.545,304.812 341,306.5C 336.948,304.796 333.115,302.629 329.5,300C 327.527,299.505 325.527,299.338 323.5,299.5C 323.5,298.833 323.5,298.167 323.5,297.5C 330.302,299.988 335.969,298.488 340.5,293C 342.034,292.077 343.701,291.577 345.5,291.5C 348.685,291.845 350.852,292.845 352,294.5C 353.699,294.613 354.866,293.947 355.5,292.5C 356.338,292.158 356.672,291.492 356.5,290.5C 357.397,291.598 358.23,291.598 359,290.5C 360.044,288.285 360.71,285.952 361,283.5C 363.946,281.044 366.613,278.377 369,275.5C 369.333,276.833 369.667,278.167 370,279.5C 371.33,278.418 372.83,277.751 374.5,277.5 Z"/></g>
<g><path style="opacity:1" fill="#eac14d" d="M 356.5,294.5 C 356.842,293.662 357.508,293.328 358.5,293.5C 359.287,295.104 360.62,295.771 362.5,295.5C 362.719,296.675 362.386,297.675 361.5,298.5C 359.814,297.143 358.148,295.81 356.5,294.5 Z"/></g>
<g><path style="opacity:1" fill="#e99ea2" d="M 322.5,296.5 C 321.833,298.5 321.167,300.5 320.5,302.5C 320.192,300.076 320.526,297.743 321.5,295.5C 322.107,295.624 322.44,295.957 322.5,296.5 Z"/></g>
<g><path style="opacity:1" fill="#a0a471" d="M 323.5,301.5 C 323.5,301.167 323.5,300.833 323.5,300.5C 326.89,300.511 329.556,301.845 331.5,304.5C 331.167,304.833 330.833,305.167 330.5,305.5C 328.302,303.902 325.969,302.569 323.5,301.5 Z"/></g>
<g><path style="opacity:1" fill="#9da36f" d="M 278.5,291.5 C 279.167,291.5 279.833,291.5 280.5,291.5C 281.391,292.11 282.391,292.443 283.5,292.5C 283.833,293.833 284.167,293.833 284.5,292.5C 285.167,293.167 285.833,293.833 286.5,294.5C 286.196,295.15 285.863,295.817 285.5,296.5C 287.942,297.994 290.609,298.994 293.5,299.5C 294.192,298.975 294.692,298.308 295,297.5C 296.416,300.195 298.416,300.861 301,299.5C 303.289,301.813 304.789,301.147 305.5,297.5C 309.269,297.756 312.936,297.423 316.5,296.5C 316.795,298.735 316.461,300.735 315.5,302.5C 315.44,301.957 315.107,301.624 314.5,301.5C 312.167,302.833 309.833,304.167 307.5,305.5C 306.289,304.726 306.289,303.893 307.5,303C 309.5,302 311.5,301 313.5,300C 312.833,299.833 312.167,299.667 311.5,299.5C 307.053,300.772 303.219,303.105 300,306.5C 299.915,304.915 299.749,303.582 299.5,302.5C 298.421,304.543 296.754,305.876 294.5,306.5C 291.867,305.218 291.867,303.884 294.5,302.5C 294.167,302.167 293.833,301.833 293.5,301.5C 291.724,303.447 289.724,303.78 287.5,302.5C 288.59,301.391 288.59,300.391 287.5,299.5C 285.484,300.706 283.484,300.706 281.5,299.5C 282.263,298.281 283.263,297.281 284.5,296.5C 284.376,295.893 284.043,295.56 283.5,295.5C 283.158,294.662 282.492,294.328 281.5,294.5C 280.694,293.272 279.694,292.272 278.5,291.5 Z"/></g>
<g><path style="opacity:1" fill="#27785b" d="M 320.5,306.5 C 322.471,307.823 324.471,309.156 326.5,310.5C 323.558,311.288 321.225,310.288 319.5,307.5C 319.5,306.833 319.833,306.5 320.5,306.5 Z"/></g>
</svg>
