<?xml version="1.0" encoding="UTF-8"?>
<!DOCTYPE svg PUBLIC "-//W3C//DTD SVG 1.1//EN" "http://www.w3.org/Graphics/SVG/1.1/DTD/svg11.dtd">
<svg xmlns="http://www.w3.org/2000/svg" version="1.1" width="640px" height="480px" style="shape-rendering:geometricPrecision; text-rendering:geometricPrecision; image-rendering:optimizeQuality; fill-rule:evenodd; clip-rule:evenodd" xmlns:xlink="http://www.w3.org/1999/xlink">
<g><path style="opacity:1" fill="#6797d6" d="M -0.5,-0.5 C 212.833,-0.5 426.167,-0.5 639.5,-0.5C 639.5,159.5 639.5,319.5 639.5,479.5C 426.167,479.5 212.833,479.5 -0.5,479.5C -0.5,319.5 -0.5,159.5 -0.5,-0.5 Z"/></g>
<g><path style="opacity:1" fill="#fcfdfe" d="M 319.5,48.5 C 324.061,58.8352 328.061,69.5019 331.5,80.5C 343.82,81.3326 356.153,81.8326 368.5,82C 358.913,88.3764 349.413,94.8764 340,101.5C 342.667,112.839 346.167,124.006 350.5,135C 350.167,135.167 349.833,135.333 349.5,135.5C 339.793,128.623 329.96,121.956 320,115.5C 309.995,122.555 299.828,129.055 289.5,135C 293.833,124.006 297.333,112.839 300,101.5C 290.587,94.8764 281.087,88.3764 271.5,82C 283.847,81.8326 296.18,81.3326 308.5,80.5C 312.174,69.8099 315.841,59.1433 319.5,48.5 Z"/></g>
<g><path style="opacity:1" fill="#fbfcfe" d="M 153.5,194.5 C 160.825,203.803 168.158,213.136 175.5,222.5C 187.11,218.46 198.777,214.96 210.5,212C 202.943,221.383 195.609,230.883 188.5,240.5C 194.41,249.752 200.743,258.752 207.5,267.5C 206.277,268.614 204.944,268.781 203.5,268C 193.605,265.035 183.772,261.868 174,258.5C 165.98,267.523 158.313,276.856 151,286.5C 150.672,274.777 150.505,263.111 150.5,251.5C 139.446,247.987 128.446,244.32 117.5,240.5C 128.717,236.528 140.05,232.861 151.5,229.5C 153.053,217.887 153.72,206.22 153.5,194.5 Z"/></g>
<g><path style="opacity:1" fill="#fcfdfe" d="M 485.5,194.5 C 487.024,205.963 487.857,217.63 488,229.5C 499.237,232.935 510.403,236.601 521.5,240.5C 510.689,244.244 499.856,247.911 489,251.5C 488.895,263.17 488.895,274.836 489,286.5C 481.672,276.678 473.838,267.344 465.5,258.5C 454.767,261.633 444.1,264.967 433.5,268.5C 433.167,268.167 432.833,267.833 432.5,267.5C 439.257,258.752 445.59,249.752 451.5,240.5C 444.725,231.217 437.725,222.05 430.5,213C 442.167,216 453.833,219 465.5,222C 472.298,212.892 478.965,203.726 485.5,194.5 Z"/></g>
<g><path style="opacity:1" fill="#fdfdfe" d="M 367.5,398.5 C 355.5,399.167 343.5,399.833 331.5,400.5C 327.577,411.1 323.744,421.767 320,432.5C 316.256,421.767 312.423,411.1 308.5,400.5C 296.5,399.833 284.5,399.167 272.5,398.5C 281.786,392.387 290.953,386.054 300,379.5C 297.873,368.777 294.706,358.277 290.5,348C 290.833,347.5 291.167,347 291.5,346.5C 300.874,353.045 310.374,359.378 320,365.5C 329.626,359.378 339.126,353.045 348.5,346.5C 348.833,347 349.167,347.5 349.5,348C 345.294,358.277 342.127,368.777 340,379.5C 349.047,386.054 358.214,392.387 367.5,398.5 Z"/></g>
<g><path style="opacity:1" fill="#9abae4" d="M 272.5,398.5 C 284.5,399.167 296.5,399.833 308.5,400.5C 295.829,400.667 283.162,400.5 270.5,400C 271.044,399.283 271.711,398.783 272.5,398.5 Z"/></g>
<g><path style="opacity:1" fill="#97b7e3" d="M 367.5,398.5 C 368.289,398.783 368.956,399.283 369.5,400C 356.838,400.5 344.171,400.667 331.5,400.5C 343.5,399.833 355.5,399.167 367.5,398.5 Z"/></g>
</svg>
