<?xml version="1.0" encoding="UTF-8"?>
<!DOCTYPE svg PUBLIC "-//W3C//DTD SVG 1.1//EN" "http://www.w3.org/Graphics/SVG/1.1/DTD/svg11.dtd">
<svg xmlns="http://www.w3.org/2000/svg" version="1.1" width="640px" height="480px" style="shape-rendering:geometricPrecision; text-rendering:geometricPrecision; image-rendering:optimizeQuality; fill-rule:evenodd; clip-rule:evenodd" xmlns:xlink="http://www.w3.org/1999/xlink">
<g><path style="opacity:1" fill="#00319b" d="M -0.5,-0.5 C 70.5,-0.5 141.5,-0.5 212.5,-0.5C 212.5,32.8333 212.5,66.1667 212.5,99.5C 204.603,106.29 200.103,114.956 199,125.5C 198.5,166.165 198.333,206.832 198.5,247.5C 197.264,245.389 195.764,243.389 194,241.5C 192.131,246.306 191.131,251.306 191,256.5C 188.364,251.394 185.864,246.228 183.5,241C 186.475,238.02 188.641,234.52 190,230.5C 191.162,224.555 191.662,218.555 191.5,212.5C 188.225,213.614 186.058,215.947 185,219.5C 184.294,215.037 182.628,211.037 180,207.5C 179.829,212.533 179.329,217.533 178.5,222.5C 176.517,221.018 174.684,219.351 173,217.5C 172.498,221.241 172.498,224.908 173,228.5C 169.252,224.919 165.085,221.919 160.5,219.5C 160.167,220 159.833,220.5 159.5,221C 160.827,223.453 161.661,225.953 162,228.5C 158.366,226.111 154.532,225.111 150.5,225.5C 153.714,228.876 157.381,231.71 161.5,234C 159.377,235.194 157.043,235.86 154.5,236C 153.167,236.667 153.167,237.333 154.5,238C 161.188,242.453 168.522,244.453 176.5,244C 177.667,243.5 178.5,242.667 179,241.5C 183.183,247.538 186.516,253.872 189,260.5C 184.878,256.11 180.211,252.443 175,249.5C 174.494,252.674 175.328,255.507 177.5,258C 173.365,256.453 169.032,255.787 164.5,256C 168.5,259 172.5,262 176.5,265C 173.638,265.27 170.972,266.104 168.5,267.5C 175.514,273.226 183.514,275.392 192.5,274C 193.249,272.266 193.749,270.433 194,268.5C 195.761,271.411 197.261,274.411 198.5,277.5C 198.784,279.415 198.451,281.081 197.5,282.5C 195.074,280.62 192.408,279.287 189.5,278.5C 189.253,281.505 190.253,284.005 192.5,286C 188.309,284.723 183.976,284.056 179.5,284C 183.217,287.385 187.217,290.385 191.5,293C 188.549,293.096 185.882,293.929 183.5,295.5C 187.776,298.593 192.443,300.927 197.5,302.5C 197.169,326.339 197.502,350.006 198.5,373.5C 200.35,368.477 202.517,363.477 205,358.5C 207,355.334 209.5,352.668 212.5,350.5C 212.5,393.5 212.5,436.5 212.5,479.5C 141.5,479.5 70.5,479.5 -0.5,479.5C -0.5,319.5 -0.5,159.5 -0.5,-0.5 Z"/></g>
<g><path style="opacity:1" fill="#fedd00" d="M 212.5,-0.5 C 283.833,-0.5 355.167,-0.5 426.5,-0.5C 426.5,31.8333 426.5,64.1667 426.5,96.5C 423.733,95.9493 421.4,94.6159 419.5,92.5C 408.388,101.043 399.888,111.71 394,124.5C 393.667,137.167 393.333,149.833 393,162.5C 381.306,166.23 369.806,170.23 358.5,174.5C 356.5,174.5 354.5,174.5 352.5,174.5C 337.29,168.095 331.457,156.761 335,140.5C 337.498,134.01 340.832,128.01 345,122.5C 349.09,100.918 340.09,90.9175 318,92.5C 312.99,92.3226 308.156,93.156 303.5,95C 300.405,95.9354 298.071,97.7687 296.5,100.5C 292.342,100.332 288.342,100.998 284.5,102.5C 284.5,101.167 284.5,99.8333 284.5,98.5C 288.949,98.8359 292.616,98.5026 295.5,97.5C 295.5,95.5 295.5,93.5 295.5,91.5C 292.616,90.4974 288.949,90.1641 284.5,90.5C 284.5,87.5 284.5,84.5 284.5,81.5C 281.833,81.5 279.167,81.5 276.5,81.5C 276.5,84.5 276.5,87.5 276.5,90.5C 272.5,90.5 268.5,90.5 264.5,90.5C 264.5,93.1667 264.5,95.8333 264.5,98.5C 268.5,98.5 272.5,98.5 276.5,98.5C 276.5,101.833 276.5,105.167 276.5,108.5C 275.986,110.366 275.32,112.2 274.5,114C 274.836,115.03 275.503,115.53 276.5,115.5C 276.5,121.5 276.5,127.5 276.5,133.5C 279.167,133.5 281.833,133.5 284.5,133.5C 284.5,129.5 284.5,125.5 284.5,121.5C 289.324,119.849 294.324,119.183 299.5,119.5C 307.061,130.669 309.561,143.002 307,156.5C 303.481,165.857 296.981,171.857 287.5,174.5C 285.833,174.5 284.167,174.5 282.5,174.5C 271.494,170.054 260.161,166.388 248.5,163.5C 248.667,150.829 248.5,138.162 248,125.5C 242.14,112.967 233.973,102.134 223.5,93C 219.541,94.4137 215.874,96.5803 212.5,99.5C 212.5,66.1667 212.5,32.8333 212.5,-0.5 Z"/></g>
<g><path style="opacity:1" fill="#dd210f" d="M 426.5,-0.5 C 497.5,-0.5 568.5,-0.5 639.5,-0.5C 639.5,159.5 639.5,319.5 639.5,479.5C 568.5,479.5 497.5,479.5 426.5,479.5C 426.5,435.5 426.5,391.5 426.5,347.5C 434.86,354.203 440.193,362.87 442.5,373.5C 443.5,335.839 443.833,298.173 443.5,260.5C 444.541,256.746 445.875,253.08 447.5,249.5C 453.726,245.721 458.059,240.387 460.5,233.5C 459.751,231.964 458.751,230.631 457.5,229.5C 458.736,227.689 458.736,225.856 457.5,224C 458,222.5 458.5,221 459,219.5C 461.176,219.012 463.009,218.012 464.5,216.5C 463.675,215.614 462.675,215.281 461.5,215.5C 461.5,213.833 461.5,212.167 461.5,210.5C 460.5,210.5 459.5,210.5 458.5,210.5C 458.5,211.5 458.5,212.5 458.5,213.5C 457.178,213.67 456.011,213.337 455,212.5C 453.071,214.685 453.571,216.351 456.5,217.5C 455.635,220.3 454.135,222.633 452,224.5C 451.316,225.784 451.483,226.951 452.5,228C 450.821,228.395 449.155,228.228 447.5,227.5C 445.959,228.286 444.626,229.286 443.5,230.5C 443.667,195.165 443.5,159.832 443,124.5C 440.823,113.137 435.323,103.804 426.5,96.5C 426.5,64.1667 426.5,31.8333 426.5,-0.5 Z"/></g>
<g><path style="opacity:1" fill="#fefe00" d="M 295.5,91.5 C 295.5,93.5 295.5,95.5 295.5,97.5C 291.5,97.5 287.5,97.5 283.5,97.5C 283.5,99.5 283.5,101.5 283.5,103.5C 281.5,104.833 279.5,106.167 277.5,107.5C 277.5,104.167 277.5,100.833 277.5,97.5C 273.5,97.5 269.5,97.5 265.5,97.5C 265.5,95.5 265.5,93.5 265.5,91.5C 269.5,91.5 273.5,91.5 277.5,91.5C 277.5,88.5 277.5,85.5 277.5,82.5C 279.5,82.5 281.5,82.5 283.5,82.5C 283.5,85.5 283.5,88.5 283.5,91.5C 287.5,91.5 291.5,91.5 295.5,91.5 Z"/></g>
<g><path style="opacity:1" fill="#4a4600" d="M 295.5,91.5 C 291.5,91.5 287.5,91.5 283.5,91.5C 283.5,88.5 283.5,85.5 283.5,82.5C 281.5,82.5 279.5,82.5 277.5,82.5C 277.5,85.5 277.5,88.5 277.5,91.5C 273.5,91.5 269.5,91.5 265.5,91.5C 265.5,93.5 265.5,95.5 265.5,97.5C 269.5,97.5 273.5,97.5 277.5,97.5C 277.5,100.833 277.5,104.167 277.5,107.5C 277.5,108.167 277.167,108.5 276.5,108.5C 276.5,105.167 276.5,101.833 276.5,98.5C 272.5,98.5 268.5,98.5 264.5,98.5C 264.5,95.8333 264.5,93.1667 264.5,90.5C 268.5,90.5 272.5,90.5 276.5,90.5C 276.5,87.5 276.5,84.5 276.5,81.5C 279.167,81.5 281.833,81.5 284.5,81.5C 284.5,84.5 284.5,87.5 284.5,90.5C 288.949,90.1641 292.616,90.4974 295.5,91.5 Z"/></g>
<g><path style="opacity:1" fill="#a4793a" d="M 348.5,174.5 C 330.167,174.5 311.833,174.5 293.5,174.5C 308.672,164.835 313.505,151.168 308,133.5C 306.354,128.215 304.187,123.215 301.5,118.5C 304.746,111.806 303.746,105.806 298.5,100.5C 304.571,95.7036 311.571,93.7036 319.5,94.5C 338.951,92.7801 347.118,101.447 344,120.5C 340.415,126.002 337.081,131.669 334,137.5C 328.972,153.944 333.805,166.278 348.5,174.5 Z"/></g>
<g><path style="opacity:1" fill="#4e4a00" d="M 295.5,97.5 C 292.616,98.5026 288.949,98.8359 284.5,98.5C 284.5,99.8333 284.5,101.167 284.5,102.5C 284.5,103.167 284.167,103.5 283.5,103.5C 283.5,101.5 283.5,99.5 283.5,97.5C 287.5,97.5 291.5,97.5 295.5,97.5 Z"/></g>
<g><path style="opacity:1" fill="#1d1706" d="M 352.5,174.5 C 351.167,174.5 349.833,174.5 348.5,174.5C 333.805,166.278 328.972,153.944 334,137.5C 337.081,131.669 340.415,126.002 344,120.5C 347.118,101.447 338.951,92.7801 319.5,94.5C 311.571,93.7036 304.571,95.7036 298.5,100.5C 297.833,100.5 297.167,100.5 296.5,100.5C 298.071,97.7687 300.405,95.9354 303.5,95C 308.156,93.156 312.99,92.3226 318,92.5C 340.09,90.9175 349.09,100.918 345,122.5C 340.832,128.01 337.498,134.01 335,140.5C 331.457,156.761 337.29,168.095 352.5,174.5 Z"/></g>
<g><path style="opacity:1" fill="#d94b00" d="M 296.5,100.5 C 297.167,100.5 297.833,100.5 298.5,100.5C 303.746,105.806 304.746,111.806 301.5,118.5C 300.508,118.328 299.842,118.662 299.5,119.5C 294.324,119.183 289.324,119.849 284.5,121.5C 284.5,119.833 284.5,118.167 284.5,116.5C 287.711,115.065 291.045,113.898 294.5,113C 291.076,112.253 287.743,112.42 284.5,113.5C 284.167,113.5 283.833,113.5 283.5,113.5C 281.374,114.048 279.374,114.715 277.5,115.5C 277.167,115.5 276.833,115.5 276.5,115.5C 275.503,115.53 274.836,115.03 274.5,114C 275.32,112.2 275.986,110.366 276.5,108.5C 277.167,108.5 277.5,108.167 277.5,107.5C 279.5,106.167 281.5,104.833 283.5,103.5C 284.167,103.5 284.5,103.167 284.5,102.5C 288.342,100.998 292.342,100.332 296.5,100.5 Z"/></g>
<g><path style="opacity:1" fill="#c7c3bc" d="M 309.5,102.5 C 314.989,102.504 316.822,105.171 315,110.5C 310.43,113.633 307.597,112.466 306.5,107C 306.557,104.791 307.557,103.291 309.5,102.5 Z"/></g>
<g><path style="opacity:1" fill="#f6cb00" d="M 284.5,116.5 C 284.5,115.5 284.5,114.5 284.5,113.5C 287.743,112.42 291.076,112.253 294.5,113C 291.045,113.898 287.711,115.065 284.5,116.5 Z"/></g>
<g><path style="opacity:1" fill="#fefd00" d="M 283.5,113.5 C 283.5,119.833 283.5,126.167 283.5,132.5C 281.5,132.5 279.5,132.5 277.5,132.5C 277.5,126.833 277.5,121.167 277.5,115.5C 279.374,114.715 281.374,114.048 283.5,113.5 Z"/></g>
<g><path style="opacity:1" fill="#585301" d="M 283.5,113.5 C 283.833,113.5 284.167,113.5 284.5,113.5C 284.5,114.5 284.5,115.5 284.5,116.5C 284.5,118.167 284.5,119.833 284.5,121.5C 284.5,125.5 284.5,129.5 284.5,133.5C 281.833,133.5 279.167,133.5 276.5,133.5C 276.5,127.5 276.5,121.5 276.5,115.5C 276.833,115.5 277.167,115.5 277.5,115.5C 277.5,121.167 277.5,126.833 277.5,132.5C 279.5,132.5 281.5,132.5 283.5,132.5C 283.5,126.167 283.5,119.833 283.5,113.5 Z"/></g>
<g><path style="opacity:1" fill="#120d05" d="M 282.5,174.5 C 280.833,174.5 279.167,174.5 277.5,174.5C 268.183,170.893 258.683,167.56 249,164.5C 248.502,167.817 248.335,171.15 248.5,174.5C 248.167,174.5 247.833,174.5 247.5,174.5C 247.167,174.5 246.833,174.5 246.5,174.5C 246.666,167.825 246.5,161.158 246,154.5C 233.24,164.767 233.407,174.767 246.5,184.5C 246.631,185.239 246.464,185.906 246,186.5C 243.297,183.629 240.464,180.962 237.5,178.5C 237.217,177.711 236.717,177.044 236,176.5C 235.5,217.165 235.333,257.832 235.5,298.5C 234.833,298.5 234.5,298.167 234.5,297.5C 234.667,257.499 234.5,217.499 234,177.5C 230.629,180.703 227.462,184.036 224.5,187.5C 223.502,213.661 223.169,239.995 223.5,266.5C 223.167,266.5 222.833,266.5 222.5,266.5C 222.667,239.831 222.5,213.165 222,186.5C 219.271,183.601 216.438,180.934 213.5,178.5C 213.44,177.957 213.107,177.624 212.5,177.5C 211.5,199.156 211.167,220.823 211.5,242.5C 211.167,242.5 210.833,242.5 210.5,242.5C 210.667,220.831 210.5,199.164 210,177.5C 206.478,180.266 203.145,183.266 200,186.5C 199.5,206.164 199.333,225.831 199.5,245.5C 199.754,247.401 199.42,248.067 198.5,247.5C 198.333,206.832 198.5,166.165 199,125.5C 200.103,114.956 204.603,106.29 212.5,99.5C 215.874,96.5803 219.541,94.4137 223.5,93C 233.973,102.134 242.14,112.967 248,125.5C 248.5,138.162 248.667,150.829 248.5,163.5C 260.161,166.388 271.494,170.054 282.5,174.5 Z"/></g>
<g><path style="opacity:1" fill="#a37839" d="M 221.5,94.5 C 232.411,102.588 240.578,112.921 246,125.5C 246.667,129.5 246.667,133.5 246,137.5C 242.651,133.984 239.151,130.651 235.5,127.5C 231.5,131.167 227.5,134.833 223.5,138.5C 218.888,135.392 214.722,131.725 211,127.5C 207.633,131.203 203.966,134.536 200,137.5C 198.675,118.816 205.842,104.483 221.5,94.5 Z"/></g>
<g><path style="opacity:1" fill="#1c1409" d="M 426.5,96.5 C 435.323,103.804 440.823,113.137 443,124.5C 443.5,159.832 443.667,195.165 443.5,230.5C 443.767,238.222 443.434,245.889 442.5,253.5C 441.668,231.337 441.168,209.004 441,186.5C 438,183.5 435,180.5 432,177.5C 431.5,211.832 431.333,246.165 431.5,280.5C 431.167,281.833 430.833,283.167 430.5,284.5C 429.833,249.331 429.167,213.998 428.5,178.5C 425.516,180.984 422.682,183.65 420,186.5C 419.5,228.165 419.333,269.832 419.5,311.5C 419.167,312.833 418.833,314.167 418.5,315.5C 417.667,272.669 417.167,229.669 417,186.5C 414,183.5 411,180.5 408,177.5C 407.333,227.5 407.333,277.5 408,327.5C 410.172,328.509 411.338,330.176 411.5,332.5C 401.551,324.613 395.718,314.28 394,301.5C 393.26,295.782 393.427,290.115 394.5,284.5C 394.5,283.833 394.5,283.167 394.5,282.5C 394.489,293.998 396.323,305.331 400,316.5C 401.271,319.433 402.938,322.099 405,324.5C 405.667,275.5 405.667,226.5 405,177.5C 401.989,181.07 398.822,183.736 395.5,185.5C 398.484,182.015 401.651,178.682 405,175.5C 405.667,171.5 405.667,167.5 405,163.5C 402,160.5 399,157.5 396,154.5C 395.828,161.346 395.328,168.013 394.5,174.5C 394.167,174.5 393.833,174.5 393.5,174.5C 393.82,171.102 393.487,167.768 392.5,164.5C 383.008,167.716 373.674,171.049 364.5,174.5C 362.5,174.5 360.5,174.5 358.5,174.5C 369.806,170.23 381.306,166.23 393,162.5C 393.333,149.833 393.667,137.167 394,124.5C 399.888,111.71 408.388,101.043 419.5,92.5C 421.4,94.6159 423.733,95.9493 426.5,96.5 Z"/></g>
<g><path style="opacity:1" fill="#a4793a" d="M 418.5,94.5 C 435.32,103.471 442.653,117.471 440.5,136.5C 437.182,133.683 434.015,130.683 431,127.5C 426.685,130.981 422.518,134.647 418.5,138.5C 414.5,134.833 410.5,131.167 406.5,127.5C 402.849,130.651 399.349,133.984 396,137.5C 394.452,129.918 395.785,122.918 400,116.5C 405.25,108.415 411.416,101.082 418.5,94.5 Z"/></g>
<g><path style="opacity:1" fill="#a4793a" d="M 236.5,131.5 C 239.728,134.04 242.895,136.707 246,139.5C 246.667,143.833 246.667,148.167 246,152.5C 242.703,154.795 239.703,157.462 237,160.5C 236.5,150.839 236.334,141.172 236.5,131.5 Z"/></g>
<g><path style="opacity:1" fill="#a37839" d="M 403.5,131.5 C 404.827,135.951 405.494,140.784 405.5,146C 408.322,161.431 405.155,163.598 396,152.5C 395.333,148.167 395.333,143.833 396,139.5C 398.705,136.964 401.205,134.297 403.5,131.5 Z"/></g>
<g><path style="opacity:1" fill="#a37839" d="M 407.5,131.5 C 410.728,134.04 413.895,136.707 417,139.5C 417.667,143.833 417.667,148.167 417,152.5C 413.703,154.795 410.703,157.462 408,160.5C 407.5,150.839 407.334,141.172 407.5,131.5 Z"/></g>
<g><path style="opacity:1" fill="#9c7337" d="M 209.5,130.5 C 210.659,140.658 210.825,150.992 210,161.5C 206.667,158.167 203.333,154.833 200,151.5C 199.333,147.833 199.333,144.167 200,140.5C 203.371,137.297 206.538,133.964 209.5,130.5 Z"/></g>
<g><path style="opacity:1" fill="#9c7337" d="M 211.5,130.5 C 225.97,140.536 226.137,150.869 212,161.5C 211.5,151.172 211.334,140.839 211.5,130.5 Z"/></g>
<g><path style="opacity:1" fill="#9f7538" d="M 233.5,130.5 C 234.823,140.341 234.823,150.341 233.5,160.5C 230.516,158.016 227.682,155.35 225,152.5C 224.333,148.167 224.333,143.833 225,139.5C 228.038,136.631 230.871,133.631 233.5,130.5 Z"/></g>
<g><path style="opacity:1" fill="#a5793a" d="M 428.5,131.5 C 429.658,140.991 429.825,150.658 429,160.5C 426.318,157.65 423.484,154.984 420.5,152.5C 419.339,148.205 419.172,143.871 420,139.5C 423.333,137.333 426.166,134.666 428.5,131.5 Z"/></g>
<g><path style="opacity:1" fill="#a07638" d="M 431.5,130.5 C 444.642,140.545 444.809,150.878 432,161.5C 431.5,151.172 431.334,140.839 431.5,130.5 Z"/></g>
<g><path style="opacity:1" fill="#a5793a" d="M 246.5,174.5 C 246.5,177.833 246.5,181.167 246.5,184.5C 233.407,174.767 233.24,164.767 246,154.5C 246.5,161.158 246.666,167.825 246.5,174.5 Z"/></g>
<g><path style="opacity:1" fill="#1e1807" d="M 301.5,118.5 C 304.187,123.215 306.354,128.215 308,133.5C 313.505,151.168 308.672,164.835 293.5,174.5C 291.5,174.5 289.5,174.5 287.5,174.5C 296.981,171.857 303.481,165.857 307,156.5C 309.561,143.002 307.061,130.669 299.5,119.5C 299.842,118.662 300.508,118.328 301.5,118.5 Z"/></g>
<g><path style="opacity:1" fill="#987036" d="M 199.5,154.5 C 203.402,156.893 206.902,159.893 210,163.5C 210.667,167.167 210.667,170.833 210,174.5C 206.667,177.833 203.333,181.167 200,184.5C 199.5,174.506 199.334,164.506 199.5,154.5 Z"/></g>
<g><path style="opacity:1" fill="#9e7538" d="M 221.5,154.5 C 222.658,164.325 222.825,174.325 222,184.5C 218.667,181.167 215.333,177.833 212,174.5C 211.333,170.833 211.333,167.167 212,163.5C 215.062,160.268 218.229,157.268 221.5,154.5 Z"/></g>
<g><path style="opacity:1" fill="#a37839" d="M 224.5,154.5 C 227.797,157.296 230.964,160.296 234,163.5C 234.667,167.5 234.667,171.5 234,175.5C 231.297,178.538 228.297,181.205 225,183.5C 224.5,173.839 224.334,164.172 224.5,154.5 Z"/></g>
<g><path style="opacity:1" fill="#a4793a" d="M 416.5,154.5 C 417.658,164.325 417.825,174.325 417,184.5C 414,181.5 411,178.5 408,175.5C 407.172,171.129 407.339,166.795 408.5,162.5C 411.521,160.146 414.188,157.479 416.5,154.5 Z"/></g>
<g><path style="opacity:1" fill="#a4793a" d="M 419.5,154.5 C 432.665,164.031 432.831,174.031 420,184.5C 419.5,174.506 419.334,164.506 419.5,154.5 Z"/></g>
<g><path style="opacity:1" fill="#a37839" d="M 440.5,154.5 C 441.658,163.991 441.825,173.658 441,183.5C 438.297,180.462 435.297,177.795 432,175.5C 431.333,171.5 431.333,167.5 432,163.5C 435.038,160.631 437.871,157.631 440.5,154.5 Z"/></g>
<g><path style="opacity:1" fill="#a57a39" d="M 277.5,174.5 C 267.833,174.5 258.167,174.5 248.5,174.5C 248.335,171.15 248.502,167.817 249,164.5C 258.683,167.56 268.183,170.893 277.5,174.5 Z"/></g>
<g><path style="opacity:1" fill="#9f7637" d="M 393.5,174.5 C 383.833,174.5 374.167,174.5 364.5,174.5C 373.674,171.049 383.008,167.716 392.5,164.5C 393.487,167.768 393.82,171.102 393.5,174.5 Z"/></g>
<g><path style="opacity:1" fill="#fefe00" d="M 247.5,175.5 C 247.5,175.167 247.5,174.833 247.5,174.5C 247.833,174.5 248.167,174.5 248.5,174.5C 258.167,174.5 267.833,174.5 277.5,174.5C 279.167,174.5 280.833,174.5 282.5,174.5C 284.167,174.5 285.833,174.5 287.5,174.5C 289.5,174.5 291.5,174.5 293.5,174.5C 311.833,174.5 330.167,174.5 348.5,174.5C 349.833,174.5 351.167,174.5 352.5,174.5C 354.5,174.5 356.5,174.5 358.5,174.5C 360.5,174.5 362.5,174.5 364.5,174.5C 374.167,174.5 383.833,174.5 393.5,174.5C 393.833,174.5 394.167,174.5 394.5,174.5C 394.5,210.5 394.5,246.5 394.5,282.5C 394.5,283.167 394.5,283.833 394.5,284.5C 393.662,284.158 393.328,283.492 393.5,282.5C 393.5,269.833 393.5,257.167 393.5,244.5C 393.5,221.5 393.5,198.5 393.5,175.5C 345.167,175.5 296.833,175.5 248.5,175.5C 248.167,175.5 247.833,175.5 247.5,175.5 Z"/></g>
<g><path style="opacity:1" fill="#f60d00" d="M 248.5,175.5 C 296.833,175.5 345.167,175.5 393.5,175.5C 393.5,198.5 393.5,221.5 393.5,244.5C 390.833,244.5 388.167,244.5 385.5,244.5C 381.069,242.785 376.735,240.785 372.5,238.5C 367.559,239.973 362.893,241.973 358.5,244.5C 356.708,244.634 355.042,244.301 353.5,243.5C 353.445,240.386 352.112,238.052 349.5,236.5C 348.244,236.539 347.244,236.039 346.5,235C 354.364,233.068 361.364,229.568 367.5,224.5C 371.09,221.419 372.757,217.419 372.5,212.5C 372.864,208.948 371.864,205.948 369.5,203.5C 367.255,200.68 365.255,197.68 363.5,194.5C 361.167,190.167 357.833,186.833 353.5,184.5C 352.5,184.167 351.833,183.5 351.5,182.5C 350.429,180.623 349.095,179.956 347.5,180.5C 348.361,182.911 349.694,184.911 351.5,186.5C 354.622,191.081 356.956,196.081 358.5,201.5C 360.6,207.403 360.934,213.403 359.5,219.5C 357.167,221.167 355.167,223.167 353.5,225.5C 352.713,227.104 351.38,227.771 349.5,227.5C 346.67,227.963 344.003,228.629 341.5,229.5C 341.083,230.124 340.416,230.457 339.5,230.5C 337.523,229.54 335.523,228.54 333.5,227.5C 331.884,228.115 330.551,229.115 329.5,230.5C 328.126,229.289 326.626,228.289 325,227.5C 323.374,228.289 321.874,229.289 320.5,230.5C 319.893,230.376 319.56,230.043 319.5,229.5C 318.866,228.053 317.699,227.387 316,227.5C 314.301,227.387 313.134,228.053 312.5,229.5C 311.221,230.715 310.221,230.382 309.5,228.5C 306.921,227.174 304.421,227.507 302,229.5C 297.89,228.184 293.724,227.184 289.5,226.5C 287.326,226.25 285.659,225.25 284.5,223.5C 283.167,221.5 281.5,219.833 279.5,218.5C 279.337,213.453 279.671,208.453 280.5,203.5C 282.407,198.016 285.073,193.016 288.5,188.5C 290.601,185.821 292.601,182.988 294.5,180C 287.504,183.487 281.837,188.654 277.5,195.5C 275.745,198.68 273.745,201.68 271.5,204.5C 269.953,206.807 269.287,209.473 269.5,212.5C 269.287,215.527 269.953,218.193 271.5,220.5C 277.795,227.924 285.795,232.757 295.5,235C 292.977,236.36 290.977,238.193 289.5,240.5C 287.591,243.83 284.591,245.164 280.5,244.5C 276.069,242.785 271.735,240.785 267.5,238.5C 262.559,239.973 257.893,241.973 253.5,244.5C 251.833,244.5 250.167,244.5 248.5,244.5C 248.5,221.5 248.5,198.5 248.5,175.5 Z"/></g>
<g><path style="opacity:1" fill="#5e4521" d="M 213.5,178.5 C 212.503,199.327 212.169,220.327 212.5,241.5C 212.5,242.167 212.167,242.5 211.5,242.5C 211.167,220.823 211.5,199.156 212.5,177.5C 213.107,177.624 213.44,177.957 213.5,178.5 Z"/></g>
<g><path style="opacity:1" fill="#9a7236" d="M 210.5,242.5 C 209.207,244.296 207.707,245.963 206,247.5C 205.827,243.459 205.327,239.459 204.5,235.5C 202.45,238.653 200.784,241.986 199.5,245.5C 199.333,225.831 199.5,206.164 200,186.5C 203.145,183.266 206.478,180.266 210,177.5C 210.5,199.164 210.667,220.831 210.5,242.5 Z"/></g>
<g><path style="opacity:1" fill="#a37839" d="M 213.5,178.5 C 216.438,180.934 219.271,183.601 222,186.5C 222.5,213.165 222.667,239.831 222.5,266.5C 219.769,268.071 217.935,270.405 217,273.5C 216.412,269.194 215.079,265.194 213,261.5C 212.617,262.056 212.117,262.389 211.5,262.5C 211.815,258.629 211.482,254.962 210.5,251.5C 212.714,248.268 213.38,244.935 212.5,241.5C 212.169,220.327 212.503,199.327 213.5,178.5 Z"/></g>
<g><path style="opacity:1" fill="#a47c38" d="M 246.5,174.5 C 246.833,174.5 247.167,174.5 247.5,174.5C 247.5,174.833 247.5,175.167 247.5,175.5C 247.5,211.833 247.5,248.167 247.5,284.5C 246.774,293.392 245.774,302.392 244.5,311.5C 243.833,311.833 243.167,312.167 242.5,312.5C 243.376,309.201 243.543,305.868 243,302.5C 240.637,304.366 238.47,306.366 236.5,308.5C 236.168,264.997 236.501,221.663 237.5,178.5C 240.464,180.962 243.297,183.629 246,186.5C 246.464,185.906 246.631,185.239 246.5,184.5C 246.5,181.167 246.5,177.833 246.5,174.5 Z"/></g>
<g><path style="opacity:1" fill="#a47a39" d="M 394.5,282.5 C 394.5,246.5 394.5,210.5 394.5,174.5C 395.328,168.013 395.828,161.346 396,154.5C 399,157.5 402,160.5 405,163.5C 405.667,167.5 405.667,171.5 405,175.5C 401.651,178.682 398.484,182.015 395.5,185.5C 398.822,183.736 401.989,181.07 405,177.5C 405.667,226.5 405.667,275.5 405,324.5C 402.938,322.099 401.271,319.433 400,316.5C 396.323,305.331 394.489,293.998 394.5,282.5 Z"/></g>
<g><path style="opacity:1" fill="#a67a3a" d="M 418.5,315.5 C 416.403,321.349 414.069,327.015 411.5,332.5C 411.338,330.176 410.172,328.509 408,327.5C 407.333,277.5 407.333,227.5 408,177.5C 411,180.5 414,183.5 417,186.5C 417.167,229.669 417.667,272.669 418.5,315.5 Z"/></g>
<g><path style="opacity:1" fill="#a67a3a" d="M 430.5,284.5 C 427.069,293.681 423.403,302.681 419.5,311.5C 419.333,269.832 419.5,228.165 420,186.5C 422.682,183.65 425.516,180.984 428.5,178.5C 429.167,213.998 429.833,249.331 430.5,284.5 Z"/></g>
<g><path style="opacity:1" fill="#a57a3a" d="M 234.5,297.5 C 233.25,297.577 232.417,298.244 232,299.5C 231.765,303.32 230.932,306.987 229.5,310.5C 227.599,308.994 225.932,307.327 224.5,305.5C 224.5,266.167 224.5,226.833 224.5,187.5C 227.462,184.036 230.629,180.703 234,177.5C 234.5,217.499 234.667,257.499 234.5,297.5 Z"/></g>
<g><path style="opacity:1" fill="#a57a39" d="M 442.5,253.5 C 439.069,262.681 435.403,271.681 431.5,280.5C 431.333,246.165 431.5,211.832 432,177.5C 435,180.5 438,183.5 441,186.5C 441.168,209.004 441.668,231.337 442.5,253.5 Z"/></g>
<g><path style="opacity:1" fill="#6e4703" d="M 322.5,184.5 C 321.038,183.529 319.705,183.862 318.5,185.5C 319.679,181.192 321.013,180.859 322.5,184.5 Z"/></g>
<g><path style="opacity:1" fill="#3a1e02" d="M 351.5,182.5 C 350.646,183.632 350.646,184.965 351.5,186.5C 349.694,184.911 348.361,182.911 347.5,180.5C 349.095,179.956 350.429,180.623 351.5,182.5 Z"/></g>
<g><path style="opacity:1" fill="#f9f900" d="M 322.5,184.5 C 322.833,185.5 323.5,186.167 324.5,186.5C 326.988,188.388 329.988,189.055 333.5,188.5C 333.194,191.385 333.527,194.052 334.5,196.5C 336.094,197.983 337.76,199.483 339.5,201C 337.382,202.049 335.716,203.549 334.5,205.5C 333.527,207.948 333.194,210.615 333.5,213.5C 330.672,212.503 328.005,212.503 325.5,213.5C 324.017,215.094 322.517,216.76 321,218.5C 319.122,216.957 317.622,215.124 316.5,213C 313.493,212.699 310.493,212.865 307.5,213.5C 308.661,208.054 306.994,203.887 302.5,201C 304.241,199.38 306.075,197.88 308,196.5C 308.43,193.808 308.263,191.141 307.5,188.5C 311.75,189.081 315.416,188.081 318.5,185.5C 319.705,183.862 321.038,183.529 322.5,184.5 Z"/></g>
<g><path style="opacity:1" fill="#502300" d="M 353.5,184.5 C 357.833,186.833 361.167,190.167 363.5,194.5C 359.833,191.5 356.5,188.167 353.5,184.5 Z"/></g>
<g><path style="opacity:1" fill="#fafa00" d="M 351.5,182.5 C 351.833,183.5 352.5,184.167 353.5,184.5C 356.5,188.167 359.833,191.5 363.5,194.5C 365.255,197.68 367.255,200.68 369.5,203.5C 370.154,206.494 370.821,209.494 371.5,212.5C 371.15,216.883 369.817,220.883 367.5,224.5C 361.364,229.568 354.364,233.068 346.5,235C 347.244,236.039 348.244,236.539 349.5,236.5C 350.584,239.004 351.917,241.337 353.5,243.5C 353.232,245.099 353.566,246.432 354.5,247.5C 354.666,251.514 354.499,255.514 354,259.5C 352.955,260.373 352.122,261.373 351.5,262.5C 348.454,263.062 345.454,263.729 342.5,264.5C 339.482,264.335 336.482,264.502 333.5,265C 331.671,265.273 330.171,266.107 329,267.5C 328.333,277.167 328.333,286.833 329,296.5C 329.383,297.056 329.883,297.389 330.5,297.5C 334.97,298.486 339.637,298.819 344.5,298.5C 345.641,300.451 345.641,302.451 344.5,304.5C 339.272,309.741 333.272,313.741 326.5,316.5C 321.797,316.563 317.13,316.229 312.5,315.5C 312.167,315.5 311.833,315.5 311.5,315.5C 311.027,314.094 310.027,313.427 308.5,313.5C 305.829,312.276 303.496,310.609 301.5,308.5C 300.167,306.5 298.5,304.833 296.5,303.5C 296.366,301.708 296.699,300.042 297.5,298.5C 302.363,298.819 307.03,298.486 311.5,297.5C 312.823,287.326 312.823,276.993 311.5,266.5C 305.343,264.477 299.01,263.477 292.5,263.5C 290.847,263.34 289.514,262.674 288.5,261.5C 287.046,254.401 287.38,247.401 289.5,240.5C 290.977,238.193 292.977,236.36 295.5,235C 285.795,232.757 277.795,227.924 271.5,220.5C 270.167,215.167 270.167,209.833 271.5,204.5C 273.745,201.68 275.745,198.68 277.5,195.5C 281.464,192.037 285.298,188.37 289,184.5C 289.195,185.819 289.028,187.153 288.5,188.5C 285.073,193.016 282.407,198.016 280.5,203.5C 277.046,208.328 276.713,213.328 279.5,218.5C 280.167,221.167 281.833,222.833 284.5,223.5C 285.659,225.25 287.326,226.25 289.5,226.5C 293.182,228.429 297.182,229.763 301.5,230.5C 304.011,229.345 306.678,228.678 309.5,228.5C 310.221,230.382 311.221,230.715 312.5,229.5C 314.833,228.167 317.167,228.167 319.5,229.5C 319.56,230.043 319.893,230.376 320.5,230.5C 321.874,229.289 323.374,228.289 325,227.5C 326.626,228.289 328.126,229.289 329.5,230.5C 330.551,229.115 331.884,228.115 333.5,227.5C 335.523,228.54 337.523,229.54 339.5,230.5C 340.416,230.457 341.083,230.124 341.5,229.5C 343.857,229.663 346.19,229.497 348.5,229C 349.056,228.617 349.389,228.117 349.5,227.5C 351.38,227.771 352.713,227.104 353.5,225.5C 356.5,224.5 358.5,222.5 359.5,219.5C 361.033,217.366 361.7,214.866 361.5,212C 361.782,208.024 360.782,204.524 358.5,201.5C 356.956,196.081 354.622,191.081 351.5,186.5C 350.646,184.965 350.646,183.632 351.5,182.5 Z"/></g>
<g><path style="opacity:1" fill="#653202" d="M 324.5,186.5 C 327.728,187.414 331.061,187.747 334.5,187.5C 334.5,190.5 334.5,193.5 334.5,196.5C 333.527,194.052 333.194,191.385 333.5,188.5C 329.988,189.055 326.988,188.388 324.5,186.5 Z"/></g>
<g><path style="opacity:1" fill="#56430a" d="M 288.5,188.5 C 289.028,187.153 289.195,185.819 289,184.5C 285.298,188.37 281.464,192.037 277.5,195.5C 281.837,188.654 287.504,183.487 294.5,180C 292.601,182.988 290.601,185.821 288.5,188.5 Z"/></g>
<g><path style="opacity:1" fill="#301d04" d="M 358.5,201.5 C 360.782,204.524 361.782,208.024 361.5,212C 361.7,214.866 361.033,217.366 359.5,219.5C 360.934,213.403 360.6,207.403 358.5,201.5 Z"/></g>
<g><path style="opacity:1" fill="#331c06" d="M 369.5,203.5 C 371.864,205.948 372.864,208.948 372.5,212.5C 372.757,217.419 371.09,221.419 367.5,224.5C 369.817,220.883 371.15,216.883 371.5,212.5C 370.821,209.494 370.154,206.494 369.5,203.5 Z"/></g>
<g><path style="opacity:1" fill="#2f2412" d="M 224.5,187.5 C 224.5,226.833 224.5,266.167 224.5,305.5C 223.676,309.312 223.176,313.312 223,317.5C 222.517,316.552 222.351,315.552 222.5,314.5C 222.5,302.833 222.5,291.167 222.5,279.5C 223.08,275.19 223.414,270.857 223.5,266.5C 223.169,239.995 223.502,213.661 224.5,187.5 Z"/></g>
<g><path style="opacity:1" fill="#352103" d="M 271.5,204.5 C 270.167,209.833 270.167,215.167 271.5,220.5C 269.953,218.193 269.287,215.527 269.5,212.5C 269.287,209.473 269.953,206.807 271.5,204.5 Z"/></g>
<g><path style="opacity:1" fill="#672604" d="M 280.5,203.5 C 279.671,208.453 279.337,213.453 279.5,218.5C 276.713,213.328 277.046,208.328 280.5,203.5 Z"/></g>
<g><path style="opacity:1" fill="#712f02" d="M 334.5,205.5 C 334.508,208.545 334.841,211.545 335.5,214.5C 332.14,214.384 328.807,214.051 325.5,213.5C 328.005,212.503 330.672,212.503 333.5,213.5C 333.194,210.615 333.527,207.948 334.5,205.5 Z"/></g>
<g><path style="opacity:1" fill="#4b2802" d="M 279.5,218.5 C 281.5,219.833 283.167,221.5 284.5,223.5C 281.833,222.833 280.167,221.167 279.5,218.5 Z"/></g>
<g><path style="opacity:1" fill="#4b2c03" d="M 359.5,219.5 C 358.5,222.5 356.5,224.5 353.5,225.5C 355.167,223.167 357.167,221.167 359.5,219.5 Z"/></g>
<g><path style="opacity:1" fill="#4f3407" d="M 319.5,229.5 C 317.167,228.167 314.833,228.167 312.5,229.5C 313.134,228.053 314.301,227.387 316,227.5C 317.699,227.387 318.866,228.053 319.5,229.5 Z"/></g>
<g><path style="opacity:1" fill="#795b08" d="M 349.5,227.5 C 349.389,228.117 349.056,228.617 348.5,229C 346.19,229.497 343.857,229.663 341.5,229.5C 344.003,228.629 346.67,227.963 349.5,227.5 Z"/></g>
<g><path style="opacity:1" fill="#744c03" d="M 289.5,226.5 C 293.724,227.184 297.89,228.184 302,229.5C 304.421,227.507 306.921,227.174 309.5,228.5C 306.678,228.678 304.011,229.345 301.5,230.5C 297.182,229.763 293.182,228.429 289.5,226.5 Z"/></g>
<g><path style="opacity:1" fill="#432b06" d="M 349.5,236.5 C 352.112,238.052 353.445,240.386 353.5,243.5C 351.917,241.337 350.584,239.004 349.5,236.5 Z"/></g>
<g><path style="opacity:1" fill="#e4e211" d="M 280.5,244.5 C 280.167,245.167 279.833,245.833 279.5,246.5C 275.882,248.557 272.048,250.223 268,251.5C 264.554,250.195 261.054,249.028 257.5,248C 255.456,247.502 254.122,246.335 253.5,244.5C 257.893,241.973 262.559,239.973 267.5,238.5C 271.735,240.785 276.069,242.785 280.5,244.5 Z"/></g>
<g><path style="opacity:1" fill="#e4e211" d="M 385.5,244.5 C 382.064,247.972 377.897,250.306 373,251.5C 367.912,249.867 363.079,247.867 358.5,245.5C 358.5,245.167 358.5,244.833 358.5,244.5C 362.893,241.973 367.559,239.973 372.5,238.5C 376.735,240.785 381.069,242.785 385.5,244.5 Z"/></g>
<g><path style="opacity:1" fill="#564bf4" d="M 248.5,244.5 C 250.167,244.5 251.833,244.5 253.5,244.5C 254.122,246.335 255.456,247.502 257.5,248C 261.054,249.028 264.554,250.195 268,251.5C 272.048,250.223 275.882,248.557 279.5,246.5C 281.764,245.781 284.097,245.448 286.5,245.5C 286.334,250.511 286.501,255.511 287,260.5C 287.383,261.056 287.883,261.389 288.5,261.5C 289.514,262.674 290.847,263.34 292.5,263.5C 294.292,264.309 296.292,264.809 298.5,265C 297.944,265.383 297.611,265.883 297.5,266.5C 294.246,267.673 293.08,270.006 294,273.5C 295.129,275.141 296.629,276.141 298.5,276.5C 298.5,276.833 298.5,277.167 298.5,277.5C 297.167,277.5 295.833,277.5 294.5,277.5C 294.505,281.534 294.838,285.534 295.5,289.5C 295.41,292.152 296.076,294.485 297.5,296.5C 297.5,297.167 297.5,297.833 297.5,298.5C 294.028,299.577 293.695,301.244 296.5,303.5C 297.167,306.167 298.833,307.833 301.5,308.5C 303.496,310.609 305.829,312.276 308.5,313.5C 308.973,314.906 309.973,315.573 311.5,315.5C 311.833,315.5 312.167,315.5 312.5,315.5C 315.017,316.973 317.85,317.64 321,317.5C 323.033,317.494 324.866,317.161 326.5,316.5C 333.272,313.741 339.272,309.741 344.5,304.5C 345.947,303.866 346.613,302.699 346.5,301C 346.316,299.624 345.649,298.791 344.5,298.5C 344.5,297.833 344.5,297.167 344.5,296.5C 345.768,294.095 346.435,291.428 346.5,288.5C 346.5,287.167 346.5,285.833 346.5,284.5C 347.468,282.393 347.802,280.059 347.5,277.5C 345.901,277.768 344.568,277.434 343.5,276.5C 347.254,275.172 348.421,272.506 347,268.5C 346.617,267.944 346.117,267.611 345.5,267.5C 345.5,266.5 345.5,265.5 345.5,264.5C 348.01,264.946 350.01,264.28 351.5,262.5C 352.122,261.373 352.955,260.373 354,259.5C 354.499,255.514 354.666,251.514 354.5,247.5C 355.183,245.824 356.517,245.157 358.5,245.5C 363.079,247.867 367.912,249.867 373,251.5C 377.897,250.306 382.064,247.972 385.5,244.5C 388.167,244.5 390.833,244.5 393.5,244.5C 393.5,257.167 393.5,269.833 393.5,282.5C 391.301,289.883 386.634,295.383 379.5,299C 359.435,306.617 339.935,315.45 321,325.5C 303.397,316.116 285.23,307.949 266.5,301C 258.315,297.81 252.481,292.31 249,284.5C 248.5,271.171 248.333,257.837 248.5,244.5 Z"/></g>
<g><path style="opacity:1" fill="#3a1c23" d="M 353.5,243.5 C 355.042,244.301 356.708,244.634 358.5,244.5C 358.5,244.833 358.5,245.167 358.5,245.5C 356.517,245.157 355.183,245.824 354.5,247.5C 353.566,246.432 353.232,245.099 353.5,243.5 Z"/></g>
<g><path style="opacity:1" fill="#f5f300" d="M 443.5,260.5 C 442.596,261.209 442.263,262.209 442.5,263.5C 441.662,263.842 441.328,264.508 441.5,265.5C 437.462,274.6 433.796,283.933 430.5,293.5C 429.89,294.391 429.557,295.391 429.5,296.5C 425.462,305.6 421.796,314.933 418.5,324.5C 416.774,328.009 415.441,331.675 414.5,335.5C 413.069,336.78 412.402,338.447 412.5,340.5C 411.325,340.719 410.325,340.386 409.5,339.5C 410.577,337.271 411.244,334.937 411.5,332.5C 414.069,327.015 416.403,321.349 418.5,315.5C 418.833,314.167 419.167,312.833 419.5,311.5C 423.403,302.681 427.069,293.681 430.5,284.5C 430.833,283.167 431.167,281.833 431.5,280.5C 435.403,271.681 439.069,262.681 442.5,253.5C 443.434,245.889 443.767,238.222 443.5,230.5C 444.626,229.286 445.959,228.286 447.5,227.5C 449.155,228.228 450.821,228.395 452.5,228C 451.483,226.951 451.316,225.784 452,224.5C 454.135,222.633 455.635,220.3 456.5,217.5C 453.571,216.351 453.071,214.685 455,212.5C 456.011,213.337 457.178,213.67 458.5,213.5C 458.5,212.5 458.5,211.5 458.5,210.5C 459.5,210.5 460.5,210.5 461.5,210.5C 461.5,212.167 461.5,213.833 461.5,215.5C 462.675,215.281 463.675,215.614 464.5,216.5C 463.009,218.012 461.176,219.012 459,219.5C 458.5,221 458,222.5 457.5,224C 458.736,225.856 458.736,227.689 457.5,229.5C 458.751,230.631 459.751,231.964 460.5,233.5C 458.059,240.387 453.726,245.721 447.5,249.5C 445.875,253.08 444.541,256.746 443.5,260.5 Z"/></g>
<g><path style="opacity:1" fill="#392928" d="M 289.5,240.5 C 287.38,247.401 287.046,254.401 288.5,261.5C 287.883,261.389 287.383,261.056 287,260.5C 286.501,255.511 286.334,250.511 286.5,245.5C 284.097,245.448 281.764,245.781 279.5,246.5C 279.833,245.833 280.167,245.167 280.5,244.5C 284.591,245.164 287.591,243.83 289.5,240.5 Z"/></g>
<g><path style="opacity:1" fill="#382a13" d="M 237.5,178.5 C 236.501,221.663 236.168,264.997 236.5,308.5C 235.451,306.614 235.118,303.28 235.5,298.5C 235.333,257.832 235.5,217.165 236,176.5C 236.717,177.044 237.217,177.711 237.5,178.5 Z"/></g>
<g><path style="opacity:1" fill="#0a8909" d="M 198.5,247.5 C 199.42,248.067 199.754,247.401 199.5,245.5C 200.784,241.986 202.45,238.653 204.5,235.5C 205.327,239.459 205.827,243.459 206,247.5C 207.707,245.963 209.207,244.296 210.5,242.5C 210.833,242.5 211.167,242.5 211.5,242.5C 212.167,242.5 212.5,242.167 212.5,241.5C 213.38,244.935 212.714,248.268 210.5,251.5C 208.586,259.081 203.919,264.081 196.5,266.5C 198.412,270.66 200.579,274.66 203,278.5C 203.182,275.774 203.682,273.107 204.5,270.5C 206.5,272.167 208.5,273.833 210.5,275.5C 211.492,271.217 211.826,266.884 211.5,262.5C 212.117,262.389 212.617,262.056 213,261.5C 215.079,265.194 216.412,269.194 217,273.5C 217.935,270.405 219.769,268.071 222.5,266.5C 222.833,266.5 223.167,266.5 223.5,266.5C 223.414,270.857 223.08,275.19 222.5,279.5C 221.608,286.893 217.608,291.726 210.5,294C 214.4,300.978 218.4,307.812 222.5,314.5C 222.351,315.552 222.517,316.552 223,317.5C 223.176,313.312 223.676,309.312 224.5,305.5C 225.932,307.327 227.599,308.994 229.5,310.5C 230.932,306.987 231.765,303.32 232,299.5C 232.417,298.244 233.25,297.577 234.5,297.5C 234.5,298.167 234.833,298.5 235.5,298.5C 235.118,303.28 235.451,306.614 236.5,308.5C 238.47,306.366 240.637,304.366 243,302.5C 243.543,305.868 243.376,309.201 242.5,312.5C 241.149,319.874 237.316,325.541 231,329.5C 230.308,330.437 230.475,331.103 231.5,331.5C 233.074,336.32 235.407,340.653 238.5,344.5C 238.5,345.167 238.5,345.833 238.5,346.5C 238.44,347.043 238.107,347.376 237.5,347.5C 236.15,346.05 234.484,345.383 232.5,345.5C 232.918,344.778 233.584,344.278 234.5,344C 232.35,340.853 230.35,337.687 228.5,334.5C 228.53,333.503 228.03,332.836 227,332.5C 225.56,333.148 224.06,333.481 222.5,333.5C 218.963,333.689 215.63,333.023 212.5,331.5C 211.833,331.5 211.167,331.5 210.5,331.5C 207.726,329.936 205.059,328.103 202.5,326C 205.121,325.061 207.788,324.228 210.5,323.5C 206.974,320.906 203.308,318.573 199.5,316.5C 199.5,315.833 199.167,315.5 198.5,315.5C 198.328,314.508 198.662,313.842 199.5,313.5C 203.284,314.429 206.951,315.762 210.5,317.5C 210.833,317.167 211.167,316.833 211.5,316.5C 208.993,314.192 208.326,311.525 209.5,308.5C 212.596,310.131 215.43,312.131 218,314.5C 215.6,308.367 212.6,302.367 209,296.5C 208.223,301.964 205.057,303.964 199.5,302.5C 198.833,302.5 198.167,302.5 197.5,302.5C 192.443,300.927 187.776,298.593 183.5,295.5C 185.882,293.929 188.549,293.096 191.5,293C 187.217,290.385 183.217,287.385 179.5,284C 183.976,284.056 188.309,284.723 192.5,286C 190.253,284.005 189.253,281.505 189.5,278.5C 192.408,279.287 195.074,280.62 197.5,282.5C 199.437,283.931 201.27,285.598 203,287.5C 202.335,283.834 200.835,280.5 198.5,277.5C 197.261,274.411 195.761,271.411 194,268.5C 193.749,270.433 193.249,272.266 192.5,274C 183.514,275.392 175.514,273.226 168.5,267.5C 170.972,266.104 173.638,265.27 176.5,265C 172.5,262 168.5,259 164.5,256C 169.032,255.787 173.365,256.453 177.5,258C 175.328,255.507 174.494,252.674 175,249.5C 180.211,252.443 184.878,256.11 189,260.5C 186.516,253.872 183.183,247.538 179,241.5C 178.5,242.667 177.667,243.5 176.5,244C 168.522,244.453 161.188,242.453 154.5,238C 153.167,237.333 153.167,236.667 154.5,236C 157.043,235.86 159.377,235.194 161.5,234C 157.381,231.71 153.714,228.876 150.5,225.5C 154.532,225.111 158.366,226.111 162,228.5C 161.661,225.953 160.827,223.453 159.5,221C 159.833,220.5 160.167,220 160.5,219.5C 165.085,221.919 169.252,224.919 173,228.5C 172.498,224.908 172.498,221.241 173,217.5C 174.684,219.351 176.517,221.018 178.5,222.5C 179.329,217.533 179.829,212.533 180,207.5C 182.628,211.037 184.294,215.037 185,219.5C 186.058,215.947 188.225,213.614 191.5,212.5C 191.662,218.555 191.162,224.555 190,230.5C 188.641,234.52 186.475,238.02 183.5,241C 185.864,246.228 188.364,251.394 191,256.5C 191.131,251.306 192.131,246.306 194,241.5C 195.764,243.389 197.264,245.389 198.5,247.5 Z"/></g>
<g><path style="opacity:1" fill="#7f6130" d="M 210.5,251.5 C 211.482,254.962 211.815,258.629 211.5,262.5C 211.826,266.884 211.492,271.217 210.5,275.5C 208.5,273.833 206.5,272.167 204.5,270.5C 203.682,273.107 203.182,275.774 203,278.5C 200.579,274.66 198.412,270.66 196.5,266.5C 203.919,264.081 208.586,259.081 210.5,251.5 Z"/></g>
<g><path style="opacity:1" fill="#473678" d="M 351.5,262.5 C 350.01,264.28 348.01,264.946 345.5,264.5C 345.5,265.5 345.5,266.5 345.5,267.5C 344.508,267.672 343.842,267.338 343.5,266.5C 343.167,265.833 342.833,265.167 342.5,264.5C 345.454,263.729 348.454,263.062 351.5,262.5 Z"/></g>
<g><path style="opacity:1" fill="#f5f500" d="M 298.5,276.5 C 295.021,273.448 294.687,270.114 297.5,266.5C 300.445,265.532 303.445,265.366 306.5,266C 312.596,268.992 312.93,272.325 307.5,276C 304.518,276.498 301.518,276.665 298.5,276.5 Z"/></g>
<g><path style="opacity:1" fill="#f6f600" d="M 343.5,266.5 C 343.842,267.338 344.508,267.672 345.5,267.5C 347.195,271.053 346.528,274.053 343.5,276.5C 340.167,276.5 336.833,276.5 333.5,276.5C 328.416,270.018 330.082,266.351 338.5,265.5C 340.207,265.728 341.874,266.062 343.5,266.5 Z"/></g>
<g><path style="opacity:1" fill="#a57a39" d="M 441.5,265.5 C 441.832,298.338 441.498,331.004 440.5,363.5C 438.702,358.527 435.869,354.194 432,350.5C 431.832,331.329 431.332,312.329 430.5,293.5C 433.796,283.933 437.462,274.6 441.5,265.5 Z"/></g>
<g><path style="opacity:1" fill="#e5e40e" d="M 278.5,270.5 C 278.862,277.004 276.362,278.671 271,275.5C 270.506,273.866 270.34,272.199 270.5,270.5C 271.312,269.007 272.645,268.34 274.5,268.5C 276.355,268.34 277.688,269.007 278.5,270.5 Z"/></g>
<g><path style="opacity:1" fill="#262313" d="M 342.5,264.5 C 342.833,265.167 343.167,265.833 343.5,266.5C 341.874,266.062 340.207,265.728 338.5,265.5C 330.082,266.351 328.416,270.018 333.5,276.5C 331.983,276.489 330.816,275.823 330,274.5C 329.333,276.833 329.333,279.167 330,281.5C 330.278,280.584 330.778,279.918 331.5,279.5C 330.637,285.455 330.303,291.455 330.5,297.5C 329.883,297.389 329.383,297.056 329,296.5C 328.333,286.833 328.333,277.167 329,267.5C 330.171,266.107 331.671,265.273 333.5,265C 336.482,264.502 339.482,264.335 342.5,264.5 Z"/></g>
<g><path style="opacity:1" fill="#2e281f" d="M 297.5,266.5 C 294.687,270.114 295.021,273.448 298.5,276.5C 296.629,276.141 295.129,275.141 294,273.5C 293.08,270.006 294.246,267.673 297.5,266.5 Z"/></g>
<g><path style="opacity:1" fill="#211c22" d="M 345.5,267.5 C 346.117,267.611 346.617,267.944 347,268.5C 348.421,272.506 347.254,275.172 343.5,276.5C 346.528,274.053 347.195,271.053 345.5,267.5 Z"/></g>
<g><path style="opacity:1" fill="#362f97" d="M 333.5,276.5 C 333.167,277.167 332.833,277.833 332.5,278.5C 332.5,279.167 332.167,279.5 331.5,279.5C 330.778,279.918 330.278,280.584 330,281.5C 329.333,279.167 329.333,276.833 330,274.5C 330.816,275.823 331.983,276.489 333.5,276.5 Z"/></g>
<g><path style="opacity:1" fill="#e2e114" d="M 264.5,276.5 C 266.5,276.5 268.5,276.5 270.5,276.5C 270.5,277.5 270.5,278.5 270.5,279.5C 269.71,280.609 269.21,281.942 269,283.5C 267.989,284.337 266.822,284.67 265.5,284.5C 263.11,284.315 262.11,282.982 262.5,280.5C 262.34,278.645 263.007,277.312 264.5,276.5 Z"/></g>
<g><path style="opacity:1" fill="#474421" d="M 270.5,270.5 C 270.34,272.199 270.506,273.866 271,275.5C 276.362,278.671 278.862,277.004 278.5,270.5C 279.451,271.919 279.784,273.585 279.5,275.5C 281.415,275.216 283.081,275.549 284.5,276.5C 282.5,276.5 280.5,276.5 278.5,276.5C 279.092,279.127 279.425,281.794 279.5,284.5C 280.833,284.5 282.167,284.5 283.5,284.5C 283.5,285.167 283.5,285.833 283.5,286.5C 281.167,285.167 278.833,285.167 276.5,286.5C 279.693,280.018 277.693,277.685 270.5,279.5C 270.5,278.5 270.5,277.5 270.5,276.5C 268.5,276.5 266.5,276.5 264.5,276.5C 265.919,275.549 267.585,275.216 269.5,275.5C 269.216,273.585 269.549,271.919 270.5,270.5 Z"/></g>
<g><path style="opacity:1" fill="#e8e804" d="M 284.5,276.5 C 287.127,279.377 286.794,282.044 283.5,284.5C 282.167,284.5 280.833,284.5 279.5,284.5C 279.425,281.794 279.092,279.127 278.5,276.5C 280.5,276.5 282.5,276.5 284.5,276.5 Z"/></g>
<g><path style="opacity:1" fill="#4a4817" d="M 333.5,276.5 C 336.833,276.5 340.167,276.5 343.5,276.5C 344.568,277.434 345.901,277.768 347.5,277.5C 347.802,280.059 347.468,282.393 346.5,284.5C 346.5,282.5 346.5,280.5 346.5,278.5C 341.833,278.5 337.167,278.5 332.5,278.5C 332.833,277.833 333.167,277.167 333.5,276.5 Z"/></g>
<g><path style="opacity:1" fill="#fcfc00" d="M 276.5,286.5 C 275.167,286.5 273.833,286.5 272.5,286.5C 270.832,284.521 270.166,282.188 270.5,279.5C 277.693,277.685 279.693,280.018 276.5,286.5 Z"/></g>
<g><path style="opacity:1" fill="#f5f500" d="M 298.5,277.5 C 302.172,278.021 305.838,278.687 309.5,279.5C 311.233,285.359 311.9,291.359 311.5,297.5C 306.737,297.774 302.07,297.441 297.5,296.5C 297.59,293.848 296.924,291.515 295.5,289.5C 294.838,285.534 294.505,281.534 294.5,277.5C 295.833,277.5 297.167,277.5 298.5,277.5 Z"/></g>
<g><path style="opacity:1" fill="#f9f900" d="M 332.5,278.5 C 337.167,278.5 341.833,278.5 346.5,278.5C 346.5,280.5 346.5,282.5 346.5,284.5C 346.5,285.833 346.5,287.167 346.5,288.5C 344.96,290.838 344.294,293.505 344.5,296.5C 339.93,297.441 335.263,297.774 330.5,297.5C 330.303,291.455 330.637,285.455 331.5,279.5C 332.167,279.5 332.5,279.167 332.5,278.5 Z"/></g>
<g><path style="opacity:1" fill="#25201e" d="M 292.5,263.5 C 299.01,263.477 305.343,264.477 311.5,266.5C 312.823,276.993 312.823,287.326 311.5,297.5C 311.9,291.359 311.233,285.359 309.5,279.5C 305.838,278.687 302.172,278.021 298.5,277.5C 298.5,277.167 298.5,276.833 298.5,276.5C 301.518,276.665 304.518,276.498 307.5,276C 312.93,272.325 312.596,268.992 306.5,266C 303.445,265.366 300.445,265.532 297.5,266.5C 297.611,265.883 297.944,265.383 298.5,265C 296.292,264.809 294.292,264.309 292.5,263.5 Z"/></g>
<g><path style="opacity:1" fill="#615838" d="M 369.5,280.5 C 366.031,280.547 362.698,281.213 359.5,282.5C 360.347,281.034 361.68,280.2 363.5,280C 365.712,279.211 367.712,279.378 369.5,280.5 Z"/></g>
<g><path style="opacity:1" fill="#dcdb15" d="M 369.5,280.5 C 372.8,281.275 375.8,282.775 378.5,285C 372.088,284.695 366.088,286.028 360.5,289C 357.8,290.857 356.134,293.357 355.5,296.5C 354.833,297.167 354.167,297.833 353.5,298.5C 352.202,294.592 352.368,290.592 354,286.5C 355.451,284.536 357.284,283.203 359.5,282.5C 362.698,281.213 366.031,280.547 369.5,280.5 Z"/></g>
<g><path style="opacity:1" fill="#775e2c" d="M 198.5,277.5 C 200.835,280.5 202.335,283.834 203,287.5C 201.27,285.598 199.437,283.931 197.5,282.5C 198.451,281.081 198.784,279.415 198.5,277.5 Z"/></g>
<g><path style="opacity:1" fill="#4a471a" d="M 270.5,279.5 C 270.166,282.188 270.832,284.521 272.5,286.5C 270.126,285.314 267.792,285.314 265.5,286.5C 265.5,285.833 265.5,285.167 265.5,284.5C 266.822,284.67 267.989,284.337 269,283.5C 269.21,281.942 269.71,280.609 270.5,279.5 Z"/></g>
<g><path style="opacity:1" fill="#9f7838" d="M 222.5,279.5 C 222.5,291.167 222.5,302.833 222.5,314.5C 218.4,307.812 214.4,300.978 210.5,294C 217.608,291.726 221.608,286.893 222.5,279.5 Z"/></g>
<g><path style="opacity:1" fill="#171203" d="M 247.5,284.5 C 248.989,293.87 247.989,302.87 244.5,311.5C 245.774,302.392 246.774,293.392 247.5,284.5 Z"/></g>
<g><path style="opacity:1" fill="#191308" d="M 443.5,260.5 C 443.833,298.173 443.5,335.839 442.5,373.5C 440.193,362.87 434.86,354.203 426.5,347.5C 422.806,343.14 418.806,339.14 414.5,335.5C 415.441,331.675 416.774,328.009 418.5,324.5C 419.326,328.982 419.826,333.649 420,338.5C 423,341.5 426,344.5 429,347.5C 429.5,330.503 429.667,313.503 429.5,296.5C 429.557,295.391 429.89,294.391 430.5,293.5C 431.332,312.329 431.832,331.329 432,350.5C 435.869,354.194 438.702,358.527 440.5,363.5C 440.783,364.289 441.283,364.956 442,365.5C 442.5,331.502 442.667,297.502 442.5,263.5C 442.263,262.209 442.596,261.209 443.5,260.5 Z"/></g>
<g><path style="opacity:1" fill="#927034" d="M 199.5,313.5 C 199.5,309.833 199.5,306.167 199.5,302.5C 205.057,303.964 208.223,301.964 209,296.5C 212.6,302.367 215.6,308.367 218,314.5C 215.43,312.131 212.596,310.131 209.5,308.5C 208.326,311.525 208.993,314.192 211.5,316.5C 211.167,316.833 210.833,317.167 210.5,317.5C 206.951,315.762 203.284,314.429 199.5,313.5 Z"/></g>
<g><path style="opacity:1" fill="#a47a38" d="M 429.5,296.5 C 429.667,313.503 429.5,330.503 429,347.5C 426,344.5 423,341.5 420,338.5C 419.826,333.649 419.326,328.982 418.5,324.5C 421.796,314.933 425.462,305.6 429.5,296.5 Z"/></g>
<g><path style="opacity:1" fill="#fddc00" d="M 247.5,175.5 C 247.833,175.5 248.167,175.5 248.5,175.5C 248.5,198.5 248.5,221.5 248.5,244.5C 248.333,257.837 248.5,271.171 249,284.5C 252.481,292.31 258.315,297.81 266.5,301C 285.23,307.949 303.397,316.116 321,325.5C 339.935,315.45 359.435,306.617 379.5,299C 386.634,295.383 391.301,289.883 393.5,282.5C 393.328,283.492 393.662,284.158 394.5,284.5C 393.427,290.115 393.26,295.782 394,301.5C 395.718,314.28 401.551,324.613 411.5,332.5C 411.244,334.937 410.577,337.271 409.5,339.5C 410.325,340.386 411.325,340.719 412.5,340.5C 412.402,338.447 413.069,336.78 414.5,335.5C 418.806,339.14 422.806,343.14 426.5,347.5C 426.5,391.5 426.5,435.5 426.5,479.5C 355.167,479.5 283.833,479.5 212.5,479.5C 212.5,436.5 212.5,393.5 212.5,350.5C 217.5,344.833 222.833,339.5 228.5,334.5C 230.35,337.687 232.35,340.853 234.5,344C 233.584,344.278 232.918,344.778 232.5,345.5C 229.5,346.5 227.5,348.5 226.5,351.5C 224.978,356.352 226.311,360.519 230.5,364C 235.783,368.15 241.783,369.983 248.5,369.5C 249.229,372.626 250.729,375.293 253,377.5C 253.5,377.167 254,376.833 254.5,376.5C 252.924,374.021 251.924,371.354 251.5,368.5C 252.167,367.167 253.167,366.167 254.5,365.5C 255.94,364.054 256.607,362.221 256.5,360C 255.582,357.239 254.916,354.406 254.5,351.5C 259.167,343.512 263.833,335.512 268.5,327.5C 270.506,324.645 273.172,322.479 276.5,321C 279.754,318.253 282.42,315.086 284.5,311.5C 285.751,310.528 285.418,309.861 283.5,309.5C 275.401,306.357 267.401,303.024 259.5,299.5C 259.44,298.957 259.107,298.624 258.5,298.5C 257.719,299.729 257.219,301.062 257,302.5C 256.772,306.917 256.272,311.25 255.5,315.5C 249.596,324.967 243.929,334.633 238.5,344.5C 235.407,340.653 233.074,336.32 231.5,331.5C 238.349,326.468 242.682,319.802 244.5,311.5C 247.989,302.87 248.989,293.87 247.5,284.5C 247.5,248.167 247.5,211.833 247.5,175.5 Z"/></g>
<g><path style="opacity:1" fill="#241606" d="M 259.5,299.5 C 258.479,305.13 258.313,310.796 259,316.5C 261.845,323.957 266.678,325.457 273.5,321C 277.667,318.167 281.167,314.667 284,310.5C 284.399,310.728 284.565,311.062 284.5,311.5C 282.42,315.086 279.754,318.253 276.5,321C 273.172,322.479 270.506,324.645 268.5,327.5C 266.636,325.782 264.303,324.615 261.5,324C 259.576,320.936 257.576,318.102 255.5,315.5C 256.272,311.25 256.772,306.917 257,302.5C 257.219,301.062 257.719,299.729 258.5,298.5C 259.107,298.624 259.44,298.957 259.5,299.5 Z"/></g>
<g><path style="opacity:1" fill="#1a1705" d="M 329.5,304.5 C 332.38,304.033 334.713,304.866 336.5,307C 333.5,310.333 330.5,310.333 327.5,307C 328.056,305.989 328.722,305.156 329.5,304.5 Z"/></g>
<g><path style="opacity:1" fill="#0f0d01" d="M 307.5,304.5 C 309.199,304.34 310.866,304.506 312.5,305C 313.517,306.049 313.684,307.216 313,308.5C 310.069,310.047 307.569,309.547 305.5,307C 306.056,305.989 306.722,305.156 307.5,304.5 Z"/></g>
<g><path style="opacity:1" fill="#31273b" d="M 296.5,303.5 C 298.5,304.833 300.167,306.5 301.5,308.5C 298.833,307.833 297.167,306.167 296.5,303.5 Z"/></g>
<g><path style="opacity:1" fill="#a47939" d="M 374.5,303.5 C 377.451,307.899 379.117,312.733 379.5,318C 379.668,326.268 375.668,329.268 367.5,327C 360.079,323.963 353.746,319.463 348.5,313.5C 357.083,309.972 365.75,306.638 374.5,303.5 Z"/></g>
<g><path style="opacity:1" fill="#2f2824" d="M 344.5,298.5 C 345.649,298.791 346.316,299.624 346.5,301C 346.613,302.699 345.947,303.866 344.5,304.5C 345.641,302.451 345.641,300.451 344.5,298.5 Z"/></g>
<g><path style="opacity:1" fill="#4a4325" d="M 297.5,298.5 C 296.699,300.042 296.366,301.708 296.5,303.5C 293.695,301.244 294.028,299.577 297.5,298.5 Z"/></g>
<g><path style="opacity:1" fill="#a47939" d="M 259.5,299.5 C 267.401,303.024 275.401,306.357 283.5,309.5C 285.418,309.861 285.751,310.528 284.5,311.5C 284.565,311.062 284.399,310.728 284,310.5C 281.167,314.667 277.667,318.167 273.5,321C 266.678,325.457 261.845,323.957 259,316.5C 258.313,310.796 258.479,305.13 259.5,299.5 Z"/></g>
<g><path style="opacity:1" fill="#332f26" d="M 355.5,296.5 C 355.66,298.199 355.494,299.866 355,301.5C 353.961,300.756 353.461,299.756 353.5,298.5C 354.167,297.833 354.833,297.167 355.5,296.5 Z"/></g>
<g><path style="opacity:1" fill="#3c3a10" d="M 344.5,296.5 C 344.5,297.167 344.5,297.833 344.5,298.5C 339.637,298.819 334.97,298.486 330.5,297.5C 335.263,297.774 339.93,297.441 344.5,296.5 Z"/></g>
<g><path style="opacity:1" fill="#39370e" d="M 297.5,296.5 C 302.07,297.441 306.737,297.774 311.5,297.5C 307.03,298.486 302.363,298.819 297.5,298.5C 297.5,297.833 297.5,297.167 297.5,296.5 Z"/></g>
<g><path style="opacity:1" fill="#262317" d="M 346.5,288.5 C 346.435,291.428 345.768,294.095 344.5,296.5C 344.294,293.505 344.96,290.838 346.5,288.5 Z"/></g>
<g><path style="opacity:1" fill="#262411" d="M 295.5,289.5 C 296.924,291.515 297.59,293.848 297.5,296.5C 296.076,294.485 295.41,292.152 295.5,289.5 Z"/></g>
<g><path style="opacity:1" fill="#44401c" d="M 272.5,286.5 C 273.833,286.5 275.167,286.5 276.5,286.5C 275.659,288.379 275.325,290.379 275.5,292.5C 274.833,292.5 274.167,292.5 273.5,292.5C 273.675,290.379 273.341,288.379 272.5,286.5 Z"/></g>
<g><path style="opacity:1" fill="#e4e413" d="M 283.5,286.5 C 285.073,290.93 283.406,293.263 278.5,293.5C 277.274,293.48 276.274,293.147 275.5,292.5C 275.325,290.379 275.659,288.379 276.5,286.5C 278.833,285.167 281.167,285.167 283.5,286.5 Z"/></g>
<g><path style="opacity:1" fill="#e0e011" d="M 272.5,286.5 C 273.341,288.379 273.675,290.379 273.5,292.5C 266.776,295.079 264.109,293.079 265.5,286.5C 267.792,285.314 270.126,285.314 272.5,286.5 Z"/></g>
<g><path style="opacity:1" fill="#38312a" d="M 308.5,313.5 C 310.027,313.427 311.027,314.094 311.5,315.5C 309.973,315.573 308.973,314.906 308.5,313.5 Z"/></g>
<g><path style="opacity:1" fill="#100c06" d="M 198.5,315.5 C 199.167,315.5 199.5,315.833 199.5,316.5C 199.333,332.837 199.5,349.17 200,365.5C 202.332,359.494 205.666,354.16 210,349.5C 210.499,343.509 210.666,337.509 210.5,331.5C 211.167,331.5 211.833,331.5 212.5,331.5C 212.173,336.544 212.506,341.544 213.5,346.5C 218.606,343.431 221.606,339.098 222.5,333.5C 224.06,333.481 225.56,333.148 227,332.5C 228.03,332.836 228.53,333.503 228.5,334.5C 222.833,339.5 217.5,344.833 212.5,350.5C 209.5,352.668 207,355.334 205,358.5C 202.517,363.477 200.35,368.477 198.5,373.5C 198.5,354.167 198.5,334.833 198.5,315.5 Z"/></g>
<g><path style="opacity:1" fill="#57541f" d="M 312.5,315.5 C 317.13,316.229 321.797,316.563 326.5,316.5C 324.866,317.161 323.033,317.494 321,317.5C 317.85,317.64 315.017,316.973 312.5,315.5 Z"/></g>
<g><path style="opacity:1" fill="#9e7538" d="M 199.5,316.5 C 203.308,318.573 206.974,320.906 210.5,323.5C 207.788,324.228 205.121,325.061 202.5,326C 205.059,328.103 207.726,329.936 210.5,331.5C 210.666,337.509 210.499,343.509 210,349.5C 205.666,354.16 202.332,359.494 200,365.5C 199.5,349.17 199.333,332.837 199.5,316.5 Z"/></g>
<g><path style="opacity:1" fill="#231505" d="M 383.5,324.5 C 382.85,324.196 382.183,323.863 381.5,323.5C 379.886,326.284 377.552,328.118 374.5,329C 371.631,329.009 368.964,329.176 366.5,329.5C 359.735,325.693 353.569,321.026 348,315.5C 347.308,314.563 347.475,313.897 348.5,313.5C 353.746,319.463 360.079,323.963 367.5,327C 375.668,329.268 379.668,326.268 379.5,318C 379.117,312.733 377.451,307.899 374.5,303.5C 375.077,302.227 375.743,302.227 376.5,303.5C 380.188,310.147 382.521,317.147 383.5,324.5 Z"/></g>
<g><path style="opacity:1" fill="#292509" d="M 244.5,311.5 C 242.682,319.802 238.349,326.468 231.5,331.5C 230.475,331.103 230.308,330.437 231,329.5C 237.316,325.541 241.149,319.874 242.5,312.5C 243.167,312.167 243.833,311.833 244.5,311.5 Z"/></g>
<g><path style="opacity:1" fill="#a07738" d="M 212.5,331.5 C 215.63,333.023 218.963,333.689 222.5,333.5C 221.606,339.098 218.606,343.431 213.5,346.5C 212.506,341.544 212.173,336.544 212.5,331.5 Z"/></g>
<g><path style="opacity:1" fill="#483519" d="M 442.5,263.5 C 442.667,297.502 442.5,331.502 442,365.5C 441.283,364.956 440.783,364.289 440.5,363.5C 441.498,331.004 441.832,298.338 441.5,265.5C 441.328,264.508 441.662,263.842 442.5,263.5 Z"/></g>
<g><path style="opacity:1" fill="#721603" d="M 232.5,345.5 C 234.484,345.383 236.15,346.05 237.5,347.5C 238.107,347.376 238.44,347.043 238.5,346.5C 239.289,346.783 239.956,347.283 240.5,348C 236.833,348.333 233.167,348.667 229.5,349C 228.627,350.045 227.627,350.878 226.5,351.5C 227.5,348.5 229.5,346.5 232.5,345.5 Z"/></g>
<g><path style="opacity:1" fill="#011748" d="M 197.5,302.5 C 198.167,302.5 198.833,302.5 199.5,302.5C 199.5,306.167 199.5,309.833 199.5,313.5C 198.662,313.842 198.328,314.508 198.5,315.5C 198.5,334.833 198.5,354.167 198.5,373.5C 197.502,350.006 197.169,326.339 197.5,302.5 Z"/></g>
<g><path style="opacity:1" fill="#ee1f00" d="M 255.5,315.5 C 257.576,318.102 259.576,320.936 261.5,324C 264.303,324.615 266.636,325.782 268.5,327.5C 263.833,335.512 259.167,343.512 254.5,351.5C 253.21,352.058 252.377,353.058 252,354.5C 251.163,352.993 249.996,352.493 248.5,353C 252.524,356.213 254.524,360.38 254.5,365.5C 253.167,366.167 252.167,367.167 251.5,368.5C 250.609,369.11 249.609,369.443 248.5,369.5C 241.783,369.983 235.783,368.15 230.5,364C 226.311,360.519 224.978,356.352 226.5,351.5C 227.627,350.878 228.627,350.045 229.5,349C 233.167,348.667 236.833,348.333 240.5,348C 239.956,347.283 239.289,346.783 238.5,346.5C 238.5,345.833 238.5,345.167 238.5,344.5C 243.929,334.633 249.596,324.967 255.5,315.5 Z"/></g>
<g><path style="opacity:1" fill="#6c2b03" d="M 399.5,347.5 C 403.662,349.183 407.662,350.85 411.5,352.5C 406.389,350.993 401.389,351.327 396.5,353.5C 395.304,353.154 395.304,352.654 396.5,352C 398.5,351.333 400.5,350.667 402.5,350C 401.058,349.623 400.058,348.79 399.5,347.5 Z"/></g>
<g><path style="opacity:1" fill="#f11f00" d="M 383.5,324.5 C 389.57,331.635 394.903,339.301 399.5,347.5C 400.058,348.79 401.058,349.623 402.5,350C 400.5,350.667 398.5,351.333 396.5,352C 395.304,352.654 395.304,353.154 396.5,353.5C 401.389,351.327 406.389,350.993 411.5,352.5C 412.117,352.611 412.617,352.944 413,353.5C 413.667,356.167 413.667,358.833 413,361.5C 410.012,364.323 407.178,367.323 404.5,370.5C 399.525,373.234 394.192,374.067 388.5,373C 386.574,372.578 385.574,371.411 385.5,369.5C 385.571,363.86 387.904,359.36 392.5,356C 390.255,356.195 388.422,357.362 387,359.5C 386.722,358.584 386.222,357.918 385.5,357.5C 378.685,348.55 372.351,339.217 366.5,329.5C 368.964,329.176 371.631,329.009 374.5,329C 377.552,328.118 379.886,326.284 381.5,323.5C 382.183,323.863 382.85,324.196 383.5,324.5 Z"/></g>
<g><path style="opacity:1" fill="#912105" d="M 254.5,351.5 C 254.916,354.406 255.582,357.239 256.5,360C 256.607,362.221 255.94,364.054 254.5,365.5C 254.524,360.38 252.524,356.213 248.5,353C 249.996,352.493 251.163,352.993 252,354.5C 252.377,353.058 253.21,352.058 254.5,351.5 Z"/></g>
<g><path style="opacity:1" fill="#831603" d="M 385.5,369.5 C 384.06,368.054 383.393,366.221 383.5,364C 383.482,361.558 384.149,359.392 385.5,357.5C 386.222,357.918 386.722,358.584 387,359.5C 388.422,357.362 390.255,356.195 392.5,356C 387.904,359.36 385.571,363.86 385.5,369.5 Z"/></g>
<g><path style="opacity:1" fill="#1b1606" d="M 303.5,318.5 C 301.345,326.476 297.845,333.809 293,340.5C 286.592,347.413 279.758,353.746 272.5,359.5C 277.364,361.4 282.197,363.4 287,365.5C 301.096,360.992 308.763,351.325 310,336.5C 313.353,349.85 309.519,362.016 298.5,373C 308.079,376.255 315.579,382.088 321,390.5C 326.253,381.778 333.753,375.778 343.5,372.5C 335.062,361.963 330.896,349.963 331,336.5C 333.609,346.887 339.109,355.387 347.5,362C 349.94,363.303 352.44,364.47 355,365.5C 359.774,363.196 364.608,361.029 369.5,359C 358.243,351.078 349.077,341.245 342,329.5C 340.726,325.846 339.56,322.18 338.5,318.5C 339.302,317.115 339.969,317.282 340.5,319C 342.274,327.047 345.774,334.214 351,340.5C 358.033,347.59 365.533,354.09 373.5,360C 367.02,361.827 360.853,364.327 355,367.5C 346.188,364.355 339.521,358.688 335,350.5C 336.666,359.166 340.5,366.833 346.5,373.5C 337.329,376.157 329.829,381.157 324,388.5C 322.556,391.055 321.389,393.721 320.5,396.5C 319.772,393.788 318.939,391.121 318,388.5C 311.969,381.304 304.469,376.304 295.5,373.5C 303.674,367.152 308.174,358.819 309,348.5C 304.463,358.035 297.13,364.368 287,367.5C 281.027,364.618 274.861,362.118 268.5,360C 280,352.5 289.5,343 297,331.5C 298.799,327.268 300.299,322.935 301.5,318.5C 302.257,317.227 302.923,317.227 303.5,318.5 Z"/></g>
<g><path style="opacity:1" fill="#a4793a" d="M 303.5,318.5 C 309.374,321.354 315.207,324.354 321,327.5C 326.48,323.843 332.313,320.843 338.5,318.5C 339.56,322.18 340.726,325.846 342,329.5C 349.077,341.245 358.243,351.078 369.5,359C 364.608,361.029 359.774,363.196 355,365.5C 352.44,364.47 349.94,363.303 347.5,362C 339.109,355.387 333.609,346.887 331,336.5C 330.896,349.963 335.062,361.963 343.5,372.5C 333.753,375.778 326.253,381.778 321,390.5C 315.579,382.088 308.079,376.255 298.5,373C 309.519,362.016 313.353,349.85 310,336.5C 308.763,351.325 301.096,360.992 287,365.5C 282.197,363.4 277.364,361.4 272.5,359.5C 279.758,353.746 286.592,347.413 293,340.5C 297.845,333.809 301.345,326.476 303.5,318.5 Z"/></g>
<g><path style="opacity:1" fill="#2a8000" d="M 251.5,368.5 C 251.924,371.354 252.924,374.021 254.5,376.5C 254,376.833 253.5,377.167 253,377.5C 250.729,375.293 249.229,372.626 248.5,369.5C 249.609,369.443 250.609,369.11 251.5,368.5 Z"/></g>
</svg>
