<?xml version="1.0" encoding="UTF-8"?>
<!DOCTYPE svg PUBLIC "-//W3C//DTD SVG 1.1//EN" "http://www.w3.org/Graphics/SVG/1.1/DTD/svg11.dtd">
<svg xmlns="http://www.w3.org/2000/svg" version="1.1" width="640px" height="480px" style="shape-rendering:geometricPrecision; text-rendering:geometricPrecision; image-rendering:optimizeQuality; fill-rule:evenodd; clip-rule:evenodd" xmlns:xlink="http://www.w3.org/1999/xlink">
<g><path style="opacity:1" fill="#da2031" d="M -0.5,-0.5 C 70.5,-0.5 141.5,-0.5 212.5,-0.5C 212.5,159.5 212.5,319.5 212.5,479.5C 141.5,479.5 70.5,479.5 -0.5,479.5C -0.5,319.5 -0.5,159.5 -0.5,-0.5 Z"/></g>
<g><path style="opacity:1" fill="#0265b2" d="M 212.5,-0.5 C 283.833,-0.5 355.167,-0.5 426.5,-0.5C 426.5,159.5 426.5,319.5 426.5,479.5C 355.167,479.5 283.833,479.5 212.5,479.5C 212.5,319.5 212.5,159.5 212.5,-0.5 Z"/></g>
<g><path style="opacity:1" fill="#d92031" d="M 426.5,-0.5 C 497.5,-0.5 568.5,-0.5 639.5,-0.5C 639.5,159.5 639.5,319.5 639.5,479.5C 568.5,479.5 497.5,479.5 426.5,479.5C 426.5,319.5 426.5,159.5 426.5,-0.5 Z"/></g>
<g><path style="opacity:1" fill="#fed401" d="M 106.5,77.5 C 106.604,80.2652 106.771,83.2652 107,86.5C 109.941,90.3806 111.775,94.7139 112.5,99.5C 112.534,102.433 111.701,105.1 110,107.5C 108.579,111.482 109.746,114.148 113.5,115.5C 116.492,115.02 117.659,113.353 117,110.5C 115.437,109.275 114.27,107.775 113.5,106C 114.918,102.999 115.751,99.8325 116,96.5C 118.792,99.2048 120.126,102.538 120,106.5C 126.241,114.666 125.408,122.166 117.5,129C 102.477,136.319 92.8103,131.985 88.5,116C 90.8173,110.675 92.6507,105.175 94,99.5C 96.722,94.5141 97.5553,94.5141 96.5,99.5C 97.3118,101.623 97.9785,103.79 98.5,106C 98.5317,107.971 97.6984,109.471 96,110.5C 95.3772,115.344 97.3772,116.678 102,114.5C 102.772,110.174 102.272,106.007 100.5,102C 100.993,99.1808 102.16,96.6808 104,94.5C 104.333,89.5 104.667,84.5 105,79.5C 105.717,78.9558 106.217,78.2891 106.5,77.5 Z"/></g>
<g><path style="opacity:1" fill="#fed700" d="M 99.5,141.5 C 117.345,140 129.179,147.667 135,164.5C 136.062,185.939 125.895,197.605 104.5,199.5C 92.2746,198.14 83.7746,191.807 79,180.5C 74.27,161.289 81.1034,148.289 99.5,141.5 Z"/></g>
<g><path style="opacity:1" fill="#fed401" d="M 145.5,180.5 C 145.712,196.551 138.712,208.717 124.5,217C 102.146,225.992 84.3123,220.492 71,200.5C 67.991,194.822 66.6576,188.822 67,182.5C 79.5354,203.677 97.7021,210.844 121.5,204C 132.68,199.319 140.68,191.486 145.5,180.5 Z"/></g>
<g><path style="opacity:1" fill="#fed900" d="M 26.5,228.5 C 38.5,228.5 50.5,228.5 62.5,228.5C 62.5,286.5 62.5,344.5 62.5,402.5C 50.5,402.5 38.5,402.5 26.5,402.5C 26.5,344.5 26.5,286.5 26.5,228.5 Z"/></g>
<g><path style="opacity:1" fill="#fed600" d="M 70.5,229.5 C 93.9964,228.337 117.663,228.17 141.5,229C 130.124,236.354 118.458,243.187 106.5,249.5C 94.4828,242.826 82.4828,236.159 70.5,229.5 Z"/></g>
<g><path style="opacity:1" fill="#fed900" d="M 70.5,257.5 C 94.5,257.5 118.5,257.5 142.5,257.5C 142.5,262.167 142.5,266.833 142.5,271.5C 118.5,271.5 94.5,271.5 70.5,271.5C 70.5,266.833 70.5,262.167 70.5,257.5 Z"/></g>
<g><path style="opacity:1" fill="#f09113" d="M 70.5,257.5 C 70.5,262.167 70.5,266.833 70.5,271.5C 94.5,271.5 118.5,271.5 142.5,271.5C 118.339,272.498 94.0057,272.831 69.5,272.5C 69.1795,267.305 69.5128,262.305 70.5,257.5 Z"/></g>
<g><path style="opacity:1" fill="#fed601" d="M 98.5,279.5 C 114.17,277.379 122.337,284.045 123,299.5C 121.881,304.239 119.381,308.072 115.5,311C 109.939,312.738 104.272,314.071 98.5,315C 85.421,321.735 81.7543,331.902 87.5,345.5C 87.1667,345.833 86.8333,346.167 86.5,346.5C 67.6385,331.048 64.8052,313.048 78,292.5C 83.9798,286.661 90.8131,282.328 98.5,279.5 Z"/></g>
<g><path style="opacity:1" fill="#fed600" d="M 124.5,284.5 C 144.4,299.153 147.9,317.153 135,338.5C 125.52,349.437 113.687,353.604 99.5,351C 91.0605,346.279 87.8939,339.113 90,329.5C 91.3999,326.098 93.5665,323.264 96.5,321C 102.731,319.091 109.064,317.424 115.5,316C 127.865,308.265 130.865,297.765 124.5,284.5 Z"/></g>
<g><path style="opacity:1" fill="#db2a30" d="M 102.5,289.5 C 110.161,288.663 113.661,291.996 113,299.5C 108.965,304.364 104.632,304.698 100,300.5C 97.8261,296.193 98.6594,292.526 102.5,289.5 Z"/></g>
<g><path style="opacity:1" fill="#dc3030" d="M 103.5,327.5 C 110.657,327.155 113.824,330.488 113,337.5C 108.333,344.167 103.667,344.167 99,337.5C 98.3333,335.833 98.3333,334.167 99,332.5C 100.366,330.638 101.866,328.972 103.5,327.5 Z"/></g>
<g><path style="opacity:1" fill="#fed900" d="M 70.5,359.5 C 94.5,359.5 118.5,359.5 142.5,359.5C 142.5,364.167 142.5,368.833 142.5,373.5C 118.5,373.5 94.5,373.5 70.5,373.5C 70.5,368.833 70.5,364.167 70.5,359.5 Z"/></g>
<g><path style="opacity:1" fill="#ee8616" d="M 70.5,359.5 C 70.5,364.167 70.5,368.833 70.5,373.5C 94.5,373.5 118.5,373.5 142.5,373.5C 118.339,374.498 94.0057,374.831 69.5,374.5C 69.1795,369.305 69.5128,364.305 70.5,359.5 Z"/></g>
<g><path style="opacity:1" fill="#e65d20" d="M 140.5,382.5 C 117.5,381.167 94.5,381.167 71.5,382.5C 70.9569,382.44 70.6236,382.107 70.5,381.5C 94.4931,380.334 118.493,380.167 142.5,381C 141.956,381.717 141.289,382.217 140.5,382.5 Z"/></g>
<g><path style="opacity:1" fill="#fed600" d="M 71.5,382.5 C 94.5,381.167 117.5,381.167 140.5,382.5C 129.093,389.288 117.593,395.955 106,402.5C 94.4068,395.955 82.9068,389.288 71.5,382.5 Z"/></g>
<g><path style="opacity:1" fill="#f19512" d="M 150.5,228.5 C 150.5,286.5 150.5,344.5 150.5,402.5C 162.167,402.5 173.833,402.5 185.5,402.5C 185.5,344.5 185.5,286.5 185.5,228.5C 186.499,286.664 186.832,344.998 186.5,403.5C 174.167,403.5 161.833,403.5 149.5,403.5C 149.168,344.998 149.501,286.664 150.5,228.5 Z"/></g>
<g><path style="opacity:1" fill="#fed900" d="M 150.5,228.5 C 162.167,228.5 173.833,228.5 185.5,228.5C 185.5,286.5 185.5,344.5 185.5,402.5C 173.833,402.5 162.167,402.5 150.5,402.5C 150.5,344.5 150.5,286.5 150.5,228.5 Z"/></g>
</svg>
