<?xml version="1.0" encoding="UTF-8"?>
<!DOCTYPE svg PUBLIC "-//W3C//DTD SVG 1.1//EN" "http://www.w3.org/Graphics/SVG/1.1/DTD/svg11.dtd">
<svg xmlns="http://www.w3.org/2000/svg" version="1.1" width="640px" height="480px" style="shape-rendering:geometricPrecision; text-rendering:geometricPrecision; image-rendering:optimizeQuality; fill-rule:evenodd; clip-rule:evenodd" xmlns:xlink="http://www.w3.org/1999/xlink">
<g><path style="opacity:1" fill="#fcfcfd" d="M 0.5,-0.5 C 12.8333,-0.5 25.1667,-0.5 37.5,-0.5C 64.688,19.6909 91.8547,40.0243 119,60.5C 119.5,40.1694 119.667,19.8361 119.5,-0.5C 124.833,-0.5 130.167,-0.5 135.5,-0.5C 135.5,31.5 135.5,63.5 135.5,95.5C 90.1667,95.5 44.8333,95.5 -0.5,95.5C -0.5,90.1667 -0.5,84.8333 -0.5,79.5C 20.8359,79.6666 42.1693,79.5 63.5,79C 42.2892,62.9495 20.9559,47.1161 -0.5,31.5C -0.5,27.8333 -0.5,24.1667 -0.5,20.5C 25.3401,40.168 51.3401,59.668 77.5,79C 87.5,79.6667 97.5,79.6667 107.5,79C 71.6502,52.6367 35.9835,26.1367 0.5,-0.5 Z"/></g>
<g><path style="opacity:1" fill="#022169" d="M 37.5,-0.5 C 64.8333,-0.5 92.1667,-0.5 119.5,-0.5C 119.667,19.8361 119.5,40.1694 119,60.5C 91.8547,40.0243 64.688,19.6909 37.5,-0.5 Z"/></g>
<g><path style="opacity:1" fill="#c91931" d="M 135.5,-0.5 C 151.833,-0.5 168.167,-0.5 184.5,-0.5C 184.5,31.5 184.5,63.5 184.5,95.5C 229.5,95.5 274.5,95.5 319.5,95.5C 319.5,111.833 319.5,128.167 319.5,144.5C 274.5,144.5 229.5,144.5 184.5,144.5C 184.5,176.167 184.5,207.833 184.5,239.5C 168.167,239.5 151.833,239.5 135.5,239.5C 135.5,207.833 135.5,176.167 135.5,144.5C 90.1667,144.5 44.8333,144.5 -0.5,144.5C -0.5,128.167 -0.5,111.833 -0.5,95.5C 44.8333,95.5 90.1667,95.5 135.5,95.5C 135.5,63.5 135.5,31.5 135.5,-0.5 Z"/></g>
<g><path style="opacity:1" fill="#fcfcfc" d="M 184.5,-0.5 C 189.833,-0.5 195.167,-0.5 200.5,-0.5C 200.333,19.1695 200.5,38.8362 201,58.5C 227.351,38.9699 253.517,19.3033 279.5,-0.5C 284.167,-0.5 288.833,-0.5 293.5,-0.5C 262.312,23.0249 231.145,46.6916 200,70.5C 199.502,73.4816 199.335,76.4816 199.5,79.5C 205.176,79.6661 210.843,79.4994 216.5,79C 250.505,52.6713 284.838,26.838 319.5,1.5C 319.666,11.1724 319.5,20.8391 319,30.5C 297.59,46.7883 276.09,62.9549 254.5,79C 276.164,79.5 297.831,79.6666 319.5,79.5C 319.5,84.8333 319.5,90.1667 319.5,95.5C 274.5,95.5 229.5,95.5 184.5,95.5C 184.5,63.5 184.5,31.5 184.5,-0.5 Z"/></g>
<g><path style="opacity:1" fill="#032169" d="M 200.5,-0.5 C 226.833,-0.5 253.167,-0.5 279.5,-0.5C 253.517,19.3033 227.351,38.9699 201,58.5C 200.5,38.8362 200.333,19.1695 200.5,-0.5 Z"/></g>
<g><path style="opacity:1" fill="#c91731" d="M 293.5,-0.5 C 302.167,-0.5 310.833,-0.5 319.5,-0.5C 319.5,0.166667 319.5,0.833333 319.5,1.5C 284.838,26.838 250.505,52.6713 216.5,79C 210.843,79.4994 205.176,79.6661 199.5,79.5C 199.335,76.4816 199.502,73.4816 200,70.5C 231.145,46.6916 262.312,23.0249 293.5,-0.5 Z"/></g>
<g><path style="opacity:1" fill="#012169" d="M 319.5,-0.5 C 426.167,-0.5 532.833,-0.5 639.5,-0.5C 639.5,159.5 639.5,319.5 639.5,479.5C 426.167,479.5 212.833,479.5 -0.5,479.5C -0.5,399.5 -0.5,319.5 -0.5,239.5C -0.166667,239.5 0.166667,239.5 0.5,239.5C 9.5,239.5 18.5,239.5 27.5,239.5C 32.6278,239.888 37.6278,239.388 42.5,238C 67.7315,218.469 93.2315,199.302 119,180.5C 119.5,200.164 119.667,219.831 119.5,239.5C 124.833,239.5 130.167,239.5 135.5,239.5C 151.833,239.5 168.167,239.5 184.5,239.5C 189.5,239.5 194.5,239.5 199.5,239.5C 200.167,220.167 200.833,200.833 201.5,181.5C 227.137,200.658 252.804,219.824 278.5,239C 291.829,239.5 305.163,239.667 318.5,239.5C 319.491,233.021 319.824,226.354 319.5,219.5C 319.793,215.563 319.46,211.73 318.5,208C 296.655,192.244 274.989,176.244 253.5,160C 275.497,159.5 297.497,159.333 319.5,159.5C 319.5,154.5 319.5,149.5 319.5,144.5C 319.5,128.167 319.5,111.833 319.5,95.5C 319.5,90.1667 319.5,84.8333 319.5,79.5C 297.831,79.6666 276.164,79.5 254.5,79C 276.09,62.9549 297.59,46.7883 319,30.5C 319.5,20.8391 319.666,11.1724 319.5,1.5C 319.5,0.833333 319.5,0.166667 319.5,-0.5 Z"/></g>
<g><path style="opacity:1" fill="#c91731" d="M -0.5,-0.5 C -0.166667,-0.5 0.166667,-0.5 0.5,-0.5C 35.9835,26.1367 71.6502,52.6367 107.5,79C 97.5,79.6667 87.5,79.6667 77.5,79C 51.3401,59.668 25.3401,40.168 -0.5,20.5C -0.5,13.5 -0.5,6.5 -0.5,-0.5 Z"/></g>
<g><path style="opacity:1" fill="#032269" d="M -0.5,31.5 C 20.9559,47.1161 42.2892,62.9495 63.5,79C 42.1693,79.5 20.8359,79.6666 -0.5,79.5C -0.5,63.5 -0.5,47.5 -0.5,31.5 Z"/></g>
<g><path style="opacity:1" fill="#f7f8f9" d="M 384.5,110.5 C 452.833,110.5 521.167,110.5 589.5,110.5C 589.667,163.834 589.5,217.168 589,270.5C 586.574,301.859 572.408,326.359 546.5,344C 527.989,355.754 507.989,363.92 486.5,368.5C 456.402,362.037 430.236,348.371 408,327.5C 394.57,311.632 386.903,293.299 385,272.5C 384.5,218.501 384.333,164.501 384.5,110.5 Z"/></g>
<g><path style="opacity:1" fill="#161616" d="M 388.5,114.5 C 454.167,114.5 519.833,114.5 585.5,114.5C 585.5,165.167 585.5,215.833 585.5,266.5C 585.5,268.167 585.5,269.833 585.5,271.5C 584.833,271.5 584.167,271.5 583.5,271.5C 583.5,269.5 583.5,267.5 583.5,265.5C 584.499,215.669 584.832,165.669 584.5,115.5C 519.5,115.5 454.5,115.5 389.5,115.5C 389.168,167.336 389.501,219.003 390.5,270.5C 390.5,270.833 390.5,271.167 390.5,271.5C 390.5,271.833 390.5,272.167 390.5,272.5C 391.369,274.717 391.702,277.05 391.5,279.5C 391.737,280.791 391.404,281.791 390.5,282.5C 389.621,276.183 388.788,269.85 388,263.5C 387.168,213.665 387.335,163.998 388.5,114.5 Z"/></g>
<g><path style="opacity:1" fill="#007b90" d="M 583.5,265.5 C 583.5,215.833 583.5,166.167 583.5,116.5C 519.167,116.5 454.833,116.5 390.5,116.5C 390.5,167.833 390.5,219.167 390.5,270.5C 389.501,219.003 389.168,167.336 389.5,115.5C 454.5,115.5 519.5,115.5 584.5,115.5C 584.832,165.669 584.499,215.669 583.5,265.5 Z"/></g>
<g><path style="opacity:1" fill="#01a1bc" d="M 583.5,265.5 C 583.5,267.5 583.5,269.5 583.5,271.5C 565.5,271.5 547.5,271.5 529.5,271.5C 529.83,263.107 529.33,254.773 528,246.5C 524.691,237.57 521.191,228.737 517.5,220C 520.686,216.121 522.52,211.621 523,206.5C 523.765,197.166 524.098,187.832 524,178.5C 522.078,174.403 518.912,172.07 514.5,171.5C 512.539,169.202 511.539,166.535 511.5,163.5C 515.466,164.162 519.466,164.495 523.5,164.5C 523.587,161.261 522.92,158.261 521.5,155.5C 524.625,154.521 527.958,154.187 531.5,154.5C 531.5,150.167 531.5,145.833 531.5,141.5C 518.833,141.5 506.167,141.5 493.5,141.5C 493.5,135.5 493.5,129.5 493.5,123.5C 488.833,123.5 484.167,123.5 479.5,123.5C 479.5,129.167 479.5,134.833 479.5,140.5C 466.5,140.5 453.5,140.5 440.5,140.5C 440.181,145.363 440.514,150.03 441.5,154.5C 450.986,155.494 460.652,155.827 470.5,155.5C 470.5,156.5 470.5,157.5 470.5,158.5C 468.402,163.706 466.569,169.039 465,174.5C 464.501,179.155 464.334,183.821 464.5,188.5C 467.939,188.253 471.272,188.586 474.5,189.5C 475.568,190.434 476.901,190.768 478.5,190.5C 478.5,200.833 478.5,211.167 478.5,221.5C 471.366,223.632 467.032,228.299 465.5,235.5C 464.094,235.973 463.427,236.973 463.5,238.5C 462.667,250.213 456.667,257.547 445.5,260.5C 443.973,260.427 442.973,261.094 442.5,262.5C 441.306,263.272 440.306,264.272 439.5,265.5C 437.738,266.262 436.738,267.596 436.5,269.5C 436.167,269.5 435.833,269.5 435.5,269.5C 420.742,271.459 405.742,272.125 390.5,271.5C 390.5,271.167 390.5,270.833 390.5,270.5C 390.5,219.167 390.5,167.833 390.5,116.5C 454.833,116.5 519.167,116.5 583.5,116.5C 583.5,166.167 583.5,215.833 583.5,265.5 Z"/></g>
<g><path style="opacity:1" fill="#020303" d="M 521.5,155.5 C 520.279,154.972 519.113,154.305 518,153.5C 517.291,150.464 516.124,147.631 514.5,145C 510.517,144.996 506.517,145.329 502.5,146C 501.748,146.671 501.414,147.504 501.5,148.5C 500.833,148.5 500.5,148.833 500.5,149.5C 499.566,150.568 499.232,151.901 499.5,153.5C 498.833,153.833 498.167,154.167 497.5,154.5C 496.167,154.5 494.833,154.5 493.5,154.5C 493.5,161.167 493.5,167.833 493.5,174.5C 493.5,186.5 493.5,198.5 493.5,210.5C 489.135,214.189 484.469,217.522 479.5,220.5C 479.831,198.327 479.497,176.327 478.5,154.5C 479.5,153.167 480.5,151.833 481.5,150.5C 483.913,149.32 484.913,147.32 484.5,144.5C 482.064,144.317 479.897,144.984 478,146.5C 476.539,145.117 475.706,145.451 475.5,147.5C 474.542,147.953 473.708,148.619 473,149.5C 472.802,151.382 472.302,153.048 471.5,154.5C 461.5,154.5 451.5,154.5 441.5,154.5C 441.5,150.167 441.5,145.833 441.5,141.5C 454.344,141.829 467.011,141.495 479.5,140.5C 479.5,134.833 479.5,129.167 479.5,123.5C 484.167,123.5 488.833,123.5 493.5,123.5C 493.5,129.5 493.5,135.5 493.5,141.5C 506.167,141.5 518.833,141.5 531.5,141.5C 531.5,145.833 531.5,150.167 531.5,154.5C 527.958,154.187 524.625,154.521 521.5,155.5 Z"/></g>
<g><path style="opacity:1" fill="#00515e" d="M 479.5,140.5 C 467.011,141.495 454.344,141.829 441.5,141.5C 441.5,145.833 441.5,150.167 441.5,154.5C 440.514,150.03 440.181,145.363 440.5,140.5C 453.5,140.5 466.5,140.5 479.5,140.5 Z"/></g>
<g><path style="opacity:1" fill="#fcfcfc" d="M -0.5,144.5 C 44.8333,144.5 90.1667,144.5 135.5,144.5C 135.5,176.167 135.5,207.833 135.5,239.5C 130.167,239.5 124.833,239.5 119.5,239.5C 119.667,219.831 119.5,200.164 119,180.5C 93.2315,199.302 67.7315,218.469 42.5,238C 37.6278,239.388 32.6278,239.888 27.5,239.5C 57.699,215.813 88.3657,192.646 119.5,170C 120.456,166.606 120.789,163.106 120.5,159.5C 115.041,159.103 109.708,159.603 104.5,161C 69.6492,187.03 34.9826,213.197 0.5,239.5C 0.166667,239.5 -0.166667,239.5 -0.5,239.5C -0.5,229.5 -0.5,219.5 -0.5,209.5C 21.623,193.217 43.623,176.717 65.5,160C 43.5025,159.5 21.5025,159.333 -0.5,159.5C -0.5,154.5 -0.5,149.5 -0.5,144.5 Z"/></g>
<g><path style="opacity:1" fill="#fdfdfd" d="M 319.5,144.5 C 319.5,149.5 319.5,154.5 319.5,159.5C 297.497,159.333 275.497,159.5 253.5,160C 274.989,176.244 296.655,192.244 318.5,208C 319.46,211.73 319.793,215.563 319.5,219.5C 293.044,200.217 266.711,180.717 240.5,161C 230.934,159.387 221.267,159.053 211.5,160C 247.35,186.363 283.016,212.863 318.5,239.5C 305.163,239.667 291.829,239.5 278.5,239C 252.804,219.824 227.137,200.658 201.5,181.5C 201.44,180.957 201.107,180.624 200.5,180.5C 199.5,200.155 199.167,219.822 199.5,239.5C 194.5,239.5 189.5,239.5 184.5,239.5C 184.5,207.833 184.5,176.167 184.5,144.5C 229.5,144.5 274.5,144.5 319.5,144.5 Z"/></g>
<g><path style="opacity:1" fill="#bea89a" d="M 481.5,150.5 C 479.271,149.098 477.271,148.098 475.5,147.5C 475.706,145.451 476.539,145.117 478,146.5C 479.897,144.984 482.064,144.317 484.5,144.5C 484.913,147.32 483.913,149.32 481.5,150.5 Z"/></g>
<g><path style="opacity:1" fill="#fbdecc" d="M 475.5,147.5 C 477.271,148.098 479.271,149.098 481.5,150.5C 480.5,151.833 479.5,153.167 478.5,154.5C 477.504,154.414 476.671,154.748 476,155.5C 475.548,163.882 474.714,172.215 473.5,180.5C 474.93,180.579 476.264,180.246 477.5,179.5C 478.487,182.768 478.82,186.102 478.5,189.5C 477.167,189.5 475.833,189.5 474.5,189.5C 471.272,188.586 467.939,188.253 464.5,188.5C 464.334,183.821 464.501,179.155 465,174.5C 466.569,169.039 468.402,163.706 470.5,158.5C 471.434,157.432 471.768,156.099 471.5,154.5C 472.302,153.048 472.802,151.382 473,149.5C 473.708,148.619 474.542,147.953 475.5,147.5 Z"/></g>
<g><path style="opacity:1" fill="#f4d7c6" d="M 501.5,148.5 C 503.315,149.63 505.315,150.296 507.5,150.5C 507.321,152.954 507.987,155.121 509.5,157C 507.758,159.998 508.425,162.164 511.5,163.5C 511.539,166.535 512.539,169.202 514.5,171.5C 513.19,173.148 511.857,174.814 510.5,176.5C 507.554,177.306 504.888,178.639 502.5,180.5C 501.526,178.257 501.192,175.924 501.5,173.5C 502.468,171.393 502.802,169.059 502.5,166.5C 496.247,166.159 494.914,163.326 498.5,158C 496.273,157.296 495.94,156.129 497.5,154.5C 498.167,154.167 498.833,153.833 499.5,153.5C 499.47,154.497 499.97,155.164 501,155.5C 502.171,154.66 503.338,153.827 504.5,153C 502.907,152.051 501.574,150.885 500.5,149.5C 500.5,148.833 500.833,148.5 501.5,148.5 Z"/></g>
<g><path style="opacity:1" fill="#7b1103" d="M 521.5,155.5 C 522.92,158.261 523.587,161.261 523.5,164.5C 519.466,164.495 515.466,164.162 511.5,163.5C 508.425,162.164 507.758,159.998 509.5,157C 507.987,155.121 507.321,152.954 507.5,150.5C 505.315,150.296 503.315,149.63 501.5,148.5C 501.414,147.504 501.748,146.671 502.5,146C 506.517,145.329 510.517,144.996 514.5,145C 516.124,147.631 517.291,150.464 518,153.5C 519.113,154.305 520.279,154.972 521.5,155.5 Z"/></g>
<g><path style="opacity:1" fill="#948379" d="M 500.5,149.5 C 501.574,150.885 502.907,152.051 504.5,153C 503.338,153.827 502.171,154.66 501,155.5C 499.97,155.164 499.47,154.497 499.5,153.5C 499.232,151.901 499.566,150.568 500.5,149.5 Z"/></g>
<g><path style="opacity:1" fill="#0f7283" d="M 441.5,154.5 C 451.5,154.5 461.5,154.5 471.5,154.5C 471.768,156.099 471.434,157.432 470.5,158.5C 470.5,157.5 470.5,156.5 470.5,155.5C 460.652,155.827 450.986,155.494 441.5,154.5 Z"/></g>
<g><path style="opacity:1" fill="#2398ae" d="M 497.5,154.5 C 495.94,156.129 496.273,157.296 498.5,158C 494.914,163.326 496.247,166.159 502.5,166.5C 502.802,169.059 502.468,171.393 501.5,173.5C 501.209,172.351 500.376,171.684 499,171.5C 496.808,171.863 494.974,172.863 493.5,174.5C 493.5,167.833 493.5,161.167 493.5,154.5C 494.833,154.5 496.167,154.5 497.5,154.5 Z"/></g>
<g><path style="opacity:1" fill="#032269" d="M -0.5,159.5 C 21.5025,159.333 43.5025,159.5 65.5,160C 43.623,176.717 21.623,193.217 -0.5,209.5C -0.5,192.833 -0.5,176.167 -0.5,159.5 Z"/></g>
<g><path style="opacity:1" fill="#c91731" d="M 27.5,239.5 C 18.5,239.5 9.5,239.5 0.5,239.5C 34.9826,213.197 69.6492,187.03 104.5,161C 109.708,159.603 115.041,159.103 120.5,159.5C 120.789,163.106 120.456,166.606 119.5,170C 88.3657,192.646 57.699,215.813 27.5,239.5 Z"/></g>
<g><path style="opacity:1" fill="#c91731" d="M 319.5,219.5 C 319.824,226.354 319.491,233.021 318.5,239.5C 283.016,212.863 247.35,186.363 211.5,160C 221.267,159.053 230.934,159.387 240.5,161C 266.711,180.717 293.044,200.217 319.5,219.5 Z"/></g>
<g><path style="opacity:1" fill="#7f8fb3" d="M 201.5,181.5 C 200.833,200.833 200.167,220.167 199.5,239.5C 199.167,219.822 199.5,200.155 200.5,180.5C 201.107,180.624 201.44,180.957 201.5,181.5 Z"/></g>
<g><path style="opacity:1" fill="#f5d9c7" d="M 493.5,223.5 C 491.585,223.216 489.919,223.549 488.5,224.5C 485.285,224.905 482.285,225.905 479.5,227.5C 476.223,230.101 474.223,233.435 473.5,237.5C 471.824,239.834 469.491,240.834 466.5,240.5C 465.549,239.081 465.216,237.415 465.5,235.5C 467.032,228.299 471.366,223.632 478.5,221.5C 479.167,221.5 479.5,221.167 479.5,220.5C 484.469,217.522 489.135,214.189 493.5,210.5C 497.189,210.082 500.689,209.082 504,207.5C 505.709,198.015 510.209,190.181 517.5,184C 518.449,183.383 519.282,183.549 520,184.5C 521.169,194.492 519.169,203.826 514,212.5C 507.665,217.084 500.832,220.751 493.5,223.5 Z"/></g>
<g><path style="opacity:1" fill="#268497" d="M 478.5,154.5 C 479.497,176.327 479.831,198.327 479.5,220.5C 479.5,221.167 479.167,221.5 478.5,221.5C 478.5,211.167 478.5,200.833 478.5,190.5C 476.901,190.768 475.568,190.434 474.5,189.5C 475.833,189.5 477.167,189.5 478.5,189.5C 478.82,186.102 478.487,182.768 477.5,179.5C 476.264,180.246 474.93,180.579 473.5,180.5C 474.714,172.215 475.548,163.882 476,155.5C 476.671,154.748 477.504,154.414 478.5,154.5 Z"/></g>
<g><path style="opacity:1" fill="#067a20" d="M 501.5,173.5 C 501.192,175.924 501.526,178.257 502.5,180.5C 504.888,178.639 507.554,177.306 510.5,176.5C 511.857,174.814 513.19,173.148 514.5,171.5C 518.912,172.07 522.078,174.403 524,178.5C 524.098,187.832 523.765,197.166 523,206.5C 522.52,211.621 520.686,216.121 517.5,220C 521.191,228.737 524.691,237.57 528,246.5C 529.33,254.773 529.83,263.107 529.5,271.5C 526.544,287.129 527.044,302.796 531,318.5C 531.689,321.408 532.855,324.075 534.5,326.5C 532.484,327.694 530.484,327.694 528.5,326.5C 527.833,325.167 526.833,324.167 525.5,323.5C 524.089,322.092 522.423,321.092 520.5,320.5C 518.962,320.453 517.962,321.12 517.5,322.5C 513.48,325.788 509.147,328.621 504.5,331C 500.225,332.825 495.892,332.992 491.5,331.5C 490.833,330.833 490.167,330.167 489.5,329.5C 488.205,328.512 486.872,327.512 485.5,326.5C 487.005,317.804 488.838,309.138 491,300.5C 492.095,295.22 492.595,289.887 492.5,284.5C 493.468,282.393 493.802,280.059 493.5,277.5C 493.5,273.833 493.5,270.167 493.5,266.5C 493.5,252.167 493.5,237.833 493.5,223.5C 500.832,220.751 507.665,217.084 514,212.5C 519.169,203.826 521.169,194.492 520,184.5C 519.282,183.549 518.449,183.383 517.5,184C 510.209,190.181 505.709,198.015 504,207.5C 500.689,209.082 497.189,210.082 493.5,210.5C 493.5,198.5 493.5,186.5 493.5,174.5C 494.974,172.863 496.808,171.863 499,171.5C 500.376,171.684 501.209,172.351 501.5,173.5 Z"/></g>
<g><path style="opacity:1" fill="#060402" d="M 488.5,224.5 C 489.833,224.5 491.167,224.5 492.5,224.5C 492.5,237.5 492.5,250.5 492.5,263.5C 489.18,254.5 484.18,246.5 477.5,239.5C 479.423,235.971 480.089,231.971 479.5,227.5C 482.285,225.905 485.285,224.905 488.5,224.5 Z"/></g>
<g><path style="opacity:1" fill="#787878" d="M 388.5,114.5 C 454.331,113.501 520.331,113.168 586.5,113.5C 586.832,164.669 586.499,215.669 585.5,266.5C 585.5,215.833 585.5,165.167 585.5,114.5C 519.833,114.5 454.167,114.5 388.5,114.5 Z"/></g>
<g><path style="opacity:1" fill="#1e8da1" d="M 479.5,227.5 C 480.089,231.971 479.423,235.971 477.5,239.5C 476.395,238.4 475.062,237.733 473.5,237.5C 474.223,233.435 476.223,230.101 479.5,227.5 Z"/></g>
<g><path style="opacity:1" fill="#f49507" d="M 473.5,237.5 C 475.062,237.733 476.395,238.4 477.5,239.5C 484.18,246.5 489.18,254.5 492.5,263.5C 492.263,264.791 492.596,265.791 493.5,266.5C 493.5,270.167 493.5,273.833 493.5,277.5C 491.919,270.261 489.419,263.261 486,256.5C 488.698,265.749 490.864,275.082 492.5,284.5C 492.595,289.887 492.095,295.22 491,300.5C 488.838,309.138 487.005,317.804 485.5,326.5C 484.5,326.167 483.833,325.5 483.5,324.5C 484.525,324.103 484.692,323.437 484,322.5C 477.625,315.629 471.458,308.629 465.5,301.5C 466.268,300.737 466.768,299.737 467,298.5C 471.033,301.177 473.366,304.844 474,309.5C 474.232,308.263 474.732,307.263 475.5,306.5C 476.167,307.833 477.167,308.833 478.5,309.5C 479.956,312.535 482.123,313.869 485,313.5C 492.194,292.001 490.361,271.334 479.5,251.5C 478.974,249.77 477.974,248.436 476.5,247.5C 476.262,245.596 475.262,244.262 473.5,243.5C 471.804,241.871 470.804,242.204 470.5,244.5C 469.463,245.93 468.796,247.597 468.5,249.5C 467.326,250.514 466.66,251.847 466.5,253.5C 465.094,253.973 464.427,254.973 464.5,256.5C 462.566,257.11 460.899,258.11 459.5,259.5C 457.847,259.66 456.514,260.326 455.5,261.5C 453.973,261.427 452.973,262.094 452.5,263.5C 450.847,263.66 449.514,264.326 448.5,265.5C 447.508,265.328 446.842,265.662 446.5,266.5C 442.23,267.543 441.063,269.877 443,273.5C 444.444,271.845 446.278,271.178 448.5,271.5C 448.678,272.695 449.011,273.862 449.5,275C 448.685,276.643 447.685,278.143 446.5,279.5C 443.43,279.632 440.43,279.299 437.5,278.5C 437.167,277.5 436.5,276.833 435.5,276.5C 435.5,274.167 435.5,271.833 435.5,269.5C 435.833,269.5 436.167,269.5 436.5,269.5C 436.148,272.073 436.648,274.406 438,276.5C 437.695,274.557 437.695,272.557 438,270.5C 439.529,269.271 440.696,267.771 441.5,266C 440.906,265.536 440.239,265.369 439.5,265.5C 440.306,264.272 441.306,263.272 442.5,262.5C 444.027,262.573 445.027,261.906 445.5,260.5C 456.667,257.547 462.667,250.213 463.5,238.5C 464.158,239.398 464.824,240.398 465.5,241.5C 466.107,241.376 466.44,241.043 466.5,240.5C 469.491,240.834 471.824,239.834 473.5,237.5 Z"/></g>
<g><path style="opacity:1" fill="#877050" d="M 465.5,235.5 C 465.216,237.415 465.549,239.081 466.5,240.5C 466.44,241.043 466.107,241.376 465.5,241.5C 464.824,240.398 464.158,239.398 463.5,238.5C 463.427,236.973 464.094,235.973 465.5,235.5 Z"/></g>
<g><path style="opacity:1" fill="#069ab3" d="M 473.5,243.5 C 473.5,252.833 473.5,262.167 473.5,271.5C 472.5,271.5 471.5,271.5 470.5,271.5C 470.5,262.5 470.5,253.5 470.5,244.5C 470.804,242.204 471.804,241.871 473.5,243.5 Z"/></g>
<g><path style="opacity:1" fill="#09302e" d="M 488.5,224.5 C 489.919,223.549 491.585,223.216 493.5,223.5C 493.5,237.833 493.5,252.167 493.5,266.5C 492.596,265.791 492.263,264.791 492.5,263.5C 492.5,250.5 492.5,237.5 492.5,224.5C 491.167,224.5 489.833,224.5 488.5,224.5 Z"/></g>
<g><path style="opacity:1" fill="#0599b2" d="M 476.5,247.5 C 477.974,248.436 478.974,249.77 479.5,251.5C 479.5,258.167 479.5,264.833 479.5,271.5C 477.833,271.5 476.167,271.5 474.5,271.5C 474.334,263.16 474.5,254.827 475,246.5C 475.383,247.056 475.883,247.389 476.5,247.5 Z"/></g>
<g><path style="opacity:1" fill="#1498b0" d="M 468.5,249.5 C 469.492,256.648 469.825,263.981 469.5,271.5C 468.5,271.5 467.5,271.5 466.5,271.5C 466.5,265.5 466.5,259.5 466.5,253.5C 466.66,251.847 467.326,250.514 468.5,249.5 Z"/></g>
<g><path style="opacity:1" fill="#060300" d="M 479.5,251.5 C 490.361,271.334 492.194,292.001 485,313.5C 482.123,313.869 479.956,312.535 478.5,309.5C 479.495,297.345 479.829,285.011 479.5,272.5C 479.5,272.167 479.5,271.833 479.5,271.5C 479.5,264.833 479.5,258.167 479.5,251.5 Z"/></g>
<g><path style="opacity:1" fill="#09292d" d="M 473.5,243.5 C 475.262,244.262 476.262,245.596 476.5,247.5C 475.883,247.389 475.383,247.056 475,246.5C 474.5,254.827 474.334,263.16 474.5,271.5C 474.167,271.5 473.833,271.5 473.5,271.5C 473.5,262.167 473.5,252.833 473.5,243.5 Z"/></g>
<g><path style="opacity:1" fill="#00a1bc" d="M 464.5,256.5 C 465.164,258.81 465.497,261.31 465.5,264C 465.475,266.929 464.809,269.429 463.5,271.5C 463.221,266.405 463.555,261.405 464.5,256.5 Z"/></g>
<g><path style="opacity:1" fill="#009fba" d="M 459.5,259.5 C 461.423,263.029 462.089,267.029 461.5,271.5C 460.833,271.5 460.167,271.5 459.5,271.5C 459.5,267.5 459.5,263.5 459.5,259.5 Z"/></g>
<g><path style="opacity:1" fill="#042a30" d="M 470.5,244.5 C 470.5,253.5 470.5,262.5 470.5,271.5C 470.167,271.5 469.833,271.5 469.5,271.5C 469.825,263.981 469.492,256.648 468.5,249.5C 468.796,247.597 469.463,245.93 470.5,244.5 Z"/></g>
<g><path style="opacity:1" fill="#1a3b3f" d="M 459.5,259.5 C 459.5,263.5 459.5,267.5 459.5,271.5C 459.167,271.5 458.833,271.5 458.5,271.5C 458.5,268.167 458.5,264.833 458.5,261.5C 457.5,261.5 456.5,261.5 455.5,261.5C 456.514,260.326 457.847,259.66 459.5,259.5 Z"/></g>
<g><path style="opacity:1" fill="#4c3d1b" d="M 445.5,260.5 C 445.027,261.906 444.027,262.573 442.5,262.5C 442.973,261.094 443.973,260.427 445.5,260.5 Z"/></g>
<g><path style="opacity:1" fill="#0098b2" d="M 455.5,261.5 C 456.5,261.5 457.5,261.5 458.5,261.5C 458.5,264.833 458.5,268.167 458.5,271.5C 457.5,271.5 456.5,271.5 455.5,271.5C 455.5,268.167 455.5,264.833 455.5,261.5 Z"/></g>
<g><path style="opacity:1" fill="#113d44" d="M 455.5,261.5 C 455.5,264.833 455.5,268.167 455.5,271.5C 455.167,271.5 454.833,271.5 454.5,271.5C 455.036,268.302 454.369,265.635 452.5,263.5C 452.973,262.094 453.973,261.427 455.5,261.5 Z"/></g>
<g><path style="opacity:1" fill="#0a98b0" d="M 448.5,265.5 C 449.693,265.97 450.36,266.97 450.5,268.5C 450.36,270.03 449.693,271.03 448.5,271.5C 447.653,270.034 446.32,269.2 444.5,269C 445.381,268.292 446.047,267.458 446.5,266.5C 446.842,265.662 447.508,265.328 448.5,265.5 Z"/></g>
<g><path style="opacity:1" fill="#0e5966" d="M 464.5,256.5 C 463.555,261.405 463.221,266.405 463.5,271.5C 462.833,271.5 462.167,271.5 461.5,271.5C 462.089,267.029 461.423,263.029 459.5,259.5C 460.899,258.11 462.566,257.11 464.5,256.5 Z"/></g>
<g><path style="opacity:1" fill="#fccf01" d="M 439.5,265.5 C 440.239,265.369 440.906,265.536 441.5,266C 440.696,267.771 439.529,269.271 438,270.5C 437.695,272.557 437.695,274.557 438,276.5C 436.648,274.406 436.148,272.073 436.5,269.5C 436.738,267.596 437.738,266.262 439.5,265.5 Z"/></g>
<g><path style="opacity:1" fill="#3a6060" d="M 446.5,266.5 C 446.047,267.458 445.381,268.292 444.5,269C 446.32,269.2 447.653,270.034 448.5,271.5C 446.278,271.178 444.444,271.845 443,273.5C 441.063,269.877 442.23,267.543 446.5,266.5 Z"/></g>
<g><path style="opacity:1" fill="#fbcb01" d="M 493.5,277.5 C 493.802,280.059 493.468,282.393 492.5,284.5C 490.864,275.082 488.698,265.749 486,256.5C 489.419,263.261 491.919,270.261 493.5,277.5 Z"/></g>
<g><path style="opacity:1" fill="#646048" d="M 435.5,269.5 C 435.5,271.833 435.5,274.167 435.5,276.5C 434.566,275.432 434.232,274.099 434.5,272.5C 419.833,272.5 405.167,272.5 390.5,272.5C 390.5,272.167 390.5,271.833 390.5,271.5C 405.742,272.125 420.742,271.459 435.5,269.5 Z"/></g>
<g><path style="opacity:1" fill="#a33d08" d="M 529.5,271.5 C 547.5,271.5 565.5,271.5 583.5,271.5C 579.183,302.651 563.517,326.151 536.5,342C 520.826,350.171 504.493,356.671 487.5,361.5C 464.284,356.055 442.951,346.555 423.5,333C 407.029,318.545 396.362,300.712 391.5,279.5C 391.702,277.05 391.369,274.717 390.5,272.5C 405.167,272.5 419.833,272.5 434.5,272.5C 434.232,274.099 434.566,275.432 435.5,276.5C 436.5,276.833 437.167,277.5 437.5,278.5C 439.416,280.977 442.083,281.977 445.5,281.5C 458.167,295.833 470.833,310.167 483.5,324.5C 483.833,325.5 484.5,326.167 485.5,326.5C 486.872,327.512 488.205,328.512 489.5,329.5C 487.804,329.685 486.471,330.519 485.5,332C 487.598,332.678 489.598,332.511 491.5,331.5C 495.892,332.992 500.225,332.825 504.5,331C 509.147,328.621 513.48,325.788 517.5,322.5C 517.678,323.695 518.011,324.862 518.5,326C 516.424,331.062 514.757,336.229 513.5,341.5C 521.902,341.812 526.236,337.812 526.5,329.5C 527.167,328.5 527.833,327.5 528.5,326.5C 530.484,327.694 532.484,327.694 534.5,326.5C 532.855,324.075 531.689,321.408 531,318.5C 527.044,302.796 526.544,287.129 529.5,271.5 Z"/></g>
<g><path style="opacity:1" fill="#a43c08" d="M 463.5,272.5 C 464.822,275.768 465.489,279.435 465.5,283.5C 465.499,287.349 465.165,291.016 464.5,294.5C 463.536,287.254 463.203,279.92 463.5,272.5 Z"/></g>
<g><path style="opacity:1" fill="#9a3907" d="M 479.5,272.5 C 479.829,285.011 479.495,297.345 478.5,309.5C 477.167,308.833 476.167,307.833 475.5,306.5C 474.523,295.248 474.189,283.914 474.5,272.5C 476.167,272.5 477.833,272.5 479.5,272.5 Z"/></g>
<g><path style="opacity:1" fill="#673007" d="M 437.5,278.5 C 440.43,279.299 443.43,279.632 446.5,279.5C 446.167,280.167 445.833,280.833 445.5,281.5C 442.083,281.977 439.416,280.977 437.5,278.5 Z"/></g>
<g><path style="opacity:1" fill="#612a06" d="M 461.5,272.5 C 462.167,272.5 462.833,272.5 463.5,272.5C 463.203,279.92 463.536,287.254 464.5,294.5C 464.5,294.833 464.5,295.167 464.5,295.5C 463.85,295.804 463.183,296.137 462.5,296.5C 461.705,294.505 461.039,292.505 460.5,290.5C 461.49,284.69 461.823,278.69 461.5,272.5 Z"/></g>
<g><path style="opacity:1" fill="#3c1f0e" d="M 466.5,253.5 C 466.5,259.5 466.5,265.5 466.5,271.5C 467.5,271.5 468.5,271.5 469.5,271.5C 469.833,271.5 470.167,271.5 470.5,271.5C 471.5,271.5 472.5,271.5 473.5,271.5C 473.833,271.5 474.167,271.5 474.5,271.5C 476.167,271.5 477.833,271.5 479.5,271.5C 479.5,271.833 479.5,272.167 479.5,272.5C 477.833,272.5 476.167,272.5 474.5,272.5C 474.189,283.914 474.523,295.248 475.5,306.5C 474.732,307.263 474.232,308.263 474,309.5C 473.366,304.844 471.033,301.177 467,298.5C 466.768,299.737 466.268,300.737 465.5,301.5C 465.675,299.379 465.341,297.379 464.5,295.5C 464.5,295.167 464.5,294.833 464.5,294.5C 465.165,291.016 465.499,287.349 465.5,283.5C 465.489,279.435 464.822,275.768 463.5,272.5C 462.833,272.5 462.167,272.5 461.5,272.5C 460.186,274.915 459.519,277.748 459.5,281C 459.542,284.251 459.875,287.417 460.5,290.5C 459.778,290.918 459.278,291.584 459,292.5C 458.764,290.189 457.931,288.189 456.5,286.5C 455.883,286.611 455.383,286.944 455,287.5C 454.634,285.548 453.801,283.882 452.5,282.5C 451.778,282.918 451.278,283.584 451,284.5C 451.266,281.099 449.766,279.433 446.5,279.5C 447.685,278.143 448.685,276.643 449.5,275C 449.011,273.862 448.678,272.695 448.5,271.5C 449.693,271.03 450.36,270.03 450.5,268.5C 450.36,266.97 449.693,265.97 448.5,265.5C 449.514,264.326 450.847,263.66 452.5,263.5C 451.612,266.054 451.279,268.721 451.5,271.5C 452.5,271.5 453.5,271.5 454.5,271.5C 454.833,271.5 455.167,271.5 455.5,271.5C 456.5,271.5 457.5,271.5 458.5,271.5C 458.833,271.5 459.167,271.5 459.5,271.5C 460.167,271.5 460.833,271.5 461.5,271.5C 462.167,271.5 462.833,271.5 463.5,271.5C 464.809,269.429 465.475,266.929 465.5,264C 465.497,261.31 465.164,258.81 464.5,256.5C 464.427,254.973 465.094,253.973 466.5,253.5 Z"/></g>
<g><path style="opacity:1" fill="#9c3907" d="M 470.5,272.5 C 471.5,272.5 472.5,272.5 473.5,272.5C 473.666,282.506 473.5,292.506 473,302.5C 472.333,301.833 471.667,301.167 471,300.5C 470.5,291.173 470.334,281.839 470.5,272.5 Z"/></g>
<g><path style="opacity:1" fill="#a43d07" d="M 466.5,272.5 C 467.5,272.5 468.5,272.5 469.5,272.5C 469.666,281.173 469.5,289.84 469,298.5C 468.333,297.833 467.667,297.167 467,296.5C 466.5,288.507 466.334,280.507 466.5,272.5 Z"/></g>
<g><path style="opacity:1" fill="#a43c07" d="M 461.5,272.5 C 461.823,278.69 461.49,284.69 460.5,290.5C 459.875,287.417 459.542,284.251 459.5,281C 459.519,277.748 460.186,274.915 461.5,272.5 Z"/></g>
<g><path style="opacity:1" fill="#903506" d="M 456.5,286.5 C 455.559,281.93 455.226,277.263 455.5,272.5C 456.5,272.5 457.5,272.5 458.5,272.5C 459.103,277.619 458.436,282.285 456.5,286.5 Z"/></g>
<g><path style="opacity:1" fill="#973707" d="M 452.5,282.5 C 451.586,279.272 451.253,275.939 451.5,272.5C 452.5,272.5 453.5,272.5 454.5,272.5C 455.069,276.329 454.402,279.663 452.5,282.5 Z"/></g>
<g><path style="opacity:1" fill="#0095ae" d="M 452.5,263.5 C 454.369,265.635 455.036,268.302 454.5,271.5C 453.5,271.5 452.5,271.5 451.5,271.5C 451.279,268.721 451.612,266.054 452.5,263.5 Z"/></g>
<g><path style="opacity:1" fill="#1f1d1a" d="M 583.5,271.5 C 584.167,271.5 584.833,271.5 585.5,271.5C 582.213,298.923 569.547,320.757 547.5,337C 529.064,349.872 508.731,358.372 486.5,362.5C 461.279,357.271 438.612,346.771 418.5,331C 404.139,317.783 394.806,301.617 390.5,282.5C 391.404,281.791 391.737,280.791 391.5,279.5C 396.362,300.712 407.029,318.545 423.5,333C 442.951,346.555 464.284,356.055 487.5,361.5C 504.493,356.671 520.826,350.171 536.5,342C 563.517,326.151 579.183,302.651 583.5,271.5 Z"/></g>
<g><path style="opacity:1" fill="#f4d6c5" d="M 489.5,329.5 C 490.167,330.167 490.833,330.833 491.5,331.5C 489.598,332.511 487.598,332.678 485.5,332C 486.471,330.519 487.804,329.685 489.5,329.5 Z"/></g>
<g><path style="opacity:1" fill="#6e4b2a" d="M 525.5,323.5 C 526.833,324.167 527.833,325.167 528.5,326.5C 527.833,327.5 527.167,328.5 526.5,329.5C 526.483,327.435 526.15,325.435 525.5,323.5 Z"/></g>
<g><path style="opacity:1" fill="#e7c8b6" d="M 525.5,323.5 C 526.15,325.435 526.483,327.435 526.5,329.5C 526.236,337.812 521.902,341.812 513.5,341.5C 514.757,336.229 516.424,331.062 518.5,326C 518.011,324.862 517.678,323.695 517.5,322.5C 517.962,321.12 518.962,320.453 520.5,320.5C 522.423,321.092 524.089,322.092 525.5,323.5 Z"/></g>
<g><path style="opacity:1" fill="#f6ac05" d="M 446.5,279.5 C 449.766,279.433 451.266,281.099 451,284.5C 451.278,283.584 451.778,282.918 452.5,282.5C 453.801,283.882 454.634,285.548 455,287.5C 455.383,286.944 455.883,286.611 456.5,286.5C 457.931,288.189 458.764,290.189 459,292.5C 459.278,291.584 459.778,290.918 460.5,290.5C 461.039,292.505 461.705,294.505 462.5,296.5C 463.183,296.137 463.85,295.804 464.5,295.5C 465.341,297.379 465.675,299.379 465.5,301.5C 471.458,308.629 477.625,315.629 484,322.5C 484.692,323.437 484.525,324.103 483.5,324.5C 470.833,310.167 458.167,295.833 445.5,281.5C 445.833,280.833 446.167,280.167 446.5,279.5 Z"/></g>
</svg>
