<?xml version="1.0" encoding="UTF-8"?>
<!DOCTYPE svg PUBLIC "-//W3C//DTD SVG 1.1//EN" "http://www.w3.org/Graphics/SVG/1.1/DTD/svg11.dtd">
<svg xmlns="http://www.w3.org/2000/svg" version="1.1" width="640px" height="480px" style="shape-rendering:geometricPrecision; text-rendering:geometricPrecision; image-rendering:optimizeQuality; fill-rule:evenodd; clip-rule:evenodd" xmlns:xlink="http://www.w3.org/1999/xlink">
<g><path style="opacity:1" fill="#c0272d" d="M -0.5,-0.5 C 212.833,-0.5 426.167,-0.5 639.5,-0.5C 639.5,159.5 639.5,319.5 639.5,479.5C 426.167,479.5 212.833,479.5 -0.5,479.5C -0.5,319.5 -0.5,159.5 -0.5,-0.5 Z"/></g>
<g><path style="opacity:1" fill="#086132" d="M 337.5,214.5 C 356.167,215.167 374.833,215.833 393.5,216.5C 378.214,227.121 363.214,238.121 348.5,249.5C 354.088,266.685 359.755,283.852 365.5,301C 365.167,301.5 364.833,302 364.5,302.5C 349.738,291.705 334.904,281.039 320,270.5C 304.372,281.291 288.872,292.291 273.5,303.5C 278.654,285.688 284.32,267.688 290.5,249.5C 275.786,238.121 260.786,227.121 245.5,216.5C 264.167,215.833 282.833,215.167 301.5,214.5C 307.095,196.714 313.095,179.048 319.5,161.5C 325.905,179.048 331.905,196.714 337.5,214.5 Z"/></g>
<g><path style="opacity:1" fill="#b22f2d" d="M 318.5,199.5 C 319.497,199.47 320.164,199.97 320.5,201C 322.35,205.714 323.684,210.547 324.5,215.5C 321.167,215.5 317.833,215.5 314.5,215.5C 315.627,210.118 316.961,204.784 318.5,199.5 Z"/></g>
<g><path style="opacity:1" fill="#67422f" d="M 301.5,214.5 C 282.833,215.167 264.167,215.833 245.5,216.5C 244.957,216.44 244.624,216.107 244.5,215.5C 263.488,214.5 282.488,214.167 301.5,214.5 Z"/></g>
<g><path style="opacity:1" fill="#67422f" d="M 337.5,214.5 C 356.512,214.167 375.512,214.5 394.5,215.5C 394.376,216.107 394.043,216.44 393.5,216.5C 374.833,215.833 356.167,215.167 337.5,214.5 Z"/></g>
<g><path style="opacity:1" fill="#8c372e" d="M 297.5,227.5 C 292.305,227.179 287.305,227.513 282.5,228.5C 281.711,228.217 281.044,227.717 280.5,227C 286.349,226.182 292.015,226.348 297.5,227.5 Z"/></g>
<g><path style="opacity:1" fill="#8d372e" d="M 341.5,227.5 C 346.985,226.348 352.651,226.182 358.5,227C 357.956,227.717 357.289,228.217 356.5,228.5C 351.695,227.513 346.695,227.179 341.5,227.5 Z"/></g>
<g><path style="opacity:1" fill="#bc292d" d="M 282.5,228.5 C 287.305,227.513 292.305,227.179 297.5,227.5C 296.61,230.783 295.276,233.783 293.5,236.5C 289.815,233.809 286.148,231.142 282.5,228.5 Z"/></g>
<g><path style="opacity:1" fill="#bc292d" d="M 310.5,226.5 C 316.509,226.334 322.509,226.501 328.5,227C 330.59,232.434 332.59,237.934 334.5,243.5C 330.087,248.21 325.087,252.21 319.5,255.5C 314.278,251.729 309.278,247.729 304.5,243.5C 306.512,237.794 308.512,232.127 310.5,226.5 Z"/></g>
<g><path style="opacity:1" fill="#bb292d" d="M 341.5,227.5 C 346.695,227.179 351.695,227.513 356.5,228.5C 352.852,231.142 349.185,233.809 345.5,236.5C 343.724,233.783 342.39,230.783 341.5,227.5 Z"/></g>
<g><path style="opacity:1" fill="#b52c2d" d="M 300.5,256.5 C 303.621,258.448 306.621,260.615 309.5,263C 305,266.167 300.5,269.333 296,272.5C 296.765,267.029 298.265,261.695 300.5,256.5 Z"/></g>
<g><path style="opacity:1" fill="#b52c2d" d="M 337.5,256.5 C 338.117,256.611 338.617,256.944 339,257.5C 340.978,262.417 342.311,267.417 343,272.5C 338.5,269.333 334,266.167 329.5,263C 332.355,260.969 335.022,258.803 337.5,256.5 Z"/></g>
</svg>
