<?xml version="1.0" encoding="UTF-8"?>
<!DOCTYPE svg PUBLIC "-//W3C//DTD SVG 1.1//EN" "http://www.w3.org/Graphics/SVG/1.1/DTD/svg11.dtd">
<svg xmlns="http://www.w3.org/2000/svg" version="1.1" width="640px" height="480px" style="shape-rendering:geometricPrecision; text-rendering:geometricPrecision; image-rendering:optimizeQuality; fill-rule:evenodd; clip-rule:evenodd" xmlns:xlink="http://www.w3.org/1999/xlink">
<g><path style="opacity:1" fill="#009900" d="M 0.5,-0.5 C 213.5,-0.5 426.5,-0.5 639.5,-0.5C 639.5,49.5 639.5,99.5 639.5,149.5C 492.167,149.5 344.833,149.5 197.5,149.5C 131.26,100.26 65.5929,50.2603 0.5,-0.5 Z"/></g>
<g><path style="opacity:1" fill="#fe0100" d="M -0.5,-0.5 C -0.166667,-0.5 0.166667,-0.5 0.5,-0.5C 65.5929,50.2603 131.26,100.26 197.5,149.5C 203.522,154.85 209.855,159.85 216.5,164.5C 249.1,189.094 281.434,214.094 313.5,239.5C 281.434,264.906 249.1,289.906 216.5,314.5C 209.855,319.15 203.522,324.15 197.5,329.5C 131.285,378.775 65.6188,428.775 0.5,479.5C 0.166667,479.5 -0.166667,479.5 -0.5,479.5C -0.5,319.5 -0.5,159.5 -0.5,-0.5 Z"/></g>
<g><path style="opacity:1" fill="#fffefe" d="M 197.5,149.5 C 344.833,149.5 492.167,149.5 639.5,149.5C 639.5,154.5 639.5,159.5 639.5,164.5C 498.5,164.5 357.5,164.5 216.5,164.5C 209.855,159.85 203.522,154.85 197.5,149.5 Z"/></g>
<g><path style="opacity:1" fill="#000000" d="M 216.5,164.5 C 357.5,164.5 498.5,164.5 639.5,164.5C 639.5,214.5 639.5,264.5 639.5,314.5C 498.5,314.5 357.5,314.5 216.5,314.5C 249.1,289.906 281.434,264.906 313.5,239.5C 281.434,214.094 249.1,189.094 216.5,164.5 Z"/></g>
<g><path style="opacity:1" fill="#fcc600" d="M 151.5,206.5 C 149.205,209.297 146.705,211.964 144,214.5C 143.667,214.167 143.333,213.833 143,213.5C 141.649,215.019 140.149,216.352 138.5,217.5C 134.342,213.209 130.176,208.875 126,204.5C 125.51,203.207 125.343,201.873 125.5,200.5C 129.467,188.937 133.467,177.27 137.5,165.5C 142.195,179.255 146.862,192.922 151.5,206.5 Z"/></g>
<g><path style="opacity:1" fill="#0b0705" d="M 154.5,216.5 C 152.771,217.117 151.271,218.117 150,219.5C 149.31,222.196 147.81,224.363 145.5,226C 145.728,226.399 146.062,226.565 146.5,226.5C 146.932,227.71 147.599,228.71 148.5,229.5C 155.804,237.808 163.138,246.141 170.5,254.5C 171.528,257.098 172.528,257.098 173.5,254.5C 174.228,258.406 176.062,261.74 179,264.5C 179.483,263.552 179.649,262.552 179.5,261.5C 180.699,264.563 182.199,267.563 184,270.5C 187.038,273.203 189.705,276.203 192,279.5C 192.5,283 191,284.5 187.5,284C 183.906,278.903 179.573,274.737 174.5,271.5C 176.933,271.214 176.933,270.548 174.5,269.5C 172.388,265.375 169.055,263.375 164.5,263.5C 164.5,263.167 164.5,262.833 164.5,262.5C 165.873,262.657 167.207,262.49 168.5,262C 159.37,251.201 149.87,240.701 140,230.5C 138.554,235.645 138.054,240.979 138.5,246.5C 146.791,245.493 149.457,248.993 146.5,257C 143.854,257.497 141.187,257.664 138.5,257.5C 137.964,260.698 138.631,263.365 140.5,265.5C 140.5,265.833 140.5,266.167 140.5,266.5C 138.287,267.773 135.954,268.773 133.5,269.5C 131.162,272.735 132.329,274.402 137,274.5C 139.634,274.066 142.134,273.233 144.5,272C 143.5,271 142.5,270 141.5,269C 141.833,268.833 142.167,268.667 142.5,268.5C 143.852,269.524 145.185,270.524 146.5,271.5C 144.174,274.16 141.174,275.493 137.5,275.5C 134.771,275.705 132.438,274.872 130.5,273C 121.173,272.5 111.839,272.334 102.5,272.5C 100.143,272.337 97.8098,272.503 95.5,273C 91.6319,277.865 87.4652,282.365 83,286.5C 78.9885,283.988 75.8218,280.655 73.5,276.5C 78.0056,269.805 84.0056,265.305 91.5,263C 94,260.5 96.5,258 99,255.5C 99.4966,253.19 99.6633,250.857 99.5,248.5C 100.659,247.26 101.659,245.926 102.5,244.5C 103.322,246.55 104.322,246.217 105.5,243.5C 107.027,243.573 108.027,242.906 108.5,241.5C 113.467,237.868 118.133,233.868 122.5,229.5C 120.955,228.548 119.288,228.215 117.5,228.5C 122.191,228.4 126.191,226.567 129.5,223C 131.095,223.617 132.428,223.284 133.5,222C 130.331,217.665 126.664,213.832 122.5,210.5C 120.974,208.87 118.974,208.037 116.5,208C 115.333,206.833 114.167,205.667 113,204.5C 112.667,206.833 112.333,209.167 112,211.5C 109.492,214.531 106.992,217.531 104.5,220.5C 99.915,226.652 95.0817,232.652 90,238.5C 86.6667,234.5 83.3333,230.5 80,226.5C 79.678,224.311 80.178,222.311 81.5,220.5C 87.3032,213.184 92.9699,205.684 98.5,198C 101.817,197.502 105.15,197.335 108.5,197.5C 109.293,192.224 112.293,190.391 117.5,192C 120.371,194.703 123.038,197.536 125.5,200.5C 125.343,201.873 125.51,203.207 126,204.5C 130.176,208.875 134.342,213.209 138.5,217.5C 140.149,216.352 141.649,215.019 143,213.5C 143.333,213.833 143.667,214.167 144,214.5C 146.705,211.964 149.205,209.297 151.5,206.5C 158.847,206.168 163.514,202.501 165.5,195.5C 167.583,197.604 169.917,197.938 172.5,196.5C 173.167,197.5 173.833,198.5 174.5,199.5C 183.509,192.519 192.842,186.353 202.5,181C 193.863,188.636 185.53,196.636 177.5,205C 171.051,207.765 165.385,211.765 160.5,217C 158.536,217.624 156.869,217.124 155.5,215.5C 154.893,215.624 154.56,215.957 154.5,216.5 Z"/></g>
<g><path style="opacity:1" fill="#f90900" d="M 122.5,210.5 C 122.002,213.829 121.002,216.995 119.5,220C 114.511,220.499 109.511,220.666 104.5,220.5C 106.992,217.531 109.492,214.531 112,211.5C 112.333,209.167 112.667,206.833 113,204.5C 114.167,205.667 115.333,206.833 116.5,208C 118.974,208.037 120.974,208.87 122.5,210.5 Z"/></g>
<g><path style="opacity:1" fill="#fac400" d="M 122.5,210.5 C 126.664,213.832 130.331,217.665 133.5,222C 132.428,223.284 131.095,223.617 129.5,223C 126.191,226.567 122.191,228.4 117.5,228.5C 117.167,228.5 116.833,228.5 116.5,228.5C 107.031,228.97 102.364,233.97 102.5,243.5C 102.5,243.833 102.5,244.167 102.5,244.5C 101.659,245.926 100.659,247.26 99.5,248.5C 86.7118,239.552 74.0451,230.385 61.5,221C 68.1583,220.5 74.825,220.334 81.5,220.5C 80.178,222.311 79.678,224.311 80,226.5C 83.3333,230.5 86.6667,234.5 90,238.5C 95.0817,232.652 99.915,226.652 104.5,220.5C 109.511,220.666 114.511,220.499 119.5,220C 121.002,216.995 122.002,213.829 122.5,210.5 Z"/></g>
<g><path style="opacity:1" fill="#fdc700" d="M 154.5,216.5 C 154.539,217.583 154.873,218.583 155.5,219.5C 175.158,220.333 194.825,220.833 214.5,221C 201.589,229.943 188.923,239.11 176.5,248.5C 176.167,248.5 175.833,248.5 175.5,248.5C 175.277,244.838 174.277,241.505 172.5,238.5C 171.958,233.624 169.291,230.624 164.5,229.5C 158.845,227.224 152.845,226.224 146.5,226.5C 146.062,226.565 145.728,226.399 145.5,226C 147.81,224.363 149.31,222.196 150,219.5C 151.271,218.117 152.771,217.117 154.5,216.5 Z"/></g>
<g><path style="opacity:1" fill="#f2f2f2" d="M 116.5,228.5 C 116.833,228.5 117.167,228.5 117.5,228.5C 119.288,228.215 120.955,228.548 122.5,229.5C 118.133,233.868 113.467,237.868 108.5,241.5C 107.957,241.44 107.624,241.107 107.5,240.5C 108.551,237.243 109.218,233.91 109.5,230.5C 112.067,230.279 114.401,229.612 116.5,228.5 Z"/></g>
<g><path style="opacity:1" fill="#f9f9f9" d="M 148.5,229.5 C 153.675,228.441 159.009,228.441 164.5,229.5C 166.826,230.69 167.993,232.69 168,235.5C 169.103,241.18 170.269,246.847 171.5,252.5C 171.457,253.416 171.124,254.083 170.5,254.5C 163.138,246.141 155.804,237.808 148.5,229.5 Z"/></g>
<g><path style="opacity:1" fill="#65583b" d="M 146.5,226.5 C 152.845,226.224 158.845,227.224 164.5,229.5C 159.009,228.441 153.675,228.441 148.5,229.5C 147.599,228.71 146.932,227.71 146.5,226.5 Z"/></g>
<g><path style="opacity:1" fill="#f5f5f5" d="M 164.5,262.5 C 158.824,262.334 153.157,262.501 147.5,263C 144.896,263.39 142.562,264.224 140.5,265.5C 138.631,263.365 137.964,260.698 138.5,257.5C 141.187,257.664 143.854,257.497 146.5,257C 149.457,248.993 146.791,245.493 138.5,246.5C 138.054,240.979 138.554,235.645 140,230.5C 149.87,240.701 159.37,251.201 168.5,262C 167.207,262.49 165.873,262.657 164.5,262.5 Z"/></g>
<g><path style="opacity:1" fill="#4d4533" d="M 116.5,228.5 C 114.401,229.612 112.067,230.279 109.5,230.5C 109.218,233.91 108.551,237.243 107.5,240.5C 107.624,241.107 107.957,241.44 108.5,241.5C 108.027,242.906 107.027,243.573 105.5,243.5C 106.464,240.193 106.964,236.859 107,233.5C 106.333,234.167 105.667,234.833 105,235.5C 104.454,238.379 103.621,241.046 102.5,243.5C 102.364,233.97 107.031,228.97 116.5,228.5 Z"/></g>
<g><path style="opacity:1" fill="#f1f1f1" d="M 135.5,233.5 C 137.423,237.029 138.089,241.029 137.5,245.5C 134.053,245.186 130.72,244.352 127.5,243C 126.167,241.333 126.167,239.667 127.5,238C 129.061,237.682 130.228,236.849 131,235.5C 133.108,236.612 134.608,235.946 135.5,233.5 Z"/></g>
<g><path style="opacity:1" fill="#e6e6e5" d="M 105.5,243.5 C 104.322,246.217 103.322,246.55 102.5,244.5C 102.5,244.167 102.5,243.833 102.5,243.5C 103.621,241.046 104.454,238.379 105,235.5C 105.667,234.833 106.333,234.167 107,233.5C 106.964,236.859 106.464,240.193 105.5,243.5 Z"/></g>
<g><path style="opacity:1" fill="#f0f0f0" d="M 172.5,238.5 C 172.395,242.258 173.395,245.592 175.5,248.5C 175.654,253.289 176.987,257.622 179.5,261.5C 179.649,262.552 179.483,263.552 179,264.5C 176.062,261.74 174.228,258.406 173.5,254.5C 171.873,247.87 170.706,241.203 170,234.5C 170.934,235.858 171.768,237.192 172.5,238.5 Z"/></g>
<g><path style="opacity:1" fill="#504e49" d="M 164.5,229.5 C 169.291,230.624 171.958,233.624 172.5,238.5C 171.768,237.192 170.934,235.858 170,234.5C 170.706,241.203 171.873,247.87 173.5,254.5C 172.528,257.098 171.528,257.098 170.5,254.5C 171.124,254.083 171.457,253.416 171.5,252.5C 170.269,246.847 169.103,241.18 168,235.5C 167.993,232.69 166.826,230.69 164.5,229.5 Z"/></g>
<g><path style="opacity:1" fill="#504834" d="M 172.5,238.5 C 174.277,241.505 175.277,244.838 175.5,248.5C 173.395,245.592 172.395,242.258 172.5,238.5 Z"/></g>
<g><path style="opacity:1" fill="#b4b4b4" d="M 112.5,244.5 C 113.315,243.163 114.482,242.163 116,241.5C 116.333,243.934 115.166,244.934 112.5,244.5 Z"/></g>
<g><path style="opacity:1" fill="#999999" d="M 112.5,244.5 C 111.089,246.914 109.089,248.581 106.5,249.5C 107.911,247.086 109.911,245.419 112.5,244.5 Z"/></g>
<g><path style="opacity:1" fill="#f9f9f9" d="M 137.5,265.5 C 132.257,264.07 126.924,263.07 121.5,262.5C 119.473,262.662 117.473,262.495 115.5,262C 114.978,261.439 114.645,260.772 114.5,260C 116.348,257.646 118.014,255.146 119.5,252.5C 118.355,251.109 118.355,249.776 119.5,248.5C 125.031,252.266 131.031,254.933 137.5,256.5C 137.5,259.5 137.5,262.5 137.5,265.5 Z"/></g>
<g><path style="opacity:1" fill="#bfbfbf" d="M 106.5,249.5 C 104.873,251.63 103.04,253.63 101,255.5C 101.519,252.474 103.352,250.474 106.5,249.5 Z"/></g>
<g><path style="opacity:1" fill="#563632" d="M 175.5,248.5 C 175.833,248.5 176.167,248.5 176.5,248.5C 177.707,252.786 178.707,257.12 179.5,261.5C 176.987,257.622 175.654,253.289 175.5,248.5 Z"/></g>
<g><path style="opacity:1" fill="#454545" d="M 164.5,262.5 C 164.5,262.833 164.5,263.167 164.5,263.5C 156.25,262.914 148.25,263.914 140.5,266.5C 140.5,266.167 140.5,265.833 140.5,265.5C 142.562,264.224 144.896,263.39 147.5,263C 153.157,262.501 158.824,262.334 164.5,262.5 Z"/></g>
<g><path style="opacity:1" fill="#939393" d="M 109.5,264.5 C 107.167,264.5 104.833,264.5 102.5,264.5C 104.798,257.875 107.132,257.875 109.5,264.5 Z"/></g>
<g><path style="opacity:1" fill="#676767" d="M 121.5,262.5 C 126.924,263.07 132.257,264.07 137.5,265.5C 137.5,266.167 137.167,266.5 136.5,266.5C 131.353,265.604 126.353,264.604 121.5,263.5C 121.5,263.167 121.5,262.833 121.5,262.5 Z"/></g>
<g><path style="opacity:1" fill="#f1f1f1" d="M 164.5,263.5 C 169.055,263.375 172.388,265.375 174.5,269.5C 172.735,270.461 170.735,270.795 168.5,270.5C 168.167,270.5 167.833,270.5 167.5,270.5C 164.686,269.835 161.686,269.502 158.5,269.5C 154.203,269.278 150.203,269.945 146.5,271.5C 145.185,270.524 143.852,269.524 142.5,268.5C 142.167,268.667 141.833,268.833 141.5,269C 142.5,270 143.5,271 144.5,272C 142.134,273.233 139.634,274.066 137,274.5C 132.329,274.402 131.162,272.735 133.5,269.5C 135.954,268.773 138.287,267.773 140.5,266.5C 148.25,263.914 156.25,262.914 164.5,263.5 Z"/></g>
<g><path style="opacity:1" fill="#f8f8f8" d="M 102.5,264.5 C 104.833,264.5 107.167,264.5 109.5,264.5C 109.961,266.55 110.628,268.55 111.5,270.5C 106.833,271.833 102.167,271.833 97.5,270.5C 99.2194,268.456 100.886,266.456 102.5,264.5 Z"/></g>
<g><path style="opacity:1" fill="#f8f8f8" d="M 121.5,263.5 C 126.353,264.604 131.353,265.604 136.5,266.5C 135.306,267.272 134.306,268.272 133.5,269.5C 127.068,271.537 120.402,272.037 113.5,271C 116.353,269.47 117.02,267.303 115.5,264.5C 117.396,263.534 119.396,263.201 121.5,263.5 Z"/></g>
<g><path style="opacity:1" fill="#493c13" d="M 167.5,270.5 C 160.471,270.377 153.471,270.71 146.5,271.5C 150.203,269.945 154.203,269.278 158.5,269.5C 161.686,269.502 164.686,269.835 167.5,270.5 Z"/></g>
<g><path style="opacity:1" fill="#fdc600" d="M 167.5,270.5 C 167.833,270.5 168.167,270.5 168.5,270.5C 169.568,271.434 170.901,271.768 172.5,271.5C 177.068,284.362 180.901,297.362 184,310.5C 168.64,298.973 153.14,287.64 137.5,276.5C 121.86,287.64 106.36,298.973 91,310.5C 94.3022,297.753 98.1355,285.087 102.5,272.5C 111.839,272.334 121.173,272.5 130.5,273C 132.438,274.872 134.771,275.705 137.5,275.5C 141.174,275.493 144.174,274.16 146.5,271.5C 153.471,270.71 160.471,270.377 167.5,270.5 Z"/></g>
<g><path style="opacity:1" fill="#706a62" d="M 174.5,269.5 C 176.933,270.548 176.933,271.214 174.5,271.5C 173.833,271.5 173.167,271.5 172.5,271.5C 170.901,271.768 169.568,271.434 168.5,270.5C 170.735,270.795 172.735,270.461 174.5,269.5 Z"/></g>
<g><path style="opacity:1" fill="#fffefe" d="M 216.5,314.5 C 357.5,314.5 498.5,314.5 639.5,314.5C 639.5,319.5 639.5,324.5 639.5,329.5C 492.167,329.5 344.833,329.5 197.5,329.5C 203.522,324.15 209.855,319.15 216.5,314.5 Z"/></g>
<g><path style="opacity:1" fill="#ffc900" d="M 197.5,329.5 C 344.833,329.5 492.167,329.5 639.5,329.5C 639.5,379.5 639.5,429.5 639.5,479.5C 426.5,479.5 213.5,479.5 0.5,479.5C 65.6188,428.775 131.285,378.775 197.5,329.5 Z"/></g>
</svg>
