<?xml version="1.0" encoding="UTF-8"?>
<!DOCTYPE svg PUBLIC "-//W3C//DTD SVG 1.1//EN" "http://www.w3.org/Graphics/SVG/1.1/DTD/svg11.dtd">
<svg xmlns="http://www.w3.org/2000/svg" version="1.1" width="640px" height="480px" style="shape-rendering:geometricPrecision; text-rendering:geometricPrecision; image-rendering:optimizeQuality; fill-rule:evenodd; clip-rule:evenodd" xmlns:xlink="http://www.w3.org/1999/xlink">
<g><path style="opacity:1" fill="#fecb00" d="M -0.5,-0.5 C 212.833,-0.5 426.167,-0.5 639.5,-0.5C 639.5,52.8333 639.5,106.167 639.5,159.5C 540.833,159.5 442.167,159.5 343.5,159.5C 335.808,133.399 327.808,107.399 319.5,81.5C 311.192,107.399 303.192,133.399 295.5,159.5C 196.833,159.5 98.1667,159.5 -0.5,159.5C -0.5,106.167 -0.5,52.8333 -0.5,-0.5 Z"/></g>
<g><path style="opacity:1" fill="#fefefe" d="M 343.5,159.5 C 348.298,174.356 352.631,189.356 356.5,204.5C 394.504,204.045 432.504,203.379 470.5,202.5C 475.695,202.179 480.695,202.513 485.5,203.5C 450.547,227.279 415.714,251.279 381,275.5C 385.493,290.183 390.327,304.849 395.5,319.5C 405.19,346.073 414.357,372.74 423,399.5C 388.642,372.975 354.142,346.642 319.5,320.5C 284.858,346.642 250.358,372.975 216,399.5C 224.643,372.74 233.81,346.073 243.5,319.5C 248.673,304.849 253.507,290.183 258,275.5C 223.286,251.279 188.453,227.279 153.5,203.5C 159.31,202.51 165.31,202.177 171.5,202.5C 208.499,203.22 245.499,203.887 282.5,204.5C 286.229,189.315 290.562,174.315 295.5,159.5C 303.192,133.399 311.192,107.399 319.5,81.5C 327.808,107.399 335.808,133.399 343.5,159.5 Z"/></g>
<g><path style="opacity:1" fill="#34b233" d="M -0.5,159.5 C 98.1667,159.5 196.833,159.5 295.5,159.5C 290.562,174.315 286.229,189.315 282.5,204.5C 245.499,203.887 208.499,203.22 171.5,202.5C 165.013,201.346 158.346,201.179 151.5,202C 152.044,202.717 152.711,203.217 153.5,203.5C 188.453,227.279 223.286,251.279 258,275.5C 253.507,290.183 248.673,304.849 243.5,319.5C 162.167,319.5 80.8333,319.5 -0.5,319.5C -0.5,266.167 -0.5,212.833 -0.5,159.5 Z"/></g>
<g><path style="opacity:1" fill="#34b233" d="M 343.5,159.5 C 442.167,159.5 540.833,159.5 639.5,159.5C 639.5,212.833 639.5,266.167 639.5,319.5C 558.167,319.5 476.833,319.5 395.5,319.5C 390.327,304.849 385.493,290.183 381,275.5C 415.714,251.279 450.547,227.279 485.5,203.5C 486.289,203.217 486.956,202.717 487.5,202C 481.651,201.182 475.985,201.348 470.5,202.5C 432.504,203.379 394.504,204.045 356.5,204.5C 352.631,189.356 348.298,174.356 343.5,159.5 Z"/></g>
<g><path style="opacity:1" fill="#94d692" d="M 171.5,202.5 C 165.31,202.177 159.31,202.51 153.5,203.5C 152.711,203.217 152.044,202.717 151.5,202C 158.346,201.179 165.013,201.346 171.5,202.5 Z"/></g>
<g><path style="opacity:1" fill="#a5dca4" d="M 470.5,202.5 C 475.985,201.348 481.651,201.182 487.5,202C 486.956,202.717 486.289,203.217 485.5,203.5C 480.695,202.513 475.695,202.179 470.5,202.5 Z"/></g>
<g><path style="opacity:1" fill="#ea2839" d="M -0.5,319.5 C 80.8333,319.5 162.167,319.5 243.5,319.5C 233.81,346.073 224.643,372.74 216,399.5C 250.358,372.975 284.858,346.642 319.5,320.5C 354.142,346.642 388.642,372.975 423,399.5C 414.357,372.74 405.19,346.073 395.5,319.5C 476.833,319.5 558.167,319.5 639.5,319.5C 639.5,372.833 639.5,426.167 639.5,479.5C 426.167,479.5 212.833,479.5 -0.5,479.5C -0.5,426.167 -0.5,372.833 -0.5,319.5 Z"/></g>
</svg>
