<?xml version="1.0" encoding="UTF-8"?>
<!DOCTYPE svg PUBLIC "-//W3C//DTD SVG 1.1//EN" "http://www.w3.org/Graphics/SVG/1.1/DTD/svg11.dtd">
<svg xmlns="http://www.w3.org/2000/svg" version="1.1" width="640px" height="480px" style="shape-rendering:geometricPrecision; text-rendering:geometricPrecision; image-rendering:optimizeQuality; fill-rule:evenodd; clip-rule:evenodd" xmlns:xlink="http://www.w3.org/1999/xlink">
<g><path style="opacity:1" fill="#3662a2" d="M -0.5,-0.5 C 170.167,-0.5 340.833,-0.5 511.5,-0.5C 341.209,109.652 170.543,219.318 -0.5,328.5C -0.5,218.833 -0.5,109.167 -0.5,-0.5 Z"/></g>
<g><path style="opacity:1" fill="#fdfcfc" d="M 511.5,-0.5 C 554.167,-0.5 596.833,-0.5 639.5,-0.5C 639.5,-0.166667 639.5,0.166667 639.5,0.5C 607.746,0.0149135 576.079,0.514914 544.5,2C 362.805,119.511 181.138,237.011 -0.5,354.5C -0.5,345.833 -0.5,337.167 -0.5,328.5C 170.543,219.318 341.209,109.652 511.5,-0.5 Z"/></g>
<g><path style="opacity:1" fill="#c70000" d="M 639.5,0.5 C 639.5,37.8333 639.5,75.1667 639.5,112.5C 456.641,234.093 274.308,356.426 92.5,479.5C 61.5,479.5 30.5,479.5 -0.5,479.5C -0.5,437.833 -0.5,396.167 -0.5,354.5C 181.138,237.011 362.805,119.511 544.5,2C 576.079,0.514914 607.746,0.0149135 639.5,0.5 Z"/></g>
<g><path style="opacity:1" fill="#637c82" d="M 218.5,53.5 C 218.56,52.9569 218.893,52.6236 219.5,52.5C 220.818,59.3222 220.818,65.9888 219.5,72.5C 219.823,65.9779 219.49,59.6446 218.5,53.5 Z"/></g>
<g><path style="opacity:1" fill="#f6e112" d="M 218.5,53.5 C 219.49,59.6446 219.823,65.9779 219.5,72.5C 219.5,74.1667 219.5,75.8333 219.5,77.5C 227.86,77.1688 236.193,77.5021 244.5,78.5C 240.367,85.2673 236.367,92.1007 232.5,99C 238.908,104.05 245.908,108.384 253.5,112C 246.167,116.333 238.833,120.667 231.5,125C 235.833,132 240.167,139 244.5,146C 236.173,146.5 227.84,146.666 219.5,146.5C 218.833,154.5 218.167,162.5 217.5,170.5C 210.861,166.511 204.194,162.511 197.5,158.5C 193.08,165.671 188.914,173.004 185,180.5C 180.667,173.167 176.333,165.833 172,158.5C 165.297,162.699 158.463,166.699 151.5,170.5C 150.502,162.528 150.169,154.528 150.5,146.5C 142.5,145.833 134.5,145.167 126.5,144.5C 130.489,137.861 134.489,131.194 138.5,124.5C 131.332,120.417 124.332,116.084 117.5,111.5C 124.704,107.403 131.704,103.07 138.5,98.5C 134.374,91.7488 130.374,84.9155 126.5,78C 134.827,77.5003 143.16,77.3336 151.5,77.5C 151.334,69.16 151.5,60.8267 152,52.5C 159,56.8333 166,61.1667 173,65.5C 177.333,58.1667 181.667,50.8333 186,43.5C 189.914,50.9958 194.08,58.3291 198.5,65.5C 205.194,61.4887 211.861,57.4887 218.5,53.5 Z"/></g>
<g><path style="opacity:1" fill="#3b649f" d="M 178.5,65.5 C 205.4,64.6856 222.9,77.019 231,102.5C 233.907,130.872 221.74,149.038 194.5,157C 163.828,159.976 145.328,146.476 139,116.5C 137.872,96.2526 146.038,81.0859 163.5,71C 168.447,68.6923 173.447,66.859 178.5,65.5 Z"/></g>
<g><path style="opacity:1" fill="#fce505" d="M 177.5,75.5 C 208.475,74.641 222.975,89.641 221,120.5C 212.984,142.426 197.484,151.259 174.5,147C 155.957,139.427 147.457,125.593 149,105.5C 152.918,90.0849 162.418,80.0849 177.5,75.5 Z"/></g>
<g><path style="opacity:1" fill="#fdfcfc" d="M 639.5,112.5 C 639.5,120.5 639.5,128.5 639.5,136.5C 467.662,249.918 295.995,363.585 124.5,477.5C 123.5,477.833 122.833,478.5 122.5,479.5C 112.5,479.5 102.5,479.5 92.5,479.5C 274.308,356.426 456.641,234.093 639.5,112.5 Z"/></g>
<g><path style="opacity:1" fill="#38a100" d="M 639.5,136.5 C 639.5,250.5 639.5,364.5 639.5,478.5C 467.666,478.833 295.999,478.5 124.5,477.5C 295.995,363.585 467.662,249.918 639.5,136.5 Z"/></g>
<g><path style="opacity:1" fill="#6f8774" d="M 126.5,144.5 C 134.5,145.167 142.5,145.833 150.5,146.5C 142.14,146.831 133.807,146.498 125.5,145.5C 125.624,144.893 125.957,144.56 126.5,144.5 Z"/></g>
<g><path style="opacity:1" fill="#9ba450" d="M 219.5,146.5 C 219.831,154.86 219.498,163.193 218.5,171.5C 217.893,171.376 217.56,171.043 217.5,170.5C 218.167,162.5 218.833,154.5 219.5,146.5 Z"/></g>
<g><path style="opacity:1" fill="#70bb48" d="M 124.5,477.5 C 295.999,478.5 467.666,478.833 639.5,478.5C 639.5,478.833 639.5,479.167 639.5,479.5C 467.167,479.5 294.833,479.5 122.5,479.5C 122.833,478.5 123.5,477.833 124.5,477.5 Z"/></g>
</svg>
