<?xml version="1.0" encoding="UTF-8"?>
<!DOCTYPE svg PUBLIC "-//W3C//DTD SVG 1.1//EN" "http://www.w3.org/Graphics/SVG/1.1/DTD/svg11.dtd">
<svg xmlns="http://www.w3.org/2000/svg" version="1.1" width="640px" height="480px" style="shape-rendering:geometricPrecision; text-rendering:geometricPrecision; image-rendering:optimizeQuality; fill-rule:evenodd; clip-rule:evenodd" xmlns:xlink="http://www.w3.org/1999/xlink">
<g><path style="opacity:1" fill="#002070" d="M -0.5,-0.5 C 212.833,-0.5 426.167,-0.5 639.5,-0.5C 639.5,72.5 639.5,145.5 639.5,218.5C 426.167,218.5 212.833,218.5 -0.5,218.5C -0.5,145.5 -0.5,72.5 -0.5,-0.5 Z"/></g>
<g><path style="opacity:1" fill="#f9ae12" d="M -0.5,218.5 C 212.833,218.5 426.167,218.5 639.5,218.5C 639.5,232.5 639.5,246.5 639.5,260.5C 479.833,260.5 320.167,260.5 160.5,260.5C 159.778,260.082 159.278,259.416 159,258.5C 158.536,259.094 158.369,259.761 158.5,260.5C 105.5,260.5 52.5,260.5 -0.5,260.5C -0.5,246.5 -0.5,232.5 -0.5,218.5 Z"/></g>
<g><path style="opacity:1" fill="#002170" d="M -0.5,260.5 C 52.5,260.5 105.5,260.5 158.5,260.5C 155.149,273.749 151.982,287.082 149,300.5C 138.988,289.971 128.822,280.304 118.5,271.5C 123.275,284.27 127.275,297.27 130.5,310.5C 117.453,307.423 104.453,304.09 91.5,300.5C 91.1667,300.833 90.8333,301.167 90.5,301.5C 100.015,310.849 109.682,320.016 119.5,329C 106.304,333.301 92.9706,337.301 79.5,341C 93.1334,344.561 106.8,348.061 120.5,351.5C 111.167,361.5 101.5,371.167 91.5,380.5C 91.8333,380.833 92.1667,381.167 92.5,381.5C 105.381,377.095 118.381,373.095 131.5,369.5C 127.69,382.738 124.523,396.071 122,409.5C 131.563,400.025 140.897,390.359 150,380.5C 154.155,393.454 158.155,406.454 162,419.5C 165.339,406.096 168.673,392.762 172,379.5C 182,389.5 192,399.5 202,409.5C 198.18,395.888 194.513,382.221 191,368.5C 204.485,372.261 217.985,375.761 231.5,379C 221.167,369.333 210.833,359.667 200.5,350C 213.377,346.031 226.377,342.531 239.5,339.5C 242.167,338.833 242.167,338.167 239.5,337.5C 226.455,334.655 213.455,331.655 200.5,328.5C 209.986,318.514 219.652,308.681 229.5,299C 216.582,301.856 203.749,305.356 191,309.5C 190.5,309.167 190,308.833 189.5,308.5C 193.471,295.619 196.637,282.619 199,269.5C 189.667,279.5 180.333,289.5 171,299.5C 167.031,286.623 163.531,273.623 160.5,260.5C 320.167,260.5 479.833,260.5 639.5,260.5C 639.5,333.5 639.5,406.5 639.5,479.5C 426.167,479.5 212.833,479.5 -0.5,479.5C -0.5,406.5 -0.5,333.5 -0.5,260.5 Z"/></g>
<g><path style="opacity:1" fill="#fbfbfd" d="M 160.5,260.5 C 163.531,273.623 167.031,286.623 171,299.5C 180.333,289.5 189.667,279.5 199,269.5C 196.637,282.619 193.471,295.619 189.5,308.5C 190,308.833 190.5,309.167 191,309.5C 203.749,305.356 216.582,301.856 229.5,299C 219.652,308.681 209.986,318.514 200.5,328.5C 213.455,331.655 226.455,334.655 239.5,337.5C 239.5,338.167 239.5,338.833 239.5,339.5C 226.377,342.531 213.377,346.031 200.5,350C 210.833,359.667 221.167,369.333 231.5,379C 217.985,375.761 204.485,372.261 191,368.5C 194.513,382.221 198.18,395.888 202,409.5C 192,399.5 182,389.5 172,379.5C 168.673,392.762 165.339,406.096 162,419.5C 158.155,406.454 154.155,393.454 150,380.5C 140.897,390.359 131.563,400.025 122,409.5C 124.523,396.071 127.69,382.738 131.5,369.5C 118.381,373.095 105.381,377.095 92.5,381.5C 92.1667,381.167 91.8333,380.833 91.5,380.5C 101.5,371.167 111.167,361.5 120.5,351.5C 106.8,348.061 93.1334,344.561 79.5,341C 92.9706,337.301 106.304,333.301 119.5,329C 109.682,320.016 100.015,310.849 90.5,301.5C 90.8333,301.167 91.1667,300.833 91.5,300.5C 104.453,304.09 117.453,307.423 130.5,310.5C 127.275,297.27 123.275,284.27 118.5,271.5C 128.822,280.304 138.988,289.971 149,300.5C 151.982,287.082 155.149,273.749 158.5,260.5C 158.369,259.761 158.536,259.094 159,258.5C 159.278,259.416 159.778,260.082 160.5,260.5 Z"/></g>
<g><path style="opacity:1" fill="#7687b2" d="M 239.5,337.5 C 242.167,338.167 242.167,338.833 239.5,339.5C 239.5,338.833 239.5,338.167 239.5,337.5 Z"/></g>
</svg>
