<?xml version="1.0" encoding="UTF-8"?>
<!DOCTYPE svg PUBLIC "-//W3C//DTD SVG 1.1//EN" "http://www.w3.org/Graphics/SVG/1.1/DTD/svg11.dtd">
<svg xmlns="http://www.w3.org/2000/svg" version="1.1" width="640px" height="480px" style="shape-rendering:geometricPrecision; text-rendering:geometricPrecision; image-rendering:optimizeQuality; fill-rule:evenodd; clip-rule:evenodd" xmlns:xlink="http://www.w3.org/1999/xlink">
<g><path style="opacity:0.987" fill="#070061" d="M -0.5,-0.5 C 3.16667,-0.5 6.83333,-0.5 10.5,-0.5C 137.599,81.2252 264.932,162.725 392.5,244C 310.167,244.333 227.833,244.667 145.5,245C 222.34,323.34 299.34,401.507 376.5,479.5C 252.833,479.5 129.167,479.5 5.5,479.5C 5.5,477.5 5.5,475.5 5.5,473.5C 3.5,473.5 1.5,473.5 -0.5,473.5C -0.5,315.5 -0.5,157.5 -0.5,-0.5 Z"/></g>
<g><path style="opacity:1" fill="#470040" d="M 13.5,18.5 C 12.5004,167.666 12.167,316.999 12.5,466.5C 11.1674,316.999 11.1674,167.333 12.5,17.5C 13.1067,17.6236 13.44,17.9569 13.5,18.5 Z"/></g>
<g><path style="opacity:1" fill="#cd0100" d="M 13.5,18.5 C 124.616,89.1096 235.616,159.943 346.5,231C 268.833,231.333 191.167,231.667 113.5,232C 190.138,310.305 267.138,388.305 344.5,466C 233.834,466.5 123.167,466.667 12.5,466.5C 12.167,316.999 12.5004,167.666 13.5,18.5 Z"/></g>
<g><path style="opacity:1" fill="#fefcfc" d="M 119.5,153.5 C 118.532,155.607 118.198,157.941 118.5,160.5C 119.791,160.737 120.791,160.404 121.5,159.5C 124.85,159.335 128.183,159.502 131.5,160C 129.5,163.667 127.5,167.333 125.5,171C 129.762,172.532 134.095,173.865 138.5,175C 135.308,177.692 131.975,180.192 128.5,182.5C 129.54,184.375 131.04,185.708 133,186.5C 141.941,181.226 149.275,174.226 155,165.5C 157.112,162.273 158.945,158.94 160.5,155.5C 161.451,156.919 161.784,158.585 161.5,160.5C 152.164,203.647 125.498,222.481 81.5,217C 50.1458,207.319 33.3125,186.152 31,153.5C 37.1489,167.801 46.9823,178.801 60.5,186.5C 62.1667,185.5 63.5,184.167 64.5,182.5C 61.4744,179.805 58.4744,177.138 55.5,174.5C 59.5,173.167 63.5,171.833 67.5,170.5C 65.5,167.167 63.5,163.833 61.5,160.5C 63.7427,159.526 66.076,159.192 68.5,159.5C 70.2646,160.461 72.2646,160.795 74.5,160.5C 74.7947,158.265 74.4614,156.265 73.5,154.5C 73.3367,152.143 73.5034,149.81 74,147.5C 77.3333,149.5 80.6667,151.5 84,153.5C 85.5021,149.484 87.0021,145.484 88.5,141.5C 91.1954,144.526 93.8621,147.526 96.5,150.5C 99.5272,148.14 102.194,145.473 104.5,142.5C 106.167,146.5 107.833,150.5 109.5,154.5C 112.756,152.289 115.922,149.955 119,147.5C 119.495,149.473 119.662,151.473 119.5,153.5 Z"/></g>
<g><path style="opacity:1" fill="#e57675" d="M 161.5,160.5 C 161.784,158.585 161.451,156.919 160.5,155.5C 160.783,154.711 161.283,154.044 162,153.5C 162.796,156.039 162.629,158.372 161.5,160.5 Z"/></g>
<g><path style="opacity:1" fill="#e46e6b" d="M 119.5,153.5 C 119.025,156.082 119.692,158.082 121.5,159.5C 120.791,160.404 119.791,160.737 118.5,160.5C 118.198,157.941 118.532,155.607 119.5,153.5 Z"/></g>
<g><path style="opacity:1" fill="#e4706f" d="M 73.5,154.5 C 74.4614,156.265 74.7947,158.265 74.5,160.5C 72.2646,160.795 70.2646,160.461 68.5,159.5C 70.1667,159.5 71.8333,159.5 73.5,159.5C 73.5,157.833 73.5,156.167 73.5,154.5 Z"/></g>
<g><path style="opacity:1" fill="#fefcfc" d="M 125.5,387.5 C 125.44,386.957 125.107,386.624 124.5,386.5C 123.502,394.807 123.169,403.14 123.5,411.5C 118.016,405.908 112.516,400.242 107,394.5C 103.512,402.145 100.012,409.811 96.5,417.5C 93.7618,409.697 90.7618,402.03 87.5,394.5C 82.1937,400.473 76.5271,406.14 70.5,411.5C 69.8387,403.476 69.5054,395.476 69.5,387.5C 61.6959,391.584 53.6959,394.75 45.5,397C 49.2944,389.911 52.961,382.745 56.5,375.5C 48.1866,374.668 39.8532,374.168 31.5,374C 37.5,368.667 43.5,363.333 49.5,358C 41.466,354.658 33.466,351.325 25.5,348C 33.3582,345.383 41.0249,342.383 48.5,339C 42.8021,332.968 36.8021,327.301 30.5,322C 38.816,322.123 47.1493,322.29 55.5,322.5C 52.8655,314.394 49.5321,306.561 45.5,299C 53.2924,301.891 60.9591,305.391 68.5,309.5C 69.4841,306.572 69.8174,303.572 69.5,300.5C 69.1786,294.974 69.5119,289.64 70.5,284.5C 75.6038,290.367 80.9371,296.034 86.5,301.5C 89.8333,293.833 93.1667,286.167 96.5,278.5C 99.696,286.088 102.696,293.754 105.5,301.5C 111.485,296.015 117.319,290.348 123,284.5C 123.094,292.54 123.261,300.54 123.5,308.5C 131.47,304.632 139.47,301.632 147.5,299.5C 143.578,306.342 139.912,313.342 136.5,320.5C 145.148,321.332 153.814,321.832 162.5,322C 155.981,327.096 149.648,332.429 143.5,338C 151.754,341.529 160.087,344.862 168.5,348C 160.377,350.541 152.377,353.374 144.5,356.5C 150.017,362.851 156.017,368.684 162.5,374C 154.144,374.665 145.811,374.499 137.5,373.5C 140.147,381.601 143.48,389.434 147.5,397C 140.14,394.16 132.807,390.993 125.5,387.5 Z"/></g>
<g><path style="opacity:1" fill="#df5756" d="M 70.5,284.5 C 69.5119,289.64 69.1786,294.974 69.5,300.5C 68.1843,294.987 68.1843,289.32 69.5,283.5C 70.1067,283.624 70.44,283.957 70.5,284.5 Z"/></g>
<g><path style="opacity:1" fill="#eb9594" d="M 125.5,387.5 C 124.862,396.072 124.195,404.072 123.5,411.5C 123.169,403.14 123.502,394.807 124.5,386.5C 125.107,386.624 125.44,386.957 125.5,387.5 Z"/></g>
</svg>
