<?xml version="1.0" encoding="UTF-8"?>
<!DOCTYPE svg PUBLIC "-//W3C//DTD SVG 1.1//EN" "http://www.w3.org/Graphics/SVG/1.1/DTD/svg11.dtd">
<svg xmlns="http://www.w3.org/2000/svg" version="1.1" width="640px" height="480px" style="shape-rendering:geometricPrecision; text-rendering:geometricPrecision; image-rendering:optimizeQuality; fill-rule:evenodd; clip-rule:evenodd" xmlns:xlink="http://www.w3.org/1999/xlink">
<g><path style="opacity:1" fill="#0034ac" d="M -0.5,-0.5 C 212.833,-0.5 426.167,-0.5 639.5,-0.5C 639.5,52.8333 639.5,106.167 639.5,159.5C 552.5,159.5 465.5,159.5 378.5,159.5C 342.674,103.749 291.341,77.2491 224.5,80C 170.468,87.1557 129.135,113.656 100.5,159.5C 66.8333,159.5 33.1667,159.5 -0.5,159.5C -0.5,106.167 -0.5,52.8333 -0.5,-0.5 Z"/></g>
<g><path style="opacity:1" fill="#050401" d="M 378.5,159.5 C 406.342,212.723 406.342,266.056 378.5,319.5C 335.315,384.974 274.982,409.807 197.5,394C 155.452,381.661 123.119,356.828 100.5,319.5C 72.6623,266.111 72.6623,212.777 100.5,159.5C 129.135,113.656 170.468,87.1557 224.5,80C 291.341,77.2491 342.674,103.749 378.5,159.5 Z"/></g>
<g><path style="opacity:1" fill="#f8e400" d="M 228.5,85.5 C 230.833,85.5 233.167,85.5 235.5,85.5C 235.5,96.8333 235.5,108.167 235.5,119.5C 229.596,121.701 224.43,125.035 220,129.5C 217.792,133.884 216.959,138.551 217.5,143.5C 216.2,146.024 216.2,148.691 217.5,151.5C 218.107,151.376 218.44,151.043 218.5,150.5C 223.902,147.467 229.568,144.8 235.5,142.5C 236.833,148.167 236.833,153.833 235.5,159.5C 218.319,166.527 214.153,178.193 223,194.5C 226.623,198.561 231.123,200.895 236.5,201.5C 236.5,203.167 236.5,204.833 236.5,206.5C 230.886,206.351 225.886,204.518 221.5,201C 216.284,192.066 210.451,183.566 204,175.5C 206.344,183.911 207.678,192.578 208,201.5C 211.276,211.233 218.109,216.233 228.5,216.5C 230.698,217.165 233.031,217.832 235.5,218.5C 227.677,219.167 220.01,219.833 212.5,220.5C 212.5,222.5 212.5,224.5 212.5,226.5C 220.01,227.167 227.677,227.833 235.5,228.5C 234.757,229.182 234.091,229.849 233.5,230.5C 228.106,231.114 223.606,233.447 220,237.5C 217.3,243.267 218.467,248.1 223.5,252C 227.355,254.808 231.688,256.308 236.5,256.5C 236.5,257.5 236.5,258.5 236.5,259.5C 228.5,259.5 220.5,259.5 212.5,259.5C 212.5,261.833 212.5,264.167 212.5,266.5C 220.5,266.5 228.5,266.5 236.5,266.5C 236.5,267.5 236.5,268.5 236.5,269.5C 227.018,269.048 218.852,272.048 212,278.5C 211,280.5 210,282.5 209,284.5C 207.497,298.657 205.497,312.657 203,326.5C 209.114,316.606 214.448,306.272 219,295.5C 223.536,289.655 229.37,285.988 236.5,284.5C 236.5,285.5 236.5,286.5 236.5,287.5C 231.742,288.414 228.242,291.081 226,295.5C 221.679,305.651 221.345,315.984 225,326.5C 227.333,331.5 231,335.167 236,337.5C 236.497,339.81 236.663,342.143 236.5,344.5C 227.257,344.448 218.59,346.614 210.5,351C 199.538,361.058 188.704,371.225 178,381.5C 118.424,352.876 87.257,305.376 84.5,239C 87.8801,172.988 119.213,125.655 178.5,97C 194.463,90.0087 211.13,86.1754 228.5,85.5 Z"/></g>
<g><path style="opacity:1" fill="#b8a900" d="M 228.5,85.5 C 230.948,84.5269 233.615,84.1936 236.5,84.5C 236.828,96.3453 236.495,108.012 235.5,119.5C 235.5,108.167 235.5,96.8333 235.5,85.5C 233.167,85.5 230.833,85.5 228.5,85.5 Z"/></g>
<g><path style="opacity:1" fill="#b5a700" d="M 250.5,85.5 C 248.167,85.5 245.833,85.5 243.5,85.5C 243.5,95.5 243.5,105.5 243.5,115.5C 242.501,105.917 242.168,95.5834 242.5,84.5C 245.385,84.1936 248.052,84.5269 250.5,85.5 Z"/></g>
<g><path style="opacity:1" fill="#f8e400" d="M 250.5,85.5 C 314.073,92.2462 358.573,124.913 384,183.5C 403.296,240.846 394.296,293.179 357,340.5C 340.552,358.802 321.052,372.802 298.5,382.5C 287.318,371.484 275.985,360.651 264.5,350C 257.435,347.087 250.102,345.254 242.5,344.5C 242.5,341.833 242.5,339.167 242.5,336.5C 247.258,335.586 250.758,332.919 253,328.5C 257.593,317.46 257.593,306.46 253,295.5C 250.758,291.081 247.258,288.414 242.5,287.5C 242.5,286.5 242.5,285.5 242.5,284.5C 249.63,285.988 255.464,289.655 260,295.5C 264.806,306.446 270.139,317.112 276,327.5C 273.729,313.266 271.729,298.933 270,284.5C 268.212,279.08 264.712,275.247 259.5,273C 254.008,270.974 248.341,269.807 242.5,269.5C 242.5,268.5 242.5,267.5 242.5,266.5C 250.5,266.5 258.5,266.5 266.5,266.5C 266.5,264.167 266.5,261.833 266.5,259.5C 258.5,259.5 250.5,259.5 242.5,259.5C 242.281,258.325 242.614,257.325 243.5,256.5C 249.567,255.55 254.734,252.883 259,248.5C 261.504,243.354 260.671,238.854 256.5,235C 253.381,233.016 250.048,231.516 246.5,230.5C 245.602,229.842 244.602,229.176 243.5,228.5C 251.138,227.503 258.804,227.169 266.5,227.5C 266.5,224.833 266.5,222.167 266.5,219.5C 258.804,219.831 251.138,219.497 243.5,218.5C 245.631,217.831 247.631,217.165 249.5,216.5C 260.324,216.521 267.491,211.521 271,201.5C 271.322,192.578 272.656,183.911 275,175.5C 268.549,183.566 262.716,192.066 257.5,201C 253.121,204.512 248.121,206.345 242.5,206.5C 242.5,204.833 242.5,203.167 242.5,201.5C 256.481,197.984 262.315,188.984 260,174.5C 256.926,166.248 251.093,161.581 242.5,160.5C 242.169,152.472 242.502,144.472 243.5,136.5C 254.044,127.626 261.377,116.626 265.5,103.5C 265.333,102.833 265.167,102.167 265,101.5C 258.885,107.806 251.719,112.472 243.5,115.5C 243.5,105.5 243.5,95.5 243.5,85.5C 245.833,85.5 248.167,85.5 250.5,85.5 Z"/></g>
<g><path style="opacity:1" fill="#554e00" d="M 217.5,143.5 C 217.198,146.059 217.532,148.393 218.5,150.5C 218.44,151.043 218.107,151.376 217.5,151.5C 216.2,148.691 216.2,146.024 217.5,143.5 Z"/></g>
<g><path style="opacity:1" fill="#ec4034" d="M -0.5,159.5 C 33.1667,159.5 66.8333,159.5 100.5,159.5C 72.6623,212.777 72.6623,266.111 100.5,319.5C 66.8333,319.5 33.1667,319.5 -0.5,319.5C -0.5,266.167 -0.5,212.833 -0.5,159.5 Z"/></g>
<g><path style="opacity:1" fill="#ec4034" d="M 378.5,159.5 C 465.5,159.5 552.5,159.5 639.5,159.5C 639.5,212.833 639.5,266.167 639.5,319.5C 552.5,319.5 465.5,319.5 378.5,319.5C 406.342,266.056 406.342,212.723 378.5,159.5 Z"/></g>
<g><path style="opacity:1" fill="#baab00" d="M 228.5,216.5 C 231.167,216.5 233.833,216.5 236.5,216.5C 236.5,217.833 236.5,219.167 236.5,220.5C 228.5,220.5 220.5,220.5 212.5,220.5C 220.01,219.833 227.677,219.167 235.5,218.5C 233.031,217.832 230.698,217.165 228.5,216.5 Z"/></g>
<g><path style="opacity:1" fill="#c0b100" d="M 212.5,226.5 C 220.5,226.5 228.5,226.5 236.5,226.5C 236.5,227.833 236.5,229.167 236.5,230.5C 235.5,230.5 234.5,230.5 233.5,230.5C 234.091,229.849 234.757,229.182 235.5,228.5C 227.677,227.833 220.01,227.167 212.5,226.5 Z"/></g>
<g><path style="opacity:1" fill="#bbac00" d="M 249.5,216.5 C 247.631,217.165 245.631,217.831 243.5,218.5C 251.138,219.497 258.804,219.831 266.5,219.5C 266.5,222.167 266.5,224.833 266.5,227.5C 258.804,227.169 251.138,227.503 243.5,228.5C 244.602,229.176 245.602,229.842 246.5,230.5C 245.167,230.5 243.833,230.5 242.5,230.5C 242.5,229.167 242.5,227.833 242.5,226.5C 250.167,226.5 257.833,226.5 265.5,226.5C 265.5,224.5 265.5,222.5 265.5,220.5C 257.833,220.5 250.167,220.5 242.5,220.5C 242.5,219.167 242.5,217.833 242.5,216.5C 244.833,216.5 247.167,216.5 249.5,216.5 Z"/></g>
<g><path style="opacity:1" fill="#4c4600" d="M 236.5,259.5 C 229.018,260.492 221.352,260.825 213.5,260.5C 213.5,262.167 213.5,263.833 213.5,265.5C 221.352,265.175 229.018,265.508 236.5,266.5C 228.5,266.5 220.5,266.5 212.5,266.5C 212.5,264.167 212.5,261.833 212.5,259.5C 220.5,259.5 228.5,259.5 236.5,259.5 Z"/></g>
<g><path style="opacity:1" fill="#4e4800" d="M 242.5,259.5 C 250.5,259.5 258.5,259.5 266.5,259.5C 266.5,261.833 266.5,264.167 266.5,266.5C 258.5,266.5 250.5,266.5 242.5,266.5C 249.982,265.508 257.648,265.175 265.5,265.5C 265.5,263.833 265.5,262.167 265.5,260.5C 257.648,260.825 249.982,260.492 242.5,259.5 Z"/></g>
<g><path style="opacity:1" fill="#009442" d="M -0.5,319.5 C 33.1667,319.5 66.8333,319.5 100.5,319.5C 123.119,356.828 155.452,381.661 197.5,394C 274.982,409.807 335.315,384.974 378.5,319.5C 465.5,319.5 552.5,319.5 639.5,319.5C 639.5,372.833 639.5,426.167 639.5,479.5C 426.167,479.5 212.833,479.5 -0.5,479.5C -0.5,426.167 -0.5,372.833 -0.5,319.5 Z"/></g>
</svg>
