<?xml version="1.0" encoding="UTF-8"?>
<!DOCTYPE svg PUBLIC "-//W3C//DTD SVG 1.1//EN" "http://www.w3.org/Graphics/SVG/1.1/DTD/svg11.dtd">
<svg xmlns="http://www.w3.org/2000/svg" version="1.1" width="640px" height="480px" style="shape-rendering:geometricPrecision; text-rendering:geometricPrecision; image-rendering:optimizeQuality; fill-rule:evenodd; clip-rule:evenodd" xmlns:xlink="http://www.w3.org/1999/xlink">
<g><path style="opacity:1" fill="#fcfcfd" d="M 0.5,-0.5 C 12.8333,-0.5 25.1667,-0.5 37.5,-0.5C 64.688,19.6909 91.8547,40.0243 119,60.5C 119.5,40.1694 119.667,19.8361 119.5,-0.5C 124.833,-0.5 130.167,-0.5 135.5,-0.5C 135.5,31.5 135.5,63.5 135.5,95.5C 90.1667,95.5 44.8333,95.5 -0.5,95.5C -0.5,90.1667 -0.5,84.8333 -0.5,79.5C 20.8359,79.6666 42.1693,79.5 63.5,79C 42.2892,62.9495 20.9559,47.1161 -0.5,31.5C -0.5,27.8333 -0.5,24.1667 -0.5,20.5C 25.3401,40.168 51.3401,59.668 77.5,79C 87.5,79.6667 97.5,79.6667 107.5,79C 71.6502,52.6367 35.9835,26.1367 0.5,-0.5 Z"/></g>
<g><path style="opacity:1" fill="#022169" d="M 37.5,-0.5 C 64.8333,-0.5 92.1667,-0.5 119.5,-0.5C 119.667,19.8361 119.5,40.1694 119,60.5C 91.8547,40.0243 64.688,19.6909 37.5,-0.5 Z"/></g>
<g><path style="opacity:1" fill="#c91931" d="M 135.5,-0.5 C 151.833,-0.5 168.167,-0.5 184.5,-0.5C 184.5,31.5 184.5,63.5 184.5,95.5C 229.5,95.5 274.5,95.5 319.5,95.5C 319.5,111.833 319.5,128.167 319.5,144.5C 274.5,144.5 229.5,144.5 184.5,144.5C 184.5,176.167 184.5,207.833 184.5,239.5C 168.167,239.5 151.833,239.5 135.5,239.5C 135.5,207.833 135.5,176.167 135.5,144.5C 90.1667,144.5 44.8333,144.5 -0.5,144.5C -0.5,128.167 -0.5,111.833 -0.5,95.5C 44.8333,95.5 90.1667,95.5 135.5,95.5C 135.5,63.5 135.5,31.5 135.5,-0.5 Z"/></g>
<g><path style="opacity:1" fill="#fcfcfc" d="M 184.5,-0.5 C 189.833,-0.5 195.167,-0.5 200.5,-0.5C 200.333,19.1695 200.5,38.8362 201,58.5C 227.351,38.9699 253.517,19.3033 279.5,-0.5C 284.167,-0.5 288.833,-0.5 293.5,-0.5C 262.312,23.0249 231.145,46.6916 200,70.5C 199.502,73.4816 199.335,76.4816 199.5,79.5C 205.176,79.6661 210.843,79.4994 216.5,79C 250.505,52.6713 284.838,26.838 319.5,1.5C 319.5,11.1667 319.5,20.8333 319.5,30.5C 297.863,46.6576 276.196,62.8243 254.5,79C 276.164,79.5 297.831,79.6666 319.5,79.5C 319.5,84.8333 319.5,90.1667 319.5,95.5C 274.5,95.5 229.5,95.5 184.5,95.5C 184.5,63.5 184.5,31.5 184.5,-0.5 Z"/></g>
<g><path style="opacity:1" fill="#032169" d="M 200.5,-0.5 C 226.833,-0.5 253.167,-0.5 279.5,-0.5C 253.517,19.3033 227.351,38.9699 201,58.5C 200.5,38.8362 200.333,19.1695 200.5,-0.5 Z"/></g>
<g><path style="opacity:1" fill="#c91731" d="M 293.5,-0.5 C 302.167,-0.5 310.833,-0.5 319.5,-0.5C 319.5,0.166667 319.5,0.833333 319.5,1.5C 284.838,26.838 250.505,52.6713 216.5,79C 210.843,79.4994 205.176,79.6661 199.5,79.5C 199.335,76.4816 199.502,73.4816 200,70.5C 231.145,46.6916 262.312,23.0249 293.5,-0.5 Z"/></g>
<g><path style="opacity:1" fill="#00247d" d="M 319.5,-0.5 C 426.167,-0.5 532.833,-0.5 639.5,-0.5C 639.5,159.5 639.5,319.5 639.5,479.5C 426.167,479.5 212.833,479.5 -0.5,479.5C -0.5,399.5 -0.5,319.5 -0.5,239.5C -0.166667,239.5 0.166667,239.5 0.5,239.5C 9.5,239.5 18.5,239.5 27.5,239.5C 31.8333,239.5 36.1667,239.5 40.5,239.5C 66.8333,239.5 93.1667,239.5 119.5,239.5C 124.833,239.5 130.167,239.5 135.5,239.5C 151.833,239.5 168.167,239.5 184.5,239.5C 189.5,239.5 194.5,239.5 199.5,239.5C 199.833,239.5 200.167,239.5 200.5,239.5C 226.5,239.5 252.5,239.5 278.5,239.5C 291.833,239.5 305.167,239.5 318.5,239.5C 319.491,233.021 319.824,226.354 319.5,219.5C 319.5,215.833 319.5,212.167 319.5,208.5C 319.5,192.167 319.5,175.833 319.5,159.5C 319.5,154.5 319.5,149.5 319.5,144.5C 319.5,128.167 319.5,111.833 319.5,95.5C 319.5,90.1667 319.5,84.8333 319.5,79.5C 319.5,63.1667 319.5,46.8333 319.5,30.5C 319.5,20.8333 319.5,11.1667 319.5,1.5C 319.5,0.833333 319.5,0.166667 319.5,-0.5 Z"/></g>
<g><path style="opacity:1" fill="#c91731" d="M -0.5,-0.5 C -0.166667,-0.5 0.166667,-0.5 0.5,-0.5C 35.9835,26.1367 71.6502,52.6367 107.5,79C 97.5,79.6667 87.5,79.6667 77.5,79C 51.3401,59.668 25.3401,40.168 -0.5,20.5C -0.5,13.5 -0.5,6.5 -0.5,-0.5 Z"/></g>
<g><path style="opacity:1" fill="#032269" d="M 319.5,30.5 C 319.5,46.8333 319.5,63.1667 319.5,79.5C 297.831,79.6666 276.164,79.5 254.5,79C 276.196,62.8243 297.863,46.6576 319.5,30.5 Z"/></g>
<g><path style="opacity:1" fill="#032269" d="M -0.5,31.5 C 20.9559,47.1161 42.2892,62.9495 63.5,79C 42.1693,79.5 20.8359,79.6666 -0.5,79.5C -0.5,63.5 -0.5,47.5 -0.5,31.5 Z"/></g>
<g><path style="opacity:1" fill="#efedf3" d="M 489.5,84.5 C 490.117,84.6107 490.617,84.944 491,85.5C 492.866,92.2653 495.033,98.9319 497.5,105.5C 504.811,106.331 512.144,106.831 519.5,107C 513.403,110.799 507.569,114.965 502,119.5C 503.07,126.762 505.236,133.762 508.5,140.5C 508.167,140.833 507.833,141.167 507.5,141.5C 501.917,136.796 496.083,132.462 490,128.5C 483.917,132.462 478.083,136.796 472.5,141.5C 472.167,141.167 471.833,140.833 471.5,140.5C 474.602,133.701 476.768,126.701 478,119.5C 472.079,115.456 466.245,111.289 460.5,107C 468.159,106.5 475.826,106.334 483.5,106.5C 485.703,99.2239 487.703,91.8906 489.5,84.5 Z"/></g>
<g><path style="opacity:1" fill="#ce2333" d="M 489.5,95.5 C 491.921,99.7547 493.588,104.421 494.5,109.5C 499.511,109.334 504.511,109.501 509.5,110C 505.044,112.626 501.044,115.793 497.5,119.5C 499.156,123.799 500.323,128.133 501,132.5C 497.603,129.432 493.936,126.765 490,124.5C 486.232,126.597 482.732,129.097 479.5,132C 478.833,132.667 478.167,132.667 477.5,132C 479.456,127.97 481.122,123.803 482.5,119.5C 478.956,115.793 474.956,112.626 470.5,110C 475.533,109.829 480.533,109.329 485.5,108.5C 487.242,104.275 488.576,99.9413 489.5,95.5 Z"/></g>
<g><path style="opacity:1" fill="#fcfcfc" d="M -0.5,144.5 C 44.8333,144.5 90.1667,144.5 135.5,144.5C 135.5,176.167 135.5,207.833 135.5,239.5C 130.167,239.5 124.833,239.5 119.5,239.5C 119.667,219.831 119.5,200.164 119,180.5C 92.6495,200.03 66.4828,219.697 40.5,239.5C 36.1667,239.5 31.8333,239.5 27.5,239.5C 57.699,215.813 88.3657,192.646 119.5,170C 120.456,166.606 120.789,163.106 120.5,159.5C 115.041,159.103 109.708,159.603 104.5,161C 69.6492,187.03 34.9826,213.197 0.5,239.5C 0.166667,239.5 -0.166667,239.5 -0.5,239.5C -0.5,229.5 -0.5,219.5 -0.5,209.5C 21.623,193.217 43.623,176.717 65.5,160C 43.5025,159.5 21.5025,159.333 -0.5,159.5C -0.5,154.5 -0.5,149.5 -0.5,144.5 Z"/></g>
<g><path style="opacity:1" fill="#fdfdfd" d="M 319.5,144.5 C 319.5,149.5 319.5,154.5 319.5,159.5C 297.497,159.333 275.497,159.5 253.5,160C 275.352,176.42 297.352,192.587 319.5,208.5C 319.5,212.167 319.5,215.833 319.5,219.5C 293.044,200.217 266.711,180.717 240.5,161C 230.934,159.387 221.267,159.053 211.5,160C 247.35,186.363 283.016,212.863 318.5,239.5C 305.167,239.5 291.833,239.5 278.5,239.5C 253.051,219.935 227.384,200.602 201.5,181.5C 201.44,180.957 201.107,180.624 200.5,180.5C 199.5,200.155 199.167,219.822 199.5,239.5C 194.5,239.5 189.5,239.5 184.5,239.5C 184.5,207.833 184.5,176.167 184.5,144.5C 229.5,144.5 274.5,144.5 319.5,144.5 Z"/></g>
<g><path style="opacity:1" fill="#f0edf3" d="M 568.5,156.5 C 569.497,156.47 570.164,156.97 570.5,158C 572.107,164.153 574.107,170.153 576.5,176C 582.833,176.333 589.167,176.667 595.5,177C 589.947,180.936 584.613,185.103 579.5,189.5C 581.873,195.443 583.706,201.443 585,207.5C 579.931,203.428 574.598,199.761 569,196.5C 564.011,200.152 559.011,203.819 554,207.5C 555.402,201.286 557.235,195.119 559.5,189C 554.167,185 548.833,181 543.5,177C 550.191,176.831 556.858,176.331 563.5,175.5C 566.198,169.411 567.865,163.078 568.5,156.5 Z"/></g>
<g><path style="opacity:1" fill="#032269" d="M -0.5,159.5 C 21.5025,159.333 43.5025,159.5 65.5,160C 43.623,176.717 21.623,193.217 -0.5,209.5C -0.5,192.833 -0.5,176.167 -0.5,159.5 Z"/></g>
<g><path style="opacity:1" fill="#c91731" d="M 27.5,239.5 C 18.5,239.5 9.5,239.5 0.5,239.5C 34.9826,213.197 69.6492,187.03 104.5,161C 109.708,159.603 115.041,159.103 120.5,159.5C 120.789,163.106 120.456,166.606 119.5,170C 88.3657,192.646 57.699,215.813 27.5,239.5 Z"/></g>
<g><path style="opacity:1" fill="#c91731" d="M 319.5,219.5 C 319.824,226.354 319.491,233.021 318.5,239.5C 283.016,212.863 247.35,186.363 211.5,160C 221.267,159.053 230.934,159.387 240.5,161C 266.711,180.717 293.044,200.217 319.5,219.5 Z"/></g>
<g><path style="opacity:1" fill="#032269" d="M 319.5,159.5 C 319.5,175.833 319.5,192.167 319.5,208.5C 297.352,192.587 275.352,176.42 253.5,160C 275.497,159.5 297.497,159.333 319.5,159.5 Z"/></g>
<g><path style="opacity:1" fill="#cf2534" d="M 569.5,167.5 C 570.8,171.057 572.133,174.724 573.5,178.5C 577.459,179.327 581.459,179.827 585.5,180C 582.135,182.675 578.802,185.342 575.5,188C 576.838,191.35 578.171,194.684 579.5,198C 576.384,196.115 573.05,194.282 569.5,192.5C 566.023,193.742 563.023,195.742 560.5,198.5C 560.666,194.855 561.666,191.188 563.5,187.5C 560.025,185.192 556.692,182.692 553.5,180C 557.821,179.501 562.154,179.334 566.5,179.5C 567.097,175.381 568.097,171.381 569.5,167.5 Z"/></g>
<g><path style="opacity:1" fill="#efeaf0" d="M 373.5,199.5 C 376.314,200.165 379.314,200.498 382.5,200.5C 385.913,200.483 388.913,199.816 391.5,198.5C 393.175,191.642 395.342,184.975 398,178.5C 400.472,185.417 402.639,192.417 404.5,199.5C 412.174,199.334 419.841,199.5 427.5,200C 420.885,204.281 414.552,208.947 408.5,214C 410.915,220.849 413.082,227.683 415,234.5C 409.256,230.045 403.423,225.711 397.5,221.5C 391.693,225.474 386.026,229.64 380.5,234C 379.833,234.667 379.167,234.667 378.5,234C 382.562,227.075 384.562,219.742 384.5,212C 379.009,207.754 373.342,203.754 367.5,200C 369.473,199.505 371.473,199.338 373.5,199.5 Z"/></g>
<g><path style="opacity:1" fill="#7f8fb3" d="M 201.5,181.5 C 200.503,200.659 200.17,219.993 200.5,239.5C 200.167,239.5 199.833,239.5 199.5,239.5C 199.167,219.822 199.5,200.155 200.5,180.5C 201.107,180.624 201.44,180.957 201.5,181.5 Z"/></g>
<g><path style="opacity:1" fill="#022169" d="M 119.5,239.5 C 93.1667,239.5 66.8333,239.5 40.5,239.5C 66.4828,219.697 92.6495,200.03 119,180.5C 119.5,200.164 119.667,219.831 119.5,239.5 Z"/></g>
<g><path style="opacity:1" fill="#032169" d="M 201.5,181.5 C 227.384,200.602 253.051,219.935 278.5,239.5C 252.5,239.5 226.5,239.5 200.5,239.5C 200.17,219.993 200.503,200.659 201.5,181.5 Z"/></g>
<g><path style="opacity:1" fill="#ce2132" d="M 396.5,188.5 C 397.586,188.62 398.253,189.287 398.5,190.5C 399.634,194.568 400.967,198.568 402.5,202.5C 407.489,203.333 412.489,203.5 417.5,203C 413.026,205.973 408.693,209.14 404.5,212.5C 405.941,216.769 407.607,220.936 409.5,225C 409.167,225.167 408.833,225.333 408.5,225.5C 404.833,222.833 401.167,220.167 397.5,217.5C 393.579,220.043 389.746,222.71 386,225.5C 387.307,220.935 388.307,216.268 389,211.5C 385.434,208.301 381.6,205.467 377.5,203C 382.475,203.328 387.475,203.328 392.5,203C 394.749,198.42 396.082,193.586 396.5,188.5 Z"/></g>
<g><path style="opacity:1" fill="#9facce" d="M 391.5,198.5 C 388.913,199.816 385.913,200.483 382.5,200.5C 379.314,200.498 376.314,200.165 373.5,199.5C 379.591,199.789 385.591,199.455 391.5,198.5 Z"/></g>
<g><path style="opacity:1" fill="#f1edf2" d="M 489.5,320.5 C 490.117,320.611 490.617,320.944 491,321.5C 492.997,329.658 495.497,337.658 498.5,345.5C 506.837,346.455 515.171,346.621 523.5,346C 516.196,350.975 509.196,356.308 502.5,362C 505.253,369.735 507.586,377.235 509.5,384.5C 503.129,379.625 496.629,374.958 490,370.5C 483.371,374.958 476.871,379.625 470.5,384.5C 472.242,377.095 474.575,369.595 477.5,362C 470.804,356.308 463.804,350.975 456.5,346C 465.155,346.672 473.822,346.506 482.5,345.5C 485.616,337.369 487.949,329.036 489.5,320.5 Z"/></g>
<g><path style="opacity:1" fill="#cd1f31" d="M 489.5,332.5 C 492.255,337.757 494.255,343.423 495.5,349.5C 501.545,349.471 507.545,349.304 513.5,349C 508.334,352.673 503.334,356.506 498.5,360.5C 500.54,365.444 502.04,370.444 503,375.5C 498.656,372.485 494.323,369.485 490,366.5C 484.822,369.091 480.156,372.425 476,376.5C 477.585,371.026 479.418,365.526 481.5,360C 476.5,356.333 471.5,352.667 466.5,349C 472.448,349.526 478.448,349.526 484.5,349C 486.871,343.719 488.538,338.219 489.5,332.5 Z"/></g>
</svg>
