<?xml version="1.0" encoding="UTF-8"?>
<!DOCTYPE svg PUBLIC "-//W3C//DTD SVG 1.1//EN" "http://www.w3.org/Graphics/SVG/1.1/DTD/svg11.dtd">
<svg xmlns="http://www.w3.org/2000/svg" version="1.1" width="640px" height="480px" style="shape-rendering:geometricPrecision; text-rendering:geometricPrecision; image-rendering:optimizeQuality; fill-rule:evenodd; clip-rule:evenodd" xmlns:xlink="http://www.w3.org/1999/xlink">
<g><path style="opacity:1" fill="#0066c6" d="M -0.5,-0.5 C 212.833,-0.5 426.167,-0.5 639.5,-0.5C 639.5,52.8333 639.5,106.167 639.5,159.5C 426.167,159.5 212.833,159.5 -0.5,159.5C -0.5,106.167 -0.5,52.8333 -0.5,-0.5 Z"/></g>
<g><path style="opacity:1" fill="#fefefe" d="M -0.5,159.5 C 212.833,159.5 426.167,159.5 639.5,159.5C 639.5,212.833 639.5,266.167 639.5,319.5C 426.167,319.5 212.833,319.5 -0.5,319.5C -0.5,266.167 -0.5,212.833 -0.5,159.5 Z"/></g>
<g><path style="opacity:1" fill="#d9be51" d="M 317.5,173.5 C 317.389,174.117 317.056,174.617 316.5,175C 314.19,175.497 311.857,175.663 309.5,175.5C 309.5,172.833 309.5,170.167 309.5,167.5C 311.857,167.337 314.19,167.503 316.5,168C 318.553,169.678 318.887,171.511 317.5,173.5 Z"/></g>
<g><path style="opacity:1" fill="#fdfcf7" d="M 317.5,173.5 C 315.565,174.15 313.565,174.483 311.5,174.5C 311.5,172.833 311.5,171.167 311.5,169.5C 315.241,168.599 317.241,169.932 317.5,173.5 Z"/></g>
<g><path style="opacity:1" fill="#d7bb49" d="M 341.5,170.5 C 343.64,172.7 345.14,175.367 346,178.5C 346.667,177.167 347.333,175.833 348,174.5C 348.654,173.304 349.154,173.304 349.5,174.5C 348.423,176.912 347.256,179.246 346,181.5C 344.667,178.833 343.333,176.167 342,173.5C 341.598,174.872 341.098,176.205 340.5,177.5C 339.998,178.521 339.332,178.688 338.5,178C 339.642,175.55 340.642,173.05 341.5,170.5 Z"/></g>
<g><path style="opacity:1" fill="#d7ba49" d="M 320.5,167.5 C 323.247,167.187 325.914,167.52 328.5,168.5C 326.577,169.308 324.577,169.808 322.5,170C 324.256,170.202 325.922,170.702 327.5,171.5C 319.576,172.962 319.576,174.129 327.5,175C 325.19,175.497 322.857,175.663 320.5,175.5C 320.5,172.833 320.5,170.167 320.5,167.5 Z"/></g>
<g><path style="opacity:1" fill="#d8bc4d" d="M 291.5,172.5 C 294.787,173.264 297.454,175.097 299.5,178C 297.874,177.805 296.207,177.805 294.5,178C 293.151,178.772 292.318,179.939 292,181.5C 291.502,178.518 291.335,175.518 291.5,172.5 Z"/></g>
<g><path style="opacity:1" fill="#d9bf53" d="M 353.5,177.5 C 355.842,177.504 357.842,178.337 359.5,180C 357.575,179.865 355.575,179.698 353.5,179.5C 353.082,183.251 354.749,185.418 358.5,186C 351.808,186.116 350.141,183.282 353.5,177.5 Z"/></g>
<g><path style="opacity:1" fill="#cdb741" d="M 327.5,194.5 C 324.5,190.813 321.834,186.813 319.5,182.5C 318.388,184.419 317.054,186.086 315.5,187.5C 316.045,185.407 316.878,183.407 318,181.5C 318.718,180.549 319.551,180.383 320.5,181C 323.093,185.41 325.426,189.91 327.5,194.5 Z"/></g>
<g><path style="opacity:1" fill="#d9be51" d="M 280.5,178.5 C 281.239,178.369 281.906,178.536 282.5,179C 281.62,180.356 281.286,181.856 281.5,183.5C 284.596,184.093 286.929,183.093 288.5,180.5C 289.282,182.329 288.616,183.829 286.5,185C 280.947,186.048 278.947,183.881 280.5,178.5 Z"/></g>
<g><path style="opacity:1" fill="#d8bc4c" d="M 364.5,184.5 C 365.693,184.97 366.36,185.97 366.5,187.5C 366.308,189.577 365.808,191.577 365,193.5C 364.372,189.873 362.205,188.04 358.5,188C 360.727,187.059 362.727,185.892 364.5,184.5 Z"/></g>
<g><path style="opacity:1" fill="#c7b541" d="M 315.5,187.5 C 312.588,194.332 308.921,200.666 304.5,206.5C 307.412,199.668 311.079,193.334 315.5,187.5 Z"/></g>
<g><path style="opacity:1" fill="#dbbf55" d="M 371.5,190.5 C 373.867,191.871 375.533,193.871 376.5,196.5C 375.68,198.111 374.346,198.778 372.5,198.5C 372.657,199.873 372.49,201.207 372,202.5C 371.308,201.975 370.808,201.308 370.5,200.5C 371.965,198.055 371.465,196.055 369,194.5C 368.189,195.96 367.355,196.293 366.5,195.5C 367.882,193.451 369.548,191.785 371.5,190.5 Z"/></g>
<g><path style="opacity:1" fill="#d3b535" d="M 268.5,189.5 C 268.897,188.475 269.563,188.308 270.5,189C 271.667,190.167 272.833,191.333 274,192.5C 275.113,190.671 276.613,189.837 278.5,190C 277,191.5 275.5,193 274,194.5C 272.296,192.627 270.463,190.96 268.5,189.5 Z"/></g>
<g><path style="opacity:1" fill="#e4cc77" d="M 264.5,192.5 C 272.518,193.22 273.518,196.22 267.5,201.5C 261.518,199.656 260.518,196.656 264.5,192.5 Z"/></g>
<g><path style="opacity:1" fill="#ade4f3" d="M 327.5,194.5 C 331.312,202.792 335.646,210.792 340.5,218.5C 326.5,210.5 312.5,210.5 298.5,218.5C 300.934,214.728 302.934,210.728 304.5,206.5C 308.921,200.666 312.588,194.332 315.5,187.5C 317.054,186.086 318.388,184.419 319.5,182.5C 321.834,186.813 324.5,190.813 327.5,194.5 Z"/></g>
<g><path style="opacity:1" fill="#dcc25e" d="M 259.5,199.5 C 265.301,200.448 266.801,203.448 264,208.5C 260.797,209.826 257.964,209.159 255.5,206.5C 255.833,206.167 256.167,205.833 256.5,205.5C 258.51,207.171 260.843,207.838 263.5,207.5C 263.657,206.127 263.49,204.793 263,203.5C 261.373,202.468 260.207,201.134 259.5,199.5 Z"/></g>
<g><path style="opacity:1" fill="#cdb33a" d="M 327.5,194.5 C 334.254,204.334 340.254,214.667 345.5,225.5C 343.833,224.5 342.5,223.167 341.5,221.5C 341.938,221.565 342.272,221.399 342.5,221C 341.619,220.292 340.953,219.458 340.5,218.5C 335.646,210.792 331.312,202.792 327.5,194.5 Z"/></g>
<g><path style="opacity:1" fill="#dcc15b" d="M 372.5,204.5 C 383.552,201.37 385.052,203.704 377,211.5C 377.594,209.491 377.427,207.491 376.5,205.5C 375.311,204.571 373.978,204.238 372.5,204.5 Z"/></g>
<g><path style="opacity:1" fill="#dfc466" d="M 253.5,209.5 C 254.833,209.5 256.167,209.5 257.5,209.5C 257.756,211.792 257.423,213.959 256.5,216C 257.328,216.915 258.328,217.581 259.5,218C 252.054,218.741 250.054,215.908 253.5,209.5 Z"/></g>
<g><path style="opacity:1" fill="#dcc45f" d="M 380.5,209.5 C 386.481,210.142 388.314,213.142 386,218.5C 385.667,216.5 385.333,214.5 385,212.5C 379.008,211.411 378.008,213.411 382,218.5C 382.579,214.614 383.412,214.614 384.5,218.5C 383.672,219.415 382.672,220.081 381.5,220.5C 378.122,216.991 377.788,213.325 380.5,209.5 Z"/></g>
<g><path style="opacity:1" fill="#fb5d14" d="M 340.5,218.5 C 340.953,219.458 341.619,220.292 342.5,221C 342.272,221.399 341.938,221.565 341.5,221.5C 327.027,210.932 312.694,210.932 298.5,221.5C 297.761,221.631 297.094,221.464 296.5,221C 297.381,220.292 298.047,219.458 298.5,218.5C 312.5,210.5 326.5,210.5 340.5,218.5 Z"/></g>
<g><path style="opacity:1" fill="#74e960" d="M 341.5,221.5 C 342.5,223.167 343.833,224.5 345.5,225.5C 345.5,226.167 345.5,226.833 345.5,227.5C 336.468,217.233 325.135,213.4 311.5,216C 307.085,217.043 303.085,218.876 299.5,221.5C 299.167,221.5 298.833,221.5 298.5,221.5C 312.694,210.932 327.027,210.932 341.5,221.5 Z"/></g>
<g><path style="opacity:1" fill="#4d37c7" d="M 345.5,227.5 C 347.45,230.406 349.117,233.406 350.5,236.5C 350.993,238.806 351.326,241.139 351.5,243.5C 351.631,244.239 351.464,244.906 351,245.5C 346.071,224.579 332.905,215.413 311.5,218C 299.202,221.794 291.869,229.96 289.5,242.5C 288.732,243.263 288.232,244.263 288,245.5C 287.536,244.906 287.369,244.239 287.5,243.5C 287.778,239.268 288.944,235.268 291,231.5C 293.669,228 296.502,224.667 299.5,221.5C 303.085,218.876 307.085,217.043 311.5,216C 325.135,213.4 336.468,217.233 345.5,227.5 Z"/></g>
<g><path style="opacity:1" fill="#d9be50" d="M 383.5,220.5 C 389.853,220.453 390.02,221.119 384,222.5C 383.506,224.134 383.34,225.801 383.5,227.5C 385.949,226.943 388.282,226.943 390.5,227.5C 382.524,230.011 380.191,227.678 383.5,220.5 Z"/></g>
<g><path style="opacity:1" fill="#d6b945" d="M 249.5,219.5 C 250.376,219.369 251.043,219.702 251.5,220.5C 250.319,222.198 250.319,223.865 251.5,225.5C 252.187,223.726 253.02,222.059 254,220.5C 253.302,227.646 254.302,227.98 257,221.5C 257.334,223.847 257.167,226.181 256.5,228.5C 253.873,227.908 251.206,227.575 248.5,227.5C 248.833,224.833 249.167,222.167 249.5,219.5 Z"/></g>
<g><path style="opacity:1" fill="#9fe1f0" d="M 351.5,243.5 C 352.167,244.167 352.833,244.833 353.5,245.5C 354.822,245.33 355.989,245.663 357,246.5C 358.259,249.356 359.759,252.023 361.5,254.5C 353.653,251.485 348.319,245.985 345.5,238C 344.216,237.316 343.049,237.483 342,238.5C 341.194,241.446 339.861,244.112 338,246.5C 336.205,243.901 334.705,241.234 333.5,238.5C 332.432,237.566 331.099,237.232 329.5,237.5C 328.908,240.691 327.741,243.691 326,246.5C 323.696,243.702 321.862,240.702 320.5,237.5C 319.833,237.5 319.167,237.5 318.5,237.5C 317.138,240.702 315.304,243.702 313,246.5C 311.259,243.691 310.092,240.691 309.5,237.5C 308.022,237.238 306.689,237.571 305.5,238.5C 304.253,241.329 302.753,243.995 301,246.5C 299.139,244.112 297.806,241.446 297,238.5C 296.329,237.748 295.496,237.414 294.5,237.5C 292.465,239.938 290.799,242.605 289.5,245.5C 289.5,244.5 289.5,243.5 289.5,242.5C 291.869,229.96 299.202,221.794 311.5,218C 332.905,215.413 346.071,224.579 351,245.5C 351.464,244.906 351.631,244.239 351.5,243.5 Z"/></g>
<g><path style="opacity:1" fill="#e3221a" d="M 317.5,223.5 C 321.396,223.731 323.396,225.898 323.5,230C 322.915,232.134 321.582,233.634 319.5,234.5C 318.326,232.176 316.992,230.009 315.5,228C 315.519,226.167 316.185,224.667 317.5,223.5 Z"/></g>
<g><path style="opacity:1" fill="#dac055" d="M 383.5,231.5 C 383.56,230.957 383.893,230.624 384.5,230.5C 387.317,231.095 389.65,232.428 391.5,234.5C 389.258,236.539 386.758,238.205 384,239.5C 384.255,238.085 384.755,236.585 385.5,235C 385.613,233.301 384.947,232.134 383.5,231.5 Z"/></g>
<g><path style="opacity:1" fill="#d3b63b" d="M 249.5,230.5 C 251.017,230.511 252.184,231.177 253,232.5C 253.965,230.74 255.132,230.406 256.5,231.5C 253.453,232.875 252.12,235.208 252.5,238.5C 255.263,239.455 254.263,239.622 249.5,239C 251.604,237.164 251.938,234.998 250.5,232.5C 249.066,234.22 248.233,236.22 248,238.5C 247.109,235.502 247.609,232.836 249.5,230.5 Z"/></g>
<g><path style="opacity:1" fill="#9fc82c" d="M 304.5,206.5 C 302.934,210.728 300.934,214.728 298.5,218.5C 298.047,219.458 297.381,220.292 296.5,221C 297.094,221.464 297.761,221.631 298.5,221.5C 298.833,221.5 299.167,221.5 299.5,221.5C 296.502,224.667 293.669,228 291,231.5C 288.944,235.268 287.778,239.268 287.5,243.5C 286.259,245.931 285.092,245.931 284,243.5C 281.626,247.75 279.126,251.916 276.5,256C 282.386,254.632 286.72,251.132 289.5,245.5C 290.799,242.605 292.465,239.938 294.5,237.5C 292.381,248.286 296.547,254.952 307,257.5C 308.099,256.578 309.599,255.578 311.5,254.5C 314.603,256.483 317.936,257.316 321.5,257C 319.109,255.691 319.109,254.691 321.5,254C 319.154,252.987 317.487,251.321 316.5,249C 318.049,245.32 318.716,241.487 318.5,237.5C 319.167,237.5 319.833,237.5 320.5,237.5C 319.565,245.644 322.731,251.31 330,254.5C 330.833,254.333 331.667,254.167 332.5,254C 331.643,253.311 330.977,252.478 330.5,251.5C 331.954,247.163 332.954,242.829 333.5,238.5C 334.705,241.234 336.205,243.901 338,246.5C 339.861,244.112 341.194,241.446 342,238.5C 343.049,237.483 344.216,237.316 345.5,238C 348.319,245.985 353.653,251.485 361.5,254.5C 362.028,255.721 362.695,256.887 363.5,258C 360.635,258.183 357.969,258.683 355.5,259.5C 351.833,259.5 348.167,259.5 344.5,259.5C 336.805,260.116 329.138,260.116 321.5,259.5C 316.209,260.559 310.876,261.225 305.5,261.5C 304.551,260.848 303.385,260.514 302,260.5C 292.47,261.124 282.97,261.79 273.5,262.5C 273.833,261.167 274.167,259.833 274.5,258.5C 283.998,240.832 293.998,223.499 304.5,206.5 Z"/></g>
<g><path style="opacity:1" fill="#68f04f" d="M 350.5,236.5 C 352.253,239.146 353.253,242.146 353.5,245.5C 352.833,244.833 352.167,244.167 351.5,243.5C 351.326,241.139 350.993,238.806 350.5,236.5 Z"/></g>
<g><path style="opacity:1" fill="#ceda26" d="M 294.5,237.5 C 295.496,237.414 296.329,237.748 297,238.5C 297.806,241.446 299.139,244.112 301,246.5C 302.753,243.995 304.253,241.329 305.5,238.5C 306.689,237.571 308.022,237.238 309.5,237.5C 310.092,240.691 311.259,243.691 313,246.5C 315.304,243.702 317.138,240.702 318.5,237.5C 318.716,241.487 318.049,245.32 316.5,249C 317.487,251.321 319.154,252.987 321.5,254C 319.109,254.691 319.109,255.691 321.5,257C 317.936,257.316 314.603,256.483 311.5,254.5C 309.599,255.578 308.099,256.578 307,257.5C 296.547,254.952 292.381,248.286 294.5,237.5 Z"/></g>
<g><path style="opacity:1" fill="#dbde25" d="M 320.5,237.5 C 321.862,240.702 323.696,243.702 326,246.5C 327.741,243.691 328.908,240.691 329.5,237.5C 331.099,237.232 332.432,237.566 333.5,238.5C 332.954,242.829 331.954,247.163 330.5,251.5C 330.977,252.478 331.643,253.311 332.5,254C 331.667,254.167 330.833,254.333 330,254.5C 322.731,251.31 319.565,245.644 320.5,237.5 Z"/></g>
<g><path style="opacity:1" fill="#778ba2" d="M 289.5,242.5 C 289.5,243.5 289.5,244.5 289.5,245.5C 286.72,251.132 282.386,254.632 276.5,256C 279.126,251.916 281.626,247.75 284,243.5C 285.092,245.931 286.259,245.931 287.5,243.5C 287.369,244.239 287.536,244.906 288,245.5C 288.232,244.263 288.732,243.263 289.5,242.5 Z"/></g>
<g><path style="opacity:1" fill="#c5a51d" d="M 345.5,225.5 C 354.518,239.688 363.185,254.188 371.5,269C 336.833,269.667 302.167,269.667 267.5,269C 269.733,265.349 272.066,261.849 274.5,258.5C 274.167,259.833 273.833,261.167 273.5,262.5C 272.275,263.937 271.275,265.604 270.5,267.5C 303.495,268.667 336.495,268.833 369.5,268C 367.583,265.502 365.916,262.835 364.5,260C 361.518,259.502 358.518,259.335 355.5,259.5C 357.969,258.683 360.635,258.183 363.5,258C 362.695,256.887 362.028,255.721 361.5,254.5C 359.759,252.023 358.259,249.356 357,246.5C 355.989,245.663 354.822,245.33 353.5,245.5C 353.253,242.146 352.253,239.146 350.5,236.5C 349.117,233.406 347.45,230.406 345.5,227.5C 345.5,226.833 345.5,226.167 345.5,225.5 Z"/></g>
<g><path style="opacity:1" fill="#6488bf" d="M 344.5,259.5 C 346.202,261.8 346.868,264.467 346.5,267.5C 331.833,267.5 317.167,267.5 302.5,267.5C 302.739,265.533 302.406,263.699 301.5,262C 302.793,261.51 304.127,261.343 305.5,261.5C 310.876,261.225 316.209,260.559 321.5,259.5C 329.138,260.116 336.805,260.116 344.5,259.5 Z"/></g>
<g><path style="opacity:1" fill="#7188a3" d="M 344.5,259.5 C 348.167,259.5 351.833,259.5 355.5,259.5C 358.518,259.335 361.518,259.502 364.5,260C 365.916,262.835 367.583,265.502 369.5,268C 336.495,268.833 303.495,268.667 270.5,267.5C 271.275,265.604 272.275,263.937 273.5,262.5C 282.97,261.79 292.47,261.124 302,260.5C 303.385,260.514 304.551,260.848 305.5,261.5C 304.127,261.343 302.793,261.51 301.5,262C 302.406,263.699 302.739,265.533 302.5,267.5C 317.167,267.5 331.833,267.5 346.5,267.5C 346.868,264.467 346.202,261.8 344.5,259.5 Z"/></g>
<g><path style="opacity:1" fill="#d8bd4d" d="M 372.5,274.5 C 374.402,275.368 376.235,276.368 378,277.5C 379.445,276.258 380.945,275.425 382.5,275C 379.134,280.531 375.801,280.365 372.5,274.5 Z"/></g>
<g><path style="opacity:1" fill="#dbc15a" d="M 261.5,274.5 C 263.167,274.5 264.833,274.5 266.5,274.5C 265.992,277.852 264.658,280.852 262.5,283.5C 263.51,279.475 261.843,276.975 257.5,276C 259.058,275.79 260.391,275.29 261.5,274.5 Z"/></g>
<g><path style="opacity:1" fill="#d8bb4d" d="M 369.5,279.5 C 372.271,279.421 374.937,279.921 377.5,281C 374.169,281.794 372.336,283.961 372,287.5C 370.293,285.091 369.46,282.425 369.5,279.5 Z"/></g>
<g><path style="opacity:1" fill="#d5b943" d="M 267.5,280.5 C 268.5,280.5 269.5,280.5 270.5,280.5C 270.414,282.677 269.747,284.677 268.5,286.5C 270.452,287.103 272.452,286.77 274.5,285.5C 275.308,285.808 275.975,286.308 276.5,287C 274.92,289.295 272.92,290.628 270.5,291C 271.5,290 272.5,289 273.5,288C 271.231,288.374 268.898,288.374 266.5,288C 267.638,286.266 268.138,284.432 268,282.5C 266.887,284.329 265.387,285.163 263.5,285C 265.041,283.629 266.375,282.129 267.5,280.5 Z"/></g>
<g><path style="opacity:1" fill="#e0c66a" d="M 364.5,284.5 C 366.912,284.694 367.912,286.027 367.5,288.5C 368.978,288.238 370.311,288.571 371.5,289.5C 369.577,290.308 367.577,290.808 365.5,291C 364.788,292.425 364.621,293.925 365,295.5C 363.333,293.833 361.667,292.167 360,290.5C 361.138,288.487 362.638,286.487 364.5,284.5 Z"/></g>
<g><path style="opacity:1" fill="#d5b942" d="M 276.5,288.5 C 279.806,289.001 281.973,290.667 283,293.5C 276.898,289.6 276.398,290.1 281.5,295C 279.544,294.778 277.71,293.945 276,292.5C 275.667,292.833 275.333,293.167 275,293.5C 275.134,291.811 275.634,290.144 276.5,288.5 Z"/></g>
<g><path style="opacity:1" fill="#e2ca73" d="M 285.5,293.5 C 288.117,294.786 290.45,296.453 292.5,298.5C 290.703,300.131 289.536,302.131 289,304.5C 288.222,299.953 286.222,298.953 283,301.5C 282.933,298.613 283.767,295.946 285.5,293.5 Z"/></g>
<g><path style="opacity:1" fill="#d6ba46" d="M 349.5,295.5 C 351.059,297.608 352.392,299.941 353.5,302.5C 353,302.833 352.5,303.167 352,303.5C 349.547,302.173 347.047,301.339 344.5,301C 346.036,302.599 346.536,304.433 346,306.5C 344.833,304.167 343.667,301.833 342.5,299.5C 342.833,299.167 343.167,298.833 343.5,298.5C 346.174,299.69 348.84,300.524 351.5,301C 350.139,299.416 349.472,297.582 349.5,295.5 Z"/></g>
<g><path style="opacity:1" fill="#d7bc49" d="M 297.5,300.5 C 299.75,300.181 301.75,300.681 303.5,302C 301.874,301.805 300.207,301.805 298.5,302C 296.697,306.547 298.363,308.547 303.5,308C 296.254,309.274 294.254,306.774 297.5,300.5 Z"/></g>
<g><path style="opacity:1" fill="#dac057" d="M 327.5,302.5 C 329.429,302.231 331.095,302.731 332.5,304C 330.527,304.495 328.527,304.662 326.5,304.5C 326.5,306.167 326.5,307.833 326.5,309.5C 329.044,309.896 331.211,309.229 333,307.5C 333.167,307.833 333.333,308.167 333.5,308.5C 332.473,310.024 330.973,310.691 329,310.5C 325.179,310.197 323.846,308.197 325,304.5C 325.995,303.934 326.828,303.267 327.5,302.5 Z"/></g>
<g><path style="opacity:1" fill="#d4b740" d="M 339.5,299.5 C 340.376,299.369 341.043,299.702 341.5,300.5C 339.5,301.5 337.5,302.5 335.5,303.5C 337.413,304.051 339.413,304.218 341.5,304C 339.779,304.739 338.113,305.573 336.5,306.5C 338.781,307.185 341.114,307.351 343.5,307C 341.059,308.446 338.392,309.279 335.5,309.5C 335.489,307.453 335.156,305.453 334.5,303.5C 335.662,301.462 337.328,300.128 339.5,299.5 Z"/></g>
<g><path style="opacity:1" fill="#dbc058" d="M 309.5,302.5 C 310.376,302.369 311.043,302.702 311.5,303.5C 312.407,306.057 313.407,308.557 314.5,311C 312.953,310.287 311.286,309.454 309.5,308.5C 307.845,309.388 306.178,309.888 304.5,310C 306.389,307.618 308.055,305.118 309.5,302.5 Z"/></g>
<g><path style="opacity:1" fill="#0066c6" d="M -0.5,319.5 C 212.833,319.5 426.167,319.5 639.5,319.5C 639.5,372.833 639.5,426.167 639.5,479.5C 426.167,479.5 212.833,479.5 -0.5,479.5C -0.5,426.167 -0.5,372.833 -0.5,319.5 Z"/></g>
</svg>
