<?xml version="1.0" encoding="UTF-8"?>
<!DOCTYPE svg PUBLIC "-//W3C//DTD SVG 1.1//EN" "http://www.w3.org/Graphics/SVG/1.1/DTD/svg11.dtd">
<svg xmlns="http://www.w3.org/2000/svg" version="1.1" width="640px" height="480px" style="shape-rendering:geometricPrecision; text-rendering:geometricPrecision; image-rendering:optimizeQuality; fill-rule:evenodd; clip-rule:evenodd" xmlns:xlink="http://www.w3.org/1999/xlink">
<g><path style="opacity:1" fill="#fcfcfd" d="M 0.5,-0.5 C 12.8333,-0.5 25.1667,-0.5 37.5,-0.5C 64.688,19.6909 91.8547,40.0243 119,60.5C 119.5,40.1694 119.667,19.8361 119.5,-0.5C 124.833,-0.5 130.167,-0.5 135.5,-0.5C 135.5,28.5 135.5,57.5 135.5,86.5C 132.167,89.1667 129.167,92.1667 126.5,95.5C 84.1667,95.5 41.8333,95.5 -0.5,95.5C -0.5,90.1667 -0.5,84.8333 -0.5,79.5C 20.8359,79.6666 42.1693,79.5 63.5,79C 42.2892,62.9495 20.9559,47.1161 -0.5,31.5C -0.5,27.8333 -0.5,24.1667 -0.5,20.5C 25.3401,40.168 51.3401,59.668 77.5,79C 87.5,79.6667 97.5,79.6667 107.5,79C 71.6502,52.6367 35.9835,26.1367 0.5,-0.5 Z"/></g>
<g><path style="opacity:1" fill="#022169" d="M 37.5,-0.5 C 64.8333,-0.5 92.1667,-0.5 119.5,-0.5C 119.667,19.8361 119.5,40.1694 119,60.5C 91.8547,40.0243 64.688,19.6909 37.5,-0.5 Z"/></g>
<g><path style="opacity:1" fill="#ca1e32" d="M 135.5,-0.5 C 151.833,-0.5 168.167,-0.5 184.5,-0.5C 184.5,28.5 184.5,57.5 184.5,86.5C 168.108,75.991 151.774,75.991 135.5,86.5C 135.5,57.5 135.5,28.5 135.5,-0.5 Z"/></g>
<g><path style="opacity:1" fill="#fcfcfc" d="M 184.5,-0.5 C 189.833,-0.5 195.167,-0.5 200.5,-0.5C 200.333,19.1695 200.5,38.8362 201,58.5C 227.351,38.9699 253.517,19.3033 279.5,-0.5C 284.167,-0.5 288.833,-0.5 293.5,-0.5C 262.312,23.0249 231.145,46.6916 200,70.5C 199.502,73.4816 199.335,76.4816 199.5,79.5C 205.176,79.6661 210.843,79.4994 216.5,79C 250.505,52.6713 284.838,26.838 319.5,1.5C 319.5,11.1667 319.5,20.8333 319.5,30.5C 297.863,46.6576 276.196,62.8243 254.5,79C 276.164,79.5 297.831,79.6666 319.5,79.5C 319.5,84.8333 319.5,90.1667 319.5,95.5C 277.167,95.5 234.833,95.5 192.5,95.5C 189.833,92.5 187.167,89.5 184.5,86.5C 184.5,57.5 184.5,28.5 184.5,-0.5 Z"/></g>
<g><path style="opacity:1" fill="#032169" d="M 200.5,-0.5 C 226.833,-0.5 253.167,-0.5 279.5,-0.5C 253.517,19.3033 227.351,38.9699 201,58.5C 200.5,38.8362 200.333,19.1695 200.5,-0.5 Z"/></g>
<g><path style="opacity:1" fill="#c91731" d="M 293.5,-0.5 C 302.167,-0.5 310.833,-0.5 319.5,-0.5C 319.5,0.166667 319.5,0.833333 319.5,1.5C 284.838,26.838 250.505,52.6713 216.5,79C 210.843,79.4994 205.176,79.6661 199.5,79.5C 199.335,76.4816 199.502,73.4816 200,70.5C 231.145,46.6916 262.312,23.0249 293.5,-0.5 Z"/></g>
<g><path style="opacity:1" fill="#fddd00" d="M 319.5,-0.5 C 426.167,-0.5 532.833,-0.5 639.5,-0.5C 639.5,159.5 639.5,319.5 639.5,479.5C 426.167,479.5 212.833,479.5 -0.5,479.5C -0.5,399.5 -0.5,319.5 -0.5,239.5C -0.166667,239.5 0.166667,239.5 0.5,239.5C 9.5,239.5 18.5,239.5 27.5,239.5C 31.8333,239.5 36.1667,239.5 40.5,239.5C 66.8333,239.5 93.1667,239.5 119.5,239.5C 124.833,239.5 130.167,239.5 135.5,239.5C 151.833,239.5 168.167,239.5 184.5,239.5C 189.5,239.5 194.5,239.5 199.5,239.5C 199.833,239.5 200.167,239.5 200.5,239.5C 226.5,239.5 252.5,239.5 278.5,239.5C 291.833,239.5 305.167,239.5 318.5,239.5C 319.491,233.021 319.824,226.354 319.5,219.5C 319.5,215.833 319.5,212.167 319.5,208.5C 319.5,192.167 319.5,175.833 319.5,159.5C 319.5,154.5 319.5,149.5 319.5,144.5C 319.5,128.167 319.5,111.833 319.5,95.5C 319.5,90.1667 319.5,84.8333 319.5,79.5C 319.5,63.1667 319.5,46.8333 319.5,30.5C 319.5,20.8333 319.5,11.1667 319.5,1.5C 319.5,0.833333 319.5,0.166667 319.5,-0.5 Z"/></g>
<g><path style="opacity:1" fill="#c91731" d="M -0.5,-0.5 C -0.166667,-0.5 0.166667,-0.5 0.5,-0.5C 35.9835,26.1367 71.6502,52.6367 107.5,79C 97.5,79.6667 87.5,79.6667 77.5,79C 51.3401,59.668 25.3401,40.168 -0.5,20.5C -0.5,13.5 -0.5,6.5 -0.5,-0.5 Z"/></g>
<g><path style="opacity:1" fill="#fcd701" d="M 158.5,19.5 C 161.627,23.8461 163.627,28.8461 164.5,34.5C 170.176,34.3339 175.843,34.5006 181.5,35C 176.708,37.9614 172.375,41.4614 168.5,45.5C 170.689,50.6048 172.022,55.6048 172.5,60.5C 168.418,57.0753 164.084,54.0753 159.5,51.5C 155.108,53.7161 151.108,56.5495 147.5,60C 146.668,60.6877 146.002,60.521 145.5,59.5C 147.167,54.8333 148.833,50.1667 150.5,45.5C 146.625,41.4614 142.292,37.9614 137.5,35C 143.157,34.5006 148.824,34.3339 154.5,34.5C 155.833,29.5 157.167,24.5 158.5,19.5 Z"/></g>
<g><path style="opacity:1" fill="#032269" d="M 319.5,30.5 C 319.5,46.8333 319.5,63.1667 319.5,79.5C 297.831,79.6666 276.164,79.5 254.5,79C 276.196,62.8243 297.863,46.6576 319.5,30.5 Z"/></g>
<g><path style="opacity:1" fill="#032269" d="M -0.5,31.5 C 20.9559,47.1161 42.2892,62.9495 63.5,79C 42.1693,79.5 20.8359,79.6666 -0.5,79.5C -0.5,63.5 -0.5,47.5 -0.5,31.5 Z"/></g>
<g><path style="opacity:1" fill="#092168" d="M 184.5,86.5 C 187.167,89.5 189.833,92.5 192.5,95.5C 203.011,111.762 203.011,128.095 192.5,144.5C 189.5,146.833 186.833,149.5 184.5,152.5C 184.167,152.5 183.833,152.5 183.5,152.5C 180.888,143.221 177.888,134.054 174.5,125C 181.408,118.924 188.742,113.424 196.5,108.5C 197.043,108.44 197.376,108.107 197.5,107.5C 187.856,106.502 178.19,106.168 168.5,106.5C 166.101,97.3035 163.101,88.3035 159.5,79.5C 155.899,88.3035 152.899,97.3035 150.5,106.5C 140.81,106.168 131.144,106.502 121.5,107.5C 121.624,108.107 121.957,108.44 122.5,108.5C 130.258,113.424 137.592,118.924 144.5,125C 141.135,133.297 138.468,141.797 136.5,150.5C 135.833,150.5 135.5,150.833 135.5,151.5C 132.233,149.573 129.233,147.239 126.5,144.5C 115.991,128.108 115.991,111.774 126.5,95.5C 129.167,92.1667 132.167,89.1667 135.5,86.5C 151.774,75.991 168.108,75.991 184.5,86.5 Z"/></g>
<g><path style="opacity:1" fill="#f7d807" d="M 168.5,106.5 C 177.833,107.167 187.167,107.833 196.5,108.5C 188.742,113.424 181.408,118.924 174.5,125C 177.888,134.054 180.888,143.221 183.5,152.5C 183.167,152.5 182.833,152.5 182.5,152.5C 175.157,146.504 167.49,140.837 159.5,135.5C 151.815,140.859 144.149,146.192 136.5,151.5C 136.5,151.167 136.5,150.833 136.5,150.5C 138.468,141.797 141.135,133.297 144.5,125C 137.592,118.924 130.258,113.424 122.5,108.5C 131.833,107.833 141.167,107.167 150.5,106.5C 152.899,97.3035 155.899,88.3035 159.5,79.5C 163.101,88.3035 166.101,97.3035 168.5,106.5 Z"/></g>
<g><path style="opacity:1" fill="#c91c32" d="M -0.5,95.5 C 41.8333,95.5 84.1667,95.5 126.5,95.5C 115.991,111.774 115.991,128.108 126.5,144.5C 84.1667,144.5 41.8333,144.5 -0.5,144.5C -0.5,128.167 -0.5,111.833 -0.5,95.5 Z"/></g>
<g><path style="opacity:1" fill="#c91d32" d="M 192.5,95.5 C 234.833,95.5 277.167,95.5 319.5,95.5C 319.5,111.833 319.5,128.167 319.5,144.5C 277.167,144.5 234.833,144.5 192.5,144.5C 203.011,128.095 203.011,111.762 192.5,95.5 Z"/></g>
<g><path style="opacity:1" fill="#fcd801" d="M 65.5,98.5 C 67.8646,103.241 69.8646,108.241 71.5,113.5C 77.1376,114.33 82.8042,114.83 88.5,115C 83.6833,117.992 79.35,121.492 75.5,125.5C 77.0104,130.506 78.177,135.506 79,140.5C 74.9982,137.001 70.6648,134.001 66,131.5C 61.6772,134.485 57.3439,137.485 53,140.5C 54.0679,135.287 55.5679,130.12 57.5,125C 53.347,121.425 49.0137,118.091 44.5,115C 50.1569,114.501 55.8236,114.334 61.5,114.5C 62.6272,109.118 63.9606,103.784 65.5,98.5 Z"/></g>
<g><path style="opacity:1" fill="#fcd801" d="M 252.5,98.5 C 254.575,103.545 256.575,108.712 258.5,114C 263.833,114.333 269.167,114.667 274.5,115C 269.986,118.091 265.653,121.425 261.5,125C 263.432,130.12 264.932,135.287 266,140.5C 261.656,137.485 257.323,134.485 253,131.5C 248.335,134.001 244.002,137.001 240,140.5C 240.415,135.4 241.582,130.4 243.5,125.5C 239.769,121.784 235.769,118.284 231.5,115C 236.864,114.829 242.198,114.329 247.5,113.5C 249.372,108.55 251.039,103.55 252.5,98.5 Z"/></g>
<g><path style="opacity:1" fill="#96902b" d="M 150.5,106.5 C 141.167,107.167 131.833,107.833 122.5,108.5C 121.957,108.44 121.624,108.107 121.5,107.5C 131.144,106.502 140.81,106.168 150.5,106.5 Z"/></g>
<g><path style="opacity:1" fill="#96902b" d="M 168.5,106.5 C 178.19,106.168 187.856,106.502 197.5,107.5C 197.376,108.107 197.043,108.44 196.5,108.5C 187.167,107.833 177.833,107.167 168.5,106.5 Z"/></g>
<g><path style="opacity:1" fill="#0d2167" d="M 182.5,152.5 C 167.948,162.457 152.948,162.957 137.5,154C 136.748,153.329 136.414,152.496 136.5,151.5C 144.149,146.192 151.815,140.859 159.5,135.5C 167.49,140.837 175.157,146.504 182.5,152.5 Z"/></g>
<g><path style="opacity:1" fill="#fcfcfc" d="M -0.5,144.5 C 41.8333,144.5 84.1667,144.5 126.5,144.5C 129.233,147.239 132.233,149.573 135.5,151.5C 135.5,180.833 135.5,210.167 135.5,239.5C 130.167,239.5 124.833,239.5 119.5,239.5C 119.667,219.831 119.5,200.164 119,180.5C 92.6495,200.03 66.4828,219.697 40.5,239.5C 36.1667,239.5 31.8333,239.5 27.5,239.5C 57.699,215.813 88.3657,192.646 119.5,170C 120.456,166.606 120.789,163.106 120.5,159.5C 115.041,159.103 109.708,159.603 104.5,161C 69.6492,187.03 34.9826,213.197 0.5,239.5C 0.166667,239.5 -0.166667,239.5 -0.5,239.5C -0.5,229.5 -0.5,219.5 -0.5,209.5C 21.623,193.217 43.623,176.717 65.5,160C 43.5025,159.5 21.5025,159.333 -0.5,159.5C -0.5,154.5 -0.5,149.5 -0.5,144.5 Z"/></g>
<g><path style="opacity:1" fill="#fdfdfd" d="M 192.5,144.5 C 234.833,144.5 277.167,144.5 319.5,144.5C 319.5,149.5 319.5,154.5 319.5,159.5C 297.497,159.333 275.497,159.5 253.5,160C 275.352,176.42 297.352,192.587 319.5,208.5C 319.5,212.167 319.5,215.833 319.5,219.5C 293.044,200.217 266.711,180.717 240.5,161C 230.934,159.387 221.267,159.053 211.5,160C 247.35,186.363 283.016,212.863 318.5,239.5C 305.167,239.5 291.833,239.5 278.5,239.5C 253.051,219.935 227.384,200.602 201.5,181.5C 201.44,180.957 201.107,180.624 200.5,180.5C 199.5,200.155 199.167,219.822 199.5,239.5C 194.5,239.5 189.5,239.5 184.5,239.5C 184.5,210.5 184.5,181.5 184.5,152.5C 186.833,149.5 189.5,146.833 192.5,144.5 Z"/></g>
<g><path style="opacity:1" fill="#ca1e32" d="M 136.5,150.5 C 136.5,150.833 136.5,151.167 136.5,151.5C 136.414,152.496 136.748,153.329 137.5,154C 152.948,162.957 167.948,162.457 182.5,152.5C 182.833,152.5 183.167,152.5 183.5,152.5C 183.833,152.5 184.167,152.5 184.5,152.5C 184.5,181.5 184.5,210.5 184.5,239.5C 168.167,239.5 151.833,239.5 135.5,239.5C 135.5,210.167 135.5,180.833 135.5,151.5C 135.5,150.833 135.833,150.5 136.5,150.5 Z"/></g>
<g><path style="opacity:1" fill="#032269" d="M -0.5,159.5 C 21.5025,159.333 43.5025,159.5 65.5,160C 43.623,176.717 21.623,193.217 -0.5,209.5C -0.5,192.833 -0.5,176.167 -0.5,159.5 Z"/></g>
<g><path style="opacity:1" fill="#c91731" d="M 27.5,239.5 C 18.5,239.5 9.5,239.5 0.5,239.5C 34.9826,213.197 69.6492,187.03 104.5,161C 109.708,159.603 115.041,159.103 120.5,159.5C 120.789,163.106 120.456,166.606 119.5,170C 88.3657,192.646 57.699,215.813 27.5,239.5 Z"/></g>
<g><path style="opacity:1" fill="#c91731" d="M 319.5,219.5 C 319.824,226.354 319.491,233.021 318.5,239.5C 283.016,212.863 247.35,186.363 211.5,160C 221.267,159.053 230.934,159.387 240.5,161C 266.711,180.717 293.044,200.217 319.5,219.5 Z"/></g>
<g><path style="opacity:1" fill="#032269" d="M 319.5,159.5 C 319.5,175.833 319.5,192.167 319.5,208.5C 297.352,192.587 275.352,176.42 253.5,160C 275.497,159.5 297.497,159.333 319.5,159.5 Z"/></g>
<g><path style="opacity:1" fill="#7f8fb3" d="M 201.5,181.5 C 200.503,200.659 200.17,219.993 200.5,239.5C 200.167,239.5 199.833,239.5 199.5,239.5C 199.167,219.822 199.5,200.155 200.5,180.5C 201.107,180.624 201.44,180.957 201.5,181.5 Z"/></g>
<g><path style="opacity:1" fill="#022169" d="M 119.5,239.5 C 93.1667,239.5 66.8333,239.5 40.5,239.5C 66.4828,219.697 92.6495,200.03 119,180.5C 119.5,200.164 119.667,219.831 119.5,239.5 Z"/></g>
<g><path style="opacity:1" fill="#fcd701" d="M 158.5,179.5 C 161.627,183.846 163.627,188.846 164.5,194.5C 170.176,194.334 175.843,194.501 181.5,195C 176.708,197.961 172.375,201.461 168.5,205.5C 170.689,210.605 172.022,215.605 172.5,220.5C 168.418,217.075 164.084,214.075 159.5,211.5C 155.108,213.716 151.108,216.549 147.5,220C 146.668,220.688 146.002,220.521 145.5,219.5C 147.167,214.833 148.833,210.167 150.5,205.5C 146.625,201.461 142.292,197.961 137.5,195C 143.157,194.501 148.824,194.334 154.5,194.5C 155.833,189.5 157.167,184.5 158.5,179.5 Z"/></g>
<g><path style="opacity:1" fill="#032169" d="M 201.5,181.5 C 227.384,200.602 253.051,219.935 278.5,239.5C 252.5,239.5 226.5,239.5 200.5,239.5C 200.17,219.993 200.503,200.659 201.5,181.5 Z"/></g>
</svg>
