<?xml version="1.0" encoding="UTF-8"?>
<!DOCTYPE svg PUBLIC "-//W3C//DTD SVG 1.1//EN" "http://www.w3.org/Graphics/SVG/1.1/DTD/svg11.dtd">
<svg xmlns="http://www.w3.org/2000/svg" version="1.1" width="640px" height="480px" style="shape-rendering:geometricPrecision; text-rendering:geometricPrecision; image-rendering:optimizeQuality; fill-rule:evenodd; clip-rule:evenodd" xmlns:xlink="http://www.w3.org/1999/xlink">
<g><path style="opacity:1" fill="#d20200" d="M -0.5,-0.5 C -0.166667,-0.5 0.166667,-0.5 0.5,-0.5C 83.5079,62.4955 166.841,125.162 250.5,187.5C 254.658,182.509 259.325,178.009 264.5,174C 208.327,115.661 151.994,57.494 95.5,-0.5C 156.833,-0.5 218.167,-0.5 279.5,-0.5C 289.879,50.7289 299.879,102.062 309.5,153.5C 316.202,153.336 322.869,153.669 329.5,154.5C 338.992,102.706 348.992,51.0396 359.5,-0.5C 420.833,-0.5 482.167,-0.5 543.5,-0.5C 487.006,57.494 430.673,115.661 374.5,174C 379.675,178.009 384.342,182.509 388.5,187.5C 472.159,125.162 555.492,62.4955 638.5,-0.5C 638.833,-0.5 639.167,-0.5 639.5,-0.5C 639.5,63.5 639.5,127.5 639.5,191.5C 561.202,203.412 482.869,215.079 404.5,226.5C 405.833,235.167 405.833,243.833 404.5,252.5C 482.861,263.92 561.195,275.587 639.5,287.5C 639.5,351.5 639.5,415.5 639.5,479.5C 639.167,479.5 638.833,479.5 638.5,479.5C 555.492,416.504 472.159,353.838 388.5,291.5C 384.342,296.491 379.675,300.991 374.5,305C 430.673,363.339 487.006,421.506 543.5,479.5C 482.167,479.5 420.833,479.5 359.5,479.5C 349.5,427.833 339.5,376.167 329.5,324.5C 322.403,324.692 315.569,325.692 309,327.5C 299.1,378.168 289.266,428.834 279.5,479.5C 218.167,479.5 156.833,479.5 95.5,479.5C 151.994,421.506 208.327,363.339 264.5,305C 259.325,300.991 254.658,296.491 250.5,291.5C 166.841,353.838 83.5079,416.504 0.5,479.5C 0.166667,479.5 -0.166667,479.5 -0.5,479.5C -0.5,415.5 -0.5,351.5 -0.5,287.5C 77.7395,275.428 156.073,263.761 234.5,252.5C 233.201,243.826 233.201,235.16 234.5,226.5C 156.075,215.213 77.7412,203.546 -0.5,191.5C -0.5,127.5 -0.5,63.5 -0.5,-0.5 Z"/></g>
<g><path style="opacity:1" fill="#fee500" d="M 0.5,-0.5 C 32.1667,-0.5 63.8333,-0.5 95.5,-0.5C 151.994,57.494 208.327,115.661 264.5,174C 259.325,178.009 254.658,182.509 250.5,187.5C 166.841,125.162 83.5079,62.4955 0.5,-0.5 Z"/></g>
<g><path style="opacity:1" fill="#fee500" d="M 279.5,-0.5 C 306.167,-0.5 332.833,-0.5 359.5,-0.5C 348.992,51.0396 338.992,102.706 329.5,154.5C 322.869,153.669 316.202,153.336 309.5,153.5C 299.879,102.062 289.879,50.7289 279.5,-0.5 Z"/></g>
<g><path style="opacity:1" fill="#fee400" d="M 543.5,-0.5 C 575.167,-0.5 606.833,-0.5 638.5,-0.5C 555.492,62.4955 472.159,125.162 388.5,187.5C 384.342,182.509 379.675,178.009 374.5,174C 430.673,115.661 487.006,57.494 543.5,-0.5 Z"/></g>
<g><path style="opacity:1" fill="#fee500" d="M 308.5,171.5 C 343.082,168.534 367.915,182.534 383,213.5C 394.073,248.409 384.906,276.576 355.5,298C 317.673,316.398 286.173,308.898 261,275.5C 242.602,237.676 250.102,206.176 283.5,181C 291.472,176.515 299.805,173.348 308.5,171.5 Z"/></g>
<g><path style="opacity:1" fill="#fee500" d="M -0.5,191.5 C 77.7412,203.546 156.075,215.213 234.5,226.5C 233.201,235.16 233.201,243.826 234.5,252.5C 156.073,263.761 77.7395,275.428 -0.5,287.5C -0.5,255.5 -0.5,223.5 -0.5,191.5 Z"/></g>
<g><path style="opacity:1" fill="#fee500" d="M 639.5,191.5 C 639.5,223.5 639.5,255.5 639.5,287.5C 561.195,275.587 482.861,263.92 404.5,252.5C 405.833,243.833 405.833,235.167 404.5,226.5C 482.869,215.079 561.202,203.412 639.5,191.5 Z"/></g>
<g><path style="opacity:1" fill="#fee500" d="M 95.5,479.5 C 63.8333,479.5 32.1667,479.5 0.5,479.5C 83.5079,416.504 166.841,353.838 250.5,291.5C 254.658,296.491 259.325,300.991 264.5,305C 208.327,363.339 151.994,421.506 95.5,479.5 Z"/></g>
<g><path style="opacity:1" fill="#fee400" d="M 638.5,479.5 C 606.833,479.5 575.167,479.5 543.5,479.5C 487.006,421.506 430.673,363.339 374.5,305C 379.675,300.991 384.342,296.491 388.5,291.5C 472.159,353.838 555.492,416.504 638.5,479.5 Z"/></g>
<g><path style="opacity:1" fill="#fee500" d="M 359.5,479.5 C 332.833,479.5 306.167,479.5 279.5,479.5C 289.266,428.834 299.1,378.168 309,327.5C 315.569,325.692 322.403,324.692 329.5,324.5C 339.5,376.167 349.5,427.833 359.5,479.5 Z"/></g>
</svg>
