<?xml version="1.0" encoding="UTF-8"?>
<!DOCTYPE svg PUBLIC "-//W3C//DTD SVG 1.1//EN" "http://www.w3.org/Graphics/SVG/1.1/DTD/svg11.dtd">
<svg xmlns="http://www.w3.org/2000/svg" version="1.1" width="640px" height="480px" style="shape-rendering:geometricPrecision; text-rendering:geometricPrecision; image-rendering:optimizeQuality; fill-rule:evenodd; clip-rule:evenodd" xmlns:xlink="http://www.w3.org/1999/xlink">
<g><path style="opacity:1" fill="#3d5597" d="M -0.5,-0.5 C 212.833,-0.5 426.167,-0.5 639.5,-0.5C 639.5,28.5 639.5,57.5 639.5,86.5C 426.167,86.5 212.833,86.5 -0.5,86.5C -0.5,57.5 -0.5,28.5 -0.5,-0.5 Z"/></g>
<g><path style="opacity:1" fill="#fdfdfe" d="M -0.5,86.5 C 212.833,86.5 426.167,86.5 639.5,86.5C 639.5,93.1667 639.5,99.8333 639.5,106.5C 426.167,106.5 212.833,106.5 -0.5,106.5C -0.5,99.8333 -0.5,93.1667 -0.5,86.5 Z"/></g>
<g><path style="opacity:1" fill="#c60100" d="M -0.5,106.5 C 212.833,106.5 426.167,106.5 639.5,106.5C 639.5,195.167 639.5,283.833 639.5,372.5C 426.167,372.5 212.833,372.5 -0.5,372.5C -0.5,283.833 -0.5,195.167 -0.5,106.5 Z"/></g>
<g><path style="opacity:1" fill="#fefdfd" d="M 181.5,131.5 C 227.109,130.053 262.609,148.053 288,185.5C 307.281,221.465 307.281,257.465 288,293.5C 262.352,332.24 226.185,350.073 179.5,347C 134.232,340.395 103.065,315.895 86,273.5C 71.8684,220.551 87.3684,178.717 132.5,148C 147.788,138.96 164.121,133.46 181.5,131.5 Z"/></g>
<g><path style="opacity:1" fill="#c40502" d="M 232.5,214.5 C 248.009,214.17 263.342,214.504 278.5,215.5C 261.212,227.615 244.045,239.948 227,252.5C 232.43,272.63 238.597,292.63 245.5,312.5C 245.167,312.833 244.833,313.167 244.5,313.5C 227.167,301.167 209.833,288.833 192.5,276.5C 174.833,289.167 157.167,301.833 139.5,314.5C 145.282,294.149 151.949,273.816 159.5,253.5C 142.099,240.812 124.766,228.145 107.5,215.5C 129.859,216.156 151.859,215.489 173.5,213.5C 179.839,193.316 186.672,173.316 194,153.5C 201.007,173.687 207.507,194.02 213.5,214.5C 219.833,214.5 226.167,214.5 232.5,214.5 Z"/></g>
<g><path style="opacity:1" fill="#efb9b9" d="M 232.5,214.5 C 248.328,213.339 264.328,213.172 280.5,214C 279.956,214.717 279.289,215.217 278.5,215.5C 263.342,214.504 248.009,214.17 232.5,214.5 Z"/></g>
<g><path style="opacity:1" fill="#db6362" d="M 173.5,213.5 C 151.859,215.489 129.859,216.156 107.5,215.5C 128.833,214.813 150.833,214.146 173.5,213.5 Z"/></g>
<g><path style="opacity:1" fill="#fdfdfd" d="M -0.5,372.5 C 212.833,372.5 426.167,372.5 639.5,372.5C 639.5,379.167 639.5,385.833 639.5,392.5C 426.167,392.5 212.833,392.5 -0.5,392.5C -0.5,385.833 -0.5,379.167 -0.5,372.5 Z"/></g>
<g><path style="opacity:1" fill="#3d5597" d="M -0.5,392.5 C 212.833,392.5 426.167,392.5 639.5,392.5C 639.5,421.5 639.5,450.5 639.5,479.5C 426.167,479.5 212.833,479.5 -0.5,479.5C -0.5,450.5 -0.5,421.5 -0.5,392.5 Z"/></g>
</svg>
