<?xml version="1.0" encoding="UTF-8"?>
<!DOCTYPE svg PUBLIC "-//W3C//DTD SVG 1.1//EN" "http://www.w3.org/Graphics/SVG/1.1/DTD/svg11.dtd">
<svg xmlns="http://www.w3.org/2000/svg" version="1.1" width="640px" height="480px" style="shape-rendering:geometricPrecision; text-rendering:geometricPrecision; image-rendering:optimizeQuality; fill-rule:evenodd; clip-rule:evenodd" xmlns:xlink="http://www.w3.org/1999/xlink">
<g><path style="opacity:1" fill="#ec2938" d="M -0.5,-0.5 C 59.5,-0.5 119.5,-0.5 179.5,-0.5C 179.5,59.5 179.5,119.5 179.5,179.5C 119.5,179.5 59.5,179.5 -0.5,179.5C -0.5,119.5 -0.5,59.5 -0.5,-0.5 Z"/></g>
<g><path style="opacity:1" fill="#fefffe" d="M 179.5,-0.5 C 189.5,-0.5 199.5,-0.5 209.5,-0.5C 209.5,69.5 209.5,139.5 209.5,209.5C 139.5,209.5 69.5,209.5 -0.5,209.5C -0.5,199.5 -0.5,189.5 -0.5,179.5C 59.5,179.5 119.5,179.5 179.5,179.5C 179.5,119.5 179.5,59.5 179.5,-0.5 Z"/></g>
<g><path style="opacity:1" fill="#002564" d="M 209.5,-0.5 C 229.5,-0.5 249.5,-0.5 269.5,-0.5C 269.5,69.5 269.5,139.5 269.5,209.5C 392.833,209.5 516.167,209.5 639.5,209.5C 639.5,229.5 639.5,249.5 639.5,269.5C 516.167,269.5 392.833,269.5 269.5,269.5C 269.5,339.5 269.5,409.5 269.5,479.5C 249.5,479.5 229.5,479.5 209.5,479.5C 209.5,409.5 209.5,339.5 209.5,269.5C 139.5,269.5 69.5,269.5 -0.5,269.5C -0.5,249.5 -0.5,229.5 -0.5,209.5C 69.5,209.5 139.5,209.5 209.5,209.5C 209.5,139.5 209.5,69.5 209.5,-0.5 Z"/></g>
<g><path style="opacity:1" fill="#fefffe" d="M 269.5,-0.5 C 279.5,-0.5 289.5,-0.5 299.5,-0.5C 299.5,59.5 299.5,119.5 299.5,179.5C 412.833,179.5 526.167,179.5 639.5,179.5C 639.5,189.5 639.5,199.5 639.5,209.5C 516.167,209.5 392.833,209.5 269.5,209.5C 269.5,139.5 269.5,69.5 269.5,-0.5 Z"/></g>
<g><path style="opacity:1" fill="#ec2938" d="M 299.5,-0.5 C 412.833,-0.5 526.167,-0.5 639.5,-0.5C 639.5,59.5 639.5,119.5 639.5,179.5C 526.167,179.5 412.833,179.5 299.5,179.5C 299.5,119.5 299.5,59.5 299.5,-0.5 Z"/></g>
<g><path style="opacity:1" fill="#fefffe" d="M -0.5,269.5 C 69.5,269.5 139.5,269.5 209.5,269.5C 209.5,339.5 209.5,409.5 209.5,479.5C 199.5,479.5 189.5,479.5 179.5,479.5C 179.5,419.5 179.5,359.5 179.5,299.5C 119.5,299.5 59.5,299.5 -0.5,299.5C -0.5,289.5 -0.5,279.5 -0.5,269.5 Z"/></g>
<g><path style="opacity:1" fill="#fefffe" d="M 639.5,269.5 C 639.5,279.5 639.5,289.5 639.5,299.5C 526.167,299.5 412.833,299.5 299.5,299.5C 299.5,359.5 299.5,419.5 299.5,479.5C 289.5,479.5 279.5,479.5 269.5,479.5C 269.5,409.5 269.5,339.5 269.5,269.5C 392.833,269.5 516.167,269.5 639.5,269.5 Z"/></g>
<g><path style="opacity:1" fill="#ec2938" d="M -0.5,299.5 C 59.5,299.5 119.5,299.5 179.5,299.5C 179.5,359.5 179.5,419.5 179.5,479.5C 119.5,479.5 59.5,479.5 -0.5,479.5C -0.5,419.5 -0.5,359.5 -0.5,299.5 Z"/></g>
<g><path style="opacity:1" fill="#ec2938" d="M 639.5,299.5 C 639.5,359.5 639.5,419.5 639.5,479.5C 526.167,479.5 412.833,479.5 299.5,479.5C 299.5,419.5 299.5,359.5 299.5,299.5C 412.833,299.5 526.167,299.5 639.5,299.5 Z"/></g>
</svg>
