<?xml version="1.0" encoding="UTF-8"?>
<!DOCTYPE svg PUBLIC "-//W3C//DTD SVG 1.1//EN" "http://www.w3.org/Graphics/SVG/1.1/DTD/svg11.dtd">
<svg xmlns="http://www.w3.org/2000/svg" version="1.1" width="640px" height="480px" style="shape-rendering:geometricPrecision; text-rendering:geometricPrecision; image-rendering:optimizeQuality; fill-rule:evenodd; clip-rule:evenodd" xmlns:xlink="http://www.w3.org/1999/xlink">
<g><path style="opacity:1" fill="#ee2d29" d="M -0.5,-0.5 C 57.5,-0.5 115.5,-0.5 173.5,-0.5C 173.5,51.1667 173.5,102.833 173.5,154.5C 328.833,154.5 484.167,154.5 639.5,154.5C 639.5,208.5 639.5,262.5 639.5,316.5C 484.5,316.5 329.5,316.5 174.5,316.5C 174.5,370.833 174.5,425.167 174.5,479.5C 116.167,479.5 57.8333,479.5 -0.5,479.5C -0.5,319.5 -0.5,159.5 -0.5,-0.5 Z"/></g>
<g><path style="opacity:1" fill="#fefffe" d="M 174.5,-0.5 C 329.5,-0.5 484.5,-0.5 639.5,-0.5C 639.5,50.8333 639.5,102.167 639.5,153.5C 484.5,153.5 329.5,153.5 174.5,153.5C 174.5,102.167 174.5,50.8333 174.5,-0.5 Z"/></g>
<g><path style="opacity:1" fill="#faa29e" d="M 43.5,25.5 C 41.6536,25.2222 40.3202,25.8888 39.5,27.5C 40.7472,29.323 41.4139,31.323 41.5,33.5C 38.3198,29.3004 36.9865,24.6337 37.5,19.5C 39.8545,21.1878 41.8545,23.1878 43.5,25.5 Z"/></g>
<g><path style="opacity:1" fill="#fef9f9" d="M 43.5,25.5 C 43.8333,26.1667 44.1667,26.8333 44.5,27.5C 49.7287,36.2794 55.2287,44.9461 61,53.5C 61.5074,54.9961 61.0074,56.1627 59.5,57C 60.5,57.3333 61.5,57.6667 62.5,58C 61.6705,59.8161 60.8372,61.6494 60,63.5C 59.6667,62.5 59.3333,61.5 59,60.5C 56.3196,59.8301 54.3196,57.8301 53,54.5C 52.3292,53.7476 51.4959,53.4142 50.5,53.5C 50.5,53.1667 50.5,52.8333 50.5,52.5C 48.4554,46.0616 45.4554,39.7283 41.5,33.5C 41.4139,31.323 40.7472,29.323 39.5,27.5C 40.3202,25.8888 41.6536,25.2222 43.5,25.5 Z"/></g>
<g><path style="opacity:1" fill="#fee1e0" d="M 86.5,30.5 C 83.5,30.5 80.5,30.5 77.5,30.5C 75.4911,28.831 73.4911,27.1643 71.5,25.5C 74.2421,21.9352 77.7421,19.2685 82,17.5C 87.3638,19.0334 90.8638,22.3667 92.5,27.5C 90.3284,28.2055 88.3284,29.2055 86.5,30.5 Z"/></g>
<g><path style="opacity:1" fill="#fbc0be" d="M 123.5,30.5 C 122.739,29.6091 121.739,28.9424 120.5,28.5C 119.148,29.5244 117.815,30.5244 116.5,31.5C 118.348,26.9764 121.348,23.3097 125.5,20.5C 126.699,24.2293 126.032,27.5627 123.5,30.5 Z"/></g>
<g><path style="opacity:1" fill="#f12927" d="M 122.5,24.5 C 124.337,24.6395 124.67,25.3061 123.5,26.5C 122.702,26.0431 122.369,25.3764 122.5,24.5 Z"/></g>
<g><path style="opacity:1" fill="#fefcfc" d="M 123.5,30.5 C 123.672,31.4916 123.338,32.1583 122.5,32.5C 117.695,41.4383 112.862,50.4383 108,59.5C 105.913,58.2062 103.746,57.0395 101.5,56C 106.397,47.6941 111.397,39.5274 116.5,31.5C 117.815,30.5244 119.148,29.5244 120.5,28.5C 121.739,28.9424 122.739,29.6091 123.5,30.5 Z"/></g>
<g><path style="opacity:1" fill="#f78580" d="M 77.5,30.5 C 80.5,30.5 83.5,30.5 86.5,30.5C 85.5975,33.3915 85.2641,36.3915 85.5,39.5C 84.5269,37.0521 84.1936,34.3854 84.5,31.5C 82.8333,31.5 81.1667,31.5 79.5,31.5C 79.5557,36.7312 78.889,41.7312 77.5,46.5C 78.19,41.0848 78.19,35.7515 77.5,30.5 Z"/></g>
<g><path style="opacity:1" fill="#feedec" d="M 85.5,39.5 C 85.3924,43.247 85.8924,46.9137 87,50.5C 87.3768,51.9423 88.2101,52.9423 89.5,53.5C 89.5,54.5 89.5,55.5 89.5,56.5C 86.3279,56.0719 83.3279,55.9052 80.5,56C 79.8878,54.6967 79.5545,53.5301 79.5,52.5C 77.1759,52.8773 76.5092,53.8773 77.5,55.5C 76.675,56.3857 75.675,56.719 74.5,56.5C 74.5,55.5 74.5,54.5 74.5,53.5C 76.8337,51.8243 77.8337,49.491 77.5,46.5C 78.889,41.7312 79.5557,36.7312 79.5,31.5C 81.1667,31.5 82.8333,31.5 84.5,31.5C 84.1936,34.3854 84.5269,37.0521 85.5,39.5 Z"/></g>
<g><path style="opacity:1" fill="#f9b2b0" d="M 41.5,33.5 C 45.4554,39.7283 48.4554,46.0616 50.5,52.5C 46.7119,46.5884 43.7119,40.255 41.5,33.5 Z"/></g>
<g><path style="opacity:1" fill="#fab3b1" d="M 116.5,31.5 C 111.397,39.5274 106.397,47.6941 101.5,56C 103.746,57.0395 105.913,58.2062 108,59.5C 112.862,50.4383 117.695,41.4383 122.5,32.5C 117.444,45.1113 111.444,57.278 104.5,69C 105.737,69.2321 106.737,69.7321 107.5,70.5C 106.833,70.5 106.5,70.8333 106.5,71.5C 105.5,71.5 104.5,71.5 103.5,71.5C 101.086,68.906 98.086,67.2394 94.5,66.5C 95.6909,63.1112 97.1909,59.7779 99,56.5C 104.363,47.7503 110.196,39.417 116.5,31.5 Z"/></g>
<g><path style="opacity:1" fill="#fabdbb" d="M 89.5,53.5 C 90.5,53.5 91.5,53.5 92.5,53.5C 92.1795,58.6946 92.5128,63.6946 93.5,68.5C 93.5106,70.0174 94.1772,71.1841 95.5,72C 97.0846,72.0848 98.4179,72.2514 99.5,72.5C 97.604,73.4656 95.604,73.7989 93.5,73.5C 93.5,74.5 93.5,75.5 93.5,76.5C 95.8333,76.5 98.1667,76.5 100.5,76.5C 100.232,74.901 100.566,73.5676 101.5,72.5C 101.192,74.924 101.526,77.2573 102.5,79.5C 104.042,80.7468 105.542,80.7468 107,79.5C 107.801,76.633 107.634,73.9664 106.5,71.5C 106.5,70.8333 106.833,70.5 107.5,70.5C 109.558,71.9331 111.892,72.5997 114.5,72.5C 114.5,71.5 114.5,70.5 114.5,69.5C 123.5,69.5 132.5,69.5 141.5,69.5C 141.803,74.43 141.469,79.2633 140.5,84C 132.167,84.6667 123.833,84.6667 115.5,84C 114.62,82.6439 114.286,81.1439 114.5,79.5C 111.124,79.4744 107.958,80.1411 105,81.5C 101.7,81.6008 99.2,80.2675 97.5,77.5C 92.8365,82.1189 91.1698,87.7855 92.5,94.5C 91.2973,95.9425 90.7973,97.6092 91,99.5C 93.1743,100.518 95.6743,101.684 98.5,103C 95.039,103.874 92.039,103.04 89.5,100.5C 88.8933,100.624 88.56,100.957 88.5,101.5C 85.91,102.128 83.5766,103.295 81.5,105C 77.8865,105.936 74.2198,106.436 70.5,106.5C 68.1432,106.337 65.8098,106.503 63.5,107C 65.5951,107.556 65.7618,108.056 64,108.5C 62.8261,107.456 61.6594,106.456 60.5,105.5C 60.5,105.167 60.5,104.833 60.5,104.5C 60.4346,104.062 60.6012,103.728 61,103.5C 62.3374,104.765 63.8374,105.265 65.5,105C 64.5533,102.812 64.5533,100.478 65.5,98C 63.1088,96.6914 63.1088,95.6914 65.5,95C 62.8333,94.3333 62.8333,93.6667 65.5,93C 64.7203,91.927 64.887,90.7604 66,89.5C 66.4994,94.8229 66.666,100.156 66.5,105.5C 67.675,105.719 68.675,105.386 69.5,104.5C 68.267,98.8477 68.267,93.1811 69.5,87.5C 70.4614,85.7354 70.7947,83.7354 70.5,81.5C 70.5774,80.2502 71.244,79.4169 72.5,79C 68.7004,76.7575 68.5337,74.2575 72,71.5C 72.9862,72.1712 74.1529,72.1712 75.5,71.5C 79.2673,70.7495 82.934,70.4162 86.5,70.5C 83.0227,69.8328 79.6893,69.1661 76.5,68.5C 81.544,68.8275 86.544,68.4941 91.5,67.5C 84.7794,66.7981 78.1128,66.1314 71.5,65.5C 71.5,65.1667 71.5,64.8333 71.5,64.5C 77.783,65.5844 84.1163,65.7511 90.5,65C 91.772,62.9555 91.4386,61.1222 89.5,59.5C 88.8333,60.1667 88.1667,60.8333 87.5,61.5C 86.109,60.3554 84.7757,60.3554 83.5,61.5C 85.4233,62.3078 87.4233,62.8078 89.5,63C 84.5,63.6667 79.5,63.6667 74.5,63C 75.938,62.7811 77.2713,62.2811 78.5,61.5C 77.4706,61.7036 76.4706,61.2036 75.5,60C 80.8972,59.7728 86.2305,59.1062 91.5,58C 84.8417,57.5004 78.175,57.3337 71.5,57.5C 71.5,56.1667 71.5,54.8333 71.5,53.5C 72.5,53.5 73.5,53.5 74.5,53.5C 74.5,54.5 74.5,55.5 74.5,56.5C 75.675,56.719 76.675,56.3857 77.5,55.5C 76.5092,53.8773 77.1759,52.8773 79.5,52.5C 79.5545,53.5301 79.8878,54.6967 80.5,56C 83.3279,55.9052 86.3279,56.0719 89.5,56.5C 89.5,55.5 89.5,54.5 89.5,53.5 Z"/></g>
<g><path style="opacity:1" fill="#fef7f7" d="M 71.5,57.5 C 78.175,57.3337 84.8417,57.5004 91.5,58C 86.2305,59.1062 80.8972,59.7728 75.5,60C 76.4706,61.2036 77.4706,61.7036 78.5,61.5C 77.2713,62.2811 75.938,62.7811 74.5,63C 79.5,63.6667 84.5,63.6667 89.5,63C 87.4233,62.8078 85.4233,62.3078 83.5,61.5C 84.7757,60.3554 86.109,60.3554 87.5,61.5C 88.1667,60.8333 88.8333,60.1667 89.5,59.5C 91.4386,61.1222 91.772,62.9555 90.5,65C 84.1163,65.7511 77.783,65.5844 71.5,64.5C 71.5,62.1667 71.5,59.8333 71.5,57.5 Z"/></g>
<g><path style="opacity:1" fill="#f9aba9" d="M 44.5,27.5 C 54.0137,39.1903 62.0137,51.857 68.5,65.5C 67.8501,65.8039 67.1835,66.1373 66.5,66.5C 65.3044,66.1543 65.3044,65.6543 66.5,65C 65.5509,64.3828 64.7175,64.5494 64,65.5C 63.6924,64.6919 63.1924,64.0253 62.5,63.5C 61.7702,64.9337 60.7702,66.1004 59.5,67C 62.3323,68.9076 61.999,69.741 58.5,69.5C 56.2328,63.9187 53.5661,58.5854 50.5,53.5C 51.4959,53.4142 52.3292,53.7476 53,54.5C 54.3196,57.8301 56.3196,59.8301 59,60.5C 59.3333,61.5 59.6667,62.5 60,63.5C 60.8372,61.6494 61.6705,59.8161 62.5,58C 61.5,57.6667 60.5,57.3333 59.5,57C 61.0074,56.1627 61.5074,54.9961 61,53.5C 55.2287,44.9461 49.7287,36.2794 44.5,27.5 Z"/></g>
<g><path style="opacity:1" fill="#fefefe" d="M 71.5,65.5 C 78.1128,66.1314 84.7794,66.7981 91.5,67.5C 86.544,68.4941 81.544,68.8275 76.5,68.5C 74.8333,68.5 73.1667,68.5 71.5,68.5C 71.5,67.5 71.5,66.5 71.5,65.5 Z"/></g>
<g><path style="opacity:1" fill="#f14139" d="M 62.5,72.5 C 63.9064,77.9313 61.9064,80.2647 56.5,79.5C 56.8016,76.9407 56.4682,74.6074 55.5,72.5C 56.1342,71.0532 57.3009,70.3866 59,70.5C 60.6991,70.3866 61.8658,71.0532 62.5,72.5 Z"/></g>
<g><path style="opacity:1" fill="#fcd8d7" d="M 71.5,68.5 C 73.1667,68.5 74.8333,68.5 76.5,68.5C 79.6893,69.1661 83.0227,69.8328 86.5,70.5C 82.934,70.4162 79.2673,70.7495 75.5,71.5C 74.1529,72.1712 72.9862,72.1712 72,71.5C 68.5337,74.2575 68.7004,76.7575 72.5,79C 71.244,79.4169 70.5774,80.2502 70.5,81.5C 68.8516,80.2228 67.0183,79.2228 65,78.5C 62.1737,80.3398 59.0071,81.0065 55.5,80.5C 55.5,79.8333 55.8333,79.5 56.5,79.5C 61.9064,80.2647 63.9064,77.9313 62.5,72.5C 64.9158,71.0318 67.5825,70.3651 70.5,70.5C 71.3382,70.1583 71.6716,69.4916 71.5,68.5 Z"/></g>
<g><path style="opacity:1" fill="#ef352f" d="M 103.5,71.5 C 104.5,71.5 105.5,71.5 106.5,71.5C 107.634,73.9664 107.801,76.633 107,79.5C 105.542,80.7468 104.042,80.7468 102.5,79.5C 101.526,77.2573 101.192,74.924 101.5,72.5C 101.842,71.6618 102.508,71.3284 103.5,71.5 Z"/></g>
<g><path style="opacity:1" fill="#fef6f6" d="M 68.5,65.5 C 69.9418,66.8195 70.6085,68.4862 70.5,70.5C 67.5825,70.3651 64.9158,71.0318 62.5,72.5C 61.8658,71.0532 60.6991,70.3866 59,70.5C 57.3009,70.3866 56.1342,71.0532 55.5,72.5C 55.5,74.1667 55.5,75.8333 55.5,77.5C 52.4816,77.3354 49.4816,77.502 46.5,78C 48.158,78.7253 48.658,79.892 48,81.5C 44.0823,80.8492 40.0823,80.5159 36,80.5C 31.74,80.5395 27.74,81.2061 24,82.5C 23.3333,78.5 23.3333,74.5 24,70.5C 31.6667,71.1667 39.3333,71.8333 47,72.5C 47.3333,71.8333 47.6667,71.1667 48,70.5C 48.2784,71.4158 48.7784,72.0825 49.5,72.5C 52.3563,71.1721 55.3563,70.1721 58.5,69.5C 61.999,69.741 62.3323,68.9076 59.5,67C 60.7702,66.1004 61.7702,64.9337 62.5,63.5C 63.1924,64.0253 63.6924,64.6919 64,65.5C 64.7175,64.5494 65.5509,64.3828 66.5,65C 65.3044,65.6543 65.3044,66.1543 66.5,66.5C 67.1835,66.1373 67.8501,65.8039 68.5,65.5 Z"/></g>
<g><path style="opacity:1" fill="#fef7f7" d="M 139.5,70.5 C 140.645,74.3112 140.812,78.3112 140,82.5C 136.26,81.2061 132.26,80.5395 128,80.5C 123.74,80.5395 119.74,81.2061 116,82.5C 115.316,81.2161 115.483,80.0495 116.5,79C 113.854,78.5026 111.187,78.3359 108.5,78.5C 108.5,76.8333 108.5,75.1667 108.5,73.5C 118.49,72.9095 128.49,72.4095 138.5,72C 139.056,71.6174 139.389,71.1174 139.5,70.5 Z"/></g>
<g><path style="opacity:1" fill="#fef2f1" d="M 75.5,71.5 C 78.1445,73.2419 81.1445,73.9086 84.5,73.5C 84.5,74.5 84.5,75.5 84.5,76.5C 81.2893,76.012 78.456,76.6787 76,78.5C 75.5034,76.1902 75.3367,73.8568 75.5,71.5 Z"/></g>
<g><path style="opacity:1" fill="#fefffe" d="M 85.5,73.5 C 86.8333,73.5 88.1667,73.5 89.5,73.5C 89.5,74.8333 89.5,76.1667 89.5,77.5C 88.1667,77.5 86.8333,77.5 85.5,77.5C 85.5,76.1667 85.5,74.8333 85.5,73.5 Z"/></g>
<g><path style="opacity:1" fill="#fef6f6" d="M 94.5,66.5 C 98.086,67.2394 101.086,68.906 103.5,71.5C 102.508,71.3284 101.842,71.6618 101.5,72.5C 100.566,73.5676 100.232,74.901 100.5,76.5C 98.1667,76.5 95.8333,76.5 93.5,76.5C 93.5,75.5 93.5,74.5 93.5,73.5C 95.604,73.7989 97.604,73.4656 99.5,72.5C 98.4179,72.2514 97.0846,72.0848 95.5,72C 94.1772,71.1841 93.5106,70.0174 93.5,68.5C 93.8333,67.8333 94.1667,67.1667 94.5,66.5 Z"/></g>
<g><path style="opacity:1" fill="#fabbb9" d="M 49.5,72.5 C 48.7784,72.0825 48.2784,71.4158 48,70.5C 47.6667,71.1667 47.3333,71.8333 47,72.5C 39.3333,71.8333 31.6667,71.1667 24,70.5C 23.3333,74.5 23.3333,78.5 24,82.5C 27.74,81.2061 31.74,80.5395 36,80.5C 40.0823,80.5159 44.0823,80.8492 48,81.5C 48.658,79.892 48.158,78.7253 46.5,78C 49.4816,77.502 52.4816,77.3354 55.5,77.5C 55.5,75.8333 55.5,74.1667 55.5,72.5C 56.4682,74.6074 56.8016,76.9407 56.5,79.5C 55.8333,79.5 55.5,79.8333 55.5,80.5C 53.8583,78.9192 51.8583,78.2525 49.5,78.5C 49.7135,80.1439 49.3802,81.6439 48.5,83C 39.8397,83.4998 31.1731,83.6664 22.5,83.5C 22.5,78.5 22.5,73.5 22.5,68.5C 31.1731,68.3336 39.8397,68.5002 48.5,69C 49.3366,70.0113 49.67,71.1779 49.5,72.5 Z"/></g>
<g><path style="opacity:1" fill="#fddedd" d="M 69.5,87.5 C 68.267,93.1811 68.267,98.8477 69.5,104.5C 68.675,105.386 67.675,105.719 66.5,105.5C 66.666,100.156 66.4994,94.8229 66,89.5C 64.887,90.7604 64.7203,91.927 65.5,93C 62.8333,93.6667 62.8333,94.3333 65.5,95C 63.1088,95.6914 63.1088,96.6914 65.5,98C 64.5533,100.478 64.5533,102.812 65.5,105C 63.8374,105.265 62.3374,104.765 61,103.5C 60.6012,103.728 60.4346,104.062 60.5,104.5C 49.3405,103.837 38.6739,101.337 28.5,97C 24.7098,94.8195 24.7098,92.8195 28.5,91C 31.4245,90.0124 34.4245,89.3457 37.5,89C 48.1993,88.7635 58.866,88.2635 69.5,87.5 Z"/></g>
<g><path style="opacity:1" fill="#fef5f5" d="M 92.5,94.5 C 102.569,104.906 113.235,114.572 124.5,123.5C 123.122,124.234 121.622,124.901 120,125.5C 119.187,122.234 117.354,121.734 114.5,124C 119.038,124.306 119.371,125.14 115.5,126.5C 105.572,119.241 96.5722,110.908 88.5,101.5C 88.56,100.957 88.8933,100.624 89.5,100.5C 92.039,103.04 95.039,103.874 98.5,103C 95.6743,101.684 93.1743,100.518 91,99.5C 90.7973,97.6092 91.2973,95.9425 92.5,94.5 Z"/></g>
<g><path style="opacity:1" fill="#fef1f0" d="M 60.5,105.5 C 61.6594,106.456 62.8261,107.456 64,108.5C 65.7618,108.056 65.5951,107.556 63.5,107C 65.8098,106.503 68.1432,106.337 70.5,106.5C 63.5863,113.624 56.253,120.291 48.5,126.5C 44.551,126.307 44.551,125.807 48.5,125C 47.2341,124.691 46.0674,124.191 45,123.5C 43.121,126.066 41.2877,126.066 39.5,123.5C 46.5,117.5 53.5,111.5 60.5,105.5 Z"/></g>
<g><path style="opacity:1" fill="#feeeed" d="M 38.5,134.5 C 37.3406,136.25 35.674,137.25 33.5,137.5C 30.7146,138.306 27.8813,138.972 25,139.5C 23.6153,139.486 22.4486,139.152 21.5,138.5C 23.7157,137.797 25.549,136.464 27,134.5C 27.9145,138.185 28.5811,137.852 29,133.5C 31.4233,130.568 34.2566,128.235 37.5,126.5C 38.1667,126.667 38.8333,126.833 39.5,127C 38.4495,128.385 37.1161,129.385 35.5,130C 36.3862,131.615 37.3862,133.115 38.5,134.5 Z"/></g>
<g><path style="opacity:1" fill="#fcd3d2" d="M 39.5,123.5 C 41.2877,126.066 43.121,126.066 45,123.5C 46.0674,124.191 47.2341,124.691 48.5,125C 44.551,125.807 44.551,126.307 48.5,126.5C 46.0374,130.3 42.704,132.967 38.5,134.5C 37.3862,133.115 36.3862,131.615 35.5,130C 37.1161,129.385 38.4495,128.385 39.5,127C 38.8333,126.833 38.1667,126.667 37.5,126.5C 34.2566,128.235 31.4233,130.568 29,133.5C 28.5811,137.852 27.9145,138.185 27,134.5C 25.549,136.464 23.7157,137.797 21.5,138.5C 26.2713,134.231 30.938,129.731 35.5,125C 36.9007,124.59 38.234,124.09 39.5,123.5 Z"/></g>
<g><path style="opacity:1" fill="#fcd5d4" d="M 124.5,123.5 C 125.552,123.351 126.552,123.517 127.5,124C 131.395,128.065 135.395,131.898 139.5,135.5C 137.983,135.489 136.816,134.823 136,133.5C 135.431,137.361 134.598,137.361 133.5,133.5C 132.109,134.645 130.776,134.645 129.5,133.5C 130.744,131.867 130.244,130.867 128,130.5C 126.829,131.34 125.662,132.173 124.5,133C 125.942,133.377 126.942,134.21 127.5,135.5C 122.776,133.471 118.776,130.471 115.5,126.5C 119.371,125.14 119.038,124.306 114.5,124C 117.354,121.734 119.187,122.234 120,125.5C 121.622,124.901 123.122,124.234 124.5,123.5 Z"/></g>
<g><path style="opacity:1" fill="#fef9f9" d="M 139.5,135.5 C 140.5,135.833 141.167,136.5 141.5,137.5C 141.53,138.497 141.03,139.164 140,139.5C 135.712,138.459 131.545,137.126 127.5,135.5C 126.942,134.21 125.942,133.377 124.5,133C 125.662,132.173 126.829,131.34 128,130.5C 130.244,130.867 130.744,131.867 129.5,133.5C 130.776,134.645 132.109,134.645 133.5,133.5C 134.598,137.361 135.431,137.361 136,133.5C 136.816,134.823 137.983,135.489 139.5,135.5 Z"/></g>
<g><path style="opacity:1" fill="#fab9b7" d="M 127.5,135.5 C 131.545,137.126 135.712,138.459 140,139.5C 141.03,139.164 141.53,138.497 141.5,137.5C 142.404,138.209 142.737,139.209 142.5,140.5C 136.668,141 131.668,139.334 127.5,135.5 Z"/></g>
<g><path style="opacity:1" fill="#fab9b7" d="M 33.5,137.5 C 29.8279,140.671 25.6612,141.671 21,140.5C 20.3083,139.563 20.475,138.897 21.5,138.5C 22.4486,139.152 23.6153,139.486 25,139.5C 27.8813,138.972 30.7146,138.306 33.5,137.5 Z"/></g>
<g><path style="opacity:1" fill="#f8a5a3" d="M 173.5,-0.5 C 173.833,-0.5 174.167,-0.5 174.5,-0.5C 174.5,50.8333 174.5,102.167 174.5,153.5C 329.5,153.5 484.5,153.5 639.5,153.5C 639.5,153.833 639.5,154.167 639.5,154.5C 484.167,154.5 328.833,154.5 173.5,154.5C 173.5,102.833 173.5,51.1667 173.5,-0.5 Z"/></g>
<g><path style="opacity:1" fill="#018f25" d="M 639.5,316.5 C 639.5,370.833 639.5,425.167 639.5,479.5C 484.5,479.5 329.5,479.5 174.5,479.5C 174.5,425.167 174.5,370.833 174.5,316.5C 329.5,316.5 484.5,316.5 639.5,316.5 Z"/></g>
</svg>
