<?xml version="1.0" encoding="UTF-8"?>
<!DOCTYPE svg PUBLIC "-//W3C//DTD SVG 1.1//EN" "http://www.w3.org/Graphics/SVG/1.1/DTD/svg11.dtd">
<svg xmlns="http://www.w3.org/2000/svg" version="1.1" width="640px" height="480px" style="shape-rendering:geometricPrecision; text-rendering:geometricPrecision; image-rendering:optimizeQuality; fill-rule:evenodd; clip-rule:evenodd" xmlns:xlink="http://www.w3.org/1999/xlink">
<g><path style="opacity:1" fill="#fefffe" d="M -0.5,-0.5 C 46.1667,-0.5 92.8333,-0.5 139.5,-0.5C 139.5,159.5 139.5,319.5 139.5,479.5C 92.8333,479.5 46.1667,479.5 -0.5,479.5C -0.5,319.5 -0.5,159.5 -0.5,-0.5 Z"/></g>
<g><path style="opacity:1" fill="#0c590b" d="M 139.5,-0.5 C 306.167,-0.5 472.833,-0.5 639.5,-0.5C 639.5,159.5 639.5,319.5 639.5,479.5C 472.833,479.5 306.167,479.5 139.5,479.5C 139.5,319.5 139.5,159.5 139.5,-0.5 Z"/></g>
<g><path style="opacity:1" fill="#fdfdfd" d="M 294.5,130.5 C 295.239,130.369 295.906,130.536 296.5,131C 264.561,159.769 253.394,195.269 263,237.5C 276.392,280.559 305.226,306.392 349.5,315C 382.327,318.758 411.16,309.925 436,288.5C 423.705,315.453 403.538,334.286 375.5,345C 327.487,361.037 285.654,351.204 250,315.5C 218.542,277.409 212.209,235.409 231,189.5C 244.369,161.293 265.536,141.626 294.5,130.5 Z"/></g>
<g><path style="opacity:1" fill="#fafbfa" d="M 375.5,153.5 C 381.868,160.535 388.535,167.201 395.5,173.5C 403.201,170.432 410.868,167.266 418.5,164C 419.5,163.333 420.5,163.333 421.5,164C 416.633,172.038 411.967,180.205 407.5,188.5C 413.647,195.815 419.981,202.982 426.5,210C 417.031,209.128 407.698,207.295 398.5,204.5C 392.931,212.627 387.598,220.961 382.5,229.5C 381.441,219.778 380.107,210.112 378.5,200.5C 369.131,198.526 359.798,196.359 350.5,194C 359.23,189.644 368.064,185.477 377,181.5C 376.551,172.203 376.051,162.87 375.5,153.5 Z"/></g>
</svg>
