<?xml version="1.0" encoding="UTF-8"?>
<!DOCTYPE svg PUBLIC "-//W3C//DTD SVG 1.1//EN" "http://www.w3.org/Graphics/SVG/1.1/DTD/svg11.dtd">
<svg xmlns="http://www.w3.org/2000/svg" version="1.1" width="640px" height="480px" style="shape-rendering:geometricPrecision; text-rendering:geometricPrecision; image-rendering:optimizeQuality; fill-rule:evenodd; clip-rule:evenodd" xmlns:xlink="http://www.w3.org/1999/xlink">
<g><path style="opacity:1" fill="#fefefe" d="M -0.5,-0.5 C 212.833,-0.5 426.167,-0.5 639.5,-0.5C 639.5,0.833333 639.5,2.16667 639.5,3.5C 533.833,3.5 428.167,3.5 322.5,3.5C 322.5,77.1667 322.5,150.833 322.5,224.5C 215.833,224.5 109.167,224.5 2.5,224.5C 2.5,309.5 2.5,394.5 2.5,479.5C 1.5,479.5 0.5,479.5 -0.5,479.5C -0.5,319.5 -0.5,159.5 -0.5,-0.5 Z"/></g>
<g><path style="opacity:1" fill="#da0000" d="M 639.5,3.5 C 639.5,77.1667 639.5,150.833 639.5,224.5C 533.833,224.5 428.167,224.5 322.5,224.5C 322.5,150.833 322.5,77.1667 322.5,3.5C 428.167,3.5 533.833,3.5 639.5,3.5 Z"/></g>
<g><path style="opacity:1" fill="#0603ab" d="M 188.5,98.5 C 205.167,99.1667 221.833,99.8333 238.5,100.5C 224.804,109.68 211.471,119.346 198.5,129.5C 204.272,144.977 209.106,160.643 213,176.5C 199.722,166.783 186.222,157.45 172.5,148.5C 158.778,157.45 145.278,166.783 132,176.5C 135.693,161.743 140.027,147.076 145,132.5C 145.667,131.167 145.667,129.833 145,128.5C 131.745,119.122 118.578,109.622 105.5,100C 122.497,99.5001 139.497,99.3334 156.5,99.5C 161.358,83.4257 166.525,67.4257 172,51.5C 177.805,67.0819 183.305,82.7486 188.5,98.5 Z"/></g>
<g><path style="opacity:1" fill="#8989d8" d="M 188.5,98.5 C 205.513,98.1672 222.513,98.5005 239.5,99.5C 239.376,100.107 239.043,100.44 238.5,100.5C 221.833,99.8333 205.167,99.1667 188.5,98.5 Z"/></g>
<g><path style="opacity:1" fill="#413fbf" d="M 322.5,224.5 C 322.5,224.833 322.5,225.167 322.5,225.5C 216.167,225.5 109.833,225.5 3.5,225.5C 3.5,310.167 3.5,394.833 3.5,479.5C 3.16667,479.5 2.83333,479.5 2.5,479.5C 2.5,394.5 2.5,309.5 2.5,224.5C 109.167,224.5 215.833,224.5 322.5,224.5 Z"/></g>
<g><path style="opacity:1" fill="#0000ab" d="M 322.5,225.5 C 322.5,310.167 322.5,394.833 322.5,479.5C 216.167,479.5 109.833,479.5 3.5,479.5C 3.5,394.833 3.5,310.167 3.5,225.5C 109.833,225.5 216.167,225.5 322.5,225.5 Z"/></g>
<g><path style="opacity:1" fill="#ecd2dd" d="M 322.5,224.5 C 428.167,224.5 533.833,224.5 639.5,224.5C 639.5,224.833 639.5,225.167 639.5,225.5C 534.167,225.5 428.833,225.5 323.5,225.5C 323.5,310.167 323.5,394.833 323.5,479.5C 323.167,479.5 322.833,479.5 322.5,479.5C 322.5,394.833 322.5,310.167 322.5,225.5C 322.5,225.167 322.5,224.833 322.5,224.5 Z"/></g>
<g><path style="opacity:1" fill="#fefefe" d="M 639.5,225.5 C 639.5,310.167 639.5,394.833 639.5,479.5C 534.167,479.5 428.833,479.5 323.5,479.5C 323.5,394.833 323.5,310.167 323.5,225.5C 428.833,225.5 534.167,225.5 639.5,225.5 Z"/></g>
<g><path style="opacity:1" fill="#d80703" d="M 407.5,341.5 C 414.833,340.833 422.167,340.167 429.5,339.5C 438.857,339.832 448.19,339.498 457.5,338.5C 462.912,323.761 468.412,309.094 474,294.5C 479.671,309.348 484.838,324.348 489.5,339.5C 506.837,339.333 524.17,339.5 541.5,340C 527.913,349.043 514.413,358.21 501,367.5C 505.865,382.428 510.531,397.428 515,412.5C 501.333,403.5 487.667,394.5 474,385.5C 460.758,394.872 447.258,403.872 433.5,412.5C 437.081,397.746 441.748,383.08 447.5,368.5C 434.149,359.474 420.816,350.474 407.5,341.5 Z"/></g>
<g><path style="opacity:1" fill="#ea7676" d="M 429.5,339.5 C 422.167,340.167 414.833,340.833 407.5,341.5C 406.711,341.217 406.044,340.717 405.5,340C 413.493,339.5 421.493,339.334 429.5,339.5 Z"/></g>
</svg>
