<?xml version="1.0" encoding="UTF-8"?>
<!DOCTYPE svg PUBLIC "-//W3C//DTD SVG 1.1//EN" "http://www.w3.org/Graphics/SVG/1.1/DTD/svg11.dtd">
<svg xmlns="http://www.w3.org/2000/svg" version="1.1" width="640px" height="480px" style="shape-rendering:geometricPrecision; text-rendering:geometricPrecision; image-rendering:optimizeQuality; fill-rule:evenodd; clip-rule:evenodd" xmlns:xlink="http://www.w3.org/1999/xlink">
<g><path style="opacity:1" fill="#fe0100" d="M 0.5,0.5 C 0.5,0.166667 0.5,-0.166667 0.5,-0.5C 213.5,-0.5 426.5,-0.5 639.5,-0.5C 639.5,159.167 639.5,318.833 639.5,478.5C 426.482,319.142 213.482,159.809 0.5,0.5 Z"/></g>
<g><path style="opacity:0.999" fill="#000000" d="M 0.5,0.5 C 213.482,159.809 426.482,319.142 639.5,478.5C 639.5,478.833 639.5,479.167 639.5,479.5C 426.5,479.5 213.5,479.5 0.5,479.5C 0.5,319.833 0.5,160.167 0.5,0.5 Z"/></g>
<g><path style="opacity:1" fill="#ffcb00" d="M 425.5,40.5 C 427.199,40.3398 428.866,40.5065 430.5,41C 429.197,44.4684 429.197,47.9684 430.5,51.5C 429.627,53.4134 428.627,55.2467 427.5,57C 429.669,57.4294 431.669,56.9294 433.5,55.5C 434.24,58.845 433.907,62.1783 432.5,65.5C 434.754,65.246 437.087,65.246 439.5,65.5C 436.902,69.0925 435.902,72.9259 436.5,77C 438.246,77.4709 439.913,78.1376 441.5,79C 438.117,82.4819 436.784,86.6486 437.5,91.5C 438.978,91.238 440.311,91.5713 441.5,92.5C 440.41,93.6086 440.41,94.6086 441.5,95.5C 453.486,88.1266 466.152,86.6266 479.5,91C 480.308,91.3076 480.975,91.8076 481.5,92.5C 479.887,93.4274 478.221,94.2607 476.5,95C 485.521,100.844 494.188,107.178 502.5,114C 500.833,114.333 499.167,114.667 497.5,115C 503.357,122.023 509.024,129.19 514.5,136.5C 513.271,137.281 511.938,137.781 510.5,138C 514.585,148.585 519.252,158.918 524.5,169C 522.154,168.921 519.987,168.088 518,166.5C 517.886,169.833 518.219,173.166 519,176.5C 527.424,185.676 534.09,196.009 539,207.5C 544.403,232.523 534.903,249.023 510.5,257C 503.556,258.455 496.556,258.788 489.5,258C 486.221,257.027 483.221,255.527 480.5,253.5C 494.555,251.871 507.555,247.371 519.5,240C 524.862,235.61 527.528,229.943 527.5,223C 526.872,216.452 525.039,210.286 522,204.5C 518.833,217 511,224.833 498.5,228C 484.95,232.837 472.617,230.837 461.5,222C 473.397,223.355 484.73,221.355 495.5,216C 506.943,206.104 508.443,194.938 500,182.5C 492.958,176.479 484.958,172.146 476,169.5C 475.97,172.615 474.803,175.115 472.5,177C 475.833,181.667 479.167,186.333 482.5,191C 480.456,191.048 478.456,190.548 476.5,189.5C 477.276,194.845 478.943,200.179 481.5,205.5C 480.284,206.096 478.951,206.263 477.5,206C 479.235,208.637 480.568,211.47 481.5,214.5C 472.082,215.311 463.415,212.977 455.5,207.5C 454.751,209.012 453.584,210.012 452,210.5C 446.641,207.735 441.141,205.401 435.5,203.5C 435.993,205.806 436.326,208.139 436.5,210.5C 428.191,209.565 420.858,206.398 414.5,201C 407.222,192.276 400.555,183.109 394.5,173.5C 392.914,175.173 392.247,177.173 392.5,179.5C 389.167,179.167 385.833,178.833 382.5,178.5C 382.461,181.321 381.795,183.988 380.5,186.5C 377.905,185.287 375.405,183.953 373,182.5C 366.835,184.611 360.668,186.611 354.5,188.5C 354.33,187.178 354.663,186.011 355.5,185C 350.266,185.096 345.099,185.929 340,187.5C 337.759,187.32 337.259,186.487 338.5,185C 334.658,185.024 330.825,185.524 327,186.5C 326.5,186.167 326,185.833 325.5,185.5C 326.167,184.5 326.833,183.5 327.5,182.5C 323.878,181.675 320.211,181.175 316.5,181C 320.362,176.771 323.862,172.271 327,167.5C 329.466,158.414 333.633,150.248 339.5,143C 342.934,140.565 346.6,138.565 350.5,137C 359.206,137.237 367.872,137.903 376.5,139C 378.229,137.211 378.896,135.044 378.5,132.5C 370.976,130.803 365.31,126.637 361.5,120C 356.221,118.027 351.221,115.527 346.5,112.5C 356.501,111.759 366.501,111.093 376.5,110.5C 381.207,110.685 384.874,112.685 387.5,116.5C 389.743,117.474 392.076,117.808 394.5,117.5C 392.869,105.547 392.369,93.5472 393,81.5C 395.622,67.7547 401.788,55.9213 411.5,46C 415.931,43.2737 420.598,41.4404 425.5,40.5 Z"/></g>
<g><path style="opacity:1" fill="#ff2300" d="M 476.5,153.5 C 484.019,154.058 491.352,156.224 498.5,160C 502.361,162.729 504.695,166.396 505.5,171C 497.367,167.6 489.367,163.6 481.5,159C 479.598,157.27 477.931,155.437 476.5,153.5 Z"/></g>
<g><path style="opacity:1" fill="#f7f7f7" d="M 158.5,160.5 C 161.979,165.447 164.979,170.78 167.5,176.5C 173.801,177.679 180.135,178.679 186.5,179.5C 182.195,184.141 177.861,188.807 173.5,193.5C 174.36,198.347 175.36,203.18 176.5,208C 176.167,208.833 175.833,209.667 175.5,210.5C 170.499,207.749 165.332,205.415 160,203.5C 154.658,205.755 149.491,208.422 144.5,211.5C 144.167,210.5 143.833,209.5 143.5,208.5C 144.772,203.211 145.272,197.878 145,192.5C 141.167,188.667 137.333,184.833 133.5,181C 139.36,179.177 145.36,177.677 151.5,176.5C 153.845,171.145 156.179,165.812 158.5,160.5 Z"/></g>
<g><path style="opacity:1" fill="#f8f8f8" d="M 97.5,225.5 C 98.3764,225.369 99.0431,225.702 99.5,226.5C 101.833,231.833 104.167,237.167 106.5,242.5C 112.851,243.239 119.184,244.072 125.5,245C 120.511,248.989 115.845,253.322 111.5,258C 113.875,263.75 114.875,269.584 114.5,275.5C 109.622,272.562 104.622,269.895 99.5,267.5C 93.7969,270.102 88.2969,273.102 83,276.5C 83.263,270.184 84.4297,264.017 86.5,258C 81.5,253.667 76.5,249.333 71.5,245C 77.8033,244.058 84.1366,243.391 90.5,243C 93.5356,237.432 95.869,231.598 97.5,225.5 Z"/></g>
<g><path style="opacity:1" fill="#f6f6f6" d="M 226.5,231.5 C 229.392,235.602 232.059,239.935 234.5,244.5C 239.718,245.938 245.051,246.938 250.5,247.5C 246.958,251.387 243.291,255.22 239.5,259C 241.24,264.029 242.073,269.196 242,274.5C 237.579,272.039 233.079,269.706 228.5,267.5C 224.007,269.579 219.674,271.912 215.5,274.5C 215.167,273.5 214.833,272.5 214.5,271.5C 215.338,267.146 215.838,262.812 216,258.5C 212.201,255.703 208.701,252.536 205.5,249C 210.335,247.43 215.335,246.263 220.5,245.5C 222.701,240.891 224.701,236.225 226.5,231.5 Z"/></g>
<g><path style="opacity:1" fill="#f0f0f0" d="M 202.5,300.5 C 204.513,301.475 205.846,303.142 206.5,305.5C 208.772,306.485 211.105,307.319 213.5,308C 209.365,310.929 208.198,314.762 210,319.5C 208.247,318.373 206.413,317.373 204.5,316.5C 202.587,317.373 200.753,318.373 199,319.5C 199.576,314.486 197.743,310.653 193.5,308C 198.946,308.175 201.946,305.675 202.5,300.5 Z"/></g>
<g><path style="opacity:1" fill="#f7f7f7" d="M 157.5,348.5 C 160.266,353.117 162.266,358.117 163.5,363.5C 170.333,364 177,365.333 183.5,367.5C 179.5,371.167 175.5,374.833 171.5,378.5C 173.225,385.076 174.059,391.742 174,398.5C 169.586,395.376 165.086,392.376 160.5,389.5C 154.359,392.6 148.192,395.6 142,398.5C 142.843,392.797 143.843,387.13 145,381.5C 140.318,376.985 135.818,372.319 131.5,367.5C 136.802,366.671 142.136,366.171 147.5,366C 150.972,360.221 154.305,354.387 157.5,348.5 Z"/></g>
</svg>
