<?xml version="1.0" encoding="UTF-8"?>
<!DOCTYPE svg PUBLIC "-//W3C//DTD SVG 1.1//EN" "http://www.w3.org/Graphics/SVG/1.1/DTD/svg11.dtd">
<svg xmlns="http://www.w3.org/2000/svg" version="1.1" width="640px" height="480px" style="shape-rendering:geometricPrecision; text-rendering:geometricPrecision; image-rendering:optimizeQuality; fill-rule:evenodd; clip-rule:evenodd" xmlns:xlink="http://www.w3.org/1999/xlink">
<g><path style="opacity:1" fill="#d42b1d" d="M -0.5,-0.5 C 212.833,-0.5 426.167,-0.5 639.5,-0.5C 639.5,52.8333 639.5,106.167 639.5,159.5C 426.167,159.5 212.833,159.5 -0.5,159.5C -0.5,106.167 -0.5,52.8333 -0.5,-0.5 Z"/></g>
<g><path style="opacity:1" fill="#fefefe" d="M -0.5,159.5 C 212.833,159.5 426.167,159.5 639.5,159.5C 639.5,212.833 639.5,266.167 639.5,319.5C 426.167,319.5 212.833,319.5 -0.5,319.5C -0.5,266.167 -0.5,212.833 -0.5,159.5 Z"/></g>
<g><path style="opacity:1" fill="#fbfbfb" d="M 379.5,232.5 C 379.5,236.167 379.5,239.833 379.5,243.5C 377.044,269.908 363.377,287.741 338.5,297C 307.345,304.827 283.179,295.327 266,268.5C 262.748,261.825 260.582,254.825 259.5,247.5C 259.5,242.167 259.5,236.833 259.5,231.5C 266.115,199.052 285.948,181.719 319,179.5C 353.016,181.348 373.182,199.015 379.5,232.5 Z"/></g>
<g><path style="opacity:1" fill="#272727" d="M 380.5,228.5 C 380.768,230.099 380.434,231.432 379.5,232.5C 373.182,199.015 353.016,181.348 319,179.5C 285.948,181.719 266.115,199.052 259.5,231.5C 258.596,230.791 258.263,229.791 258.5,228.5C 263.68,204.813 277.68,188.646 300.5,180C 337.749,172.207 363.915,185.707 379,220.5C 379.822,223.117 380.322,225.784 380.5,228.5 Z"/></g>
<g><path style="opacity:1" fill="#f7f7f7" d="M 308.5,194.5 C 308.5,195.167 308.5,195.833 308.5,196.5C 308.5,197.833 308.5,199.167 308.5,200.5C 309.552,200.351 310.552,200.517 311.5,201C 309.148,201.24 307.148,202.073 305.5,203.5C 303.418,203.472 301.584,204.139 300,205.5C 299.601,205.272 299.435,204.938 299.5,204.5C 300.678,203.001 302.345,202.001 304.5,201.5C 302.209,199.712 300.043,197.712 298,195.5C 297.617,196.056 297.117,196.389 296.5,196.5C 295.494,196.062 295.494,195.396 296.5,194.5C 300.099,193.301 303.765,192.301 307.5,191.5C 307.263,192.791 307.596,193.791 308.5,194.5 Z"/></g>
<g><path style="opacity:1" fill="#787878" d="M 332.5,190.5 C 335.542,190.733 338.208,191.733 340.5,193.5C 336.918,193.118 334.251,192.118 332.5,190.5 Z"/></g>
<g><path style="opacity:1" fill="#7a7a7a" d="M 330.5,189.5 C 329.081,190.451 327.415,190.784 325.5,190.5C 319.756,189.117 314.09,189.45 308.5,191.5C 308.5,192.5 308.5,193.5 308.5,194.5C 307.596,193.791 307.263,192.791 307.5,191.5C 303.765,192.301 300.099,193.301 296.5,194.5C 307.093,188.695 318.426,187.028 330.5,189.5 Z"/></g>
<g><path style="opacity:1" fill="#1b1b1b" d="M 308.5,191.5 C 313.993,190.178 316.493,192.178 316,197.5C 315.184,198.823 314.017,199.489 312.5,199.5C 311.5,199.5 310.5,199.5 309.5,199.5C 309.737,198.209 309.404,197.209 308.5,196.5C 308.5,195.833 308.5,195.167 308.5,194.5C 308.5,193.5 308.5,192.5 308.5,191.5 Z"/></g>
<g><path style="opacity:1" fill="#f2f2f2" d="M 311.5,193.5 C 312.586,193.62 313.253,194.287 313.5,195.5C 313.167,196.167 312.833,196.833 312.5,197.5C 311.571,196.311 311.238,194.978 311.5,193.5 Z"/></g>
<g><path style="opacity:1" fill="#0f0f0f" d="M 341.5,196.5 C 344.797,196.632 346.463,198.298 346.5,201.5C 344.983,202.735 343.316,202.735 341.5,201.5C 340.833,202.167 340.167,202.833 339.5,203.5C 338.633,200.857 339.3,198.523 341.5,196.5 Z"/></g>
<g><path style="opacity:1" fill="#2a2a2a" d="M 299.5,204.5 C 298.85,204.804 298.183,205.137 297.5,205.5C 296.516,202.572 296.183,199.572 296.5,196.5C 297.117,196.389 297.617,196.056 298,195.5C 300.043,197.712 302.209,199.712 304.5,201.5C 302.345,202.001 300.678,203.001 299.5,204.5 Z"/></g>
<g><path style="opacity:1" fill="#989898" d="M 308.5,196.5 C 309.404,197.209 309.737,198.209 309.5,199.5C 310.5,199.5 311.5,199.5 312.5,199.5C 316.647,200.325 320.981,200.825 325.5,201C 318.748,201.284 312.082,202.118 305.5,203.5C 307.148,202.073 309.148,201.24 311.5,201C 310.552,200.517 309.552,200.351 308.5,200.5C 308.5,199.167 308.5,197.833 308.5,196.5 Z"/></g>
<g><path style="opacity:1" fill="#979797" d="M 342.5,194.5 C 346.049,195.723 349.049,197.723 351.5,200.5C 349.983,200.489 348.816,199.823 348,198.5C 347.768,199.737 347.268,200.737 346.5,201.5C 346.463,198.298 344.797,196.632 341.5,196.5C 341.833,195.833 342.167,195.167 342.5,194.5 Z"/></g>
<g><path style="opacity:1" fill="#8d8d8d" d="M 351.5,200.5 C 354.5,201.5 356.5,203.5 357.5,206.5C 356.295,204.862 354.962,204.529 353.5,205.5C 353.443,204.391 353.11,203.391 352.5,202.5C 352.167,201.833 351.833,201.167 351.5,200.5 Z"/></g>
<g><path style="opacity:1" fill="#f5f6f5" d="M 325.5,190.5 C 327.415,190.784 329.081,190.451 330.5,189.5C 331.492,189.328 332.158,189.662 332.5,190.5C 334.251,192.118 336.918,193.118 340.5,193.5C 341.492,193.328 342.158,193.662 342.5,194.5C 342.167,195.167 341.833,195.833 341.5,196.5C 339.3,198.523 338.633,200.857 339.5,203.5C 340.167,202.833 340.833,202.167 341.5,201.5C 343.316,202.735 344.983,202.735 346.5,201.5C 347.268,200.737 347.768,199.737 348,198.5C 348.816,199.823 349.983,200.489 351.5,200.5C 351.833,201.167 352.167,201.833 352.5,202.5C 349.699,203.735 347.032,205.235 344.5,207C 345.253,208.487 346.086,208.654 347,207.5C 348.801,209.109 349.967,210.776 350.5,212.5C 351.783,210.27 352.783,207.937 353.5,205.5C 354.962,204.529 356.295,204.862 357.5,206.5C 357.5,207.5 357.5,208.5 357.5,209.5C 355.095,210.398 353.095,211.898 351.5,214C 352.678,214.967 354.011,215.467 355.5,215.5C 354.295,216.995 354.295,218.328 355.5,219.5C 355.649,220.552 355.483,221.552 355,222.5C 354.581,221.328 353.915,220.328 353,219.5C 352.833,219.833 352.667,220.167 352.5,220.5C 354.897,224.523 356.397,228.856 357,233.5C 357.545,240.267 357.212,246.933 356,253.5C 356.973,251.608 357.64,249.608 358,247.5C 358.222,239.977 358.389,232.644 358.5,225.5C 358.272,227.355 358.939,228.188 360.5,228C 362.79,226.223 364.457,224.056 365.5,221.5C 365.833,221.5 366.167,221.5 366.5,221.5C 367.184,224.546 367.684,227.546 368,230.5C 364.197,227.425 361.364,228.092 359.5,232.5C 359.638,235.82 361.305,237.487 364.5,237.5C 364.657,236.127 364.49,234.793 364,233.5C 362.187,234.609 361.354,233.942 361.5,231.5C 363.167,231.5 364.833,231.5 366.5,231.5C 366.556,237.824 367.556,237.824 369.5,231.5C 370.338,231.842 370.672,232.508 370.5,233.5C 369.518,236.962 369.185,240.629 369.5,244.5C 367.5,244.5 365.5,244.5 363.5,244.5C 362.957,244.44 362.624,244.107 362.5,243.5C 364.396,242.534 366.396,242.201 368.5,242.5C 368.5,241.5 368.5,240.5 368.5,239.5C 361.341,237.82 359.007,240.32 361.5,247C 363.473,247.495 365.473,247.662 367.5,247.5C 368.097,247.735 368.43,248.235 368.5,249C 368.046,251.03 367.38,252.863 366.5,254.5C 364.903,252.236 362.903,250.236 360.5,248.5C 359.366,251.167 358.366,253.833 357.5,256.5C 356.778,256.082 356.278,255.416 356,254.5C 354.974,257.239 353.474,259.572 351.5,261.5C 347.833,264.5 344.5,267.833 341.5,271.5C 341.158,272.338 340.492,272.672 339.5,272.5C 337.181,272.992 335.181,273.992 333.5,275.5C 324.167,278.167 314.833,278.167 305.5,275.5C 303.819,273.992 301.819,272.992 299.5,272.5C 297.973,272.573 296.973,271.906 296.5,270.5C 293.871,267.369 291.038,264.369 288,261.5C 286.726,258.609 285.226,255.942 283.5,253.5C 280.833,244.167 280.833,234.833 283.5,225.5C 288.5,215.833 295.833,208.5 305.5,203.5C 312.082,202.118 318.748,201.284 325.5,201C 320.981,200.825 316.647,200.325 312.5,199.5C 314.017,199.489 315.184,198.823 316,197.5C 316.493,192.178 313.993,190.178 308.5,191.5C 314.09,189.45 319.756,189.117 325.5,190.5 Z"/></g>
<g><path style="opacity:1" fill="#c2c2c2" d="M 342.5,198.5 C 344.337,198.639 344.67,199.306 343.5,200.5C 342.702,200.043 342.369,199.376 342.5,198.5 Z"/></g>
<g><path style="opacity:1" fill="#1d1d1d" d="M 328.5,191.5 C 330.852,192.952 331.185,194.952 329.5,197.5C 330.833,198.167 332.167,198.833 333.5,199.5C 331.102,200.724 328.769,200.558 326.5,199C 327.554,196.618 328.221,194.118 328.5,191.5 Z"/></g>
<g><path style="opacity:1" fill="#161616" d="M 325.5,190.5 C 324.77,192.045 323.437,192.878 321.5,193C 322.624,193.249 323.624,193.749 324.5,194.5C 319.326,196.27 319.659,197.437 325.5,198C 323.19,198.497 320.857,198.663 318.5,198.5C 318.5,195.833 318.5,193.167 318.5,190.5C 320.833,190.5 323.167,190.5 325.5,190.5 Z"/></g>
<g><path style="opacity:1" fill="#707070" d="M 285.5,202.5 C 284.833,203.833 283.833,204.833 282.5,205.5C 282.5,203.5 283.5,202.5 285.5,202.5 Z"/></g>
<g><path style="opacity:1" fill="#8b8b8b" d="M 333.5,204.5 C 335.666,203.371 337.666,203.871 339.5,206C 337.494,205.85 335.494,205.35 333.5,204.5 Z"/></g>
<g><path style="opacity:1" fill="#262626" d="M 352.5,202.5 C 353.11,203.391 353.443,204.391 353.5,205.5C 352.783,207.937 351.783,210.27 350.5,212.5C 349.967,210.776 348.801,209.109 347,207.5C 346.086,208.654 345.253,208.487 344.5,207C 347.032,205.235 349.699,203.735 352.5,202.5 Z"/></g>
<g><path style="opacity:1" fill="#dbdbdb" d="M 296.5,194.5 C 295.494,195.396 295.494,196.062 296.5,196.5C 296.183,199.572 296.516,202.572 297.5,205.5C 298.183,205.137 298.85,204.804 299.5,204.5C 299.435,204.938 299.601,205.272 300,205.5C 301.584,204.139 303.418,203.472 305.5,203.5C 295.833,208.5 288.5,215.833 283.5,225.5C 283.167,225.5 282.833,225.5 282.5,225.5C 282.67,224.178 282.337,223.011 281.5,222C 275.398,219.276 273.065,221.109 274.5,227.5C 276.167,228.167 277.833,228.833 279.5,229.5C 280.107,229.376 280.44,229.043 280.5,228.5C 281.097,228.735 281.43,229.235 281.5,230C 280.902,235.313 280.235,240.479 279.5,245.5C 278.5,245.5 277.5,245.5 276.5,245.5C 276.616,242.09 274.95,240.756 271.5,241.5C 271.5,243.5 271.5,245.5 271.5,247.5C 274.167,247.5 276.833,247.5 279.5,247.5C 281.552,248.053 281.885,249.053 280.5,250.5C 280.103,249.475 279.437,249.308 278.5,250C 279.731,251.183 279.731,252.349 278.5,253.5C 277.833,252.5 277.167,251.5 276.5,250.5C 276.167,251.833 275.833,253.167 275.5,254.5C 273.366,250.589 272.699,250.589 273.5,254.5C 272.1,253.9 271.1,252.9 270.5,251.5C 268.688,240.242 269.688,229.242 273.5,218.5C 275.27,213.287 278.27,208.953 282.5,205.5C 283.833,204.833 284.833,203.833 285.5,202.5C 288.272,198.613 291.939,195.946 296.5,194.5 Z"/></g>
<g><path style="opacity:1" fill="#202020" d="M 288.5,201.5 C 293.492,201.579 293.492,202.579 288.5,204.5C 290.42,208.193 291.753,208.193 292.5,204.5C 293.5,204.5 294.5,204.5 295.5,204.5C 295.178,208.976 292.844,210.476 288.5,209C 285.914,206.506 285.914,204.006 288.5,201.5 Z"/></g>
<g><path style="opacity:1" fill="#1e1e1e" d="M 282.5,207.5 C 286.104,208.588 287.937,210.921 288,214.5C 285.555,213.023 283.388,211.19 281.5,209C 282.056,208.617 282.389,208.117 282.5,207.5 Z"/></g>
<g><path style="opacity:1" fill="#969696" d="M 341.5,208.5 C 341.897,207.475 342.563,207.308 343.5,208C 346.597,210.391 348.763,213.224 350,216.5C 347.297,213.629 344.464,210.962 341.5,208.5 Z"/></g>
<g><path style="opacity:1" fill="#848484" d="M 357.5,206.5 C 360.323,207.992 361.99,210.326 362.5,213.5C 362.167,213.5 361.833,213.5 361.5,213.5C 360.833,213.167 360.167,212.833 359.5,212.5C 359.573,210.973 358.906,209.973 357.5,209.5C 357.5,208.5 357.5,207.5 357.5,206.5 Z"/></g>
<g><path style="opacity:1" fill="#7ea78d" d="M 314.5,213.5 C 309.761,210.787 305.095,211.12 300.5,214.5C 299.893,214.376 299.56,214.043 299.5,213.5C 300.404,212.791 300.737,211.791 300.5,210.5C 302.827,210.335 304.993,209.669 307,208.5C 310.59,210.358 314.424,211.524 318.5,212C 317.255,212.791 315.922,213.291 314.5,213.5 Z"/></g>
<g><path style="opacity:1" fill="#202020" d="M 277.5,214.5 C 279.305,215.237 280.971,216.237 282.5,217.5C 283.719,216.737 284.719,215.737 285.5,214.5C 286.154,216.89 285.321,218.89 283,220.5C 280.766,219.299 278.599,217.965 276.5,216.5C 276.863,215.817 277.196,215.15 277.5,214.5 Z"/></g>
<g><path style="opacity:1" fill="#44885b" d="M 314.5,213.5 C 315.598,214.397 315.598,215.23 314.5,216C 312.212,216.822 309.878,217.489 307.5,218C 305.272,220.299 302.939,222.466 300.5,224.5C 297.742,223.033 298.075,222.367 301.5,222.5C 301.33,221.178 301.663,220.011 302.5,219C 306.985,216.624 310.985,214.791 314.5,213.5 Z"/></g>
<g><path style="opacity:1" fill="#151515" d="M 357.5,209.5 C 358.906,209.973 359.573,210.973 359.5,212.5C 360.167,212.833 360.833,213.167 361.5,213.5C 361.631,214.239 361.464,214.906 361,215.5C 358.492,216.036 356.659,217.369 355.5,219.5C 354.295,218.328 354.295,216.995 355.5,215.5C 354.011,215.467 352.678,214.967 351.5,214C 353.095,211.898 355.095,210.398 357.5,209.5 Z"/></g>
<g><path style="opacity:1" fill="#8b8b8b" d="M 359.5,212.5 C 359.053,214.973 358.053,215.14 356.5,213C 357.448,212.517 358.448,212.351 359.5,212.5 Z"/></g>
<g><path style="opacity:1" fill="#222222" d="M 365.5,221.5 C 364.457,224.056 362.79,226.223 360.5,228C 358.939,228.188 358.272,227.355 358.5,225.5C 359.043,225.44 359.376,225.107 359.5,224.5C 358.737,223.281 357.737,222.281 356.5,221.5C 359.537,220.259 362.537,220.259 365.5,221.5 Z"/></g>
<g><path style="opacity:1" fill="#292929" d="M 282.5,225.5 C 281.599,226.29 280.932,227.29 280.5,228.5C 280.44,229.043 280.107,229.376 279.5,229.5C 277.833,228.833 276.167,228.167 274.5,227.5C 273.065,221.109 275.398,219.276 281.5,222C 282.337,223.011 282.67,224.178 282.5,225.5 Z"/></g>
<g><path style="opacity:1" fill="#b7b7b7" d="M 361.5,213.5 C 361.833,213.5 362.167,213.5 362.5,213.5C 364.873,215.579 366.206,218.246 366.5,221.5C 366.167,221.5 365.833,221.5 365.5,221.5C 362.537,220.259 359.537,220.259 356.5,221.5C 357.737,222.281 358.737,223.281 359.5,224.5C 359.376,225.107 359.043,225.44 358.5,225.5C 358.389,232.644 358.222,239.977 358,247.5C 357.64,249.608 356.973,251.608 356,253.5C 357.212,246.933 357.545,240.267 357,233.5C 356.397,228.856 354.897,224.523 352.5,220.5C 352.667,220.167 352.833,219.833 353,219.5C 353.915,220.328 354.581,221.328 355,222.5C 355.483,221.552 355.649,220.552 355.5,219.5C 356.659,217.369 358.492,216.036 361,215.5C 361.464,214.906 361.631,214.239 361.5,213.5 Z"/></g>
<g><path style="opacity:1" fill="#86bc95" d="M 348.5,225.5 C 347.778,225.918 347.278,226.584 347,227.5C 346.421,226.072 346.588,224.738 347.5,223.5C 347.783,222.711 348.283,222.044 349,221.5C 349.195,222.819 349.028,224.153 348.5,225.5 Z"/></g>
<g><path style="opacity:1" fill="#67a07b" d="M 294.5,219.5 C 292.878,222.455 290.878,225.122 288.5,227.5C 287.903,227.265 287.57,226.765 287.5,226C 288.196,224.107 289.03,222.274 290,220.5C 290.333,220.833 290.667,221.167 291,221.5C 291.71,220.027 292.876,219.36 294.5,219.5 Z"/></g>
<g><path style="opacity:1" fill="#938942" d="M 320.5,229.5 C 319.833,229.5 319.167,229.5 318.5,229.5C 319.167,226.833 319.833,226.833 320.5,229.5 Z"/></g>
<g><path style="opacity:1" fill="#303030" d="M 366.5,221.5 C 368.41,224.452 369.41,227.786 369.5,231.5C 367.556,237.824 366.556,237.824 366.5,231.5C 364.833,231.5 363.167,231.5 361.5,231.5C 361.354,233.942 362.187,234.609 364,233.5C 364.49,234.793 364.657,236.127 364.5,237.5C 361.305,237.487 359.638,235.82 359.5,232.5C 361.364,228.092 364.197,227.425 368,230.5C 367.684,227.546 367.184,224.546 366.5,221.5 Z"/></g>
<g><path style="opacity:1" fill="#252525" d="M 271.5,230.5 C 277.981,229.474 280.314,231.974 278.5,238C 276.19,238.497 273.857,238.663 271.5,238.5C 271.5,237.5 271.5,236.5 271.5,235.5C 279.5,234.833 279.5,234.167 271.5,233.5C 271.5,232.5 271.5,231.5 271.5,230.5 Z"/></g>
<g><path style="opacity:1" fill="#ebcf14" d="M 318.5,229.5 C 319.167,229.5 319.833,229.5 320.5,229.5C 321.341,231.379 321.675,233.379 321.5,235.5C 324.187,235.336 326.854,235.503 329.5,236C 327.256,237.422 325.59,239.256 324.5,241.5C 326.056,243.998 326.89,246.665 327,249.5C 324.591,247.38 322.091,245.38 319.5,243.5C 317.063,244.803 314.896,246.47 313,248.5C 312.318,246.062 312.818,243.895 314.5,242C 313.35,239.684 311.683,237.85 309.5,236.5C 312.477,236.098 315.143,235.098 317.5,233.5C 317.433,232.041 317.766,230.708 318.5,229.5 Z"/></g>
<g><path style="opacity:1" fill="#19813a" d="M 314.5,213.5 C 310.985,214.791 306.985,216.624 302.5,219C 301.663,220.011 301.33,221.178 301.5,222.5C 298.075,222.367 297.742,223.033 300.5,224.5C 296.205,227.871 294.538,232.371 295.5,238C 295.043,245.192 297.043,251.525 301.5,257C 299.765,257.651 298.098,257.485 296.5,256.5C 295.374,257.808 295.374,259.142 296.5,260.5C 294.313,259.951 293.646,258.785 294.5,257C 293.141,255.796 292.141,254.296 291.5,252.5C 290.5,252 289.5,251.5 288.5,251C 289.416,250.722 290.082,250.222 290.5,249.5C 290.938,249.565 291.272,249.399 291.5,249C 289.376,246.436 288.042,243.603 287.5,240.5C 287.206,237.186 286.873,233.852 286.5,230.5C 287.612,229.735 288.279,228.735 288.5,227.5C 290.878,225.122 292.878,222.455 294.5,219.5C 294.709,218.078 295.209,216.745 296,215.5C 296.333,215.833 296.667,216.167 297,216.5C 297.667,215.167 298.333,213.833 299,212.5C 299.399,212.728 299.565,213.062 299.5,213.5C 299.56,214.043 299.893,214.376 300.5,214.5C 305.095,211.12 309.761,210.787 314.5,213.5 Z"/></g>
<g><path style="opacity:1" fill="#a49f81" d="M 317.5,233.5 C 315.143,235.098 312.477,236.098 309.5,236.5C 308.711,236.217 308.044,235.717 307.5,235C 310.919,234.752 314.253,234.252 317.5,233.5 Z"/></g>
<g><path style="opacity:1" fill="#838383" d="M 282.5,225.5 C 282.833,225.5 283.167,225.5 283.5,225.5C 280.833,234.833 280.833,244.167 283.5,253.5C 282.833,252.833 282.167,252.167 281.5,251.5C 280.833,251.5 280.5,251.167 280.5,250.5C 281.885,249.053 281.552,248.053 279.5,247.5C 279.5,246.833 279.5,246.167 279.5,245.5C 280.235,240.479 280.902,235.313 281.5,230C 281.43,229.235 281.097,228.735 280.5,228.5C 280.932,227.29 281.599,226.29 282.5,225.5 Z"/></g>
<g><path style="opacity:1" fill="#525252" d="M 258.5,228.5 C 258.263,229.791 258.596,230.791 259.5,231.5C 259.5,236.833 259.5,242.167 259.5,247.5C 258.662,247.842 258.328,248.508 258.5,249.5C 257.167,242.5 257.167,235.5 258.5,228.5 Z"/></g>
<g><path style="opacity:1" fill="#707070" d="M 380.5,228.5 C 381.451,229.919 381.784,231.585 381.5,233.5C 380.833,236.833 380.167,240.167 379.5,243.5C 379.5,239.833 379.5,236.167 379.5,232.5C 380.434,231.432 380.768,230.099 380.5,228.5 Z"/></g>
<g><path style="opacity:1" fill="#8db89d" d="M 287.5,240.5 C 288.042,243.603 289.376,246.436 291.5,249C 291.272,249.399 290.938,249.565 290.5,249.5C 290.04,248.235 288.707,247.069 286.5,246C 286.497,243.939 286.83,242.105 287.5,240.5 Z"/></g>
<g><path style="opacity:1" fill="#181818" d="M 363.5,244.5 C 365.219,245.022 366.552,246.022 367.5,247.5C 365.473,247.662 363.473,247.495 361.5,247C 359.007,240.32 361.341,237.82 368.5,239.5C 368.5,240.5 368.5,241.5 368.5,242.5C 366.396,242.201 364.396,242.534 362.5,243.5C 362.624,244.107 362.957,244.44 363.5,244.5 Z"/></g>
<g><path style="opacity:1" fill="#191919" d="M 279.5,245.5 C 279.5,246.167 279.5,246.833 279.5,247.5C 276.833,247.5 274.167,247.5 271.5,247.5C 271.5,245.5 271.5,243.5 271.5,241.5C 274.95,240.756 276.616,242.09 276.5,245.5C 277.5,245.5 278.5,245.5 279.5,245.5 Z"/></g>
<g><path style="opacity:1" fill="#8ebe9a" d="M 349.5,243.5 C 354.452,243.19 354.786,244.19 350.5,246.5C 350.565,246.938 350.399,247.272 350,247.5C 349.552,245.776 348.718,245.109 347.5,245.5C 347.855,244.478 348.522,243.811 349.5,243.5 Z"/></g>
<g><path style="opacity:1" fill="#686868" d="M 273.5,218.5 C 269.688,229.242 268.688,240.242 270.5,251.5C 268.571,245.085 268.071,238.418 269,231.5C 269.635,226.757 271.135,222.424 273.5,218.5 Z"/></g>
<g><path style="opacity:1" fill="#1d9542" d="M 347.5,223.5 C 346.588,224.738 346.421,226.072 347,227.5C 347.278,226.584 347.778,225.918 348.5,225.5C 348.81,226.738 349.31,226.738 350,225.5C 350.333,227.833 350.667,230.167 351,232.5C 351.893,231.289 352.726,231.289 353.5,232.5C 352.335,233.584 351.002,234.417 349.5,235C 350.109,237.058 351.109,237.891 352.5,237.5C 351.487,239.527 350.487,241.527 349.5,243.5C 348.522,243.811 347.855,244.478 347.5,245.5C 348.718,245.109 349.552,245.776 350,247.5C 350.399,247.272 350.565,246.938 350.5,246.5C 352.028,246.517 352.528,247.184 352,248.5C 350.167,250.333 348.333,252.167 346.5,254C 347.672,254.419 348.672,255.085 349.5,256C 347.5,256 345.5,256 343.5,256C 345.658,257.312 345.991,258.978 344.5,261C 340.916,262.073 337.25,262.74 333.5,263C 333.835,264.164 333.835,265.497 333.5,267C 330.05,267.175 326.717,267.342 323.5,267.5C 324,268.881 325,269.547 326.5,269.5C 328.155,268.772 329.821,268.605 331.5,269C 330.833,269.667 330.167,270.333 329.5,271C 326.338,271.602 323.338,271.102 320.5,269.5C 317.283,271.414 313.949,271.747 310.5,270.5C 309.702,270.043 309.369,269.376 309.5,268.5C 309.833,268.5 310.167,268.5 310.5,268.5C 313.423,270.101 316.09,269.768 318.5,267.5C 315.754,264.866 313.088,264.866 310.5,267.5C 308.004,266.42 305.67,265.086 303.5,263.5C 303.284,261.319 304.117,259.653 306,258.5C 307.843,260.171 310.009,261.171 312.5,261.5C 314.95,262.777 317.283,264.277 319.5,266C 320.5,266.667 321.5,266.667 322.5,266C 324.928,261.737 327.928,257.903 331.5,254.5C 334.14,256.622 333.806,258.456 330.5,260C 331.5,260.667 332.5,260.667 333.5,260C 334.345,255.806 336.345,252.306 339.5,249.5C 340.474,247.257 340.808,244.924 340.5,242.5C 341.5,242.5 342.5,242.5 343.5,242.5C 343.425,239.794 343.092,237.127 342.5,234.5C 343.552,234.649 344.552,234.483 345.5,234C 343.126,231.961 341.126,229.628 339.5,227C 340.167,226.333 340.833,225.667 341.5,225C 338.667,222.833 336.167,220.333 334,217.5C 333.517,216.552 333.351,215.552 333.5,214.5C 330.603,214.875 327.937,214.375 325.5,213C 325.903,211.396 327.236,210.229 329.5,209.5C 331.167,210.833 332.833,212.167 334.5,213.5C 335.62,212.167 336.953,211.667 338.5,212C 339.022,215.195 340.188,217.361 342,218.5C 342.667,217.167 343.667,216.167 345,215.5C 346.061,218.166 346.894,220.833 347.5,223.5 Z"/></g>
<g><path style="opacity:1" fill="#31854a" d="M 300.5,224.5 C 295.164,233.436 295.33,242.436 301,251.5C 304.812,254.969 308.645,258.302 312.5,261.5C 310.009,261.171 307.843,260.171 306,258.5C 304.117,259.653 303.284,261.319 303.5,263.5C 300.68,263.752 298.014,263.252 295.5,262C 296.167,261.667 296.833,261.333 297.5,261C 297.272,260.601 296.938,260.435 296.5,260.5C 295.374,259.142 295.374,257.808 296.5,256.5C 298.098,257.485 299.765,257.651 301.5,257C 297.043,251.525 295.043,245.192 295.5,238C 294.538,232.371 296.205,227.871 300.5,224.5 Z"/></g>
<g><path style="opacity:1" fill="#797979" d="M 370.5,233.5 C 371.25,245.253 368.75,256.253 363,266.5C 361.951,268.618 360.451,270.284 358.5,271.5C 358.733,269.938 359.4,268.605 360.5,267.5C 360.579,266.07 360.246,264.736 359.5,263.5C 360.376,262.749 361.376,262.249 362.5,262C 360.618,261.802 358.952,261.302 357.5,260.5C 359.857,260.663 362.19,260.497 364.5,260C 366.065,258.494 366.399,256.994 365.5,255.5C 365.5,254.833 365.833,254.5 366.5,254.5C 367.38,252.863 368.046,251.03 368.5,249C 368.43,248.235 368.097,247.735 367.5,247.5C 366.552,246.022 365.219,245.022 363.5,244.5C 365.5,244.5 367.5,244.5 369.5,244.5C 369.185,240.629 369.518,236.962 370.5,233.5 Z"/></g>
<g><path style="opacity:1" fill="#272727" d="M 381.5,233.5 C 382.287,262.764 369.621,283.931 343.5,297C 307.024,308.29 279.857,297.123 262,263.5C 260.203,258.977 259.036,254.31 258.5,249.5C 258.328,248.508 258.662,247.842 259.5,247.5C 260.582,254.825 262.748,261.825 266,268.5C 283.179,295.327 307.345,304.827 338.5,297C 363.377,287.741 377.044,269.908 379.5,243.5C 380.167,240.167 380.833,236.833 381.5,233.5 Z"/></g>
<g><path style="opacity:1" fill="#696969" d="M 342.5,284.5 C 332.898,289.718 322.565,291.551 311.5,290C 309.942,289.79 308.609,289.29 307.5,288.5C 313.484,289.332 319.484,289.499 325.5,289C 331.322,287.962 336.989,286.462 342.5,284.5 Z"/></g>
<g><path style="opacity:1" fill="#707070" d="M 307.5,288.5 C 303.56,288.242 299.893,287.076 296.5,285C 300.396,285.466 304.063,286.632 307.5,288.5 Z"/></g>
<g><path style="opacity:1" fill="#737373" d="M 347.5,281.5 C 346.341,283.25 344.674,284.25 342.5,284.5C 343.659,282.75 345.326,281.75 347.5,281.5 Z"/></g>
<g><path style="opacity:1" fill="#737373" d="M 351.5,278.5 C 350.738,280.262 349.404,281.262 347.5,281.5C 348.262,279.738 349.596,278.738 351.5,278.5 Z"/></g>
<g><path style="opacity:1" fill="#787878" d="M 286.5,277.5 C 288.487,278.164 290.154,279.331 291.5,281C 290.833,281.667 290.167,281.667 289.5,281C 287.937,280.241 286.937,279.074 286.5,277.5 Z"/></g>
<g><path style="opacity:1" fill="#858585" d="M 305.5,275.5 C 314.833,278.167 324.167,278.167 333.5,275.5C 331.852,276.927 329.852,277.76 327.5,278C 322.167,278.667 316.833,278.667 311.5,278C 309.148,277.76 307.148,276.927 305.5,275.5 Z"/></g>
<g><path style="opacity:1" fill="#8b8b8b" d="M 358.5,271.5 C 357.167,274.833 354.833,277.167 351.5,278.5C 353.5,275.833 355.833,273.5 358.5,271.5 Z"/></g>
<g><path style="opacity:1" fill="#969696" d="M 339.5,272.5 C 338.089,274.539 336.089,275.539 333.5,275.5C 335.181,273.992 337.181,272.992 339.5,272.5 Z"/></g>
<g><path style="opacity:1" fill="#8e8e8e" d="M 299.5,272.5 C 301.819,272.992 303.819,273.992 305.5,275.5C 302.911,275.539 300.911,274.539 299.5,272.5 Z"/></g>
<g><path style="opacity:1" fill="#7e7e7e" d="M 280.5,271.5 C 282.833,273.167 284.833,275.167 286.5,277.5C 283.5,276.5 281.5,274.5 280.5,271.5 Z"/></g>
<g><path style="opacity:1" fill="#e8f0ea" d="M 310.5,268.5 C 310.5,268.167 310.5,267.833 310.5,267.5C 313.088,264.866 315.754,264.866 318.5,267.5C 316.09,269.768 313.423,270.101 310.5,268.5 Z"/></g>
<g><path style="opacity:1" fill="#989898" d="M 351.5,261.5 C 349.167,265.833 345.833,269.167 341.5,271.5C 344.5,267.833 347.833,264.5 351.5,261.5 Z"/></g>
<g><path style="opacity:1" fill="#1d9a48" d="M 336.5,264.5 C 338.07,263.441 339.403,263.941 340.5,266C 338.934,266.3 337.601,265.8 336.5,264.5 Z"/></g>
<g><path style="opacity:1" fill="#7fb492" d="M 303.5,263.5 C 305.67,265.086 308.004,266.42 310.5,267.5C 310.5,267.833 310.5,268.167 310.5,268.5C 310.167,268.5 309.833,268.5 309.5,268.5C 306.738,267.62 304.071,266.454 301.5,265C 302.416,264.722 303.082,264.222 303.5,263.5 Z"/></g>
<g><path style="opacity:1" fill="#141414" d="M 357.5,260.5 C 358.952,261.302 360.618,261.802 362.5,262C 361.376,262.249 360.376,262.749 359.5,263.5C 360.246,264.736 360.579,266.07 360.5,267.5C 358.299,265.496 356.299,263.163 354.5,260.5C 355.425,259.438 356.425,259.438 357.5,260.5 Z"/></g>
<g><path style="opacity:1" fill="#c0c0c0" d="M 270.5,251.5 C 271.1,252.9 272.1,253.9 273.5,254.5C 273.418,256.252 274.251,257.252 276,257.5C 278.245,256.863 280.412,256.03 282.5,255C 281.663,253.989 281.33,252.822 281.5,251.5C 282.167,252.167 282.833,252.833 283.5,253.5C 285.226,255.942 286.726,258.609 288,261.5C 291.038,264.369 293.871,267.369 296.5,270.5C 293.167,268.167 289.833,265.833 286.5,263.5C 286.631,262.624 286.298,261.957 285.5,261.5C 284.391,262.59 283.391,262.59 282.5,261.5C 283.485,259.902 283.651,258.235 283,256.5C 280.963,258.436 278.797,260.102 276.5,261.5C 277.513,263.527 278.513,265.527 279.5,267.5C 279.062,267.435 278.728,267.601 278.5,268C 279.823,268.816 280.489,269.983 280.5,271.5C 275.064,265.962 271.731,259.295 270.5,251.5 Z"/></g>
<g><path style="opacity:1" fill="#1b1b1b" d="M 286.5,263.5 C 284.167,264.833 281.833,266.167 279.5,267.5C 278.513,265.527 277.513,263.527 276.5,261.5C 278.797,260.102 280.963,258.436 283,256.5C 283.651,258.235 283.485,259.902 282.5,261.5C 283.391,262.59 284.391,262.59 285.5,261.5C 286.298,261.957 286.631,262.624 286.5,263.5 Z"/></g>
<g><path style="opacity:1" fill="#989898" d="M 278.5,261.5 C 281.293,261.74 281.793,262.74 280,264.5C 278.961,263.756 278.461,262.756 278.5,261.5 Z"/></g>
<g><path style="opacity:1" fill="#181818" d="M 280.5,250.5 C 280.5,251.167 280.833,251.5 281.5,251.5C 281.33,252.822 281.663,253.989 282.5,255C 280.412,256.03 278.245,256.863 276,257.5C 274.251,257.252 273.418,256.252 273.5,254.5C 272.699,250.589 273.366,250.589 275.5,254.5C 275.833,253.167 276.167,251.833 276.5,250.5C 277.167,251.5 277.833,252.5 278.5,253.5C 279.731,252.349 279.731,251.183 278.5,250C 279.437,249.308 280.103,249.475 280.5,250.5 Z"/></g>
<g><path style="opacity:1" fill="#242424" d="M 366.5,254.5 C 365.833,254.5 365.5,254.833 365.5,255.5C 363.052,256.473 360.385,256.806 357.5,256.5C 358.366,253.833 359.366,251.167 360.5,248.5C 362.903,250.236 364.903,252.236 366.5,254.5 Z"/></g>
<g><path style="opacity:1" fill="#0037a8" d="M -0.5,319.5 C 212.833,319.5 426.167,319.5 639.5,319.5C 639.5,372.833 639.5,426.167 639.5,479.5C 426.167,479.5 212.833,479.5 -0.5,479.5C -0.5,426.167 -0.5,372.833 -0.5,319.5 Z"/></g>
</svg>
