<?xml version="1.0" encoding="UTF-8"?>
<!DOCTYPE svg PUBLIC "-//W3C//DTD SVG 1.1//EN" "http://www.w3.org/Graphics/SVG/1.1/DTD/svg11.dtd">
<svg xmlns="http://www.w3.org/2000/svg" version="1.1" width="640px" height="480px" style="shape-rendering:geometricPrecision; text-rendering:geometricPrecision; image-rendering:optimizeQuality; fill-rule:evenodd; clip-rule:evenodd" xmlns:xlink="http://www.w3.org/1999/xlink">
<g><path style="opacity:1" fill="#d81022" d="M -0.5,-0.5 C 70.5,-0.5 141.5,-0.5 212.5,-0.5C 212.5,159.5 212.5,319.5 212.5,479.5C 141.5,479.5 70.5,479.5 -0.5,479.5C -0.5,319.5 -0.5,159.5 -0.5,-0.5 Z"/></g>
<g><path style="opacity:1" fill="#fefdfd" d="M 212.5,-0.5 C 283.833,-0.5 355.167,-0.5 426.5,-0.5C 426.5,159.5 426.5,319.5 426.5,479.5C 355.167,479.5 283.833,479.5 212.5,479.5C 212.5,319.5 212.5,159.5 212.5,-0.5 Z"/></g>
<g><path style="opacity:1" fill="#d81022" d="M 426.5,-0.5 C 497.5,-0.5 568.5,-0.5 639.5,-0.5C 639.5,159.5 639.5,319.5 639.5,479.5C 568.5,479.5 497.5,479.5 426.5,479.5C 426.5,319.5 426.5,159.5 426.5,-0.5 Z"/></g>
<g><path style="opacity:1" fill="#fdfdfc" d="M 322.5,195.5 C 320.5,194.167 318.5,194.167 316.5,195.5C 316.461,194.417 316.127,193.417 315.5,192.5C 313.604,191.534 311.604,191.201 309.5,191.5C 305.884,189.555 303.884,186.555 303.5,182.5C 303.335,179.482 303.502,176.482 304,173.5C 305.743,171.679 307.243,169.679 308.5,167.5C 312.228,166.319 315.895,164.985 319.5,163.5C 323.422,165.06 327.422,166.56 331.5,168C 331.167,168.333 330.833,168.667 330.5,169C 331.833,169.667 332.833,170.667 333.5,172C 334.833,172.333 336.167,172.667 337.5,173C 335.232,176.071 334.899,179.404 336.5,183C 334.357,187.474 331.19,190.974 327,193.5C 324.535,190.999 323.035,191.666 322.5,195.5 Z"/></g>
<g><path style="opacity:1" fill="#8ab558" d="M 308.5,160.5 C 307.25,160.423 306.417,159.756 306,158.5C 305.716,160.886 304.716,161.552 303,160.5C 301.649,161.961 300.149,163.294 298.5,164.5C 297.417,165.365 297.251,166.365 298,167.5C 302.743,164.634 307.91,162.467 313.5,161C 312.756,159.961 311.756,159.461 310.5,159.5C 309.128,157.523 309.462,155.856 311.5,154.5C 312.552,154.351 313.552,154.517 314.5,155C 312.993,155.837 312.493,157.004 313,158.5C 315.242,155.165 318.075,154.665 321.5,157C 320.377,158.044 319.044,158.71 317.5,159C 319.402,159.199 320.902,160.033 322,161.5C 322.333,161.167 322.667,160.833 323,160.5C 325.069,161.264 327.236,161.764 329.5,162C 332.52,162.906 335.187,164.406 337.5,166.5C 339.111,165.68 339.778,164.346 339.5,162.5C 337.876,162.64 336.71,161.973 336,160.5C 334.284,161.552 333.284,160.886 333,158.5C 331.187,159.609 330.354,158.942 330.5,156.5C 330.5,155.5 330.5,154.5 330.5,153.5C 336.788,154.606 341.621,157.939 345,163.5C 345.333,163.167 345.667,162.833 346,162.5C 350.121,168.918 351.288,175.585 349.5,182.5C 349.291,183.994 348.624,185.161 347.5,186C 348.167,186.333 348.833,186.667 349.5,187C 347.659,190.841 344.826,193.674 341,195.5C 340.667,195.167 340.333,194.833 340,194.5C 339.691,195.766 339.191,196.933 338.5,198C 338.728,198.399 339.062,198.565 339.5,198.5C 337.034,199.634 334.367,199.801 331.5,199C 328.575,197.034 325.575,195.868 322.5,195.5C 323.035,191.666 324.535,190.999 327,193.5C 331.19,190.974 334.357,187.474 336.5,183C 334.899,179.404 335.232,176.071 337.5,173C 336.167,172.667 334.833,172.333 333.5,172C 332.833,170.667 331.833,169.667 330.5,169C 330.833,168.667 331.167,168.333 331.5,168C 327.422,166.56 323.422,165.06 319.5,163.5C 315.895,164.985 312.228,166.319 308.5,167.5C 307.243,169.679 305.743,171.679 304,173.5C 303.502,176.482 303.335,179.482 303.5,182.5C 302.414,182.62 301.747,183.287 301.5,184.5C 302.331,186.473 302.498,188.473 302,190.5C 301.667,189.833 301.333,189.167 301,188.5C 299.006,191.084 298.506,190.918 299.5,188C 299.241,186.739 298.574,185.739 297.5,185C 298.293,183.915 298.96,182.748 299.5,181.5C 298.5,180.167 297.5,178.833 296.5,177.5C 297.313,176.186 298.313,175.019 299.5,174C 294.734,173.854 294.401,172.354 298.5,169.5C 296.373,166.535 295.206,166.869 295,170.5C 294.667,170.167 294.333,169.833 294,169.5C 292.965,171.891 292.798,174.224 293.5,176.5C 291.525,177.788 291.525,179.455 293.5,181.5C 293.167,182.167 292.833,182.833 292.5,183.5C 293.737,184.281 294.737,185.281 295.5,186.5C 294.975,187.192 294.308,187.692 293.5,188C 295.002,188.583 296.335,189.416 297.5,190.5C 297.291,191.086 296.957,191.586 296.5,192C 298.246,192.471 299.913,193.138 301.5,194C 300.207,194.49 298.873,194.657 297.5,194.5C 293.758,193.261 291.091,190.761 289.5,187C 290.167,186.667 290.833,186.333 291.5,186C 290.376,185.161 289.709,183.994 289.5,182.5C 288.636,178.94 288.302,175.44 288.5,172C 290.074,168.878 291.574,165.712 293,162.5C 293.333,162.833 293.667,163.167 294,163.5C 297.379,157.939 302.212,154.606 308.5,153.5C 308.5,155.833 308.5,158.167 308.5,160.5 Z"/></g>
<g><path style="opacity:1" fill="#cfd08f" d="M 308.5,160.5 C 309.492,160.672 310.158,160.338 310.5,159.5C 311.756,159.461 312.756,159.961 313.5,161C 307.91,162.467 302.743,164.634 298,167.5C 297.251,166.365 297.417,165.365 298.5,164.5C 300.149,163.294 301.649,161.961 303,160.5C 304.716,161.552 305.716,160.886 306,158.5C 306.417,159.756 307.25,160.423 308.5,160.5 Z"/></g>
<g><path style="opacity:1" fill="#b1c477" d="M 311.5,154.5 C 314.128,153.466 316.795,153.799 319.5,155.5C 321.432,154.634 323.432,153.967 325.5,153.5C 327.357,154.267 329.024,155.267 330.5,156.5C 330.354,158.942 331.187,159.609 333,158.5C 333.284,160.886 334.284,161.552 336,160.5C 336.71,161.973 337.876,162.64 339.5,162.5C 339.778,164.346 339.111,165.68 337.5,166.5C 335.187,164.406 332.52,162.906 329.5,162C 327.236,161.764 325.069,161.264 323,160.5C 322.667,160.833 322.333,161.167 322,161.5C 320.902,160.033 319.402,159.199 317.5,159C 319.044,158.71 320.377,158.044 321.5,157C 318.075,154.665 315.242,155.165 313,158.5C 312.493,157.004 312.993,155.837 314.5,155C 313.552,154.517 312.552,154.351 311.5,154.5 Z"/></g>
<g><path style="opacity:1" fill="#cbd195" d="M 340.5,164.5 C 343.288,166.852 344.955,169.852 345.5,173.5C 342.664,173.202 342.164,173.869 344,175.5C 344.718,174.549 345.551,174.383 346.5,175C 343.707,177.734 344.041,178.734 347.5,178C 345.854,179.555 345.521,181.221 346.5,183C 345.124,185.543 343.957,185.709 343,183.5C 342.683,185.301 342.016,185.634 341,184.5C 340.5,183.5 340,182.5 339.5,181.5C 339.938,180.494 340.604,180.494 341.5,181.5C 342.711,180.726 342.711,179.893 341.5,179C 342.167,178.667 342.833,178.333 343.5,178C 341.437,175.939 339.77,173.606 338.5,171C 341.551,169.483 342.217,167.316 340.5,164.5 Z"/></g>
<g><path style="opacity:1" fill="#b9c67c" d="M 303.5,182.5 C 303.884,186.555 305.884,189.555 309.5,191.5C 307.027,191.604 306.361,192.604 307.5,194.5C 307,195.5 306.5,196.5 306,197.5C 303.726,196.189 301.56,196.189 299.5,197.5C 298.599,196.71 297.932,195.71 297.5,194.5C 298.873,194.657 300.207,194.49 301.5,194C 299.913,193.138 298.246,192.471 296.5,192C 296.957,191.586 297.291,191.086 297.5,190.5C 296.335,189.416 295.002,188.583 293.5,188C 294.308,187.692 294.975,187.192 295.5,186.5C 294.737,185.281 293.737,184.281 292.5,183.5C 292.833,182.833 293.167,182.167 293.5,181.5C 291.525,179.455 291.525,177.788 293.5,176.5C 292.798,174.224 292.965,171.891 294,169.5C 294.333,169.833 294.667,170.167 295,170.5C 295.206,166.869 296.373,166.535 298.5,169.5C 294.401,172.354 294.734,173.854 299.5,174C 298.313,175.019 297.313,176.186 296.5,177.5C 297.5,178.833 298.5,180.167 299.5,181.5C 298.96,182.748 298.293,183.915 297.5,185C 298.574,185.739 299.241,186.739 299.5,188C 298.506,190.918 299.006,191.084 301,188.5C 301.333,189.167 301.667,189.833 302,190.5C 302.498,188.473 302.331,186.473 301.5,184.5C 301.747,183.287 302.414,182.62 303.5,182.5 Z"/></g>
<g><path style="opacity:1" fill="#93b557" d="M 309.5,191.5 C 311.604,191.201 313.604,191.534 315.5,192.5C 316.127,193.417 316.461,194.417 316.5,195.5C 311.621,198.718 306.288,199.718 300.5,198.5C 300.5,197.833 300.167,197.5 299.5,197.5C 301.56,196.189 303.726,196.189 306,197.5C 306.5,196.5 307,195.5 307.5,194.5C 306.361,192.604 307.027,191.604 309.5,191.5 Z"/></g>
<g><path style="opacity:1" fill="#94cda6" d="M 373.5,209.5 C 371.882,207.344 372.216,205.677 374.5,204.5C 374.5,204.167 374.5,203.833 374.5,203.5C 377.107,202.198 379.773,202.364 382.5,204C 382.167,204.333 381.833,204.667 381.5,205C 383.329,206.113 384.163,207.613 384,209.5C 382.667,208.167 381.333,206.833 380,205.5C 379,208.64 376.833,209.973 373.5,209.5 Z"/></g>
<g><path style="opacity:1" fill="#cd1e25" d="M 374.5,204.5 C 375.5,204.5 376.5,204.5 377.5,204.5C 377.778,206.346 377.111,207.68 375.5,208.5C 374.571,207.311 374.238,205.978 374.5,204.5 Z"/></g>
<g><path style="opacity:1" fill="#32ac51" d="M 303.5,308.5 C 306.353,309.953 309.353,311.119 312.5,312C 313.423,314.041 313.756,316.208 313.5,318.5C 308.271,319.976 303.605,318.976 299.5,315.5C 301.199,315.66 302.866,315.494 304.5,315C 300.914,313.892 297.247,313.392 293.5,313.5C 292.833,313.5 292.167,313.5 291.5,313.5C 275.239,310.869 261.239,303.702 249.5,292C 254.954,292.758 260.288,294.258 265.5,296.5C 266.696,296.154 266.696,295.654 265.5,295C 257.221,291.527 249.221,287.527 241.5,283C 244.877,282.631 248.21,282.631 251.5,283C 246.47,279.816 241.804,276.149 237.5,272C 239.811,272.155 242.144,272.155 244.5,272C 240.833,268.333 237.167,264.667 233.5,261C 239.887,262.194 245.554,265.027 250.5,269.5C 250.833,269.167 251.167,268.833 251.5,268.5C 246.716,261.281 241.216,254.614 235,248.5C 234.261,250.221 233.427,251.887 232.5,253.5C 230.564,250.792 230.064,247.792 231,244.5C 232.509,243.91 234.009,243.244 235.5,242.5C 234.294,239.921 232.961,237.421 231.5,235C 233.655,234.884 235.655,235.217 237.5,236C 233.285,232.406 231.118,227.906 231,222.5C 237.093,228.593 242.593,234.093 247.5,239C 244.917,231.666 241.417,224.833 237,218.5C 236.261,220.221 235.427,221.887 234.5,223.5C 232.898,220.662 232.398,217.662 233,214.5C 234.011,213.663 235.178,213.33 236.5,213.5C 236.38,211.801 236.046,210.135 235.5,208.5C 236.363,206.128 237.529,206.128 239,208.5C 239.192,206.423 239.692,204.423 240.5,202.5C 241.086,202.709 241.586,203.043 242,203.5C 242.054,190.792 244.054,190.792 248,203.5C 248.29,193.924 251.624,185.59 258,178.5C 257.892,182.157 257.892,185.823 258,189.5C 263.352,181.789 270.518,176.955 279.5,175C 275.656,177.422 271.99,180.089 268.5,183C 265.833,186.333 263.167,189.667 260.5,193C 264.622,190.786 268.955,188.62 273.5,186.5C 274.167,186.667 274.833,186.833 275.5,187C 272.5,189.333 269.5,191.667 266.5,194C 269.693,192.752 273.026,191.419 276.5,190C 277.833,189.333 279.167,189.333 280.5,190C 272.255,195.035 265.421,201.535 260,209.5C 259.333,210.167 259.333,210.833 260,211.5C 262.659,207.434 266.159,205.434 270.5,205.5C 262.748,212.681 257.915,221.348 256,231.5C 258.306,226.694 261.806,223.027 266.5,220.5C 266.833,220.833 267.167,221.167 267.5,221.5C 264.822,224.534 262.989,227.867 262,231.5C 264.274,227.848 267.441,226.015 271.5,226C 266.611,230.623 263.445,236.123 262,242.5C 265.096,237.213 269.596,234.38 275.5,234C 270.725,236.751 267.558,240.584 266,245.5C 267.88,242.808 270.38,241.641 273.5,242C 266.789,248.801 263.622,256.967 264,266.5C 264.956,263.623 266.289,260.956 268,258.5C 266.797,272.685 270.464,285.352 279,296.5C 285.651,303.575 293.818,307.575 303.5,308.5 Z"/></g>
<g><path style="opacity:1" fill="#d6be45" d="M 300.5,198.5 C 306.288,199.718 311.621,198.718 316.5,195.5C 318.5,194.167 320.5,194.167 322.5,195.5C 325.575,195.868 328.575,197.034 331.5,199C 334.367,199.801 337.034,199.634 339.5,198.5C 342.992,197.437 346.326,196.27 349.5,195C 353.977,200.978 358.643,206.811 363.5,212.5C 360.262,215.909 358.095,219.909 357,224.5C 356.195,232.263 356.695,239.93 358.5,247.5C 357.833,247.5 357.167,247.5 356.5,247.5C 352.719,235.151 354.052,223.485 360.5,212.5C 356.939,206.763 352.772,201.429 348,196.5C 339.436,202.755 330.603,203.088 321.5,197.5C 320.501,214.153 320.167,230.82 320.5,247.5C 319.833,247.5 319.167,247.5 318.5,247.5C 318.833,230.82 318.499,214.153 317.5,197.5C 308.275,201.768 299.275,201.435 290.5,196.5C 286.082,201.576 282.082,206.909 278.5,212.5C 284.948,223.486 286.281,235.153 282.5,247.5C 281.833,247.167 281.167,246.833 280.5,246.5C 282.348,239.28 282.848,231.947 282,224.5C 280.61,220.053 278.444,216.053 275.5,212.5C 280.357,206.811 285.023,200.978 289.5,195C 292.866,196.62 296.533,197.787 300.5,198.5 Z"/></g>
<g><path style="opacity:1" fill="#fbfbf5" d="M 356.5,247.5 C 344.5,247.5 332.5,247.5 320.5,247.5C 320.167,230.82 320.501,214.153 321.5,197.5C 330.603,203.088 339.436,202.755 348,196.5C 352.772,201.429 356.939,206.763 360.5,212.5C 354.052,223.485 352.719,235.151 356.5,247.5 Z"/></g>
<g><path style="opacity:1" fill="#b6ba64" d="M 339.5,218.5 C 338.508,210.542 337.508,210.542 336.5,218.5C 334.947,220.385 332.947,221.385 330.5,221.5C 329.555,219.221 327.888,217.554 325.5,216.5C 326.518,215.148 327.851,214.148 329.5,213.5C 327.328,213.324 324.995,213.157 322.5,213C 324.768,211.442 325.934,209.276 326,206.5C 327.079,208.394 328.413,208.727 330,207.5C 331.683,209.514 333.683,211.18 336,212.5C 336.374,211.584 336.874,210.75 337.5,210C 331.854,209.11 331.521,208.11 336.5,207C 333.761,202.175 334.261,201.675 338,205.5C 338.669,202.733 339.836,202.233 341.5,204C 341.241,205.261 340.574,206.261 339.5,207C 340.833,207.333 342.167,207.667 343.5,208C 342.304,208.654 342.304,209.154 343.5,209.5C 344.478,209.023 345.311,208.357 346,207.5C 346.333,208.833 346.667,210.167 347,211.5C 347.26,209.382 348.26,207.716 350,206.5C 350.711,208.367 350.211,209.867 348.5,211C 349.938,211.219 351.271,211.719 352.5,212.5C 350.865,213.681 349.198,213.681 347.5,212.5C 346.692,212.808 346.025,213.308 345.5,214C 351.255,215.486 351.589,217.319 346.5,219.5C 345.084,217.861 343.417,217.027 341.5,217C 345.147,220.868 344.481,221.368 339.5,218.5 Z"/></g>
<g><path style="opacity:1" fill="#a7874e" d="M 339.5,218.5 C 338.585,223.319 338.585,227.986 339.5,232.5C 339.372,236.881 339.705,241.215 340.5,245.5C 338.833,245.5 337.167,245.5 335.5,245.5C 335.5,240.833 335.5,236.167 335.5,231.5C 336.15,229.565 336.483,227.565 336.5,225.5C 336.5,223.167 336.5,220.833 336.5,218.5C 337.508,210.542 338.508,210.542 339.5,218.5 Z"/></g>
<g><path style="opacity:1" fill="#127fa4" d="M 318.5,247.5 C 306.5,247.5 294.5,247.5 282.5,247.5C 286.281,235.153 284.948,223.486 278.5,212.5C 282.082,206.909 286.082,201.576 290.5,196.5C 299.275,201.435 308.275,201.768 317.5,197.5C 318.499,214.153 318.833,230.82 318.5,247.5 Z"/></g>
<g><path style="opacity:1" fill="#d08f2f" d="M 309.5,223.5 C 309.278,220.924 307.945,220.09 305.5,221C 303.845,222.444 303.178,224.278 303.5,226.5C 302.778,226.918 302.278,227.584 302,228.5C 301.667,227.167 301.333,225.833 301,224.5C 297.36,226.143 294.193,225.476 291.5,222.5C 290.828,225.897 289.995,229.23 289,232.5C 288.817,229.635 288.317,226.969 287.5,224.5C 286.12,224.038 285.453,223.038 285.5,221.5C 286.219,219.272 287.552,217.439 289.5,216C 294.943,215.244 300.277,215.744 305.5,217.5C 306.167,217.167 306.833,216.833 307.5,216.5C 308.167,213.5 308.833,210.5 309.5,207.5C 309.167,206.833 308.833,206.167 308.5,205.5C 313.178,203.833 315.844,205.5 316.5,210.5C 315.325,210.281 314.325,210.614 313.5,211.5C 313.007,215.885 311.674,219.885 309.5,223.5 Z"/></g>
<g><path style="opacity:1" fill="#fdfaf5" d="M 309.5,223.5 C 308.038,224.458 306.705,225.624 305.5,227C 304.563,227.692 303.897,227.525 303.5,226.5C 303.178,224.278 303.845,222.444 305.5,221C 307.945,220.09 309.278,220.924 309.5,223.5 Z"/></g>
<g><path style="opacity:1" fill="#fafaf3" d="M 336.5,218.5 C 336.5,220.833 336.5,223.167 336.5,225.5C 334.463,224.154 332.463,222.82 330.5,221.5C 332.947,221.385 334.947,220.385 336.5,218.5 Z"/></g>
<g><path style="opacity:1" fill="#b2bc65" d="M 330.5,221.5 C 332.463,222.82 334.463,224.154 336.5,225.5C 336.483,227.565 336.15,229.565 335.5,231.5C 334.735,232.66 333.735,233.66 332.5,234.5C 331.808,233.975 331.308,233.308 331,232.5C 330.107,233.711 329.274,233.711 328.5,232.5C 329.313,231.186 330.313,230.019 331.5,229C 331,228.5 330.5,228 330,227.5C 328.263,232.126 325.763,232.626 322.5,229C 323.5,227.333 324.833,226 326.5,225C 324.381,224.902 322.714,224.069 321.5,222.5C 322.651,221.269 323.817,221.269 325,222.5C 325.197,217.822 326.197,217.488 328,221.5C 328.77,220.402 329.603,220.402 330.5,221.5 Z"/></g>
<g><path style="opacity:1" fill="#b7bc69" d="M 339.5,218.5 C 339.337,220.857 339.503,223.19 340,225.5C 343.038,221.65 344.705,221.983 345,226.5C 345.333,224.833 345.667,223.167 346,221.5C 347.512,220.743 348.846,219.743 350,218.5C 350.333,219.833 350.667,221.167 351,222.5C 352.183,221.269 353.349,221.269 354.5,222.5C 353.286,224.069 351.619,224.902 349.5,225C 350.687,226.019 351.687,227.186 352.5,228.5C 351.726,229.711 350.893,229.711 350,228.5C 349.383,229.449 349.549,230.282 350.5,231C 348.924,231.44 347.59,232.273 346.5,233.5C 345.197,232.282 344.197,232.615 343.5,234.5C 342.378,233.37 341.044,232.703 339.5,232.5C 338.585,227.986 338.585,223.319 339.5,218.5 Z"/></g>
<g><path style="opacity:1" fill="#caba73" d="M 303.5,226.5 C 303.897,227.525 304.563,227.692 305.5,227C 306.705,225.624 308.038,224.458 309.5,223.5C 309.108,225.179 308.608,226.846 308,228.5C 307,229.833 306,229.833 305,228.5C 304.333,232.833 304.333,237.167 305,241.5C 306.836,243.131 306.336,243.798 303.5,243.5C 303.477,241.073 302.977,238.74 302,236.5C 300.568,239.002 300.402,241.502 301.5,244C 300.552,244.483 299.552,244.649 298.5,244.5C 299.592,239.492 299.592,234.492 298.5,229.5C 297.167,228.833 295.833,228.167 294.5,227.5C 292.013,232.721 292.013,237.887 294.5,243C 293.551,243.617 292.718,243.451 292,242.5C 291.461,239.471 290.794,236.471 290,233.5C 288.59,237.096 289.09,240.596 291.5,244C 290.551,244.617 289.718,244.451 289,243.5C 287.767,241.134 286.934,238.634 286.5,236C 287.31,232.208 287.644,228.375 287.5,224.5C 288.317,226.969 288.817,229.635 289,232.5C 289.995,229.23 290.828,225.897 291.5,222.5C 294.193,225.476 297.36,226.143 301,224.5C 301.333,225.833 301.667,227.167 302,228.5C 302.278,227.584 302.778,226.918 303.5,226.5 Z"/></g>
<g><path style="opacity:1" fill="#b83a2a" d="M 394.5,237.5 C 395.167,237.5 395.5,237.833 395.5,238.5C 395.5,239.5 395.5,240.5 395.5,241.5C 393.654,241.778 392.32,241.111 391.5,239.5C 392.005,238.081 393.005,237.415 394.5,237.5 Z"/></g>
<g><path style="opacity:1" fill="#2baa50" d="M 387.5,197.5 C 388.5,197.5 389.5,197.5 390.5,197.5C 390.567,196.041 390.234,194.708 389.5,193.5C 391.132,194.446 392.799,195.446 394.5,196.5C 395.782,197.958 395.782,199.292 394.5,200.5C 394.5,199.5 394.5,198.5 394.5,197.5C 393.5,197.5 392.5,197.5 391.5,197.5C 391.5,198.5 391.5,199.5 391.5,200.5C 389.616,201.382 388.283,202.882 387.5,205C 388.825,204.852 389.992,205.018 391,205.5C 392.171,207.842 393.338,210.176 394.5,212.5C 395.85,211.05 397.516,210.383 399.5,210.5C 401.38,215.763 401.713,221.097 400.5,226.5C 402.355,226.272 403.188,226.939 403,228.5C 400.638,232.027 397.804,235.027 394.5,237.5C 393.005,237.415 392.005,238.081 391.5,239.5C 392.32,241.111 393.654,241.778 395.5,241.5C 395.5,240.5 395.5,239.5 395.5,238.5C 396.158,239.398 396.824,240.398 397.5,241.5C 398.833,240.833 400.167,240.167 401.5,239.5C 401.833,240 402.167,240.5 402.5,241C 401.652,243.77 401.319,246.603 401.5,249.5C 403.677,249.414 405.677,248.747 407.5,247.5C 407.958,253.694 406.791,259.694 404,265.5C 401.564,268.447 398.731,270.78 395.5,272.5C 392.246,274.029 388.913,275.362 385.5,276.5C 390.09,270.896 394.757,265.23 399.5,259.5C 399.333,259.167 399.167,258.833 399,258.5C 395.368,263.134 391.368,267.467 387,271.5C 386.333,270.167 385.667,270.167 385,271.5C 383.234,273.596 381.901,275.929 381,278.5C 382.217,268.57 382.551,258.57 382,248.5C 381.912,258.113 380.745,267.446 378.5,276.5C 378.795,278.735 378.461,280.735 377.5,282.5C 377.66,280.801 377.494,279.134 377,277.5C 376.329,276.748 375.496,276.414 374.5,276.5C 375.234,275.292 375.567,273.959 375.5,272.5C 373.027,272.088 371.694,273.088 371.5,275.5C 370.065,273.335 370.731,271.835 373.5,271C 371.273,268.436 369.439,265.603 368,262.5C 366.407,256.395 365.24,250.228 364.5,244C 364.667,241.833 364.833,239.667 365,237.5C 365.667,238.167 366.333,238.833 367,239.5C 368.128,237.655 368.628,235.655 368.5,233.5C 371.642,233.799 373.809,235.466 375,238.5C 375.423,237.044 376.256,236.544 377.5,237C 379.951,241.609 382.951,245.776 386.5,249.5C 388.162,245.554 388.496,241.554 387.5,237.5C 377.885,236.541 370.885,231.874 366.5,223.5C 367.325,222.614 368.325,222.281 369.5,222.5C 369.201,220.396 369.534,218.396 370.5,216.5C 372.198,217.681 373.865,217.681 375.5,216.5C 374.423,214.271 373.756,211.937 373.5,209.5C 376.833,209.973 379,208.64 380,205.5C 381.333,206.833 382.667,208.167 384,209.5C 384.163,207.613 383.329,206.113 381.5,205C 381.833,204.667 382.167,204.333 382.5,204C 379.773,202.364 377.107,202.198 374.5,203.5C 367.933,203.633 362.767,200.966 359,195.5C 358.508,194.451 358.674,193.451 359.5,192.5C 357.833,191.5 356.5,190.167 355.5,188.5C 357.669,187.091 359.335,185.258 360.5,183C 359.923,180.863 359.59,178.696 359.5,176.5C 363.383,176.109 367.05,176.776 370.5,178.5C 370.738,171.823 373.405,170.323 378.5,174C 381.715,176.214 384.215,179.048 386,182.5C 385.246,190.12 384.913,197.787 385,205.5C 385.333,206.167 385.667,206.833 386,207.5C 387.043,204.243 387.543,200.91 387.5,197.5 Z"/></g>
<g><path style="opacity:1" fill="#eaf7ee" d="M 390.5,242.5 C 395.238,242.602 395.238,243.935 390.5,246.5C 389.374,245.192 389.374,243.858 390.5,242.5 Z"/></g>
<g><path style="opacity:1" fill="#bc2c28" d="M 382.5,238.5 C 384.346,238.222 385.68,238.889 386.5,240.5C 385.68,242.111 384.346,242.778 382.5,242.5C 382.5,241.167 382.5,239.833 382.5,238.5 Z"/></g>
<g><path style="opacity:1" fill="#d51323" d="M 394.5,200.5 C 393.5,200.5 392.5,200.5 391.5,200.5C 391.5,199.5 391.5,198.5 391.5,197.5C 392.5,197.5 393.5,197.5 394.5,197.5C 394.5,198.5 394.5,199.5 394.5,200.5 Z"/></g>
<g><path style="opacity:1" fill="#c02b28" d="M 389.5,193.5 C 390.234,194.708 390.567,196.041 390.5,197.5C 389.5,197.5 388.5,197.5 387.5,197.5C 385.998,195.171 386.664,193.837 389.5,193.5 Z"/></g>
<g><path style="opacity:1" fill="#5bae36" d="M 398.5,242.5 C 399.525,242.897 399.692,243.563 399,244.5C 395.748,249.023 393.082,253.69 391,258.5C 392,257.5 393,256.5 394,255.5C 393.983,257.568 392.983,259.234 391,260.5C 389.472,263.417 388.139,266.417 387,269.5C 388.321,264.573 388.654,259.573 388,254.5C 388.333,255.167 388.667,255.833 389,256.5C 391.929,251.631 395.096,246.965 398.5,242.5 Z"/></g>
<g><path style="opacity:1" fill="#56ae38" d="M 378.5,276.5 C 377.394,273.617 376.061,270.783 374.5,268C 375.602,265.599 375.769,263.099 375,260.5C 371.137,254.447 368.137,248.114 366,241.5C 369.333,246.833 372.667,252.167 376,257.5C 376.471,255.754 377.138,254.087 378,252.5C 377.64,255.784 377.14,259.118 376.5,262.5C 377.491,267.127 378.157,271.794 378.5,276.5 Z"/></g>
<g><path style="opacity:1" fill="#4fab3b" d="M 255.5,232.5 C 256.043,232.56 256.376,232.893 256.5,233.5C 254.616,238.006 254.116,242.673 255,247.5C 255.888,242.831 257.555,238.497 260,234.5C 259.243,237.784 258.243,241.117 257,244.5C 256.176,247.785 255.676,251.118 255.5,254.5C 256.191,260.208 256.691,265.875 257,271.5C 256.086,269.336 254.919,267.336 253.5,265.5C 254.428,264.232 254.595,262.899 254,261.5C 250.809,255.721 247.809,250.054 245,244.5C 247.618,248.108 248.451,248.108 247.5,244.5C 248.247,244.264 249.08,243.93 250,243.5C 251,247.833 252,252.167 253,256.5C 253.325,251.097 252.825,245.764 251.5,240.5C 251.846,239.304 252.346,239.304 253,240.5C 253.117,237.496 253.951,234.829 255.5,232.5 Z"/></g>
<g><path style="opacity:1" fill="#c32c28" d="M 374.5,276.5 C 373.391,276.443 372.391,276.11 371.5,275.5C 371.694,273.088 373.027,272.088 375.5,272.5C 375.567,273.959 375.234,275.292 374.5,276.5 Z"/></g>
<g><path style="opacity:1" fill="#5ab03a" d="M 385.5,276.5 C 384.5,277.5 383.5,278.5 382.5,279.5C 381.522,279.811 380.855,280.478 380.5,281.5C 382.135,282.681 383.802,282.681 385.5,281.5C 385.889,285.532 384.889,289.366 382.5,293C 385.553,293.179 388.553,293.679 391.5,294.5C 390.643,295.425 389.643,296.092 388.5,296.5C 388.44,295.957 388.107,295.624 387.5,295.5C 378.307,301.453 368.307,304.787 357.5,305.5C 357.5,304.833 357.167,304.5 356.5,304.5C 355.697,303.577 355.53,302.577 356,301.5C 361.115,295.716 365.448,289.382 369,282.5C 367.192,289.111 364.026,295.111 359.5,300.5C 359.667,300.833 359.833,301.167 360,301.5C 363.083,299.539 366.25,298.039 369.5,297C 366.833,299 364.167,301 361.5,303C 368.589,302.287 375.089,298.787 381,292.5C 382.741,289.691 383.908,286.691 384.5,283.5C 380.681,283.605 377.014,284.438 373.5,286C 372.711,288.365 371.544,290.532 370,292.5C 370.858,289.849 371.358,287.015 371.5,284C 371.492,282.293 371.158,280.793 370.5,279.5C 370.56,278.957 370.893,278.624 371.5,278.5C 372.466,280.396 372.799,282.396 372.5,284.5C 374.514,284.608 376.18,283.942 377.5,282.5C 378.461,280.735 378.795,278.735 378.5,276.5C 380.745,267.446 381.912,258.113 382,248.5C 382.551,258.57 382.217,268.57 381,278.5C 381.901,275.929 383.234,273.596 385,271.5C 385.667,270.167 386.333,270.167 387,271.5C 391.368,267.467 395.368,263.134 399,258.5C 399.167,258.833 399.333,259.167 399.5,259.5C 394.757,265.23 390.09,270.896 385.5,276.5 Z"/></g>
<g><path style="opacity:1" fill="#9aceaa" d="M 395.5,272.5 C 396.456,273.659 397.456,274.826 398.5,276C 398.361,277.301 397.695,278.134 396.5,278.5C 396.5,277.5 396.5,276.5 396.5,275.5C 394.821,275.285 393.821,275.952 393.5,277.5C 390.813,277.336 388.146,277.503 385.5,278C 386.737,278.232 387.737,278.732 388.5,279.5C 386.5,279.5 384.5,279.5 382.5,279.5C 383.5,278.5 384.5,277.5 385.5,276.5C 388.913,275.362 392.246,274.029 395.5,272.5 Z"/></g>
<g><path style="opacity:1" fill="#d21824" d="M 396.5,278.5 C 395.209,278.737 394.209,278.404 393.5,277.5C 393.821,275.952 394.821,275.285 396.5,275.5C 396.5,276.5 396.5,277.5 396.5,278.5 Z"/></g>
<g><path style="opacity:1" fill="#53a364" d="M 388.5,279.5 C 390.099,279.232 391.432,279.566 392.5,280.5C 390.5,280.5 389.5,281.5 389.5,283.5C 388.566,282.432 388.232,281.099 388.5,279.5 Z"/></g>
<g><path style="opacity:1" fill="#cb2b24" d="M 392.5,280.5 C 393.915,283.752 392.915,284.752 389.5,283.5C 389.5,281.5 390.5,280.5 392.5,280.5 Z"/></g>
<g><path style="opacity:1" fill="#dfb636" d="M 280.5,246.5 C 281.167,246.833 281.833,247.167 282.5,247.5C 294.5,247.5 306.5,247.5 318.5,247.5C 319.167,247.5 319.833,247.5 320.5,247.5C 332.5,247.5 344.5,247.5 356.5,247.5C 357.167,247.5 357.833,247.5 358.5,247.5C 372.089,280.786 360.756,297.619 324.5,298C 322.833,299.167 321.167,300.333 319.5,301.5C 317.664,300.081 315.664,298.914 313.5,298C 277.185,297.171 266.185,280.004 280.5,246.5 Z"/></g>
<g><path style="opacity:1" fill="#d92123" d="M 281.5,248.5 C 306.842,248.167 332.175,248.5 357.5,249.5C 369.953,280.883 359.286,296.383 325.5,296C 323.336,296.914 321.336,298.081 319.5,299.5C 317.446,297.806 315.112,296.639 312.5,296C 279.009,295.546 268.676,279.713 281.5,248.5 Z"/></g>
<g><path style="opacity:1" fill="#e5c608" d="M 306.5,252.5 C 310.888,251.943 314.055,253.61 316,257.5C 316.186,262.84 315.852,268.174 315,273.5C 314.667,272.167 314.333,270.833 314,269.5C 313.517,270.448 313.351,271.448 313.5,272.5C 312.5,272.5 311.5,272.5 310.5,272.5C 310.404,268.689 309.738,268.689 308.5,272.5C 307.066,271.064 305.9,269.398 305,267.5C 305,268.833 305,270.167 305,271.5C 304.282,270.549 303.449,270.383 302.5,271C 306.656,272.79 310.989,274.123 315.5,275C 317.229,276.789 317.896,278.956 317.5,281.5C 314.955,281.849 312.955,281.016 311.5,279C 312.899,278.405 314.232,278.572 315.5,279.5C 316.696,279.154 316.696,278.654 315.5,278C 308.595,277.775 302.428,275.608 297,271.5C 297.112,273.178 297.612,274.845 298.5,276.5C 297.751,278.036 296.751,279.369 295.5,280.5C 297.098,282.87 296.598,284.536 294,285.5C 290.933,284.597 290.433,283.43 292.5,282C 288.621,279.564 288.621,278.064 292.5,277.5C 291.311,276.571 289.978,276.238 288.5,276.5C 288.227,274.549 288.893,273.049 290.5,272C 286.541,272.209 284.874,270.375 285.5,266.5C 290.602,262.574 295.602,258.408 300.5,254C 302.586,253.685 304.586,253.185 306.5,252.5 Z"/></g>
<g><path style="opacity:1" fill="#e1be15" d="M 285.5,266.5 C 284.874,270.375 286.541,272.209 290.5,272C 288.893,273.049 288.227,274.549 288.5,276.5C 289.978,276.238 291.311,276.571 292.5,277.5C 288.621,278.064 288.621,279.564 292.5,282C 290.433,283.43 290.933,284.597 294,285.5C 296.598,284.536 297.098,282.87 295.5,280.5C 296.751,279.369 297.751,278.036 298.5,276.5C 297.612,274.845 297.112,273.178 297,271.5C 302.428,275.608 308.595,277.775 315.5,278C 316.696,278.654 316.696,279.154 315.5,279.5C 314.232,278.572 312.899,278.405 311.5,279C 312.955,281.016 314.955,281.849 317.5,281.5C 317.896,278.956 317.229,276.789 315.5,275C 310.989,274.123 306.656,272.79 302.5,271C 303.449,270.383 304.282,270.549 305,271.5C 305,270.167 305,268.833 305,267.5C 305.9,269.398 307.066,271.064 308.5,272.5C 309.738,268.689 310.404,268.689 310.5,272.5C 311.5,272.5 312.5,272.5 313.5,272.5C 313.351,271.448 313.517,270.448 314,269.5C 314.333,270.833 314.667,272.167 315,273.5C 315.852,268.174 316.186,262.84 316,257.5C 314.055,253.61 310.888,251.943 306.5,252.5C 308.984,251.631 311.651,250.964 314.5,250.5C 318.764,251.879 323.098,253.045 327.5,254C 329.874,256.039 331.874,258.372 333.5,261C 336.167,262.333 338.833,263.667 341.5,265C 344.784,265.981 347.451,265.147 349.5,262.5C 347.667,259.71 346.667,260.043 346.5,263.5C 345.5,263.5 344.5,263.5 343.5,263.5C 342.422,256.935 345.089,254.768 351.5,257C 356.411,264.365 355.078,270.365 347.5,275C 338.87,278.958 330.037,279.458 321,276.5C 318.681,277.409 318.014,279.075 319,281.5C 319.561,280.978 320.228,280.645 321,280.5C 327.027,283.229 332.86,282.896 338.5,279.5C 341.246,280.096 342.08,281.763 341,284.5C 338.833,285.333 337.333,286.833 336.5,289C 334.888,289.72 333.388,289.554 332,288.5C 329.405,290.918 326.405,292.585 323,293.5C 319.896,292.545 316.73,291.545 313.5,290.5C 308.567,291.495 303.567,291.329 298.5,290C 297.368,287.79 295.868,287.29 294,288.5C 292.5,288 291,287.5 289.5,287C 287.529,283.016 285.529,279.016 283.5,275C 284.035,272.004 284.702,269.171 285.5,266.5 Z"/></g>
<g><path style="opacity:1" fill="#d9492e" d="M 336.5,299.5 C 330.187,300.692 325.187,304.025 321.5,309.5C 320.662,309.158 320.328,308.492 320.5,307.5C 323.297,305.205 325.964,302.705 328.5,300C 331.146,299.503 333.813,299.336 336.5,299.5 Z"/></g>
<g><path style="opacity:1" fill="#da6035" d="M 307.5,300.5 C 312.132,301.814 316.132,304.147 319.5,307.5C 319.5,308.167 319.167,308.5 318.5,308.5C 314.489,305.493 310.155,302.993 305.5,301C 306.094,300.536 306.761,300.369 307.5,300.5 Z"/></g>
<g><path style="opacity:1" fill="#f1d2a9" d="M 307.5,300.5 C 306.761,300.369 306.094,300.536 305.5,301C 310.155,302.993 314.489,305.493 318.5,308.5C 320.031,309.925 319.698,310.591 317.5,310.5C 312.891,306.511 307.558,303.844 301.5,302.5C 302.92,299.651 304.92,298.984 307.5,300.5 Z"/></g>
<g><path style="opacity:1" fill="#f3dcba" d="M 336.5,299.5 C 337.974,300.436 338.974,301.77 339.5,303.5C 332.881,302.074 327.881,304.074 324.5,309.5C 323.202,310.116 322.202,310.116 321.5,309.5C 325.187,304.025 330.187,300.692 336.5,299.5 Z"/></g>
<g><path style="opacity:1" fill="#d9482c" d="M 339.5,303.5 C 340.234,304.708 340.567,306.041 340.5,307.5C 337.057,308.059 334.057,309.393 331.5,311.5C 330.5,311.5 329.5,311.5 328.5,311.5C 327.448,311.649 326.448,311.483 325.5,311C 328.589,310.082 331.589,308.915 334.5,307.5C 333.833,307.167 333.167,306.833 332.5,306.5C 329.817,307.51 327.151,308.51 324.5,309.5C 327.881,304.074 332.881,302.074 339.5,303.5 Z"/></g>
<g><path style="opacity:1" fill="#d6512d" d="M 301.5,302.5 C 307.558,303.844 312.891,306.511 317.5,310.5C 317.5,310.833 317.5,311.167 317.5,311.5C 317.5,311.833 317.5,312.167 317.5,312.5C 316.935,315.305 315.935,317.972 314.5,320.5C 307.992,321.254 301.992,319.921 296.5,316.5C 296.5,315.833 296.833,315.5 297.5,315.5C 298.167,315.5 298.833,315.5 299.5,315.5C 303.605,318.976 308.271,319.976 313.5,318.5C 313.756,316.208 313.423,314.041 312.5,312C 309.353,311.119 306.353,309.953 303.5,308.5C 301.681,307.416 300.015,306.082 298.5,304.5C 299.357,303.575 300.357,302.908 301.5,302.5 Z"/></g>
<g><path style="opacity:1" fill="#dfa15e" d="M 303.5,306.5 C 303.735,305.903 304.235,305.57 305,305.5C 308.227,306.864 311.394,308.364 314.5,310C 310.529,309.955 306.862,308.788 303.5,306.5 Z"/></g>
<g><path style="opacity:1" fill="#32ab51" d="M 370.5,279.5 C 371.158,280.793 371.492,282.293 371.5,284C 371.358,287.015 370.858,289.849 370,292.5C 371.544,290.532 372.711,288.365 373.5,286C 377.014,284.438 380.681,283.605 384.5,283.5C 383.908,286.691 382.741,289.691 381,292.5C 375.089,298.787 368.589,302.287 361.5,303C 364.167,301 366.833,299 369.5,297C 366.25,298.039 363.083,299.539 360,301.5C 359.833,301.167 359.667,300.833 359.5,300.5C 364.026,295.111 367.192,289.111 369,282.5C 365.448,289.382 361.115,295.716 356,301.5C 355.53,302.577 355.697,303.577 356.5,304.5C 353.978,304.128 351.978,304.961 350.5,307C 352.959,307.239 355.293,306.739 357.5,305.5C 368.307,304.787 378.307,301.453 387.5,295.5C 388.107,295.624 388.44,295.957 388.5,296.5C 386.415,301.155 383.082,304.655 378.5,307C 371.897,308.163 365.23,308.83 358.5,309C 353.476,310.845 348.476,312.345 343.5,313.5C 339.711,314.596 339.711,315.263 343.5,315.5C 344.919,316.451 346.585,316.784 348.5,316.5C 350.426,317.486 352.426,318.486 354.5,319.5C 357.575,323.42 356.409,325.087 351,324.5C 346.402,323.951 341.902,322.951 337.5,321.5C 336.791,320.596 335.791,320.263 334.5,320.5C 331.456,318.989 328.122,318.322 324.5,318.5C 324.5,316.833 324.5,315.167 324.5,313.5C 325.995,313.011 327.329,312.345 328.5,311.5C 329.5,311.5 330.5,311.5 331.5,311.5C 341.755,311.622 349.922,307.622 356,299.5C 358.176,290.78 363.009,284.113 370.5,279.5 Z"/></g>
<g><path style="opacity:1" fill="#d1edd9" d="M 356.5,304.5 C 357.167,304.5 357.5,304.833 357.5,305.5C 355.293,306.739 352.959,307.239 350.5,307C 351.978,304.961 353.978,304.128 356.5,304.5 Z"/></g>
<g><path style="opacity:1" fill="#fefdfc" d="M 317.5,311.5 C 318.5,311.5 319.5,311.5 320.5,311.5C 320.5,313.833 320.5,316.167 320.5,318.5C 319.5,318.5 318.5,318.5 317.5,318.5C 317.5,316.5 317.5,314.5 317.5,312.5C 317.5,312.167 317.5,311.833 317.5,311.5 Z"/></g>
<g><path style="opacity:1" fill="#dd9456" d="M 276.5,313.5 C 281.5,313.5 286.5,313.5 291.5,313.5C 292.167,313.5 292.833,313.5 293.5,313.5C 294.833,314.167 296.167,314.833 297.5,315.5C 296.833,315.5 296.5,315.833 296.5,316.5C 295.508,316.328 294.842,316.662 294.5,317.5C 293.508,317.328 292.842,317.662 292.5,318.5C 291.5,318.5 290.5,318.5 289.5,318.5C 289.158,317.662 288.492,317.328 287.5,317.5C 289.292,316.691 291.292,316.191 293.5,316C 291.866,315.506 290.199,315.34 288.5,315.5C 284.5,314.833 280.5,314.167 276.5,313.5 Z"/></g>
<g><path style="opacity:1" fill="#d82125" d="M 276.5,313.5 C 280.5,314.167 284.5,314.833 288.5,315.5C 287.833,315.5 287.167,315.5 286.5,315.5C 282.167,315.5 277.833,315.5 273.5,315.5C 273.389,314.883 273.056,314.383 272.5,314C 273.793,313.51 275.127,313.343 276.5,313.5 Z"/></g>
<g><path style="opacity:1" fill="#eff0df" d="M 293.5,313.5 C 297.247,313.392 300.914,313.892 304.5,315C 302.866,315.494 301.199,315.66 299.5,315.5C 298.833,315.5 298.167,315.5 297.5,315.5C 296.167,314.833 294.833,314.167 293.5,313.5 Z"/></g>
<g><path style="opacity:1" fill="#da5533" d="M 343.5,313.5 C 348.833,313.5 354.167,313.5 359.5,313.5C 361.379,313.393 361.712,313.893 360.5,315C 354.659,314.865 348.992,315.031 343.5,315.5C 339.711,315.263 339.711,314.596 343.5,313.5 Z"/></g>
<g><path style="opacity:1" fill="#e7bb80" d="M 361.5,317.5 C 357.143,317.414 352.81,317.08 348.5,316.5C 346.585,316.784 344.919,316.451 343.5,315.5C 348.992,315.031 354.659,314.865 360.5,315C 361.712,313.893 361.379,313.393 359.5,313.5C 360.641,312.661 361.974,311.994 363.5,311.5C 364.506,311.938 364.506,312.604 363.5,313.5C 367.157,315.939 366.491,317.272 361.5,317.5 Z"/></g>
<g><path style="opacity:1" fill="#fdfbf6" d="M 286.5,315.5 C 287.167,315.5 287.833,315.5 288.5,315.5C 290.199,315.34 291.866,315.506 293.5,316C 291.292,316.191 289.292,316.691 287.5,317.5C 287.167,317.5 286.833,317.5 286.5,317.5C 283.482,317.665 280.482,317.498 277.5,317C 280.695,316.819 283.695,316.319 286.5,315.5 Z"/></g>
<g><path style="opacity:1" fill="#eabf8a" d="M 273.5,315.5 C 277.833,315.5 282.167,315.5 286.5,315.5C 283.695,316.319 280.695,316.819 277.5,317C 280.482,317.498 283.482,317.665 286.5,317.5C 283.038,318.482 279.371,318.815 275.5,318.5C 275.218,317.222 274.551,316.222 273.5,315.5 Z"/></g>
<g><path style="opacity:1" fill="#ebca9b" d="M 296.5,316.5 C 301.992,319.921 307.992,321.254 314.5,320.5C 314.5,320.833 314.5,321.167 314.5,321.5C 313.22,322.931 311.553,323.598 309.5,323.5C 304.102,322.564 299.102,320.564 294.5,317.5C 294.842,316.662 295.508,316.328 296.5,316.5 Z"/></g>
<g><path style="opacity:1" fill="#da603a" d="M 348.5,316.5 C 352.81,317.08 357.143,317.414 361.5,317.5C 359.721,319.344 357.388,320.01 354.5,319.5C 352.426,318.486 350.426,317.486 348.5,316.5 Z"/></g>
<g><path style="opacity:1" fill="#d93d2a" d="M 286.5,317.5 C 286.833,317.5 287.167,317.5 287.5,317.5C 288.492,317.328 289.158,317.662 289.5,318.5C 288.508,318.328 287.842,318.662 287.5,319.5C 282.218,320.567 276.885,320.733 271.5,320C 272.745,319.209 274.078,318.709 275.5,318.5C 279.371,318.815 283.038,318.482 286.5,317.5 Z"/></g>
<g><path style="opacity:1" fill="#d44f2e" d="M 292.5,318.5 C 292.842,317.662 293.508,317.328 294.5,317.5C 299.102,320.564 304.102,322.564 309.5,323.5C 305.785,323.577 302.119,323.244 298.5,322.5C 296.882,320.684 294.882,319.351 292.5,318.5 Z"/></g>
<g><path style="opacity:1" fill="#d8442c" d="M 324.5,313.5 C 324.5,315.167 324.5,316.833 324.5,318.5C 328.122,318.322 331.456,318.989 334.5,320.5C 330.486,320.666 326.486,320.499 322.5,320C 321.556,317.281 321.223,314.448 321.5,311.5C 323.179,311.285 324.179,311.952 324.5,313.5 Z"/></g>
<g><path style="opacity:1" fill="#9dad13" d="M 349.5,319.5 C 351.912,319.244 353.579,320.244 354.5,322.5C 352.955,323.452 351.288,323.785 349.5,323.5C 349.5,322.167 349.5,320.833 349.5,319.5 Z"/></g>
<g><path style="opacity:1" fill="#8cac23" d="M 291.5,324.5 C 290.167,325.833 288.833,325.833 287.5,324.5C 287.384,321.09 289.05,319.756 292.5,320.5C 292.567,321.959 292.234,323.292 291.5,324.5 Z"/></g>
<g><path style="opacity:1" fill="#dea75e" d="M 328.5,311.5 C 327.329,312.345 325.995,313.011 324.5,313.5C 324.179,311.952 323.179,311.285 321.5,311.5C 321.223,314.448 321.556,317.281 322.5,320C 326.486,320.499 330.486,320.666 334.5,320.5C 335.791,320.263 336.791,320.596 337.5,321.5C 335.193,323.047 332.527,323.713 329.5,323.5C 327.5,323.333 325.5,323.167 323.5,323C 322.315,321.647 320.981,320.48 319.5,319.5C 317.925,320.456 316.258,321.123 314.5,321.5C 314.5,321.167 314.5,320.833 314.5,320.5C 315.935,317.972 316.935,315.305 317.5,312.5C 317.5,314.5 317.5,316.5 317.5,318.5C 318.5,318.5 319.5,318.5 320.5,318.5C 320.5,316.167 320.5,313.833 320.5,311.5C 319.5,311.5 318.5,311.5 317.5,311.5C 317.5,311.167 317.5,310.833 317.5,310.5C 319.698,310.591 320.031,309.925 318.5,308.5C 319.167,308.5 319.5,308.167 319.5,307.5C 319.833,307.5 320.167,307.5 320.5,307.5C 320.328,308.492 320.662,309.158 321.5,309.5C 322.202,310.116 323.202,310.116 324.5,309.5C 327.151,308.51 329.817,307.51 332.5,306.5C 333.167,306.833 333.833,307.167 334.5,307.5C 331.589,308.915 328.589,310.082 325.5,311C 326.448,311.483 327.448,311.649 328.5,311.5 Z"/></g>
<g><path style="opacity:1" fill="#3eab4d" d="M 289.5,318.5 C 290.5,318.5 291.5,318.5 292.5,318.5C 294.882,319.351 296.882,320.684 298.5,322.5C 296.254,323.455 293.921,324.122 291.5,324.5C 292.234,323.292 292.567,321.959 292.5,320.5C 289.05,319.756 287.384,321.09 287.5,324.5C 285.043,322.999 285.043,321.332 287.5,319.5C 287.842,318.662 288.508,318.328 289.5,318.5 Z"/></g>
</svg>
