<?xml version="1.0" encoding="UTF-8"?>
<!DOCTYPE svg PUBLIC "-//W3C//DTD SVG 1.1//EN" "http://www.w3.org/Graphics/SVG/1.1/DTD/svg11.dtd">
<svg xmlns="http://www.w3.org/2000/svg" version="1.1" width="640px" height="480px" style="shape-rendering:geometricPrecision; text-rendering:geometricPrecision; image-rendering:optimizeQuality; fill-rule:evenodd; clip-rule:evenodd" xmlns:xlink="http://www.w3.org/1999/xlink">
<g><path style="opacity:1" fill="#0038a8" d="M 0.5,-0.5 C 213.5,-0.5 426.5,-0.5 639.5,-0.5C 639.5,79.5 639.5,159.5 639.5,239.5C 564.5,239.5 489.5,239.5 414.5,239.5C 276.5,159.5 138.5,79.5 0.5,-0.5 Z"/></g>
<g><path style="opacity:1" fill="#fefefe" d="M -0.5,-0.5 C -0.166667,-0.5 0.166667,-0.5 0.5,-0.5C 138.5,79.5 276.5,159.5 414.5,239.5C 276.5,319.5 138.5,399.5 0.5,479.5C 0.166667,479.5 -0.166667,479.5 -0.5,479.5C -0.5,319.5 -0.5,159.5 -0.5,-0.5 Z"/></g>
<g><path style="opacity:1" fill="#fcd223" d="M 26.5,42.5 C 31.4416,46.1028 36.1082,50.1028 40.5,54.5C 46.0336,51.0664 51.7003,48.2331 57.5,46C 54.6845,50.9454 52.3512,56.112 50.5,61.5C 53.9125,66.4189 57.9125,70.9189 62.5,75C 56.486,75.2399 50.486,75.2399 44.5,75C 42.1442,80.2123 39.6442,85.379 37,90.5C 34.9672,84.6397 33.4672,78.6397 32.5,72.5C 26.2653,72.7796 20.2653,71.9462 14.5,70C 19.4188,66.9577 24.2522,63.791 29,60.5C 28.6871,54.4752 27.8538,48.4752 26.5,42.5 Z"/></g>
<g><path style="opacity:1" fill="#fcd221" d="M 150.5,138.5 C 152.463,139.96 154.296,141.627 156,143.5C 156.1,159.512 155.6,175.512 154.5,191.5C 155.5,191.5 156.5,191.5 157.5,191.5C 158.713,177.421 160.546,163.421 163,149.5C 165.57,151.219 167.07,153.553 167.5,156.5C 165.423,167.887 163.089,179.22 160.5,190.5C 160.608,191.442 160.941,192.275 161.5,193C 167.074,194.204 172.241,196.371 177,199.5C 184.247,189.34 191.247,179.006 198,168.5C 200.466,167.223 202.966,167.223 205.5,168.5C 197.142,179.024 188.975,189.691 181,200.5C 180.399,201.965 180.899,202.965 182.5,203.5C 192.647,191.519 202.98,179.685 213.5,168C 216.482,167.502 219.482,167.335 222.5,167.5C 222.665,170.85 222.498,174.183 222,177.5C 210.325,187.677 198.825,198.01 187.5,208.5C 187.808,209.308 188.308,209.975 189,210.5C 200.31,202.024 211.476,193.358 222.5,184.5C 223.777,187.034 223.777,189.534 222.5,192C 212.247,198.709 202.08,205.543 192,212.5C 194.304,217.915 196.138,223.582 197.5,229.5C 209.888,227.556 222.221,225.223 234.5,222.5C 236.898,223.389 238.898,224.889 240.5,227C 227.227,229.372 213.894,231.372 200.5,233C 199.692,233.308 199.025,233.808 198.5,234.5C 201.5,234.833 204.5,235.167 207.5,235.5C 220.494,234.458 233.494,233.958 246.5,234C 248.351,235.684 250.018,237.517 251.5,239.5C 250.018,241.483 248.351,243.316 246.5,245C 233.329,245 220.163,244.5 207,243.5C 204.167,243.833 201.333,244.167 198.5,244.5C 199.025,245.192 199.692,245.692 200.5,246C 213.894,247.628 227.227,249.628 240.5,252C 238.898,254.111 236.898,255.611 234.5,256.5C 223.014,254.103 211.514,251.769 200,249.5C 198.674,249.755 197.674,250.422 197,251.5C 195.525,256.733 193.858,261.733 192,266.5C 202.08,273.457 212.247,280.291 222.5,287C 223.777,289.466 223.777,291.966 222.5,294.5C 211.476,285.642 200.31,276.976 189,268.5C 188.308,269.025 187.808,269.692 187.5,270.5C 198.825,280.99 210.325,291.323 222,301.5C 222.498,304.482 222.665,307.482 222.5,310.5C 219.15,310.665 215.817,310.498 212.5,310C 202.333,298.5 192.167,287 182,275.5C 181.308,276.025 180.808,276.692 180.5,277.5C 188.59,288.679 196.924,299.679 205.5,310.5C 202.966,311.777 200.466,311.777 198,310.5C 191.247,299.994 184.247,289.66 177,279.5C 171.668,282.583 166.168,285.25 160.5,287.5C 163.772,300.019 165.938,312.685 167,325.5C 165.667,326.833 164.333,328.167 163,329.5C 160.764,315.21 158.931,300.877 157.5,286.5C 156.5,286.5 155.5,286.5 154.5,286.5C 155.402,302.523 156.235,318.523 157,334.5C 155,336.5 153,338.5 151,340.5C 147.786,338.139 145.619,335.139 144.5,331.5C 145.721,316.847 146.721,302.18 147.5,287.5C 146.5,287.5 145.5,287.5 144.5,287.5C 142.668,301.492 140.834,315.492 139,329.5C 136.194,327.713 134.694,325.213 134.5,322C 136.45,310.585 138.783,299.252 141.5,288C 135.923,285.212 130.256,282.378 124.5,279.5C 117.253,289.66 110.253,299.994 103.5,310.5C 101.167,311.833 98.8333,311.833 96.5,310.5C 104.858,299.976 113.025,289.309 121,278.5C 121.601,277.035 121.101,276.035 119.5,275.5C 109.687,287.148 99.6866,298.648 89.5,310C 86.1832,310.498 82.8499,310.665 79.5,310.5C 79.3354,307.482 79.502,304.482 80,301.5C 91.6748,291.323 103.175,280.99 114.5,270.5C 114.192,269.692 113.692,269.025 113,268.5C 101.69,276.976 90.5237,285.642 79.5,294.5C 78.2234,291.966 78.2234,289.466 79.5,287C 89.7529,280.291 99.9196,273.457 110,266.5C 107.696,261.085 105.862,255.418 104.5,249.5C 91.8754,251.114 79.3754,253.447 67,256.5C 64.8876,255.392 63.0542,253.892 61.5,252C 75.3171,249.187 89.3171,247.02 103.5,245.5C 103.5,244.5 103.5,243.5 103.5,242.5C 87.5122,243.844 71.5122,244.677 55.5,245C 53.6487,243.316 51.982,241.483 50.5,239.5C 52.7814,234.872 56.4481,232.872 61.5,233.5C 75.505,234.5 89.505,235.5 103.5,236.5C 103.5,235.5 103.5,234.5 103.5,233.5C 89.3354,231.861 75.3354,229.694 61.5,227C 63.0175,225.315 64.6841,223.815 66.5,222.5C 79.1283,225.092 91.795,227.426 104.5,229.5C 105.817,223.565 107.65,217.898 110,212.5C 99.9196,205.543 89.7529,198.709 79.5,192C 78.2234,189.534 78.2234,187.034 79.5,184.5C 90.5237,193.358 101.69,202.024 113,210.5C 113.692,209.975 114.192,209.308 114.5,208.5C 103.175,198.01 91.6748,187.677 80,177.5C 79.502,174.518 79.3354,171.518 79.5,168.5C 82.8499,168.335 86.1832,168.502 89.5,169C 99.6866,180.352 109.687,191.852 119.5,203.5C 121.101,202.965 121.601,201.965 121,200.5C 113.025,189.691 104.858,179.024 96.5,168.5C 98.8333,167.167 101.167,167.167 103.5,168.5C 110.253,179.006 117.253,189.34 124.5,199.5C 129.487,196.507 134.821,194.341 140.5,193C 141.059,192.275 141.392,191.442 141.5,190.5C 138.1,178.337 135.933,166.004 135,153.5C 136.333,152.167 137.667,150.833 139,149.5C 141.454,163.421 143.287,177.421 144.5,191.5C 145.5,191.5 146.5,191.5 147.5,191.5C 147.094,176.454 146.094,161.454 144.5,146.5C 146.106,143.557 148.106,140.891 150.5,138.5 Z"/></g>
<g><path style="opacity:1" fill="#fcd222" d="M 349.5,214.5 C 350.167,220.679 350.833,227.012 351.5,233.5C 356.693,235.118 361.693,237.118 366.5,239.5C 361.693,241.882 356.693,243.882 351.5,245.5C 350.669,251.807 350.169,258.141 350,264.5C 346.299,259.091 342.133,254.091 337.5,249.5C 332.213,251.947 326.879,253.281 321.5,253.5C 324.5,248.833 327.5,244.167 330.5,239.5C 327.005,234.148 323.839,228.815 321,223.5C 326.39,225.725 331.89,227.725 337.5,229.5C 342.219,225.056 346.219,220.056 349.5,214.5 Z"/></g>
<g><path style="opacity:1" fill="#ce1126" d="M 414.5,239.5 C 489.5,239.5 564.5,239.5 639.5,239.5C 639.5,319.5 639.5,399.5 639.5,479.5C 426.5,479.5 213.5,479.5 0.5,479.5C 138.5,399.5 276.5,319.5 414.5,239.5 Z"/></g>
<g><path style="opacity:1" fill="#fcd222" d="M 36.5,388.5 C 39.5351,393.402 42.2017,398.568 44.5,404C 50.4794,403.67 56.4794,403.67 62.5,404C 58.1192,408.045 54.1192,412.378 50.5,417C 52.3619,421.89 54.3619,426.724 56.5,431.5C 51.0117,430.518 45.8451,428.185 41,424.5C 36.3333,428.5 31.6667,432.5 27,436.5C 27.0458,430.927 27.8791,425.427 29.5,420C 29.1667,419.167 28.8333,418.333 28.5,417.5C 23.6669,414.918 19.0002,412.085 14.5,409C 20.3249,407.542 26.3249,406.709 32.5,406.5C 33.4547,400.39 34.7881,394.39 36.5,388.5 Z"/></g>
</svg>
