<?xml version="1.0" encoding="UTF-8"?>
<!DOCTYPE svg PUBLIC "-//W3C//DTD SVG 1.1//EN" "http://www.w3.org/Graphics/SVG/1.1/DTD/svg11.dtd">
<svg xmlns="http://www.w3.org/2000/svg" version="1.1" width="640px" height="480px" style="shape-rendering:geometricPrecision; text-rendering:geometricPrecision; image-rendering:optimizeQuality; fill-rule:evenodd; clip-rule:evenodd" xmlns:xlink="http://www.w3.org/1999/xlink">
<g><path style="opacity:1" fill="#006500" d="M -0.5,-0.5 C 84.8333,-0.5 170.167,-0.5 255.5,-0.5C 255.5,44.1667 255.5,88.8333 255.5,133.5C 253.8,133.374 252.3,132.707 251,131.5C 248.506,132.824 246.006,133.824 243.5,134.5C 227.47,136.902 212.47,142.402 198.5,151C 194.91,153.614 191.576,156.448 188.5,159.5C 187.761,159.369 187.094,159.536 186.5,160C 180.936,165.395 175.603,170.895 170.5,176.5C 169.26,177.659 167.926,178.659 166.5,179.5C 168.292,180.309 170.292,180.809 172.5,181C 170.423,181.192 168.423,181.692 166.5,182.5C 164.234,186.034 162.234,189.7 160.5,193.5C 159.833,194.167 159.167,194.833 158.5,195.5C 157.883,195.611 157.383,195.944 157,196.5C 156.505,198.473 156.338,200.473 156.5,202.5C 155.833,205.5 155.167,208.5 154.5,211.5C 153.833,212.833 153.167,214.167 152.5,215.5C 150.439,221.196 149.439,227.196 149.5,233.5C 149.389,234.117 149.056,234.617 148.5,235C 149.167,237.333 149.833,239.667 150.5,242C 148.158,243.392 148.158,244.225 150.5,244.5C 151.121,259.022 154.788,272.689 161.5,285.5C 162.451,284.674 163.451,284.508 164.5,285C 163.313,286.019 162.313,287.186 161.5,288.5C 161.624,289.107 161.957,289.44 162.5,289.5C 163.145,291.826 164.478,293.493 166.5,294.5C 164.975,297.457 165.642,298.124 168.5,296.5C 169.527,300.217 171.361,303.55 174,306.5C 190.461,325.643 210.961,337.976 235.5,343.5C 240.632,344.584 245.799,345.917 251,347.5C 252.44,346.852 253.94,346.519 255.5,346.5C 255.5,390.833 255.5,435.167 255.5,479.5C 170.167,479.5 84.8333,479.5 -0.5,479.5C -0.5,319.5 -0.5,159.5 -0.5,-0.5 Z"/></g>
<g><path style="opacity:1" fill="#fe0000" d="M 255.5,-0.5 C 383.5,-0.5 511.5,-0.5 639.5,-0.5C 639.5,159.5 639.5,319.5 639.5,479.5C 511.5,479.5 383.5,479.5 255.5,479.5C 255.5,435.167 255.5,390.833 255.5,346.5C 257.06,346.519 258.56,346.852 260,347.5C 262.494,346.176 264.994,345.176 267.5,344.5C 273.012,343.827 278.345,342.827 283.5,341.5C 287.081,341.862 290.081,340.862 292.5,338.5C 293.93,337.463 295.597,336.796 297.5,336.5C 300.089,336.539 302.089,335.539 303.5,333.5C 304.833,332.833 306.167,332.167 307.5,331.5C 309.674,331.25 311.341,330.25 312.5,328.5C 314.027,328.573 315.027,327.906 315.5,326.5C 317.027,326.573 318.027,325.906 318.5,324.5C 320.749,323.92 322.415,322.587 323.5,320.5C 328.167,317.833 331.833,314.167 334.5,309.5C 334.833,308.5 335.5,307.833 336.5,307.5C 337.822,307.67 338.989,307.337 340,306.5C 340.938,304.512 341.772,302.512 342.5,300.5C 343.584,297.996 344.917,295.663 346.5,293.5C 348.404,293.262 349.738,292.262 350.5,290.5C 350.337,288.143 350.503,285.81 351,283.5C 353.932,279.635 355.766,275.302 356.5,270.5C 356.565,267.572 357.232,264.905 358.5,262.5C 360.082,259.124 360.749,255.458 360.5,251.5C 361.455,249.717 362.122,247.717 362.5,245.5C 361.851,241.676 361.518,238.009 361.5,234.5C 360.631,232.283 360.298,229.95 360.5,227.5C 360.375,222.206 359.375,217.206 357.5,212.5C 356.291,206.538 354.291,200.871 351.5,195.5C 352.872,193.523 352.538,191.856 350.5,190.5C 349.833,190.5 349.5,190.167 349.5,189.5C 347.752,188.211 347.419,186.711 348.5,185C 344.935,181.604 341.602,178.104 338.5,174.5C 334.527,169.86 330.194,165.527 325.5,161.5C 314.065,150.775 300.732,143.108 285.5,138.5C 283.562,136.837 281.228,136.171 278.5,136.5C 273.638,135.1 268.638,134.434 263.5,134.5C 262.53,133.371 261.364,132.371 260,131.5C 258.7,132.707 257.2,133.374 255.5,133.5C 255.5,88.8333 255.5,44.1667 255.5,-0.5 Z"/></g>
<g><path style="opacity:1" fill="#858100" d="M 255.5,133.5 C 257.2,133.374 258.7,132.707 260,131.5C 261.364,132.371 262.53,133.371 263.5,134.5C 261.952,134.821 261.285,135.821 261.5,137.5C 261.5,139.167 261.5,140.833 261.5,142.5C 262.833,142.5 264.167,142.5 265.5,142.5C 264.391,143.29 263.058,143.79 261.5,144C 262.416,144.278 263.082,144.778 263.5,145.5C 261.539,152.087 260.872,159.087 261.5,166.5C 260.5,166.5 259.5,166.5 258.5,166.5C 258.5,155.833 258.5,145.167 258.5,134.5C 256.5,134.5 254.5,134.5 252.5,134.5C 252.5,145.167 252.5,155.833 252.5,166.5C 251.5,166.5 250.5,166.5 249.5,166.5C 249.5,159.5 249.5,152.5 249.5,145.5C 248.552,144.022 247.219,143.022 245.5,142.5C 246.833,142.5 248.167,142.5 249.5,142.5C 249.5,140.833 249.5,139.167 249.5,137.5C 249.5,136.5 249.5,135.5 249.5,134.5C 247.5,134.5 245.5,134.5 243.5,134.5C 246.006,133.824 248.506,132.824 251,131.5C 252.3,132.707 253.8,133.374 255.5,133.5 Z"/></g>
<g><path style="opacity:1" fill="#fefe00" d="M 258.5,166.5 C 256.5,166.5 254.5,166.5 252.5,166.5C 252.5,155.833 252.5,145.167 252.5,134.5C 254.5,134.5 256.5,134.5 258.5,134.5C 258.5,145.167 258.5,155.833 258.5,166.5 Z"/></g>
<g><path style="opacity:1" fill="#8e3700" d="M 278.5,136.5 C 281.228,136.171 283.562,136.837 285.5,138.5C 282.933,138.279 280.599,137.612 278.5,136.5 Z"/></g>
<g><path style="opacity:1" fill="#f7f700" d="M 249.5,137.5 C 249.5,139.167 249.5,140.833 249.5,142.5C 248.167,142.5 246.833,142.5 245.5,142.5C 243.199,143.06 240.866,143.56 238.5,144C 241.036,144.186 243.369,144.686 245.5,145.5C 235.843,146.581 226.51,148.914 217.5,152.5C 217.062,152.565 216.728,152.399 216.5,152C 218.066,151.392 219.4,150.558 220.5,149.5C 210.05,152.552 201.05,157.885 193.5,165.5C 192.833,165.5 192.5,165.833 192.5,166.5C 191.833,166.5 191.5,166.833 191.5,167.5C 188.775,168.713 186.441,170.546 184.5,173C 181.833,174 179.167,175 176.5,176C 178.035,176.496 179.535,176.33 181,175.5C 182.762,175.944 182.595,176.444 180.5,177C 182.553,177.325 184.553,176.991 186.5,176C 182.958,175.118 183.292,174.285 187.5,173.5C 188.822,173.67 189.989,173.337 191,172.5C 191.167,172.833 191.333,173.167 191.5,173.5C 186.318,174.776 186.318,175.443 191.5,175.5C 191.5,177.167 191.5,178.833 191.5,180.5C 190.5,180.5 189.5,180.5 188.5,180.5C 186.167,181.833 183.833,181.833 181.5,180.5C 178.821,179.774 176.154,178.941 173.5,178C 175.929,177.549 176.096,176.715 174,175.5C 173,176.5 172,177.5 171,178.5C 170.536,177.906 170.369,177.239 170.5,176.5C 175.603,170.895 180.936,165.395 186.5,160C 187.094,159.536 187.761,159.369 188.5,159.5C 186.706,161.797 184.706,163.963 182.5,166C 182.833,166.167 183.167,166.333 183.5,166.5C 201.823,148.676 223.823,139.01 249.5,137.5 Z"/></g>
<g><path style="opacity:1" fill="#fafa00" d="M 261.5,137.5 C 290.147,139.407 313.98,151.074 333,172.5C 333.667,171.833 333.667,171.167 333,170.5C 330.167,167.667 327.333,164.833 324.5,162C 324.728,161.601 325.062,161.435 325.5,161.5C 330.194,165.527 334.527,169.86 338.5,174.5C 338.414,175.496 338.748,176.329 339.5,177C 338.906,177.464 338.239,177.631 337.5,177.5C 337.313,174.786 336.146,174.119 334,175.5C 331.5,174.667 329,173.833 326.5,173C 324.297,170.628 321.963,168.461 319.5,166.5C 318.833,166.167 318.167,165.833 317.5,165.5C 302.692,152.441 285.358,144.774 265.5,142.5C 264.167,142.5 262.833,142.5 261.5,142.5C 261.5,140.833 261.5,139.167 261.5,137.5 Z"/></g>
<g><path style="opacity:1" fill="#b4b400" d="M 245.5,142.5 C 247.219,143.022 248.552,144.022 249.5,145.5C 248.167,145.5 246.833,145.5 245.5,145.5C 243.369,144.686 241.036,144.186 238.5,144C 240.866,143.56 243.199,143.06 245.5,142.5 Z"/></g>
<g><path style="opacity:1" fill="#096200" d="M 245.5,145.5 C 246.833,145.5 248.167,145.5 249.5,145.5C 249.5,152.5 249.5,159.5 249.5,166.5C 231.5,166.5 213.5,166.5 195.5,166.5C 202.189,160.822 209.523,156.155 217.5,152.5C 226.51,148.914 235.843,146.581 245.5,145.5 Z"/></g>
<g><path style="opacity:1" fill="#fb0300" d="M 263.5,145.5 C 282.078,147.416 298.744,154.083 313.5,165.5C 296.341,166.497 279.008,166.83 261.5,166.5C 260.872,159.087 261.539,152.087 263.5,145.5 Z"/></g>
<g><path style="opacity:1" fill="#bcba00" d="M 263.5,134.5 C 268.638,134.434 273.638,135.1 278.5,136.5C 280.599,137.612 282.933,138.279 285.5,138.5C 300.732,143.108 314.065,150.775 325.5,161.5C 325.062,161.435 324.728,161.601 324.5,162C 327.333,164.833 330.167,167.667 333,170.5C 333.667,171.167 333.667,171.833 333,172.5C 313.98,151.074 290.147,139.407 261.5,137.5C 261.285,135.821 261.952,134.821 263.5,134.5 Z"/></g>
<g><path style="opacity:1" fill="#8c8c00" d="M 220.5,149.5 C 225.657,146.293 231.323,144.793 237.5,145C 231.787,146.406 226.12,147.906 220.5,149.5 Z"/></g>
<g><path style="opacity:1" fill="#c2c200" d="M 243.5,134.5 C 245.5,134.5 247.5,134.5 249.5,134.5C 249.5,135.5 249.5,136.5 249.5,137.5C 223.823,139.01 201.823,148.676 183.5,166.5C 183.167,166.333 182.833,166.167 182.5,166C 184.706,163.963 186.706,161.797 188.5,159.5C 191.576,156.448 194.91,153.614 198.5,151C 212.47,142.402 227.47,136.902 243.5,134.5 Z"/></g>
<g><path style="opacity:1" fill="#c1c100" d="M 220.5,149.5 C 219.4,150.558 218.066,151.392 216.5,152C 216.728,152.399 217.062,152.565 217.5,152.5C 209.523,156.155 202.189,160.822 195.5,166.5C 194.508,166.672 193.842,166.338 193.5,165.5C 201.05,157.885 210.05,152.552 220.5,149.5 Z"/></g>
<g><path style="opacity:1" fill="#a59f01" d="M 265.5,142.5 C 285.358,144.774 302.692,152.441 317.5,165.5C 316.295,166.686 314.961,166.686 313.5,165.5C 298.744,154.083 282.078,147.416 263.5,145.5C 263.082,144.778 262.416,144.278 261.5,144C 263.058,143.79 264.391,143.29 265.5,142.5 Z"/></g>
<g><path style="opacity:1" fill="#4a403a" d="M 193.5,165.5 C 193.842,166.338 194.508,166.672 195.5,166.5C 213.5,166.5 231.5,166.5 249.5,166.5C 250.5,166.5 251.5,166.5 252.5,166.5C 254.5,166.5 256.5,166.5 258.5,166.5C 259.5,166.5 260.5,166.5 261.5,166.5C 279.008,166.83 296.341,166.497 313.5,165.5C 314.961,166.686 316.295,166.686 317.5,165.5C 318.167,165.833 318.833,166.167 319.5,166.5C 319.253,168.858 319.919,170.858 321.5,172.5C 320.833,172.5 320.167,172.5 319.5,172.5C 319.167,172.5 318.833,172.5 318.5,172.5C 318.5,170.833 318.5,169.167 318.5,167.5C 276.5,167.5 234.5,167.5 192.5,167.5C 192.5,167.167 192.5,166.833 192.5,166.5C 192.5,165.833 192.833,165.5 193.5,165.5 Z"/></g>
<g><path style="opacity:1" fill="#e5e2e1" d="M 192.5,167.5 C 234.5,167.5 276.5,167.5 318.5,167.5C 318.5,169.167 318.5,170.833 318.5,172.5C 318.5,188.167 318.5,203.833 318.5,219.5C 318.5,223.167 318.5,226.833 318.5,230.5C 318.5,236.167 318.5,241.833 318.5,247.5C 318.497,252.527 318.164,257.527 317.5,262.5C 317.595,265.697 316.928,268.697 315.5,271.5C 314.599,270.71 313.932,269.71 313.5,268.5C 313.753,264.96 314.419,261.627 315.5,258.5C 316.498,229.005 316.831,199.338 316.5,169.5C 275.833,169.5 235.167,169.5 194.5,169.5C 194.169,200.338 194.502,231.005 195.5,261.5C 195.5,263.833 195.5,266.167 195.5,268.5C 194.288,265.22 193.288,261.887 192.5,258.5C 192.5,228.167 192.5,197.833 192.5,167.5 Z"/></g>
<g><path style="opacity:1" fill="#a82417" d="M 315.5,258.5 C 315.5,229.167 315.5,199.833 315.5,170.5C 312.833,170.5 310.167,170.5 307.5,170.5C 307.5,171.5 307.5,172.5 307.5,173.5C 309.415,173.216 311.081,173.549 312.5,174.5C 310.265,174.795 308.265,174.461 306.5,173.5C 306.631,172.761 306.464,172.094 306,171.5C 304.346,171.206 302.846,171.873 301.5,173.5C 300.081,174.451 298.415,174.784 296.5,174.5C 296.167,174.5 295.833,174.5 295.5,174.5C 296.919,173.549 298.585,173.216 300.5,173.5C 300.5,172.5 300.5,171.5 300.5,170.5C 286.833,170.5 273.167,170.5 259.5,170.5C 259.5,171.5 259.5,172.5 259.5,173.5C 261.415,173.216 263.081,173.549 264.5,174.5C 262.297,174.935 260.297,174.935 258.5,174.5C 258.5,174.167 258.5,173.833 258.5,173.5C 258.591,171.302 257.925,170.969 256.5,172.5C 255.432,171.566 254.099,171.232 252.5,171.5C 252.5,172.5 252.5,173.5 252.5,174.5C 250.5,174.5 248.5,174.5 246.5,174.5C 247.919,173.549 249.585,173.216 251.5,173.5C 251.5,172.5 251.5,171.5 251.5,170.5C 237.833,170.5 224.167,170.5 210.5,170.5C 208.167,170.5 205.833,170.5 203.5,170.5C 200.833,170.5 198.167,170.5 195.5,170.5C 195.5,200.833 195.5,231.167 195.5,261.5C 194.502,231.005 194.169,200.338 194.5,169.5C 235.167,169.5 275.833,169.5 316.5,169.5C 316.831,199.338 316.498,229.005 315.5,258.5 Z"/></g>
<g><path style="opacity:1" fill="#fa0200" d="M 203.5,170.5 C 203.5,171.5 203.5,172.5 203.5,173.5C 201.5,173.5 199.5,173.5 197.5,173.5C 197.232,175.099 197.566,176.432 198.5,177.5C 197.562,179.91 197.562,182.244 198.5,184.5C 198.5,186.167 198.5,187.833 198.5,189.5C 198.5,190.167 198.167,190.5 197.5,190.5C 196.957,190.56 196.624,190.893 196.5,191.5C 203.167,192.833 209.833,192.833 216.5,191.5C 216.376,190.893 216.043,190.56 215.5,190.5C 215.5,189.5 215.5,188.5 215.5,187.5C 215.5,185.833 215.5,184.167 215.5,182.5C 216.757,181.377 216.424,180.711 214.5,180.5C 214.5,179.5 214.5,178.5 214.5,177.5C 215.404,176.791 215.737,175.791 215.5,174.5C 213.833,174.5 212.167,174.5 210.5,174.5C 210.5,173.167 210.5,171.833 210.5,170.5C 224.167,170.5 237.833,170.5 251.5,170.5C 251.5,171.5 251.5,172.5 251.5,173.5C 249.585,173.216 247.919,173.549 246.5,174.5C 246.833,176.5 247.167,178.5 247.5,180.5C 246.833,180.5 246.5,180.833 246.5,181.5C 246.5,182.167 246.5,182.833 246.5,183.5C 246.5,185.833 246.5,188.167 246.5,190.5C 245.957,190.56 245.624,190.893 245.5,191.5C 252.167,192.833 258.833,192.833 265.5,191.5C 265.376,190.893 265.043,190.56 264.5,190.5C 264.5,187.833 264.5,185.167 264.5,182.5C 264.5,182.167 264.5,181.833 264.5,181.5C 264.5,180.833 264.167,180.5 263.5,180.5C 263.833,178.5 264.167,176.5 264.5,174.5C 263.081,173.549 261.415,173.216 259.5,173.5C 259.5,172.5 259.5,171.5 259.5,170.5C 273.167,170.5 286.833,170.5 300.5,170.5C 300.5,171.5 300.5,172.5 300.5,173.5C 298.585,173.216 296.919,173.549 295.5,174.5C 295.5,175.5 295.5,176.5 295.5,177.5C 294.709,179.691 294.709,181.691 295.5,183.5C 295.5,184.5 295.5,185.5 295.5,186.5C 295.5,187.5 295.5,188.5 295.5,189.5C 295.196,190.15 294.863,190.817 294.5,191.5C 300.833,192.833 307.167,192.833 313.5,191.5C 313.137,190.817 312.804,190.15 312.5,189.5C 312.5,188.5 312.5,187.5 312.5,186.5C 312.5,185.5 312.5,184.5 312.5,183.5C 312.906,180.719 312.906,177.719 312.5,174.5C 311.081,173.549 309.415,173.216 307.5,173.5C 307.5,172.5 307.5,171.5 307.5,170.5C 310.167,170.5 312.833,170.5 315.5,170.5C 315.5,199.833 315.5,229.167 315.5,258.5C 314.419,261.627 313.753,264.96 313.5,268.5C 311.294,274.579 308.294,280.245 304.5,285.5C 304.737,284.209 304.404,283.209 303.5,282.5C 302.77,281.288 301.77,280.288 300.5,279.5C 300.863,278.817 301.196,278.15 301.5,277.5C 301.5,277.167 301.5,276.833 301.5,276.5C 300.289,272.538 298.289,271.871 295.5,274.5C 294.199,273.36 293.032,272.027 292,270.5C 290.519,271.471 289.685,272.804 289.5,274.5C 286.454,274.183 284.787,275.516 284.5,278.5C 283.564,279.974 282.23,280.974 280.5,281.5C 278.972,281.517 278.472,282.184 279,283.5C 283.036,287.704 287.202,291.704 291.5,295.5C 292.209,296.404 293.209,296.737 294.5,296.5C 285.599,304.45 275.266,309.45 263.5,311.5C 256.142,311.582 248.809,311.248 241.5,310.5C 216.572,303.237 201.238,286.903 195.5,261.5C 195.5,231.167 195.5,200.833 195.5,170.5C 198.167,170.5 200.833,170.5 203.5,170.5 Z"/></g>
<g><path style="opacity:1" fill="#eceb00" d="M 258.5,173.5 C 256.801,173.66 255.134,173.494 253.5,173C 254.448,172.517 255.448,172.351 256.5,172.5C 257.925,170.969 258.591,171.302 258.5,173.5 Z"/></g>
<g><path style="opacity:1" fill="#f0ef00" d="M 306.5,173.5 C 304.833,173.5 303.167,173.5 301.5,173.5C 302.846,171.873 304.346,171.206 306,171.5C 306.464,172.094 306.631,172.761 306.5,173.5 Z"/></g>
<g><path style="opacity:1" fill="#919100" d="M 191.5,167.5 C 191.343,170.318 190.009,172.318 187.5,173.5C 183.292,174.285 182.958,175.118 186.5,176C 184.553,176.991 182.553,177.325 180.5,177C 182.595,176.444 182.762,175.944 181,175.5C 179.535,176.33 178.035,176.496 176.5,176C 179.167,175 181.833,174 184.5,173C 186.441,170.546 188.775,168.713 191.5,167.5 Z"/></g>
<g><path style="opacity:1" fill="#e2e201" d="M 208.5,180.5 C 207.5,180.5 206.5,180.5 205.5,180.5C 205.5,179.167 205.5,177.833 205.5,176.5C 205.821,174.952 206.821,174.285 208.5,174.5C 208.5,176.5 208.5,178.5 208.5,180.5 Z"/></g>
<g><path style="opacity:1" fill="#704001" d="M 256.5,172.5 C 255.448,172.351 254.448,172.517 253.5,173C 255.134,173.494 256.801,173.66 258.5,173.5C 258.5,173.833 258.5,174.167 258.5,174.5C 258.687,176.564 259.187,178.564 260,180.5C 260.333,179.833 260.667,179.167 261,178.5C 261.417,179.756 262.25,180.423 263.5,180.5C 264.167,180.5 264.5,180.833 264.5,181.5C 261.941,181.802 259.607,181.468 257.5,180.5C 257.5,178.5 257.5,176.5 257.5,174.5C 256.167,174.5 254.833,174.5 253.5,174.5C 253.5,176.5 253.5,178.5 253.5,180.5C 251.393,181.468 249.059,181.802 246.5,181.5C 246.5,180.833 246.833,180.5 247.5,180.5C 248.75,180.423 249.583,179.756 250,178.5C 250.333,179.167 250.667,179.833 251,180.5C 251.813,178.564 252.313,176.564 252.5,174.5C 252.5,173.5 252.5,172.5 252.5,171.5C 254.099,171.232 255.432,171.566 256.5,172.5 Z"/></g>
<g><path style="opacity:1" fill="#6f4600" d="M 301.5,173.5 C 303.167,173.5 304.833,173.5 306.5,173.5C 308.265,174.461 310.265,174.795 312.5,174.5C 312.906,177.719 312.906,180.719 312.5,183.5C 310.645,181.767 308.312,180.767 305.5,180.5C 305.5,178.5 305.5,176.5 305.5,174.5C 304.5,174.5 303.5,174.5 302.5,174.5C 302.5,176.5 302.5,178.5 302.5,180.5C 299.688,180.767 297.355,181.767 295.5,183.5C 294.709,181.691 294.709,179.691 295.5,177.5C 296.404,178.209 296.737,179.209 296.5,180.5C 297.833,180.5 299.167,180.5 300.5,180.5C 300.5,178.833 300.5,177.167 300.5,175.5C 298.901,175.768 297.568,175.434 296.5,174.5C 298.415,174.784 300.081,174.451 301.5,173.5 Z"/></g>
<g><path style="opacity:1" fill="#e1e109" d="M 305.5,180.5 C 304.5,180.5 303.5,180.5 302.5,180.5C 302.5,178.5 302.5,176.5 302.5,174.5C 303.5,174.5 304.5,174.5 305.5,174.5C 305.5,176.5 305.5,178.5 305.5,180.5 Z"/></g>
<g><path style="opacity:1" fill="#8e2b00" d="M 203.5,170.5 C 205.833,170.5 208.167,170.5 210.5,170.5C 210.5,171.833 210.5,173.167 210.5,174.5C 209.833,174.5 209.5,174.167 209.5,173.5C 209.631,172.761 209.464,172.094 209,171.5C 207.346,171.206 205.846,171.873 204.5,173.5C 204.5,174.5 204.5,175.5 204.5,176.5C 204.657,177.873 204.49,179.207 204,180.5C 203.871,177.997 202.871,175.997 201,174.5C 200.333,175.833 199.667,175.833 199,174.5C 198.517,175.448 198.351,176.448 198.5,177.5C 197.566,176.432 197.232,175.099 197.5,173.5C 199.5,173.5 201.5,173.5 203.5,173.5C 203.5,172.5 203.5,171.5 203.5,170.5 Z"/></g>
<g><path style="opacity:1" fill="#f1f100" d="M 209.5,173.5 C 207.833,173.5 206.167,173.5 204.5,173.5C 205.846,171.873 207.346,171.206 209,171.5C 209.464,172.094 209.631,172.761 209.5,173.5 Z"/></g>
<g><path style="opacity:1" fill="#5e4315" d="M 318.5,172.5 C 318.833,172.5 319.167,172.5 319.5,172.5C 319.881,173.931 320.881,174.764 322.5,175C 321.552,175.483 320.552,175.649 319.5,175.5C 319.216,177.415 319.549,179.081 320.5,180.5C 320.196,181.15 319.863,181.817 319.5,182.5C 320.949,183.172 322.282,183.839 323.5,184.5C 322.167,184.5 320.833,184.5 319.5,184.5C 319.025,187.082 319.692,189.082 321.5,190.5C 319.758,193.145 319.091,196.145 319.5,199.5C 323.449,199.693 323.449,200.193 319.5,201C 320.793,201.49 322.127,201.657 323.5,201.5C 322.432,202.434 321.099,202.768 319.5,202.5C 319.5,208.167 319.5,213.833 319.5,219.5C 319.167,219.5 318.833,219.5 318.5,219.5C 318.5,203.833 318.5,188.167 318.5,172.5 Z"/></g>
<g><path style="opacity:1" fill="#fafa00" d="M 319.5,172.5 C 320.167,172.5 320.833,172.5 321.5,172.5C 324.687,173.731 328.02,174.897 331.5,176C 328.833,176 326.167,176 323.5,176C 328.823,177.609 334.156,179.109 339.5,180.5C 341.435,181.81 343.435,183.143 345.5,184.5C 347.092,186.225 346.758,187.225 344.5,187.5C 336.776,184.565 328.776,182.232 320.5,180.5C 319.549,179.081 319.216,177.415 319.5,175.5C 320.552,175.649 321.552,175.483 322.5,175C 320.881,174.764 319.881,173.931 319.5,172.5 Z"/></g>
<g><path style="opacity:1" fill="#958100" d="M 246.5,174.5 C 248.5,174.5 250.5,174.5 252.5,174.5C 252.313,176.564 251.813,178.564 251,180.5C 250.667,179.833 250.333,179.167 250,178.5C 249.583,179.756 248.75,180.423 247.5,180.5C 247.167,178.5 246.833,176.5 246.5,174.5 Z"/></g>
<g><path style="opacity:1" fill="#978600" d="M 258.5,174.5 C 260.297,174.935 262.297,174.935 264.5,174.5C 264.167,176.5 263.833,178.5 263.5,180.5C 262.25,180.423 261.417,179.756 261,178.5C 260.667,179.167 260.333,179.833 260,180.5C 259.187,178.564 258.687,176.564 258.5,174.5 Z"/></g>
<g><path style="opacity:1" fill="#9f9900" d="M 295.5,174.5 C 295.833,174.5 296.167,174.5 296.5,174.5C 297.568,175.434 298.901,175.768 300.5,175.5C 300.5,177.167 300.5,178.833 300.5,180.5C 299.167,180.5 297.833,180.5 296.5,180.5C 296.737,179.209 296.404,178.209 295.5,177.5C 295.5,176.5 295.5,175.5 295.5,174.5 Z"/></g>
<g><path style="opacity:1" fill="#6f4701" d="M 204.5,173.5 C 206.167,173.5 207.833,173.5 209.5,173.5C 209.5,174.167 209.833,174.5 210.5,174.5C 212.167,174.5 213.833,174.5 215.5,174.5C 215.737,175.791 215.404,176.791 214.5,177.5C 213.167,177.5 211.833,177.5 210.5,177.5C 210.5,178.5 210.5,179.5 210.5,180.5C 211.833,180.5 213.167,180.5 214.5,180.5C 216.424,180.711 216.757,181.377 215.5,182.5C 213.285,181.732 210.952,181.065 208.5,180.5C 208.5,178.5 208.5,176.5 208.5,174.5C 206.821,174.285 205.821,174.952 205.5,176.5C 205.167,176.5 204.833,176.5 204.5,176.5C 204.5,175.5 204.5,174.5 204.5,173.5 Z"/></g>
<g><path style="opacity:1" fill="#cdcb00" d="M 307.5,177.5 C 308.833,177.5 310.167,177.5 311.5,177.5C 311.5,178.5 311.5,179.5 311.5,180.5C 310.167,180.5 308.833,180.5 307.5,180.5C 307.5,179.5 307.5,178.5 307.5,177.5 Z"/></g>
<g><path style="opacity:1" fill="#626300" d="M 181.5,180.5 C 181.5,180.833 181.5,181.167 181.5,181.5C 176.609,180.097 171.609,179.43 166.5,179.5C 167.926,178.659 169.26,177.659 170.5,176.5C 170.369,177.239 170.536,177.906 171,178.5C 172,177.5 173,176.5 174,175.5C 176.096,176.715 175.929,177.549 173.5,178C 176.154,178.941 178.821,179.774 181.5,180.5 Z"/></g>
<g><path style="opacity:1" fill="#e4e400" d="M 257.5,180.5 C 256.167,180.5 254.833,180.5 253.5,180.5C 253.5,178.5 253.5,176.5 253.5,174.5C 254.833,174.5 256.167,174.5 257.5,174.5C 257.5,176.5 257.5,178.5 257.5,180.5 Z"/></g>
<g><path style="opacity:1" fill="#a0a000" d="M 319.5,166.5 C 321.963,168.461 324.297,170.628 326.5,173C 329,173.833 331.5,174.667 334,175.5C 336.146,174.119 337.313,174.786 337.5,177.5C 338.6,178.558 339.934,179.392 341.5,180C 340.906,180.464 340.239,180.631 339.5,180.5C 334.156,179.109 328.823,177.609 323.5,176C 326.167,176 328.833,176 331.5,176C 328.02,174.897 324.687,173.731 321.5,172.5C 319.919,170.858 319.253,168.858 319.5,166.5 Z"/></g>
<g><path style="opacity:1" fill="#d2d200" d="M 214.5,177.5 C 214.5,178.5 214.5,179.5 214.5,180.5C 213.167,180.5 211.833,180.5 210.5,180.5C 210.5,179.5 210.5,178.5 210.5,177.5C 211.833,177.5 213.167,177.5 214.5,177.5 Z"/></g>
<g><path style="opacity:1" fill="#fcfc00" d="M 166.5,179.5 C 171.609,179.43 176.609,180.097 181.5,181.5C 179.01,182.09 176.343,182.257 173.5,182C 178.541,183.576 183.541,184.909 188.5,186C 187.167,185.333 185.833,184.667 184.5,184C 185.928,183.421 187.262,183.588 188.5,184.5C 189.496,184.414 190.329,184.748 191,185.5C 191.82,192.014 191.653,198.347 190.5,204.5C 186.889,202.069 182.889,200.403 178.5,199.5C 172.917,196.528 166.917,194.528 160.5,193.5C 162.234,189.7 164.234,186.034 166.5,182.5C 168.423,181.692 170.423,181.192 172.5,181C 170.292,180.809 168.292,180.309 166.5,179.5 Z"/></g>
<g><path style="opacity:1" fill="#8b7d00" d="M 204.5,176.5 C 204.833,176.5 205.167,176.5 205.5,176.5C 205.5,177.833 205.5,179.167 205.5,180.5C 206.5,180.5 207.5,180.5 208.5,180.5C 210.952,181.065 213.285,181.732 215.5,182.5C 215.5,184.167 215.5,185.833 215.5,187.5C 215.167,187.5 214.833,187.5 214.5,187.5C 214.5,186.5 214.5,185.5 214.5,184.5C 212.833,184.5 211.167,184.5 209.5,184.5C 207.901,184.232 206.568,184.566 205.5,185.5C 203.283,184.631 200.95,184.298 198.5,184.5C 197.562,182.244 197.562,179.91 198.5,177.5C 198.351,176.448 198.517,175.448 199,174.5C 199.667,175.833 200.333,175.833 201,174.5C 202.871,175.997 203.871,177.997 204,180.5C 204.49,179.207 204.657,177.873 204.5,176.5 Z"/></g>
<g><path style="opacity:1" fill="#a6a600" d="M 181.5,180.5 C 183.833,181.833 186.167,181.833 188.5,180.5C 189.263,181.268 190.263,181.768 191.5,182C 190.058,182.377 189.058,183.21 188.5,184.5C 187.262,183.588 185.928,183.421 184.5,184C 185.833,184.667 187.167,185.333 188.5,186C 183.541,184.909 178.541,183.576 173.5,182C 176.343,182.257 179.01,182.09 181.5,181.5C 181.5,181.167 181.5,180.833 181.5,180.5 Z"/></g>
<g><path style="opacity:1" fill="#aca500" d="M 253.5,180.5 C 254.833,180.5 256.167,180.5 257.5,180.5C 259.607,181.468 261.941,181.802 264.5,181.5C 264.5,181.833 264.5,182.167 264.5,182.5C 258.591,183.455 252.591,183.789 246.5,183.5C 246.5,182.833 246.5,182.167 246.5,181.5C 249.059,181.802 251.393,181.468 253.5,180.5 Z"/></g>
<g><path style="opacity:1" fill="#aca600" d="M 302.5,180.5 C 303.5,180.5 304.5,180.5 305.5,180.5C 308.312,180.767 310.645,181.767 312.5,183.5C 306.833,183.5 301.167,183.5 295.5,183.5C 297.355,181.767 299.688,180.767 302.5,180.5 Z"/></g>
<g><path style="opacity:1" fill="#644900" d="M 264.5,182.5 C 264.5,185.167 264.5,187.833 264.5,190.5C 263.833,190.5 263.5,190.167 263.5,189.5C 263.5,187.833 263.5,186.167 263.5,184.5C 261.833,184.5 260.167,184.5 258.5,184.5C 256.703,184.935 254.703,184.935 252.5,184.5C 250.833,184.5 249.167,184.5 247.5,184.5C 247.5,186.167 247.5,187.833 247.5,189.5C 247.5,190.167 247.167,190.5 246.5,190.5C 246.5,188.167 246.5,185.833 246.5,183.5C 252.591,183.789 258.591,183.455 264.5,182.5 Z"/></g>
<g><path style="opacity:1" fill="#5e5400" d="M 295.5,183.5 C 301.167,183.5 306.833,183.5 312.5,183.5C 312.5,184.5 312.5,185.5 312.5,186.5C 311.601,185.528 310.434,184.862 309,184.5C 305.667,184.5 302.333,184.5 299,184.5C 297.566,184.862 296.399,185.528 295.5,186.5C 295.5,185.5 295.5,184.5 295.5,183.5 Z"/></g>
<g><path style="opacity:1" fill="#b1b000" d="M 320.5,180.5 C 328.776,182.232 336.776,184.565 344.5,187.5C 345.78,188.931 347.447,189.598 349.5,189.5C 349.5,190.167 349.833,190.5 350.5,190.5C 350.082,191.222 349.416,191.722 348.5,192C 349.636,193.145 350.636,194.312 351.5,195.5C 354.291,200.871 356.291,206.538 357.5,212.5C 356.778,212.082 356.278,211.416 356,210.5C 356.083,213.119 356.25,215.786 356.5,218.5C 354.113,209.189 350.613,200.189 346,191.5C 344.007,189.622 341.841,189.288 339.5,190.5C 342.069,194.967 344.069,199.633 345.5,204.5C 344.442,203.4 343.608,202.066 343,200.5C 342.536,201.094 342.369,201.761 342.5,202.5C 341.609,201.739 340.942,200.739 340.5,199.5C 339.675,198.614 338.675,198.281 337.5,198.5C 337.918,197.778 338.584,197.278 339.5,197C 339,196.833 338.5,196.667 338,196.5C 333.272,198.227 328.438,199.061 323.5,199C 328.543,197.822 333.543,196.489 338.5,195C 337.274,193.365 335.941,191.865 334.5,190.5C 332.902,191.485 331.235,191.651 329.5,191C 331.491,190.626 333.158,189.793 334.5,188.5C 337.258,187.033 336.925,186.367 333.5,186.5C 330.321,185.207 326.988,184.54 323.5,184.5C 322.282,183.839 320.949,183.172 319.5,182.5C 319.863,181.817 320.196,181.15 320.5,180.5 Z"/></g>
<g><path style="opacity:1" fill="#fdfd00" d="M 209.5,184.5 C 211.167,184.5 212.833,184.5 214.5,184.5C 214.5,185.5 214.5,186.5 214.5,187.5C 214.53,188.497 214.03,189.164 213,189.5C 211.341,188.184 210.175,186.518 209.5,184.5 Z"/></g>
<g><path style="opacity:1" fill="#fbfb00" d="M 252.5,184.5 C 252.326,187.763 250.659,189.43 247.5,189.5C 247.5,187.833 247.5,186.167 247.5,184.5C 249.167,184.5 250.833,184.5 252.5,184.5 Z"/></g>
<g><path style="opacity:1" fill="#fbfb00" d="M 258.5,184.5 C 260.167,184.5 261.833,184.5 263.5,184.5C 263.5,186.167 263.5,187.833 263.5,189.5C 260.341,189.43 258.674,187.763 258.5,184.5 Z"/></g>
<g><path style="opacity:1" fill="#d92300" d="M 323.5,184.5 C 326.988,184.54 330.321,185.207 333.5,186.5C 332.5,187.167 331.5,187.833 330.5,188.5C 327.697,189.928 324.697,190.595 321.5,190.5C 319.692,189.082 319.025,187.082 319.5,184.5C 320.833,184.5 322.167,184.5 323.5,184.5 Z"/></g>
<g><path style="opacity:1" fill="#dbda00" d="M 312.5,186.5 C 312.5,187.5 312.5,188.5 312.5,189.5C 310.549,189.773 309.049,189.107 308,187.5C 307.333,190.167 306.667,190.167 306,187.5C 305.517,188.448 305.351,189.448 305.5,190.5C 304.5,190.5 303.5,190.5 302.5,190.5C 302.587,187.402 302.087,187.068 301,189.5C 300.667,188.833 300.333,188.167 300,187.5C 298.951,189.107 297.451,189.773 295.5,189.5C 295.5,188.5 295.5,187.5 295.5,186.5C 296.399,185.528 297.566,184.862 299,184.5C 302.333,184.5 305.667,184.5 309,184.5C 310.434,184.862 311.601,185.528 312.5,186.5 Z"/></g>
<g><path style="opacity:1" fill="#a49f00" d="M 209.5,184.5 C 210.175,186.518 211.341,188.184 213,189.5C 214.03,189.164 214.53,188.497 214.5,187.5C 214.833,187.5 215.167,187.5 215.5,187.5C 215.5,188.5 215.5,189.5 215.5,190.5C 209.5,191.833 203.5,191.833 197.5,190.5C 198.167,190.5 198.5,190.167 198.5,189.5C 199.833,189.5 201.167,189.5 202.5,189.5C 202.351,188.448 202.517,187.448 203,186.5C 203.418,190.222 205.251,191.222 208.5,189.5C 207.891,186.163 206.724,185.83 205,188.5C 204.53,187.423 204.697,186.423 205.5,185.5C 206.568,184.566 207.901,184.232 209.5,184.5 Z"/></g>
<g><path style="opacity:1" fill="#685000" d="M 333.5,186.5 C 336.925,186.367 337.258,187.033 334.5,188.5C 333.167,188.5 331.833,188.5 330.5,188.5C 331.5,187.833 332.5,187.167 333.5,186.5 Z"/></g>
<g><path style="opacity:1" fill="#706702" d="M 338.5,174.5 C 341.602,178.104 344.935,181.604 348.5,185C 347.419,186.711 347.752,188.211 349.5,189.5C 347.447,189.598 345.78,188.931 344.5,187.5C 346.758,187.225 347.092,186.225 345.5,184.5C 343.435,183.143 341.435,181.81 339.5,180.5C 340.239,180.631 340.906,180.464 341.5,180C 339.934,179.392 338.6,178.558 337.5,177.5C 338.239,177.631 338.906,177.464 339.5,177C 338.748,176.329 338.414,175.496 338.5,174.5 Z"/></g>
<g><path style="opacity:1" fill="#3e4216" d="M 192.5,166.5 C 192.5,166.833 192.5,167.167 192.5,167.5C 192.5,197.833 192.5,228.167 192.5,258.5C 189.615,258.806 186.948,258.473 184.5,257.5C 187.059,257.802 189.393,257.468 191.5,256.5C 191.5,256.167 191.5,255.833 191.5,255.5C 191.5,253.5 191.5,251.5 191.5,249.5C 189.801,249.66 188.134,249.494 186.5,249C 188.382,248.802 190.048,248.302 191.5,247.5C 191.5,241.833 191.5,236.167 191.5,230.5C 191.5,230.167 191.5,229.833 191.5,229.5C 191.5,228.833 191.5,228.167 191.5,227.5C 191.5,225.833 191.5,224.167 191.5,222.5C 191.5,222.167 191.5,221.833 191.5,221.5C 192.026,216.193 191.36,211.193 189.5,206.5C 191.698,206.591 192.031,205.925 190.5,204.5C 191.653,198.347 191.82,192.014 191,185.5C 190.329,184.748 189.496,184.414 188.5,184.5C 189.058,183.21 190.058,182.377 191.5,182C 190.263,181.768 189.263,181.268 188.5,180.5C 189.5,180.5 190.5,180.5 191.5,180.5C 191.5,178.833 191.5,177.167 191.5,175.5C 186.318,175.443 186.318,174.776 191.5,173.5C 191.333,173.167 191.167,172.833 191,172.5C 189.989,173.337 188.822,173.67 187.5,173.5C 190.009,172.318 191.343,170.318 191.5,167.5C 191.5,166.833 191.833,166.5 192.5,166.5 Z"/></g>
<g><path style="opacity:1" fill="#dddc00" d="M 198.5,184.5 C 200.95,184.298 203.283,184.631 205.5,185.5C 204.697,186.423 204.53,187.423 205,188.5C 206.724,185.83 207.891,186.163 208.5,189.5C 205.251,191.222 203.418,190.222 203,186.5C 202.517,187.448 202.351,188.448 202.5,189.5C 201.167,189.5 199.833,189.5 198.5,189.5C 198.5,187.833 198.5,186.167 198.5,184.5 Z"/></g>
<g><path style="opacity:1" fill="#fafa00" d="M 356.5,218.5 C 357.226,222.679 357.226,226.679 356.5,230.5C 355.486,229.326 354.153,228.66 352.5,228.5C 351.531,223.494 350.364,218.494 349,213.5C 349.367,216.665 349.201,219.665 348.5,222.5C 348.258,218.521 347.258,214.854 345.5,211.5C 345.351,210.448 345.517,209.448 346,208.5C 346.667,209.833 347.333,211.167 348,212.5C 348.264,209.461 347.431,206.794 345.5,204.5C 344.069,199.633 342.069,194.967 339.5,190.5C 341.841,189.288 344.007,189.622 346,191.5C 350.613,200.189 354.113,209.189 356.5,218.5 Z"/></g>
<g><path style="opacity:1" fill="#a29c00" d="M 252.5,184.5 C 254.703,184.935 256.703,184.935 258.5,184.5C 258.674,187.763 260.341,189.43 263.5,189.5C 263.5,190.167 263.833,190.5 264.5,190.5C 258.5,191.833 252.5,191.833 246.5,190.5C 247.167,190.5 247.5,190.167 247.5,189.5C 250.659,189.43 252.326,187.763 252.5,184.5 Z"/></g>
<g><path style="opacity:1" fill="#8c7d00" d="M 312.5,189.5 C 312.804,190.15 313.137,190.817 313.5,191.5C 307.167,192.833 300.833,192.833 294.5,191.5C 294.863,190.817 295.196,190.15 295.5,189.5C 297.451,189.773 298.951,189.107 300,187.5C 300.333,188.167 300.667,188.833 301,189.5C 302.087,187.068 302.587,187.402 302.5,190.5C 303.5,190.5 304.5,190.5 305.5,190.5C 305.351,189.448 305.517,188.448 306,187.5C 306.667,190.167 307.333,190.167 308,187.5C 309.049,189.107 310.549,189.773 312.5,189.5 Z"/></g>
<g><path style="opacity:1" fill="#f0f000" d="M 330.5,188.5 C 331.833,188.5 333.167,188.5 334.5,188.5C 333.158,189.793 331.491,190.626 329.5,191C 331.235,191.651 332.902,191.485 334.5,190.5C 335.941,191.865 337.274,193.365 338.5,195C 333.543,196.489 328.543,197.822 323.5,199C 328.438,199.061 333.272,198.227 338,196.5C 338.5,196.667 339,196.833 339.5,197C 338.584,197.278 337.918,197.778 337.5,198.5C 337.167,198.5 336.833,198.5 336.5,198.5C 333.933,198.721 331.599,199.388 329.5,200.5C 327.379,200.325 325.379,200.659 323.5,201.5C 322.127,201.657 320.793,201.49 319.5,201C 323.449,200.193 323.449,199.693 319.5,199.5C 319.091,196.145 319.758,193.145 321.5,190.5C 324.697,190.595 327.697,189.928 330.5,188.5 Z"/></g>
<g><path style="opacity:1" fill="#784a00" d="M 197.5,190.5 C 203.5,191.833 209.5,191.833 215.5,190.5C 216.043,190.56 216.376,190.893 216.5,191.5C 209.833,192.833 203.167,192.833 196.5,191.5C 196.624,190.893 196.957,190.56 197.5,190.5 Z"/></g>
<g><path style="opacity:1" fill="#774900" d="M 246.5,190.5 C 252.5,191.833 258.5,191.833 264.5,190.5C 265.043,190.56 265.376,190.893 265.5,191.5C 258.833,192.833 252.167,192.833 245.5,191.5C 245.624,190.893 245.957,190.56 246.5,190.5 Z"/></g>
<g><path style="opacity:1" fill="#4a4102" d="M 350.5,190.5 C 352.538,191.856 352.872,193.523 351.5,195.5C 350.636,194.312 349.636,193.145 348.5,192C 349.416,191.722 350.082,191.222 350.5,190.5 Z"/></g>
<g><path style="opacity:1" fill="#888800" d="M 160.5,193.5 C 166.917,194.528 172.917,196.528 178.5,199.5C 174.43,198.644 170.43,197.477 166.5,196C 163.854,195.503 161.187,195.336 158.5,195.5C 159.167,194.833 159.833,194.167 160.5,193.5 Z"/></g>
<g><path style="opacity:1" fill="#7a2726" d="M 291.5,255.5 C 291.5,235.167 291.5,214.833 291.5,194.5C 267.5,194.5 243.5,194.5 219.5,194.5C 219.5,214.833 219.5,235.167 219.5,255.5C 218.503,235.007 218.169,214.34 218.5,193.5C 243.167,193.5 267.833,193.5 292.5,193.5C 292.831,214.34 292.497,235.007 291.5,255.5 Z"/></g>
<g><path style="opacity:1" fill="#fbfbfc" d="M 291.5,255.5 C 286.48,277.844 272.48,288.511 249.5,287.5C 247.485,286.076 245.152,285.41 242.5,285.5C 237.356,283.533 232.856,280.533 229,276.5C 224.168,270.176 221.002,263.176 219.5,255.5C 219.5,235.167 219.5,214.833 219.5,194.5C 243.5,194.5 267.5,194.5 291.5,194.5C 291.5,214.833 291.5,235.167 291.5,255.5 Z"/></g>
<g><path style="opacity:1" fill="#fcfc00" d="M 167.5,199.5 C 166.069,200.78 165.402,202.447 165.5,204.5C 163.194,208.085 161.861,212.085 161.5,216.5C 160.715,218.374 160.048,220.374 159.5,222.5C 159.784,224.415 159.451,226.081 158.5,227.5C 157.193,228.153 155.86,228.82 154.5,229.5C 154.167,228.5 153.833,227.5 153.5,226.5C 154.719,217.959 156.719,209.625 159.5,201.5C 160.421,200.019 161.588,198.686 163,197.5C 164.728,197.899 166.228,198.566 167.5,199.5 Z"/></g>
<g><path style="opacity:1" fill="#666701" d="M 158.5,195.5 C 162.806,196.25 167.14,197.417 171.5,199C 170.601,200.652 169.601,202.152 168.5,203.5C 168.33,202.178 168.663,201.011 169.5,200C 168.906,199.536 168.239,199.369 167.5,199.5C 166.228,198.566 164.728,197.899 163,197.5C 161.588,198.686 160.421,200.019 159.5,201.5C 159.906,199.891 159.906,198.557 159.5,197.5C 158.675,199.36 157.675,201.026 156.5,202.5C 156.338,200.473 156.505,198.473 157,196.5C 157.383,195.944 157.883,195.611 158.5,195.5 Z"/></g>
<g><path style="opacity:1" fill="#f0f000" d="M 159.5,201.5 C 157.731,205.385 156.064,208.718 154.5,211.5C 155.167,208.5 155.833,205.5 156.5,202.5C 157.675,201.026 158.675,199.36 159.5,197.5C 159.906,198.557 159.906,199.891 159.5,201.5 Z"/></g>
<g><path style="opacity:1" fill="#f60b00" d="M 336.5,198.5 C 336.833,198.5 337.167,198.5 337.5,198.5C 338.675,198.281 339.675,198.614 340.5,199.5C 340.942,200.739 341.609,201.739 342.5,202.5C 343.11,203.391 343.443,204.391 343.5,205.5C 343.595,207.786 344.262,209.786 345.5,211.5C 346.376,216.132 347.043,220.799 347.5,225.5C 346.5,225.5 345.5,225.5 344.5,225.5C 337.813,223.83 331.146,222.164 324.5,220.5C 323.081,219.549 321.415,219.216 319.5,219.5C 319.5,213.833 319.5,208.167 319.5,202.5C 321.099,202.768 322.432,202.434 323.5,201.5C 325.379,200.659 327.379,200.325 329.5,200.5C 332.228,200.829 334.562,200.163 336.5,198.5 Z"/></g>
<g><path style="opacity:1" fill="#943500" d="M 336.5,198.5 C 334.562,200.163 332.228,200.829 329.5,200.5C 331.599,199.388 333.933,198.721 336.5,198.5 Z"/></g>
<g><path style="opacity:1" fill="#f7f700" d="M 158.5,195.5 C 161.187,195.336 163.854,195.503 166.5,196C 170.43,197.477 174.43,198.644 178.5,199.5C 179.6,200.558 180.934,201.392 182.5,202C 181.5,202.333 180.5,202.667 179.5,203C 182.758,204.467 186.092,205.633 189.5,206.5C 191.36,211.193 192.026,216.193 191.5,221.5C 183.703,222.526 176.036,224.193 168.5,226.5C 167.584,226.457 166.917,226.124 166.5,225.5C 172.402,223.691 178.402,222.191 184.5,221C 183.956,220.283 183.289,219.783 182.5,219.5C 177.398,215.574 172.398,211.408 167.5,207C 168.337,205.989 168.67,204.822 168.5,203.5C 169.601,202.152 170.601,200.652 171.5,199C 167.14,197.417 162.806,196.25 158.5,195.5 Z"/></g>
<g><path style="opacity:1" fill="#f3f300" d="M 345.5,204.5 C 345.633,207.925 344.967,208.258 343.5,205.5C 343.443,204.391 343.11,203.391 342.5,202.5C 342.369,201.761 342.536,201.094 343,200.5C 343.608,202.066 344.442,203.4 345.5,204.5 Z"/></g>
<g><path style="opacity:1" fill="#173c9e" d="M 247.5,202.5 C 252.833,202.5 258.167,202.5 263.5,202.5C 263.666,207.511 263.499,212.511 263,217.5C 260.565,222.224 256.731,223.724 251.5,222C 250.667,221.167 249.833,220.333 249,219.5C 247.649,213.928 247.149,208.262 247.5,202.5 Z"/></g>
<g><path style="opacity:1" fill="#bcbc00" d="M 178.5,199.5 C 182.889,200.403 186.889,202.069 190.5,204.5C 192.031,205.925 191.698,206.591 189.5,206.5C 186.092,205.633 182.758,204.467 179.5,203C 180.5,202.667 181.5,202.333 182.5,202C 180.934,201.392 179.6,200.558 178.5,199.5 Z"/></g>
<g><path style="opacity:1" fill="#878700" d="M 165.5,204.5 C 164.739,208.784 163.405,212.784 161.5,216.5C 161.861,212.085 163.194,208.085 165.5,204.5 Z"/></g>
<g><path style="opacity:1" fill="#dae0f0" d="M 250.5,205.5 C 252.048,205.821 252.715,206.821 252.5,208.5C 249.752,208.598 249.086,207.598 250.5,205.5 Z"/></g>
<g><path style="opacity:1" fill="#dee4f1" d="M 259.5,205.5 C 261.048,205.821 261.715,206.821 261.5,208.5C 258.752,208.598 258.086,207.598 259.5,205.5 Z"/></g>
<g><path style="opacity:1" fill="#8d8403" d="M 345.5,204.5 C 347.431,206.794 348.264,209.461 348,212.5C 347.333,211.167 346.667,209.833 346,208.5C 345.517,209.448 345.351,210.448 345.5,211.5C 344.262,209.786 343.595,207.786 343.5,205.5C 344.967,208.258 345.633,207.925 345.5,204.5 Z"/></g>
<g><path style="opacity:1" fill="#c5cee7" d="M 254.5,209.5 C 257.861,210.203 258.194,211.537 255.5,213.5C 254.571,212.311 254.238,210.978 254.5,209.5 Z"/></g>
<g><path style="opacity:1" fill="#205b00" d="M 182.5,219.5 C 183.289,219.783 183.956,220.283 184.5,221C 178.402,222.191 172.402,223.691 166.5,225.5C 164.114,226.298 161.78,227.298 159.5,228.5C 158.893,228.376 158.56,228.043 158.5,227.5C 159.451,226.081 159.784,224.415 159.5,222.5C 160.29,223.609 160.79,224.942 161,226.5C 162.667,220.5 164.333,214.5 166,208.5C 170.209,213.444 175.209,217.444 181,220.5C 181.765,220.43 182.265,220.097 182.5,219.5 Z"/></g>
<g><path style="opacity:1" fill="#cccc00" d="M 167.5,199.5 C 168.239,199.369 168.906,199.536 169.5,200C 168.663,201.011 168.33,202.178 168.5,203.5C 168.67,204.822 168.337,205.989 167.5,207C 172.398,211.408 177.398,215.574 182.5,219.5C 182.265,220.097 181.765,220.43 181,220.5C 175.209,217.444 170.209,213.444 166,208.5C 164.333,214.5 162.667,220.5 161,226.5C 160.79,224.942 160.29,223.609 159.5,222.5C 160.048,220.374 160.715,218.374 161.5,216.5C 163.405,212.784 164.739,208.784 165.5,204.5C 165.402,202.447 166.069,200.78 167.5,199.5 Z"/></g>
<g><path style="opacity:1" fill="#f7f700" d="M 357.5,212.5 C 358.005,215.841 358.172,219.174 358,222.5C 357.79,220.942 357.29,219.609 356.5,218.5C 356.25,215.786 356.083,213.119 356,210.5C 356.278,211.416 356.778,212.082 357.5,212.5 Z"/></g>
<g><path style="opacity:1" fill="#d9dfef" d="M 249.5,214.5 C 250.5,214.5 251.5,214.5 252.5,214.5C 252.5,215.5 252.5,216.5 252.5,217.5C 251.5,217.5 250.5,217.5 249.5,217.5C 249.5,216.5 249.5,215.5 249.5,214.5 Z"/></g>
<g><path style="opacity:1" fill="#dee4f2" d="M 258.5,214.5 C 259.5,214.5 260.5,214.5 261.5,214.5C 261.5,215.5 261.5,216.5 261.5,217.5C 260.5,217.5 259.5,217.5 258.5,217.5C 258.5,216.5 258.5,215.5 258.5,214.5 Z"/></g>
<g><path style="opacity:1" fill="#6b3e01" d="M 345.5,211.5 C 347.258,214.854 348.258,218.521 348.5,222.5C 349.301,224.042 349.634,225.708 349.5,227.5C 347.597,227.204 345.93,226.537 344.5,225.5C 345.5,225.5 346.5,225.5 347.5,225.5C 347.043,220.799 346.376,216.132 345.5,211.5 Z"/></g>
<g><path style="opacity:1" fill="#733901" d="M 312.5,224.5 C 311.194,224.879 309.861,225.212 308.5,225.5C 307.719,226.729 307.219,228.062 307,229.5C 306.722,228.584 306.222,227.918 305.5,227.5C 305.5,226.5 305.5,225.5 305.5,224.5C 307.078,222.682 306.578,221.682 304,221.5C 301.422,221.682 300.922,222.682 302.5,224.5C 302.5,226.167 302.5,227.833 302.5,229.5C 301.833,229.5 301.167,229.5 300.5,229.5C 300.421,228.07 300.754,226.736 301.5,225.5C 299.394,224.919 297.394,224.586 295.5,224.5C 296.919,223.549 298.585,223.216 300.5,223.5C 300.5,222.5 300.5,221.5 300.5,220.5C 302.833,220.5 305.167,220.5 307.5,220.5C 307.5,221.5 307.5,222.5 307.5,223.5C 309.415,223.216 311.081,223.549 312.5,224.5 Z"/></g>
<g><path style="opacity:1" fill="#303e01" d="M 152.5,215.5 C 152.106,220.031 151.439,224.531 150.5,229C 151.895,231.087 151.562,232.587 149.5,233.5C 149.439,227.196 150.439,221.196 152.5,215.5 Z"/></g>
<g><path style="opacity:1" fill="#fafa00" d="M 191.5,222.5 C 191.5,224.167 191.5,225.833 191.5,227.5C 179.162,229.752 167.162,233.252 155.5,238C 167.195,234.244 179.195,231.411 191.5,229.5C 191.5,229.833 191.5,230.167 191.5,230.5C 180.289,231.966 169.623,234.966 159.5,239.5C 157.079,239.878 154.746,240.545 152.5,241.5C 153.679,239.493 153.179,239.16 151,240.5C 150.333,238.833 150.333,237.167 151,235.5C 163.675,228.786 177.175,224.452 191.5,222.5 Z"/></g>
<g><path style="opacity:1" fill="#8d8200" d="M 208.5,220.5 C 208.833,220.5 209.167,220.5 209.5,220.5C 209.737,221.791 209.404,222.791 208.5,223.5C 207.5,223.5 206.5,223.5 205.5,223.5C 205.5,225.5 205.5,227.5 205.5,229.5C 206.5,229.5 207.5,229.5 208.5,229.5C 208.5,229.833 208.5,230.167 208.5,230.5C 207.167,230.5 205.833,230.5 204.5,230.5C 204.5,227.5 204.5,224.5 204.5,221.5C 206.099,221.768 207.432,221.434 208.5,220.5 Z"/></g>
<g><path style="opacity:1" fill="#9e9701" d="M 305.5,224.5 C 304.732,225.263 304.232,226.263 304,227.5C 303.768,226.263 303.268,225.263 302.5,224.5C 300.922,222.682 301.422,221.682 304,221.5C 306.578,221.682 307.078,222.682 305.5,224.5 Z"/></g>
<g><path style="opacity:1" fill="#625d11" d="M 318.5,219.5 C 318.833,219.5 319.167,219.5 319.5,219.5C 321.415,219.216 323.081,219.549 324.5,220.5C 322.801,220.34 321.134,220.506 319.5,221C 323.449,221.807 323.449,222.307 319.5,222.5C 319.5,224.5 319.5,226.5 319.5,228.5C 321.199,228.34 322.866,228.506 324.5,229C 322.618,229.198 320.952,229.698 319.5,230.5C 319.167,230.5 318.833,230.5 318.5,230.5C 318.5,226.833 318.5,223.167 318.5,219.5 Z"/></g>
<g><path style="opacity:1" fill="#f6f600" d="M 324.5,220.5 C 331.146,222.164 337.813,223.83 344.5,225.5C 345.93,226.537 347.597,227.204 349.5,227.5C 350.209,228.404 351.209,228.737 352.5,228.5C 353.463,229.363 353.463,230.03 352.5,230.5C 351.264,229.754 349.93,229.421 348.5,229.5C 352.461,231.481 356.461,233.481 360.5,235.5C 360.263,238.212 360.263,240.712 360.5,243C 358.811,242.866 357.144,242.366 355.5,241.5C 355.414,240.504 355.748,239.671 356.5,239C 352.797,236.646 348.797,235.146 344.5,234.5C 342.485,233.076 340.152,232.41 337.5,232.5C 333.802,230.553 329.802,229.72 325.5,230C 327.788,230.822 330.122,231.489 332.5,232C 331.906,232.464 331.239,232.631 330.5,232.5C 327.518,232.037 324.518,231.704 321.5,231.5C 321.158,230.662 320.492,230.328 319.5,230.5C 320.952,229.698 322.618,229.198 324.5,229C 322.866,228.506 321.199,228.34 319.5,228.5C 319.5,226.5 319.5,224.5 319.5,222.5C 323.449,222.307 323.449,221.807 319.5,221C 321.134,220.506 322.801,220.34 324.5,220.5 Z"/></g>
<g><path style="opacity:1" fill="#a4a400" d="M 352.5,228.5 C 351.209,228.737 350.209,228.404 349.5,227.5C 349.634,225.708 349.301,224.042 348.5,222.5C 349.201,219.665 349.367,216.665 349,213.5C 350.364,218.494 351.531,223.494 352.5,228.5 Z"/></g>
<g><path style="opacity:1" fill="#797800" d="M 339.5,226.5 C 335.447,225.987 331.447,225.154 327.5,224C 331.835,223.587 335.835,224.42 339.5,226.5 Z"/></g>
<g><path style="opacity:1" fill="#7c7301" d="M 357.5,212.5 C 359.375,217.206 360.375,222.206 360.5,227.5C 359.71,226.391 359.21,225.058 359,223.5C 358.818,226.226 358.318,228.893 357.5,231.5C 356.893,231.376 356.56,231.043 356.5,230.5C 357.226,226.679 357.226,222.679 356.5,218.5C 357.29,219.609 357.79,220.942 358,222.5C 358.172,219.174 358.005,215.841 357.5,212.5 Z"/></g>
<g><path style="opacity:1" fill="#6e3201" d="M 208.5,220.5 C 207.432,221.434 206.099,221.768 204.5,221.5C 204.5,224.5 204.5,227.5 204.5,230.5C 203.069,230.119 202.236,229.119 202,227.5C 201.333,228.833 200.667,228.833 200,227.5C 199.768,228.737 199.268,229.737 198.5,230.5C 198.5,229.167 198.5,227.833 198.5,226.5C 197.596,225.791 197.263,224.791 197.5,223.5C 199.5,223.5 201.5,223.5 203.5,223.5C 203.5,222.5 203.5,221.5 203.5,220.5C 205.167,220.5 206.833,220.5 208.5,220.5 Z"/></g>
<g><path style="opacity:1" fill="#ecec00" d="M 208.5,223.5 C 208.5,225.5 208.5,227.5 208.5,229.5C 207.5,229.5 206.5,229.5 205.5,229.5C 205.5,227.5 205.5,225.5 205.5,223.5C 206.5,223.5 207.5,223.5 208.5,223.5 Z"/></g>
<g><path style="opacity:1" fill="#703701" d="M 209.5,220.5 C 210.404,221.209 210.737,222.209 210.5,223.5C 212.167,223.5 213.833,223.5 215.5,223.5C 215.5,225.833 215.5,228.167 215.5,230.5C 213.167,230.5 210.833,230.5 208.5,230.5C 208.5,230.167 208.5,229.833 208.5,229.5C 208.5,227.5 208.5,225.5 208.5,223.5C 209.404,222.791 209.737,221.791 209.5,220.5 Z"/></g>
<g><path style="opacity:1" fill="#feff00" d="M 302.5,224.5 C 303.268,225.263 303.768,226.263 304,227.5C 304.232,226.263 304.732,225.263 305.5,224.5C 305.5,225.5 305.5,226.5 305.5,227.5C 305.179,229.048 304.179,229.715 302.5,229.5C 302.5,227.833 302.5,226.167 302.5,224.5 Z"/></g>
<g><path style="opacity:1" fill="#d4d300" d="M 198.5,226.5 C 198.369,225.761 198.536,225.094 199,224.5C 200.616,224.676 202.116,225.01 203.5,225.5C 201.955,226.452 200.288,226.785 198.5,226.5 Z"/></g>
<g><path style="opacity:1" fill="#9a8d00" d="M 295.5,224.5 C 297.394,224.586 299.394,224.919 301.5,225.5C 300.754,226.736 300.421,228.07 300.5,229.5C 299.167,229.5 297.833,229.5 296.5,229.5C 296.737,228.209 296.404,227.209 295.5,226.5C 295.5,225.833 295.5,225.167 295.5,224.5 Z"/></g>
<g><path style="opacity:1" fill="#878700" d="M 339.5,226.5 C 342.916,226.528 345.916,227.528 348.5,229.5C 345.215,229.072 342.215,228.072 339.5,226.5 Z"/></g>
<g><path style="opacity:1" fill="#a7a500" d="M 209.5,224.5 C 211.042,225.301 212.708,225.634 214.5,225.5C 214.5,226.833 214.5,228.167 214.5,229.5C 213.167,229.5 211.833,229.5 210.5,229.5C 210.371,227.784 210.038,226.117 209.5,224.5 Z"/></g>
<g><path style="opacity:1" fill="#735c01" d="M 312.5,224.5 C 312.5,226.5 312.5,228.5 312.5,230.5C 306.833,230.5 301.167,230.5 295.5,230.5C 295.5,229.167 295.5,227.833 295.5,226.5C 296.404,227.209 296.737,228.209 296.5,229.5C 297.833,229.5 299.167,229.5 300.5,229.5C 301.167,229.5 301.833,229.5 302.5,229.5C 304.179,229.715 305.179,229.048 305.5,227.5C 306.222,227.918 306.722,228.584 307,229.5C 307.219,228.062 307.719,226.729 308.5,225.5C 309.861,225.212 311.194,224.879 312.5,224.5 Z"/></g>
<g><path style="opacity:1" fill="#e6e400" d="M 204.5,230.5 C 205.833,230.5 207.167,230.5 208.5,230.5C 210.833,230.5 213.167,230.5 215.5,230.5C 209.833,231.833 204.167,231.833 198.5,230.5C 199.268,229.737 199.768,228.737 200,227.5C 200.667,228.833 201.333,228.833 202,227.5C 202.236,229.119 203.069,230.119 204.5,230.5 Z"/></g>
<g><path style="opacity:1" fill="#b1b100" d="M 159.5,201.5 C 156.719,209.625 154.719,217.959 153.5,226.5C 153.833,227.5 154.167,228.5 154.5,229.5C 155.86,228.82 157.193,228.153 158.5,227.5C 158.56,228.043 158.893,228.376 159.5,228.5C 161.78,227.298 164.114,226.298 166.5,225.5C 166.917,226.124 167.584,226.457 168.5,226.5C 176.036,224.193 183.703,222.526 191.5,221.5C 191.5,221.833 191.5,222.167 191.5,222.5C 177.175,224.452 163.675,228.786 151,235.5C 150.333,237.167 150.333,238.833 151,240.5C 153.179,239.16 153.679,239.493 152.5,241.5C 151.833,242.5 151.167,243.5 150.5,244.5C 148.158,244.225 148.158,243.392 150.5,242C 149.833,239.667 149.167,237.333 148.5,235C 149.056,234.617 149.389,234.117 149.5,233.5C 151.562,232.587 151.895,231.087 150.5,229C 151.439,224.531 152.106,220.031 152.5,215.5C 153.167,214.167 153.833,212.833 154.5,211.5C 156.064,208.718 157.731,205.385 159.5,201.5 Z"/></g>
<g><path style="opacity:1" fill="#113a9c" d="M 225.5,230.5 C 230.833,230.5 236.167,230.5 241.5,230.5C 241.666,235.179 241.499,239.845 241,244.5C 237.632,251.175 232.965,252.175 227,247.5C 225.649,241.928 225.149,236.262 225.5,230.5 Z"/></g>
<g><path style="opacity:1" fill="#113a9c" d="M 247.5,230.5 C 252.833,230.5 258.167,230.5 263.5,230.5C 263.666,235.511 263.499,240.511 263,245.5C 259.987,250.535 255.82,251.702 250.5,249C 249.54,247.581 248.707,246.081 248,244.5C 247.501,239.845 247.334,235.179 247.5,230.5 Z"/></g>
<g><path style="opacity:1" fill="#163b9d" d="M 269.5,230.5 C 274.833,230.5 280.167,230.5 285.5,230.5C 285.666,235.511 285.499,240.511 285,245.5C 279.579,252.433 274.579,252.1 270,244.5C 269.501,239.845 269.334,235.179 269.5,230.5 Z"/></g>
<g><path style="opacity:1" fill="#5e2415" d="M 318.5,230.5 C 318.833,230.5 319.167,230.5 319.5,230.5C 320.492,230.328 321.158,230.662 321.5,231.5C 319.558,236.056 318.892,241.056 319.5,246.5C 320.5,246.5 321.5,246.5 322.5,246.5C 321.791,247.404 320.791,247.737 319.5,247.5C 319.167,247.5 318.833,247.5 318.5,247.5C 318.5,241.833 318.5,236.167 318.5,230.5 Z"/></g>
<g><path style="opacity:1" fill="#e61c00" d="M 321.5,231.5 C 324.518,231.704 327.518,232.037 330.5,232.5C 331.209,233.404 332.209,233.737 333.5,233.5C 338.943,234.86 344.277,236.527 349.5,238.5C 349.443,239.609 349.11,240.609 348.5,241.5C 343.833,242.5 339.167,243.5 334.5,244.5C 330.606,245.593 326.606,246.26 322.5,246.5C 321.5,246.5 320.5,246.5 319.5,246.5C 318.892,241.056 319.558,236.056 321.5,231.5 Z"/></g>
<g><path style="opacity:1" fill="#919100" d="M 191.5,227.5 C 191.5,228.167 191.5,228.833 191.5,229.5C 179.195,231.411 167.195,234.244 155.5,238C 167.162,233.252 179.162,229.752 191.5,227.5 Z"/></g>
<g><path style="opacity:1" fill="#7c7200" d="M 198.5,230.5 C 204.167,231.833 209.833,231.833 215.5,230.5C 215.865,232.588 215.865,234.921 215.5,237.5C 214.566,236.432 214.232,235.099 214.5,233.5C 209.1,234.451 203.766,234.784 198.5,234.5C 197.314,233.039 197.314,231.705 198.5,230.5 Z"/></g>
<g><path style="opacity:1" fill="#978b00" d="M 295.5,230.5 C 301.167,230.5 306.833,230.5 312.5,230.5C 313.103,232.626 313.103,234.959 312.5,237.5C 311.566,236.432 311.232,235.099 311.5,233.5C 307.468,233.423 303.801,234.423 300.5,236.5C 300.414,235.504 300.748,234.671 301.5,234C 299.866,233.506 298.199,233.34 296.5,233.5C 296.737,234.791 296.404,235.791 295.5,236.5C 294.709,234.309 294.709,232.309 295.5,230.5 Z"/></g>
<g><path style="opacity:1" fill="#a3a100" d="M 337.5,232.5 C 335.901,232.232 334.568,232.566 333.5,233.5C 332.209,233.737 331.209,233.404 330.5,232.5C 331.239,232.631 331.906,232.464 332.5,232C 330.122,231.489 327.788,230.822 325.5,230C 329.802,229.72 333.802,230.553 337.5,232.5 Z"/></g>
<g><path style="opacity:1" fill="#dfe5f2" d="M 227.5,233.5 C 228.5,233.5 229.5,233.5 230.5,233.5C 230.5,234.5 230.5,235.5 230.5,236.5C 229.5,236.5 228.5,236.5 227.5,236.5C 227.5,235.5 227.5,234.5 227.5,233.5 Z"/></g>
<g><path style="opacity:1" fill="#dbe2f0" d="M 236.5,233.5 C 237.5,233.5 238.5,233.5 239.5,233.5C 239.5,234.5 239.5,235.5 239.5,236.5C 238.5,236.5 237.5,236.5 236.5,236.5C 236.5,235.5 236.5,234.5 236.5,233.5 Z"/></g>
<g><path style="opacity:1" fill="#d9dfef" d="M 249.5,233.5 C 250.5,233.5 251.5,233.5 252.5,233.5C 252.5,234.5 252.5,235.5 252.5,236.5C 251.5,236.5 250.5,236.5 249.5,236.5C 249.5,235.5 249.5,234.5 249.5,233.5 Z"/></g>
<g><path style="opacity:1" fill="#dee4f2" d="M 258.5,233.5 C 259.5,233.5 260.5,233.5 261.5,233.5C 261.5,234.5 261.5,235.5 261.5,236.5C 260.5,236.5 259.5,236.5 258.5,236.5C 258.5,235.5 258.5,234.5 258.5,233.5 Z"/></g>
<g><path style="opacity:1" fill="#d7ddee" d="M 280.5,233.5 C 281.5,233.5 282.5,233.5 283.5,233.5C 283.5,234.5 283.5,235.5 283.5,236.5C 282.5,236.5 281.5,236.5 280.5,236.5C 280.5,235.5 280.5,234.5 280.5,233.5 Z"/></g>
<g><path style="opacity:1" fill="#efee00" d="M 333.5,233.5 C 334.568,232.566 335.901,232.232 337.5,232.5C 339.515,233.924 341.848,234.59 344.5,234.5C 346.598,235.935 348.931,237.102 351.5,238C 350.906,238.464 350.239,238.631 349.5,238.5C 344.277,236.527 338.943,234.86 333.5,233.5 Z"/></g>
<g><path style="opacity:1" fill="#8b8a00" d="M 337.5,232.5 C 340.152,232.41 342.485,233.076 344.5,234.5C 341.848,234.59 339.515,233.924 337.5,232.5 Z"/></g>
<g><path style="opacity:1" fill="#b2b200" d="M 360.5,227.5 C 360.298,229.95 360.631,232.283 361.5,234.5C 361.5,235.167 361.167,235.5 360.5,235.5C 356.461,233.481 352.461,231.481 348.5,229.5C 349.93,229.421 351.264,229.754 352.5,230.5C 353.463,230.03 353.463,229.363 352.5,228.5C 354.153,228.66 355.486,229.326 356.5,230.5C 356.56,231.043 356.893,231.376 357.5,231.5C 358.318,228.893 358.818,226.226 359,223.5C 359.21,225.058 359.71,226.391 360.5,227.5 Z"/></g>
<g><path style="opacity:1" fill="#f6f8fb" d="M 272.5,233.5 C 274.465,233.948 274.798,234.948 273.5,236.5C 272.614,235.675 272.281,234.675 272.5,233.5 Z"/></g>
<g><path style="opacity:1" fill="#f3f200" d="M 300.5,236.5 C 299.596,237.209 299.263,238.209 299.5,239.5C 298.167,239.5 296.833,239.5 295.5,239.5C 295.5,238.5 295.5,237.5 295.5,236.5C 296.404,235.791 296.737,234.791 296.5,233.5C 298.199,233.34 299.866,233.506 301.5,234C 300.748,234.671 300.414,235.504 300.5,236.5 Z"/></g>
<g><path style="opacity:1" fill="#d1cf00" d="M 312.5,237.5 C 312.5,238.167 312.5,238.833 312.5,239.5C 311.167,239.5 309.833,239.5 308.5,239.5C 308.167,235.5 307.833,235.5 307.5,239.5C 305.167,239.5 302.833,239.5 300.5,239.5C 300.5,238.5 300.5,237.5 300.5,236.5C 303.801,234.423 307.468,233.423 311.5,233.5C 311.232,235.099 311.566,236.432 312.5,237.5 Z"/></g>
<g><path style="opacity:1" fill="#d8d700" d="M 215.5,237.5 C 215.5,238.167 215.5,238.833 215.5,239.5C 213.549,239.773 212.049,239.107 211,237.5C 210.333,240.167 209.667,240.167 209,237.5C 205.851,239.362 202.351,240.029 198.5,239.5C 198.5,238.167 198.5,236.833 198.5,235.5C 198.5,235.167 198.5,234.833 198.5,234.5C 203.766,234.784 209.1,234.451 214.5,233.5C 214.232,235.099 214.566,236.432 215.5,237.5 Z"/></g>
<g><path style="opacity:1" fill="#eff2f8" d="M 232.5,237.5 C 234.465,237.948 234.798,238.948 233.5,240.5C 232.614,239.675 232.281,238.675 232.5,237.5 Z"/></g>
<g><path style="opacity:1" fill="#dee3f1" d="M 254.5,237.5 C 258.31,238.754 258.31,239.754 254.5,240.5C 254.5,239.5 254.5,238.5 254.5,237.5 Z"/></g>
<g><path style="opacity:1" fill="#dce2f1" d="M 276.5,237.5 C 277.5,237.5 278.5,237.5 279.5,237.5C 279.5,238.5 279.5,239.5 279.5,240.5C 278.5,240.5 277.5,240.5 276.5,240.5C 276.5,239.5 276.5,238.5 276.5,237.5 Z"/></g>
<g><path style="opacity:1" fill="#7c6d00" d="M 198.5,235.5 C 198.5,236.833 198.5,238.167 198.5,239.5C 202.351,240.029 205.851,239.362 209,237.5C 209.667,240.167 210.333,240.167 211,237.5C 212.049,239.107 213.549,239.773 215.5,239.5C 216.043,239.56 216.376,239.893 216.5,240.5C 209.833,241.833 203.167,241.833 196.5,240.5C 197.028,238.664 197.694,236.997 198.5,235.5 Z"/></g>
<g><path style="opacity:1" fill="#7d7400" d="M 300.5,236.5 C 300.5,237.5 300.5,238.5 300.5,239.5C 302.833,239.5 305.167,239.5 307.5,239.5C 307.833,235.5 308.167,235.5 308.5,239.5C 309.833,239.5 311.167,239.5 312.5,239.5C 313.043,239.56 313.376,239.893 313.5,240.5C 307.167,241.833 300.833,241.833 294.5,240.5C 294.624,239.893 294.957,239.56 295.5,239.5C 296.833,239.5 298.167,239.5 299.5,239.5C 299.263,238.209 299.596,237.209 300.5,236.5 Z"/></g>
<g><path style="opacity:1" fill="#f8f800" d="M 159.5,239.5 C 160.877,253.836 164.544,267.669 170.5,281C 168.934,281.608 167.6,282.442 166.5,283.5C 164.856,283.714 163.356,283.38 162,282.5C 158.42,273.6 155.586,264.6 153.5,255.5C 153.325,251.459 153.158,247.459 153,243.5C 154.667,242.5 156.333,241.5 158,240.5C 158.207,252.287 160.54,263.621 165,274.5C 163.041,266.651 161.375,258.651 160,250.5C 159.501,246.848 159.335,243.182 159.5,239.5 Z"/></g>
<g><path style="opacity:1" fill="#dde3f1" d="M 227.5,242.5 C 228.5,242.5 229.5,242.5 230.5,242.5C 229.754,246.31 228.754,246.31 227.5,242.5 Z"/></g>
<g><path style="opacity:1" fill="#dbe1f0" d="M 236.5,242.5 C 237.5,242.5 238.5,242.5 239.5,242.5C 239.5,243.5 239.5,244.5 239.5,245.5C 238.5,245.5 237.5,245.5 236.5,245.5C 236.5,244.5 236.5,243.5 236.5,242.5 Z"/></g>
<g><path style="opacity:1" fill="#d9e0f0" d="M 249.5,242.5 C 250.5,242.5 251.5,242.5 252.5,242.5C 251.754,246.31 250.754,246.31 249.5,242.5 Z"/></g>
<g><path style="opacity:1" fill="#dde3f1" d="M 258.5,242.5 C 259.5,242.5 260.5,242.5 261.5,242.5C 260.754,246.31 259.754,246.31 258.5,242.5 Z"/></g>
<g><path style="opacity:1" fill="#d4dbed" d="M 272.5,242.5 C 275.957,242.667 276.29,243.667 273.5,245.5C 272.614,244.675 272.281,243.675 272.5,242.5 Z"/></g>
<g><path style="opacity:1" fill="#d8deef" d="M 280.5,242.5 C 281.5,242.5 282.5,242.5 283.5,242.5C 282.754,246.31 281.754,246.31 280.5,242.5 Z"/></g>
<g><path style="opacity:1" fill="#f7f700" d="M 191.5,247.5 C 190.048,248.302 188.382,248.802 186.5,249C 188.134,249.494 189.801,249.66 191.5,249.5C 191.5,251.5 191.5,253.5 191.5,255.5C 183.207,253.541 174.873,252.041 166.5,251C 174.688,253.537 183.021,255.371 191.5,256.5C 189.393,257.468 187.059,257.802 184.5,257.5C 177.101,255.978 169.768,253.812 162.5,251C 166.449,250.193 166.449,249.693 162.5,249.5C 162.643,247.738 162.309,246.071 161.5,244.5C 162.025,243.808 162.692,243.308 163.5,243C 162.044,242.577 161.544,241.744 162,240.5C 171.655,243.539 181.488,245.872 191.5,247.5 Z"/></g>
<g><path style="opacity:1" fill="#f9f900" d="M 348.5,241.5 C 348.253,242.876 346.919,243.71 344.5,244C 346.112,244.72 347.612,244.554 349,243.5C 349.18,245.488 349.014,247.488 348.5,249.5C 342.144,250.839 335.811,252.339 329.5,254C 335.639,253.801 341.639,252.635 347.5,250.5C 348.298,250.957 348.631,251.624 348.5,252.5C 344.239,252.898 340.239,253.898 336.5,255.5C 332.394,255.74 328.394,256.407 324.5,257.5C 322.801,257.66 321.134,257.494 319.5,257C 322.529,256.461 325.529,255.794 328.5,255C 325.469,254.505 322.469,254.671 319.5,255.5C 319.5,253.833 319.5,252.167 319.5,250.5C 327.535,248.992 335.535,247.159 343.5,245C 340.335,245.367 337.335,245.201 334.5,244.5C 339.167,243.5 343.833,242.5 348.5,241.5 Z"/></g>
<g><path style="opacity:1" fill="#746d02" d="M 361.5,234.5 C 361.518,238.009 361.851,241.676 362.5,245.5C 362.122,247.717 361.455,249.717 360.5,251.5C 360.662,249.473 360.495,247.473 360,245.5C 358.768,248.3 358.101,251.3 358,254.5C 358.031,249.877 357.198,245.543 355.5,241.5C 357.144,242.366 358.811,242.866 360.5,243C 360.263,240.712 360.263,238.212 360.5,235.5C 361.167,235.5 361.5,235.167 361.5,234.5 Z"/></g>
<g><path style="opacity:1" fill="#7d7d00" d="M 167.5,245.5 C 167.917,244.876 168.584,244.543 169.5,244.5C 174.485,245.73 179.485,246.897 184.5,248C 178.759,247.887 173.093,247.054 167.5,245.5 Z"/></g>
<g><path style="opacity:1" fill="#c2c200" d="M 334.5,244.5 C 337.335,245.201 340.335,245.367 343.5,245C 335.535,247.159 327.535,248.992 319.5,250.5C 319.5,249.5 319.5,248.5 319.5,247.5C 320.791,247.737 321.791,247.404 322.5,246.5C 326.606,246.26 330.606,245.593 334.5,244.5 Z"/></g>
<g><path style="opacity:1" fill="#888800" d="M 344.5,234.5 C 348.797,235.146 352.797,236.646 356.5,239C 355.748,239.671 355.414,240.504 355.5,241.5C 354.504,241.586 353.671,241.252 353,240.5C 352.333,252.5 351.667,252.5 351,240.5C 350.778,245.412 349.945,250.079 348.5,254.5C 348.5,253.833 348.5,253.167 348.5,252.5C 348.631,251.624 348.298,250.957 347.5,250.5C 341.639,252.635 335.639,253.801 329.5,254C 335.811,252.339 342.144,250.839 348.5,249.5C 349.014,247.488 349.18,245.488 349,243.5C 347.612,244.554 346.112,244.72 344.5,244C 346.919,243.71 348.253,242.876 348.5,241.5C 349.11,240.609 349.443,239.609 349.5,238.5C 350.239,238.631 350.906,238.464 351.5,238C 348.931,237.102 346.598,235.935 344.5,234.5 Z"/></g>
<g><path style="opacity:1" fill="#818100" d="M 159.5,239.5 C 159.335,243.182 159.501,246.848 160,250.5C 161.375,258.651 163.041,266.651 165,274.5C 160.54,263.621 158.207,252.287 158,240.5C 156.333,241.5 154.667,242.5 153,243.5C 153.158,247.459 153.325,251.459 153.5,255.5C 152.775,251.769 151.775,248.102 150.5,244.5C 151.167,243.5 151.833,242.5 152.5,241.5C 154.746,240.545 157.079,239.878 159.5,239.5 Z"/></g>
<g><path style="opacity:1" fill="#146001" d="M 191.5,230.5 C 191.5,236.167 191.5,241.833 191.5,247.5C 181.488,245.872 171.655,243.539 162,240.5C 161.544,241.744 162.044,242.577 163.5,243C 162.692,243.308 162.025,243.808 161.5,244.5C 162.309,246.071 162.643,247.738 162.5,249.5C 166.449,249.693 166.449,250.193 162.5,251C 169.768,253.812 177.101,255.978 184.5,257.5C 186.948,258.473 189.615,258.806 192.5,258.5C 193.288,261.887 194.288,265.22 195.5,268.5C 195.833,270.5 196.167,272.5 196.5,274.5C 187.06,276.437 178.06,279.437 169.5,283.5C 168.5,283.5 167.5,283.5 166.5,283.5C 167.6,282.442 168.934,281.608 170.5,281C 164.544,267.669 160.877,253.836 159.5,239.5C 169.623,234.966 180.289,231.966 191.5,230.5 Z"/></g>
<g><path style="opacity:1" fill="#ec1900" d="M 347.5,259.5 C 347.435,262.428 346.768,265.095 345.5,267.5C 344.596,268.209 344.263,269.209 344.5,270.5C 343.521,271.765 342.521,273.099 341.5,274.5C 340.583,273.873 339.583,273.539 338.5,273.5C 338.167,273.5 337.833,273.5 337.5,273.5C 332.057,268.605 326.39,263.938 320.5,259.5C 321.833,258.833 323.167,258.167 324.5,257.5C 328.394,256.407 332.394,255.74 336.5,255.5C 339.959,255.469 343.292,254.802 346.5,253.5C 347.466,255.396 347.799,257.396 347.5,259.5 Z"/></g>
<g><path style="opacity:1" fill="#868600" d="M 191.5,255.5 C 191.5,255.833 191.5,256.167 191.5,256.5C 183.021,255.371 174.688,253.537 166.5,251C 174.873,252.041 183.207,253.541 191.5,255.5 Z"/></g>
<g><path style="opacity:1" fill="#943200" d="M 348.5,252.5 C 348.5,253.167 348.5,253.833 348.5,254.5C 348.784,256.415 348.451,258.081 347.5,259.5C 347.799,257.396 347.466,255.396 346.5,253.5C 343.292,254.802 339.959,255.469 336.5,255.5C 340.239,253.898 344.239,252.898 348.5,252.5 Z"/></g>
<g><path style="opacity:1" fill="#543a01" d="M 360.5,251.5 C 360.749,255.458 360.082,259.124 358.5,262.5C 358.646,258.613 359.313,254.946 360.5,251.5 Z"/></g>
<g><path style="opacity:1" fill="#696312" d="M 318.5,247.5 C 318.833,247.5 319.167,247.5 319.5,247.5C 319.5,248.5 319.5,249.5 319.5,250.5C 319.5,252.167 319.5,253.833 319.5,255.5C 322.469,254.671 325.469,254.505 328.5,255C 325.529,255.794 322.529,256.461 319.5,257C 321.134,257.494 322.801,257.66 324.5,257.5C 323.167,258.167 321.833,258.833 320.5,259.5C 319.883,259.389 319.383,259.056 319,258.5C 318.51,259.793 318.343,261.127 318.5,262.5C 318.167,262.5 317.833,262.5 317.5,262.5C 318.164,257.527 318.497,252.527 318.5,247.5 Z"/></g>
<g><path style="opacity:1" fill="#143b9d" d="M 247.5,258.5 C 252.833,258.5 258.167,258.5 263.5,258.5C 263.666,263.179 263.499,267.845 263,272.5C 259.154,279.466 254.487,280.133 249,274.5C 247.661,269.264 247.161,263.93 247.5,258.5 Z"/></g>
<g><path style="opacity:1" fill="#c0cae5" d="M 250.5,260.5 C 251.586,260.62 252.253,261.287 252.5,262.5C 251.696,264.957 250.696,264.957 249.5,262.5C 249.863,261.817 250.196,261.15 250.5,260.5 Z"/></g>
<g><path style="opacity:1" fill="#eff2f8" d="M 258.5,261.5 C 259.675,261.281 260.675,261.614 261.5,262.5C 259.948,263.798 258.948,263.465 258.5,261.5 Z"/></g>
<g><path style="opacity:1" fill="#fafa00" d="M 355.5,241.5 C 357.198,245.543 358.031,249.877 358,254.5C 358.101,251.3 358.768,248.3 360,245.5C 360.495,247.473 360.662,249.473 360.5,251.5C 359.313,254.946 358.646,258.613 358.5,262.5C 357.232,264.905 356.565,267.572 356.5,270.5C 355.778,270.918 355.278,271.584 355,272.5C 354.51,271.207 354.343,269.873 354.5,268.5C 352.719,272.744 350.885,277.077 349,281.5C 348.333,282.833 347.667,282.833 347,281.5C 346.309,283.891 345.309,283.891 344,281.5C 343.833,281.833 343.667,282.167 343.5,282.5C 345.219,284.544 346.886,286.544 348.5,288.5C 348.107,290.284 347.441,291.95 346.5,293.5C 344.917,295.663 343.584,297.996 342.5,300.5C 340.938,300.267 339.605,299.6 338.5,298.5C 332.324,290.831 324.99,284.331 316.5,279C 314.963,277.89 314.297,276.39 314.5,274.5C 315.11,273.609 315.443,272.609 315.5,271.5C 316.928,268.697 317.595,265.697 317.5,262.5C 317.833,262.5 318.167,262.5 318.5,262.5C 326.165,267.018 333.165,272.518 339.5,279C 340.167,279.667 340.833,279.667 341.5,279C 339.833,277.333 338.167,275.667 336.5,274C 336.728,273.601 337.062,273.435 337.5,273.5C 337.833,273.5 338.167,273.5 338.5,273.5C 339.5,275.167 340.833,276.5 342.5,277.5C 342.783,278.289 343.283,278.956 344,279.5C 346.906,274.122 348.573,268.456 349,262.5C 348.197,265.244 347.197,267.911 346,270.5C 345.517,269.552 345.351,268.552 345.5,267.5C 346.768,265.095 347.435,262.428 347.5,259.5C 348.451,258.081 348.784,256.415 348.5,254.5C 349.945,250.079 350.778,245.412 351,240.5C 351.667,252.5 352.333,252.5 353,240.5C 353.671,241.252 354.504,241.586 355.5,241.5 Z"/></g>
<g><path style="opacity:1" fill="#797900" d="M 350.5,251.5 C 351.595,254.717 351.429,258.05 350,261.5C 349.828,258.174 349.995,254.841 350.5,251.5 Z"/></g>
<g><path style="opacity:1" fill="#8d8d00" d="M 354.5,268.5 C 354.523,266.073 355.023,263.74 356,261.5C 356.588,264.139 356.088,266.473 354.5,268.5 Z"/></g>
<g><path style="opacity:1" fill="#dfe4f2" d="M 254.5,265.5 C 257.957,265.667 258.29,266.667 255.5,268.5C 254.614,267.675 254.281,266.675 254.5,265.5 Z"/></g>
<g><path style="opacity:1" fill="#c5c400" d="M 320.5,259.5 C 326.39,263.938 332.057,268.605 337.5,273.5C 337.062,273.435 336.728,273.601 336.5,274C 338.167,275.667 339.833,277.333 341.5,279C 340.833,279.667 340.167,279.667 339.5,279C 333.165,272.518 326.165,267.018 318.5,262.5C 318.343,261.127 318.51,259.793 319,258.5C 319.383,259.056 319.883,259.389 320.5,259.5 Z"/></g>
<g><path style="opacity:1" fill="#dae0f0" d="M 250.5,269.5 C 252.048,269.821 252.715,270.821 252.5,272.5C 249.752,272.598 249.086,271.598 250.5,269.5 Z"/></g>
<g><path style="opacity:1" fill="#dee4f1" d="M 259.5,269.5 C 261.048,269.821 261.715,270.821 261.5,272.5C 258.752,272.598 258.086,271.598 259.5,269.5 Z"/></g>
<g><path style="opacity:1" fill="#a3a101" d="M 342.5,277.5 C 343.455,275.254 344.122,272.921 344.5,270.5C 344.263,269.209 344.596,268.209 345.5,267.5C 345.351,268.552 345.517,269.552 346,270.5C 347.197,267.911 348.197,265.244 349,262.5C 348.573,268.456 346.906,274.122 344,279.5C 343.283,278.956 342.783,278.289 342.5,277.5 Z"/></g>
<g><path style="opacity:1" fill="#c6c600" d="M 150.5,244.5 C 151.775,248.102 152.775,251.769 153.5,255.5C 155.586,264.6 158.42,273.6 162,282.5C 163.356,283.38 164.856,283.714 166.5,283.5C 167.5,283.5 168.5,283.5 169.5,283.5C 171.512,282.986 173.512,282.82 175.5,283C 170.861,284.653 166.528,286.819 162.5,289.5C 161.957,289.44 161.624,289.107 161.5,288.5C 162.313,287.186 163.313,286.019 164.5,285C 163.451,284.508 162.451,284.674 161.5,285.5C 154.788,272.689 151.121,259.022 150.5,244.5 Z"/></g>
<g><path style="opacity:1" fill="#7f3400" d="M 344.5,270.5 C 344.122,272.921 343.455,275.254 342.5,277.5C 340.833,276.5 339.5,275.167 338.5,273.5C 339.583,273.539 340.583,273.873 341.5,274.5C 342.521,273.099 343.521,271.765 344.5,270.5 Z"/></g>
<g><path style="opacity:1" fill="#a49402" d="M 213.5,273.5 C 213.733,275.062 214.4,276.395 215.5,277.5C 215.225,279.842 214.392,279.842 213,277.5C 212.601,277.728 212.435,278.062 212.5,278.5C 211.609,277.89 210.609,277.557 209.5,277.5C 208.957,277.44 208.624,277.107 208.5,276.5C 210.029,275.237 211.695,274.237 213.5,273.5 Z"/></g>
<g><path style="opacity:1" fill="#643100" d="M 213.5,273.5 C 214.167,273.833 214.833,274.167 215.5,274.5C 217.587,274.803 219.254,276.303 220.5,279C 219.956,279.717 219.289,280.217 218.5,280.5C 217.833,279.167 216.833,278.167 215.5,277.5C 214.4,276.395 213.733,275.062 213.5,273.5 Z"/></g>
<g><path style="opacity:1" fill="#f4f400" d="M 196.5,274.5 C 196.38,275.586 195.713,276.253 194.5,276.5C 190.123,277.511 185.79,278.678 181.5,280C 186.224,279.823 190.891,278.99 195.5,277.5C 196.584,277.685 197.584,278.018 198.5,278.5C 198.328,279.492 198.662,280.158 199.5,280.5C 198.652,282.312 198.652,283.812 199.5,285C 191.394,286.859 183.394,289.026 175.5,291.5C 175.062,291.565 174.728,291.399 174.5,291C 175.416,290.722 176.082,290.222 176.5,289.5C 172.58,290.127 169.247,291.793 166.5,294.5C 164.478,293.493 163.145,291.826 162.5,289.5C 166.528,286.819 170.861,284.653 175.5,283C 173.512,282.82 171.512,282.986 169.5,283.5C 178.06,279.437 187.06,276.437 196.5,274.5 Z"/></g>
<g><path style="opacity:1" fill="#7d3100" d="M 289.5,274.5 C 287.672,275.283 286.339,276.616 285.5,278.5C 285.167,278.5 284.833,278.5 284.5,278.5C 284.787,275.516 286.454,274.183 289.5,274.5 Z"/></g>
<g><path style="opacity:1" fill="#7e4400" d="M 301.5,276.5 C 299.983,276.489 298.816,275.823 298,274.5C 296.166,277.376 293.666,278.876 290.5,279C 292.24,277.483 293.906,275.983 295.5,274.5C 298.289,271.871 300.289,272.538 301.5,276.5 Z"/></g>
<g><path style="opacity:1" fill="#878704" d="M 196.5,274.5 C 197.674,275.514 198.34,276.847 198.5,278.5C 197.584,278.018 196.584,277.685 195.5,277.5C 190.891,278.99 186.224,279.823 181.5,280C 185.79,278.678 190.123,277.511 194.5,276.5C 195.713,276.253 196.38,275.586 196.5,274.5 Z"/></g>
<g><path style="opacity:1" fill="#f1f000" d="M 215.5,277.5 C 216.833,278.167 217.833,279.167 218.5,280.5C 217.5,280.833 216.833,281.5 216.5,282.5C 214.833,281.5 213.5,280.167 212.5,278.5C 212.435,278.062 212.601,277.728 213,277.5C 214.392,279.842 215.225,279.842 215.5,277.5 Z"/></g>
<g><path style="opacity:1" fill="#efed00" d="M 284.5,278.5 C 284.833,278.5 285.167,278.5 285.5,278.5C 286.29,279.794 287.29,280.961 288.5,282C 286.579,282.36 284.912,283.194 283.5,284.5C 282.145,283.812 281.145,282.812 280.5,281.5C 282.23,280.974 283.564,279.974 284.5,278.5 Z"/></g>
<g><path style="opacity:1" fill="#6a2d00" d="M 209.5,277.5 C 210.609,277.557 211.609,277.89 212.5,278.5C 213.5,280.167 214.833,281.5 216.5,282.5C 216.167,283.5 215.5,284.167 214.5,284.5C 212.121,283.154 210.788,281.487 210.5,279.5C 210.167,278.833 209.833,278.167 209.5,277.5 Z"/></g>
<g><path style="opacity:1" fill="#b6b604" d="M 314.5,274.5 C 314.297,276.39 314.963,277.89 316.5,279C 324.99,284.331 332.324,290.831 338.5,298.5C 338.631,299.239 338.464,299.906 338,300.5C 336.296,298.627 334.463,296.96 332.5,295.5C 331.738,293.738 330.404,292.738 328.5,292.5C 323.476,288.47 318.476,284.47 313.5,280.5C 312.154,278.208 312.488,276.208 314.5,274.5 Z"/></g>
<g><path style="opacity:1" fill="#784601" d="M 301.5,277.5 C 301.196,278.15 300.863,278.817 300.5,279.5C 301.77,280.288 302.77,281.288 303.5,282.5C 303.672,283.492 303.338,284.158 302.5,284.5C 302.092,283.357 301.425,282.357 300.5,281.5C 298.669,282.929 296.669,283.429 294.5,283C 296.48,280.497 298.813,278.664 301.5,277.5 Z"/></g>
<g><path style="opacity:1" fill="#7d5301" d="M 210.5,279.5 C 209.167,281.5 209.167,283.5 210.5,285.5C 206.604,283.759 206.604,281.759 210.5,279.5 Z"/></g>
<g><path style="opacity:1" fill="#785700" d="M 229.5,281.5 C 233.005,281.694 233.338,282.694 230.5,284.5C 229.89,283.609 229.557,282.609 229.5,281.5 Z"/></g>
<g><path style="opacity:1" fill="#938600" d="M 226.5,279.5 C 224.804,279.685 223.471,280.519 222.5,282C 223.167,282.333 223.833,282.667 224.5,283C 220.667,282.833 218.833,284.667 219,288.5C 218.667,287.833 218.333,287.167 218,286.5C 216.519,287.471 215.685,288.804 215.5,290.5C 212.046,290.733 211.046,289.4 212.5,286.5C 212.833,285.5 213.5,284.833 214.5,284.5C 215.5,284.167 216.167,283.5 216.5,282.5C 216.833,281.5 217.5,280.833 218.5,280.5C 219.289,280.217 219.956,279.717 220.5,279C 219.254,276.303 217.587,274.803 215.5,274.5C 218.348,270.282 220.515,270.615 222,275.5C 222.741,276.641 223.575,276.641 224.5,275.5C 225.362,276.766 226.029,278.099 226.5,279.5 Z"/></g>
<g><path style="opacity:1" fill="#948900" d="M 295.5,274.5 C 293.906,275.983 292.24,277.483 290.5,279C 293.666,278.876 296.166,277.376 298,274.5C 298.816,275.823 299.983,276.489 301.5,276.5C 301.5,276.833 301.5,277.167 301.5,277.5C 298.813,278.664 296.48,280.497 294.5,283C 296.669,283.429 298.669,282.929 300.5,281.5C 301.425,282.357 302.092,283.357 302.5,284.5C 300.333,286.532 298,288.532 295.5,290.5C 294.204,287.585 292.537,285.585 290.5,284.5C 289.277,283.386 287.944,283.219 286.5,284C 287.5,284.333 288.5,284.667 289.5,285C 287.956,285.29 286.623,285.956 285.5,287C 287.82,288.966 289.82,291.133 291.5,293.5C 292.506,294.396 292.506,295.062 291.5,295.5C 287.202,291.704 283.036,287.704 279,283.5C 278.472,282.184 278.972,281.517 280.5,281.5C 281.145,282.812 282.145,283.812 283.5,284.5C 284.912,283.194 286.579,282.36 288.5,282C 287.29,280.961 286.29,279.794 285.5,278.5C 286.339,276.616 287.672,275.283 289.5,274.5C 289.685,272.804 290.519,271.471 292,270.5C 293.032,272.027 294.199,273.36 295.5,274.5 Z"/></g>
<g><path style="opacity:1" fill="#cecd00" d="M 210.5,279.5 C 210.788,281.487 212.121,283.154 214.5,284.5C 213.5,284.833 212.833,285.5 212.5,286.5C 211.833,286.167 211.167,285.833 210.5,285.5C 209.167,283.5 209.167,281.5 210.5,279.5 Z"/></g>
<g><path style="opacity:1" fill="#d8d600" d="M 226.5,279.5 C 227.5,280.167 228.5,280.833 229.5,281.5C 229.557,282.609 229.89,283.609 230.5,284.5C 229.833,284.5 229.5,284.833 229.5,285.5C 227.806,284.314 226.139,284.481 224.5,286C 225.258,287.364 224.758,288.531 223,289.5C 222.667,289.167 222.333,288.833 222,288.5C 221.388,291.115 219.888,292.781 217.5,293.5C 216.833,292.5 216.167,291.5 215.5,290.5C 215.685,288.804 216.519,287.471 218,286.5C 218.333,287.167 218.667,287.833 219,288.5C 218.833,284.667 220.667,282.833 224.5,283C 223.833,282.667 223.167,282.333 222.5,282C 223.471,280.519 224.804,279.685 226.5,279.5 Z"/></g>
<g><path style="opacity:1" fill="#d51b04" d="M 303.5,282.5 C 304.404,283.209 304.737,284.209 304.5,285.5C 302.298,290.269 298.965,293.936 294.5,296.5C 293.209,296.737 292.209,296.404 291.5,295.5C 292.506,295.062 292.506,294.396 291.5,293.5C 293.43,293.229 294.764,292.229 295.5,290.5C 298,288.532 300.333,286.532 302.5,284.5C 303.338,284.158 303.672,283.492 303.5,282.5 Z"/></g>
<g><path style="opacity:1" fill="#1c5d02" d="M 199.5,280.5 C 203.766,287.34 208.766,293.673 214.5,299.5C 206.473,298.718 198.473,297.718 190.5,296.5C 187.287,295.513 183.954,294.513 180.5,293.5C 179.808,294.025 179.308,294.692 179,295.5C 178.31,293.65 177.144,292.316 175.5,291.5C 183.394,289.026 191.394,286.859 199.5,285C 198.652,283.812 198.652,282.312 199.5,280.5 Z"/></g>
<g><path style="opacity:1" fill="#936460" d="M 242.5,285.5 C 245.152,285.41 247.485,286.076 249.5,287.5C 246.848,287.59 244.515,286.924 242.5,285.5 Z"/></g>
<g><path style="opacity:1" fill="#d6d400" d="M 295.5,290.5 C 294.764,292.229 293.43,293.229 291.5,293.5C 289.82,291.133 287.82,288.966 285.5,287C 286.623,285.956 287.956,285.29 289.5,285C 288.5,284.667 287.5,284.333 286.5,284C 287.944,283.219 289.277,283.386 290.5,284.5C 292.537,285.585 294.204,287.585 295.5,290.5 Z"/></g>
<g><path style="opacity:1" fill="#aaa801" d="M 354.5,268.5 C 354.343,269.873 354.51,271.207 355,272.5C 355.278,271.584 355.778,270.918 356.5,270.5C 355.766,275.302 353.932,279.635 351,283.5C 350.503,285.81 350.337,288.143 350.5,290.5C 349.833,289.833 349.167,289.167 348.5,288.5C 346.886,286.544 345.219,284.544 343.5,282.5C 343.667,282.167 343.833,281.833 344,281.5C 345.309,283.891 346.309,283.891 347,281.5C 347.667,282.833 348.333,282.833 349,281.5C 350.885,277.077 352.719,272.744 354.5,268.5 Z"/></g>
<g><path style="opacity:1" fill="#8f8f00" d="M 176.5,289.5 C 180.402,286.94 184.735,285.774 189.5,286C 185.191,287.327 180.858,288.494 176.5,289.5 Z"/></g>
<g><path style="opacity:1" fill="#8f7c00" d="M 229.5,285.5 C 226.188,289.479 222.521,293.146 218.5,296.5C 217.614,295.675 217.281,294.675 217.5,293.5C 219.888,292.781 221.388,291.115 222,288.5C 222.333,288.833 222.667,289.167 223,289.5C 224.758,288.531 225.258,287.364 224.5,286C 226.139,284.481 227.806,284.314 229.5,285.5 Z"/></g>
<g><path style="opacity:1" fill="#483902" d="M 348.5,288.5 C 349.167,289.167 349.833,289.833 350.5,290.5C 349.738,292.262 348.404,293.262 346.5,293.5C 347.441,291.95 348.107,290.284 348.5,288.5 Z"/></g>
<g><path style="opacity:1" fill="#fcfc00" d="M 192.5,312.5 C 201.707,321.614 212.707,327.947 225.5,331.5C 233.073,334.656 241.073,336.322 249.5,336.5C 249.5,338.167 249.5,339.833 249.5,341.5C 246.5,341.5 243.5,341.5 240.5,341.5C 240.158,340.662 239.492,340.328 238.5,340.5C 231.382,339.304 224.382,337.637 217.5,335.5C 199.561,326.901 184.227,314.901 171.5,299.5C 169.776,296.281 170.776,294.281 174.5,293.5C 179.386,300.98 185.386,307.314 192.5,312.5 Z"/></g>
<g><path style="opacity:1" fill="#e50802" d="M 303.5,294.5 C 305.05,295.441 306.716,296.107 308.5,296.5C 306.833,297.167 305.167,297.833 303.5,298.5C 303.167,298.5 302.833,298.5 302.5,298.5C 301.022,298.762 299.689,298.429 298.5,297.5C 299.94,296.048 301.606,295.048 303.5,294.5 Z"/></g>
<g><path style="opacity:1" fill="#acac00" d="M 176.5,289.5 C 176.082,290.222 175.416,290.722 174.5,291C 174.728,291.399 175.062,291.565 175.5,291.5C 177.144,292.316 178.31,293.65 179,295.5C 179.308,294.692 179.808,294.025 180.5,293.5C 183.954,294.513 187.287,295.513 190.5,296.5C 189.991,297.341 190.657,297.841 192.5,298C 189.144,298.215 185.811,298.215 182.5,298C 183.313,299.314 184.313,300.481 185.5,301.5C 191.036,303.441 196.703,304.941 202.5,306C 198.448,306.226 194.448,305.726 190.5,304.5C 189.833,304.667 189.167,304.833 188.5,305C 189.416,305.278 190.082,305.778 190.5,306.5C 190.167,306.5 189.833,306.5 189.5,306.5C 188.761,306.369 188.094,306.536 187.5,307C 189.373,308.704 191.04,310.537 192.5,312.5C 185.386,307.314 179.386,300.98 174.5,293.5C 170.776,294.281 169.776,296.281 171.5,299.5C 170.272,298.694 169.272,297.694 168.5,296.5C 165.642,298.124 164.975,297.457 166.5,294.5C 169.247,291.793 172.58,290.127 176.5,289.5 Z"/></g>
<g><path style="opacity:1" fill="#c1b3ae" d="M 195.5,261.5 C 201.238,286.903 216.572,303.237 241.5,310.5C 239.901,310.232 238.568,310.566 237.5,311.5C 237.167,311.5 236.833,311.5 236.5,311.5C 235.167,311.5 233.833,311.5 232.5,311.5C 231.564,310.026 230.23,309.026 228.5,308.5C 224.827,307 221.494,305 218.5,302.5C 217.738,300.738 216.404,299.738 214.5,299.5C 208.766,293.673 203.766,287.34 199.5,280.5C 198.662,280.158 198.328,279.492 198.5,278.5C 198.34,276.847 197.674,275.514 196.5,274.5C 196.167,272.5 195.833,270.5 195.5,268.5C 195.5,266.167 195.5,263.833 195.5,261.5 Z"/></g>
<g><path style="opacity:1" fill="#747400" d="M 328.5,292.5 C 330.404,292.738 331.738,293.738 332.5,295.5C 330.549,296.716 329.049,298.382 328,300.5C 327.383,299.551 327.549,298.718 328.5,298C 327.5,297.667 326.5,297.333 325.5,297C 327.384,296.784 329.051,296.117 330.5,295C 325.878,295.652 321.211,295.985 316.5,296C 320.795,295.431 324.795,294.264 328.5,292.5 Z"/></g>
<g><path style="opacity:1" fill="#f7f700" d="M 190.5,296.5 C 198.473,297.718 206.473,298.718 214.5,299.5C 215.859,301.009 215.359,301.676 213,301.5C 206.534,300.059 200.034,299.226 193.5,299C 201.68,301.252 210.014,302.419 218.5,302.5C 221.494,305 224.827,307 228.5,308.5C 226.369,309.314 224.036,309.814 221.5,310C 225.191,310.42 228.858,310.92 232.5,311.5C 233.833,311.5 235.167,311.5 236.5,311.5C 226.903,312.38 217.237,311.713 207.5,309.5C 211.655,309.04 215.988,308.873 220.5,309C 214.872,307.671 209.205,307.005 203.5,307C 204.5,307.333 205.5,307.667 206.5,308C 205.906,308.464 205.239,308.631 204.5,308.5C 199.814,307.963 195.147,307.296 190.5,306.5C 190.082,305.778 189.416,305.278 188.5,305C 189.167,304.833 189.833,304.667 190.5,304.5C 194.448,305.726 198.448,306.226 202.5,306C 196.703,304.941 191.036,303.441 185.5,301.5C 184.313,300.481 183.313,299.314 182.5,298C 185.811,298.215 189.144,298.215 192.5,298C 190.657,297.841 189.991,297.341 190.5,296.5 Z"/></g>
<g><path style="opacity:1" fill="#6c4c00" d="M 306.5,298.5 C 305.5,298.5 304.5,298.5 303.5,298.5C 305.167,297.833 306.833,297.167 308.5,296.5C 310.968,295.25 313.301,295.417 315.5,297C 312.487,297.502 309.487,298.002 306.5,298.5 Z"/></g>
<g><path style="opacity:1" fill="#878401" d="M 332.5,295.5 C 334.463,296.96 336.296,298.627 338,300.5C 338.464,299.906 338.631,299.239 338.5,298.5C 339.605,299.6 340.938,300.267 342.5,300.5C 341.772,302.512 340.938,304.512 340,306.5C 338.989,307.337 337.822,307.67 336.5,307.5C 336.703,305.956 337.37,304.622 338.5,303.5C 337.645,302.707 336.811,303.04 336,304.5C 337.166,301.816 336.333,299.816 333.5,298.5C 332.522,298.977 331.689,299.643 331,300.5C 331.134,298.811 331.634,297.144 332.5,295.5 Z"/></g>
<g><path style="opacity:1" fill="#f3f300" d="M 313.5,280.5 C 318.476,284.47 323.476,288.47 328.5,292.5C 324.795,294.264 320.795,295.431 316.5,296C 321.211,295.985 325.878,295.652 330.5,295C 329.051,296.117 327.384,296.784 325.5,297C 326.5,297.333 327.5,297.667 328.5,298C 327.549,298.718 327.383,299.551 328,300.5C 329.049,298.382 330.549,296.716 332.5,295.5C 331.634,297.144 331.134,298.811 331,300.5C 331.689,299.643 332.522,298.977 333.5,298.5C 336.333,299.816 337.166,301.816 336,304.5C 336.811,303.04 337.645,302.707 338.5,303.5C 337.37,304.622 336.703,305.956 336.5,307.5C 335.5,307.833 334.833,308.5 334.5,309.5C 330.833,312.833 327.167,316.167 323.5,319.5C 323.062,319.565 322.728,319.399 322.5,319C 324.167,317.333 325.833,315.667 327.5,314C 324.394,315.065 321.727,317.065 319.5,320C 320.167,320.333 320.833,320.667 321.5,321C 320.29,322.039 319.29,323.206 318.5,324.5C 316.973,324.427 315.973,325.094 315.5,326.5C 313.973,326.427 312.973,327.094 312.5,328.5C 311.07,328.579 309.736,328.246 308.5,327.5C 303.946,329.608 299.612,331.941 295.5,334.5C 299.697,333.404 303.697,331.738 307.5,329.5C 308.463,329.97 308.463,330.637 307.5,331.5C 306.167,332.167 304.833,332.833 303.5,333.5C 301.181,333.992 299.181,334.992 297.5,336.5C 295.597,336.796 293.93,337.463 292.5,338.5C 289.215,338.928 286.215,339.928 283.5,341.5C 278.345,342.827 273.012,343.827 267.5,344.5C 265.5,344.5 263.5,344.5 261.5,344.5C 261.5,341.833 261.5,339.167 261.5,336.5C 263.167,336.5 264.833,336.5 266.5,336.5C 277.346,335.038 287.679,331.871 297.5,327C 296.5,326.667 295.5,326.333 294.5,326C 295.416,325.722 296.082,325.222 296.5,324.5C 298.258,324.123 299.925,323.456 301.5,322.5C 301.833,323.167 302.167,323.833 302.5,324.5C 312.004,319.169 320.504,312.502 328,304.5C 328.667,303.833 328.667,303.167 328,302.5C 326.667,303.833 325.333,305.167 324,306.5C 323.383,305.551 323.549,304.718 324.5,304C 323.167,303.333 321.833,303.333 320.5,304C 322.619,304.342 322.953,305.175 321.5,306.5C 318.273,306.676 315.273,307.343 312.5,308.5C 308.394,308.74 304.394,309.407 300.5,310.5C 298.143,310.663 295.81,310.497 293.5,310C 297.186,309.441 300.853,308.774 304.5,308C 297.167,308.165 289.834,308.665 282.5,309.5C 287.381,305.396 293.048,302.896 299.5,302C 298.167,301.667 296.833,301.333 295.5,301C 297.594,299.648 299.927,299.148 302.5,299.5C 303.552,299.351 304.552,299.517 305.5,300C 300.719,300.699 300.553,301.199 305,301.5C 311.551,300.603 318.051,299.436 324.5,298C 319.655,297.999 314.822,298.499 310,299.5C 308.615,299.486 307.449,299.152 306.5,298.5C 309.487,298.002 312.487,297.502 315.5,297C 313.301,295.417 310.968,295.25 308.5,296.5C 306.716,296.107 305.05,295.441 303.5,294.5C 306.104,290.207 308.771,285.874 311.5,281.5C 311.957,280.702 312.624,280.369 313.5,280.5 Z"/></g>
<g><path style="opacity:1" fill="#80800b" d="M 214.5,299.5 C 216.404,299.738 217.738,300.738 218.5,302.5C 210.014,302.419 201.68,301.252 193.5,299C 200.034,299.226 206.534,300.059 213,301.5C 215.359,301.676 215.859,301.009 214.5,299.5 Z"/></g>
<g><path style="opacity:1" fill="#929200" d="M 302.5,299.5 C 302.5,299.167 302.5,298.833 302.5,298.5C 302.833,298.5 303.167,298.5 303.5,298.5C 304.5,298.5 305.5,298.5 306.5,298.5C 307.449,299.152 308.615,299.486 310,299.5C 314.822,298.499 319.655,297.999 324.5,298C 318.051,299.436 311.551,300.603 305,301.5C 300.553,301.199 300.719,300.699 305.5,300C 304.552,299.517 303.552,299.351 302.5,299.5 Z"/></g>
<g><path style="opacity:1" fill="#bbac9e" d="M 313.5,268.5 C 313.932,269.71 314.599,270.71 315.5,271.5C 315.443,272.609 315.11,273.609 314.5,274.5C 312.488,276.208 312.154,278.208 313.5,280.5C 312.624,280.369 311.957,280.702 311.5,281.5C 308.771,285.874 306.104,290.207 303.5,294.5C 301.606,295.048 299.94,296.048 298.5,297.5C 299.689,298.429 301.022,298.762 302.5,298.5C 302.5,298.833 302.5,299.167 302.5,299.5C 299.927,299.148 297.594,299.648 295.5,301C 296.833,301.333 298.167,301.667 299.5,302C 293.048,302.896 287.381,305.396 282.5,309.5C 280.821,309.285 279.821,309.952 279.5,311.5C 276.391,311.264 273.391,311.597 270.5,312.5C 270.167,312.5 269.833,312.5 269.5,312.5C 267.735,311.539 265.735,311.205 263.5,311.5C 275.266,309.45 285.599,304.45 294.5,296.5C 298.965,293.936 302.298,290.269 304.5,285.5C 308.294,280.245 311.294,274.579 313.5,268.5 Z"/></g>
<g><path style="opacity:1" fill="#858500" d="M 314.5,304.5 C 316.199,304.34 317.866,304.506 319.5,305C 314.903,306.455 310.237,307.122 305.5,307C 308.678,306.34 311.678,305.507 314.5,304.5 Z"/></g>
<g><path style="opacity:1" fill="#7c3501" d="M 321.5,306.5 C 320.833,307.833 319.833,308.833 318.5,309.5C 316.735,308.539 314.735,308.205 312.5,308.5C 315.273,307.343 318.273,306.676 321.5,306.5 Z"/></g>
<g><path style="opacity:1" fill="#116100" d="M 189.5,306.5 C 189.833,306.5 190.167,306.5 190.5,306.5C 195.147,307.296 199.814,307.963 204.5,308.5C 205.209,309.404 206.209,309.737 207.5,309.5C 217.237,311.713 226.903,312.38 236.5,311.5C 236.833,311.5 237.167,311.5 237.5,311.5C 238.609,311.557 239.609,311.89 240.5,312.5C 240.389,313.117 240.056,313.617 239.5,314C 242.817,314.498 246.15,314.665 249.5,314.5C 249.83,320.868 249.496,327.202 248.5,333.5C 245.579,332.593 242.579,332.26 239.5,332.5C 219.702,329.603 203.035,320.936 189.5,306.5 Z"/></g>
<g><path style="opacity:1" fill="#999900" d="M 207.5,309.5 C 206.209,309.737 205.209,309.404 204.5,308.5C 205.239,308.631 205.906,308.464 206.5,308C 205.5,307.667 204.5,307.333 203.5,307C 209.205,307.005 214.872,307.671 220.5,309C 215.988,308.873 211.655,309.04 207.5,309.5 Z"/></g>
<g><path style="opacity:1" fill="#f70900" d="M 312.5,308.5 C 314.735,308.205 316.735,308.539 318.5,309.5C 314.854,311.817 311.52,314.484 308.5,317.5C 306.973,317.427 305.973,318.094 305.5,319.5C 302.008,320.41 299.008,322.076 296.5,324.5C 290.759,326.523 285.093,328.523 279.5,330.5C 276.781,331.913 273.781,332.58 270.5,332.5C 267.5,332.5 264.5,332.5 261.5,332.5C 261.5,326.5 261.5,320.5 261.5,314.5C 264.713,314.81 267.713,314.477 270.5,313.5C 272.5,313.5 274.5,313.5 276.5,313.5C 282.739,313.724 288.739,313.057 294.5,311.5C 296.735,311.795 298.735,311.461 300.5,310.5C 304.394,309.407 308.394,308.74 312.5,308.5 Z"/></g>
<g><path style="opacity:1" fill="#cfcf00" d="M 168.5,296.5 C 169.272,297.694 170.272,298.694 171.5,299.5C 184.227,314.901 199.561,326.901 217.5,335.5C 222.421,338.197 227.754,340.03 233.5,341C 235.387,341.78 237.054,341.613 238.5,340.5C 239.492,340.328 240.158,340.662 240.5,341.5C 242.74,342.506 245.74,343.34 249.5,344C 244.826,344.333 240.16,344.167 235.5,343.5C 210.961,337.976 190.461,325.643 174,306.5C 171.361,303.55 169.527,300.217 168.5,296.5 Z"/></g>
<g><path style="opacity:1" fill="#848401" d="M 228.5,308.5 C 230.23,309.026 231.564,310.026 232.5,311.5C 228.858,310.92 225.191,310.42 221.5,310C 224.036,309.814 226.369,309.314 228.5,308.5 Z"/></g>
<g><path style="opacity:1" fill="#a09a00" d="M 300.5,310.5 C 298.735,311.461 296.735,311.795 294.5,311.5C 293.833,311.5 293.167,311.5 292.5,311.5C 288.322,310.429 283.989,310.429 279.5,311.5C 279.821,309.952 280.821,309.285 282.5,309.5C 289.834,308.665 297.167,308.165 304.5,308C 300.853,308.774 297.186,309.441 293.5,310C 295.81,310.497 298.143,310.663 300.5,310.5 Z"/></g>
<g><path style="opacity:1" fill="#e4e307" d="M 292.5,311.5 C 286.966,311.668 281.633,312.335 276.5,313.5C 274.5,313.5 272.5,313.5 270.5,313.5C 270.5,313.167 270.5,312.833 270.5,312.5C 273.391,311.597 276.391,311.264 279.5,311.5C 283.989,310.429 288.322,310.429 292.5,311.5 Z"/></g>
<g><path style="opacity:1" fill="#cbbebc" d="M 237.5,311.5 C 238.568,310.566 239.901,310.232 241.5,310.5C 248.809,311.248 256.142,311.582 263.5,311.5C 265.735,311.205 267.735,311.539 269.5,312.5C 266.345,312.99 263.345,313.656 260.5,314.5C 257.167,314.5 253.833,314.5 250.5,314.5C 247.344,313.566 244.011,312.899 240.5,312.5C 239.609,311.89 238.609,311.557 237.5,311.5 Z"/></g>
<g><path style="opacity:1" fill="#8e3400" d="M 292.5,311.5 C 293.167,311.5 293.833,311.5 294.5,311.5C 288.739,313.057 282.739,313.724 276.5,313.5C 281.633,312.335 286.966,311.668 292.5,311.5 Z"/></g>
<g><path style="opacity:1" fill="#722f00" d="M 334.5,309.5 C 331.833,314.167 328.167,317.833 323.5,320.5C 323.5,320.167 323.5,319.833 323.5,319.5C 327.167,316.167 330.833,312.833 334.5,309.5 Z"/></g>
<g><path style="opacity:1" fill="#3d4c06" d="M 240.5,312.5 C 244.011,312.899 247.344,313.566 250.5,314.5C 250.824,321.354 250.491,328.021 249.5,334.5C 245.96,334.247 242.627,333.581 239.5,332.5C 242.579,332.26 245.579,332.593 248.5,333.5C 249.496,327.202 249.83,320.868 249.5,314.5C 246.15,314.665 242.817,314.498 239.5,314C 240.056,313.617 240.389,313.117 240.5,312.5 Z"/></g>
<g><path style="opacity:1" fill="#848401" d="M 250.5,314.5 C 253.833,314.5 257.167,314.5 260.5,314.5C 260.177,321.022 260.51,327.355 261.5,333.5C 262.552,335.256 264.219,335.923 266.5,335.5C 266.5,335.833 266.5,336.167 266.5,336.5C 264.833,336.5 263.167,336.5 261.5,336.5C 261.5,339.167 261.5,341.833 261.5,344.5C 263.5,344.5 265.5,344.5 267.5,344.5C 264.994,345.176 262.494,346.176 260,347.5C 258.56,346.852 257.06,346.519 255.5,346.5C 253.94,346.519 252.44,346.852 251,347.5C 245.799,345.917 240.632,344.584 235.5,343.5C 240.16,344.167 244.826,344.333 249.5,344C 245.74,343.34 242.74,342.506 240.5,341.5C 243.5,341.5 246.5,341.5 249.5,341.5C 249.5,339.833 249.5,338.167 249.5,336.5C 241.073,336.322 233.073,334.656 225.5,331.5C 232.609,333.068 239.776,334.401 247,335.5C 248.07,335.472 248.903,335.139 249.5,334.5C 250.491,328.021 250.824,321.354 250.5,314.5 Z"/></g>
<g><path style="opacity:1" fill="#feff00" d="M 252.5,315.5 C 254.5,315.5 256.5,315.5 258.5,315.5C 258.5,325.5 258.5,335.5 258.5,345.5C 256.5,345.5 254.5,345.5 252.5,345.5C 252.5,335.5 252.5,325.5 252.5,315.5 Z"/></g>
<g><path style="opacity:1" fill="#5f3706" d="M 269.5,312.5 C 269.833,312.5 270.167,312.5 270.5,312.5C 270.5,312.833 270.5,313.167 270.5,313.5C 267.713,314.477 264.713,314.81 261.5,314.5C 261.5,320.5 261.5,326.5 261.5,332.5C 264.5,332.5 267.5,332.5 270.5,332.5C 267.713,333.477 264.713,333.81 261.5,333.5C 260.51,327.355 260.177,321.022 260.5,314.5C 263.345,313.656 266.345,312.99 269.5,312.5 Z"/></g>
<g><path style="opacity:1" fill="#aca901" d="M 296.5,324.5 C 299.008,322.076 302.008,320.41 305.5,319.5C 307.027,319.573 308.027,318.906 308.5,317.5C 311.52,314.484 314.854,311.817 318.5,309.5C 319.833,308.833 320.833,307.833 321.5,306.5C 322.953,305.175 322.619,304.342 320.5,304C 321.833,303.333 323.167,303.333 324.5,304C 323.549,304.718 323.383,305.551 324,306.5C 325.333,305.167 326.667,303.833 328,302.5C 328.667,303.167 328.667,303.833 328,304.5C 320.504,312.502 312.004,319.169 302.5,324.5C 302.167,323.833 301.833,323.167 301.5,322.5C 299.925,323.456 298.258,324.123 296.5,324.5 Z"/></g>
<g><path style="opacity:1" fill="#766c04" d="M 308.5,317.5 C 308.027,318.906 307.027,319.573 305.5,319.5C 305.973,318.094 306.973,317.427 308.5,317.5 Z"/></g>
<g><path style="opacity:1" fill="#978701" d="M 323.5,319.5 C 323.5,319.833 323.5,320.167 323.5,320.5C 322.415,322.587 320.749,323.92 318.5,324.5C 319.29,323.206 320.29,322.039 321.5,321C 320.833,320.667 320.167,320.333 319.5,320C 321.727,317.065 324.394,315.065 327.5,314C 325.833,315.667 324.167,317.333 322.5,319C 322.728,319.399 323.062,319.565 323.5,319.5 Z"/></g>
<g><path style="opacity:1" fill="#cfcf00" d="M 189.5,306.5 C 203.035,320.936 219.702,329.603 239.5,332.5C 242.627,333.581 245.96,334.247 249.5,334.5C 248.903,335.139 248.07,335.472 247,335.5C 239.776,334.401 232.609,333.068 225.5,331.5C 212.707,327.947 201.707,321.614 192.5,312.5C 191.04,310.537 189.373,308.704 187.5,307C 188.094,306.536 188.761,306.369 189.5,306.5 Z"/></g>
<g><path style="opacity:1" fill="#5f2e01" d="M 318.5,324.5 C 318.027,325.906 317.027,326.573 315.5,326.5C 315.973,325.094 316.973,324.427 318.5,324.5 Z"/></g>
<g><path style="opacity:1" fill="#563102" d="M 315.5,326.5 C 315.027,327.906 314.027,328.573 312.5,328.5C 312.973,327.094 313.973,326.427 315.5,326.5 Z"/></g>
<g><path style="opacity:1" fill="#9a9502" d="M 296.5,324.5 C 296.082,325.222 295.416,325.722 294.5,326C 295.5,326.333 296.5,326.667 297.5,327C 287.679,331.871 277.346,335.038 266.5,336.5C 266.5,336.167 266.5,335.833 266.5,335.5C 272.447,334.347 278.447,332.847 284.5,331C 282.866,330.506 281.199,330.34 279.5,330.5C 285.093,328.523 290.759,326.523 296.5,324.5 Z"/></g>
<g><path style="opacity:1" fill="#938d01" d="M 312.5,328.5 C 311.341,330.25 309.674,331.25 307.5,331.5C 308.463,330.637 308.463,329.97 307.5,329.5C 303.697,331.738 299.697,333.404 295.5,334.5C 299.612,331.941 303.946,329.608 308.5,327.5C 309.736,328.246 311.07,328.579 312.5,328.5 Z"/></g>
<g><path style="opacity:1" fill="#ebeb00" d="M 279.5,330.5 C 281.199,330.34 282.866,330.506 284.5,331C 278.447,332.847 272.447,334.347 266.5,335.5C 264.219,335.923 262.552,335.256 261.5,333.5C 264.713,333.81 267.713,333.477 270.5,332.5C 273.781,332.58 276.781,331.913 279.5,330.5 Z"/></g>
<g><path style="opacity:1" fill="#5a3b02" d="M 303.5,333.5 C 302.089,335.539 300.089,336.539 297.5,336.5C 299.181,334.992 301.181,333.992 303.5,333.5 Z"/></g>
<g><path style="opacity:1" fill="#878700" d="M 217.5,335.5 C 224.382,337.637 231.382,339.304 238.5,340.5C 237.054,341.613 235.387,341.78 233.5,341C 227.754,340.03 222.421,338.197 217.5,335.5 Z"/></g>
<g><path style="opacity:1" fill="#8d8d00" d="M 295.5,334.5 C 286.199,339.492 276.199,341.992 265.5,342C 275.766,340.433 285.766,337.933 295.5,334.5 Z"/></g>
<g><path style="opacity:1" fill="#8d3d00" d="M 292.5,338.5 C 290.081,340.862 287.081,341.862 283.5,341.5C 286.215,339.928 289.215,338.928 292.5,338.5 Z"/></g>
</svg>
