<?xml version="1.0" encoding="UTF-8"?>
<!DOCTYPE svg PUBLIC "-//W3C//DTD SVG 1.1//EN" "http://www.w3.org/Graphics/SVG/1.1/DTD/svg11.dtd">
<svg xmlns="http://www.w3.org/2000/svg" version="1.1" width="640px" height="480px" style="shape-rendering:geometricPrecision; text-rendering:geometricPrecision; image-rendering:optimizeQuality; fill-rule:evenodd; clip-rule:evenodd" xmlns:xlink="http://www.w3.org/1999/xlink">
<g><path style="opacity:1" fill="#ec0000" d="M 0.5,-0.5 C 213.5,-0.5 426.5,-0.5 639.5,-0.5C 639.5,31.5 639.5,63.5 639.5,95.5C 481.5,95.5 323.5,95.5 165.5,95.5C 110.301,63.7374 55.3007,31.7374 0.5,-0.5 Z"/></g>
<g><path style="opacity:1" fill="#0250ef" d="M -0.5,-0.5 C -0.166667,-0.5 0.166667,-0.5 0.5,-0.5C 55.3007,31.7374 110.301,63.7374 165.5,95.5C 220.498,128.002 275.832,160.002 331.5,191.5C 358.331,207.47 385.331,223.303 412.5,239C 384.997,255.03 357.664,271.197 330.5,287.5C 274.832,318.998 219.498,350.998 164.5,383.5C 109.337,414.914 54.3367,446.581 -0.5,478.5C -0.5,318.833 -0.5,159.167 -0.5,-0.5 Z"/></g>
<g><path style="opacity:1" fill="#fefefe" d="M 165.5,95.5 C 323.5,95.5 481.5,95.5 639.5,95.5C 639.5,127.5 639.5,159.5 639.5,191.5C 536.833,191.5 434.167,191.5 331.5,191.5C 275.832,160.002 220.498,128.002 165.5,95.5 Z"/></g>
<g><path style="opacity:1" fill="#fcfcfe" d="M 135.5,162.5 C 142.456,180.036 148.456,198.036 153.5,216.5C 171.503,216.333 189.503,216.5 207.5,217C 192.86,227.977 178.526,239.31 164.5,251C 170.653,268.928 175.987,286.761 180.5,304.5C 165.833,293.5 151.167,282.5 136.5,271.5C 121.91,282.379 107.41,293.379 93,304.5C 97.7565,286.657 102.923,268.823 108.5,251C 94.5139,239.361 80.1806,228.027 65.5,217C 83.4969,216.5 101.497,216.333 119.5,216.5C 124.833,198.5 130.167,180.5 135.5,162.5 Z"/></g>
<g><path style="opacity:1" fill="#ec0000" d="M 331.5,191.5 C 434.167,191.5 536.833,191.5 639.5,191.5C 639.5,223.5 639.5,255.5 639.5,287.5C 536.5,287.5 433.5,287.5 330.5,287.5C 357.664,271.197 384.997,255.03 412.5,239C 385.331,223.303 358.331,207.47 331.5,191.5 Z"/></g>
<g><path style="opacity:1" fill="#fefefe" d="M 330.5,287.5 C 433.5,287.5 536.5,287.5 639.5,287.5C 639.5,319.5 639.5,351.5 639.5,383.5C 481.167,383.5 322.833,383.5 164.5,383.5C 219.498,350.998 274.832,318.998 330.5,287.5 Z"/></g>
<g><path style="opacity:1" fill="#ec0000" d="M 164.5,383.5 C 322.833,383.5 481.167,383.5 639.5,383.5C 639.5,415.5 639.5,447.5 639.5,479.5C 426.167,479.5 212.833,479.5 -0.5,479.5C -0.5,479.167 -0.5,478.833 -0.5,478.5C 54.3367,446.581 109.337,414.914 164.5,383.5 Z"/></g>
</svg>
