<?xml version="1.0" encoding="UTF-8"?>
<!DOCTYPE svg PUBLIC "-//W3C//DTD SVG 1.1//EN" "http://www.w3.org/Graphics/SVG/1.1/DTD/svg11.dtd">
<svg xmlns="http://www.w3.org/2000/svg" version="1.1" width="640px" height="480px" style="shape-rendering:geometricPrecision; text-rendering:geometricPrecision; image-rendering:optimizeQuality; fill-rule:evenodd; clip-rule:evenodd" xmlns:xlink="http://www.w3.org/1999/xlink">
<g><path style="opacity:1" fill="#fefefe" d="M -0.5,-0.5 C 52.8333,-0.5 106.167,-0.5 159.5,-0.5C 190.916,8.77416 222.583,17.6075 254.5,26C 222.5,35 190.5,44 158.5,53C 190.222,61.6802 221.889,70.5136 253.5,79.5C 221.889,88.4864 190.222,97.3198 158.5,106C 190.5,115 222.5,124 254.5,133C 222.674,141.372 191.007,150.206 159.5,159.5C 191.007,168.794 222.674,177.628 254.5,186C 222.442,194.797 190.442,203.797 158.5,213C 190.222,221.68 221.889,230.514 253.5,239.5C 221.889,248.486 190.222,257.32 158.5,266C 190.5,275 222.5,284 254.5,293C 222.674,301.372 191.007,310.206 159.5,319.5C 191.007,328.794 222.674,337.628 254.5,346C 222.442,354.797 190.442,363.797 158.5,373C 190.222,381.68 221.889,390.514 253.5,399.5C 221.889,408.486 190.222,417.32 158.5,426C 190.5,435 222.5,444 254.5,453C 222.583,461.393 190.916,470.226 159.5,479.5C 106.167,479.5 52.8333,479.5 -0.5,479.5C -0.5,319.5 -0.5,159.5 -0.5,-0.5 Z"/></g>
<g><path style="opacity:1" fill="#8d1b3d" d="M 159.5,-0.5 C 319.5,-0.5 479.5,-0.5 639.5,-0.5C 639.5,159.5 639.5,319.5 639.5,479.5C 479.5,479.5 319.5,479.5 159.5,479.5C 190.916,470.226 222.583,461.393 254.5,453C 222.5,444 190.5,435 158.5,426C 190.222,417.32 221.889,408.486 253.5,399.5C 221.889,390.514 190.222,381.68 158.5,373C 190.442,363.797 222.442,354.797 254.5,346C 222.674,337.628 191.007,328.794 159.5,319.5C 191.007,310.206 222.674,301.372 254.5,293C 222.5,284 190.5,275 158.5,266C 190.222,257.32 221.889,248.486 253.5,239.5C 221.889,230.514 190.222,221.68 158.5,213C 190.442,203.797 222.442,194.797 254.5,186C 222.674,177.628 191.007,168.794 159.5,159.5C 191.007,150.206 222.674,141.372 254.5,133C 222.5,124 190.5,115 158.5,106C 190.222,97.3198 221.889,88.4864 253.5,79.5C 221.889,70.5136 190.222,61.6802 158.5,53C 190.5,44 222.5,35 254.5,26C 222.583,17.6075 190.916,8.77416 159.5,-0.5 Z"/></g>
</svg>
