<?xml version="1.0" encoding="UTF-8"?>
<!DOCTYPE svg PUBLIC "-//W3C//DTD SVG 1.1//EN" "http://www.w3.org/Graphics/SVG/1.1/DTD/svg11.dtd">
<svg xmlns="http://www.w3.org/2000/svg" version="1.1" width="640px" height="480px" style="shape-rendering:geometricPrecision; text-rendering:geometricPrecision; image-rendering:optimizeQuality; fill-rule:evenodd; clip-rule:evenodd" xmlns:xlink="http://www.w3.org/1999/xlink">
<g><path style="opacity:1" fill="#fce90e" d="M -0.5,-0.5 C 12.5,-0.5 25.5,-0.5 38.5,-0.5C 39.5,1.16667 40.8333,2.5 42.5,3.5C 44.2393,6.24269 46.5726,8.24269 49.5,9.5C 50.2623,11.2624 51.5956,12.2624 53.5,12.5C 57.5344,16.5355 61.8677,20.2022 66.5,23.5C 67.9108,25.914 69.9108,27.5806 72.5,28.5C 74.2393,31.2427 76.5726,33.2427 79.5,34.5C 79.5,35.8333 80.1667,36.5 81.5,36.5C 82.8717,37.5116 84.205,38.5116 85.5,39.5C 86.5846,41.5869 88.2512,42.9202 90.5,43.5C 96.2285,49.5339 102.562,54.8672 109.5,59.5C 111.183,61.5136 113.183,63.1802 115.5,64.5C 116.833,66.5 118.5,68.1667 120.5,69.5C 120.833,69.5 121.167,69.5 121.5,69.5C 122.911,71.914 124.911,73.5806 127.5,74.5C 128.167,75.1667 128.833,75.8333 129.5,76.5C 130.262,78.2624 131.596,79.2624 133.5,79.5C 135.239,82.2427 137.573,84.2427 140.5,85.5C 141.306,86.7281 142.306,87.7281 143.5,88.5C 146.208,91.2085 149.208,93.5419 152.5,95.5C 156.872,99.8744 161.539,103.874 166.5,107.5C 166.973,108.906 167.973,109.573 169.5,109.5C 170.911,111.914 172.911,113.581 175.5,114.5C 176.167,115.167 176.833,115.833 177.5,116.5C 178.585,118.587 180.251,119.92 182.5,120.5C 185.474,123.138 188.474,125.805 191.5,128.5C 193.55,130.547 195.883,132.214 198.5,133.5C 202.534,137.536 206.868,141.202 211.5,144.5C 214.619,148.957 218.619,152.291 223.5,154.5C 224.539,156.531 226.205,157.864 228.5,158.5C 230.239,161.243 232.573,163.243 235.5,164.5C 236.5,166.167 237.833,167.5 239.5,168.5C 240.262,170.262 241.596,171.262 243.5,171.5C 246.167,173.833 248.833,176.167 251.5,178.5C 252.262,180.262 253.596,181.262 255.5,181.5C 255.5,181.833 255.5,182.167 255.5,182.5C 255.185,184.226 255.019,185.893 255,187.5C 257.075,184.972 257.908,185.139 257.5,188C 258.793,188.49 260.127,188.657 261.5,188.5C 261.5,189.5 261.5,190.5 261.5,191.5C 259.418,191.528 257.584,190.861 256,189.5C 252.237,192.461 249.904,191.461 249,186.5C 248.275,187.059 247.442,187.392 246.5,187.5C 244.823,186.813 243.156,186.146 241.5,185.5C 238.687,185.975 236.687,184.975 235.5,182.5C 234.525,180.807 233.192,179.307 231.5,178C 233.007,177.163 233.507,175.996 233,174.5C 231.806,175.43 230.473,176.097 229,176.5C 224.866,172.865 220.033,170.532 214.5,169.5C 212.879,167.058 210.546,165.725 207.5,165.5C 204.277,163.439 201.277,160.939 198.5,158C 196.348,156.587 194.014,155.754 191.5,155.5C 189.74,153.441 187.406,152.108 184.5,151.5C 181.503,149.504 178.503,147.504 175.5,145.5C 172.106,142.779 168.439,140.446 164.5,138.5C 163.656,136.241 161.989,135.241 159.5,135.5C 156.521,133.53 153.521,131.53 150.5,129.5C 150.027,128.094 149.027,127.427 147.5,127.5C 145.492,126.164 143.492,124.83 141.5,123.5C 136.513,118.332 130.513,114.666 123.5,112.5C 121.197,108.507 117.864,105.673 113.5,104C 114.833,103.333 114.833,102.667 113.5,102C 109.211,101.48 105.211,100.313 101.5,98.5C 96.3686,96.7087 91.702,94.042 87.5,90.5C 83.6866,88.0876 80.0199,85.421 76.5,82.5C 74.4336,80.8009 72.1003,79.4676 69.5,78.5C 67.5,77.5 65.5,76.5 63.5,75.5C 62.4154,73.4131 60.7488,72.0798 58.5,71.5C 57.8333,71.1667 57.1667,70.8333 56.5,70.5C 54.8791,68.058 52.5458,66.7247 49.5,66.5C 48.8333,65.8333 48.1667,65.1667 47.5,64.5C 45.2515,61.6066 42.2515,59.9399 38.5,59.5C 37.3282,57.461 35.6616,56.1276 33.5,55.5C 30.8562,52.5281 27.8562,49.8614 24.5,47.5C 22.2235,46.5793 19.8901,45.9126 17.5,45.5C 16.5084,45.6716 15.8417,45.3382 15.5,44.5C 14.4863,43.3263 13.153,42.6596 11.5,42.5C 9.24987,39.4114 6.24987,37.4114 2.5,36.5C 1.60895,35.8902 0.608953,35.5569 -0.5,35.5C -0.5,23.5 -0.5,11.5 -0.5,-0.5 Z"/></g>
<g><path style="opacity:1" fill="#2e84ee" d="M 38.5,-0.5 C 124.167,-0.5 209.833,-0.5 295.5,-0.5C 295.5,2.83333 295.5,6.16667 295.5,9.5C 295.958,17.8312 296.458,26.1645 297,34.5C 297.335,38.7361 298.168,42.7361 299.5,46.5C 300.162,50.4659 300.495,54.4659 300.5,58.5C 300.17,65.5316 300.503,72.5316 301.5,79.5C 302.183,79.8627 302.85,80.1961 303.5,80.5C 304.427,87.4721 305.094,94.4721 305.5,101.5C 305.321,107.404 305.988,113.071 307.5,118.5C 307.5,121.167 307.5,123.833 307.5,126.5C 307.527,132.051 308.194,137.384 309.5,142.5C 309.444,147.731 310.111,152.731 311.5,157.5C 311.5,158.833 311.5,160.167 311.5,161.5C 311.669,166.181 312.002,170.848 312.5,175.5C 312.302,180.75 312.969,185.75 314.5,190.5C 314.409,203.601 315.076,216.601 316.5,229.5C 315.041,229.567 313.708,229.234 312.5,228.5C 308.537,225.871 304.871,222.871 301.5,219.5C 300.415,217.413 298.749,216.08 296.5,215.5C 295.207,213.704 293.707,212.037 292,210.5C 291.517,209.552 291.351,208.552 291.5,207.5C 288.892,207.6 286.558,206.933 284.5,205.5C 283.207,203.704 281.707,202.037 280,200.5C 280,199.167 280,197.833 280,196.5C 277.88,197.605 275.713,197.605 273.5,196.5C 272.427,193.764 270.427,192.097 267.5,191.5C 265.761,188.757 263.427,186.757 260.5,185.5C 259.415,183.413 257.749,182.08 255.5,181.5C 254.738,179.738 253.404,178.738 251.5,178.5C 248.833,176.167 246.167,173.833 243.5,171.5C 242.738,169.738 241.404,168.738 239.5,168.5C 237.833,167.5 236.5,166.167 235.5,164.5C 234.524,163.185 233.524,161.852 232.5,160.5C 232.709,159.914 233.043,159.414 233.5,159C 231.866,158.506 230.199,158.34 228.5,158.5C 226.205,157.864 224.539,156.531 223.5,154.5C 222.245,152.72 222.245,150.887 223.5,149C 223.167,148.5 222.833,148 222.5,147.5C 221.614,148.325 221.281,149.325 221.5,150.5C 220.448,150.649 219.448,150.483 218.5,150C 216.559,147.546 214.225,145.713 211.5,144.5C 206.868,141.202 202.534,137.536 198.5,133.5C 197.137,130.402 194.803,128.735 191.5,128.5C 188.474,125.805 185.474,123.138 182.5,120.5C 181.415,118.413 179.749,117.08 177.5,116.5C 176.833,115.833 176.167,115.167 175.5,114.5C 174.089,112.086 172.089,110.419 169.5,109.5C 169.027,108.094 168.027,107.427 166.5,107.5C 161.539,103.874 156.872,99.8744 152.5,95.5C 150.299,91.946 147.299,89.6127 143.5,88.5C 142.306,87.7281 141.306,86.7281 140.5,85.5C 138.761,82.7573 136.427,80.7573 133.5,79.5C 132.738,77.7376 131.404,76.7376 129.5,76.5C 128.833,75.8333 128.167,75.1667 127.5,74.5C 126.089,72.086 124.089,70.4194 121.5,69.5C 121.167,69.5 120.833,69.5 120.5,69.5C 119.833,66.8333 118.167,65.1667 115.5,64.5C 113.183,63.1802 111.183,61.5136 109.5,59.5C 106.4,55.5383 103.233,52.5383 100,50.5C 98.0662,48.5812 98.2329,47.0812 100.5,46C 98.9651,45.5038 97.4651,45.6705 96,46.5C 94.2691,45.259 92.4358,44.259 90.5,43.5C 89.4154,41.4131 87.7488,40.0798 85.5,39.5C 84.205,38.5116 82.8717,37.5116 81.5,36.5C 80.1667,36.5 79.5,35.8333 79.5,34.5C 77.8065,31.8103 75.4732,29.8103 72.5,28.5C 71.0892,26.086 69.0892,24.4194 66.5,23.5C 65.1522,21.6412 63.9855,19.6412 63,17.5C 62.6667,17.8333 62.3333,18.1667 62,18.5C 60.1492,15.1539 57.3159,13.1539 53.5,12.5C 51.5956,12.2624 50.2623,11.2624 49.5,9.5C 47.8065,6.81032 45.4732,4.81032 42.5,3.5C 40.8333,2.5 39.5,1.16667 38.5,-0.5 Z"/></g>
<g><path style="opacity:1" fill="#fce90d" d="M 295.5,-0.5 C 311.167,-0.5 326.833,-0.5 342.5,-0.5C 342.5,3.16667 342.5,6.83333 342.5,10.5C 341.732,11.2625 341.232,12.2625 341,13.5C 340.501,17.1516 340.335,20.8183 340.5,24.5C 340.5,25.1667 340.5,25.8333 340.5,26.5C 339.778,26.9175 339.278,27.5842 339,28.5C 337.649,41.8255 336.482,55.1588 335.5,68.5C 335.5,73.1667 335.5,77.8333 335.5,82.5C 335.5,83.1667 335.5,83.8333 335.5,84.5C 333.946,88.5667 333.28,92.9 333.5,97.5C 333.5,98.8333 333.5,100.167 333.5,101.5C 331.377,111.919 330.044,122.586 329.5,133.5C 329.5,134.5 329.5,135.5 329.5,136.5C 328.028,140.919 327.362,145.586 327.5,150.5C 327.5,153.167 327.5,155.833 327.5,158.5C 326.676,161.764 326.342,165.098 326.5,168.5C 324.797,177.949 323.797,187.616 323.5,197.5C 323.5,198.833 323.5,200.167 323.5,201.5C 321.864,205.21 321.198,209.21 321.5,213.5C 321.5,214.5 321.5,215.5 321.5,216.5C 320.837,218.042 320.17,219.709 319.5,221.5C 318.833,217.687 318.166,214.021 317.5,210.5C 317.5,210.167 317.5,209.833 317.5,209.5C 317.318,200.924 316.318,192.591 314.5,184.5C 314.5,184.167 314.5,183.833 314.5,183.5C 315.207,173.143 314.207,163.143 311.5,153.5C 311.192,149.64 310.525,145.974 309.5,142.5C 309.5,139.5 309.5,136.5 309.5,133.5C 309.473,127.949 308.806,122.616 307.5,117.5C 307.5,115.167 307.5,112.833 307.5,110.5C 306.945,99.1733 306.445,87.84 306,76.5C 305.148,75.4293 304.315,74.4293 303.5,73.5C 302.012,68.6407 301.345,63.6407 301.5,58.5C 301.624,52.9313 300.957,47.598 299.5,42.5C 299.5,41.1667 299.5,39.8333 299.5,38.5C 299.556,33.2688 298.889,28.2688 297.5,23.5C 297.468,18.6093 296.801,13.9426 295.5,9.5C 295.5,6.16667 295.5,2.83333 295.5,-0.5 Z"/></g>
<g><path style="opacity:1" fill="#2e84ee" d="M 343.5,-0.5 C 428.833,-0.5 514.167,-0.5 599.5,-0.5C 597.5,1.83333 595.5,4.16667 593.5,6.5C 591.519,8.14361 589.519,9.81027 587.5,11.5C 584.865,12.4735 582.865,14.1402 581.5,16.5C 578.865,17.4735 576.865,19.1402 575.5,21.5C 569.899,25.1347 564.899,29.4681 560.5,34.5C 558.449,35.4871 556.782,36.8205 555.5,38.5C 553.251,39.0798 551.585,40.4131 550.5,42.5C 547.527,43.8103 545.193,45.8103 543.5,48.5C 541.246,49.1237 539.579,50.457 538.5,52.5C 538.167,52.5 537.833,52.5 537.5,52.5C 534.141,55.5285 530.808,58.5285 527.5,61.5C 523.9,63.4302 520.9,66.0969 518.5,69.5C 515.63,70.4333 513.296,72.1 511.5,74.5C 509.5,74.5 508.5,75.5 508.5,77.5C 506.81,77.8564 505.81,78.8564 505.5,80.5C 501.587,81.4499 498.92,83.7833 497.5,87.5C 496.508,87.3284 495.842,87.6618 495.5,88.5C 491.122,91.3591 487.122,94.6925 483.5,98.5C 479.915,99.1215 477.581,101.121 476.5,104.5C 471.617,107.109 467.284,110.443 463.5,114.5C 463.5,114.833 463.5,115.167 463.5,115.5C 459.587,116.45 456.92,118.783 455.5,122.5C 455.167,122.5 454.833,122.5 454.5,122.5C 451.883,123.786 449.55,125.453 447.5,127.5C 447.5,127.833 447.5,128.167 447.5,128.5C 441.917,131.747 436.917,135.747 432.5,140.5C 431.833,140.5 431.5,140.833 431.5,141.5C 428.19,143.146 425.523,145.48 423.5,148.5C 420.545,150.122 417.878,152.122 415.5,154.5C 411.266,157.132 407.599,160.466 404.5,164.5C 402.205,165.136 400.539,166.469 399.5,168.5C 396.911,169.419 394.911,171.086 393.5,173.5C 389.925,175.729 386.592,178.395 383.5,181.5C 378.533,185.132 373.867,189.132 369.5,193.5C 368.417,193.539 367.417,193.873 366.5,194.5C 363.585,197.75 360.585,200.75 357.5,203.5C 354.865,204.473 352.865,206.14 351.5,208.5C 350.833,209.167 350.167,209.833 349.5,210.5C 347.973,210.427 346.973,211.094 346.5,212.5C 343.911,213.419 341.911,215.086 340.5,217.5C 337.94,219.273 335.607,221.273 333.5,223.5C 330.883,224.786 328.55,226.453 326.5,228.5C 325.18,229.942 323.514,230.608 321.5,230.5C 321.5,228.5 321.5,226.5 321.5,224.5C 321.5,221.833 321.5,219.167 321.5,216.5C 321.5,215.5 321.5,214.5 321.5,213.5C 323.136,209.79 323.802,205.79 323.5,201.5C 323.5,200.167 323.5,198.833 323.5,197.5C 325.203,188.051 326.203,178.384 326.5,168.5C 326.342,165.098 326.676,161.764 327.5,158.5C 329.104,154.1 329.771,149.434 329.5,144.5C 329.5,141.833 329.5,139.167 329.5,136.5C 329.5,135.5 329.5,134.5 329.5,133.5C 331.997,123.125 333.331,112.458 333.5,101.5C 333.5,100.167 333.5,98.8333 333.5,97.5C 335.177,93.4552 335.844,89.1219 335.5,84.5C 335.5,83.8333 335.5,83.1667 335.5,82.5C 336.117,82.3893 336.617,82.056 337,81.5C 338.147,71.8664 338.647,62.1998 338.5,52.5C 339.344,48.9009 339.677,45.2343 339.5,41.5C 342.294,27.7783 343.628,13.7783 343.5,-0.5 Z"/></g>
<g><path style="opacity:1" fill="#fce90b" d="M 601.5,-0.5 C 614.167,-0.5 626.833,-0.5 639.5,-0.5C 639.5,11.1667 639.5,22.8333 639.5,34.5C 637.147,35.3403 635.147,36.6736 633.5,38.5C 630.159,40.5587 626.826,42.5587 623.5,44.5C 621.973,44.427 620.973,45.0937 620.5,46.5C 617.218,48.1399 614.218,50.1399 611.5,52.5C 611.167,52.5 610.833,52.5 610.5,52.5C 608.205,53.4746 606.205,54.8079 604.5,56.5C 602.973,56.427 601.973,57.0937 601.5,58.5C 598.63,59.4333 596.296,61.1 594.5,63.5C 593.391,63.5569 592.391,63.8902 591.5,64.5C 586.024,67.6524 580.691,70.9857 575.5,74.5C 573.596,74.7376 572.262,75.7376 571.5,77.5C 567.951,78.7232 564.951,80.7232 562.5,83.5C 560.973,83.427 559.973,84.0937 559.5,85.5C 557.821,85.2852 556.821,85.9519 556.5,87.5C 556.167,87.5 555.833,87.5 555.5,87.5C 553.847,87.6596 552.514,88.3263 551.5,89.5C 548.489,90.6693 545.822,92.336 543.5,94.5C 541.596,94.7376 540.262,95.7376 539.5,97.5C 537.326,97.7497 535.659,98.7497 534.5,100.5C 531.561,101.456 529.228,103.123 527.5,105.5C 527.167,105.5 526.833,105.5 526.5,105.5C 524.973,105.427 523.973,106.094 523.5,107.5C 521.326,107.75 519.659,108.75 518.5,110.5C 516.251,111.08 514.585,112.413 513.5,114.5C 512.833,114.5 512.167,114.5 511.5,114.5C 506.984,116.099 503.317,118.765 500.5,122.5C 500.167,122.5 499.833,122.5 499.5,122.5C 495.024,123.657 491.358,125.99 488.5,129.5C 485.802,129.845 483.802,131.178 482.5,133.5C 478.427,133.908 475.427,135.908 473.5,139.5C 471.181,139.992 469.181,140.992 467.5,142.5C 463.024,143.657 459.358,145.99 456.5,149.5C 453.669,150.079 451.336,151.412 449.5,153.5C 447.516,156.164 444.849,157.831 441.5,158.5C 438.891,159.443 436.891,161.11 435.5,163.5C 434.833,163.833 434.167,164.167 433.5,164.5C 430.55,165.308 427.883,166.642 425.5,168.5C 422.63,169.433 420.296,171.1 418.5,173.5C 414.575,174.579 411.242,176.579 408.5,179.5C 405.179,181.179 402.179,183.179 399.5,185.5C 396.669,186.079 394.336,187.412 392.5,189.5C 389.802,189.845 387.802,191.178 386.5,193.5C 383.563,194.803 380.897,196.47 378.5,198.5C 374.951,199.723 371.951,201.723 369.5,204.5C 366.669,205.079 364.336,206.412 362.5,208.5C 358.046,209.626 354.379,211.959 351.5,215.5C 350.833,215.5 350.167,215.5 349.5,215.5C 348.711,215.217 348.044,214.717 347.5,214C 348.305,212.887 348.972,211.721 349.5,210.5C 350.167,209.833 350.833,209.167 351.5,208.5C 354.109,207.557 356.109,205.89 357.5,203.5C 362.426,201.237 366.426,197.904 369.5,193.5C 375.055,190.617 379.722,186.617 383.5,181.5C 386.592,178.395 389.925,175.729 393.5,173.5C 396.089,172.581 398.089,170.914 399.5,168.5C 401.749,167.92 403.415,166.587 404.5,164.5C 407.144,162.372 410.144,160.872 413.5,160C 414.337,158.989 414.67,157.822 414.5,156.5C 416.179,156.715 417.179,156.048 417.5,154.5C 419.833,152.833 421.833,150.833 423.5,148.5C 426.784,146.883 429.451,144.55 431.5,141.5C 431.5,140.833 431.833,140.5 432.5,140.5C 434.255,139.928 435.922,139.094 437.5,138C 441.099,135.048 444.433,131.882 447.5,128.5C 447.5,128.167 447.5,127.833 447.5,127.5C 450.643,127.031 452.977,125.364 454.5,122.5C 454.833,122.5 455.167,122.5 455.5,122.5C 458.207,120.157 460.874,117.823 463.5,115.5C 463.5,115.167 463.5,114.833 463.5,114.5C 464.552,114.649 465.552,114.483 466.5,114C 470.141,111.039 473.474,107.873 476.5,104.5C 479.06,102.727 481.393,100.727 483.5,98.5C 488.248,96.1176 492.248,92.7843 495.5,88.5C 495.842,87.6618 496.508,87.3284 497.5,87.5C 500.207,85.1568 502.874,82.8235 505.5,80.5C 505.81,78.8564 506.81,77.8564 508.5,77.5C 509.833,76.8333 510.833,75.8333 511.5,74.5C 514.37,73.5667 516.704,71.9 518.5,69.5C 522.1,67.5698 525.1,64.9031 527.5,61.5C 528.873,61.6567 530.207,61.49 531.5,61C 533.745,58.2691 535.745,55.4358 537.5,52.5C 537.833,52.5 538.167,52.5 538.5,52.5C 540.795,51.8645 542.461,50.5311 543.5,48.5C 546.427,47.2427 548.761,45.2427 550.5,42.5C 552.749,41.9202 554.415,40.5869 555.5,38.5C 556.782,36.8205 558.449,35.4871 560.5,34.5C 566.141,30.8552 571.141,26.5219 575.5,21.5C 578.109,20.5569 580.109,18.8903 581.5,16.5C 584.109,15.5569 586.109,13.8903 587.5,11.5C 589.519,9.81027 591.519,8.14361 593.5,6.5C 596.764,4.90587 599.431,2.57253 601.5,-0.5 Z"/></g>
<g><path style="opacity:1" fill="#8db180" d="M 599.5,-0.5 C 600.167,-0.5 600.833,-0.5 601.5,-0.5C 599.431,2.57253 596.764,4.90587 593.5,6.5C 595.5,4.16667 597.5,1.83333 599.5,-0.5 Z"/></g>
<g><path style="opacity:1" fill="#5e92a2" d="M 42.5,3.5 C 45.4732,4.81032 47.8065,6.81032 49.5,9.5C 46.5726,8.24269 44.2393,6.24269 42.5,3.5 Z"/></g>
<g><path style="opacity:1" fill="#8aaf87" d="M 587.5,11.5 C 586.109,13.8903 584.109,15.5569 581.5,16.5C 582.865,14.1402 584.865,12.4735 587.5,11.5 Z"/></g>
<g><path style="opacity:1" fill="#4f89c0" d="M 53.5,12.5 C 57.3159,13.1539 60.1492,15.1539 62,18.5C 62.3333,18.1667 62.6667,17.8333 63,17.5C 63.9855,19.6412 65.1522,21.6412 66.5,23.5C 61.8677,20.2022 57.5344,16.5355 53.5,12.5 Z"/></g>
<g><path style="opacity:1" fill="#c5d565" d="M 342.5,10.5 C 342.31,15.3696 341.644,20.0363 340.5,24.5C 340.335,20.8183 340.501,17.1516 341,13.5C 341.232,12.2625 341.732,11.2625 342.5,10.5 Z"/></g>
<g><path style="opacity:1" fill="#86ac80" d="M 581.5,16.5 C 580.109,18.8903 578.109,20.5569 575.5,21.5C 576.865,19.1402 578.865,17.4735 581.5,16.5 Z"/></g>
<g><path style="opacity:1" fill="#5b92a4" d="M 66.5,23.5 C 69.0892,24.4194 71.0892,26.086 72.5,28.5C 69.9108,27.5806 67.9108,25.914 66.5,23.5 Z"/></g>
<g><path style="opacity:1" fill="#acc773" d="M 575.5,21.5 C 571.141,26.5219 566.141,30.8552 560.5,34.5C 564.899,29.4681 569.899,25.1347 575.5,21.5 Z"/></g>
<g><path style="opacity:1" fill="#5f92a1" d="M 72.5,28.5 C 75.4732,29.8103 77.8065,31.8103 79.5,34.5C 76.5726,33.2427 74.2393,31.2427 72.5,28.5 Z"/></g>
<g><path style="opacity:1" fill="#cad660" d="M 340.5,26.5 C 339.746,31.4635 339.413,36.4635 339.5,41.5C 339.677,45.2343 339.344,48.9009 338.5,52.5C 337.674,57.3165 337.174,62.3165 337,67.5C 336.617,68.056 336.117,68.3893 335.5,68.5C 336.482,55.1588 337.649,41.8255 339,28.5C 339.278,27.5842 339.778,26.9175 340.5,26.5 Z"/></g>
<g><path style="opacity:1" fill="#80a48d" d="M 79.5,34.5 C 80.8333,34.5 81.5,35.1667 81.5,36.5C 81.5,35.1667 80.8333,34.5 79.5,34.5 Z"/></g>
<g><path style="opacity:1" fill="#7fa98b" d="M 639.5,34.5 C 639.5,34.8333 639.5,35.1667 639.5,35.5C 638.128,36.5116 636.795,37.5116 635.5,38.5C 634.833,38.5 634.167,38.5 633.5,38.5C 635.147,36.6736 637.147,35.3403 639.5,34.5 Z"/></g>
<g><path style="opacity:1" fill="#84aa86" d="M 297.5,23.5 C 298.889,28.2688 299.556,33.2688 299.5,38.5C 298.111,33.7312 297.444,28.7312 297.5,23.5 Z"/></g>
<g><path style="opacity:1" fill="#6a9793" d="M 342.5,-0.5 C 342.833,-0.5 343.167,-0.5 343.5,-0.5C 343.628,13.7783 342.294,27.7783 339.5,41.5C 339.413,36.4635 339.746,31.4635 340.5,26.5C 340.5,25.8333 340.5,25.1667 340.5,24.5C 341.644,20.0363 342.31,15.3696 342.5,10.5C 342.5,6.83333 342.5,3.16667 342.5,-0.5 Z"/></g>
<g><path style="opacity:1" fill="#4486bd" d="M 295.5,9.5 C 296.801,13.9426 297.468,18.6093 297.5,23.5C 297.444,28.7312 298.111,33.7312 299.5,38.5C 299.5,39.8333 299.5,41.1667 299.5,42.5C 299.5,43.8333 299.5,45.1667 299.5,46.5C 298.168,42.7361 297.335,38.7361 297,34.5C 296.458,26.1645 295.958,17.8312 295.5,9.5 Z"/></g>
<g><path style="opacity:1" fill="#a3bf77" d="M 2.5,36.5 C 6.24987,37.4114 9.24987,39.4114 11.5,42.5C 8.21847,40.8601 5.21847,38.8601 2.5,36.5 Z"/></g>
<g><path style="opacity:1" fill="#63929f" d="M 85.5,39.5 C 87.7488,40.0798 89.4154,41.4131 90.5,43.5C 88.2512,42.9202 86.5846,41.5869 85.5,39.5 Z"/></g>
<g><path style="opacity:1" fill="#2e84ee" d="M -0.5,35.5 C 0.608953,35.5569 1.60895,35.8902 2.5,36.5C 5.21847,38.8601 8.21847,40.8601 11.5,42.5C 12.287,44.1042 13.6203,44.7709 15.5,44.5C 15.8417,45.3382 16.5084,45.6716 17.5,45.5C 21.8945,49.3503 26.5612,52.6836 31.5,55.5C 33.5664,57.1991 35.8997,58.5324 38.5,59.5C 40.4736,60.9059 42.4736,62.4059 44.5,64C 45.448,64.4828 46.448,64.6495 47.5,64.5C 48.1667,65.1667 48.8333,65.8333 49.5,66.5C 51.5664,68.1991 53.8997,69.5324 56.5,70.5C 57.1667,70.8333 57.8333,71.1667 58.5,71.5C 59.5846,73.5869 61.2512,74.9202 63.5,75.5C 65.5,76.5 67.5,77.5 69.5,78.5C 70.1667,79.8333 71.1667,80.8333 72.5,81.5C 73.246,83.3428 74.5794,84.6761 76.5,85.5C 74.15,86.7739 74.3167,88.1073 77,89.5C 77.7869,88.2893 78.4536,87.2893 79,86.5C 81.672,88.3273 84.5053,89.6606 87.5,90.5C 91.702,94.042 96.3686,96.7087 101.5,98.5C 103.296,100.9 105.63,102.567 108.5,103.5C 108.973,104.906 109.973,105.573 111.5,105.5C 113.062,105.733 114.395,106.4 115.5,107.5C 115.973,108.906 116.973,109.573 118.5,109.5C 119.899,110.89 121.566,111.89 123.5,112.5C 128.824,117.167 134.824,120.834 141.5,123.5C 143.492,124.83 145.492,126.164 147.5,127.5C 147.973,128.906 148.973,129.573 150.5,129.5C 153.521,131.53 156.521,133.53 159.5,135.5C 160.899,136.89 162.566,137.89 164.5,138.5C 165.942,139.82 166.608,141.486 166.5,143.5C 169.564,143.928 172.564,144.594 175.5,145.5C 178.503,147.504 181.503,149.504 184.5,151.5C 184.804,152.15 185.137,152.817 185.5,153.5C 184.189,154.258 183.689,155.258 184,156.5C 186.288,154.344 188.788,154.01 191.5,155.5C 195.191,157.371 198.525,159.871 201.5,163C 203.628,163.655 205.628,164.489 207.5,165.5C 209.566,167.199 211.9,168.532 214.5,169.5C 214.973,170.906 215.973,171.573 217.5,171.5C 218.802,173.822 220.802,175.155 223.5,175.5C 226.981,178.631 230.981,180.964 235.5,182.5C 236.687,184.975 238.687,185.975 241.5,185.5C 242.167,186.833 243.167,187.833 244.5,188.5C 244.973,189.906 245.973,190.573 247.5,190.5C 250.693,192.682 254.026,194.682 257.5,196.5C 257.973,197.906 258.973,198.573 260.5,198.5C 260.973,199.906 261.973,200.573 263.5,200.5C 263.973,201.906 264.973,202.573 266.5,202.5C 271.236,205.895 276.236,208.895 281.5,211.5C 283.034,213.369 285.034,214.702 287.5,215.5C 289.663,217.083 291.996,218.416 294.5,219.5C 299.675,222.922 304.675,226.588 309.5,230.5C 310.091,231.151 310.757,231.818 311.5,232.5C 311,232.833 310.5,233.167 310,233.5C 304.884,232.575 299.717,232.242 294.5,232.5C 280.751,230.058 266.751,229.058 252.5,229.5C 246.545,228.637 240.545,228.303 234.5,228.5C 234.209,227.351 233.376,226.684 232,226.5C 215.541,224.918 199.041,223.918 182.5,223.5C 172.509,222.945 162.509,222.612 152.5,222.5C 151.5,222.5 150.5,222.5 149.5,222.5C 140.013,221.151 130.347,220.151 120.5,219.5C 115.015,218.673 109.348,218.173 103.5,218C 103.167,217.667 102.833,217.333 102.5,217C 106.167,216.667 109.833,216.333 113.5,216C 113.167,215.667 112.833,215.333 112.5,215C 103.486,215.159 94.4863,215.659 85.5,216.5C 81.5,216.5 77.5,216.5 73.5,216.5C 72.8333,216.5 72.1667,216.5 71.5,216.5C 70.4324,215.566 69.099,215.232 67.5,215.5C 65.7078,214.691 63.7078,214.191 61.5,214C 50.8303,213.484 40.1636,212.984 29.5,212.5C 25.5,212.5 21.5,212.5 17.5,212.5C 11.7118,211.19 5.71183,210.523 -0.5,210.5C -0.5,152.167 -0.5,93.8333 -0.5,35.5 Z"/></g>
<g><path style="opacity:1" fill="#aec86c" d="M 555.5,38.5 C 554.415,40.5869 552.749,41.9202 550.5,42.5C 551.585,40.4131 553.251,39.0798 555.5,38.5 Z"/></g>
<g><path style="opacity:1" fill="#83ae80" d="M 11.5,42.5 C 13.153,42.6596 14.4863,43.3263 15.5,44.5C 13.6203,44.7709 12.287,44.1042 11.5,42.5 Z"/></g>
<g><path style="opacity:1" fill="#a0bd7b" d="M 550.5,42.5 C 548.761,45.2427 546.427,47.2427 543.5,48.5C 545.193,45.8103 547.527,43.8103 550.5,42.5 Z"/></g>
<g><path style="opacity:1" fill="#4887cc" d="M 633.5,38.5 C 634.167,38.5 634.833,38.5 635.5,38.5C 634.77,39.7124 633.77,40.7124 632.5,41.5C 633.504,43.6773 632.838,44.0107 630.5,42.5C 627.942,44.1315 625.275,45.4648 622.5,46.5C 622.833,45.8333 623.167,45.1667 623.5,44.5C 626.826,42.5587 630.159,40.5587 633.5,38.5 Z"/></g>
<g><path style="opacity:1" fill="#2e84ee" d="M 639.5,35.5 C 639.5,93.8333 639.5,152.167 639.5,210.5C 632.595,210.207 625.928,210.874 619.5,212.5C 615.298,212.183 611.298,212.517 607.5,213.5C 604.287,213.19 601.287,213.523 598.5,214.5C 587.391,214.272 576.391,214.938 565.5,216.5C 558.159,216.334 550.826,216.5 543.5,217C 541.942,217.21 540.609,217.71 539.5,218.5C 538.167,218.5 536.833,218.5 535.5,218.5C 518.164,219.182 500.831,220.015 483.5,221C 482.944,221.383 482.611,221.883 482.5,222.5C 456.452,223.465 430.452,224.965 404.5,227C 403.944,227.383 403.611,227.883 403.5,228.5C 401.5,228.5 399.5,228.5 397.5,228.5C 375.109,229.71 352.776,231.376 330.5,233.5C 326.627,233.666 325.96,232.666 328.5,230.5C 330.167,229.167 331.833,227.833 333.5,226.5C 335.255,225.096 337.255,224.096 339.5,223.5C 341.966,222.702 343.966,221.369 345.5,219.5C 347.966,218.702 349.966,217.369 351.5,215.5C 352.552,215.649 353.552,215.483 354.5,215C 357.194,212.742 359.861,210.576 362.5,208.5C 365.621,208.264 367.954,206.931 369.5,204.5C 373.632,204.009 376.632,202.009 378.5,198.5C 379.873,198.657 381.207,198.49 382.5,198C 384.635,197.124 385.969,195.624 386.5,193.5C 388.853,192.66 390.853,191.326 392.5,189.5C 393.552,189.649 394.552,189.483 395.5,189C 397.319,188.26 398.652,187.093 399.5,185.5C 402.179,183.179 405.179,181.179 408.5,179.5C 413.075,179.547 416.408,177.547 418.5,173.5C 420.969,172.431 423.302,171.098 425.5,169.5C 427.693,168.32 430.026,167.32 432.5,166.5C 433.298,166.043 433.631,165.376 433.5,164.5C 434.167,164.167 434.833,163.833 435.5,163.5C 438.135,162.527 440.135,160.86 441.5,158.5C 444.849,157.831 447.516,156.164 449.5,153.5C 452.326,153.002 454.66,151.669 456.5,149.5C 460.683,147.913 464.35,145.579 467.5,142.5C 469.181,140.992 471.181,139.992 473.5,139.5C 476.68,137.745 479.68,135.745 482.5,133.5C 484.853,132.66 486.853,131.326 488.5,129.5C 493.263,128.948 496.93,126.615 499.5,122.5C 499.833,122.5 500.167,122.5 500.5,122.5C 503.261,121.111 505.927,119.611 508.5,118C 510.063,117.241 511.063,116.074 511.5,114.5C 512.167,114.5 512.833,114.5 513.5,114.5C 515.749,113.92 517.415,112.587 518.5,110.5C 520.674,110.25 522.341,109.25 523.5,107.5C 525.027,107.573 526.027,106.906 526.5,105.5C 526.833,105.5 527.167,105.5 527.5,105.5C 530.37,104.567 532.704,102.9 534.5,100.5C 536.848,100.408 538.514,99.4077 539.5,97.5C 541.632,97.4456 542.965,96.4456 543.5,94.5C 545.685,94.2964 547.685,93.6298 549.5,92.5C 552.089,91.5806 554.089,89.914 555.5,87.5C 555.833,87.5 556.167,87.5 556.5,87.5C 557.71,87.0679 558.71,86.4013 559.5,85.5C 559.973,84.0937 560.973,83.427 562.5,83.5C 566.632,83.0092 569.632,81.0092 571.5,77.5C 572.833,77.5 574.167,77.5 575.5,77.5C 575.5,76.5 575.5,75.5 575.5,74.5C 581.648,72.4528 586.982,69.1195 591.5,64.5C 592.391,63.8902 593.391,63.5569 594.5,63.5C 597.37,62.5667 599.704,60.9 601.5,58.5C 603.027,58.573 604.027,57.9063 604.5,56.5C 607.337,56.3155 609.337,54.9822 610.5,52.5C 610.833,52.5 611.167,52.5 611.5,52.5C 615.573,52.0915 618.573,50.0915 620.5,46.5C 621.167,46.5 621.833,46.5 622.5,46.5C 625.275,45.4648 627.942,44.1315 630.5,42.5C 632.838,44.0107 633.504,43.6773 632.5,41.5C 633.77,40.7124 634.77,39.7124 635.5,38.5C 636.795,37.5116 638.128,36.5116 639.5,35.5 Z"/></g>
<g><path style="opacity:1" fill="#87ae7a" d="M 623.5,44.5 C 623.167,45.1667 622.833,45.8333 622.5,46.5C 621.833,46.5 621.167,46.5 620.5,46.5C 620.973,45.0937 621.973,44.427 623.5,44.5 Z"/></g>
<g><path style="opacity:1" fill="#d2d94e" d="M 17.5,45.5 C 19.8901,45.9126 22.2235,46.5793 24.5,47.5C 27.8562,49.8614 30.8562,52.5281 33.5,55.5C 32.8333,55.5 32.1667,55.5 31.5,55.5C 26.5612,52.6836 21.8945,49.3503 17.5,45.5 Z"/></g>
<g><path style="opacity:1" fill="#83aa7e" d="M 299.5,42.5 C 300.957,47.598 301.624,52.9313 301.5,58.5C 301.167,58.5 300.833,58.5 300.5,58.5C 300.495,54.4659 300.162,50.4659 299.5,46.5C 299.5,45.1667 299.5,43.8333 299.5,42.5 Z"/></g>
<g><path style="opacity:1" fill="#6c999a" d="M 620.5,46.5 C 618.573,50.0915 615.573,52.0915 611.5,52.5C 614.218,50.1399 617.218,48.1399 620.5,46.5 Z"/></g>
<g><path style="opacity:1" fill="#528cbe" d="M 90.5,43.5 C 92.4358,44.259 94.2691,45.259 96,46.5C 97.4651,45.6705 98.9651,45.5038 100.5,46C 98.2329,47.0812 98.0662,48.5812 100,50.5C 103.233,52.5383 106.4,55.5383 109.5,59.5C 102.562,54.8672 96.2285,49.5339 90.5,43.5 Z"/></g>
<g><path style="opacity:1" fill="#b2ca74" d="M 543.5,48.5 C 542.461,50.5311 540.795,51.8645 538.5,52.5C 539.579,50.457 541.246,49.1237 543.5,48.5 Z"/></g>
<g><path style="opacity:1" fill="#709d8b" d="M 610.5,52.5 C 609.337,54.9822 607.337,56.3155 604.5,56.5C 606.205,54.8079 608.205,53.4746 610.5,52.5 Z"/></g>
<g><path style="opacity:1" fill="#85a983" d="M 31.5,55.5 C 32.1667,55.5 32.8333,55.5 33.5,55.5C 35.6616,56.1276 37.3282,57.461 38.5,59.5C 35.8997,58.5324 33.5664,57.1991 31.5,55.5 Z"/></g>
<g><path style="opacity:1" fill="#82a782" d="M 604.5,56.5 C 604.027,57.9063 603.027,58.573 601.5,58.5C 601.973,57.0937 602.973,56.427 604.5,56.5 Z"/></g>
<g><path style="opacity:1" fill="#cbd558" d="M 537.5,52.5 C 535.745,55.4358 533.745,58.2691 531.5,61C 530.207,61.49 528.873,61.6567 527.5,61.5C 530.808,58.5285 534.141,55.5285 537.5,52.5 Z"/></g>
<g><path style="opacity:1" fill="#a2be79" d="M 38.5,59.5 C 42.2515,59.9399 45.2515,61.6066 47.5,64.5C 46.448,64.6495 45.448,64.4828 44.5,64C 42.4736,62.4059 40.4736,60.9059 38.5,59.5 Z"/></g>
<g><path style="opacity:1" fill="#66949b" d="M 601.5,58.5 C 599.704,60.9 597.37,62.5667 594.5,63.5C 596.296,61.1 598.63,59.4333 601.5,58.5 Z"/></g>
<g><path style="opacity:1" fill="#63939a" d="M 115.5,64.5 C 118.167,65.1667 119.833,66.8333 120.5,69.5C 118.5,68.1667 116.833,66.5 115.5,64.5 Z"/></g>
<g><path style="opacity:1" fill="#9ab975" d="M 49.5,66.5 C 52.5458,66.7247 54.8791,68.058 56.5,70.5C 53.8997,69.5324 51.5664,68.1991 49.5,66.5 Z"/></g>
<g><path style="opacity:1" fill="#b3cb6c" d="M 527.5,61.5 C 525.1,64.9031 522.1,67.5698 518.5,69.5C 520.9,66.0969 523.9,63.4302 527.5,61.5 Z"/></g>
<g><path style="opacity:1" fill="#538eb9" d="M 338.5,52.5 C 338.647,62.1998 338.147,71.8664 337,81.5C 336.617,82.056 336.117,82.3893 335.5,82.5C 335.5,77.8333 335.5,73.1667 335.5,68.5C 336.117,68.3893 336.617,68.056 337,67.5C 337.174,62.3165 337.674,57.3165 338.5,52.5 Z"/></g>
<g><path style="opacity:1" fill="#679794" d="M 121.5,69.5 C 124.089,70.4194 126.089,72.086 127.5,74.5C 124.911,73.5806 122.911,71.914 121.5,69.5 Z"/></g>
<g><path style="opacity:1" fill="#81a888" d="M 591.5,64.5 C 586.982,69.1195 581.648,72.4528 575.5,74.5C 580.691,70.9857 586.024,67.6524 591.5,64.5 Z"/></g>
<g><path style="opacity:1" fill="#8fb184" d="M 58.5,71.5 C 60.7488,72.0798 62.4154,73.4131 63.5,75.5C 61.2512,74.9202 59.5846,73.5869 58.5,71.5 Z"/></g>
<g><path style="opacity:1" fill="#90b37c" d="M 518.5,69.5 C 516.704,71.9 514.37,73.5667 511.5,74.5C 513.296,72.1 515.63,70.4333 518.5,69.5 Z"/></g>
<g><path style="opacity:1" fill="#6a9a91" d="M 511.5,74.5 C 510.833,75.8333 509.833,76.8333 508.5,77.5C 508.5,75.5 509.5,74.5 511.5,74.5 Z"/></g>
<g><path style="opacity:1" fill="#6b9991" d="M 129.5,76.5 C 131.404,76.7376 132.738,77.7376 133.5,79.5C 131.596,79.2624 130.262,78.2624 129.5,76.5 Z"/></g>
<g><path style="opacity:1" fill="#4c8cc2" d="M 300.5,58.5 C 300.833,58.5 301.167,58.5 301.5,58.5C 301.345,63.6407 302.012,68.6407 303.5,73.5C 303.5,75.8333 303.5,78.1667 303.5,80.5C 302.85,80.1961 302.183,79.8627 301.5,79.5C 300.503,72.5316 300.17,65.5316 300.5,58.5 Z"/></g>
<g><path style="opacity:1" fill="#6c97a4" d="M 575.5,74.5 C 575.5,75.5 575.5,76.5 575.5,77.5C 574.167,77.5 572.833,77.5 571.5,77.5C 572.262,75.7376 573.596,74.7376 575.5,74.5 Z"/></g>
<g><path style="opacity:1" fill="#adc76d" d="M 69.5,78.5 C 72.1003,79.4676 74.4336,80.8009 76.5,82.5C 75.1667,82.1667 73.8333,81.8333 72.5,81.5C 71.1667,80.8333 70.1667,79.8333 69.5,78.5 Z"/></g>
<g><path style="opacity:1" fill="#6193a9" d="M 571.5,77.5 C 569.632,81.0092 566.632,83.0092 562.5,83.5C 564.951,80.7232 567.951,78.7232 571.5,77.5 Z"/></g>
<g><path style="opacity:1" fill="#6e9a96" d="M 133.5,79.5 C 136.427,80.7573 138.761,82.7573 140.5,85.5C 137.573,84.2427 135.239,82.2427 133.5,79.5 Z"/></g>
<g><path style="opacity:1" fill="#a1bf76" d="M 505.5,80.5 C 502.874,82.8235 500.207,85.1568 497.5,87.5C 498.92,83.7833 501.587,81.4499 505.5,80.5 Z"/></g>
<g><path style="opacity:1" fill="#e6e43c" d="M 303.5,73.5 C 304.315,74.4293 305.148,75.4293 306,76.5C 306.445,87.84 306.945,99.1733 307.5,110.5C 306.833,107.5 306.167,104.5 305.5,101.5C 305.094,94.4721 304.427,87.4721 303.5,80.5C 303.5,78.1667 303.5,75.8333 303.5,73.5 Z"/></g>
<g><path style="opacity:1" fill="#72a082" d="M 559.5,85.5 C 558.71,86.4013 557.71,87.0679 556.5,87.5C 556.821,85.9519 557.821,85.2852 559.5,85.5 Z"/></g>
<g><path style="opacity:1" fill="#4c89d0" d="M 72.5,81.5 C 73.8333,81.8333 75.1667,82.1667 76.5,82.5C 80.0199,85.421 83.6866,88.0876 87.5,90.5C 84.5053,89.6606 81.672,88.3273 79,86.5C 78.4536,87.2893 77.7869,88.2893 77,89.5C 74.3167,88.1073 74.15,86.7739 76.5,85.5C 74.5794,84.6761 73.246,83.3428 72.5,81.5 Z"/></g>
<g><path style="opacity:1" fill="#6395a0" d="M 143.5,88.5 C 147.299,89.6127 150.299,91.946 152.5,95.5C 149.208,93.5419 146.208,91.2085 143.5,88.5 Z"/></g>
<g><path style="opacity:1" fill="#8db280" d="M 551.5,89.5 C 550.833,90.5 550.167,91.5 549.5,92.5C 547.685,93.6298 545.685,94.2964 543.5,94.5C 545.822,92.336 548.489,90.6693 551.5,89.5 Z"/></g>
<g><path style="opacity:1" fill="#5a8fb0" d="M 555.5,87.5 C 554.089,89.914 552.089,91.5806 549.5,92.5C 550.167,91.5 550.833,90.5 551.5,89.5C 552.514,88.3263 553.847,87.6596 555.5,87.5 Z"/></g>
<g><path style="opacity:1" fill="#aec770" d="M 495.5,88.5 C 492.248,92.7843 488.248,96.1176 483.5,98.5C 487.122,94.6925 491.122,91.3591 495.5,88.5 Z"/></g>
<g><path style="opacity:1" fill="#88af81" d="M 543.5,94.5 C 542.965,96.4456 541.632,97.4456 539.5,97.5C 540.262,95.7376 541.596,94.7376 543.5,94.5 Z"/></g>
<g><path style="opacity:1" fill="#709b8a" d="M 335.5,84.5 C 335.844,89.1219 335.177,93.4552 333.5,97.5C 333.28,92.9 333.946,88.5667 335.5,84.5 Z"/></g>
<g><path style="opacity:1" fill="#78a28c" d="M 539.5,97.5 C 538.514,99.4077 536.848,100.408 534.5,100.5C 535.659,98.7497 537.326,97.7497 539.5,97.5 Z"/></g>
<g><path style="opacity:1" fill="#7da297" d="M 483.5,98.5 C 481.393,100.727 479.06,102.727 476.5,104.5C 477.581,101.121 479.915,99.1215 483.5,98.5 Z"/></g>
<g><path style="opacity:1" fill="#77a189" d="M 534.5,100.5 C 532.704,102.9 530.37,104.567 527.5,105.5C 529.228,103.123 531.561,101.456 534.5,100.5 Z"/></g>
<g><path style="opacity:1" fill="#dcdd47" d="M 101.5,98.5 C 105.211,100.313 109.211,101.48 113.5,102C 114.833,102.667 114.833,103.333 113.5,104C 117.864,105.673 121.197,108.507 123.5,112.5C 121.566,111.89 119.899,110.89 118.5,109.5C 118.027,108.094 117.027,107.427 115.5,107.5C 114.395,106.4 113.062,105.733 111.5,105.5C 111.027,104.094 110.027,103.427 108.5,103.5C 105.63,102.567 103.296,100.9 101.5,98.5 Z"/></g>
<g><path style="opacity:1" fill="#6f9d89" d="M 108.5,103.5 C 110.027,103.427 111.027,104.094 111.5,105.5C 109.973,105.573 108.973,104.906 108.5,103.5 Z"/></g>
<g><path style="opacity:1" fill="#7ba68e" d="M 526.5,105.5 C 526.027,106.906 525.027,107.573 523.5,107.5C 523.973,106.094 524.973,105.427 526.5,105.5 Z"/></g>
<g><path style="opacity:1" fill="#669b8f" d="M 166.5,107.5 C 168.027,107.427 169.027,108.094 169.5,109.5C 167.973,109.573 166.973,108.906 166.5,107.5 Z"/></g>
<g><path style="opacity:1" fill="#88ae7d" d="M 115.5,107.5 C 117.027,107.427 118.027,108.094 118.5,109.5C 116.973,109.573 115.973,108.906 115.5,107.5 Z"/></g>
<g><path style="opacity:1" fill="#78a082" d="M 305.5,101.5 C 306.167,104.5 306.833,107.5 307.5,110.5C 307.5,112.833 307.5,115.167 307.5,117.5C 307.5,117.833 307.5,118.167 307.5,118.5C 305.988,113.071 305.321,107.404 305.5,101.5 Z"/></g>
<g><path style="opacity:1" fill="#8caf7b" d="M 523.5,107.5 C 522.341,109.25 520.674,110.25 518.5,110.5C 519.659,108.75 521.326,107.75 523.5,107.5 Z"/></g>
<g><path style="opacity:1" fill="#6391a2" d="M 169.5,109.5 C 172.089,110.419 174.089,112.086 175.5,114.5C 172.911,113.581 170.911,111.914 169.5,109.5 Z"/></g>
<g><path style="opacity:1" fill="#b2c96e" d="M 476.5,104.5 C 473.474,107.873 470.141,111.039 466.5,114C 465.552,114.483 464.552,114.649 463.5,114.5C 467.284,110.443 471.617,107.109 476.5,104.5 Z"/></g>
<g><path style="opacity:1" fill="#62929e" d="M 518.5,110.5 C 517.415,112.587 515.749,113.92 513.5,114.5C 514.585,112.413 516.251,111.08 518.5,110.5 Z"/></g>
<g><path style="opacity:1" fill="#709a93" d="M 177.5,116.5 C 179.749,117.08 181.415,118.413 182.5,120.5C 180.251,119.92 178.585,118.587 177.5,116.5 Z"/></g>
<g><path style="opacity:1" fill="#7fa58a" d="M 511.5,114.5 C 511.063,116.074 510.063,117.241 508.5,118C 505.927,119.611 503.261,121.111 500.5,122.5C 503.317,118.765 506.984,116.099 511.5,114.5 Z"/></g>
<g><path style="opacity:1" fill="#9fbc79" d="M 463.5,115.5 C 460.874,117.823 458.207,120.157 455.5,122.5C 456.92,118.783 459.587,116.45 463.5,115.5 Z"/></g>
<g><path style="opacity:1" fill="#b4ca67" d="M 123.5,112.5 C 130.513,114.666 136.513,118.332 141.5,123.5C 134.824,120.834 128.824,117.167 123.5,112.5 Z"/></g>
<g><path style="opacity:1" fill="#90b37c" d="M 454.5,122.5 C 452.977,125.364 450.643,127.031 447.5,127.5C 449.55,125.453 451.883,123.786 454.5,122.5 Z"/></g>
<g><path style="opacity:1" fill="#a6c36f" d="M 307.5,117.5 C 308.806,122.616 309.473,127.949 309.5,133.5C 308.833,131.167 308.167,128.833 307.5,126.5C 307.5,123.833 307.5,121.167 307.5,118.5C 307.5,118.167 307.5,117.833 307.5,117.5 Z"/></g>
<g><path style="opacity:1" fill="#8fb27e" d="M 333.5,101.5 C 333.331,112.458 331.997,123.125 329.5,133.5C 330.044,122.586 331.377,111.919 333.5,101.5 Z"/></g>
<g><path style="opacity:1" fill="#709ba0" d="M 499.5,122.5 C 496.93,126.615 493.263,128.948 488.5,129.5C 491.358,125.99 495.024,123.657 499.5,122.5 Z"/></g>
<g><path style="opacity:1" fill="#97b680" d="M 147.5,127.5 C 149.027,127.427 150.027,128.094 150.5,129.5C 148.973,129.573 147.973,128.906 147.5,127.5 Z"/></g>
<g><path style="opacity:1" fill="#578fac" d="M 191.5,128.5 C 194.803,128.735 197.137,130.402 198.5,133.5C 195.883,132.214 193.55,130.547 191.5,128.5 Z"/></g>
<g><path style="opacity:1" fill="#9ab97d" d="M 447.5,128.5 C 444.433,131.882 441.099,135.048 437.5,138C 435.922,139.094 434.255,139.928 432.5,140.5C 436.917,135.747 441.917,131.747 447.5,128.5 Z"/></g>
<g><path style="opacity:1" fill="#759e8a" d="M 488.5,129.5 C 486.853,131.326 484.853,132.66 482.5,133.5C 483.802,131.178 485.802,129.845 488.5,129.5 Z"/></g>
<g><path style="opacity:1" fill="#81a587" d="M 482.5,133.5 C 479.68,135.745 476.68,137.745 473.5,139.5C 475.427,135.908 478.427,133.908 482.5,133.5 Z"/></g>
<g><path style="opacity:1" fill="#97b57a" d="M 159.5,135.5 C 161.989,135.241 163.656,136.241 164.5,138.5C 162.566,137.89 160.899,136.89 159.5,135.5 Z"/></g>
<g><path style="opacity:1" fill="#518ba1" d="M 307.5,126.5 C 308.167,128.833 308.833,131.167 309.5,133.5C 309.5,136.5 309.5,139.5 309.5,142.5C 308.194,137.384 307.527,132.051 307.5,126.5 Z"/></g>
<g><path style="opacity:1" fill="#5f92b2" d="M 164.5,138.5 C 168.439,140.446 172.106,142.779 175.5,145.5C 172.564,144.594 169.564,143.928 166.5,143.5C 166.608,141.486 165.942,139.82 164.5,138.5 Z"/></g>
<g><path style="opacity:1" fill="#8eb17f" d="M 431.5,141.5 C 429.451,144.55 426.784,146.883 423.5,148.5C 425.523,145.48 428.19,143.146 431.5,141.5 Z"/></g>
<g><path style="opacity:1" fill="#8fb27e" d="M 467.5,142.5 C 464.35,145.579 460.683,147.913 456.5,149.5C 459.358,145.99 463.024,143.657 467.5,142.5 Z"/></g>
<g><path style="opacity:1" fill="#568cbf" d="M 211.5,144.5 C 214.225,145.713 216.559,147.546 218.5,150C 219.448,150.483 220.448,150.649 221.5,150.5C 221.281,149.325 221.614,148.325 222.5,147.5C 222.833,148 223.167,148.5 223.5,149C 222.245,150.887 222.245,152.72 223.5,154.5C 218.619,152.291 214.619,148.957 211.5,144.5 Z"/></g>
<g><path style="opacity:1" fill="#b5cd74" d="M 329.5,136.5 C 329.5,139.167 329.5,141.833 329.5,144.5C 328.833,146.5 328.167,148.5 327.5,150.5C 327.362,145.586 328.028,140.919 329.5,136.5 Z"/></g>
<g><path style="opacity:1" fill="#8eb17e" d="M 456.5,149.5 C 454.66,151.669 452.326,153.002 449.5,153.5C 451.336,151.412 453.669,150.079 456.5,149.5 Z"/></g>
<g><path style="opacity:1" fill="#aac375" d="M 423.5,148.5 C 421.833,150.833 419.833,152.833 417.5,154.5C 416.833,154.5 416.167,154.5 415.5,154.5C 417.878,152.122 420.545,150.122 423.5,148.5 Z"/></g>
<g><path style="opacity:1" fill="#6091bb" d="M 184.5,151.5 C 187.406,152.108 189.74,153.441 191.5,155.5C 188.788,154.01 186.288,154.344 184,156.5C 183.689,155.258 184.189,154.258 185.5,153.5C 185.137,152.817 184.804,152.15 184.5,151.5 Z"/></g>
<g><path style="opacity:1" fill="#739c88" d="M 309.5,142.5 C 310.525,145.974 311.192,149.64 311.5,153.5C 311.5,154.833 311.5,156.167 311.5,157.5C 310.111,152.731 309.444,147.731 309.5,142.5 Z"/></g>
<g><path style="opacity:1" fill="#5a8e95" d="M 329.5,144.5 C 329.771,149.434 329.104,154.1 327.5,158.5C 327.5,155.833 327.5,153.167 327.5,150.5C 328.167,148.5 328.833,146.5 329.5,144.5 Z"/></g>
<g><path style="opacity:1" fill="#4f8bc0" d="M 228.5,158.5 C 230.199,158.34 231.866,158.506 233.5,159C 233.043,159.414 232.709,159.914 232.5,160.5C 233.524,161.852 234.524,163.185 235.5,164.5C 232.573,163.243 230.239,161.243 228.5,158.5 Z"/></g>
<g><path style="opacity:1" fill="#d5db4e" d="M 415.5,154.5 C 416.167,154.5 416.833,154.5 417.5,154.5C 417.179,156.048 416.179,156.715 414.5,156.5C 414.67,157.822 414.337,158.989 413.5,160C 410.144,160.872 407.144,162.372 404.5,164.5C 407.599,160.466 411.266,157.132 415.5,154.5 Z"/></g>
<g><path style="opacity:1" fill="#5c909f" d="M 441.5,158.5 C 440.135,160.86 438.135,162.527 435.5,163.5C 436.891,161.11 438.891,159.443 441.5,158.5 Z"/></g>
<g><path style="opacity:1" fill="#95b37a" d="M 191.5,155.5 C 194.014,155.754 196.348,156.587 198.5,158C 201.277,160.939 204.277,163.439 207.5,165.5C 205.628,164.489 203.628,163.655 201.5,163C 198.525,159.871 195.191,157.371 191.5,155.5 Z"/></g>
<g><path style="opacity:1" fill="#dce14c" d="M 311.5,153.5 C 314.207,163.143 315.207,173.143 314.5,183.5C 313.527,181.052 313.194,178.385 313.5,175.5C 313.638,170.586 312.972,165.919 311.5,161.5C 311.5,160.167 311.5,158.833 311.5,157.5C 311.5,156.167 311.5,154.833 311.5,153.5 Z"/></g>
<g><path style="opacity:1" fill="#9fbf7c" d="M 404.5,164.5 C 403.415,166.587 401.749,167.92 399.5,168.5C 400.539,166.469 402.205,165.136 404.5,164.5 Z"/></g>
<g><path style="opacity:1" fill="#a4bf74" d="M 207.5,165.5 C 210.546,165.725 212.879,167.058 214.5,169.5C 211.9,168.532 209.566,167.199 207.5,165.5 Z"/></g>
<g><path style="opacity:1" fill="#5a90aa" d="M 433.5,164.5 C 433.631,165.376 433.298,166.043 432.5,166.5C 430.026,167.32 427.693,168.32 425.5,169.5C 425.5,169.167 425.5,168.833 425.5,168.5C 427.883,166.642 430.55,165.308 433.5,164.5 Z"/></g>
<g><path style="opacity:1" fill="#79a18e" d="M 239.5,168.5 C 241.404,168.738 242.738,169.738 243.5,171.5C 241.596,171.262 240.262,170.262 239.5,168.5 Z"/></g>
<g><path style="opacity:1" fill="#8eb180" d="M 425.5,168.5 C 425.5,168.833 425.5,169.167 425.5,169.5C 423.302,171.098 420.969,172.431 418.5,173.5C 420.296,171.1 422.63,169.433 425.5,168.5 Z"/></g>
<g><path style="opacity:1" fill="#a4c175" d="M 399.5,168.5 C 398.089,170.914 396.089,172.581 393.5,173.5C 394.911,171.086 396.911,169.419 399.5,168.5 Z"/></g>
<g><path style="opacity:1" fill="#8aae80" d="M 217.5,171.5 C 219.966,172.298 221.966,173.631 223.5,175.5C 220.802,175.155 218.802,173.822 217.5,171.5 Z"/></g>
<g><path style="opacity:1" fill="#dbdd48" d="M 214.5,169.5 C 220.033,170.532 224.866,172.865 229,176.5C 230.473,176.097 231.806,175.43 233,174.5C 233.507,175.996 233.007,177.163 231.5,178C 233.192,179.307 234.525,180.807 235.5,182.5C 230.981,180.964 226.981,178.631 223.5,175.5C 221.966,173.631 219.966,172.298 217.5,171.5C 215.973,171.573 214.973,170.906 214.5,169.5 Z"/></g>
<g><path style="opacity:1" fill="#7ca786" d="M 311.5,161.5 C 312.972,165.919 313.638,170.586 313.5,175.5C 313.167,175.5 312.833,175.5 312.5,175.5C 312.002,170.848 311.669,166.181 311.5,161.5 Z"/></g>
<g><path style="opacity:1" fill="#6695a4" d="M 418.5,173.5 C 416.408,177.547 413.075,179.547 408.5,179.5C 411.242,176.579 414.575,174.579 418.5,173.5 Z"/></g>
<g><path style="opacity:1" fill="#75a18c" d="M 251.5,178.5 C 253.404,178.738 254.738,179.738 255.5,181.5C 253.596,181.262 252.262,180.262 251.5,178.5 Z"/></g>
<g><path style="opacity:1" fill="#689795" d="M 255.5,182.5 C 255.5,182.167 255.5,181.833 255.5,181.5C 257.749,182.08 259.415,183.413 260.5,185.5C 258.589,184.925 256.922,183.925 255.5,182.5 Z"/></g>
<g><path style="opacity:1" fill="#4f88a0" d="M 312.5,175.5 C 312.833,175.5 313.167,175.5 313.5,175.5C 313.194,178.385 313.527,181.052 314.5,183.5C 314.5,183.833 314.5,184.167 314.5,184.5C 314.5,186.5 314.5,188.5 314.5,190.5C 312.969,185.75 312.302,180.75 312.5,175.5 Z"/></g>
<g><path style="opacity:1" fill="#7ca483" d="M 326.5,168.5 C 326.203,178.384 325.203,188.051 323.5,197.5C 323.797,187.616 324.797,177.949 326.5,168.5 Z"/></g>
<g><path style="opacity:1" fill="#6b9995" d="M 399.5,185.5 C 398.652,187.093 397.319,188.26 395.5,189C 394.552,189.483 393.552,189.649 392.5,189.5C 394.336,187.412 396.669,186.079 399.5,185.5 Z"/></g>
<g><path style="opacity:1" fill="#6f9c97" d="M 260.5,185.5 C 263.427,186.757 265.761,188.757 267.5,191.5C 264.573,190.243 262.239,188.243 260.5,185.5 Z"/></g>
<g><path style="opacity:1" fill="#81ac85" d="M 244.5,188.5 C 246.027,188.427 247.027,189.094 247.5,190.5C 245.973,190.573 244.973,189.906 244.5,188.5 Z"/></g>
<g><path style="opacity:1" fill="#9bba7d" d="M 383.5,181.5 C 379.722,186.617 375.055,190.617 369.5,193.5C 373.867,189.132 378.533,185.132 383.5,181.5 Z"/></g>
<g><path style="opacity:1" fill="#cbd960" d="M 314.5,184.5 C 316.318,192.591 317.318,200.924 317.5,209.5C 316.016,203.243 315.016,196.91 314.5,190.5C 314.5,188.5 314.5,186.5 314.5,184.5 Z"/></g>
<g><path style="opacity:1" fill="#87ab7e" d="M 392.5,189.5 C 390.853,191.326 388.853,192.66 386.5,193.5C 387.802,191.178 389.802,189.845 392.5,189.5 Z"/></g>
<g><path style="opacity:1" fill="#ece532" d="M 255.5,182.5 C 256.922,183.925 258.589,184.925 260.5,185.5C 262.239,188.243 264.573,190.243 267.5,191.5C 269.227,193.567 271.227,195.233 273.5,196.5C 276.871,199.871 280.537,202.871 284.5,205.5C 288.122,209.308 292.122,212.641 296.5,215.5C 297.5,217.167 298.833,218.5 300.5,219.5C 300.53,220.497 300.03,221.164 299,221.5C 297.594,220.586 296.094,219.92 294.5,219.5C 291.996,218.416 289.663,217.083 287.5,215.5C 286.147,213.262 284.147,211.929 281.5,211.5C 276.236,208.895 271.236,205.895 266.5,202.5C 266.027,201.094 265.027,200.427 263.5,200.5C 263.027,199.094 262.027,198.427 260.5,198.5C 260.027,197.094 259.027,196.427 257.5,196.5C 254.026,194.682 250.693,192.682 247.5,190.5C 247.027,189.094 246.027,188.427 244.5,188.5C 243.167,187.833 242.167,186.833 241.5,185.5C 243.156,186.146 244.823,186.813 246.5,187.5C 247.442,187.392 248.275,187.059 249,186.5C 249.904,191.461 252.237,192.461 256,189.5C 257.584,190.861 259.418,191.528 261.5,191.5C 261.5,190.5 261.5,189.5 261.5,188.5C 260.127,188.657 258.793,188.49 257.5,188C 257.908,185.139 257.075,184.972 255,187.5C 255.019,185.893 255.185,184.226 255.5,182.5 Z"/></g>
<g><path style="opacity:1" fill="#6592a5" d="M 267.5,191.5 C 270.427,192.097 272.427,193.764 273.5,196.5C 271.227,195.233 269.227,193.567 267.5,191.5 Z"/></g>
<g><path style="opacity:1" fill="#8eb17f" d="M 257.5,196.5 C 259.027,196.427 260.027,197.094 260.5,198.5C 258.973,198.573 257.973,197.906 257.5,196.5 Z"/></g>
<g><path style="opacity:1" fill="#558cbc" d="M 273.5,196.5 C 275.713,197.605 277.88,197.605 280,196.5C 280,197.833 280,199.167 280,200.5C 281.707,202.037 283.207,203.704 284.5,205.5C 280.537,202.871 276.871,199.871 273.5,196.5 Z"/></g>
<g><path style="opacity:1" fill="#558db3" d="M 386.5,193.5 C 385.969,195.624 384.635,197.124 382.5,198C 381.207,198.49 379.873,198.657 378.5,198.5C 380.897,196.47 383.563,194.803 386.5,193.5 Z"/></g>
<g><path style="opacity:1" fill="#85aa85" d="M 260.5,198.5 C 262.027,198.427 263.027,199.094 263.5,200.5C 261.973,200.573 260.973,199.906 260.5,198.5 Z"/></g>
<g><path style="opacity:1" fill="#9dba77" d="M 369.5,193.5 C 366.426,197.904 362.426,201.237 357.5,203.5C 360.585,200.75 363.585,197.75 366.5,194.5C 367.417,193.873 368.417,193.539 369.5,193.5 Z"/></g>
<g><path style="opacity:1" fill="#7eaa85" d="M 263.5,200.5 C 265.027,200.427 266.027,201.094 266.5,202.5C 264.973,202.573 263.973,201.906 263.5,200.5 Z"/></g>
<g><path style="opacity:1" fill="#6393a8" d="M 378.5,198.5 C 376.632,202.009 373.632,204.009 369.5,204.5C 371.951,201.723 374.951,199.723 378.5,198.5 Z"/></g>
<g><path style="opacity:1" fill="#8aaf81" d="M 357.5,203.5 C 356.109,205.89 354.109,207.557 351.5,208.5C 352.865,206.14 354.865,204.473 357.5,203.5 Z"/></g>
<g><path style="opacity:1" fill="#5f94a3" d="M 369.5,204.5 C 367.954,206.931 365.621,208.264 362.5,208.5C 364.336,206.412 366.669,205.079 369.5,204.5 Z"/></g>
<g><path style="opacity:1" fill="#568cb7" d="M 284.5,205.5 C 286.558,206.933 288.892,207.6 291.5,207.5C 291.351,208.552 291.517,209.552 292,210.5C 293.707,212.037 295.207,213.704 296.5,215.5C 292.122,212.641 288.122,209.308 284.5,205.5 Z"/></g>
<g><path style="opacity:1" fill="#68989b" d="M -0.5,210.5 C 5.71183,210.523 11.7118,211.19 17.5,212.5C 14.8333,212.5 12.1667,212.5 9.5,212.5C 6.16667,212.5 2.83333,212.5 -0.5,212.5C -0.5,211.833 -0.5,211.167 -0.5,210.5 Z"/></g>
<g><path style="opacity:1" fill="#7aa48c" d="M 362.5,208.5 C 359.861,210.576 357.194,212.742 354.5,215C 353.552,215.483 352.552,215.649 351.5,215.5C 354.379,211.959 358.046,209.626 362.5,208.5 Z"/></g>
<g><path style="opacity:1" fill="#5d93a0" d="M 639.5,210.5 C 639.5,210.833 639.5,211.167 639.5,211.5C 632.841,211.954 626.174,212.287 619.5,212.5C 625.928,210.874 632.595,210.207 639.5,210.5 Z"/></g>
<g><path style="opacity:1" fill="#7fa67f" d="M 9.5,212.5 C 12.1667,212.5 14.8333,212.5 17.5,212.5C 21.5,212.5 25.5,212.5 29.5,212.5C 32.1667,213.167 34.8333,213.833 37.5,214.5C 27.9938,214.143 18.6605,213.476 9.5,212.5 Z"/></g>
<g><path style="opacity:1" fill="#98b97e" d="M 281.5,211.5 C 284.147,211.929 286.147,213.262 287.5,215.5C 285.034,214.702 283.034,213.369 281.5,211.5 Z"/></g>
<g><path style="opacity:1" fill="#77a393" d="M 323.5,201.5 C 323.802,205.79 323.136,209.79 321.5,213.5C 321.198,209.21 321.864,205.21 323.5,201.5 Z"/></g>
<g><path style="opacity:1" fill="#b8cc69" d="M 639.5,211.5 C 639.5,212.167 639.5,212.833 639.5,213.5C 628.833,213.5 618.167,213.5 607.5,213.5C 611.298,212.517 615.298,212.183 619.5,212.5C 626.174,212.287 632.841,211.954 639.5,211.5 Z"/></g>
<g><path style="opacity:1" fill="#3b86cd" d="M 29.5,212.5 C 40.1636,212.984 50.8303,213.484 61.5,214C 63.7078,214.191 65.7078,214.691 67.5,215.5C 58.8513,214.797 50.1846,214.464 41.5,214.5C 40.1667,214.5 38.8333,214.5 37.5,214.5C 34.8333,213.833 32.1667,213.167 29.5,212.5 Z"/></g>
<g><path style="opacity:1" fill="#fdea08" d="M -0.5,212.5 C 2.83333,212.5 6.16667,212.5 9.5,212.5C 18.6605,213.476 27.9938,214.143 37.5,214.5C 38.8333,214.5 40.1667,214.5 41.5,214.5C 49.2909,215.921 57.2909,216.587 65.5,216.5C 71.5843,218.177 77.9176,218.844 84.5,218.5C 86.8333,218.5 89.1667,218.5 91.5,218.5C 92.6085,219.29 93.9419,219.79 95.5,220C 100.823,220.499 106.156,220.666 111.5,220.5C 114.372,221.325 117.372,222.159 120.5,223C 138.311,223.479 155.977,224.313 173.5,225.5C 174.263,226.268 175.263,226.768 176.5,227C 186.828,227.5 197.161,227.666 207.5,227.5C 213.979,228.491 220.646,228.824 227.5,228.5C 227.918,229.222 228.584,229.722 229.5,230C 248.178,231.344 266.844,232.51 285.5,233.5C 287.5,233.5 289.5,233.5 291.5,233.5C 293.292,234.309 295.292,234.809 297.5,235C 293.427,236.029 289.427,236.862 285.5,237.5C 278.471,237.377 271.471,237.71 264.5,238.5C 252.829,238.333 241.162,238.5 229.5,239C 227.167,240.043 224.834,240.876 222.5,241.5C 217.305,241.179 212.305,241.513 207.5,242.5C 190.218,242.253 173.218,243.586 156.5,246.5C 153.5,246.5 150.5,246.5 147.5,246.5C 130.146,247.168 112.813,248.168 95.5,249.5C 85.4422,248.86 75.7755,249.527 66.5,251.5C 66.1667,251.5 65.8333,251.5 65.5,251.5C 56.7663,250.865 48.4329,251.532 40.5,253.5C 38.5,253.833 36.5,254.167 34.5,254.5C 22.8296,254.728 11.163,255.062 -0.5,255.5C -0.5,241.167 -0.5,226.833 -0.5,212.5 Z"/></g>
<g><path style="opacity:1" fill="#6d9b8c" d="M 41.5,214.5 C 50.1846,214.464 58.8513,214.797 67.5,215.5C 69.099,215.232 70.4324,215.566 71.5,216.5C 69.5,216.5 67.5,216.5 65.5,216.5C 57.2909,216.587 49.2909,215.921 41.5,214.5 Z"/></g>
<g><path style="opacity:1" fill="#3a85d3" d="M 120.5,219.5 C 117.5,219.5 114.5,219.5 111.5,219.5C 106.13,219.608 100.797,219.275 95.5,218.5C 92.1667,217.833 88.8333,217.167 85.5,216.5C 94.4863,215.659 103.486,215.159 112.5,215C 112.833,215.333 113.167,215.667 113.5,216C 109.833,216.333 106.167,216.667 102.5,217C 102.833,217.333 103.167,217.667 103.5,218C 109.348,218.173 115.015,218.673 120.5,219.5 Z"/></g>
<g><path style="opacity:1" fill="#dfe246" d="M 349.5,210.5 C 348.972,211.721 348.305,212.887 347.5,214C 348.044,214.717 348.711,215.217 349.5,215.5C 347.861,216.473 346.527,217.806 345.5,219.5C 342.802,219.845 340.802,221.178 339.5,223.5C 337.255,224.096 335.255,225.096 333.5,226.5C 332.761,226.631 332.094,226.464 331.5,226C 332.381,225.292 333.047,224.458 333.5,223.5C 335.607,221.273 337.94,219.273 340.5,217.5C 343.089,216.581 345.089,214.914 346.5,212.5C 346.973,211.094 347.973,210.427 349.5,210.5 Z"/></g>
<g><path style="opacity:1" fill="#fce90d" d="M 607.5,213.5 C 618.167,213.5 628.833,213.5 639.5,213.5C 639.5,227.833 639.5,242.167 639.5,256.5C 630.098,256.662 620.765,255.996 611.5,254.5C 588.09,251.307 564.423,249.64 540.5,249.5C 532.495,249.269 524.495,248.935 516.5,248.5C 516.167,248.5 515.833,248.5 515.5,248.5C 507.35,247.399 499.017,246.732 490.5,246.5C 488.5,246.5 486.5,246.5 484.5,246.5C 483.5,246.5 482.5,246.5 481.5,246.5C 472.717,244.903 463.717,244.236 454.5,244.5C 452.167,244.5 449.833,244.5 447.5,244.5C 444.512,242.86 441.179,242.026 437.5,242C 431.843,241.501 426.176,241.334 420.5,241.5C 418.833,241.5 417.167,241.5 415.5,241.5C 415.082,240.778 414.416,240.278 413.5,240C 409.833,239.667 406.167,239.333 402.5,239C 381.805,238.58 361.138,237.747 340.5,236.5C 340.389,235.883 340.056,235.383 339.5,235C 341.058,234.79 342.391,234.29 343.5,233.5C 346.167,233.5 348.833,233.5 351.5,233.5C 365.54,233.396 379.54,232.563 393.5,231C 397.699,230.472 401.699,229.639 405.5,228.5C 411.5,228.5 417.5,228.5 423.5,228.5C 430.332,228.049 436.998,227.383 443.5,226.5C 450.386,226.603 457.053,225.936 463.5,224.5C 469.775,223.582 476.108,223.249 482.5,223.5C 491.343,223.179 500.009,222.512 508.5,221.5C 509.5,221.5 510.5,221.5 511.5,221.5C 519.35,221.251 527.017,220.584 534.5,219.5C 534.833,219.5 535.167,219.5 535.5,219.5C 556.772,219.272 577.772,217.605 598.5,214.5C 601.287,213.523 604.287,213.19 607.5,213.5 Z"/></g>
<g><path style="opacity:1" fill="#5d919e" d="M 296.5,215.5 C 298.749,216.08 300.415,217.413 301.5,219.5C 301.167,219.5 300.833,219.5 300.5,219.5C 298.833,218.5 297.5,217.167 296.5,215.5 Z"/></g>
<g><path style="opacity:1" fill="#99b67f" d="M 346.5,212.5 C 345.089,214.914 343.089,216.581 340.5,217.5C 341.911,215.086 343.911,213.419 346.5,212.5 Z"/></g>
<g><path style="opacity:1" fill="#b6c96d" d="M 598.5,214.5 C 577.772,217.605 556.772,219.272 535.5,219.5C 535.5,219.167 535.5,218.833 535.5,218.5C 536.833,218.5 538.167,218.5 539.5,218.5C 548.343,218.179 557.009,217.512 565.5,216.5C 576.391,214.938 587.391,214.272 598.5,214.5 Z"/></g>
<g><path style="opacity:1" fill="#c3d467" d="M 65.5,216.5 C 67.5,216.5 69.5,216.5 71.5,216.5C 72.1667,216.5 72.8333,216.5 73.5,216.5C 77.1667,217.167 80.8333,217.833 84.5,218.5C 77.9176,218.844 71.5843,218.177 65.5,216.5 Z"/></g>
<g><path style="opacity:1" fill="#679486" d="M 73.5,216.5 C 77.5,216.5 81.5,216.5 85.5,216.5C 88.8333,217.167 92.1667,217.833 95.5,218.5C 94.1667,218.5 92.8333,218.5 91.5,218.5C 89.1667,218.5 86.8333,218.5 84.5,218.5C 80.8333,217.833 77.1667,217.167 73.5,216.5 Z"/></g>
<g><path style="opacity:1" fill="#6a9996" d="M 349.5,215.5 C 350.167,215.5 350.833,215.5 351.5,215.5C 349.966,217.369 347.966,218.702 345.5,219.5C 346.527,217.806 347.861,216.473 349.5,215.5 Z"/></g>
<g><path style="opacity:1" fill="#5b8e95" d="M 565.5,216.5 C 557.009,217.512 548.343,218.179 539.5,218.5C 540.609,217.71 541.942,217.21 543.5,217C 550.826,216.5 558.159,216.334 565.5,216.5 Z"/></g>
<g><path style="opacity:1" fill="#cad960" d="M 91.5,218.5 C 92.8333,218.5 94.1667,218.5 95.5,218.5C 100.797,219.275 106.13,219.608 111.5,219.5C 111.5,219.833 111.5,220.167 111.5,220.5C 106.156,220.666 100.823,220.499 95.5,220C 93.9419,219.79 92.6085,219.29 91.5,218.5 Z"/></g>
<g><path style="opacity:1" fill="#4c88ac" d="M 535.5,218.5 C 535.5,218.833 535.5,219.167 535.5,219.5C 535.167,219.5 534.833,219.5 534.5,219.5C 526.589,219.079 518.923,219.745 511.5,221.5C 510.5,221.5 509.5,221.5 508.5,221.5C 499.815,221.464 491.149,221.797 482.5,222.5C 482.611,221.883 482.944,221.383 483.5,221C 500.831,220.015 518.164,219.182 535.5,218.5 Z"/></g>
<g><path style="opacity:1" fill="#94b881" d="M 111.5,220.5 C 111.5,220.167 111.5,219.833 111.5,219.5C 114.5,219.5 117.5,219.5 120.5,219.5C 122.833,220.167 125.167,220.833 127.5,221.5C 122.167,221.167 116.833,220.833 111.5,220.5 Z"/></g>
<g><path style="opacity:1" fill="#679894" d="M 120.5,219.5 C 130.347,220.151 140.013,221.151 149.5,222.5C 142.138,222.635 134.804,222.302 127.5,221.5C 125.167,220.833 122.833,220.167 120.5,219.5 Z"/></g>
<g><path style="opacity:1" fill="#adc974" d="M 534.5,219.5 C 527.017,220.584 519.35,221.251 511.5,221.5C 518.923,219.745 526.589,219.079 534.5,219.5 Z"/></g>
<g><path style="opacity:1" fill="#b8cd6f" d="M 294.5,219.5 C 296.094,219.92 297.594,220.586 299,221.5C 300.03,221.164 300.53,220.497 300.5,219.5C 300.833,219.5 301.167,219.5 301.5,219.5C 304.871,222.871 308.537,225.871 312.5,228.5C 312.179,230.048 311.179,230.715 309.5,230.5C 304.675,226.588 299.675,222.922 294.5,219.5 Z"/></g>
<g><path style="opacity:1" fill="#6192a4" d="M 345.5,219.5 C 343.966,221.369 341.966,222.702 339.5,223.5C 340.802,221.178 342.802,219.845 345.5,219.5 Z"/></g>
<g><path style="opacity:1" fill="#e4e33f" d="M 111.5,220.5 C 116.833,220.833 122.167,221.167 127.5,221.5C 134.804,222.302 142.138,222.635 149.5,222.5C 150.5,222.5 151.5,222.5 152.5,222.5C 159.52,223.335 166.52,224.335 173.5,225.5C 155.977,224.313 138.311,223.479 120.5,223C 117.372,222.159 114.372,221.325 111.5,220.5 Z"/></g>
<g><path style="opacity:1" fill="#bfd26a" d="M 317.5,210.5 C 318.166,214.021 318.833,217.687 319.5,221.5C 320.17,219.709 320.837,218.042 321.5,216.5C 321.5,219.167 321.5,221.833 321.5,224.5C 320.542,224.953 319.708,225.619 319,226.5C 317.729,221.246 317.229,215.913 317.5,210.5 Z"/></g>
<g><path style="opacity:1" fill="#a4be71" d="M 508.5,221.5 C 500.009,222.512 491.343,223.179 482.5,223.5C 482.5,223.167 482.5,222.833 482.5,222.5C 491.149,221.797 499.815,221.464 508.5,221.5 Z"/></g>
<g><path style="opacity:1" fill="#6b9997" d="M 152.5,222.5 C 162.509,222.612 172.509,222.945 182.5,223.5C 184.5,224.167 186.5,224.833 188.5,225.5C 183.5,225.5 178.5,225.5 173.5,225.5C 166.52,224.335 159.52,223.335 152.5,222.5 Z"/></g>
<g><path style="opacity:1" fill="#4d8bb8" d="M 482.5,222.5 C 482.5,222.833 482.5,223.167 482.5,223.5C 476.108,223.249 469.775,223.582 463.5,224.5C 457.491,224.334 451.491,224.501 445.5,225C 444.584,225.278 443.918,225.778 443.5,226.5C 438.156,226.334 432.823,226.501 427.5,227C 425.942,227.21 424.609,227.71 423.5,228.5C 417.5,228.5 411.5,228.5 405.5,228.5C 404.833,228.5 404.167,228.5 403.5,228.5C 403.611,227.883 403.944,227.383 404.5,227C 430.452,224.965 456.452,223.465 482.5,222.5 Z"/></g>
<g><path style="opacity:1" fill="#93b377" d="M 463.5,224.5 C 457.053,225.936 450.386,226.603 443.5,226.5C 443.918,225.778 444.584,225.278 445.5,225C 451.491,224.501 457.491,224.334 463.5,224.5 Z"/></g>
<g><path style="opacity:1" fill="#6e9d9d" d="M 188.5,225.5 C 200.852,225.509 213.185,226.009 225.5,227C 227.382,227.198 229.048,227.698 230.5,228.5C 229.5,228.5 228.5,228.5 227.5,228.5C 220.646,228.824 213.979,228.491 207.5,227.5C 201.167,226.833 194.833,226.167 188.5,225.5 Z"/></g>
<g><path style="opacity:1" fill="#3684d6" d="M 182.5,223.5 C 199.041,223.918 215.541,224.918 232,226.5C 233.376,226.684 234.209,227.351 234.5,228.5C 233.5,228.5 232.5,228.5 231.5,228.5C 231.167,228.5 230.833,228.5 230.5,228.5C 229.048,227.698 227.382,227.198 225.5,227C 213.185,226.009 200.852,225.509 188.5,225.5C 186.5,224.833 184.5,224.167 182.5,223.5 Z"/></g>
<g><path style="opacity:1" fill="#e0e246" d="M 173.5,225.5 C 178.5,225.5 183.5,225.5 188.5,225.5C 194.833,226.167 201.167,226.833 207.5,227.5C 197.161,227.666 186.828,227.5 176.5,227C 175.263,226.768 174.263,226.268 173.5,225.5 Z"/></g>
<g><path style="opacity:1" fill="#c7d764" d="M 443.5,226.5 C 436.998,227.383 430.332,228.049 423.5,228.5C 424.609,227.71 425.942,227.21 427.5,227C 432.823,226.501 438.156,226.334 443.5,226.5 Z"/></g>
<g><path style="opacity:1" fill="#ccd85b" d="M 227.5,228.5 C 228.5,228.5 229.5,228.5 230.5,228.5C 230.833,228.5 231.167,228.5 231.5,228.5C 238.317,229.565 245.317,230.232 252.5,230.5C 263.516,230.926 274.516,231.592 285.5,232.5C 285.5,232.833 285.5,233.167 285.5,233.5C 266.844,232.51 248.178,231.344 229.5,230C 228.584,229.722 227.918,229.222 227.5,228.5 Z"/></g>
<g><path style="opacity:1" fill="#7ea380" d="M 231.5,228.5 C 232.5,228.5 233.5,228.5 234.5,228.5C 240.545,228.303 246.545,228.637 252.5,229.5C 252.5,229.833 252.5,230.167 252.5,230.5C 245.317,230.232 238.317,229.565 231.5,228.5 Z"/></g>
<g><path style="opacity:1" fill="#4685b8" d="M 252.5,230.5 C 252.5,230.167 252.5,229.833 252.5,229.5C 266.751,229.058 280.751,230.058 294.5,232.5C 291.5,232.5 288.5,232.5 285.5,232.5C 274.516,231.592 263.516,230.926 252.5,230.5 Z"/></g>
<g><path style="opacity:1" fill="#9bc38f" d="M 333.5,223.5 C 333.047,224.458 332.381,225.292 331.5,226C 332.094,226.464 332.761,226.631 333.5,226.5C 331.833,227.833 330.167,229.167 328.5,230.5C 327.167,230.5 326.5,229.833 326.5,228.5C 328.55,226.453 330.883,224.786 333.5,223.5 Z"/></g>
<g><path style="opacity:1" fill="#709f97" d="M 397.5,228.5 C 382.201,230.45 366.868,232.117 351.5,233.5C 348.833,233.5 346.167,233.5 343.5,233.5C 340.813,233.336 338.146,233.503 335.5,234C 333.563,234.122 332.23,234.955 331.5,236.5C 324.113,236.314 323.779,235.314 330.5,233.5C 352.776,231.376 375.109,229.71 397.5,228.5 Z"/></g>
<g><path style="opacity:1" fill="#cfdb58" d="M 397.5,228.5 C 399.5,228.5 401.5,228.5 403.5,228.5C 404.167,228.5 404.833,228.5 405.5,228.5C 401.699,229.639 397.699,230.472 393.5,231C 379.54,232.563 365.54,233.396 351.5,233.5C 366.868,232.117 382.201,230.45 397.5,228.5 Z"/></g>
<g><path style="opacity:1" fill="#5d91ad" d="M 314.5,190.5 C 315.016,196.91 316.016,203.243 317.5,209.5C 317.5,209.833 317.5,210.167 317.5,210.5C 317.229,215.913 317.729,221.246 319,226.5C 319.708,225.619 320.542,224.953 321.5,224.5C 321.5,226.5 321.5,228.5 321.5,230.5C 323.514,230.608 325.18,229.942 326.5,228.5C 326.5,229.833 327.167,230.5 328.5,230.5C 325.96,232.666 326.627,233.666 330.5,233.5C 323.779,235.314 324.113,236.314 331.5,236.5C 334.5,236.5 337.5,236.5 340.5,236.5C 349.545,237.069 358.545,238.069 367.5,239.5C 355.668,238.886 343.835,238.219 332,237.5C 329.071,237.525 326.571,238.191 324.5,239.5C 322.832,238.156 321.165,236.823 319.5,235.5C 317.577,236.092 315.911,237.092 314.5,238.5C 305.025,238.27 295.358,238.27 285.5,238.5C 285.5,238.167 285.5,237.833 285.5,237.5C 292.174,237.287 298.841,236.954 305.5,236.5C 307.924,236.808 310.257,236.474 312.5,235.5C 308.607,234.185 304.607,233.518 300.5,233.5C 297.5,233.5 294.5,233.5 291.5,233.5C 289.5,233.5 287.5,233.5 285.5,233.5C 285.5,233.167 285.5,232.833 285.5,232.5C 288.5,232.5 291.5,232.5 294.5,232.5C 299.717,232.242 304.884,232.575 310,233.5C 310.5,233.167 311,232.833 311.5,232.5C 310.757,231.818 310.091,231.151 309.5,230.5C 311.179,230.715 312.179,230.048 312.5,228.5C 313.708,229.234 315.041,229.567 316.5,229.5C 315.076,216.601 314.409,203.601 314.5,190.5 Z"/></g>
<g><path style="opacity:1" fill="#c5d76b" d="M 291.5,233.5 C 294.5,233.5 297.5,233.5 300.5,233.5C 302.531,233.972 304.198,234.972 305.5,236.5C 298.841,236.954 292.174,237.287 285.5,237.5C 289.427,236.862 293.427,236.029 297.5,235C 295.292,234.809 293.292,234.309 291.5,233.5 Z"/></g>
<g><path style="opacity:1" fill="#97be9b" d="M 300.5,233.5 C 304.607,233.518 308.607,234.185 312.5,235.5C 310.257,236.474 307.924,236.808 305.5,236.5C 304.198,234.972 302.531,233.972 300.5,233.5 Z"/></g>
<g><path style="opacity:1" fill="#c0d773" d="M 343.5,233.5 C 342.391,234.29 341.058,234.79 339.5,235C 340.056,235.383 340.389,235.883 340.5,236.5C 337.5,236.5 334.5,236.5 331.5,236.5C 332.23,234.955 333.563,234.122 335.5,234C 338.146,233.503 340.813,233.336 343.5,233.5 Z"/></g>
<g><path style="opacity:1" fill="#dee348" d="M 264.5,238.5 C 264.5,238.833 264.5,239.167 264.5,239.5C 262.833,239.5 261.167,239.5 259.5,239.5C 252.776,239.244 246.109,239.577 239.5,240.5C 233.828,240.76 228.161,241.093 222.5,241.5C 224.834,240.876 227.167,240.043 229.5,239C 241.162,238.5 252.829,238.333 264.5,238.5 Z"/></g>
<g><path style="opacity:1" fill="#82ab82" d="M 285.5,237.5 C 285.5,237.833 285.5,238.167 285.5,238.5C 284.5,238.5 283.5,238.5 282.5,238.5C 276.5,238.833 270.5,239.167 264.5,239.5C 264.5,239.167 264.5,238.833 264.5,238.5C 271.471,237.71 278.471,237.377 285.5,237.5 Z"/></g>
<g><path style="opacity:1" fill="#d0da57" d="M 340.5,236.5 C 361.138,237.747 381.805,238.58 402.5,239C 406.167,239.333 409.833,239.667 413.5,240C 414.416,240.278 415.082,240.778 415.5,241.5C 408.167,241.167 400.833,240.833 393.5,240.5C 384.845,239.917 376.178,239.584 367.5,239.5C 358.545,238.069 349.545,237.069 340.5,236.5 Z"/></g>
<g><path style="opacity:1" fill="#3c85c5" d="M 282.5,238.5 C 281.737,239.268 280.737,239.768 279.5,240C 272.842,240.5 266.175,240.666 259.5,240.5C 259.5,240.167 259.5,239.833 259.5,239.5C 261.167,239.5 262.833,239.5 264.5,239.5C 270.5,239.167 276.5,238.833 282.5,238.5 Z"/></g>
<g><path style="opacity:1" fill="#5b8f9f" d="M 259.5,239.5 C 259.5,239.833 259.5,240.167 259.5,240.5C 250.194,241.45 240.861,242.117 231.5,242.5C 234.167,241.833 236.833,241.167 239.5,240.5C 246.109,239.577 252.776,239.244 259.5,239.5 Z"/></g>
<g><path style="opacity:1" fill="#2f84ee" d="M 314.5,238.5 C 313.71,239.401 312.71,240.068 311.5,240.5C 309.5,240.5 307.5,240.5 305.5,240.5C 305.5,241.833 305.5,243.167 305.5,244.5C 302.927,245.493 300.26,246.326 297.5,247C 298.711,247.893 298.711,248.726 297.5,249.5C 296.808,248.975 296.308,248.308 296,247.5C 295.751,248.624 295.251,249.624 294.5,250.5C 293.232,249.572 291.899,249.405 290.5,250C 292.426,250.422 293.426,251.589 293.5,253.5C 291.861,254.473 290.527,255.806 289.5,257.5C 286.545,259.122 283.878,261.122 281.5,263.5C 278.109,264.529 275.443,266.529 273.5,269.5C 270.604,270.398 268.271,272.065 266.5,274.5C 263.63,275.433 261.296,277.1 259.5,279.5C 256.437,281.025 253.77,283.025 251.5,285.5C 247.567,286.781 244.567,289.114 242.5,292.5C 240.973,292.427 239.973,293.094 239.5,294.5C 237.147,295.34 235.147,296.674 233.5,298.5C 226.874,302.796 220.541,307.463 214.5,312.5C 210.638,314.928 206.971,317.595 203.5,320.5C 200.63,321.433 198.296,323.1 196.5,325.5C 193.228,326.782 190.562,328.782 188.5,331.5C 186.589,332.075 184.922,333.075 183.5,334.5C 180.891,335.443 178.891,337.11 177.5,339.5C 176.508,339.328 175.842,339.662 175.5,340.5C 172.208,342.458 169.208,344.791 166.5,347.5C 163.63,348.433 161.296,350.1 159.5,352.5C 155.264,354.445 151.597,357.112 148.5,360.5C 143.812,363.069 139.479,366.069 135.5,369.5C 132.891,370.443 130.891,372.11 129.5,374.5C 126.75,375.631 124.417,377.297 122.5,379.5C 119.467,381.016 116.8,383.016 114.5,385.5C 113.29,385.932 112.29,386.599 111.5,387.5C 108.437,389.025 105.77,391.025 103.5,393.5C 100.489,394.669 97.822,396.336 95.5,398.5C 92.1667,401.167 88.8333,403.833 85.5,406.5C 83.0337,407.298 81.0337,408.631 79.5,410.5C 76.9108,411.419 74.9108,413.086 73.5,415.5C 68.9841,418.256 64.6507,421.256 60.5,424.5C 55.548,427.13 51.2146,430.463 47.5,434.5C 46.8333,434.833 46.1667,435.167 45.5,435.5C 43.2512,436.08 41.5846,437.413 40.5,439.5C 37.6298,440.433 35.2964,442.1 33.5,444.5C 32.5084,444.328 31.8417,444.662 31.5,445.5C 29.2512,446.08 27.5846,447.413 26.5,449.5C 22.395,451.446 18.7283,454.112 15.5,457.5C 10.9289,459.738 6.92895,462.738 3.5,466.5C 2.71304,468.104 1.3797,468.771 -0.5,468.5C -0.5,397.833 -0.5,327.167 -0.5,256.5C 11.168,256.204 22.8346,255.87 34.5,255.5C 53.4872,253.929 72.4872,252.596 91.5,251.5C 103.036,251.691 114.369,251.025 125.5,249.5C 132.885,248.913 140.218,247.913 147.5,246.5C 150.5,246.5 153.5,246.5 156.5,246.5C 160.167,246.5 163.833,246.5 167.5,246.5C 181.015,245.934 194.349,244.934 207.5,243.5C 215.483,242.834 223.483,242.501 231.5,242.5C 240.861,242.117 250.194,241.45 259.5,240.5C 266.175,240.666 272.842,240.5 279.5,240C 280.737,239.768 281.737,239.268 282.5,238.5C 283.5,238.5 284.5,238.5 285.5,238.5C 295.358,238.27 305.025,238.27 314.5,238.5 Z"/></g>
<g><path style="opacity:1" fill="#5d77cb" d="M 311.5,240.5 C 310.375,242.129 309.041,243.629 307.5,245C 303.106,246.582 299.439,249.082 296.5,252.5C 295.391,252.557 294.391,252.89 293.5,253.5C 293.426,251.589 292.426,250.422 290.5,250C 291.899,249.405 293.232,249.572 294.5,250.5C 295.251,249.624 295.751,248.624 296,247.5C 296.308,248.308 296.808,248.975 297.5,249.5C 298.711,248.726 298.711,247.893 297.5,247C 300.26,246.326 302.927,245.493 305.5,244.5C 305.5,243.167 305.5,241.833 305.5,240.5C 307.5,240.5 309.5,240.5 311.5,240.5 Z"/></g>
<g><path style="opacity:1" fill="#7ba488" d="M 239.5,240.5 C 236.833,241.167 234.167,241.833 231.5,242.5C 223.483,242.501 215.483,242.834 207.5,243.5C 207.5,243.167 207.5,242.833 207.5,242.5C 212.305,241.513 217.305,241.179 222.5,241.5C 228.161,241.093 233.828,240.76 239.5,240.5 Z"/></g>
<g><path style="opacity:1" fill="#659696" d="M 393.5,240.5 C 400.833,240.833 408.167,241.167 415.5,241.5C 417.167,241.5 418.833,241.5 420.5,241.5C 423.167,242.167 425.833,242.833 428.5,243.5C 416.614,243.261 404.947,242.261 393.5,240.5 Z"/></g>
<g><path style="opacity:1" fill="#b6ca61" d="M 207.5,242.5 C 207.5,242.833 207.5,243.167 207.5,243.5C 193.921,243.271 180.587,244.271 167.5,246.5C 163.833,246.5 160.167,246.5 156.5,246.5C 173.218,243.586 190.218,242.253 207.5,242.5 Z"/></g>
<g><path style="opacity:1" fill="#fe2712" d="M 324.5,239.5 C 329.284,243.949 334.618,247.615 340.5,250.5C 345.1,255.135 350.1,259.302 355.5,263C 361.713,267.385 368.046,271.551 374.5,275.5C 375.585,277.587 377.251,278.92 379.5,279.5C 383.547,282.874 387.88,285.874 392.5,288.5C 394.023,291.364 396.357,293.031 399.5,293.5C 400.167,294.167 400.833,294.833 401.5,295.5C 408.216,300.881 415.216,305.881 422.5,310.5C 428.157,315.272 434.157,319.606 440.5,323.5C 441.585,325.587 443.251,326.92 445.5,327.5C 456.402,336.298 467.735,344.631 479.5,352.5C 481.502,354.482 483.835,356.148 486.5,357.5C 488.223,359.218 490.223,360.551 492.5,361.5C 495.601,364.933 499.268,367.6 503.5,369.5C 503.833,369.5 504.167,369.5 504.5,369.5C 505.028,370.721 505.695,371.887 506.5,373C 510.402,375.751 514.402,378.251 518.5,380.5C 519.262,382.262 520.596,383.262 522.5,383.5C 523.585,385.587 525.251,386.92 527.5,387.5C 531.34,391.25 535.673,394.25 540.5,396.5C 543.601,399.933 547.268,402.6 551.5,404.5C 565.053,415.76 579.053,426.093 593.5,435.5C 598.018,439.011 602.685,442.345 607.5,445.5C 612.437,449.975 617.77,453.975 623.5,457.5C 624.492,457.328 625.158,457.662 625.5,458.5C 626.585,460.587 628.251,461.92 630.5,462.5C 632.975,465.241 635.975,467.241 639.5,468.5C 639.5,472.167 639.5,475.833 639.5,479.5C 426.167,479.5 212.833,479.5 -0.5,479.5C -0.5,475.833 -0.5,472.167 -0.5,468.5C 1.3797,468.771 2.71304,468.104 3.5,466.5C 4.4959,466.586 5.32924,466.252 6,465.5C 6.33333,466.167 6.66667,466.833 7,467.5C 8.5,465.333 10,463.167 11.5,461C 12.7932,460.51 14.1266,460.343 15.5,460.5C 15.5,459.5 15.5,458.5 15.5,457.5C 18.7283,454.112 22.395,451.446 26.5,449.5C 28.7488,448.92 30.4154,447.587 31.5,445.5C 31.8417,444.662 32.5084,444.328 33.5,444.5C 36.5162,443.727 38.8495,442.061 40.5,439.5C 42.7488,438.92 44.4154,437.587 45.5,435.5C 46.1667,435.167 46.8333,434.833 47.5,434.5C 52.409,431.926 56.7423,428.592 60.5,424.5C 64.6507,421.256 68.9841,418.256 73.5,415.5C 76.0892,414.581 78.0892,412.914 79.5,410.5C 82.1473,410.071 84.1473,408.738 85.5,406.5C 88.8333,403.833 92.1667,401.167 95.5,398.5C 99.435,398.655 102.102,396.988 103.5,393.5C 104.873,393.657 106.207,393.49 107.5,393C 108.721,390.966 110.055,389.133 111.5,387.5C 112.29,386.599 113.29,385.932 114.5,385.5C 116.435,384.85 118.435,384.517 120.5,384.5C 120.392,382.486 121.058,380.82 122.5,379.5C 124.417,377.297 126.75,375.631 129.5,374.5C 132.135,373.527 134.135,371.86 135.5,369.5C 139.479,366.069 143.812,363.069 148.5,360.5C 150.179,360.108 151.846,359.608 153.5,359C 155.728,356.943 157.728,354.776 159.5,352.5C 161.296,350.1 163.63,348.433 166.5,347.5C 167.873,347.657 169.207,347.49 170.5,347C 171.999,344.672 173.666,342.505 175.5,340.5C 175.842,339.662 176.508,339.328 177.5,339.5C 180.135,338.527 182.135,336.86 183.5,334.5C 184.922,333.075 186.589,332.075 188.5,331.5C 192.277,330.948 194.944,328.948 196.5,325.5C 199.37,324.567 201.704,322.9 203.5,320.5C 206.971,317.595 210.638,314.928 214.5,312.5C 218.298,311.688 221.631,310.021 224.5,307.5C 225.167,307.833 225.833,308.167 226.5,308.5C 227.096,307.284 227.263,305.951 227,304.5C 229.492,302.754 231.659,300.754 233.5,298.5C 236.198,298.155 238.198,296.822 239.5,294.5C 239.973,293.094 240.973,292.427 242.5,292.5C 245.81,290.518 248.81,288.185 251.5,285.5C 253.77,283.025 256.437,281.025 259.5,279.5C 262.37,278.567 264.704,276.9 266.5,274.5C 268.271,272.065 270.604,270.398 273.5,269.5C 276.533,267.984 279.2,265.984 281.5,263.5C 283.878,261.122 286.545,259.122 289.5,257.5C 292.37,256.567 294.704,254.9 296.5,252.5C 299.439,249.082 303.106,246.582 307.5,245C 309.041,243.629 310.375,242.129 311.5,240.5C 312.71,240.068 313.71,239.401 314.5,238.5C 315.911,237.092 317.577,236.092 319.5,235.5C 321.165,236.823 322.832,238.156 324.5,239.5 Z"/></g>
<g><path style="opacity:1" fill="#2f84ee" d="M 367.5,239.5 C 376.178,239.584 384.845,239.917 393.5,240.5C 404.947,242.261 416.614,243.261 428.5,243.5C 434.645,244.49 440.978,244.823 447.5,244.5C 449.833,244.5 452.167,244.5 454.5,244.5C 463.278,246.157 472.278,246.824 481.5,246.5C 482.5,246.5 483.5,246.5 484.5,246.5C 484.611,247.117 484.944,247.617 485.5,248C 488.817,248.498 492.15,248.665 495.5,248.5C 498.167,248.5 500.833,248.5 503.5,248.5C 517.226,250.96 531.226,252.127 545.5,252C 547.659,252.912 549.825,253.745 552,254.5C 555.394,253.544 558.894,253.211 562.5,253.5C 565.833,253.5 569.167,253.5 572.5,253.5C 581.33,254.442 590.33,255.108 599.5,255.5C 612.784,256.895 626.118,257.561 639.5,257.5C 639.5,327.833 639.5,398.167 639.5,468.5C 635.975,467.241 632.975,465.241 630.5,462.5C 629.415,460.413 627.749,459.08 625.5,458.5C 625.158,457.662 624.492,457.328 623.5,457.5C 622.583,454.582 620.583,452.582 617.5,451.5C 616.754,450.264 616.421,448.93 616.5,447.5C 613.436,447.072 610.436,446.406 607.5,445.5C 606.069,443.811 605.236,441.811 605,439.5C 604.586,439.957 604.086,440.291 603.5,440.5C 600.387,438.277 597.054,436.61 593.5,435.5C 579.053,426.093 565.053,415.76 551.5,404.5C 551.631,403.761 551.464,403.094 551,402.5C 548.854,401.624 547.021,400.291 545.5,398.5C 545.709,397.914 546.043,397.414 546.5,397C 544.527,396.505 542.527,396.338 540.5,396.5C 535.673,394.25 531.34,391.25 527.5,387.5C 526.415,385.413 524.749,384.08 522.5,383.5C 520.596,383.262 519.262,382.262 518.5,380.5C 517.772,378.265 516.439,376.432 514.5,375C 514.833,374.667 515.167,374.333 515.5,374C 511.814,373.086 510.314,370.919 511,367.5C 509.41,370.391 507.244,371.058 504.5,369.5C 504.167,369.5 503.833,369.5 503.5,369.5C 501.257,367.128 498.923,364.628 496.5,362C 495.207,361.51 493.873,361.343 492.5,361.5C 490.223,360.551 488.223,359.218 486.5,357.5C 485.008,354.677 482.674,353.01 479.5,352.5C 467.735,344.631 456.402,336.298 445.5,327.5C 444.415,325.413 442.749,324.08 440.5,323.5C 434.157,319.606 428.157,315.272 422.5,310.5C 420.919,308.858 420.253,306.858 420.5,304.5C 418.712,304.785 417.045,304.452 415.5,303.5C 415.977,302.522 416.643,301.689 417.5,301C 415.793,300.805 414.126,300.805 412.5,301C 411.181,298.715 409.681,296.548 408,294.5C 407.333,295.167 406.667,295.833 406,296.5C 404.644,295.62 403.144,295.286 401.5,295.5C 400.833,294.833 400.167,294.167 399.5,293.5C 397.45,291.453 395.117,289.786 392.5,288.5C 387.88,285.874 383.547,282.874 379.5,279.5C 378.415,277.413 376.749,276.08 374.5,275.5C 368.046,271.551 361.713,267.385 355.5,263C 350.1,259.302 345.1,255.135 340.5,250.5C 337.71,246.746 334.377,243.58 330.5,241C 328.655,239.872 326.655,239.372 324.5,239.5C 326.571,238.191 329.071,237.525 332,237.5C 343.835,238.219 355.668,238.886 367.5,239.5 Z"/></g>
<g><path style="opacity:1" fill="#acc06b" d="M 420.5,241.5 C 426.176,241.334 431.843,241.501 437.5,242C 441.179,242.026 444.512,242.86 447.5,244.5C 440.978,244.823 434.645,244.49 428.5,243.5C 425.833,242.833 423.167,242.167 420.5,241.5 Z"/></g>
<g><path style="opacity:1" fill="#776cb0" d="M 324.5,239.5 C 326.655,239.372 328.655,239.872 330.5,241C 334.377,243.58 337.71,246.746 340.5,250.5C 334.618,247.615 329.284,243.949 324.5,239.5 Z"/></g>
<g><path style="opacity:1" fill="#90b078" d="M 454.5,244.5 C 463.717,244.236 472.717,244.903 481.5,246.5C 472.278,246.824 463.278,246.157 454.5,244.5 Z"/></g>
<g><path style="opacity:1" fill="#598f9e" d="M 207.5,243.5 C 194.349,244.934 181.015,245.934 167.5,246.5C 180.587,244.271 193.921,243.271 207.5,243.5 Z"/></g>
<g><path style="opacity:1" fill="#4b8bb3" d="M 484.5,246.5 C 486.5,246.5 488.5,246.5 490.5,246.5C 492.167,247.167 493.833,247.833 495.5,248.5C 492.15,248.665 488.817,248.498 485.5,248C 484.944,247.617 484.611,247.117 484.5,246.5 Z"/></g>
<g><path style="opacity:1" fill="#89ae81" d="M 490.5,246.5 C 499.017,246.732 507.35,247.399 515.5,248.5C 511.5,248.5 507.5,248.5 503.5,248.5C 500.833,248.5 498.167,248.5 495.5,248.5C 493.833,247.833 492.167,247.167 490.5,246.5 Z"/></g>
<g><path style="opacity:1" fill="#e0e449" d="M 95.5,249.5 C 95.5,249.833 95.5,250.167 95.5,250.5C 94.1667,250.5 92.8333,250.5 91.5,250.5C 83.1775,251.055 74.8442,251.388 66.5,251.5C 75.7755,249.527 85.4422,248.86 95.5,249.5 Z"/></g>
<g><path style="opacity:1" fill="#89af81" d="M 147.5,246.5 C 140.218,247.913 132.885,248.913 125.5,249.5C 115.488,249.553 105.488,249.887 95.5,250.5C 95.5,250.167 95.5,249.833 95.5,249.5C 112.813,248.168 130.146,247.168 147.5,246.5 Z"/></g>
<g><path style="opacity:1" fill="#719c86" d="M 516.5,248.5 C 524.495,248.935 532.495,249.269 540.5,249.5C 540.5,249.833 540.5,250.167 540.5,250.5C 532.277,250.754 524.277,250.088 516.5,248.5 Z"/></g>
<g><path style="opacity:1" fill="#3f86be" d="M 125.5,249.5 C 114.369,251.025 103.036,251.691 91.5,251.5C 91.5,251.167 91.5,250.833 91.5,250.5C 92.8333,250.5 94.1667,250.5 95.5,250.5C 105.488,249.887 115.488,249.553 125.5,249.5 Z"/></g>
<g><path style="opacity:1" fill="#dfe24a" d="M 65.5,251.5 C 57.3448,252.533 49.0115,253.2 40.5,253.5C 48.4329,251.532 56.7663,250.865 65.5,251.5 Z"/></g>
<g><path style="opacity:1" fill="#659794" d="M 91.5,250.5 C 91.5,250.833 91.5,251.167 91.5,251.5C 72.4872,252.596 53.4872,253.929 34.5,255.5C 34.5,255.167 34.5,254.833 34.5,254.5C 36.5,254.167 38.5,253.833 40.5,253.5C 49.0115,253.2 57.3448,252.533 65.5,251.5C 65.8333,251.5 66.1667,251.5 66.5,251.5C 74.8442,251.388 83.1775,251.055 91.5,250.5 Z"/></g>
<g><path style="opacity:1" fill="#c9d75d" d="M 540.5,250.5 C 540.5,250.167 540.5,249.833 540.5,249.5C 564.423,249.64 588.09,251.307 611.5,254.5C 607.5,254.5 603.5,254.5 599.5,254.5C 593.855,253.866 588.189,253.532 582.5,253.5C 574.019,252.355 565.352,251.689 556.5,251.5C 551.146,251.431 545.813,251.098 540.5,250.5 Z"/></g>
<g><path style="opacity:1" fill="#3b84d0" d="M 503.5,248.5 C 507.5,248.5 511.5,248.5 515.5,248.5C 515.833,248.5 516.167,248.5 516.5,248.5C 524.277,250.088 532.277,250.754 540.5,250.5C 545.813,251.098 551.146,251.431 556.5,251.5C 558.5,252.167 560.5,252.833 562.5,253.5C 558.894,253.211 555.394,253.544 552,254.5C 549.825,253.745 547.659,252.912 545.5,252C 531.226,252.127 517.226,250.96 503.5,248.5 Z"/></g>
<g><path style="opacity:1" fill="#5b8f9c" d="M 556.5,251.5 C 565.352,251.689 574.019,252.355 582.5,253.5C 579.167,253.5 575.833,253.5 572.5,253.5C 569.167,253.5 565.833,253.5 562.5,253.5C 560.5,252.833 558.5,252.167 556.5,251.5 Z"/></g>
<g><path style="opacity:1" fill="#4288c0" d="M 572.5,253.5 C 575.833,253.5 579.167,253.5 582.5,253.5C 588.189,253.532 593.855,253.866 599.5,254.5C 599.5,254.833 599.5,255.167 599.5,255.5C 590.33,255.108 581.33,254.442 572.5,253.5 Z"/></g>
<g><path style="opacity:1" fill="#8aae80" d="M 34.5,254.5 C 34.5,254.833 34.5,255.167 34.5,255.5C 22.8346,255.87 11.168,256.204 -0.5,256.5C -0.5,256.167 -0.5,255.833 -0.5,255.5C 11.163,255.062 22.8296,254.728 34.5,254.5 Z"/></g>
<g><path style="opacity:1" fill="#b1475d" d="M 296.5,252.5 C 294.704,254.9 292.37,256.567 289.5,257.5C 290.527,255.806 291.861,254.473 293.5,253.5C 294.391,252.89 295.391,252.557 296.5,252.5 Z"/></g>
<g><path style="opacity:1" fill="#5f91a0" d="M 599.5,255.5 C 599.5,255.167 599.5,254.833 599.5,254.5C 603.5,254.5 607.5,254.5 611.5,254.5C 620.765,255.996 630.098,256.662 639.5,256.5C 639.5,256.833 639.5,257.167 639.5,257.5C 626.118,257.561 612.784,256.895 599.5,255.5 Z"/></g>
<g><path style="opacity:1" fill="#b54358" d="M 281.5,263.5 C 279.2,265.984 276.533,267.984 273.5,269.5C 275.443,266.529 278.109,264.529 281.5,263.5 Z"/></g>
<g><path style="opacity:1" fill="#b54556" d="M 266.5,274.5 C 264.704,276.9 262.37,278.567 259.5,279.5C 261.296,277.1 263.63,275.433 266.5,274.5 Z"/></g>
<g><path style="opacity:1" fill="#9e5276" d="M 374.5,275.5 C 376.749,276.08 378.415,277.413 379.5,279.5C 377.251,278.92 375.585,277.587 374.5,275.5 Z"/></g>
<g><path style="opacity:1" fill="#b54557" d="M 251.5,285.5 C 248.81,288.185 245.81,290.518 242.5,292.5C 244.567,289.114 247.567,286.781 251.5,285.5 Z"/></g>
<g><path style="opacity:1" fill="#9c537a" d="M 392.5,288.5 C 395.117,289.786 397.45,291.453 399.5,293.5C 396.357,293.031 394.023,291.364 392.5,288.5 Z"/></g>
<g><path style="opacity:1" fill="#c13e4b" d="M 239.5,294.5 C 238.198,296.822 236.198,298.155 233.5,298.5C 235.147,296.674 237.147,295.34 239.5,294.5 Z"/></g>
<g><path style="opacity:1" fill="#6974c4" d="M 422.5,310.5 C 415.216,305.881 408.216,300.881 401.5,295.5C 403.144,295.286 404.644,295.62 406,296.5C 406.667,295.833 407.333,295.167 408,294.5C 409.681,296.548 411.181,298.715 412.5,301C 414.126,300.805 415.793,300.805 417.5,301C 416.643,301.689 415.977,302.522 415.5,303.5C 417.045,304.452 418.712,304.785 420.5,304.5C 420.253,306.858 420.919,308.858 422.5,310.5 Z"/></g>
<g><path style="opacity:1" fill="#d63939" d="M 233.5,298.5 C 231.659,300.754 229.492,302.754 227,304.5C 227.263,305.951 227.096,307.284 226.5,308.5C 225.833,308.167 225.167,307.833 224.5,307.5C 221.631,310.021 218.298,311.688 214.5,312.5C 220.541,307.463 226.874,302.796 233.5,298.5 Z"/></g>
<g><path style="opacity:1" fill="#b64454" d="M 203.5,320.5 C 201.704,322.9 199.37,324.567 196.5,325.5C 198.296,323.1 200.63,321.433 203.5,320.5 Z"/></g>
<g><path style="opacity:1" fill="#965780" d="M 440.5,323.5 C 442.749,324.08 444.415,325.413 445.5,327.5C 443.251,326.92 441.585,325.587 440.5,323.5 Z"/></g>
<g><path style="opacity:1" fill="#cc3e44" d="M 196.5,325.5 C 194.944,328.948 192.277,330.948 188.5,331.5C 190.562,328.782 193.228,326.782 196.5,325.5 Z"/></g>
<g><path style="opacity:1" fill="#b1465a" d="M 183.5,334.5 C 182.135,336.86 180.135,338.527 177.5,339.5C 178.891,337.11 180.891,335.443 183.5,334.5 Z"/></g>
<g><path style="opacity:1" fill="#d5393a" d="M 175.5,340.5 C 173.666,342.505 171.999,344.672 170.5,347C 169.207,347.49 167.873,347.657 166.5,347.5C 169.208,344.791 172.208,342.458 175.5,340.5 Z"/></g>
<g><path style="opacity:1" fill="#9f5477" d="M 479.5,352.5 C 482.674,353.01 485.008,354.677 486.5,357.5C 483.835,356.148 481.502,354.482 479.5,352.5 Z"/></g>
<g><path style="opacity:1" fill="#cd3c40" d="M 159.5,352.5 C 157.728,354.776 155.728,356.943 153.5,359C 151.846,359.608 150.179,360.108 148.5,360.5C 151.597,357.112 155.264,354.445 159.5,352.5 Z"/></g>
<g><path style="opacity:1" fill="#7a6aab" d="M 492.5,361.5 C 493.873,361.343 495.207,361.51 496.5,362C 498.923,364.628 501.257,367.128 503.5,369.5C 499.268,367.6 495.601,364.933 492.5,361.5 Z"/></g>
<g><path style="opacity:1" fill="#b84154" d="M 135.5,369.5 C 134.135,371.86 132.135,373.527 129.5,374.5C 130.891,372.11 132.891,370.443 135.5,369.5 Z"/></g>
<g><path style="opacity:1" fill="#6576cc" d="M 518.5,380.5 C 514.402,378.251 510.402,375.751 506.5,373C 505.695,371.887 505.028,370.721 504.5,369.5C 507.244,371.058 509.41,370.391 511,367.5C 510.314,370.919 511.814,373.086 515.5,374C 515.167,374.333 514.833,374.667 514.5,375C 516.439,376.432 517.772,378.265 518.5,380.5 Z"/></g>
<g><path style="opacity:1" fill="#d5393b" d="M 122.5,379.5 C 121.058,380.82 120.392,382.486 120.5,384.5C 118.435,384.517 116.435,384.85 114.5,385.5C 116.8,383.016 119.467,381.016 122.5,379.5 Z"/></g>
<g><path style="opacity:1" fill="#98567e" d="M 522.5,383.5 C 524.749,384.08 526.415,385.413 527.5,387.5C 525.251,386.92 523.585,385.587 522.5,383.5 Z"/></g>
<g><path style="opacity:1" fill="#d73738" d="M 111.5,387.5 C 110.055,389.133 108.721,390.966 107.5,393C 106.207,393.49 104.873,393.657 103.5,393.5C 105.77,391.025 108.437,389.025 111.5,387.5 Z"/></g>
<g><path style="opacity:1" fill="#ce3d41" d="M 103.5,393.5 C 102.102,396.988 99.435,398.655 95.5,398.5C 97.822,396.336 100.489,394.669 103.5,393.5 Z"/></g>
<g><path style="opacity:1" fill="#716eb9" d="M 540.5,396.5 C 542.527,396.338 544.527,396.505 546.5,397C 546.043,397.414 545.709,397.914 545.5,398.5C 547.021,400.291 548.854,401.624 551,402.5C 551.464,403.094 551.631,403.761 551.5,404.5C 547.268,402.6 543.601,399.933 540.5,396.5 Z"/></g>
<g><path style="opacity:1" fill="#9f5579" d="M 85.5,406.5 C 84.1473,408.738 82.1473,410.071 79.5,410.5C 81.0337,408.631 83.0337,407.298 85.5,406.5 Z"/></g>
<g><path style="opacity:1" fill="#be4151" d="M 79.5,410.5 C 78.0892,412.914 76.0892,414.581 73.5,415.5C 74.9108,413.086 76.9108,411.419 79.5,410.5 Z"/></g>
<g><path style="opacity:1" fill="#b74455" d="M 60.5,424.5 C 56.7423,428.592 52.409,431.926 47.5,434.5C 51.2146,430.463 55.548,427.13 60.5,424.5 Z"/></g>
<g><path style="opacity:1" fill="#b94254" d="M 45.5,435.5 C 44.4154,437.587 42.7488,438.92 40.5,439.5C 41.5846,437.413 43.2512,436.08 45.5,435.5 Z"/></g>
<g><path style="opacity:1" fill="#7270ba" d="M 593.5,435.5 C 597.054,436.61 600.387,438.277 603.5,440.5C 604.086,440.291 604.586,439.957 605,439.5C 605.236,441.811 606.069,443.811 607.5,445.5C 602.685,442.345 598.018,439.011 593.5,435.5 Z"/></g>
<g><path style="opacity:1" fill="#bd414d" d="M 40.5,439.5 C 38.8495,442.061 36.5162,443.727 33.5,444.5C 35.2964,442.1 37.6298,440.433 40.5,439.5 Z"/></g>
<g><path style="opacity:1" fill="#b1475c" d="M 31.5,445.5 C 30.4154,447.587 28.7488,448.92 26.5,449.5C 27.5846,447.413 29.2512,446.08 31.5,445.5 Z"/></g>
<g><path style="opacity:1" fill="#756db2" d="M 607.5,445.5 C 610.436,446.406 613.436,447.072 616.5,447.5C 616.421,448.93 616.754,450.264 617.5,451.5C 620.583,452.582 622.583,454.582 623.5,457.5C 617.77,453.975 612.437,449.975 607.5,445.5 Z"/></g>
<g><path style="opacity:1" fill="#915a86" d="M 625.5,458.5 C 627.749,459.08 629.415,460.413 630.5,462.5C 628.251,461.92 626.585,460.587 625.5,458.5 Z"/></g>
<g><path style="opacity:1" fill="#dc3734" d="M 15.5,457.5 C 15.5,458.5 15.5,459.5 15.5,460.5C 14.1266,460.343 12.7932,460.51 11.5,461C 10,463.167 8.5,465.333 7,467.5C 6.66667,466.833 6.33333,466.167 6,465.5C 5.32924,466.252 4.4959,466.586 3.5,466.5C 6.92895,462.738 10.9289,459.738 15.5,457.5 Z"/></g>
</svg>
