<?xml version="1.0" encoding="UTF-8"?>
<!DOCTYPE svg PUBLIC "-//W3C//DTD SVG 1.1//EN" "http://www.w3.org/Graphics/SVG/1.1/DTD/svg11.dtd">
<svg xmlns="http://www.w3.org/2000/svg" version="1.1" width="640px" height="480px" style="shape-rendering:geometricPrecision; text-rendering:geometricPrecision; image-rendering:optimizeQuality; fill-rule:evenodd; clip-rule:evenodd" xmlns:xlink="http://www.w3.org/1999/xlink">
<g><path style="opacity:1" fill="#01a1dd" d="M -0.5,-0.5 C 212.833,-0.5 426.167,-0.5 639.5,-0.5C 639.5,79.5 639.5,159.5 639.5,239.5C 426.167,239.5 212.833,239.5 -0.5,239.5C -0.5,159.5 -0.5,79.5 -0.5,-0.5 Z"/></g>
<g><path style="opacity:1" fill="#92b355" d="M 511.5,60.5 C 510.833,60.5 510.167,60.5 509.5,60.5C 510.167,49.8333 510.833,49.8333 511.5,60.5 Z"/></g>
<g><path style="opacity:1" fill="#cfbb2c" d="M 509.5,60.5 C 510.167,60.5 510.833,60.5 511.5,60.5C 512.479,73.4811 513.146,86.4811 513.5,99.5C 511.5,100.833 509.5,100.833 507.5,99.5C 507.901,86.4851 508.568,73.4851 509.5,60.5 Z"/></g>
<g><path style="opacity:1" fill="#5bab8e" d="M 560.5,75.5 C 560.5,75.1667 560.5,74.8333 560.5,74.5C 561.517,72.4005 562.85,71.4005 564.5,71.5C 563.479,73.188 562.145,74.5213 560.5,75.5 Z"/></g>
<g><path style="opacity:1" fill="#d3bb23" d="M 506.5,99.5 C 506.5,100.167 506.5,100.833 506.5,101.5C 495.577,103.756 488.911,110.422 486.5,121.5C 485.609,120.89 484.609,120.557 483.5,120.5C 468.426,115.976 453.426,111.142 438.5,106C 452.137,108.424 465.804,111.091 479.5,114C 481.5,114.667 483.5,114.667 485.5,114C 473.337,105.751 461.004,97.7509 448.5,90C 447.304,89.3457 447.304,88.8457 448.5,88.5C 462.215,96.1922 476.215,103.026 490.5,109C 480.369,97.2005 469.869,85.7005 459,74.5C 458.333,73.8333 458.333,73.1667 459,72.5C 469.883,83.0169 481.049,93.1835 492.5,103C 493.167,103.667 493.833,103.667 494.5,103C 487.268,89.7066 480.768,76.2066 475,62.5C 483.333,75.1667 491.667,87.8333 500,100.5C 497.333,85.1641 494.666,69.8308 492,54.5C 497.142,69.4258 501.976,84.4258 506.5,99.5 Z"/></g>
<g><path style="opacity:1" fill="#d5bc1f" d="M 560.5,74.5 C 560.5,74.8333 560.5,75.1667 560.5,75.5C 550.337,86.4977 540.337,97.6644 530.5,109C 544.785,103.026 558.785,96.1922 572.5,88.5C 560.378,97.6433 547.378,106.477 533.5,115C 545.089,112.783 556.756,110.616 568.5,108.5C 569.791,108.263 570.791,108.596 571.5,109.5C 560.167,113.167 548.833,116.833 537.5,120.5C 536.391,120.557 535.391,120.89 534.5,121.5C 532.14,110.473 525.473,103.806 514.5,101.5C 514.5,100.833 514.5,100.167 514.5,99.5C 519.024,84.4258 523.858,69.4258 529,54.5C 526.333,69.8357 523.666,85.169 521,100.5C 528.667,88.8333 536.333,77.1667 544,65.5C 544.654,64.3044 545.154,64.3044 545.5,65.5C 538.728,78.371 532.561,91.371 527,104.5C 537.74,93.9219 548.906,83.9219 560.5,74.5 Z"/></g>
<g><path style="opacity:1" fill="#77b06d" d="M 506.5,99.5 C 506.833,99.5 507.167,99.5 507.5,99.5C 509.5,100.833 511.5,100.833 513.5,99.5C 513.833,99.5 514.167,99.5 514.5,99.5C 514.5,100.167 514.5,100.833 514.5,101.5C 511.833,101.5 509.167,101.5 506.5,101.5C 506.5,100.833 506.5,100.167 506.5,99.5 Z"/></g>
<g><path style="opacity:1" fill="#a5b54f" d="M 571.5,109.5 C 570.791,108.596 569.791,108.263 568.5,108.5C 572.943,106.846 577.609,106.013 582.5,106C 578.751,107.018 575.084,108.185 571.5,109.5 Z"/></g>
<g><path style="opacity:1" fill="#2ea3ca" d="M 506.5,101.5 C 509.167,101.5 511.833,101.5 514.5,101.5C 525.473,103.806 532.14,110.473 534.5,121.5C 534.5,121.833 534.5,122.167 534.5,122.5C 533.419,142.072 523.085,150.572 503.5,148C 492.046,143.376 486.379,134.876 486.5,122.5C 486.5,122.167 486.5,121.833 486.5,121.5C 488.911,110.422 495.577,103.756 506.5,101.5 Z"/></g>
<g><path style="opacity:1" fill="#e2bd0a" d="M 503.5,103.5 C 520.156,101.476 529.823,108.643 532.5,125C 529.291,142.449 518.957,149.116 501.5,145C 486.263,134.542 484.597,122.208 496.5,108C 498.898,106.476 501.231,104.976 503.5,103.5 Z"/></g>
<g><path style="opacity:1" fill="#7bb06b" d="M 483.5,120.5 C 484.609,120.557 485.609,120.89 486.5,121.5C 486.5,121.833 486.5,122.167 486.5,122.5C 484.167,122.5 481.833,122.5 479.5,122.5C 480.833,121.833 482.167,121.167 483.5,120.5 Z"/></g>
<g><path style="opacity:1" fill="#6aad7f" d="M 537.5,120.5 C 539.167,121.167 540.833,121.833 542.5,122.5C 539.833,122.5 537.167,122.5 534.5,122.5C 534.5,122.167 534.5,121.833 534.5,121.5C 535.391,120.89 536.391,120.557 537.5,120.5 Z"/></g>
<g><path style="opacity:1" fill="#adb63f" d="M 454.5,123.5 C 454.082,124.222 453.416,124.722 452.5,125C 454.708,125.191 456.708,125.691 458.5,126.5C 450.5,126.067 442.5,125.567 434.5,125C 441.164,124.389 447.83,123.889 454.5,123.5 Z"/></g>
<g><path style="opacity:1" fill="#54aa95" d="M 478.5,127.5 C 480.857,127.337 483.19,127.503 485.5,128C 484.756,129.039 483.756,129.539 482.5,129.5C 481.167,128.833 479.833,128.167 478.5,127.5 Z"/></g>
<g><path style="opacity:1" fill="#d5bc1f" d="M 479.5,122.5 C 481.833,122.5 484.167,122.5 486.5,122.5C 486.379,134.876 492.046,143.376 503.5,148C 523.085,150.572 533.419,142.072 534.5,122.5C 537.167,122.5 539.833,122.5 542.5,122.5C 556.192,122.89 569.859,123.724 583.5,125C 567.518,126.284 551.518,127.284 535.5,128C 548.686,132.8 562.019,137.3 575.5,141.5C 575.5,142.167 575.167,142.5 574.5,142.5C 561.119,139.882 547.786,137.382 534.5,135C 546.5,143 558.5,151 570.5,159C 557.46,153.566 544.627,147.399 532,140.5C 531.333,141.167 531.333,141.833 532,142.5C 541.644,152.489 550.811,162.822 559.5,173.5C 559.167,173.5 558.833,173.5 558.5,173.5C 547.938,164.292 537.438,154.958 527,145.5C 532.561,158.629 538.728,171.629 545.5,184.5C 545.154,185.696 544.654,185.696 544,184.5C 536.582,172.662 528.915,160.996 521,149.5C 523.92,164.77 526.587,180.103 529,195.5C 524.399,180.363 519.399,165.363 514,150.5C 512.483,163.117 511.65,175.784 511.5,188.5C 510.833,188.5 510.167,188.5 509.5,188.5C 509.35,175.784 508.517,163.117 507,150.5C 501.601,165.363 496.601,180.363 492,195.5C 494.411,180.111 497.078,164.777 500,149.5C 492.085,160.996 484.418,172.662 477,184.5C 476.346,185.696 475.846,185.696 475.5,184.5C 482.272,171.629 488.439,158.629 494,145.5C 483.562,154.958 473.062,164.292 462.5,173.5C 462.167,173.5 461.833,173.5 461.5,173.5C 470.256,163.011 479.256,152.678 488.5,142.5C 488.167,142.167 487.833,141.833 487.5,141.5C 475.473,147.513 463.473,153.513 451.5,159.5C 451.167,159.5 450.833,159.5 450.5,159.5C 462.425,150.86 474.758,142.694 487.5,135C 475.434,136.579 463.434,138.746 451.5,141.5C 450.508,141.672 449.842,141.338 449.5,140.5C 460.421,136.637 471.421,132.971 482.5,129.5C 483.756,129.539 484.756,129.039 485.5,128C 483.19,127.503 480.857,127.337 478.5,127.5C 471.847,126.946 465.18,126.612 458.5,126.5C 456.708,125.691 454.708,125.191 452.5,125C 453.416,124.722 454.082,124.222 454.5,123.5C 462.816,122.815 471.149,122.482 479.5,122.5 Z"/></g>
<g><path style="opacity:1" fill="#a6b552" d="M 449.5,140.5 C 449.842,141.338 450.508,141.672 451.5,141.5C 447.057,143.154 442.391,143.987 437.5,144C 441.518,142.829 445.518,141.663 449.5,140.5 Z"/></g>
<g><path style="opacity:1" fill="#6bad80" d="M 575.5,141.5 C 578.179,142.226 580.846,143.059 583.5,144C 580.228,144.576 577.228,144.076 574.5,142.5C 575.167,142.5 575.5,142.167 575.5,141.5 Z"/></g>
<g><path style="opacity:1" fill="#6dad80" d="M 450.5,159.5 C 450.833,159.5 451.167,159.5 451.5,159.5C 450.063,160.725 448.396,161.725 446.5,162.5C 445.304,162.154 445.304,161.654 446.5,161C 447.745,160.209 449.078,159.709 450.5,159.5 Z"/></g>
<g><path style="opacity:1" fill="#69ad7e" d="M 461.5,173.5 C 461.833,173.5 462.167,173.5 462.5,173.5C 461.438,175.757 459.772,176.923 457.5,177C 458.705,175.624 460.038,174.458 461.5,173.5 Z"/></g>
<g><path style="opacity:1" fill="#69ad7e" d="M 558.5,173.5 C 558.833,173.5 559.167,173.5 559.5,173.5C 561.599,174.517 562.599,175.85 562.5,177.5C 560.812,176.479 559.479,175.145 558.5,173.5 Z"/></g>
<g><path style="opacity:1" fill="#7fb068" d="M 509.5,188.5 C 510.167,188.5 510.833,188.5 511.5,188.5C 510.833,199.167 510.167,199.167 509.5,188.5 Z"/></g>
<g><path style="opacity:1" fill="#f9d200" d="M -0.5,239.5 C 212.833,239.5 426.167,239.5 639.5,239.5C 639.5,279.5 639.5,319.5 639.5,359.5C 426.167,359.5 212.833,359.5 -0.5,359.5C -0.5,319.5 -0.5,279.5 -0.5,239.5 Z"/></g>
<g><path style="opacity:1" fill="#20603c" d="M -0.5,359.5 C 212.833,359.5 426.167,359.5 639.5,359.5C 639.5,399.5 639.5,439.5 639.5,479.5C 426.167,479.5 212.833,479.5 -0.5,479.5C -0.5,439.5 -0.5,399.5 -0.5,359.5 Z"/></g>
</svg>
