<?xml version="1.0" encoding="UTF-8"?>
<!DOCTYPE svg PUBLIC "-//W3C//DTD SVG 1.1//EN" "http://www.w3.org/Graphics/SVG/1.1/DTD/svg11.dtd">
<svg xmlns="http://www.w3.org/2000/svg" version="1.1" width="640px" height="480px" style="shape-rendering:geometricPrecision; text-rendering:geometricPrecision; image-rendering:optimizeQuality; fill-rule:evenodd; clip-rule:evenodd" xmlns:xlink="http://www.w3.org/1999/xlink">
<g><path style="opacity:1" fill="#fefefe" d="M -0.5,0.5 C -0.5,0.166667 -0.5,-0.166667 -0.5,-0.5C 212.833,-0.5 426.167,-0.5 639.5,-0.5C 639.5,-0.166667 639.5,0.166667 639.5,0.5C 544.494,106.008 449.994,212.008 356,318.5C 355.5,372.166 355.333,425.832 355.5,479.5C 331.5,479.5 307.5,479.5 283.5,479.5C 283.667,425.832 283.5,372.166 283,318.5C 189.006,212.008 94.5055,106.008 -0.5,0.5 Z"/></g>
<g><path style="opacity:1" fill="#003787" d="M -0.5,0.5 C 94.5055,106.008 189.006,212.008 283,318.5C 283.5,372.166 283.667,425.832 283.5,479.5C 188.833,479.5 94.1667,479.5 -0.5,479.5C -0.5,319.833 -0.5,160.167 -0.5,0.5 Z"/></g>
<g><path style="opacity:1" fill="#003787" d="M 639.5,0.5 C 639.5,160.167 639.5,319.833 639.5,479.5C 544.833,479.5 450.167,479.5 355.5,479.5C 355.333,425.832 355.5,372.166 356,318.5C 449.994,212.008 544.494,106.008 639.5,0.5 Z"/></g>
<g><path style="opacity:1" fill="#f9d913" d="M 309.5,146.5 C 340.151,144.578 358.984,158.578 366,188.5C 366.499,192.152 366.665,195.818 366.5,199.5C 335.167,199.5 303.833,199.5 272.5,199.5C 272.787,173.242 285.121,155.576 309.5,146.5 Z"/></g>
<g><path style="opacity:1" fill="#f9e4e6" d="M 413.5,220.5 C 350.833,219.167 288.167,219.167 225.5,220.5C 224.957,220.44 224.624,220.107 224.5,219.5C 287.833,218.167 351.167,218.167 414.5,219.5C 414.376,220.107 414.043,220.44 413.5,220.5 Z"/></g>
<g><path style="opacity:1" fill="#cf162c" d="M 225.5,220.5 C 288.167,219.167 350.833,219.167 413.5,220.5C 382.552,253.449 351.219,286.116 319.5,318.5C 287.781,286.116 256.448,253.449 225.5,220.5 Z"/></g>
</svg>
