<?xml version="1.0" encoding="UTF-8"?>
<!DOCTYPE svg PUBLIC "-//W3C//DTD SVG 1.1//EN" "http://www.w3.org/Graphics/SVG/1.1/DTD/svg11.dtd">
<svg xmlns="http://www.w3.org/2000/svg" version="1.1" width="640px" height="480px" style="shape-rendering:geometricPrecision; text-rendering:geometricPrecision; image-rendering:optimizeQuality; fill-rule:evenodd; clip-rule:evenodd" xmlns:xlink="http://www.w3.org/1999/xlink">
<g><path style="opacity:1" fill="#35a100" d="M -0.5,-0.5 C 170.167,-0.5 340.833,-0.5 511.5,-0.5C 341.209,109.652 170.543,219.318 -0.5,328.5C -0.5,218.833 -0.5,109.167 -0.5,-0.5 Z"/></g>
<g><path style="opacity:0.999" fill="#fbe600" d="M 511.5,-0.5 C 554.167,-0.5 596.833,-0.5 639.5,-0.5C 639.5,-0.166667 639.5,0.166667 639.5,0.5C 607.746,0.0149135 576.079,0.514914 544.5,2C 362.95,119.723 181.284,237.223 -0.5,354.5C -0.5,345.833 -0.5,337.167 -0.5,328.5C 170.543,219.318 341.209,109.652 511.5,-0.5 Z"/></g>
<g><path style="opacity:1" fill="#000000" d="M 639.5,0.5 C 639.5,37.8333 639.5,75.1667 639.5,112.5C 456.641,234.093 274.308,356.426 92.5,479.5C 61.5,479.5 30.5,479.5 -0.5,479.5C -0.5,437.833 -0.5,396.167 -0.5,354.5C 181.284,237.223 362.95,119.723 544.5,2C 576.079,0.514914 607.746,0.0149135 639.5,0.5 Z"/></g>
<g><path style="opacity:1" fill="#fafafa" d="M 422.5,107.5 C 432.815,115.476 443.148,123.476 453.5,131.5C 465.134,124.364 476.634,117.031 488,109.5C 483.355,122.243 478.188,134.91 472.5,147.5C 482.355,155.856 492.355,164.022 502.5,172C 488.837,172.5 475.171,172.667 461.5,172.5C 456.886,185.061 451.72,197.395 446,209.5C 443.374,196.497 440.207,183.663 436.5,171C 423.131,170.858 409.798,170.191 396.5,169C 408.326,161.329 419.993,153.496 431.5,145.5C 428.087,132.928 425.087,120.261 422.5,107.5 Z"/></g>
<g><path style="opacity:0.999" fill="#fce600" d="M 639.5,112.5 C 639.5,120.5 639.5,128.5 639.5,136.5C 467.662,249.918 295.995,363.585 124.5,477.5C 123.5,477.833 122.833,478.5 122.5,479.5C 112.5,479.5 102.5,479.5 92.5,479.5C 274.308,356.426 456.641,234.093 639.5,112.5 Z"/></g>
<g><path style="opacity:1" fill="#c70000" d="M 639.5,136.5 C 639.5,250.5 639.5,364.5 639.5,478.5C 467.666,478.833 295.999,478.5 124.5,477.5C 295.995,363.585 467.662,249.918 639.5,136.5 Z"/></g>
<g><path style="opacity:1" fill="#fafafa" d="M 164.5,275.5 C 174.815,283.476 185.148,291.476 195.5,299.5C 207.018,291.758 218.685,284.591 230.5,278C 225.167,290.333 219.833,302.667 214.5,315C 224.5,323.333 234.5,331.667 244.5,340C 231.162,340.174 217.829,340.174 204.5,340C 199.004,352.483 193.504,364.983 188,377.5C 184.848,364.55 182.015,351.55 179.5,338.5C 165.827,338.242 152.16,337.742 138.5,337C 150.167,329.167 161.833,321.333 173.5,313.5C 170.087,300.928 167.087,288.261 164.5,275.5 Z"/></g>
<g><path style="opacity:0.843" fill="#d23100" d="M 124.5,477.5 C 295.999,478.5 467.666,478.833 639.5,478.5C 639.5,478.833 639.5,479.167 639.5,479.5C 467.167,479.5 294.833,479.5 122.5,479.5C 122.833,478.5 123.5,477.833 124.5,477.5 Z"/></g>
</svg>
