<?xml version="1.0" encoding="UTF-8"?>
<!DOCTYPE svg PUBLIC "-//W3C//DTD SVG 1.1//EN" "http://www.w3.org/Graphics/SVG/1.1/DTD/svg11.dtd">
<svg xmlns="http://www.w3.org/2000/svg" version="1.1" width="640px" height="480px" style="shape-rendering:geometricPrecision; text-rendering:geometricPrecision; image-rendering:optimizeQuality; fill-rule:evenodd; clip-rule:evenodd" xmlns:xlink="http://www.w3.org/1999/xlink">
<g><path style="opacity:1" fill="#0057aa" d="M -0.5,-0.5 C 49.5,-0.5 99.5,-0.5 149.5,-0.5C 149.5,159.5 149.5,319.5 149.5,479.5C 99.5,479.5 49.5,479.5 -0.5,479.5C -0.5,319.5 -0.5,159.5 -0.5,-0.5 Z"/></g>
<g><path style="opacity:1" fill="#f3f000" d="M 149.5,-0.5 C 262.833,-0.5 376.167,-0.5 489.5,-0.5C 489.5,159.5 489.5,319.5 489.5,479.5C 376.167,479.5 262.833,479.5 149.5,479.5C 149.5,319.5 149.5,159.5 149.5,-0.5 Z"/></g>
<g><path style="opacity:1" fill="#199a00" d="M 489.5,-0.5 C 539.5,-0.5 589.5,-0.5 639.5,-0.5C 639.5,159.5 639.5,319.5 639.5,479.5C 589.5,479.5 539.5,479.5 489.5,479.5C 489.5,319.5 489.5,159.5 489.5,-0.5 Z"/></g>
<g><path style="opacity:1" fill="#1b9a00" d="M 258.5,129.5 C 272.994,153.147 286.994,177.147 300.5,201.5C 286.519,226.126 272.019,250.459 257,274.5C 242.034,250.067 227.201,225.567 212.5,201C 227.647,177.025 242.98,153.192 258.5,129.5 Z"/></g>
<g><path style="opacity:1" fill="#1b9a00" d="M 379.5,129.5 C 393.994,153.147 407.994,177.147 421.5,201.5C 407.603,226.07 393.269,250.403 378.5,274.5C 363.124,250.25 348.124,225.75 333.5,201C 348.969,177.223 364.302,153.39 379.5,129.5 Z"/></g>
<g><path style="opacity:1" fill="#1b9a00" d="M 317.5,227.5 C 318.496,227.414 319.329,227.748 320,228.5C 333.886,251.771 347.386,275.271 360.5,299C 346.637,323.896 332.137,348.396 317,372.5C 302.365,347.702 287.532,323.036 272.5,298.5C 287.771,274.946 302.771,251.279 317.5,227.5 Z"/></g>
</svg>
