<?xml version="1.0" encoding="UTF-8"?>
<!DOCTYPE svg PUBLIC "-//W3C//DTD SVG 1.1//EN" "http://www.w3.org/Graphics/SVG/1.1/DTD/svg11.dtd">
<svg xmlns="http://www.w3.org/2000/svg" version="1.1" width="640px" height="480px" style="shape-rendering:geometricPrecision; text-rendering:geometricPrecision; image-rendering:optimizeQuality; fill-rule:evenodd; clip-rule:evenodd" xmlns:xlink="http://www.w3.org/1999/xlink">
<g><path style="opacity:1" fill="#fcfcfd" d="M 0.5,-0.5 C 12.8333,-0.5 25.1667,-0.5 37.5,-0.5C 64.688,19.6909 91.8547,40.0243 119,60.5C 119.5,40.1694 119.667,19.8361 119.5,-0.5C 124.833,-0.5 130.167,-0.5 135.5,-0.5C 135.5,31.5 135.5,63.5 135.5,95.5C 90.1667,95.5 44.8333,95.5 -0.5,95.5C -0.5,90.1667 -0.5,84.8333 -0.5,79.5C 20.8359,79.6666 42.1693,79.5 63.5,79C 42.2892,62.9495 20.9559,47.1161 -0.5,31.5C -0.5,27.8333 -0.5,24.1667 -0.5,20.5C 25.3401,40.168 51.3401,59.668 77.5,79C 87.5,79.6667 97.5,79.6667 107.5,79C 71.6502,52.6367 35.9835,26.1367 0.5,-0.5 Z"/></g>
<g><path style="opacity:1" fill="#022169" d="M 37.5,-0.5 C 64.8333,-0.5 92.1667,-0.5 119.5,-0.5C 119.667,19.8361 119.5,40.1694 119,60.5C 91.8547,40.0243 64.688,19.6909 37.5,-0.5 Z"/></g>
<g><path style="opacity:1" fill="#c91931" d="M 135.5,-0.5 C 151.833,-0.5 168.167,-0.5 184.5,-0.5C 184.5,31.5 184.5,63.5 184.5,95.5C 229.5,95.5 274.5,95.5 319.5,95.5C 319.5,111.833 319.5,128.167 319.5,144.5C 274.5,144.5 229.5,144.5 184.5,144.5C 184.5,176.167 184.5,207.833 184.5,239.5C 168.167,239.5 151.833,239.5 135.5,239.5C 135.5,207.833 135.5,176.167 135.5,144.5C 90.1667,144.5 44.8333,144.5 -0.5,144.5C -0.5,128.167 -0.5,111.833 -0.5,95.5C 44.8333,95.5 90.1667,95.5 135.5,95.5C 135.5,63.5 135.5,31.5 135.5,-0.5 Z"/></g>
<g><path style="opacity:1" fill="#fcfcfc" d="M 184.5,-0.5 C 189.833,-0.5 195.167,-0.5 200.5,-0.5C 200.333,19.1695 200.5,38.8362 201,58.5C 227.351,38.9699 253.517,19.3033 279.5,-0.5C 284.167,-0.5 288.833,-0.5 293.5,-0.5C 262.312,23.0249 231.145,46.6916 200,70.5C 199.502,73.4816 199.335,76.4816 199.5,79.5C 205.176,79.6661 210.843,79.4994 216.5,79C 250.505,52.6713 284.838,26.838 319.5,1.5C 319.5,11.1667 319.5,20.8333 319.5,30.5C 297.863,46.6576 276.196,62.8243 254.5,79C 276.164,79.5 297.831,79.6666 319.5,79.5C 319.5,84.8333 319.5,90.1667 319.5,95.5C 274.5,95.5 229.5,95.5 184.5,95.5C 184.5,63.5 184.5,31.5 184.5,-0.5 Z"/></g>
<g><path style="opacity:1" fill="#032169" d="M 200.5,-0.5 C 226.833,-0.5 253.167,-0.5 279.5,-0.5C 253.517,19.3033 227.351,38.9699 201,58.5C 200.5,38.8362 200.333,19.1695 200.5,-0.5 Z"/></g>
<g><path style="opacity:1" fill="#c91731" d="M 293.5,-0.5 C 302.167,-0.5 310.833,-0.5 319.5,-0.5C 319.5,0.166667 319.5,0.833333 319.5,1.5C 284.838,26.838 250.505,52.6713 216.5,79C 210.843,79.4994 205.176,79.6661 199.5,79.5C 199.335,76.4816 199.502,73.4816 200,70.5C 231.145,46.6916 262.312,23.0249 293.5,-0.5 Z"/></g>
<g><path style="opacity:1" fill="#000066" d="M 319.5,-0.5 C 426.167,-0.5 532.833,-0.5 639.5,-0.5C 639.5,159.5 639.5,319.5 639.5,479.5C 426.167,479.5 212.833,479.5 -0.5,479.5C -0.5,399.5 -0.5,319.5 -0.5,239.5C -0.166667,239.5 0.166667,239.5 0.5,239.5C 9.5,239.5 18.5,239.5 27.5,239.5C 31.8333,239.5 36.1667,239.5 40.5,239.5C 66.8333,239.5 93.1667,239.5 119.5,239.5C 124.833,239.5 130.167,239.5 135.5,239.5C 151.833,239.5 168.167,239.5 184.5,239.5C 189.5,239.5 194.5,239.5 199.5,239.5C 199.833,239.5 200.167,239.5 200.5,239.5C 226.5,239.5 252.5,239.5 278.5,239.5C 291.833,239.5 305.167,239.5 318.5,239.5C 319.491,233.021 319.824,226.354 319.5,219.5C 319.5,215.833 319.5,212.167 319.5,208.5C 319.5,192.167 319.5,175.833 319.5,159.5C 319.5,154.5 319.5,149.5 319.5,144.5C 319.5,128.167 319.5,111.833 319.5,95.5C 319.5,90.1667 319.5,84.8333 319.5,79.5C 319.5,63.1667 319.5,46.8333 319.5,30.5C 319.5,20.8333 319.5,11.1667 319.5,1.5C 319.5,0.833333 319.5,0.166667 319.5,-0.5 Z"/></g>
<g><path style="opacity:1" fill="#c91731" d="M -0.5,-0.5 C -0.166667,-0.5 0.166667,-0.5 0.5,-0.5C 35.9835,26.1367 71.6502,52.6367 107.5,79C 97.5,79.6667 87.5,79.6667 77.5,79C 51.3401,59.668 25.3401,40.168 -0.5,20.5C -0.5,13.5 -0.5,6.5 -0.5,-0.5 Z"/></g>
<g><path style="opacity:1" fill="#032269" d="M 319.5,30.5 C 319.5,46.8333 319.5,63.1667 319.5,79.5C 297.831,79.6666 276.164,79.5 254.5,79C 276.196,62.8243 297.863,46.6576 319.5,30.5 Z"/></g>
<g><path style="opacity:1" fill="#032269" d="M -0.5,31.5 C 20.9559,47.1161 42.2892,62.9495 63.5,79C 42.1693,79.5 20.8359,79.6666 -0.5,79.5C -0.5,63.5 -0.5,47.5 -0.5,31.5 Z"/></g>
<g><path style="opacity:1" fill="#8b8b8e" d="M 498.5,112.5 C 501.059,112.198 503.393,112.532 505.5,113.5C 503.585,113.216 501.919,113.549 500.5,114.5C 497.941,114.198 495.607,114.532 493.5,115.5C 486.167,115.5 478.833,115.5 471.5,115.5C 478.5,114.833 485.5,114.167 492.5,113.5C 494.735,113.795 496.735,113.461 498.5,112.5 Z"/></g>
<g><path style="opacity:1" fill="#dbdae3" d="M 500.5,114.5 C 501.919,113.549 503.585,113.216 505.5,113.5C 511.918,113.442 518.252,114.108 524.5,115.5C 523.551,116.152 522.385,116.486 521,116.5C 514.193,115.503 507.36,114.836 500.5,114.5 Z"/></g>
<g><path style="opacity:1" fill="#fefe0b" d="M 415.5,123.5 C 417.099,123.768 418.432,123.434 419.5,122.5C 427.042,121.618 434.375,120.285 441.5,118.5C 485.657,112.847 528.657,117.514 570.5,132.5C 571.5,154.156 571.833,175.823 571.5,197.5C 511.167,197.5 450.833,197.5 390.5,197.5C 390.333,175.831 390.5,154.164 391,132.5C 399.144,129.177 407.311,126.177 415.5,123.5 Z"/></g>
<g><path style="opacity:1" fill="#4e4e4f" d="M 493.5,115.5 C 495.607,114.532 497.941,114.198 500.5,114.5C 507.36,114.836 514.193,115.503 521,116.5C 522.385,116.486 523.551,116.152 524.5,115.5C 526.099,115.232 527.432,115.566 528.5,116.5C 527.448,116.351 526.448,116.517 525.5,117C 540.449,119.488 554.782,123.655 568.5,129.5C 544.15,121.497 519.15,116.83 493.5,115.5 Z"/></g>
<g><path style="opacity:1" fill="#ebeae5" d="M 441.5,118.5 C 434.375,120.285 427.042,121.618 419.5,122.5C 426.479,119.89 433.813,118.557 441.5,118.5 Z"/></g>
<g><path style="opacity:1" fill="#d5d5df" d="M 498.5,112.5 C 496.735,113.461 494.735,113.795 492.5,113.5C 465.468,113.004 438.801,115.837 412.5,122C 405.396,123.641 398.73,126.141 392.5,129.5C 391.178,129.33 390.011,129.663 389,130.5C 388.633,143.51 388.133,156.51 387.5,169.5C 387.5,184.167 387.5,198.833 387.5,213.5C 387.187,217.042 387.521,220.375 388.5,223.5C 389.154,248.261 394.154,272.094 403.5,295C 403.43,295.765 403.097,296.265 402.5,296.5C 389.731,264.299 384.064,230.799 385.5,196C 386.113,173.836 386.613,151.669 387,129.5C 410.14,119.674 434.307,114.174 459.5,113C 472.496,112.5 485.496,112.333 498.5,112.5 Z"/></g>
<g><path style="opacity:1" fill="#3c3c3c" d="M 492.5,113.5 C 485.5,114.167 478.5,114.833 471.5,115.5C 461.239,115.326 451.239,116.326 441.5,118.5C 433.813,118.557 426.479,119.89 419.5,122.5C 418.432,123.434 417.099,123.768 415.5,123.5C 407.736,125.087 400.069,127.087 392.5,129.5C 398.73,126.141 405.396,123.641 412.5,122C 438.801,115.837 465.468,113.004 492.5,113.5 Z"/></g>
<g><path style="opacity:1" fill="#161616" d="M 568.5,129.5 C 569.93,129.421 571.264,129.754 572.5,130.5C 573.497,137.134 573.83,143.8 573.5,150.5C 573.737,151.791 573.404,152.791 572.5,153.5C 572.831,146.137 572.497,138.803 571.5,131.5C 570.261,131.058 569.261,130.391 568.5,129.5 Z"/></g>
<g><path style="opacity:1" fill="#fcfcfc" d="M -0.5,144.5 C 44.8333,144.5 90.1667,144.5 135.5,144.5C 135.5,176.167 135.5,207.833 135.5,239.5C 130.167,239.5 124.833,239.5 119.5,239.5C 119.667,219.831 119.5,200.164 119,180.5C 92.6495,200.03 66.4828,219.697 40.5,239.5C 36.1667,239.5 31.8333,239.5 27.5,239.5C 57.699,215.813 88.3657,192.646 119.5,170C 120.456,166.606 120.789,163.106 120.5,159.5C 115.041,159.103 109.708,159.603 104.5,161C 69.6492,187.03 34.9826,213.197 0.5,239.5C 0.166667,239.5 -0.166667,239.5 -0.5,239.5C -0.5,229.5 -0.5,219.5 -0.5,209.5C 21.623,193.217 43.623,176.717 65.5,160C 43.5025,159.5 21.5025,159.333 -0.5,159.5C -0.5,154.5 -0.5,149.5 -0.5,144.5 Z"/></g>
<g><path style="opacity:1" fill="#fdfdfd" d="M 319.5,144.5 C 319.5,149.5 319.5,154.5 319.5,159.5C 297.497,159.333 275.497,159.5 253.5,160C 275.352,176.42 297.352,192.587 319.5,208.5C 319.5,212.167 319.5,215.833 319.5,219.5C 293.044,200.217 266.711,180.717 240.5,161C 230.934,159.387 221.267,159.053 211.5,160C 247.35,186.363 283.016,212.863 318.5,239.5C 305.167,239.5 291.833,239.5 278.5,239.5C 253.051,219.935 227.384,200.602 201.5,181.5C 201.44,180.957 201.107,180.624 200.5,180.5C 199.5,200.155 199.167,219.822 199.5,239.5C 194.5,239.5 189.5,239.5 184.5,239.5C 184.5,207.833 184.5,176.167 184.5,144.5C 229.5,144.5 274.5,144.5 319.5,144.5 Z"/></g>
<g><path style="opacity:1" fill="#032269" d="M -0.5,159.5 C 21.5025,159.333 43.5025,159.5 65.5,160C 43.623,176.717 21.623,193.217 -0.5,209.5C -0.5,192.833 -0.5,176.167 -0.5,159.5 Z"/></g>
<g><path style="opacity:1" fill="#c91731" d="M 27.5,239.5 C 18.5,239.5 9.5,239.5 0.5,239.5C 34.9826,213.197 69.6492,187.03 104.5,161C 109.708,159.603 115.041,159.103 120.5,159.5C 120.789,163.106 120.456,166.606 119.5,170C 88.3657,192.646 57.699,215.813 27.5,239.5 Z"/></g>
<g><path style="opacity:1" fill="#c91731" d="M 319.5,219.5 C 319.824,226.354 319.491,233.021 318.5,239.5C 283.016,212.863 247.35,186.363 211.5,160C 221.267,159.053 230.934,159.387 240.5,161C 266.711,180.717 293.044,200.217 319.5,219.5 Z"/></g>
<g><path style="opacity:1" fill="#032269" d="M 319.5,159.5 C 319.5,175.833 319.5,192.167 319.5,208.5C 297.352,192.587 275.352,176.42 253.5,160C 275.497,159.5 297.497,159.333 319.5,159.5 Z"/></g>
<g><path style="opacity:1" fill="#464646" d="M 392.5,129.5 C 391.828,130.267 390.995,130.934 390,131.5C 389.831,144.673 389.331,157.673 388.5,170.5C 388.5,169.833 388.167,169.5 387.5,169.5C 388.133,156.51 388.633,143.51 389,130.5C 390.011,129.663 391.178,129.33 392.5,129.5 Z"/></g>
<g><path style="opacity:1" fill="#6b6b6b" d="M 573.5,150.5 C 574.49,156.31 574.823,162.31 574.5,168.5C 573.596,169.209 573.263,170.209 573.5,171.5C 572.51,165.69 572.177,159.69 572.5,153.5C 573.404,152.791 573.737,151.791 573.5,150.5 Z"/></g>
<g><path style="opacity:1" fill="#7f8fb3" d="M 201.5,181.5 C 200.503,200.659 200.17,219.993 200.5,239.5C 200.167,239.5 199.833,239.5 199.5,239.5C 199.167,219.822 199.5,200.155 200.5,180.5C 201.107,180.624 201.44,180.957 201.5,181.5 Z"/></g>
<g><path style="opacity:1" fill="#022169" d="M 119.5,239.5 C 93.1667,239.5 66.8333,239.5 40.5,239.5C 66.4828,219.697 92.6495,200.03 119,180.5C 119.5,200.164 119.667,219.831 119.5,239.5 Z"/></g>
<g><path style="opacity:1" fill="#032169" d="M 201.5,181.5 C 227.384,200.602 253.051,219.935 278.5,239.5C 252.5,239.5 226.5,239.5 200.5,239.5C 200.17,219.993 200.503,200.659 201.5,181.5 Z"/></g>
<g><path style="opacity:1" fill="#f6f6ef" d="M 471.5,115.5 C 478.833,115.5 486.167,115.5 493.5,115.5C 519.15,116.83 544.15,121.497 568.5,129.5C 569.261,130.391 570.261,131.058 571.5,131.5C 572.497,138.803 572.831,146.137 572.5,153.5C 572.177,159.69 572.51,165.69 573.5,171.5C 573.5,180.5 573.5,189.5 573.5,198.5C 511.833,198.5 450.167,198.5 388.5,198.5C 388.5,189.167 388.5,179.833 388.5,170.5C 389.331,157.673 389.831,144.673 390,131.5C 390.995,130.934 391.828,130.267 392.5,129.5C 400.069,127.087 407.736,125.087 415.5,123.5C 407.311,126.177 399.144,129.177 391,132.5C 390.5,154.164 390.333,175.831 390.5,197.5C 450.833,197.5 511.167,197.5 571.5,197.5C 571.833,175.823 571.5,154.156 570.5,132.5C 528.657,117.514 485.657,112.847 441.5,118.5C 451.239,116.326 461.239,115.326 471.5,115.5 Z"/></g>
<g><path style="opacity:1" fill="#1c1b08" d="M 471.5,166.5 C 472.167,166.5 472.833,166.5 473.5,166.5C 476.214,167.958 479.214,168.958 482.5,169.5C 479.549,173.66 476.549,177.827 473.5,182C 475.552,185.899 477.886,186.232 480.5,183C 487.022,183.179 489.522,180.013 488,173.5C 486.723,171.253 485.223,169.253 483.5,167.5C 486.595,167.626 488.428,169.293 489,172.5C 489.938,170.512 490.772,168.512 491.5,166.5C 493.415,166.216 495.081,166.549 496.5,167.5C 495.503,167.47 494.836,167.97 494.5,169C 492.854,174.101 491.521,179.268 490.5,184.5C 494.4,184.34 497.067,186.007 498.5,189.5C 498.167,189.833 497.833,190.167 497.5,190.5C 490.686,185.27 487.52,186.937 488,195.5C 485.961,194.022 485.128,192.022 485.5,189.5C 482.728,189.595 480.728,190.929 479.5,193.5C 478.417,192.635 478.251,191.635 479,190.5C 480.558,188.641 482.391,187.141 484.5,186C 481.445,185.241 478.945,186.074 477,188.5C 475.135,186.327 472.969,185.993 470.5,187.5C 469.551,194.755 468.051,195.088 466,188.5C 464.383,189.851 463.216,191.518 462.5,193.5C 461.61,191.174 461.443,188.841 462,186.5C 460.333,187.5 459,188.833 458,190.5C 457.245,187.503 458.078,185.003 460.5,183C 463.77,182.005 467.103,181.172 470.5,180.5C 473.286,175.86 473.62,171.193 471.5,166.5 Z"/></g>
<g><path style="opacity:1" fill="#f3f303" d="M 473.5,166.5 C 475.81,166.758 477.81,166.758 479.5,166.5C 480.708,167.234 482.041,167.567 483.5,167.5C 485.223,169.253 486.723,171.253 488,173.5C 489.522,180.013 487.022,183.179 480.5,183C 477.886,186.232 475.552,185.899 473.5,182C 476.549,177.827 479.549,173.66 482.5,169.5C 479.214,168.958 476.214,167.958 473.5,166.5 Z"/></g>
<g><path style="opacity:1" fill="#dbdbdb" d="M 505.5,163.5 C 507.527,163.338 509.527,163.505 511.5,164C 512.705,165.376 514.038,166.542 515.5,167.5C 514.399,168.598 513.066,168.765 511.5,168C 509.253,166.723 507.253,165.223 505.5,163.5 Z"/></g>
<g><path style="opacity:1" fill="#c0712d" d="M 472.5,159.5 C 472.833,159.5 473.167,159.5 473.5,159.5C 475.027,159.427 476.027,160.094 476.5,161.5C 477.075,163.411 478.075,165.078 479.5,166.5C 477.81,166.758 475.81,166.758 473.5,166.5C 472.833,166.5 472.167,166.5 471.5,166.5C 470.438,165.425 470.438,164.425 471.5,163.5C 472.62,164.833 473.953,165.333 475.5,165C 474.242,163.259 473.242,161.426 472.5,159.5 Z"/></g>
<g><path style="opacity:1" fill="#f5f5f5" d="M 498.5,162.5 C 499.391,163.11 500.391,163.443 501.5,163.5C 501.918,164.222 502.584,164.722 503.5,165C 500.183,165.498 496.85,165.665 493.5,165.5C 493.5,164.5 493.5,163.5 493.5,162.5C 495.167,162.5 496.833,162.5 498.5,162.5 Z"/></g>
<g><path style="opacity:1" fill="#f6f5f3" d="M 476.5,161.5 C 481.717,162.923 487.05,163.756 492.5,164C 491.748,164.671 491.414,165.504 491.5,166.5C 490.772,168.512 489.938,170.512 489,172.5C 488.428,169.293 486.595,167.626 483.5,167.5C 482.041,167.567 480.708,167.234 479.5,166.5C 478.075,165.078 477.075,163.411 476.5,161.5 Z"/></g>
<g><path style="opacity:1" fill="#e7e7e7" d="M 495.5,160.5 C 495.833,160.5 496.167,160.5 496.5,160.5C 493.713,161.477 490.713,161.81 487.5,161.5C 487.5,160.833 487.167,160.5 486.5,160.5C 489.33,158.177 492.33,158.177 495.5,160.5 Z"/></g>
<g><path style="opacity:1" fill="#49483b" d="M 475.5,150.5 C 476.568,149.566 477.901,149.232 479.5,149.5C 484.069,152.355 488.736,155.021 493.5,157.5C 494.209,158.404 495.209,158.737 496.5,158.5C 496.938,158.435 497.272,158.601 497.5,159C 496.584,159.278 495.918,159.778 495.5,160.5C 492.33,158.177 489.33,158.177 486.5,160.5C 485.25,160.423 484.417,159.756 484,158.5C 478.202,159.829 478.036,159.163 483.5,156.5C 484.521,155.998 484.688,155.332 484,154.5C 481.413,156.196 478.579,157.196 475.5,157.5C 475.369,156.624 475.702,155.957 476.5,155.5C 484.21,153.527 483.877,151.86 475.5,150.5 Z"/></g>
<g><path style="opacity:1" fill="#f6f43c" d="M 486.5,160.5 C 487.167,160.5 487.5,160.833 487.5,161.5C 484.813,161.664 482.146,161.497 479.5,161C 477.676,160.34 476.343,159.173 475.5,157.5C 478.579,157.196 481.413,156.196 484,154.5C 484.688,155.332 484.521,155.998 483.5,156.5C 478.036,159.163 478.202,159.829 484,158.5C 484.417,159.756 485.25,160.423 486.5,160.5 Z"/></g>
<g><path style="opacity:1" fill="#151306" d="M 499.5,155.5 C 499.842,154.662 500.508,154.328 501.5,154.5C 507.924,155.002 514.258,155.835 520.5,157C 519.449,158.385 518.116,159.385 516.5,160C 521.533,162.468 520.866,163.801 514.5,164C 518.062,167.058 521.062,170.558 523.5,174.5C 520.894,175.652 518.227,175.818 515.5,175C 512.806,172.653 509.806,170.82 506.5,169.5C 506.56,168.957 506.893,168.624 507.5,168.5C 510.419,170.309 513.419,171.476 516.5,172C 516.129,170.397 515.795,168.897 515.5,167.5C 514.038,166.542 512.705,165.376 511.5,164C 509.527,163.505 507.527,163.338 505.5,163.5C 504.167,163.5 502.833,163.5 501.5,163.5C 500.391,163.443 499.391,163.11 498.5,162.5C 498.167,161.5 497.5,160.833 496.5,160.5C 496.167,160.5 495.833,160.5 495.5,160.5C 495.918,159.778 496.584,159.278 497.5,159C 497.272,158.601 496.938,158.435 496.5,158.5C 496.369,157.761 496.536,157.094 497,156.5C 499.231,158.377 501.731,159.21 504.5,159C 502.804,157.824 501.138,156.657 499.5,155.5 Z"/></g>
<g><path style="opacity:1" fill="#c1c122" d="M 475.5,150.5 C 483.877,151.86 484.21,153.527 476.5,155.5C 475.702,155.957 475.369,156.624 475.5,157.5C 471.71,154.995 471.71,152.662 475.5,150.5 Z"/></g>
<g><path style="opacity:1" fill="#e2e225" d="M 499.5,155.5 C 501.138,156.657 502.804,157.824 504.5,159C 501.731,159.21 499.231,158.377 497,156.5C 496.536,157.094 496.369,157.761 496.5,158.5C 495.209,158.737 494.209,158.404 493.5,157.5C 492.925,155.589 491.925,153.922 490.5,152.5C 491.583,152.461 492.583,152.127 493.5,151.5C 495.529,152.844 497.529,154.177 499.5,155.5 Z"/></g>
<g><path style="opacity:1" fill="#f0ece6" d="M 479.5,137.5 C 480.606,140.054 481.439,142.721 482,145.5C 483.612,148.237 485.778,149.07 488.5,148C 487.269,149.183 487.269,150.349 488.5,151.5C 490.91,148.919 491.576,149.252 490.5,152.5C 491.925,153.922 492.925,155.589 493.5,157.5C 488.736,155.021 484.069,152.355 479.5,149.5C 478.323,147.968 476.989,146.468 475.5,145C 476.938,144.781 478.271,144.281 479.5,143.5C 478.476,142.148 477.476,140.815 476.5,139.5C 477.778,139.218 478.778,138.551 479.5,137.5 Z"/></g>
<g><path style="opacity:1" fill="#2c2b22" d="M 501.5,154.5 C 500.508,154.328 499.842,154.662 499.5,155.5C 497.529,154.177 495.529,152.844 493.5,151.5C 492.583,152.127 491.583,152.461 490.5,152.5C 491.576,149.252 490.91,148.919 488.5,151.5C 487.269,150.349 487.269,149.183 488.5,148C 485.778,149.07 483.612,148.237 482,145.5C 481.439,142.721 480.606,140.054 479.5,137.5C 479.672,136.508 479.338,135.842 478.5,135.5C 478.623,131.96 476.957,129.96 473.5,129.5C 473.5,130.5 473.5,131.5 473.5,132.5C 472.209,134.59 472.876,135.924 475.5,136.5C 475.5,136.833 475.5,137.167 475.5,137.5C 475.833,138.167 476.167,138.833 476.5,139.5C 477.476,140.815 478.476,142.148 479.5,143.5C 478.271,144.281 476.938,144.781 475.5,145C 476.989,146.468 478.323,147.968 479.5,149.5C 477.901,149.232 476.568,149.566 475.5,150.5C 471.71,152.662 471.71,154.995 475.5,157.5C 476.343,159.173 477.676,160.34 479.5,161C 482.146,161.497 484.813,161.664 487.5,161.5C 490.713,161.81 493.713,161.477 496.5,160.5C 497.5,160.833 498.167,161.5 498.5,162.5C 496.833,162.5 495.167,162.5 493.5,162.5C 493.5,163.5 493.5,164.5 493.5,165.5C 496.85,165.665 500.183,165.498 503.5,165C 502.584,164.722 501.918,164.222 501.5,163.5C 502.833,163.5 504.167,163.5 505.5,163.5C 507.253,165.223 509.253,166.723 511.5,168C 513.066,168.765 514.399,168.598 515.5,167.5C 515.795,168.897 516.129,170.397 516.5,172C 513.419,171.476 510.419,170.309 507.5,168.5C 506.893,168.624 506.56,168.957 506.5,169.5C 503.451,166.952 500.118,166.286 496.5,167.5C 495.081,166.549 493.415,166.216 491.5,166.5C 491.414,165.504 491.748,164.671 492.5,164C 487.05,163.756 481.717,162.923 476.5,161.5C 476.027,160.094 475.027,159.427 473.5,159.5C 471.022,156.671 470.022,153.338 470.5,149.5C 472.023,146.655 473.023,143.655 473.5,140.5C 472.537,137.352 470.537,136.352 467.5,137.5C 465.672,136.205 463.672,135.205 461.5,134.5C 463.021,134.12 464.687,133.954 466.5,134C 465.354,131.443 466.354,130.11 469.5,130C 463.799,128.174 460.466,129.841 459.5,135C 462.964,138.785 464.298,143.285 463.5,148.5C 463.869,150.441 464.536,152.275 465.5,154C 463.258,155.007 463.592,155.841 466.5,156.5C 468.988,156.683 470.988,157.683 472.5,159.5C 473.242,161.426 474.242,163.259 475.5,165C 473.953,165.333 472.62,164.833 471.5,163.5C 470.438,164.425 470.438,165.425 471.5,166.5C 469.284,165.797 467.451,164.464 466,162.5C 462.051,155.392 460.384,147.726 461,139.5C 459.833,138.333 458.667,137.167 457.5,136C 453.913,134.79 450.58,133.29 447.5,131.5C 453.567,131.203 459.234,129.703 464.5,127C 470.076,125.528 474.909,126.695 479,130.5C 480.471,134.581 482.138,138.581 484,142.5C 489.813,146.646 495.646,150.646 501.5,154.5 Z"/></g>
<g><path style="opacity:1" fill="#874001" d="M 465.5,159.5 C 465.56,158.957 465.893,158.624 466.5,158.5C 467.5,159.5 468.5,160.5 469.5,161.5C 469.167,161.833 468.833,162.167 468.5,162.5C 467.265,161.66 466.265,160.66 465.5,159.5 Z"/></g>
<g><path style="opacity:1" fill="#efe530" d="M 473.5,140.5 C 473.023,143.655 472.023,146.655 470.5,149.5C 470.167,149.5 469.833,149.5 469.5,149.5C 468.312,151.722 467.312,154.055 466.5,156.5C 463.592,155.841 463.258,155.007 465.5,154C 464.536,152.275 463.869,150.441 463.5,148.5C 465.219,145.591 467.219,142.757 469.5,140C 470.928,139.421 472.262,139.588 473.5,140.5 Z"/></g>
<g><path style="opacity:1" fill="#f0f0ea" d="M 469.5,149.5 C 469.833,149.5 470.167,149.5 470.5,149.5C 470.022,153.338 471.022,156.671 473.5,159.5C 473.167,159.5 472.833,159.5 472.5,159.5C 470.988,157.683 468.988,156.683 466.5,156.5C 467.312,154.055 468.312,151.722 469.5,149.5 Z"/></g>
<g><path style="opacity:1" fill="#783d04" d="M 469.5,149.5 C 468.518,150.141 467.518,150.807 466.5,151.5C 466.167,151.167 465.833,150.833 465.5,150.5C 466.253,146.579 468.086,143.245 471,140.5C 473.042,142.51 472.709,144.176 470,145.5C 469.51,146.793 469.343,148.127 469.5,149.5 Z"/></g>
<g><path style="opacity:1" fill="#c8640e" d="M 478.5,135.5 C 479.338,135.842 479.672,136.508 479.5,137.5C 478.778,138.551 477.778,139.218 476.5,139.5C 476.167,138.833 475.833,138.167 475.5,137.5C 477.027,137.573 478.027,136.906 478.5,135.5 Z"/></g>
<g><path style="opacity:1" fill="#f5f5f2" d="M 473.5,140.5 C 472.262,139.588 470.928,139.421 469.5,140C 467.219,142.757 465.219,145.591 463.5,148.5C 464.298,143.285 462.964,138.785 459.5,135C 460.466,129.841 463.799,128.174 469.5,130C 466.354,130.11 465.354,131.443 466.5,134C 464.687,133.954 463.021,134.12 461.5,134.5C 463.672,135.205 465.672,136.205 467.5,137.5C 470.537,136.352 472.537,137.352 473.5,140.5 Z"/></g>
<g><path style="opacity:1" fill="#d17020" d="M 473.5,132.5 C 474.239,132.369 474.906,132.536 475.5,133C 475.799,134.073 475.799,135.24 475.5,136.5C 472.876,135.924 472.209,134.59 473.5,132.5 Z"/></g>
<g><path style="opacity:1" fill="#efd8c7" d="M 478.5,135.5 C 478.027,136.906 477.027,137.573 475.5,137.5C 475.5,137.167 475.5,136.833 475.5,136.5C 475.799,135.24 475.799,134.073 475.5,133C 474.906,132.536 474.239,132.369 473.5,132.5C 473.5,131.5 473.5,130.5 473.5,129.5C 476.957,129.96 478.623,131.96 478.5,135.5 Z"/></g>
<g><path style="opacity:1" fill="#0f0f0f" d="M 574.5,168.5 C 574.5,185.833 574.5,203.167 574.5,220.5C 573.509,213.687 573.175,206.687 573.5,199.5C 511.664,199.168 449.998,199.501 388.5,200.5C 388.5,204.167 388.5,207.833 388.5,211.5C 388.672,212.492 388.338,213.158 387.5,213.5C 387.5,198.833 387.5,184.167 387.5,169.5C 388.167,169.5 388.5,169.833 388.5,170.5C 388.5,179.833 388.5,189.167 388.5,198.5C 450.167,198.5 511.833,198.5 573.5,198.5C 573.5,189.5 573.5,180.5 573.5,171.5C 573.263,170.209 573.596,169.209 574.5,168.5 Z"/></g>
<g><path style="opacity:1" fill="#c2c2c2" d="M 475.5,169.5 C 476.978,169.238 478.311,169.571 479.5,170.5C 477.868,170.238 476.701,171.238 476,173.5C 475.51,172.207 475.343,170.873 475.5,169.5 Z"/></g>
<g><path style="opacity:1" fill="#adaeac" d="M 388.5,200.5 C 449.998,199.501 511.664,199.168 573.5,199.5C 573.175,206.687 573.509,213.687 574.5,220.5C 574.737,221.791 574.404,222.791 573.5,223.5C 573.167,223.5 572.833,223.5 572.5,223.5C 572.5,215.833 572.5,208.167 572.5,200.5C 556.5,200.5 540.5,200.5 524.5,200.5C 523.508,200.328 522.842,200.662 522.5,201.5C 514.833,201.5 507.167,201.5 499.5,201.5C 499.5,202.833 499.5,204.167 499.5,205.5C 499.5,205.833 499.5,206.167 499.5,206.5C 495.668,206.587 492.335,207.587 489.5,209.5C 488.566,208.432 488.232,207.099 488.5,205.5C 490.677,205.414 492.677,204.747 494.5,203.5C 495.696,203.846 495.696,204.346 494.5,205C 495.448,205.483 496.448,205.649 497.5,205.5C 497.5,204.167 497.5,202.833 497.5,201.5C 488.5,201.5 479.5,201.5 470.5,201.5C 469.833,201.5 469.167,201.5 468.5,201.5C 442.005,200.502 415.339,200.169 388.5,200.5 Z"/></g>
<g><path style="opacity:1" fill="#f7f9fb" d="M 388.5,200.5 C 415.339,200.169 442.005,200.502 468.5,201.5C 442.5,201.5 416.5,201.5 390.5,201.5C 390.5,208.5 390.5,215.5 390.5,222.5C 390.5,223.167 390.5,223.833 390.5,224.5C 389.833,224.5 389.5,224.167 389.5,223.5C 389.817,219.298 389.483,215.298 388.5,211.5C 388.5,207.833 388.5,204.167 388.5,200.5 Z"/></g>
<g><path style="opacity:1" fill="#8cc0f8" d="M 468.5,201.5 C 468.5,205.5 468.5,209.5 468.5,213.5C 464.298,213.183 460.298,213.517 456.5,214.5C 456.738,216.404 457.738,217.738 459.5,218.5C 460.209,219.404 461.209,219.737 462.5,219.5C 462.502,223.546 460.836,226.546 457.5,228.5C 457.586,229.496 457.252,230.329 456.5,231C 459.571,232.239 462.571,232.739 465.5,232.5C 466.53,233.552 467.197,234.886 467.5,236.5C 466.647,239.071 466.647,241.738 467.5,244.5C 464.287,244.19 461.287,244.523 458.5,245.5C 458.414,246.496 458.748,247.329 459.5,248C 461.441,248.743 463.274,248.576 465,247.5C 465.717,248.044 466.217,248.711 466.5,249.5C 467.509,250.939 467.176,252.272 465.5,253.5C 465.846,254.696 466.346,254.696 467,253.5C 467.863,255.749 467.363,257.582 465.5,259C 466.756,259.417 467.423,260.25 467.5,261.5C 463.833,261.5 460.167,261.5 456.5,261.5C 456.649,260.448 456.483,259.448 456,258.5C 455.955,261.334 455.121,263.834 453.5,266C 454.227,267.399 454.727,268.899 455,270.5C 455.198,268.618 455.698,266.952 456.5,265.5C 459.128,265.95 461.461,266.95 463.5,268.5C 463.414,269.496 463.748,270.329 464.5,271C 463.027,271.71 462.36,272.876 462.5,274.5C 463.833,274.5 465.167,274.5 466.5,274.5C 466.653,280.324 465.987,280.657 464.5,275.5C 463.459,277.991 462.626,277.991 462,275.5C 461.316,276.784 461.483,277.951 462.5,279C 461.027,279.71 460.36,280.876 460.5,282.5C 462.857,282.337 465.19,282.503 467.5,283C 464.854,283.497 462.187,283.664 459.5,283.5C 459.413,286.598 459.913,286.932 461,284.5C 461.725,286.157 461.225,287.157 459.5,287.5C 458.833,285.833 458.167,284.167 457.5,282.5C 457.067,279.834 456.567,277.168 456,274.5C 451.605,268.553 447.939,262.22 445,255.5C 443.244,246.923 442.244,238.257 442,229.5C 441.252,227.249 439.752,225.916 437.5,225.5C 436.209,225.737 435.209,225.404 434.5,224.5C 433.821,221.293 432.654,218.293 431,215.5C 429.045,216.453 427.378,217.787 426,219.5C 425.043,223.41 423.543,227.077 421.5,230.5C 418.805,230.933 416.638,232.266 415,234.5C 411.729,231.553 409.729,227.887 409,223.5C 405.339,220.796 403.506,217.129 403.5,212.5C 402.833,212.167 402.167,211.833 401.5,211.5C 397.452,214.881 393.785,218.548 390.5,222.5C 390.5,215.5 390.5,208.5 390.5,201.5C 416.5,201.5 442.5,201.5 468.5,201.5 Z"/></g>
<g><path style="opacity:1" fill="#86b8ed" d="M 470.5,201.5 C 479.5,201.5 488.5,201.5 497.5,201.5C 497.5,202.833 497.5,204.167 497.5,205.5C 496.448,205.649 495.448,205.483 494.5,205C 495.696,204.346 495.696,203.846 494.5,203.5C 492.677,204.747 490.677,205.414 488.5,205.5C 488.232,207.099 488.566,208.432 489.5,209.5C 491.117,210.038 492.784,210.371 494.5,210.5C 496.124,210.36 497.29,211.027 498,212.5C 498.808,214.579 498.641,216.579 497.5,218.5C 495.264,218.583 492.93,218.25 490.5,217.5C 487.962,218.257 487.295,219.59 488.5,221.5C 490.702,223.671 493.202,224.004 496,222.5C 497.301,222.639 498.134,223.305 498.5,224.5C 498.5,228.833 498.5,233.167 498.5,237.5C 495.421,237.74 492.421,237.407 489.5,236.5C 488.069,236.977 486.736,237.643 485.5,238.5C 485.624,239.107 485.957,239.44 486.5,239.5C 489.192,241.732 492.192,242.065 495.5,240.5C 496.518,241.193 497.518,241.859 498.5,242.5C 498.5,246.5 498.5,250.5 498.5,254.5C 494.774,254.177 491.107,254.511 487.5,255.5C 487.942,256.739 488.609,257.739 489.5,258.5C 490.167,258.5 490.5,258.833 490.5,259.5C 491.151,262.289 490.484,264.956 488.5,267.5C 490.023,269.283 492.023,269.949 494.5,269.5C 494.736,266.215 495.736,263.215 497.5,260.5C 498.169,262.631 498.835,264.631 499.5,266.5C 499.5,267.833 499.5,269.167 499.5,270.5C 499.5,277.167 499.5,283.833 499.5,290.5C 495.774,290.823 492.107,290.489 488.5,289.5C 490.024,287.208 489.691,285.208 487.5,283.5C 488.077,281.45 489.41,280.45 491.5,280.5C 491.5,279.5 491.5,278.5 491.5,277.5C 487.561,277.822 486.728,276.489 489,273.5C 489.333,274.167 489.667,274.833 490,275.5C 490.667,274.167 491.333,272.833 492,271.5C 493.087,273.932 493.587,273.598 493.5,270.5C 491.876,270.36 490.71,271.027 490,272.5C 489.667,271.833 489.333,271.167 489,270.5C 487.558,273.05 486.392,275.716 485.5,278.5C 484.726,279.711 483.893,279.711 483,278.5C 482.252,280.332 481.252,281.999 480,283.5C 478.5,279 477,274.5 475.5,270C 476.056,268.989 476.722,268.156 477.5,267.5C 479.993,267.521 482.66,267.187 485.5,266.5C 486.246,265.264 486.579,263.93 486.5,262.5C 481.695,261.513 476.695,261.179 471.5,261.5C 471.5,257.5 471.5,253.5 471.5,249.5C 475.56,249.515 479.56,249.015 483.5,248C 484.252,247.329 484.586,246.496 484.5,245.5C 480.94,244.499 476.607,244.166 471.5,244.5C 471.71,240.797 472.043,237.13 472.5,233.5C 476.059,232.226 479.726,231.226 483.5,230.5C 483.863,229.817 484.196,229.15 484.5,228.5C 481.587,227.472 477.254,227.139 471.5,227.5C 472.371,224.728 472.371,222.062 471.5,219.5C 475.371,219.815 479.038,219.482 482.5,218.5C 482.539,217.417 482.873,216.417 483.5,215.5C 474.525,214.502 465.525,214.168 456.5,214.5C 460.298,213.517 464.298,213.183 468.5,213.5C 470.423,209.971 471.089,205.971 470.5,201.5 Z"/></g>
<g><path style="opacity:1" fill="#89bcf3" d="M 522.5,201.5 C 522.5,205.5 522.5,209.5 522.5,213.5C 518.577,212.757 514.577,212.757 510.5,213.5C 510.263,214.791 510.596,215.791 511.5,216.5C 512.859,218.009 512.359,218.676 510,218.5C 508.188,218.507 506.688,217.84 505.5,216.5C 504.304,216.846 504.304,217.346 505.5,218C 503.866,218.494 502.199,218.66 500.5,218.5C 501.371,215.728 501.371,213.062 500.5,210.5C 502.735,210.795 504.735,210.461 506.5,209.5C 508.059,209.35 509.726,209.017 511.5,208.5C 512.404,207.791 512.737,206.791 512.5,205.5C 508.205,204.462 503.871,204.462 499.5,205.5C 499.5,204.167 499.5,202.833 499.5,201.5C 507.167,201.5 514.833,201.5 522.5,201.5 Z"/></g>
<g><path style="opacity:1" fill="#8cbff7" d="M 524.5,201.5 C 540.167,201.5 555.833,201.5 571.5,201.5C 572.825,235.58 566.825,268.247 553.5,299.5C 549.029,299.328 548.696,298.494 552.5,297C 553.252,296.329 553.586,295.496 553.5,294.5C 556.302,291.108 556.969,287.274 555.5,283C 556.78,280.64 557.447,278.14 557.5,275.5C 552.821,275.666 548.155,275.499 543.5,275C 544.117,272.723 544.784,270.556 545.5,268.5C 545.525,272.284 547.192,273.284 550.5,271.5C 551.386,272.776 552.386,272.776 553.5,271.5C 553.994,269.974 554.661,268.641 555.5,267.5C 555.5,268.5 555.5,269.5 555.5,270.5C 559.938,271.575 561.938,269.908 561.5,265.5C 562.833,264.167 562.833,262.833 561.5,261.5C 562.511,259.598 562.678,257.598 562,255.5C 560.67,256.582 559.17,257.249 557.5,257.5C 556.081,256.549 554.415,256.216 552.5,256.5C 551.041,256.433 549.708,256.766 548.5,257.5C 548.483,255.972 547.816,255.472 546.5,256C 545.782,257.987 544.782,259.821 543.5,261.5C 543.833,262.167 544.167,262.833 544.5,263.5C 543.816,266.419 542.482,268.919 540.5,271C 541.801,272.616 541.801,274.116 540.5,275.5C 539.167,275.5 537.833,275.5 536.5,275.5C 536.579,274.07 536.246,272.736 535.5,271.5C 533.577,270.692 531.577,270.192 529.5,270C 531.256,269.798 532.922,269.298 534.5,268.5C 533.91,267.201 532.91,266.368 531.5,266C 532.167,265.667 532.833,265.333 533.5,265C 532.748,264.329 532.414,263.496 532.5,262.5C 534.23,261.974 535.564,260.974 536.5,259.5C 536.04,258.558 534.707,257.891 532.5,257.5C 530.135,258.822 527.802,258.822 525.5,257.5C 525.5,252.833 525.5,248.167 525.5,243.5C 526.416,243.982 527.416,244.315 528.5,244.5C 531.444,243.296 534.444,242.296 537.5,241.5C 538.434,240.432 538.768,239.099 538.5,237.5C 537.167,237.5 535.833,237.5 534.5,237.5C 534.404,233.689 533.738,233.689 532.5,237.5C 530.345,237.162 528.011,237.162 525.5,237.5C 525.5,231.833 525.5,226.167 525.5,220.5C 527.484,220.617 529.15,219.95 530.5,218.5C 534.411,220.464 537.078,219.464 538.5,215.5C 539.738,215.19 539.738,214.69 538.5,214C 533.718,213.794 529.051,213.627 524.5,213.5C 524.5,209.5 524.5,205.5 524.5,201.5 Z"/></g>
<g><path style="opacity:1" fill="#445568" d="M 511.5,208.5 C 507.971,206.577 503.971,205.911 499.5,206.5C 499.5,206.167 499.5,205.833 499.5,205.5C 503.871,204.462 508.205,204.462 512.5,205.5C 512.737,206.791 512.404,207.791 511.5,208.5 Z"/></g>
<g><path style="opacity:1" fill="#f4f4f4" d="M 499.5,206.5 C 503.971,205.911 507.971,206.577 511.5,208.5C 509.726,209.017 508.059,209.35 506.5,209.5C 503.057,209.204 499.557,208.871 496,208.5C 495.283,209.044 494.783,209.711 494.5,210.5C 492.784,210.371 491.117,210.038 489.5,209.5C 492.335,207.587 495.668,206.587 499.5,206.5 Z"/></g>
<g><path style="opacity:1" fill="#b5b716" d="M 524.5,200.5 C 524.5,200.833 524.5,201.167 524.5,201.5C 524.5,205.5 524.5,209.5 524.5,213.5C 523.833,214.833 523.167,214.833 522.5,213.5C 522.5,209.5 522.5,205.5 522.5,201.5C 522.842,200.662 523.508,200.328 524.5,200.5 Z"/></g>
<g><path style="opacity:1" fill="#bfc110" d="M 468.5,201.5 C 469.167,201.5 469.833,201.5 470.5,201.5C 471.089,205.971 470.423,209.971 468.5,213.5C 468.5,209.5 468.5,205.5 468.5,201.5 Z"/></g>
<g><path style="opacity:1" fill="#c96000" d="M 407.5,225.5 C 404.544,227.977 402.544,231.144 401.5,235C 402.939,238.049 404.106,241.215 405,244.5C 405.311,242.444 405.811,240.444 406.5,238.5C 404.661,236.473 404.161,234.14 405,231.5C 405.712,233.847 406.879,235.847 408.5,237.5C 409.452,235.955 409.785,234.288 409.5,232.5C 412.552,235.576 415.386,238.91 418,242.5C 418.132,248.507 418.132,254.507 418,260.5C 418.869,255.492 419.536,255.825 420,261.5C 421,262.5 422,263.5 423,264.5C 422.973,262.583 422.139,260.916 420.5,259.5C 421.517,256.378 421.517,253.211 420.5,250C 420.667,248.833 420.833,247.667 421,246.5C 424.199,254.116 426.199,262.116 427,270.5C 427.791,274.719 429.625,278.386 432.5,281.5C 432.192,282.308 431.692,282.975 431,283.5C 430.529,281.754 429.862,280.087 429,278.5C 428.346,277.304 427.846,277.304 427.5,278.5C 429.185,285.354 431.351,292.021 434,298.5C 434.511,294.95 434.178,291.617 433,288.5C 435.528,291.098 437.028,294.098 437.5,297.5C 437.5,298.167 437.833,298.5 438.5,298.5C 438.281,299.675 438.614,300.675 439.5,301.5C 445.648,304.927 448.314,310.26 447.5,317.5C 447.633,320.907 446.466,321.24 444,318.5C 442.713,313.968 440.546,309.968 437.5,306.5C 437.167,307.5 436.833,308.5 436.5,309.5C 438.088,313.024 438.588,316.691 438,320.5C 436.973,316.392 435.64,312.392 434,308.5C 431.26,307.718 428.426,307.218 425.5,307C 425,306.5 424.5,306 424,305.5C 423.276,300.479 422.442,295.479 421.5,290.5C 420.265,289.66 419.265,288.66 418.5,287.5C 417.083,284.002 416.417,280.335 416.5,276.5C 414.414,269.931 412.581,263.265 411,256.5C 410.097,255.299 408.931,254.465 407.5,254C 404.905,254.131 402.405,253.964 400,253.5C 398.996,248.134 397.829,242.8 396.5,237.5C 398.494,233.699 399.327,229.699 399,225.5C 397.231,234.325 395.398,234.492 393.5,226C 394.761,220.911 397.428,216.744 401.5,213.5C 402.684,217.856 404.684,221.856 407.5,225.5 Z"/></g>
<g><path style="opacity:1" fill="#404954" d="M 522.5,213.5 C 523.167,214.833 523.833,214.833 524.5,213.5C 529.051,213.627 533.718,213.794 538.5,214C 539.738,214.69 539.738,215.19 538.5,215.5C 529.318,215.173 520.318,215.507 511.5,216.5C 510.596,215.791 510.263,214.791 510.5,213.5C 514.577,212.757 518.577,212.757 522.5,213.5 Z"/></g>
<g><path style="opacity:1" fill="#f6f6f6" d="M 456.5,214.5 C 465.525,214.168 474.525,214.502 483.5,215.5C 482.873,216.417 482.539,217.417 482.5,218.5C 474.872,217.243 467.205,217.243 459.5,218.5C 457.738,217.738 456.738,216.404 456.5,214.5 Z"/></g>
<g><path style="opacity:1" fill="#fbfbfb" d="M 511.5,216.5 C 520.318,215.507 529.318,215.173 538.5,215.5C 537.078,219.464 534.411,220.464 530.5,218.5C 529.15,219.95 527.484,220.617 525.5,220.5C 525.167,220.5 524.833,220.5 524.5,220.5C 523.833,220.167 523.167,219.833 522.5,219.5C 520.741,219.046 518.741,219.046 516.5,219.5C 516.539,218.244 516.039,217.244 515,216.5C 514.014,217.171 512.847,217.171 511.5,216.5 Z"/></g>
<g><path style="opacity:1" fill="#c86100" d="M 434.5,224.5 C 435.209,225.404 436.209,225.737 437.5,225.5C 438.833,232.167 440.167,238.833 441.5,245.5C 440.883,245.611 440.383,245.944 440,246.5C 437.724,244.282 436.224,241.615 435.5,238.5C 433.656,244.776 433.323,251.109 434.5,257.5C 435.318,254.893 435.818,252.226 436,249.5C 436.414,249.043 436.914,248.709 437.5,248.5C 438.851,252.032 438.518,255.365 436.5,258.5C 437.163,261.806 437.663,265.139 438,268.5C 439.793,271.394 441.293,274.394 442.5,277.5C 438.882,275.863 435.549,273.863 432.5,271.5C 432.523,269.4 431.856,267.567 430.5,266C 431.029,264.441 431.696,262.941 432.5,261.5C 428.384,258.816 427.05,255.149 428.5,250.5C 427.207,248.897 426.207,247.231 425.5,245.5C 425.092,242.401 426.259,240.067 429,238.5C 429.167,237.5 429.333,236.5 429.5,235.5C 427.694,230.639 426.86,225.639 427,220.5C 427.837,218.993 429.004,218.493 430.5,219C 431.488,221.167 432.821,223 434.5,224.5 Z"/></g>
<g><path style="opacity:1" fill="#737f7f" d="M 506.5,209.5 C 504.735,210.461 502.735,210.795 500.5,210.5C 501.371,213.062 501.371,215.728 500.5,218.5C 502.199,218.66 503.866,218.494 505.5,218C 504.304,217.346 504.304,216.846 505.5,216.5C 506.688,217.84 508.188,218.507 510,218.5C 512.359,218.676 512.859,218.009 511.5,216.5C 512.847,217.171 514.014,217.171 515,216.5C 516.039,217.244 516.539,218.244 516.5,219.5C 515.348,218.375 514.348,218.375 513.5,219.5C 506.35,219.727 499.35,219.727 492.5,219.5C 490.667,219.585 489.334,220.252 488.5,221.5C 487.295,219.59 487.962,218.257 490.5,217.5C 492.93,218.25 495.264,218.583 497.5,218.5C 498.641,216.579 498.808,214.579 498,212.5C 497.29,211.027 496.124,210.36 494.5,210.5C 494.783,209.711 495.283,209.044 496,208.5C 499.557,208.871 503.057,209.204 506.5,209.5 Z"/></g>
<g><path style="opacity:1" fill="#85b6ea" d="M 516.5,219.5 C 518.741,219.046 520.741,219.046 522.5,219.5C 522.5,225.5 522.5,231.5 522.5,237.5C 515.251,236.93 507.918,236.93 500.5,237.5C 500.5,233.5 500.5,229.5 500.5,225.5C 502.2,225.374 503.7,224.707 505,223.5C 509.449,225.517 512.282,224.184 513.5,219.5C 514.348,218.375 515.348,218.375 516.5,219.5 Z"/></g>
<g><path style="opacity:1" fill="#666666" d="M 388.5,211.5 C 389.483,215.298 389.817,219.298 389.5,223.5C 389.167,223.5 388.833,223.5 388.5,223.5C 387.521,220.375 387.187,217.042 387.5,213.5C 388.338,213.158 388.672,212.492 388.5,211.5 Z"/></g>
<g><path style="opacity:1" fill="#f0f0f0" d="M 513.5,219.5 C 512.282,224.184 509.449,225.517 505,223.5C 503.7,224.707 502.2,225.374 500.5,225.5C 499.833,225.167 499.167,224.833 498.5,224.5C 498.134,223.305 497.301,222.639 496,222.5C 493.202,224.004 490.702,223.671 488.5,221.5C 489.334,220.252 490.667,219.585 492.5,219.5C 499.35,219.727 506.35,219.727 513.5,219.5 Z"/></g>
<g><path style="opacity:1" fill="#5f3403" d="M 421.5,230.5 C 419.408,231.894 417.742,233.728 416.5,236C 418.644,238.453 420.144,241.286 421,244.5C 422.011,245.337 423.178,245.67 424.5,245.5C 422.841,248.882 423.341,251.882 426,254.5C 426.662,260.321 427.829,265.988 429.5,271.5C 429.062,271.435 428.728,271.601 428.5,272C 430.093,272.949 431.426,274.115 432.5,275.5C 431.529,276.962 431.862,278.295 433.5,279.5C 433.575,284.953 435.242,289.953 438.5,294.5C 440.332,293.752 441.999,292.752 443.5,291.5C 447.504,294.242 451.171,293.909 454.5,290.5C 455.833,290.5 456.5,291.167 456.5,292.5C 453.849,293.49 451.183,294.49 448.5,295.5C 444.241,293.708 440.574,294.374 437.5,297.5C 437.028,294.098 435.528,291.098 433,288.5C 434.178,291.617 434.511,294.95 434,298.5C 431.351,292.021 429.185,285.354 427.5,278.5C 427.846,277.304 428.346,277.304 429,278.5C 429.862,280.087 430.529,281.754 431,283.5C 431.692,282.975 432.192,282.308 432.5,281.5C 429.625,278.386 427.791,274.719 427,270.5C 426.199,262.116 424.199,254.116 421,246.5C 420.833,247.667 420.667,248.833 420.5,250C 421.517,253.211 421.517,256.378 420.5,259.5C 422.139,260.916 422.973,262.583 423,264.5C 422,263.5 421,262.5 420,261.5C 419.536,255.825 418.869,255.492 418,260.5C 418.132,254.507 418.132,248.507 418,242.5C 415.386,238.91 412.552,235.576 409.5,232.5C 409.59,229.848 408.924,227.515 407.5,225.5C 404.684,221.856 402.684,217.856 401.5,213.5C 397.428,216.744 394.761,220.911 393.5,226C 395.398,234.492 397.231,234.325 399,225.5C 399.327,229.699 398.494,233.699 396.5,237.5C 397.829,242.8 398.996,248.134 400,253.5C 402.405,253.964 404.905,254.131 407.5,254C 408.931,254.465 410.097,255.299 411,256.5C 412.581,263.265 414.414,269.931 416.5,276.5C 415.236,274.73 413.736,273.063 412,271.5C 411.302,268.996 410.469,266.663 409.5,264.5C 409.846,261.398 409.179,258.565 407.5,256C 405.149,256.14 402.816,256.64 400.5,257.5C 400.5,258.833 400.5,260.167 400.5,261.5C 400.759,265.24 400.426,268.906 399.5,272.5C 399.957,273.298 400.624,273.631 401.5,273.5C 403.669,276.405 405.003,279.738 405.5,283.5C 406.814,284.313 407.981,285.313 409,286.5C 409.546,289.379 410.379,292.046 411.5,294.5C 410.789,297.864 411.956,300.197 415,301.5C 415.852,305.059 417.019,308.393 418.5,311.5C 419.706,314.298 421.706,316.465 424.5,318C 426.679,319.987 428.512,319.82 430,317.5C 431.264,319.607 433.097,320.607 435.5,320.5C 435.592,316.941 434.759,313.608 433,310.5C 431.644,309.62 430.144,309.286 428.5,309.5C 426.026,308.328 423.693,307.662 421.5,307.5C 421.023,306.522 420.357,305.689 419.5,305C 421.782,303.916 422.116,302.416 420.5,300.5C 421.996,296.822 421.329,293.489 418.5,290.5C 418.5,289.5 418.5,288.5 418.5,287.5C 419.265,288.66 420.265,289.66 421.5,290.5C 422.442,295.479 423.276,300.479 424,305.5C 424.5,306 425,306.5 425.5,307C 428.426,307.218 431.26,307.718 434,308.5C 435.64,312.392 436.973,316.392 438,320.5C 438.588,316.691 438.088,313.024 436.5,309.5C 436.833,308.5 437.167,307.5 437.5,306.5C 440.546,309.968 442.713,313.968 444,318.5C 446.466,321.24 447.633,320.907 447.5,317.5C 448.314,310.26 445.648,304.927 439.5,301.5C 438.614,300.675 438.281,299.675 438.5,298.5C 441.471,300.458 444.471,302.458 447.5,304.5C 447.5,304.833 447.5,305.167 447.5,305.5C 448.893,311.039 449.56,316.705 449.5,322.5C 446.657,322.058 443.991,321.058 441.5,319.5C 440.249,322.489 438.249,323.489 435.5,322.5C 433.343,323.05 431.343,323.717 429.5,324.5C 427.473,324.662 425.473,324.495 423.5,324C 406.975,303.77 396.809,280.603 393,254.5C 390.923,244.491 390.089,234.491 390.5,224.5C 390.5,223.833 390.5,223.167 390.5,222.5C 393.785,218.548 397.452,214.881 401.5,211.5C 402.167,211.833 402.833,212.167 403.5,212.5C 403.506,217.129 405.339,220.796 409,223.5C 409.729,227.887 411.729,231.553 415,234.5C 416.638,232.266 418.805,230.933 421.5,230.5 Z"/></g>
<g><path style="opacity:1" fill="#556a7e" d="M 482.5,218.5 C 479.038,219.482 475.371,219.815 471.5,219.5C 472.371,222.062 472.371,224.728 471.5,227.5C 477.254,227.139 481.587,227.472 484.5,228.5C 475.5,228.5 466.5,228.5 457.5,228.5C 460.836,226.546 462.502,223.546 462.5,219.5C 461.209,219.737 460.209,219.404 459.5,218.5C 467.205,217.243 474.872,217.243 482.5,218.5 Z"/></g>
<g><path style="opacity:1" fill="#e1e100" d="M 468.5,219.5 C 469.748,220.334 470.415,221.667 470.5,223.5C 470.167,224.833 469.833,226.167 469.5,227.5C 468.52,224.914 468.187,222.247 468.5,219.5 Z"/></g>
<g><path style="opacity:1" fill="#88bbf3" d="M 464.5,219.5 C 465.5,219.5 466.5,219.5 467.5,219.5C 466.629,222.062 466.629,224.728 467.5,227.5C 465.473,227.662 463.473,227.495 461.5,227C 463.569,226.676 463.902,225.842 462.5,224.5C 463.174,222.805 463.841,221.138 464.5,219.5 Z"/></g>
<g><path style="opacity:1" fill="#633811" d="M 434.5,224.5 C 432.821,223 431.488,221.167 430.5,219C 429.004,218.493 427.837,218.993 427,220.5C 426.86,225.639 427.694,230.639 429.5,235.5C 429.333,236.5 429.167,237.5 429,238.5C 426.259,240.067 425.092,242.401 425.5,245.5C 425.167,245.5 424.833,245.5 424.5,245.5C 424.03,242.654 424.863,240.321 427,238.5C 427.59,234.703 427.09,231.036 425.5,227.5C 424.358,228.826 423.024,229.826 421.5,230.5C 423.543,227.077 425.043,223.41 426,219.5C 427.378,217.787 429.045,216.453 431,215.5C 432.654,218.293 433.821,221.293 434.5,224.5 Z"/></g>
<g><path style="opacity:1" fill="#39aa00" d="M 407.5,225.5 C 408.924,227.515 409.59,229.848 409.5,232.5C 409.785,234.288 409.452,235.955 408.5,237.5C 406.879,235.847 405.712,233.847 405,231.5C 404.161,234.14 404.661,236.473 406.5,238.5C 405.811,240.444 405.311,242.444 405,244.5C 404.106,241.215 402.939,238.049 401.5,235C 402.544,231.144 404.544,227.977 407.5,225.5 Z"/></g>
<g><path style="opacity:1" fill="#c65e00" d="M 424.5,245.5 C 423.178,245.67 422.011,245.337 421,244.5C 420.144,241.286 418.644,238.453 416.5,236C 417.742,233.728 419.408,231.894 421.5,230.5C 423.024,229.826 424.358,228.826 425.5,227.5C 427.09,231.036 427.59,234.703 427,238.5C 424.863,240.321 424.03,242.654 424.5,245.5 Z"/></g>
<g><path style="opacity:1" fill="#f9f9f9" d="M 457.5,228.5 C 466.5,228.5 475.5,228.5 484.5,228.5C 484.196,229.15 483.863,229.817 483.5,230.5C 479.726,231.226 476.059,232.226 472.5,233.5C 470.393,232.532 468.059,232.198 465.5,232.5C 462.571,232.739 459.571,232.239 456.5,231C 457.252,230.329 457.586,229.496 457.5,228.5 Z"/></g>
<g><path style="opacity:1" fill="#989e22" d="M 498.5,224.5 C 499.167,224.833 499.833,225.167 500.5,225.5C 500.5,229.5 500.5,233.5 500.5,237.5C 499.833,237.5 499.167,237.5 498.5,237.5C 498.5,233.167 498.5,228.833 498.5,224.5 Z"/></g>
<g><path style="opacity:1" fill="#a5ad37" d="M 522.5,219.5 C 523.167,219.833 523.833,220.167 524.5,220.5C 525.117,226.598 524.45,232.265 522.5,237.5C 522.5,231.5 522.5,225.5 522.5,219.5 Z"/></g>
<g><path style="opacity:1" fill="#49595e" d="M 465.5,232.5 C 468.059,232.198 470.393,232.532 472.5,233.5C 472.043,237.13 471.71,240.797 471.5,244.5C 476.607,244.166 480.94,244.499 484.5,245.5C 475.833,245.5 467.167,245.5 458.5,245.5C 461.287,244.523 464.287,244.19 467.5,244.5C 466.647,241.738 466.647,239.071 467.5,236.5C 467.197,234.886 466.53,233.552 465.5,232.5 Z"/></g>
<g><path style="opacity:1" fill="#eded00" d="M 468.5,233.5 C 469.787,234.871 470.453,236.705 470.5,239C 470.167,240.833 469.833,242.667 469.5,244.5C 468.511,240.893 468.177,237.226 468.5,233.5 Z"/></g>
<g><path style="opacity:1" fill="#4e5759" d="M 524.5,220.5 C 524.833,220.5 525.167,220.5 525.5,220.5C 525.5,226.167 525.5,231.833 525.5,237.5C 528.011,237.162 530.345,237.162 532.5,237.5C 533.738,233.689 534.404,233.689 534.5,237.5C 535.833,237.5 537.167,237.5 538.5,237.5C 538.768,239.099 538.434,240.432 537.5,241.5C 537.5,240.5 537.5,239.5 537.5,238.5C 528.827,238.334 520.16,238.5 511.5,239C 512.381,239.708 513.047,240.542 513.5,241.5C 512.336,241.165 511.003,241.165 509.5,241.5C 509.5,240.5 509.5,239.5 509.5,238.5C 501.648,238.175 493.982,238.508 486.5,239.5C 485.957,239.44 485.624,239.107 485.5,238.5C 486.736,237.643 488.069,236.977 489.5,236.5C 492.421,237.407 495.421,237.74 498.5,237.5C 499.167,237.5 499.833,237.5 500.5,237.5C 507.918,236.93 515.251,236.93 522.5,237.5C 524.45,232.265 525.117,226.598 524.5,220.5 Z"/></g>
<g><path style="opacity:1" fill="#fcfcfc" d="M 486.5,239.5 C 493.982,238.508 501.648,238.175 509.5,238.5C 509.5,239.5 509.5,240.5 509.5,241.5C 506.921,241.135 504.588,241.135 502.5,241.5C 501.167,241.833 499.833,242.167 498.5,242.5C 497.518,241.859 496.518,241.193 495.5,240.5C 492.192,242.065 489.192,241.732 486.5,239.5 Z"/></g>
<g><path style="opacity:1" fill="#f5f5f6" d="M 537.5,241.5 C 534.444,242.296 531.444,243.296 528.5,244.5C 527.416,244.315 526.416,243.982 525.5,243.5C 525.5,242.833 525.167,242.5 524.5,242.5C 523.012,239.814 522.345,240.147 522.5,243.5C 520.418,243.376 518.918,242.376 518,240.5C 516.644,241.38 515.144,241.714 513.5,241.5C 513.047,240.542 512.381,239.708 511.5,239C 520.16,238.5 528.827,238.334 537.5,238.5C 537.5,239.5 537.5,240.5 537.5,241.5 Z"/></g>
<g><path style="opacity:1" fill="#8abcf2" d="M 509.5,241.5 C 511.003,241.165 512.336,241.165 513.5,241.5C 515.144,241.714 516.644,241.38 518,240.5C 518.918,242.376 520.418,243.376 522.5,243.5C 524.218,250.732 521.718,255.732 515,258.5C 514.308,259.437 514.475,260.103 515.5,260.5C 516.167,260.5 516.5,260.833 516.5,261.5C 517.091,262.151 517.757,262.818 518.5,263.5C 517.568,265.795 516.735,268.129 516,270.5C 514.414,268.33 513.08,265.996 512,263.5C 510.992,263.018 509.825,262.852 508.5,263C 509.999,262.162 510.332,261.329 509.5,260.5C 509.833,259.5 510.5,258.833 511.5,258.5C 512.391,257.739 513.058,256.739 513.5,255.5C 509.555,254.509 505.555,254.176 501.5,254.5C 501.231,250.069 501.564,245.735 502.5,241.5C 504.588,241.135 506.921,241.135 509.5,241.5 Z"/></g>
<g><path style="opacity:1" fill="#2ba300" d="M 441.5,245.5 C 442.518,249.083 443.351,252.75 444,256.5C 449.664,265.329 453.83,274.829 456.5,285C 456.272,285.399 455.938,285.565 455.5,285.5C 450.999,283.084 446.666,280.417 442.5,277.5C 441.293,274.394 439.793,271.394 438,268.5C 437.663,265.139 437.163,261.806 436.5,258.5C 438.518,255.365 438.851,252.032 437.5,248.5C 436.914,248.709 436.414,249.043 436,249.5C 435.818,252.226 435.318,254.893 434.5,257.5C 433.323,251.109 433.656,244.776 435.5,238.5C 436.224,241.615 437.724,244.282 440,246.5C 440.383,245.944 440.883,245.611 441.5,245.5 Z"/></g>
<g><path style="opacity:1" fill="#f4f4f4" d="M 458.5,245.5 C 467.167,245.5 475.833,245.5 484.5,245.5C 484.586,246.496 484.252,247.329 483.5,248C 479.56,249.015 475.56,249.515 471.5,249.5C 469.833,249.5 468.167,249.5 466.5,249.5C 466.217,248.711 465.717,248.044 465,247.5C 463.274,248.576 461.441,248.743 459.5,248C 458.748,247.329 458.414,246.496 458.5,245.5 Z"/></g>
<g><path style="opacity:1" fill="#573a1d" d="M 437.5,225.5 C 439.752,225.916 441.252,227.249 442,229.5C 442.244,238.257 443.244,246.923 445,255.5C 447.939,262.22 451.605,268.553 456,274.5C 456.567,277.168 457.067,279.834 457.5,282.5C 457.762,283.978 457.429,285.311 456.5,286.5C 455.893,286.376 455.56,286.043 455.5,285.5C 455.938,285.565 456.272,285.399 456.5,285C 453.83,274.829 449.664,265.329 444,256.5C 443.351,252.75 442.518,249.083 441.5,245.5C 440.167,238.833 438.833,232.167 437.5,225.5 Z"/></g>
<g><path style="opacity:1" fill="#909a50" d="M 502.5,241.5 C 501.564,245.735 501.231,250.069 501.5,254.5C 500.5,254.5 499.5,254.5 498.5,254.5C 498.5,250.5 498.5,246.5 498.5,242.5C 499.833,242.167 501.167,241.833 502.5,241.5 Z"/></g>
<g><path style="opacity:1" fill="#dbdce4" d="M 528.5,116.5 C 544.271,119.276 559.604,123.609 574.5,129.5C 577.333,167.181 577.166,204.848 574,242.5C 572.049,262.658 566.549,281.658 557.5,299.5C 557.229,298.448 557.062,297.115 557,295.5C 556.502,297.544 555.335,298.878 553.5,299.5C 566.825,268.247 572.825,235.58 571.5,201.5C 555.833,201.5 540.167,201.5 524.5,201.5C 524.5,201.167 524.5,200.833 524.5,200.5C 540.5,200.5 556.5,200.5 572.5,200.5C 572.5,208.167 572.5,215.833 572.5,223.5C 571.243,245.713 567.41,267.38 561,288.5C 569.137,267.615 573.304,245.949 573.5,223.5C 574.404,222.791 574.737,221.791 574.5,220.5C 574.5,203.167 574.5,185.833 574.5,168.5C 574.823,162.31 574.49,156.31 573.5,150.5C 573.83,143.8 573.497,137.134 572.5,130.5C 571.264,129.754 569.93,129.421 568.5,129.5C 554.782,123.655 540.449,119.488 525.5,117C 526.448,116.517 527.448,116.351 528.5,116.5 Z"/></g>
<g><path style="opacity:1" fill="#abae1b" d="M 524.5,242.5 C 525.167,242.5 525.5,242.833 525.5,243.5C 525.5,248.167 525.5,252.833 525.5,257.5C 525.44,258.043 525.107,258.376 524.5,258.5C 523.185,253.014 523.185,247.68 524.5,242.5 Z"/></g>
<g><path style="opacity:1" fill="#668088" d="M 466.5,249.5 C 468.167,249.5 469.833,249.5 471.5,249.5C 471.5,253.5 471.5,257.5 471.5,261.5C 471.167,261.5 470.833,261.5 470.5,261.5C 469.833,246.833 469.167,246.833 468.5,261.5C 468.167,261.5 467.833,261.5 467.5,261.5C 467.423,260.25 466.756,259.417 465.5,259C 467.363,257.582 467.863,255.749 467,253.5C 466.346,254.696 465.846,254.696 465.5,253.5C 467.176,252.272 467.509,250.939 466.5,249.5 Z"/></g>
<g><path style="opacity:1" fill="#e5e500" d="M 470.5,261.5 C 469.833,261.5 469.167,261.5 468.5,261.5C 469.167,246.833 469.833,246.833 470.5,261.5 Z"/></g>
<g><path style="opacity:1" fill="#6e7379" d="M 498.5,254.5 C 499.5,254.5 500.5,254.5 501.5,254.5C 505.555,254.176 509.555,254.509 513.5,255.5C 513.058,256.739 512.391,257.739 511.5,258.5C 508.232,257.178 504.565,256.511 500.5,256.5C 496.435,256.511 492.768,257.178 489.5,258.5C 488.609,257.739 487.942,256.739 487.5,255.5C 491.107,254.511 494.774,254.177 498.5,254.5 Z"/></g>
<g><path style="opacity:1" fill="#fafafa" d="M 561.5,261.5 C 560.041,261.433 558.708,261.766 557.5,262.5C 557.5,260.833 557.5,259.167 557.5,257.5C 559.17,257.249 560.67,256.582 562,255.5C 562.678,257.598 562.511,259.598 561.5,261.5 Z"/></g>
<g><path style="opacity:1" fill="#c96100" d="M 409.5,264.5 C 408.876,264.917 408.543,265.584 408.5,266.5C 410.186,272.76 412.186,278.927 414.5,285C 414.265,285.873 413.931,286.707 413.5,287.5C 415.121,288.695 416.787,289.695 418.5,290.5C 421.329,293.489 421.996,296.822 420.5,300.5C 419.218,298.577 417.885,296.577 416.5,294.5C 415.914,294.709 415.414,295.043 415,295.5C 414.333,294.167 413.667,292.833 413,291.5C 412.768,292.737 412.268,293.737 411.5,294.5C 410.379,292.046 409.546,289.379 409,286.5C 407.981,285.313 406.814,284.313 405.5,283.5C 405.003,279.738 403.669,276.405 401.5,273.5C 403.175,269.116 402.842,265.116 400.5,261.5C 400.5,260.167 400.5,258.833 400.5,257.5C 402.816,256.64 405.149,256.14 407.5,256C 409.179,258.565 409.846,261.398 409.5,264.5 Z"/></g>
<g><path style="opacity:1" fill="#f9f9f9" d="M 511.5,258.5 C 510.5,258.833 509.833,259.5 509.5,260.5C 507.516,260.617 505.85,259.95 504.5,258.5C 503.261,258.942 502.261,259.609 501.5,260.5C 500.833,260.5 500.167,260.5 499.5,260.5C 496.796,258.281 493.796,257.948 490.5,259.5C 490.5,258.833 490.167,258.5 489.5,258.5C 492.768,257.178 496.435,256.511 500.5,256.5C 504.565,256.511 508.232,257.178 511.5,258.5 Z"/></g>
<g><path style="opacity:1" fill="#f3f0f0" d="M 552.5,256.5 C 552.5,257.833 552.5,259.167 552.5,260.5C 552.5,261.5 552.5,262.5 552.5,263.5C 550.833,263.5 549.167,263.5 547.5,263.5C 547.833,261.5 548.167,259.5 548.5,257.5C 549.708,256.766 551.041,256.433 552.5,256.5 Z"/></g>
<g><path style="opacity:1" fill="#28ab00" d="M 424.5,245.5 C 424.833,245.5 425.167,245.5 425.5,245.5C 426.207,247.231 427.207,248.897 428.5,250.5C 427.05,255.149 428.384,258.816 432.5,261.5C 431.696,262.941 431.029,264.441 430.5,266C 431.856,267.567 432.523,269.4 432.5,271.5C 431.5,271.5 430.5,271.5 429.5,271.5C 427.829,265.988 426.662,260.321 426,254.5C 423.341,251.882 422.841,248.882 424.5,245.5 Z"/></g>
<g><path style="opacity:1" fill="#70889e" d="M 524.5,242.5 C 523.185,247.68 523.185,253.014 524.5,258.5C 525.107,258.376 525.44,258.043 525.5,257.5C 527.802,258.822 530.135,258.822 532.5,257.5C 534.707,257.891 536.04,258.558 536.5,259.5C 533.615,259.194 530.948,259.527 528.5,260.5C 524.066,259.206 519.733,259.206 515.5,260.5C 514.475,260.103 514.308,259.437 515,258.5C 521.718,255.732 524.218,250.732 522.5,243.5C 522.345,240.147 523.012,239.814 524.5,242.5 Z"/></g>
<g><path style="opacity:1" fill="#dc192f" d="M 557.5,262.5 C 558.708,261.766 560.041,261.433 561.5,261.5C 562.833,262.833 562.833,264.167 561.5,265.5C 559.214,265.595 557.214,266.262 555.5,267.5C 554.661,268.641 553.994,269.974 553.5,271.5C 552.386,272.776 551.386,272.776 550.5,271.5C 550.5,271.167 550.5,270.833 550.5,270.5C 551.434,269.432 551.768,268.099 551.5,266.5C 549.833,266.5 548.167,266.5 546.5,266.5C 546.263,265.209 546.596,264.209 547.5,263.5C 549.167,263.5 550.833,263.5 552.5,263.5C 552.5,262.5 552.5,261.5 552.5,260.5C 553.404,259.791 553.737,258.791 553.5,257.5C 554.5,257.5 555.5,257.5 556.5,257.5C 556.149,260.041 556.482,261.708 557.5,262.5 Z"/></g>
<g><path style="opacity:1" fill="#863e4b" d="M 552.5,256.5 C 554.415,256.216 556.081,256.549 557.5,257.5C 557.5,259.167 557.5,260.833 557.5,262.5C 556.482,261.708 556.149,260.041 556.5,257.5C 555.5,257.5 554.5,257.5 553.5,257.5C 553.737,258.791 553.404,259.791 552.5,260.5C 552.5,259.167 552.5,257.833 552.5,256.5 Z"/></g>
<g><path style="opacity:1" fill="#f4f4f4" d="M 515.5,260.5 C 519.733,259.206 524.066,259.206 528.5,260.5C 528.027,261.906 527.027,262.573 525.5,262.5C 524.833,262.5 524.167,262.5 523.5,262.5C 523.189,261.522 522.522,260.855 521.5,260.5C 519.929,261.309 518.262,261.643 516.5,261.5C 516.5,260.833 516.167,260.5 515.5,260.5 Z"/></g>
<g><path style="opacity:1" fill="#efefef" d="M 528.5,260.5 C 530.948,259.527 533.615,259.194 536.5,259.5C 535.564,260.974 534.23,261.974 532.5,262.5C 530.938,262.267 529.605,261.6 528.5,260.5 Z"/></g>
<g><path style="opacity:1" fill="#563100" d="M 439.5,252.5 C 444.731,261.959 449.731,271.626 454.5,281.5C 450.955,280.776 447.788,278.776 445,275.5C 442.15,269.767 439.984,263.767 438.5,257.5C 439.309,255.929 439.643,254.262 439.5,252.5 Z"/></g>
<g><path style="opacity:1" fill="#8ec3fd" d="M 511.5,281.5 C 510.078,281.709 508.745,282.209 507.5,283C 505.934,285.326 504.268,287.492 502.5,289.5C 502.5,284.5 502.5,279.5 502.5,274.5C 502.5,269.833 502.5,265.167 502.5,260.5C 504.124,260.36 505.29,261.027 506,262.5C 507.993,268.807 509.826,275.141 511.5,281.5 Z"/></g>
<g><path style="opacity:1" fill="#f1f1f1" d="M 486.5,262.5 C 486.579,263.93 486.246,265.264 485.5,266.5C 482.66,267.187 479.993,267.521 477.5,267.5C 475.179,267.771 473.179,267.104 471.5,265.5C 468.66,266.203 465.993,267.203 463.5,268.5C 461.461,266.95 459.128,265.95 456.5,265.5C 456.414,264.504 456.748,263.671 457.5,263C 467.161,262.5 476.828,262.334 486.5,262.5 Z"/></g>
<g><path style="opacity:1" fill="#52708e" d="M 499.5,260.5 C 499.5,262.5 499.5,264.5 499.5,266.5C 498.835,264.631 498.169,262.631 497.5,260.5C 495.736,263.215 494.736,266.215 494.5,269.5C 492.023,269.949 490.023,269.283 488.5,267.5C 490.484,264.956 491.151,262.289 490.5,259.5C 493.796,257.948 496.796,258.281 499.5,260.5 Z"/></g>
<g><path style="opacity:1" fill="#324050" d="M 467.5,261.5 C 467.833,261.5 468.167,261.5 468.5,261.5C 469.167,261.5 469.833,261.5 470.5,261.5C 470.833,261.5 471.167,261.5 471.5,261.5C 476.695,261.179 481.695,261.513 486.5,262.5C 476.828,262.334 467.161,262.5 457.5,263C 456.748,263.671 456.414,264.504 456.5,265.5C 455.698,266.952 455.198,268.618 455,270.5C 454.727,268.899 454.227,267.399 453.5,266C 455.121,263.834 455.955,261.334 456,258.5C 456.483,259.448 456.649,260.448 456.5,261.5C 460.167,261.5 463.833,261.5 467.5,261.5 Z"/></g>
<g><path style="opacity:1" fill="#fbfbfb" d="M 561.5,265.5 C 561.938,269.908 559.938,271.575 555.5,270.5C 555.5,269.5 555.5,268.5 555.5,267.5C 557.214,266.262 559.214,265.595 561.5,265.5 Z"/></g>
<g><path style="opacity:1" fill="#499300" d="M 400.5,261.5 C 402.842,265.116 403.175,269.116 401.5,273.5C 400.624,273.631 399.957,273.298 399.5,272.5C 400.426,268.906 400.759,265.24 400.5,261.5 Z"/></g>
<g><path style="opacity:1" fill="#59799c" d="M 509.5,260.5 C 510.332,261.329 509.999,262.162 508.5,263C 509.825,262.852 510.992,263.018 512,263.5C 513.08,265.996 514.414,268.33 516,270.5C 516.735,268.129 517.568,265.795 518.5,263.5C 517.757,262.818 517.091,262.151 516.5,261.5C 518.262,261.643 519.929,261.309 521.5,260.5C 522.522,260.855 523.189,261.522 523.5,262.5C 523.5,267.167 523.5,271.833 523.5,276.5C 521.871,277.625 520.371,278.959 519,280.5C 518.667,280.167 518.333,279.833 518,279.5C 516.246,281.25 514.079,281.917 511.5,281.5C 509.826,275.141 507.993,268.807 506,262.5C 505.29,261.027 504.124,260.36 502.5,260.5C 502.5,265.167 502.5,269.833 502.5,274.5C 501.514,270.03 501.181,265.363 501.5,260.5C 502.261,259.609 503.261,258.942 504.5,258.5C 505.85,259.95 507.516,260.617 509.5,260.5 Z"/></g>
<g><path style="opacity:1" fill="#494949" d="M 572.5,223.5 C 572.833,223.5 573.167,223.5 573.5,223.5C 573.304,245.949 569.137,267.615 561,288.5C 567.41,267.38 571.243,245.713 572.5,223.5 Z"/></g>
<g><path style="opacity:1" fill="#fafafa" d="M 550.5,270.5 C 550.5,270.833 550.5,271.167 550.5,271.5C 547.192,273.284 545.525,272.284 545.5,268.5C 546.919,267.549 548.585,267.216 550.5,267.5C 550.5,268.5 550.5,269.5 550.5,270.5 Z"/></g>
<g><path style="opacity:1" fill="#d7d91c" d="M 499.5,260.5 C 500.167,260.5 500.833,260.5 501.5,260.5C 501.181,265.363 501.514,270.03 502.5,274.5C 502.5,279.5 502.5,284.5 502.5,289.5C 502.5,290.167 502.167,290.5 501.5,290.5C 500.833,283.833 500.167,277.167 499.5,270.5C 499.5,269.167 499.5,267.833 499.5,266.5C 499.5,264.5 499.5,262.5 499.5,260.5 Z"/></g>
<g><path style="opacity:1" fill="#27ad00" d="M 409.5,264.5 C 410.469,266.663 411.302,268.996 412,271.5C 413.736,273.063 415.236,274.73 416.5,276.5C 416.417,280.335 417.083,284.002 418.5,287.5C 418.5,288.5 418.5,289.5 418.5,290.5C 416.787,289.695 415.121,288.695 413.5,287.5C 413.931,286.707 414.265,285.873 414.5,285C 412.186,278.927 410.186,272.76 408.5,266.5C 408.543,265.584 408.876,264.917 409.5,264.5 Z"/></g>
<g><path style="opacity:1" fill="#a8ae25" d="M 523.5,262.5 C 524.167,262.5 524.833,262.5 525.5,262.5C 525.5,267.167 525.5,271.833 525.5,276.5C 524.833,276.5 524.167,276.5 523.5,276.5C 523.5,271.833 523.5,267.167 523.5,262.5 Z"/></g>
<g><path style="opacity:1" fill="#567595" d="M 477.5,267.5 C 476.722,268.156 476.056,268.989 475.5,270C 477,274.5 478.5,279 480,283.5C 481.252,281.999 482.252,280.332 483,278.5C 483.893,279.711 484.726,279.711 485.5,278.5C 486.392,275.716 487.558,273.05 489,270.5C 489.333,271.167 489.667,271.833 490,272.5C 490.71,271.027 491.876,270.36 493.5,270.5C 493.587,273.598 493.087,273.932 492,271.5C 491.333,272.833 490.667,274.167 490,275.5C 489.667,274.833 489.333,274.167 489,273.5C 486.728,276.489 487.561,277.822 491.5,277.5C 491.5,278.5 491.5,279.5 491.5,280.5C 489.41,280.45 488.077,281.45 487.5,283.5C 489.691,285.208 490.024,287.208 488.5,289.5C 492.107,290.489 495.774,290.823 499.5,290.5C 499.5,290.833 499.5,291.167 499.5,291.5C 490.127,291.752 480.793,291.418 471.5,290.5C 471.823,284.31 471.49,278.31 470.5,272.5C 470.785,270.712 470.452,269.045 469.5,267.5C 468.503,274.803 468.169,282.137 468.5,289.5C 465.219,289.58 462.219,288.913 459.5,287.5C 461.225,287.157 461.725,286.157 461,284.5C 459.913,286.932 459.413,286.598 459.5,283.5C 462.187,283.664 464.854,283.497 467.5,283C 465.19,282.503 462.857,282.337 460.5,282.5C 460.36,280.876 461.027,279.71 462.5,279C 461.483,277.951 461.316,276.784 462,275.5C 462.626,277.991 463.459,277.991 464.5,275.5C 465.987,280.657 466.653,280.324 466.5,274.5C 465.167,274.5 463.833,274.5 462.5,274.5C 462.36,272.876 463.027,271.71 464.5,271C 463.748,270.329 463.414,269.496 463.5,268.5C 465.993,267.203 468.66,266.203 471.5,265.5C 473.179,267.104 475.179,267.771 477.5,267.5 Z"/></g>
<g><path style="opacity:1" fill="#f4f400" d="M 470.5,272.5 C 471.117,278.598 470.45,284.265 468.5,289.5C 468.169,282.137 468.503,274.803 469.5,267.5C 470.452,269.045 470.785,270.712 470.5,272.5 Z"/></g>
<g><path style="opacity:1" fill="#22232a" d="M 548.5,257.5 C 548.167,259.5 547.833,261.5 547.5,263.5C 546.596,264.209 546.263,265.209 546.5,266.5C 548.167,266.5 549.833,266.5 551.5,266.5C 551.768,268.099 551.434,269.432 550.5,270.5C 550.5,269.5 550.5,268.5 550.5,267.5C 548.585,267.216 546.919,267.549 545.5,268.5C 544.784,270.556 544.117,272.723 543.5,275C 548.155,275.499 552.821,275.666 557.5,275.5C 557.447,278.14 556.78,280.64 555.5,283C 556.969,287.274 556.302,291.108 553.5,294.5C 553.756,292.063 554.423,289.729 555.5,287.5C 553.963,283.937 554.296,280.603 556.5,277.5C 551.208,276.505 545.875,276.172 540.5,276.5C 540.5,276.167 540.5,275.833 540.5,275.5C 541.801,274.116 541.801,272.616 540.5,271C 542.482,268.919 543.816,266.419 544.5,263.5C 544.167,262.833 543.833,262.167 543.5,261.5C 544.782,259.821 545.782,257.987 546.5,256C 547.816,255.472 548.483,255.972 548.5,257.5 Z"/></g>
<g><path style="opacity:1" fill="#597999" d="M 528.5,260.5 C 529.605,261.6 530.938,262.267 532.5,262.5C 532.414,263.496 532.748,264.329 533.5,265C 532.833,265.333 532.167,265.667 531.5,266C 532.91,266.368 533.91,267.201 534.5,268.5C 532.922,269.298 531.256,269.798 529.5,270C 531.577,270.192 533.577,270.692 535.5,271.5C 536.246,272.736 536.579,274.07 536.5,275.5C 537.833,275.5 539.167,275.5 540.5,275.5C 540.5,275.833 540.5,276.167 540.5,276.5C 540.167,276.5 539.833,276.5 539.5,276.5C 534.833,276.5 530.167,276.5 525.5,276.5C 525.5,271.833 525.5,267.167 525.5,262.5C 527.027,262.573 528.027,261.906 528.5,260.5 Z"/></g>
<g><path style="opacity:1" fill="#848e31" d="M 499.5,270.5 C 500.167,277.167 500.833,283.833 501.5,290.5C 501.158,291.338 500.492,291.672 499.5,291.5C 499.5,291.167 499.5,290.833 499.5,290.5C 499.5,283.833 499.5,277.167 499.5,270.5 Z"/></g>
<g><path style="opacity:1" fill="#76833e" d="M 470.5,272.5 C 471.49,278.31 471.823,284.31 471.5,290.5C 470.209,290.737 469.209,290.404 468.5,289.5C 470.45,284.265 471.117,278.598 470.5,272.5 Z"/></g>
<g><path style="opacity:1" fill="#9e4b01" d="M 539.5,276.5 C 539.833,276.5 540.167,276.5 540.5,276.5C 545.875,276.172 551.208,276.505 556.5,277.5C 554.296,280.603 553.963,283.937 555.5,287.5C 554.423,289.729 553.756,292.063 553.5,294.5C 550.326,294.719 548.493,296.385 548,299.5C 547.781,298.062 547.281,296.729 546.5,295.5C 545.066,297.22 544.233,299.22 544,301.5C 543.505,299.527 543.338,297.527 543.5,295.5C 542.167,295.5 540.833,295.5 539.5,295.5C 539.167,303.5 538.833,303.5 538.5,295.5C 536.833,295.5 535.167,295.5 533.5,295.5C 534.014,297.512 534.18,299.512 534,301.5C 532.872,299.655 532.372,297.655 532.5,295.5C 526.376,295.292 525.876,296.959 531,300.5C 531.667,301.167 531.667,301.833 531,302.5C 528.139,300.483 526.305,297.817 525.5,294.5C 524.442,293.4 523.608,292.066 523,290.5C 522.333,286.5 522.333,282.5 523,278.5C 528.6,277.854 534.1,277.187 539.5,276.5 Z"/></g>
<g><path style="opacity:1" fill="#0a0300" d="M 546.5,285.5 C 553.538,284.518 555.204,287.018 551.5,293C 549.527,293.495 547.527,293.662 545.5,293.5C 546.092,290.873 546.425,288.206 546.5,285.5 Z"/></g>
<g><path style="opacity:1" fill="#010000" d="M 539.5,286.5 C 541.167,286.5 542.833,286.5 544.5,286.5C 544.5,288.833 544.5,291.167 544.5,293.5C 542.833,293.5 541.167,293.5 539.5,293.5C 539.5,291.167 539.5,288.833 539.5,286.5 Z"/></g>
<g><path style="opacity:1" fill="#130800" d="M 532.5,286.5 C 534.5,286.5 536.5,286.5 538.5,286.5C 538.5,289.167 538.5,291.833 538.5,294.5C 536.533,294.739 534.699,294.406 533,293.5C 532.503,291.19 532.337,288.857 532.5,286.5 Z"/></g>
<g><path style="opacity:1" fill="#0c0400" d="M 525.5,294.5 C 524.908,291.873 524.575,289.206 524.5,286.5C 526.5,286.5 528.5,286.5 530.5,286.5C 530.575,289.206 530.908,291.873 531.5,294.5C 529.5,294.5 527.5,294.5 525.5,294.5 Z"/></g>
<g><path style="opacity:1" fill="#190b00" d="M 531.5,278.5 C 536.931,277.094 539.265,279.094 538.5,284.5C 536.167,284.5 533.833,284.5 531.5,284.5C 531.5,282.5 531.5,280.5 531.5,278.5 Z"/></g>
<g><path style="opacity:1" fill="#110600" d="M 523.5,279.5 C 527.833,278.685 530.166,280.352 530.5,284.5C 528.167,284.5 525.833,284.5 523.5,284.5C 523.5,282.833 523.5,281.167 523.5,279.5 Z"/></g>
<g><path style="opacity:1" fill="#0a0300" d="M 546.5,278.5 C 548.5,278.5 550.5,278.5 552.5,278.5C 552.5,280.5 552.5,282.5 552.5,284.5C 550.5,284.5 548.5,284.5 546.5,284.5C 546.5,282.5 546.5,280.5 546.5,278.5 Z"/></g>
<g><path style="opacity:1" fill="#100600" d="M 539.5,278.5 C 541.5,278.5 543.5,278.5 545.5,278.5C 545.5,280.5 545.5,282.5 545.5,284.5C 543.5,284.5 541.5,284.5 539.5,284.5C 539.5,282.5 539.5,280.5 539.5,278.5 Z"/></g>
<g><path style="opacity:1" fill="#111013" d="M 388.5,223.5 C 388.833,223.5 389.167,223.5 389.5,223.5C 389.5,224.167 389.833,224.5 390.5,224.5C 390.089,234.491 390.923,244.491 393,254.5C 396.809,280.603 406.975,303.77 423.5,324C 425.473,324.495 427.473,324.662 429.5,324.5C 429.082,325.222 428.416,325.722 427.5,326C 442.253,342.461 460.087,354.294 481,361.5C 485.21,360.493 489.044,358.826 492.5,356.5C 493.209,355.596 494.209,355.263 495.5,355.5C 506.63,350.025 516.63,343.025 525.5,334.5C 526.167,334.5 526.5,334.167 526.5,333.5C 526.5,332.833 526.833,332.5 527.5,332.5C 530.167,330.5 532.5,328.167 534.5,325.5C 535.167,325.5 535.5,325.167 535.5,324.5C 537.194,323.473 538.527,322.139 539.5,320.5C 539.369,321.239 539.536,321.906 540,322.5C 544.555,316.945 548.721,311.112 552.5,305C 551.906,304.536 551.239,304.369 550.5,304.5C 534.809,303.212 519.143,303.545 503.5,305.5C 502.5,305.5 501.5,305.5 500.5,305.5C 494.018,303.953 487.351,302.953 480.5,302.5C 477.389,304.185 474.056,304.685 470.5,304C 465.94,299.931 461.274,296.098 456.5,292.5C 456.5,291.167 455.833,290.5 454.5,290.5C 452.2,288.016 449.533,286.016 446.5,284.5C 441.833,281.5 437.167,278.5 432.5,275.5C 431.426,274.115 430.093,272.949 428.5,272C 428.728,271.601 429.062,271.435 429.5,271.5C 430.5,271.5 431.5,271.5 432.5,271.5C 435.549,273.863 438.882,275.863 442.5,277.5C 446.666,280.417 450.999,283.084 455.5,285.5C 455.56,286.043 455.893,286.376 456.5,286.5C 457.429,285.311 457.762,283.978 457.5,282.5C 458.167,284.167 458.833,285.833 459.5,287.5C 462.219,288.913 465.219,289.58 468.5,289.5C 469.209,290.404 470.209,290.737 471.5,290.5C 480.793,291.418 490.127,291.752 499.5,291.5C 500.492,291.672 501.158,291.338 501.5,290.5C 502.167,290.5 502.5,290.167 502.5,289.5C 504.268,287.492 505.934,285.326 507.5,283C 508.745,282.209 510.078,281.709 511.5,281.5C 514.079,281.917 516.246,281.25 518,279.5C 518.333,279.833 518.667,280.167 519,280.5C 520.371,278.959 521.871,277.625 523.5,276.5C 524.167,276.5 524.833,276.5 525.5,276.5C 530.167,276.5 534.833,276.5 539.5,276.5C 534.1,277.187 528.6,277.854 523,278.5C 522.333,282.5 522.333,286.5 523,290.5C 523.608,292.066 524.442,293.4 525.5,294.5C 526.305,297.817 528.139,300.483 531,302.5C 531.667,301.833 531.667,301.167 531,300.5C 525.876,296.959 526.376,295.292 532.5,295.5C 532.372,297.655 532.872,299.655 534,301.5C 534.18,299.512 534.014,297.512 533.5,295.5C 535.167,295.5 536.833,295.5 538.5,295.5C 538.833,303.5 539.167,303.5 539.5,295.5C 540.833,295.5 542.167,295.5 543.5,295.5C 543.338,297.527 543.505,299.527 544,301.5C 544.233,299.22 545.066,297.22 546.5,295.5C 547.281,296.729 547.781,298.062 548,299.5C 548.493,296.385 550.326,294.719 553.5,294.5C 553.586,295.496 553.252,296.329 552.5,297C 548.696,298.494 549.029,299.328 553.5,299.5C 555.335,298.878 556.502,297.544 557,295.5C 557.062,297.115 557.229,298.448 557.5,299.5C 545.899,323.937 528.232,342.77 504.5,356C 496.95,360.193 489.116,363.693 481,366.5C 445.213,353.872 419.047,330.538 402.5,296.5C 403.097,296.265 403.43,295.765 403.5,295C 394.154,272.094 389.154,248.261 388.5,223.5 Z"/></g>
<g><path style="opacity:1" fill="#a95000" d="M 512.5,283.5 C 513.167,286.5 513.833,289.5 514.5,292.5C 516.167,292.5 517.833,292.5 519.5,292.5C 519.5,291.5 519.5,290.5 519.5,289.5C 519.833,289.5 520.167,289.5 520.5,289.5C 520.48,291.143 521.147,292.476 522.5,293.5C 521.624,294.251 520.624,294.751 519.5,295C 501.808,295.825 484.142,295.491 466.5,294C 465.062,293.781 463.729,293.281 462.5,292.5C 462.833,292.167 463.167,291.833 463.5,291.5C 476.41,293.492 489.41,293.992 502.5,293C 503.328,291.008 504.661,289.508 506.5,288.5C 507.288,285.379 509.288,283.712 512.5,283.5 Z"/></g>
<g><path style="opacity:1" fill="#27ae00" d="M 420.5,300.5 C 422.116,302.416 421.782,303.916 419.5,305C 420.357,305.689 421.023,306.522 421.5,307.5C 423.693,307.662 426.026,308.328 428.5,309.5C 428.5,310.5 428.5,311.5 428.5,312.5C 429.822,312.67 430.989,312.337 432,311.5C 432.601,312.965 432.101,313.965 430.5,314.5C 428.436,312.739 426.269,312.405 424,313.5C 423.059,311.939 421.892,310.605 420.5,309.5C 419.478,309.855 418.811,310.522 418.5,311.5C 417.019,308.393 415.852,305.059 415,301.5C 411.956,300.197 410.789,297.864 411.5,294.5C 412.268,293.737 412.768,292.737 413,291.5C 413.667,292.833 414.333,294.167 415,295.5C 415.414,295.043 415.914,294.709 416.5,294.5C 417.885,296.577 419.218,298.577 420.5,300.5 Z"/></g>
<g><path style="opacity:1" fill="#6e3403" d="M 512.5,283.5 C 514.948,282.527 517.615,282.194 520.5,282.5C 520.5,284.833 520.5,287.167 520.5,289.5C 520.167,289.5 519.833,289.5 519.5,289.5C 518.539,287.735 518.205,285.735 518.5,283.5C 517.178,283.33 516.011,283.663 515,284.5C 514.503,287.146 514.336,289.813 514.5,292.5C 513.833,289.5 513.167,286.5 512.5,283.5 Z"/></g>
<g><path style="opacity:1" fill="#050200" d="M 506.5,288.5 C 508.148,287.19 509.814,285.857 511.5,284.5C 512.484,287.428 512.817,290.428 512.5,293.5C 509.753,293.813 507.086,293.48 504.5,292.5C 505.63,291.378 506.297,290.044 506.5,288.5 Z"/></g>
<g><path style="opacity:1" fill="#030100" d="M 519.5,289.5 C 519.5,290.5 519.5,291.5 519.5,292.5C 517.833,292.5 516.167,292.5 514.5,292.5C 514.336,289.813 514.503,287.146 515,284.5C 516.011,283.663 517.178,283.33 518.5,283.5C 518.205,285.735 518.539,287.735 519.5,289.5 Z"/></g>
<g><path style="opacity:1" fill="#1eae00" d="M 433.5,279.5 C 436.885,283.568 440.718,287.234 445,290.5C 445.667,289.833 446.333,289.167 447,288.5C 447.893,289.711 448.726,289.711 449.5,288.5C 448.476,287.148 447.476,285.815 446.5,284.5C 449.533,286.016 452.2,288.016 454.5,290.5C 451.171,293.909 447.504,294.242 443.5,291.5C 441.999,292.752 440.332,293.752 438.5,294.5C 435.242,289.953 433.575,284.953 433.5,279.5 Z"/></g>
<g><path style="opacity:1" fill="#c46300" d="M 432.5,275.5 C 437.167,278.5 441.833,281.5 446.5,284.5C 447.476,285.815 448.476,287.148 449.5,288.5C 448.726,289.711 447.893,289.711 447,288.5C 446.333,289.167 445.667,289.833 445,290.5C 440.718,287.234 436.885,283.568 433.5,279.5C 431.862,278.295 431.529,276.962 432.5,275.5 Z"/></g>
<g><path style="opacity:1" fill="#11cd6a" d="M 456.5,304.5 C 455.735,304.077 454.902,303.743 454,303.5C 451.953,304.609 449.787,305.276 447.5,305.5C 447.5,305.167 447.5,304.833 447.5,304.5C 455.343,301.658 455.01,300.658 446.5,301.5C 444.998,300.917 443.665,300.084 442.5,299C 445.633,298.607 448.633,297.774 451.5,296.5C 455.424,297.648 459.258,298.981 463,300.5C 462.281,303.36 460.447,304.027 457.5,302.5C 456.702,302.957 456.369,303.624 456.5,304.5 Z"/></g>
<g><path style="opacity:1" fill="#007900" d="M 467.5,298.5 C 472.538,297.947 477.704,297.614 483,297.5C 485.526,298.064 488.026,298.731 490.5,299.5C 494.396,297.01 498.229,297.01 502,299.5C 505.981,296.84 509.981,296.84 514,299.5C 517.166,297.533 520.333,297.366 523.5,299C 520.097,299.1 516.93,299.934 514,301.5C 510,298.833 506,298.833 502,301.5C 498.202,298.878 494.368,298.878 490.5,301.5C 486.613,299.467 482.613,299.134 478.5,300.5C 475.009,298.906 471.342,298.239 467.5,298.5 Z"/></g>
<g><path style="opacity:1" fill="#346dbe" d="M 456.5,292.5 C 461.274,296.098 465.94,299.931 470.5,304C 474.056,304.685 477.389,304.185 480.5,302.5C 487.351,302.953 494.018,303.953 500.5,305.5C 492.315,307.531 483.982,307.864 475.5,306.5C 472.786,306.25 470.119,306.083 467.5,306C 472.742,307.811 472.408,308.811 466.5,309C 469.438,310.226 472.438,310.726 475.5,310.5C 476.251,311.573 477.251,311.74 478.5,311C 478.167,310.667 477.833,310.333 477.5,310C 478.833,309.667 480.167,309.333 481.5,309C 488.893,309.661 496.226,308.995 503.5,307C 504.738,306.31 504.738,305.81 503.5,305.5C 519.143,303.545 534.809,303.212 550.5,304.5C 548.512,307.651 546.345,310.651 544,313.5C 542.887,314.305 541.721,314.972 540.5,315.5C 541.048,316.688 541.381,317.855 541.5,319C 540.956,319.717 540.289,320.217 539.5,320.5C 538.527,322.139 537.194,323.473 535.5,324.5C 534.448,324.649 533.448,324.483 532.5,324C 529.203,320.141 524.87,319.808 519.5,323C 520.833,323.667 522.167,324.333 523.5,325C 519.125,325.653 515.292,324.487 512,321.5C 511.333,322.167 511.333,322.833 512,323.5C 513.255,324.211 514.421,325.044 515.5,326C 521.839,326.348 528.173,326.182 534.5,325.5C 532.5,328.167 530.167,330.5 527.5,332.5C 525.052,331.527 522.385,331.194 519.5,331.5C 517.694,330.976 516.028,330.309 514.5,329.5C 515.239,329.631 515.906,329.464 516.5,329C 515.062,328.781 513.729,328.281 512.5,327.5C 512.709,326.914 513.043,326.414 513.5,326C 510.553,325.888 509.22,324.388 509.5,321.5C 505.265,319.74 500.932,318.074 496.5,316.5C 492.875,319.38 488.875,320.213 484.5,319C 485.244,320.039 486.244,320.539 487.5,320.5C 487.611,321.117 487.944,321.617 488.5,322C 486.423,322.192 484.423,322.692 482.5,323.5C 485.066,324.606 487.4,324.273 489.5,322.5C 491.258,322.123 492.925,321.456 494.5,320.5C 497.558,322.141 500.892,322.974 504.5,323C 500.755,322.965 500.088,323.965 502.5,326C 499.953,326.66 497.453,326.493 495,325.5C 493.238,325.944 493.405,326.444 495.5,327C 493.833,327.333 492.167,327.667 490.5,328C 495.229,328.996 499.729,328.496 504,326.5C 505.44,328.046 507.273,328.879 509.5,329C 508.5,329.333 507.5,329.667 506.5,330C 508.154,330.608 509.821,331.108 511.5,331.5C 512.609,332.29 513.942,332.79 515.5,333C 514.833,333.333 514.167,333.667 513.5,334C 517.486,334.499 521.486,334.666 525.5,334.5C 516.63,343.025 506.63,350.025 495.5,355.5C 494.048,354.698 492.382,354.198 490.5,354C 493.66,352.629 496.994,351.629 500.5,351C 502.679,350.558 503.345,349.558 502.5,348C 503.5,347.667 504.5,347.333 505.5,347C 500.845,346.829 496.178,346.996 491.5,347.5C 487.144,347.476 483.144,346.309 479.5,344C 481.657,342.71 483.99,341.876 486.5,341.5C 491.141,342.231 495.807,342.564 500.5,342.5C 501.265,342.077 502.098,341.743 503,341.5C 506.622,344.295 510.122,344.129 513.5,341C 506.598,340.211 499.931,338.878 493.5,337C 494.328,337.915 495.328,338.581 496.5,339C 495.906,339.464 495.239,339.631 494.5,339.5C 491.138,339.93 488.305,338.93 486,336.5C 483.765,338.202 481.265,339.202 478.5,339.5C 478.5,340.5 478.5,341.5 478.5,342.5C 476.473,342.338 474.473,342.505 472.5,343C 473.888,343.889 473.722,344.389 472,344.5C 469.667,343.833 467.333,343.167 465,342.5C 462.362,344.049 459.529,345.215 456.5,346C 463.443,347.186 470.443,347.519 477.5,347C 476.833,347.333 476.167,347.667 475.5,348C 477.833,348.333 480.167,348.667 482.5,349C 482.616,350.268 482.949,351.602 483.5,353C 478.515,352.781 473.515,352.781 468.5,353C 474.04,354.554 479.706,355.554 485.5,356C 483.385,356.424 482.552,357.591 483,359.5C 485.757,357.205 488.923,356.205 492.5,356.5C 489.044,358.826 485.21,360.493 481,361.5C 460.087,354.294 442.253,342.461 427.5,326C 428.416,325.722 429.082,325.222 429.5,324.5C 431.343,323.717 433.343,323.05 435.5,322.5C 438.249,323.489 440.249,322.489 441.5,319.5C 443.991,321.058 446.657,322.058 449.5,322.5C 449.56,316.705 448.893,311.039 447.5,305.5C 449.787,305.276 451.953,304.609 454,303.5C 454.902,303.743 455.735,304.077 456.5,304.5C 456.369,303.624 456.702,302.957 457.5,302.5C 460.447,304.027 462.281,303.36 463,300.5C 459.258,298.981 455.424,297.648 451.5,296.5C 448.633,297.774 445.633,298.607 442.5,299C 443.665,300.084 444.998,300.917 446.5,301.5C 455.01,300.658 455.343,301.658 447.5,304.5C 444.471,302.458 441.471,300.458 438.5,298.5C 437.833,298.5 437.5,298.167 437.5,297.5C 440.574,294.374 444.241,293.708 448.5,295.5C 451.183,294.49 453.849,293.49 456.5,292.5 Z"/></g>
<g><path style="opacity:1" fill="#21b582" d="M 456.5,304.5 C 459.247,304.187 461.914,304.52 464.5,305.5C 463.098,306.842 463.431,307.676 465.5,308C 463.567,308.251 461.734,308.751 460,309.5C 459.743,307.093 458.576,305.427 456.5,304.5 Z"/></g>
<g><path style="opacity:1" fill="#1ab681" d="M 514.5,306.5 C 517.976,305.357 521.642,305.19 525.5,306C 524.737,306.944 523.737,307.444 522.5,307.5C 519.885,306.731 517.219,306.397 514.5,306.5 Z"/></g>
<g><path style="opacity:1" fill="#15c86f" d="M 543.5,304.5 C 544.873,304.343 546.207,304.51 547.5,305C 542.509,309.094 537.176,309.928 531.5,307.5C 533.799,305.231 536.466,304.898 539.5,306.5C 541.026,306.006 542.359,305.339 543.5,304.5 Z"/></g>
<g><path style="opacity:1" fill="#10cd6b" d="M 475.5,306.5 C 476.354,308.035 476.354,309.368 475.5,310.5C 472.438,310.726 469.438,310.226 466.5,309C 472.408,308.811 472.742,307.811 467.5,306C 470.119,306.083 472.786,306.25 475.5,306.5 Z"/></g>
<g><path style="opacity:1" fill="#22b780" d="M 500.5,305.5 C 501.5,305.5 502.5,305.5 503.5,305.5C 504.738,305.81 504.738,306.31 503.5,307C 496.226,308.995 488.893,309.661 481.5,309C 480.167,309.333 478.833,309.667 477.5,310C 477.833,310.333 478.167,310.667 478.5,311C 477.251,311.74 476.251,311.573 475.5,310.5C 476.354,309.368 476.354,308.035 475.5,306.5C 483.982,307.864 492.315,307.531 500.5,305.5 Z"/></g>
<g><path style="opacity:1" fill="#17324e" d="M 514.5,306.5 C 517.465,307.626 520.465,308.626 523.5,309.5C 519.833,309.5 516.167,309.5 512.5,309.5C 513.598,308.603 513.598,307.77 512.5,307C 513.094,306.536 513.761,306.369 514.5,306.5 Z"/></g>
<g><path style="opacity:1" fill="#20ba7c" d="M 454.5,310.5 C 454.167,310.5 453.833,310.5 453.5,310.5C 452.142,311.626 450.808,311.626 449.5,310.5C 452.303,308.729 455.303,307.896 458.5,308C 457.142,308.934 455.808,309.768 454.5,310.5 Z"/></g>
<g><path style="opacity:1" fill="#0cd167" d="M 512.5,309.5 C 516.167,309.5 519.833,309.5 523.5,309.5C 526.167,310.167 528.833,310.833 531.5,311.5C 534.5,312.167 537.5,312.833 540.5,313.5C 540.5,314.167 540.5,314.833 540.5,315.5C 536.202,316.2 531.869,316.533 527.5,316.5C 525.331,315.828 522.998,315.828 520.5,316.5C 518.801,316.66 517.134,316.494 515.5,316C 516.056,315.617 516.389,315.117 516.5,314.5C 515.041,314.567 513.708,314.234 512.5,313.5C 510.735,312.539 508.735,312.205 506.5,312.5C 506.167,312.5 505.833,312.5 505.5,312.5C 502.375,311.521 499.042,311.187 495.5,311.5C 501.066,310.793 506.732,310.126 512.5,309.5 Z"/></g>
<g><path style="opacity:1" fill="#c56200" d="M 428.5,309.5 C 430.144,309.286 431.644,309.62 433,310.5C 434.759,313.608 435.592,316.941 435.5,320.5C 433.097,320.607 431.264,319.607 430,317.5C 428.512,319.82 426.679,319.987 424.5,318C 421.706,316.465 419.706,314.298 418.5,311.5C 418.811,310.522 419.478,309.855 420.5,309.5C 421.892,310.605 423.059,311.939 424,313.5C 426.269,312.405 428.436,312.739 430.5,314.5C 432.101,313.965 432.601,312.965 432,311.5C 430.989,312.337 429.822,312.67 428.5,312.5C 428.5,311.5 428.5,310.5 428.5,309.5 Z"/></g>
<g><path style="opacity:1" fill="#09bf5c" d="M 550.5,304.5 C 551.239,304.369 551.906,304.536 552.5,305C 548.721,311.112 544.555,316.945 540,322.5C 539.536,321.906 539.369,321.239 539.5,320.5C 540.289,320.217 540.956,319.717 541.5,319C 541.381,317.855 541.048,316.688 540.5,315.5C 541.721,314.972 542.887,314.305 544,313.5C 546.345,310.651 548.512,307.651 550.5,304.5 Z"/></g>
<g><path style="opacity:1" fill="#0f1625" d="M 453.5,310.5 C 453.833,310.5 454.167,310.5 454.5,310.5C 457.353,311.953 460.353,313.119 463.5,314C 459.235,315.245 455.902,314.078 453.5,310.5 Z"/></g>
<g><path style="opacity:1" fill="#26a691" d="M 495.5,311.5 C 499.042,311.187 502.375,311.521 505.5,312.5C 501.453,312.305 497.453,312.638 493.5,313.5C 491.5,313 489.5,312.5 487.5,312C 488.872,311.598 490.205,311.098 491.5,310.5C 492.736,311.246 494.07,311.579 495.5,311.5 Z"/></g>
<g><path style="opacity:1" fill="#1ba691" d="M 531.5,311.5 C 534.898,311.18 538.232,311.513 541.5,312.5C 541.376,313.107 541.043,313.44 540.5,313.5C 537.5,312.833 534.5,312.167 531.5,311.5 Z"/></g>
<g><path style="opacity:1" fill="#317fb6" d="M 516.5,314.5 C 517.427,312.524 518.76,312.191 520.5,313.5C 519.311,314.429 517.978,314.762 516.5,314.5 Z"/></g>
<g><path style="opacity:1" fill="#12cc6c" d="M 479.5,315.5 C 477.5,316.167 475.5,316.833 473.5,317.5C 472.209,317.737 471.209,317.404 470.5,316.5C 470.938,316.565 471.272,316.399 471.5,316C 469.956,315.71 468.623,315.044 467.5,314C 468,313.833 468.5,313.667 469,313.5C 472.333,314.833 475.667,314.833 479,313.5C 480.684,313.683 480.85,314.35 479.5,315.5 Z"/></g>
<g><path style="opacity:1" fill="#23a096" d="M 506.5,312.5 C 508.735,312.205 510.735,312.539 512.5,313.5C 506.792,313.492 506.459,313.992 511.5,315C 508.833,315.667 506.167,315.667 503.5,315C 504.571,314.148 505.571,313.315 506.5,312.5 Z"/></g>
<g><path style="opacity:1" fill="#1eae88" d="M 470.5,316.5 C 471.209,317.404 472.209,317.737 473.5,317.5C 473.5,318.167 473.167,318.5 472.5,318.5C 465.841,318.046 459.174,317.713 452.5,317.5C 452.5,316.5 452.5,315.5 452.5,314.5C 455.598,314.413 455.932,314.913 453.5,316C 459.157,316.499 464.824,316.666 470.5,316.5 Z"/></g>
<g><path style="opacity:1" fill="#1b314f" d="M 476.5,319.5 C 475.791,320.404 474.791,320.737 473.5,320.5C 471.801,320.66 470.134,320.494 468.5,320C 470.058,319.79 471.391,319.29 472.5,318.5C 473.167,318.5 473.5,318.167 473.5,317.5C 475.5,316.833 477.5,316.167 479.5,315.5C 482.342,314.388 485.008,314.888 487.5,317C 483.317,315.674 479.65,316.508 476.5,319.5 Z"/></g>
<g><path style="opacity:1" fill="#11cd6b" d="M 514.5,329.5 C 513.778,330.551 512.778,331.218 511.5,331.5C 509.821,331.108 508.154,330.608 506.5,330C 507.5,329.667 508.5,329.333 509.5,329C 507.273,328.879 505.44,328.046 504,326.5C 499.729,328.496 495.229,328.996 490.5,328C 492.167,327.667 493.833,327.333 495.5,327C 493.405,326.444 493.238,325.944 495,325.5C 497.453,326.493 499.953,326.66 502.5,326C 500.088,323.965 500.755,322.965 504.5,323C 500.892,322.974 497.558,322.141 494.5,320.5C 492.925,321.456 491.258,322.123 489.5,322.5C 490.66,320.797 489.993,320.131 487.5,320.5C 486.244,320.539 485.244,320.039 484.5,319C 488.875,320.213 492.875,319.38 496.5,316.5C 500.932,318.074 505.265,319.74 509.5,321.5C 509.22,324.388 510.553,325.888 513.5,326C 513.043,326.414 512.709,326.914 512.5,327.5C 513.729,328.281 515.062,328.781 516.5,329C 515.906,329.464 515.239,329.631 514.5,329.5 Z"/></g>
<g><path style="opacity:1" fill="#2aa295" d="M 520.5,316.5 C 522.998,315.828 525.331,315.828 527.5,316.5C 528.952,317.302 530.618,317.802 532.5,318C 529.068,319.809 525.735,319.809 522.5,318C 523.167,317.667 523.833,317.333 524.5,317C 523.207,316.51 521.873,316.343 520.5,316.5 Z"/></g>
<g><path style="opacity:1" fill="#16c770" d="M 476.5,319.5 C 477.097,319.735 477.43,320.235 477.5,321C 476.281,323.001 474.947,324.834 473.5,326.5C 466.958,325.901 460.625,324.401 454.5,322C 453.304,321.346 453.304,320.846 454.5,320.5C 460.982,323.072 467.315,323.072 473.5,320.5C 474.791,320.737 475.791,320.404 476.5,319.5 Z"/></g>
<g><path style="opacity:1" fill="#12cc6b" d="M 535.5,324.5 C 535.5,325.167 535.167,325.5 534.5,325.5C 528.173,326.182 521.839,326.348 515.5,326C 514.421,325.044 513.255,324.211 512,323.5C 511.333,322.833 511.333,322.167 512,321.5C 515.292,324.487 519.125,325.653 523.5,325C 522.167,324.333 520.833,323.667 519.5,323C 524.87,319.808 529.203,320.141 532.5,324C 533.448,324.483 534.448,324.649 535.5,324.5 Z"/></g>
<g><path style="opacity:1" fill="#2b8fa7" d="M 487.5,320.5 C 489.993,320.131 490.66,320.797 489.5,322.5C 487.4,324.273 485.066,324.606 482.5,323.5C 484.423,322.692 486.423,322.192 488.5,322C 487.944,321.617 487.611,321.117 487.5,320.5 Z"/></g>
<g><path style="opacity:1" fill="#1ac573" d="M 440.5,323.5 C 447.335,324.957 447.668,326.291 441.5,327.5C 438.645,327.278 435.645,327.111 432.5,327C 435.231,325.828 437.898,324.661 440.5,323.5 Z"/></g>
<g><path style="opacity:1" fill="#14cc6b" d="M 479.5,336.5 C 477.194,336.993 474.861,337.326 472.5,337.5C 471.022,337.762 469.689,337.429 468.5,336.5C 468.624,335.893 468.957,335.56 469.5,335.5C 471.202,334.925 472.869,334.092 474.5,333C 472.866,332.506 471.199,332.34 469.5,332.5C 468.222,332.782 467.222,333.449 466.5,334.5C 462.423,334.983 460.09,333.316 459.5,329.5C 461.75,329.819 463.75,329.319 465.5,328C 462.879,327.094 463.046,326.594 466,326.5C 468.477,326.998 470.977,327.331 473.5,327.5C 477.865,326.818 482.198,326.318 486.5,326C 487.167,326.333 487.833,326.667 488.5,327C 487.167,327.667 487.167,328.333 488.5,329C 485.313,330.348 482.313,332.014 479.5,334C 480.598,334.77 480.598,335.603 479.5,336.5 Z"/></g>
<g><path style="opacity:1" fill="#1a2c50" d="M 457.5,326.5 C 460.152,327.294 459.985,327.96 457,328.5C 453.861,329.426 450.694,329.592 447.5,329C 451.038,328.465 454.372,327.632 457.5,326.5 Z"/></g>
<g><path style="opacity:1" fill="#17c672" d="M 505.5,332.5 C 504.957,332.56 504.624,332.893 504.5,333.5C 506.843,334.275 509.177,334.942 511.5,335.5C 513.308,335.491 514.975,335.991 516.5,337C 515.57,337.991 514.404,338.491 513,338.5C 509.849,337.907 506.682,337.407 503.5,337C 500.199,335.335 496.866,333.668 493.5,332C 496.525,331.639 499.525,331.139 502.5,330.5C 504.646,330.634 505.646,331.301 505.5,332.5 Z"/></g>
<g><path style="opacity:1" fill="#12c374" d="M 519.5,331.5 C 522.385,331.194 525.052,331.527 527.5,332.5C 526.833,332.5 526.5,332.833 526.5,333.5C 523.612,334.01 521.279,333.344 519.5,331.5 Z"/></g>
<g><path style="opacity:1" fill="#20b483" d="M 436.5,330.5 C 437.823,329.392 439.323,329.392 441,330.5C 442.136,331.783 443.469,332.783 445,333.5C 452.329,332.507 452.329,332.84 445,334.5C 441.61,334.21 438.777,332.877 436.5,330.5 Z"/></g>
<g><path style="opacity:1" fill="#2295a0" d="M 505.5,332.5 C 507.844,332.94 509.844,333.94 511.5,335.5C 509.177,334.942 506.843,334.275 504.5,333.5C 504.624,332.893 504.957,332.56 505.5,332.5 Z"/></g>
<g><path style="opacity:1" fill="#249a9b" d="M 514.5,329.5 C 516.028,330.309 517.694,330.976 519.5,331.5C 521.279,333.344 523.612,334.01 526.5,333.5C 526.5,334.167 526.167,334.5 525.5,334.5C 521.486,334.666 517.486,334.499 513.5,334C 514.167,333.667 514.833,333.333 515.5,333C 513.942,332.79 512.609,332.29 511.5,331.5C 512.778,331.218 513.778,330.551 514.5,329.5 Z"/></g>
<g><path style="opacity:1" fill="#317fb6" d="M 469.5,332.5 C 471.199,332.34 472.866,332.506 474.5,333C 472.869,334.092 471.202,334.925 469.5,335.5C 468.167,334.5 468.167,333.5 469.5,332.5 Z"/></g>
<g><path style="opacity:1" fill="#1a9783" d="M 469.5,332.5 C 468.167,333.5 468.167,334.5 469.5,335.5C 468.957,335.56 468.624,335.893 468.5,336.5C 469.689,337.429 471.022,337.762 472.5,337.5C 470.735,338.461 468.735,338.795 466.5,338.5C 466.082,337.778 465.416,337.278 464.5,337C 466.935,336.925 467.602,336.092 466.5,334.5C 467.222,333.449 468.222,332.782 469.5,332.5 Z"/></g>
<g><path style="opacity:1" fill="#060d13" d="M 479.5,336.5 C 477.852,337.927 475.852,338.76 473.5,339C 470.362,339.802 468.029,339.636 466.5,338.5C 468.735,338.795 470.735,338.461 472.5,337.5C 474.861,337.326 477.194,336.993 479.5,336.5 Z"/></g>
<g><path style="opacity:1" fill="#16c573" d="M 452.5,337.5 C 456.549,336.884 459.882,338.05 462.5,341C 458.135,340.542 453.802,340.708 449.5,341.5C 448.713,340.758 448.047,339.925 447.5,339C 449.382,338.802 451.048,338.302 452.5,337.5 Z"/></g>
<g><path style="opacity:1" fill="#19b780" d="M 500.5,342.5 C 498.844,340.94 496.844,339.94 494.5,339.5C 495.239,339.631 495.906,339.464 496.5,339C 495.328,338.581 494.328,337.915 493.5,337C 499.931,338.878 506.598,340.211 513.5,341C 510.122,344.129 506.622,344.295 503,341.5C 502.098,341.743 501.265,342.077 500.5,342.5 Z"/></g>
<g><path style="opacity:1" fill="#16284b" d="M 486.5,343.5 C 486.56,342.957 486.893,342.624 487.5,342.5C 490.095,343.851 492.762,345.017 495.5,346C 492.007,346.869 489.007,346.036 486.5,343.5 Z"/></g>
<g><path style="opacity:1" fill="#0ed068" d="M 494.5,339.5 C 496.844,339.94 498.844,340.94 500.5,342.5C 495.807,342.564 491.141,342.231 486.5,341.5C 483.99,341.876 481.657,342.71 479.5,344C 483.144,346.309 487.144,347.476 491.5,347.5C 496.178,346.996 500.845,346.829 505.5,347C 504.5,347.333 503.5,347.667 502.5,348C 503.345,349.558 502.679,350.558 500.5,351C 496.994,351.629 493.66,352.629 490.5,354C 492.382,354.198 494.048,354.698 495.5,355.5C 494.209,355.263 493.209,355.596 492.5,356.5C 488.923,356.205 485.757,357.205 483,359.5C 482.552,357.591 483.385,356.424 485.5,356C 479.706,355.554 474.04,354.554 468.5,353C 473.515,352.781 478.515,352.781 483.5,353C 482.949,351.602 482.616,350.268 482.5,349C 480.167,348.667 477.833,348.333 475.5,348C 476.167,347.667 476.833,347.333 477.5,347C 470.443,347.519 463.443,347.186 456.5,346C 459.529,345.215 462.362,344.049 465,342.5C 467.333,343.167 469.667,343.833 472,344.5C 473.722,344.389 473.888,343.889 472.5,343C 474.473,342.505 476.473,342.338 478.5,342.5C 478.5,341.5 478.5,340.5 478.5,339.5C 481.265,339.202 483.765,338.202 486,336.5C 488.305,338.93 491.138,339.93 494.5,339.5 Z"/></g>
</svg>
