<?xml version="1.0" encoding="UTF-8"?>
<!DOCTYPE svg PUBLIC "-//W3C//DTD SVG 1.1//EN" "http://www.w3.org/Graphics/SVG/1.1/DTD/svg11.dtd">
<svg xmlns="http://www.w3.org/2000/svg" version="1.1" width="640px" height="480px" style="shape-rendering:geometricPrecision; text-rendering:geometricPrecision; image-rendering:optimizeQuality; fill-rule:evenodd; clip-rule:evenodd" xmlns:xlink="http://www.w3.org/1999/xlink">
<g><path style="opacity:1" fill="#65cffe" d="M -0.5,-0.5 C 212.833,-0.5 426.167,-0.5 639.5,-0.5C 639.5,159.5 639.5,319.5 639.5,479.5C 426.167,479.5 212.833,479.5 -0.5,479.5C -0.5,319.5 -0.5,159.5 -0.5,-0.5 Z"/></g>
<g><path style="opacity:1" fill="#fcfdfd" d="M 479.5,434.5 C 464.794,418.092 450.794,401.092 437.5,383.5C 398.221,287.995 358.555,192.661 318.5,97.5C 279.445,192.33 240.778,287.33 202.5,382.5C 188.849,400.147 174.849,417.481 160.5,434.5C 212.579,303.596 265.246,172.929 318.5,42.5C 372.733,172.962 426.4,303.629 479.5,434.5 Z"/></g>
<g><path style="opacity:1" fill="#020201" d="M 437.5,383.5 C 398.08,335.68 358.413,288.013 318.5,240.5C 279.432,287.562 240.765,334.895 202.5,382.5C 240.778,287.33 279.445,192.33 318.5,97.5C 358.555,192.661 398.221,287.995 437.5,383.5 Z"/></g>
<g><path style="opacity:1" fill="#fecd00" d="M 437.5,383.5 C 450.794,401.092 464.794,418.092 479.5,434.5C 479.5,434.833 479.5,435.167 479.5,435.5C 436.833,436.167 394.167,436.833 351.5,437.5C 308.5,437.5 265.5,437.5 222.5,437.5C 201.327,437.831 180.327,437.497 159.5,436.5C 159.833,435.833 160.167,435.167 160.5,434.5C 174.849,417.481 188.849,400.147 202.5,382.5C 240.765,334.895 279.432,287.562 318.5,240.5C 358.413,288.013 398.08,335.68 437.5,383.5 Z"/></g>
<g><path style="opacity:1" fill="#eed234" d="M 479.5,435.5 C 480.043,435.56 480.376,435.893 480.5,436.5C 437.505,437.5 394.505,437.833 351.5,437.5C 394.167,436.833 436.833,436.167 479.5,435.5 Z"/></g>
<g><path style="opacity:1" fill="#89d2d8" d="M 159.5,436.5 C 180.327,437.497 201.327,437.831 222.5,437.5C 201.33,438.828 179.996,438.828 158.5,437.5C 158.624,436.893 158.957,436.56 159.5,436.5 Z"/></g>
</svg>
