<?xml version="1.0" encoding="UTF-8"?>
<!DOCTYPE svg PUBLIC "-//W3C//DTD SVG 1.1//EN" "http://www.w3.org/Graphics/SVG/1.1/DTD/svg11.dtd">
<svg xmlns="http://www.w3.org/2000/svg" version="1.1" width="640px" height="480px" style="shape-rendering:geometricPrecision; text-rendering:geometricPrecision; image-rendering:optimizeQuality; fill-rule:evenodd; clip-rule:evenodd" xmlns:xlink="http://www.w3.org/1999/xlink">
<g><path style="opacity:1" fill="#002b7f" d="M -0.5,-0.5 C 106.167,-0.5 212.833,-0.5 319.5,-0.5C 319.5,79.5 319.5,159.5 319.5,239.5C 212.833,239.5 106.167,239.5 -0.5,239.5C -0.5,159.5 -0.5,79.5 -0.5,-0.5 Z"/></g>
<g><path style="opacity:1" fill="#cd1125" d="M 319.5,-0.5 C 426.167,-0.5 532.833,-0.5 639.5,-0.5C 639.5,159.5 639.5,319.5 639.5,479.5C 426.167,479.5 212.833,479.5 -0.5,479.5C -0.5,399.5 -0.5,319.5 -0.5,239.5C 106.167,239.5 212.833,239.5 319.5,239.5C 319.5,159.5 319.5,79.5 319.5,-0.5 Z"/></g>
<g><path style="opacity:1" fill="#f7f8fb" d="M 159.5,10.5 C 162.438,16.4592 165.105,22.6258 167.5,29C 173.564,29.1946 179.564,29.8613 185.5,31C 180.833,35.3333 176.167,39.6667 171.5,44C 173.551,50.0291 174.717,56.1958 175,62.5C 169.699,59.3637 164.532,56.0304 159.5,52.5C 154.248,55.7087 149.082,59.042 144,62.5C 144.356,56.0647 145.522,49.7314 147.5,43.5C 142.875,39.1759 138.208,34.8426 133.5,30.5C 139.904,29.8547 146.238,28.8547 152.5,27.5C 155.036,21.8851 157.37,16.2184 159.5,10.5 Z"/></g>
<g><path style="opacity:1" fill="#f8f9fb" d="M 210.5,80.5 C 212.833,79.8333 215.167,79.1667 217.5,78.5C 221.106,78.7892 224.606,78.4558 228,77.5C 229.607,72.0116 231.607,66.6783 234,61.5C 236.496,66.9827 238.996,72.4827 241.5,78C 247.196,78.1701 252.862,78.6701 258.5,79.5C 254.482,83.3527 250.315,87.0194 246,90.5C 246.841,96.8637 247.841,103.197 249,109.5C 244,106.167 239,102.833 234,99.5C 229.586,102.624 225.086,105.624 220.5,108.5C 220.167,107.833 219.833,107.167 219.5,106.5C 221.005,101.156 222.172,95.8231 223,90.5C 218.959,86.9531 214.792,83.6198 210.5,80.5 Z"/></g>
<g><path style="opacity:1" fill="#f7f8fb" d="M 85.5,71.5 C 86.4972,71.4701 87.1639,71.9701 87.5,73C 89.5049,78.3501 91.5049,83.6834 93.5,89C 99.8634,89.3914 106.197,90.058 112.5,91C 108,94.8333 103.5,98.6667 99,102.5C 99.4344,108.416 100.601,114.25 102.5,120C 102.167,120.5 101.833,121 101.5,121.5C 96.5291,118.362 91.6958,115.028 87,111.5C 81.4928,114.92 76.1595,118.586 71,122.5C 71.7249,116.225 73.2249,110.058 75.5,104C 70.7194,99.4385 65.7194,95.1052 60.5,91C 66.9071,90.6754 73.2405,89.8421 79.5,88.5C 81.9053,82.9492 83.9053,77.2825 85.5,71.5 Z"/></g>
<g><path style="opacity:1" fill="#8597c1" d="M 217.5,78.5 C 215.167,79.1667 212.833,79.8333 210.5,80.5C 209.957,80.44 209.624,80.1067 209.5,79.5C 212.086,78.52 214.753,78.1866 217.5,78.5 Z"/></g>
<g><path style="opacity:1" fill="#f4f5f9" d="M 195.5,120.5 C 197.663,123.493 199.33,126.827 200.5,130.5C 204.384,131.841 208.384,132.675 212.5,133C 209.021,135.312 206.021,138.146 203.5,141.5C 205.329,145.11 205.996,148.777 205.5,152.5C 202.467,150.302 199.3,148.302 196,146.5C 193,148.5 190,150.5 187,152.5C 186.469,148.523 186.969,144.69 188.5,141C 185.797,137.962 182.797,135.295 179.5,133C 183.468,132.058 187.468,131.225 191.5,130.5C 192.849,127.141 194.182,123.808 195.5,120.5 Z"/></g>
<g><path style="opacity:1" fill="#f8f9fb" d="M 158.5,164.5 C 161.982,171.487 164.982,178.82 167.5,186.5C 175.419,187.995 183.419,188.829 191.5,189C 185.759,193.953 179.926,198.786 174,203.5C 175.261,211.94 176.928,220.273 179,228.5C 172.487,223.912 165.821,219.578 159,215.5C 152.591,219.289 146.424,223.456 140.5,228C 139.833,228.667 139.167,228.667 138.5,228C 141.145,220.292 143.478,212.458 145.5,204.5C 139.336,199.174 133.003,194.008 126.5,189C 134.516,188.523 142.516,187.856 150.5,187C 153.267,179.531 155.934,172.031 158.5,164.5 Z"/></g>
</svg>
