<?xml version="1.0" encoding="UTF-8"?>
<!DOCTYPE svg PUBLIC "-//W3C//DTD SVG 1.1//EN" "http://www.w3.org/Graphics/SVG/1.1/DTD/svg11.dtd">
<svg xmlns="http://www.w3.org/2000/svg" version="1.1" width="640px" height="480px" style="shape-rendering:geometricPrecision; text-rendering:geometricPrecision; image-rendering:optimizeQuality; fill-rule:evenodd; clip-rule:evenodd" xmlns:xlink="http://www.w3.org/1999/xlink">
<g><path style="opacity:1" fill="#12ad2a" d="M 0.5,-0.5 C 213.5,-0.5 426.5,-0.5 639.5,-0.5C 639.5,45.1667 639.5,90.8333 639.5,136.5C 472.167,136.5 304.833,136.5 137.5,136.5C 91.5,91.1667 45.8333,45.5 0.5,-0.5 Z"/></g>
<g><path style="opacity:1" fill="#d11233" d="M -0.5,-0.5 C -0.166667,-0.5 0.166667,-0.5 0.5,-0.5C 45.8333,45.5 91.5,91.1667 137.5,136.5C 171.479,170.812 205.479,205.146 239.5,239.5C 205.479,273.854 171.479,308.188 137.5,342.5C 91.5,387.833 45.8333,433.5 0.5,479.5C 0.166667,479.5 -0.166667,479.5 -0.5,479.5C -0.5,319.5 -0.5,159.5 -0.5,-0.5 Z"/></g>
<g><path style="opacity:1" fill="#fecd00" d="M 137.5,136.5 C 304.833,136.5 472.167,136.5 639.5,136.5C 639.5,205.167 639.5,273.833 639.5,342.5C 472.167,342.5 304.833,342.5 137.5,342.5C 171.479,308.188 205.479,273.854 239.5,239.5C 205.479,205.146 171.479,170.812 137.5,136.5 Z"/></g>
<g><path style="opacity:1" fill="#040200" d="M 366.5,217.5 C 382.833,218.167 399.167,218.833 415.5,219.5C 405.225,226.647 394.891,233.814 384.5,241C 381.328,243.006 378.662,245.506 376.5,248.5C 381.409,263.725 386.409,278.892 391.5,294C 377.756,285.179 364.256,275.679 351,265.5C 337.934,275.945 324.434,285.445 310.5,294C 316.564,278.479 321.398,262.645 325,246.5C 312.255,237.211 299.421,228.044 286.5,219C 302.833,218.667 319.167,218.333 335.5,218C 340.661,202.517 345.828,187.017 351,171.5C 356.476,186.761 361.643,202.095 366.5,217.5 Z"/></g>
<g><path style="opacity:1" fill="#040200" d="M 463.5,219.5 C 479.833,218.833 496.167,218.167 512.5,217.5C 517.357,202.095 522.524,186.761 528,171.5C 533.172,187.017 538.339,202.517 543.5,218C 559.833,218.333 576.167,218.667 592.5,219C 579.579,228.044 566.745,237.211 554,246.5C 553.333,247.833 553.333,249.167 554,250.5C 558.401,264.536 562.901,278.536 567.5,292.5C 567.167,292.833 566.833,293.167 566.5,293.5C 553.527,284.36 540.693,275.027 528,265.5C 514.744,275.679 501.244,285.179 487.5,294C 492.591,278.892 497.591,263.725 502.5,248.5C 490.357,237.692 477.357,228.025 463.5,219.5 Z"/></g>
<g><path style="opacity:1" fill="#cca500" d="M 366.5,217.5 C 383.18,217.167 399.847,217.501 416.5,218.5C 416.376,219.107 416.043,219.44 415.5,219.5C 399.167,218.833 382.833,218.167 366.5,217.5 Z"/></g>
<g><path style="opacity:1" fill="#cca500" d="M 512.5,217.5 C 496.167,218.167 479.833,218.833 463.5,219.5C 462.957,219.44 462.624,219.107 462.5,218.5C 479.153,217.501 495.82,217.167 512.5,217.5 Z"/></g>
<g><path style="opacity:1" fill="#12ad2a" d="M 137.5,342.5 C 304.833,342.5 472.167,342.5 639.5,342.5C 639.5,388.167 639.5,433.833 639.5,479.5C 426.5,479.5 213.5,479.5 0.5,479.5C 45.8333,433.5 91.5,387.833 137.5,342.5 Z"/></g>
</svg>
