<?xml version="1.0" encoding="UTF-8"?>
<!DOCTYPE svg PUBLIC "-//W3C//DTD SVG 1.1//EN" "http://www.w3.org/Graphics/SVG/1.1/DTD/svg11.dtd">
<svg xmlns="http://www.w3.org/2000/svg" version="1.1" width="640px" height="480px" style="shape-rendering:geometricPrecision; text-rendering:geometricPrecision; image-rendering:optimizeQuality; fill-rule:evenodd; clip-rule:evenodd" xmlns:xlink="http://www.w3.org/1999/xlink">
<g><path style="opacity:1" fill="#165d31" d="M -0.5,-0.5 C 212.833,-0.5 426.167,-0.5 639.5,-0.5C 639.5,159.5 639.5,319.5 639.5,479.5C 426.167,479.5 212.833,479.5 -0.5,479.5C -0.5,319.5 -0.5,159.5 -0.5,-0.5 Z"/></g>
<g><path style="opacity:1" fill="#ebf1ed" d="M 267.5,113.5 C 268.675,113.281 269.675,113.614 270.5,114.5C 268.506,116.816 267.506,119.482 267.5,122.5C 268.675,122.281 269.675,122.614 270.5,123.5C 267.231,129.002 264.564,128.836 262.5,123C 263.259,119.313 264.926,116.146 267.5,113.5 Z"/></g>
<g><path style="opacity:1" fill="#f7f9f7" d="M 328.5,125.5 C 328.616,128.91 326.95,130.244 323.5,129.5C 324.783,135.471 326.45,141.304 328.5,147C 330.5,147.667 332.5,147.667 334.5,147C 336.158,145.337 338.158,144.504 340.5,144.5C 339.626,149.408 337.293,153.574 333.5,157C 332.552,157.483 331.552,157.649 330.5,157.5C 330.5,155.833 330.5,154.167 330.5,152.5C 329.448,152.351 328.448,152.517 327.5,153C 325.743,155.846 323.743,158.512 321.5,161C 318.167,161.667 314.833,161.667 311.5,161C 309.692,158.162 307.358,155.995 304.5,154.5C 300.716,157.109 297.049,159.943 293.5,163C 287.011,164.824 282.511,162.657 280,156.5C 279.077,151.521 278.244,146.521 277.5,141.5C 276.914,141.709 276.414,142.043 276,142.5C 274.486,147.56 272.819,152.56 271,157.5C 265.271,161.006 260.938,159.673 258,153.5C 254.552,144.737 253.719,135.737 255.5,126.5C 257.124,126.36 258.29,127.027 259,128.5C 260.215,133.791 261.215,139.124 262,144.5C 262.197,146.861 263.364,148.528 265.5,149.5C 267.684,143.51 270.184,137.51 273,131.5C 275.167,128.667 277.333,125.833 279.5,123C 281.903,122.37 283.737,123.203 285,125.5C 285.333,132.5 285.667,139.5 286,146.5C 291.008,153.34 295.675,153.007 300,145.5C 301.056,137.616 300.223,129.95 297.5,122.5C 300.139,111.226 303.306,110.893 307,121.5C 307.294,129.202 307.96,136.869 309,144.5C 309.484,149.986 312.317,151.819 317.5,150C 319.918,146.042 320.085,141.875 318,137.5C 316.587,134.339 314.92,131.339 313,128.5C 311.345,123.063 312.845,118.897 317.5,116C 320.096,115.542 322.263,116.375 324,118.5C 325.524,120.898 327.024,123.231 328.5,125.5 Z"/></g>
<g><path style="opacity:1" fill="#e7efea" d="M 290.5,114.5 C 293.488,114.155 294.821,115.488 294.5,118.5C 293.983,123.07 292.316,127.07 289.5,130.5C 288.914,130.291 288.414,129.957 288,129.5C 287.121,124.187 287.955,119.187 290.5,114.5 Z"/></g>
<g><path style="opacity:1" fill="#f9fbf9" d="M 328.5,125.5 C 328.335,122.15 328.502,118.817 329,115.5C 331.647,114.536 334.147,115.036 336.5,117C 340.043,119.842 343.21,123.009 346,126.5C 346.21,123.766 347.044,121.266 348.5,119C 350.387,118.837 351.887,119.671 353,121.5C 356.521,126.542 359.521,131.875 362,137.5C 362.667,138.833 362.667,140.167 362,141.5C 360.513,140.259 359.68,140.759 359.5,143C 360.24,147.849 361.074,152.683 362,157.5C 370.678,170.181 378.344,183.514 385,197.5C 385.939,202.681 385.606,207.681 384,212.5C 377.586,200.671 370.92,189.004 364,177.5C 363.667,191.167 363.333,204.833 363,218.5C 362.186,222.48 360.019,225.48 356.5,227.5C 356.121,204.418 354.621,181.418 352,158.5C 344.304,147.319 336.47,136.319 328.5,125.5 Z"/></g>
<g><path style="opacity:1" fill="#f3f7f5" d="M 148.5,116.5 C 155.382,116.887 157.882,120.553 156,127.5C 155.902,129.619 155.069,131.286 153.5,132.5C 152.363,126.92 150.696,121.587 148.5,116.5 Z"/></g>
<g><path style="opacity:1" fill="#eef3f0" d="M 193.5,126.5 C 184.762,129.569 181.095,126.736 182.5,118C 184.113,117.911 185.28,118.745 186,120.5C 187.55,116.636 189.05,116.636 190.5,120.5C 191.386,119.675 191.719,118.675 191.5,117.5C 192.833,117.5 194.167,117.5 195.5,117.5C 195.793,120.754 195.126,123.754 193.5,126.5 Z"/></g>
<g><path style="opacity:1" fill="#f5f8f6" d="M 233.5,149.5 C 229.958,149.813 226.625,149.479 223.5,148.5C 230.17,142.733 237.004,137.066 244,131.5C 243.983,129.432 242.983,127.766 241,126.5C 239.357,121.089 241.19,118.089 246.5,117.5C 251.999,117.513 253.832,120.18 252,125.5C 248.923,127.302 248.757,129.302 251.5,131.5C 246.479,138.521 240.479,144.521 233.5,149.5 Z"/></g>
<g><path style="opacity:1" fill="#f8faf8" d="M 193.5,126.5 C 199.322,126.136 203.155,128.803 205,134.5C 205.093,130.159 205.093,125.826 205,121.5C 206.864,118.793 209.364,117.959 212.5,119C 216.691,125.247 219.024,131.914 219.5,139C 218.207,139.49 216.873,139.657 215.5,139.5C 216.277,149.881 217.444,160.214 219,170.5C 219.308,171.308 219.808,171.975 220.5,172.5C 225.493,171.046 227.493,173.046 226.5,178.5C 228.262,178.643 229.929,178.309 231.5,177.5C 232.818,174.35 234.984,172.017 238,170.5C 240.053,172.25 241.886,174.25 243.5,176.5C 243.768,171.904 246.102,169.238 250.5,168.5C 250.691,173.899 250.191,179.233 249,184.5C 245.024,187.743 240.524,188.41 235.5,186.5C 232.616,188.798 229.283,190.131 225.5,190.5C 223.407,190.514 221.574,189.848 220,188.5C 222.961,219.714 208.795,237.048 177.5,240.5C 163.47,239.635 156.47,232.135 156.5,218C 156.323,213.618 157.156,209.452 159,205.5C 160.579,204.2 161.745,204.534 162.5,206.5C 163.135,227.251 173.301,233.918 193,226.5C 207.363,218.776 213.529,206.776 211.5,190.5C 209.369,195.672 207.535,201.005 206,206.5C 198.644,221.433 187.144,226.266 171.5,221C 165.575,215.497 163.242,208.664 164.5,200.5C 164.618,197.312 165.451,194.312 167,191.5C 167.718,190.549 168.551,190.383 169.5,191C 170.913,196.766 172.08,202.599 173,208.5C 174.709,211.387 177.209,212.721 180.5,212.5C 189.313,210.847 196.479,206.514 202,199.5C 204.769,193.417 203.603,191.917 198.5,195C 190.098,197.581 186.098,194.581 186.5,186C 185.792,179.418 188.458,174.751 194.5,172C 196.833,171.333 199.167,171.333 201.5,172C 204.113,174.088 206.613,176.254 209,178.5C 210.261,178.241 211.261,177.574 212,176.5C 210.742,162.778 208.742,149.112 206,135.5C 205.29,136.973 204.124,137.64 202.5,137.5C 203.551,141.827 204.718,146.16 206,150.5C 207.237,162.596 201.737,168.096 189.5,167C 187.217,163.925 184.383,163.092 181,164.5C 181.478,175.145 181.478,185.812 181,196.5C 180.917,201.056 178.751,203.722 174.5,204.5C 174,194.504 173.5,184.504 173,174.5C 172.5,173.333 171.667,172.5 170.5,172C 166.154,172.081 162.987,170.247 161,166.5C 160.831,159.144 160.331,151.811 159.5,144.5C 158.522,144.977 157.689,145.643 157,146.5C 156.667,151.5 156.333,156.5 156,161.5C 155.218,167.295 152.051,169.462 146.5,168C 143.333,164.845 141.499,161.012 141,156.5C 140.169,149.476 140.336,142.476 141.5,135.5C 142.799,136.09 143.632,137.09 144,138.5C 144.756,145.199 146.59,151.533 149.5,157.5C 150.799,156.91 151.632,155.91 152,154.5C 152.262,147.786 153.928,141.453 157,135.5C 159.817,130.857 162.817,130.523 166,134.5C 166.333,141.5 166.667,148.5 167,155.5C 169.758,158.297 171.258,157.631 171.5,153.5C 170.164,144.488 168.83,135.488 167.5,126.5C 167.667,124.167 167.833,121.833 168,119.5C 171.915,117.711 174.248,119.044 175,123.5C 175.73,133.268 177.063,142.935 179,152.5C 180.297,153.784 181.464,153.617 182.5,152C 177.716,144.668 176.55,136.834 179,128.5C 179.725,127.941 180.558,127.608 181.5,127.5C 183.829,128.998 185.663,130.998 187,133.5C 188.593,138.81 188.926,144.143 188,149.5C 191.007,153.252 194.84,155.252 199.5,155.5C 199.662,153.473 199.495,151.473 199,149.5C 196.473,145.779 194.473,141.779 193,137.5C 192.322,133.779 192.489,130.112 193.5,126.5 Z"/></g>
<g><path style="opacity:1" fill="#f0f5f2" d="M 365.5,118.5 C 370.092,117.916 372.925,119.916 374,124.5C 374.891,129.598 373.891,134.265 371,138.5C 371.483,132.471 369.483,127.471 365,123.5C 364.36,121.735 364.527,120.068 365.5,118.5 Z"/></g>
<g><path style="opacity:1" fill="#f7f9f8" d="M 383.5,117.5 C 384.496,117.414 385.329,117.748 386,118.5C 389.898,124.284 392.065,130.617 392.5,137.5C 391.5,137.5 390.5,137.5 389.5,137.5C 390.604,149.869 392.104,162.202 394,174.5C 394.667,187.833 394.667,201.167 394,214.5C 390.729,224.558 384.896,232.724 376.5,239C 372.738,241.156 368.738,241.823 364.5,241C 362.423,239.924 361.09,238.257 360.5,236C 366.308,232.593 371.974,228.927 377.5,225C 381.036,221.799 384.203,218.299 387,214.5C 386.084,186.42 383.917,158.42 380.5,130.5C 380.667,128.167 380.833,125.833 381,123.5C 382.122,121.593 382.955,119.593 383.5,117.5 Z"/></g>
<g><path style="opacity:1" fill="#f6f9f7" d="M 398.5,119.5 C 399.376,119.369 400.043,119.702 400.5,120.5C 404.393,126.952 407.726,133.619 410.5,140.5C 409.167,140.5 407.833,140.5 406.5,140.5C 409.723,160.227 412.056,180.06 413.5,200C 414.111,207.171 412.944,214.004 410,220.5C 409.311,221.357 408.478,222.023 407.5,222.5C 405.88,194.538 402.046,166.872 396,139.5C 394.88,132.528 395.713,125.862 398.5,119.5 Z"/></g>
<g><path style="opacity:1" fill="#f9faf9" d="M 438.5,131.5 C 439.914,133.138 439.58,134.472 437.5,135.5C 438.174,137.517 439.341,139.183 441,140.5C 440.711,134.879 440.544,129.212 440.5,123.5C 441.479,120.843 443.146,120.177 445.5,121.5C 448.54,127.523 451.54,133.523 454.5,139.5C 454.253,140.713 453.586,141.38 452.5,141.5C 452.44,140.957 452.107,140.624 451.5,140.5C 450.2,143.309 450.2,145.976 451.5,148.5C 452.55,155.26 455.717,160.926 461,165.5C 459.64,152.98 457.807,140.48 455.5,128C 455.334,122.651 457.667,120.485 462.5,121.5C 466.802,128.234 469.135,135.401 469.5,143C 468.552,143.483 467.552,143.649 466.5,143.5C 468.116,154.438 469.282,165.438 470,176.5C 475.667,185.5 481.333,194.5 487,203.5C 487.939,208.681 487.606,213.681 486,218.5C 482.672,212.353 479.172,206.353 475.5,200.5C 475.217,199.711 474.717,199.044 474,198.5C 473.501,202.486 473.334,206.486 473.5,210.5C 472.009,214.802 469.509,218.469 466,221.5C 465.815,209.134 465.148,196.801 464,184.5C 461.667,181.5 459.333,178.5 457,175.5C 456.866,189.535 456.199,203.535 455,217.5C 452.199,224.646 447.032,227.813 439.5,227C 434.786,224.65 430.453,221.817 426.5,218.5C 424.912,219.01 423.745,220.01 423,221.5C 421.949,227.038 420.283,232.372 418,237.5C 415.79,240.29 412.956,241.123 409.5,240C 401.477,235.122 397.81,227.955 398.5,218.5C 398.319,214.935 398.985,211.602 400.5,208.5C 401.167,211.167 401.833,213.833 402.5,216.5C 402.894,220.406 404.06,224.072 406,227.5C 408.075,229.648 410.408,229.982 413,228.5C 416.261,220.143 420.427,212.31 425.5,205C 427.167,204.333 428.833,204.333 430.5,205C 433.407,208.151 436.074,211.484 438.5,215C 441.025,215.896 443.192,215.396 445,213.5C 446.867,209.369 447.7,205.036 447.5,200.5C 446.271,187.192 445.438,173.858 445,160.5C 438.424,152.346 432.091,144.013 426,135.5C 425.061,130.319 425.394,125.319 427,120.5C 431.335,123.669 435.168,127.336 438.5,131.5 Z"/></g>
<g><path style="opacity:1" fill="#23653b" d="M 244.5,122.5 C 246.384,122.712 247.717,123.712 248.5,125.5C 245.581,126.932 244.248,125.932 244.5,122.5 Z"/></g>
<g><path style="opacity:1" fill="#f7f9f8" d="M 483.5,122.5 C 489.054,127.747 493.054,134.081 495.5,141.5C 494.167,141.5 492.833,141.5 491.5,141.5C 492.672,152.205 494.172,162.872 496,173.5C 496.942,190.553 496.609,207.553 495,224.5C 492.86,233.307 487.36,238.807 478.5,241C 475.139,241.337 471.806,241.837 468.5,242.5C 465.918,242.253 465.085,240.92 466,238.5C 469.91,234.792 474.41,231.958 479.5,230C 482.933,226.958 485.766,223.458 488,219.5C 488.101,190.467 485.601,161.634 480.5,133C 480.778,129.281 481.778,125.781 483.5,122.5 Z"/></g>
<g><path style="opacity:1" fill="#edf3ef" d="M 471.5,130.5 C 475.07,130.901 477.236,132.901 478,136.5C 478.667,140.167 478.667,143.833 478,147.5C 477.902,149.619 477.069,151.286 475.5,152.5C 474.675,148.878 474.175,145.211 474,141.5C 470.793,138.29 469.96,134.624 471.5,130.5 Z"/></g>
<g><path style="opacity:1" fill="#3b754f" d="M 344.5,131.5 C 345.5,131.5 346.5,131.5 347.5,131.5C 347.569,137.742 346.569,137.742 344.5,131.5 Z"/></g>
<g><path style="opacity:1" fill="#548665" d="M 440.5,123.5 C 440.544,129.212 440.711,134.879 441,140.5C 439.341,139.183 438.174,137.517 437.5,135.5C 439.58,134.472 439.914,133.138 438.5,131.5C 439.167,128.833 439.833,126.167 440.5,123.5 Z"/></g>
<g><path style="opacity:1" fill="#eaf1ec" d="M 375.5,145.5 C 377.89,145.685 378.89,147.018 378.5,149.5C 378.097,153.969 375.597,156.302 371,156.5C 365.391,155.444 363.558,152.278 365.5,147C 367.135,146.46 368.468,146.96 369.5,148.5C 371.465,145.88 372.965,146.214 374,149.5C 374.41,148.099 374.91,146.766 375.5,145.5 Z"/></g>
<g><path style="opacity:1" fill="#eef3f0" d="M 241.5,147.5 C 242.5,147.5 243.5,147.5 244.5,147.5C 244.5,150.167 244.5,152.833 244.5,155.5C 251.814,152.688 252.481,154.188 246.5,160C 239.475,160.867 236.975,157.7 239,150.5C 240.045,149.627 240.878,148.627 241.5,147.5 Z"/></g>
<g><path style="opacity:1" fill="#a0bdab" d="M 452.5,141.5 C 451.532,143.607 451.198,145.941 451.5,148.5C 450.2,145.976 450.2,143.309 451.5,140.5C 452.107,140.624 452.44,140.957 452.5,141.5 Z"/></g>
<g><path style="opacity:1" fill="#f7f9f8" d="M 428.5,148.5 C 434.572,148.268 437.239,151.268 436.5,157.5C 434.856,157.286 433.356,157.62 432,158.5C 431.501,162.821 431.334,167.154 431.5,171.5C 426.082,169.606 421.582,166.272 418,161.5C 417.231,158.901 417.398,156.401 418.5,154C 420.167,153.333 421.833,153.333 423.5,154C 424.308,155.706 425.641,156.539 427.5,156.5C 427.279,153.721 427.612,151.054 428.5,148.5 Z"/></g>
<g><path style="opacity:1" fill="#659476" d="M 223.5,148.5 C 226.625,149.479 229.958,149.813 233.5,149.5C 229.981,150.808 226.315,150.808 222.5,149.5C 222.624,148.893 222.957,148.56 223.5,148.5 Z"/></g>
<g><path style="opacity:1" fill="#f9fbfa" d="M 274.5,161.5 C 279.106,162.637 281.94,165.637 283,170.5C 286.248,178.161 287.915,186.161 288,194.5C 290.032,196.768 291.365,196.102 292,192.5C 299.328,186.164 307.828,182.331 317.5,181C 318.095,176.471 318.928,171.971 320,167.5C 326.891,159.701 333.557,160.035 340,168.5C 342.756,179.25 338.923,186.417 328.5,190C 324.398,190.858 320.398,192.025 316.5,193.5C 328.482,194.499 340.482,194.832 352.5,194.5C 350.247,198.835 348.914,203.502 348.5,208.5C 337.672,211.397 326.672,213.564 315.5,215C 312.42,216.711 311.254,219.211 312,222.5C 314.744,225.125 317.911,227.125 321.5,228.5C 323.537,232.782 322.371,235.448 318,236.5C 304.324,235.166 293.324,229.166 285,218.5C 279.9,223.6 274.733,228.767 269.5,234C 262.982,239.625 255.649,241.291 247.5,239C 243.183,236.685 240.35,233.185 239,228.5C 230.996,232.057 222.83,235.224 214.5,238C 212.421,238.808 210.421,238.641 208.5,237.5C 217.595,229.444 227.595,222.61 238.5,217C 240.69,211.606 243.356,206.439 246.5,201.5C 247.318,204.107 247.818,206.774 248,209.5C 252.667,205.5 257.333,201.5 262,197.5C 264.943,189.695 262.943,183.362 256,178.5C 255.333,175.167 255.333,171.833 256,168.5C 259.979,164.356 263.645,164.69 267,169.5C 269.287,172.072 270.453,175.072 270.5,178.5C 268.891,178.094 267.557,178.094 266.5,178.5C 272.896,190.814 271.396,202.147 262,212.5C 257.952,216.216 253.618,219.55 249,222.5C 248.157,226.827 249.99,228.827 254.5,228.5C 257.433,228.534 260.1,227.701 262.5,226C 269.729,220.77 275.562,214.27 280,206.5C 280.667,201.833 280.667,197.167 280,192.5C 278.231,185.63 275.898,178.964 273,172.5C 272.013,168.525 272.513,164.859 274.5,161.5 Z"/></g>
<g><path style="opacity:1" fill="#eef3f0" d="M 297.5,166.5 C 299.592,166.561 301.092,167.561 302,169.5C 302.483,168.552 302.649,167.552 302.5,166.5C 303.5,166.5 304.5,166.5 305.5,166.5C 306.167,170.5 306.833,170.5 307.5,166.5C 308.822,166.33 309.989,166.663 311,167.5C 311.729,175.09 308.229,177.923 300.5,176C 297.814,173.454 296.814,170.287 297.5,166.5 Z"/></g>
<g><path style="opacity:1" fill="#f3f6f4" d="M 440.5,171.5 C 441.693,171.97 442.36,172.97 442.5,174.5C 440.487,179.355 437.154,183.189 432.5,186C 429.294,188.034 425.96,189.867 422.5,191.5C 421.359,189.579 421.192,187.579 422,185.5C 428.067,180.586 434.234,175.919 440.5,171.5 Z"/></g>
<g><path style="opacity:1" fill="#26663c" d="M 325.5,173.5 C 328.588,173.197 330.254,174.53 330.5,177.5C 327.05,178.244 325.384,176.91 325.5,173.5 Z"/></g>
<g><path style="opacity:1" fill="#f3f7f4" d="M 162.5,176.5 C 164.857,176.337 167.19,176.503 169.5,177C 171.515,178.555 171.848,180.389 170.5,182.5C 161.378,186.561 152.378,190.894 143.5,195.5C 142.959,193.477 143.459,191.477 145,189.5C 150.134,184.038 155.967,179.704 162.5,176.5 Z"/></g>
<g><path style="opacity:1" fill="#306d45" d="M 194.5,181.5 C 198.138,180.737 199.638,182.07 199,185.5C 194.415,187.413 192.915,186.079 194.5,181.5 Z"/></g>
<g><path style="opacity:1" fill="#f1f5f2" d="M 436.5,184.5 C 437.822,184.33 438.989,184.663 440,185.5C 444.803,192.772 444.636,199.772 439.5,206.5C 438.853,200.488 437.52,194.655 435.5,189C 435.605,187.408 435.939,185.908 436.5,184.5 Z"/></g>
<g><path style="opacity:1" fill="#27673d" d="M 162.5,206.5 C 163.167,204.5 163.833,202.5 164.5,200.5C 163.242,208.664 165.575,215.497 171.5,221C 187.144,226.266 198.644,221.433 206,206.5C 207.535,201.005 209.369,195.672 211.5,190.5C 213.529,206.776 207.363,218.776 193,226.5C 173.301,233.918 163.135,227.251 162.5,206.5 Z"/></g>
<g><path style="opacity:1" fill="#f0f4f1" d="M 230.5,194.5 C 236.804,194.737 239.638,198.07 239,204.5C 238.527,206.779 237.527,208.779 236,210.5C 236.485,205.269 234.819,200.935 231,197.5C 230.517,196.552 230.351,195.552 230.5,194.5 Z"/></g>
<g><path style="opacity:1" fill="#7ca48b" d="M 475.5,200.5 C 474.833,203.833 474.167,207.167 473.5,210.5C 473.334,206.486 473.501,202.486 474,198.5C 474.717,199.044 475.217,199.711 475.5,200.5 Z"/></g>
<g><path style="opacity:1" fill="#1e6136" d="M 292.5,202.5 C 299.428,203.102 306.261,204.102 313,205.5C 313.617,206.449 313.451,207.282 312.5,208C 305.572,209.597 302.572,213.93 303.5,221C 296.474,218.622 292.14,213.622 290.5,206C 290.978,204.697 291.645,203.531 292.5,202.5 Z"/></g>
<g><path style="opacity:1" fill="#8baf99" d="M 402.5,216.5 C 401.833,213.833 401.167,211.167 400.5,208.5C 400.783,207.711 401.283,207.044 402,206.5C 402.498,209.817 402.665,213.15 402.5,216.5 Z"/></g>
<g><path style="opacity:1" fill="#f2f6f3" d="M 143.5,209.5 C 143.332,215.502 143.666,221.669 144.5,228C 144.833,228.5 145.167,229 145.5,229.5C 148.106,225.33 150.106,225.496 151.5,230C 150.929,234.324 148.762,237.491 145,239.5C 139.472,237.45 137.305,233.45 138.5,227.5C 138.546,221.031 140.213,215.031 143.5,209.5 Z"/></g>
<g><path style="opacity:1" fill="#f0f4f1" d="M 335.5,220.5 C 336.5,220.5 337.5,220.5 338.5,220.5C 338.223,223.448 338.556,226.281 339.5,229C 342.757,227.114 346.424,226.281 350.5,226.5C 350.5,227.833 350.5,229.167 350.5,230.5C 346.092,231.534 341.759,232.868 337.5,234.5C 336.558,234.392 335.725,234.059 335,233.5C 334.506,231.866 334.34,230.199 334.5,228.5C 332.833,228.5 331.167,228.5 329.5,228.5C 329.351,227.448 329.517,226.448 330,225.5C 331.812,223.7 333.645,222.033 335.5,220.5 Z"/></g>
<g><path style="opacity:1" fill="#f0f4f1" d="M 456.5,225.5 C 458.857,225.337 461.19,225.503 463.5,226C 464.354,227.881 464.021,229.714 462.5,231.5C 464.045,232.452 465.712,232.785 467.5,232.5C 467.703,234.39 467.037,235.89 465.5,237C 462.178,239.332 458.511,240.498 454.5,240.5C 455.141,237.503 456.475,234.837 458.5,232.5C 458.075,230.62 457.075,229.12 455.5,228C 455.743,227.098 456.077,226.265 456.5,225.5 Z"/></g>
<g><path style="opacity:1" fill="#f7f9f8" d="M 395.5,338.5 C 398.976,339.643 402.642,339.81 406.5,339C 405.956,338.283 405.289,337.783 404.5,337.5C 403.978,329.628 406.644,327.962 412.5,332.5C 412.756,334.792 412.423,336.959 411.5,339C 421.349,339.992 431.182,340.159 441,339.5C 447.044,339.54 450.71,342.54 452,348.5C 452.996,353.229 452.496,357.729 450.5,362C 447.008,365.068 443.675,365.068 440.5,362C 431.17,361.166 421.836,360.833 412.5,361C 410.191,364.286 408.024,364.119 406,360.5C 404.178,356.897 404.011,353.23 405.5,349.5C 370.835,349.13 336.168,348.797 301.5,348.5C 274.641,348.321 247.808,348.988 221,350.5C 207.818,352.002 196.985,347.835 188.5,338C 201.158,337.949 213.825,338.116 226.5,338.5C 282.837,335.864 339.171,335.864 395.5,338.5 Z"/></g>
<g><path style="opacity:1" fill="#85aa93" d="M 404.5,337.5 C 405.289,337.783 405.956,338.283 406.5,339C 402.642,339.81 398.976,339.643 395.5,338.5C 398.713,338.81 401.713,338.477 404.5,337.5 Z"/></g>
<g><path style="opacity:1" fill="#1a5f34" d="M 411.5,351.5 C 420.506,351.334 429.506,351.5 438.5,352C 439.833,353 439.833,354 438.5,355C 434.432,355.846 430.599,355.346 427,353.5C 422.064,355.29 416.898,355.957 411.5,355.5C 411.5,354.167 411.5,352.833 411.5,351.5 Z"/></g>
</svg>
