<?xml version="1.0" encoding="UTF-8"?>
<!DOCTYPE svg PUBLIC "-//W3C//DTD SVG 1.1//EN" "http://www.w3.org/Graphics/SVG/1.1/DTD/svg11.dtd">
<svg xmlns="http://www.w3.org/2000/svg" version="1.1" width="640px" height="480px" style="shape-rendering:geometricPrecision; text-rendering:geometricPrecision; image-rendering:optimizeQuality; fill-rule:evenodd; clip-rule:evenodd" xmlns:xlink="http://www.w3.org/1999/xlink">
<g><path style="opacity:1" fill="#0b7225" d="M -0.5,-0.5 C 70.5,-0.5 141.5,-0.5 212.5,-0.5C 212.5,159.5 212.5,319.5 212.5,479.5C 141.5,479.5 70.5,479.5 -0.5,479.5C -0.5,319.5 -0.5,159.5 -0.5,-0.5 Z"/></g>
<g><path style="opacity:1" fill="#fefe00" d="M 212.5,-0.5 C 283.5,-0.5 354.5,-0.5 425.5,-0.5C 425.5,159.5 425.5,319.5 425.5,479.5C 354.5,479.5 283.5,479.5 212.5,479.5C 212.5,319.5 212.5,159.5 212.5,-0.5 Z"/></g>
<g><path style="opacity:1" fill="#bc0100" d="M 425.5,-0.5 C 496.833,-0.5 568.167,-0.5 639.5,-0.5C 639.5,159.5 639.5,319.5 639.5,479.5C 568.167,479.5 496.833,479.5 425.5,479.5C 425.5,319.5 425.5,159.5 425.5,-0.5 Z"/></g>
<g><path style="opacity:1" fill="#0f7325" d="M 341.5,217.5 C 365.167,218.167 388.833,218.833 412.5,219.5C 393.464,233.351 374.798,247.685 356.5,262.5C 364.16,285.189 370.826,307.856 376.5,330.5C 357.857,316.358 339.357,302.025 321,287.5C 302.589,301.289 284.089,314.955 265.5,328.5C 270.846,306.602 277.179,284.769 284.5,263C 282.326,259.899 279.659,257.232 276.5,255C 260.673,243.335 245.006,231.501 229.5,219.5C 252.5,218.833 275.5,218.167 298.5,217.5C 305.508,193.976 313.008,170.643 321,147.5C 327.941,170.821 334.775,194.155 341.5,217.5 Z"/></g>
<g><path style="opacity:1" fill="#cce208" d="M 298.5,217.5 C 275.5,218.167 252.5,218.833 229.5,219.5C 228.957,219.44 228.624,219.107 228.5,218.5C 251.824,217.5 275.157,217.167 298.5,217.5 Z"/></g>
<g><path style="opacity:1" fill="#cee307" d="M 341.5,217.5 C 365.509,217.167 389.509,217.5 413.5,218.5C 413.376,219.107 413.043,219.44 412.5,219.5C 388.833,218.833 365.167,218.167 341.5,217.5 Z"/></g>
</svg>
