<?xml version="1.0" encoding="UTF-8"?>
<!DOCTYPE svg PUBLIC "-//W3C//DTD SVG 1.1//EN" "http://www.w3.org/Graphics/SVG/1.1/DTD/svg11.dtd">
<svg xmlns="http://www.w3.org/2000/svg" version="1.1" width="640px" height="480px" style="shape-rendering:geometricPrecision; text-rendering:geometricPrecision; image-rendering:optimizeQuality; fill-rule:evenodd; clip-rule:evenodd" xmlns:xlink="http://www.w3.org/1999/xlink">
<g><path style="opacity:1" fill="#003d87" d="M -0.5,-0.5 C 70.5,-0.5 141.5,-0.5 212.5,-0.5C 141.833,158.833 71.1667,318.167 0.5,477.5C 0.166667,477.5 -0.166667,477.5 -0.5,477.5C -0.5,318.167 -0.5,158.833 -0.5,-0.5 Z"/></g>
<g><path style="opacity:1" fill="#fbd855" d="M 212.5,-0.5 C 283.5,-0.5 354.5,-0.5 425.5,-0.5C 284.547,159.454 142.88,318.787 0.5,477.5C 71.1667,318.167 141.833,158.833 212.5,-0.5 Z"/></g>
<g><path style="opacity:1" fill="#d92223" d="M 425.5,-0.5 C 496.833,-0.5 568.167,-0.5 639.5,-0.5C 639.5,52.8333 639.5,106.167 639.5,159.5C 427.644,265.261 215.977,371.261 4.5,477.5C 2.96497,478.354 1.63163,478.354 0.5,477.5C 142.88,318.787 284.547,159.454 425.5,-0.5 Z"/></g>
<g><path style="opacity:1" fill="#fefefe" d="M 639.5,159.5 C 639.5,212.833 639.5,266.167 639.5,319.5C 427.869,372.324 216.202,424.991 4.5,477.5C 215.977,371.261 427.644,265.261 639.5,159.5 Z"/></g>
<g><path style="opacity:1" fill="#027a39" d="M 639.5,319.5 C 639.5,372.833 639.5,426.167 639.5,479.5C 426.167,479.5 212.833,479.5 -0.5,479.5C -0.5,478.833 -0.5,478.167 -0.5,477.5C -0.166667,477.5 0.166667,477.5 0.5,477.5C 1.63163,478.354 2.96497,478.354 4.5,477.5C 216.202,424.991 427.869,372.324 639.5,319.5 Z"/></g>
</svg>
