<?xml version="1.0" encoding="UTF-8"?>
<!DOCTYPE svg PUBLIC "-//W3C//DTD SVG 1.1//EN" "http://www.w3.org/Graphics/SVG/1.1/DTD/svg11.dtd">
<svg xmlns="http://www.w3.org/2000/svg" version="1.1" width="640px" height="480px" style="shape-rendering:geometricPrecision; text-rendering:geometricPrecision; image-rendering:optimizeQuality; fill-rule:evenodd; clip-rule:evenodd" xmlns:xlink="http://www.w3.org/1999/xlink">
<g><path style="opacity:1" fill="#df0000" d="M -0.5,-0.5 C 212.833,-0.5 426.167,-0.5 639.5,-0.5C 639.5,79.5 639.5,159.5 639.5,239.5C 426.167,239.5 212.833,239.5 -0.5,239.5C -0.5,159.5 -0.5,79.5 -0.5,-0.5 Z"/></g>
<g><path style="opacity:1" fill="#fefcfc" d="M 110.5,36.5 C 116.842,36.3338 123.175,36.5005 129.5,37C 134.437,37.0604 139.104,38.0604 143.5,40C 107.186,50.9809 85.6862,75.1475 79,112.5C 77.3048,153.963 95.1381,183.463 132.5,201C 136.773,202.535 141.106,203.869 145.5,205C 104.947,213.798 72.7806,201.298 49,167.5C 27.4409,125.641 33.6076,88.4739 67.5,56C 80.4206,46.2032 94.7539,39.7032 110.5,36.5 Z"/></g>
<g><path style="opacity:1" fill="#fef3f3" d="M 170.5,51.5 C 171.497,51.4701 172.164,51.9701 172.5,53C 173.735,56.8709 175.068,60.7042 176.5,64.5C 181.467,65.329 186.467,65.829 191.5,66C 187.644,69.357 183.644,72.5237 179.5,75.5C 181.54,80.4438 183.04,85.4438 184,90.5C 180.252,86.9188 176.085,83.9188 171.5,81.5C 167.579,84.0434 163.746,86.7101 160,89.5C 160.118,84.7972 161.285,80.2972 163.5,76C 159.532,72.675 155.532,69.3417 151.5,66C 156.533,65.829 161.533,65.329 166.5,64.5C 168.242,60.2746 169.576,55.9413 170.5,51.5 Z"/></g>
<g><path style="opacity:1" fill="#fef7f7" d="M 129.5,99.5 C 134.167,100.167 138.833,100.833 143.5,101.5C 139.709,104.118 136.043,106.951 132.5,110C 134.708,114.281 135.875,118.781 136,123.5C 132.254,120.71 128.421,118.043 124.5,115.5C 120.579,118.043 116.746,120.71 113,123.5C 113.125,118.781 114.292,114.281 116.5,110C 112.783,106.615 108.783,103.615 104.5,101C 109.489,100.501 114.489,100.334 119.5,100.5C 120.378,95.5315 122.045,90.8648 124.5,86.5C 126.368,90.774 128.035,95.1074 129.5,99.5 Z"/></g>
<g><path style="opacity:1" fill="#fef7f6" d="M 198.5,101.5 C 203.167,100.833 207.833,100.167 212.5,99.5C 214.326,94.8966 216.159,90.2299 218,85.5C 219.81,90.4287 221.31,95.4287 222.5,100.5C 227.511,100.334 232.511,100.501 237.5,101C 233.912,103.377 230.412,105.877 227,108.5C 227.796,113.882 228.796,119.216 230,124.5C 226.098,121.132 221.931,118.132 217.5,115.5C 213.523,118.309 209.69,121.309 206,124.5C 206.596,119.612 207.763,114.778 209.5,110C 205.977,106.976 202.31,104.143 198.5,101.5 Z"/></g>
<g><path style="opacity:1" fill="#ed7676" d="M 129.5,99.5 C 134.544,99.1725 139.544,99.5059 144.5,100.5C 144.376,101.107 144.043,101.44 143.5,101.5C 138.833,100.833 134.167,100.167 129.5,99.5 Z"/></g>
<g><path style="opacity:1" fill="#ea5b5b" d="M 212.5,99.5 C 207.833,100.167 203.167,100.833 198.5,101.5C 197.957,101.44 197.624,101.107 197.5,100.5C 202.456,99.5059 207.456,99.1725 212.5,99.5 Z"/></g>
<g><path style="opacity:1" fill="#fef7f7" d="M 122.5,153.5 C 127.5,152.833 132.5,152.167 137.5,151.5C 138.493,146.687 139.993,142.02 142,137.5C 144.213,142.304 145.713,147.304 146.5,152.5C 151.511,152.334 156.511,152.501 161.5,153C 157.379,155.714 153.713,158.881 150.5,162.5C 151.634,166.568 152.967,170.568 154.5,174.5C 153.998,175.521 153.332,175.688 152.5,175C 149.264,172.132 145.764,169.632 142,167.5C 137.821,170.257 133.821,173.257 130,176.5C 130.621,171.783 131.788,167.116 133.5,162.5C 130.433,158.796 126.766,155.796 122.5,153.5 Z"/></g>
<g><path style="opacity:1" fill="#fef7f7" d="M 181.5,153.5 C 186.167,152.833 190.833,152.167 195.5,151.5C 196.697,147.078 198.197,142.744 200,138.5C 202.218,142.484 204.051,146.65 205.5,151C 210.5,151.333 215.5,151.667 220.5,152C 216.62,155.388 212.62,158.554 208.5,161.5C 210.617,166.001 211.784,170.668 212,175.5C 208.581,172.249 204.747,169.582 200.5,167.5C 196.253,169.582 192.419,172.249 189,175.5C 189.211,170.654 190.378,165.988 192.5,161.5C 188.815,158.809 185.148,156.142 181.5,153.5 Z"/></g>
<g><path style="opacity:1" fill="#eb5b5b" d="M 137.5,151.5 C 132.5,152.167 127.5,152.833 122.5,153.5C 121.957,153.44 121.624,153.107 121.5,152.5C 126.792,151.505 132.125,151.172 137.5,151.5 Z"/></g>
<g><path style="opacity:1" fill="#f5b4b3" d="M 195.5,151.5 C 190.833,152.167 186.167,152.833 181.5,153.5C 180.711,153.217 180.044,152.717 179.5,152C 184.823,151.501 190.156,151.334 195.5,151.5 Z"/></g>
<g><path style="opacity:1" fill="#fefffe" d="M -0.5,239.5 C 212.833,239.5 426.167,239.5 639.5,239.5C 639.5,319.5 639.5,399.5 639.5,479.5C 426.167,479.5 212.833,479.5 -0.5,479.5C -0.5,399.5 -0.5,319.5 -0.5,239.5 Z"/></g>
</svg>
