<?xml version="1.0" encoding="UTF-8"?>
<!DOCTYPE svg PUBLIC "-//W3C//DTD SVG 1.1//EN" "http://www.w3.org/Graphics/SVG/1.1/DTD/svg11.dtd">
<svg xmlns="http://www.w3.org/2000/svg" version="1.1" width="640px" height="480px" style="shape-rendering:geometricPrecision; text-rendering:geometricPrecision; image-rendering:optimizeQuality; fill-rule:evenodd; clip-rule:evenodd" xmlns:xlink="http://www.w3.org/1999/xlink">
<g><path style="opacity:1" fill="#ed2939" d="M 0.5,-0.5 C 213.5,-0.5 426.5,-0.5 639.5,-0.5C 639.5,79.5 639.5,159.5 639.5,239.5C 532.833,239.5 426.167,239.5 319.5,239.5C 213.143,159.469 106.81,79.4687 0.5,-0.5 Z"/></g>
<g><path style="opacity:1" fill="#fefdfd" d="M -0.5,-0.5 C -0.166667,-0.5 0.166667,-0.5 0.5,-0.5C 106.81,79.4687 213.143,159.469 319.5,239.5C 213.167,319.5 106.833,399.5 0.5,479.5C 0.166667,479.5 -0.166667,479.5 -0.5,479.5C -0.5,319.5 -0.5,159.5 -0.5,-0.5 Z"/></g>
<g><path style="opacity:1" fill="#f3ef16" d="M 153.5,159.5 C 146.13,160.062 138.797,160.062 131.5,159.5C 137.326,158.73 142.993,157.563 148.5,156C 138.951,153.811 129.285,153.144 119.5,154C 118.11,156.994 119.11,158.994 122.5,160C 119.983,160.257 117.65,159.59 115.5,158C 107.323,157.829 99.3228,157.329 91.5,156.5C 92.8366,155.685 93.8366,154.518 94.5,153C 103.014,149.385 111.848,146.552 121,144.5C 127.816,146.386 134.649,148.22 141.5,150C 143.056,152.614 145.39,153.947 148.5,154C 150.194,155.935 151.861,157.769 153.5,159.5 Z"/></g>
<g><path style="opacity:1" fill="#bd735e" d="M 153.5,159.5 C 161.586,159.187 168.92,161.354 175.5,166C 171.498,166.359 167.498,166.192 163.5,165.5C 161.36,165.556 159.694,166.223 158.5,167.5C 156.616,166.325 154.449,165.658 152,165.5C 147.149,166.338 142.316,167.338 137.5,168.5C 137.719,169.675 137.386,170.675 136.5,171.5C 130.332,174.133 124.166,174.133 118,171.5C 111.102,172.794 104.268,172.461 97.5,170.5C 100.705,168.398 104.038,166.565 107.5,165C 99.5647,163.922 91.898,164.422 84.5,166.5C 84.719,165.325 84.3857,164.325 83.5,163.5C 80.1769,164.757 76.8435,164.757 73.5,163.5C 78.865,159.653 84.865,157.32 91.5,156.5C 99.3228,157.329 107.323,157.829 115.5,158C 117.65,159.59 119.983,160.257 122.5,160C 119.11,158.994 118.11,156.994 119.5,154C 129.285,153.144 138.951,153.811 148.5,156C 142.993,157.563 137.326,158.73 131.5,159.5C 138.797,160.062 146.13,160.062 153.5,159.5 Z"/></g>
<g><path style="opacity:1" fill="#fbf408" d="M 158.5,167.5 C 160.268,170.162 160.935,173.162 160.5,176.5C 147.241,173.606 134.075,173.939 121,177.5C 118.226,176.464 115.393,175.631 112.5,175C 102.488,174.453 92.4882,174.62 82.5,175.5C 82.0653,172.162 82.7319,169.162 84.5,166.5C 91.898,164.422 99.5647,163.922 107.5,165C 104.038,166.565 100.705,168.398 97.5,170.5C 104.268,172.461 111.102,172.794 118,171.5C 124.166,174.133 130.332,174.133 136.5,171.5C 137.386,170.675 137.719,169.675 137.5,168.5C 142.316,167.338 147.149,166.338 152,165.5C 154.449,165.658 156.616,166.325 158.5,167.5 Z"/></g>
<g><path style="opacity:1" fill="#fd1108" d="M 82.5,175.5 C 92.4882,174.62 102.488,174.453 112.5,175C 115.393,175.631 118.226,176.464 121,177.5C 134.075,173.939 147.241,173.606 160.5,176.5C 170.312,177.404 179.645,175.737 188.5,171.5C 187.712,181.399 186.212,191.399 184,201.5C 182.033,212.504 182.033,223.504 184,234.5C 185.874,241.788 187.54,249.121 189,256.5C 190.831,266.855 189.164,276.522 184,285.5C 179.423,290.032 173.923,292.866 167.5,294C 155.442,295.337 143.442,297.004 131.5,299C 128.072,300.461 124.905,302.295 122,304.5C 118.38,302.274 114.547,300.44 110.5,299C 97.523,296.765 84.523,294.765 71.5,293C 55.9521,285.732 50.1187,273.566 54,256.5C 57.326,244.721 59.4927,232.721 60.5,220.5C 59.3044,204.494 56.9711,188.66 53.5,173C 53.8333,172.5 54.1667,172 54.5,171.5C 63.4056,176.228 72.739,177.561 82.5,175.5 Z"/></g>
<g><path style="opacity:1" fill="#81cadb" d="M 174.5,212.5 C 173.5,211.833 172.5,211.167 171.5,210.5C 169.854,208.249 167.687,206.582 165,205.5C 164.17,200.857 163.503,196.19 163,191.5C 160.563,187.413 158.563,187.746 157,192.5C 156.828,196.871 156.328,201.204 155.5,205.5C 152.19,207.482 149.19,209.815 146.5,212.5C 155.81,213.498 165.143,213.832 174.5,213.5C 174.334,220.175 174.5,226.842 175,233.5C 177.605,242.533 179.439,251.699 180.5,261C 180.789,269.94 177.123,276.44 169.5,280.5C 169.5,278.167 169.5,275.833 169.5,273.5C 167.735,272.539 165.735,272.205 163.5,272.5C 163.744,264.304 163.744,256.304 163.5,248.5C 162.5,248.5 161.5,248.5 160.5,248.5C 160.5,242.5 160.5,236.5 160.5,230.5C 161.552,230.649 162.552,230.483 163.5,230C 153.752,223.376 143.919,216.876 134,210.5C 133.502,207.518 133.335,204.518 133.5,201.5C 136.999,201.741 137.332,200.908 134.5,199C 130.598,196.249 126.598,193.749 122.5,191.5C 121.749,190.427 120.749,190.26 119.5,191C 116.645,193.031 113.978,195.197 111.5,197.5C 109.405,198.412 107.405,199.579 105.5,201C 106.448,201.483 107.448,201.649 108.5,201.5C 109.127,206.071 108.127,210.071 105.5,213.5C 99.3143,216.422 93.6476,220.089 88.5,224.5C 85.0604,226.055 81.7271,227.888 78.5,230C 79.7932,230.49 81.1266,230.657 82.5,230.5C 82.5,236.5 82.5,242.5 82.5,248.5C 80.5992,248.246 79.9326,248.58 80.5,249.5C 80.5,250.5 80.5,251.5 80.5,252.5C 80.4324,258.858 80.4324,265.525 80.5,272.5C 78.5,272.5 76.5,272.5 74.5,272.5C 74.5,275.167 74.5,277.833 74.5,280.5C 68.7075,278.539 65.2075,274.539 64,268.5C 62.6469,255.882 63.9802,243.549 68,231.5C 69.397,215.115 67.5636,199.115 62.5,183.5C 62.8333,183.167 63.1667,182.833 63.5,182.5C 66.6561,184.163 69.9894,185.33 73.5,186C 83.5588,186.719 93.5588,186.219 103.5,184.5C 109.459,184.799 115.292,185.799 121,187.5C 131.416,183.861 141.916,183.694 152.5,187C 161.793,188.074 170.627,186.574 179,182.5C 177.616,192.477 176.116,202.477 174.5,212.5 Z"/></g>
<g><path style="opacity:1" fill="#27923e" d="M 80.5,191.5 C 80.56,190.957 80.8933,190.624 81.5,190.5C 82.8498,191.95 84.5165,192.617 86.5,192.5C 85.5442,193.659 84.5442,194.826 83.5,196C 84.3353,197.131 84.3353,197.964 83.5,198.5C 81.3618,198.297 79.6951,197.297 78.5,195.5C 77.6143,196.325 77.281,197.325 77.5,198.5C 76.0222,198.238 74.6888,198.571 73.5,199.5C 74.2888,201.488 75.4555,201.821 77,200.5C 77.4828,201.448 77.6495,202.448 77.5,203.5C 75.5316,202.181 73.5316,202.181 71.5,203.5C 70.3267,201.021 70.3267,198.521 71.5,196C 62.5345,189.69 63.5345,187.356 74.5,189C 76.4068,190.122 78.4068,190.955 80.5,191.5 Z"/></g>
<g><path style="opacity:1" fill="#1f2729" d="M 171.5,210.5 C 172.5,211.167 173.5,211.833 174.5,212.5C 174.5,212.833 174.5,213.167 174.5,213.5C 165.143,213.832 155.81,213.498 146.5,212.5C 149.19,209.815 152.19,207.482 155.5,205.5C 156.328,201.204 156.828,196.871 157,192.5C 158.563,187.746 160.563,187.413 163,191.5C 163.503,196.19 164.17,200.857 165,205.5C 167.687,206.582 169.854,208.249 171.5,210.5 Z"/></g>
<g><path style="opacity:1" fill="#f7f7f7" d="M 170.5,210.5 C 163.833,211.833 157.167,211.833 150.5,210.5C 152.471,209.177 154.471,207.844 156.5,206.5C 158.926,183.928 161.259,183.928 163.5,206.5C 166.024,207.592 168.357,208.926 170.5,210.5 Z"/></g>
<g><path style="opacity:1" fill="#f1f803" d="M 80.5,191.5 C 82.8586,192.389 83.0253,193.722 81,195.5C 79.9326,194.809 78.7659,194.309 77.5,194C 79.1193,193.764 80.1193,192.931 80.5,191.5 Z"/></g>
<g><path style="opacity:1" fill="#158d40" d="M 78.5,203.5 C 79.8333,203.5 80.5,202.833 80.5,201.5C 81.1515,202.091 81.8182,202.757 82.5,203.5C 84.2141,202.391 84.8808,203.058 84.5,205.5C 87.0202,204.768 89.3536,203.602 91.5,202C 90.4366,200.812 89.1033,200.312 87.5,200.5C 87.3398,198.801 87.5065,197.134 88,195.5C 88.6543,196.696 89.1543,196.696 89.5,195.5C 88.3881,194.735 87.7214,193.735 87.5,192.5C 88.1499,192.804 88.8165,193.137 89.5,193.5C 92.9913,191.906 96.658,191.239 100.5,191.5C 100.201,193.973 99.2009,196.14 97.5,198C 98.2865,200.099 98.6199,202.266 98.5,204.5C 96.7741,204.185 95.1075,204.019 93.5,204C 93.8333,204.333 94.1667,204.667 94.5,205C 92.4687,205.632 90.802,206.799 89.5,208.5C 89.0713,211.147 87.7379,213.147 85.5,214.5C 84.7189,213.271 84.2189,211.938 84,210.5C 80.1392,216.008 77.9725,215.174 77.5,208C 77.7728,206.467 78.1062,204.967 78.5,203.5 Z"/></g>
<g><path style="opacity:1" fill="#f0f804" d="M 83.5,198.5 C 82.7703,200.045 81.437,200.878 79.5,201C 79.7284,201.399 80.0618,201.565 80.5,201.5C 80.5,202.833 79.8333,203.5 78.5,203.5C 78.1667,203.5 77.8333,203.5 77.5,203.5C 77.6495,202.448 77.4828,201.448 77,200.5C 75.4555,201.821 74.2888,201.488 73.5,199.5C 74.6888,198.571 76.0222,198.238 77.5,198.5C 77.281,197.325 77.6143,196.325 78.5,195.5C 79.6951,197.297 81.3618,198.297 83.5,198.5 Z"/></g>
<g><path style="opacity:1" fill="#f4f4f4" d="M 125.5,196.5 C 125.953,197.458 126.619,198.292 127.5,199C 123.167,199.667 118.833,199.667 114.5,199C 116.324,198.34 117.657,197.173 118.5,195.5C 119.583,195.461 120.583,195.127 121.5,194.5C 122.622,195.63 123.956,196.297 125.5,196.5 Z"/></g>
<g><path style="opacity:1" fill="#b1d31e" d="M 86.5,192.5 C 86.8333,192.5 87.1667,192.5 87.5,192.5C 87.7214,193.735 88.3881,194.735 89.5,195.5C 89.1543,196.696 88.6543,196.696 88,195.5C 87.5065,197.134 87.3398,198.801 87.5,200.5C 89.1033,200.312 90.4366,200.812 91.5,202C 89.3536,203.602 87.0202,204.768 84.5,205.5C 84.8808,203.058 84.2141,202.391 82.5,203.5C 81.8182,202.757 81.1515,202.091 80.5,201.5C 80.0618,201.565 79.7284,201.399 79.5,201C 81.437,200.878 82.7703,200.045 83.5,198.5C 84.3353,197.964 84.3353,197.131 83.5,196C 84.5442,194.826 85.5442,193.659 86.5,192.5 Z"/></g>
<g><path style="opacity:1" fill="#8c8c8c" d="M 122.5,191.5 C 123.716,193.451 125.382,194.951 127.5,196C 126.906,196.464 126.239,196.631 125.5,196.5C 123.956,196.297 122.622,195.63 121.5,194.5C 120.583,195.127 119.583,195.461 118.5,195.5C 115.884,196.48 113.551,197.98 111.5,200C 118.55,200.797 125.55,200.63 132.5,199.5C 133.463,199.97 133.463,200.637 132.5,201.5C 131.508,201.328 130.842,201.662 130.5,202.5C 124.5,202.5 118.5,202.5 112.5,202.5C 112.158,201.662 111.492,201.328 110.5,201.5C 109.529,200.038 109.862,198.705 111.5,197.5C 113.978,195.197 116.645,193.031 119.5,191C 120.749,190.26 121.749,190.427 122.5,191.5 Z"/></g>
<g><path style="opacity:1" fill="#343d40" d="M 111.5,197.5 C 109.862,198.705 109.529,200.038 110.5,201.5C 110.665,204.85 110.498,208.183 110,211.5C 108.67,212.582 107.17,213.249 105.5,213.5C 108.127,210.071 109.127,206.071 108.5,201.5C 107.448,201.649 106.448,201.483 105.5,201C 107.405,199.579 109.405,198.412 111.5,197.5 Z"/></g>
<g><path style="opacity:1" fill="#969696" d="M 150.5,210.5 C 157.167,211.833 163.833,211.833 170.5,210.5C 170.833,210.5 171.167,210.5 171.5,210.5C 168.062,211.823 164.229,212.49 160,212.5C 156.167,212.333 152.333,212.167 148.5,212C 149.044,211.283 149.711,210.783 150.5,210.5 Z"/></g>
<g><path style="opacity:1" fill="#f3f3f3" d="M 110.5,201.5 C 111.492,201.328 112.158,201.662 112.5,202.5C 111.167,205.5 111.167,208.5 112.5,211.5C 118.5,211.5 124.5,211.5 130.5,211.5C 130.5,208.5 130.5,205.5 130.5,202.5C 130.842,201.662 131.508,201.328 132.5,201.5C 132.335,204.85 132.502,208.183 133,211.5C 141.838,216.918 150.504,222.585 159,228.5C 159.5,234.825 159.666,241.158 159.5,247.5C 152.5,247.5 145.5,247.5 138.5,247.5C 139.01,244.612 138.344,242.279 136.5,240.5C 136.5,237.167 136.5,233.833 136.5,230.5C 131.968,230.182 127.634,230.515 123.5,231.5C 123.5,234.5 123.5,237.5 123.5,240.5C 122.5,240.5 121.5,240.5 120.5,240.5C 120.5,237.167 120.5,233.833 120.5,230.5C 115.968,230.182 111.634,230.515 107.5,231.5C 108.055,235.012 107.388,238.012 105.5,240.5C 104.532,242.607 104.198,244.941 104.5,247.5C 97.5,247.5 90.5,247.5 83.5,247.5C 83.3338,241.158 83.5005,234.825 84,228.5C 85.6667,227.267 87.1667,225.933 88.5,224.5C 94.6857,221.578 100.352,217.911 105.5,213.5C 107.17,213.249 108.67,212.582 110,211.5C 110.498,208.183 110.665,204.85 110.5,201.5 Z"/></g>
<g><path style="opacity:1" fill="#e4e4e4" d="M 113.5,203.5 C 118.833,203.5 124.167,203.5 129.5,203.5C 129.5,205.833 129.5,208.167 129.5,210.5C 124.167,210.5 118.833,210.5 113.5,210.5C 113.5,208.167 113.5,205.833 113.5,203.5 Z"/></g>
<g><path style="opacity:1" fill="#101010" d="M 116.5,204.5 C 119.5,204.5 122.5,204.5 125.5,204.5C 125.5,206.167 125.5,207.833 125.5,209.5C 122.5,209.5 119.5,209.5 116.5,209.5C 116.5,207.833 116.5,206.167 116.5,204.5 Z"/></g>
<g><path style="opacity:1" fill="#d2d2d2" d="M 117.5,205.5 C 119.833,205.5 122.167,205.5 124.5,205.5C 124.5,206.5 124.5,207.5 124.5,208.5C 122.167,208.5 119.833,208.5 117.5,208.5C 117.5,207.5 117.5,206.5 117.5,205.5 Z"/></g>
<g><path style="opacity:1" fill="#646464" d="M 112.5,202.5 C 112.5,203.167 112.833,203.5 113.5,203.5C 113.5,205.833 113.5,208.167 113.5,210.5C 112.833,210.5 112.5,210.833 112.5,211.5C 111.167,208.5 111.167,205.5 112.5,202.5 Z"/></g>
<g><path style="opacity:1" fill="#000000" d="M 112.5,202.5 C 118.5,202.5 124.5,202.5 130.5,202.5C 130.5,205.5 130.5,208.5 130.5,211.5C 124.5,211.5 118.5,211.5 112.5,211.5C 112.5,210.833 112.833,210.5 113.5,210.5C 118.833,210.5 124.167,210.5 129.5,210.5C 129.5,208.167 129.5,205.833 129.5,203.5C 124.167,203.5 118.833,203.5 113.5,203.5C 112.833,203.5 112.5,203.167 112.5,202.5 Z"/></g>
<g><path style="opacity:1" fill="#272c2d" d="M 105.5,213.5 C 100.352,217.911 94.6857,221.578 88.5,224.5C 93.6476,220.089 99.3143,216.422 105.5,213.5 Z"/></g>
<g><path style="opacity:1" fill="#fbfbfb" d="M 132.5,214.5 C 133.262,216.262 134.596,217.262 136.5,217.5C 139.642,220.469 142.975,223.302 146.5,226C 129.5,226.667 112.5,226.667 95.5,226C 97.3237,225.34 98.657,224.173 99.5,222.5C 103.542,220.638 107.208,218.138 110.5,215C 117.826,214.5 125.159,214.334 132.5,214.5 Z"/></g>
<g><path style="opacity:1" fill="#2d2d2d" d="M 132.5,214.5 C 134.404,214.738 135.738,215.738 136.5,217.5C 134.596,217.262 133.262,216.262 132.5,214.5 Z"/></g>
<g><path style="opacity:1" fill="#222222" d="M 132.5,214.5 C 125.159,214.334 117.826,214.5 110.5,215C 107.208,218.138 103.542,220.638 99.5,222.5C 102.642,219.531 105.975,216.698 109.5,214C 117.345,213.178 125.011,213.344 132.5,214.5 Z"/></g>
<g><path style="opacity:1" fill="#313131" d="M 136.5,217.5 C 140.933,220.084 145.266,222.918 149.5,226C 150.738,226.69 150.738,227.19 149.5,227.5C 130.326,227.83 111.326,227.497 92.5,226.5C 94.6979,224.902 97.0313,223.569 99.5,222.5C 98.657,224.173 97.3237,225.34 95.5,226C 112.5,226.667 129.5,226.667 146.5,226C 142.975,223.302 139.642,220.469 136.5,217.5 Z"/></g>
<g><path style="opacity:1" fill="#888888" d="M 92.5,226.5 C 111.326,227.497 130.326,227.83 149.5,227.5C 130.329,228.828 110.996,228.828 91.5,227.5C 91.6236,226.893 91.9569,226.56 92.5,226.5 Z"/></g>
<g><path style="opacity:1" fill="#0a0d0e" d="M 88.5,224.5 C 87.1667,225.933 85.6667,227.267 84,228.5C 83.5005,234.825 83.3338,241.158 83.5,247.5C 91.0729,248.134 98.0729,248.801 104.5,249.5C 96.5,249.5 88.5,249.5 80.5,249.5C 79.9326,248.58 80.5992,248.246 82.5,248.5C 82.5,242.5 82.5,236.5 82.5,230.5C 81.1266,230.657 79.7932,230.49 78.5,230C 81.7271,227.888 85.0604,226.055 88.5,224.5 Z"/></g>
<g><path style="opacity:1" fill="#1b1d1e" d="M 122.5,191.5 C 126.598,193.749 130.598,196.249 134.5,199C 137.332,200.908 136.999,201.741 133.5,201.5C 133.335,204.518 133.502,207.518 134,210.5C 143.919,216.876 153.752,223.376 163.5,230C 162.552,230.483 161.552,230.649 160.5,230.5C 160.5,236.5 160.5,242.5 160.5,248.5C 161.5,248.5 162.5,248.5 163.5,248.5C 163.5,249.167 163.167,249.5 162.5,249.5C 154.5,249.5 146.5,249.5 138.5,249.5C 138.5,257.5 138.5,265.5 138.5,273.5C 144.833,273.5 151.167,273.5 157.5,273.5C 157.5,266.5 157.5,259.5 157.5,252.5C 159.167,252.5 160.833,252.5 162.5,252.5C 162.564,259.192 162.564,266.192 162.5,273.5C 164.833,273.5 167.167,273.5 169.5,273.5C 169.5,275.833 169.5,278.167 169.5,280.5C 137.833,280.5 106.167,280.5 74.5,280.5C 74.5,277.833 74.5,275.167 74.5,272.5C 76.5,272.5 78.5,272.5 80.5,272.5C 80.4324,265.525 80.4324,258.858 80.5,252.5C 82.1667,252.5 83.8333,252.5 85.5,252.5C 85.5,259.5 85.5,266.5 85.5,273.5C 91.8333,273.5 98.1667,273.5 104.5,273.5C 105.167,273.167 105.833,272.833 106.5,272.5C 106.56,273.043 106.893,273.376 107.5,273.5C 108.497,266.197 108.831,258.863 108.5,251.5C 109.167,250.167 109.833,250.167 110.5,251.5C 109.508,258.648 109.175,265.981 109.5,273.5C 117.684,273.826 125.684,273.492 133.5,272.5C 133.5,265.5 133.5,258.5 133.5,251.5C 133.833,250.167 134.167,250.167 134.5,251.5C 134.5,258.833 134.5,266.167 134.5,273.5C 135.5,273.5 136.5,273.5 137.5,273.5C 137.5,266.167 137.5,258.833 137.5,251.5C 137.5,250.833 137.5,250.167 137.5,249.5C 137.663,247.143 137.497,244.81 137,242.5C 136.505,244.473 136.338,246.473 136.5,248.5C 135.5,248.5 134.5,248.5 133.5,248.5C 132.833,239.167 132.167,239.167 131.5,248.5C 130.167,248.5 128.833,248.5 127.5,248.5C 127.799,246.396 127.466,244.396 126.5,242.5C 125.24,244.353 125.24,246.186 126.5,248C 125.207,248.49 123.873,248.657 122.5,248.5C 122.808,246.076 122.474,243.743 121.5,241.5C 119.306,243.315 118.972,245.482 120.5,248C 119.207,248.49 117.873,248.657 116.5,248.5C 116.808,246.076 116.474,243.743 115.5,241.5C 114.534,243.396 114.201,245.396 114.5,247.5C 113.5,247.5 112.5,247.5 111.5,247.5C 111.294,239.699 110.628,239.699 109.5,247.5C 107.352,247.611 107.019,246.944 108.5,245.5C 106.659,245.032 105.659,243.366 105.5,240.5C 107.388,238.012 108.055,235.012 107.5,231.5C 108.167,234.5 108.833,237.5 109.5,240.5C 110.216,238.444 110.883,236.277 111.5,234C 113.473,233.505 115.473,233.338 117.5,233.5C 117.198,236.059 117.532,238.393 118.5,240.5C 119.167,240.5 119.833,240.5 120.5,240.5C 121.5,240.5 122.5,240.5 123.5,240.5C 123.5,237.5 123.5,234.5 123.5,231.5C 124.167,231.5 124.5,231.833 124.5,232.5C 124.187,235.247 124.52,237.914 125.5,240.5C 126.474,238.257 126.808,235.924 126.5,233.5C 128.5,233.5 130.5,233.5 132.5,233.5C 132.192,235.924 132.526,238.257 133.5,240.5C 134.48,237.914 134.813,235.247 134.5,232.5C 135.252,234.57 135.918,237.237 136.5,240.5C 138.344,242.279 139.01,244.612 138.5,247.5C 145.5,247.5 152.5,247.5 159.5,247.5C 159.666,241.158 159.5,234.825 159,228.5C 150.504,222.585 141.838,216.918 133,211.5C 132.502,208.183 132.335,204.85 132.5,201.5C 133.463,200.637 133.463,199.97 132.5,199.5C 125.55,200.63 118.55,200.797 111.5,200C 113.551,197.98 115.884,196.48 118.5,195.5C 117.657,197.173 116.324,198.34 114.5,199C 118.833,199.667 123.167,199.667 127.5,199C 126.619,198.292 125.953,197.458 125.5,196.5C 126.239,196.631 126.906,196.464 127.5,196C 125.382,194.951 123.716,193.451 122.5,191.5 Z"/></g>
<g><path style="opacity:1" fill="#686868" d="M 123.5,231.5 C 127.634,230.515 131.968,230.182 136.5,230.5C 136.5,233.833 136.5,237.167 136.5,240.5C 135.918,237.237 135.252,234.57 134.5,232.5C 131.167,232.5 127.833,232.5 124.5,232.5C 124.5,231.833 124.167,231.5 123.5,231.5 Z"/></g>
<g><path style="opacity:1" fill="#8f8f8f" d="M 87.5,231.5 C 91.6344,230.515 95.9677,230.182 100.5,230.5C 100.5,235.833 100.5,241.167 100.5,246.5C 95.9677,246.818 91.6344,246.485 87.5,245.5C 91.5,245.5 95.5,245.5 99.5,245.5C 99.8345,240.393 99.5012,236.06 98.5,232.5C 95.1667,232.5 91.8333,232.5 88.5,232.5C 88.5,231.833 88.1667,231.5 87.5,231.5 Z"/></g>
<g><path style="opacity:1" fill="#5f5f5f" d="M 107.5,231.5 C 111.634,230.515 115.968,230.182 120.5,230.5C 120.5,233.833 120.5,237.167 120.5,240.5C 119.833,240.5 119.167,240.5 118.5,240.5C 118.5,237.833 118.5,235.167 118.5,232.5C 115.5,232.5 112.5,232.5 109.5,232.5C 109.5,235.167 109.5,237.833 109.5,240.5C 108.833,237.5 108.167,234.5 107.5,231.5 Z"/></g>
<g><path style="opacity:1" fill="#363636" d="M 154.5,230.5 C 154.834,235.937 154.501,240.604 153.5,244.5C 153.5,240.5 153.5,236.5 153.5,232.5C 150.167,232.5 146.833,232.5 143.5,232.5C 143.5,236.5 143.5,240.5 143.5,244.5C 143.5,245.167 143.167,245.5 142.5,245.5C 142.5,240.5 142.5,235.5 142.5,230.5C 146.5,230.5 150.5,230.5 154.5,230.5 Z"/></g>
<g><path style="opacity:1" fill="#fbfbfb" d="M 118.5,240.5 C 117.532,238.393 117.198,236.059 117.5,233.5C 115.473,233.338 113.473,233.505 111.5,234C 110.883,236.277 110.216,238.444 109.5,240.5C 109.5,237.833 109.5,235.167 109.5,232.5C 112.5,232.5 115.5,232.5 118.5,232.5C 118.5,235.167 118.5,237.833 118.5,240.5 Z"/></g>
<g><path style="opacity:1" fill="#e5e5e5" d="M 124.5,232.5 C 127.833,232.5 131.167,232.5 134.5,232.5C 134.813,235.247 134.48,237.914 133.5,240.5C 132.526,238.257 132.192,235.924 132.5,233.5C 130.5,233.5 128.5,233.5 126.5,233.5C 126.808,235.924 126.474,238.257 125.5,240.5C 124.52,237.914 124.187,235.247 124.5,232.5 Z"/></g>
<g><path style="opacity:1" fill="#dcdcdc" d="M 153.5,244.5 C 150.167,244.5 146.833,244.5 143.5,244.5C 143.5,240.5 143.5,236.5 143.5,232.5C 146.833,232.5 150.167,232.5 153.5,232.5C 153.5,236.5 153.5,240.5 153.5,244.5 Z"/></g>
<g><path style="opacity:1" fill="#fefffe" d="M 112.5,235.5 C 113.5,235.5 114.5,235.5 115.5,235.5C 115.5,237.167 115.5,238.833 115.5,240.5C 114.5,240.5 113.5,240.5 112.5,240.5C 112.5,238.833 112.5,237.167 112.5,235.5 Z"/></g>
<g><path style="opacity:1" fill="#eeeeee" d="M 127.5,234.5 C 128.833,234.5 130.167,234.5 131.5,234.5C 131.5,236.5 131.5,238.5 131.5,240.5C 130.167,240.5 128.833,240.5 127.5,240.5C 127.5,238.5 127.5,236.5 127.5,234.5 Z"/></g>
<g><path style="opacity:1" fill="#002395" d="M 319.5,239.5 C 426.167,239.5 532.833,239.5 639.5,239.5C 639.5,319.5 639.5,399.5 639.5,479.5C 426.5,479.5 213.5,479.5 0.5,479.5C 106.833,399.5 213.167,319.5 319.5,239.5 Z"/></g>
<g><path style="opacity:1" fill="#ebebeb" d="M 137.5,249.5 C 127.161,249.666 116.828,249.5 106.5,249C 109.365,248.817 112.031,248.317 114.5,247.5C 114.201,245.396 114.534,243.396 115.5,241.5C 116.474,243.743 116.808,246.076 116.5,248.5C 117.873,248.657 119.207,248.49 120.5,248C 118.972,245.482 119.306,243.315 121.5,241.5C 122.474,243.743 122.808,246.076 122.5,248.5C 123.873,248.657 125.207,248.49 126.5,248C 125.24,246.186 125.24,244.353 126.5,242.5C 127.466,244.396 127.799,246.396 127.5,248.5C 128.833,248.5 130.167,248.5 131.5,248.5C 132.167,239.167 132.833,239.167 133.5,248.5C 134.5,248.5 135.5,248.5 136.5,248.5C 136.338,246.473 136.505,244.473 137,242.5C 137.497,244.81 137.663,247.143 137.5,249.5 Z"/></g>
<g><path style="opacity:1" fill="#2a2a2a" d="M 145.5,234.5 C 146.468,236.607 146.802,238.941 146.5,241.5C 147.833,241.5 149.167,241.5 150.5,241.5C 150.337,239.143 150.503,236.81 151,234.5C 151.498,237.482 151.665,240.482 151.5,243.5C 149.5,243.5 147.5,243.5 145.5,243.5C 145.5,240.5 145.5,237.5 145.5,234.5 Z"/></g>
<g><path style="opacity:1" fill="#202020" d="M 87.5,231.5 C 88.1667,231.5 88.5,231.833 88.5,232.5C 88.5,236.5 88.5,240.5 88.5,244.5C 91.8333,244.5 95.1667,244.5 98.5,244.5C 98.5,240.5 98.5,236.5 98.5,232.5C 99.5012,236.06 99.8345,240.393 99.5,245.5C 95.5,245.5 91.5,245.5 87.5,245.5C 87.5,240.833 87.5,236.167 87.5,231.5 Z"/></g>
<g><path style="opacity:1" fill="#eeeeee" d="M 88.5,232.5 C 91.8333,232.5 95.1667,232.5 98.5,232.5C 98.5,236.5 98.5,240.5 98.5,244.5C 95.1667,244.5 91.8333,244.5 88.5,244.5C 88.5,240.5 88.5,236.5 88.5,232.5 Z"/></g>
<g><path style="opacity:1" fill="#1d1d1d" d="M 90.5,233.5 C 92.5,233.5 94.5,233.5 96.5,233.5C 96.5,236.833 96.5,240.167 96.5,243.5C 94.5,243.5 92.5,243.5 90.5,243.5C 90.5,240.167 90.5,236.833 90.5,233.5 Z"/></g>
<g><path style="opacity:1" fill="#eeeeee" d="M 91.5,234.5 C 92.8333,234.5 94.1667,234.5 95.5,234.5C 95.5,236.833 95.5,239.167 95.5,241.5C 94.1667,241.5 92.8333,241.5 91.5,241.5C 91.5,239.167 91.5,236.833 91.5,234.5 Z"/></g>
<g><path style="opacity:1" fill="#e2e2e2" d="M 111.5,247.5 C 110.833,247.5 110.167,247.5 109.5,247.5C 110.628,239.699 111.294,239.699 111.5,247.5 Z"/></g>
<g><path style="opacity:1" fill="#6c6c6c" d="M 154.5,230.5 C 155.488,235.64 155.821,240.974 155.5,246.5C 150.968,246.818 146.634,246.485 142.5,245.5C 143.167,245.5 143.5,245.167 143.5,244.5C 146.833,244.5 150.167,244.5 153.5,244.5C 154.501,240.604 154.834,235.937 154.5,230.5 Z"/></g>
<g><path style="opacity:1" fill="#efefef" d="M 80.5,249.5 C 88.5,249.5 96.5,249.5 104.5,249.5C 104.5,257.5 104.5,265.5 104.5,273.5C 98.1667,273.5 91.8333,273.5 85.5,273.5C 85.5,266.5 85.5,259.5 85.5,252.5C 83.8333,252.5 82.1667,252.5 80.5,252.5C 80.5,251.5 80.5,250.5 80.5,249.5 Z"/></g>
<g><path style="opacity:1" fill="#f8f8f8" d="M 162.5,249.5 C 162.5,250.5 162.5,251.5 162.5,252.5C 160.833,252.5 159.167,252.5 157.5,252.5C 157.5,259.5 157.5,266.5 157.5,273.5C 151.167,273.5 144.833,273.5 138.5,273.5C 138.5,265.5 138.5,257.5 138.5,249.5C 146.5,249.5 154.5,249.5 162.5,249.5 Z"/></g>
<g><path style="opacity:1" fill="#f5f812" d="M 41.5,259.5 C 39.7742,257.058 38.2742,254.391 37,251.5C 36.1599,256.113 36.6599,260.446 38.5,264.5C 41.0349,284.944 52.0349,298.277 71.5,304.5C 73.5145,305.924 75.8478,306.59 78.5,306.5C 81.728,307.414 85.0613,307.747 88.5,307.5C 87.9466,312.482 87.6133,317.482 87.5,322.5C 82.1463,322.431 76.813,322.098 71.5,321.5C 50.7482,318.257 36.2482,306.923 28,287.5C 23.9184,275.514 22.4184,263.18 23.5,250.5C 25.1667,250.5 26.8333,250.5 28.5,250.5C 28.3173,245.401 29.3173,240.567 31.5,236C 35.7713,235.855 39.7713,236.855 43.5,239C 44.0814,239.893 44.4148,240.893 44.5,242C 43.1751,247.789 42.1751,253.623 41.5,259.5 Z"/></g>
<g><path style="opacity:1" fill="#f9f9f9" d="M 108.5,251.5 C 108.831,258.863 108.497,266.197 107.5,273.5C 106.893,273.376 106.56,273.043 106.5,272.5C 105.872,265.087 106.539,258.087 108.5,251.5 Z"/></g>
<g><path style="opacity:1" fill="#fefffe" d="M 110.5,251.5 C 118.167,251.5 125.833,251.5 133.5,251.5C 133.5,258.5 133.5,265.5 133.5,272.5C 125.833,272.5 118.167,272.5 110.5,272.5C 110.5,265.5 110.5,258.5 110.5,251.5 Z"/></g>
<g><path style="opacity:1" fill="#e5e5e5" d="M 134.5,251.5 C 135.5,251.5 136.5,251.5 137.5,251.5C 137.5,258.833 137.5,266.167 137.5,273.5C 136.5,273.5 135.5,273.5 134.5,273.5C 134.5,266.167 134.5,258.833 134.5,251.5 Z"/></g>
<g><path style="opacity:1" fill="#8a8a1c" d="M 205.5,260.5 C 205.795,258.265 205.461,256.265 204.5,254.5C 204.987,253.527 205.487,252.527 206,251.5C 206.805,254.696 206.638,257.696 205.5,260.5 Z"/></g>
<g><path style="opacity:1" fill="#bcbcbc" d="M 81.5,253.5 C 82.5,253.5 83.5,253.5 84.5,253.5C 84.5,260.167 84.5,266.833 84.5,273.5C 83.5,273.5 82.5,273.5 81.5,273.5C 81.5,266.833 81.5,260.167 81.5,253.5 Z"/></g>
<g><path style="opacity:1" fill="#1d1d1d" d="M 87.5,253.5 C 91.5,253.5 95.5,253.5 99.5,253.5C 99.5,258.5 99.5,263.5 99.5,268.5C 95.5,268.5 91.5,268.5 87.5,268.5C 87.5,263.5 87.5,258.5 87.5,253.5 Z"/></g>
<g><path style="opacity:1" fill="#dbdbdb" d="M 88.5,254.5 C 91.8333,254.5 95.1667,254.5 98.5,254.5C 98.5,258.833 98.5,263.167 98.5,267.5C 95.1667,267.5 91.8333,267.5 88.5,267.5C 88.5,263.167 88.5,258.833 88.5,254.5 Z"/></g>
<g><path style="opacity:1" fill="#7b7954" d="M 41.5,259.5 C 41.1788,261.048 40.1788,261.715 38.5,261.5C 38.5,262.5 38.5,263.5 38.5,264.5C 36.6599,260.446 36.1599,256.113 37,251.5C 38.2742,254.391 39.7742,257.058 41.5,259.5 Z"/></g>
<g><path style="opacity:1" fill="#757466" d="M 204.5,254.5 C 205.461,256.265 205.795,258.265 205.5,260.5C 205.672,261.492 205.338,262.158 204.5,262.5C 202.81,262.144 201.81,261.144 201.5,259.5C 202.737,258.035 203.737,256.368 204.5,254.5 Z"/></g>
<g><path style="opacity:1" fill="#181818" d="M 90.5,256.5 C 92.5,256.5 94.5,256.5 96.5,256.5C 96.5,259.5 96.5,262.5 96.5,265.5C 94.5,265.5 92.5,265.5 90.5,265.5C 90.5,262.5 90.5,259.5 90.5,256.5 Z"/></g>
<g><path style="opacity:1" fill="#ededed" d="M 91.5,257.5 C 92.8333,257.5 94.1667,257.5 95.5,257.5C 95.5,259.833 95.5,262.167 95.5,264.5C 94.1667,264.5 92.8333,264.5 91.5,264.5C 91.5,262.167 91.5,259.833 91.5,257.5 Z"/></g>
<g><path style="opacity:1" fill="#8d8d8d" d="M 161.5,254.5 C 159.544,260.412 158.877,266.745 159.5,273.5C 158.509,267.021 158.176,260.354 158.5,253.5C 159.791,253.263 160.791,253.596 161.5,254.5 Z"/></g>
<g><path style="opacity:1" fill="#545454" d="M 105.5,240.5 C 105.659,243.366 106.659,245.032 108.5,245.5C 107.019,246.944 107.352,247.611 109.5,247.5C 110.167,247.5 110.833,247.5 111.5,247.5C 112.5,247.5 113.5,247.5 114.5,247.5C 112.031,248.317 109.365,248.817 106.5,249C 116.828,249.5 127.161,249.666 137.5,249.5C 137.5,250.167 137.5,250.833 137.5,251.5C 136.5,251.5 135.5,251.5 134.5,251.5C 134.167,250.167 133.833,250.167 133.5,251.5C 125.833,251.5 118.167,251.5 110.5,251.5C 109.833,250.167 109.167,250.167 108.5,251.5C 106.539,258.087 105.872,265.087 106.5,272.5C 105.833,272.833 105.167,273.167 104.5,273.5C 104.5,265.5 104.5,257.5 104.5,249.5C 98.0729,248.801 91.0729,248.134 83.5,247.5C 90.5,247.5 97.5,247.5 104.5,247.5C 104.198,244.941 104.532,242.607 105.5,240.5 Z"/></g>
<g><path style="opacity:1" fill="#568a96" d="M 163.5,248.5 C 163.744,256.304 163.744,264.304 163.5,272.5C 165.735,272.205 167.735,272.539 169.5,273.5C 167.167,273.5 164.833,273.5 162.5,273.5C 162.564,266.192 162.564,259.192 162.5,252.5C 162.5,251.5 162.5,250.5 162.5,249.5C 163.167,249.5 163.5,249.167 163.5,248.5 Z"/></g>
<g><path style="opacity:1" fill="#484848" d="M 142.5,253.5 C 146.833,253.5 151.167,253.5 155.5,253.5C 155.666,258.511 155.499,263.511 155,268.5C 150.934,269.464 146.767,269.797 142.5,269.5C 142.5,264.167 142.5,258.833 142.5,253.5 Z"/></g>
<g><path style="opacity:1" fill="#e6e6e6" d="M 143.5,255.5 C 146.833,255.5 150.167,255.5 153.5,255.5C 153.5,259.5 153.5,263.5 153.5,267.5C 150.167,267.5 146.833,267.5 143.5,267.5C 143.5,263.5 143.5,259.5 143.5,255.5 Z"/></g>
<g><path style="opacity:1" fill="#343434" d="M 146.5,257.5 C 147.919,256.549 149.585,256.216 151.5,256.5C 151.5,259.833 151.5,263.167 151.5,266.5C 149.5,266.5 147.5,266.5 145.5,266.5C 145.19,263.287 145.523,260.287 146.5,257.5 Z"/></g>
<g><path style="opacity:1" fill="#e9e9e9" d="M 146.5,257.5 C 147.833,257.5 149.167,257.5 150.5,257.5C 150.5,259.833 150.5,262.167 150.5,264.5C 149.167,264.5 147.833,264.5 146.5,264.5C 146.5,262.167 146.5,259.833 146.5,257.5 Z"/></g>
<g><path style="opacity:1" fill="#f1f1f1" d="M 161.5,254.5 C 162.123,261.255 161.456,267.588 159.5,273.5C 158.877,266.745 159.544,260.412 161.5,254.5 Z"/></g>
<g><path style="opacity:1" fill="#55b694" d="M 32.5,267.5 C 36.5222,268.641 37.3556,270.975 35,274.5C 35.0187,272.893 35.1854,271.226 35.5,269.5C 34.5,269.5 33.5,269.5 32.5,269.5C 32.6602,271.199 32.4935,272.866 32,274.5C 30.6667,275.833 29.3333,275.833 28,274.5C 27.3333,272.833 27.3333,271.167 28,269.5C 28.49,270.793 28.6567,272.127 28.5,273.5C 29.5,273.5 30.5,273.5 31.5,273.5C 31.3253,271.379 31.6586,269.379 32.5,267.5 Z"/></g>
<g><path style="opacity:1" fill="#858585" d="M 110.5,251.5 C 110.5,258.5 110.5,265.5 110.5,272.5C 118.167,272.5 125.833,272.5 133.5,272.5C 125.684,273.492 117.684,273.826 109.5,273.5C 109.175,265.981 109.508,258.648 110.5,251.5 Z"/></g>
<g><path style="opacity:1" fill="#fefefe" d="M 167.5,274.5 C 167.5,275.833 167.5,277.167 167.5,278.5C 136.833,278.5 106.167,278.5 75.5,278.5C 75.5,277.167 75.5,275.833 75.5,274.5C 106.167,274.5 136.833,274.5 167.5,274.5 Z"/></g>
<g><path style="opacity:1" fill="#58b695" d="M 34.5,277.5 C 35.8333,277.5 37.1667,277.5 38.5,277.5C 39.0138,279.512 39.1805,281.512 39,283.5C 36.2908,278.212 34.9575,278.212 35,283.5C 33.9563,282.377 33.2896,281.044 33,279.5C 31.6667,280.167 30.6667,281.167 30,282.5C 29.2506,281.365 29.4173,280.365 30.5,279.5C 32.0255,279.006 33.3588,278.339 34.5,277.5 Z"/></g>
<g><path style="opacity:1" fill="#868686" d="M 167.5,274.5 C 168.451,275.919 168.784,277.585 168.5,279.5C 137.329,279.831 106.329,279.498 75.5,278.5C 106.167,278.5 136.833,278.5 167.5,278.5C 167.5,277.167 167.5,275.833 167.5,274.5 Z"/></g>
<g><path style="opacity:1" fill="#85cadb" d="M 74.5,280.5 C 106.167,280.5 137.833,280.5 169.5,280.5C 166.79,282.108 163.79,283.275 160.5,284C 151.478,284.835 142.478,285.835 133.5,287C 129.214,287.97 125.38,289.803 122,292.5C 117.67,290.252 113.17,288.419 108.5,287C 99.8521,285.836 91.1854,284.836 82.5,284C 79.3337,283.678 76.667,282.511 74.5,280.5 Z"/></g>
<g><path style="opacity:1" fill="#60bb8d" d="M 37.5,291.5 C 37.0069,289.51 35.8402,289.51 34,291.5C 33.8333,291.167 33.6667,290.833 33.5,290.5C 35.6705,288.914 38.0038,287.58 40.5,286.5C 41.0161,288.733 40.0161,290.4 37.5,291.5 Z"/></g>
<g><path style="opacity:1" fill="#64bc8b" d="M 37.5,291.5 C 46.4434,292.029 46.4434,294.029 37.5,297.5C 37.1667,297.333 36.8333,297.167 36.5,297C 37.3279,296.085 38.3279,295.419 39.5,295C 38.062,294.781 36.7287,294.281 35.5,293.5C 35.8555,292.478 36.5222,291.811 37.5,291.5 Z"/></g>
<g><path style="opacity:1" fill="#4cb793" d="M 46.5,297.5 C 47.7927,296.355 48.9593,296.689 50,298.5C 50.0753,304.255 48.0753,304.922 44,300.5C 43.1627,302.007 41.9961,302.507 40.5,302C 42.1137,299.873 44.1137,298.373 46.5,297.5 Z"/></g>
<g><path style="opacity:1" fill="#e2f423" d="M 46.5,297.5 C 49.4073,298.614 49.9073,300.281 48,302.5C 45.676,301.225 45.176,299.558 46.5,297.5 Z"/></g>
<g><path style="opacity:1" fill="#2fafa2" d="M 56.5,304.5 C 55.5,304.5 54.5,304.5 53.5,304.5C 53.9567,302.443 54.9567,302.443 56.5,304.5 Z"/></g>
<g><path style="opacity:1" fill="#4cb695" d="M 56.5,304.5 C 57.7562,304.461 58.7562,304.961 59.5,306C 58.0024,306.585 57.0024,306.085 56.5,304.5 Z"/></g>
<g><path style="opacity:1" fill="#b7b56e" d="M 71.5,304.5 C 74.1522,304.41 76.4855,305.076 78.5,306.5C 75.8478,306.59 73.5145,305.924 71.5,304.5 Z"/></g>
<g><path style="opacity:1" fill="#3eafa2" d="M 53.5,304.5 C 53.5106,306.017 54.1772,307.184 55.5,308C 54.1807,308.195 52.8474,308.028 51.5,307.5C 51.427,305.973 52.0937,304.973 53.5,304.5 Z"/></g>
<g><path style="opacity:1" fill="#49b597" d="M 51.5,307.5 C 51.5614,309.592 52.5614,311.092 54.5,312C 52.8374,312.265 51.3374,311.765 50,310.5C 49.4153,309.002 49.9153,308.002 51.5,307.5 Z"/></g>
<g><path style="opacity:1" fill="#47b1a0" d="M 67.5,309.5 C 68.2615,312.152 67.7615,314.818 66,317.5C 65.0813,312.425 63.248,311.758 60.5,315.5C 60.1667,315.333 59.8333,315.167 59.5,315C 60.5,312.667 61.5,310.333 62.5,308C 64.5348,307.401 66.2015,307.901 67.5,309.5 Z"/></g>
<g><path style="opacity:1" fill="#e7f61d" d="M 67.5,309.5 C 66.6279,313.089 64.9613,313.423 62.5,310.5C 62.8076,309.692 63.3076,309.025 64,308.5C 65.0113,309.337 66.1779,309.67 67.5,309.5 Z"/></g>
<g><path style="opacity:1" fill="#f7f90e" d="M 136.5,334.5 C 123.817,334.626 111.15,334.293 98.5,333.5C 89.7555,332.881 81.4222,330.881 73.5,327.5C 73.6107,326.883 73.944,326.383 74.5,326C 73.0267,325.29 72.3601,324.124 72.5,322.5C 75.7215,322.85 78.8882,323.517 82,324.5C 84.1114,324.299 85.9448,323.633 87.5,322.5C 88.1767,318.429 89.1767,314.429 90.5,310.5C 94.2236,312.431 98.2236,313.431 102.5,313.5C 108.601,314.972 114.935,315.639 121.5,315.5C 125.681,315.499 129.681,315.166 133.5,314.5C 139.18,313.416 144.846,312.416 150.5,311.5C 151.833,311.5 153.167,311.5 154.5,311.5C 154.505,315.534 154.838,319.534 155.5,323.5C 158.493,324.135 161.493,324.301 164.5,324C 164.833,323.667 165.167,323.333 165.5,323C 162.518,322.502 159.518,322.335 156.5,322.5C 156.116,317.99 155.449,313.657 154.5,309.5C 154.791,308.351 155.624,307.684 157,307.5C 185.109,305.22 200.943,290.22 204.5,262.5C 205.338,262.158 205.672,261.492 205.5,260.5C 206.638,257.696 206.805,254.696 206,251.5C 205.487,252.527 204.987,253.527 204.5,254.5C 203.737,256.368 202.737,258.035 201.5,259.5C 200.551,252.757 199.218,246.09 197.5,239.5C 202.19,237.933 206.856,236.599 211.5,235.5C 213.027,240.314 214.027,245.314 214.5,250.5C 216.167,250.5 217.833,250.5 219.5,250.5C 221.475,269.863 216.975,287.529 206,303.5C 197.262,313.12 186.429,318.954 173.5,321C 172.833,323 172.167,325 171.5,327C 160.256,331.345 148.59,333.845 136.5,334.5 Z"/></g>
<g><path style="opacity:1" fill="#4fb598" d="M 188.5,309.5 C 189.702,310.405 191.036,310.405 192.5,309.5C 190.998,312.022 189.665,312.022 188.5,309.5 Z"/></g>
<g><path style="opacity:1" fill="#53ba8c" d="M 165.5,311.5 C 167.462,308.848 169.462,308.848 171.5,311.5C 169.855,310.495 167.855,310.495 165.5,311.5 Z"/></g>
<g><path style="opacity:1" fill="#65c082" d="M 192.5,309.5 C 193.002,307.915 194.002,307.415 195.5,308C 194.756,309.039 193.756,309.539 192.5,309.5 Z"/></g>
<g><path style="opacity:1" fill="#41b19e" d="M 186.5,306.5 C 187.5,306.5 188.5,306.5 189.5,306.5C 188.89,307.391 188.557,308.391 188.5,309.5C 187.094,309.027 186.427,308.027 186.5,306.5 Z"/></g>
<g><path style="opacity:1" fill="#5cb98f" d="M 182.5,311.5 C 180.352,311.611 180.019,310.944 181.5,309.5C 179.955,308.548 178.288,308.215 176.5,308.5C 180.484,305.278 182.484,306.278 182.5,311.5 Z"/></g>
<g><path style="opacity:1" fill="#52bb8a" d="M 189.5,306.5 C 190.002,304.915 191.002,304.415 192.5,305C 191.756,306.039 190.756,306.539 189.5,306.5 Z"/></g>
<g><path style="opacity:1" fill="#33afa2" d="M 187.5,303.5 C 186.89,304.391 186.557,305.391 186.5,306.5C 183.952,304.987 184.285,303.987 187.5,303.5 Z"/></g>
<g><path style="opacity:1" fill="#53b792" d="M 187.5,303.5 C 188.002,301.915 189.002,301.415 190.5,302C 189.756,303.039 188.756,303.539 187.5,303.5 Z"/></g>
<g><path style="opacity:1" fill="#3fb0a1" d="M 200.5,297.5 C 202.519,298.538 202.853,299.872 201.5,301.5C 201.167,300.167 200.833,298.833 200.5,297.5 Z"/></g>
<g><path style="opacity:1" fill="#4fb597" d="M 200.5,297.5 C 198.037,295.888 196.037,296.388 194.5,299C 196,300.5 197.5,302 199,303.5C 199.708,302.619 200.542,301.953 201.5,301.5C 201.582,303.252 200.749,304.252 199,304.5C 196.551,303.056 194.385,301.222 192.5,299C 194.836,295.237 197.503,294.737 200.5,297.5 Z"/></g>
<g><path style="opacity:1" fill="#f3fa11" d="M 200.5,297.5 C 200.833,298.833 201.167,300.167 201.5,301.5C 200.542,301.953 199.708,302.619 199,303.5C 197.5,302 196,300.5 194.5,299C 196.037,296.388 198.037,295.888 200.5,297.5 Z"/></g>
<g><path style="opacity:1" fill="#4fba8c" d="M 204.5,293.5 C 205.756,293.461 206.756,293.961 207.5,295C 206.002,295.585 205.002,295.085 204.5,293.5 Z"/></g>
<g><path style="opacity:1" fill="#4cb498" d="M 204.5,293.5 C 202.577,293.205 200.91,292.372 199.5,291C 201.668,290.751 203.335,291.584 204.5,293.5 Z"/></g>
<g><path style="opacity:1" fill="#4cb49a" d="M 204.5,287.5 C 205.479,286.235 206.479,284.901 207.5,283.5C 208.105,284.587 207.772,285.754 206.5,287C 207.025,287.692 207.692,288.192 208.5,288.5C 209.5,287.167 210.5,285.833 211.5,284.5C 211.833,284.667 212.167,284.833 212.5,285C 210.825,289.691 208.158,290.524 204.5,287.5 Z"/></g>
<g><path style="opacity:1" fill="#4ab695" d="M 204.5,287.5 C 201.002,287.435 200.502,286.101 203,283.5C 203.41,284.901 203.91,286.234 204.5,287.5 Z"/></g>
<g><path style="opacity:1" fill="#52b499" d="M 207.5,276.5 C 209.277,277.6 211.277,278.434 213.5,279C 210.613,279.723 207.947,279.223 205.5,277.5C 205.957,276.702 206.624,276.369 207.5,276.5 Z"/></g>
<g><path style="opacity:1" fill="#54b794" d="M 207.5,276.5 C 208.842,275.207 210.509,274.374 212.5,274C 210.392,273.64 208.392,272.973 206.5,272C 217.601,272.556 217.935,274.056 207.5,276.5 Z"/></g>
<g><path style="opacity:1" fill="#5dbc89" d="M 208.5,261.5 C 209.239,261.369 209.906,261.536 210.5,262C 208.579,263.241 208.246,264.741 209.5,266.5C 210.624,265.086 211.624,263.586 212.5,262C 213.784,261.316 214.951,261.483 216,262.5C 216.946,264.956 216.446,266.956 214.5,268.5C 214.167,268.333 213.833,268.167 213.5,268C 215.037,266.89 215.703,265.39 215.5,263.5C 214.325,263.281 213.325,263.614 212.5,264.5C 210.753,269.557 208.753,269.724 206.5,265C 206.978,263.697 207.645,262.531 208.5,261.5 Z"/></g>
<g><path style="opacity:1" fill="#41b19f" d="M 176.5,308.5 C 176.574,310.411 177.574,311.578 179.5,312C 178.783,313.652 178.45,315.152 178.5,316.5C 176.472,313.899 175.806,311.232 176.5,308.5 Z"/></g>
<g><path style="opacity:1" fill="#4fb39a" d="M 182.5,311.5 C 184.085,312.002 184.585,313.002 184,314.5C 182.961,313.756 182.461,312.756 182.5,311.5 Z"/></g>
<g><path style="opacity:1" fill="#b0af6e" d="M 102.5,313.5 C 112.815,314.267 123.148,314.601 133.5,314.5C 129.681,315.166 125.681,315.499 121.5,315.5C 114.935,315.639 108.601,314.972 102.5,313.5 Z"/></g>
<g><path style="opacity:1" fill="#b4b416" d="M 88.5,307.5 C 89.4013,308.29 90.0679,309.29 90.5,310.5C 89.1767,314.429 88.1767,318.429 87.5,322.5C 87.6133,317.482 87.9466,312.482 88.5,307.5 Z"/></g>
<g><path style="opacity:1" fill="#38b0a1" d="M 165.5,311.5 C 164.425,315.938 166.092,317.938 170.5,317.5C 164.749,319.256 163.082,317.256 165.5,311.5 Z"/></g>
<g><path style="opacity:1" fill="#29a9ae" d="M 170.5,317.5 C 171.857,315.501 171.19,314.335 168.5,314C 169.793,313.51 171.127,313.343 172.5,313.5C 172.843,315.483 172.176,316.817 170.5,317.5 Z"/></g>
<g><path style="opacity:1" fill="#aeae06" d="M 71.5,321.5 C 76.813,322.098 82.1463,322.431 87.5,322.5C 85.9448,323.633 84.1114,324.299 82,324.5C 78.8882,323.517 75.7215,322.85 72.5,322.5C 72.3601,324.124 73.0267,325.29 74.5,326C 73.944,326.383 73.6107,326.883 73.5,327.5C 71.6921,326.082 71.0254,324.082 71.5,321.5 Z"/></g>
<g><path style="opacity:1" fill="#42b39b" d="M 131.5,321.5 C 126.812,321.892 125.478,324.225 127.5,328.5C 125.559,326.989 125.059,324.989 126,322.5C 127.678,320.447 129.511,320.113 131.5,321.5 Z"/></g>
<g><path style="opacity:1" fill="#dcee3f" d="M 131.5,321.5 C 132.369,323.717 132.702,326.05 132.5,328.5C 130.833,329.833 129.167,329.833 127.5,328.5C 125.478,324.225 126.812,321.892 131.5,321.5 Z"/></g>
<g><path style="opacity:1" fill="#afaf03" d="M 154.5,309.5 C 155.449,313.657 156.116,317.99 156.5,322.5C 159.518,322.335 162.518,322.502 165.5,323C 165.167,323.333 164.833,323.667 164.5,324C 161.493,324.301 158.493,324.135 155.5,323.5C 154.838,319.534 154.505,315.534 154.5,311.5C 153.167,311.5 151.833,311.5 150.5,311.5C 151.833,310.833 153.167,310.167 154.5,309.5 Z"/></g>
<g><path style="opacity:1" fill="#55b98f" d="M 131.5,321.5 C 133.439,322.014 134.439,323.347 134.5,325.5C 134.547,327.038 133.88,328.038 132.5,328.5C 132.702,326.05 132.369,323.717 131.5,321.5 Z"/></g>
<g><path style="opacity:1" fill="#2eabac" d="M 114.5,324.5 C 113.081,325.451 111.415,325.784 109.5,325.5C 109.657,326.873 109.49,328.207 109,329.5C 108.502,326.518 108.335,323.518 108.5,320.5C 110.527,320.338 112.527,320.505 114.5,321C 115.791,322.292 115.791,323.458 114.5,324.5 Z"/></g>
<g><path style="opacity:1" fill="#d6ee34" d="M 114.5,324.5 C 112.833,324.5 111.167,324.5 109.5,324.5C 109.5,323.5 109.5,322.5 109.5,321.5C 112.285,320.916 113.952,321.916 114.5,324.5 Z"/></g>
<g><path style="opacity:1" fill="#61bd86" d="M 117.5,320.5 C 120.044,320.104 122.211,320.771 124,322.5C 123.367,324.338 123.534,326.171 124.5,328C 124.167,328.5 123.833,329 123.5,329.5C 122.614,328.675 122.281,327.675 122.5,326.5C 121.167,326.5 119.833,326.5 118.5,326.5C 117.223,327.317 116.89,325.317 117.5,320.5 Z"/></g>
<g><path style="opacity:1" fill="#feff00" d="M 118.5,322.5 C 119.978,322.238 121.311,322.571 122.5,323.5C 121.833,323.833 121.167,324.167 120.5,324.5C 119.287,324.253 118.62,323.586 118.5,322.5 Z"/></g>
<g><path style="opacity:1" fill="#b0ae4e" d="M 98.5,333.5 C 111.15,334.293 123.817,334.626 136.5,334.5C 131.678,335.166 126.678,335.499 121.5,335.5C 113.611,335.656 105.944,334.99 98.5,333.5 Z"/></g>
</svg>
