<?xml version="1.0" encoding="UTF-8"?>
<!DOCTYPE svg PUBLIC "-//W3C//DTD SVG 1.1//EN" "http://www.w3.org/Graphics/SVG/1.1/DTD/svg11.dtd">
<svg xmlns="http://www.w3.org/2000/svg" version="1.1" width="640px" height="480px" style="shape-rendering:geometricPrecision; text-rendering:geometricPrecision; image-rendering:optimizeQuality; fill-rule:evenodd; clip-rule:evenodd" xmlns:xlink="http://www.w3.org/1999/xlink">
<g><path style="opacity:1" fill="#fefefe" d="M -0.5,-0.5 C 212.833,-0.5 426.167,-0.5 639.5,-0.5C 639.5,52.8333 639.5,106.167 639.5,159.5C 500.167,159.5 360.833,159.5 221.5,159.5C 224.447,135.195 226.114,110.861 226.5,86.5C 225.264,85.7542 223.93,85.4208 222.5,85.5C 190.208,73.1634 156.875,69.9967 122.5,76C 112.291,78.2177 102.291,81.0511 92.5,84.5C 88.9683,84.7517 86.9683,86.5851 86.5,90C 88.1099,113.209 90.1099,136.376 92.5,159.5C 61.5,159.5 30.5,159.5 -0.5,159.5C -0.5,106.167 -0.5,52.8333 -0.5,-0.5 Z"/></g>
<g><path style="opacity:1" fill="#0c03be" d="M 222.5,85.5 C 220.943,112.24 218.443,138.907 215,165.5C 211.013,190.148 197.847,207.981 175.5,219C 169.494,221.891 163.327,224.391 157,226.5C 139.908,221.295 125.241,212.295 113,199.5C 103.852,187.061 98.8521,173.061 98,157.5C 94.935,133.257 93.1017,108.924 92.5,84.5C 102.291,81.0511 112.291,78.2177 122.5,76C 156.875,69.9967 190.208,73.1634 222.5,85.5 Z"/></g>
<g><path style="opacity:1" fill="#e6c828" d="M 140.5,79.5 C 142.891,81.1364 145.558,82.3031 148.5,83C 147.672,83.9147 146.672,84.5814 145.5,85C 149.303,87.4764 148.637,88.8098 143.5,89C 142.167,92.3333 140.833,92.3333 139.5,89C 134.363,88.8098 133.697,87.4764 137.5,85C 136.672,84.0853 135.672,83.4186 134.5,83C 136.889,82.2612 138.889,81.0946 140.5,79.5 Z"/></g>
<g><path style="opacity:1" fill="#e6c828" d="M 171.5,79.5 C 173.891,81.1364 176.558,82.3031 179.5,83C 178.672,83.9147 177.672,84.5814 176.5,85C 180.303,87.4764 179.637,88.8098 174.5,89C 173.167,92.3333 171.833,92.3333 170.5,89C 165.363,88.8098 164.697,87.4764 168.5,85C 167.328,84.5814 166.328,83.9147 165.5,83C 167.889,82.2612 169.889,81.0946 171.5,79.5 Z"/></g>
<g><path style="opacity:1" fill="#cf020a" d="M 92.5,84.5 C 93.1017,108.924 94.935,133.257 98,157.5C 98.8521,173.061 103.852,187.061 113,199.5C 125.241,212.295 139.908,221.295 157,226.5C 163.327,224.391 169.494,221.891 175.5,219C 197.847,207.981 211.013,190.148 215,165.5C 218.443,138.907 220.943,112.24 222.5,85.5C 223.93,85.4208 225.264,85.7542 226.5,86.5C 226.114,110.861 224.447,135.195 221.5,159.5C 219.325,185.362 207.325,205.196 185.5,219C 176.398,224.136 166.898,228.302 157,231.5C 138.301,226.157 122.301,216.49 109,202.5C 99.2782,189.841 93.7782,175.508 92.5,159.5C 90.1099,136.376 88.1099,113.209 86.5,90C 86.9683,86.5851 88.9683,84.7517 92.5,84.5 Z"/></g>
<g><path style="opacity:1" fill="#ebcd24" d="M 156.5,102.5 C 158.103,105.562 160.77,107.062 164.5,107C 163.5,107.833 162.5,108.667 161.5,109.5C 165.35,111.959 164.684,113.126 159.5,113C 158.667,113.833 157.833,114.667 157,115.5C 155.2,113.683 153.034,112.516 150.5,112C 153.249,109.81 152.915,108.143 149.5,107C 151.608,106.64 153.608,105.973 155.5,105C 156.252,104.329 156.586,103.496 156.5,102.5 Z"/></g>
<g><path style="opacity:1" fill="#fcfcfe" d="M 156.5,126.5 C 161.185,133.354 165.518,140.52 169.5,148C 171.044,149.187 172.711,149.52 174.5,149C 176.345,145.145 179.012,141.978 182.5,139.5C 186.199,141.032 188.699,143.699 190,147.5C 196,154.167 202,160.833 208,167.5C 208.438,173.355 206.938,178.689 203.5,183.5C 195.803,186.505 188.47,186.005 181.5,182C 179.5,181.833 177.5,181.667 175.5,181.5C 169.368,182.982 163.201,184.316 157,185.5C 150.931,184.464 144.931,183.131 139,181.5C 133.092,182.753 127.258,184.086 121.5,185.5C 117.511,185.518 113.678,184.851 110,183.5C 107.411,178.416 106.078,173.082 106,167.5C 113.714,159.722 120.714,151.389 127,142.5C 128.586,141.624 130.086,140.624 131.5,139.5C 134.861,141.895 137.528,144.895 139.5,148.5C 140.768,149.428 142.101,149.595 143.5,149C 148.224,141.718 152.557,134.218 156.5,126.5 Z"/></g>
<g><path style="opacity:1" fill="#0000be" d="M -0.5,159.5 C 30.5,159.5 61.5,159.5 92.5,159.5C 93.7782,175.508 99.2782,189.841 109,202.5C 122.301,216.49 138.301,226.157 157,231.5C 166.898,228.302 176.398,224.136 185.5,219C 207.325,205.196 219.325,185.362 221.5,159.5C 360.833,159.5 500.167,159.5 639.5,159.5C 639.5,212.833 639.5,266.167 639.5,319.5C 426.167,319.5 212.833,319.5 -0.5,319.5C -0.5,266.167 -0.5,212.833 -0.5,159.5 Z"/></g>
<g><path style="opacity:1" fill="#ebeafa" d="M 133.5,185.5 C 139.602,184.733 145.269,185.899 150.5,189C 152.667,189.167 154.833,189.333 157,189.5C 163.069,188.464 169.069,187.131 175,185.5C 179.219,185.357 183.052,186.524 186.5,189C 191.202,189.172 195.868,189.672 200.5,190.5C 198.268,193.363 195.268,194.696 191.5,194.5C 186.314,192.574 180.981,191.24 175.5,190.5C 169.368,191.982 163.201,193.316 157,194.5C 151.118,192.909 145.118,191.575 139,190.5C 136.833,190.667 134.667,190.833 132.5,191C 127.185,194.706 121.518,195.373 115.5,193C 114.643,192.311 113.977,191.478 113.5,190.5C 118.132,189.672 122.798,189.172 127.5,189C 129.727,188.059 131.727,186.892 133.5,185.5 Z"/></g>
<g><path style="opacity:1" fill="#fcfbfe" d="M 133.5,194.5 C 139.602,193.733 145.269,194.899 150.5,198C 152.667,198.167 154.833,198.333 157,198.5C 163.069,197.464 169.069,196.131 175,194.5C 181.181,196.001 187.348,197.667 193.5,199.5C 183.266,209.705 171.1,216.705 157,220.5C 142.9,216.705 130.734,209.705 120.5,199.5C 125.444,199.186 129.778,197.519 133.5,194.5 Z"/></g>
<g><path style="opacity:1" fill="#d50000" d="M -0.5,319.5 C 212.833,319.5 426.167,319.5 639.5,319.5C 639.5,372.833 639.5,426.167 639.5,479.5C 426.167,479.5 212.833,479.5 -0.5,479.5C -0.5,426.167 -0.5,372.833 -0.5,319.5 Z"/></g>
</svg>
