<?xml version="1.0" encoding="UTF-8"?>
<!DOCTYPE svg PUBLIC "-//W3C//DTD SVG 1.1//EN" "http://www.w3.org/Graphics/SVG/1.1/DTD/svg11.dtd">
<svg xmlns="http://www.w3.org/2000/svg" version="1.1" width="640px" height="480px" style="shape-rendering:geometricPrecision; text-rendering:geometricPrecision; image-rendering:optimizeQuality; fill-rule:evenodd; clip-rule:evenodd" xmlns:xlink="http://www.w3.org/1999/xlink">
<g><path style="opacity:1" fill="#fefefe" d="M -0.5,-0.5 C 212.833,-0.5 426.167,-0.5 639.5,-0.5C 639.5,52.8333 639.5,106.167 639.5,159.5C 538.5,159.5 437.5,159.5 336.5,159.5C 337.299,184.83 337.466,210.163 337,235.5C 335.41,255.86 330.076,275.194 321,293.5C 315.703,302.612 309.869,311.278 303.5,319.5C 282.92,340.739 259.253,357.739 232.5,370.5C 205.747,357.739 182.08,340.739 161.5,319.5C 143.33,297.473 132.496,272.14 129,243.5C 128.5,215.502 128.333,187.502 128.5,159.5C 85.5,159.5 42.5,159.5 -0.5,159.5C -0.5,106.167 -0.5,52.8333 -0.5,-0.5 Z"/></g>
<g><path style="opacity:1" fill="#ee1e26" d="M 309.5,295.5 C 305.271,287.44 298.938,281.607 290.5,278C 278.805,275.935 269.638,279.768 263,289.5C 258.614,278.696 251.447,270.362 241.5,264.5C 241.5,251.833 241.5,239.167 241.5,226.5C 247.167,226.5 252.833,226.5 258.5,226.5C 269.39,226.865 280.056,228.532 290.5,231.5C 291.823,221.992 291.823,212.325 290.5,202.5C 289.893,202.624 289.56,202.957 289.5,203.5C 273.408,207.386 257.074,209.053 240.5,208.5C 240.5,199.833 240.5,191.167 240.5,182.5C 253.847,182.334 266.847,184.334 279.5,188.5C 280.833,178.833 280.833,169.167 279.5,159.5C 267.165,163.433 254.498,165.433 241.5,165.5C 241.334,160.489 241.501,155.489 242,150.5C 243.235,143.161 244.402,135.827 245.5,128.5C 236.833,128.5 228.167,128.5 219.5,128.5C 221.711,140.733 223.044,153.066 223.5,165.5C 210.254,165.908 197.421,163.908 185,159.5C 184.5,168.827 184.334,178.161 184.5,187.5C 197.232,183.872 210.232,182.205 223.5,182.5C 223.5,191.167 223.5,199.833 223.5,208.5C 207.197,209.543 191.197,207.876 175.5,203.5C 174.335,212.816 174.168,222.149 175,231.5C 184.581,228.485 194.414,226.818 204.5,226.5C 210.833,226.5 217.167,226.5 223.5,226.5C 223.5,239.167 223.5,251.833 223.5,264.5C 213.553,270.362 206.386,278.696 202,289.5C 191.756,276.299 179.589,274.132 165.5,283C 161.923,287.066 158.589,291.232 155.5,295.5C 144.655,277.794 138.488,258.46 137,237.5C 136.553,198.139 137.387,158.806 139.5,119.5C 201.5,119.5 263.5,119.5 325.5,119.5C 328.144,160.46 328.978,201.46 328,242.5C 325.474,261.586 319.307,279.252 309.5,295.5 Z"/></g>
<g><path style="opacity:1" fill="#fffcfc" d="M 289.5,203.5 C 290.494,212.652 290.827,221.985 290.5,231.5C 280.056,228.532 269.39,226.865 258.5,226.5C 252.69,225.51 246.69,225.177 240.5,225.5C 240.5,238.5 240.5,251.5 240.5,264.5C 235.132,261.919 229.799,261.919 224.5,264.5C 224.5,251.5 224.5,238.5 224.5,225.5C 217.646,225.176 210.979,225.509 204.5,226.5C 194.414,226.818 184.581,228.485 175,231.5C 174.168,222.149 174.335,212.816 175.5,203.5C 191.197,207.876 207.197,209.543 223.5,208.5C 223.5,199.833 223.5,191.167 223.5,182.5C 210.232,182.205 197.232,183.872 184.5,187.5C 184.334,178.161 184.5,168.827 185,159.5C 197.421,163.908 210.254,165.908 223.5,165.5C 223.044,153.066 221.711,140.733 219.5,128.5C 228.167,128.5 236.833,128.5 245.5,128.5C 244.402,135.827 243.235,143.161 242,150.5C 241.501,155.489 241.334,160.489 241.5,165.5C 254.498,165.433 267.165,163.433 279.5,159.5C 280.833,169.167 280.833,178.833 279.5,188.5C 266.847,184.334 253.847,182.334 240.5,182.5C 240.5,191.167 240.5,199.833 240.5,208.5C 257.074,209.053 273.408,207.386 289.5,203.5 Z"/></g>
<g><path style="opacity:1" fill="#0c4ea2" d="M -0.5,159.5 C 42.5,159.5 85.5,159.5 128.5,159.5C 128.333,187.502 128.5,215.502 129,243.5C 132.496,272.14 143.33,297.473 161.5,319.5C 107.5,319.5 53.5,319.5 -0.5,319.5C -0.5,266.167 -0.5,212.833 -0.5,159.5 Z"/></g>
<g><path style="opacity:1" fill="#0b4ea2" d="M 639.5,159.5 C 639.5,212.833 639.5,266.167 639.5,319.5C 527.5,319.5 415.5,319.5 303.5,319.5C 309.869,311.278 315.703,302.612 321,293.5C 330.076,275.194 335.41,255.86 337,235.5C 337.466,210.163 337.299,184.83 336.5,159.5C 437.5,159.5 538.5,159.5 639.5,159.5 Z"/></g>
<g><path style="opacity:1" fill="#f3565a" d="M 289.5,203.5 C 289.56,202.957 289.893,202.624 290.5,202.5C 291.823,212.325 291.823,221.992 290.5,231.5C 290.827,221.985 290.494,212.652 289.5,203.5 Z"/></g>
<g><path style="opacity:1" fill="#f68286" d="M 204.5,226.5 C 210.979,225.509 217.646,225.176 224.5,225.5C 224.5,238.5 224.5,251.5 224.5,264.5C 224.167,264.5 223.833,264.5 223.5,264.5C 223.5,251.833 223.5,239.167 223.5,226.5C 217.167,226.5 210.833,226.5 204.5,226.5 Z"/></g>
<g><path style="opacity:1" fill="#f68185" d="M 258.5,226.5 C 252.833,226.5 247.167,226.5 241.5,226.5C 241.5,239.167 241.5,251.833 241.5,264.5C 241.167,264.5 240.833,264.5 240.5,264.5C 240.5,251.5 240.5,238.5 240.5,225.5C 246.69,225.177 252.69,225.51 258.5,226.5 Z"/></g>
<g><path style="opacity:1" fill="#114ea1" d="M 240.5,264.5 C 240.833,264.5 241.167,264.5 241.5,264.5C 251.447,270.362 258.614,278.696 263,289.5C 269.638,279.768 278.805,275.935 290.5,278C 298.938,281.607 305.271,287.44 309.5,295.5C 295.568,317.599 277.234,335.099 254.5,348C 247.324,352.088 239.991,355.922 232.5,359.5C 205.809,347.637 182.976,330.637 164,308.5C 160.944,304.284 158.111,299.951 155.5,295.5C 158.589,291.232 161.923,287.066 165.5,283C 179.589,274.132 191.756,276.299 202,289.5C 206.386,278.696 213.553,270.362 223.5,264.5C 223.833,264.5 224.167,264.5 224.5,264.5C 229.799,261.919 235.132,261.919 240.5,264.5 Z"/></g>
<g><path style="opacity:1" fill="#ee1c25" d="M -0.5,319.5 C 53.5,319.5 107.5,319.5 161.5,319.5C 182.08,340.739 205.747,357.739 232.5,370.5C 259.253,357.739 282.92,340.739 303.5,319.5C 415.5,319.5 527.5,319.5 639.5,319.5C 639.5,372.833 639.5,426.167 639.5,479.5C 426.167,479.5 212.833,479.5 -0.5,479.5C -0.5,426.167 -0.5,372.833 -0.5,319.5 Z"/></g>
</svg>
