<?xml version="1.0" encoding="UTF-8"?>
<!DOCTYPE svg PUBLIC "-//W3C//DTD SVG 1.1//EN" "http://www.w3.org/Graphics/SVG/1.1/DTD/svg11.dtd">
<svg xmlns="http://www.w3.org/2000/svg" version="1.1" width="640px" height="480px" style="shape-rendering:geometricPrecision; text-rendering:geometricPrecision; image-rendering:optimizeQuality; fill-rule:evenodd; clip-rule:evenodd" xmlns:xlink="http://www.w3.org/1999/xlink">
<g><path style="opacity:1" fill="#0100d5" d="M -0.5,-0.5 C 212.833,-0.5 426.167,-0.5 639.5,-0.5C 639.5,44.5 639.5,89.5 639.5,134.5C 426.193,241.153 212.86,347.82 -0.5,454.5C -0.5,302.833 -0.5,151.167 -0.5,-0.5 Z"/></g>
<g><path style="opacity:1" fill="#fbfbfe" d="M 65.5,9.5 C 66.4972,9.47008 67.1639,9.97008 67.5,11C 70.6939,20.5533 74.0272,30.0533 77.5,39.5C 89.1524,40.3325 100.819,40.8325 112.5,41C 102.992,47.2536 93.6587,53.7536 84.5,60.5C 87.5681,69.5377 90.7347,78.5377 94,87.5C 94.6667,88.8333 94.6667,90.1667 94,91.5C 84.9204,85.0433 75.7537,78.71 66.5,72.5C 56.8616,78.9721 47.3616,85.6388 38,92.5C 40.7668,81.698 44.2668,71.0314 48.5,60.5C 39.0286,54.1948 29.6953,47.6948 20.5,41C 32.1619,40.5001 43.8286,40.3335 55.5,40.5C 58.8293,30.1783 62.1627,19.845 65.5,9.5 Z"/></g>
<g><path style="opacity:1" fill="#fbfbfe" d="M 245.5,8.5 C 249.541,18.9545 253.208,29.6212 256.5,40.5C 268.171,40.3335 279.838,40.5001 291.5,41C 282.305,47.6948 272.971,54.1948 263.5,60.5C 267.733,71.0314 271.233,81.698 274,92.5C 264.638,85.6388 255.138,78.9721 245.5,72.5C 235.846,79.6071 226.179,85.9405 216.5,91.5C 220.265,81.3715 223.932,71.2048 227.5,61C 218.197,54.3432 208.864,47.6765 199.5,41C 211.181,40.8325 222.848,40.3325 234.5,39.5C 238.373,29.214 242.039,18.8807 245.5,8.5 Z"/></g>
<g><path style="opacity:1" fill="#fbfbfe" d="M 167.5,108.5 C 178.833,109.167 190.167,109.833 201.5,110.5C 192.381,116.446 183.381,122.613 174.5,129C 178.43,139.457 181.93,149.957 185,160.5C 175.823,153.913 166.49,147.58 157,141.5C 147.374,147.622 137.874,153.955 128.5,160.5C 130.947,150.151 134.28,139.817 138.5,129.5C 129.782,122.785 120.782,116.452 111.5,110.5C 122.833,109.833 134.167,109.167 145.5,108.5C 148.964,98.1098 152.63,87.7765 156.5,77.5C 160.368,87.7716 164.035,98.1049 167.5,108.5 Z"/></g>
<g><path style="opacity:1" fill="#a6a6f0" d="M 145.5,108.5 C 134.167,109.167 122.833,109.833 111.5,110.5C 110.711,110.217 110.044,109.717 109.5,109C 121.495,108.5 133.495,108.333 145.5,108.5 Z"/></g>
<g><path style="opacity:1" fill="#a7a7f0" d="M 167.5,108.5 C 179.505,108.333 191.505,108.5 203.5,109C 202.956,109.717 202.289,110.217 201.5,110.5C 190.167,109.833 178.833,109.167 167.5,108.5 Z"/></g>
<g><path style="opacity:1" fill="#fdcb02" d="M 639.5,134.5 C 639.5,151.5 639.5,168.5 639.5,185.5C 443.187,282.99 247.187,380.99 51.5,479.5C 34.1667,479.5 16.8333,479.5 -0.5,479.5C -0.5,471.167 -0.5,462.833 -0.5,454.5C 212.86,347.82 426.193,241.153 639.5,134.5 Z"/></g>
<g><path style="opacity:1" fill="#fbfbfe" d="M 77.5,175.5 C 88.8333,176.167 100.167,176.833 111.5,177.5C 102.218,183.452 93.2178,189.785 84.5,196.5C 88.5336,206.769 92.0336,217.103 95,227.5C 85.758,220.795 76.258,214.461 66.5,208.5C 56.742,214.461 47.242,220.795 38,227.5C 40.9664,217.103 44.4664,206.769 48.5,196.5C 39.7822,189.785 30.7822,183.452 21.5,177.5C 32.8333,176.833 44.1667,176.167 55.5,175.5C 58.3826,165.183 62.0492,155.183 66.5,145.5C 70.5587,155.342 74.2254,165.342 77.5,175.5 Z"/></g>
<g><path style="opacity:1" fill="#fafafe" d="M 256.5,175.5 C 267.833,176.167 279.167,176.833 290.5,177.5C 281.381,183.446 272.381,189.613 263.5,196C 267.826,206.31 271.326,216.81 274,227.5C 264.823,220.913 255.49,214.58 246,208.5C 236.374,214.622 226.874,220.955 217.5,227.5C 219.923,217.22 223.256,206.886 227.5,196.5C 218.331,189.505 208.997,182.672 199.5,176C 211.167,175.667 222.833,175.333 234.5,175C 238.066,164.802 241.733,154.636 245.5,144.5C 249.762,154.62 253.429,164.953 256.5,175.5 Z"/></g>
<g><path style="opacity:1" fill="#b8b8f3" d="M 55.5,175.5 C 44.1667,176.167 32.8333,176.833 21.5,177.5C 20.7109,177.217 20.0442,176.717 19.5,176C 31.4954,175.5 43.4954,175.333 55.5,175.5 Z"/></g>
<g><path style="opacity:1" fill="#a7a6f0" d="M 77.5,175.5 C 89.5046,175.333 101.505,175.5 113.5,176C 112.956,176.717 112.289,177.217 111.5,177.5C 100.167,176.833 88.8333,176.167 77.5,175.5 Z"/></g>
<g><path style="opacity:1" fill="#a9a9f0" d="M 256.5,175.5 C 268.505,175.333 280.505,175.5 292.5,176C 291.956,176.717 291.289,177.217 290.5,177.5C 279.167,176.833 267.833,176.167 256.5,175.5 Z"/></g>
<g><path style="opacity:1" fill="#006000" d="M 639.5,185.5 C 639.5,283.5 639.5,381.5 639.5,479.5C 443.5,479.5 247.5,479.5 51.5,479.5C 247.187,380.99 443.187,282.99 639.5,185.5 Z"/></g>
</svg>
