<?xml version="1.0" encoding="UTF-8"?>
<!DOCTYPE svg PUBLIC "-//W3C//DTD SVG 1.1//EN" "http://www.w3.org/Graphics/SVG/1.1/DTD/svg11.dtd">
<svg xmlns="http://www.w3.org/2000/svg" version="1.1" width="640px" height="480px" style="shape-rendering:geometricPrecision; text-rendering:geometricPrecision; image-rendering:optimizeQuality; fill-rule:evenodd; clip-rule:evenodd" xmlns:xlink="http://www.w3.org/1999/xlink">
<g><path style="opacity:1" fill="#40a6ff" d="M -0.5,-0.5 C 212.833,-0.5 426.167,-0.5 639.5,-0.5C 639.5,159.5 639.5,319.5 639.5,479.5C 426.167,479.5 212.833,479.5 -0.5,479.5C -0.5,319.5 -0.5,159.5 -0.5,-0.5 Z"/></g>
<g><path style="opacity:1" fill="#fdfeff" d="M 193.5,225.5 C 203.5,224.833 213.5,224.167 223.5,223.5C 244.836,223.667 266.169,223.5 287.5,223C 297.328,196.183 307.162,169.35 317,142.5C 327.725,169.175 337.558,196.175 346.5,223.5C 378.168,223.333 409.835,223.5 441.5,224C 417.5,240 393.5,256 369.5,272C 368.01,272.745 367.01,273.912 366.5,275.5C 376.001,302.505 385.168,329.505 394,356.5C 368.878,339.539 343.378,323.206 317.5,307.5C 292.223,323.601 267.056,339.934 242,356.5C 249.836,330.326 258.502,304.326 268,278.5C 268.667,277.167 268.667,275.833 268,274.5C 243.395,257.783 218.562,241.45 193.5,225.5 Z"/></g>
<g><path style="opacity:1" fill="#80c4ff" d="M 223.5,223.5 C 213.5,224.167 203.5,224.833 193.5,225.5C 192.957,225.44 192.624,225.107 192.5,224.5C 202.812,223.501 213.145,223.168 223.5,223.5 Z"/></g>
</svg>
