<?xml version="1.0" encoding="UTF-8"?>
<!DOCTYPE svg PUBLIC "-//W3C//DTD SVG 1.1//EN" "http://www.w3.org/Graphics/SVG/1.1/DTD/svg11.dtd">
<svg xmlns="http://www.w3.org/2000/svg" version="1.1" width="640px" height="480px" style="shape-rendering:geometricPrecision; text-rendering:geometricPrecision; image-rendering:optimizeQuality; fill-rule:evenodd; clip-rule:evenodd" xmlns:xlink="http://www.w3.org/1999/xlink">
<g><path style="opacity:1" fill="#017847" d="M -0.5,-0.5 C 29.1667,-0.5 58.8333,-0.5 88.5,-0.5C 182.101,62.977 275.768,126.477 369.5,190C 459.499,190.5 549.499,190.667 639.5,190.5C 639.5,223.167 639.5,255.833 639.5,288.5C 549.833,288.333 460.166,288.5 370.5,289C 276.422,352.028 182.755,415.528 89.5,479.5C 59.5,479.5 29.5,479.5 -0.5,479.5C -0.5,459.5 -0.5,439.5 -0.5,419.5C 88.1379,359.51 176.805,299.51 265.5,239.5C 176.805,179.49 88.1379,119.49 -0.5,59.5C -0.5,39.5 -0.5,19.5 -0.5,-0.5 Z"/></g>
<g><path style="opacity:1" fill="#fefefe" d="M 88.5,-0.5 C 107.167,-0.5 125.833,-0.5 144.5,-0.5C 223.323,52.8037 302.323,105.97 381.5,159C 467.499,159.5 553.499,159.667 639.5,159.5C 639.5,169.833 639.5,180.167 639.5,190.5C 549.499,190.667 459.499,190.5 369.5,190C 275.768,126.477 182.101,62.977 88.5,-0.5 Z"/></g>
<g><path style="opacity:1" fill="#e1392d" d="M 144.5,-0.5 C 309.5,-0.5 474.5,-0.5 639.5,-0.5C 639.5,52.8333 639.5,106.167 639.5,159.5C 553.499,159.667 467.499,159.5 381.5,159C 302.323,105.97 223.323,52.8037 144.5,-0.5 Z"/></g>
<g><path style="opacity:1" fill="#fdb815" d="M -0.5,59.5 C 88.1379,119.49 176.805,179.49 265.5,239.5C 176.805,299.51 88.1379,359.51 -0.5,419.5C -0.5,406.833 -0.5,394.167 -0.5,381.5C 69.9772,334.425 140.311,287.091 210.5,239.5C 140.311,191.909 69.9772,144.575 -0.5,97.5C -0.5,84.8333 -0.5,72.1667 -0.5,59.5 Z"/></g>
<g><path style="opacity:1" fill="#000000" d="M -0.5,97.5 C 69.9772,144.575 140.311,191.909 210.5,239.5C 140.311,287.091 69.9772,334.425 -0.5,381.5C -0.5,286.833 -0.5,192.167 -0.5,97.5 Z"/></g>
<g><path style="opacity:0.999" fill="#fefefe" d="M 639.5,288.5 C 639.5,298.833 639.5,309.167 639.5,319.5C 553.499,319.333 467.499,319.5 381.5,320C 302.383,372.638 223.716,425.805 145.5,479.5C 126.833,479.5 108.167,479.5 89.5,479.5C 182.755,415.528 276.422,352.028 370.5,289C 460.166,288.5 549.833,288.333 639.5,288.5 Z"/></g>
<g><path style="opacity:1" fill="#000c8a" d="M 639.5,319.5 C 639.5,372.833 639.5,426.167 639.5,479.5C 474.833,479.5 310.167,479.5 145.5,479.5C 223.716,425.805 302.383,372.638 381.5,320C 467.499,319.5 553.499,319.333 639.5,319.5 Z"/></g>
</svg>
