<?xml version="1.0" encoding="UTF-8"?>
<!DOCTYPE svg PUBLIC "-//W3C//DTD SVG 1.1//EN" "http://www.w3.org/Graphics/SVG/1.1/DTD/svg11.dtd">
<svg xmlns="http://www.w3.org/2000/svg" version="1.1" width="640px" height="480px" style="shape-rendering:geometricPrecision; text-rendering:geometricPrecision; image-rendering:optimizeQuality; fill-rule:evenodd; clip-rule:evenodd" xmlns:xlink="http://www.w3.org/1999/xlink">
<g><path style="opacity:1" fill="#000000" d="M 0.5,-0.5 C 213.5,-0.5 426.5,-0.5 639.5,-0.5C 639.5,47.5 639.5,95.5 639.5,143.5C 509.5,143.5 379.5,143.5 249.5,143.5C 166.301,95.7375 83.3011,47.7375 0.5,-0.5 Z"/></g>
<g><path style="opacity:1" fill="#0f47ae" d="M -0.5,-0.5 C -0.166667,-0.5 0.166667,-0.5 0.5,-0.5C 83.3011,47.7375 166.301,95.7375 249.5,143.5C 263.166,152.002 277.166,160.002 291.5,167.5C 332.461,191.437 373.461,215.437 414.5,239.5C 373.461,263.563 332.461,287.563 291.5,311.5C 277.166,318.998 263.166,326.998 249.5,335.5C 166.301,383.263 83.3011,431.263 0.5,479.5C 0.166667,479.5 -0.166667,479.5 -0.5,479.5C -0.5,319.5 -0.5,159.5 -0.5,-0.5 Z"/></g>
<g><path style="opacity:1" fill="#fefefe" d="M 249.5,143.5 C 379.5,143.5 509.5,143.5 639.5,143.5C 639.5,151.5 639.5,159.5 639.5,167.5C 523.5,167.5 407.5,167.5 291.5,167.5C 277.166,160.002 263.166,152.002 249.5,143.5 Z"/></g>
<g><path style="opacity:1" fill="#29579d" d="M 115.5,167.5 C 114.833,185.833 114.167,204.167 113.5,222.5C 113.167,203.821 113.5,185.155 114.5,166.5C 115.107,166.624 115.44,166.957 115.5,167.5 Z"/></g>
<g><path style="opacity:1" fill="#d9121a" d="M 291.5,167.5 C 407.5,167.5 523.5,167.5 639.5,167.5C 639.5,215.5 639.5,263.5 639.5,311.5C 523.5,311.5 407.5,311.5 291.5,311.5C 332.461,287.563 373.461,263.563 414.5,239.5C 373.461,215.437 332.461,191.437 291.5,167.5 Z"/></g>
<g><path style="opacity:1" fill="#f9db0f" d="M 115.5,167.5 C 125.755,182.428 136.422,197.095 147.5,211.5C 164.761,205.073 182.094,199.74 199.5,195.5C 188.833,210.167 178.167,224.833 167.5,239.5C 178.167,254.167 188.833,268.833 199.5,283.5C 199.167,283.833 198.833,284.167 198.5,284.5C 181.693,278.731 164.859,273.064 148,267.5C 136.589,281.744 125.756,296.41 115.5,311.5C 114.833,293.167 114.167,274.833 113.5,256.5C 96.3035,251.435 79.3035,245.768 62.5,239.5C 79.3035,233.232 96.3035,227.565 113.5,222.5C 114.167,204.167 114.833,185.833 115.5,167.5 Z"/></g>
<g><path style="opacity:1" fill="#28579d" d="M 113.5,256.5 C 114.167,274.833 114.833,293.167 115.5,311.5C 115.44,312.043 115.107,312.376 114.5,312.5C 113.5,293.845 113.167,275.179 113.5,256.5 Z"/></g>
<g><path style="opacity:1" fill="#fefefe" d="M 291.5,311.5 C 407.5,311.5 523.5,311.5 639.5,311.5C 639.5,319.5 639.5,327.5 639.5,335.5C 509.5,335.5 379.5,335.5 249.5,335.5C 263.166,326.998 277.166,318.998 291.5,311.5 Z"/></g>
<g><path style="opacity:1" fill="#078830" d="M 249.5,335.5 C 379.5,335.5 509.5,335.5 639.5,335.5C 639.5,383.5 639.5,431.5 639.5,479.5C 426.5,479.5 213.5,479.5 0.5,479.5C 83.3011,431.263 166.301,383.263 249.5,335.5 Z"/></g>
</svg>
