<?xml version="1.0" encoding="UTF-8"?>
<!DOCTYPE svg PUBLIC "-//W3C//DTD SVG 1.1//EN" "http://www.w3.org/Graphics/SVG/1.1/DTD/svg11.dtd">
<svg xmlns="http://www.w3.org/2000/svg" version="1.1" width="640px" height="480px" style="shape-rendering:geometricPrecision; text-rendering:geometricPrecision; image-rendering:optimizeQuality; fill-rule:evenodd; clip-rule:evenodd" xmlns:xlink="http://www.w3.org/1999/xlink">
<g><path style="opacity:1" fill="#fefefe" d="M -0.5,-0.5 C 212.833,-0.5 426.167,-0.5 639.5,-0.5C 639.5,159.5 639.5,319.5 639.5,479.5C 426.167,479.5 212.833,479.5 -0.5,479.5C -0.5,319.5 -0.5,159.5 -0.5,-0.5 Z"/></g>
<g><path style="opacity:1" fill="#040404" d="M 135.5,45.5 C 141.28,48.8965 146.947,52.5631 152.5,56.5C 130.582,90.0052 108.415,123.339 86,156.5C 80.5873,152.543 75.0873,148.71 69.5,145C 92.1406,112.205 114.141,79.0385 135.5,45.5 Z"/></g>
<g><path style="opacity:1" fill="#050505" d="M 500.5,46.5 C 501.822,46.33 502.989,46.6634 504,47.5C 513.5,61.8333 523,76.1667 532.5,90.5C 527.763,94.7317 522.596,98.3984 517,101.5C 506.118,87.262 495.951,72.4287 486.5,57C 491.025,53.2454 495.692,49.7454 500.5,46.5 Z"/></g>
<g><path style="opacity:1" fill="#040404" d="M 160.5,62.5 C 166.423,65.7541 172.09,69.4207 177.5,73.5C 155.525,106.796 133.192,139.796 110.5,172.5C 105.302,168.803 99.9686,165.303 94.5,162C 116.634,128.891 138.634,95.724 160.5,62.5 Z"/></g>
<g><path style="opacity:1" fill="#050505" d="M 476.5,62.5 C 499.53,94.8497 521.863,127.85 543.5,161.5C 538.763,165.732 533.596,169.398 528,172.5C 505.348,139.875 483.182,106.875 461.5,73.5C 466.352,69.5798 471.352,65.9131 476.5,62.5 Z"/></g>
<g><path style="opacity:1" fill="#040404" d="M 185.5,79.5 C 191.781,81.9752 197.447,85.4752 202.5,90C 180.457,123.253 158.291,156.419 136,189.5C 131.252,186.209 126.419,183.042 121.5,180C 120.483,178.951 120.316,177.784 121,176.5C 142.51,144.138 164.01,111.805 185.5,79.5 Z"/></g>
<g><path style="opacity:1" fill="#060606" d="M 450.5,79.5 C 451.822,79.33 452.989,79.6634 454,80.5C 463.63,94.9312 473.13,109.431 482.5,124C 482.355,124.772 482.022,125.439 481.5,126C 476.366,128.969 471.366,132.136 466.5,135.5C 456.5,120.5 446.5,105.5 436.5,90.5C 441.185,86.8096 445.852,83.1429 450.5,79.5 Z"/></g>
<g><path style="opacity:1" fill="#050505" d="M 536.5,100.5 C 537.822,100.33 538.989,100.663 540,101.5C 549.63,115.931 559.13,130.431 568.5,145C 563.779,149.114 558.612,152.614 553,155.5C 542.329,141.304 532.162,126.637 522.5,111.5C 527.185,107.81 531.852,104.143 536.5,100.5 Z"/></g>
<g><path style="opacity:1" fill="#cc2e3a" d="M 426.5,292.5 C 433.695,264.92 426.361,242.087 404.5,224C 373.903,205.85 346.403,209.683 322,235.5C 305.441,260.856 282.274,270.356 252.5,264C 224.991,253.998 210.658,234.331 209.5,205C 209.746,197.603 211.08,190.436 213.5,183.5C 233.735,147.015 264.735,125.849 306.5,120C 358.832,117.077 398.332,137.911 425,182.5C 443.721,219.055 444.221,255.722 426.5,292.5 Z"/></g>
<g><path style="opacity:1" fill="#050505" d="M 487.5,133.5 C 488.496,133.414 489.329,133.748 490,134.5C 499.63,148.931 509.13,163.431 518.5,178C 513.873,182.414 508.706,186.247 503,189.5C 492.638,174.637 482.471,159.637 472.5,144.5C 477.352,140.58 482.352,136.913 487.5,133.5 Z"/></g>
<g><path style="opacity:1" fill="#04479f" d="M 213.5,183.5 C 211.08,190.436 209.746,197.603 209.5,205C 210.658,234.331 224.991,253.998 252.5,264C 282.274,270.356 305.441,260.856 322,235.5C 346.403,209.683 373.903,205.85 404.5,224C 426.361,242.087 433.695,264.92 426.5,292.5C 406.534,330.86 374.868,353.026 331.5,359C 286.277,362.161 249.777,345.994 222,310.5C 200.295,278.243 194.295,243.243 204,205.5C 206.392,197.727 209.559,190.394 213.5,183.5 Z"/></g>
<g><path style="opacity:1" fill="#030303" d="M 134.5,290.5 C 136.592,290.561 138.092,291.561 139,293.5C 159.608,325.106 180.608,356.439 202,387.5C 202.749,388.635 202.583,389.635 201.5,390.5C 196.5,393.833 191.5,397.167 186.5,400.5C 164.5,367.5 142.5,334.5 120.5,301.5C 125.185,297.81 129.852,294.143 134.5,290.5 Z"/></g>
<g><path style="opacity:1" fill="#030303" d="M 501.5,290.5 C 507.736,292.958 513.403,296.458 518.5,301C 508.457,316.253 498.291,331.42 488,346.5C 482.713,342.779 477.547,338.946 472.5,335C 482.047,320.07 491.713,305.236 501.5,290.5 Z"/></g>
<g><path style="opacity:1" fill="#050505" d="M 110.5,306.5 C 121.165,321.184 131.499,336.184 141.5,351.5C 136.763,355.732 131.596,359.398 126,362.5C 115.118,348.262 104.951,333.429 95.5,318C 100.538,314.156 105.538,310.322 110.5,306.5 Z"/></g>
<g><path style="opacity:1" fill="#050505" d="M 526.5,306.5 C 532.401,309.72 538.067,313.387 543.5,317.5C 533.818,332.876 523.651,347.876 513,362.5C 507.51,359.015 502.01,355.515 496.5,352C 507.141,337.204 517.141,322.038 526.5,306.5 Z"/></g>
<g><path style="opacity:1" fill="#040404" d="M 85.5,323.5 C 108.53,355.85 130.863,388.85 152.5,422.5C 147.552,426.648 142.218,430.314 136.5,433.5C 114.252,400.672 92.2519,367.672 70.5,334.5C 75.3519,330.58 80.3519,326.913 85.5,323.5 Z"/></g>
<g><path style="opacity:1" fill="#050505" d="M 551.5,323.5 C 557.657,326.412 563.324,330.078 568.5,334.5C 558.529,349.637 548.362,364.637 538,379.5C 532.294,376.247 527.127,372.414 522.5,368C 532.047,353.07 541.713,338.236 551.5,323.5 Z"/></g>
<g><path style="opacity:1" fill="#030303" d="M 465.5,344.5 C 471.736,346.958 477.403,350.458 482.5,355C 472.457,370.253 462.291,385.42 452,400.5C 446.713,396.779 441.547,392.946 436.5,389C 446.047,374.07 455.713,359.236 465.5,344.5 Z"/></g>
<g><path style="opacity:1" fill="#050505" d="M 146.5,360.5 C 157.107,375.143 167.441,390.143 177.5,405.5C 172.763,409.732 167.596,413.398 162,416.5C 151.118,402.262 140.951,387.429 131.5,372C 136.538,368.156 141.538,364.322 146.5,360.5 Z"/></g>
<g><path style="opacity:1" fill="#050505" d="M 490.5,360.5 C 496.401,363.72 502.067,367.387 507.5,371.5C 497.818,386.876 487.651,401.876 477,416.5C 471.51,413.015 466.01,409.515 460.5,406C 471.141,391.204 481.141,376.038 490.5,360.5 Z"/></g>
<g><path style="opacity:1" fill="#050505" d="M 515.5,377.5 C 521.657,380.412 527.324,384.078 532.5,388.5C 522.529,403.637 512.362,418.637 502,433.5C 496.294,430.247 491.127,426.414 486.5,422C 496.047,407.07 505.713,392.236 515.5,377.5 Z"/></g>
</svg>
