<?xml version="1.0" encoding="UTF-8"?>
<!DOCTYPE svg PUBLIC "-//W3C//DTD SVG 1.1//EN" "http://www.w3.org/Graphics/SVG/1.1/DTD/svg11.dtd">
<svg xmlns="http://www.w3.org/2000/svg" version="1.1" width="640px" height="480px" style="shape-rendering:geometricPrecision; text-rendering:geometricPrecision; image-rendering:optimizeQuality; fill-rule:evenodd; clip-rule:evenodd" xmlns:xlink="http://www.w3.org/1999/xlink">
<g><path style="opacity:1" fill="#a9151a" d="M -0.5,-0.5 C 212.833,-0.5 426.167,-0.5 639.5,-0.5C 639.5,39.5 639.5,79.5 639.5,119.5C 426.167,119.5 212.833,119.5 -0.5,119.5C -0.5,79.5 -0.5,39.5 -0.5,-0.5 Z"/></g>
<g><path style="opacity:1" fill="#f0be00" d="M -0.5,119.5 C 212.833,119.5 426.167,119.5 639.5,119.5C 639.5,199.5 639.5,279.5 639.5,359.5C 426.167,359.5 212.833,359.5 -0.5,359.5C -0.5,279.5 -0.5,199.5 -0.5,119.5 Z"/></g>
<g><path style="opacity:1" fill="#af9802" d="M 207.5,156.5 C 206.596,157.209 206.263,158.209 206.5,159.5C 207.791,159.737 208.791,159.404 209.5,158.5C 210.833,159.5 210.833,160.5 209.5,161.5C 206.833,161.5 204.167,161.5 201.5,161.5C 200.167,160.833 200.167,160.167 201.5,159.5C 202.5,159.5 203.5,159.5 204.5,159.5C 204.737,158.209 204.404,157.209 203.5,156.5C 203.374,154.8 202.707,153.3 201.5,152C 204.167,147.333 206.833,147.333 209.5,152C 208.293,153.3 207.626,154.8 207.5,156.5 Z"/></g>
<g><path style="opacity:1" fill="#1f497d" d="M 203.5,156.5 C 204.404,157.209 204.737,158.209 204.5,159.5C 203.5,159.5 202.5,159.5 201.5,159.5C 201.427,157.973 202.094,156.973 203.5,156.5 Z"/></g>
<g><path style="opacity:1" fill="#294f7d" d="M 207.5,156.5 C 208.5,156.833 209.167,157.5 209.5,158.5C 209.167,157.5 208.5,156.833 207.5,156.5 Z"/></g>
<g><path style="opacity:1" fill="#285077" d="M 201.5,161.5 C 204.167,161.5 206.833,161.5 209.5,161.5C 209.167,162.167 208.833,162.833 208.5,163.5C 206.5,163.5 204.5,163.5 202.5,163.5C 202.167,162.833 201.833,162.167 201.5,161.5 Z"/></g>
<g><path style="opacity:1" fill="#ebba00" d="M 212.5,165.5 C 218.436,165.643 223.602,167.643 228,171.5C 228.497,173.81 228.663,176.143 228.5,178.5C 222.507,176.942 216.507,175.609 210.5,174.5C 208.637,170.328 209.971,167.828 214.5,167C 213.584,166.722 212.918,166.222 212.5,165.5 Z"/></g>
<g><path style="opacity:1" fill="#968127" d="M 249.5,195.5 C 247.952,195.179 247.285,194.179 247.5,192.5C 248.335,191.057 249.668,190.057 251.5,189.5C 249.591,187.65 248.924,185.65 249.5,183.5C 252.088,180.584 251.754,177.751 248.5,175C 244.113,172.755 239.446,171.589 234.5,171.5C 234.096,174.129 233.763,176.795 233.5,179.5C 232.167,181.167 230.833,182.833 229.5,184.5C 229.421,185.93 229.754,187.264 230.5,188.5C 230.145,189.522 229.478,190.189 228.5,190.5C 227.34,189.735 226.34,188.735 225.5,187.5C 226.614,184.458 227.614,181.458 228.5,178.5C 228.663,176.143 228.497,173.81 228,171.5C 223.602,167.643 218.436,165.643 212.5,165.5C 211.438,164.425 211.438,163.425 212.5,162.5C 213.192,163.025 213.692,163.692 214,164.5C 215.017,161.972 216.184,161.972 217.5,164.5C 217.669,163.603 218.002,162.603 218.5,161.5C 224.149,162.605 228.816,165.272 232.5,169.5C 232.669,168.603 233.002,167.603 233.5,166.5C 234.833,167.833 236.167,167.833 237.5,166.5C 237.998,167.603 238.331,168.603 238.5,169.5C 239.885,165.622 241.051,165.622 242,169.5C 243.94,167.262 246.107,167.262 248.5,169.5C 249.727,170.59 250.56,171.924 251,173.5C 251.414,173.043 251.914,172.709 252.5,172.5C 253.5,173.5 254.5,174.5 255.5,175.5C 253.252,176.324 253.086,177.324 255,178.5C 255.893,177.289 256.726,177.289 257.5,178.5C 256.975,179.192 256.308,179.692 255.5,180C 259.5,181 259.5,182 255.5,183C 256.624,183.249 257.624,183.749 258.5,184.5C 257.272,189.718 254.272,193.385 249.5,195.5 Z"/></g>
<g><path style="opacity:1" fill="#eebc00" d="M 177.5,174.5 C 176.438,176.099 176.438,177.766 177.5,179.5C 171.428,179.192 165.762,180.526 160.5,183.5C 159.023,180.239 159.689,177.406 162.5,175C 165.935,173.145 169.602,171.978 173.5,171.5C 175.443,171.787 176.777,172.787 177.5,174.5 Z"/></g>
<g><path style="opacity:1" fill="#93811f" d="M 202.5,163.5 C 204.5,163.5 206.5,163.5 208.5,163.5C 209.833,164.167 211.167,164.833 212.5,165.5C 212.918,166.222 213.584,166.722 214.5,167C 209.971,167.828 208.637,170.328 210.5,174.5C 209.265,176.017 209.265,177.684 210.5,179.5C 209.5,180.833 208.5,182.167 207.5,183.5C 208.127,184.417 208.461,185.417 208.5,186.5C 206.169,187.995 204.169,187.662 202.5,185.5C 202.414,184.504 202.748,183.671 203.5,183C 202.313,181.981 201.313,180.814 200.5,179.5C 201.735,177.684 201.735,176.017 200.5,174.5C 201.694,172.516 201.694,170.516 200.5,168.5C 193.932,165.314 188.099,166.314 183,171.5C 182.503,173.81 182.337,176.143 182.5,178.5C 182.5,178.833 182.5,179.167 182.5,179.5C 181.292,178.766 179.959,178.433 178.5,178.5C 178.343,177.127 178.51,175.793 179,174.5C 179.333,175.167 179.667,175.833 180,176.5C 180.21,173.766 181.044,171.266 182.5,169C 181.756,167.961 180.756,167.461 179.5,167.5C 180.452,166.548 181.452,165.548 182.5,164.5C 183.086,164.709 183.586,165.043 184,165.5C 186.372,163.352 189.206,162.018 192.5,161.5C 192.998,162.603 193.331,163.603 193.5,164.5C 194.885,160.622 196.051,160.622 197,164.5C 197.308,163.692 197.808,163.025 198.5,162.5C 198.998,163.603 199.331,164.603 199.5,165.5C 200.265,164.388 201.265,163.721 202.5,163.5 Z"/></g>
<g><path style="opacity:1" fill="#eebd00" d="M 200.5,174.5 C 194.446,175.63 188.446,176.963 182.5,178.5C 182.337,176.143 182.503,173.81 183,171.5C 188.099,166.314 193.932,165.314 200.5,168.5C 201.694,170.516 201.694,172.516 200.5,174.5 Z"/></g>
<g><path style="opacity:1" fill="#efbd00" d="M 249.5,183.5 C 244.654,180.331 239.321,178.998 233.5,179.5C 233.763,176.795 234.096,174.129 234.5,171.5C 239.446,171.589 244.113,172.755 248.5,175C 251.754,177.751 252.088,180.584 249.5,183.5 Z"/></g>
<g><path style="opacity:1" fill="#7b6c34" d="M 179.5,167.5 C 180.756,167.461 181.756,167.961 182.5,169C 181.044,171.266 180.21,173.766 180,176.5C 179.667,175.833 179.333,175.167 179,174.5C 178.51,175.793 178.343,177.127 178.5,178.5C 179.959,178.433 181.292,178.766 182.5,179.5C 184.69,180.748 185.023,182.414 183.5,184.5C 182.833,184.5 182.167,184.5 181.5,184.5C 180.167,182.833 178.833,181.167 177.5,179.5C 176.438,177.766 176.438,176.099 177.5,174.5C 178.833,172.833 178.833,171.167 177.5,169.5C 178.833,169.5 179.5,168.833 179.5,167.5 Z"/></g>
<g><path style="opacity:1" fill="#988120" d="M 177.5,169.5 C 178.833,171.167 178.833,172.833 177.5,174.5C 176.777,172.787 175.443,171.787 173.5,171.5C 169.602,171.978 165.935,173.145 162.5,175C 159.689,177.406 159.023,180.239 160.5,183.5C 161.914,185.872 161.58,188.039 159.5,190C 160.793,190.49 162.127,190.657 163.5,190.5C 163.923,192.781 163.256,194.448 161.5,195.5C 156.869,193.276 153.869,189.609 152.5,184.5C 153.376,183.749 154.376,183.249 155.5,183C 151.5,182 151.5,181 155.5,180C 154.692,179.692 154.025,179.192 153.5,178.5C 154.274,177.289 155.107,177.289 156,178.5C 157.914,177.324 157.748,176.324 155.5,175.5C 158.447,171.667 162.28,169 167,167.5C 167.945,167.905 168.612,168.572 169,169.5C 170.017,166.972 171.184,166.972 172.5,169.5C 172.669,168.603 173.002,167.603 173.5,166.5C 175.115,167.154 176.782,167.654 178.5,168C 177.944,168.383 177.611,168.883 177.5,169.5 Z"/></g>
<g><path style="opacity:1" fill="#a21e16" d="M 200.5,174.5 C 201.735,176.017 201.735,177.684 200.5,179.5C 201.313,180.814 202.313,181.981 203.5,183C 202.748,183.671 202.414,184.504 202.5,185.5C 202.672,186.492 202.338,187.158 201.5,187.5C 199.597,187.796 197.93,188.463 196.5,189.5C 195.259,191.931 194.092,191.931 193,189.5C 192.764,191.119 191.931,192.119 190.5,192.5C 191.815,191.105 191.481,190.105 189.5,189.5C 188.791,188.596 187.791,188.263 186.5,188.5C 186.5,187.5 186.5,186.5 186.5,185.5C 185.5,185.5 184.5,185.5 183.5,185.5C 183.5,185.167 183.5,184.833 183.5,184.5C 185.023,182.414 184.69,180.748 182.5,179.5C 182.5,179.167 182.5,178.833 182.5,178.5C 188.446,176.963 194.446,175.63 200.5,174.5 Z"/></g>
<g><path style="opacity:1" fill="#9e2016" d="M 210.5,174.5 C 216.507,175.609 222.507,176.942 228.5,178.5C 227.614,181.458 226.614,184.458 225.5,187.5C 226.34,188.735 227.34,189.735 228.5,190.5C 228.598,193.248 227.598,193.914 225.5,192.5C 224.521,188.028 222.521,187.528 219.5,191C 220.9,192.438 222.567,193.271 224.5,193.5C 225.338,193.842 225.672,194.508 225.5,195.5C 223.473,198.836 220.807,199.336 217.5,197C 216.748,196.329 216.414,195.496 216.5,194.5C 217.043,194.44 217.376,194.107 217.5,193.5C 216.423,192.295 215.09,191.628 213.5,191.5C 213.918,190.778 214.584,190.278 215.5,190C 213.783,188.441 211.783,187.608 209.5,187.5C 208.833,187.5 208.5,187.167 208.5,186.5C 208.461,185.417 208.127,184.417 207.5,183.5C 208.5,182.167 209.5,180.833 210.5,179.5C 209.265,177.684 209.265,176.017 210.5,174.5 Z"/></g>
<g><path style="opacity:1" fill="#c2c0b3" d="M 204.5,172.5 C 205.748,173.334 206.415,174.667 206.5,176.5C 206.167,177.833 205.833,179.167 205.5,180.5C 204.52,177.914 204.187,175.247 204.5,172.5 Z"/></g>
<g><path style="opacity:1" fill="#9e1f16" d="M 177.5,179.5 C 178.833,181.167 180.167,182.833 181.5,184.5C 180.725,186.612 180.725,188.612 181.5,190.5C 178.978,190.128 176.978,190.961 175.5,193C 177.061,193.318 178.228,194.151 179,195.5C 179.671,194.748 180.504,194.414 181.5,194.5C 182.404,195.209 182.737,196.209 182.5,197.5C 180.721,199.344 178.388,200.01 175.5,199.5C 175.762,198.022 175.429,196.689 174.5,195.5C 174.08,197.353 173.747,199.187 173.5,201C 170.14,200.515 166.806,199.682 163.5,198.5C 162.094,198.027 161.427,197.027 161.5,195.5C 163.256,194.448 163.923,192.781 163.5,190.5C 162.127,190.657 160.793,190.49 159.5,190C 161.58,188.039 161.914,185.872 160.5,183.5C 165.762,180.526 171.428,179.192 177.5,179.5 Z"/></g>
<g><path style="opacity:1" fill="#a61b17" d="M 233.5,179.5 C 239.321,178.998 244.654,180.331 249.5,183.5C 248.924,185.65 249.591,187.65 251.5,189.5C 249.668,190.057 248.335,191.057 247.5,192.5C 246.833,192.833 246.167,193.167 245.5,193.5C 243.833,193.5 242.167,193.5 240.5,193.5C 239.417,193.539 238.417,193.873 237.5,194.5C 236.818,193.757 236.151,193.091 235.5,192.5C 234.833,192.5 234.5,192.167 234.5,191.5C 232.654,189.127 230.987,186.794 229.5,184.5C 230.833,182.833 232.167,181.167 233.5,179.5 Z"/></g>
<g><path style="opacity:1" fill="#c0a900" d="M 181.5,184.5 C 182.167,184.5 182.833,184.5 183.5,184.5C 183.5,184.833 183.5,185.167 183.5,185.5C 184.806,186.467 185.473,187.801 185.5,189.5C 184.041,189.433 182.708,189.766 181.5,190.5C 180.725,188.612 180.725,186.612 181.5,184.5 Z"/></g>
<g><path style="opacity:1" fill="#b59e00" d="M 209.5,187.5 C 211.783,187.608 213.783,188.441 215.5,190C 214.584,190.278 213.918,190.778 213.5,191.5C 208.052,193.394 206.718,192.06 209.5,187.5 Z"/></g>
<g><path style="opacity:1" fill="#baa300" d="M 225.5,192.5 C 224.833,192.5 224.5,192.833 224.5,193.5C 222.567,193.271 220.9,192.438 219.5,191C 222.521,187.528 224.521,188.028 225.5,192.5 Z"/></g>
<g><path style="opacity:1" fill="#b7a000" d="M 181.5,190.5 C 181.5,191.833 181.5,193.167 181.5,194.5C 180.504,194.414 179.671,194.748 179,195.5C 178.228,194.151 177.061,193.318 175.5,193C 176.978,190.961 178.978,190.128 181.5,190.5 Z"/></g>
<g><path style="opacity:1" fill="#c3ac00" d="M 234.5,191.5 C 234.5,192.167 234.833,192.5 235.5,192.5C 233.563,194.326 231.563,194.493 229.5,193C 230.653,190.491 232.32,189.991 234.5,191.5 Z"/></g>
<g><path style="opacity:1" fill="#8f2c19" d="M 183.5,185.5 C 184.5,185.5 185.5,185.5 186.5,185.5C 186.5,186.5 186.5,187.5 186.5,188.5C 187.791,188.263 188.791,188.596 189.5,189.5C 188.5,189.5 187.5,189.5 186.5,189.5C 186.5,190.833 186.5,192.167 186.5,193.5C 187.959,193.567 189.292,193.234 190.5,192.5C 191.931,192.119 192.764,191.119 193,189.5C 194.092,191.931 195.259,191.931 196.5,189.5C 197.918,191.708 199.918,192.542 202.5,192C 203.743,190.184 203.41,188.684 201.5,187.5C 202.338,187.158 202.672,186.492 202.5,185.5C 204.169,187.662 206.169,187.995 208.5,186.5C 208.5,187.167 208.833,187.5 209.5,187.5C 206.718,192.06 208.052,193.394 213.5,191.5C 215.09,191.628 216.423,192.295 217.5,193.5C 217.376,194.107 217.043,194.44 216.5,194.5C 214.638,197.33 211.971,198.163 208.5,197C 207.228,195.693 206.228,194.193 205.5,192.5C 202.958,198.242 199.458,198.908 195,194.5C 191.595,199.795 188.095,199.795 184.5,194.5C 183.614,195.325 183.281,196.325 183.5,197.5C 183.167,197.5 182.833,197.5 182.5,197.5C 182.737,196.209 182.404,195.209 181.5,194.5C 181.5,193.167 181.5,191.833 181.5,190.5C 182.708,189.766 184.041,189.433 185.5,189.5C 185.473,187.801 184.806,186.467 183.5,185.5 Z"/></g>
<g><path style="opacity:1" fill="#bca500" d="M 189.5,189.5 C 191.481,190.105 191.815,191.105 190.5,192.5C 189.292,193.234 187.959,193.567 186.5,193.5C 186.5,192.167 186.5,190.833 186.5,189.5C 187.5,189.5 188.5,189.5 189.5,189.5 Z"/></g>
<g><path style="opacity:1" fill="#bca400" d="M 201.5,187.5 C 203.41,188.684 203.743,190.184 202.5,192C 199.918,192.542 197.918,191.708 196.5,189.5C 197.93,188.463 199.597,187.796 201.5,187.5 Z"/></g>
<g><path style="opacity:1" fill="#b09901" d="M 166.5,192.5 C 168.312,192.771 169.978,193.438 171.5,194.5C 169.762,197.762 167.429,198.262 164.5,196C 165.305,194.887 165.972,193.721 166.5,192.5 Z"/></g>
<g><path style="opacity:1" fill="#8c331a" d="M 229.5,184.5 C 230.987,186.794 232.654,189.127 234.5,191.5C 232.32,189.991 230.653,190.491 229.5,193C 231.563,194.493 233.563,194.326 235.5,192.5C 236.151,193.091 236.818,193.757 237.5,194.5C 238.417,193.873 239.417,193.539 240.5,193.5C 241.028,197.013 242.862,198.013 246,196.5C 246.47,195.423 246.303,194.423 245.5,193.5C 246.167,193.167 246.833,192.833 247.5,192.5C 247.285,194.179 247.952,195.179 249.5,195.5C 249.278,198.685 247.778,199.685 245,198.5C 243.13,200.219 240.963,201.219 238.5,201.5C 238.092,200.357 237.425,199.357 236.5,198.5C 234.591,199.348 232.591,199.682 230.5,199.5C 228.39,198.547 227.223,196.881 227,194.5C 226.617,195.056 226.117,195.389 225.5,195.5C 225.672,194.508 225.338,193.842 224.5,193.5C 224.5,192.833 224.833,192.5 225.5,192.5C 227.598,193.914 228.598,193.248 228.5,190.5C 229.478,190.189 230.145,189.522 230.5,188.5C 229.754,187.264 229.421,185.93 229.5,184.5 Z"/></g>
<g><path style="opacity:1" fill="#bfa900" d="M 240.5,193.5 C 242.167,193.5 243.833,193.5 245.5,193.5C 246.303,194.423 246.47,195.423 246,196.5C 242.862,198.013 241.028,197.013 240.5,193.5 Z"/></g>
<g><path style="opacity:1" fill="#b59e00" d="M 216.5,194.5 C 216.414,195.496 216.748,196.329 217.5,197C 220.807,199.336 223.473,198.836 225.5,195.5C 226.117,195.389 226.617,195.056 227,194.5C 227.223,196.881 228.39,198.547 230.5,199.5C 230.5,199.833 230.5,200.167 230.5,200.5C 228.906,200.08 227.406,199.414 226,198.5C 222.458,200.019 219.125,199.686 216,197.5C 212.307,199.017 208.807,198.684 205.5,196.5C 204.3,197.531 202.966,198.365 201.5,199C 204.5,199.333 207.5,199.667 210.5,200C 202.688,200.877 195.021,201.711 187.5,202.5C 185.473,202.662 183.473,202.495 181.5,202C 187.184,201.081 192.851,200.081 198.5,199C 197.5,198.5 196.5,198 195.5,197.5C 191.504,200.072 187.504,200.072 183.5,197.5C 183.281,196.325 183.614,195.325 184.5,194.5C 188.095,199.795 191.595,199.795 195,194.5C 199.458,198.908 202.958,198.242 205.5,192.5C 206.228,194.193 207.228,195.693 208.5,197C 211.971,198.163 214.638,197.33 216.5,194.5 Z"/></g>
<g><path style="opacity:1" fill="#84700f" d="M 238.5,201.5 C 238.93,202.421 240.264,202.921 242.5,203C 238.043,205.079 236.043,208.579 236.5,213.5C 233.933,213.721 231.599,214.388 229.5,215.5C 225.167,215.5 220.833,215.5 216.5,215.5C 216.5,215.167 216.5,214.833 216.5,214.5C 235.076,212.923 235.076,211.256 216.5,209.5C 216.5,209.167 216.5,208.833 216.5,208.5C 217.793,207.842 219.293,207.508 221,207.5C 225.833,208.404 230.666,208.904 235.5,209C 233.109,207.691 233.109,206.691 235.5,206C 234.095,204.731 232.429,204.231 230.5,204.5C 230.719,205.675 230.386,206.675 229.5,207.5C 228.269,206.349 228.269,205.183 229.5,204C 227.833,203.333 226.167,203.333 224.5,204C 224.957,204.414 225.291,204.914 225.5,205.5C 223.257,206.474 220.924,206.808 218.5,206.5C 218.5,205.5 218.5,204.5 218.5,203.5C 222.705,203.283 226.705,202.617 230.5,201.5C 230.5,201.167 230.5,200.833 230.5,200.5C 230.5,200.167 230.5,199.833 230.5,199.5C 232.591,199.682 234.591,199.348 236.5,198.5C 237.425,199.357 238.092,200.357 238.5,201.5 Z"/></g>
<g><path style="opacity:1" fill="#836d15" d="M 182.5,197.5 C 182.833,197.5 183.167,197.5 183.5,197.5C 187.504,200.072 191.504,200.072 195.5,197.5C 196.5,198 197.5,198.5 198.5,199C 192.851,200.081 187.184,201.081 181.5,202C 183.473,202.495 185.473,202.662 187.5,202.5C 195.475,204.591 195.142,205.924 186.5,206.5C 186.5,205.5 186.5,204.5 186.5,203.5C 184.801,203.34 183.134,203.506 181.5,204C 182.731,205.183 182.731,206.349 181.5,207.5C 180.614,206.675 180.281,205.675 180.5,204.5C 175.206,204.318 175.206,203.818 180.5,203C 177.743,202.416 175.077,202.75 172.5,204C 173.72,205.63 175.72,206.63 178.5,207C 175.972,207.998 175.972,208.831 178.5,209.5C 183.085,208.014 187.752,207.514 192.5,208C 190.292,208.191 188.292,208.691 186.5,209.5C 183.977,210.384 181.31,211.218 178.5,212C 183.708,213.642 189.041,214.642 194.5,215C 190.179,215.499 185.846,215.666 181.5,215.5C 179.611,214.678 177.611,213.845 175.5,213C 174.167,212 174.167,211 175.5,210C 174.228,208.693 173.228,207.193 172.5,205.5C 169.177,203.502 166.177,201.169 163.5,198.5C 166.806,199.682 170.14,200.515 173.5,201C 173.747,199.187 174.08,197.353 174.5,195.5C 175.429,196.689 175.762,198.022 175.5,199.5C 178.388,200.01 180.721,199.344 182.5,197.5 Z"/></g>
<g><path style="opacity:1" fill="#7d580d" d="M 230.5,200.5 C 230.5,200.833 230.5,201.167 230.5,201.5C 224.522,200.591 218.522,200.425 212.5,201C 215.833,201.333 219.167,201.667 222.5,202C 219.854,202.497 217.187,202.664 214.5,202.5C 214.719,203.675 214.386,204.675 213.5,205.5C 212.289,204.726 212.289,203.893 213.5,203C 212.207,202.51 210.873,202.343 209.5,202.5C 209.5,203.5 209.5,204.5 209.5,205.5C 206.833,205.5 204.167,205.5 201.5,205.5C 201.5,204.5 201.5,203.5 201.5,202.5C 196.833,202.5 192.167,202.5 187.5,202.5C 195.021,201.711 202.688,200.877 210.5,200C 207.5,199.667 204.5,199.333 201.5,199C 202.966,198.365 204.3,197.531 205.5,196.5C 208.807,198.684 212.307,199.017 216,197.5C 219.125,199.686 222.458,200.019 226,198.5C 227.406,199.414 228.906,200.08 230.5,200.5 Z"/></g>
<g><path style="opacity:1" fill="#b5a005" d="M 230.5,201.5 C 226.705,202.617 222.705,203.283 218.5,203.5C 218.5,204.5 218.5,205.5 218.5,206.5C 220.924,206.808 223.257,206.474 225.5,205.5C 225.291,204.914 224.957,204.414 224.5,204C 226.167,203.333 227.833,203.333 229.5,204C 228.269,205.183 228.269,206.349 229.5,207.5C 230.386,206.675 230.719,205.675 230.5,204.5C 232.429,204.231 234.095,204.731 235.5,206C 233.109,206.691 233.109,207.691 235.5,209C 230.666,208.904 225.833,208.404 221,207.5C 219.293,207.508 217.793,207.842 216.5,208.5C 206.482,208.41 196.482,208.743 186.5,209.5C 188.292,208.691 190.292,208.191 192.5,208C 187.752,207.514 183.085,208.014 178.5,209.5C 175.972,208.831 175.972,207.998 178.5,207C 175.72,206.63 173.72,205.63 172.5,204C 175.077,202.75 177.743,202.416 180.5,203C 175.206,203.818 175.206,204.318 180.5,204.5C 180.281,205.675 180.614,206.675 181.5,207.5C 182.731,206.349 182.731,205.183 181.5,204C 183.134,203.506 184.801,203.34 186.5,203.5C 186.5,204.5 186.5,205.5 186.5,206.5C 195.142,205.924 195.475,204.591 187.5,202.5C 192.167,202.5 196.833,202.5 201.5,202.5C 201.5,203.5 201.5,204.5 201.5,205.5C 204.167,205.5 206.833,205.5 209.5,205.5C 209.5,204.5 209.5,203.5 209.5,202.5C 210.873,202.343 212.207,202.51 213.5,203C 212.289,203.893 212.289,204.726 213.5,205.5C 214.386,204.675 214.719,203.675 214.5,202.5C 217.187,202.664 219.854,202.497 222.5,202C 219.167,201.667 215.833,201.333 212.5,201C 218.522,200.425 224.522,200.591 230.5,201.5 Z"/></g>
<g><path style="opacity:1" fill="#9f1b15" d="M 125.5,206.5 C 127.176,207.183 127.843,208.517 127.5,210.5C 126.167,210.5 124.833,210.5 123.5,210.5C 123.229,208.62 123.896,207.287 125.5,206.5 Z"/></g>
<g><path style="opacity:1" fill="#9f1e15" d="M 142.5,206.5 C 144.104,207.287 144.771,208.62 144.5,210.5C 143.167,210.5 141.833,210.5 140.5,210.5C 140.229,208.62 140.896,207.287 142.5,206.5 Z"/></g>
<g><path style="opacity:1" fill="#997900" d="M 287.5,211.5 C 287.5,210.5 287.5,209.5 287.5,208.5C 285.512,208.173 283.512,207.84 281.5,207.5C 279.626,207.39 278.126,208.056 277,209.5C 273.874,207.099 270.708,207.099 267.5,209.5C 267.167,209.5 266.833,209.5 266.5,209.5C 266.281,208.325 266.614,207.325 267.5,206.5C 270.373,205.225 273.373,204.392 276.5,204C 275.346,203.086 275.513,202.253 277,201.5C 279.482,204.26 282.649,205.76 286.5,206C 288.553,207.678 288.887,209.511 287.5,211.5 Z"/></g>
<g><path style="opacity:1" fill="#9a1c15" d="M 216.5,209.5 C 235.076,211.256 235.076,212.923 216.5,214.5C 210.167,214.5 203.833,214.5 197.5,214.5C 197.5,212.833 197.5,211.167 197.5,209.5C 203.833,209.5 210.167,209.5 216.5,209.5 Z"/></g>
<g><path style="opacity:1" fill="#782f0e" d="M 287.5,211.5 C 287.158,212.338 286.492,212.672 285.5,212.5C 283.903,211.91 282.569,210.91 281.5,209.5C 280.304,209.846 280.304,210.346 281.5,211C 280.5,211.167 279.5,211.333 278.5,211.5C 276.28,210.398 274.113,210.398 272,211.5C 270.124,211.475 268.624,210.809 267.5,209.5C 270.708,207.099 273.874,207.099 277,209.5C 278.126,208.056 279.626,207.39 281.5,207.5C 283.512,207.84 285.512,208.173 287.5,208.5C 287.5,209.5 287.5,210.5 287.5,211.5 Z"/></g>
<g><path style="opacity:1" fill="#6a4d05" d="M 142.5,206.5 C 140.896,207.287 140.229,208.62 140.5,210.5C 141.833,210.5 143.167,210.5 144.5,210.5C 142.683,212.012 141.683,214.012 141.5,216.5C 142.833,216.5 144.167,216.5 145.5,216.5C 145.795,218.735 145.461,220.735 144.5,222.5C 144.5,220.833 144.5,219.167 144.5,217.5C 137.313,217.825 130.313,217.491 123.5,216.5C 124.873,216.657 126.207,216.49 127.5,216C 126.335,214.008 125.002,212.175 123.5,210.5C 124.833,210.5 126.167,210.5 127.5,210.5C 127.843,208.517 127.176,207.183 125.5,206.5C 127.663,205.531 129.996,204.698 132.5,204C 132.381,202.719 132.881,201.552 134,200.5C 135.188,201.563 135.688,202.897 135.5,204.5C 138.067,204.721 140.401,205.388 142.5,206.5 Z"/></g>
<g><path style="opacity:1" fill="#5d2709" d="M 216.5,208.5 C 216.5,208.833 216.5,209.167 216.5,209.5C 210.167,209.5 203.833,209.5 197.5,209.5C 197.5,211.167 197.5,212.833 197.5,214.5C 203.833,214.5 210.167,214.5 216.5,214.5C 216.5,214.833 216.5,215.167 216.5,215.5C 213.167,215.5 209.833,215.5 206.5,215.5C 205.833,215.5 205.5,215.833 205.5,216.5C 189.5,216.5 173.5,216.5 157.5,216.5C 165.316,215.508 173.316,215.174 181.5,215.5C 185.846,215.666 190.179,215.499 194.5,215C 189.041,214.642 183.708,213.642 178.5,212C 181.31,211.218 183.977,210.384 186.5,209.5C 196.482,208.743 206.482,208.41 216.5,208.5 Z"/></g>
<g><path style="opacity:1" fill="#c8c7c7" d="M 206.5,216.5 C 222.167,216.5 237.833,216.5 253.5,216.5C 253.5,233.833 253.5,251.167 253.5,268.5C 242.833,268.5 232.167,268.5 221.5,268.5C 221.273,260.688 217.606,255.354 210.5,252.5C 209.432,251.566 208.099,251.232 206.5,251.5C 206.5,239.833 206.5,228.167 206.5,216.5 Z"/></g>
<g><path style="opacity:1" fill="#635037" d="M 206.5,216.5 C 206.5,216.167 206.5,215.833 206.5,215.5C 209.833,215.5 213.167,215.5 216.5,215.5C 220.833,215.5 225.167,215.5 229.5,215.5C 237.833,215.5 246.167,215.5 254.5,215.5C 254.5,225.833 254.5,236.167 254.5,246.5C 254.5,246.833 254.5,247.167 254.5,247.5C 254.5,250.5 254.5,253.5 254.5,256.5C 254.83,273.342 254.497,290.008 253.5,306.5C 253.5,294.167 253.5,281.833 253.5,269.5C 242.654,269.828 231.987,269.494 221.5,268.5C 232.167,268.5 242.833,268.5 253.5,268.5C 253.5,251.167 253.5,233.833 253.5,216.5C 237.833,216.5 222.167,216.5 206.5,216.5 Z"/></g>
<g><path style="opacity:1" fill="#b9a300" d="M 123.5,216.5 C 130.313,217.491 137.313,217.825 144.5,217.5C 144.5,219.167 144.5,220.833 144.5,222.5C 143.833,223.167 143.167,223.833 142.5,224.5C 137.025,223.511 131.358,223.178 125.5,223.5C 124.504,223.586 123.671,223.252 123,222.5C 122.211,220.288 122.378,218.288 123.5,216.5 Z"/></g>
<g><path style="opacity:1" fill="#46231b" d="M 206.5,215.5 C 206.5,215.833 206.5,216.167 206.5,216.5C 206.5,228.167 206.5,239.833 206.5,251.5C 208.099,251.232 209.432,251.566 210.5,252.5C 205.716,251.839 201.382,252.839 197.5,255.5C 196.707,254.645 197.04,253.811 198.5,253C 200.677,251.798 203.011,251.298 205.5,251.5C 205.5,239.833 205.5,228.167 205.5,216.5C 205.5,215.833 205.833,215.5 206.5,215.5 Z"/></g>
<g><path style="opacity:1" fill="#6e6532" d="M 238.5,227.5 C 238.167,227.5 237.833,227.5 237.5,227.5C 236.421,225.457 234.754,224.124 232.5,223.5C 232.08,219.204 233.747,218.537 237.5,221.5C 238.491,223.323 239.824,224.823 241.5,226C 240.263,226.232 239.263,226.732 238.5,227.5 Z"/></g>
<g><path style="opacity:1" fill="#e16ca1" d="M 232.5,223.5 C 234.754,224.124 236.421,225.457 237.5,227.5C 237.186,231.776 236.186,235.109 234.5,237.5C 232.901,237.232 231.568,237.566 230.5,238.5C 229.849,237.909 229.182,237.243 228.5,236.5C 227.914,236.709 227.414,237.043 227,237.5C 226.682,235.939 225.849,234.772 224.5,234C 225.737,233.768 226.737,233.268 227.5,232.5C 230.582,230.574 230.915,228.408 228.5,226C 229.416,225.722 230.082,225.222 230.5,224.5C 230.842,223.662 231.508,223.328 232.5,223.5 Z"/></g>
<g><path style="opacity:1" fill="#6c5f00" d="M 125.5,223.5 C 131.358,223.178 137.025,223.511 142.5,224.5C 140.085,225.814 137.252,226.481 134,226.5C 131.167,226.333 128.333,226.167 125.5,226C 126.598,225.23 126.598,224.397 125.5,223.5 Z"/></g>
<g><path style="opacity:1" fill="#716001" d="M 266.5,209.5 C 266.833,209.5 267.167,209.5 267.5,209.5C 268.624,210.809 270.124,211.475 272,211.5C 274.113,210.398 276.28,210.398 278.5,211.5C 279.5,211.333 280.5,211.167 281.5,211C 280.304,210.346 280.304,209.846 281.5,209.5C 282.569,210.91 283.903,211.91 285.5,212.5C 283.814,215.537 284.814,216.87 288.5,216.5C 287.566,220.859 286.566,224.859 285.5,228.5C 280.167,228.5 274.833,228.5 269.5,228.5C 267.67,225.216 266.67,221.216 266.5,216.5C 267.873,216.657 269.207,216.49 270.5,216C 268.915,213.931 267.581,211.764 266.5,209.5 Z"/></g>
<g><path style="opacity:1" fill="#c7b100" d="M 267.5,217.5 C 274.167,217.5 280.833,217.5 287.5,217.5C 287.5,218.833 287.5,220.167 287.5,221.5C 280.833,221.5 274.167,221.5 267.5,221.5C 267.5,220.167 267.5,218.833 267.5,217.5 Z"/></g>
<g><path style="opacity:1" fill="#87701a" d="M 142.5,245.5 C 142.167,245.5 141.833,245.5 141.5,245.5C 141.5,239.833 141.5,234.167 141.5,228.5C 136.5,228.5 131.5,228.5 126.5,228.5C 126.5,234.833 126.5,241.167 126.5,247.5C 126.167,247.5 125.833,247.5 125.5,247.5C 125.5,240.833 125.5,234.167 125.5,227.5C 131.167,227.5 136.833,227.5 142.5,227.5C 142.5,233.5 142.5,239.5 142.5,245.5 Z"/></g>
<g><path style="opacity:1" fill="#7f4c4f" d="M 230.5,224.5 C 230.082,225.222 229.416,225.722 228.5,226C 230.915,228.408 230.582,230.574 227.5,232.5C 227.5,231.5 227.5,230.5 227.5,229.5C 225.159,229.008 223.159,227.841 221.5,226C 223.479,225.316 225.146,225.816 226.5,227.5C 227.386,226.675 227.719,225.675 227.5,224.5C 228.5,224.5 229.5,224.5 230.5,224.5 Z"/></g>
<g><path style="opacity:1" fill="#bebebe" d="M 141.5,245.5 C 138.287,245.19 135.287,245.523 132.5,246.5C 130.379,246.325 128.379,246.659 126.5,247.5C 126.5,241.167 126.5,234.833 126.5,228.5C 131.5,228.5 136.5,228.5 141.5,228.5C 141.5,234.167 141.5,239.833 141.5,245.5 Z"/></g>
<g><path style="opacity:1" fill="#cbcbcb" d="M 279.5,246.5 C 279.167,246.5 278.833,246.5 278.5,246.5C 276.052,245.527 273.385,245.194 270.5,245.5C 270.5,240.167 270.5,234.833 270.5,229.5C 273.833,229.5 277.167,229.5 280.5,229.5C 280.822,235.358 280.489,241.025 279.5,246.5 Z"/></g>
<g><path style="opacity:1" fill="#939089" d="M 269.5,228.5 C 274.833,228.5 280.167,228.5 285.5,228.5C 285.5,234.833 285.5,241.167 285.5,247.5C 283.265,247.795 281.265,247.461 279.5,246.5C 280.489,241.025 280.822,235.358 280.5,229.5C 277.167,229.5 273.833,229.5 270.5,229.5C 270.5,234.833 270.5,240.167 270.5,245.5C 270.167,245.5 269.833,245.5 269.5,245.5C 269.5,239.833 269.5,234.167 269.5,228.5 Z"/></g>
<g><path style="opacity:1" fill="#805367" d="M 237.5,227.5 C 237.833,227.5 238.167,227.5 238.5,227.5C 237.947,229.939 237.947,232.273 238.5,234.5C 237.014,236.03 235.681,237.697 234.5,239.5C 233.504,239.414 232.671,239.748 232,240.5C 231.722,239.584 231.222,238.918 230.5,238.5C 231.568,237.566 232.901,237.232 234.5,237.5C 236.186,235.109 237.186,231.776 237.5,227.5 Z"/></g>
<g><path style="opacity:1" fill="#b05d80" d="M 227.5,232.5 C 226.737,233.268 225.737,233.768 224.5,234C 225.849,234.772 226.682,235.939 227,237.5C 227.414,237.043 227.914,236.709 228.5,236.5C 229.182,237.243 229.849,237.909 230.5,238.5C 229.5,239.833 228.5,241.167 227.5,242.5C 226.883,242.389 226.383,242.056 226,241.5C 224.316,243.701 222.316,244.367 220,243.5C 219.417,245.002 218.584,246.335 217.5,247.5C 216.614,246.675 216.281,245.675 216.5,244.5C 213.282,244.349 212.949,243.516 215.5,242C 214.833,241.333 214.167,240.667 213.5,240C 215.235,239.349 216.902,239.515 218.5,240.5C 219.672,240.081 220.672,239.415 221.5,238.5C 219.581,234.261 216.247,231.928 211.5,231.5C 212.09,230.201 213.09,229.368 214.5,229C 210.804,226.586 211.304,226.086 216,227.5C 216.419,226.328 217.085,225.328 218,224.5C 217.633,231.297 220.8,233.964 227.5,232.5 Z"/></g>
<g><path style="opacity:1" fill="#dd6ea0" d="M 230.5,238.5 C 231.222,238.918 231.722,239.584 232,240.5C 232.671,239.748 233.504,239.414 234.5,239.5C 235.044,241.716 236.044,243.716 237.5,245.5C 238.952,246.302 240.618,246.802 242.5,247C 241.584,247.278 240.918,247.778 240.5,248.5C 239.861,249.097 239.528,249.93 239.5,251C 239.969,252.887 240.969,254.387 242.5,255.5C 242.058,256.739 241.391,257.739 240.5,258.5C 239.596,259.209 239.263,260.209 239.5,261.5C 238.448,261.649 237.448,261.483 236.5,261C 236.057,259.482 236.724,258.315 238.5,257.5C 237.625,255.227 235.958,254.227 233.5,254.5C 233.472,252.418 234.139,250.584 235.5,249C 234.211,247.198 232.544,246.031 230.5,245.5C 229.167,244.833 228.167,243.833 227.5,242.5C 228.5,241.167 229.5,239.833 230.5,238.5 Z"/></g>
<g><path style="opacity:1" fill="#a75116" d="M 132.5,246.5 C 135.287,245.523 138.287,245.19 141.5,245.5C 141.833,245.5 142.167,245.5 142.5,245.5C 145.713,245.19 148.713,245.523 151.5,246.5C 150.127,246.343 148.793,246.51 147.5,247C 148.634,248.016 148.301,248.683 146.5,249C 148.527,250.396 148.86,252.062 147.5,254C 148.737,254.232 149.737,254.732 150.5,255.5C 147.833,255.5 145.167,255.5 142.5,255.5C 142.5,257.167 142.5,258.833 142.5,260.5C 142.167,260.5 141.833,260.5 141.5,260.5C 141.5,258.5 141.5,256.5 141.5,254.5C 142.873,254.657 144.207,254.49 145.5,254C 143.167,253.667 140.833,253.333 138.5,253C 137.5,251.333 136.5,249.667 135.5,248C 137.391,247.691 138.725,248.525 139.5,250.5C 140.415,249.672 141.081,248.672 141.5,247.5C 138.572,246.516 135.572,246.183 132.5,246.5 Z"/></g>
<g><path style="opacity:1" fill="#a96583" d="M 240.5,248.5 C 240.918,247.778 241.584,247.278 242.5,247C 240.618,246.802 238.952,246.302 237.5,245.5C 239.167,245.5 240.833,245.5 242.5,245.5C 242.356,241.489 242.023,237.489 241.5,233.5C 241.411,229.933 242.245,226.6 244,223.5C 245.744,224.03 247.244,224.03 248.5,223.5C 247.776,226.615 246.276,229.282 244,231.5C 244.037,236.549 244.37,241.549 245,246.5C 243.89,248.037 242.39,248.703 240.5,248.5 Z"/></g>
<g><path style="opacity:1" fill="#994518" d="M 269.5,245.5 C 269.833,245.5 270.167,245.5 270.5,245.5C 273.385,245.194 276.052,245.527 278.5,246.5C 274.167,246.5 269.833,246.5 265.5,246.5C 264.833,249.167 264.167,251.833 263.5,254.5C 265.5,254.5 267.5,254.5 269.5,254.5C 269.5,254.833 269.5,255.167 269.5,255.5C 266.5,255.5 263.5,255.5 260.5,255.5C 260.918,254.778 261.584,254.278 262.5,254C 260.791,250.439 258.124,248.273 254.5,247.5C 254.5,247.167 254.5,246.833 254.5,246.5C 259.473,245.836 264.473,245.503 269.5,245.5 Z"/></g>
<g><path style="opacity:1" fill="#b46386" d="M 230.5,245.5 C 232.544,246.031 234.211,247.198 235.5,249C 234.139,250.584 233.472,252.418 233.5,254.5C 232.732,253.737 232.232,252.737 232,251.5C 231.505,253.473 231.338,255.473 231.5,257.5C 228.635,257.055 226.135,257.722 224,259.5C 223.517,258.552 223.351,257.552 223.5,256.5C 218.579,256.865 218.245,255.865 222.5,253.5C 222.291,252.914 221.957,252.414 221.5,252C 223.5,252.333 225.5,252.667 227.5,253C 224.344,248.779 225.344,246.279 230.5,245.5 Z"/></g>
<g><path style="opacity:1" fill="#a91d17" d="M 254.5,247.5 C 258.124,248.273 260.791,250.439 262.5,254C 261.584,254.278 260.918,254.778 260.5,255.5C 258.621,256.341 256.621,256.675 254.5,256.5C 254.5,253.5 254.5,250.5 254.5,247.5 Z"/></g>
<g><path style="opacity:1" fill="#bebcbc" d="M 133.5,254.5 C 133.833,254.5 134.167,254.5 134.5,254.5C 136.833,254.5 139.167,254.5 141.5,254.5C 141.5,256.5 141.5,258.5 141.5,260.5C 141.664,263.187 141.497,265.854 141,268.5C 136.532,271.318 131.866,273.652 127,275.5C 126.5,269.175 126.334,262.842 126.5,256.5C 129.067,256.279 131.401,255.612 133.5,254.5 Z"/></g>
<g><path style="opacity:1" fill="#c7c5c5" d="M 277.5,255.5 C 277.833,255.5 278.167,255.5 278.5,255.5C 279.737,258.4 280.403,261.567 280.5,265C 280.498,268.021 280.164,270.854 279.5,273.5C 276.515,272.674 273.849,271.341 271.5,269.5C 270.559,264.93 270.226,260.263 270.5,255.5C 272.833,255.5 275.167,255.5 277.5,255.5 Z"/></g>
<g><path style="opacity:1" fill="#8e817a" d="M 278.5,255.5 C 279.833,255.5 281.167,255.5 282.5,255.5C 284.598,256.935 286.931,258.102 289.5,259C 288.207,259.49 286.873,259.657 285.5,259.5C 285.5,261.833 285.5,264.167 285.5,266.5C 285.5,269.5 285.5,272.5 285.5,275.5C 283.214,275.405 281.214,274.738 279.5,273.5C 280.164,270.854 280.498,268.021 280.5,265C 280.403,261.567 279.737,258.4 278.5,255.5 Z"/></g>
<g><path style="opacity:1" fill="#a62716" d="M 278.5,246.5 C 278.833,246.5 279.167,246.5 279.5,246.5C 281.265,247.461 283.265,247.795 285.5,247.5C 290.5,248.485 294.167,251.152 296.5,255.5C 295.336,258.495 294.17,261.495 293,264.5C 290.772,266.113 288.272,266.78 285.5,266.5C 285.5,264.167 285.5,261.833 285.5,259.5C 286.873,259.657 288.207,259.49 289.5,259C 286.931,258.102 284.598,256.935 282.5,255.5C 281.167,255.5 279.833,255.5 278.5,255.5C 278.167,255.5 277.833,255.5 277.5,255.5C 275.052,254.527 272.385,254.194 269.5,254.5C 267.5,254.5 265.5,254.5 263.5,254.5C 264.167,251.833 264.833,249.167 265.5,246.5C 269.833,246.5 274.167,246.5 278.5,246.5 Z"/></g>
<g><path style="opacity:1" fill="#c1850a" d="M 282.5,255.5 C 281.881,252.405 280.881,252.071 279.5,254.5C 279.167,254 278.833,253.5 278.5,253C 279.148,251.56 279.481,250.06 279.5,248.5C 284.023,247.977 285.023,249.31 282.5,252.5C 283.653,253.687 283.653,254.687 282.5,255.5 Z"/></g>
<g><path style="opacity:1" fill="#c6a402" d="M 272.5,248.5 C 273.209,247.596 274.209,247.263 275.5,247.5C 275.662,249.527 275.495,251.527 275,253.5C 274.95,251.256 274.117,249.589 272.5,248.5 Z"/></g>
<g><path style="opacity:1" fill="#c39504" d="M 267.5,247.5 C 268.919,249.151 270.253,250.984 271.5,253C 270.207,253.49 268.873,253.657 267.5,253.5C 267.5,251.5 267.5,249.5 267.5,247.5 Z"/></g>
<g><path style="opacity:1" fill="#79505c" d="M 233.5,254.5 C 235.958,254.227 237.625,255.227 238.5,257.5C 236.724,258.315 236.057,259.482 236.5,261C 237.448,261.483 238.448,261.649 239.5,261.5C 239.263,260.209 239.596,259.209 240.5,258.5C 240.799,260.604 240.466,262.604 239.5,264.5C 238.572,262.665 237.406,262.332 236,263.5C 235.56,261.924 234.727,260.59 233.5,259.5C 235.446,258.176 235.446,256.51 233.5,254.5 Z"/></g>
<g><path style="opacity:1" fill="#715e56" d="M 269.5,254.5 C 272.385,254.194 275.052,254.527 277.5,255.5C 275.167,255.5 272.833,255.5 270.5,255.5C 270.226,260.263 270.559,264.93 271.5,269.5C 270.244,269.539 269.244,269.039 268.5,268C 269.435,265.619 269.768,263.119 269.5,260.5C 269.5,258.833 269.5,257.167 269.5,255.5C 269.5,255.167 269.5,254.833 269.5,254.5 Z"/></g>
<g><path style="opacity:1" fill="#9f2017" d="M 132.5,246.5 C 135.572,246.183 138.572,246.516 141.5,247.5C 141.081,248.672 140.415,249.672 139.5,250.5C 138.725,248.525 137.391,247.691 135.5,248C 136.5,249.667 137.5,251.333 138.5,253C 140.833,253.333 143.167,253.667 145.5,254C 144.207,254.49 142.873,254.657 141.5,254.5C 139.167,254.5 136.833,254.5 134.5,254.5C 132.879,252.853 131.713,250.853 131,248.5C 130.505,250.473 130.338,252.473 130.5,254.5C 131.5,254.5 132.5,254.5 133.5,254.5C 131.401,255.612 129.067,256.279 126.5,256.5C 126.334,262.842 126.5,269.175 127,275.5C 131.866,273.652 136.532,271.318 141,268.5C 141.497,265.854 141.664,263.187 141.5,260.5C 141.833,260.5 142.167,260.5 142.5,260.5C 146.947,260.726 148.947,263.059 148.5,267.5C 148.88,272.115 146.88,275.115 142.5,276.5C 141.29,276.932 140.29,277.599 139.5,278.5C 137.847,278.66 136.514,279.326 135.5,280.5C 132.977,281.801 130.31,282.801 127.5,283.5C 125.847,283.66 124.514,284.326 123.5,285.5C 123.828,288.462 123.328,291.462 122,294.5C 121.047,292.545 119.713,290.878 118,289.5C 117.421,287.351 116.921,285.185 116.5,283C 116.439,281.289 117.106,279.956 118.5,279C 120.746,277.961 122.913,276.794 125,275.5C 125.498,272.518 125.665,269.518 125.5,266.5C 122.956,266.896 120.789,266.229 119,264.5C 112.611,255.425 114.778,249.758 125.5,247.5C 125.833,247.5 126.167,247.5 126.5,247.5C 128.379,246.659 130.379,246.325 132.5,246.5 Z"/></g>
<g><path style="opacity:1" fill="#c49804" d="M 134.5,254.5 C 134.167,254.5 133.833,254.5 133.5,254.5C 132.5,254.5 131.5,254.5 130.5,254.5C 130.338,252.473 130.505,250.473 131,248.5C 131.713,250.853 132.879,252.853 134.5,254.5 Z"/></g>
<g><path style="opacity:1" fill="#c07f0b" d="M 124.5,249.5 C 125.5,249.5 126.5,249.5 127.5,249.5C 126.951,251.901 126.118,254.235 125,256.5C 124.167,254.833 123.333,253.167 122.5,251.5C 123.243,250.818 123.909,250.151 124.5,249.5 Z"/></g>
<g><path style="opacity:1" fill="#a02117" d="M 269.5,260.5 C 269.768,263.119 269.435,265.619 268.5,268C 269.244,269.039 270.244,269.539 271.5,269.5C 273.849,271.341 276.515,272.674 279.5,273.5C 281.214,274.738 283.214,275.405 285.5,275.5C 289.716,276.433 293.049,278.6 295.5,282C 294.839,284.464 294.339,286.964 294,289.5C 292.021,290.714 290.521,292.381 289.5,294.5C 287.185,292.395 286.851,289.895 288.5,287C 287.87,285.69 286.87,284.856 285.5,284.5C 285.167,284.5 284.833,284.5 284.5,284.5C 284.158,283.662 283.492,283.328 282.5,283.5C 282.158,282.662 281.492,282.328 280.5,282.5C 277.382,281.441 274.382,280.108 271.5,278.5C 271.158,277.662 270.492,277.328 269.5,277.5C 262.485,274.559 260.652,269.559 264,262.5C 265.725,261.536 267.559,260.869 269.5,260.5 Z"/></g>
<g><path style="opacity:1" fill="#c2ab01" d="M 160.5,312.5 C 159.069,311.22 158.402,309.553 158.5,307.5C 158.5,295.167 158.5,282.833 158.5,270.5C 159.833,270.5 161.167,270.5 162.5,270.5C 162.667,284.837 162.5,299.171 162,313.5C 161.617,312.944 161.117,312.611 160.5,312.5 Z"/></g>
<g><path style="opacity:1" fill="#563605" d="M 157.5,269.5 C 159.735,269.205 161.735,269.539 163.5,270.5C 163.5,285.833 163.5,301.167 163.5,316.5C 161.738,315.738 160.738,314.404 160.5,312.5C 161.117,312.611 161.617,312.944 162,313.5C 162.5,299.171 162.667,284.837 162.5,270.5C 161.167,270.5 159.833,270.5 158.5,270.5C 158.5,282.833 158.5,295.167 158.5,307.5C 157.505,295.011 157.171,282.344 157.5,269.5 Z"/></g>
<g><path style="opacity:1" fill="#ab1518" d="M 163.5,270.5 C 164.833,270.5 166.167,270.5 167.5,270.5C 168.151,286.868 167.485,302.868 165.5,318.5C 164.5,318.167 163.833,317.5 163.5,316.5C 163.5,301.167 163.5,285.833 163.5,270.5 Z"/></g>
<g><path style="opacity:1" fill="#5a2907" d="M 168.5,269.5 C 168.5,286.5 168.5,303.5 168.5,320.5C 166.973,320.573 165.973,319.906 165.5,318.5C 167.485,302.868 168.151,286.868 167.5,270.5C 167.5,269.833 167.833,269.5 168.5,269.5 Z"/></g>
<g><path style="opacity:1" fill="#c6af00" d="M 168.5,269.5 C 170.167,269.5 171.833,269.5 173.5,269.5C 173.667,287.17 173.5,304.836 173,322.5C 171.67,321.418 170.17,320.751 168.5,320.5C 168.5,303.5 168.5,286.5 168.5,269.5 Z"/></g>
<g><path style="opacity:1" fill="#ac1518" d="M 174.5,270.5 C 175.833,270.5 177.167,270.5 178.5,270.5C 178.5,288.167 178.5,305.833 178.5,323.5C 177.167,323.5 175.833,323.5 174.5,323.5C 174.5,305.833 174.5,288.167 174.5,270.5 Z"/></g>
<g><path style="opacity:1" fill="#59380a" d="M 179.5,269.5 C 179.5,269.833 179.5,270.167 179.5,270.5C 179.5,288.167 179.5,305.833 179.5,323.5C 180.833,323.5 182.167,323.5 183.5,323.5C 183.833,323.5 184.167,323.5 184.5,323.5C 184.833,323.5 185.167,323.5 185.5,323.5C 186.167,323.5 186.833,323.5 187.5,323.5C 184.5,324.167 181.5,324.833 178.5,325.5C 176.847,325.34 175.514,324.674 174.5,323.5C 175.833,323.5 177.167,323.5 178.5,323.5C 178.5,305.833 178.5,288.167 178.5,270.5C 178.5,269.833 178.833,269.5 179.5,269.5 Z"/></g>
<g><path style="opacity:1" fill="#c6b500" d="M 179.5,270.5 C 180.833,270.5 182.167,270.5 183.5,270.5C 183.5,288.167 183.5,305.833 183.5,323.5C 182.167,323.5 180.833,323.5 179.5,323.5C 179.5,305.833 179.5,288.167 179.5,270.5 Z"/></g>
<g><path style="opacity:1" fill="#928600" d="M 179.5,270.5 C 179.5,270.167 179.5,269.833 179.5,269.5C 181.167,269.5 182.833,269.5 184.5,269.5C 184.5,287.5 184.5,305.5 184.5,323.5C 184.167,323.5 183.833,323.5 183.5,323.5C 183.5,305.833 183.5,288.167 183.5,270.5C 182.167,270.5 180.833,270.5 179.5,270.5 Z"/></g>
<g><path style="opacity:1" fill="#a61a18" d="M 157.5,216.5 C 173.5,216.5 189.5,216.5 205.5,216.5C 205.5,228.167 205.5,239.833 205.5,251.5C 203.011,251.298 200.677,251.798 198.5,253C 197.04,253.811 196.707,254.645 197.5,255.5C 201.382,252.839 205.716,251.839 210.5,252.5C 217.606,255.354 221.273,260.688 221.5,268.5C 231.987,269.494 242.654,269.828 253.5,269.5C 253.5,281.833 253.5,294.167 253.5,306.5C 252.019,314.646 247.352,319.98 239.5,322.5C 233.174,323.779 226.841,323.779 220.5,322.5C 217.658,321.828 215.158,320.494 213,318.5C 210.128,314.817 207.962,310.817 206.5,306.5C 206.5,300.167 206.5,293.833 206.5,287.5C 207.959,287.567 209.292,287.234 210.5,286.5C 213.122,288.867 213.122,291.367 210.5,294C 212.742,296.404 213.075,299.07 211.5,302C 212.914,304.951 213.747,308.118 214,311.5C 215.067,312.191 216.234,312.691 217.5,313C 218.061,314.676 219.061,316.009 220.5,317C 223.921,317.101 227.088,317.934 230,319.5C 232.972,318.026 236.139,317.026 239.5,316.5C 240.251,315.624 240.751,314.624 241,313.5C 243.429,312.971 245.262,311.637 246.5,309.5C 246.167,308.833 245.833,308.167 245.5,307.5C 248.847,304.358 249.18,301.025 246.5,297.5C 249.069,295.024 249.069,292.524 246.5,290C 249.086,286.873 249.086,283.706 246.5,280.5C 249.921,274.09 248.421,272.423 242,275.5C 239.137,272.91 236.304,272.91 233.5,275.5C 231.024,272.931 228.524,272.931 226,275.5C 225,274.833 224,274.167 223,273.5C 221.287,274.137 221.121,275.137 222.5,276.5C 221.624,277.251 220.624,277.751 219.5,278C 221.713,278.626 223.88,278.459 226,277.5C 227.28,277.613 228.113,278.28 228.5,279.5C 227.853,283.124 227.686,286.79 228,290.5C 226.26,289.284 225.26,287.618 225,285.5C 222.473,284.274 220.306,282.608 218.5,280.5C 218.694,282.263 218.694,284.097 218.5,286C 221.343,288.438 224.343,290.604 227.5,292.5C 227.5,292.833 227.5,293.167 227.5,293.5C 225.633,293.045 223.8,292.378 222,291.5C 220.188,291.493 218.688,292.16 217.5,293.5C 213.961,291.32 213.628,288.654 216.5,285.5C 216.167,284.833 215.833,284.167 215.5,283.5C 214.782,286.058 213.449,286.725 211.5,285.5C 209.5,285.833 207.5,286.167 205.5,286.5C 204.167,286.5 202.833,286.5 201.5,286.5C 200.506,295.652 200.173,304.985 200.5,314.5C 199.92,316.749 198.587,318.415 196.5,319.5C 195.833,306.833 195.167,294.167 194.5,281.5C 193.11,280.101 192.11,278.434 191.5,276.5C 191.326,274.139 190.993,271.806 190.5,269.5C 191.219,267.236 191.552,264.903 191.5,262.5C 192.539,260.099 193.873,257.765 195.5,255.5C 194.675,254.614 193.675,254.281 192.5,254.5C 192.502,247.48 192.835,240.48 193.5,233.5C 192.5,233.5 191.5,233.5 190.5,233.5C 191.014,231.488 191.18,229.488 191,227.5C 189.475,227.888 187.808,227.888 186,227.5C 185.349,229.235 185.515,230.902 186.5,232.5C 185.675,233.386 184.675,233.719 183.5,233.5C 183.381,229.653 184.047,225.986 185.5,222.5C 183.167,222.5 180.833,222.5 178.5,222.5C 179.953,225.986 180.619,229.653 180.5,233.5C 179.325,233.719 178.325,233.386 177.5,232.5C 178.485,230.902 178.651,229.235 178,227.5C 175.973,227.986 173.807,227.986 171.5,227.5C 171.357,229.262 171.691,230.929 172.5,232.5C 171.675,233.386 170.675,233.719 169.5,233.5C 168.99,236.388 169.656,238.721 171.5,240.5C 171.5,245.167 171.5,249.833 171.5,254.5C 170.167,254.5 168.833,254.5 167.5,254.5C 167.5,257.167 167.5,259.833 167.5,262.5C 171.167,262.5 174.833,262.5 178.5,262.5C 180.5,262.5 182.5,262.5 184.5,262.5C 186.5,262.5 188.5,262.5 190.5,262.5C 190.167,264.5 189.833,266.5 189.5,268.5C 178.833,268.5 168.167,268.5 157.5,268.5C 157.823,264.774 157.489,261.107 156.5,257.5C 154.47,256.828 152.47,256.162 150.5,255.5C 149.737,254.732 148.737,254.232 147.5,254C 148.86,252.062 148.527,250.396 146.5,249C 148.301,248.683 148.634,248.016 147.5,247C 148.793,246.51 150.127,246.343 151.5,246.5C 153.262,246.357 154.929,246.691 156.5,247.5C 157.499,237.188 157.832,226.855 157.5,216.5 Z"/></g>
<g><path style="opacity:1" fill="#304992" d="M 179.5,256.5 C 179.5,258.167 179.5,259.833 179.5,261.5C 181.167,261.5 182.833,261.5 184.5,261.5C 184.5,261.833 184.5,262.167 184.5,262.5C 182.5,262.5 180.5,262.5 178.5,262.5C 178.5,262.167 178.5,261.833 178.5,261.5C 178.216,259.585 178.549,257.919 179.5,256.5 Z"/></g>
<g><path style="opacity:1" fill="#1850a4" d="M 201.5,256.5 C 214.488,256.506 219.155,262.839 215.5,275.5C 210.211,283.852 204.045,284.519 197,277.5C 192.737,269.126 194.237,262.126 201.5,256.5 Z"/></g>
<g><path style="opacity:1" fill="#7f7921" d="M 200.5,260.5 C 201.932,262.14 203.265,263.974 204.5,266C 204.095,266.945 203.428,267.612 202.5,268C 203.524,269.367 203.024,270.2 201,270.5C 198.976,270.2 198.476,269.367 199.5,268C 198.572,267.612 197.905,266.945 197.5,266C 198.848,264.317 199.848,262.483 200.5,260.5 Z"/></g>
<g><path style="opacity:1" fill="#88801c" d="M 210.5,260.5 C 211.932,262.14 213.265,263.974 214.5,266C 213.859,267.945 212.692,269.778 211,271.5C 209.308,269.778 208.141,267.945 207.5,266C 208.848,264.317 209.848,262.483 210.5,260.5 Z"/></g>
<g><path style="opacity:1" fill="#827104" d="M 191.5,262.5 C 191.167,262.5 190.833,262.5 190.5,262.5C 188.5,262.5 186.5,262.5 184.5,262.5C 184.5,262.167 184.5,261.833 184.5,261.5C 185.5,256.491 183.833,254.824 179.5,256.5C 178.549,257.919 178.216,259.585 178.5,261.5C 176.473,261.662 174.473,261.495 172.5,261C 173.451,260.282 173.617,259.449 173,258.5C 172,259.833 171,259.833 170,258.5C 169.544,259.744 170.044,260.577 171.5,261C 170.552,261.483 169.552,261.649 168.5,261.5C 168.5,259.5 168.5,257.5 168.5,255.5C 170.199,255.66 171.866,255.494 173.5,255C 172.888,252.439 172.721,249.606 173,246.5C 174.621,252.867 178.454,255.033 184.5,253C 183.167,252.667 181.833,252.333 180.5,252C 181.956,251.577 182.456,250.744 182,249.5C 180.989,250.337 179.822,250.67 178.5,250.5C 178.5,248.5 178.5,246.5 178.5,244.5C 180.833,244.5 183.167,244.5 185.5,244.5C 185.5,246.167 185.5,247.833 185.5,249.5C 186.833,249.5 188.167,249.5 189.5,249.5C 189.795,247.265 189.461,245.265 188.5,243.5C 185.789,242.877 183.123,242.877 180.5,243.5C 179.494,243.062 179.494,242.396 180.5,241.5C 177.982,240.418 175.982,241.085 174.5,243.5C 173.778,243.918 173.278,244.584 173,245.5C 172.405,244.101 172.572,242.768 173.5,241.5C 173.043,240.702 172.376,240.369 171.5,240.5C 169.656,238.721 168.99,236.388 169.5,233.5C 170.675,233.719 171.675,233.386 172.5,232.5C 171.691,230.929 171.357,229.262 171.5,227.5C 173.807,227.986 175.973,227.986 178,227.5C 178.651,229.235 178.485,230.902 177.5,232.5C 178.325,233.386 179.325,233.719 180.5,233.5C 180.619,229.653 179.953,225.986 178.5,222.5C 180.833,222.5 183.167,222.5 185.5,222.5C 184.047,225.986 183.381,229.653 183.5,233.5C 184.675,233.719 185.675,233.386 186.5,232.5C 185.515,230.902 185.349,229.235 186,227.5C 187.808,227.888 189.475,227.888 191,227.5C 191.18,229.488 191.014,231.488 190.5,233.5C 191.5,233.5 192.5,233.5 193.5,233.5C 192.835,240.48 192.502,247.48 192.5,254.5C 193.675,254.281 194.675,254.614 195.5,255.5C 193.873,257.765 192.539,260.099 191.5,262.5 Z"/></g>
<g><path style="opacity:1" fill="#0c3aec" d="M 184.5,261.5 C 182.833,261.5 181.167,261.5 179.5,261.5C 179.5,259.833 179.5,258.167 179.5,256.5C 183.833,254.824 185.5,256.491 184.5,261.5 Z"/></g>
<g><path style="opacity:1" fill="#685811" d="M 171.5,240.5 C 172.376,240.369 173.043,240.702 173.5,241.5C 172.572,242.768 172.405,244.101 173,245.5C 173.278,244.584 173.778,243.918 174.5,243.5C 175.982,241.085 177.982,240.418 180.5,241.5C 179.494,242.396 179.494,243.062 180.5,243.5C 183.123,242.877 185.789,242.877 188.5,243.5C 187.391,243.557 186.391,243.89 185.5,244.5C 183.167,244.5 180.833,244.5 178.5,244.5C 178.5,246.5 178.5,248.5 178.5,250.5C 179.822,250.67 180.989,250.337 182,249.5C 182.456,250.744 181.956,251.577 180.5,252C 181.833,252.333 183.167,252.667 184.5,253C 178.454,255.033 174.621,252.867 173,246.5C 172.721,249.606 172.888,252.439 173.5,255C 171.866,255.494 170.199,255.66 168.5,255.5C 168.5,257.5 168.5,259.5 168.5,261.5C 169.552,261.649 170.552,261.483 171.5,261C 170.044,260.577 169.544,259.744 170,258.5C 171,259.833 172,259.833 173,258.5C 173.617,259.449 173.451,260.282 172.5,261C 174.473,261.495 176.473,261.662 178.5,261.5C 178.5,261.833 178.5,262.167 178.5,262.5C 174.833,262.5 171.167,262.5 167.5,262.5C 167.5,259.833 167.5,257.167 167.5,254.5C 168.833,254.5 170.167,254.5 171.5,254.5C 171.5,249.833 171.5,245.167 171.5,240.5 Z"/></g>
<g><path style="opacity:1" fill="#153fe5" d="M 188.5,243.5 C 189.461,245.265 189.795,247.265 189.5,249.5C 188.167,249.5 186.833,249.5 185.5,249.5C 185.5,247.833 185.5,246.167 185.5,244.5C 186.391,243.89 187.391,243.557 188.5,243.5 Z"/></g>
<g><path style="opacity:1" fill="#0039ef" d="M 174.5,243.5 C 175.5,243.5 176.5,243.5 177.5,243.5C 177.5,245.5 177.5,247.5 177.5,249.5C 176.5,249.5 175.5,249.5 174.5,249.5C 174.5,247.5 174.5,245.5 174.5,243.5 Z"/></g>
<g><path style="opacity:1" fill="#c49b04" d="M 210.5,286.5 C 211.167,286.5 211.5,286.167 211.5,285.5C 213.449,286.725 214.782,286.058 215.5,283.5C 215.833,284.167 216.167,284.833 216.5,285.5C 213.628,288.654 213.961,291.32 217.5,293.5C 218.688,292.16 220.188,291.493 222,291.5C 223.8,292.378 225.633,293.045 227.5,293.5C 228.17,296.503 229.837,297.17 232.5,295.5C 232.5,294.833 232.5,294.167 232.5,293.5C 234.228,292.621 236.061,291.954 238,291.5C 239.447,291.945 240.78,292.612 242,293.5C 243.885,293.138 244.719,291.971 244.5,290C 243.416,286.487 243.249,282.987 244,279.5C 241.391,281.108 240.058,283.441 240,286.5C 236.852,287.711 234.352,289.711 232.5,292.5C 231.833,292.5 231.5,292.167 231.5,291.5C 232.476,290.185 233.476,288.852 234.5,287.5C 234.291,286.914 233.957,286.414 233.5,286C 235.137,283.69 237.304,282.19 240,281.5C 240.465,280.069 241.299,278.903 242.5,278C 242.167,277.833 241.833,277.667 241.5,277.5C 237.945,278.19 234.445,278.523 231,278.5C 231.255,279.915 231.755,281.415 232.5,283C 231.105,285.679 230.439,288.512 230.5,291.5C 229.391,291.557 228.391,291.89 227.5,292.5C 224.343,290.604 221.343,288.438 218.5,286C 218.694,284.097 218.694,282.263 218.5,280.5C 220.306,282.608 222.473,284.274 225,285.5C 225.26,287.618 226.26,289.284 228,290.5C 227.686,286.79 227.853,283.124 228.5,279.5C 228.113,278.28 227.28,277.613 226,277.5C 223.88,278.459 221.713,278.626 219.5,278C 220.624,277.751 221.624,277.251 222.5,276.5C 221.121,275.137 221.287,274.137 223,273.5C 224,274.167 225,274.833 226,275.5C 228.524,272.931 231.024,272.931 233.5,275.5C 236.304,272.91 239.137,272.91 242,275.5C 248.421,272.423 249.921,274.09 246.5,280.5C 249.086,283.706 249.086,286.873 246.5,290C 249.069,292.524 249.069,295.024 246.5,297.5C 249.18,301.025 248.847,304.358 245.5,307.5C 245.833,308.167 246.167,308.833 246.5,309.5C 245.262,311.637 243.429,312.971 241,313.5C 240.751,314.624 240.251,315.624 239.5,316.5C 236.139,317.026 232.972,318.026 230,319.5C 227.088,317.934 223.921,317.101 220.5,317C 219.061,316.009 218.061,314.676 217.5,313C 216.234,312.691 215.067,312.191 214,311.5C 213.747,308.118 212.914,304.951 211.5,302C 213.075,299.07 212.742,296.404 210.5,294C 213.122,291.367 213.122,288.867 210.5,286.5 Z"/></g>
<g><path style="opacity:1" fill="#797422" d="M 204.5,269.5 C 205.496,269.414 206.329,269.748 207,270.5C 207.585,272.129 208.419,273.629 209.5,275C 207.167,281 204.833,281 202.5,275C 203.885,273.403 204.551,271.57 204.5,269.5 Z"/></g>
<g><path style="opacity:1" fill="#c7b000" d="M 191.5,276.5 C 192.11,278.434 193.11,280.101 194.5,281.5C 194.814,294.913 194.481,308.246 193.5,321.5C 192.833,321.5 192.167,321.5 191.5,321.5C 190.167,306.5 190.167,291.5 191.5,276.5 Z"/></g>
<g><path style="opacity:1" fill="#b03016" d="M 231.5,291.5 C 231.167,291.5 230.833,291.5 230.5,291.5C 230.439,288.512 231.105,285.679 232.5,283C 231.755,281.415 231.255,279.915 231,278.5C 234.445,278.523 237.945,278.19 241.5,277.5C 241.833,277.667 242.167,277.833 242.5,278C 241.299,278.903 240.465,280.069 240,281.5C 237.304,282.19 235.137,283.69 233.5,286C 233.957,286.414 234.291,286.914 234.5,287.5C 233.476,288.852 232.476,290.185 231.5,291.5 Z"/></g>
<g><path style="opacity:1" fill="#cbcbcb" d="M 139.5,278.5 C 141.47,286.769 142.136,295.435 141.5,304.5C 139.53,296.231 138.864,287.565 139.5,278.5 Z"/></g>
<g><path style="opacity:1" fill="#cbcbcb" d="M 271.5,278.5 C 274.382,280.108 277.382,281.441 280.5,282.5C 280.5,289.833 280.5,297.167 280.5,304.5C 277.167,304.5 273.833,304.5 270.5,304.5C 270.174,295.651 270.507,286.984 271.5,278.5 Z"/></g>
<g><path style="opacity:1" fill="#cac9c9" d="M 135.5,280.5 C 136.492,288.316 136.826,296.316 136.5,304.5C 133.167,304.5 129.833,304.5 126.5,304.5C 126.205,297.412 126.538,290.412 127.5,283.5C 130.31,282.801 132.977,281.801 135.5,280.5 Z"/></g>
<g><path style="opacity:1" fill="#95928e" d="M 139.5,278.5 C 138.864,287.565 139.53,296.231 141.5,304.5C 136.5,305.833 131.5,305.833 126.5,304.5C 129.833,304.5 133.167,304.5 136.5,304.5C 136.826,296.316 136.492,288.316 135.5,280.5C 136.514,279.326 137.847,278.66 139.5,278.5 Z"/></g>
<g><path style="opacity:1" fill="#b02d16" d="M 232.5,293.5 C 232.5,293.167 232.5,292.833 232.5,292.5C 234.352,289.711 236.852,287.711 240,286.5C 240.058,283.441 241.391,281.108 244,279.5C 243.249,282.987 243.416,286.487 244.5,290C 244.719,291.971 243.885,293.138 242,293.5C 240.78,292.612 239.447,291.945 238,291.5C 236.061,291.954 234.228,292.621 232.5,293.5 Z"/></g>
<g><path style="opacity:1" fill="#664c07" d="M 194.5,281.5 C 195.167,294.167 195.833,306.833 196.5,319.5C 196.027,320.906 195.027,321.573 193.5,321.5C 194.481,308.246 194.814,294.913 194.5,281.5 Z"/></g>
<g><path style="opacity:1" fill="#a1a1a1" d="M 282.5,283.5 C 283.492,283.328 284.158,283.662 284.5,284.5C 284.5,291.167 284.5,297.833 284.5,304.5C 283.5,304.5 282.5,304.5 281.5,304.5C 281.175,297.313 281.509,290.313 282.5,283.5 Z"/></g>
<g><path style="opacity:1" fill="#9b8800" d="M 190.5,269.5 C 190.993,271.806 191.326,274.139 191.5,276.5C 190.167,291.5 190.167,306.5 191.5,321.5C 191.5,321.833 191.5,322.167 191.5,322.5C 190.168,314.026 189.502,305.193 189.5,296C 189.5,286.994 189.834,278.16 190.5,269.5 Z"/></g>
<g><path style="opacity:1" fill="#731211" d="M 190.5,262.5 C 190.833,262.5 191.167,262.5 191.5,262.5C 191.552,264.903 191.219,267.236 190.5,269.5C 189.834,278.16 189.5,286.994 189.5,296C 189.502,305.193 190.168,314.026 191.5,322.5C 190.791,323.404 189.791,323.737 188.5,323.5C 188.5,305.833 188.5,288.167 188.5,270.5C 187.5,270.5 186.5,270.5 185.5,270.5C 185.5,288.167 185.5,305.833 185.5,323.5C 185.167,323.5 184.833,323.5 184.5,323.5C 184.5,305.5 184.5,287.5 184.5,269.5C 182.833,269.5 181.167,269.5 179.5,269.5C 178.833,269.5 178.5,269.833 178.5,270.5C 177.167,270.5 175.833,270.5 174.5,270.5C 174.5,269.833 174.167,269.5 173.5,269.5C 171.833,269.5 170.167,269.5 168.5,269.5C 167.833,269.5 167.5,269.833 167.5,270.5C 166.167,270.5 164.833,270.5 163.5,270.5C 161.735,269.539 159.735,269.205 157.5,269.5C 157.5,269.167 157.5,268.833 157.5,268.5C 168.167,268.5 178.833,268.5 189.5,268.5C 189.833,266.5 190.167,264.5 190.5,262.5 Z"/></g>
<g><path style="opacity:1" fill="#ac1418" d="M 188.5,323.5 C 188.167,323.5 187.833,323.5 187.5,323.5C 186.833,323.5 186.167,323.5 185.5,323.5C 185.5,305.833 185.5,288.167 185.5,270.5C 186.5,270.5 187.5,270.5 188.5,270.5C 188.5,288.167 188.5,305.833 188.5,323.5 Z"/></g>
<g><path style="opacity:1" fill="#c3ac00" d="M 201.5,286.5 C 202.833,286.5 204.167,286.5 205.5,286.5C 205.683,293.868 205.35,301.201 204.5,308.5C 203.596,309.209 203.263,310.209 203.5,311.5C 202.883,311.611 202.383,311.944 202,312.5C 201.5,303.84 201.334,295.173 201.5,286.5 Z"/></g>
<g><path style="opacity:1" fill="#481610" d="M 211.5,285.5 C 211.5,286.167 211.167,286.5 210.5,286.5C 209.292,287.234 207.959,287.567 206.5,287.5C 206.5,293.833 206.5,300.167 206.5,306.5C 205.833,307.167 205.167,307.833 204.5,308.5C 205.35,301.201 205.683,293.868 205.5,286.5C 207.5,286.167 209.5,285.833 211.5,285.5 Z"/></g>
<g><path style="opacity:1" fill="#289063" d="M 230.5,291.5 C 230.833,291.5 231.167,291.5 231.5,291.5C 231.5,292.167 231.833,292.5 232.5,292.5C 232.5,292.833 232.5,293.167 232.5,293.5C 232.5,294.167 232.5,294.833 232.5,295.5C 229.837,297.17 228.17,296.503 227.5,293.5C 227.5,293.167 227.5,292.833 227.5,292.5C 228.391,291.89 229.391,291.557 230.5,291.5 Z"/></g>
<g><path style="opacity:1" fill="#816d07" d="M 201.5,286.5 C 201.334,295.173 201.5,303.84 202,312.5C 202.383,311.944 202.883,311.611 203.5,311.5C 203.5,313.5 202.5,314.5 200.5,314.5C 200.173,304.985 200.506,295.652 201.5,286.5 Z"/></g>
<g><path style="opacity:1" fill="#572708" d="M 173.5,269.5 C 174.167,269.5 174.5,269.833 174.5,270.5C 174.5,288.167 174.5,305.833 174.5,323.5C 171.911,323.539 169.911,322.539 168.5,320.5C 170.17,320.751 171.67,321.418 173,322.5C 173.5,304.836 173.667,287.17 173.5,269.5 Z"/></g>
<g><path style="opacity:1" fill="#af2417" d="M 215.5,295.5 C 219.22,296.424 222.887,296.591 226.5,296C 224.941,298.364 222.775,299.864 220,300.5C 219.995,303.229 218.829,305.229 216.5,306.5C 215.554,304.925 215.554,303.258 216.5,301.5C 216.278,299.945 215.611,298.611 214.5,297.5C 214.863,296.817 215.196,296.15 215.5,295.5 Z"/></g>
<g><path style="opacity:1" fill="#b02a17" d="M 232.5,295.5 C 236.157,296.551 239.824,296.718 243.5,296C 243.422,298.953 243.755,301.953 244.5,305C 242.315,306.929 240.649,306.429 239.5,303.5C 239.709,302.914 240.043,302.414 240.5,302C 237.53,300.347 234.863,298.181 232.5,295.5 Z"/></g>
<g><path style="opacity:1" fill="#af2717" d="M 230.5,297.5 C 231.376,297.369 232.043,297.702 232.5,298.5C 233.434,302.431 235.767,305.098 239.5,306.5C 240.309,308.071 240.643,309.738 240.5,311.5C 238.5,311.833 236.5,312.167 234.5,312.5C 234.5,313.5 234.5,314.5 234.5,315.5C 233.178,315.67 232.011,315.337 231,314.5C 230.284,311.582 230.784,308.915 232.5,306.5C 230.875,303.765 230.208,300.765 230.5,297.5 Z"/></g>
<g><path style="opacity:1" fill="#ae2018" d="M 227.5,297.5 C 227.641,302.016 227.975,306.682 228.5,311.5C 228.658,313.319 227.991,314.652 226.5,315.5C 224.975,312.647 222.809,311.647 220,312.5C 217.949,310.191 218.116,308.024 220.5,306C 222.329,305.727 223.829,304.893 225,303.5C 225.236,301.189 226.069,299.189 227.5,297.5 Z"/></g>
<g><path style="opacity:1" fill="#817a60" d="M 269.5,277.5 C 270.492,277.328 271.158,277.662 271.5,278.5C 270.507,286.984 270.174,295.651 270.5,304.5C 273.833,304.5 277.167,304.5 280.5,304.5C 280.5,297.167 280.5,289.833 280.5,282.5C 281.492,282.328 282.158,282.662 282.5,283.5C 281.509,290.313 281.175,297.313 281.5,304.5C 282.5,304.5 283.5,304.5 284.5,304.5C 284.5,297.833 284.5,291.167 284.5,284.5C 284.833,284.5 285.167,284.5 285.5,284.5C 285.5,291.5 285.5,298.5 285.5,305.5C 280.167,305.5 274.833,305.5 269.5,305.5C 269.5,296.167 269.5,286.833 269.5,277.5 Z"/></g>
<g><path style="opacity:1" fill="#8a7715" d="M 142.5,276.5 C 142.334,286.172 142.5,295.839 143,305.5C 144.479,309.103 145.646,312.77 146.5,316.5C 138.493,317.703 130.493,317.703 122.5,316.5C 121.828,313.092 122.828,310.425 125.5,308.5C 125.055,304.284 125.055,299.95 125.5,295.5C 125.486,291.761 124.82,288.428 123.5,285.5C 124.514,284.326 125.847,283.66 127.5,283.5C 126.538,290.412 126.205,297.412 126.5,304.5C 131.5,305.833 136.5,305.833 141.5,304.5C 142.136,295.435 141.47,286.769 139.5,278.5C 140.29,277.599 141.29,276.932 142.5,276.5 Z"/></g>
<g><path style="opacity:1" fill="#998600" d="M 269.5,305.5 C 274.833,305.5 280.167,305.5 285.5,305.5C 287.479,308.446 288.479,311.779 288.5,315.5C 288.167,315.5 287.833,315.5 287.5,315.5C 287.5,314.167 287.5,312.833 287.5,311.5C 280.5,311.5 273.5,311.5 266.5,311.5C 266.5,312.833 266.5,314.167 266.5,315.5C 266.167,315.5 265.833,315.5 265.5,315.5C 265.34,313.801 265.506,312.134 266,310.5C 267.683,309.113 268.85,307.447 269.5,305.5 Z"/></g>
<g><path style="opacity:1" fill="#c7b100" d="M 123.5,311.5 C 130.5,311.5 137.5,311.5 144.5,311.5C 144.5,312.833 144.5,314.167 144.5,315.5C 137.5,315.5 130.5,315.5 123.5,315.5C 123.5,314.167 123.5,312.833 123.5,311.5 Z"/></g>
<g><path style="opacity:1" fill="#c7b000" d="M 287.5,315.5 C 280.5,315.5 273.5,315.5 266.5,315.5C 266.5,314.167 266.5,312.833 266.5,311.5C 273.5,311.5 280.5,311.5 287.5,311.5C 287.5,312.833 287.5,314.167 287.5,315.5 Z"/></g>
<g><path style="opacity:1" fill="#59581f" d="M 265.5,316.5 C 265.5,316.167 265.5,315.833 265.5,315.5C 265.833,315.5 266.167,315.5 266.5,315.5C 273.5,315.5 280.5,315.5 287.5,315.5C 287.833,315.5 288.167,315.5 288.5,315.5C 289.167,315.5 289.5,315.833 289.5,316.5C 281.5,317.833 273.5,317.833 265.5,316.5 Z"/></g>
<g><path style="opacity:1" fill="#0456b4" d="M 119.5,316.5 C 120.5,316.5 121.5,316.5 122.5,316.5C 130.493,317.703 138.493,317.703 146.5,316.5C 146.918,317.222 147.584,317.722 148.5,318C 148,318.167 147.5,318.333 147,318.5C 138.69,318.398 130.523,318.398 122.5,318.5C 120.821,318.715 119.821,318.048 119.5,316.5 Z"/></g>
<g><path style="opacity:1" fill="#1854a8" d="M 265.5,316.5 C 273.5,317.833 281.5,317.833 289.5,316.5C 289.918,317.222 290.584,317.722 291.5,318C 291,318.167 290.5,318.333 290,318.5C 283.353,318.409 276.686,318.075 270,317.5C 267.41,317.945 264.91,318.611 262.5,319.5C 262.5,318.5 262.5,317.5 262.5,316.5C 263.5,316.5 264.5,316.5 265.5,316.5 Z"/></g>
<g><path style="opacity:1" fill="#828789" d="M 289.5,316.5 C 290.5,316.5 291.5,316.5 292.5,316.5C 292.5,320.5 292.5,324.5 292.5,328.5C 290.901,328.768 289.568,328.434 288.5,327.5C 289.552,327.649 290.552,327.483 291.5,327C 287.025,323.863 282.358,323.697 277.5,326.5C 272.686,324.277 267.686,323.943 262.5,325.5C 262.5,324.833 262.5,324.167 262.5,323.5C 267.324,322.206 272.157,322.206 277,323.5C 281.54,321.065 286.04,321.065 290.5,323.5C 290.833,323.167 291.167,322.833 291.5,322.5C 289.556,321.149 287.389,320.482 285,320.5C 277.488,320.871 269.988,321.205 262.5,321.5C 262.5,320.833 262.5,320.167 262.5,319.5C 264.91,318.611 267.41,317.945 270,317.5C 276.686,318.075 283.353,318.409 290,318.5C 290.5,318.333 291,318.167 291.5,318C 290.584,317.722 289.918,317.222 289.5,316.5 Z"/></g>
<g><path style="opacity:1" fill="#5f5a39" d="M 119.5,316.5 C 119.821,318.048 120.821,318.715 122.5,318.5C 121.737,319.268 120.737,319.768 119.5,320C 120.793,320.49 122.127,320.657 123.5,320.5C 121.781,321.022 120.448,322.022 119.5,323.5C 119.821,325.048 120.821,325.715 122.5,325.5C 121.737,326.268 120.737,326.768 119.5,327C 120.448,327.483 121.448,327.649 122.5,327.5C 121.432,328.434 120.099,328.768 118.5,328.5C 118.183,324.298 118.517,320.298 119.5,316.5 Z"/></g>
<g><path style="opacity:1" fill="#1451a1" d="M 119.5,323.5 C 120.448,322.022 121.781,321.022 123.5,320.5C 129.356,321.465 135.522,321.465 142,320.5C 144.389,320.482 146.556,321.149 148.5,322.5C 148.167,322.833 147.833,323.167 147.5,323.5C 138.173,323.369 128.84,323.369 119.5,323.5 Z"/></g>
<g><path style="opacity:1" fill="#0753aa" d="M 262.5,323.5 C 262.5,322.833 262.5,322.167 262.5,321.5C 269.988,321.205 277.488,320.871 285,320.5C 287.389,320.482 289.556,321.149 291.5,322.5C 291.167,322.833 290.833,323.167 290.5,323.5C 286.04,321.065 281.54,321.065 277,323.5C 272.157,322.206 267.324,322.206 262.5,323.5 Z"/></g>
<g><path style="opacity:1" fill="#b1aea9" d="M 206.5,306.5 C 207.962,310.817 210.128,314.817 213,318.5C 215.158,320.494 217.658,321.828 220.5,322.5C 224.399,323.932 228.399,324.932 232.5,325.5C 229.146,327.258 225.479,328.258 221.5,328.5C 212.862,329.34 204.195,329.673 195.5,329.5C 189.627,328.948 183.961,327.615 178.5,325.5C 181.5,324.833 184.5,324.167 187.5,323.5C 187.833,323.5 188.167,323.5 188.5,323.5C 189.791,323.737 190.791,323.404 191.5,322.5C 191.5,322.167 191.5,321.833 191.5,321.5C 192.167,321.5 192.833,321.5 193.5,321.5C 195.027,321.573 196.027,320.906 196.5,319.5C 198.587,318.415 199.92,316.749 200.5,314.5C 202.5,314.5 203.5,313.5 203.5,311.5C 203.263,310.209 203.596,309.209 204.5,308.5C 205.167,307.833 205.833,307.167 206.5,306.5 Z"/></g>
<g><path style="opacity:1" fill="#e9c284" d="M 207.5,322.5 C 207.799,320.396 207.466,318.396 206.5,316.5C 204.717,318.023 204.051,320.023 204.5,322.5C 203.391,322.443 202.391,322.11 201.5,321.5C 201.343,320.127 201.51,318.793 202,317.5C 205.651,313.715 208.485,314.381 210.5,319.5C 210.484,321.516 209.484,322.516 207.5,322.5 Z"/></g>
<g><path style="opacity:1" fill="#85261c" d="M 207.5,322.5 C 207.167,322.5 206.833,322.5 206.5,322.5C 205.833,322.5 205.167,322.5 204.5,322.5C 204.051,320.023 204.717,318.023 206.5,316.5C 207.466,318.396 207.799,320.396 207.5,322.5 Z"/></g>
<g><path style="opacity:1" fill="#65322c" d="M 220.5,322.5 C 226.841,323.779 233.174,323.779 239.5,322.5C 237.491,324.065 235.157,325.065 232.5,325.5C 228.399,324.932 224.399,323.932 220.5,322.5 Z"/></g>
<g><path style="opacity:1" fill="#7d8282" d="M 146.5,316.5 C 147.5,316.5 148.5,316.5 149.5,316.5C 149.817,320.702 149.483,324.702 148.5,328.5C 148.53,327.503 148.03,326.836 147,326.5C 145.208,325.963 143.375,325.63 141.5,325.5C 134.878,326.182 128.544,326.182 122.5,325.5C 120.821,325.715 119.821,325.048 119.5,323.5C 128.84,323.369 138.173,323.369 147.5,323.5C 147.833,323.167 148.167,322.833 148.5,322.5C 146.556,321.149 144.389,320.482 142,320.5C 135.522,321.465 129.356,321.465 123.5,320.5C 122.127,320.657 120.793,320.49 119.5,320C 120.737,319.768 121.737,319.268 122.5,318.5C 130.523,318.398 138.69,318.398 147,318.5C 147.5,318.333 148,318.167 148.5,318C 147.584,317.722 146.918,317.222 146.5,316.5 Z"/></g>
<g><path style="opacity:1" fill="#346957" d="M 201.5,321.5 C 202.391,322.11 203.391,322.443 204.5,322.5C 205.167,322.5 205.833,322.5 206.5,322.5C 206.494,325.548 207.494,326.048 209.5,324C 212.5,323.333 215.5,323.333 218.5,324C 214.573,325.66 210.573,327.16 206.5,328.5C 204.104,326.933 201.437,326.1 198.5,326C 196.884,325.385 195.551,324.385 194.5,323C 197.036,322.814 199.369,322.314 201.5,321.5 Z"/></g>
<g><path style="opacity:1" fill="#31528e" d="M 148.5,328.5 C 139.846,328.383 131.179,328.049 122.5,327.5C 121.448,327.649 120.448,327.483 119.5,327C 120.737,326.768 121.737,326.268 122.5,325.5C 128.544,326.182 134.878,326.182 141.5,325.5C 143.375,325.63 145.208,325.963 147,326.5C 148.03,326.836 148.53,327.503 148.5,328.5 Z"/></g>
<g><path style="opacity:1" fill="#2a5193" d="M 288.5,327.5 C 279.814,328.159 271.148,328.492 262.5,328.5C 262.5,327.5 262.5,326.5 262.5,325.5C 267.686,323.943 272.686,324.277 277.5,326.5C 282.358,323.697 287.025,323.863 291.5,327C 290.552,327.483 289.552,327.649 288.5,327.5 Z"/></g>
<g><path style="opacity:1" fill="#806d2c" d="M 221.5,328.5 C 216.767,330.046 211.767,330.713 206.5,330.5C 202.651,330.499 198.984,330.165 195.5,329.5C 204.195,329.673 212.862,329.34 221.5,328.5 Z"/></g>
<g><path style="opacity:1" fill="#a9151a" d="M -0.5,359.5 C 212.833,359.5 426.167,359.5 639.5,359.5C 639.5,399.5 639.5,439.5 639.5,479.5C 426.167,479.5 212.833,479.5 -0.5,479.5C -0.5,439.5 -0.5,399.5 -0.5,359.5 Z"/></g>
</svg>
