<?xml version="1.0" encoding="UTF-8"?>
<!DOCTYPE svg PUBLIC "-//W3C//DTD SVG 1.1//EN" "http://www.w3.org/Graphics/SVG/1.1/DTD/svg11.dtd">
<svg xmlns="http://www.w3.org/2000/svg" version="1.1" width="640px" height="480px" style="shape-rendering:geometricPrecision; text-rendering:geometricPrecision; image-rendering:optimizeQuality; fill-rule:evenodd; clip-rule:evenodd" xmlns:xlink="http://www.w3.org/1999/xlink">
<g><path style="opacity:1" fill="#fdb600" d="M -0.5,-0.5 C 212.833,-0.5 426.167,-0.5 639.5,-0.5C 639.5,159.5 639.5,319.5 639.5,479.5C 426.167,479.5 212.833,479.5 -0.5,479.5C -0.5,319.5 -0.5,159.5 -0.5,-0.5 Z"/></g>
<g><path style="opacity:1" fill="#025640" d="M 114.5,26.5 C 114.5,168.5 114.5,310.5 114.5,452.5C 85.1667,452.5 55.8333,452.5 26.5,452.5C 26.5,310.5 26.5,168.5 26.5,26.5C 55.8333,26.5 85.1667,26.5 114.5,26.5 Z"/></g>
<g><path style="opacity:1" fill="#ff5b00" d="M 114.5,26.5 C 143.833,26.5 173.167,26.5 202.5,26.5C 202.5,168.5 202.5,310.5 202.5,452.5C 173.167,452.5 143.833,452.5 114.5,452.5C 114.5,310.5 114.5,168.5 114.5,26.5 Z"/></g>
<g><path style="opacity:1" fill="#8c2028" d="M 228.5,26.5 C 357.5,26.5 486.5,26.5 615.5,26.5C 615.5,168.5 615.5,310.5 615.5,452.5C 486.5,452.5 357.5,452.5 228.5,452.5C 228.5,310.5 228.5,168.5 228.5,26.5 Z"/></g>
<g><path style="opacity:1" fill="#42200f" d="M 254.5,30.5 C 250.833,30.5 247.167,30.5 243.5,30.5C 247.167,27.8333 250.833,27.8333 254.5,30.5 Z"/></g>
<g><path style="opacity:1" fill="#f8b200" d="M 243.5,30.5 C 247.167,30.5 250.833,30.5 254.5,30.5C 255.833,32.5 257.5,34.1667 259.5,35.5C 260.719,45.0646 262.386,54.5646 264.5,64C 264.333,64.8333 264.167,65.6667 264,66.5C 263.292,65.6195 262.458,64.9528 261.5,64.5C 260.833,61.8333 259.167,60.1667 256.5,59.5C 253.548,57.5902 250.214,56.5902 246.5,56.5C 240.844,55.0072 236.177,52.0072 232.5,47.5C 232.31,43.9682 232.977,40.6348 234.5,37.5C 235.451,36.0813 235.784,34.4147 235.5,32.5C 236.833,32.5 238.167,32.5 239.5,32.5C 241.153,32.3404 242.486,31.6737 243.5,30.5 Z"/></g>
<g><path style="opacity:1" fill="#321d09" d="M 254.5,30.5 C 257.167,31.1667 258.833,32.8333 259.5,35.5C 257.5,34.1667 255.833,32.5 254.5,30.5 Z"/></g>
<g><path style="opacity:1" fill="#f9b300" d="M 610.5,38.5 C 611.207,41.7861 611.54,45.1194 611.5,48.5C 610.07,50.386 608.403,52.0527 606.5,53.5C 600.893,54.6559 595.56,56.3225 590.5,58.5C 586.266,59.7314 583.266,62.3981 581.5,66.5C 580.883,66.6107 580.383,66.944 580,67.5C 579.506,65.8659 579.34,64.1992 579.5,62.5C 582.86,55.3146 584.193,47.648 583.5,39.5C 584.639,36.5664 586.306,33.8997 588.5,31.5C 590.783,30.9707 593.117,30.6374 595.5,30.5C 599.78,31.4708 604.113,32.1374 608.5,32.5C 608.259,34.8984 608.926,36.8984 610.5,38.5 Z"/></g>
<g><path style="opacity:1" fill="#0d0601" d="M 239.5,32.5 C 238.167,32.5 236.833,32.5 235.5,32.5C 235.784,34.4147 235.451,36.0813 234.5,37.5C 234.5,35.5 234.5,33.5 234.5,31.5C 236.415,31.2155 238.081,31.5489 239.5,32.5 Z"/></g>
<g><path style="opacity:1" fill="#3d1d0e" d="M 610.5,38.5 C 608.926,36.8984 608.259,34.8984 608.5,32.5C 604.113,32.1374 599.78,31.4708 595.5,30.5C 593.117,30.6374 590.783,30.9707 588.5,31.5C 588.611,30.8826 588.944,30.3826 589.5,30C 591.667,29.8333 593.833,29.6667 596,29.5C 600.868,30.0223 605.701,30.6889 610.5,31.5C 610.5,33.8333 610.5,36.1667 610.5,38.5 Z"/></g>
<g><path style="opacity:1" fill="#251505" d="M 610.5,38.5 C 611.972,40.1175 612.639,42.1175 612.5,44.5C 612.489,46.0451 612.156,47.3784 611.5,48.5C 611.54,45.1194 611.207,41.7861 610.5,38.5 Z"/></g>
<g><path style="opacity:1" fill="#421c11" d="M 583.5,39.5 C 584.193,47.648 582.86,55.3146 579.5,62.5C 580.549,54.6532 581.882,46.9866 583.5,39.5 Z"/></g>
<g><path style="opacity:1" fill="#31150c" d="M 259.5,35.5 C 260.927,37.1484 261.76,39.1484 262,41.5C 262.62,50.4795 264.12,59.3128 266.5,68C 266.167,69.1667 265.833,70.3333 265.5,71.5C 263.89,69.2746 262.557,66.9413 261.5,64.5C 262.458,64.9528 263.292,65.6195 264,66.5C 264.167,65.6667 264.333,64.8333 264.5,64C 262.386,54.5646 260.719,45.0646 259.5,35.5 Z"/></g>
<g><path style="opacity:1" fill="#2e1608" d="M 232.5,47.5 C 236.177,52.0072 240.844,55.0072 246.5,56.5C 242.56,56.2424 238.893,55.0757 235.5,53C 233.393,51.7365 232.393,49.9032 232.5,47.5 Z"/></g>
<g><path style="opacity:1" fill="#431e10" d="M 606.5,53.5 C 601.659,56.3832 596.326,58.0499 590.5,58.5C 595.56,56.3225 600.893,54.6559 606.5,53.5 Z"/></g>
<g><path style="opacity:1" fill="#321c06" d="M 256.5,59.5 C 259.167,60.1667 260.833,61.8333 261.5,64.5C 259.5,63.1667 257.833,61.5 256.5,59.5 Z"/></g>
<g><path style="opacity:1" fill="#1a0b04" d="M 579.5,62.5 C 579.34,64.1992 579.506,65.8659 580,67.5C 580.383,66.944 580.883,66.6107 581.5,66.5C 581.315,68.1958 580.481,69.5291 579,70.5C 578.199,67.633 578.366,64.9664 579.5,62.5 Z"/></g>
<g><path style="opacity:1" fill="#150a02" d="M 331.5,135.5 C 334.243,135.077 335.576,136.244 335.5,139C 331.96,152.905 329.793,167.072 329,181.5C 327.783,198.837 327.617,216.17 328.5,233.5C 332.865,234.531 335.531,237.198 336.5,241.5C 335.772,244.884 334.605,247.884 333,250.5C 337.015,254.682 341.182,258.682 345.5,262.5C 347.561,244.851 356.228,231.685 371.5,223C 369.376,221.878 367.543,220.378 366,218.5C 365.275,219.059 364.442,219.392 363.5,219.5C 361.5,218.5 359.5,217.5 357.5,216.5C 354.65,217.103 351.816,217.77 349,218.5C 347.287,217.863 347.121,216.863 348.5,215.5C 345.5,214.833 342.5,214.167 339.5,213.5C 340.861,208.722 342.528,204.056 344.5,199.5C 340.086,195.278 340.586,191.944 346,189.5C 348.883,190.577 351.717,191.41 354.5,192C 349.917,188.088 346.083,183.588 343,178.5C 341.607,173.905 341.274,169.239 342,164.5C 345.478,160.338 349.644,159.504 354.5,162C 356.607,163.264 357.607,165.097 357.5,167.5C 363.807,166.691 370.14,165.857 376.5,165C 380.113,162.94 380.446,160.44 377.5,157.5C 384.813,154.248 391.647,154.915 398,159.5C 397.664,155.842 399.164,153.509 402.5,152.5C 406.466,153.233 409.966,154.9 413,157.5C 414.691,153.787 417.525,152.621 421.5,154C 424.788,156.301 428.288,158.134 432,159.5C 435.867,157.647 439.201,154.98 442,151.5C 442.333,153.833 442.667,156.167 443,158.5C 454.485,148.917 467.652,145.75 482.5,149C 492.54,151.353 501.873,155.353 510.5,161C 516.691,166.025 523.024,170.858 529.5,175.5C 533.293,169.042 538.126,168.042 544,172.5C 547.449,185.059 542.615,190.559 529.5,189C 524.446,186.611 519.946,183.445 516,179.5C 515.899,182.435 514.399,183.769 511.5,183.5C 506.963,182.565 502.963,180.565 499.5,177.5C 496.302,181.269 492.302,183.102 487.5,183C 486.426,182.261 485.759,181.261 485.5,180C 487.089,177.488 488.422,174.822 489.5,172C 488.804,170.107 487.97,168.274 487,166.5C 486.342,176.16 481.175,181.66 471.5,183C 472.717,184.648 473.55,186.481 474,188.5C 474.75,189.126 475.584,189.626 476.5,190C 491.494,189.557 506.494,189.224 521.5,189C 535.307,192.783 540.807,201.617 538,215.5C 535.873,219.289 533.373,222.789 530.5,226C 538.982,238.129 540.816,251.296 536,265.5C 534.897,270.372 533.23,275.038 531,279.5C 527.415,288.402 527.749,297.068 532,305.5C 539.295,306.762 540.962,310.429 537,316.5C 534.521,319.069 531.854,321.402 529,323.5C 528.833,324.333 528.667,325.167 528.5,326C 529.661,330.156 531.495,333.989 534,337.5C 534.168,341.171 532.335,343.171 528.5,343.5C 526.202,343.268 524.035,342.601 522,341.5C 518.15,344.106 514.316,344.106 510.5,341.5C 506.796,344.017 503.129,344.017 499.5,341.5C 494.167,344.167 488.833,344.167 483.5,341.5C 479.833,344.167 476.167,344.167 472.5,341.5C 469.019,344.092 465.519,344.092 462,341.5C 453.961,345.125 451.294,342.791 454,334.5C 455.873,332.291 458.04,330.458 460.5,329C 464.555,328.768 468.555,328.268 472.5,327.5C 473.664,321.193 473.831,314.859 473,308.5C 469.724,302.892 466.057,297.558 462,292.5C 459.715,288.813 458.548,284.813 458.5,280.5C 454.085,280.305 449.751,280.805 445.5,282C 434.042,286.563 422.709,291.396 411.5,296.5C 409.667,299.5 407.833,302.5 406,305.5C 405.333,306.833 405.333,308.167 406,309.5C 408.66,310.834 411.494,311.668 414.5,312C 415.357,312.689 416.023,313.522 416.5,314.5C 413.475,321.016 408.475,325.182 401.5,327C 403.399,332.573 402.399,337.573 398.5,342C 394.75,344.043 391.084,343.877 387.5,341.5C 383.4,343.975 379.4,343.975 375.5,341.5C 371.729,343.938 368.062,343.938 364.5,341.5C 357.895,344.934 355.395,342.934 357,335.5C 358.061,332.438 359.894,329.938 362.5,328C 367.721,326.768 373.054,326.101 378.5,326C 383.069,323.459 384.569,319.625 383,314.5C 381.869,310.106 380.535,305.773 379,301.5C 375.076,298.787 370.909,296.453 366.5,294.5C 361.977,298.93 356.644,301.43 350.5,302C 345.916,299.42 341.916,296.087 338.5,292C 336.167,292.333 333.833,292.667 331.5,293C 330.299,292.097 329.465,290.931 329,289.5C 328.667,286.833 328.333,284.167 328,281.5C 326.829,282.893 325.329,283.727 323.5,284C 324.574,284.739 325.241,285.739 325.5,287C 324.047,288.783 323.047,290.783 322.5,293C 322.833,293.833 323.167,294.667 323.5,295.5C 329.305,294.135 331.805,296.468 331,302.5C 329.649,304.019 328.149,305.352 326.5,306.5C 327.833,308.5 329.5,310.167 331.5,311.5C 328.167,312.167 324.833,312.833 321.5,313.5C 319.582,317.004 317.416,320.337 315,323.5C 314.455,319.612 312.955,316.112 310.5,313C 307.118,312.824 303.785,312.324 300.5,311.5C 302.359,309.808 304.359,308.308 306.5,307C 302.118,304.736 300.618,301.236 302,296.5C 303.865,294.327 306.031,293.993 308.5,295.5C 309.886,292.1 309.219,289.1 306.5,286.5C 309.111,284.202 308.611,282.535 305,281.5C 302.734,276.698 304.234,273.698 309.5,272.5C 308.272,267.462 306.939,262.462 305.5,257.5C 306.651,255.675 307.318,253.675 307.5,251.5C 300.173,250.19 297.339,245.857 299,238.5C 300.991,235.42 303.825,233.754 307.5,233.5C 307.333,215.83 307.5,198.164 308,180.5C 309.017,167.783 313.017,156.116 320,145.5C 323.438,141.559 327.271,138.225 331.5,135.5 Z"/></g>
<g><path style="opacity:1" fill="#f6b100" d="M 325.5,249.5 C 321.881,250.244 318.215,250.577 314.5,250.5C 309.564,250.689 305.398,249.023 302,245.5C 299.94,238.562 302.44,235.729 309.5,237C 310.061,239.518 310.394,242.018 310.5,244.5C 311.318,242.892 311.985,241.225 312.5,239.5C 311.391,237.615 310.557,235.615 310,233.5C 309.191,215.477 309.524,197.477 311,179.5C 311.838,164.328 317.671,151.495 328.5,141C 330.055,139.711 331.721,139.044 333.5,139C 331.646,141.543 330.479,144.376 330,147.5C 326.441,177.05 324.608,206.717 324.5,236.5C 333.619,236.581 335.619,240.248 330.5,247.5C 328.925,248.456 327.258,249.123 325.5,249.5 Z"/></g>
<g><path style="opacity:1" fill="#fab300" d="M 461.5,283.5 C 461.077,281.219 461.744,279.552 463.5,278.5C 468.389,278.556 473.056,279.556 477.5,281.5C 476.942,280.21 475.942,279.377 474.5,279C 471.243,277.957 467.91,277.457 464.5,277.5C 461.5,276.167 458.5,276.167 455.5,277.5C 450.302,277.731 445.302,278.897 440.5,281C 431.259,285.122 421.926,288.956 412.5,292.5C 413.787,289.594 414.787,286.594 415.5,283.5C 413.595,286.304 411.929,289.304 410.5,292.5C 407.435,297.464 404.768,302.631 402.5,308C 402.439,309.711 403.106,311.044 404.5,312C 407.444,312.97 410.444,313.804 413.5,314.5C 410.696,320.057 406.196,323.391 400,324.5C 399.667,328.5 399.333,332.5 399,336.5C 395.88,341.132 391.88,341.799 387,338.5C 383.22,341.127 379.387,341.127 375.5,338.5C 371.763,341.077 368.097,341.077 364.5,338.5C 362.588,340.156 360.588,340.489 358.5,339.5C 361.351,330.175 367.685,326.675 377.5,329C 380.034,328.484 382.2,327.317 384,325.5C 385.534,321.289 385.867,316.956 385,312.5C 383.799,307.067 382.299,301.733 380.5,296.5C 378.475,289.254 377.975,281.921 379,274.5C 376.98,281.979 377.147,289.312 379.5,296.5C 379.44,297.043 379.107,297.376 378.5,297.5C 374.012,295.423 369.679,293.09 365.5,290.5C 362.5,286.833 359.167,283.5 355.5,280.5C 355.573,278.973 354.906,277.973 353.5,277.5C 353.34,275.847 352.674,274.514 351.5,273.5C 347.095,250.477 355.428,233.643 376.5,223C 380.203,220.228 380.203,217.728 376.5,215.5C 374.259,216.071 372.592,217.404 371.5,219.5C 369.196,217.569 367.362,215.236 366,212.5C 365.804,214.286 364.971,215.619 363.5,216.5C 362.387,214.969 360.887,213.969 359,213.5C 356.846,214.252 354.68,214.419 352.5,214C 353.167,213 353.833,212 354.5,211C 350.852,210.938 347.185,211.105 343.5,211.5C 344.091,208.06 345.091,204.727 346.5,201.5C 347.729,200.719 349.062,200.219 350.5,200C 347.143,198.488 345.143,195.988 344.5,192.5C 350.655,194.164 356.655,196.33 362.5,199C 367.435,200.267 372.435,201.1 377.5,201.5C 374.687,197.224 371.854,192.89 369,188.5C 367.812,189.563 367.312,190.897 367.5,192.5C 365.097,192.607 363.264,191.607 362,189.5C 361.781,190.938 361.281,192.271 360.5,193.5C 354.439,188.608 349.272,182.941 345,176.5C 343.787,173.232 343.454,169.899 344,166.5C 347.182,162.943 350.682,162.609 354.5,165.5C 355.189,167.444 355.689,169.444 356,171.5C 363.424,169.887 370.924,168.387 378.5,167C 381.81,165.254 382.81,162.754 381.5,159.5C 387.874,157.607 393.708,158.607 399,162.5C 401.134,160.713 401.967,158.38 401.5,155.5C 406.468,156.28 410.635,158.613 414,162.5C 415.411,160.35 416.245,158.016 416.5,155.5C 421.201,156.351 425.201,158.518 428.5,162C 432.18,163.027 435.347,162.194 438,159.5C 438.667,160.833 438.667,162.167 438,163.5C 436.545,166.613 434.712,169.446 432.5,172C 433.906,173.978 434.906,176.145 435.5,178.5C 436.036,181.698 435.369,184.365 433.5,186.5C 435.343,190.187 436.01,194.187 435.5,198.5C 435.649,199.552 435.483,200.552 435,201.5C 433.887,199.671 432.387,198.837 430.5,199C 433.612,202.942 435.112,207.442 435,212.5C 432.931,210.915 430.764,209.581 428.5,208.5C 430.867,212.407 432.867,216.573 434.5,221C 427.833,221.667 427.833,222.333 434.5,223C 435.373,224.045 436.373,224.878 437.5,225.5C 461.017,224.376 484.684,223.209 508.5,222C 513.768,221.133 518.768,219.466 523.5,217C 527.714,212.8 528.548,207.966 526,202.5C 524.2,200.683 522.034,199.516 519.5,199C 513.833,198.333 508.167,198.333 502.5,199C 490.874,201.569 479.208,201.903 467.5,200C 462.916,198.206 458.249,196.706 453.5,195.5C 449.809,196.156 447.976,198.489 448,202.5C 442.612,198.044 442.112,193.044 446.5,187.5C 435.067,173.092 437.733,161.925 454.5,154C 471.676,149.074 488.009,151.074 503.5,160C 512.447,165.947 521.114,172.28 529.5,179C 530.793,179.49 532.127,179.657 533.5,179.5C 532.831,174 535.165,171.833 540.5,173C 545.534,181.097 543.201,185.597 533.5,186.5C 530.567,186.534 527.9,185.701 525.5,184C 520.596,179.261 515.263,175.094 509.5,171.5C 509.158,174.364 509.824,177.198 511.5,180C 505.791,179.653 501.624,176.819 499,171.5C 497.986,176.514 494.986,179.514 490,180.5C 489.5,180.167 489,179.833 488.5,179.5C 493.632,171.634 491.965,165.634 483.5,161.5C 483.491,165.33 483.325,169.33 483,173.5C 480.612,177.573 477.112,179.407 472.5,179C 478.324,167.96 474.99,161.46 462.5,159.5C 462.664,162.187 462.497,164.854 462,167.5C 460.387,168.622 459.22,168.122 458.5,166C 450.331,164.18 446.498,167.347 447,175.5C 448.041,177.585 449.541,179.252 451.5,180.5C 455.966,175.441 461.299,174.274 467.5,177C 460.153,179.607 458.653,184.107 463,190.5C 464.886,187.758 467.386,186.091 470.5,185.5C 470.56,190.061 472.893,192.561 477.5,193C 492.142,192.196 506.809,191.862 521.5,192C 532.691,194.883 537.524,202.05 536,213.5C 533.404,217.931 530.238,221.931 526.5,225.5C 535.593,236.712 538.093,249.379 534,263.5C 529.943,273.001 527.11,282.834 525.5,293C 525.325,299.489 527.658,304.822 532.5,309C 533.793,309.49 535.127,309.657 536.5,309.5C 536.509,311.308 536.009,312.975 535,314.5C 532.521,317.069 529.854,319.402 527,321.5C 526.333,324.5 526.333,327.5 527,330.5C 529.22,333.54 530.72,336.873 531.5,340.5C 527.578,340.931 524.078,339.931 521,337.5C 517.54,341.446 514.04,341.446 510.5,337.5C 506.96,341.446 503.46,341.446 500,337.5C 498.323,338.516 496.657,339.516 495,340.5C 493.848,338.488 492.682,338.322 491.5,340C 488.15,340.93 485.317,340.097 483,337.5C 479.492,341.436 476.159,341.436 473,337.5C 469.458,341.434 465.958,341.434 462.5,337.5C 460.513,339.327 458.179,340.327 455.5,340.5C 457.119,332.427 462.119,329.261 470.5,331C 472.421,330.64 474.088,329.806 475.5,328.5C 476.664,322.193 476.831,315.859 476,309.5C 472.763,302.693 468.763,296.36 464,290.5C 462.589,288.35 461.755,286.016 461.5,283.5 Z"/></g>
<g><path style="opacity:1" fill="#851e26" d="M 465.5,162.5 C 472.259,164.332 474.259,168.499 471.5,175C 468.33,173.94 464.996,173.106 461.5,172.5C 457.725,172.721 454.391,174.054 451.5,176.5C 448.26,170.892 449.927,168.059 456.5,168C 457.948,171.704 460.281,172.371 463.5,170C 464.867,167.699 465.534,165.199 465.5,162.5 Z"/></g>
<g><path style="opacity:1" fill="#604503" d="M 427.5,167.5 C 429.379,167.393 429.712,167.893 428.5,169C 422.977,171.397 417.31,172.23 411.5,171.5C 417.204,171.083 422.537,169.749 427.5,167.5 Z"/></g>
<g><path style="opacity:1" fill="#594005" d="M 395.5,178.5 C 390.944,176.725 386.277,175.225 381.5,174C 386.825,173.498 391.492,174.998 395.5,178.5 Z"/></g>
<g><path style="opacity:1" fill="#694c05" d="M 395.5,178.5 C 397.604,178.799 399.604,178.466 401.5,177.5C 398.722,172.903 399.388,172.403 403.5,176C 407.5,176.667 411.5,176.667 415.5,176C 414.549,175.282 414.383,174.449 415,173.5C 416.167,174.667 417.333,175.833 418.5,177C 413.746,178.795 408.913,178.961 404,177.5C 403.5,177.667 403,177.833 402.5,178C 405.076,179.383 404.742,180.217 401.5,180.5C 399.201,180.401 397.201,179.734 395.5,178.5 Z"/></g>
<g><path style="opacity:1" fill="#4b3604" d="M 379.5,175.5 C 380.29,176.609 380.79,177.942 381,179.5C 382.88,180.93 384.38,180.596 385.5,178.5C 384.674,177.549 384.508,176.549 385,175.5C 387.672,180.503 386.172,182.336 380.5,181C 378.701,179.3 378.368,177.467 379.5,175.5 Z"/></g>
<g><path style="opacity:1" fill="#791b23" d="M 467.5,179.5 C 468.525,179.897 468.692,180.563 468,181.5C 466.649,183.019 465.149,184.352 463.5,185.5C 462.479,184.998 462.312,184.332 463,183.5C 464.397,181.93 465.897,180.596 467.5,179.5 Z"/></g>
<g><path style="opacity:1" fill="#694c08" d="M 433.5,186.5 C 432.038,185.542 430.705,184.376 429.5,183C 431.841,182.832 433.174,183.999 433.5,186.5 Z"/></g>
<g><path style="opacity:1" fill="#891f27" d="M 438.5,182.5 C 440.5,183.976 442.167,185.809 443.5,188C 440.843,192.819 441.009,197.653 444,202.5C 449.108,206.945 451.608,205.611 451.5,198.5C 457.303,199.396 462.97,200.896 468.5,203C 482.778,203.93 496.945,203.097 511,200.5C 515.93,200.033 520.263,201.366 524,204.5C 526.229,209.242 525.062,213.075 520.5,216C 515.246,217.647 509.913,218.98 504.5,220C 482.508,221.111 460.508,221.444 438.5,221C 436.787,219.622 435.453,217.955 434.5,216C 437.193,215.973 438.527,214.64 438.5,212C 438.037,209.611 437.37,207.277 436.5,205C 436.63,203.941 437.13,203.108 438,202.5C 438.5,195.842 438.666,189.175 438.5,182.5 Z"/></g>
<g><path style="opacity:1" fill="#825d00" d="M 435.5,178.5 C 436.833,185.167 436.833,191.833 435.5,198.5C 436.01,194.187 435.343,190.187 433.5,186.5C 435.369,184.365 436.036,181.698 435.5,178.5 Z"/></g>
<g><path style="opacity:1" fill="#4d3706" d="M 407.5,194.5 C 407.215,192.712 407.548,191.045 408.5,189.5C 410.942,191.521 410.609,193.187 407.5,194.5 Z"/></g>
<g><path style="opacity:1" fill="#5e4407" d="M 413.5,193.5 C 413.201,191.396 413.534,189.396 414.5,187.5C 416.856,189.69 419.356,191.69 422,193.5C 422.333,190.5 422.667,187.5 423,184.5C 423.5,185 424,185.5 424.5,186C 423.867,189.459 423.2,192.959 422.5,196.5C 420.81,193.976 418.643,191.976 416,190.5C 415.148,191.571 414.315,192.571 413.5,193.5 Z"/></g>
<g><path style="opacity:1" fill="#433004" d="M 405.5,194.5 C 406.167,194.5 406.833,194.5 407.5,194.5C 406.833,197.167 406.167,197.167 405.5,194.5 Z"/></g>
<g><path style="opacity:1" fill="#2b1f03" d="M 413.5,193.5 C 413.361,195.337 412.694,195.67 411.5,194.5C 411.957,193.702 412.624,193.369 413.5,193.5 Z"/></g>
<g><path style="opacity:1" fill="#5b4206" d="M 425.5,188.5 C 427.035,190.939 427.868,193.606 428,196.5C 425.977,194.231 425.144,191.564 425.5,188.5 Z"/></g>
<g><path style="opacity:1" fill="#463305" d="M 401.5,197.5 C 399.983,197.489 398.816,196.823 398,195.5C 397.292,196.381 396.458,197.047 395.5,197.5C 397.241,193.604 399.241,193.604 401.5,197.5 Z"/></g>
<g><path style="opacity:1" fill="#701921" d="M 364.5,196.5 C 366.847,195.105 369.181,195.272 371.5,197C 369.071,197.703 366.738,197.537 364.5,196.5 Z"/></g>
<g><path style="opacity:1" fill="#543c09" d="M 405.5,194.5 C 404.837,196.042 404.17,197.709 403.5,199.5C 402.478,199.145 401.811,198.478 401.5,197.5C 402.314,195.369 402.814,193.036 403,190.5C 404.095,191.693 404.928,193.027 405.5,194.5 Z"/></g>
<g><path style="opacity:1" fill="#573f07" d="M 395.5,197.5 C 394.64,199.97 393.306,200.137 391.5,198C 392.959,198.355 394.293,198.189 395.5,197.5 Z"/></g>
<g><path style="opacity:1" fill="#3c2c04" d="M 423.5,204.5 C 422.609,203.89 421.609,203.557 420.5,203.5C 421.86,200.985 422.86,201.318 423.5,204.5 Z"/></g>
<g><path style="opacity:1" fill="#735304" d="M 377.5,201.5 C 379.982,203.503 380.982,206.169 380.5,209.5C 376.129,209.125 371.796,208.459 367.5,207.5C 367.833,206.833 368.167,206.167 368.5,205.5C 362.771,204.212 357.104,202.712 351.5,201C 356.775,201.644 362.108,202.311 367.5,203C 369.886,203.284 370.552,204.284 369.5,206C 372.687,206.889 375.853,207.722 379,208.5C 379.135,206.078 378.635,203.745 377.5,201.5 Z"/></g>
<g><path style="opacity:1" fill="#493506" d="M 420.5,203.5 C 419.756,206.884 418.423,207.218 416.5,204.5C 417.959,204.567 419.292,204.234 420.5,203.5 Z"/></g>
<g><path style="opacity:1" fill="#4c3705" d="M 423.5,204.5 C 425.749,205.08 427.415,206.413 428.5,208.5C 426.251,207.92 424.585,206.587 423.5,204.5 Z"/></g>
<g><path style="opacity:1" fill="#4a3607" d="M 416.5,204.5 C 414.433,205.263 412.766,206.596 411.5,208.5C 407.478,205.251 407.478,204.584 411.5,206.5C 412.806,205.088 413.64,203.421 414,201.5C 415.045,202.373 415.878,203.373 416.5,204.5 Z"/></g>
<g><path style="opacity:1" fill="#4e3806" d="M 404.5,210.5 C 403.518,209.859 402.518,209.193 401.5,208.5C 400.482,209.193 399.482,209.859 398.5,210.5C 398.833,206.638 400.499,205.805 403.5,208C 404.252,208.671 404.586,209.504 404.5,210.5 Z"/></g>
<g><path style="opacity:1" fill="#694b02" d="M 398.5,210.5 C 398.483,212.028 397.816,212.528 396.5,212C 394.046,210.26 392.546,208.093 392,205.5C 393.777,207.79 395.944,209.457 398.5,210.5 Z"/></g>
<g><path style="opacity:1" fill="#533c07" d="M 404.5,210.5 C 405.728,211.306 406.728,212.306 407.5,213.5C 407.44,214.043 407.107,214.376 406.5,214.5C 405.295,213.423 404.628,212.09 404.5,210.5 Z"/></g>
<g><path style="opacity:1" fill="#2d2104" d="M 409.5,212.5 C 408.833,212.833 408.167,213.167 407.5,213.5C 407.281,212.325 407.614,211.325 408.5,210.5C 409.298,210.957 409.631,211.624 409.5,212.5 Z"/></g>
<g><path style="opacity:1" fill="#241a01" d="M 389.5,217.5 C 389.167,217.5 388.833,217.5 388.5,217.5C 388.167,217.5 387.833,217.5 387.5,217.5C 388.167,214.833 388.833,214.833 389.5,217.5 Z"/></g>
<g><path style="opacity:1" fill="#6b4c01" d="M 398.5,219.5 C 397.395,218.4 396.062,217.733 394.5,217.5C 394.369,216.624 394.702,215.957 395.5,215.5C 397.288,216.283 398.288,217.616 398.5,219.5 Z"/></g>
<g><path style="opacity:1" fill="#412f03" d="M 414.5,216.5 C 415.583,216.539 416.583,216.873 417.5,217.5C 418.192,216.975 418.692,216.308 419,215.5C 418.962,220.387 417.462,220.72 414.5,216.5 Z"/></g>
<g><path style="opacity:1" fill="#5a4102" d="M 420.5,217.5 C 422.07,216.441 423.403,216.941 424.5,219C 422.934,219.3 421.601,218.8 420.5,217.5 Z"/></g>
<g><path style="opacity:1" fill="#5d4303" d="M 387.5,217.5 C 387.573,219.027 386.906,220.027 385.5,220.5C 385.427,218.973 386.094,217.973 387.5,217.5 Z"/></g>
<g><path style="opacity:1" fill="#493505" d="M 409.5,212.5 C 411.749,213.08 413.415,214.413 414.5,216.5C 413.683,218.969 413.183,221.635 413,224.5C 412.667,224.833 412.333,225.167 412,225.5C 411.338,224.016 410.504,222.683 409.5,221.5C 410.496,221.414 411.329,221.748 412,222.5C 413.139,218.579 412.305,215.246 409.5,212.5 Z"/></g>
<g><path style="opacity:1" fill="#644801" d="M 406.5,219.5 C 408.027,219.427 409.027,220.094 409.5,221.5C 407.973,221.573 406.973,220.906 406.5,219.5 Z"/></g>
<g><path style="opacity:1" fill="#4e3808" d="M 385.5,220.5 C 384.992,222.233 384.159,222.566 383,221.5C 382.333,219.833 382.333,218.167 383,216.5C 383.2,218.32 384.034,219.653 385.5,220.5 Z"/></g>
<g><path style="opacity:1" fill="#6e4f04" d="M 388.5,217.5 C 388.833,217.5 389.167,217.5 389.5,217.5C 389.987,218.473 390.487,219.473 391,220.5C 392.039,219.29 393.206,218.29 394.5,217.5C 393.712,220.621 391.712,222.288 388.5,222.5C 388.5,220.833 388.5,219.167 388.5,217.5 Z"/></g>
<g><path style="opacity:1" fill="#453209" d="M 406.5,219.5 C 405.504,219.586 404.671,219.252 404,218.5C 402.447,225.66 400.613,225.993 398.5,219.5C 399.79,220.058 400.623,221.058 401,222.5C 400.898,216.354 402.732,215.354 406.5,219.5 Z"/></g>
<g><path style="opacity:1" fill="#6e4f02" d="M 375.5,230.5 C 375.504,228.158 376.337,226.158 378,224.5C 378.008,226.821 377.175,228.821 375.5,230.5 Z"/></g>
<g><path style="opacity:1" fill="#4f3906" d="M 406.5,225.5 C 408.772,226.797 409.605,228.797 409,231.5C 408.333,230.167 407.667,228.833 407,227.5C 406.237,230.95 404.737,233.95 402.5,236.5C 400.844,234.54 399.177,232.54 397.5,230.5C 397.667,230.167 397.833,229.833 398,229.5C 399.685,231.017 401.185,232.684 402.5,234.5C 403.983,231.572 405.316,228.572 406.5,225.5 Z"/></g>
<g><path style="opacity:1" fill="#3e2d04" d="M 375.5,230.5 C 375.577,231.75 376.244,232.583 377.5,233C 371.865,235.313 371.199,234.48 375.5,230.5 Z"/></g>
<g><path style="opacity:1" fill="#493508" d="M 387.5,237.5 C 388.217,235.063 389.217,232.73 390.5,230.5C 391.378,233.002 392.712,235.168 394.5,237C 393.975,237.692 393.308,238.192 392.5,238.5C 391.833,237.167 391.167,235.833 390.5,234.5C 389.712,235.77 388.712,236.77 387.5,237.5 Z"/></g>
<g><path style="opacity:1" fill="#543c03" d="M 424.5,235.5 C 423.07,235.579 421.736,235.246 420.5,234.5C 418.736,236.278 416.736,237.611 414.5,238.5C 416.834,233.421 420.168,232.421 424.5,235.5 Z"/></g>
<g><path style="opacity:1" fill="#302304" d="M 382.5,236.5 C 382.167,236.5 381.833,236.5 381.5,236.5C 381.376,234.418 380.376,232.918 378.5,232C 379.416,231.626 380.25,231.126 381,230.5C 381.813,232.436 382.313,234.436 382.5,236.5 Z"/></g>
<g><path style="opacity:1" fill="#725204" d="M 437.5,225.5 C 439.394,226.048 441.06,227.048 442.5,228.5C 439.305,229.865 435.972,230.865 432.5,231.5C 431.652,233.409 431.318,235.409 431.5,237.5C 428.848,237.59 426.515,236.924 424.5,235.5C 426.467,235.261 428.301,235.594 430,236.5C 430.497,233.854 430.664,231.187 430.5,228.5C 433.518,228.665 436.518,228.498 439.5,228C 438.619,227.292 437.953,226.458 437.5,225.5 Z"/></g>
<g><path style="opacity:1" fill="#342605" d="M 414.5,238.5 C 414.189,239.478 413.522,240.145 412.5,240.5C 411.386,239.277 411.219,237.944 412,236.5C 412.417,237.756 413.25,238.423 414.5,238.5 Z"/></g>
<g><path style="opacity:1" fill="#775604" d="M 381.5,236.5 C 381.833,236.5 382.167,236.5 382.5,236.5C 383.151,237.091 383.818,237.757 384.5,238.5C 385.417,237.873 386.417,237.539 387.5,237.5C 386.086,239.054 384.419,240.388 382.5,241.5C 381.548,239.955 381.215,238.288 381.5,236.5 Z"/></g>
<g><path style="opacity:1" fill="#4a3506" d="M 323.5,241.5 C 325.986,242.95 325.653,244.116 322.5,245C 319.167,245.667 315.833,245.667 312.5,245C 315.167,244.667 317.833,244.333 320.5,244C 322.119,243.764 323.119,242.931 323.5,241.5 Z"/></g>
<g><path style="opacity:1" fill="#f3af00" d="M 310.5,252.5 C 314.839,251.846 318.673,252.846 322,255.5C 322.167,255.833 322.333,256.167 322.5,256.5C 321.667,256.833 320.833,257.167 320,257.5C 317.863,256.923 315.696,256.59 313.5,256.5C 311.771,255.764 310.771,254.43 310.5,252.5 Z"/></g>
<g><path style="opacity:1" fill="#f8b200" d="M 325.5,250.5 C 326.873,250.343 328.207,250.51 329.5,251C 337.063,258.395 344.397,265.895 351.5,273.5C 352.674,274.514 353.34,275.847 353.5,277.5C 353.427,279.027 354.094,280.027 355.5,280.5C 357.766,284.436 360.766,287.769 364.5,290.5C 364.141,292.371 363.141,293.871 361.5,295C 358.774,297.03 355.774,298.53 352.5,299.5C 346.909,295.918 341.576,291.918 336.5,287.5C 335.186,288.313 334.019,289.313 333,290.5C 331.726,286.015 331.059,281.348 331,276.5C 328.238,275.012 327.404,273.012 328.5,270.5C 329.833,267.833 329.833,265.167 328.5,262.5C 329.218,260.863 329.384,259.197 329,257.5C 328.208,259.587 327.041,261.421 325.5,263C 324.668,263.688 324.002,263.521 323.5,262.5C 324.833,260.833 326.167,259.167 327.5,257.5C 327.333,257.167 327.167,256.833 327,256.5C 322.465,258.579 322.298,257.745 326.5,254C 324.05,255.126 322.05,254.459 320.5,252C 322.382,251.802 324.048,251.302 325.5,250.5 Z"/></g>
<g><path style="opacity:1" fill="#f8b200" d="M 313.5,256.5 C 316.024,257.74 318.691,258.907 321.5,260C 322.252,260.671 322.586,261.504 322.5,262.5C 319.455,262.492 316.455,262.159 313.5,261.5C 310.167,261.5 308.5,259.833 308.5,256.5C 310.167,256.5 311.833,256.5 313.5,256.5 Z"/></g>
<g><path style="opacity:1" fill="#e7a500" d="M 313.5,262.5 C 315.5,263.167 317.5,263.833 319.5,264.5C 321.044,264.703 322.378,265.37 323.5,266.5C 325.419,265.388 327.086,264.054 328.5,262.5C 328.312,265.206 327.312,267.539 325.5,269.5C 324.25,269.423 323.417,268.756 323,267.5C 321.644,268.38 320.144,268.714 318.5,268.5C 316.343,267.593 314.01,266.927 311.5,266.5C 308.77,263.949 309.437,262.616 313.5,262.5 Z"/></g>
<g><path style="opacity:1" fill="#835e00" d="M 313.5,262.5 C 313.5,262.167 313.5,261.833 313.5,261.5C 316.455,262.159 319.455,262.492 322.5,262.5C 321.5,263.167 320.5,263.833 319.5,264.5C 317.5,263.833 315.5,263.167 313.5,262.5 Z"/></g>
<g><path style="opacity:1" fill="#2a1e04" d="M 325.5,249.5 C 325.5,249.833 325.5,250.167 325.5,250.5C 324.048,251.302 322.382,251.802 320.5,252C 322.05,254.459 324.05,255.126 326.5,254C 322.298,257.745 322.465,258.579 327,256.5C 327.167,256.833 327.333,257.167 327.5,257.5C 326.167,259.167 324.833,260.833 323.5,262.5C 324.002,263.521 324.668,263.688 325.5,263C 327.041,261.421 328.208,259.587 329,257.5C 329.384,259.197 329.218,260.863 328.5,262.5C 327.086,264.054 325.419,265.388 323.5,266.5C 322.378,265.37 321.044,264.703 319.5,264.5C 320.5,263.833 321.5,263.167 322.5,262.5C 322.586,261.504 322.252,260.671 321.5,260C 318.691,258.907 316.024,257.74 313.5,256.5C 315.696,256.59 317.863,256.923 320,257.5C 320.833,257.167 321.667,256.833 322.5,256.5C 322.333,256.167 322.167,255.833 322,255.5C 318.673,252.846 314.839,251.846 310.5,252.5C 311.833,251.833 313.167,251.167 314.5,250.5C 318.215,250.577 321.881,250.244 325.5,249.5 Z"/></g>
<g><path style="opacity:1" fill="#483406" d="M 328.5,262.5 C 329.833,265.167 329.833,267.833 328.5,270.5C 328.631,269.761 328.464,269.094 328,268.5C 327.329,269.252 326.496,269.586 325.5,269.5C 327.312,267.539 328.312,265.206 328.5,262.5 Z"/></g>
<g><path style="opacity:1" fill="#5b4204" d="M 311.5,266.5 C 314.01,266.927 316.343,267.593 318.5,268.5C 318.5,268.833 318.5,269.167 318.5,269.5C 316.283,268.631 313.95,268.298 311.5,268.5C 311.5,267.833 311.5,267.167 311.5,266.5 Z"/></g>
<g><path style="opacity:1" fill="#563e05" d="M 415.5,283.5 C 417.506,276.967 419.006,270.301 420,263.5C 420.591,270.723 419.091,277.39 415.5,283.5 Z"/></g>
<g><path style="opacity:1" fill="#db9d00" d="M 328.5,270.5 C 327.185,271.476 325.852,272.476 324.5,273.5C 324.167,273.167 323.833,272.833 323.5,272.5C 324.193,271.482 324.859,270.482 325.5,269.5C 326.496,269.586 327.329,269.252 328,268.5C 328.464,269.094 328.631,269.761 328.5,270.5 Z"/></g>
<g><path style="opacity:1" fill="#f0ac00" d="M 311.5,268.5 C 313.95,268.298 316.283,268.631 318.5,269.5C 321.179,269.525 322.512,270.858 322.5,273.5C 320.473,273.338 318.473,273.505 316.5,274C 319.139,275.946 322.139,276.946 325.5,277C 326.337,278.011 326.67,279.178 326.5,280.5C 324.167,280.5 321.833,280.5 319.5,280.5C 319.585,282.929 320.585,284.929 322.5,286.5C 318.256,291.253 318.589,295.586 323.5,299.5C 324.85,298.05 326.516,297.383 328.5,297.5C 328.379,301.962 326.046,304.629 321.5,305.5C 322.5,306.833 323.5,308.167 324.5,309.5C 322.922,310.298 321.256,310.798 319.5,311C 318.884,313.179 317.717,315.012 316,316.5C 314.708,314.751 313.542,312.918 312.5,311C 310.833,310.667 309.167,310.333 307.5,310C 309.019,308.649 310.352,307.149 311.5,305.5C 307.909,304.882 305.242,303.048 303.5,300C 305.073,296.876 307.073,296.71 309.5,299.5C 313.07,295.655 313.403,291.489 310.5,287C 312.201,285.14 313.201,282.973 313.5,280.5C 311.473,280.662 309.473,280.495 307.5,280C 306.663,278.989 306.33,277.822 306.5,276.5C 308.833,276.5 311.167,276.5 313.5,276.5C 313.33,275.178 313.663,274.011 314.5,273C 312.137,272.411 311.137,270.911 311.5,268.5 Z"/></g>
<g><path style="opacity:1" fill="#a97900" d="M 455.5,277.5 C 458.5,276.167 461.5,276.167 464.5,277.5C 463.833,277.5 463.5,277.833 463.5,278.5C 461.744,279.552 461.077,281.219 461.5,283.5C 460.539,281.735 460.205,279.735 460.5,277.5C 458.833,277.5 457.167,277.5 455.5,277.5 Z"/></g>
<g><path style="opacity:1" fill="#573e05" d="M 353.5,277.5 C 354.906,277.973 355.573,278.973 355.5,280.5C 354.094,280.027 353.427,279.027 353.5,277.5 Z"/></g>
<g><path style="opacity:1" fill="#694b02" d="M 380.5,296.5 C 380.167,296.5 379.833,296.5 379.5,296.5C 377.147,289.312 376.98,281.979 379,274.5C 377.975,281.921 378.475,289.254 380.5,296.5 Z"/></g>
<g><path style="opacity:1" fill="#503904" d="M 463.5,278.5 C 463.5,277.833 463.833,277.5 464.5,277.5C 467.91,277.457 471.243,277.957 474.5,279C 475.942,279.377 476.942,280.21 477.5,281.5C 473.056,279.556 468.389,278.556 463.5,278.5 Z"/></g>
<g><path style="opacity:1" fill="#533c04" d="M 477.5,281.5 C 479.196,281.685 480.529,282.519 481.5,284C 479.588,284.279 478.254,283.446 477.5,281.5 Z"/></g>
<g><path style="opacity:1" fill="#5d4304" d="M 355.5,280.5 C 359.167,283.5 362.5,286.833 365.5,290.5C 365.167,290.5 364.833,290.5 364.5,290.5C 360.766,287.769 357.766,284.436 355.5,280.5 Z"/></g>
<g><path style="opacity:1" fill="#604505" d="M 415.5,283.5 C 414.787,286.594 413.787,289.594 412.5,292.5C 412.062,293.506 411.396,293.506 410.5,292.5C 411.929,289.304 413.595,286.304 415.5,283.5 Z"/></g>
<g><path style="opacity:1" fill="#594005" d="M 492.5,294.5 C 490.456,293.969 488.789,292.802 487.5,291C 489.772,291.077 491.438,292.243 492.5,294.5 Z"/></g>
<g><path style="opacity:1" fill="#160c03" d="M 492.5,294.5 C 499.735,298.044 506.235,302.711 512,308.5C 513.527,314.415 513.861,320.415 513,326.5C 512.5,327 512,327.5 511.5,328C 504.22,328.741 498.387,331.907 494,337.5C 492.882,332.843 492.215,328.176 492,323.5C 494.28,319.553 496.947,315.887 500,312.5C 500.483,311.552 500.649,310.552 500.5,309.5C 491.054,309.112 489.054,304.945 494.5,297C 493.619,296.292 492.953,295.458 492.5,294.5 Z"/></g>
<g><path style="opacity:1" fill="#881f27" d="M 495.5,299.5 C 500.416,302.214 504.916,305.548 509,309.5C 510.76,314.968 510.927,320.468 509.5,326C 504.558,326.866 500.058,328.7 496,331.5C 495.005,328.874 494.672,326.207 495,323.5C 498.843,319.811 501.676,315.478 503.5,310.5C 503.392,309.558 503.059,308.725 502.5,308C 499.692,307.007 496.859,306.173 494,305.5C 493.591,303.305 494.091,301.305 495.5,299.5 Z"/></g>
<g><path style="opacity:1" fill="#2c1909" d="M 581.5,412.5 C 580.105,410.946 579.439,411.279 579.5,413.5C 582.645,422.914 584.312,432.581 584.5,442.5C 583.151,432.526 581.151,422.526 578.5,412.5C 578.66,407.593 579.66,407.593 581.5,412.5 Z"/></g>
<g><path style="opacity:1" fill="#170b02" d="M 264.5,416.5 C 264.784,414.585 264.451,412.919 263.5,411.5C 263.461,410.244 263.961,409.244 265,408.5C 265.801,411.367 265.634,414.034 264.5,416.5 Z"/></g>
<g><path style="opacity:1" fill="#fab300" d="M 581.5,412.5 C 583.266,416.602 586.266,419.269 590.5,420.5C 594.403,422.898 598.736,424.231 603.5,424.5C 606.489,426.003 609.156,428.003 611.5,430.5C 611.54,433.881 611.207,437.214 610.5,440.5C 608.926,442.102 608.259,444.102 608.5,446.5C 604.113,446.863 599.78,447.529 595.5,448.5C 591.461,448.81 588.127,447.477 585.5,444.5C 585.672,443.508 585.338,442.842 584.5,442.5C 584.312,432.581 582.645,422.914 579.5,413.5C 579.439,411.279 580.105,410.946 581.5,412.5 Z"/></g>
<g><path style="opacity:1" fill="#fab300" d="M 263.5,411.5 C 264.451,412.919 264.784,414.585 264.5,416.5C 263.833,416.5 263.5,416.833 263.5,417.5C 262.32,426.63 260.487,435.63 258,444.5C 256.786,446.049 255.286,447.215 253.5,448C 250.183,448.498 246.85,448.665 243.5,448.5C 241.22,446.777 238.553,446.111 235.5,446.5C 235.784,444.585 235.451,442.919 234.5,441.5C 234.672,440.508 234.338,439.842 233.5,439.5C 232.293,436.054 232.46,432.721 234,429.5C 237.728,426.223 241.895,423.89 246.5,422.5C 249.152,422.59 251.485,421.924 253.5,420.5C 257.627,420.365 260.294,418.365 261.5,414.5C 262.906,414.027 263.573,413.027 263.5,411.5 Z"/></g>
<g><path style="opacity:1" fill="#382206" d="M 261.5,414.5 C 260.294,418.365 257.627,420.365 253.5,420.5C 256.426,418.916 259.092,416.916 261.5,414.5 Z"/></g>
<g><path style="opacity:1" fill="#261108" d="M 253.5,420.5 C 251.485,421.924 249.152,422.59 246.5,422.5C 248.515,421.076 250.848,420.41 253.5,420.5 Z"/></g>
<g><path style="opacity:1" fill="#3b2809" d="M 590.5,420.5 C 595.072,421.388 599.405,422.721 603.5,424.5C 598.736,424.231 594.403,422.898 590.5,420.5 Z"/></g>
<g><path style="opacity:1" fill="#301b08" d="M 246.5,422.5 C 241.895,423.89 237.728,426.223 234,429.5C 232.46,432.721 232.293,436.054 233.5,439.5C 229.674,432.292 231.674,427.125 239.5,424C 241.74,423.023 244.073,422.523 246.5,422.5 Z"/></g>
<g><path style="opacity:1" fill="#261505" d="M 611.5,430.5 C 612.156,431.622 612.489,432.955 612.5,434.5C 612.639,436.883 611.972,438.883 610.5,440.5C 611.207,437.214 611.54,433.881 611.5,430.5 Z"/></g>
<g><path style="opacity:1" fill="#3f200e" d="M 263.5,417.5 C 264.139,418.097 264.472,418.93 264.5,420C 262.973,427.094 261.806,434.26 261,441.5C 257.24,449.646 251.407,451.979 243.5,448.5C 246.85,448.665 250.183,448.498 253.5,448C 255.286,447.215 256.786,446.049 258,444.5C 260.487,435.63 262.32,426.63 263.5,417.5 Z"/></g>
<g><path style="opacity:1" fill="#371710" d="M 234.5,441.5 C 235.451,442.919 235.784,444.585 235.5,446.5C 238.553,446.111 241.22,446.777 243.5,448.5C 240.455,448.492 237.455,448.159 234.5,447.5C 234.5,445.5 234.5,443.5 234.5,441.5 Z"/></g>
<g><path style="opacity:1" fill="#451e11" d="M 610.5,440.5 C 610.5,442.833 610.5,445.167 610.5,447.5C 605.467,448.174 600.467,449.174 595.5,450.5C 592.676,450.17 590.009,449.336 587.5,448C 586.177,447.184 585.511,446.017 585.5,444.5C 588.127,447.477 591.461,448.81 595.5,448.5C 599.78,447.529 604.113,446.863 608.5,446.5C 608.259,444.102 608.926,442.102 610.5,440.5 Z"/></g>
</svg>
