<?xml version="1.0" encoding="UTF-8"?>
<!DOCTYPE svg PUBLIC "-//W3C//DTD SVG 1.1//EN" "http://www.w3.org/Graphics/SVG/1.1/DTD/svg11.dtd">
<svg xmlns="http://www.w3.org/2000/svg" version="1.1" width="640px" height="480px" style="shape-rendering:geometricPrecision; text-rendering:geometricPrecision; image-rendering:optimizeQuality; fill-rule:evenodd; clip-rule:evenodd" xmlns:xlink="http://www.w3.org/1999/xlink">
<g><path style="opacity:1" fill="#000000" d="M -0.5,-0.5 C 212.833,-0.5 426.167,-0.5 639.5,-0.5C 639.5,52.8333 639.5,106.167 639.5,159.5C 493.167,159.5 346.833,159.5 200.5,159.5C 133.372,126.436 66.3718,93.1026 -0.5,59.5C -0.5,39.5 -0.5,19.5 -0.5,-0.5 Z"/></g>
<g><path style="opacity:1" fill="#fe0000" d="M -0.5,59.5 C 66.3718,93.1026 133.372,126.436 200.5,159.5C 253.106,186.137 305.772,212.803 358.5,239.5C 305.772,266.197 253.106,292.863 200.5,319.5C 133.372,352.564 66.3718,385.897 -0.5,419.5C -0.5,299.5 -0.5,179.5 -0.5,59.5 Z"/></g>
<g><path style="opacity:1" fill="#fefefe" d="M 200.5,159.5 C 346.833,159.5 493.167,159.5 639.5,159.5C 639.5,212.833 639.5,266.167 639.5,319.5C 493.167,319.5 346.833,319.5 200.5,319.5C 253.106,292.863 305.772,266.197 358.5,239.5C 305.772,212.803 253.106,186.137 200.5,159.5 Z"/></g>
<g><path style="opacity:1" fill="#009800" d="M 200.5,319.5 C 346.833,319.5 493.167,319.5 639.5,319.5C 639.5,372.833 639.5,426.167 639.5,479.5C 426.167,479.5 212.833,479.5 -0.5,479.5C -0.5,459.5 -0.5,439.5 -0.5,419.5C 66.3718,385.897 133.372,352.564 200.5,319.5 Z"/></g>
</svg>
