<?xml version="1.0" encoding="UTF-8"?>
<!DOCTYPE svg PUBLIC "-//W3C//DTD SVG 1.1//EN" "http://www.w3.org/Graphics/SVG/1.1/DTD/svg11.dtd">
<svg xmlns="http://www.w3.org/2000/svg" version="1.1" width="640px" height="480px" style="shape-rendering:geometricPrecision; text-rendering:geometricPrecision; image-rendering:optimizeQuality; fill-rule:evenodd; clip-rule:evenodd" xmlns:xlink="http://www.w3.org/1999/xlink">
<g><path style="opacity:1" fill="#fe0000" d="M 0.5,-0.5 C 213.5,-0.5 426.5,-0.5 639.5,-0.5C 639.5,52.8333 639.5,106.167 639.5,159.5C 497.5,159.5 355.5,159.5 213.5,159.5C 141.925,106.885 70.9247,53.5514 0.5,-0.5 Z"/></g>
<g><path style="opacity:1" fill="#009900" d="M -0.5,-0.5 C -0.166667,-0.5 0.166667,-0.5 0.5,-0.5C 70.9247,53.5514 141.925,106.885 213.5,159.5C 248.481,186.143 283.481,212.809 318.5,239.5C 283.481,266.191 248.481,292.857 213.5,319.5C 141.925,372.115 70.9247,425.449 0.5,479.5C 0.166667,479.5 -0.166667,479.5 -0.5,479.5C -0.5,319.5 -0.5,159.5 -0.5,-0.5 Z"/></g>
<g><path style="opacity:1" fill="#fefefe" d="M 213.5,159.5 C 355.5,159.5 497.5,159.5 639.5,159.5C 639.5,212.833 639.5,266.167 639.5,319.5C 497.5,319.5 355.5,319.5 213.5,319.5C 248.481,292.857 283.481,266.191 318.5,239.5C 283.481,212.809 248.481,186.143 213.5,159.5 Z"/></g>
<g><path style="opacity:1" fill="#000000" d="M 213.5,319.5 C 355.5,319.5 497.5,319.5 639.5,319.5C 639.5,372.833 639.5,426.167 639.5,479.5C 426.5,479.5 213.5,479.5 0.5,479.5C 70.9247,425.449 141.925,372.115 213.5,319.5 Z"/></g>
</svg>
