<?xml version="1.0" encoding="UTF-8"?>
<!DOCTYPE svg PUBLIC "-//W3C//DTD SVG 1.1//EN" "http://www.w3.org/Graphics/SVG/1.1/DTD/svg11.dtd">
<svg xmlns="http://www.w3.org/2000/svg" version="1.1" width="640px" height="480px" style="shape-rendering:geometricPrecision; text-rendering:geometricPrecision; image-rendering:optimizeQuality; fill-rule:evenodd; clip-rule:evenodd" xmlns:xlink="http://www.w3.org/1999/xlink">
<g><path style="opacity:1" fill="#377e3e" d="M -0.5,-0.5 C 212.833,-0.5 426.167,-0.5 639.5,-0.5C 639.5,31.5 639.5,63.5 639.5,95.5C 426.167,95.5 212.833,95.5 -0.5,95.5C -0.5,63.5 -0.5,31.5 -0.5,-0.5 Z"/></g>
<g><path style="opacity:1" fill="#fefefe" d="M -0.5,95.5 C 212.833,95.5 426.167,95.5 639.5,95.5C 639.5,111.5 639.5,127.5 639.5,143.5C 426.167,143.5 212.833,143.5 -0.5,143.5C -0.5,127.5 -0.5,111.5 -0.5,95.5 Z"/></g>
<g><path style="opacity:1" fill="#b40a2d" d="M -0.5,143.5 C 212.833,143.5 426.167,143.5 639.5,143.5C 639.5,207.5 639.5,271.5 639.5,335.5C 426.167,335.5 212.833,335.5 -0.5,335.5C -0.5,271.5 -0.5,207.5 -0.5,143.5 Z"/></g>
<g><path style="opacity:1" fill="#ebc61d" d="M 318.5,154.5 C 319.497,154.47 320.164,154.97 320.5,156C 327.868,176.981 334.535,198.148 340.5,219.5C 363.502,219.333 386.502,219.5 409.5,220C 390.544,232.974 372.21,246.64 354.5,261C 361.969,282.404 368.803,303.904 375,325.5C 356.588,312.044 338.088,298.711 319.5,285.5C 300.912,298.711 282.412,312.044 264,325.5C 270.197,303.904 277.031,282.404 284.5,261C 266.79,246.64 248.456,232.974 229.5,220C 252.498,219.5 275.498,219.333 298.5,219.5C 304.76,197.718 311.427,176.052 318.5,154.5 Z"/></g>
<g><path style="opacity:1" fill="#fefefe" d="M -0.5,335.5 C 212.833,335.5 426.167,335.5 639.5,335.5C 639.5,351.5 639.5,367.5 639.5,383.5C 426.167,383.5 212.833,383.5 -0.5,383.5C -0.5,367.5 -0.5,351.5 -0.5,335.5 Z"/></g>
<g><path style="opacity:1" fill="#377e3e" d="M -0.5,383.5 C 212.833,383.5 426.167,383.5 639.5,383.5C 639.5,415.5 639.5,447.5 639.5,479.5C 426.167,479.5 212.833,479.5 -0.5,479.5C -0.5,447.5 -0.5,415.5 -0.5,383.5 Z"/></g>
</svg>
