<?xml version="1.0" encoding="UTF-8"?>
<!DOCTYPE svg PUBLIC "-//W3C//DTD SVG 1.1//EN" "http://www.w3.org/Graphics/SVG/1.1/DTD/svg11.dtd">
<svg xmlns="http://www.w3.org/2000/svg" version="1.1" width="640px" height="480px" style="shape-rendering:geometricPrecision; text-rendering:geometricPrecision; image-rendering:optimizeQuality; fill-rule:evenodd; clip-rule:evenodd" xmlns:xlink="http://www.w3.org/1999/xlink">
<g><path style="opacity:1" fill="#005193" d="M -0.5,-0.5 C 58.1667,-0.5 116.833,-0.5 175.5,-0.5C 175.5,63.5 175.5,127.5 175.5,191.5C 116.833,191.5 58.1667,191.5 -0.5,191.5C -0.5,127.5 -0.5,63.5 -0.5,-0.5 Z"/></g>
<g><path style="opacity:1" fill="#fdcb00" d="M 175.5,-0.5 C 207.5,-0.5 239.5,-0.5 271.5,-0.5C 271.5,63.5 271.5,127.5 271.5,191.5C 394.167,191.5 516.833,191.5 639.5,191.5C 639.5,223.5 639.5,255.5 639.5,287.5C 516.833,287.5 394.167,287.5 271.5,287.5C 271.5,351.5 271.5,415.5 271.5,479.5C 239.5,479.5 207.5,479.5 175.5,479.5C 175.5,415.5 175.5,351.5 175.5,287.5C 116.833,287.5 58.1667,287.5 -0.5,287.5C -0.5,255.5 -0.5,223.5 -0.5,191.5C 58.1667,191.5 116.833,191.5 175.5,191.5C 175.5,127.5 175.5,63.5 175.5,-0.5 Z"/></g>
<g><path style="opacity:1" fill="#005193" d="M 271.5,-0.5 C 394.167,-0.5 516.833,-0.5 639.5,-0.5C 639.5,63.5 639.5,127.5 639.5,191.5C 516.833,191.5 394.167,191.5 271.5,191.5C 271.5,127.5 271.5,63.5 271.5,-0.5 Z"/></g>
<g><path style="opacity:1" fill="#005193" d="M -0.5,287.5 C 58.1667,287.5 116.833,287.5 175.5,287.5C 175.5,351.5 175.5,415.5 175.5,479.5C 116.833,479.5 58.1667,479.5 -0.5,479.5C -0.5,415.5 -0.5,351.5 -0.5,287.5 Z"/></g>
<g><path style="opacity:1" fill="#005193" d="M 639.5,287.5 C 639.5,351.5 639.5,415.5 639.5,479.5C 516.833,479.5 394.167,479.5 271.5,479.5C 271.5,415.5 271.5,351.5 271.5,287.5C 394.167,287.5 516.833,287.5 639.5,287.5 Z"/></g>
</svg>
