<?xml version="1.0" encoding="UTF-8"?>
<!DOCTYPE svg PUBLIC "-//W3C//DTD SVG 1.1//EN" "http://www.w3.org/Graphics/SVG/1.1/DTD/svg11.dtd">
<svg xmlns="http://www.w3.org/2000/svg" version="1.1" width="640px" height="480px" style="shape-rendering:geometricPrecision; text-rendering:geometricPrecision; image-rendering:optimizeQuality; fill-rule:evenodd; clip-rule:evenodd" xmlns:xlink="http://www.w3.org/1999/xlink">
<g><path style="opacity:1" fill="#fe0000" d="M -0.5,-0.5 C 212.833,-0.5 426.167,-0.5 639.5,-0.5C 639.5,159.5 639.5,319.5 639.5,479.5C 426.167,479.5 212.833,479.5 -0.5,479.5C -0.5,319.5 -0.5,159.5 -0.5,-0.5 Z"/></g>
<g><path style="opacity:1" fill="#fefffe" d="M 274.5,89.5 C 304.5,89.5 334.5,89.5 364.5,89.5C 364.5,124.5 364.5,159.5 364.5,194.5C 399.5,194.5 434.5,194.5 469.5,194.5C 469.5,224.5 469.5,254.5 469.5,284.5C 434.5,284.5 399.5,284.5 364.5,284.5C 364.5,319.5 364.5,354.5 364.5,389.5C 334.5,389.5 304.5,389.5 274.5,389.5C 274.5,354.5 274.5,319.5 274.5,284.5C 239.5,284.5 204.5,284.5 169.5,284.5C 169.5,254.5 169.5,224.5 169.5,194.5C 204.5,194.5 239.5,194.5 274.5,194.5C 274.5,159.5 274.5,124.5 274.5,89.5 Z"/></g>
</svg>
