<?xml version="1.0" encoding="UTF-8"?>
<!DOCTYPE svg PUBLIC "-//W3C//DTD SVG 1.1//EN" "http://www.w3.org/Graphics/SVG/1.1/DTD/svg11.dtd">
<svg xmlns="http://www.w3.org/2000/svg" version="1.1" width="640px" height="480px" style="shape-rendering:geometricPrecision; text-rendering:geometricPrecision; image-rendering:optimizeQuality; fill-rule:evenodd; clip-rule:evenodd" xmlns:xlink="http://www.w3.org/1999/xlink">
<g><path style="opacity:1" fill="#cd1125" d="M -0.5,-0.5 C 212.833,-0.5 426.167,-0.5 639.5,-0.5C 639.5,52.8333 639.5,106.167 639.5,159.5C 426.167,159.5 212.833,159.5 -0.5,159.5C -0.5,106.167 -0.5,52.8333 -0.5,-0.5 Z"/></g>
<g><path style="opacity:1" fill="#fefefe" d="M -0.5,159.5 C 212.833,159.5 426.167,159.5 639.5,159.5C 639.5,212.833 639.5,266.167 639.5,319.5C 426.167,319.5 212.833,319.5 -0.5,319.5C -0.5,266.167 -0.5,212.833 -0.5,159.5 Z"/></g>
<g><path style="opacity:1" fill="#067b3f" d="M 198.5,180.5 C 199.497,180.47 200.164,180.97 200.5,182C 204.866,196.266 209.533,210.433 214.5,224.5C 230.156,225.333 245.823,225.833 261.5,226C 248.833,235.333 236.167,244.667 223.5,254C 229.165,268.992 233.999,284.159 238,299.5C 225.307,289.973 212.473,280.64 199.5,271.5C 186.527,280.64 173.693,289.973 161,299.5C 165.001,284.159 169.835,268.992 175.5,254C 162.833,244.667 150.167,235.333 137.5,226C 153.177,225.833 168.844,225.333 184.5,224.5C 189.777,210.005 194.443,195.338 198.5,180.5 Z"/></g>
<g><path style="opacity:1" fill="#067b3f" d="M 438.5,180.5 C 439.497,180.47 440.164,180.97 440.5,182C 444.866,196.266 449.533,210.433 454.5,224.5C 470.156,225.333 485.823,225.833 501.5,226C 488.833,235.333 476.167,244.667 463.5,254C 469.165,268.992 473.999,284.159 478,299.5C 465.307,289.973 452.473,280.64 439.5,271.5C 426.527,280.64 413.693,289.973 401,299.5C 405.001,284.159 409.835,268.992 415.5,254C 402.833,244.667 390.167,235.333 377.5,226C 393.177,225.833 408.844,225.333 424.5,224.5C 429.777,210.005 434.443,195.338 438.5,180.5 Z"/></g>
<g><path style="opacity:1" fill="#000000" d="M -0.5,319.5 C 212.833,319.5 426.167,319.5 639.5,319.5C 639.5,372.833 639.5,426.167 639.5,479.5C 426.167,479.5 212.833,479.5 -0.5,479.5C -0.5,426.167 -0.5,372.833 -0.5,319.5 Z"/></g>
</svg>
