<?xml version="1.0" encoding="UTF-8"?>
<!DOCTYPE svg PUBLIC "-//W3C//DTD SVG 1.1//EN" "http://www.w3.org/Graphics/SVG/1.1/DTD/svg11.dtd">
<svg xmlns="http://www.w3.org/2000/svg" version="1.1" width="640px" height="480px" style="shape-rendering:geometricPrecision; text-rendering:geometricPrecision; image-rendering:optimizeQuality; fill-rule:evenodd; clip-rule:evenodd" xmlns:xlink="http://www.w3.org/1999/xlink">
<g><path style="opacity:1" fill="#010095" d="M -0.5,-0.5 C 119.5,-0.5 239.5,-0.5 359.5,-0.5C 359.5,79.5 359.5,159.5 359.5,239.5C 239.5,239.5 119.5,239.5 -0.5,239.5C -0.5,159.5 -0.5,79.5 -0.5,-0.5 Z"/></g>
<g><path style="opacity:1" fill="#fe0000" d="M 359.5,-0.5 C 452.833,-0.5 546.167,-0.5 639.5,-0.5C 639.5,159.5 639.5,319.5 639.5,479.5C 426.167,479.5 212.833,479.5 -0.5,479.5C -0.5,399.5 -0.5,319.5 -0.5,239.5C 119.5,239.5 239.5,239.5 359.5,239.5C 359.5,159.5 359.5,79.5 359.5,-0.5 Z"/></g>
<g><path style="opacity:1" fill="#f3f2fa" d="M 178.5,30.5 C 179.586,30.62 180.253,31.2867 180.5,32.5C 183.606,44.7609 186.94,56.9276 190.5,69C 183.144,68.4253 175.811,68.4253 168.5,69C 172.379,56.3197 175.712,43.4864 178.5,30.5 Z"/></g>
<g><path style="opacity:1" fill="#fafafd" d="M 222.5,42.5 C 223.376,42.3691 224.043,42.7025 224.5,43.5C 220.871,54.348 217.704,65.348 215,76.5C 214.804,78.2861 213.971,79.6195 212.5,80.5C 207.295,76.3968 201.628,73.0635 195.5,70.5C 205.243,61.7593 214.243,52.426 222.5,42.5 Z"/></g>
<g><path style="opacity:1" fill="#f5f4fa" d="M 134.5,41.5 C 144.506,50.8394 154.173,60.5061 163.5,70.5C 156.842,73.159 150.842,76.8257 145.5,81.5C 141.831,68.1542 138.164,54.8209 134.5,41.5 Z"/></g>
<g><path style="opacity:1" fill="#fdfdfe" d="M 170.5,74.5 C 197.925,72.4485 215.758,84.4485 224,110.5C 226.865,131.598 219.365,147.765 201.5,159C 176.215,169.722 155.715,163.889 140,141.5C 127.957,108.925 138.124,86.5921 170.5,74.5 Z"/></g>
<g><path style="opacity:1" fill="#f5f4fb" d="M 101.5,75.5 C 114.027,77.9649 126.693,81.1316 139.5,85C 139.957,85.414 140.291,85.914 140.5,86.5C 136.407,91.6821 133.073,97.3488 130.5,103.5C 120.839,94.1728 111.173,84.8395 101.5,75.5 Z"/></g>
<g><path style="opacity:1" fill="#f1f1f9" d="M 255.5,74.5 C 256.239,74.369 256.906,74.5357 257.5,75C 247.986,84.681 238.319,94.181 228.5,103.5C 225.508,97.1721 222.341,91.1721 219,85.5C 231.176,81.585 243.343,77.9183 255.5,74.5 Z"/></g>
<g><path style="opacity:1" fill="#f3f2fa" d="M 124.5,109.5 C 125.833,109.5 127.167,109.5 128.5,109.5C 128.545,116.536 128.712,123.536 129,130.5C 116.161,126.915 103.328,123.248 90.5,119.5C 101.94,116.145 113.273,112.811 124.5,109.5 Z"/></g>
<g><path style="opacity:1" fill="#fafafd" d="M 229.5,108.5 C 242.143,112.162 254.81,115.828 267.5,119.5C 254.96,123.093 242.46,126.759 230,130.5C 230.737,123.161 230.57,115.827 229.5,108.5 Z"/></g>
<g><path style="opacity:1" fill="#fafafd" d="M 129.5,135.5 C 130.376,135.369 131.043,135.702 131.5,136.5C 134.02,142.874 137.02,148.874 140.5,154.5C 127.382,157.53 114.382,160.697 101.5,164C 111.726,155.274 121.06,145.774 129.5,135.5 Z"/></g>
<g><path style="opacity:1" fill="#f2f1f9" d="M 227.5,135.5 C 228.239,135.369 228.906,135.536 229.5,136C 238.887,145.387 248.221,154.721 257.5,164C 244.046,161.242 230.713,157.742 217.5,153.5C 222.394,148.381 225.727,142.381 227.5,135.5 Z"/></g>
<g><path style="opacity:1" fill="#f1f0f9" d="M 144.5,157.5 C 150.296,161.905 156.63,165.571 163.5,168.5C 154.181,178.319 144.681,187.986 135,197.5C 138.147,184.243 141.313,170.909 144.5,157.5 Z"/></g>
<g><path style="opacity:1" fill="#f4f3fa" d="M 211.5,158.5 C 212.5,158.5 213.5,158.5 214.5,158.5C 218.001,171.487 221.168,184.487 224,197.5C 214.989,187.322 205.489,177.655 195.5,168.5C 199.136,166.682 202.802,164.849 206.5,163C 208.618,161.951 210.284,160.451 211.5,158.5 Z"/></g>
<g><path style="opacity:1" fill="#f7f7fb" d="M 169.5,169.5 C 176.481,170.525 183.481,170.692 190.5,170C 186.647,182.754 182.98,195.588 179.5,208.5C 175.658,195.617 172.324,182.617 169.5,169.5 Z"/></g>
</svg>
