<?xml version="1.0" encoding="UTF-8"?>
<!DOCTYPE svg PUBLIC "-//W3C//DTD SVG 1.1//EN" "http://www.w3.org/Graphics/SVG/1.1/DTD/svg11.dtd">
<svg xmlns="http://www.w3.org/2000/svg" version="1.1" width="640px" height="480px" style="shape-rendering:geometricPrecision; text-rendering:geometricPrecision; image-rendering:optimizeQuality; fill-rule:evenodd; clip-rule:evenodd" xmlns:xlink="http://www.w3.org/1999/xlink">
<g><path style="opacity:1" fill="#cb0000" d="M -0.5,-0.5 C 212.833,-0.5 426.167,-0.5 639.5,-0.5C 639.5,45.1667 639.5,90.8333 639.5,136.5C 426.167,136.5 212.833,136.5 -0.5,136.5C -0.5,90.8333 -0.5,45.1667 -0.5,-0.5 Z"/></g>
<g><path style="opacity:1" fill="#fefefe" d="M -0.5,136.5 C 212.833,136.5 426.167,136.5 639.5,136.5C 639.5,205.167 639.5,273.833 639.5,342.5C 426.167,342.5 212.833,342.5 -0.5,342.5C -0.5,273.833 -0.5,205.167 -0.5,136.5 Z"/></g>
<g><path style="opacity:1" fill="#f8c61a" d="M 318.5,147.5 C 319.497,147.47 320.164,147.97 320.5,149C 321.401,151.871 322.401,154.704 323.5,157.5C 327.459,158.327 331.459,158.827 335.5,159C 332.667,161.167 329.833,163.333 327,165.5C 326.879,169.322 327.713,172.989 329.5,176.5C 329.167,176.833 328.833,177.167 328.5,177.5C 325.737,175.371 322.904,173.371 320,171.5C 316.597,173.119 313.43,175.119 310.5,177.5C 310.167,177.167 309.833,176.833 309.5,176.5C 311.139,172.951 311.972,169.284 312,165.5C 309.167,163.333 306.333,161.167 303.5,159C 307.541,158.827 311.541,158.327 315.5,157.5C 316.909,154.273 317.909,150.94 318.5,147.5 Z"/></g>
<g><path style="opacity:1" fill="#f8c61a" d="M 270.5,160.5 C 271.497,160.47 272.164,160.97 272.5,162C 273.401,164.871 274.401,167.704 275.5,170.5C 279.459,171.327 283.459,171.827 287.5,172C 284.667,174.167 281.833,176.333 279,178.5C 279.67,182.511 280.337,186.511 281,190.5C 277.879,188.36 274.713,186.36 271.5,184.5C 268.699,186.073 266.032,187.906 263.5,190C 262.668,190.688 262.002,190.521 261.5,189.5C 262.879,185.884 263.713,182.217 264,178.5C 261.167,176.333 258.333,174.167 255.5,172C 259.541,171.827 263.541,171.327 267.5,170.5C 268.909,167.273 269.909,163.94 270.5,160.5 Z"/></g>
<g><path style="opacity:1" fill="#f8c61a" d="M 366.5,160.5 C 367.497,160.47 368.164,160.97 368.5,162C 369.401,164.871 370.401,167.704 371.5,170.5C 375.459,171.327 379.459,171.827 383.5,172C 380.667,174.167 377.833,176.333 375,178.5C 375.67,182.511 376.337,186.511 377,190.5C 373.879,188.36 370.713,186.36 367.5,184.5C 364.699,186.073 362.032,187.906 359.5,190C 358.668,190.688 358.002,190.521 357.5,189.5C 358.879,185.884 359.713,182.217 360,178.5C 357.167,176.333 354.333,174.167 351.5,172C 355.541,171.827 359.541,171.327 363.5,170.5C 364.909,167.273 365.909,163.94 366.5,160.5 Z"/></g>
<g><path style="opacity:1" fill="#f8c61a" d="M 235.5,195.5 C 238.012,198.504 239.679,202.004 240.5,206C 244.5,206.333 248.5,206.667 252.5,207C 249.667,209.167 246.833,211.333 244,213.5C 243.879,217.322 244.713,220.989 246.5,224.5C 246.167,224.833 245.833,225.167 245.5,225.5C 242.57,223.119 239.403,221.119 236,219.5C 233.096,221.371 230.263,223.371 227.5,225.5C 227.167,225 226.833,224.5 226.5,224C 227.982,220.575 228.816,217.075 229,213.5C 226.167,211.333 223.333,209.167 220.5,207C 224.541,206.827 228.541,206.327 232.5,205.5C 233.909,202.273 234.909,198.94 235.5,195.5 Z"/></g>
<g><path style="opacity:1" fill="#f8c61b" d="M 401.5,195.5 C 402.497,195.47 403.164,195.97 403.5,197C 404.401,199.871 405.401,202.704 406.5,205.5C 410.459,206.327 414.459,206.827 418.5,207C 415.667,209.167 412.833,211.333 410,213.5C 410.667,217.5 411.333,221.5 412,225.5C 408.983,223.494 405.983,221.494 403,219.5C 399.71,221.287 396.543,223.287 393.5,225.5C 393.167,225.167 392.833,224.833 392.5,224.5C 394.287,220.989 395.121,217.322 395,213.5C 392.167,211.333 389.333,209.167 386.5,207C 390.5,206.667 394.5,206.333 398.5,206C 399.801,202.596 400.801,199.096 401.5,195.5 Z"/></g>
<g><path style="opacity:1" fill="#f8c515" d="M 315.5,206.5 C 333.457,206.6 340.957,215.267 338,232.5C 335.091,229.606 331.591,228.773 327.5,230C 325.185,231.109 323.685,232.943 323,235.5C 321.904,245.975 322.571,256.308 325,266.5C 332.979,280.382 344.479,284.549 359.5,279C 362.102,278.117 364.269,276.617 366,274.5C 375.89,291.688 389.557,295.688 407,286.5C 406.962,294.386 403.128,299.553 395.5,302C 379.881,304.443 369.381,298.277 364,283.5C 355.219,295.487 344.386,297.653 331.5,290C 326.124,285.122 322.124,279.289 319.5,272.5C 316.015,283.151 309.015,290.318 298.5,294C 288.264,295.798 280.431,292.298 275,283.5C 269.657,298.26 259.157,304.427 243.5,302C 235.872,299.553 232.038,294.386 232,286.5C 249.313,295.287 262.979,291.287 273,274.5C 281.485,281.964 290.985,283.464 301.5,279C 309.902,274.698 314.735,267.865 316,258.5C 316.667,250.5 316.667,242.5 316,234.5C 313.103,229.845 308.937,228.345 303.5,230C 302.646,231.022 301.646,231.855 300.5,232.5C 297.942,219.407 302.942,210.74 315.5,206.5 Z"/></g>
<g><path style="opacity:1" fill="#fffefb" d="M 314.5,211.5 C 320.883,210.476 326.383,212.143 331,216.5C 332.411,218.65 333.245,220.984 333.5,223.5C 327.902,223.365 323.235,225.365 319.5,229.5C 315.765,225.365 311.098,223.365 305.5,223.5C 306.256,217.752 309.256,213.752 314.5,211.5 Z"/></g>
<g><path style="opacity:1" fill="#f8c61a" d="M 222.5,243.5 C 223.497,243.47 224.164,243.97 224.5,245C 225.401,247.871 226.401,250.704 227.5,253.5C 231.459,254.327 235.459,254.827 239.5,255C 236.667,257.167 233.833,259.333 231,261.5C 230.879,265.322 231.713,268.989 233.5,272.5C 233.167,272.833 232.833,273.167 232.5,273.5C 229.737,271.371 226.904,269.371 224,267.5C 220.597,269.119 217.43,271.119 214.5,273.5C 214.167,273.167 213.833,272.833 213.5,272.5C 215.139,268.951 215.972,265.284 216,261.5C 213.167,259.333 210.333,257.167 207.5,255C 211.541,254.827 215.541,254.327 219.5,253.5C 220.909,250.273 221.909,246.94 222.5,243.5 Z"/></g>
<g><path style="opacity:1" fill="#f8c61a" d="M 414.5,243.5 C 415.497,243.47 416.164,243.97 416.5,245C 417.401,247.871 418.401,250.704 419.5,253.5C 423.459,254.327 427.459,254.827 431.5,255C 428.667,257.167 425.833,259.333 423,261.5C 422.879,265.322 423.713,268.989 425.5,272.5C 425.167,272.833 424.833,273.167 424.5,273.5C 421.737,271.371 418.904,269.371 416,267.5C 412.597,269.119 409.43,271.119 406.5,273.5C 406.167,273.167 405.833,272.833 405.5,272.5C 407.139,268.951 407.972,265.284 408,261.5C 405.167,259.333 402.333,257.167 399.5,255C 403.541,254.827 407.541,254.327 411.5,253.5C 412.909,250.273 413.909,246.94 414.5,243.5 Z"/></g>
<g><path style="opacity:1" fill="#f8c61c" d="M 318.5,289.5 C 321.537,291.227 323.537,293.894 324.5,297.5C 327.279,298.389 329.945,299.556 332.5,301C 324.237,310.749 315.903,310.916 307.5,301.5C 309.647,299.337 312.314,298.337 315.5,298.5C 315.664,295.183 316.664,292.183 318.5,289.5 Z"/></g>
<g><path style="opacity:1" fill="#f8c51a" d="M 276.5,293.5 C 279.456,294.455 281.456,296.455 282.5,299.5C 285.08,300.549 287.746,301.216 290.5,301.5C 289.93,305.912 287.597,309.078 283.5,311C 276.764,312.769 271.098,311.102 266.5,306C 268.65,304.589 270.984,303.755 273.5,303.5C 273.35,299.805 274.35,296.472 276.5,293.5 Z"/></g>
<g><path style="opacity:1" fill="#f8c516" d="M 360.5,293.5 C 361.496,293.414 362.329,293.748 363,294.5C 364.549,297.312 365.382,300.312 365.5,303.5C 374.368,304.948 374.368,307.448 365.5,311C 356.759,313.057 351.093,309.89 348.5,301.5C 351.167,301.5 353.833,301.5 356.5,301.5C 356.343,300.127 356.51,298.793 357,297.5C 358.376,296.295 359.542,294.962 360.5,293.5 Z"/></g>
<g><path style="opacity:1" fill="#f8c515" d="M 298.5,312.5 C 328.737,310.424 358.404,313.424 387.5,321.5C 387.058,325.672 385.558,329.339 383,332.5C 340.468,320.575 297.968,320.575 255.5,332.5C 253.379,329.138 252.045,325.471 251.5,321.5C 267.072,317.318 282.738,314.318 298.5,312.5 Z"/></g>
<g><path style="opacity:1" fill="#006600" d="M -0.5,342.5 C 212.833,342.5 426.167,342.5 639.5,342.5C 639.5,388.167 639.5,433.833 639.5,479.5C 426.167,479.5 212.833,479.5 -0.5,479.5C -0.5,433.833 -0.5,388.167 -0.5,342.5 Z"/></g>
</svg>
