<?xml version="1.0" encoding="UTF-8"?>
<!DOCTYPE svg PUBLIC "-//W3C//DTD SVG 1.1//EN" "http://www.w3.org/Graphics/SVG/1.1/DTD/svg11.dtd">
<svg xmlns="http://www.w3.org/2000/svg" version="1.1" width="640px" height="480px" style="shape-rendering:geometricPrecision; text-rendering:geometricPrecision; image-rendering:optimizeQuality; fill-rule:evenodd; clip-rule:evenodd" xmlns:xlink="http://www.w3.org/1999/xlink">
<g><path style="opacity:1" fill="#009900" d="M -0.5,-0.5 C 168.833,-0.5 338.167,-0.5 507.5,-0.5C 338.548,112.983 169.214,225.983 -0.5,338.5C -0.5,225.5 -0.5,112.5 -0.5,-0.5 Z"/></g>
<g><path style="opacity:1" fill="#fdfd00" d="M 507.5,-0.5 C 525.5,-0.5 543.5,-0.5 561.5,-0.5C 374.548,124.983 187.214,249.983 -0.5,374.5C -0.5,362.5 -0.5,350.5 -0.5,338.5C 169.214,225.983 338.548,112.983 507.5,-0.5 Z"/></g>
<g><path style="opacity:1" fill="#000000" d="M 561.5,-0.5 C 587.5,-0.5 613.5,-0.5 639.5,-0.5C 639.5,34.5 639.5,69.5 639.5,104.5C 451.786,229.017 264.452,354.017 77.5,479.5C 51.5,479.5 25.5,479.5 -0.5,479.5C -0.5,444.5 -0.5,409.5 -0.5,374.5C 187.214,249.983 374.548,124.983 561.5,-0.5 Z"/></g>
<g><path style="opacity:1" fill="#fcfd04" d="M 639.5,104.5 C 639.5,116.5 639.5,128.5 639.5,140.5C 470.13,253.513 300.796,366.513 131.5,479.5C 113.5,479.5 95.5,479.5 77.5,479.5C 264.452,354.017 451.786,229.017 639.5,104.5 Z"/></g>
<g><path style="opacity:1" fill="#0099fe" d="M 639.5,140.5 C 639.5,253.5 639.5,366.5 639.5,479.5C 470.167,479.5 300.833,479.5 131.5,479.5C 300.796,366.513 470.13,253.513 639.5,140.5 Z"/></g>
</svg>
