<?xml version="1.0" encoding="UTF-8"?>
<!DOCTYPE svg PUBLIC "-//W3C//DTD SVG 1.1//EN" "http://www.w3.org/Graphics/SVG/1.1/DTD/svg11.dtd">
<svg xmlns="http://www.w3.org/2000/svg" version="1.1" width="640px" height="480px" style="shape-rendering:geometricPrecision; text-rendering:geometricPrecision; image-rendering:optimizeQuality; fill-rule:evenodd; clip-rule:evenodd" xmlns:xlink="http://www.w3.org/1999/xlink">
<g><path style="opacity:1" fill="#cb000e" d="M 0.5,-0.5 C 213.5,-0.5 426.5,-0.5 639.5,-0.5C 639.5,159.5 639.5,319.5 639.5,479.5C 426.5,479.5 213.5,479.5 0.5,479.5C 1.26231,477.738 2.59565,476.738 4.5,476.5C 162.633,397.934 320.633,319.1 478.5,240C 319.726,159.613 160.726,79.7798 1.5,0.5C 0.833333,0.5 0.5,0.166667 0.5,-0.5 Z"/></g>
<g><path style="opacity:1" fill="#000000" d="M -0.5,-0.5 C -0.166667,-0.5 0.166667,-0.5 0.5,-0.5C 0.5,0.166667 0.833333,0.5 1.5,0.5C 107.457,79.8269 213.124,159.66 318.5,240C 213.649,318.697 108.983,397.53 4.5,476.5C 2.59565,476.738 1.26231,477.738 0.5,479.5C 0.166667,479.5 -0.166667,479.5 -0.5,479.5C -0.5,319.5 -0.5,159.5 -0.5,-0.5 Z"/></g>
<g><path style="opacity:1" fill="#f7be0b" d="M 1.5,0.5 C 160.726,79.7798 319.726,159.613 478.5,240C 320.633,319.1 162.633,397.934 4.5,476.5C 108.983,397.53 213.649,318.697 318.5,240C 213.124,159.66 107.457,79.8269 1.5,0.5 Z"/></g>
<g><path style="opacity:1" fill="#fcfcfc" d="M 76.5,169.5 C 88.8338,181.668 100.667,194.335 112,207.5C 112.725,208.059 113.558,208.392 114.5,208.5C 131.522,201.239 148.356,193.572 165,185.5C 156.825,202.182 148.325,218.849 139.5,235.5C 150.568,250.077 162.235,264.244 174.5,278C 156.048,275.009 137.714,271.176 119.5,266.5C 109.178,282.466 99.345,298.799 90,315.5C 87.9478,297.207 86.2811,278.874 85,260.5C 66.3321,256.502 47.8321,252.002 29.5,247C 45.7066,239.21 62.0399,231.71 78.5,224.5C 78.8333,222.667 79.1667,220.833 79.5,219C 78.4075,202.501 77.4075,186.001 76.5,169.5 Z"/></g>
</svg>
