<?xml version="1.0" encoding="UTF-8"?>
<!DOCTYPE svg PUBLIC "-//W3C//DTD SVG 1.1//EN" "http://www.w3.org/Graphics/SVG/1.1/DTD/svg11.dtd">
<svg xmlns="http://www.w3.org/2000/svg" version="1.1" width="640px" height="480px" style="shape-rendering:geometricPrecision; text-rendering:geometricPrecision; image-rendering:optimizeQuality; fill-rule:evenodd; clip-rule:evenodd" xmlns:xlink="http://www.w3.org/1999/xlink">
<g><path style="opacity:1" fill="#d70200" d="M -0.5,-0.5 C 95.1667,-0.5 190.833,-0.5 286.5,-0.5C 286.5,31.8333 286.5,64.1667 286.5,96.5C 286.5,129.167 286.5,161.833 286.5,194.5C 286.5,226.833 286.5,259.167 286.5,291.5C 190.833,291.5 95.1667,291.5 -0.5,291.5C -0.5,194.167 -0.5,96.8333 -0.5,-0.5 Z"/></g>
<g><path style="opacity:1" fill="#148600" d="M 286.5,-0.5 C 404.167,-0.5 521.833,-0.5 639.5,-0.5C 639.5,31.8333 639.5,64.1667 639.5,96.5C 521.833,96.5 404.167,96.5 286.5,96.5C 286.5,64.1667 286.5,31.8333 286.5,-0.5 Z"/></g>
<g><path style="opacity:1" fill="#fefcfc" d="M 177.5,119.5 C 188.5,120.167 199.5,120.833 210.5,121.5C 196.796,131.352 183.463,141.686 170.5,152.5C 177.397,170.361 183.564,188.361 189,206.5C 174.492,194.322 159.159,183.322 143,173.5C 128.256,183.124 113.756,193.124 99.5,203.5C 99.1667,203 98.8333,202.5 98.5,202C 104.507,185.321 109.673,168.487 114,151.5C 100.59,141.212 87.0896,131.045 73.5,121C 90.8488,120.703 108.182,120.037 125.5,119C 131.328,102.85 137.162,86.6833 143,70.5C 148.732,86.3634 154.066,102.363 159,118.5C 165.076,119.476 171.242,119.81 177.5,119.5 Z"/></g>
<g><path style="opacity:1" fill="#fee200" d="M 286.5,96.5 C 404.167,96.5 521.833,96.5 639.5,96.5C 639.5,129.167 639.5,161.833 639.5,194.5C 521.833,194.5 404.167,194.5 286.5,194.5C 286.5,161.833 286.5,129.167 286.5,96.5 Z"/></g>
<g><path style="opacity:1" fill="#ec7f7d" d="M 177.5,119.5 C 189.171,119.333 200.838,119.5 212.5,120C 211.956,120.717 211.289,121.217 210.5,121.5C 199.5,120.833 188.5,120.167 177.5,119.5 Z"/></g>
<g><path style="opacity:1" fill="#148600" d="M 286.5,194.5 C 404.167,194.5 521.833,194.5 639.5,194.5C 639.5,226.833 639.5,259.167 639.5,291.5C 521.833,291.5 404.167,291.5 286.5,291.5C 286.5,259.167 286.5,226.833 286.5,194.5 Z"/></g>
<g><path style="opacity:1" fill="#fee200" d="M -0.5,291.5 C 95.1667,291.5 190.833,291.5 286.5,291.5C 404.167,291.5 521.833,291.5 639.5,291.5C 639.5,322.167 639.5,352.833 639.5,383.5C 426.167,383.5 212.833,383.5 -0.5,383.5C -0.5,352.833 -0.5,322.167 -0.5,291.5 Z"/></g>
<g><path style="opacity:1" fill="#118600" d="M -0.5,383.5 C 212.833,383.5 426.167,383.5 639.5,383.5C 639.5,415.5 639.5,447.5 639.5,479.5C 426.167,479.5 212.833,479.5 -0.5,479.5C -0.5,447.5 -0.5,415.5 -0.5,383.5 Z"/></g>
</svg>
