<?xml version="1.0" encoding="UTF-8"?>
<!DOCTYPE svg PUBLIC "-//W3C//DTD SVG 1.1//EN" "http://www.w3.org/Graphics/SVG/1.1/DTD/svg11.dtd">
<svg xmlns="http://www.w3.org/2000/svg" version="1.1" width="640px" height="480px" style="shape-rendering:geometricPrecision; text-rendering:geometricPrecision; image-rendering:optimizeQuality; fill-rule:evenodd; clip-rule:evenodd" xmlns:xlink="http://www.w3.org/1999/xlink">
<g><path style="opacity:1" fill="#00247c" d="M -0.5,-0.5 C 212.833,-0.5 426.167,-0.5 639.5,-0.5C 639.5,159.5 639.5,319.5 639.5,479.5C 426.167,479.5 212.833,479.5 -0.5,479.5C -0.5,319.5 -0.5,159.5 -0.5,-0.5 Z"/></g>
<g><path style="opacity:1" fill="#f2f3f8" d="M 112.5,89.5 C 114.405,93.2157 115.739,97.2157 116.5,101.5C 120.182,101.335 123.848,101.501 127.5,102C 124.601,104.277 121.934,106.777 119.5,109.5C 121.287,113.011 122.121,116.678 122,120.5C 118.974,117.974 115.807,115.64 112.5,113.5C 109.244,115.711 106.078,118.045 103,120.5C 103.871,116.212 104.538,111.879 105,107.5C 102.411,105.789 99.9112,103.955 97.5,102C 101.211,101.825 104.878,101.325 108.5,100.5C 109.842,96.8049 111.175,93.1382 112.5,89.5 Z"/></g>
<g><path style="opacity:1" fill="#fcd001" d="M 612.5,354.5 C 612.5,355.5 612.5,356.5 612.5,357.5C 595.167,357.5 577.833,357.5 560.5,357.5C 409.488,357.294 258.488,355.961 107.5,353.5C 134.463,335.68 161.463,317.847 188.5,300C 271.329,233.564 359.329,174.564 452.5,123C 473.088,111.623 494.254,101.456 516,92.5C 516.5,92.6667 517,92.8333 517.5,93C 501.945,104.904 491.445,120.404 486,139.5C 478.88,174.639 481.88,208.973 495,242.5C 508.719,278.79 529.552,310.29 557.5,337C 564.723,343.218 572.723,348.218 581.5,352C 591.74,353.946 602.074,354.779 612.5,354.5 Z"/></g>
<g><path style="opacity:1" fill="#edeff6" d="M 178.5,150.5 C 180.198,153.034 181.531,155.868 182.5,159C 185.833,159.333 189.167,159.667 192.5,160C 189.664,162.007 186.997,164.174 184.5,166.5C 186.087,169.521 186.753,172.521 186.5,175.5C 184.398,173.23 181.898,171.563 179,170.5C 176.259,171.789 173.759,173.455 171.5,175.5C 171.247,172.521 171.913,169.521 173.5,166.5C 171.003,164.174 168.336,162.007 165.5,160C 168.833,159.667 172.167,159.333 175.5,159C 176.732,156.234 177.732,153.401 178.5,150.5 Z"/></g>
<g><path style="opacity:1" fill="#e9ecf4" d="M 34.5,167.5 C 36.6241,170.665 38.2908,174.165 39.5,178C 43.5408,178.173 47.5408,178.673 51.5,179.5C 48.0252,181.808 44.6919,184.308 41.5,187C 43.2993,190.725 44.466,194.558 45,198.5C 41.974,195.974 38.8073,193.64 35.5,191.5C 32.3603,193.473 29.3603,195.64 26.5,198C 25.8333,198.667 25.1667,198.667 24.5,198C 26.0251,194.427 27.3585,190.76 28.5,187C 25.1982,184.342 21.8649,181.675 18.5,179C 22.8711,178.828 27.2044,178.328 31.5,177.5C 32.5045,174.154 33.5045,170.821 34.5,167.5 Z"/></g>
<g><path style="opacity:1" fill="#f5f6fa" d="M 112.5,287.5 C 114.335,291.656 116.001,295.989 117.5,300.5C 122.132,301.328 126.798,301.828 131.5,302C 127.912,304.377 124.412,306.877 121,309.5C 121.423,313.95 122.59,318.284 124.5,322.5C 124.167,322.833 123.833,323.167 123.5,323.5C 119.833,320.833 116.167,318.167 112.5,315.5C 108.858,317.975 105.358,320.642 102,323.5C 102.667,318.833 103.333,314.167 104,309.5C 100.833,307 97.6667,304.5 94.5,302C 99.1548,301.501 103.821,301.334 108.5,301.5C 109.229,296.649 110.562,291.982 112.5,287.5 Z"/></g>
<g><path style="opacity:1" fill="#948836" d="M 612.5,354.5 C 613.434,355.568 613.768,356.901 613.5,358.5C 595.659,358.83 577.992,358.497 560.5,357.5C 577.833,357.5 595.167,357.5 612.5,357.5C 612.5,356.5 612.5,355.5 612.5,354.5 Z"/></g>
<g><path style="opacity:1" fill="#f8cd08" d="M 101.5,361.5 C 267.501,362.473 433.501,363.64 599.5,365C 603.5,367.667 607.5,370.333 611.5,373C 609.167,374.667 606.833,376.333 604.5,378C 437.488,377.535 270.488,375.868 103.5,373C 97.8718,369.965 97.2051,366.132 101.5,361.5 Z"/></g>
</svg>
