<?xml version="1.0" encoding="UTF-8"?>
<!DOCTYPE svg PUBLIC "-//W3C//DTD SVG 1.1//EN" "http://www.w3.org/Graphics/SVG/1.1/DTD/svg11.dtd">
<svg xmlns="http://www.w3.org/2000/svg" version="1.1" width="640px" height="480px" style="shape-rendering:geometricPrecision; text-rendering:geometricPrecision; image-rendering:optimizeQuality; fill-rule:evenodd; clip-rule:evenodd" xmlns:xlink="http://www.w3.org/1999/xlink">
<g><path style="opacity:1" fill="#fefefe" d="M -0.5,-0.5 C 82.8333,-0.5 166.167,-0.5 249.5,-0.5C 249.5,66.1667 249.5,132.833 249.5,199.5C 166.167,199.5 82.8333,199.5 -0.5,199.5C -0.5,132.833 -0.5,66.1667 -0.5,-0.5 Z"/></g>
<g><path style="opacity:1" fill="#c10000" d="M 249.5,-0.5 C 379.5,-0.5 509.5,-0.5 639.5,-0.5C 639.5,159.5 639.5,319.5 639.5,479.5C 426.167,479.5 212.833,479.5 -0.5,479.5C -0.5,386.167 -0.5,292.833 -0.5,199.5C 82.8333,199.5 166.167,199.5 249.5,199.5C 249.5,132.833 249.5,66.1667 249.5,-0.5 Z"/></g>
<g><path style="opacity:1" fill="#c10100" d="M 102.5,31.5 C 115.5,31.5 128.5,31.5 141.5,31.5C 141.17,48.0085 141.504,64.3419 142.5,80.5C 159.167,80.5 175.833,80.5 192.5,80.5C 192.5,93.8333 192.5,107.167 192.5,120.5C 175.833,120.5 159.167,120.5 142.5,120.5C 141.504,136.658 141.17,152.991 141.5,169.5C 128.5,169.5 115.5,169.5 102.5,169.5C 102.5,153.167 102.5,136.833 102.5,120.5C 85.8333,120.5 69.1667,120.5 52.5,120.5C 52.5,107.167 52.5,93.8333 52.5,80.5C 69.1667,80.5 85.8333,80.5 102.5,80.5C 102.5,64.1667 102.5,47.8333 102.5,31.5 Z"/></g>
<g><path style="opacity:1" fill="#d24645" d="M 102.5,31.5 C 115.656,30.5044 128.99,30.1711 142.5,30.5C 142.5,47.1667 142.5,63.8333 142.5,80.5C 141.504,64.3419 141.17,48.0085 141.5,31.5C 128.5,31.5 115.5,31.5 102.5,31.5 Z"/></g>
<g><path style="opacity:1" fill="#cf3d3c" d="M 142.5,120.5 C 142.5,137.167 142.5,153.833 142.5,170.5C 128.99,170.829 115.656,170.496 102.5,169.5C 115.5,169.5 128.5,169.5 141.5,169.5C 141.17,152.991 141.504,136.658 142.5,120.5 Z"/></g>
</svg>
