<?xml version="1.0" encoding="UTF-8"?>
<!DOCTYPE svg PUBLIC "-//W3C//DTD SVG 1.1//EN" "http://www.w3.org/Graphics/SVG/1.1/DTD/svg11.dtd">
<svg xmlns="http://www.w3.org/2000/svg" version="1.1" width="640px" height="480px" style="shape-rendering:geometricPrecision; text-rendering:geometricPrecision; image-rendering:optimizeQuality; fill-rule:evenodd; clip-rule:evenodd" xmlns:xlink="http://www.w3.org/1999/xlink">
<g><path style="opacity:1" fill="#fdfbfb" d="M -0.5,-0.5 C 8.83333,-0.5 18.1667,-0.5 27.5,-0.5C 182.194,159.193 336.861,318.86 491.5,478.5C 491.5,478.833 491.5,479.167 491.5,479.5C 481.833,479.5 472.167,479.5 462.5,479.5C 308.866,319.532 154.533,160.199 -0.5,1.5C -0.5,0.833333 -0.5,0.166667 -0.5,-0.5 Z"/></g>
<g><path style="opacity:1" fill="#fdfbfb" d="M 146.5,-0.5 C 156.5,-0.5 166.5,-0.5 176.5,-0.5C 330.134,159.468 484.467,318.801 639.5,477.5C 639.5,478.167 639.5,478.833 639.5,479.5C 630.833,479.5 622.167,479.5 613.5,479.5C 613.672,478.508 613.338,477.842 612.5,477.5C 456.804,318.471 301.471,159.138 146.5,-0.5 Z"/></g>
<g><path style="opacity:1" fill="#e00000" d="M 176.5,-0.5 C 330.833,-0.5 485.167,-0.5 639.5,-0.5C 639.5,158.833 639.5,318.167 639.5,477.5C 484.467,318.801 330.134,159.468 176.5,-0.5 Z"/></g>
<g><path style="opacity:1" fill="#010101" d="M 27.5,-0.5 C 67.1667,-0.5 106.833,-0.5 146.5,-0.5C 301.471,159.138 456.804,318.471 612.5,477.5C 572.337,478.499 532.003,478.832 491.5,478.5C 336.861,318.86 182.194,159.193 27.5,-0.5 Z"/></g>
<g><path style="opacity:1" fill="#e00000" d="M -0.5,1.5 C 154.533,160.199 308.866,319.532 462.5,479.5C 308.167,479.5 153.833,479.5 -0.5,479.5C -0.5,320.167 -0.5,160.833 -0.5,1.5 Z"/></g>
<g><path style="opacity:1" fill="#777777" d="M 612.5,477.5 C 613.338,477.842 613.672,478.508 613.5,479.5C 572.833,479.5 532.167,479.5 491.5,479.5C 491.5,479.167 491.5,478.833 491.5,478.5C 532.003,478.832 572.337,478.499 612.5,477.5 Z"/></g>
</svg>
