<?xml version="1.0" encoding="UTF-8"?>
<!DOCTYPE svg PUBLIC "-//W3C//DTD SVG 1.1//EN" "http://www.w3.org/Graphics/SVG/1.1/DTD/svg11.dtd">
<svg xmlns="http://www.w3.org/2000/svg" version="1.1" width="640px" height="480px" style="shape-rendering:geometricPrecision; text-rendering:geometricPrecision; image-rendering:optimizeQuality; fill-rule:evenodd; clip-rule:evenodd" xmlns:xlink="http://www.w3.org/1999/xlink">
<g><path style="opacity:1" fill="#e70013" d="M -0.5,-0.5 C 212.833,-0.5 426.167,-0.5 639.5,-0.5C 639.5,159.5 639.5,319.5 639.5,479.5C 426.167,479.5 212.833,479.5 -0.5,479.5C -0.5,319.5 -0.5,159.5 -0.5,-0.5 Z"/></g>
<g><path style="opacity:1" fill="#fffdfd" d="M 306.5,118.5 C 366.244,116.929 408.077,143.262 432,197.5C 447.682,249.436 435.849,293.936 396.5,331C 358.013,360.826 316.013,366.826 270.5,349C 224.464,325.793 200.464,288.293 198.5,236.5C 202.432,183.412 228.765,146.579 277.5,126C 287.159,122.937 296.826,120.437 306.5,118.5 Z"/></g>
<g><path style="opacity:1" fill="#e70715" d="M 304.5,149.5 C 338.146,145.82 366.146,156.487 388.5,181.5C 388.333,181.833 388.167,182.167 388,182.5C 369.271,168.686 348.438,164.186 325.5,169C 296.157,178.008 278.324,197.508 272,227.5C 269.013,268.485 286.846,295.652 325.5,309C 347.759,313.715 368.092,309.549 386.5,296.5C 386.833,296.833 387.167,297.167 387.5,297.5C 363.68,323.299 334.346,333.133 299.5,327C 254.247,313.901 230.914,283.734 229.5,236.5C 232.095,197.794 251.095,170.627 286.5,155C 292.531,152.832 298.531,150.999 304.5,149.5 Z"/></g>
<g><path style="opacity:1" fill="#faccd0" d="M 327.5,188.5 C 326.833,201.167 326.167,213.833 325.5,226.5C 325.168,213.483 325.501,200.483 326.5,187.5C 327.107,187.624 327.44,187.957 327.5,188.5 Z"/></g>
<g><path style="opacity:1" fill="#e70a17" d="M 327.5,188.5 C 334.281,198.454 341.281,208.288 348.5,218C 351.207,218.328 353.874,217.995 356.5,217C 366.408,213.361 376.408,210.361 386.5,208C 378.833,218.333 371.167,228.667 363.5,239C 371.167,249.333 378.833,259.667 386.5,270C 376.408,267.639 366.408,264.639 356.5,261C 353.874,260.005 351.207,259.672 348.5,260C 341.281,269.712 334.281,279.546 327.5,289.5C 326.833,276.833 326.167,264.167 325.5,251.5C 313.571,247.467 301.571,243.3 289.5,239C 301.571,234.7 313.571,230.533 325.5,226.5C 326.167,213.833 326.833,201.167 327.5,188.5 Z"/></g>
<g><path style="opacity:1" fill="#faccd0" d="M 325.5,251.5 C 326.167,264.167 326.833,276.833 327.5,289.5C 327.44,290.043 327.107,290.376 326.5,290.5C 325.501,277.517 325.168,264.517 325.5,251.5 Z"/></g>
</svg>
