<?xml version="1.0" encoding="UTF-8"?>
<!DOCTYPE svg PUBLIC "-//W3C//DTD SVG 1.1//EN" "http://www.w3.org/Graphics/SVG/1.1/DTD/svg11.dtd">
<svg xmlns="http://www.w3.org/2000/svg" version="1.1" width="640px" height="480px" style="shape-rendering:geometricPrecision; text-rendering:geometricPrecision; image-rendering:optimizeQuality; fill-rule:evenodd; clip-rule:evenodd" xmlns:xlink="http://www.w3.org/1999/xlink">
<g><path style="opacity:1" fill="#fcfcfd" d="M 0.5,-0.5 C 12.8333,-0.5 25.1667,-0.5 37.5,-0.5C 64.688,19.6909 91.8547,40.0243 119,60.5C 119.5,40.1694 119.667,19.8361 119.5,-0.5C 124.833,-0.5 130.167,-0.5 135.5,-0.5C 135.5,31.5 135.5,63.5 135.5,95.5C 90.1667,95.5 44.8333,95.5 -0.5,95.5C -0.5,90.1667 -0.5,84.8333 -0.5,79.5C 20.8359,79.6666 42.1693,79.5 63.5,79C 42.2892,62.9495 20.9559,47.1161 -0.5,31.5C -0.5,27.8333 -0.5,24.1667 -0.5,20.5C 25.3401,40.168 51.3401,59.668 77.5,79C 87.5,79.6667 97.5,79.6667 107.5,79C 71.6502,52.6367 35.9835,26.1367 0.5,-0.5 Z"/></g>
<g><path style="opacity:1" fill="#022169" d="M 37.5,-0.5 C 64.8333,-0.5 92.1667,-0.5 119.5,-0.5C 119.667,19.8361 119.5,40.1694 119,60.5C 91.8547,40.0243 64.688,19.6909 37.5,-0.5 Z"/></g>
<g><path style="opacity:1" fill="#c91931" d="M 135.5,-0.5 C 151.833,-0.5 168.167,-0.5 184.5,-0.5C 184.5,31.5 184.5,63.5 184.5,95.5C 229.5,95.5 274.5,95.5 319.5,95.5C 319.5,111.833 319.5,128.167 319.5,144.5C 274.5,144.5 229.5,144.5 184.5,144.5C 184.5,176.167 184.5,207.833 184.5,239.5C 168.167,239.5 151.833,239.5 135.5,239.5C 135.5,207.833 135.5,176.167 135.5,144.5C 90.1667,144.5 44.8333,144.5 -0.5,144.5C -0.5,128.167 -0.5,111.833 -0.5,95.5C 44.8333,95.5 90.1667,95.5 135.5,95.5C 135.5,63.5 135.5,31.5 135.5,-0.5 Z"/></g>
<g><path style="opacity:1" fill="#fcfcfc" d="M 184.5,-0.5 C 189.833,-0.5 195.167,-0.5 200.5,-0.5C 200.333,19.1695 200.5,38.8362 201,58.5C 227.351,38.9699 253.517,19.3033 279.5,-0.5C 284.167,-0.5 288.833,-0.5 293.5,-0.5C 262.312,23.0249 231.145,46.6916 200,70.5C 199.502,73.4816 199.335,76.4816 199.5,79.5C 205.176,79.6661 210.843,79.4994 216.5,79C 250.505,52.6713 284.838,26.838 319.5,1.5C 319.807,11.5824 319.474,21.5824 318.5,31.5C 297.044,47.1161 275.711,62.9495 254.5,79C 276.164,79.5 297.831,79.6666 319.5,79.5C 319.5,84.8333 319.5,90.1667 319.5,95.5C 274.5,95.5 229.5,95.5 184.5,95.5C 184.5,63.5 184.5,31.5 184.5,-0.5 Z"/></g>
<g><path style="opacity:1" fill="#032169" d="M 200.5,-0.5 C 226.833,-0.5 253.167,-0.5 279.5,-0.5C 253.517,19.3033 227.351,38.9699 201,58.5C 200.5,38.8362 200.333,19.1695 200.5,-0.5 Z"/></g>
<g><path style="opacity:1" fill="#c91731" d="M 293.5,-0.5 C 302.167,-0.5 310.833,-0.5 319.5,-0.5C 319.5,0.166667 319.5,0.833333 319.5,1.5C 284.838,26.838 250.505,52.6713 216.5,79C 210.843,79.4994 205.176,79.6661 199.5,79.5C 199.335,76.4816 199.502,73.4816 200,70.5C 231.145,46.6916 262.312,23.0249 293.5,-0.5 Z"/></g>
<g><path style="opacity:1" fill="#002767" d="M 319.5,-0.5 C 426.167,-0.5 532.833,-0.5 639.5,-0.5C 639.5,159.5 639.5,319.5 639.5,479.5C 426.167,479.5 212.833,479.5 -0.5,479.5C -0.5,399.5 -0.5,319.5 -0.5,239.5C -0.166667,239.5 0.166667,239.5 0.5,239.5C 9.5,239.5 18.5,239.5 27.5,239.5C 32.263,239.774 36.9296,239.441 41.5,238.5C 67.328,239.498 93.328,239.831 119.5,239.5C 124.833,239.5 130.167,239.5 135.5,239.5C 151.833,239.5 168.167,239.5 184.5,239.5C 189.5,239.5 194.5,239.5 199.5,239.5C 199.833,239.5 200.167,239.5 200.5,239.5C 226.339,239.831 252.005,239.498 277.5,238.5C 291.088,239.481 304.754,239.815 318.5,239.5C 319.491,233.021 319.824,226.354 319.5,219.5C 319.763,215.4 319.43,211.4 318.5,207.5C 319.496,191.675 319.83,175.675 319.5,159.5C 319.5,154.5 319.5,149.5 319.5,144.5C 319.5,128.167 319.5,111.833 319.5,95.5C 319.5,90.1667 319.5,84.8333 319.5,79.5C 319.83,63.3246 319.496,47.3246 318.5,31.5C 319.474,21.5824 319.807,11.5824 319.5,1.5C 319.5,0.833333 319.5,0.166667 319.5,-0.5 Z"/></g>
<g><path style="opacity:1" fill="#c91731" d="M -0.5,-0.5 C -0.166667,-0.5 0.166667,-0.5 0.5,-0.5C 35.9835,26.1367 71.6502,52.6367 107.5,79C 97.5,79.6667 87.5,79.6667 77.5,79C 51.3401,59.668 25.3401,40.168 -0.5,20.5C -0.5,13.5 -0.5,6.5 -0.5,-0.5 Z"/></g>
<g><path style="opacity:1" fill="#032269" d="M 318.5,31.5 C 319.496,47.3246 319.83,63.3246 319.5,79.5C 297.831,79.6666 276.164,79.5 254.5,79C 275.711,62.9495 297.044,47.1161 318.5,31.5 Z"/></g>
<g><path style="opacity:1" fill="#032269" d="M -0.5,31.5 C 20.9559,47.1161 42.2892,62.9495 63.5,79C 42.1693,79.5 20.8359,79.6666 -0.5,79.5C -0.5,63.5 -0.5,47.5 -0.5,31.5 Z"/></g>
<g><path style="opacity:1" fill="#fcfcfc" d="M -0.5,144.5 C 44.8333,144.5 90.1667,144.5 135.5,144.5C 135.5,176.167 135.5,207.833 135.5,239.5C 130.167,239.5 124.833,239.5 119.5,239.5C 119.667,219.831 119.5,200.164 119,180.5C 93.0069,199.665 67.1735,218.999 41.5,238.5C 36.9296,239.441 32.263,239.774 27.5,239.5C 57.699,215.813 88.3657,192.646 119.5,170C 120.456,166.606 120.789,163.106 120.5,159.5C 115.041,159.103 109.708,159.603 104.5,161C 69.6492,187.03 34.9826,213.197 0.5,239.5C 0.166667,239.5 -0.166667,239.5 -0.5,239.5C -0.5,229.5 -0.5,219.5 -0.5,209.5C 21.623,193.217 43.623,176.717 65.5,160C 43.5025,159.5 21.5025,159.333 -0.5,159.5C -0.5,154.5 -0.5,149.5 -0.5,144.5 Z"/></g>
<g><path style="opacity:1" fill="#fdfdfd" d="M 319.5,144.5 C 319.5,149.5 319.5,154.5 319.5,159.5C 297.497,159.333 275.497,159.5 253.5,160C 274.871,176.341 296.537,192.174 318.5,207.5C 319.43,211.4 319.763,215.4 319.5,219.5C 293.044,200.217 266.711,180.717 240.5,161C 230.934,159.387 221.267,159.053 211.5,160C 247.35,186.363 283.016,212.863 318.5,239.5C 304.754,239.815 291.088,239.481 277.5,238.5C 252.205,219.512 226.872,200.512 201.5,181.5C 201.44,180.957 201.107,180.624 200.5,180.5C 199.5,200.155 199.167,219.822 199.5,239.5C 194.5,239.5 189.5,239.5 184.5,239.5C 184.5,207.833 184.5,176.167 184.5,144.5C 229.5,144.5 274.5,144.5 319.5,144.5 Z"/></g>
<g><path style="opacity:1" fill="#032269" d="M -0.5,159.5 C 21.5025,159.333 43.5025,159.5 65.5,160C 43.623,176.717 21.623,193.217 -0.5,209.5C -0.5,192.833 -0.5,176.167 -0.5,159.5 Z"/></g>
<g><path style="opacity:1" fill="#c91731" d="M 27.5,239.5 C 18.5,239.5 9.5,239.5 0.5,239.5C 34.9826,213.197 69.6492,187.03 104.5,161C 109.708,159.603 115.041,159.103 120.5,159.5C 120.789,163.106 120.456,166.606 119.5,170C 88.3657,192.646 57.699,215.813 27.5,239.5 Z"/></g>
<g><path style="opacity:1" fill="#c91731" d="M 319.5,219.5 C 319.824,226.354 319.491,233.021 318.5,239.5C 283.016,212.863 247.35,186.363 211.5,160C 221.267,159.053 230.934,159.387 240.5,161C 266.711,180.717 293.044,200.217 319.5,219.5 Z"/></g>
<g><path style="opacity:1" fill="#032269" d="M 319.5,159.5 C 319.83,175.675 319.496,191.675 318.5,207.5C 296.537,192.174 274.871,176.341 253.5,160C 275.497,159.5 297.497,159.333 319.5,159.5 Z"/></g>
<g><path style="opacity:1" fill="#f0f0ee" d="M 375.5,170.5 C 448.167,170.5 520.833,170.5 593.5,170.5C 593.667,204.502 593.5,238.502 593,272.5C 586.413,345.048 550.246,396.714 484.5,427.5C 419.958,397.759 383.791,347.425 376,276.5C 375.5,241.168 375.333,205.835 375.5,170.5 Z"/></g>
<g><path style="opacity:1" fill="#facf16" d="M 585.5,270.5 C 580.184,339.261 546.684,388.595 485,418.5C 470.715,413.442 457.882,405.942 446.5,396C 408.737,364.642 387.737,324.475 383.5,275.5C 383.5,243.167 383.5,210.833 383.5,178.5C 450.833,178.5 518.167,178.5 585.5,178.5C 585.5,209.167 585.5,239.833 585.5,270.5 Z"/></g>
<g><path style="opacity:1" fill="#817a65" d="M 585.5,270.5 C 585.5,239.833 585.5,209.167 585.5,178.5C 518.167,178.5 450.833,178.5 383.5,178.5C 383.5,210.833 383.5,243.167 383.5,275.5C 382.502,243.004 382.168,210.338 382.5,177.5C 450.5,177.5 518.5,177.5 586.5,177.5C 586.831,208.671 586.498,239.671 585.5,270.5 Z"/></g>
<g><path style="opacity:1" fill="#7f8fb3" d="M 201.5,181.5 C 200.503,200.659 200.17,219.993 200.5,239.5C 200.167,239.5 199.833,239.5 199.5,239.5C 199.167,219.822 199.5,200.155 200.5,180.5C 201.107,180.624 201.44,180.957 201.5,181.5 Z"/></g>
<g><path style="opacity:1" fill="#022169" d="M 119.5,239.5 C 93.328,239.831 67.328,239.498 41.5,238.5C 67.1735,218.999 93.0069,199.665 119,180.5C 119.5,200.164 119.667,219.831 119.5,239.5 Z"/></g>
<g><path style="opacity:1" fill="#032169" d="M 201.5,181.5 C 226.872,200.512 252.205,219.512 277.5,238.5C 252.005,239.498 226.339,239.831 200.5,239.5C 200.17,219.993 200.503,200.659 201.5,181.5 Z"/></g>
<g><path style="opacity:1" fill="#f2a751" d="M 436.5,212.5 C 437.399,220.657 434.566,226.991 428,231.5C 424.749,236.504 424.749,241.504 428,246.5C 430.628,248.126 432.961,250.126 435,252.5C 436.542,258.548 438.209,264.548 440,270.5C 441.147,272.819 442.981,274.152 445.5,274.5C 443.098,278.078 439.765,279.245 435.5,278C 430.833,272 426.167,266 421.5,260C 415.464,254.981 408.797,250.981 401.5,248C 399.042,246.213 397.376,243.879 396.5,241C 398.321,237.846 400.821,235.346 404,233.5C 404.533,229.554 406.366,226.388 409.5,224C 405.216,222.337 400.883,222.004 396.5,223C 397.833,221.333 399.167,219.667 400.5,218C 403.234,217.79 405.734,216.956 408,215.5C 408.756,213.191 408.256,211.191 406.5,209.5C 406.709,208.914 407.043,208.414 407.5,208C 406.272,207.221 405.272,206.221 404.5,205C 405.341,199.122 407.174,193.622 410,188.5C 412.708,192.104 416.208,194.604 420.5,196C 421.473,200.307 424.14,202.973 428.5,204C 430.79,206.079 432.457,208.579 433.5,211.5C 434.417,212.127 435.417,212.461 436.5,212.5 Z"/></g>
<g><path style="opacity:1" fill="#f69c9a" d="M 445.5,274.5 C 442.981,274.152 441.147,272.819 440,270.5C 438.209,264.548 436.542,258.548 435,252.5C 432.961,250.126 430.628,248.126 428,246.5C 424.749,241.504 424.749,236.504 428,231.5C 434.566,226.991 437.399,220.657 436.5,212.5C 434.572,204.497 437.072,198.497 444,194.5C 449.793,197.422 453.126,202.089 454,208.5C 455.447,210.403 457.114,212.07 459,213.5C 458.525,217.777 460.192,220.777 464,222.5C 464.333,225.5 464.667,228.5 465,231.5C 465.419,232.672 466.085,233.672 467,234.5C 467.246,239.372 467.746,244.205 468.5,249C 467.147,251.38 465.981,253.88 465,256.5C 462.251,258.923 459.251,260.923 456,262.5C 455.782,265.426 455.282,268.26 454.5,271C 451.31,271.86 448.31,273.026 445.5,274.5 Z"/></g>
<g><path style="opacity:1" fill="#e4a6cc" d="M 445.5,204.5 C 446.5,204.5 447.5,204.5 448.5,204.5C 448.462,207.621 447.795,210.621 446.5,213.5C 449.714,221.027 450.381,228.86 448.5,237C 450.064,244.425 451.064,251.925 451.5,259.5C 451.737,264.02 450.571,268.02 448,271.5C 447.667,267.833 447.333,264.167 447,260.5C 444.531,254.459 442.697,248.292 441.5,242C 443.733,236.469 445.066,230.636 445.5,224.5C 444.833,220.833 444.167,217.167 443.5,213.5C 444.179,210.494 444.846,207.494 445.5,204.5 Z"/></g>
<g><path style="opacity:1" fill="#98560a" d="M 560.5,211.5 C 561.427,218.443 561.76,225.443 561.5,232.5C 561.325,244.836 560.992,257.169 560.5,269.5C 560.314,277.256 560.981,284.923 562.5,292.5C 562.263,295.063 561.763,295.063 561,292.5C 560.333,289.833 559.667,287.167 559,284.5C 559.154,261.502 559.154,238.502 559,215.5C 558.275,213.051 557.275,210.717 556,208.5C 552.5,211.333 549,214.167 545.5,217C 549.522,216.17 553.522,215.004 557.5,213.5C 557.762,214.978 557.429,216.311 556.5,217.5C 552.909,218.783 549.909,220.783 547.5,223.5C 547.434,225.266 548.268,226.266 550,226.5C 552.724,225.313 555.557,224.647 558.5,224.5C 558.5,225.833 558.5,227.167 558.5,228.5C 555.5,229.167 552.5,229.833 549.5,230.5C 549.5,231.833 549.5,233.167 549.5,234.5C 552.455,233.841 555.455,233.508 558.5,233.5C 558.67,234.822 558.337,235.989 557.5,237C 554.768,237.413 552.101,238.08 549.5,239C 548.915,240.302 548.249,241.469 547.5,242.5C 543.412,244.385 539.079,245.385 534.5,245.5C 535.366,241.601 535.366,237.601 534.5,233.5C 538.936,233.79 543.27,233.29 547.5,232C 543.209,232.196 538.876,232.363 534.5,232.5C 534.5,230.833 534.5,229.167 534.5,227.5C 545.167,227.167 545.167,226.833 534.5,226.5C 534.618,221.357 535.618,216.523 537.5,212C 536.906,211.536 536.239,211.369 535.5,211.5C 535.162,208.843 535.829,206.51 537.5,204.5C 534.271,198.252 535.604,192.085 541.5,186C 542.167,185.333 542.833,185.333 543.5,186C 542.483,187.049 542.316,188.216 543,189.5C 545.938,192.26 547.772,195.594 548.5,199.5C 547.325,199.719 546.325,199.386 545.5,198.5C 544.911,195.724 543.578,193.39 541.5,191.5C 538.606,194.758 537.939,198.425 539.5,202.5C 545.36,199.586 550.86,200.253 556,204.5C 561.25,200.79 566.75,197.456 572.5,194.5C 573.594,195.868 573.26,197.035 571.5,198C 567.167,201 562.833,204 558.5,207C 559.582,208.33 560.249,209.83 560.5,211.5 Z"/></g>
<g><path style="opacity:1" fill="#ebc014" d="M 542.5,203.5 C 546.544,202.958 550.211,203.791 553.5,206C 549.52,207.994 545.854,210.494 542.5,213.5C 542.167,213.333 541.833,213.167 541.5,213C 544.07,210.933 546.07,208.433 547.5,205.5C 546.635,204.417 545.635,204.251 544.5,205C 537.943,210.941 537.276,210.441 542.5,203.5 Z"/></g>
<g><path style="opacity:1" fill="#93590a" d="M 506.5,211.5 C 506.715,213.179 506.048,214.179 504.5,214.5C 498.264,214.208 492.264,213.041 486.5,211C 493.217,210.244 499.883,210.411 506.5,211.5 Z"/></g>
<g><path style="opacity:1" fill="#95590a" d="M 564.5,214.5 C 562.952,214.179 562.285,213.179 562.5,211.5C 569.117,210.411 575.783,210.244 582.5,211C 576.702,212.855 570.702,214.022 564.5,214.5 Z"/></g>
<g><path style="opacity:1" fill="#99570a" d="M 533.5,211.5 C 532.833,211.5 532.167,211.5 531.5,211.5C 533.36,216.193 534.026,221.193 533.5,226.5C 524.167,226.833 524.167,227.167 533.5,227.5C 533.5,229.167 533.5,230.833 533.5,232.5C 529.459,232.325 525.459,232.158 521.5,232C 525.395,233.266 529.395,233.766 533.5,233.5C 533.662,235.527 533.495,237.527 533,239.5C 529.223,238.465 525.389,237.965 521.5,238C 525.402,239.249 529.402,240.082 533.5,240.5C 533.5,242.167 533.5,243.833 533.5,245.5C 529.273,245.256 525.273,244.256 521.5,242.5C 520.751,241.469 520.085,240.302 519.5,239C 516.899,238.08 514.232,237.413 511.5,237C 510.663,235.989 510.33,234.822 510.5,233.5C 513.545,233.508 516.545,233.841 519.5,234.5C 519.5,233.167 519.5,231.833 519.5,230.5C 516.5,229.833 513.5,229.167 510.5,228.5C 510.5,227.167 510.5,225.833 510.5,224.5C 513.443,224.647 516.276,225.313 519,226.5C 521.502,225.499 522.002,223.833 520.5,221.5C 517.833,220.167 515.167,218.833 512.5,217.5C 511.571,216.311 511.238,214.978 511.5,213.5C 515.608,214.469 519.441,216.136 523,218.5C 523.167,218.167 523.333,217.833 523.5,217.5C 520.172,214.342 516.672,211.342 513,208.5C 511.725,210.717 510.725,213.051 510,215.5C 510.09,238.499 510.09,261.499 510,284.5C 509.308,287.936 508.308,291.27 507,294.5C 508.82,274.906 508.987,255.24 507.5,235.5C 507.199,227.414 507.533,219.414 508.5,211.5C 508.751,209.83 509.418,208.33 510.5,207C 505.101,203.64 500.101,199.807 495.5,195.5C 495.833,195.167 496.167,194.833 496.5,194.5C 502.25,197.456 507.75,200.79 513,204.5C 518.034,200.1 523.534,199.433 529.5,202.5C 531.061,198.425 530.394,194.758 527.5,191.5C 525.422,193.39 524.089,195.724 523.5,198.5C 522.675,199.386 521.675,199.719 520.5,199.5C 521.228,195.594 523.062,192.26 526,189.5C 526.684,188.216 526.517,187.049 525.5,186C 526.167,185.333 526.833,185.333 527.5,186C 530.164,188.669 531.998,191.836 533,195.5C 533.067,200.979 533.233,206.312 533.5,211.5 Z"/></g>
<g><path style="opacity:1" fill="#eabf14" d="M 531.5,211.5 C 529.037,209.539 526.703,207.372 524.5,205C 523.365,204.251 522.365,204.417 521.5,205.5C 522.93,208.433 524.93,210.933 527.5,213C 527.167,213.167 526.833,213.333 526.5,213.5C 523.146,210.494 519.48,207.994 515.5,206C 523.188,201.283 528.521,203.116 531.5,211.5 Z"/></g>
<g><path style="opacity:1" fill="#995e0a" d="M 505.5,223.5 C 505.737,224.791 505.404,225.791 504.5,226.5C 498.091,226.817 491.757,226.317 485.5,225C 486.949,223.883 488.616,223.216 490.5,223C 495.684,222.184 500.684,222.35 505.5,223.5 Z"/></g>
<g><path style="opacity:1" fill="#985d0a" d="M 564.5,226.5 C 563.596,225.791 563.263,224.791 563.5,223.5C 568.316,222.35 573.316,222.184 578.5,223C 580.384,223.216 582.051,223.883 583.5,225C 577.213,226.107 570.88,226.607 564.5,226.5 Z"/></g>
<g><path style="opacity:1" fill="#c58b0f" d="M 506.5,211.5 C 507.167,211.5 507.833,211.5 508.5,211.5C 507.533,219.414 507.199,227.414 507.5,235.5C 507.167,235.5 506.833,235.5 506.5,235.5C 506.5,234.167 505.833,233.5 504.5,233.5C 507.167,231.167 507.167,228.833 504.5,226.5C 505.404,225.791 505.737,224.791 505.5,223.5C 506.967,220.346 506.634,217.346 504.5,214.5C 506.048,214.179 506.715,213.179 506.5,211.5 Z"/></g>
<g><path style="opacity:1" fill="#c48a0f" d="M 560.5,211.5 C 561.167,211.5 561.833,211.5 562.5,211.5C 562.285,213.179 562.952,214.179 564.5,214.5C 562.366,217.346 562.033,220.346 563.5,223.5C 563.263,224.791 563.596,225.791 564.5,226.5C 563.158,228.361 562.158,230.361 561.5,232.5C 561.76,225.443 561.427,218.443 560.5,211.5 Z"/></g>
<g><path style="opacity:1" fill="#965a0a" d="M 504.5,233.5 C 505.833,233.5 506.5,234.167 506.5,235.5C 506.389,236.117 506.056,236.617 505.5,237C 499.988,237.878 494.655,239.378 489.5,241.5C 488.479,240.998 488.312,240.332 489,239.5C 493.456,235.689 498.623,233.689 504.5,233.5 Z"/></g>
<g><path style="opacity:1" fill="#743e07" d="M 531.5,211.5 C 532.167,211.5 532.833,211.5 533.5,211.5C 534.167,211.5 534.833,211.5 535.5,211.5C 536.239,211.369 536.906,211.536 537.5,212C 535.618,216.523 534.618,221.357 534.5,226.5C 545.167,226.833 545.167,227.167 534.5,227.5C 534.5,229.167 534.5,230.833 534.5,232.5C 538.876,232.363 543.209,232.196 547.5,232C 543.27,233.29 538.936,233.79 534.5,233.5C 535.366,237.601 535.366,241.601 534.5,245.5C 539.079,245.385 543.412,244.385 547.5,242.5C 547.5,243.167 547.5,243.833 547.5,244.5C 543.257,245.681 538.924,246.348 534.5,246.5C 534.5,248.167 534.5,249.833 534.5,251.5C 543.833,251.833 543.833,252.167 534.5,252.5C 534.5,253.833 534.5,255.167 534.5,256.5C 537.525,256.123 540.525,255.956 543.5,256C 540.937,257.079 538.271,257.579 535.5,257.5C 535.5,259.167 535.5,260.833 535.5,262.5C 540.5,263.003 540.167,263.336 534.5,263.5C 534.5,264.833 534.5,266.167 534.5,267.5C 541.167,267.833 541.167,268.167 534.5,268.5C 534.5,269.833 534.5,271.167 534.5,272.5C 536.288,272.215 537.955,272.548 539.5,273.5C 538.336,273.835 537.003,273.835 535.5,273.5C 534.338,290.795 533.504,290.795 533,273.5C 532,273.833 531,274.167 530,274.5C 529.722,273.584 529.222,272.918 528.5,272.5C 528.5,272.167 528.5,271.833 528.5,271.5C 530.117,272.038 531.784,272.371 533.5,272.5C 533.5,271.167 533.5,269.833 533.5,268.5C 528.167,268.167 528.167,267.833 533.5,267.5C 533.5,266.167 533.5,264.833 533.5,263.5C 528.167,263.167 528.167,262.833 533.5,262.5C 533.5,260.833 533.5,259.167 533.5,257.5C 530.729,257.579 528.063,257.079 525.5,256C 528.157,255.825 530.824,255.992 533.5,256.5C 533.5,255.167 533.5,253.833 533.5,252.5C 525.5,252.167 525.5,251.833 533.5,251.5C 533.5,249.833 533.5,248.167 533.5,246.5C 529.426,246.218 525.426,245.552 521.5,244.5C 521.5,243.833 521.5,243.167 521.5,242.5C 525.273,244.256 529.273,245.256 533.5,245.5C 533.5,243.833 533.5,242.167 533.5,240.5C 529.402,240.082 525.402,239.249 521.5,238C 525.389,237.965 529.223,238.465 533,239.5C 533.495,237.527 533.662,235.527 533.5,233.5C 529.395,233.766 525.395,233.266 521.5,232C 525.459,232.158 529.459,232.325 533.5,232.5C 533.5,230.833 533.5,229.167 533.5,227.5C 524.167,227.167 524.167,226.833 533.5,226.5C 534.026,221.193 533.36,216.193 531.5,211.5 Z"/></g>
<g><path style="opacity:1" fill="#985c0a" d="M 562.5,233.5 C 569.491,233.493 575.491,235.827 580.5,240.5C 580,240.833 579.5,241.167 579,241.5C 573.946,239.593 568.78,238.093 563.5,237C 562.663,235.989 562.33,234.822 562.5,233.5 Z"/></g>
<g><path style="opacity:1" fill="#995309" d="M 521.5,244.5 C 525.426,245.552 529.426,246.218 533.5,246.5C 533.5,248.167 533.5,249.833 533.5,251.5C 525.5,251.833 525.5,252.167 533.5,252.5C 533.5,253.833 533.5,255.167 533.5,256.5C 530.824,255.992 528.157,255.825 525.5,256C 528.063,257.079 530.729,257.579 533.5,257.5C 533.5,259.167 533.5,260.833 533.5,262.5C 528.167,262.833 528.167,263.167 533.5,263.5C 533.5,264.833 533.5,266.167 533.5,267.5C 528.167,267.833 528.167,268.167 533.5,268.5C 533.5,269.833 533.5,271.167 533.5,272.5C 531.784,272.371 530.117,272.038 528.5,271.5C 526.745,269.239 525.578,266.572 525,263.5C 523.83,257.143 522.663,250.81 521.5,244.5 Z"/></g>
<g><path style="opacity:1" fill="#c31924" d="M 504.5,302.5 C 491.186,309.164 477.853,309.164 464.5,302.5C 464.229,300.62 464.896,299.287 466.5,298.5C 469.114,299.545 471.78,300.045 474.5,300C 473.351,298.396 473.351,296.73 474.5,295C 472.211,292.449 472.211,289.782 474.5,287C 472.09,283.996 472.423,281.162 475.5,278.5C 474.689,277.784 474.022,276.95 473.5,276C 475.348,272.987 477.682,270.487 480.5,268.5C 492.069,266.524 498.902,271.524 501,283.5C 501.171,288.533 501.671,293.533 502.5,298.5C 504.111,299.32 504.778,300.654 504.5,302.5 Z"/></g>
<g><path style="opacity:1" fill="#1b0b04" d="M 480.5,268.5 C 477.682,270.487 475.348,272.987 473.5,276C 474.022,276.95 474.689,277.784 475.5,278.5C 472.423,281.162 472.09,283.996 474.5,287C 472.211,289.782 472.211,292.449 474.5,295C 473.351,296.73 473.351,298.396 474.5,300C 471.78,300.045 469.114,299.545 466.5,298.5C 466.048,288.545 468.381,279.378 473.5,271C 475.65,269.589 477.984,268.755 480.5,268.5 Z"/></g>
<g><path style="opacity:1" fill="#140302" d="M 489.5,272.5 C 493.02,273.183 495.52,275.183 497,278.5C 498.988,285.353 499.821,292.353 499.5,299.5C 496.518,299.963 493.518,300.296 490.5,300.5C 491.252,294.741 490.252,289.407 487.5,284.5C 488.631,283.396 489.465,283.729 490,285.5C 490.108,282.313 489.275,279.313 487.5,276.5C 488.274,275.289 489.107,275.289 490,276.5C 490.195,275.181 490.028,273.847 489.5,272.5 Z"/></g>
<g><path style="opacity:1" fill="#955209" d="M 547.5,244.5 C 546.337,250.81 545.17,257.143 544,263.5C 543.356,266.609 542.189,269.443 540.5,272C 543.333,274.833 546.167,277.667 549,280.5C 550.373,282.695 550.706,285.029 550,287.5C 548.667,288.833 547.333,288.833 546,287.5C 545.691,288.766 545.191,289.933 544.5,291C 542.094,291.306 539.927,292.139 538,293.5C 536.715,293.05 535.548,292.383 534.5,291.5C 533.452,292.383 532.285,293.05 531,293.5C 529.073,292.139 526.906,291.306 524.5,291C 523.809,289.933 523.309,288.766 523,287.5C 520.2,289.118 518.7,288.285 518.5,285C 520.504,279.823 523.838,275.656 528.5,272.5C 529.222,272.918 529.722,273.584 530,274.5C 531,274.167 532,273.833 533,273.5C 533.504,290.795 534.338,290.795 535.5,273.5C 537.003,273.835 538.336,273.835 539.5,273.5C 537.955,272.548 536.288,272.215 534.5,272.5C 534.5,271.167 534.5,269.833 534.5,268.5C 541.167,268.167 541.167,267.833 534.5,267.5C 534.5,266.167 534.5,264.833 534.5,263.5C 540.167,263.336 540.5,263.003 535.5,262.5C 535.5,260.833 535.5,259.167 535.5,257.5C 538.271,257.579 540.937,257.079 543.5,256C 540.525,255.956 537.525,256.123 534.5,256.5C 534.5,255.167 534.5,253.833 534.5,252.5C 543.833,252.167 543.833,251.833 534.5,251.5C 534.5,249.833 534.5,248.167 534.5,246.5C 538.924,246.348 543.257,245.681 547.5,244.5 Z"/></g>
<g><path style="opacity:1" fill="#109945" d="M 464.5,302.5 C 477.853,309.164 491.186,309.164 504.5,302.5C 508.331,309.748 512.164,317.081 516,324.5C 516.524,329.319 517.524,333.986 519,338.5C 521.465,340.055 521.965,342.055 520.5,344.5C 523.792,353.391 525.792,362.724 526.5,372.5C 526.237,375.028 525.404,377.361 524,379.5C 520.5,380.776 517.333,382.609 514.5,385C 507.16,386.995 499.826,388.829 492.5,390.5C 489.546,390.709 486.879,390.042 484.5,388.5C 479.755,390.547 474.755,391.047 469.5,390C 466.956,388.908 464.289,388.241 461.5,388C 456.162,385.331 450.828,382.664 445.5,380C 444.54,378.581 443.707,377.081 443,375.5C 442.968,364.705 444.801,354.371 448.5,344.5C 447.035,342.055 447.535,340.055 450,338.5C 451.476,333.986 452.476,329.319 453,324.5C 456.836,317.081 460.669,309.748 464.5,302.5 Z"/></g>
<g><path style="opacity:1" fill="#f9cf15" d="M 473.5,338.5 C 473.84,331.116 474.673,323.783 476,316.5C 476.138,324.055 475.304,331.388 473.5,338.5 Z"/></g>
<g><path style="opacity:1" fill="#c5ad16" d="M 484.5,317.5 C 485.818,320.258 486.485,323.424 486.5,327C 486.523,331.568 486.023,336.068 485,340.5C 484.5,332.841 484.334,325.174 484.5,317.5 Z"/></g>
<g><path style="opacity:1" fill="#e9c516" d="M 468.5,314.5 C 469.097,314.735 469.43,315.235 469.5,316C 468.397,320.782 467.564,325.615 467,330.5C 463.792,339.669 460.792,349.002 458,358.5C 457.333,356.833 457.333,355.167 458,353.5C 461.922,340.66 465.422,327.66 468.5,314.5 Z"/></g>
<g><path style="opacity:1" fill="#eac415" d="M 473.5,338.5 C 473.218,352.719 471.385,366.719 468,380.5C 469.025,366.295 470.858,352.295 473.5,338.5 Z"/></g>
<g><path style="opacity:1" fill="#e5c216" d="M 485.5,341.5 C 486.576,352.735 487.242,364.068 487.5,375.5C 487.147,377.731 486.314,379.731 485,381.5C 484.767,368.286 484.933,354.953 485.5,341.5 Z"/></g>
<g><path style="opacity:1" fill="#cbb016" d="M 456.5,360.5 C 457.638,363.304 457.805,366.304 457,369.5C 455.171,371.156 453.837,373.156 453,375.5C 452.833,374.667 452.667,373.833 452.5,373C 453.877,368.76 455.211,364.594 456.5,360.5 Z"/></g>
</svg>
