<?xml version="1.0" encoding="UTF-8"?>
<!DOCTYPE svg PUBLIC "-//W3C//DTD SVG 1.1//EN" "http://www.w3.org/Graphics/SVG/1.1/DTD/svg11.dtd">
<svg xmlns="http://www.w3.org/2000/svg" version="1.1" width="640px" height="480px" style="shape-rendering:geometricPrecision; text-rendering:geometricPrecision; image-rendering:optimizeQuality; fill-rule:evenodd; clip-rule:evenodd" xmlns:xlink="http://www.w3.org/1999/xlink">
<g><path style="opacity:1" fill="#e30a17" d="M -0.5,-0.5 C 212.833,-0.5 426.167,-0.5 639.5,-0.5C 639.5,159.5 639.5,319.5 639.5,479.5C 426.167,479.5 212.833,479.5 -0.5,479.5C -0.5,319.5 -0.5,159.5 -0.5,-0.5 Z"/></g>
<g><path style="opacity:1" fill="#fefdfd" d="M 268.5,127.5 C 317.308,123.415 356.308,140.749 385.5,179.5C 385.333,179.833 385.167,180.167 385,180.5C 361.166,157.444 332.666,147.944 299.5,152C 264.239,159.045 239.072,178.878 224,211.5C 209.805,254.237 219.305,290.737 252.5,321C 285.848,345.385 321.514,349.219 359.5,332.5C 369.609,327.563 378.442,320.896 386,312.5C 364.996,343.618 335.496,361.451 297.5,366C 246.415,369.54 206.915,350.04 179,307.5C 154.643,261.415 157.309,217.082 187,174.5C 208.124,148.355 235.291,132.688 268.5,127.5 Z"/></g>
<g><path style="opacity:1" fill="#fefbfb" d="M 431.5,192.5 C 439.28,204.12 447.28,215.62 455.5,227C 469.792,223.51 484.126,220.177 498.5,217C 489.486,228.011 480.486,239.011 471.5,250C 478.704,260.903 486.037,271.736 493.5,282.5C 493.167,282.833 492.833,283.167 492.5,283.5C 479.695,278.397 466.695,274.23 453.5,271C 445.289,280.373 437.289,289.873 429.5,299.5C 428.507,291.35 428.174,283.017 428.5,274.5C 428.5,269.833 428.5,265.167 428.5,260.5C 415.198,256.622 402.198,251.955 389.5,246.5C 402.65,242.212 415.983,238.546 429.5,235.5C 429.5,226.5 429.5,217.5 429.5,208.5C 430.167,203.167 430.833,197.833 431.5,192.5 Z"/></g>
<g><path style="opacity:1" fill="#f39599" d="M 431.5,192.5 C 430.833,197.833 430.167,203.167 429.5,208.5C 429.171,202.794 429.505,197.128 430.5,191.5C 431.107,191.624 431.44,191.957 431.5,192.5 Z"/></g>
<g><path style="opacity:1" fill="#f27f83" d="M 428.5,274.5 C 428.174,283.017 428.507,291.35 429.5,299.5C 429.217,300.289 428.717,300.956 428,301.5C 427.176,292.324 427.343,283.324 428.5,274.5 Z"/></g>
</svg>
