<?xml version="1.0" encoding="UTF-8"?>
<!DOCTYPE svg PUBLIC "-//W3C//DTD SVG 1.1//EN" "http://www.w3.org/Graphics/SVG/1.1/DTD/svg11.dtd">
<svg xmlns="http://www.w3.org/2000/svg" version="1.1" width="640px" height="480px" style="shape-rendering:geometricPrecision; text-rendering:geometricPrecision; image-rendering:optimizeQuality; fill-rule:evenodd; clip-rule:evenodd" xmlns:xlink="http://www.w3.org/1999/xlink">
<g><path style="opacity:1" fill="#fcfcfd" d="M 0.5,-0.5 C 12.8333,-0.5 25.1667,-0.5 37.5,-0.5C 64.688,19.6909 91.8547,40.0243 119,60.5C 119.5,40.1694 119.667,19.8361 119.5,-0.5C 124.833,-0.5 130.167,-0.5 135.5,-0.5C 135.5,31.5 135.5,63.5 135.5,95.5C 90.1667,95.5 44.8333,95.5 -0.5,95.5C -0.5,90.1667 -0.5,84.8333 -0.5,79.5C 20.8359,79.6666 42.1693,79.5 63.5,79C 42.2892,62.9495 20.9559,47.1161 -0.5,31.5C -0.5,27.8333 -0.5,24.1667 -0.5,20.5C 25.3401,40.168 51.3401,59.668 77.5,79C 87.5,79.6667 97.5,79.6667 107.5,79C 71.6502,52.6367 35.9835,26.1367 0.5,-0.5 Z"/></g>
<g><path style="opacity:1" fill="#022169" d="M 37.5,-0.5 C 64.8333,-0.5 92.1667,-0.5 119.5,-0.5C 119.667,19.8361 119.5,40.1694 119,60.5C 91.8547,40.0243 64.688,19.6909 37.5,-0.5 Z"/></g>
<g><path style="opacity:1" fill="#c91931" d="M 135.5,-0.5 C 151.833,-0.5 168.167,-0.5 184.5,-0.5C 184.5,31.5 184.5,63.5 184.5,95.5C 229.5,95.5 274.5,95.5 319.5,95.5C 319.5,111.833 319.5,128.167 319.5,144.5C 274.5,144.5 229.5,144.5 184.5,144.5C 184.5,176.167 184.5,207.833 184.5,239.5C 168.167,239.5 151.833,239.5 135.5,239.5C 135.5,207.833 135.5,176.167 135.5,144.5C 90.1667,144.5 44.8333,144.5 -0.5,144.5C -0.5,128.167 -0.5,111.833 -0.5,95.5C 44.8333,95.5 90.1667,95.5 135.5,95.5C 135.5,63.5 135.5,31.5 135.5,-0.5 Z"/></g>
<g><path style="opacity:1" fill="#fcfcfc" d="M 184.5,-0.5 C 189.833,-0.5 195.167,-0.5 200.5,-0.5C 200.333,19.1695 200.5,38.8362 201,58.5C 227.351,38.9699 253.517,19.3033 279.5,-0.5C 284.167,-0.5 288.833,-0.5 293.5,-0.5C 262.312,23.0249 231.145,46.6916 200,70.5C 199.502,73.4816 199.335,76.4816 199.5,79.5C 205.176,79.6661 210.843,79.4994 216.5,79C 250.505,52.6713 284.838,26.838 319.5,1.5C 319.807,11.5824 319.474,21.5824 318.5,31.5C 297.044,47.1161 275.711,62.9495 254.5,79C 276.164,79.5 297.831,79.6666 319.5,79.5C 319.5,84.8333 319.5,90.1667 319.5,95.5C 274.5,95.5 229.5,95.5 184.5,95.5C 184.5,63.5 184.5,31.5 184.5,-0.5 Z"/></g>
<g><path style="opacity:1" fill="#032169" d="M 200.5,-0.5 C 226.833,-0.5 253.167,-0.5 279.5,-0.5C 253.517,19.3033 227.351,38.9699 201,58.5C 200.5,38.8362 200.333,19.1695 200.5,-0.5 Z"/></g>
<g><path style="opacity:1" fill="#c91731" d="M 293.5,-0.5 C 302.167,-0.5 310.833,-0.5 319.5,-0.5C 319.5,0.166667 319.5,0.833333 319.5,1.5C 284.838,26.838 250.505,52.6713 216.5,79C 210.843,79.4994 205.176,79.6661 199.5,79.5C 199.335,76.4816 199.502,73.4816 200,70.5C 231.145,46.6916 262.312,23.0249 293.5,-0.5 Z"/></g>
<g><path style="opacity:1" fill="#019fc9" d="M 319.5,-0.5 C 426.167,-0.5 532.833,-0.5 639.5,-0.5C 639.5,159.5 639.5,319.5 639.5,479.5C 426.167,479.5 212.833,479.5 -0.5,479.5C -0.5,399.5 -0.5,319.5 -0.5,239.5C -0.166667,239.5 0.166667,239.5 0.5,239.5C 9.5,239.5 18.5,239.5 27.5,239.5C 31.8333,239.5 36.1667,239.5 40.5,239.5C 66.8333,239.5 93.1667,239.5 119.5,239.5C 119.5,219.833 119.5,200.167 119.5,180.5C 120.499,199.424 120.833,219.09 120.5,239.5C 125.5,239.5 130.5,239.5 135.5,239.5C 151.833,239.5 168.167,239.5 184.5,239.5C 189.5,239.5 194.5,239.5 199.5,239.5C 199.833,239.5 200.167,239.5 200.5,239.5C 226.672,239.831 252.672,239.498 278.5,238.5C 291.754,239.481 305.087,239.814 318.5,239.5C 319.491,233.021 319.824,226.354 319.5,219.5C 319.5,215.833 319.5,212.167 319.5,208.5C 319.5,192.167 319.5,175.833 319.5,159.5C 319.5,154.5 319.5,149.5 319.5,144.5C 319.5,128.167 319.5,111.833 319.5,95.5C 319.5,90.1667 319.5,84.8333 319.5,79.5C 319.83,63.3246 319.496,47.3246 318.5,31.5C 319.474,21.5824 319.807,11.5824 319.5,1.5C 319.5,0.833333 319.5,0.166667 319.5,-0.5 Z"/></g>
<g><path style="opacity:1" fill="#c91731" d="M -0.5,-0.5 C -0.166667,-0.5 0.166667,-0.5 0.5,-0.5C 35.9835,26.1367 71.6502,52.6367 107.5,79C 97.5,79.6667 87.5,79.6667 77.5,79C 51.3401,59.668 25.3401,40.168 -0.5,20.5C -0.5,13.5 -0.5,6.5 -0.5,-0.5 Z"/></g>
<g><path style="opacity:1" fill="#032269" d="M 318.5,31.5 C 319.496,47.3246 319.83,63.3246 319.5,79.5C 297.831,79.6666 276.164,79.5 254.5,79C 275.711,62.9495 297.044,47.1161 318.5,31.5 Z"/></g>
<g><path style="opacity:1" fill="#032269" d="M -0.5,31.5 C 20.9559,47.1161 42.2892,62.9495 63.5,79C 42.1693,79.5 20.8359,79.6666 -0.5,79.5C -0.5,63.5 -0.5,47.5 -0.5,31.5 Z"/></g>
<g><path style="opacity:1" fill="#f9f218" d="M 583.5,98.5 C 584.497,98.4701 585.164,98.9701 585.5,100C 588.143,107.427 590.476,114.927 592.5,122.5C 601.506,122.334 610.506,122.5 619.5,123C 612.294,127.764 605.294,132.764 598.5,138C 601.265,145.462 603.932,152.962 606.5,160.5C 605.998,161.521 605.332,161.688 604.5,161C 597.967,156.239 591.3,151.739 584.5,147.5C 577.7,151.739 571.033,156.239 564.5,161C 563.668,161.688 563.002,161.521 562.5,160.5C 565.068,152.962 567.735,145.462 570.5,138C 563.706,132.764 556.706,127.764 549.5,123C 558.167,122.667 566.833,122.333 575.5,122C 578.465,114.271 581.132,106.438 583.5,98.5 Z"/></g>
<g><path style="opacity:1" fill="#fdfdfd" d="M -0.5,144.5 C 44.8333,144.5 90.1667,144.5 135.5,144.5C 135.5,176.167 135.5,207.833 135.5,239.5C 130.5,239.5 125.5,239.5 120.5,239.5C 120.833,219.09 120.499,199.424 119.5,180.5C 92.8604,199.813 66.5271,219.48 40.5,239.5C 36.1667,239.5 31.8333,239.5 27.5,239.5C 57.699,215.813 88.3657,192.646 119.5,170C 120.456,166.606 120.789,163.106 120.5,159.5C 115.041,159.103 109.708,159.603 104.5,161C 69.6492,187.03 34.9826,213.197 0.5,239.5C 0.166667,239.5 -0.166667,239.5 -0.5,239.5C -0.5,229.5 -0.5,219.5 -0.5,209.5C 21.623,193.217 43.623,176.717 65.5,160C 43.5025,159.5 21.5025,159.333 -0.5,159.5C -0.5,154.5 -0.5,149.5 -0.5,144.5 Z"/></g>
<g><path style="opacity:1" fill="#fdfdfd" d="M 319.5,144.5 C 319.5,149.5 319.5,154.5 319.5,159.5C 297.497,159.333 275.497,159.5 253.5,160C 275.352,176.42 297.352,192.587 319.5,208.5C 319.5,212.167 319.5,215.833 319.5,219.5C 293.044,200.217 266.711,180.717 240.5,161C 230.934,159.387 221.267,159.053 211.5,160C 247.35,186.363 283.016,212.863 318.5,239.5C 305.087,239.814 291.754,239.481 278.5,238.5C 252.655,219.744 226.989,200.744 201.5,181.5C 201.44,180.957 201.107,180.624 200.5,180.5C 199.5,200.155 199.167,219.822 199.5,239.5C 194.5,239.5 189.5,239.5 184.5,239.5C 184.5,207.833 184.5,176.167 184.5,144.5C 229.5,144.5 274.5,144.5 319.5,144.5 Z"/></g>
<g><path style="opacity:1" fill="#032269" d="M -0.5,159.5 C 21.5025,159.333 43.5025,159.5 65.5,160C 43.623,176.717 21.623,193.217 -0.5,209.5C -0.5,192.833 -0.5,176.167 -0.5,159.5 Z"/></g>
<g><path style="opacity:1" fill="#c91731" d="M 27.5,239.5 C 18.5,239.5 9.5,239.5 0.5,239.5C 34.9826,213.197 69.6492,187.03 104.5,161C 109.708,159.603 115.041,159.103 120.5,159.5C 120.789,163.106 120.456,166.606 119.5,170C 88.3657,192.646 57.699,215.813 27.5,239.5 Z"/></g>
<g><path style="opacity:1" fill="#c91731" d="M 319.5,219.5 C 319.824,226.354 319.491,233.021 318.5,239.5C 283.016,212.863 247.35,186.363 211.5,160C 221.267,159.053 230.934,159.387 240.5,161C 266.711,180.717 293.044,200.217 319.5,219.5 Z"/></g>
<g><path style="opacity:1" fill="#032269" d="M 319.5,159.5 C 319.5,175.833 319.5,192.167 319.5,208.5C 297.352,192.587 275.352,176.42 253.5,160C 275.497,159.5 297.497,159.333 319.5,159.5 Z"/></g>
<g><path style="opacity:1" fill="#faf214" d="M 550.5,203.5 C 541.833,204.167 533.167,204.833 524.5,205.5C 521.577,213.1 518.743,220.766 516,228.5C 513.257,220.766 510.423,213.1 507.5,205.5C 498.833,204.833 490.167,204.167 481.5,203.5C 488.057,199.301 494.557,194.968 501,190.5C 501.667,188.833 501.667,187.167 501,185.5C 498.221,178.671 496.054,172.005 494.5,165.5C 501.542,170.379 508.709,175.045 516,179.5C 523.094,175.408 529.927,170.908 536.5,166C 537.167,165.333 537.833,165.333 538.5,166C 535.809,172.405 533.309,178.905 531,185.5C 530.333,187.167 530.333,188.833 531,190.5C 537.443,194.968 543.943,199.301 550.5,203.5 Z"/></g>
<g><path style="opacity:1" fill="#7f8fb3" d="M 201.5,181.5 C 200.503,200.659 200.17,219.993 200.5,239.5C 200.167,239.5 199.833,239.5 199.5,239.5C 199.167,219.822 199.5,200.155 200.5,180.5C 201.107,180.624 201.44,180.957 201.5,181.5 Z"/></g>
<g><path style="opacity:1" fill="#022169" d="M 119.5,180.5 C 119.5,200.167 119.5,219.833 119.5,239.5C 93.1667,239.5 66.8333,239.5 40.5,239.5C 66.5271,219.48 92.8604,199.813 119.5,180.5 Z"/></g>
<g><path style="opacity:1" fill="#032169" d="M 201.5,181.5 C 226.989,200.744 252.655,219.744 278.5,238.5C 252.672,239.498 226.672,239.831 200.5,239.5C 200.17,219.993 200.503,200.659 201.5,181.5 Z"/></g>
<g><path style="opacity:1" fill="#f9f217" d="M 481.5,226.5 C 473.167,227.167 464.833,227.833 456.5,228.5C 453.329,235.998 450.329,243.665 447.5,251.5C 444.639,244.253 441.973,236.919 439.5,229.5C 430.518,228.668 421.518,228.168 412.5,228C 419.333,223.167 426.167,218.333 433,213.5C 431.064,205.029 428.731,196.696 426,188.5C 433.079,193.623 440.246,198.623 447.5,203.5C 454.805,198.695 461.971,193.695 469,188.5C 467.136,196.43 464.636,204.263 461.5,212C 467.707,217.36 474.374,222.194 481.5,226.5 Z"/></g>
<g><path style="opacity:1" fill="#65c07e" d="M 481.5,203.5 C 490.167,204.167 498.833,204.833 507.5,205.5C 498.475,205.832 489.475,205.498 480.5,204.5C 480.624,203.893 480.957,203.56 481.5,203.5 Z"/></g>
<g><path style="opacity:1" fill="#65c07e" d="M 550.5,203.5 C 551.043,203.56 551.376,203.893 551.5,204.5C 542.525,205.498 533.525,205.832 524.5,205.5C 533.167,204.833 541.833,204.167 550.5,203.5 Z"/></g>
<g><path style="opacity:1" fill="#a6d650" d="M 481.5,226.5 C 482.289,226.783 482.956,227.283 483.5,228C 474.506,228.5 465.506,228.666 456.5,228.5C 464.833,227.833 473.167,227.167 481.5,226.5 Z"/></g>
<g><path style="opacity:1" fill="#f9f218" d="M 583.5,250.5 C 584.497,250.47 585.164,250.97 585.5,252C 588.143,259.427 590.476,266.927 592.5,274.5C 601.506,274.334 610.506,274.5 619.5,275C 612.336,280.005 605.336,285.172 598.5,290.5C 601.167,297.833 603.833,305.167 606.5,312.5C 606.167,312.833 605.833,313.167 605.5,313.5C 598.672,308.585 591.672,303.919 584.5,299.5C 577.661,303.752 570.994,308.252 564.5,313C 563.668,313.688 563.002,313.521 562.5,312.5C 564.97,305.09 567.636,297.757 570.5,290.5C 563.664,285.172 556.664,280.005 549.5,275C 558.494,274.5 567.494,274.334 576.5,274.5C 578.43,266.377 580.763,258.377 583.5,250.5 Z"/></g>
<g><path style="opacity:1" fill="#f7f11c" d="M 523.5,318.5 C 532.167,319.167 540.833,319.833 549.5,320.5C 542.374,324.806 535.707,329.64 529.5,335C 531.975,342.758 534.641,350.425 537.5,358C 529.763,353.86 522.263,349.027 515,343.5C 507.737,349.027 500.237,353.86 492.5,358C 496.231,350.146 498.731,341.979 500,333.5C 493.167,328.667 486.333,323.833 479.5,319C 488.518,318.832 497.518,318.332 506.5,317.5C 509.432,309.872 512.265,302.205 515,294.5C 517.939,302.486 520.773,310.486 523.5,318.5 Z"/></g>
<g><path style="opacity:1" fill="#faf215" d="M 401.5,339.5 C 392.5,340.167 383.5,340.833 374.5,341.5C 372.034,348.896 369.368,356.229 366.5,363.5C 363.483,356.101 360.483,348.767 357.5,341.5C 348.833,340.833 340.167,340.167 331.5,339.5C 338.784,334.881 345.784,329.881 352.5,324.5C 349.472,316.773 347.139,309.106 345.5,301.5C 352.328,306.415 359.328,311.081 366.5,315.5C 373.672,311.081 380.672,306.415 387.5,301.5C 387.833,301.833 388.167,302.167 388.5,302.5C 385.266,310.032 382.766,317.699 381,325.5C 387.602,330.547 394.435,335.214 401.5,339.5 Z"/></g>
<g><path style="opacity:1" fill="#76c672" d="M 523.5,318.5 C 532.525,318.168 541.525,318.502 550.5,319.5C 550.376,320.107 550.043,320.44 549.5,320.5C 540.833,319.833 532.167,319.167 523.5,318.5 Z"/></g>
<g><path style="opacity:1" fill="#33b0a4" d="M 331.5,339.5 C 340.167,340.167 348.833,340.833 357.5,341.5C 348.475,341.832 339.475,341.498 330.5,340.5C 330.624,339.893 330.957,339.56 331.5,339.5 Z"/></g>
<g><path style="opacity:1" fill="#35b0a4" d="M 401.5,339.5 C 402.043,339.56 402.376,339.893 402.5,340.5C 393.19,341.498 383.857,341.832 374.5,341.5C 383.5,340.833 392.5,340.167 401.5,339.5 Z"/></g>
<g><path style="opacity:1" fill="#faf215" d="M 425.5,359.5 C 432.815,364.474 440.149,369.474 447.5,374.5C 454.672,370.081 461.672,365.415 468.5,360.5C 468.833,360.833 469.167,361.167 469.5,361.5C 466.833,368.833 464.167,376.167 461.5,383.5C 468.621,388.9 475.954,394.067 483.5,399C 474.5,399.333 465.5,399.667 456.5,400C 453.278,407.664 450.445,415.497 448,423.5C 444.872,415.949 442.038,408.282 439.5,400.5C 430.518,399.668 421.518,399.168 412.5,399C 418.66,394.42 424.993,390.086 431.5,386C 432.574,385.261 433.241,384.261 433.5,383C 430.924,375.106 428.258,367.273 425.5,359.5 Z"/></g>
<g><path style="opacity:1" fill="#faf215" d="M 387.5,379.5 C 388.097,379.735 388.43,380.235 388.5,381C 384.968,388.592 382.468,396.426 381,404.5C 387.833,409.333 394.667,414.167 401.5,419C 392.506,419.5 383.506,419.666 374.5,419.5C 372.236,427.291 369.569,434.958 366.5,442.5C 363.036,435.108 360.369,427.441 358.5,419.5C 349.161,419.666 339.827,419.5 330.5,419C 338.272,414.384 345.606,409.218 352.5,403.5C 350.03,396.09 347.364,388.757 344.5,381.5C 345.002,380.479 345.668,380.312 346.5,381C 353.03,385.696 359.697,390.196 366.5,394.5C 373.82,389.831 380.82,384.831 387.5,379.5 Z"/></g>
<g><path style="opacity:1" fill="#f9f217" d="M 295.5,416.5 C 304.167,417.167 312.833,417.833 321.5,418.5C 314.151,422.84 307.151,427.674 300.5,433C 304.032,440.592 306.532,448.426 308,456.5C 301,451.5 294,446.5 287,441.5C 279.921,446.623 272.754,451.623 265.5,456.5C 265.167,456.167 264.833,455.833 264.5,455.5C 267.934,447.702 270.434,439.702 272,431.5C 265.557,427.032 259.057,422.699 252.5,418.5C 261.167,417.833 269.833,417.167 278.5,416.5C 280.833,408.334 283.667,400.334 287,392.5C 289.547,400.642 292.38,408.642 295.5,416.5 Z"/></g>
<g><path style="opacity:1" fill="#76c672" d="M 278.5,416.5 C 269.833,417.167 261.167,417.833 252.5,418.5C 251.957,418.44 251.624,418.107 251.5,417.5C 260.475,416.502 269.475,416.168 278.5,416.5 Z"/></g>
<g><path style="opacity:1" fill="#54ba8b" d="M 295.5,416.5 C 304.525,416.168 313.525,416.502 322.5,417.5C 322.376,418.107 322.043,418.44 321.5,418.5C 312.833,417.833 304.167,417.167 295.5,416.5 Z"/></g>
</svg>
