<?xml version="1.0" encoding="UTF-8"?>
<!DOCTYPE svg PUBLIC "-//W3C//DTD SVG 1.1//EN" "http://www.w3.org/Graphics/SVG/1.1/DTD/svg11.dtd">
<svg xmlns="http://www.w3.org/2000/svg" version="1.1" width="640px" height="480px" style="shape-rendering:geometricPrecision; text-rendering:geometricPrecision; image-rendering:optimizeQuality; fill-rule:evenodd; clip-rule:evenodd" xmlns:xlink="http://www.w3.org/1999/xlink">
<g><path style="opacity:1" fill="#fefefe" d="M -0.5,-0.5 C 212.833,-0.5 426.167,-0.5 639.5,-0.5C 639.5,159.5 639.5,319.5 639.5,479.5C 426.167,479.5 212.833,479.5 -0.5,479.5C -0.5,319.5 -0.5,159.5 -0.5,-0.5 Z"/></g>
<g><path style="opacity:1" fill="#efc13c" d="M 561.5,100.5 C 543.282,104.971 524.948,108.971 506.5,112.5C 507.695,106.646 506.028,101.98 501.5,98.5C 507.177,97.4985 512.843,96.3319 518.5,95C 541.148,88.548 563.648,81.7146 586,74.5C 593.394,75.0609 595.394,78.7276 592,85.5C 588.764,88.8709 584.931,91.3709 580.5,93C 573.948,95.2334 567.615,97.7334 561.5,100.5 Z"/></g>
<g><path style="opacity:1" fill="#efc13c" d="M 362.5,151.5 C 356.954,152.741 351.287,152.574 345.5,151C 338.24,149.191 331.24,146.691 324.5,143.5C 315.596,147.135 306.596,150.135 297.5,152.5C 293.629,152.815 289.962,152.482 286.5,151.5C 288.416,150.335 289.249,148.668 289,146.5C 287.035,147.885 285.202,147.718 283.5,146C 287.956,141.054 292.623,136.387 297.5,132C 296.062,131.781 294.729,131.281 293.5,130.5C 295.149,129.352 296.649,128.019 298,126.5C 300.371,121.638 302.371,116.638 304,111.5C 306.667,109.5 309.333,107.5 312,105.5C 314.074,102.209 313.908,99.0426 311.5,96C 306.971,94.4861 302.805,92.3194 299,89.5C 298.104,86.2079 299.271,83.8745 302.5,82.5C 302.998,85.5926 303.998,88.4259 305.5,91C 310.048,91.9405 314.048,93.9405 317.5,97C 319.167,97.6667 320.833,97.6667 322.5,97C 324.596,95.2342 326.929,93.9009 329.5,93C 326.491,89.9809 322.991,87.8142 319,86.5C 315.883,87.9761 312.716,89.3094 309.5,90.5C 304.849,89.8074 303.349,87.1407 305,82.5C 308.034,76.567 312.867,74.2337 319.5,75.5C 331.123,75.2307 338.956,80.564 343,91.5C 343.4,102.449 346.566,112.449 352.5,121.5C 349.827,122.432 347.161,122.598 344.5,122C 348.833,129 354.5,134.667 361.5,139C 358.911,140.197 356.244,141.197 353.5,142C 356.732,145.062 359.732,148.229 362.5,151.5 Z"/></g>
<g><path style="opacity:1" fill="#eec03b" d="M 530.5,120.5 C 520.822,122.035 511.156,123.702 501.5,125.5C 498.479,125.183 496.479,123.517 495.5,120.5C 498.774,119.129 501.774,117.296 504.5,115C 518.261,112.412 531.928,109.412 545.5,106C 551.144,104.764 556.477,102.931 561.5,100.5C 569.669,98.4436 577.669,95.777 585.5,92.5C 587.585,98.1645 585.918,102.331 580.5,105C 563.704,110.192 547.037,115.358 530.5,120.5 Z"/></g>
<g><path style="opacity:1" fill="#efc13c" d="M 247.5,164.5 C 248.167,176.833 248.833,189.167 249.5,201.5C 249.569,206.854 249.902,212.187 250.5,217.5C 248.365,219.369 245.698,220.036 242.5,219.5C 239.404,217.843 237.737,215.176 237.5,211.5C 236.571,212.689 236.238,214.022 236.5,215.5C 229.154,216.326 225.321,212.993 225,205.5C 217.217,208.907 213.717,206.24 214.5,197.5C 210.014,198.006 206.181,196.672 203,193.5C 202.267,188.537 204.433,185.37 209.5,184C 206.182,183.825 202.849,183.992 199.5,184.5C 190.733,184.545 184.399,180.712 180.5,173C 180.645,172.228 180.978,171.561 181.5,171C 186.132,171.393 190.799,171.393 195.5,171C 187.923,170.799 180.923,168.799 174.5,165C 171.204,162.199 170.871,159.199 173.5,156C 178.833,155.667 184.167,155.333 189.5,155C 181.217,155.173 173.217,153.84 165.5,151C 162.113,148.998 160.613,146.165 161,142.5C 162.062,141.101 163.395,140.101 165,139.5C 170.099,141.346 175.266,141.679 180.5,140.5C 173.747,139.781 167.081,138.614 160.5,137C 153.182,135.707 149.682,131.54 150,124.5C 151.117,122.876 152.617,121.876 154.5,121.5C 162.307,124.288 170.307,125.788 178.5,126C 169.546,123.678 160.546,121.512 151.5,119.5C 147.957,117.798 144.79,115.465 142,112.5C 140.738,108.091 141.572,104.257 144.5,101C 146,100.833 147.5,100.667 149,100.5C 178.847,106.503 207.68,115.67 235.5,128C 241.639,134.092 243.139,141.259 240,149.5C 238.431,153.072 236.098,156.072 233,158.5C 231.868,162.904 233.368,165.904 237.5,167.5C 240.721,166.093 244.055,165.093 247.5,164.5 Z"/></g>
<g><path style="opacity:1" fill="#818182" d="M 281.5,97.5 C 281.205,99.7354 281.539,101.735 282.5,103.5C 282.44,104.043 282.107,104.376 281.5,104.5C 280.203,102.027 280.203,99.6934 281.5,97.5 Z"/></g>
<g><path style="opacity:1" fill="#efc13b" d="M 495.5,100.5 C 502.606,100.105 505.772,103.439 505,110.5C 503.878,112.624 502.378,114.457 500.5,116C 489.675,120.12 478.675,123.453 467.5,126C 475.435,125.227 483.268,123.727 491,121.5C 496.004,122.499 497.67,125.499 496,130.5C 492.995,134.087 489.162,136.254 484.5,137C 478.237,138.559 471.904,139.726 465.5,140.5C 470.551,141.579 475.551,141.246 480.5,139.5C 485.669,140.769 486.836,143.769 484,148.5C 481.318,150.585 478.484,152.252 475.5,153.5C 469.523,154.141 463.523,154.641 457.5,155C 462.885,155.214 468.219,155.714 473.5,156.5C 474.851,162.36 472.518,166.193 466.5,168C 461.208,169.162 455.875,170.162 450.5,171C 455.189,171.291 459.856,171.291 464.5,171C 465.554,172.388 465.72,173.888 465,175.5C 461.456,180.522 456.623,183.356 450.5,184C 445.783,184.476 441.117,184.476 436.5,184C 443.867,186.231 445.2,190.231 440.5,196C 437.883,196.822 435.216,197.322 432.5,197.5C 432.787,206.399 428.954,209.066 421,205.5C 420.724,212.944 416.89,216.277 409.5,215.5C 409.657,214.127 409.49,212.793 409,211.5C 407.695,217.74 403.862,220.406 397.5,219.5C 399.332,201.233 399.999,182.9 399.5,164.5C 400.167,164.5 400.833,164.5 401.5,164.5C 409.281,169.917 413.115,167.917 413,158.5C 405.54,151.664 403.206,143.331 406,133.5C 407.141,131.391 408.641,129.558 410.5,128C 437.798,115.593 466.131,106.426 495.5,100.5 Z"/></g>
<g><path style="opacity:1" fill="#282115" d="M 247.5,162.5 C 247.5,162.833 247.5,163.167 247.5,163.5C 247.5,163.833 247.5,164.167 247.5,164.5C 244.055,165.093 240.721,166.093 237.5,167.5C 233.368,165.904 231.868,162.904 233,158.5C 236.098,156.072 238.431,153.072 240,149.5C 243.139,141.259 241.639,134.092 235.5,128C 207.68,115.67 178.847,106.503 149,100.5C 147.5,100.667 146,100.833 144.5,101C 141.572,104.257 140.738,108.091 142,112.5C 144.79,115.465 147.957,117.798 151.5,119.5C 160.546,121.512 169.546,123.678 178.5,126C 170.307,125.788 162.307,124.288 154.5,121.5C 152.617,121.876 151.117,122.876 150,124.5C 149.682,131.54 153.182,135.707 160.5,137C 167.081,138.614 173.747,139.781 180.5,140.5C 175.266,141.679 170.099,141.346 165,139.5C 163.395,140.101 162.062,141.101 161,142.5C 160.613,146.165 162.113,148.998 165.5,151C 173.217,153.84 181.217,155.173 189.5,155C 184.167,155.333 178.833,155.667 173.5,156C 170.871,159.199 171.204,162.199 174.5,165C 180.923,168.799 187.923,170.799 195.5,171C 190.799,171.393 186.132,171.393 181.5,171C 180.978,171.561 180.645,172.228 180.5,173C 184.399,180.712 190.733,184.545 199.5,184.5C 202.849,183.992 206.182,183.825 209.5,184C 204.433,185.37 202.267,188.537 203,193.5C 206.181,196.672 210.014,198.006 214.5,197.5C 213.717,206.24 217.217,208.907 225,205.5C 225.321,212.993 229.154,216.326 236.5,215.5C 236.238,214.022 236.571,212.689 237.5,211.5C 237.737,215.176 239.404,217.843 242.5,219.5C 242.5,219.833 242.5,220.167 242.5,220.5C 238.167,218.195 233.5,216.695 228.5,216C 225.603,214.285 224.269,211.785 224.5,208.5C 216.487,209.813 212.487,206.479 212.5,198.5C 208.505,199.117 205.172,197.951 202.5,195C 198.167,194.333 193.833,194.333 189.5,195C 185.354,199.625 185.687,203.959 190.5,208C 196.975,208.454 202.975,206.954 208.5,203.5C 209.833,204.167 209.833,204.833 208.5,205.5C 204.356,207.269 200.19,208.936 196,210.5C 195.789,222.654 201.289,226.154 212.5,221C 214.359,219.442 215.859,217.609 217,215.5C 217.315,216.908 216.982,218.241 216,219.5C 213.697,221.393 211.53,223.393 209.5,225.5C 211.844,229.942 215.511,231.609 220.5,230.5C 220.5,230.833 220.5,231.167 220.5,231.5C 213.931,233.224 209.931,230.891 208.5,224.5C 198.009,225.343 193.342,220.676 194.5,210.5C 186.35,208.538 183.684,203.538 186.5,195.5C 178.412,195.356 170.746,193.523 163.5,190C 160.394,187.784 158.727,184.784 158.5,181C 151.504,179.918 145.337,177.085 140,172.5C 139.04,170.02 138.207,167.52 137.5,165C 130.626,164.06 124.293,161.727 118.5,158C 116.282,155.25 114.949,152.083 114.5,148.5C 105.239,146.121 97.0723,141.788 90,135.5C 89.0068,132.692 88.1734,129.859 87.5,127C 79.8288,125.084 73.3288,121.25 68,115.5C 67.0296,112.556 66.1962,109.556 65.5,106.5C 59.3861,103.045 56.5527,97.7114 57,90.5C 50.4177,85.0414 49.9177,79.2081 55.5,73C 58.1667,72.3333 60.8333,72.3333 63.5,73C 76.9541,78.2625 90.6207,82.9292 104.5,87C 135.012,94.3684 165.346,102.368 195.5,111C 207.729,114.743 219.729,119.076 231.5,124C 241.72,129.274 245.22,137.441 242,148.5C 240.651,152.533 238.318,155.866 235,158.5C 234.333,160.5 234.333,162.5 235,164.5C 235.893,165.081 236.893,165.415 238,165.5C 241.141,164.397 244.307,163.397 247.5,162.5 Z"/></g>
<g><path style="opacity:1" fill="#eec03b" d="M 151.5,119.5 C 150.435,123.298 147.935,125.298 144,125.5C 134.476,123.91 124.976,122.243 115.5,120.5C 98.8431,115.672 82.1764,110.506 65.5,105C 63.3333,103.5 61.5,101.667 60,99.5C 59.1859,97.0982 59.3526,94.7649 60.5,92.5C 86.6619,102.942 113.662,110.442 141.5,115C 144.256,117.753 147.589,119.253 151.5,119.5 Z"/></g>
<g><path style="opacity:1" fill="#f0c13c" d="M 55.5,74.5 C 59.5817,74.3436 63.5817,74.8436 67.5,76C 92.6454,85.3702 118.312,93.0369 144.5,99C 140.083,102.43 138.416,106.93 139.5,112.5C 111.089,108.398 83.7557,100.564 57.5,89C 51.8133,84.7552 51.1467,79.9219 55.5,74.5 Z"/></g>
<g><path style="opacity:1" fill="#edbf3b" d="M 115.5,120.5 C 125.822,124.037 136.489,126.704 147.5,128.5C 150.474,134.164 155.141,137.664 161.5,139C 160.48,140.556 159.147,141.722 157.5,142.5C 131.274,138.027 105.608,131.527 80.5,123C 73.4346,120.444 69.1013,115.61 67.5,108.5C 83.3529,113.118 99.3529,117.118 115.5,120.5 Z"/></g>
<g><path style="opacity:1" fill="#eec03b" d="M 555.5,126.5 C 533.242,132.689 510.742,138.022 488,142.5C 486.726,141.465 485.56,140.298 484.5,139C 490.899,137.651 495.566,134.151 498.5,128.5C 509.46,126.462 520.127,123.795 530.5,120.5C 546.64,117.099 562.64,113.099 578.5,108.5C 578.45,113.064 576.45,116.564 572.5,119C 567.128,122.393 561.462,124.893 555.5,126.5 Z"/></g>
<g><path style="opacity:1" fill="#221f1b" d="M 499.5,98.5 C 498.843,99.316 497.51,99.9826 495.5,100.5C 466.131,106.426 437.798,115.593 410.5,128C 408.641,129.558 407.141,131.391 406,133.5C 403.206,143.331 405.54,151.664 413,158.5C 413.115,167.917 409.281,169.917 401.5,164.5C 402.167,164.5 402.5,164.167 402.5,163.5C 404.926,165.218 407.593,165.718 410.5,165C 411.804,164.196 412.471,163.029 412.5,161.5C 411.272,158.762 409.438,156.429 407,154.5C 401.579,144.606 402.413,135.439 409.5,127C 420.347,121.246 431.68,116.58 443.5,113C 461.879,106.906 480.545,102.072 499.5,98.5 Z"/></g>
<g><path style="opacity:1" fill="#2e2511" d="M 499.5,98.5 C 499.842,97.6618 500.508,97.3284 501.5,97.5C 501.5,97.8333 501.5,98.1667 501.5,98.5C 506.028,101.98 507.695,106.646 506.5,112.5C 524.948,108.971 543.282,104.971 561.5,100.5C 556.477,102.931 551.144,104.764 545.5,106C 531.928,109.412 518.261,112.412 504.5,115C 501.774,117.296 498.774,119.129 495.5,120.5C 496.479,123.517 498.479,125.183 501.5,125.5C 511.156,123.702 520.822,122.035 530.5,120.5C 520.127,123.795 509.46,126.462 498.5,128.5C 495.566,134.151 490.899,137.651 484.5,139C 485.56,140.298 486.726,141.465 488,142.5C 510.742,138.022 533.242,132.689 555.5,126.5C 555.833,127.167 556.167,127.833 556.5,128.5C 534.342,134.132 512.008,139.132 489.5,143.5C 487.161,145.647 485.161,148.147 483.5,151C 480.929,152.454 478.262,153.62 475.5,154.5C 475.5,154.167 475.5,153.833 475.5,153.5C 478.484,152.252 481.318,150.585 484,148.5C 486.836,143.769 485.669,140.769 480.5,139.5C 475.551,141.246 470.551,141.579 465.5,140.5C 471.904,139.726 478.237,138.559 484.5,137C 489.162,136.254 492.995,134.087 496,130.5C 497.67,125.499 496.004,122.499 491,121.5C 483.268,123.727 475.435,125.227 467.5,126C 478.675,123.453 489.675,120.12 500.5,116C 502.378,114.457 503.878,112.624 505,110.5C 505.772,103.439 502.606,100.105 495.5,100.5C 497.51,99.9826 498.843,99.316 499.5,98.5 Z"/></g>
<g><path style="opacity:1" fill="#eec03b" d="M 556.5,128.5 C 556.445,133.109 554.445,136.609 550.5,139C 546.065,141.551 541.399,143.551 536.5,145C 519.602,149.179 502.602,152.846 485.5,156C 482.167,156.667 478.833,156.667 475.5,156C 474.262,155.31 474.262,154.81 475.5,154.5C 478.262,153.62 480.929,152.454 483.5,151C 485.161,148.147 487.161,145.647 489.5,143.5C 512.008,139.132 534.342,134.132 556.5,128.5 Z"/></g>
<g><path style="opacity:1" fill="#241d0d" d="M 437.5,123.5 C 438.552,123.351 439.552,123.517 440.5,124C 434.385,126.789 429.552,130.955 426,136.5C 425.868,142.454 427.202,148.12 430,153.5C 430.667,158.5 430.667,163.5 430,168.5C 429.313,170.555 428.146,172.221 426.5,173.5C 430.774,164.364 430.274,155.031 425,145.5C 423.35,139.074 424.85,133.574 429.5,129C 432.407,127.391 435.073,125.558 437.5,123.5 Z"/></g>
<g><path style="opacity:1" fill="#252019" d="M 363.5,151.5 C 363.167,151.5 362.833,151.5 362.5,151.5C 359.732,148.229 356.732,145.062 353.5,142C 356.244,141.197 358.911,140.197 361.5,139C 354.5,134.667 348.833,129 344.5,122C 347.161,122.598 349.827,122.432 352.5,121.5C 346.566,112.449 343.4,102.449 343,91.5C 338.956,80.564 331.123,75.2307 319.5,75.5C 312.867,74.2337 308.034,76.567 305,82.5C 303.349,87.1407 304.849,89.8074 309.5,90.5C 312.716,89.3094 315.883,87.9761 319,86.5C 322.991,87.8142 326.491,89.9809 329.5,93C 326.929,93.9009 324.596,95.2342 322.5,97C 320.833,97.6667 319.167,97.6667 317.5,97C 314.048,93.9405 310.048,91.9405 305.5,91C 303.998,88.4259 302.998,85.5926 302.5,82.5C 299.271,83.8745 298.104,86.2079 299,89.5C 302.805,92.3194 306.971,94.4861 311.5,96C 313.908,99.0426 314.074,102.209 312,105.5C 309.333,107.5 306.667,109.5 304,111.5C 302.371,116.638 300.371,121.638 298,126.5C 296.649,128.019 295.149,129.352 293.5,130.5C 294.729,131.281 296.062,131.781 297.5,132C 292.623,136.387 287.956,141.054 283.5,146C 285.202,147.718 287.035,147.885 289,146.5C 289.249,148.668 288.416,150.335 286.5,151.5C 286.167,151.5 285.833,151.5 285.5,151.5C 285.804,150.85 286.137,150.183 286.5,149.5C 283.836,148.502 281.503,147.002 279.5,145C 280.833,144.667 282.167,144.333 283.5,144C 287.203,140.633 290.536,136.966 293.5,133C 292.241,132.077 290.908,131.243 289.5,130.5C 292.421,129.457 294.921,127.79 297,125.5C 298.971,118.902 301.471,112.569 304.5,106.5C 304.55,103.426 303.217,101.259 300.5,100C 295.5,99.3333 290.5,99.3333 285.5,100C 284.29,101.039 283.29,102.206 282.5,103.5C 281.539,101.735 281.205,99.7354 281.5,97.5C 281.963,92.7381 284.296,89.2381 288.5,87C 291.553,86.8214 294.553,86.3214 297.5,85.5C 302.38,81.663 307.38,77.8297 312.5,74C 328.514,71.2528 339.347,77.4194 345,92.5C 344.857,103.571 348.024,113.571 354.5,122.5C 352.234,123.314 349.9,123.814 347.5,124C 351.929,130.43 357.595,135.43 364.5,139C 362.044,140.711 359.377,142.044 356.5,143C 359.423,145.416 361.757,148.25 363.5,151.5 Z"/></g>
<g><path style="opacity:1" fill="#e8bb3a" d="M 316.5,88.5 C 320.35,87.9253 323.35,89.2587 325.5,92.5C 321.141,96.41 316.808,96.2433 312.5,92C 314.093,91.0513 315.426,89.8846 316.5,88.5 Z"/></g>
<g><path style="opacity:1" fill="#e8bb3a" d="M 290.5,87.5 C 292.833,87.5 295.167,87.5 297.5,87.5C 297.297,89.3904 297.963,90.8904 299.5,92C 303.058,94.4083 306.891,96.2416 311,97.5C 312.418,101.837 311.252,105.171 307.5,107.5C 306.784,102.623 304.117,99.4559 299.5,98C 294.513,97.9975 289.513,98.3308 284.5,99C 284,99.5 283.5,100 283,100.5C 282.412,94.3385 284.912,90.0052 290.5,87.5 Z"/></g>
<g><path style="opacity:1" fill="#2e2510" d="M 198.5,133.5 C 199.043,133.56 199.376,133.893 199.5,134.5C 194.995,140.659 195.995,145.825 202.5,150C 200.478,155.322 201.645,159.822 206,163.5C 206.688,164.332 206.521,164.998 205.5,165.5C 200.544,161.8 198.878,156.967 200.5,151C 194.81,145.682 194.144,139.849 198.5,133.5 Z"/></g>
<g><path style="opacity:1" fill="#152566" d="M 397.5,199.5 C 348.5,199.5 299.5,199.5 250.5,199.5C 250.167,181.821 250.5,164.154 251.5,146.5C 266.309,153.292 281.642,155.292 297.5,152.5C 307.088,151.853 316.088,149.186 324.5,144.5C 340.18,152.836 356.847,155.669 374.5,153C 382.318,151.629 389.984,149.795 397.5,147.5C 397.5,164.833 397.5,182.167 397.5,199.5 Z"/></g>
<g><path style="opacity:1" fill="#302611" d="M 446.5,133.5 C 451.628,138.575 451.794,143.908 447,149.5C 447.839,156.143 445.672,161.476 440.5,165.5C 440.167,165.167 439.833,164.833 439.5,164.5C 441.459,163.252 442.959,161.585 444,159.5C 443.618,153.66 445.284,148.66 449,144.5C 449.667,142.5 449.667,140.5 449,138.5C 447.906,136.922 447.072,135.255 446.5,133.5 Z"/></g>
<g><path style="opacity:1" fill="#ecbe3b" d="M 89.5,128.5 C 112.255,134.737 135.255,139.904 158.5,144C 161.052,149.712 165.386,153.546 171.5,155.5C 165.524,156.137 159.524,156.304 153.5,156C 158.99,157.889 164.657,158.722 170.5,158.5C 171.081,164.59 174.414,168.423 180.5,170C 179.975,170.692 179.308,171.192 178.5,171.5C 161.392,168.578 144.392,165.078 127.5,161C 123.836,159.998 120.669,158.164 118,155.5C 116.872,153.655 116.372,151.655 116.5,149.5C 128.428,152.054 140.428,153.887 152.5,155C 135.902,152.101 119.569,148.101 103.5,143C 98.7856,140.949 94.6189,138.115 91,134.5C 89.872,132.655 89.372,130.655 89.5,128.5 Z"/></g>
<g><path style="opacity:1" fill="#221b0d" d="M 216.5,166.5 C 214.593,158.844 215.76,151.51 220,144.5C 220.965,140.218 220.298,136.218 218,132.5C 214.266,129.048 210.1,126.215 205.5,124C 217.618,126.122 222.785,133.289 221,145.5C 217.759,152.131 216.259,159.131 216.5,166.5 Z"/></g>
<g><path style="opacity:1" fill="#121015" d="M 362.5,151.5 C 362.833,151.5 363.167,151.5 363.5,151.5C 375.616,152.41 387.283,150.077 398.5,144.5C 399.496,150.798 399.83,157.132 399.5,163.5C 400.5,163.5 401.5,163.5 402.5,163.5C 402.5,164.167 402.167,164.5 401.5,164.5C 400.833,164.5 400.167,164.5 399.5,164.5C 398.833,176.167 398.167,187.833 397.5,199.5C 397.5,182.167 397.5,164.833 397.5,147.5C 389.984,149.795 382.318,151.629 374.5,153C 356.847,155.669 340.18,152.836 324.5,144.5C 316.088,149.186 307.088,151.853 297.5,152.5C 306.596,150.135 315.596,147.135 324.5,143.5C 331.24,146.691 338.24,149.191 345.5,151C 351.287,152.574 356.954,152.741 362.5,151.5 Z"/></g>
<g><path style="opacity:1" fill="#b18f2c" d="M 247.5,164.5 C 247.5,164.167 247.5,163.833 247.5,163.5C 249.48,175.789 250.147,188.456 249.5,201.5C 248.833,189.167 248.167,176.833 247.5,164.5 Z"/></g>
<g><path style="opacity:1" fill="#ecbf3b" d="M 140.5,166.5 C 153.506,168.502 166.506,170.502 179.5,172.5C 180.02,176.536 182.02,179.703 185.5,182C 173.273,182.074 161.273,180.407 149.5,177C 146.751,175.877 144.251,174.377 142,172.5C 140.872,170.655 140.372,168.655 140.5,166.5 Z"/></g>
<g><path style="opacity:1" fill="#2c2310" d="M 216.5,166.5 C 217.933,168.519 219.267,170.686 220.5,173C 219.551,173.617 218.718,173.451 218,172.5C 216.872,170.655 216.372,168.655 216.5,166.5 Z"/></g>
<g><path style="opacity:1" fill="#ebbe3b" d="M 195.5,185.5 C 197.5,186.167 199.5,186.833 201.5,187.5C 200.699,189.042 200.366,190.708 200.5,192.5C 191.135,193.998 181.802,193.832 172.5,192C 167.937,191.1 164.104,188.933 161,185.5C 160.51,184.207 160.343,182.873 160.5,181.5C 172.094,183.612 183.761,184.946 195.5,185.5 Z"/></g>
<g><path style="opacity:1" fill="#866c22" d="M 195.5,185.5 C 197.924,185.192 200.257,185.526 202.5,186.5C 202.376,187.107 202.043,187.44 201.5,187.5C 199.5,186.833 197.5,186.167 195.5,185.5 Z"/></g>
<g><path style="opacity:1" fill="#585758" d="M 67.5,190.5 C 57.1667,189.167 46.8333,189.167 36.5,190.5C 35.2438,190.539 34.2438,190.039 33.5,189C 45.5,188.333 57.5,188.333 69.5,189C 68.9558,189.717 68.2891,190.217 67.5,190.5 Z"/></g>
<g><path style="opacity:1" fill="#484748" d="M 123.5,190.5 C 113.5,189.167 103.5,189.167 93.5,190.5C 92.7109,190.217 92.0442,189.717 91.5,189C 103.167,188.333 114.833,188.333 126.5,189C 125.473,189.513 124.473,190.013 123.5,190.5 Z"/></g>
<g><path style="opacity:1" fill="#5a595a" d="M 602.5,190.5 C 592.833,189.167 583.167,189.167 573.5,190.5C 572.527,190.013 571.527,189.513 570.5,189C 582.167,188.333 593.833,188.333 605.5,189C 604.473,189.513 603.473,190.013 602.5,190.5 Z"/></g>
<g><path style="opacity:1" fill="#ecbf3b" d="M 242.5,220.5 C 245.5,220.5 248.5,220.5 251.5,220.5C 252.053,224.763 253.053,228.93 254.5,233C 254.095,233.945 253.428,234.612 252.5,235C 244.066,237.396 239.732,234.229 239.5,225.5C 239.756,235.52 235.423,238.187 226.5,233.5C 225.447,232.562 224.78,231.395 224.5,230C 225.953,227.595 227.287,225.095 228.5,222.5C 228.167,222.167 227.833,221.833 227.5,221.5C 226.234,225.421 223.901,228.421 220.5,230.5C 215.511,231.609 211.844,229.942 209.5,225.5C 211.53,223.393 213.697,221.393 216,219.5C 216.982,218.241 217.315,216.908 217,215.5C 215.859,217.609 214.359,219.442 212.5,221C 201.289,226.154 195.789,222.654 196,210.5C 200.19,208.936 204.356,207.269 208.5,205.5C 209.833,204.833 209.833,204.167 208.5,203.5C 202.975,206.954 196.975,208.454 190.5,208C 185.687,203.959 185.354,199.625 189.5,195C 193.833,194.333 198.167,194.333 202.5,195C 205.172,197.951 208.505,199.117 212.5,198.5C 212.487,206.479 216.487,209.813 224.5,208.5C 224.269,211.785 225.603,214.285 228.5,216C 233.5,216.695 238.167,218.195 242.5,220.5 Z"/></g>
<g><path style="opacity:1" fill="#2e2510" d="M 203.5,168.5 C 204.85,177.531 210.183,181.864 219.5,181.5C 219.483,190.81 224.15,194.81 233.5,193.5C 233.549,196.099 234.549,198.266 236.5,200C 239.77,200.995 243.103,201.828 246.5,202.5C 240.183,204.341 235.516,202.341 232.5,196.5C 226.642,195.993 222.142,193.326 219,188.5C 218.506,186.866 218.34,185.199 218.5,183.5C 208.452,183.452 203.452,178.452 203.5,168.5 Z"/></g>
<g><path style="opacity:1" fill="#231e15" d="M 468.5,193.5 C 465.642,194.166 462.642,194.833 459.5,195.5C 462.186,199.588 462.02,203.588 459,207.5C 456.772,209.113 454.272,209.78 451.5,209.5C 453.076,213.865 452.409,217.865 449.5,221.5C 445.847,223.942 441.847,225.608 437.5,226.5C 434.204,231.457 429.704,232.791 424,230.5C 422.74,233.428 420.573,235.261 417.5,236C 413.428,236.956 409.595,236.456 406,234.5C 402.276,237.232 398.276,237.899 394,236.5C 391.99,238.871 390.99,241.537 391,244.5C 396.26,251.763 402.26,258.43 409,264.5C 415.892,272.22 418.392,281.22 416.5,291.5C 415.675,287.353 415.175,283.019 415,278.5C 414.275,276.051 413.275,273.717 412,271.5C 404.97,263.142 397.97,254.808 391,246.5C 390.23,245.402 389.397,245.402 388.5,246.5C 387.833,246.5 387.5,246.167 387.5,245.5C 388.401,244.71 389.068,243.71 389.5,242.5C 392.003,235.459 394.336,228.459 396.5,221.5C 396.833,214.833 397.167,208.167 397.5,201.5C 394.5,201.5 391.5,201.5 388.5,201.5C 391.5,200.833 394.5,200.167 397.5,199.5C 398.167,187.833 398.833,176.167 399.5,164.5C 399.999,182.9 399.332,201.233 397.5,219.5C 403.862,220.406 407.695,217.74 409,211.5C 409.49,212.793 409.657,214.127 409.5,215.5C 416.89,216.277 420.724,212.944 421,205.5C 428.954,209.066 432.787,206.399 432.5,197.5C 435.216,197.322 437.883,196.822 440.5,196C 445.2,190.231 443.867,186.231 436.5,184C 441.117,184.476 445.783,184.476 450.5,184C 456.623,183.356 461.456,180.522 465,175.5C 465.72,173.888 465.554,172.388 464.5,171C 459.856,171.291 455.189,171.291 450.5,171C 455.875,170.162 461.208,169.162 466.5,168C 472.518,166.193 474.851,162.36 473.5,156.5C 468.219,155.714 462.885,155.214 457.5,155C 463.523,154.641 469.523,154.141 475.5,153.5C 475.5,153.833 475.5,154.167 475.5,154.5C 474.262,154.81 474.262,155.31 475.5,156C 478.833,156.667 482.167,156.667 485.5,156C 502.602,152.846 519.602,149.179 536.5,145C 541.399,143.551 546.065,141.551 550.5,139C 554.445,136.609 556.445,133.109 556.5,128.5C 556.167,127.833 555.833,127.167 555.5,126.5C 561.462,124.893 567.128,122.393 572.5,119C 576.45,116.564 578.45,113.064 578.5,108.5C 562.64,113.099 546.64,117.099 530.5,120.5C 547.037,115.358 563.704,110.192 580.5,105C 585.918,102.331 587.585,98.1645 585.5,92.5C 577.669,95.777 569.669,98.4436 561.5,100.5C 567.615,97.7334 573.948,95.2334 580.5,93C 584.931,91.3709 588.764,88.8709 592,85.5C 595.394,78.7276 593.394,75.0609 586,74.5C 563.648,81.7146 541.148,88.548 518.5,95C 512.843,96.3319 507.177,97.4985 501.5,98.5C 501.5,98.1667 501.5,97.8333 501.5,97.5C 528.918,90.8618 555.918,82.6952 582.5,73C 592.504,71.3397 596.337,75.5064 594,85.5C 589.238,88.5173 587.238,92.8506 588,98.5C 586.699,102.301 584.199,104.968 580.5,106.5C 580.318,112.697 577.651,117.531 572.5,121C 567.997,123.39 563.331,125.39 558.5,127C 558.164,131.054 556.83,134.721 554.5,138C 547.331,142.585 539.664,146.085 531.5,148.5C 531.4,152.814 529.734,156.314 526.5,159C 520.68,161.662 514.68,163.829 508.5,165.5C 508.015,169.304 506.348,172.471 503.5,175C 498.585,178.124 493.252,180.124 487.5,181C 486.243,187.591 482.243,191.591 475.5,193C 473.19,193.497 470.857,193.663 468.5,193.5 Z"/></g>
<g><path style="opacity:1" fill="#ecbf3b" d="M 396.5,221.5 C 403.417,219.43 410.417,217.597 417.5,216C 420.397,214.285 421.731,211.785 421.5,208.5C 429.994,210.278 433.994,206.945 433.5,198.5C 438.688,198.042 443.522,196.709 448,194.5C 452.021,194.499 455.688,195.499 459,197.5C 460,206.164 456.166,209.664 447.5,208C 444.006,206.783 440.673,205.283 437.5,203.5C 437.167,203.833 436.833,204.167 436.5,204.5C 440.774,206.981 445.274,208.981 450,210.5C 451.237,219.93 447.071,224.096 437.5,223C 433.754,221.631 431.088,219.131 429.5,215.5C 429.167,215.833 428.833,216.167 428.5,216.5C 430.482,220.146 433.149,223.146 436.5,225.5C 433.215,230.493 428.881,231.66 423.5,229C 421.198,226.533 419.531,223.7 418.5,220.5C 418.167,221 417.833,221.5 417.5,222C 418.716,224.93 420.049,227.763 421.5,230.5C 420.523,233.175 418.523,234.675 415.5,235C 408.304,236.128 405.47,232.961 407,225.5C 406.631,233.447 402.465,236.78 394.5,235.5C 395.376,230.868 396.043,226.201 396.5,221.5 Z"/></g>
<g><path style="opacity:1" fill="#28200f" d="M 441.5,168.5 C 443.803,174.732 441.47,179.232 434.5,182C 432.5,182.333 430.5,182.667 428.5,183C 427.746,191.4 423.08,195.733 414.5,196C 411.391,201.724 406.724,203.89 400.5,202.5C 406.865,202.658 411.198,199.824 413.5,194C 422.325,194.34 426.658,190.174 426.5,181.5C 436.213,182.447 441.213,178.114 441.5,168.5 Z"/></g>
<g><path style="opacity:1" fill="#eabd3a" d="M 468.5,193.5 C 461.492,193.666 454.492,193.5 447.5,193C 445.864,191.566 444.864,189.733 444.5,187.5C 447.367,186.226 450.367,185.393 453.5,185C 464.214,184.162 474.88,182.995 485.5,181.5C 485.731,184.785 484.397,187.285 481.5,189C 477.009,190.363 472.676,191.863 468.5,193.5 Z"/></g>
<g><path style="opacity:1" fill="#edbf3b" d="M 503.5,165.5 C 504.693,165.97 505.36,166.97 505.5,168.5C 504.347,173.11 501.347,175.943 496.5,177C 484.72,180.408 472.72,182.075 460.5,182C 463.595,179.574 465.928,176.574 467.5,173C 479.722,170.923 491.722,168.423 503.5,165.5 Z"/></g>
<g><path style="opacity:1" fill="#ecbf3b" d="M 523.5,149.5 C 525.5,149.5 527.5,149.5 529.5,149.5C 529.801,154.048 527.801,157.215 523.5,159C 505.101,164.38 486.434,168.546 467.5,171.5C 466.692,171.192 466.025,170.692 465.5,170C 470.965,168.368 474.632,164.868 476.5,159.5C 492.406,156.654 508.073,153.32 523.5,149.5 Z"/></g>
<g><path style="opacity:1" fill="#17212b" d="M 573.5,190.5 C 583.167,189.167 592.833,189.167 602.5,190.5C 600.321,190.84 598.488,191.84 597,193.5C 596.333,223.833 596.333,254.167 597,284.5C 598.741,285.758 600.574,286.758 602.5,287.5C 592.833,288.833 583.167,288.833 573.5,287.5C 575.735,286.772 577.568,285.439 579,283.5C 579.667,253.833 579.667,224.167 579,194.5C 577.549,192.536 575.716,191.203 573.5,190.5 Z"/></g>
<g><path style="opacity:1" fill="#0080c5" d="M 577.5,191.5 C 583.987,190.346 590.654,190.179 597.5,191C 596.299,191.903 595.465,193.069 595,194.5C 594.333,224.167 594.333,253.833 595,283.5C 595.465,284.931 596.299,286.097 597.5,287C 590.833,287.667 584.167,287.667 577.5,287C 579.049,285.786 580.215,284.286 581,282.5C 581.667,253.167 581.667,223.833 581,194.5C 579.961,193.29 578.794,192.29 577.5,191.5 Z"/></g>
<g><path style="opacity:1" fill="#fafafa" d="M 260.5,201.5 C 260.667,215.837 260.5,230.171 260,244.5C 256.206,234.64 253.372,224.64 251.5,214.5C 251.073,210.176 250.739,205.842 250.5,201.5C 253.833,201.5 257.167,201.5 260.5,201.5 Z"/></g>
<g><path style="opacity:1" fill="#fdfdfd" d="M 306.5,297.5 C 302.817,295.659 299.484,293.326 296.5,290.5C 296.5,260.833 296.5,231.167 296.5,201.5C 299.833,201.5 303.167,201.5 306.5,201.5C 306.5,233.5 306.5,265.5 306.5,297.5 Z"/></g>
<g><path style="opacity:1" fill="#f6f6f6" d="M 342.5,201.5 C 345.833,201.5 349.167,201.5 352.5,201.5C 352.5,231.167 352.5,260.833 352.5,290.5C 349.211,292.616 346.044,294.949 343,297.5C 342.5,265.502 342.333,233.502 342.5,201.5 Z"/></g>
<g><path style="opacity:1" fill="#1c0e12" d="M 285.5,151.5 C 285.833,151.5 286.167,151.5 286.5,151.5C 289.962,152.482 293.629,152.815 297.5,152.5C 281.642,155.292 266.309,153.292 251.5,146.5C 250.5,164.154 250.167,181.821 250.5,199.5C 299.5,199.5 348.5,199.5 397.5,199.5C 394.5,200.167 391.5,200.833 388.5,201.5C 387.504,215.99 387.171,230.657 387.5,245.5C 387.5,246.167 387.833,246.5 388.5,246.5C 383.649,258.868 376.316,269.534 366.5,278.5C 366.167,279.167 365.833,279.833 365.5,280.5C 365.5,280.833 365.5,281.167 365.5,281.5C 364.624,281.369 363.957,281.702 363.5,282.5C 365.4,285.629 366.733,288.963 367.5,292.5C 366.833,292.5 366.167,292.5 365.5,292.5C 365.755,289.01 364.422,286.343 361.5,284.5C 359.954,285.212 358.954,286.378 358.5,288C 359.414,289.406 360.08,290.906 360.5,292.5C 360.672,293.492 360.338,294.158 359.5,294.5C 358.955,292.407 358.122,290.407 357,288.5C 355.871,290.141 354.371,291.141 352.5,291.5C 352.5,291.167 352.5,290.833 352.5,290.5C 352.5,260.833 352.5,231.167 352.5,201.5C 349.167,201.5 345.833,201.5 342.5,201.5C 341.172,234.069 341.172,266.736 342.5,299.5C 341.71,300.401 340.71,301.068 339.5,301.5C 338.662,301.842 338.328,302.508 338.5,303.5C 335.978,304.011 333.645,305.011 331.5,306.5C 330.833,307.5 330.167,308.5 329.5,309.5C 329.631,308.761 329.464,308.094 329,307.5C 327.416,308.861 325.582,309.528 323.5,309.5C 323.5,309.167 323.5,308.833 323.5,308.5C 325.258,308.123 326.925,307.456 328.5,306.5C 329.5,271.506 329.833,236.506 329.5,201.5C 326.167,201.5 322.833,201.5 319.5,201.5C 319.5,236.167 319.5,270.833 319.5,305.5C 318.833,305.167 318.167,304.833 317.5,304.5C 317.5,270.167 317.5,235.833 317.5,201.5C 314.167,201.5 310.833,201.5 307.5,201.5C 307.167,234.173 307.5,266.84 308.5,299.5C 310.36,300.26 312.027,301.26 313.5,302.5C 313.5,303.167 313.167,303.5 312.5,303.5C 308.313,302.069 306.313,303.735 306.5,308.5C 305.662,308.158 305.328,307.492 305.5,306.5C 305.877,304.742 306.544,303.075 307.5,301.5C 306.807,300.482 306.141,299.482 305.5,298.5C 306.167,298.5 306.5,298.167 306.5,297.5C 306.5,265.5 306.5,233.5 306.5,201.5C 303.167,201.5 299.833,201.5 296.5,201.5C 296.5,231.167 296.5,260.833 296.5,290.5C 295.609,289.89 294.609,289.557 293.5,289.5C 292.833,289.167 292.167,288.833 291.5,288.5C 290.5,287.5 289.5,286.5 288.5,285.5C 287.206,284.71 286.039,283.71 285,282.5C 282.135,285.228 280.635,288.562 280.5,292.5C 279.833,292.5 279.167,292.5 278.5,292.5C 279.341,288.482 281.008,284.816 283.5,281.5C 283.376,280.893 283.043,280.56 282.5,280.5C 282.167,280.5 281.833,280.5 281.5,280.5C 277.241,274.396 272.741,268.396 268,262.5C 264.941,257.715 262.441,252.715 260.5,247.5C 261.823,232.069 261.823,216.735 260.5,201.5C 257.167,201.5 253.833,201.5 250.5,201.5C 250.739,205.842 251.073,210.176 251.5,214.5C 251.737,215.791 251.404,216.791 250.5,217.5C 249.902,212.187 249.569,206.854 249.5,201.5C 250.147,188.456 249.48,175.789 247.5,163.5C 247.5,163.167 247.5,162.833 247.5,162.5C 249.295,156.916 250.129,150.916 250,144.5C 261.349,149.801 273.183,152.134 285.5,151.5 Z"/></g>
<g><path style="opacity:1" fill="#fefefe" d="M 365.5,201.5 C 368.5,201.5 371.5,201.5 374.5,201.5C 374.667,223.836 374.5,246.169 374,268.5C 371.665,271.665 369.165,274.665 366.5,277.5C 365.502,252.339 365.169,227.005 365.5,201.5 Z"/></g>
<g><path style="opacity:1" fill="#737273" d="M 365.5,201.5 C 365.169,227.005 365.502,252.339 366.5,277.5C 366.5,277.833 366.5,278.167 366.5,278.5C 365.167,266.018 364.501,253.185 364.5,240C 364.5,226.996 364.833,214.162 365.5,201.5 Z"/></g>
<g><path style="opacity:1" fill="#a30031" d="M 353.5,201.5 C 356.833,201.5 360.167,201.5 363.5,201.5C 363.667,227.835 363.5,254.169 363,280.5C 360.318,283.35 357.484,286.016 354.5,288.5C 353.5,259.508 353.167,230.508 353.5,201.5 Z"/></g>
<g><path style="opacity:1" fill="#a50031" d="M 331.5,201.5 C 334.5,201.5 337.5,201.5 340.5,201.5C 340.667,234.168 340.5,266.835 340,299.5C 337.525,300.986 335.025,302.319 332.5,303.5C 331.502,269.671 331.168,235.671 331.5,201.5 Z"/></g>
<g><path style="opacity:1" fill="#7c0025" d="M 331.5,201.5 C 331.168,235.671 331.502,269.671 332.5,303.5C 332.44,304.043 332.107,304.376 331.5,304.5C 330.17,270.002 330.17,235.669 331.5,201.5 Z"/></g>
<g><path style="opacity:1" fill="#f8f8f8" d="M 323.5,308.5 C 322.167,307.5 320.833,306.5 319.5,305.5C 319.5,270.833 319.5,236.167 319.5,201.5C 322.833,201.5 326.167,201.5 329.5,201.5C 329.833,236.506 329.5,271.506 328.5,306.5C 326.925,307.456 325.258,308.123 323.5,308.5 Z"/></g>
<g><path style="opacity:1" fill="#9e002f" d="M 317.5,304.5 C 316.167,303.833 314.833,303.167 313.5,302.5C 312.027,301.26 310.36,300.26 308.5,299.5C 307.5,266.84 307.167,234.173 307.5,201.5C 310.833,201.5 314.167,201.5 317.5,201.5C 317.5,235.833 317.5,270.167 317.5,304.5 Z"/></g>
<g><path style="opacity:1" fill="#a50031" d="M 285.5,201.5 C 288.5,201.5 291.5,201.5 294.5,201.5C 294.667,230.502 294.5,259.502 294,288.5C 291.629,285.794 288.963,283.461 286,281.5C 285.5,254.835 285.333,228.169 285.5,201.5 Z"/></g>
<g><path style="opacity:1" fill="#fbfbfb" d="M 273.5,201.5 C 276.833,201.5 280.167,201.5 283.5,201.5C 283.667,227.169 283.5,252.835 283,278.5C 280,274.833 277,271.167 274,267.5C 273.5,245.503 273.333,223.503 273.5,201.5 Z"/></g>
<g><path style="opacity:1" fill="#9e002f" d="M 262.5,201.5 C 265.833,201.5 269.167,201.5 272.5,201.5C 272.667,222.503 272.5,243.503 272,264.5C 268.501,260.173 265.501,255.506 263,250.5C 262.5,234.17 262.333,217.837 262.5,201.5 Z"/></g>
<g><path style="opacity:1" fill="#a40031" d="M 376.5,201.5 C 379.833,201.5 383.167,201.5 386.5,201.5C 386.667,217.503 386.5,233.503 386,249.5C 383.252,254.666 380.252,259.666 377,264.5C 376.5,243.503 376.333,222.503 376.5,201.5 Z"/></g>
<g><path style="opacity:1" fill="#8b8b8c" d="M 388.5,201.5 C 388.171,215.344 388.504,229.01 389.5,242.5C 389.068,243.71 388.401,244.71 387.5,245.5C 387.171,230.657 387.504,215.99 388.5,201.5 Z"/></g>
<g><path style="opacity:1" fill="#fafafa" d="M 388.5,201.5 C 391.5,201.5 394.5,201.5 397.5,201.5C 397.167,208.167 396.833,214.833 396.5,221.5C 394.336,228.459 392.003,235.459 389.5,242.5C 388.504,229.01 388.171,215.344 388.5,201.5 Z"/></g>
<g><path style="opacity:1" fill="#338d40" d="M 160.5,230.5 C 161.328,224.013 161.828,217.346 162,210.5C 163.528,207.583 164.861,204.583 166,201.5C 170.613,207.954 171.613,214.954 169,222.5C 167.254,226.327 165.254,229.993 163,233.5C 162.039,240.291 163.372,246.624 167,252.5C 167.667,253.833 168.333,253.833 169,252.5C 169.333,246.5 169.667,240.5 170,234.5C 172.495,231.172 175.329,228.172 178.5,225.5C 179.659,229.122 179.825,232.789 179,236.5C 176.667,240.167 174.333,243.833 172,247.5C 170.879,254.441 171.712,261.108 174.5,267.5C 174.833,267.833 175.167,268.167 175.5,268.5C 174.602,259.839 177.435,252.839 184,247.5C 184.815,245.377 185.815,243.377 187,241.5C 189.156,245.262 189.823,249.262 189,253.5C 186.333,257.5 183.667,261.5 181,265.5C 179.597,273.384 180.93,280.717 185,287.5C 186.103,281.929 187.103,276.263 188,270.5C 191.827,267.673 194.494,264.007 196,259.5C 200.741,270.031 198.407,278.698 189,285.5C 188.219,286.729 187.719,288.062 187.5,289.5C 193.373,307 196.54,306.333 197,287.5C 201.154,284.348 204.154,280.348 206,275.5C 207.52,279.375 207.854,283.375 207,287.5C 204.769,292.731 202.103,297.731 199,302.5C 198.503,305.146 198.336,307.813 198.5,310.5C 196.801,310.34 195.134,310.506 193.5,311C 190.598,313.417 187.598,315.584 184.5,317.5C 178.629,319.323 172.629,319.823 166.5,319C 165.167,318.333 165.167,317.667 166.5,317C 170.165,315.503 173.498,313.503 176.5,311C 180.853,310.755 185.187,310.755 189.5,311C 187.702,308.528 185.368,306.861 182.5,306C 176.465,306.012 170.465,306.346 164.5,307C 159.846,305.338 155.846,302.671 152.5,299C 158.732,298.594 164.898,297.76 171,296.5C 175.302,296.545 179.135,297.878 182.5,300.5C 182.545,295.328 179.878,291.828 174.5,290C 172.722,289.296 170.888,288.796 169,288.5C 160.481,290.771 153.314,288.604 147.5,282C 154.449,280.509 161.449,279.842 168.5,280C 171.732,281.23 174.399,283.23 176.5,286C 177.167,286.667 177.833,286.667 178.5,286C 176.28,281.116 173.28,276.782 169.5,273C 167.361,271.596 165.028,270.763 162.5,270.5C 158.598,271.972 154.598,272.472 150.5,272C 146.59,270.093 143.256,267.427 140.5,264C 147.833,263.333 155.167,263.333 162.5,264C 164.754,265.377 166.92,266.877 169,268.5C 165.855,256.721 158.022,250.887 145.5,251C 139.737,247.813 136.404,243.313 135.5,237.5C 140.373,239.071 145.373,240.237 150.5,241C 153.387,245.631 157.053,249.464 161.5,252.5C 161.529,239.348 154.862,231.848 141.5,230C 132.449,226.064 127.116,219.231 125.5,209.5C 129.769,209.734 133.769,210.901 137.5,213C 141.167,218 144.833,223 148.5,228C 150.811,230.164 153.478,231.164 156.5,231C 154.152,222.467 149.652,215.3 143,209.5C 139.96,202.682 139.793,195.849 142.5,189C 147.189,191.022 150.689,194.522 153,199.5C 154.225,206.755 154.892,214.089 155,221.5C 155.591,225.882 157.091,229.882 159.5,233.5C 160.386,232.675 160.719,231.675 160.5,230.5 Z"/></g>
<g><path style="opacity:1" fill="#191f1a" d="M 160.5,230.5 C 160.719,231.675 160.386,232.675 159.5,233.5C 157.091,229.882 155.591,225.882 155,221.5C 154.892,214.089 154.225,206.755 153,199.5C 150.689,194.522 147.189,191.022 142.5,189C 139.793,195.849 139.96,202.682 143,209.5C 149.652,215.3 154.152,222.467 156.5,231C 153.478,231.164 150.811,230.164 148.5,228C 144.833,223 141.167,218 137.5,213C 133.769,210.901 129.769,209.734 125.5,209.5C 127.116,219.231 132.449,226.064 141.5,230C 154.862,231.848 161.529,239.348 161.5,252.5C 157.053,249.464 153.387,245.631 150.5,241C 145.373,240.237 140.373,239.071 135.5,237.5C 136.404,243.313 139.737,247.813 145.5,251C 158.022,250.887 165.855,256.721 169,268.5C 166.92,266.877 164.754,265.377 162.5,264C 155.167,263.333 147.833,263.333 140.5,264C 143.256,267.427 146.59,270.093 150.5,272C 154.598,272.472 158.598,271.972 162.5,270.5C 165.028,270.763 167.361,271.596 169.5,273C 173.28,276.782 176.28,281.116 178.5,286C 177.833,286.667 177.167,286.667 176.5,286C 174.399,283.23 171.732,281.23 168.5,280C 161.449,279.842 154.449,280.509 147.5,282C 153.314,288.604 160.481,290.771 169,288.5C 170.888,288.796 172.722,289.296 174.5,290C 179.878,291.828 182.545,295.328 182.5,300.5C 179.135,297.878 175.302,296.545 171,296.5C 164.898,297.76 158.732,298.594 152.5,299C 155.846,302.671 159.846,305.338 164.5,307C 170.465,306.346 176.465,306.012 182.5,306C 185.368,306.861 187.702,308.528 189.5,311C 185.187,310.755 180.853,310.755 176.5,311C 173.498,313.503 170.165,315.503 166.5,317C 165.167,317.667 165.167,318.333 166.5,319C 172.629,319.823 178.629,319.323 184.5,317.5C 175.893,323.243 167.56,322.743 159.5,316C 165.694,316.234 171.027,314.234 175.5,310C 178.833,309.667 182.167,309.333 185.5,309C 183.712,307.912 181.712,307.412 179.5,307.5C 168.143,311.003 158.643,308.336 151,299.5C 149.711,297.945 149.044,296.279 149,294.5C 150.863,296.949 153.363,297.949 156.5,297.5C 161.284,296.518 166.117,295.851 171,295.5C 174.243,295.307 177.243,295.973 180,297.5C 180.167,297.167 180.333,296.833 180.5,296.5C 178.569,294.196 176.236,292.362 173.5,291C 167.833,290.667 162.167,290.333 156.5,290C 151.282,288.114 147.282,284.781 144.5,280C 146.634,279.873 148.801,280.039 151,280.5C 158.572,278.126 166.072,277.959 173.5,280C 168.921,272.59 162.421,270.424 154,273.5C 150.871,273.671 148.037,272.838 145.5,271C 142.158,267.991 139.158,264.657 136.5,261C 146.251,261.103 155.917,261.77 165.5,263C 161.309,255.736 154.975,252.403 146.5,253C 138.075,248.631 133.241,241.797 132,232.5C 133.543,234.378 135.376,235.878 137.5,237C 142.252,237.725 146.919,238.725 151.5,240C 153.963,243.465 156.796,246.631 160,249.5C 159.763,244.147 157.596,239.647 153.5,236C 146.416,233.898 139.749,230.898 133.5,227C 128.491,222.151 125.157,216.317 123.5,209.5C 134.415,207.713 141.915,212.046 146,222.5C 148.391,225.597 151.224,227.763 154.5,229C 151.707,221.917 147.54,215.75 142,210.5C 137.404,202.145 137.404,193.812 142,185.5C 155.219,195.133 160.219,208.133 157,224.5C 157.353,227.152 158.52,229.152 160.5,230.5 Z"/></g>
<g><path style="opacity:1" fill="#181b18" d="M 225.5,298.5 C 225.782,299.778 226.449,300.778 227.5,301.5C 224.333,304.498 221,307.331 217.5,310C 218.094,310.464 218.761,310.631 219.5,310.5C 217.052,311.473 214.385,311.806 211.5,311.5C 206.156,311.334 200.823,311.501 195.5,312C 191.362,313.978 188.029,316.811 185.5,320.5C 185.414,319.504 185.748,318.671 186.5,318C 185.906,317.536 185.239,317.369 184.5,317.5C 187.598,315.584 190.598,313.417 193.5,311C 195.134,310.506 196.801,310.34 198.5,310.5C 198.336,307.813 198.503,305.146 199,302.5C 202.103,297.731 204.769,292.731 207,287.5C 207.854,283.375 207.52,279.375 206,275.5C 204.154,280.348 201.154,284.348 197,287.5C 196.54,306.333 193.373,307 187.5,289.5C 187.719,288.062 188.219,286.729 189,285.5C 198.407,278.698 200.741,270.031 196,259.5C 194.494,264.007 191.827,267.673 188,270.5C 187.103,276.263 186.103,281.929 185,287.5C 180.93,280.717 179.597,273.384 181,265.5C 183.667,261.5 186.333,257.5 189,253.5C 189.823,249.262 189.156,245.262 187,241.5C 185.815,243.377 184.815,245.377 184,247.5C 177.435,252.839 174.602,259.839 175.5,268.5C 175.167,268.167 174.833,267.833 174.5,267.5C 171.712,261.108 170.879,254.441 172,247.5C 174.333,243.833 176.667,240.167 179,236.5C 179.825,232.789 179.659,229.122 178.5,225.5C 175.329,228.172 172.495,231.172 170,234.5C 169.667,240.5 169.333,246.5 169,252.5C 168.333,253.833 167.667,253.833 167,252.5C 163.372,246.624 162.039,240.291 163,233.5C 165.254,229.993 167.254,226.327 169,222.5C 171.613,214.954 170.613,207.954 166,201.5C 164.861,204.583 163.528,207.583 162,210.5C 161.828,217.346 161.328,224.013 160.5,230.5C 159.932,224.166 159.766,217.833 160,211.5C 162.867,206.898 164.534,201.898 165,196.5C 171.075,203.821 173.075,212.154 171,221.5C 167.969,226.832 165.469,232.332 163.5,238C 164.228,241.628 165.394,245.128 167,248.5C 165.252,239.062 168.252,231.729 176,226.5C 177.092,223.956 177.759,221.289 178,218.5C 181.55,224.564 182.217,230.898 180,237.5C 177.667,241.167 175.333,244.833 173,248.5C 172.048,254.362 172.715,260.028 175,265.5C 175.333,261.833 175.667,258.167 176,254.5C 177.968,250.54 180.635,247.207 184,244.5C 184.667,241.833 185.333,239.167 186,236.5C 190.427,242.681 191.427,249.348 189,256.5C 180.575,264.719 179.241,274.053 185,284.5C 183.767,276.432 186.101,269.766 192,264.5C 193.846,261.431 194.846,258.098 195,254.5C 199.216,260.881 200.549,267.881 199,275.5C 197.093,279.41 194.427,282.744 191,285.5C 189.043,290.996 190.043,295.996 194,300.5C 192.568,292.107 195.235,285.44 202,280.5C 203.743,277.043 204.743,273.377 205,269.5C 211.492,279.376 210.826,288.709 203,297.5C 201.41,299.65 200.743,301.983 201,304.5C 206.311,299.521 211.311,294.187 216,288.5C 218.135,294.756 217.469,300.756 214,306.5C 212.421,308.041 210.587,309.208 208.5,310C 215.079,310.145 220.412,307.478 224.5,302C 222.388,300.783 222.721,299.617 225.5,298.5 Z"/></g>
<g><path style="opacity:1" fill="#ecbe3b" d="M 260.5,247.5 C 262.441,252.715 264.941,257.715 268,262.5C 272.741,268.396 277.241,274.396 281.5,280.5C 269.954,283.879 262.121,291.213 258,302.5C 255.475,306.031 252.141,308.365 248,309.5C 247.566,305.452 247.566,301.452 248,297.5C 244.667,300.167 241.333,302.833 238,305.5C 238.326,301.53 238.326,297.53 238,293.5C 235.297,297.839 231.463,299.672 226.5,299C 228.041,297.421 229.208,295.587 230,293.5C 228.709,282.436 231.709,272.77 239,264.5C 246.559,258.707 252.726,251.707 257.5,243.5C 258.521,244.901 259.521,246.235 260.5,247.5 Z"/></g>
<g><path style="opacity:1" fill="#141a21" d="M 36.5,190.5 C 46.8333,189.167 57.1667,189.167 67.5,190.5C 62.1755,191.33 60.3422,194.33 62,199.5C 67.8683,218.271 74.0349,236.938 80.5,255.5C 86.6667,236.833 92.8333,218.167 99,199.5C 100.658,194.33 98.8245,191.33 93.5,190.5C 103.5,189.167 113.5,189.167 123.5,190.5C 120.247,191.251 118.08,193.251 117,196.5C 107.799,223.771 98.7986,251.104 90,278.5C 88.4774,284.146 90.6441,287.146 96.5,287.5C 86.0131,288.494 75.3464,288.828 64.5,288.5C 66.3545,287.31 68.1879,285.977 70,284.5C 70.6667,282.5 70.6667,280.5 70,278.5C 60.994,249.982 51.494,221.648 41.5,193.5C 39.9713,192.237 38.3046,191.237 36.5,190.5 Z"/></g>
<g><path style="opacity:1" fill="#007ec2" d="M 41.5,191.5 C 48.3209,190.345 55.3209,190.179 62.5,191C 60.9929,192.473 60.3262,194.307 60.5,196.5C 60.6816,199.226 61.1816,201.893 62,204.5C 67.7083,223.006 73.875,241.339 80.5,259.5C 87.0957,240.213 93.5957,220.88 100,201.5C 101.023,197.683 100.523,194.183 98.5,191C 105.167,190.333 111.833,190.333 118.5,191C 117.206,193.087 116.039,195.254 115,197.5C 106.132,223.771 97.4652,250.104 89,276.5C 87.9766,280.317 88.4766,283.817 90.5,287C 83.5,287.667 76.5,287.667 69.5,287C 71.5234,283.817 72.0234,280.317 71,276.5C 62.4878,250.119 53.8211,223.785 45,197.5C 44.2838,195.121 43.1172,193.121 41.5,191.5 Z"/></g>
<g><path style="opacity:1" fill="#ecbe3b" d="M 416.5,291.5 C 416.253,294.505 417.253,297.005 419.5,299C 415.295,299.318 411.795,297.818 409,294.5C 408.824,297.882 408.324,301.215 407.5,304.5C 404.755,301.588 401.589,299.254 398,297.5C 398.518,301.425 398.518,305.425 398,309.5C 390.528,306.691 385.862,301.357 384,293.5C 378.767,287.803 372.601,283.47 365.5,280.5C 365.833,279.833 366.167,279.167 366.5,278.5C 376.316,269.534 383.649,258.868 388.5,246.5C 389.397,245.402 390.23,245.402 391,246.5C 397.97,254.808 404.97,263.142 412,271.5C 413.275,273.717 414.275,276.051 415,278.5C 415.175,283.019 415.675,287.353 416.5,291.5 Z"/></g>
<g><path style="opacity:1" fill="#27241c" d="M 260.5,201.5 C 261.823,216.735 261.823,232.069 260.5,247.5C 259.521,246.235 258.521,244.901 257.5,243.5C 252.726,251.707 246.559,258.707 239,264.5C 231.709,272.77 228.709,282.436 230,293.5C 229.208,295.587 228.041,297.421 226.5,299C 231.463,299.672 235.297,297.839 238,293.5C 238.326,297.53 238.326,301.53 238,305.5C 241.333,302.833 244.667,300.167 248,297.5C 247.566,301.452 247.566,305.452 248,309.5C 252.141,308.365 255.475,306.031 258,302.5C 262.121,291.213 269.954,283.879 281.5,280.5C 281.833,280.5 282.167,280.5 282.5,280.5C 278.063,283.559 273.397,286.392 268.5,289C 263.653,295.236 258.986,301.569 254.5,308C 251.827,309.001 249.493,310.501 247.5,312.5C 246.468,310.96 245.135,310.46 243.5,311C 235.397,314.8 227.564,318.966 220,323.5C 218.038,328.009 217.038,332.675 217,337.5C 222.711,345.755 228.544,353.921 234.5,362C 234.167,362.333 233.833,362.667 233.5,363C 229.044,364.051 224.544,364.884 220,365.5C 214.264,358.375 209.264,350.708 205,342.5C 204.329,341.748 203.496,341.414 202.5,341.5C 206.819,339.995 210.986,337.995 215,335.5C 215.622,329.619 217.789,324.452 221.5,320C 229.256,316.039 237.09,312.205 245,308.5C 245.568,305.779 245.901,303.112 246,300.5C 242.841,304.155 239.008,306.322 234.5,307C 236.393,304.083 236.893,300.916 236,297.5C 233.579,299.697 230.745,301.03 227.5,301.5C 226.449,300.778 225.782,299.778 225.5,298.5C 227.18,296.473 228.347,294.139 229,291.5C 228.687,284.137 230.02,277.137 233,270.5C 238.849,263.072 245.182,256.072 252,249.5C 254.03,246.774 255.53,243.774 256.5,240.5C 256.224,238.67 255.557,237.003 254.5,235.5C 249.584,238.368 244.917,238.035 240.5,234.5C 236.364,236.447 232.03,236.947 227.5,236C 225.239,234.187 222.905,232.687 220.5,231.5C 220.5,231.167 220.5,230.833 220.5,230.5C 223.901,228.421 226.234,225.421 227.5,221.5C 227.833,221.833 228.167,222.167 228.5,222.5C 227.287,225.095 225.953,227.595 224.5,230C 224.78,231.395 225.447,232.562 226.5,233.5C 235.423,238.187 239.756,235.52 239.5,225.5C 239.732,234.229 244.066,237.396 252.5,235C 253.428,234.612 254.095,233.945 254.5,233C 253.053,228.93 252.053,224.763 251.5,220.5C 248.5,220.5 245.5,220.5 242.5,220.5C 242.5,220.167 242.5,219.833 242.5,219.5C 245.698,220.036 248.365,219.369 250.5,217.5C 251.404,216.791 251.737,215.791 251.5,214.5C 253.372,224.64 256.206,234.64 260,244.5C 260.5,230.171 260.667,215.837 260.5,201.5 Z"/></g>
<g><path style="opacity:1" fill="#2a220f" d="M 395.5,259.5 C 398.562,261.623 400.062,264.623 400,268.5C 400.972,270.305 402.139,271.972 403.5,273.5C 401.926,274.631 400.259,274.798 398.5,274C 395.228,272.392 392.228,270.392 389.5,268C 392.574,268.203 395.241,269.537 397.5,272C 398.5,272.667 399.5,272.667 400.5,272C 398.905,267.77 397.239,263.603 395.5,259.5 Z"/></g>
<g><path style="opacity:1" fill="#2b2210" d="M 249.5,259.5 C 250.239,259.369 250.906,259.536 251.5,260C 249.352,263.929 247.352,267.929 245.5,272C 246.5,272.667 247.5,272.667 248.5,272C 250.791,269.66 253.458,268.327 256.5,268C 253.336,271.333 249.502,273.499 245,274.5C 244.167,274.167 243.333,273.833 242.5,273.5C 245.317,269.052 247.651,264.385 249.5,259.5 Z"/></g>
<g><path style="opacity:1" fill="#2b220f" d="M 263.5,272.5 C 264.376,272.369 265.043,272.702 265.5,273.5C 263.308,277.094 261.641,280.928 260.5,285C 263.521,284.708 266.188,283.375 268.5,281C 269.5,280.333 270.5,280.333 271.5,281C 268.328,282.752 265.328,284.752 262.5,287C 260.5,287.667 258.5,287.667 256.5,287C 258.049,285.786 259.215,284.286 260,282.5C 260.688,278.932 261.855,275.599 263.5,272.5 Z"/></g>
<g><path style="opacity:1" fill="#e1b638" d="M 288.5,285.5 C 287.602,288.466 286.269,291.3 284.5,294C 282.934,294.3 281.601,293.8 280.5,292.5C 280.635,288.562 282.135,285.228 285,282.5C 286.039,283.71 287.206,284.71 288.5,285.5 Z"/></g>
<g><path style="opacity:1" fill="#e3b839" d="M 365.5,292.5 C 364.518,293.141 363.518,293.807 362.5,294.5C 361.818,293.757 361.151,293.091 360.5,292.5C 360.08,290.906 359.414,289.406 358.5,288C 358.954,286.378 359.954,285.212 361.5,284.5C 364.422,286.343 365.755,289.01 365.5,292.5 Z"/></g>
<g><path style="opacity:1" fill="#271f0d" d="M 380.5,273.5 C 381.189,272.226 382.023,272.226 383,273.5C 384.75,276.246 385.75,279.246 386,282.5C 386.785,284.286 387.951,285.786 389.5,287C 387.5,287.667 385.5,287.667 383.5,287C 380.672,284.752 377.672,282.752 374.5,281C 375.5,280.333 376.5,280.333 377.5,281C 379.677,282.515 381.844,284.015 384,285.5C 384.5,285.167 385,284.833 385.5,284.5C 384.103,282.018 383.269,279.352 383,276.5C 382.148,275.429 381.315,274.429 380.5,273.5 Z"/></g>
<g><path style="opacity:1" fill="#777677" d="M 96.5,287.5 C 97.4734,287.987 98.4734,288.487 99.5,289C 87.6593,289.826 75.9927,289.659 64.5,288.5C 75.3464,288.828 86.0131,288.494 96.5,287.5 Z"/></g>
<g><path style="opacity:1" fill="#595859" d="M 573.5,287.5 C 583.167,288.833 592.833,288.833 602.5,287.5C 603.289,287.783 603.956,288.283 604.5,289C 593.5,289.667 582.5,289.667 571.5,289C 572.044,288.283 572.711,287.783 573.5,287.5 Z"/></g>
<g><path style="opacity:1" fill="#e6ba39" d="M 359.5,294.5 C 360.32,298.145 358.987,300.478 355.5,301.5C 354.696,298.56 353.363,295.893 351.5,293.5C 351.863,292.817 352.196,292.15 352.5,291.5C 354.371,291.141 355.871,290.141 357,288.5C 358.122,290.407 358.955,292.407 359.5,294.5 Z"/></g>
<g><path style="opacity:1" fill="#251e0e" d="M 247.5,280.5 C 248.239,280.369 248.906,280.536 249.5,281C 246.766,284.406 245.933,287.906 247,291.5C 249.133,289.348 251.633,288.181 254.5,288C 251.101,292.203 246.767,293.87 241.5,293C 242.333,292.167 243.167,291.333 244,290.5C 244.871,286.991 246.037,283.658 247.5,280.5 Z"/></g>
<g><path style="opacity:1" fill="#2a210f" d="M 396.5,281.5 C 397.189,280.226 398.023,280.226 399,281.5C 400.399,284.363 401.399,287.363 402,290.5C 402.833,291.333 403.667,292.167 404.5,293C 399.233,293.87 394.899,292.203 391.5,288C 392.5,287.333 393.5,287.333 394.5,288C 400.203,293.065 401.703,291.898 399,284.5C 398.148,283.429 397.315,282.429 396.5,281.5 Z"/></g>
<g><path style="opacity:1" fill="#338c3f" d="M 214.5,292.5 C 217.195,303.42 212.862,309.087 201.5,309.5C 201.372,307.345 201.872,305.345 203,303.5C 207.196,300.163 211.029,296.497 214.5,292.5 Z"/></g>
<g><path style="opacity:1" fill="#e7ba39" d="M 257.5,332.5 C 253.951,331.043 252.784,328.377 254,324.5C 257.183,317.453 261.35,311.12 266.5,305.5C 270.631,301.87 274.631,298.037 278.5,294C 280.417,294.027 282.084,294.861 283.5,296.5C 277.816,302.35 272.316,308.35 267,314.5C 263.044,320.079 259.877,326.079 257.5,332.5 Z"/></g>
<g><path style="opacity:1" fill="#292318" d="M 365.5,280.5 C 372.601,283.47 378.767,287.803 384,293.5C 385.862,301.357 390.528,306.691 398,309.5C 398.518,305.425 398.518,301.425 398,297.5C 401.589,299.254 404.755,301.588 407.5,304.5C 408.324,301.215 408.824,297.882 409,294.5C 411.795,297.818 415.295,299.318 419.5,299C 417.253,297.005 416.253,294.505 416.5,291.5C 418.099,295.509 420.765,298.675 424.5,301C 423.5,301.333 422.5,301.667 421.5,302C 424.062,304.733 426.729,307.233 429.5,309.5C 429.5,310.167 429.167,310.5 428.5,310.5C 425.548,308.215 422.882,305.548 420.5,302.5C 416.653,301.499 413.153,299.832 410,297.5C 409.507,301.028 410.34,304.195 412.5,307C 411.167,307.667 409.833,307.667 408.5,307C 406,305.167 403.5,303.333 401,301.5C 400.231,304.099 400.398,306.599 401.5,309C 410.523,312.594 419.023,317.094 427,322.5C 429.118,326.973 430.618,331.64 431.5,336.5C 429.393,337.468 427.059,337.802 424.5,337.5C 425.919,336.549 427.585,336.216 429.5,336.5C 428.571,332.873 427.737,329.207 427,325.5C 426.215,323.714 425.049,322.214 423.5,321C 415.79,316.778 407.79,313.278 399.5,310.5C 399.649,311.552 399.483,312.552 399,313.5C 397.474,310.422 394.974,308.588 391.5,308C 387.279,304.395 384.446,299.895 383,294.5C 377.829,289.147 371.996,284.814 365.5,281.5C 365.5,281.167 365.5,280.833 365.5,280.5 Z"/></g>
<g><path style="opacity:1" fill="#eec03b" d="M 202.5,341.5 C 199.881,341.768 197.381,341.435 195,340.5C 194.174,335.411 194.508,330.411 196,325.5C 197.41,324.213 198.91,323.046 200.5,322C 196.158,322.34 193.658,324.84 193,329.5C 192.503,332.146 192.336,334.813 192.5,337.5C 191.178,337.67 190.011,337.337 189,336.5C 186.745,328.594 188.911,322.427 195.5,318C 192.72,317.731 190.554,318.898 189,321.5C 187.257,324.957 186.257,328.623 186,332.5C 184.936,331.056 184.436,329.389 184.5,327.5C 184.753,325.142 185.086,322.808 185.5,320.5C 188.029,316.811 191.362,313.978 195.5,312C 200.823,311.501 206.156,311.334 211.5,311.5C 214.355,312.803 217.355,312.803 220.5,311.5C 220.376,310.893 220.043,310.56 219.5,310.5C 218.761,310.631 218.094,310.464 217.5,310C 221,307.331 224.333,304.498 227.5,301.5C 230.745,301.03 233.579,299.697 236,297.5C 236.893,300.916 236.393,304.083 234.5,307C 239.008,306.322 242.841,304.155 246,300.5C 245.901,303.112 245.568,305.779 245,308.5C 237.09,312.205 229.256,316.039 221.5,320C 217.789,324.452 215.622,329.619 215,335.5C 210.986,337.995 206.819,339.995 202.5,341.5 Z"/></g>
<g><path style="opacity:1" fill="#ebbe3b" d="M 266.5,340.5 C 262.878,341.939 260.544,340.606 259.5,336.5C 259.682,329.799 261.849,323.799 266,318.5C 271.594,310.902 277.927,303.902 285,297.5C 286.309,299.976 288.142,301.976 290.5,303.5C 280.054,314.273 272.054,326.606 266.5,340.5 Z"/></g>
<g><path style="opacity:1" fill="#ebbe3b" d="M 428.5,310.5 C 432.458,311.262 437.791,311.928 444.5,312.5C 446.638,314.735 448.971,316.735 451.5,318.5C 453.807,319.977 455.64,321.977 457,324.5C 457.667,328.5 457.667,332.5 457,336.5C 455.989,337.337 454.822,337.67 453.5,337.5C 454.827,330.836 452.827,325.502 447.5,321.5C 447.167,321.833 446.833,322.167 446.5,322.5C 451.814,326.943 453.647,332.61 452,339.5C 449.865,341.278 447.365,341.945 444.5,341.5C 445.029,338.112 446.362,335.112 448.5,332.5C 447.26,328.406 444.593,326.572 440.5,327C 438.455,329.586 436.789,332.42 435.5,335.5C 434.311,336.429 432.978,336.762 431.5,336.5C 430.618,331.64 429.118,326.973 427,322.5C 419.023,317.094 410.523,312.594 401.5,309C 400.398,306.599 400.231,304.099 401,301.5C 403.5,303.333 406,305.167 408.5,307C 409.833,307.667 411.167,307.667 412.5,307C 410.34,304.195 409.507,301.028 410,297.5C 413.153,299.832 416.653,301.499 420.5,302.5C 422.882,305.548 425.548,308.215 428.5,310.5 Z"/></g>
<g><path style="opacity:1" fill="#191c20" d="M 500.5,242.5 C 500.702,244.989 500.202,247.323 499,249.5C 497.167,247.667 495.333,245.833 493.5,244C 492.668,243.312 492.002,243.479 491.5,244.5C 479.813,265.543 468.979,286.876 459,308.5C 470.667,294.833 482.333,281.167 494,267.5C 494.982,266.241 495.315,264.908 495,263.5C 493.247,262.373 491.413,261.373 489.5,260.5C 488.479,259.998 488.312,259.332 489,258.5C 502.622,249.252 516.122,240.585 529.5,232.5C 522.06,247.713 514.893,263.046 508,278.5C 506.414,275.659 504.58,272.993 502.5,270.5C 488.537,285.753 475.037,301.42 462,317.5C 461.946,320.865 462.446,324.199 463.5,327.5C 463.472,330.976 462.138,333.643 459.5,335.5C 458.167,333.167 458.167,330.833 459.5,328.5C 459.34,330.199 459.506,331.866 460,333.5C 463.005,326.207 461.338,320.207 455,315.5C 454.005,316.066 453.172,316.733 452.5,317.5C 452.5,318.167 452.167,318.5 451.5,318.5C 448.971,316.735 446.638,314.735 444.5,312.5C 437.791,311.928 432.458,311.262 428.5,310.5C 429.167,310.5 429.5,310.167 429.5,309.5C 434.833,309.5 440.167,309.5 445.5,309.5C 449.287,291.186 453.62,273.019 458.5,255C 455.167,254.667 451.833,254.333 448.5,254C 456.794,239.247 464.96,224.414 473,209.5C 473.946,225.822 474.613,242.155 475,258.5C 478.118,251.761 481.618,245.261 485.5,239C 482.167,238 478.833,237 475.5,236C 487,223.833 498.5,211.667 510,199.5C 508.91,207.136 507.577,214.803 506,222.5C 504.476,229.395 502.643,236.062 500.5,242.5 Z"/></g>
<g><path style="opacity:1" fill="#ececec" d="M 461.5,272.5 C 463.279,267.722 464.613,262.722 465.5,257.5C 468.691,257.762 471.358,259.095 473.5,261.5C 469,269.833 464.5,278.167 460,286.5C 460.162,281.831 460.662,277.165 461.5,272.5 Z"/></g>
<g><path style="opacity:1" fill="#007bbe" d="M 524.5,236.5 C 525.043,236.56 525.376,236.893 525.5,237.5C 519.393,250.047 513.56,262.714 508,275.5C 505.971,272.971 504.138,270.304 502.5,267.5C 489.145,283.02 475.979,298.687 463,314.5C 459.31,318.652 457.31,317.985 457,312.5C 471.189,296.613 485.022,280.446 498.5,264C 495.833,262.333 493.167,260.667 490.5,259C 502.01,251.637 513.343,244.137 524.5,236.5 Z"/></g>
<g><path style="opacity:1" fill="#007abb" d="M 461.5,272.5 C 458.851,286.106 454.184,299.106 447.5,311.5C 447.977,312.478 448.643,313.311 449.5,314C 447.287,314.456 446.287,313.456 446.5,311C 451.316,291.93 455.65,272.764 459.5,253.5C 456.482,253.665 453.482,253.498 450.5,253C 457.808,240.216 464.974,227.382 472,214.5C 472.322,226.842 472.822,239.175 473.5,251.5C 473.167,253.833 472.833,256.167 472.5,258.5C 470.004,257.42 467.67,256.086 465.5,254.5C 463.021,260.226 461.688,266.226 461.5,272.5 Z"/></g>
<g><path style="opacity:1" fill="#007cbe" d="M 500.5,242.5 C 499.839,243.718 499.172,245.051 498.5,246.5C 496.183,244.684 494.016,242.684 492,240.5C 479,265.167 466,289.833 453,314.5C 450.259,313.778 449.259,312.112 450,309.5C 462.118,285.43 474.618,261.597 487.5,238C 484.44,237.152 481.44,236.152 478.5,235C 487.885,225.071 497.385,215.237 507,205.5C 504.841,217.785 502.674,230.118 500.5,242.5 Z"/></g>
<g><path style="opacity:1" fill="#e8bc3a" d="M 273.5,350.5 C 268.792,349.441 266.792,346.441 267.5,341.5C 272.953,327.514 281.12,315.18 292,304.5C 294.295,306.08 295.628,308.08 296,310.5C 285.33,322.015 277.83,335.348 273.5,350.5 Z"/></g>
<g><path style="opacity:1" fill="#8d7224" d="M 219.5,310.5 C 220.043,310.56 220.376,310.893 220.5,311.5C 217.355,312.803 214.355,312.803 211.5,311.5C 214.385,311.806 217.052,311.473 219.5,310.5 Z"/></g>
<g><path style="opacity:1" fill="#ecbe3b" d="M 282.5,356.5 C 282.5,357.833 282.5,359.167 282.5,360.5C 277.833,360.5 275.5,358.167 275.5,353.5C 275.877,345.202 278.377,337.536 283,330.5C 287.452,323.252 292.619,316.586 298.5,310.5C 300.131,312.297 302.131,313.464 304.5,314C 294.666,326.834 287.333,341 282.5,356.5 Z"/></g>
<g><path style="opacity:1" fill="#edbf3b" d="M 294.5,362.5 C 295.247,368.067 292.913,369.9 287.5,368C 285.393,366.736 284.393,364.903 284.5,362.5C 284.205,356.989 285.038,351.656 287,346.5C 292.326,335.173 298.659,324.506 306,314.5C 307.339,317.094 309.506,318.594 312.5,319C 303.865,332.405 297.865,346.905 294.5,362.5 Z"/></g>
<g><path style="opacity:1" fill="#efc13c" d="M 350.5,372.5 C 349.332,379.084 345.665,380.918 339.5,378C 337.383,376.269 335.883,374.102 335,371.5C 334.501,367.514 334.334,363.514 334.5,359.5C 334.802,356.941 334.468,354.607 333.5,352.5C 333.346,342.243 331.679,332.243 328.5,322.5C 328.997,319.45 330.497,318.45 333,319.5C 339.105,330.373 344.105,341.707 348,353.5C 349.704,359.722 350.537,366.055 350.5,372.5 Z"/></g>
<g><path style="opacity:1" fill="#413518" d="M 452.5,317.5 C 456.565,319.941 458.898,323.608 459.5,328.5C 458.167,330.833 458.167,333.167 459.5,335.5C 458.833,337.5 457.5,338.833 455.5,339.5C 454.833,338.833 454.167,338.167 453.5,337.5C 454.822,337.67 455.989,337.337 457,336.5C 457.667,332.5 457.667,328.5 457,324.5C 455.64,321.977 453.807,319.977 451.5,318.5C 452.167,318.5 452.5,318.167 452.5,317.5 Z"/></g>
<g><path style="opacity:1" fill="#ddb337" d="M 459.5,328.5 C 458.898,323.608 456.565,319.941 452.5,317.5C 453.172,316.733 454.005,316.066 455,315.5C 461.338,320.207 463.005,326.207 460,333.5C 459.506,331.866 459.34,330.199 459.5,328.5 Z"/></g>
<g><path style="opacity:1" fill="#edbf3b" d="M 309.5,355.5 C 309.666,362.175 309.5,368.842 309,375.5C 305.219,380.201 301.219,380.534 297,376.5C 295.646,372.637 295.146,368.637 295.5,364.5C 298.684,348.784 304.684,334.117 313.5,320.5C 314.5,320.833 315.167,321.5 315.5,322.5C 312.217,333.249 310.217,344.249 309.5,355.5 Z"/></g>
<g><path style="opacity:1" fill="#f0c23c" d="M 332.5,357.5 C 332.5,363.833 332.5,370.167 332.5,376.5C 331.976,381.382 329.976,385.548 326.5,389C 319.331,391.571 314.498,389.071 312,381.5C 310.7,374.229 310.2,366.896 310.5,359.5C 311.486,350.959 312.652,342.292 314,333.5C 314.791,330.041 315.791,326.707 317,323.5C 320.333,326.167 323.667,326.167 327,323.5C 329.903,334.655 331.736,345.988 332.5,357.5 Z"/></g>
<g><path style="opacity:1" fill="#2a2214" d="M 342.5,201.5 C 342.333,233.502 342.5,265.502 343,297.5C 346.044,294.949 349.211,292.616 352.5,290.5C 352.5,290.833 352.5,291.167 352.5,291.5C 352.196,292.15 351.863,292.817 351.5,293.5C 353.363,295.893 354.696,298.56 355.5,301.5C 358.987,300.478 360.32,298.145 359.5,294.5C 360.338,294.158 360.672,293.492 360.5,292.5C 361.151,293.091 361.818,293.757 362.5,294.5C 363.518,293.807 364.518,293.141 365.5,292.5C 366.167,292.5 366.833,292.5 367.5,292.5C 372.072,295.563 376.239,299.23 380,303.5C 385.115,309.284 389.448,315.618 393,322.5C 393.667,325.5 393.667,328.5 393,331.5C 389.759,333.641 387.759,336.641 387,340.5C 384.772,342.113 382.272,342.78 379.5,342.5C 380.228,348.092 377.895,351.092 372.5,351.5C 372.413,358.251 369.079,362.251 362.5,363.5C 361.432,368.884 358.098,371.217 352.5,370.5C 351.833,371.167 351.167,371.833 350.5,372.5C 350.537,366.055 349.704,359.722 348,353.5C 344.105,341.707 339.105,330.373 333,319.5C 330.497,318.45 328.997,319.45 328.5,322.5C 331.679,332.243 333.346,342.243 333.5,352.5C 333.784,354.415 333.451,356.081 332.5,357.5C 331.736,345.988 329.903,334.655 327,323.5C 323.667,326.167 320.333,326.167 317,323.5C 315.791,326.707 314.791,330.041 314,333.5C 312.652,342.292 311.486,350.959 310.5,359.5C 310.768,357.901 310.434,356.568 309.5,355.5C 310.217,344.249 312.217,333.249 315.5,322.5C 315.167,321.5 314.5,320.833 313.5,320.5C 304.684,334.117 298.684,348.784 295.5,364.5C 295.672,363.508 295.338,362.842 294.5,362.5C 297.865,346.905 303.865,332.405 312.5,319C 309.506,318.594 307.339,317.094 306,314.5C 298.659,324.506 292.326,335.173 287,346.5C 285.038,351.656 284.205,356.989 284.5,362.5C 283.833,360.5 283.167,358.5 282.5,356.5C 287.333,341 294.666,326.834 304.5,314C 302.131,313.464 300.131,312.297 298.5,310.5C 292.619,316.586 287.452,323.252 283,330.5C 278.377,337.536 275.877,345.202 275.5,353.5C 274.833,352.5 274.167,351.5 273.5,350.5C 277.83,335.348 285.33,322.015 296,310.5C 295.628,308.08 294.295,306.08 292,304.5C 281.12,315.18 272.953,327.514 267.5,341.5C 267.5,340.833 267.167,340.5 266.5,340.5C 272.054,326.606 280.054,314.273 290.5,303.5C 288.142,301.976 286.309,299.976 285,297.5C 277.927,303.902 271.594,310.902 266,318.5C 261.849,323.799 259.682,329.799 259.5,336.5C 258.833,335.167 258.167,333.833 257.5,332.5C 259.877,326.079 263.044,320.079 267,314.5C 272.316,308.35 277.816,302.35 283.5,296.5C 282.084,294.861 280.417,294.027 278.5,294C 274.631,298.037 270.631,301.87 266.5,305.5C 266.5,305.167 266.5,304.833 266.5,304.5C 270.167,300.167 274.167,296.167 278.5,292.5C 279.167,292.5 279.833,292.5 280.5,292.5C 281.601,293.8 282.934,294.3 284.5,294C 286.269,291.3 287.602,288.466 288.5,285.5C 289.5,286.5 290.5,287.5 291.5,288.5C 288.147,289.512 286.48,291.846 286.5,295.5C 286.607,298.281 287.941,300.281 290.5,301.5C 292.035,298.263 293.702,295.097 295.5,292C 294.619,291.292 293.953,290.458 293.5,289.5C 294.609,289.557 295.609,289.89 296.5,290.5C 299.484,293.326 302.817,295.659 306.5,297.5C 306.5,298.167 306.167,298.5 305.5,298.5C 304.504,298.586 303.671,298.252 303,297.5C 299.739,300.869 298.739,304.869 300,309.5C 301.11,311.037 302.61,311.703 304.5,311.5C 304.216,309.585 304.549,307.919 305.5,306.5C 305.328,307.492 305.662,308.158 306.5,308.5C 305.881,313.206 307.881,315.873 312.5,316.5C 312.73,312.016 312.73,307.683 312.5,303.5C 313.167,303.5 313.5,303.167 313.5,302.5C 314.833,303.167 316.167,303.833 317.5,304.5C 318.167,304.833 318.833,305.167 319.5,305.5C 320.833,306.5 322.167,307.5 323.5,308.5C 323.5,308.833 323.5,309.167 323.5,309.5C 320.577,308.705 317.91,307.372 315.5,305.5C 314.11,310.584 314.277,315.584 316,320.5C 321.621,326.181 325.954,325.181 329,317.5C 329.497,314.854 329.664,312.187 329.5,309.5C 330.167,308.5 330.833,307.5 331.5,306.5C 331.5,309.833 331.5,313.167 331.5,316.5C 337.275,317.725 339.941,315.392 339.5,309.5C 339.328,307.452 338.995,305.452 338.5,303.5C 338.328,302.508 338.662,301.842 339.5,301.5C 341.023,304.635 341.69,307.968 341.5,311.5C 345.305,311.357 346.971,309.357 346.5,305.5C 346.485,303.366 345.985,301.366 345,299.5C 344.23,298.402 343.397,298.402 342.5,299.5C 341.172,266.736 341.172,234.069 342.5,201.5 Z"/></g>
<g><path style="opacity:1" fill="#eec03b" d="M 362.5,363.5 C 360.617,367.775 357.284,369.442 352.5,368.5C 349.671,351.014 343.671,334.681 334.5,319.5C 336.167,318.333 337.833,317.167 339.5,316C 340.449,315.383 341.282,315.549 342,316.5C 349.633,327.431 355.967,339.098 361,351.5C 361.828,355.466 362.328,359.466 362.5,363.5 Z"/></g>
<g><path style="opacity:1" fill="#ecbe3b" d="M 347.5,309.5 C 357.253,319.987 364.753,331.987 370,345.5C 370.996,350.229 370.496,354.729 368.5,359C 366.975,360.009 365.308,360.509 363.5,360.5C 363.748,354.074 362.248,348.074 359,342.5C 354.295,332.248 348.462,322.748 341.5,314C 344.106,313.208 346.106,311.708 347.5,309.5 Z"/></g>
<g><path style="opacity:1" fill="#ecbf3b" d="M 323.5,309.5 C 325.582,309.528 327.416,308.861 329,307.5C 329.464,308.094 329.631,308.761 329.5,309.5C 329.664,312.187 329.497,314.854 329,317.5C 325.954,325.181 321.621,326.181 316,320.5C 314.277,315.584 314.11,310.584 315.5,305.5C 317.91,307.372 320.577,308.705 323.5,309.5 Z"/></g>
<g><path style="opacity:1" fill="#eabd3a" d="M 353.5,304.5 C 363.401,313.579 371.234,324.246 377,336.5C 378.368,339.738 378.701,343.072 378,346.5C 377.241,348.635 375.741,349.968 373.5,350.5C 368.195,335.051 360.195,321.218 349.5,309C 351.041,307.629 352.375,306.129 353.5,304.5 Z"/></g>
<g><path style="opacity:1" fill="#eec03b" d="M 338.5,303.5 C 338.995,305.452 339.328,307.452 339.5,309.5C 339.941,315.392 337.275,317.725 331.5,316.5C 331.5,313.167 331.5,309.833 331.5,306.5C 333.645,305.011 335.978,304.011 338.5,303.5 Z"/></g>
<g><path style="opacity:1" fill="#edbf3b" d="M 312.5,303.5 C 312.73,307.683 312.73,312.016 312.5,316.5C 307.881,315.873 305.881,313.206 306.5,308.5C 306.313,303.735 308.313,302.069 312.5,303.5 Z"/></g>
<g><path style="opacity:1" fill="#ebbd3a" d="M 360.5,298.5 C 373.488,307.664 382.488,319.83 387.5,335C 386.997,339.759 384.33,341.926 379.5,341.5C 378.192,335.874 376.025,330.541 373,325.5C 367.737,317.735 361.904,310.401 355.5,303.5C 356.665,302.416 357.998,301.583 359.5,301C 360.252,300.329 360.586,299.496 360.5,298.5 Z"/></g>
<g><path style="opacity:1" fill="#efc13b" d="M 339.5,301.5 C 340.71,301.068 341.71,300.401 342.5,299.5C 343.397,298.402 344.23,298.402 345,299.5C 345.985,301.366 346.485,303.366 346.5,305.5C 346.971,309.357 345.305,311.357 341.5,311.5C 341.69,307.968 341.023,304.635 339.5,301.5 Z"/></g>
<g><path style="opacity:1" fill="#ebbe3b" d="M 305.5,298.5 C 306.141,299.482 306.807,300.482 307.5,301.5C 306.544,303.075 305.877,304.742 305.5,306.5C 304.549,307.919 304.216,309.585 304.5,311.5C 302.61,311.703 301.11,311.037 300,309.5C 298.739,304.869 299.739,300.869 303,297.5C 303.671,298.252 304.504,298.586 305.5,298.5 Z"/></g>
<g><path style="opacity:1" fill="#e7ba39" d="M 366.5,293.5 C 375.52,301.024 383.353,309.69 390,319.5C 392.843,323.652 393.01,327.819 390.5,332C 389.668,332.688 389.002,332.521 388.5,331.5C 382.3,318.135 373.634,306.635 362.5,297C 364.093,296.051 365.426,294.885 366.5,293.5 Z"/></g>
<g><path style="opacity:1" fill="#e8bb3a" d="M 348.5,294.5 C 351.766,295.114 353.099,297.114 352.5,300.5C 352.918,303.271 351.918,305.271 349.5,306.5C 348.901,303.157 347.568,300.157 345.5,297.5C 346.77,296.712 347.77,295.712 348.5,294.5 Z"/></g>
<g><path style="opacity:1" fill="#e9bc3a" d="M 296.5,293.5 C 298.394,294.048 300.06,295.048 301.5,296.5C 299.304,299.56 297.637,302.893 296.5,306.5C 294.127,305.45 293.127,303.617 293.5,301C 293.548,298.078 294.548,295.578 296.5,293.5 Z"/></g>
<g><path style="opacity:1" fill="#e9bc3a" d="M 291.5,288.5 C 292.167,288.833 292.833,289.167 293.5,289.5C 293.953,290.458 294.619,291.292 295.5,292C 293.702,295.097 292.035,298.263 290.5,301.5C 287.941,300.281 286.607,298.281 286.5,295.5C 286.48,291.846 288.147,289.512 291.5,288.5 Z"/></g>
<g><path style="opacity:1" fill="#261f13" d="M 202.5,341.5 C 200.034,342.634 197.367,342.801 194.5,342C 190.405,340.072 187.072,337.239 184.5,333.5C 183.905,331.56 183.572,329.56 183.5,327.5C 183.316,324.795 183.983,322.462 185.5,320.5C 185.086,322.808 184.753,325.142 184.5,327.5C 184.436,329.389 184.936,331.056 186,332.5C 186.257,328.623 187.257,324.957 189,321.5C 190.554,318.898 192.72,317.731 195.5,318C 188.911,322.427 186.745,328.594 189,336.5C 190.011,337.337 191.178,337.67 192.5,337.5C 192.336,334.813 192.503,332.146 193,329.5C 193.658,324.84 196.158,322.34 200.5,322C 198.91,323.046 197.41,324.213 196,325.5C 194.508,330.411 194.174,335.411 195,340.5C 197.381,341.435 199.881,341.768 202.5,341.5 Z"/></g>
<g><path style="opacity:1" fill="#348f41" d="M 214.5,337.5 C 220.829,345.175 226.829,353.175 232.5,361.5C 228.489,362.227 224.489,362.893 220.5,363.5C 214.848,356.88 210.182,349.547 206.5,341.5C 209.564,340.717 212.231,339.384 214.5,337.5 Z"/></g>
<g><path style="opacity:1" fill="#66521b" d="M 333.5,352.5 C 334.468,354.607 334.802,356.941 334.5,359.5C 332.978,365.209 333.312,370.875 335.5,376.5C 335.199,378.422 334.533,380.088 333.5,381.5C 333.784,379.585 333.451,377.919 332.5,376.5C 332.5,370.167 332.5,363.833 332.5,357.5C 333.451,356.081 333.784,354.415 333.5,352.5 Z"/></g>
<g><path style="opacity:1" fill="#221e19" d="M 266.5,304.5 C 266.5,304.833 266.5,305.167 266.5,305.5C 261.35,311.12 257.183,317.453 254,324.5C 252.784,328.377 253.951,331.043 257.5,332.5C 258.167,333.833 258.833,335.167 259.5,336.5C 260.544,340.606 262.878,341.939 266.5,340.5C 267.167,340.5 267.5,340.833 267.5,341.5C 266.792,346.441 268.792,349.441 273.5,350.5C 274.167,351.5 274.833,352.5 275.5,353.5C 275.5,358.167 277.833,360.5 282.5,360.5C 282.5,359.167 282.5,357.833 282.5,356.5C 283.167,358.5 283.833,360.5 284.5,362.5C 284.393,364.903 285.393,366.736 287.5,368C 292.913,369.9 295.247,368.067 294.5,362.5C 295.338,362.842 295.672,363.508 295.5,364.5C 295.146,368.637 295.646,372.637 297,376.5C 301.219,380.534 305.219,380.201 309,375.5C 309.5,368.842 309.666,362.175 309.5,355.5C 310.434,356.568 310.768,357.901 310.5,359.5C 310.2,366.896 310.7,374.229 312,381.5C 314.498,389.071 319.331,391.571 326.5,389C 329.976,385.548 331.976,381.382 332.5,376.5C 333.451,377.919 333.784,379.585 333.5,381.5C 334.533,380.088 335.199,378.422 335.5,376.5C 333.312,370.875 332.978,365.209 334.5,359.5C 334.334,363.514 334.501,367.514 335,371.5C 335.883,374.102 337.383,376.269 339.5,378C 345.665,380.918 349.332,379.084 350.5,372.5C 351.167,371.833 351.833,371.167 352.5,370.5C 351.101,380.997 345.934,383.33 337,377.5C 336.041,384.277 332.541,389.111 326.5,392C 320.694,393.346 316.194,391.513 313,386.5C 311.472,383.583 310.139,380.583 309,377.5C 300.921,382.944 295.754,380.944 293.5,371.5C 287.737,371.071 284.07,368.071 282.5,362.5C 276.434,361.379 273.434,357.712 273.5,351.5C 268.083,351.029 265.75,348.029 266.5,342.5C 261.114,342.623 257.947,339.956 257,334.5C 253.85,333.039 252.35,330.539 252.5,327C 254.91,318.091 259.576,310.591 266.5,304.5 Z"/></g>
<g><path style="opacity:1" fill="#7b631f" d="M 333.5,381.5 C 333.496,383.842 332.663,385.842 331,387.5C 330.992,385.179 331.825,383.179 333.5,381.5 Z"/></g>
<g><path style="opacity:1" fill="#13181e" d="M 453.5,337.5 C 454.167,338.167 454.833,338.833 455.5,339.5C 453.804,339.685 452.471,340.519 451.5,342C 448.774,342.182 446.107,342.682 443.5,343.5C 444.833,345.833 446.167,348.167 447.5,350.5C 447.069,351.293 446.735,352.127 446.5,353C 447.953,354.783 448.953,356.783 449.5,359C 446.253,374.647 442.42,390.147 438,405.5C 434.31,401.311 430.81,396.978 427.5,392.5C 422.692,394.933 417.859,397.266 413,399.5C 412.93,396.407 413.264,393.407 414,390.5C 411,393.833 408,397.167 405,400.5C 403.731,394.889 402.898,389.222 402.5,383.5C 396.746,383.564 391.08,382.898 385.5,381.5C 395.854,369.647 406.021,357.647 416,345.5C 417.398,344.949 418.732,344.616 420,344.5C 421.524,342.102 423.024,339.769 424.5,337.5C 427.059,337.802 429.393,337.468 431.5,336.5C 432.978,336.762 434.311,336.429 435.5,335.5C 436.789,332.42 438.455,329.586 440.5,327C 444.593,326.572 447.26,328.406 448.5,332.5C 446.362,335.112 445.029,338.112 444.5,341.5C 447.365,341.945 449.865,341.278 452,339.5C 453.647,332.61 451.814,326.943 446.5,322.5C 446.833,322.167 447.167,321.833 447.5,321.5C 452.827,325.502 454.827,330.836 453.5,337.5 Z"/></g>
<g><path style="opacity:1" fill="#0077b6" d="M 418.5,384.5 C 419.376,384.369 420.043,384.702 420.5,385.5C 421.305,387.915 422.305,390.249 423.5,392.5C 420.842,393.829 418.176,395.162 415.5,396.5C 414.9,392.233 415.9,388.233 418.5,384.5 Z"/></g>
<g><path style="opacity:1" fill="#0079ba" d="M 440.5,343.5 C 443.577,345.653 445.077,348.653 445,352.5C 438.421,365.326 431.588,377.993 424.5,390.5C 422.163,387.507 421.329,384.174 422,380.5C 426.667,375.167 431.333,369.833 436,364.5C 436.01,360.519 435.177,356.686 433.5,353C 436.051,349.956 438.384,346.789 440.5,343.5 Z"/></g>
<g><path style="opacity:1" fill="#007cbf" d="M 444.5,355.5 C 446.384,355.712 447.717,356.712 448.5,358.5C 444.875,372.951 441.042,387.284 437,401.5C 434.425,398.681 432.092,395.681 430,392.5C 428.938,390.792 427.771,390.126 426.5,390.5C 432.781,378.937 438.781,367.27 444.5,355.5 Z"/></g>
<g><path style="opacity:1" fill="#0079ba" d="M 424.5,338.5 C 427.572,338.183 430.572,338.516 433.5,339.5C 431.157,342.207 428.823,344.874 426.5,347.5C 424.775,346.985 423.108,346.318 421.5,345.5C 422.788,343.261 423.788,340.928 424.5,338.5 Z"/></g>
<g><path style="opacity:1" fill="#007ec2" d="M 443.5,328.5 C 446.139,329.706 446.972,331.706 446,334.5C 440.883,340.441 436.383,346.775 432.5,353.5C 433.409,356.725 434.409,359.891 435.5,363C 425.548,374.407 415.715,385.907 406,397.5C 404.893,392.523 403.893,387.523 403,382.5C 398.216,381.857 393.383,381.191 388.5,380.5C 398.17,368.999 408.003,357.665 418,346.5C 421.359,348.144 424.859,348.644 428.5,348C 433.715,341.624 438.715,335.124 443.5,328.5 Z"/></g>
</svg>
