<?xml version="1.0" encoding="UTF-8"?>
<!DOCTYPE svg PUBLIC "-//W3C//DTD SVG 1.1//EN" "http://www.w3.org/Graphics/SVG/1.1/DTD/svg11.dtd">
<svg xmlns="http://www.w3.org/2000/svg" version="1.1" width="640px" height="480px" style="shape-rendering:geometricPrecision; text-rendering:geometricPrecision; image-rendering:optimizeQuality; fill-rule:evenodd; clip-rule:evenodd" xmlns:xlink="http://www.w3.org/1999/xlink">
<g><path style="opacity:1" fill="#000000" d="M -0.5,-0.5 C 212.833,-0.5 426.167,-0.5 639.5,-0.5C 639.5,26.1667 639.5,52.8333 639.5,79.5C 426.167,79.5 212.833,79.5 -0.5,79.5C -0.5,52.8333 -0.5,26.1667 -0.5,-0.5 Z"/></g>
<g><path style="opacity:0.999" fill="#fee700" d="M -0.5,79.5 C 212.833,79.5 426.167,79.5 639.5,79.5C 639.5,106.167 639.5,132.833 639.5,159.5C 426.167,159.5 212.833,159.5 -0.5,159.5C -0.5,132.833 -0.5,106.167 -0.5,79.5 Z"/></g>
<g><path style="opacity:1" fill="#dd3808" d="M -0.5,159.5 C 212.833,159.5 426.167,159.5 639.5,159.5C 639.5,186.167 639.5,212.833 639.5,239.5C 557.833,239.5 476.167,239.5 394.5,239.5C 394.5,236.833 394.5,234.167 394.5,231.5C 394.165,226.126 392.832,221.126 390.5,216.5C 389.568,211.311 387.568,206.644 384.5,202.5C 384.573,200.973 383.906,199.973 382.5,199.5C 382.573,197.973 381.906,196.973 380.5,196.5C 380.262,194.596 379.262,193.262 377.5,192.5C 374.5,187.5 370.5,183.5 365.5,180.5C 364.738,178.738 363.404,177.738 361.5,177.5C 360.508,177.672 359.842,177.338 359.5,176.5C 359.027,175.094 358.027,174.427 356.5,174.5C 352.646,173.07 348.979,171.403 345.5,169.5C 344.01,167.72 342.01,167.054 339.5,167.5C 328.955,164.573 318.289,163.906 307.5,165.5C 304.505,165.294 301.838,165.96 299.5,167.5C 293.205,168.486 287.538,170.82 282.5,174.5C 280.973,174.427 279.973,175.094 279.5,176.5C 277.973,176.427 276.973,177.094 276.5,178.5C 274.251,179.08 272.585,180.413 271.5,182.5C 267.5,184.5 264.5,187.5 262.5,191.5C 260.413,192.585 259.08,194.251 258.5,196.5C 257.094,196.973 256.427,197.973 256.5,199.5C 255.094,199.973 254.427,200.973 254.5,202.5C 250.82,207.538 248.486,213.205 247.5,219.5C 245.96,221.838 245.294,224.505 245.5,227.5C 244.517,231.298 244.183,235.298 244.5,239.5C 162.833,239.5 81.1667,239.5 -0.5,239.5C -0.5,212.833 -0.5,186.167 -0.5,159.5 Z"/></g>
<g><path style="opacity:1" fill="#fbf8fa" d="M 339.5,167.5 C 341.214,168.738 343.214,169.405 345.5,169.5C 348.979,171.403 352.646,173.07 356.5,174.5C 356.973,175.906 357.973,176.573 359.5,176.5C 359.842,177.338 360.508,177.672 361.5,177.5C 362.262,179.262 363.596,180.262 365.5,180.5C 369.167,184.833 373.167,188.833 377.5,192.5C 377.738,194.404 378.738,195.738 380.5,196.5C 380.427,198.027 381.094,199.027 382.5,199.5C 382.427,201.027 383.094,202.027 384.5,202.5C 387.568,206.644 389.568,211.311 390.5,216.5C 391.291,221.54 392.291,226.54 393.5,231.5C 394.984,266.819 379.984,292.319 348.5,308C 309.199,321.225 278.032,310.725 255,276.5C 247.103,261.121 243.936,244.788 245.5,227.5C 247.04,225.162 247.706,222.495 247.5,219.5C 248.486,213.205 250.82,207.538 254.5,202.5C 255.906,202.027 256.573,201.027 256.5,199.5C 257.906,199.027 258.573,198.027 258.5,196.5C 260.587,195.415 261.92,193.749 262.5,191.5C 265.833,188.833 268.833,185.833 271.5,182.5C 273.749,181.92 275.415,180.587 276.5,178.5C 278.027,178.573 279.027,177.906 279.5,176.5C 281.027,176.573 282.027,175.906 282.5,174.5C 287.538,170.82 293.205,168.486 299.5,167.5C 302.495,167.706 305.162,167.04 307.5,165.5C 318.289,163.906 328.955,164.573 339.5,167.5 Z"/></g>
<g><path style="opacity:1" fill="#56443f" d="M 307.5,165.5 C 305.162,167.04 302.495,167.706 299.5,167.5C 301.838,165.96 304.505,165.294 307.5,165.5 Z"/></g>
<g><path style="opacity:1" fill="#6a2d1a" d="M 339.5,167.5 C 342.01,167.054 344.01,167.72 345.5,169.5C 343.214,169.405 341.214,168.738 339.5,167.5 Z"/></g>
<g><path style="opacity:1" fill="#efd800" d="M 317.5,170.5 C 318.391,171.11 319.391,171.443 320.5,171.5C 321.514,172.674 322.847,173.34 324.5,173.5C 324.953,174.458 325.619,175.292 326.5,176C 325.177,176.816 324.511,177.983 324.5,179.5C 323.094,179.973 322.427,180.973 322.5,182.5C 319.332,179.944 315.666,178.944 311.5,179.5C 311.5,176.5 311.5,173.5 311.5,170.5C 313.5,170.5 315.5,170.5 317.5,170.5 Z"/></g>
<g><path style="opacity:1" fill="#d32f08" d="M 306.5,170.5 C 307.833,170.5 309.167,170.5 310.5,170.5C 311.218,174.903 310.051,178.57 307,181.5C 306.617,180.944 306.117,180.611 305.5,180.5C 303.682,177.596 303.349,174.596 304.5,171.5C 304.842,170.662 305.508,170.328 306.5,170.5 Z"/></g>
<g><path style="opacity:1" fill="#444023" d="M 320.5,171.5 C 322.38,171.229 323.713,171.896 324.5,173.5C 322.847,173.34 321.514,172.674 320.5,171.5 Z"/></g>
<g><path style="opacity:1" fill="#6d3020" d="M 304.5,171.5 C 303.349,174.596 303.682,177.596 305.5,180.5C 303.559,178.801 302.226,176.634 301.5,174C 301.748,172.251 302.748,171.418 304.5,171.5 Z"/></g>
<g><path style="opacity:1" fill="#4a2c23" d="M 356.5,174.5 C 358.027,174.427 359.027,175.094 359.5,176.5C 357.973,176.573 356.973,175.906 356.5,174.5 Z"/></g>
<g><path style="opacity:1" fill="#4f403c" d="M 282.5,174.5 C 282.027,175.906 281.027,176.573 279.5,176.5C 279.973,175.094 280.973,174.427 282.5,174.5 Z"/></g>
<g><path style="opacity:1" fill="#5a4e4b" d="M 279.5,176.5 C 279.027,177.906 278.027,178.573 276.5,178.5C 276.973,177.094 277.973,176.427 279.5,176.5 Z"/></g>
<g><path style="opacity:1" fill="#472c1b" d="M 324.5,173.5 C 326.71,173.894 328.043,175.227 328.5,177.5C 326.938,177.733 325.605,178.4 324.5,179.5C 324.511,177.983 325.177,176.816 326.5,176C 325.619,175.292 324.953,174.458 324.5,173.5 Z"/></g>
<g><path style="opacity:1" fill="#c7300d" d="M 328.5,177.5 C 328.427,179.027 329.094,180.027 330.5,180.5C 331.931,181.78 332.598,183.447 332.5,185.5C 330.784,185.629 329.117,185.962 327.5,186.5C 324.656,186.657 322.989,185.324 322.5,182.5C 323.906,182.027 324.573,181.027 324.5,179.5C 325.605,178.4 326.938,177.733 328.5,177.5 Z"/></g>
<g><path style="opacity:1" fill="#4e2b22" d="M 328.5,177.5 C 329.906,177.973 330.573,178.973 330.5,180.5C 329.094,180.027 328.427,179.027 328.5,177.5 Z"/></g>
<g><path style="opacity:1" fill="#552b1e" d="M 361.5,177.5 C 363.404,177.738 364.738,178.738 365.5,180.5C 363.596,180.262 362.262,179.262 361.5,177.5 Z"/></g>
<g><path style="opacity:1" fill="#0b0a0a" d="M 306.5,170.5 C 310.167,169.167 313.833,169.167 317.5,170.5C 315.5,170.5 313.5,170.5 311.5,170.5C 311.5,173.5 311.5,176.5 311.5,179.5C 315.666,178.944 319.332,179.944 322.5,182.5C 322.989,185.324 324.656,186.657 327.5,186.5C 326.791,187.404 325.791,187.737 324.5,187.5C 324.473,193.705 321.973,198.705 317,202.5C 314.629,207.939 313.963,213.606 315,219.5C 315.985,220.814 317.152,221.814 318.5,222.5C 316.549,222.227 315.049,222.893 314,224.5C 312.087,232.16 314.253,238.327 320.5,243C 324.744,244.803 329.078,246.303 333.5,247.5C 338.179,251.18 342.179,255.514 345.5,260.5C 341.19,259.92 336.857,259.586 332.5,259.5C 332.884,263.604 334.384,267.271 337,270.5C 337.667,272.167 337.667,273.833 337,275.5C 332.599,276.467 328.099,276.8 323.5,276.5C 323.773,283.504 324.106,290.504 324.5,297.5C 329.05,296.884 333.05,298.051 336.5,301C 325.958,300.421 316.792,303.587 309,310.5C 308.014,307.258 308.848,304.592 311.5,302.5C 308.5,301.833 305.5,301.167 302.5,300.5C 303.912,299.194 305.579,298.36 307.5,298C 311.821,297.501 316.154,297.334 320.5,297.5C 320.031,290.477 319.364,283.477 318.5,276.5C 313.467,276.328 308.467,276.161 303.5,276C 301.709,278.414 300.043,280.914 298.5,283.5C 297.029,282.619 296.196,281.286 296,279.5C 295.333,281.5 294.667,283.5 294,285.5C 293.085,284.672 292.419,283.672 292,282.5C 290.082,287.786 289.249,287.452 289.5,281.5C 288.827,277.719 290.161,274.886 293.5,273C 301.749,271.594 310.083,271.094 318.5,271.5C 318.666,267.486 318.499,263.486 318,259.5C 311.24,255.081 304.74,250.247 298.5,245C 291.71,238.003 289.877,229.836 293,220.5C 295.753,213.985 299.253,207.985 303.5,202.5C 308.268,202.369 309.268,200.535 306.5,197C 305.423,196.53 304.423,196.697 303.5,197.5C 302.081,196.549 300.415,196.216 298.5,196.5C 300.066,195.515 302.399,194.681 305.5,194C 302.02,193.537 298.686,194.037 295.5,195.5C 294.761,195.631 294.094,195.464 293.5,195C 296.622,193.355 299.788,191.855 303,190.5C 303.558,187.066 304.391,183.733 305.5,180.5C 306.117,180.611 306.617,180.944 307,181.5C 310.051,178.57 311.218,174.903 310.5,170.5C 309.167,170.5 307.833,170.5 306.5,170.5 Z"/></g>
<g><path style="opacity:1" fill="#351b05" d="M 324.5,179.5 C 324.573,181.027 323.906,182.027 322.5,182.5C 322.427,180.973 323.094,179.973 324.5,179.5 Z"/></g>
<g><path style="opacity:1" fill="#776d6b" d="M 276.5,178.5 C 275.415,180.587 273.749,181.92 271.5,182.5C 272.585,180.413 274.251,179.08 276.5,178.5 Z"/></g>
<g><path style="opacity:1" fill="#573429" d="M 365.5,180.5 C 370.5,183.5 374.5,187.5 377.5,192.5C 373.167,188.833 369.167,184.833 365.5,180.5 Z"/></g>
<g><path style="opacity:1" fill="#909990" d="M 317.5,183.5 C 322.595,187.486 322.595,191.653 317.5,196C 315.975,197.009 314.308,197.509 312.5,197.5C 312.343,196.127 312.51,194.793 313,193.5C 316.879,191.334 318.379,188.001 317.5,183.5 Z"/></g>
<g><path style="opacity:1" fill="#59433d" d="M 271.5,182.5 C 268.833,185.833 265.833,188.833 262.5,191.5C 264.5,187.5 267.5,184.5 271.5,182.5 Z"/></g>
<g><path style="opacity:1" fill="#c8c8c8" d="M 308.5,188.5 C 311.957,188.667 312.29,189.667 309.5,191.5C 308.614,190.675 308.281,189.675 308.5,188.5 Z"/></g>
<g><path style="opacity:1" fill="#6a5e5b" d="M 262.5,191.5 C 261.92,193.749 260.587,195.415 258.5,196.5C 259.08,194.251 260.413,192.585 262.5,191.5 Z"/></g>
<g><path style="opacity:1" fill="#a4a4a4" d="M 298.5,196.5 C 297.399,197.598 296.066,197.765 294.5,197C 295.056,196.617 295.389,196.117 295.5,195.5C 298.686,194.037 302.02,193.537 305.5,194C 302.399,194.681 300.066,195.515 298.5,196.5 Z"/></g>
<g><path style="opacity:1" fill="#594641" d="M 377.5,192.5 C 379.262,193.262 380.262,194.596 380.5,196.5C 378.738,195.738 377.738,194.404 377.5,192.5 Z"/></g>
<g><path style="opacity:1" fill="#bb2d0c" d="M 303.5,202.5 C 302.167,200.833 302.167,199.167 303.5,197.5C 304.423,196.697 305.423,196.53 306.5,197C 309.268,200.535 308.268,202.369 303.5,202.5 Z"/></g>
<g><path style="opacity:1" fill="#4b3a36" d="M 258.5,196.5 C 258.573,198.027 257.906,199.027 256.5,199.5C 256.427,197.973 257.094,196.973 258.5,196.5 Z"/></g>
<g><path style="opacity:1" fill="#4c3b37" d="M 380.5,196.5 C 381.906,196.973 382.573,197.973 382.5,199.5C 381.094,199.027 380.427,198.027 380.5,196.5 Z"/></g>
<g><path style="opacity:1" fill="#412d27" d="M 256.5,199.5 C 256.573,201.027 255.906,202.027 254.5,202.5C 254.427,200.973 255.094,199.973 256.5,199.5 Z"/></g>
<g><path style="opacity:1" fill="#412d26" d="M 382.5,199.5 C 383.906,199.973 384.573,200.973 384.5,202.5C 383.094,202.027 382.427,201.027 382.5,199.5 Z"/></g>
<g><path style="opacity:1" fill="#939c93" d="M 310.5,200.5 C 311.239,200.369 311.906,200.536 312.5,201C 310.337,205.991 308.67,211.157 307.5,216.5C 307.86,219.079 308.526,221.579 309.5,224C 306.699,227.778 304.033,231.611 301.5,235.5C 298.623,227.673 299.123,220.006 303,212.5C 305.751,208.598 308.251,204.598 310.5,200.5 Z"/></g>
<g><path style="opacity:1" fill="#858c84" d="M 318.5,222.5 C 324.412,226.288 330.745,229.288 337.5,231.5C 339.153,231.66 340.486,232.326 341.5,233.5C 341.179,235.048 340.179,235.715 338.5,235.5C 333.19,234.341 328.023,232.675 323,230.5C 318.546,231.966 318.379,234.132 322.5,237C 326.183,238.841 329.516,241.174 332.5,244C 335.951,244.747 336.284,244.08 333.5,242C 336.058,241.725 338.392,242.225 340.5,243.5C 337.997,244.256 335.663,245.256 333.5,246.5C 333.5,246.833 333.5,247.167 333.5,247.5C 329.078,246.303 324.744,244.803 320.5,243C 314.253,238.327 312.087,232.16 314,224.5C 315.049,222.893 316.549,222.227 318.5,222.5 Z"/></g>
<g><path style="opacity:1" fill="#684c44" d="M 390.5,216.5 C 392.832,221.126 394.165,226.126 394.5,231.5C 394.167,231.5 393.833,231.5 393.5,231.5C 392.291,226.54 391.291,221.54 390.5,216.5 Z"/></g>
<g><path style="opacity:1" fill="#462f27" d="M 247.5,219.5 C 247.706,222.495 247.04,225.162 245.5,227.5C 245.294,224.505 245.96,221.838 247.5,219.5 Z"/></g>
<g><path style="opacity:1" fill="#454745" d="M 318.5,222.5 C 325.255,224.712 331.588,227.712 337.5,231.5C 330.745,229.288 324.412,226.288 318.5,222.5 Z"/></g>
<g><path style="opacity:1" fill="#f4f4f4" d="M 338.5,235.5 C 340.214,236.738 342.214,237.405 344.5,237.5C 345.306,238.728 346.306,239.728 347.5,240.5C 347.158,241.338 346.492,241.672 345.5,241.5C 344.391,241.443 343.391,241.11 342.5,240.5C 341.473,239.152 340.14,238.652 338.5,239C 339.373,240.045 340.373,240.878 341.5,241.5C 341.672,242.492 341.338,243.158 340.5,243.5C 338.392,242.225 336.058,241.725 333.5,242C 336.284,244.08 335.951,244.747 332.5,244C 329.516,241.174 326.183,238.841 322.5,237C 318.379,234.132 318.546,231.966 323,230.5C 328.023,232.675 333.19,234.341 338.5,235.5 Z"/></g>
<g><path style="opacity:1" fill="#000000" d="M 245.5,227.5 C 243.936,244.788 247.103,261.121 255,276.5C 278.032,310.725 309.199,321.225 348.5,308C 379.984,292.319 394.984,266.819 393.5,231.5C 393.833,231.5 394.167,231.5 394.5,231.5C 394.5,234.167 394.5,236.833 394.5,239.5C 476.167,239.5 557.833,239.5 639.5,239.5C 639.5,266.167 639.5,292.833 639.5,319.5C 426.167,319.5 212.833,319.5 -0.5,319.5C -0.5,292.833 -0.5,266.167 -0.5,239.5C 81.1667,239.5 162.833,239.5 244.5,239.5C 244.183,235.298 244.517,231.298 245.5,227.5 Z"/></g>
<g><path style="opacity:1" fill="#d22f09" d="M 349.5,237.5 C 350.93,238.537 352.597,239.204 354.5,239.5C 354.973,240.906 355.973,241.573 357.5,241.5C 359.167,243.833 361.167,245.833 363.5,247.5C 363.427,249.027 364.094,250.027 365.5,250.5C 366.229,255.13 366.563,259.797 366.5,264.5C 364.131,272.198 359.798,278.532 353.5,283.5C 352.624,283.631 351.957,283.298 351.5,282.5C 352.648,280.851 353.981,279.351 355.5,278C 353.583,278.027 351.916,278.861 350.5,280.5C 350.5,279.5 350.5,278.5 350.5,277.5C 349.261,277.942 348.261,278.609 347.5,279.5C 347.167,279.5 346.833,279.5 346.5,279.5C 346.672,278.508 346.338,277.842 345.5,277.5C 347.5,274.5 349.5,271.5 351.5,268.5C 352.641,265.36 352.808,262.027 352,258.5C 351.56,260.866 351.06,263.199 350.5,265.5C 350.5,266.167 350.167,266.5 349.5,266.5C 347.618,257.264 342.285,250.597 333.5,246.5C 335.663,245.256 337.997,244.256 340.5,243.5C 344.041,244.856 344.374,244.189 341.5,241.5C 341.5,240.833 341.833,240.5 342.5,240.5C 343.391,241.11 344.391,241.443 345.5,241.5C 346.848,242.601 348.348,243.601 350,244.5C 350.279,242.588 349.446,241.254 347.5,240.5C 346.306,239.728 345.306,238.728 344.5,237.5C 345.999,236.506 347.666,236.506 349.5,237.5 Z"/></g>
<g><path style="opacity:1" fill="#302825" d="M 341.5,233.5 C 344.754,233.794 347.421,235.127 349.5,237.5C 347.666,236.506 345.999,236.506 344.5,237.5C 342.214,237.405 340.214,236.738 338.5,235.5C 340.179,235.715 341.179,235.048 341.5,233.5 Z"/></g>
<g><path style="opacity:1" fill="#261c1a" d="M 342.5,240.5 C 341.833,240.5 341.5,240.833 341.5,241.5C 340.373,240.878 339.373,240.045 338.5,239C 340.14,238.652 341.473,239.152 342.5,240.5 Z"/></g>
<g><path style="opacity:1" fill="#57403a" d="M 354.5,239.5 C 356.027,239.427 357.027,240.094 357.5,241.5C 355.973,241.573 354.973,240.906 354.5,239.5 Z"/></g>
<g><path style="opacity:1" fill="#66433a" d="M 357.5,241.5 C 360.5,242.5 362.5,244.5 363.5,247.5C 361.167,245.833 359.167,243.833 357.5,241.5 Z"/></g>
<g><path style="opacity:1" fill="#36221c" d="M 341.5,241.5 C 344.374,244.189 344.041,244.856 340.5,243.5C 341.338,243.158 341.672,242.492 341.5,241.5 Z"/></g>
<g><path style="opacity:1" fill="#41241d" d="M 347.5,240.5 C 349.446,241.254 350.279,242.588 350,244.5C 348.348,243.601 346.848,242.601 345.5,241.5C 346.492,241.672 347.158,241.338 347.5,240.5 Z"/></g>
<g><path style="opacity:1" fill="#919a91" d="M 315.5,243.5 C 318.435,246.093 321.435,248.76 324.5,251.5C 321.733,251.361 318.733,251.694 315.5,252.5C 315.5,249.5 315.5,246.5 315.5,243.5 Z"/></g>
<g><path style="opacity:1" fill="#53271c" d="M 363.5,247.5 C 364.906,247.973 365.573,248.973 365.5,250.5C 364.094,250.027 363.427,249.027 363.5,247.5 Z"/></g>
<g><path style="opacity:1" fill="#54504a" d="M 333.5,246.5 C 342.285,250.597 347.618,257.264 349.5,266.5C 349.217,267.289 348.717,267.956 348,268.5C 347.439,265.721 346.606,263.054 345.5,260.5C 342.179,255.514 338.179,251.18 333.5,247.5C 333.5,247.167 333.5,246.833 333.5,246.5 Z"/></g>
<g><path style="opacity:1" fill="#51251a" d="M 365.5,250.5 C 367.047,252.807 367.713,255.473 367.5,258.5C 367.495,260.696 367.162,262.696 366.5,264.5C 366.563,259.797 366.229,255.13 365.5,250.5 Z"/></g>
<g><path style="opacity:1" fill="#f2f2f2" d="M 323.5,262.5 C 328.059,264.779 329.726,268.279 328.5,273C 326.866,273.494 325.199,273.66 323.5,273.5C 323.5,269.833 323.5,266.167 323.5,262.5 Z"/></g>
<g><path style="opacity:1" fill="#403533" d="M 351.5,268.5 C 351.737,267.209 351.404,266.209 350.5,265.5C 351.06,263.199 351.56,260.866 352,258.5C 352.808,262.027 352.641,265.36 351.5,268.5 Z"/></g>
<g><path style="opacity:1" fill="#2e1b16" d="M 345.5,277.5 C 346.338,277.842 346.672,278.508 346.5,279.5C 345.923,280.773 345.257,280.773 344.5,279.5C 344.863,278.817 345.196,278.15 345.5,277.5 Z"/></g>
<g><path style="opacity:1" fill="#53413d" d="M 353.5,283.5 C 352.399,284.598 351.066,284.765 349.5,284C 349.957,283.586 350.291,283.086 350.5,282.5C 349.452,281.452 348.452,280.452 347.5,279.5C 348.261,278.609 349.261,277.942 350.5,277.5C 350.5,278.5 350.5,279.5 350.5,280.5C 351.916,278.861 353.583,278.027 355.5,278C 353.981,279.351 352.648,280.851 351.5,282.5C 351.957,283.298 352.624,283.631 353.5,283.5 Z"/></g>
<g><path style="opacity:0.999" fill="#fee700" d="M -0.5,319.5 C 212.833,319.5 426.167,319.5 639.5,319.5C 639.5,346.167 639.5,372.833 639.5,399.5C 426.167,399.5 212.833,399.5 -0.5,399.5C -0.5,372.833 -0.5,346.167 -0.5,319.5 Z"/></g>
<g><path style="opacity:1" fill="#dd3907" d="M -0.5,399.5 C 212.833,399.5 426.167,399.5 639.5,399.5C 639.5,426.167 639.5,452.833 639.5,479.5C 426.167,479.5 212.833,479.5 -0.5,479.5C -0.5,452.833 -0.5,426.167 -0.5,399.5 Z"/></g>
</svg>
