<?xml version="1.0" encoding="UTF-8"?>
<!DOCTYPE svg PUBLIC "-//W3C//DTD SVG 1.1//EN" "http://www.w3.org/Graphics/SVG/1.1/DTD/svg11.dtd">
<svg xmlns="http://www.w3.org/2000/svg" version="1.1" width="640px" height="480px" style="shape-rendering:geometricPrecision; text-rendering:geometricPrecision; image-rendering:optimizeQuality; fill-rule:evenodd; clip-rule:evenodd" xmlns:xlink="http://www.w3.org/1999/xlink">
<g><path style="opacity:1" fill="#fefefe" d="M 0.5,-0.5 C 25.5,-0.5 50.5,-0.5 75.5,-0.5C 130.15,40.6366 184.983,81.6366 240,122.5C 240.5,81.5014 240.667,40.5014 240.5,-0.5C 251.167,-0.5 261.833,-0.5 272.5,-0.5C 272.5,63.8333 272.5,128.167 272.5,192.5C 181.5,192.5 90.5,192.5 -0.5,192.5C -0.5,181.5 -0.5,170.5 -0.5,159.5C 42.168,159.667 84.8346,159.5 127.5,159C 84.9561,126.95 42.2894,95.1164 -0.5,63.5C -0.5,56.1667 -0.5,48.8333 -0.5,41.5C 51.6735,80.8347 104.007,120.001 156.5,159C 176.5,159.667 196.5,159.667 216.5,159C 144.036,106.356 72.0358,53.1892 0.5,-0.5 Z"/></g>
<g><path style="opacity:1" fill="#012169" d="M 75.5,-0.5 C 130.5,-0.5 185.5,-0.5 240.5,-0.5C 240.667,40.5014 240.5,81.5014 240,122.5C 184.983,81.6366 130.15,40.6366 75.5,-0.5 Z"/></g>
<g><path style="opacity:1" fill="#c7102d" d="M 272.5,-0.5 C 304.5,-0.5 336.5,-0.5 368.5,-0.5C 368.5,63.8333 368.5,128.167 368.5,192.5C 458.833,192.5 549.167,192.5 639.5,192.5C 639.5,224.5 639.5,256.5 639.5,288.5C 549.167,288.5 458.833,288.5 368.5,288.5C 368.5,352.167 368.5,415.833 368.5,479.5C 336.5,479.5 304.5,479.5 272.5,479.5C 272.5,415.833 272.5,352.167 272.5,288.5C 181.5,288.5 90.5,288.5 -0.5,288.5C -0.5,256.5 -0.5,224.5 -0.5,192.5C 90.5,192.5 181.5,192.5 272.5,192.5C 272.5,128.167 272.5,63.8333 272.5,-0.5 Z"/></g>
<g><path style="opacity:1" fill="#fefefe" d="M 368.5,-0.5 C 379.167,-0.5 389.833,-0.5 400.5,-0.5C 400.333,39.5014 400.5,79.5014 401,119.5C 454.351,79.6366 507.517,39.6366 560.5,-0.5C 569.833,-0.5 579.167,-0.5 588.5,-0.5C 526.337,46.8442 463.837,93.8442 401,140.5C 400.5,146.825 400.334,153.158 400.5,159.5C 411.172,159.667 421.839,159.5 432.5,159C 501.377,106.617 570.377,54.4503 639.5,2.5C 639.5,22.1667 639.5,41.8333 639.5,61.5C 595.993,94.1682 552.326,126.668 508.5,159C 552.165,159.5 595.832,159.667 639.5,159.5C 639.5,170.5 639.5,181.5 639.5,192.5C 549.167,192.5 458.833,192.5 368.5,192.5C 368.5,128.167 368.5,63.8333 368.5,-0.5 Z"/></g>
<g><path style="opacity:1" fill="#022169" d="M 400.5,-0.5 C 453.833,-0.5 507.167,-0.5 560.5,-0.5C 507.517,39.6366 454.351,79.6366 401,119.5C 400.5,79.5014 400.333,39.5014 400.5,-0.5 Z"/></g>
<g><path style="opacity:1" fill="#c8132f" d="M 588.5,-0.5 C 605.5,-0.5 622.5,-0.5 639.5,-0.5C 639.5,0.5 639.5,1.5 639.5,2.5C 570.377,54.4503 501.377,106.617 432.5,159C 421.839,159.5 411.172,159.667 400.5,159.5C 400.334,153.158 400.5,146.825 401,140.5C 463.837,93.8442 526.337,46.8442 588.5,-0.5 Z"/></g>
<g><path style="opacity:1" fill="#c8132f" d="M -0.5,-0.5 C -0.166667,-0.5 0.166667,-0.5 0.5,-0.5C 72.0358,53.1892 144.036,106.356 216.5,159C 196.5,159.667 176.5,159.667 156.5,159C 104.007,120.001 51.6735,80.8347 -0.5,41.5C -0.5,27.5 -0.5,13.5 -0.5,-0.5 Z"/></g>
<g><path style="opacity:1" fill="#022169" d="M 639.5,61.5 C 639.5,94.1667 639.5,126.833 639.5,159.5C 595.832,159.667 552.165,159.5 508.5,159C 552.326,126.668 595.993,94.1682 639.5,61.5 Z"/></g>
<g><path style="opacity:1" fill="#022169" d="M -0.5,63.5 C 42.2894,95.1164 84.9561,126.95 127.5,159C 84.8346,159.5 42.168,159.667 -0.5,159.5C -0.5,127.5 -0.5,95.5 -0.5,63.5 Z"/></g>
<g><path style="opacity:1" fill="#fefefe" d="M -0.5,288.5 C 90.5,288.5 181.5,288.5 272.5,288.5C 272.5,352.167 272.5,415.833 272.5,479.5C 261.833,479.5 251.167,479.5 240.5,479.5C 240.833,439.828 240.5,400.161 239.5,360.5C 186.765,400.187 134.099,439.854 81.5,479.5C 72.5,479.5 63.5,479.5 54.5,479.5C 116.149,432.697 177.983,386.03 240,339.5C 240.5,332.842 240.666,326.175 240.5,319.5C 231.494,319.334 222.494,319.5 213.5,320C 142.316,373.03 71.3164,426.197 0.5,479.5C 0.166667,479.5 -0.166667,479.5 -0.5,479.5C -0.5,459.5 -0.5,439.5 -0.5,419.5C 43.9587,386.099 88.6254,352.932 133.5,320C 88.8346,319.5 44.1679,319.333 -0.5,319.5C -0.5,309.167 -0.5,298.833 -0.5,288.5 Z"/></g>
<g><path style="opacity:1" fill="#fefefe" d="M 639.5,288.5 C 639.5,298.833 639.5,309.167 639.5,319.5C 595.165,319.333 550.832,319.5 506.5,320C 550.863,352.842 595.196,385.676 639.5,418.5C 639.5,425.5 639.5,432.5 639.5,439.5C 585.378,399.884 531.378,360.051 477.5,320C 459.167,319.333 440.833,319.333 422.5,320C 494.746,372.944 566.746,426.11 638.5,479.5C 611.833,479.5 585.167,479.5 558.5,479.5C 506.336,439.822 453.836,400.489 401,361.5C 400.5,400.832 400.333,440.165 400.5,479.5C 389.833,479.5 379.167,479.5 368.5,479.5C 368.5,415.833 368.5,352.167 368.5,288.5C 458.833,288.5 549.167,288.5 639.5,288.5 Z"/></g>
<g><path style="opacity:1" fill="#022169" d="M -0.5,319.5 C 44.1679,319.333 88.8346,319.5 133.5,320C 88.6254,352.932 43.9587,386.099 -0.5,419.5C -0.5,386.167 -0.5,352.833 -0.5,319.5 Z"/></g>
<g><path style="opacity:1" fill="#c8132f" d="M 54.5,479.5 C 36.5,479.5 18.5,479.5 0.5,479.5C 71.3164,426.197 142.316,373.03 213.5,320C 222.494,319.5 231.494,319.334 240.5,319.5C 240.666,326.175 240.5,332.842 240,339.5C 177.983,386.03 116.149,432.697 54.5,479.5 Z"/></g>
<g><path style="opacity:1" fill="#c8132f" d="M 639.5,439.5 C 639.5,452.833 639.5,466.167 639.5,479.5C 639.167,479.5 638.833,479.5 638.5,479.5C 566.746,426.11 494.746,372.944 422.5,320C 440.833,319.333 459.167,319.333 477.5,320C 531.378,360.051 585.378,399.884 639.5,439.5 Z"/></g>
<g><path style="opacity:1" fill="#022169" d="M 639.5,319.5 C 639.5,352.5 639.5,385.5 639.5,418.5C 595.196,385.676 550.863,352.842 506.5,320C 550.832,319.5 595.165,319.333 639.5,319.5 Z"/></g>
<g><path style="opacity:1" fill="#012169" d="M 240.5,479.5 C 187.5,479.5 134.5,479.5 81.5,479.5C 134.099,439.854 186.765,400.187 239.5,360.5C 240.5,400.161 240.833,439.828 240.5,479.5 Z"/></g>
<g><path style="opacity:1" fill="#022169" d="M 558.5,479.5 C 505.833,479.5 453.167,479.5 400.5,479.5C 400.333,440.165 400.5,400.832 401,361.5C 453.836,400.489 506.336,439.822 558.5,479.5 Z"/></g>
</svg>
