<?xml version="1.0" encoding="UTF-8"?>
<!DOCTYPE svg PUBLIC "-//W3C//DTD SVG 1.1//EN" "http://www.w3.org/Graphics/SVG/1.1/DTD/svg11.dtd">
<svg xmlns="http://www.w3.org/2000/svg" version="1.1" width="640px" height="480px" style="shape-rendering:geometricPrecision; text-rendering:geometricPrecision; image-rendering:optimizeQuality; fill-rule:evenodd; clip-rule:evenodd" xmlns:xlink="http://www.w3.org/1999/xlink">
<g><path style="opacity:1" fill="#1a305d" d="M -0.5,-0.5 C 121.167,-0.5 242.833,-0.5 364.5,-0.5C 364.5,11.8333 364.5,24.1667 364.5,36.5C 364.5,48.8333 364.5,61.1667 364.5,73.5C 364.5,85.5 364.5,97.5 364.5,109.5C 364.5,122.167 364.5,134.833 364.5,147.5C 364.5,159.5 364.5,171.5 364.5,183.5C 364.5,196.167 364.5,208.833 364.5,221.5C 364.5,233.5 364.5,245.5 364.5,257.5C 243.001,258.5 121.334,258.833 -0.5,258.5C -0.5,172.167 -0.5,85.8333 -0.5,-0.5 Z"/></g>
<g><path style="opacity:1" fill="#bd3e44" d="M 364.5,-0.5 C 456.167,-0.5 547.833,-0.5 639.5,-0.5C 639.5,11.8333 639.5,24.1667 639.5,36.5C 547.833,36.5 456.167,36.5 364.5,36.5C 364.5,24.1667 364.5,11.8333 364.5,-0.5 Z"/></g>
<g><path style="opacity:1" fill="#f2f4f6" d="M 28.5,11.5 C 30.9558,13.8177 32.2891,16.8177 32.5,20.5C 35.8499,20.335 39.1832,20.5017 42.5,21C 39.4875,22.6792 37.1541,25.0125 35.5,28C 36.7797,31.1521 37.6131,34.3188 38,37.5C 35.4948,35.2514 32.8281,33.2514 30,31.5C 26.6727,32.9978 23.6727,34.9978 21,37.5C 21.3869,34.3188 22.2203,31.1521 23.5,28C 21.8459,25.0125 19.5125,22.6792 16.5,21C 19.8168,20.5017 23.1501,20.335 26.5,20.5C 27.1667,17.5 27.8333,14.5 28.5,11.5 Z"/></g>
<g><path style="opacity:1" fill="#f2f4f6" d="M 89.5,11.5 C 91.9558,13.8177 93.2891,16.8177 93.5,20.5C 96.8499,20.335 100.183,20.5017 103.5,21C 100.487,22.6792 98.1541,25.0125 96.5,28C 97.7797,31.1521 98.6131,34.3188 99,37.5C 96.4948,35.2514 93.8281,33.2514 91,31.5C 87.6727,32.9978 84.6727,34.9978 82,37.5C 82.3869,34.3188 83.2203,31.1521 84.5,28C 82.8459,25.0125 80.5125,22.6792 77.5,21C 80.8168,20.5017 84.1501,20.335 87.5,20.5C 88.1667,17.5 88.8333,14.5 89.5,11.5 Z"/></g>
<g><path style="opacity:1" fill="#f2f4f6" d="M 150.5,11.5 C 152.956,13.8177 154.289,16.8177 154.5,20.5C 157.85,20.335 161.183,20.5017 164.5,21C 161.487,22.6792 159.154,25.0125 157.5,28C 158.78,31.1521 159.613,34.3188 160,37.5C 157.495,35.2514 154.828,33.2514 152,31.5C 148.673,32.9978 145.673,34.9978 143,37.5C 143.387,34.3188 144.22,31.1521 145.5,28C 143.846,25.0125 141.513,22.6792 138.5,21C 141.817,20.5017 145.15,20.335 148.5,20.5C 149.167,17.5 149.833,14.5 150.5,11.5 Z"/></g>
<g><path style="opacity:1" fill="#f2f4f6" d="M 211.5,11.5 C 213.956,13.8177 215.289,16.8177 215.5,20.5C 218.85,20.335 222.183,20.5017 225.5,21C 222.487,22.6792 220.154,25.0125 218.5,28C 219.78,31.1521 220.613,34.3188 221,37.5C 218.495,35.2514 215.828,33.2514 213,31.5C 209.673,32.9978 206.673,34.9978 204,37.5C 204.387,34.3188 205.22,31.1521 206.5,28C 204.846,25.0125 202.513,22.6792 199.5,21C 202.817,20.5017 206.15,20.335 209.5,20.5C 210.167,17.5 210.833,14.5 211.5,11.5 Z"/></g>
<g><path style="opacity:1" fill="#f2f4f6" d="M 272.5,11.5 C 274.956,13.8177 276.289,16.8177 276.5,20.5C 279.85,20.335 283.183,20.5017 286.5,21C 283.487,22.6792 281.154,25.0125 279.5,28C 280.78,31.1521 281.613,34.3188 282,37.5C 279.495,35.2514 276.828,33.2514 274,31.5C 270.673,32.9978 267.673,34.9978 265,37.5C 265.387,34.3188 266.22,31.1521 267.5,28C 265.846,25.0125 263.513,22.6792 260.5,21C 263.817,20.5017 267.15,20.335 270.5,20.5C 271.167,17.5 271.833,14.5 272.5,11.5 Z"/></g>
<g><path style="opacity:1" fill="#f2f4f6" d="M 332.5,11.5 C 334.956,13.8177 336.289,16.8177 336.5,20.5C 339.85,20.335 343.183,20.5017 346.5,21C 343.487,22.6792 341.154,25.0125 339.5,28C 340.78,31.1521 341.613,34.3188 342,37.5C 339.495,35.2514 336.828,33.2514 334,31.5C 330.673,32.9978 327.673,34.9978 325,37.5C 325.387,34.3188 326.22,31.1521 327.5,28C 325.846,25.0125 323.513,22.6792 320.5,21C 323.817,20.5017 327.15,20.335 330.5,20.5C 331.167,17.5 331.833,14.5 332.5,11.5 Z"/></g>
<g><path style="opacity:1" fill="#fefdfe" d="M 364.5,36.5 C 456.167,36.5 547.833,36.5 639.5,36.5C 639.5,48.8333 639.5,61.1667 639.5,73.5C 547.833,73.5 456.167,73.5 364.5,73.5C 364.5,61.1667 364.5,48.8333 364.5,36.5 Z"/></g>
<g><path style="opacity:1" fill="#f2f4f6" d="M 59.5,37.5 C 61.9558,39.8177 63.2891,42.8177 63.5,46.5C 66.8499,46.335 70.1832,46.5017 73.5,47C 70.4875,48.6792 68.1541,51.0125 66.5,54C 67.7797,57.1521 68.6131,60.3188 69,63.5C 66.4948,61.2514 63.8281,59.2514 61,57.5C 57.6727,58.9978 54.6727,60.9978 52,63.5C 52.3869,60.3188 53.2203,57.1521 54.5,54C 52.8459,51.0125 50.5125,48.6792 47.5,47C 50.8168,46.5017 54.1501,46.335 57.5,46.5C 58.1667,43.5 58.8333,40.5 59.5,37.5 Z"/></g>
<g><path style="opacity:1" fill="#f2f4f6" d="M 120.5,37.5 C 122.956,39.8177 124.289,42.8177 124.5,46.5C 127.85,46.335 131.183,46.5017 134.5,47C 131.487,48.6792 129.154,51.0125 127.5,54C 128.78,57.1521 129.613,60.3188 130,63.5C 127.495,61.2514 124.828,59.2514 122,57.5C 118.673,58.9978 115.673,60.9978 113,63.5C 113.387,60.3188 114.22,57.1521 115.5,54C 113.846,51.0125 111.513,48.6792 108.5,47C 111.817,46.5017 115.15,46.335 118.5,46.5C 119.167,43.5 119.833,40.5 120.5,37.5 Z"/></g>
<g><path style="opacity:1" fill="#f2f4f6" d="M 181.5,37.5 C 183.956,39.8177 185.289,42.8177 185.5,46.5C 188.85,46.335 192.183,46.5017 195.5,47C 192.487,48.6792 190.154,51.0125 188.5,54C 189.78,57.1521 190.613,60.3188 191,63.5C 188.495,61.2514 185.828,59.2514 183,57.5C 179.673,58.9978 176.673,60.9978 174,63.5C 174.387,60.3188 175.22,57.1521 176.5,54C 174.846,51.0125 172.513,48.6792 169.5,47C 172.817,46.5017 176.15,46.335 179.5,46.5C 180.167,43.5 180.833,40.5 181.5,37.5 Z"/></g>
<g><path style="opacity:1" fill="#f2f4f6" d="M 241.5,37.5 C 243.956,39.8177 245.289,42.8177 245.5,46.5C 248.85,46.335 252.183,46.5017 255.5,47C 252.487,48.6792 250.154,51.0125 248.5,54C 249.78,57.1521 250.613,60.3188 251,63.5C 248.495,61.2514 245.828,59.2514 243,57.5C 239.673,58.9978 236.673,60.9978 234,63.5C 234.387,60.3188 235.22,57.1521 236.5,54C 234.846,51.0125 232.513,48.6792 229.5,47C 232.817,46.5017 236.15,46.335 239.5,46.5C 240.167,43.5 240.833,40.5 241.5,37.5 Z"/></g>
<g><path style="opacity:1" fill="#f2f4f6" d="M 302.5,37.5 C 304.956,39.8177 306.289,42.8177 306.5,46.5C 309.85,46.335 313.183,46.5017 316.5,47C 313.487,48.6792 311.154,51.0125 309.5,54C 310.78,57.1521 311.613,60.3188 312,63.5C 309.495,61.2514 306.828,59.2514 304,57.5C 300.673,58.9978 297.673,60.9978 295,63.5C 295.387,60.3188 296.22,57.1521 297.5,54C 295.846,51.0125 293.513,48.6792 290.5,47C 293.817,46.5017 297.15,46.335 300.5,46.5C 301.167,43.5 301.833,40.5 302.5,37.5 Z"/></g>
<g><path style="opacity:1" fill="#f2f4f6" d="M 28.5,63.5 C 30.9558,65.8177 32.2891,68.8177 32.5,72.5C 35.8499,72.335 39.1832,72.5017 42.5,73C 39.4875,74.6792 37.1541,77.0125 35.5,80C 36.7797,83.1521 37.6131,86.3188 38,89.5C 35.4948,87.2514 32.8281,85.2514 30,83.5C 26.6727,84.9978 23.6727,86.9978 21,89.5C 21.3869,86.3188 22.2203,83.1521 23.5,80C 21.8459,77.0125 19.5125,74.6792 16.5,73C 19.8168,72.5017 23.1501,72.335 26.5,72.5C 27.1667,69.5 27.8333,66.5 28.5,63.5 Z"/></g>
<g><path style="opacity:1" fill="#f2f4f6" d="M 89.5,63.5 C 91.9558,65.8177 93.2891,68.8177 93.5,72.5C 96.8499,72.335 100.183,72.5017 103.5,73C 100.487,74.6792 98.1541,77.0125 96.5,80C 97.7797,83.1521 98.6131,86.3188 99,89.5C 96.4948,87.2514 93.8281,85.2514 91,83.5C 87.6727,84.9978 84.6727,86.9978 82,89.5C 82.3869,86.3188 83.2203,83.1521 84.5,80C 82.8459,77.0125 80.5125,74.6792 77.5,73C 80.8168,72.5017 84.1501,72.335 87.5,72.5C 88.1667,69.5 88.8333,66.5 89.5,63.5 Z"/></g>
<g><path style="opacity:1" fill="#f2f4f6" d="M 150.5,63.5 C 152.956,65.8177 154.289,68.8177 154.5,72.5C 157.85,72.335 161.183,72.5017 164.5,73C 161.487,74.6792 159.154,77.0125 157.5,80C 158.78,83.1521 159.613,86.3188 160,89.5C 157.495,87.2514 154.828,85.2514 152,83.5C 148.673,84.9978 145.673,86.9978 143,89.5C 143.387,86.3188 144.22,83.1521 145.5,80C 143.846,77.0125 141.513,74.6792 138.5,73C 141.817,72.5017 145.15,72.335 148.5,72.5C 149.167,69.5 149.833,66.5 150.5,63.5 Z"/></g>
<g><path style="opacity:1" fill="#f2f4f6" d="M 211.5,63.5 C 213.956,65.8177 215.289,68.8177 215.5,72.5C 218.85,72.335 222.183,72.5017 225.5,73C 222.487,74.6792 220.154,77.0125 218.5,80C 219.78,83.1521 220.613,86.3188 221,89.5C 218.495,87.2514 215.828,85.2514 213,83.5C 209.673,84.9978 206.673,86.9978 204,89.5C 204.387,86.3188 205.22,83.1521 206.5,80C 204.846,77.0125 202.513,74.6792 199.5,73C 202.817,72.5017 206.15,72.335 209.5,72.5C 210.167,69.5 210.833,66.5 211.5,63.5 Z"/></g>
<g><path style="opacity:1" fill="#f2f4f6" d="M 272.5,63.5 C 274.956,65.8177 276.289,68.8177 276.5,72.5C 279.85,72.335 283.183,72.5017 286.5,73C 283.487,74.6792 281.154,77.0125 279.5,80C 280.78,83.1521 281.613,86.3188 282,89.5C 279.495,87.2514 276.828,85.2514 274,83.5C 270.673,84.9978 267.673,86.9978 265,89.5C 265.387,86.3188 266.22,83.1521 267.5,80C 265.846,77.0125 263.513,74.6792 260.5,73C 263.817,72.5017 267.15,72.335 270.5,72.5C 271.167,69.5 271.833,66.5 272.5,63.5 Z"/></g>
<g><path style="opacity:1" fill="#f2f4f6" d="M 332.5,63.5 C 334.956,65.8177 336.289,68.8177 336.5,72.5C 339.85,72.335 343.183,72.5017 346.5,73C 343.487,74.6792 341.154,77.0125 339.5,80C 340.78,83.1521 341.613,86.3188 342,89.5C 339.495,87.2514 336.828,85.2514 334,83.5C 330.673,84.9978 327.673,86.9978 325,89.5C 325.387,86.3188 326.22,83.1521 327.5,80C 325.846,77.0125 323.513,74.6792 320.5,73C 323.817,72.5017 327.15,72.335 330.5,72.5C 331.167,69.5 331.833,66.5 332.5,63.5 Z"/></g>
<g><path style="opacity:1" fill="#bc3d43" d="M 364.5,73.5 C 456.167,73.5 547.833,73.5 639.5,73.5C 639.5,85.5 639.5,97.5 639.5,109.5C 547.833,109.5 456.167,109.5 364.5,109.5C 364.5,97.5 364.5,85.5 364.5,73.5 Z"/></g>
<g><path style="opacity:1" fill="#f2f4f6" d="M 59.5,89.5 C 61.9558,91.8177 63.2891,94.8177 63.5,98.5C 66.8499,98.335 70.1832,98.5017 73.5,99C 70.4875,100.679 68.1541,103.013 66.5,106C 67.7797,109.152 68.6131,112.319 69,115.5C 66.4948,113.251 63.8281,111.251 61,109.5C 57.6727,110.998 54.6727,112.998 52,115.5C 52.3869,112.319 53.2203,109.152 54.5,106C 52.8459,103.013 50.5125,100.679 47.5,99C 50.8168,98.5017 54.1501,98.335 57.5,98.5C 58.1667,95.5 58.8333,92.5 59.5,89.5 Z"/></g>
<g><path style="opacity:1" fill="#f2f4f6" d="M 120.5,89.5 C 122.956,91.8177 124.289,94.8177 124.5,98.5C 127.85,98.335 131.183,98.5017 134.5,99C 131.487,100.679 129.154,103.013 127.5,106C 128.78,109.152 129.613,112.319 130,115.5C 127.495,113.251 124.828,111.251 122,109.5C 118.673,110.998 115.673,112.998 113,115.5C 113.387,112.319 114.22,109.152 115.5,106C 113.846,103.013 111.513,100.679 108.5,99C 111.817,98.5017 115.15,98.335 118.5,98.5C 119.167,95.5 119.833,92.5 120.5,89.5 Z"/></g>
<g><path style="opacity:1" fill="#f2f4f6" d="M 181.5,89.5 C 183.956,91.8177 185.289,94.8177 185.5,98.5C 188.85,98.335 192.183,98.5017 195.5,99C 192.487,100.679 190.154,103.013 188.5,106C 189.78,109.152 190.613,112.319 191,115.5C 188.495,113.251 185.828,111.251 183,109.5C 179.673,110.998 176.673,112.998 174,115.5C 174.387,112.319 175.22,109.152 176.5,106C 174.846,103.013 172.513,100.679 169.5,99C 172.817,98.5017 176.15,98.335 179.5,98.5C 180.167,95.5 180.833,92.5 181.5,89.5 Z"/></g>
<g><path style="opacity:1" fill="#f2f4f6" d="M 241.5,89.5 C 243.956,91.8177 245.289,94.8177 245.5,98.5C 248.85,98.335 252.183,98.5017 255.5,99C 252.487,100.679 250.154,103.013 248.5,106C 249.78,109.152 250.613,112.319 251,115.5C 248.495,113.251 245.828,111.251 243,109.5C 239.673,110.998 236.673,112.998 234,115.5C 234.387,112.319 235.22,109.152 236.5,106C 234.846,103.013 232.513,100.679 229.5,99C 232.817,98.5017 236.15,98.335 239.5,98.5C 240.167,95.5 240.833,92.5 241.5,89.5 Z"/></g>
<g><path style="opacity:1" fill="#f2f4f6" d="M 302.5,89.5 C 304.956,91.8177 306.289,94.8177 306.5,98.5C 309.85,98.335 313.183,98.5017 316.5,99C 313.487,100.679 311.154,103.013 309.5,106C 310.78,109.152 311.613,112.319 312,115.5C 309.495,113.251 306.828,111.251 304,109.5C 300.673,110.998 297.673,112.998 295,115.5C 295.387,112.319 296.22,109.152 297.5,106C 295.846,103.013 293.513,100.679 290.5,99C 293.817,98.5017 297.15,98.335 300.5,98.5C 301.167,95.5 301.833,92.5 302.5,89.5 Z"/></g>
<g><path style="opacity:1" fill="#fdf9fa" d="M 364.5,109.5 C 456.167,109.5 547.833,109.5 639.5,109.5C 639.5,122.167 639.5,134.833 639.5,147.5C 547.833,147.5 456.167,147.5 364.5,147.5C 364.5,134.833 364.5,122.167 364.5,109.5 Z"/></g>
<g><path style="opacity:1" fill="#f2f4f6" d="M 28.5,115.5 C 30.9558,117.818 32.2891,120.818 32.5,124.5C 35.8499,124.335 39.1832,124.502 42.5,125C 39.4875,126.679 37.1541,129.013 35.5,132C 36.7797,135.152 37.6131,138.319 38,141.5C 35.4948,139.251 32.8281,137.251 30,135.5C 26.6727,136.998 23.6727,138.998 21,141.5C 21.3869,138.319 22.2203,135.152 23.5,132C 21.8459,129.013 19.5125,126.679 16.5,125C 19.8168,124.502 23.1501,124.335 26.5,124.5C 27.1667,121.5 27.8333,118.5 28.5,115.5 Z"/></g>
<g><path style="opacity:1" fill="#f2f4f6" d="M 89.5,115.5 C 91.9558,117.818 93.2891,120.818 93.5,124.5C 96.8499,124.335 100.183,124.502 103.5,125C 100.487,126.679 98.1541,129.013 96.5,132C 97.7797,135.152 98.6131,138.319 99,141.5C 96.4948,139.251 93.8281,137.251 91,135.5C 87.6727,136.998 84.6727,138.998 82,141.5C 82.3869,138.319 83.2203,135.152 84.5,132C 82.8459,129.013 80.5125,126.679 77.5,125C 80.8168,124.502 84.1501,124.335 87.5,124.5C 88.1667,121.5 88.8333,118.5 89.5,115.5 Z"/></g>
<g><path style="opacity:1" fill="#f2f4f6" d="M 150.5,115.5 C 152.956,117.818 154.289,120.818 154.5,124.5C 157.85,124.335 161.183,124.502 164.5,125C 161.487,126.679 159.154,129.013 157.5,132C 158.78,135.152 159.613,138.319 160,141.5C 157.495,139.251 154.828,137.251 152,135.5C 148.673,136.998 145.673,138.998 143,141.5C 143.387,138.319 144.22,135.152 145.5,132C 143.846,129.013 141.513,126.679 138.5,125C 141.817,124.502 145.15,124.335 148.5,124.5C 149.167,121.5 149.833,118.5 150.5,115.5 Z"/></g>
<g><path style="opacity:1" fill="#f2f4f6" d="M 211.5,115.5 C 213.956,117.818 215.289,120.818 215.5,124.5C 218.85,124.335 222.183,124.502 225.5,125C 222.487,126.679 220.154,129.013 218.5,132C 219.78,135.152 220.613,138.319 221,141.5C 218.495,139.251 215.828,137.251 213,135.5C 209.673,136.998 206.673,138.998 204,141.5C 204.387,138.319 205.22,135.152 206.5,132C 204.846,129.013 202.513,126.679 199.5,125C 202.817,124.502 206.15,124.335 209.5,124.5C 210.167,121.5 210.833,118.5 211.5,115.5 Z"/></g>
<g><path style="opacity:1" fill="#f2f4f6" d="M 272.5,115.5 C 274.956,117.818 276.289,120.818 276.5,124.5C 279.85,124.335 283.183,124.502 286.5,125C 283.487,126.679 281.154,129.013 279.5,132C 280.78,135.152 281.613,138.319 282,141.5C 279.495,139.251 276.828,137.251 274,135.5C 270.673,136.998 267.673,138.998 265,141.5C 265.387,138.319 266.22,135.152 267.5,132C 265.846,129.013 263.513,126.679 260.5,125C 263.817,124.502 267.15,124.335 270.5,124.5C 271.167,121.5 271.833,118.5 272.5,115.5 Z"/></g>
<g><path style="opacity:1" fill="#f2f4f6" d="M 332.5,115.5 C 334.956,117.818 336.289,120.818 336.5,124.5C 339.85,124.335 343.183,124.502 346.5,125C 343.487,126.679 341.154,129.013 339.5,132C 340.78,135.152 341.613,138.319 342,141.5C 339.495,139.251 336.828,137.251 334,135.5C 330.673,136.998 327.673,138.998 325,141.5C 325.387,138.319 326.22,135.152 327.5,132C 325.846,129.013 323.513,126.679 320.5,125C 323.817,124.502 327.15,124.335 330.5,124.5C 331.167,121.5 331.833,118.5 332.5,115.5 Z"/></g>
<g><path style="opacity:1" fill="#f2f4f6" d="M 59.5,141.5 C 61.9558,143.818 63.2891,146.818 63.5,150.5C 66.8499,150.335 70.1832,150.502 73.5,151C 70.4875,152.679 68.1541,155.013 66.5,158C 67.7797,161.152 68.6131,164.319 69,167.5C 66.4948,165.251 63.8281,163.251 61,161.5C 57.6727,162.998 54.6727,164.998 52,167.5C 52.3869,164.319 53.2203,161.152 54.5,158C 52.8459,155.013 50.5125,152.679 47.5,151C 50.8168,150.502 54.1501,150.335 57.5,150.5C 58.1667,147.5 58.8333,144.5 59.5,141.5 Z"/></g>
<g><path style="opacity:1" fill="#f2f4f6" d="M 120.5,141.5 C 122.956,143.818 124.289,146.818 124.5,150.5C 127.85,150.335 131.183,150.502 134.5,151C 131.487,152.679 129.154,155.013 127.5,158C 128.78,161.152 129.613,164.319 130,167.5C 127.495,165.251 124.828,163.251 122,161.5C 118.673,162.998 115.673,164.998 113,167.5C 113.387,164.319 114.22,161.152 115.5,158C 113.846,155.013 111.513,152.679 108.5,151C 111.817,150.502 115.15,150.335 118.5,150.5C 119.167,147.5 119.833,144.5 120.5,141.5 Z"/></g>
<g><path style="opacity:1" fill="#f2f4f6" d="M 181.5,141.5 C 183.956,143.818 185.289,146.818 185.5,150.5C 188.85,150.335 192.183,150.502 195.5,151C 192.487,152.679 190.154,155.013 188.5,158C 189.78,161.152 190.613,164.319 191,167.5C 188.495,165.251 185.828,163.251 183,161.5C 179.673,162.998 176.673,164.998 174,167.5C 174.387,164.319 175.22,161.152 176.5,158C 174.846,155.013 172.513,152.679 169.5,151C 172.817,150.502 176.15,150.335 179.5,150.5C 180.167,147.5 180.833,144.5 181.5,141.5 Z"/></g>
<g><path style="opacity:1" fill="#f2f4f6" d="M 241.5,141.5 C 243.956,143.818 245.289,146.818 245.5,150.5C 248.85,150.335 252.183,150.502 255.5,151C 252.487,152.679 250.154,155.013 248.5,158C 249.78,161.152 250.613,164.319 251,167.5C 248.495,165.251 245.828,163.251 243,161.5C 239.673,162.998 236.673,164.998 234,167.5C 234.387,164.319 235.22,161.152 236.5,158C 234.846,155.013 232.513,152.679 229.5,151C 232.817,150.502 236.15,150.335 239.5,150.5C 240.167,147.5 240.833,144.5 241.5,141.5 Z"/></g>
<g><path style="opacity:1" fill="#f2f4f6" d="M 302.5,141.5 C 304.956,143.818 306.289,146.818 306.5,150.5C 309.85,150.335 313.183,150.502 316.5,151C 313.487,152.679 311.154,155.013 309.5,158C 310.78,161.152 311.613,164.319 312,167.5C 309.495,165.251 306.828,163.251 304,161.5C 300.673,162.998 297.673,164.998 295,167.5C 295.387,164.319 296.22,161.152 297.5,158C 295.846,155.013 293.513,152.679 290.5,151C 293.817,150.502 297.15,150.335 300.5,150.5C 301.167,147.5 301.833,144.5 302.5,141.5 Z"/></g>
<g><path style="opacity:1" fill="#bc3d43" d="M 364.5,147.5 C 456.167,147.5 547.833,147.5 639.5,147.5C 639.5,159.5 639.5,171.5 639.5,183.5C 547.833,183.5 456.167,183.5 364.5,183.5C 364.5,171.5 364.5,159.5 364.5,147.5 Z"/></g>
<g><path style="opacity:1" fill="#f2f4f6" d="M 28.5,166.5 C 30.9558,168.818 32.2891,171.818 32.5,175.5C 35.8499,175.335 39.1832,175.502 42.5,176C 39.4875,177.679 37.1541,180.013 35.5,183C 36.7797,186.152 37.6131,189.319 38,192.5C 35.4948,190.251 32.8281,188.251 30,186.5C 26.6727,187.998 23.6727,189.998 21,192.5C 21.3869,189.319 22.2203,186.152 23.5,183C 21.8459,180.013 19.5125,177.679 16.5,176C 19.8168,175.502 23.1501,175.335 26.5,175.5C 27.1667,172.5 27.8333,169.5 28.5,166.5 Z"/></g>
<g><path style="opacity:1" fill="#f2f4f6" d="M 89.5,166.5 C 91.9558,168.818 93.2891,171.818 93.5,175.5C 96.8499,175.335 100.183,175.502 103.5,176C 100.487,177.679 98.1541,180.013 96.5,183C 97.7797,186.152 98.6131,189.319 99,192.5C 96.4948,190.251 93.8281,188.251 91,186.5C 87.6727,187.998 84.6727,189.998 82,192.5C 82.3869,189.319 83.2203,186.152 84.5,183C 82.8459,180.013 80.5125,177.679 77.5,176C 80.8168,175.502 84.1501,175.335 87.5,175.5C 88.1667,172.5 88.8333,169.5 89.5,166.5 Z"/></g>
<g><path style="opacity:1" fill="#f2f4f6" d="M 150.5,166.5 C 152.956,168.818 154.289,171.818 154.5,175.5C 157.85,175.335 161.183,175.502 164.5,176C 161.487,177.679 159.154,180.013 157.5,183C 158.78,186.152 159.613,189.319 160,192.5C 157.495,190.251 154.828,188.251 152,186.5C 148.673,187.998 145.673,189.998 143,192.5C 143.387,189.319 144.22,186.152 145.5,183C 143.846,180.013 141.513,177.679 138.5,176C 141.817,175.502 145.15,175.335 148.5,175.5C 149.167,172.5 149.833,169.5 150.5,166.5 Z"/></g>
<g><path style="opacity:1" fill="#f2f4f6" d="M 211.5,166.5 C 213.956,168.818 215.289,171.818 215.5,175.5C 218.85,175.335 222.183,175.502 225.5,176C 222.487,177.679 220.154,180.013 218.5,183C 219.78,186.152 220.613,189.319 221,192.5C 218.495,190.251 215.828,188.251 213,186.5C 209.673,187.998 206.673,189.998 204,192.5C 204.387,189.319 205.22,186.152 206.5,183C 204.846,180.013 202.513,177.679 199.5,176C 202.817,175.502 206.15,175.335 209.5,175.5C 210.167,172.5 210.833,169.5 211.5,166.5 Z"/></g>
<g><path style="opacity:1" fill="#f2f4f6" d="M 272.5,166.5 C 274.956,168.818 276.289,171.818 276.5,175.5C 279.85,175.335 283.183,175.502 286.5,176C 283.487,177.679 281.154,180.013 279.5,183C 280.78,186.152 281.613,189.319 282,192.5C 279.495,190.251 276.828,188.251 274,186.5C 270.673,187.998 267.673,189.998 265,192.5C 265.387,189.319 266.22,186.152 267.5,183C 265.846,180.013 263.513,177.679 260.5,176C 263.817,175.502 267.15,175.335 270.5,175.5C 271.167,172.5 271.833,169.5 272.5,166.5 Z"/></g>
<g><path style="opacity:1" fill="#f2f4f6" d="M 332.5,166.5 C 334.956,168.818 336.289,171.818 336.5,175.5C 339.85,175.335 343.183,175.502 346.5,176C 343.487,177.679 341.154,180.013 339.5,183C 340.78,186.152 341.613,189.319 342,192.5C 339.495,190.251 336.828,188.251 334,186.5C 330.673,187.998 327.673,189.998 325,192.5C 325.387,189.319 326.22,186.152 327.5,183C 325.846,180.013 323.513,177.679 320.5,176C 323.817,175.502 327.15,175.335 330.5,175.5C 331.167,172.5 331.833,169.5 332.5,166.5 Z"/></g>
<g><path style="opacity:1" fill="#fdf9fa" d="M 364.5,183.5 C 456.167,183.5 547.833,183.5 639.5,183.5C 639.5,196.167 639.5,208.833 639.5,221.5C 547.833,221.5 456.167,221.5 364.5,221.5C 364.5,208.833 364.5,196.167 364.5,183.5 Z"/></g>
<g><path style="opacity:1" fill="#f2f4f6" d="M 59.5,192.5 C 61.9558,194.818 63.2891,197.818 63.5,201.5C 66.8499,201.335 70.1832,201.502 73.5,202C 70.4875,203.679 68.1541,206.013 66.5,209C 67.7797,212.152 68.6131,215.319 69,218.5C 66.4948,216.251 63.8281,214.251 61,212.5C 57.6727,213.998 54.6727,215.998 52,218.5C 52.3869,215.319 53.2203,212.152 54.5,209C 52.8459,206.013 50.5125,203.679 47.5,202C 50.8168,201.502 54.1501,201.335 57.5,201.5C 58.1667,198.5 58.8333,195.5 59.5,192.5 Z"/></g>
<g><path style="opacity:1" fill="#f2f4f6" d="M 120.5,192.5 C 122.956,194.818 124.289,197.818 124.5,201.5C 127.85,201.335 131.183,201.502 134.5,202C 131.487,203.679 129.154,206.013 127.5,209C 128.78,212.152 129.613,215.319 130,218.5C 127.495,216.251 124.828,214.251 122,212.5C 118.673,213.998 115.673,215.998 113,218.5C 113.387,215.319 114.22,212.152 115.5,209C 113.846,206.013 111.513,203.679 108.5,202C 111.817,201.502 115.15,201.335 118.5,201.5C 119.167,198.5 119.833,195.5 120.5,192.5 Z"/></g>
<g><path style="opacity:1" fill="#f2f4f6" d="M 181.5,192.5 C 183.956,194.818 185.289,197.818 185.5,201.5C 188.85,201.335 192.183,201.502 195.5,202C 192.487,203.679 190.154,206.013 188.5,209C 189.78,212.152 190.613,215.319 191,218.5C 188.495,216.251 185.828,214.251 183,212.5C 179.673,213.998 176.673,215.998 174,218.5C 174.387,215.319 175.22,212.152 176.5,209C 174.846,206.013 172.513,203.679 169.5,202C 172.817,201.502 176.15,201.335 179.5,201.5C 180.167,198.5 180.833,195.5 181.5,192.5 Z"/></g>
<g><path style="opacity:1" fill="#f2f4f6" d="M 241.5,192.5 C 243.956,194.818 245.289,197.818 245.5,201.5C 248.85,201.335 252.183,201.502 255.5,202C 252.487,203.679 250.154,206.013 248.5,209C 249.78,212.152 250.613,215.319 251,218.5C 248.495,216.251 245.828,214.251 243,212.5C 239.673,213.998 236.673,215.998 234,218.5C 234.387,215.319 235.22,212.152 236.5,209C 234.846,206.013 232.513,203.679 229.5,202C 232.817,201.502 236.15,201.335 239.5,201.5C 240.167,198.5 240.833,195.5 241.5,192.5 Z"/></g>
<g><path style="opacity:1" fill="#f2f4f6" d="M 302.5,192.5 C 304.956,194.818 306.289,197.818 306.5,201.5C 309.85,201.335 313.183,201.502 316.5,202C 313.487,203.679 311.154,206.013 309.5,209C 310.78,212.152 311.613,215.319 312,218.5C 309.495,216.251 306.828,214.251 304,212.5C 300.673,213.998 297.673,215.998 295,218.5C 295.387,215.319 296.22,212.152 297.5,209C 295.846,206.013 293.513,203.679 290.5,202C 293.817,201.502 297.15,201.335 300.5,201.5C 301.167,198.5 301.833,195.5 302.5,192.5 Z"/></g>
<g><path style="opacity:1" fill="#f2f4f6" d="M 28.5,218.5 C 30.9558,220.818 32.2891,223.818 32.5,227.5C 35.8499,227.335 39.1832,227.502 42.5,228C 39.4875,229.679 37.1541,232.013 35.5,235C 36.7797,238.152 37.6131,241.319 38,244.5C 35.4948,242.251 32.8281,240.251 30,238.5C 26.6727,239.998 23.6727,241.998 21,244.5C 21.3869,241.319 22.2203,238.152 23.5,235C 21.8459,232.013 19.5125,229.679 16.5,228C 19.8168,227.502 23.1501,227.335 26.5,227.5C 27.1667,224.5 27.8333,221.5 28.5,218.5 Z"/></g>
<g><path style="opacity:1" fill="#f2f4f6" d="M 89.5,218.5 C 91.9558,220.818 93.2891,223.818 93.5,227.5C 96.8499,227.335 100.183,227.502 103.5,228C 100.487,229.679 98.1541,232.013 96.5,235C 97.7797,238.152 98.6131,241.319 99,244.5C 96.4948,242.251 93.8281,240.251 91,238.5C 87.6727,239.998 84.6727,241.998 82,244.5C 82.3869,241.319 83.2203,238.152 84.5,235C 82.8459,232.013 80.5125,229.679 77.5,228C 80.8168,227.502 84.1501,227.335 87.5,227.5C 88.1667,224.5 88.8333,221.5 89.5,218.5 Z"/></g>
<g><path style="opacity:1" fill="#f2f4f6" d="M 150.5,218.5 C 152.956,220.818 154.289,223.818 154.5,227.5C 157.85,227.335 161.183,227.502 164.5,228C 161.487,229.679 159.154,232.013 157.5,235C 158.78,238.152 159.613,241.319 160,244.5C 157.495,242.251 154.828,240.251 152,238.5C 148.673,239.998 145.673,241.998 143,244.5C 143.387,241.319 144.22,238.152 145.5,235C 143.846,232.013 141.513,229.679 138.5,228C 141.817,227.502 145.15,227.335 148.5,227.5C 149.167,224.5 149.833,221.5 150.5,218.5 Z"/></g>
<g><path style="opacity:1" fill="#f2f4f6" d="M 211.5,218.5 C 213.956,220.818 215.289,223.818 215.5,227.5C 218.85,227.335 222.183,227.502 225.5,228C 222.487,229.679 220.154,232.013 218.5,235C 219.78,238.152 220.613,241.319 221,244.5C 218.495,242.251 215.828,240.251 213,238.5C 209.673,239.998 206.673,241.998 204,244.5C 204.387,241.319 205.22,238.152 206.5,235C 204.846,232.013 202.513,229.679 199.5,228C 202.817,227.502 206.15,227.335 209.5,227.5C 210.167,224.5 210.833,221.5 211.5,218.5 Z"/></g>
<g><path style="opacity:1" fill="#f2f4f6" d="M 272.5,218.5 C 274.956,220.818 276.289,223.818 276.5,227.5C 279.85,227.335 283.183,227.502 286.5,228C 283.487,229.679 281.154,232.013 279.5,235C 280.78,238.152 281.613,241.319 282,244.5C 279.495,242.251 276.828,240.251 274,238.5C 270.673,239.998 267.673,241.998 265,244.5C 265.387,241.319 266.22,238.152 267.5,235C 265.846,232.013 263.513,229.679 260.5,228C 263.817,227.502 267.15,227.335 270.5,227.5C 271.167,224.5 271.833,221.5 272.5,218.5 Z"/></g>
<g><path style="opacity:1" fill="#f2f4f6" d="M 332.5,218.5 C 334.956,220.818 336.289,223.818 336.5,227.5C 339.85,227.335 343.183,227.502 346.5,228C 343.487,229.679 341.154,232.013 339.5,235C 340.78,238.152 341.613,241.319 342,244.5C 339.495,242.251 336.828,240.251 334,238.5C 330.673,239.998 327.673,241.998 325,244.5C 325.387,241.319 326.22,238.152 327.5,235C 325.846,232.013 323.513,229.679 320.5,228C 323.817,227.502 327.15,227.335 330.5,227.5C 331.167,224.5 331.833,221.5 332.5,218.5 Z"/></g>
<g><path style="opacity:1" fill="#bc3d43" d="M 364.5,221.5 C 456.167,221.5 547.833,221.5 639.5,221.5C 639.5,233.5 639.5,245.5 639.5,257.5C 547.833,257.5 456.167,257.5 364.5,257.5C 364.5,245.5 364.5,233.5 364.5,221.5 Z"/></g>
<g><path style="opacity:1" fill="#fefbfb" d="M 364.5,257.5 C 456.167,257.5 547.833,257.5 639.5,257.5C 639.5,270.167 639.5,282.833 639.5,295.5C 426.167,295.5 212.833,295.5 -0.5,295.5C -0.5,283.167 -0.5,270.833 -0.5,258.5C 121.334,258.833 243.001,258.5 364.5,257.5 Z"/></g>
<g><path style="opacity:1" fill="#bc3d43" d="M -0.5,295.5 C 212.833,295.5 426.167,295.5 639.5,295.5C 639.5,307.5 639.5,319.5 639.5,331.5C 426.167,331.5 212.833,331.5 -0.5,331.5C -0.5,319.5 -0.5,307.5 -0.5,295.5 Z"/></g>
<g><path style="opacity:1" fill="#fdf9fa" d="M -0.5,331.5 C 212.833,331.5 426.167,331.5 639.5,331.5C 639.5,344.167 639.5,356.833 639.5,369.5C 426.167,369.5 212.833,369.5 -0.5,369.5C -0.5,356.833 -0.5,344.167 -0.5,331.5 Z"/></g>
<g><path style="opacity:1" fill="#bc3d43" d="M -0.5,369.5 C 212.833,369.5 426.167,369.5 639.5,369.5C 639.5,381.5 639.5,393.5 639.5,405.5C 426.167,405.5 212.833,405.5 -0.5,405.5C -0.5,393.5 -0.5,381.5 -0.5,369.5 Z"/></g>
<g><path style="opacity:1" fill="#fdf9fa" d="M -0.5,405.5 C 212.833,405.5 426.167,405.5 639.5,405.5C 639.5,418.167 639.5,430.833 639.5,443.5C 426.167,443.5 212.833,443.5 -0.5,443.5C -0.5,430.833 -0.5,418.167 -0.5,405.5 Z"/></g>
<g><path style="opacity:1" fill="#bc3d43" d="M -0.5,443.5 C 212.833,443.5 426.167,443.5 639.5,443.5C 639.5,455.5 639.5,467.5 639.5,479.5C 426.167,479.5 212.833,479.5 -0.5,479.5C -0.5,467.5 -0.5,455.5 -0.5,443.5 Z"/></g>
</svg>
