<?xml version="1.0" encoding="UTF-8"?>
<!DOCTYPE svg PUBLIC "-//W3C//DTD SVG 1.1//EN" "http://www.w3.org/Graphics/SVG/1.1/DTD/svg11.dtd">
<svg xmlns="http://www.w3.org/2000/svg" version="1.1" width="640px" height="480px" style="shape-rendering:geometricPrecision; text-rendering:geometricPrecision; image-rendering:optimizeQuality; fill-rule:evenodd; clip-rule:evenodd" xmlns:xlink="http://www.w3.org/1999/xlink">
<g><path style="opacity:1" fill="#fdfdfe" d="M -0.5,-0.5 C 212.833,-0.5 426.167,-0.5 639.5,-0.5C 639.5,17.1667 639.5,34.8333 639.5,52.5C 514.833,52.5 390.167,52.5 265.5,52.5C 265.5,70.5 265.5,88.5 265.5,106.5C 390.167,106.5 514.833,106.5 639.5,106.5C 639.5,124.167 639.5,141.833 639.5,159.5C 514.833,159.5 390.167,159.5 265.5,159.5C 265.5,177.167 265.5,194.833 265.5,212.5C 390.167,212.5 514.833,212.5 639.5,212.5C 639.5,230.5 639.5,248.5 639.5,266.5C 426.167,266.5 212.833,266.5 -0.5,266.5C -0.5,177.5 -0.5,88.5 -0.5,-0.5 Z"/></g>
<g><path style="opacity:1" fill="#073aa8" d="M 639.5,52.5 C 639.5,70.5 639.5,88.5 639.5,106.5C 514.833,106.5 390.167,106.5 265.5,106.5C 265.5,88.5 265.5,70.5 265.5,52.5C 390.167,52.5 514.833,52.5 639.5,52.5 Z"/></g>
<g><path style="opacity:1" fill="#1b1810" d="M 136.5,211.5 C 136.672,210.508 136.338,209.842 135.5,209.5C 138.794,194.416 141.127,179.416 142.5,164.5C 142.158,163.662 141.492,163.328 140.5,163.5C 144.703,162.065 148.703,160.065 152.5,157.5C 153.167,157.5 153.5,157.833 153.5,158.5C 151.66,160.168 149.66,161.668 147.5,163C 161.384,172.767 175.384,182.267 189.5,191.5C 190.122,192.627 190.955,193.627 192,194.5C 192.5,193.333 193.333,192.5 194.5,192C 193.627,190.955 192.627,190.122 191.5,189.5C 182.267,175.384 172.767,161.384 163,147.5C 161.824,149.196 160.657,150.862 159.5,152.5C 158.833,152.5 158.167,152.5 157.5,152.5C 168.808,134.572 166.142,119.072 149.5,106C 133.091,97.7296 118.925,100.563 107,114.5C 98.242,130.085 100.075,144.252 112.5,157C 117.045,160.606 122.045,163.106 127.5,164.5C 127.5,164.833 127.5,165.167 127.5,165.5C 126.07,165.579 124.736,165.246 123.5,164.5C 123.167,165.333 122.833,166.167 122.5,167C 125.093,181.867 127.76,196.701 130.5,211.5C 129.662,211.842 129.328,212.508 129.5,213.5C 127.407,203.877 125.241,194.21 123,184.5C 119.549,187.956 116.882,191.956 115,196.5C 113.063,202.976 110.73,209.309 108,215.5C 103.975,219.761 99.1419,222.261 93.5,223C 96.7621,220.408 99.2621,217.241 101,213.5C 101.5,206.991 101.333,200.491 100.5,194C 100.65,187.9 101.983,182.066 104.5,176.5C 104.167,176.167 103.833,175.833 103.5,175.5C 89.5285,184.972 75.6951,194.639 62,204.5C 70.6034,190.679 79.7701,177.012 89.5,163.5C 85.8391,162.548 82.1724,162.715 78.5,164C 72.0148,166.743 65.6814,169.743 59.5,173C 52.5323,174.462 46.199,173.129 40.5,169C 45.2824,168.881 49.9491,168.215 54.5,167C 62.0167,156.812 71.35,148.812 82.5,143C 65.9252,139.358 49.2586,136.024 32.5,133C 48.8707,129.758 65.204,126.424 81.5,123C 73.9661,116.703 65.2995,112.703 55.5,111C 47.4531,107.401 42.9531,101.234 42,92.5C 48.6731,101.465 57.5064,104.132 68.5,100.5C 75.5354,100.811 82.3688,102.145 89,104.5C 89.5,104.167 90,103.833 90.5,103.5C 80.9565,89.5793 71.2898,75.7459 61.5,62C 75.4889,70.9401 89.3222,80.4401 103,90.5C 103.202,85.7498 102.535,81.0831 101,76.5C 97.9844,70.4689 94.9844,64.4689 92,58.5C 90.6625,52.1867 91.9958,46.52 96,41.5C 95.8219,46.9251 97.1553,51.9251 100,56.5C 110.548,63.0481 118.215,72.0481 123,83.5C 126.333,66.1667 129.667,48.8333 133,31.5C 135.871,48.19 138.871,64.8567 142,81.5C 145.053,78.1134 147.72,74.4467 150,70.5C 151.738,63.6184 154.072,56.9518 157,50.5C 161.179,45.6644 166.345,42.831 172.5,42C 168.908,44.921 166.075,48.421 164,52.5C 164.369,61.15 164.369,69.8167 164,78.5C 162.959,82.9259 161.959,87.2592 161,91.5C 175.086,80.7337 189.586,70.9004 204.5,62C 194.833,75.6667 185.167,89.3333 175.5,103C 179.883,102.992 184.216,102.326 188.5,101C 194.725,98.439 200.725,95.439 206.5,92C 212.892,91.4306 218.892,92.7639 224.5,96C 219.61,96.0597 214.943,97.0597 210.5,99C 206.5,103.667 202.5,108.333 198.5,113C 193.503,116.834 188.17,120.167 182.5,123C 198.793,126.438 215.127,129.772 231.5,133C 215.578,136.384 199.578,139.384 183.5,142C 187.487,145.997 192.154,148.997 197.5,151C 204.02,152.878 210.353,155.211 216.5,158C 220.185,161.868 222.352,166.368 223,171.5C 215.237,163.473 205.904,161.14 195,164.5C 188.803,164.66 182.803,163.66 177,161.5C 176.5,161.833 176,162.167 175.5,162.5C 184.747,175.326 193.747,188.326 202.5,201.5C 201.998,202.521 201.332,202.688 200.5,202C 188.088,193.044 175.588,184.21 163,175.5C 162.688,180.269 163.355,184.935 165,189.5C 167.651,194.802 170.318,200.136 173,205.5C 174.405,212.754 173.072,219.421 169,225.5C 169.095,219.91 168.095,214.577 166,209.5C 155.485,202.819 147.651,193.819 142.5,182.5C 140.489,192.299 138.489,201.965 136.5,211.5 Z"/></g>
<g><path style="opacity:1" fill="#f2c915" d="M 108.5,109.5 C 106.495,112.351 104.662,115.351 103,118.5C 93.2798,104.953 83.7798,91.2866 74.5,77.5C 74.4346,77.0618 74.6012,76.7284 75,76.5C 86.0349,87.7021 97.2016,98.7021 108.5,109.5 Z"/></g>
<g><path style="opacity:1" fill="#e7c014" d="M 192.5,73.5 C 193.525,73.8966 193.692,74.5632 193,75.5C 182.61,89.5571 172.61,103.89 163,118.5C 161.579,115.991 159.912,113.657 158,111.5C 157.333,110.5 157.333,109.5 158,108.5C 169.702,96.9651 181.202,85.2985 192.5,73.5 Z"/></g>
<g><path style="opacity:1" fill="#f3c915" d="M 77.5,74.5 C 91.2866,83.7798 104.953,93.2798 118.5,103C 115.351,104.662 112.351,106.495 109.5,108.5C 98.7021,97.2016 87.7021,86.0349 76.5,75C 76.7284,74.6012 77.0618,74.4346 77.5,74.5 Z"/></g>
<g><path style="opacity:1" fill="#eec514" d="M 188.5,73.5 C 189.239,73.369 189.906,73.5357 190.5,74C 179.167,85.3333 167.833,96.6667 156.5,108C 153.52,106.668 150.52,105.001 147.5,103C 161.348,93.3035 175.015,83.4702 188.5,73.5 Z"/></g>
<g><path style="opacity:1" fill="#382e09" d="M 77.5,74.5 C 77.0618,74.4346 76.7284,74.6012 76.5,75C 87.7021,86.0349 98.7021,97.2016 109.5,108.5C 108.833,108.5 108.5,108.833 108.5,109.5C 97.2016,98.7021 86.0349,87.7021 75,76.5C 74.6012,76.7284 74.4346,77.0618 74.5,77.5C 72.9302,76.1252 72.0969,74.4585 72,72.5C 73.3086,74.8912 74.3086,74.8912 75,72.5C 75.9947,73.0659 76.828,73.7326 77.5,74.5 Z"/></g>
<g><path style="opacity:1" fill="#eac215" d="M 97.5,56.5 C 109.38,63.9021 117.713,74.2354 122.5,87.5C 122.078,91.0068 121.244,94.3401 120,97.5C 118.196,92.4203 116.196,87.4203 114,82.5C 108.645,73.6646 103.145,64.9979 97.5,56.5 Z"/></g>
<g><path style="opacity:1" fill="#ecc314" d="M 93.5,53.5 C 98.7988,62.7425 104.632,71.7425 111,80.5C 114.756,86.7735 117.09,93.4402 118,100.5C 113.667,97.5 109.333,94.5 105,91.5C 104.868,80.4364 101.534,70.4364 95,61.5C 93.9207,58.9373 93.4207,56.2706 93.5,53.5 Z"/></g>
<g><path style="opacity:1" fill="#e8c115" d="M 161.5,52.5 C 164.868,66.0823 163.701,79.4156 158,92.5C 155.362,95.3167 152.362,97.65 149,99.5C 150.656,94.4978 152.656,89.4978 155,84.5C 157.493,73.8717 159.659,63.2051 161.5,52.5 Z"/></g>
<g><path style="opacity:1" fill="#e7c014" d="M 133.5,46.5 C 137.246,63.6211 140.579,80.9544 143.5,98.5C 143.167,99.5 142.833,100.5 142.5,101.5C 139.553,100.577 136.553,99.9107 133.5,99.5C 133.5,81.8333 133.5,64.1667 133.5,46.5 Z"/></g>
<g><path style="opacity:1" fill="#ecc314" d="M 160.5,48.5 C 161.043,48.56 161.376,48.8933 161.5,49.5C 160.391,51.3853 159.557,53.3853 159,55.5C 157.449,71.048 153.115,85.7146 146,99.5C 143.925,94.3871 142.925,89.0538 143,83.5C 144.667,81.5 146.333,79.5 148,77.5C 152.087,67.7175 156.254,58.0509 160.5,48.5 Z"/></g>
<g><path style="opacity:1" fill="#efc615" d="M 130.5,51.5 C 131.496,67.3246 131.83,83.3246 131.5,99.5C 128.027,99.5758 124.694,100.242 121.5,101.5C 124.498,84.8474 127.498,68.1808 130.5,51.5 Z"/></g>
<g><path style="opacity:1" fill="#6a5809" d="M 131.5,99.5 C 131.83,83.3246 131.496,67.3246 130.5,51.5C 130.892,49.8211 131.392,48.1545 132,46.5C 132.829,64.3381 132.662,82.0048 131.5,99.5 Z"/></g>
<g><path style="opacity:1" fill="#edc414" d="M 206.5,93.5 C 208.857,93.3367 211.19,93.5034 213.5,94C 204.414,97.7112 196.081,102.711 188.5,109C 181.516,112.992 174.183,116.159 166.5,118.5C 166.167,118.167 165.833,117.833 165.5,117.5C 168.623,113.422 171.623,109.255 174.5,105C 186.325,104.248 196.991,100.415 206.5,93.5 Z"/></g>
<g><path style="opacity:1" fill="#846d0c" d="M 207.5,99.5 C 207.5,99.1667 207.5,98.8333 207.5,98.5C 209.186,95.9953 211.519,95.162 214.5,96C 211.861,96.6529 209.527,97.8196 207.5,99.5 Z"/></g>
<g><path style="opacity:1" fill="#ebc314" d="M 207.5,98.5 C 207.5,98.8333 207.5,99.1667 207.5,99.5C 200.392,110.942 190.392,118.609 177.5,122.5C 173.819,121.73 170.152,120.897 166.5,120C 174.268,118.118 181.602,115.118 188.5,111C 194.733,106.585 201.067,102.418 207.5,98.5 Z"/></g>
<g><path style="opacity:1" fill="#f3ca15" d="M 157.5,152.5 C 155.5,153.833 153.833,155.5 152.5,157.5C 148.703,160.065 144.703,162.065 140.5,163.5C 136.215,164.295 131.881,164.628 127.5,164.5C 122.045,163.106 117.045,160.606 112.5,157C 100.075,144.252 98.242,130.085 107,114.5C 118.925,100.563 133.091,97.7296 149.5,106C 166.142,119.072 168.808,134.572 157.5,152.5 Z"/></g>
<g><path style="opacity:1" fill="#e9c115" d="M 50.5,103.5 C 65.0575,100.948 79.3909,102.448 93.5,108C 95.7905,111.104 97.6239,114.271 99,117.5C 93.43,114.42 87.5966,111.92 81.5,110C 71.0557,108.248 60.7224,106.081 50.5,103.5 Z"/></g>
<g><path style="opacity:1" fill="#efc615" d="M 48.5,103.5 C 51.0236,104.927 53.6902,106.094 56.5,107C 72.0574,108.442 86.7241,112.775 100.5,120C 94.6122,121.794 88.6122,122.461 82.5,122C 78.5131,118.003 73.8464,115.003 68.5,113C 62.6177,111.595 56.951,109.595 51.5,107C 49.9371,106.241 48.9371,105.074 48.5,103.5 Z"/></g>
<g><path style="opacity:1" fill="#1f1a05" d="M 115.5,115.5 C 121.16,114.831 125.827,116.664 129.5,121C 126.393,119.237 122.893,118.404 119,118.5C 115.958,118.365 113.125,119.031 110.5,120.5C 110.167,120.333 109.833,120.167 109.5,120C 111.389,118.236 113.389,116.736 115.5,115.5 Z"/></g>
<g><path style="opacity:1" fill="#1f1906" d="M 142.5,115.5 C 147.725,115.297 152.392,116.797 156.5,120C 153.152,119.145 149.652,118.645 146,118.5C 142.595,118.054 139.761,119.054 137.5,121.5C 137.167,121.333 136.833,121.167 136.5,121C 138.396,118.932 140.396,117.099 142.5,115.5 Z"/></g>
<g><path style="opacity:1" fill="#0d0901" d="M 116.5,121.5 C 119.518,121.335 122.518,121.502 125.5,122C 126.863,124.129 126.529,124.629 124.5,123.5C 123.618,124.76 122.618,125.926 121.5,127C 122.094,127.464 122.761,127.631 123.5,127.5C 121.735,128.461 119.735,128.795 117.5,128.5C 117.702,126.05 117.369,123.717 116.5,121.5 Z"/></g>
<g><path style="opacity:1" fill="#1a1504" d="M 151.5,123.5 C 150.504,123.586 149.671,123.252 149,122.5C 148.091,124.658 147.925,126.658 148.5,128.5C 145.813,128.664 143.146,128.497 140.5,128C 139.549,127.282 139.383,126.449 140,125.5C 142.69,126.459 143.024,125.792 141,123.5C 137.89,124.673 137.723,124.173 140.5,122C 143.833,121.333 147.167,121.333 150.5,122C 151.056,122.383 151.389,122.883 151.5,123.5 Z"/></g>
<g><path style="opacity:1" fill="#eec615" d="M 99.5,131.5 C 83.3246,131.83 67.3246,131.496 51.5,130.5C 67.8723,127.625 84.2056,124.625 100.5,121.5C 100.833,122 101.167,122.5 101.5,123C 100.006,125.639 99.3389,128.472 99.5,131.5 Z"/></g>
<g><path style="opacity:1" fill="#f2c915" d="M 213.5,130.5 C 197.675,131.496 181.675,131.83 165.5,131.5C 165.726,128.751 165.393,126.084 164.5,123.5C 165.667,123.167 166.833,122.833 168,122.5C 183.168,125.222 198.335,127.889 213.5,130.5 Z"/></g>
<g><path style="opacity:1" fill="#89720d" d="M 116.5,121.5 C 117.369,123.717 117.702,126.05 117.5,128.5C 110.336,126.528 110.002,124.194 116.5,121.5 Z"/></g>
<g><path style="opacity:1" fill="#251f08" d="M 123.5,127.5 C 124.14,125.668 125.14,125.335 126.5,126.5C 125.675,127.386 124.675,127.719 123.5,127.5 Z"/></g>
<g><path style="opacity:1" fill="#9c810e" d="M 151.5,123.5 C 152.756,123.461 153.756,123.961 154.5,125C 152.612,126.394 150.612,127.56 148.5,128.5C 147.925,126.658 148.091,124.658 149,122.5C 149.671,123.252 150.504,123.586 151.5,123.5 Z"/></g>
<g><path style="opacity:1" fill="#645308" d="M 51.5,130.5 C 67.3246,131.496 83.3246,131.83 99.5,131.5C 82.0048,132.662 64.3381,132.829 46.5,132C 48.1545,131.392 49.8211,130.892 51.5,130.5 Z"/></g>
<g><path style="opacity:1" fill="#645309" d="M 213.5,130.5 C 215.308,130.491 216.975,130.991 218.5,132C 200.662,132.829 182.995,132.662 165.5,131.5C 181.675,131.83 197.675,131.496 213.5,130.5 Z"/></g>
<g><path style="opacity:1" fill="#c2a111" d="M 210.5,135.5 C 203.341,134.834 196.008,134.5 188.5,134.5C 180.599,134.534 172.933,135.2 165.5,136.5C 165.5,135.5 165.5,134.5 165.5,133.5C 183.17,133.333 200.836,133.5 218.5,134C 215.793,134.395 213.127,134.895 210.5,135.5 Z"/></g>
<g><path style="opacity:1" fill="#e7c014" d="M 46.5,134.5 C 63.9921,133.503 81.6588,133.17 99.5,133.5C 99.9107,136.553 100.577,139.553 101.5,142.5C 100.5,142.833 99.5,143.167 98.5,143.5C 81.1993,140.24 63.866,137.24 46.5,134.5 Z"/></g>
<g><path style="opacity:1" fill="#f5cb15" d="M 210.5,135.5 C 195.167,138.167 179.833,140.833 164.5,143.5C 164.674,141.139 165.007,138.806 165.5,136.5C 172.933,135.2 180.599,134.534 188.5,134.5C 196.008,134.5 203.341,134.834 210.5,135.5 Z"/></g>
<g><path style="opacity:1" fill="#2b2309" d="M 126.5,135.5 C 127.404,136.209 127.737,137.209 127.5,138.5C 129.342,138.723 131.175,139.057 133,139.5C 135.528,139.442 137.528,138.442 139,136.5C 140.222,138.696 142.056,140.196 144.5,141C 137.161,141.169 129.828,141.336 122.5,141.5C 121.304,141.154 121.304,140.654 122.5,140C 123.448,139.517 124.448,139.351 125.5,139.5C 125.433,138.041 125.766,136.708 126.5,135.5 Z"/></g>
<g><path style="opacity:1" fill="#ebc314" d="M 84.5,143.5 C 88.8766,143.577 93.2099,144.077 97.5,145C 84.2518,149.954 72.2518,156.954 61.5,166C 60.2411,166.982 58.9078,167.315 57.5,167C 64.227,156.432 73.227,148.599 84.5,143.5 Z"/></g>
<g><path style="opacity:1" fill="#e8c114" d="M 214.5,161.5 C 213.4,160.442 212.066,159.608 210.5,159C 194.373,158.054 179.373,153.554 165.5,145.5C 171.149,144.201 176.815,143.368 182.5,143C 191.369,150.934 201.703,155.934 213.5,158C 214.5,159 215.5,160 216.5,161C 215.906,161.464 215.239,161.631 214.5,161.5 Z"/></g>
<g><path style="opacity:1" fill="#f0c715" d="M 57.5,171.5 C 56.5084,171.672 55.8417,171.338 55.5,170.5C 57.5932,169.955 59.5932,169.122 61.5,168C 71.5813,159.289 82.9146,152.623 95.5,148C 96.9437,147.219 98.277,147.386 99.5,148.5C 97.4179,152.747 94.7512,156.581 91.5,160C 85.3255,160.568 79.3255,161.901 73.5,164C 68.5264,167.321 63.193,169.821 57.5,171.5 Z"/></g>
<g><path style="opacity:1" fill="#edc514" d="M 102.5,147.5 C 104.884,150.288 106.718,153.288 108,156.5C 96.6667,167.833 85.3333,179.167 74,190.5C 82.7646,175.86 92.2646,161.526 102.5,147.5 Z"/></g>
<g><path style="opacity:1" fill="#f3ca15" d="M 191.5,189.5 C 180.202,178.702 169.035,167.702 158,156.5C 157.7,154.934 158.2,153.601 159.5,152.5C 160.657,150.862 161.824,149.196 163,147.5C 172.767,161.384 182.267,175.384 191.5,189.5 Z"/></g>
<g><path style="opacity:1" fill="#120e02" d="M 141.5,149.5 C 140.653,150.966 139.32,151.8 137.5,152C 132.56,153.041 127.894,152.374 123.5,150C 122.833,149 122.167,148 121.5,147C 129.141,145.034 136.808,145.034 144.5,147C 143.922,148.417 142.922,149.25 141.5,149.5 Z"/></g>
<g><path style="opacity:1" fill="#9b810e" d="M 141.5,149.5 C 135.249,151.23 129.249,150.73 123.5,148C 126.5,147.833 129.5,147.667 132.5,147.5C 135.913,147.517 138.913,148.184 141.5,149.5 Z"/></g>
<g><path style="opacity:1" fill="#edc515" d="M 209.5,160.5 C 208.167,161.167 206.833,161.833 205.5,162.5C 193.727,164.778 182.56,163.111 172,157.5C 169.49,154.801 167.824,151.801 167,148.5C 180.286,155.531 194.453,159.531 209.5,160.5 Z"/></g>
<g><path style="opacity:1" fill="#342b09" d="M 157.5,152.5 C 158.167,152.5 158.833,152.5 159.5,152.5C 158.2,153.601 157.7,154.934 158,156.5C 169.035,167.702 180.202,178.702 191.5,189.5C 192.627,190.122 193.627,190.955 194.5,192C 193.333,192.5 192.5,193.333 192,194.5C 190.955,193.627 190.122,192.627 189.5,191.5C 178.702,180.202 167.702,169.035 156.5,158C 155.423,157.53 154.423,157.697 153.5,158.5C 153.5,157.833 153.167,157.5 152.5,157.5C 153.833,155.5 155.5,153.833 157.5,152.5 Z"/></g>
<g><path style="opacity:1" fill="#e9c114" d="M 108.5,157.5 C 109.552,157.351 110.552,157.517 111.5,158C 113.657,159.912 115.991,161.579 118.5,163C 104.225,172.276 90.2247,181.943 76.5,192C 75.8333,192.667 75.1667,192.667 74.5,192C 86.0354,180.632 97.3687,169.132 108.5,157.5 Z"/></g>
<g><path style="opacity:1" fill="#f3c915" d="M 189.5,191.5 C 175.384,182.267 161.384,172.767 147.5,163C 149.66,161.668 151.66,160.168 153.5,158.5C 154.423,157.697 155.423,157.53 156.5,158C 167.702,169.035 178.702,180.202 189.5,191.5 Z"/></g>
<g><path style="opacity:1" fill="#0037a8" d="M 639.5,159.5 C 639.5,177.167 639.5,194.833 639.5,212.5C 514.833,212.5 390.167,212.5 265.5,212.5C 265.5,194.833 265.5,177.167 265.5,159.5C 390.167,159.5 514.833,159.5 639.5,159.5 Z"/></g>
<g><path style="opacity:1" fill="#8a720c" d="M 209.5,160.5 C 211.117,161.038 212.784,161.371 214.5,161.5C 215.463,162.363 215.463,163.03 214.5,163.5C 211.579,162.593 208.579,162.26 205.5,162.5C 206.833,161.833 208.167,161.167 209.5,160.5 Z"/></g>
<g><path style="opacity:1" fill="#060503" d="M 140.5,163.5 C 141.492,163.328 142.158,163.662 142.5,164.5C 139.545,165.159 136.545,165.492 133.5,165.5C 133.333,183.17 133.5,200.836 134,218.5C 134.696,215.522 135.196,212.522 135.5,209.5C 136.338,209.842 136.672,210.508 136.5,211.5C 135.443,218.174 134.276,224.841 133,231.5C 131.138,225.631 129.971,219.631 129.5,213.5C 129.328,212.508 129.662,211.842 130.5,211.5C 130.5,212.167 130.5,212.833 130.5,213.5C 130.491,215.308 130.991,216.975 132,218.5C 132.829,200.662 132.662,182.995 131.5,165.5C 130.167,165.5 128.833,165.5 127.5,165.5C 127.5,165.167 127.5,164.833 127.5,164.5C 131.881,164.628 136.215,164.295 140.5,163.5 Z"/></g>
<g><path style="opacity:1" fill="#f5cc15" d="M 127.5,165.5 C 128.833,165.5 130.167,165.5 131.5,165.5C 131.83,181.675 131.496,197.675 130.5,213.5C 130.5,212.833 130.5,212.167 130.5,211.5C 127.76,196.701 125.093,181.867 122.5,167C 122.833,166.167 123.167,165.333 123.5,164.5C 124.736,165.246 126.07,165.579 127.5,165.5 Z"/></g>
<g><path style="opacity:1" fill="#ebc314" d="M 142.5,164.5 C 141.127,179.416 138.794,194.416 135.5,209.5C 135.196,212.522 134.696,215.522 134,218.5C 133.5,200.836 133.333,183.17 133.5,165.5C 136.545,165.492 139.545,165.159 142.5,164.5 Z"/></g>
<g><path style="opacity:1" fill="#695808" d="M 131.5,165.5 C 132.662,182.995 132.829,200.662 132,218.5C 130.991,216.975 130.491,215.308 130.5,213.5C 131.496,197.675 131.83,181.675 131.5,165.5 Z"/></g>
<g><path style="opacity:1" fill="#ecc414" d="M 171.5,207.5 C 171.672,208.492 171.338,209.158 170.5,209.5C 166.282,201.778 161.449,194.445 156,187.5C 151.546,180.281 148.546,172.614 147,164.5C 151.255,167.377 155.422,170.377 159.5,173.5C 160.809,179.544 162.309,185.544 164,191.5C 166.807,196.776 169.307,202.109 171.5,207.5 Z"/></g>
<g><path style="opacity:1" fill="#ecc415" d="M 116.5,165.5 C 117.043,165.56 117.376,165.893 117.5,166.5C 114.468,171.901 111.968,177.568 110,183.5C 107.999,192.841 105.999,202.174 104,211.5C 100.905,197.987 102.238,184.987 108,172.5C 111.023,170.302 113.856,167.969 116.5,165.5 Z"/></g>
<g><path style="opacity:1" fill="#ebc314" d="M 119.5,165.5 C 121.671,170.857 122.504,176.524 122,182.5C 114.66,191.183 109.994,201.183 108,212.5C 107.047,214.455 105.713,216.122 104,217.5C 106.903,208.53 108.903,199.197 110,189.5C 112.287,181.137 115.454,173.137 119.5,165.5 Z"/></g>
<g><path style="opacity:1" fill="#ecc416" d="M 144.5,166.5 C 149.974,181.485 157.807,195.151 168,207.5C 168.667,208.167 168.667,208.833 168,209.5C 164.443,205.975 160.61,202.809 156.5,200C 150.456,193.424 145.789,185.924 142.5,177.5C 143.681,173.928 144.348,170.262 144.5,166.5 Z"/></g>
<g><path style="opacity:1" fill="#8e750c" d="M 55.5,170.5 C 55.8417,171.338 56.5084,171.672 57.5,171.5C 55.3718,172.629 53.0385,172.796 50.5,172C 52.2475,171.648 53.9142,171.148 55.5,170.5 Z"/></g>
<g><path style="opacity:1" fill="#856e0c" d="M 171.5,207.5 C 172.629,209.628 172.796,211.961 172,214.5C 171.392,212.846 170.892,211.179 170.5,209.5C 171.338,209.158 171.672,208.492 171.5,207.5 Z"/></g>
<g><path style="opacity:1" fill="#0037a8" d="M -0.5,266.5 C 212.833,266.5 426.167,266.5 639.5,266.5C 639.5,284.167 639.5,301.833 639.5,319.5C 426.167,319.5 212.833,319.5 -0.5,319.5C -0.5,301.833 -0.5,284.167 -0.5,266.5 Z"/></g>
<g><path style="opacity:1" fill="#fefffe" d="M -0.5,319.5 C 212.833,319.5 426.167,319.5 639.5,319.5C 639.5,337.167 639.5,354.833 639.5,372.5C 426.167,372.5 212.833,372.5 -0.5,372.5C -0.5,354.833 -0.5,337.167 -0.5,319.5 Z"/></g>
<g><path style="opacity:1" fill="#073aa8" d="M -0.5,372.5 C 212.833,372.5 426.167,372.5 639.5,372.5C 639.5,390.5 639.5,408.5 639.5,426.5C 426.167,426.5 212.833,426.5 -0.5,426.5C -0.5,408.5 -0.5,390.5 -0.5,372.5 Z"/></g>
<g><path style="opacity:1" fill="#fefffe" d="M -0.5,426.5 C 212.833,426.5 426.167,426.5 639.5,426.5C 639.5,444.167 639.5,461.833 639.5,479.5C 426.167,479.5 212.833,479.5 -0.5,479.5C -0.5,461.833 -0.5,444.167 -0.5,426.5 Z"/></g>
</svg>
