<?xml version="1.0" encoding="UTF-8"?>
<!DOCTYPE svg PUBLIC "-//W3C//DTD SVG 1.1//EN" "http://www.w3.org/Graphics/SVG/1.1/DTD/svg11.dtd">
<svg xmlns="http://www.w3.org/2000/svg" version="1.1" width="640px" height="480px" style="shape-rendering:geometricPrecision; text-rendering:geometricPrecision; image-rendering:optimizeQuality; fill-rule:evenodd; clip-rule:evenodd" xmlns:xlink="http://www.w3.org/1999/xlink">
<g><path style="opacity:1" fill="#0498b4" d="M -0.5,-0.5 C 212.833,-0.5 426.167,-0.5 639.5,-0.5C 639.5,50.8333 639.5,102.167 639.5,153.5C 426.167,153.5 212.833,153.5 -0.5,153.5C -0.5,102.167 -0.5,50.8333 -0.5,-0.5 Z"/></g>
<g><path style="opacity:1" fill="#a9dce5" d="M 127.5,19.5 C 131.646,18.353 135.98,18.1864 140.5,19C 141.712,20.1068 141.379,20.6068 139.5,20.5C 135.702,19.5166 131.702,19.1832 127.5,19.5 Z"/></g>
<g><path style="opacity:1" fill="#fcfdfe" d="M 127.5,19.5 C 131.702,19.1832 135.702,19.5166 139.5,20.5C 115.628,26.8743 101.128,42.2077 96,66.5C 93.4465,100.925 108.613,123.091 141.5,133C 110.967,135.151 90.1332,121.985 79,93.5C 71.7891,61.0936 82.9558,37.5936 112.5,23C 117.246,20.7301 122.246,19.5634 127.5,19.5 Z"/></g>
<g><path style="opacity:1" fill="#f2f9fb" d="M 352.5,19.5 C 353.578,21.5394 354.578,23.706 355.5,26C 358.167,26.3333 360.833,26.6667 363.5,27C 360.998,28.3375 358.998,30.1708 357.5,32.5C 358.351,34.8535 358.851,37.1868 359,39.5C 357.185,37.5951 355.185,35.9284 353,34.5C 351.027,35.6399 349.193,36.9733 347.5,38.5C 346.897,36.5477 347.23,34.5477 348.5,32.5C 346.976,30.1421 344.976,28.3088 342.5,27C 345.146,26.5026 347.813,26.3359 350.5,26.5C 350.767,24.0347 351.434,21.7014 352.5,19.5 Z"/></g>
<g><path style="opacity:1" fill="#f2f9fb" d="M 259.5,19.5 C 261.821,21.0897 262.821,23.4231 262.5,26.5C 265.187,26.3359 267.854,26.5026 270.5,27C 269.271,28.5292 267.771,29.6959 266,30.5C 265.747,33.2004 265.747,35.867 266,38.5C 264.027,37.3601 262.193,36.0267 260.5,34.5C 254.889,40.2427 253.556,39.4093 256.5,32C 254.5,30.3333 252.5,28.6667 250.5,27C 253.146,26.5026 255.813,26.3359 258.5,26.5C 258.993,24.1944 259.326,21.861 259.5,19.5 Z"/></g>
<g><path style="opacity:1" fill="#f1f9fa" d="M 306.5,19.5 C 307.578,21.5394 308.578,23.706 309.5,26C 312.167,26.3333 314.833,26.6667 317.5,27C 314.998,28.3375 312.998,30.1708 311.5,32.5C 312.351,34.8535 312.851,37.1868 313,39.5C 311.104,37.4701 308.937,35.8034 306.5,34.5C 300.765,40.2595 299.431,39.4262 302.5,32C 300.5,30.3333 298.5,28.6667 296.5,27C 299.146,26.5026 301.813,26.3359 304.5,26.5C 304.767,24.0347 305.434,21.7014 306.5,19.5 Z"/></g>
<g><path style="opacity:1" fill="#f0f9fa" d="M 352.5,65.5 C 353.578,67.5394 354.578,69.706 355.5,72C 358.167,72.3333 360.833,72.6667 363.5,73C 360.998,74.3375 358.998,76.1708 357.5,78.5C 358.351,80.8535 358.851,83.1868 359,85.5C 357.185,83.5951 355.185,81.9284 353,80.5C 351.027,81.6399 349.193,82.9733 347.5,84.5C 346.897,82.5477 347.23,80.5477 348.5,78.5C 346.731,76.443 344.731,74.6097 342.5,73C 345.226,72.8184 347.893,72.3184 350.5,71.5C 351.172,69.4705 351.838,67.4705 352.5,65.5 Z"/></g>
<g><path style="opacity:1" fill="#f1f9fa" d="M 213.5,65.5 C 215.536,67.2057 216.536,69.539 216.5,72.5C 219.187,72.3359 221.854,72.5026 224.5,73C 222.415,74.743 220.748,76.743 219.5,79C 220.125,80.8405 220.292,82.6739 220,84.5C 216.458,80.5664 212.958,80.5664 209.5,84.5C 208.511,82.4122 208.844,80.4122 210.5,78.5C 208.731,76.443 206.731,74.6097 204.5,73C 207.146,72.5026 209.813,72.3359 212.5,72.5C 212.993,70.1944 213.326,67.861 213.5,65.5 Z"/></g>
<g><path style="opacity:1" fill="#f0f9fa" d="M 260.5,65.5 C 261.924,67.5145 262.59,69.8478 262.5,72.5C 265.518,72.3354 268.518,72.502 271.5,73C 269.833,74.1667 268.167,75.3333 266.5,76.5C 265.728,79.1347 265.562,81.8014 266,84.5C 262.458,80.5664 258.958,80.5664 255.5,84.5C 255.167,84.1667 254.833,83.8333 254.5,83.5C 255.093,81.6183 255.76,79.7849 256.5,78C 254.5,76.3333 252.5,74.6667 250.5,73C 253.146,72.5026 255.813,72.3359 258.5,72.5C 258.767,70.0347 259.434,67.7014 260.5,65.5 Z"/></g>
<g><path style="opacity:1" fill="#f0f8fa" d="M 306.5,65.5 C 307.924,67.5145 308.59,69.8478 308.5,72.5C 311.518,72.3354 314.518,72.502 317.5,73C 314.794,74.3721 312.794,76.3721 311.5,79C 312.218,81.2175 312.718,83.3841 313,85.5C 310.815,84.0716 308.815,82.4049 307,80.5C 300.988,86.4706 299.488,85.6372 302.5,78C 300.5,76.3333 298.5,74.6667 296.5,73C 299.146,72.5026 301.813,72.3359 304.5,72.5C 304.767,70.0347 305.434,67.7014 306.5,65.5 Z"/></g>
<g><path style="opacity:1" fill="#eff8fa" d="M 167.5,112.5 C 169.614,113.784 170.614,115.784 170.5,118.5C 173.247,118.187 175.914,118.52 178.5,119.5C 176.46,121.177 174.46,122.844 172.5,124.5C 173.77,126.548 174.103,128.548 173.5,130.5C 170.167,126.5 166.833,126.5 163.5,130.5C 163.167,130 162.833,129.5 162.5,129C 163.645,126.801 163.645,124.635 162.5,122.5C 160.833,121.333 159.167,120.167 157.5,119C 160.482,118.502 163.482,118.335 166.5,118.5C 166.833,116.5 167.167,114.5 167.5,112.5 Z"/></g>
<g><path style="opacity:1" fill="#eff8fa" d="M 213.5,111.5 C 215.536,113.206 216.536,115.539 216.5,118.5C 219.247,118.187 221.914,118.52 224.5,119.5C 223.167,120.5 221.833,121.5 220.5,122.5C 219.933,125.212 219.599,127.879 219.5,130.5C 216.167,126.5 212.833,126.5 209.5,130.5C 208.511,128.412 208.844,126.412 210.5,124.5C 208.731,122.443 206.731,120.61 204.5,119C 207.146,118.503 209.813,118.336 212.5,118.5C 212.993,116.194 213.326,113.861 213.5,111.5 Z"/></g>
<g><path style="opacity:1" fill="#eff8fa" d="M 260.5,111.5 C 261.612,113.599 262.279,115.933 262.5,118.5C 265.518,118.335 268.518,118.502 271.5,119C 269.833,120.167 268.167,121.333 266.5,122.5C 265.728,125.135 265.562,127.801 266,130.5C 262.458,126.566 258.958,126.566 255.5,130.5C 255.167,130.167 254.833,129.833 254.5,129.5C 255.093,127.618 255.76,125.785 256.5,124C 254.5,122.333 252.5,120.667 250.5,119C 253.146,118.503 255.813,118.336 258.5,118.5C 258.767,116.035 259.434,113.701 260.5,111.5 Z"/></g>
<g><path style="opacity:1" fill="#edf7f9" d="M 306.5,111.5 C 307.924,113.515 308.59,115.848 308.5,118.5C 311.518,118.335 314.518,118.502 317.5,119C 314.794,120.372 312.794,122.372 311.5,125C 312.218,127.217 312.718,129.384 313,131.5C 309.5,126.714 305.667,126.381 301.5,130.5C 301.167,130.167 300.833,129.833 300.5,129.5C 301.093,127.618 301.76,125.785 302.5,124C 300.5,122.333 298.5,120.667 296.5,119C 299.146,118.503 301.813,118.336 304.5,118.5C 304.767,116.035 305.434,113.701 306.5,111.5 Z"/></g>
<g><path style="opacity:1" fill="#eef8fa" d="M 352.5,111.5 C 353.578,113.539 354.578,115.706 355.5,118C 358.167,118.333 360.833,118.667 363.5,119C 360.998,120.337 358.998,122.171 357.5,124.5C 358.351,126.853 358.851,129.187 359,131.5C 355,126.167 351,126.167 347,131.5C 346.748,129.069 347.248,126.735 348.5,124.5C 346.731,122.443 344.731,120.61 342.5,119C 348.597,119.86 351.931,117.36 352.5,111.5 Z"/></g>
<g><path style="opacity:1" fill="#cd1125" d="M -0.5,153.5 C 212.833,153.5 426.167,153.5 639.5,153.5C 639.5,156.5 639.5,159.5 639.5,162.5C 426.167,162.5 212.833,162.5 -0.5,162.5C -0.5,159.5 -0.5,156.5 -0.5,153.5 Z"/></g>
<g><path style="opacity:1" fill="#fefefe" d="M -0.5,162.5 C 212.833,162.5 426.167,162.5 639.5,162.5C 639.5,213.833 639.5,265.167 639.5,316.5C 426.167,316.5 212.833,316.5 -0.5,316.5C -0.5,265.167 -0.5,213.833 -0.5,162.5 Z"/></g>
<g><path style="opacity:1" fill="#cd1125" d="M -0.5,316.5 C 212.833,316.5 426.167,316.5 639.5,316.5C 639.5,319.5 639.5,322.5 639.5,325.5C 426.167,325.5 212.833,325.5 -0.5,325.5C -0.5,322.5 -0.5,319.5 -0.5,316.5 Z"/></g>
<g><path style="opacity:1" fill="#1fb439" d="M -0.5,325.5 C 212.833,325.5 426.167,325.5 639.5,325.5C 639.5,376.833 639.5,428.167 639.5,479.5C 426.167,479.5 212.833,479.5 -0.5,479.5C -0.5,428.167 -0.5,376.833 -0.5,325.5 Z"/></g>
</svg>
