<?xml version="1.0" encoding="UTF-8"?>
<!DOCTYPE svg PUBLIC "-//W3C//DTD SVG 1.1//EN" "http://www.w3.org/Graphics/SVG/1.1/DTD/svg11.dtd">
<svg xmlns="http://www.w3.org/2000/svg" version="1.1" width="640px" height="480px" style="shape-rendering:geometricPrecision; text-rendering:geometricPrecision; image-rendering:optimizeQuality; fill-rule:evenodd; clip-rule:evenodd" xmlns:xlink="http://www.w3.org/1999/xlink">
<g><path style="opacity:1" fill="#d11033" d="M 0.5,-0.5 C 213.5,-0.5 426.5,-0.5 639.5,-0.5C 639.5,65.1667 639.5,130.833 639.5,196.5C 525.5,196.667 411.5,196.5 297.5,196C 198.435,130.476 99.4347,64.9764 0.5,-0.5 Z"/></g>
<g><path style="opacity:1" fill="#020100" d="M -0.5,-0.5 C -0.166667,-0.5 0.166667,-0.5 0.5,-0.5C 99.4347,64.9764 198.435,130.476 297.5,196C 411.5,196.5 525.5,196.667 639.5,196.5C 639.5,206.5 639.5,216.5 639.5,226.5C 523.833,226.667 408.166,226.5 292.5,226C 194.933,161.585 97.2666,97.4181 -0.5,33.5C -0.5,22.1667 -0.5,10.8333 -0.5,-0.5 Z"/></g>
<g><path style="opacity:1" fill="#f8ca11" d="M -0.5,33.5 C 97.2666,97.4181 194.933,161.585 292.5,226C 408.166,226.5 523.833,226.667 639.5,226.5C 639.5,235.167 639.5,243.833 639.5,252.5C 523.833,252.333 408.166,252.5 292.5,253C 194.933,317.415 97.2666,381.582 -0.5,445.5C -0.5,436.167 -0.5,426.833 -0.5,417.5C 89.8224,358.671 179.822,299.338 269.5,239.5C 179.822,179.662 89.8224,120.329 -0.5,61.5C -0.5,52.1667 -0.5,42.8333 -0.5,33.5 Z"/></g>
<g><path style="opacity:1" fill="#010100" d="M -0.5,61.5 C 89.8224,120.329 179.822,179.662 269.5,239.5C 179.822,299.338 89.8224,358.671 -0.5,417.5C -0.5,298.833 -0.5,180.167 -0.5,61.5 Z"/></g>
<g><path style="opacity:1" fill="#f9ca11" d="M 121.5,238.5 C 122.451,239.919 122.784,241.585 122.5,243.5C 119.162,262.006 108.162,273.173 89.5,277C 47.4326,276.6 27.9326,255.433 31,213.5C 35.5817,192.846 47.7484,178.68 67.5,171C 91.4399,162.816 113.44,166.482 133.5,182C 152.896,201.198 160.063,224.365 155,251.5C 146.915,289.088 123.749,309.421 85.5,312.5C 85.5,303.5 85.5,294.5 85.5,285.5C 106.045,283.472 120.212,272.805 128,253.5C 137.334,227.167 130.167,206.667 106.5,192C 76.8059,182.431 57.3059,192.598 48,222.5C 46.6562,244.321 56.4895,258.155 77.5,264C 93.6815,267.054 106.848,262.22 117,249.5C 119.066,246.039 120.566,242.373 121.5,238.5 Z"/></g>
<g><path style="opacity:1" fill="#d3ac0f" d="M 96.5,220.5 C 95.9424,222.789 94.7757,224.789 93,226.5C 92.0053,225.934 91.172,225.267 90.5,224.5C 88.5453,223.07 86.8786,223.403 85.5,225.5C 84.3754,226.014 83.2087,226.347 82,226.5C 81.4054,225.101 81.5721,223.768 82.5,222.5C 82.0431,221.702 81.3764,221.369 80.5,221.5C 81.2625,220.732 82.2625,220.232 83.5,220C 81.0261,219.887 79.0261,218.887 77.5,217C 78.8333,216.667 80.1667,216.333 81.5,216C 79.1667,215.667 76.8333,215.333 74.5,215C 73.4954,213.493 72.162,212.327 70.5,211.5C 71.376,210.749 72.376,210.249 73.5,210C 70.2198,209.944 67.2198,209.111 64.5,207.5C 65.376,206.749 66.376,206.249 67.5,206C 66.0723,202.526 66.5723,202.026 69,204.5C 70.5874,203.273 71.9207,203.606 73,205.5C 73.7175,204.549 74.5509,204.383 75.5,205C 78.1407,206.667 80.3074,208.833 82,211.5C 83.4828,209.054 84.6495,209.388 85.5,212.5C 87.0453,213.452 88.712,213.785 90.5,213.5C 90.3505,214.552 90.5172,215.552 91,216.5C 91.0186,213.692 92.0186,211.359 94,209.5C 94.3333,210.833 94.6667,212.167 95,213.5C 95.4709,211.754 96.1376,210.087 97,208.5C 99.4675,207.896 101.468,206.562 103,204.5C 104.525,204.112 106.192,204.112 108,204.5C 108.965,202.74 110.132,202.406 111.5,203.5C 111.023,204.478 110.357,205.311 109.5,206C 110.624,206.249 111.624,206.749 112.5,207.5C 110.118,209.071 107.451,209.904 104.5,210C 105.308,210.308 105.975,210.808 106.5,211.5C 104.838,212.327 103.505,213.493 102.5,215C 100.167,215.333 97.8333,215.667 95.5,216C 96.938,216.219 98.2713,216.719 99.5,217.5C 98.2299,218.288 97.2299,219.288 96.5,220.5 Z"/></g>
<g><path style="opacity:1" fill="#8d720b" d="M 80.5,221.5 C 80.8747,224.397 80.3747,227.063 79,229.5C 78.5045,227.527 78.3379,225.527 78.5,223.5C 79.1667,222.833 79.8333,222.167 80.5,221.5 Z"/></g>
<g><path style="opacity:1" fill="#e7bc10" d="M 96.5,220.5 C 97.2276,223.079 97.7276,225.746 98,228.5C 98.2022,226.744 98.7022,225.078 99.5,223.5C 100.192,224.025 100.692,224.692 101,225.5C 101.333,228.167 101.667,230.833 102,233.5C 102.192,231.423 102.692,229.423 103.5,227.5C 104.324,230.785 104.824,234.118 105,237.5C 105.192,235.423 105.692,233.423 106.5,231.5C 107.107,231.624 107.44,231.957 107.5,232.5C 107.335,235.518 107.502,238.518 108,241.5C 108.002,238.949 108.836,236.949 110.5,235.5C 111.169,239 111.336,242.667 111,246.5C 113.365,248.365 113.532,250.032 111.5,251.5C 110.376,250.086 109.376,248.586 108.5,247C 103.438,246.651 100.105,244.151 98.5,239.5C 98.56,238.957 98.8933,238.624 99.5,238.5C 101.078,239.64 102.744,240.14 104.5,240C 102.391,238.354 100.057,237.188 97.5,236.5C 95.9883,234.404 94.3217,232.404 92.5,230.5C 93.648,229.836 94.9813,229.669 96.5,230C 94.9698,228.88 93.3032,228.046 91.5,227.5C 89.7659,226.438 88.0992,226.438 86.5,227.5C 84.2872,227.848 82.2872,228.681 80.5,230C 82.1075,229.981 83.7741,229.815 85.5,229.5C 84.7377,231.262 83.4044,232.262 81.5,232.5C 79.6968,233.046 78.0302,233.88 76.5,235C 78.0187,234.669 79.352,234.836 80.5,235.5C 79.3998,236.558 78.0664,237.392 76.5,238C 80.0016,238.656 80.0016,239.989 76.5,242C 77.8333,242.667 77.8333,243.333 76.5,244C 73.9454,245.444 71.2787,246.611 68.5,247.5C 67.4688,248.7 66.6355,250.034 66,251.5C 65.6667,251.167 65.3333,250.833 65,250.5C 65.2821,248.384 65.7821,246.217 66.5,244C 65.6681,241.522 65.5014,239.022 66,236.5C 68.2403,234.972 69.907,232.972 71,230.5C 71.3333,233.167 71.6667,235.833 72,238.5C 72.3333,235.167 72.6667,231.833 73,228.5C 73.3826,227.944 73.8826,227.611 74.5,227.5C 74.3367,229.857 74.5034,232.19 75,234.5C 76.2525,231.986 76.7525,229.32 76.5,226.5C 76.427,224.973 77.0937,223.973 78.5,223.5C 78.3379,225.527 78.5045,227.527 79,229.5C 80.3747,227.063 80.8747,224.397 80.5,221.5C 81.3764,221.369 82.0431,221.702 82.5,222.5C 81.5721,223.768 81.4054,225.101 82,226.5C 83.2087,226.347 84.3754,226.014 85.5,225.5C 87.1172,224.962 88.7839,224.629 90.5,224.5C 91.172,225.267 92.0053,225.934 93,226.5C 94.7757,224.789 95.9424,222.789 96.5,220.5 Z"/></g>
<g><path style="opacity:1" fill="#413508" d="M 90.5,224.5 C 88.7839,224.629 87.1172,224.962 85.5,225.5C 86.8786,223.403 88.5453,223.07 90.5,224.5 Z"/></g>
<g><path style="opacity:1" fill="#514209" d="M 91.5,227.5 C 93.3032,228.046 94.9698,228.88 96.5,230C 94.9813,229.669 93.648,229.836 92.5,230.5C 91.596,229.791 91.2627,228.791 91.5,227.5 Z"/></g>
<g><path style="opacity:1" fill="#756008" d="M 76.5,226.5 C 76.7525,229.32 76.2525,231.986 75,234.5C 74.5034,232.19 74.3367,229.857 74.5,227.5C 75.1667,227.167 75.8333,226.833 76.5,226.5 Z"/></g>
<g><path style="opacity:1" fill="#524208" d="M 86.5,227.5 C 86.1667,228.167 85.8333,228.833 85.5,229.5C 83.7741,229.815 82.1075,229.981 80.5,230C 82.2872,228.681 84.2872,227.848 86.5,227.5 Z"/></g>
<g><path style="opacity:1" fill="#766009" d="M 81.5,232.5 C 81.7373,233.791 81.404,234.791 80.5,235.5C 79.352,234.836 78.0187,234.669 76.5,235C 78.0302,233.88 79.6968,233.046 81.5,232.5 Z"/></g>
<g><path style="opacity:1" fill="#766009" d="M 107.5,232.5 C 108.5,233.5 109.5,234.5 110.5,235.5C 108.836,236.949 108.002,238.949 108,241.5C 107.502,238.518 107.335,235.518 107.5,232.5 Z"/></g>
<g><path style="opacity:1" fill="#6b570a" d="M 97.5,236.5 C 100.057,237.188 102.391,238.354 104.5,240C 102.744,240.14 101.078,239.64 99.5,238.5C 98.8933,238.624 98.56,238.957 98.5,239.5C 97.596,238.791 97.2627,237.791 97.5,236.5 Z"/></g>
<g><path style="opacity:1" fill="#876e09" d="M 122.5,243.5 C 122.784,241.585 122.451,239.919 121.5,238.5C 121.709,237.078 122.209,235.745 123,234.5C 123.805,237.696 123.638,240.696 122.5,243.5 Z"/></g>
<g><path style="opacity:1" fill="#010100" d="M 639.5,252.5 C 639.5,262.5 639.5,272.5 639.5,282.5C 525.5,282.333 411.5,282.5 297.5,283C 198.092,348.027 99.0916,413.527 0.5,479.5C 0.166667,479.5 -0.166667,479.5 -0.5,479.5C -0.5,468.167 -0.5,456.833 -0.5,445.5C 97.2666,381.582 194.933,317.415 292.5,253C 408.166,252.5 523.833,252.333 639.5,252.5 Z"/></g>
<g><path style="opacity:1" fill="#009442" d="M 639.5,282.5 C 639.5,348.167 639.5,413.833 639.5,479.5C 426.5,479.5 213.5,479.5 0.5,479.5C 99.0916,413.527 198.092,348.027 297.5,283C 411.5,282.5 525.5,282.333 639.5,282.5 Z"/></g>
</svg>
