<?xml version="1.0" encoding="UTF-8"?>
<!DOCTYPE svg PUBLIC "-//W3C//DTD SVG 1.1//EN" "http://www.w3.org/Graphics/SVG/1.1/DTD/svg11.dtd">
<svg xmlns="http://www.w3.org/2000/svg" version="1.1" width="640px" height="480px" style="shape-rendering:geometricPrecision; text-rendering:geometricPrecision; image-rendering:optimizeQuality; fill-rule:evenodd; clip-rule:evenodd" xmlns:xlink="http://www.w3.org/1999/xlink">
<g><path style="opacity:1" fill="#fecc00" d="M -0.5,-0.5 C 212.833,-0.5 426.167,-0.5 639.5,-0.5C 639.5,52.8333 639.5,106.167 639.5,159.5C 426.167,159.5 212.833,159.5 -0.5,159.5C -0.5,106.167 -0.5,52.8333 -0.5,-0.5 Z"/></g>
<g><path style="opacity:1" fill="#00247d" d="M -0.5,159.5 C 212.833,159.5 426.167,159.5 639.5,159.5C 639.5,212.833 639.5,266.167 639.5,319.5C 426.167,319.5 212.833,319.5 -0.5,319.5C -0.5,266.167 -0.5,212.833 -0.5,159.5 Z"/></g>
<g><path style="opacity:1" fill="#f3f4f9" d="M 290.5,174.5 C 293.184,178.02 295.518,181.853 297.5,186C 302.226,186.051 306.893,185.717 311.5,185C 308.117,188.047 305.117,191.38 302.5,195C 304.551,199.25 306.384,203.417 308,207.5C 304.139,205.236 300.139,203.236 296,201.5C 292.733,204.767 289.4,208.1 286,211.5C 286.161,207.519 286.661,203.519 287.5,199.5C 287.167,198.5 286.833,197.5 286.5,196.5C 282.754,194.756 279.088,192.923 275.5,191C 280.072,189.627 284.739,188.794 289.5,188.5C 289.54,183.807 289.873,179.141 290.5,174.5 Z"/></g>
<g><path style="opacity:1" fill="#f5f6fa" d="M 347.5,174.5 C 348.657,179 349.657,183.667 350.5,188.5C 354.835,189.251 359.168,190.084 363.5,191C 359.912,192.923 356.246,194.756 352.5,196.5C 352.167,197.5 351.833,198.5 351.5,199.5C 352.339,203.519 352.839,207.519 353,211.5C 349.6,208.1 346.267,204.767 343,201.5C 338.861,203.236 334.861,205.236 331,207.5C 330.833,207.167 330.667,206.833 330.5,206.5C 332.89,202.887 334.89,199.054 336.5,195C 333.883,191.38 330.883,188.047 327.5,185C 332.129,185.547 336.796,185.881 341.5,186C 343.64,182.219 345.64,178.385 347.5,174.5 Z"/></g>
<g><path style="opacity:1" fill="#f7f8fb" d="M 237.5,193.5 C 240.883,196.887 244.55,199.887 248.5,202.5C 252.61,201.279 256.277,199.279 259.5,196.5C 259.833,196.833 260.167,197.167 260.5,197.5C 257.804,201.53 256.304,205.863 256,210.5C 259.13,212.628 261.963,215.128 264.5,218C 259.806,217.662 255.139,217.828 250.5,218.5C 249.091,222.316 247.424,225.983 245.5,229.5C 244.592,225.139 243.592,220.806 242.5,216.5C 237.868,215.672 233.202,215.172 228.5,215C 232.036,212.634 235.703,210.467 239.5,208.5C 239.833,207.667 240.167,206.833 240.5,206C 239.574,201.796 238.574,197.629 237.5,193.5 Z"/></g>
<g><path style="opacity:1" fill="#f6f7fa" d="M 400.5,193.5 C 401.097,193.735 401.43,194.235 401.5,195C 399.433,199.394 398.767,203.894 399.5,208.5C 403.297,210.467 406.964,212.634 410.5,215C 405.771,215.273 401.104,215.939 396.5,217C 395.363,221.101 394.363,225.268 393.5,229.5C 391.28,225.727 389.614,221.727 388.5,217.5C 383.802,217.71 379.136,217.876 374.5,218C 377.768,214.904 380.768,211.737 383.5,208.5C 382.11,204.719 380.443,201.053 378.5,197.5C 378.833,197.167 379.167,196.833 379.5,196.5C 383.336,198.584 387.003,200.917 390.5,203.5C 394.188,200.479 397.521,197.146 400.5,193.5 Z"/></g>
<g><path style="opacity:1" fill="#f6f7fa" d="M 215.5,225.5 C 215.482,230.003 215.815,234.67 216.5,239.5C 220.539,240.902 224.539,242.402 228.5,244C 223.916,245.484 219.249,246.65 214.5,247.5C 214.666,252.511 214.499,257.511 214,262.5C 211.873,258.411 209.373,254.577 206.5,251C 201.691,251.041 197.024,251.708 192.5,253C 195.382,249.407 198.382,245.907 201.5,242.5C 199.416,238.664 197.083,234.997 194.5,231.5C 194.833,231.167 195.167,230.833 195.5,230.5C 199.209,232.458 203.043,234.125 207,235.5C 210.395,232.608 213.229,229.275 215.5,225.5 Z"/></g>
<g><path style="opacity:1" fill="#f4f6f9" d="M 422.5,225.5 C 425.452,229.119 428.785,232.452 432.5,235.5C 436.41,233.085 440.41,231.751 444.5,231.5C 441.917,234.997 439.584,238.664 437.5,242.5C 440.618,245.907 443.618,249.407 446.5,253C 442.431,252.186 438.265,251.353 434,250.5C 433.167,250.833 432.333,251.167 431.5,251.5C 429.333,255.167 427.167,258.833 425,262.5C 424.501,257.511 424.334,252.511 424.5,247.5C 406.558,245.935 406.224,243.268 423.5,239.5C 423.563,234.797 423.229,230.13 422.5,225.5 Z"/></g>
<g><path style="opacity:1" fill="#f2f4f8" d="M 184.5,266.5 C 186.435,270.895 187.769,275.562 188.5,280.5C 193.511,280.334 198.511,280.501 203.5,281C 199.287,283.6 195.287,286.433 191.5,289.5C 192.632,293.563 193.965,297.563 195.5,301.5C 194.998,302.521 194.332,302.688 193.5,302C 190.631,298.796 187.465,295.963 184,293.5C 180.333,296.167 176.667,298.833 173,301.5C 174.199,296.896 175.199,292.229 176,287.5C 172.778,284.612 169.278,282.112 165.5,280C 170.489,279.501 175.489,279.334 180.5,279.5C 181.546,275.076 182.879,270.743 184.5,266.5 Z"/></g>
<g><path style="opacity:1" fill="#f3f4f8" d="M 453.5,266.5 C 455.964,270.444 457.63,274.777 458.5,279.5C 463.511,279.334 468.511,279.501 473.5,280C 469.912,282.377 466.412,284.877 463,287.5C 463.801,292.229 464.801,296.896 466,301.5C 462.655,298.661 458.989,296.328 455,294.5C 451.397,296.392 448.23,298.892 445.5,302C 444.668,302.688 444.002,302.521 443.5,301.5C 445.035,297.563 446.368,293.563 447.5,289.5C 444.065,285.942 440.065,283.109 435.5,281C 440.489,280.501 445.489,280.334 450.5,280.5C 451.497,275.839 452.497,271.173 453.5,266.5 Z"/></g>
<g><path style="opacity:1" fill="#ce142a" d="M -0.5,319.5 C 212.833,319.5 426.167,319.5 639.5,319.5C 639.5,372.833 639.5,426.167 639.5,479.5C 426.167,479.5 212.833,479.5 -0.5,479.5C -0.5,426.167 -0.5,372.833 -0.5,319.5 Z"/></g>
</svg>
