<?xml version="1.0" encoding="UTF-8"?>
<!DOCTYPE svg PUBLIC "-//W3C//DTD SVG 1.1//EN" "http://www.w3.org/Graphics/SVG/1.1/DTD/svg11.dtd">
<svg xmlns="http://www.w3.org/2000/svg" version="1.1" width="640px" height="480px" style="shape-rendering:geometricPrecision; text-rendering:geometricPrecision; image-rendering:optimizeQuality; fill-rule:evenodd; clip-rule:evenodd" xmlns:xlink="http://www.w3.org/1999/xlink">
<g><path style="opacity:1" fill="#da251c" d="M -0.5,-0.5 C 212.833,-0.5 426.167,-0.5 639.5,-0.5C 639.5,159.5 639.5,319.5 639.5,479.5C 426.167,479.5 212.833,479.5 -0.5,479.5C -0.5,319.5 -0.5,159.5 -0.5,-0.5 Z"/></g>
<g><path style="opacity:1" fill="#fefd00" d="M 355.5,189.5 C 389.167,190.167 422.833,190.833 456.5,191.5C 429.029,212.146 402.029,233.313 375.5,255C 386.301,288.397 396.468,321.897 406,355.5C 378.411,335.289 350.911,314.955 323.5,294.5C 295.858,314.974 268.358,335.641 241,356.5C 250.096,322.703 259.929,289.037 270.5,255.5C 243.311,233.488 215.644,211.988 187.5,191C 221.838,190.833 256.172,190.333 290.5,189.5C 301.169,155.828 311.835,122.161 322.5,88.5C 333.731,122.192 344.731,155.859 355.5,189.5 Z"/></g>
<g><path style="opacity:1" fill="#f2b10a" d="M 355.5,189.5 C 389.507,189.167 423.507,189.5 457.5,190.5C 457.376,191.107 457.043,191.44 456.5,191.5C 422.833,190.833 389.167,190.167 355.5,189.5 Z"/></g>
</svg>
