<?xml version="1.0" encoding="UTF-8"?>
<!DOCTYPE svg PUBLIC "-//W3C//DTD SVG 1.1//EN" "http://www.w3.org/Graphics/SVG/1.1/DTD/svg11.dtd">
<svg xmlns="http://www.w3.org/2000/svg" version="1.1" width="640px" height="480px" style="shape-rendering:geometricPrecision; text-rendering:geometricPrecision; image-rendering:optimizeQuality; fill-rule:evenodd; clip-rule:evenodd" xmlns:xlink="http://www.w3.org/1999/xlink">
<g><path style="opacity:1" fill="#ec2738" d="M -0.5,-0.5 C 212.833,-0.5 426.167,-0.5 639.5,-0.5C 639.5,159.5 639.5,319.5 639.5,479.5C 426.167,479.5 212.833,479.5 -0.5,479.5C -0.5,386.167 -0.5,292.833 -0.5,199.5C 85.834,199.667 172.167,199.5 258.5,199C 259.498,136.571 259.831,74.0713 259.5,11.5C 256.941,11.1984 254.607,11.5318 252.5,12.5C 252.167,12.5 251.833,12.5 251.5,12.5C 250.501,71.6643 250.168,130.998 250.5,190.5C 223.831,190.667 197.165,190.5 170.5,190C 262.498,188.833 262.498,188 170.5,187.5C 170.342,128.754 170.508,70.087 171,11.5C 114.041,11.5083 56.8743,11.5083 -0.5,11.5C -0.5,7.5 -0.5,3.5 -0.5,-0.5 Z"/></g>
<g><path style="opacity:1" fill="#fefefe" d="M 166.5,193.5 C 141.682,193.967 116.682,194.3 91.5,194.5C 88.6143,194.196 85.9476,193.529 83.5,192.5C 84.4991,133.002 84.8324,73.3357 84.5,13.5C 111.833,13.5 139.167,13.5 166.5,13.5C 166.5,73.5 166.5,133.5 166.5,193.5 Z"/></g>
<g><path style="opacity:1" fill="#002395" d="M -0.5,13.5 C 27.1667,13.5 54.8333,13.5 82.5,13.5C 82.5,72.8333 82.5,132.167 82.5,191.5C 81.5,191.5 80.5,191.5 79.5,191.5C 53.1876,189.509 26.5209,188.842 -0.5,189.5C -0.5,130.833 -0.5,72.1667 -0.5,13.5 Z"/></g>
<g><path style="opacity:1" fill="#212678" d="M -0.5,13.5 C -0.5,13.1667 -0.5,12.8333 -0.5,12.5C 27.5,12.5 55.5,12.5 83.5,12.5C 83.5,72.5 83.5,132.5 83.5,192.5C 55.5,192.5 27.5,192.5 -0.5,192.5C -0.5,192.167 -0.5,191.833 -0.5,191.5C 26.1667,191.5 52.8333,191.5 79.5,191.5C 80.5,191.5 81.5,191.5 82.5,191.5C 82.5,132.167 82.5,72.8333 82.5,13.5C 54.8333,13.5 27.1667,13.5 -0.5,13.5 Z"/></g>
<g><path style="opacity:1" fill="#f0d5df" d="M 83.5,12.5 C 112.005,12.1687 140.338,12.502 168.5,13.5C 168.5,73.1667 168.5,132.833 168.5,192.5C 196.5,192.5 224.5,192.5 252.5,192.5C 224.005,193.498 195.338,193.831 166.5,193.5C 166.5,133.5 166.5,73.5 166.5,13.5C 139.167,13.5 111.833,13.5 84.5,13.5C 84.8324,73.3357 84.4991,133.002 83.5,192.5C 83.5,132.5 83.5,72.5 83.5,12.5 Z"/></g>
<g><path style="opacity:1" fill="#ffd2d6" d="M 252.5,12.5 C 254.167,12.5 255.833,12.5 257.5,12.5C 257.5,74.1667 257.5,135.833 257.5,197.5C 171.5,197.5 85.5,197.5 -0.5,197.5C -0.5,197.167 -0.5,196.833 -0.5,196.5C 85.1667,196.5 170.833,196.5 256.5,196.5C 256.5,135.5 256.5,74.5 256.5,13.5C 255.5,13.5 254.5,13.5 253.5,13.5C 253.832,73.3357 253.499,133.002 252.5,192.5C 252.5,132.5 252.5,72.5 252.5,12.5 Z"/></g>
<g><path style="opacity:1" fill="#c83e48" d="M 251.5,12.5 C 251.833,12.5 252.167,12.5 252.5,12.5C 252.5,72.5 252.5,132.5 252.5,192.5C 224.5,192.5 196.5,192.5 168.5,192.5C 168.5,132.833 168.5,73.1667 168.5,13.5C 169.499,72.6643 169.832,131.998 169.5,191.5C 196.833,191.5 224.167,191.5 251.5,191.5C 251.5,131.833 251.5,72.1667 251.5,12.5 Z"/></g>
<g><path style="opacity:1" fill="#f8bec4" d="M 496.5,168.5 C 463.167,167.167 429.833,167.167 396.5,168.5C 395.957,168.44 395.624,168.107 395.5,167.5C 429.5,166.167 463.5,166.167 497.5,167.5C 497.376,168.107 497.043,168.44 496.5,168.5 Z"/></g>
<g><path style="opacity:1" fill="#fdfcfc" d="M 496.5,168.5 C 493.862,171.474 491.195,174.474 488.5,177.5C 485.167,180.167 482.167,183.167 479.5,186.5C 477.833,188.5 476.167,190.5 474.5,192.5C 470.5,195.833 466.833,199.5 463.5,203.5C 461.167,206.167 458.833,208.833 456.5,211.5C 453.427,213.569 451.094,216.236 449.5,219.5C 448.518,220.141 447.518,220.807 446.5,221.5C 445.148,220.476 443.815,219.476 442.5,218.5C 439.899,214.229 436.566,210.563 432.5,207.5C 431.5,205.833 430.167,204.5 428.5,203.5C 425.564,198.895 421.898,194.895 417.5,191.5C 416.5,189.833 415.167,188.5 413.5,187.5C 411.57,183.9 408.903,180.9 405.5,178.5C 402.5,175.167 399.5,171.833 396.5,168.5C 429.833,167.167 463.167,167.167 496.5,168.5 Z"/></g>
<g><path style="opacity:1" fill="#da6168" d="M 405.5,178.5 C 408.903,180.9 411.57,183.9 413.5,187.5C 410.097,185.1 407.43,182.1 405.5,178.5 Z"/></g>
<g><path style="opacity:1" fill="#d95860" d="M 488.5,177.5 C 486.5,181.5 483.5,184.5 479.5,186.5C 482.167,183.167 485.167,180.167 488.5,177.5 Z"/></g>
<g><path style="opacity:1" fill="#e03140" d="M -0.5,12.5 C -0.5,12.1667 -0.5,11.8333 -0.5,11.5C 56.8743,11.5083 114.041,11.5083 171,11.5C 170.508,70.087 170.342,128.754 170.5,187.5C 262.498,188 262.498,188.833 170.5,190C 197.165,190.5 223.831,190.667 250.5,190.5C 250.168,130.998 250.501,71.6643 251.5,12.5C 251.5,72.1667 251.5,131.833 251.5,191.5C 224.167,191.5 196.833,191.5 169.5,191.5C 169.832,131.998 169.499,72.6643 168.5,13.5C 140.338,12.502 112.005,12.1687 83.5,12.5C 55.5,12.5 27.5,12.5 -0.5,12.5 Z"/></g>
<g><path style="opacity:1" fill="#002198" d="M -0.5,189.5 C 26.5209,188.842 53.1876,189.509 79.5,191.5C 52.8333,191.5 26.1667,191.5 -0.5,191.5C -0.5,190.833 -0.5,190.167 -0.5,189.5 Z"/></g>
<g><path style="opacity:1" fill="#d95b61" d="M 417.5,191.5 C 421.898,194.895 425.564,198.895 428.5,203.5C 424.102,200.105 420.436,196.105 417.5,191.5 Z"/></g>
<g><path style="opacity:1" fill="#f6fafb" d="M -0.5,196.5 C -0.5,195.167 -0.5,193.833 -0.5,192.5C 27.5,192.5 55.5,192.5 83.5,192.5C 85.9476,193.529 88.6143,194.196 91.5,194.5C 116.682,194.3 141.682,193.967 166.5,193.5C 195.338,193.831 224.005,193.498 252.5,192.5C 253.499,133.002 253.832,73.3357 253.5,13.5C 254.5,13.5 255.5,13.5 256.5,13.5C 256.5,74.5 256.5,135.5 256.5,196.5C 170.833,196.5 85.1667,196.5 -0.5,196.5 Z"/></g>
<g><path style="opacity:1" fill="#fec2c9" d="M 380.5,187.5 C 379.167,204.654 378.5,222.154 378.5,240C 378.5,257.846 379.167,275.346 380.5,292.5C 380.189,293.478 379.522,294.145 378.5,294.5C 377.167,258.167 377.167,221.833 378.5,185.5C 379.522,185.855 380.189,186.522 380.5,187.5 Z"/></g>
<g><path style="opacity:1" fill="#fefcfc" d="M 380.5,187.5 C 396.495,204.329 412.328,221.329 428,238.5C 428.483,239.448 428.649,240.448 428.5,241.5C 425.167,244.167 422.167,247.167 419.5,250.5C 418.167,252.167 416.833,253.833 415.5,255.5C 411.833,258.5 408.5,261.833 405.5,265.5C 402.833,268.5 400.167,271.5 397.5,274.5C 392.146,278.887 387.48,283.887 383.5,289.5C 382.167,290.167 381.167,291.167 380.5,292.5C 379.167,275.346 378.5,257.846 378.5,240C 378.5,222.154 379.167,204.654 380.5,187.5 Z"/></g>
<g><path style="opacity:1" fill="#fdfcfc" d="M 511.5,188.5 C 512.833,205.32 513.5,222.487 513.5,240C 513.5,257.513 512.833,274.68 511.5,291.5C 509.167,288.5 506.5,285.833 503.5,283.5C 502.243,280.573 500.243,278.239 497.5,276.5C 489.515,266.882 480.848,257.882 471.5,249.5C 469.57,245.9 466.903,242.9 463.5,240.5C 464.833,238.833 466.167,237.167 467.5,235.5C 470.167,234.833 471.833,233.167 472.5,230.5C 485.5,216.5 498.5,202.5 511.5,188.5 Z"/></g>
<g><path style="opacity:1" fill="#febbc2" d="M 514.5,293.5 C 512.973,293.573 511.973,292.906 511.5,291.5C 512.833,274.68 513.5,257.513 513.5,240C 513.5,222.487 512.833,205.32 511.5,188.5C 511.5,188.167 511.5,187.833 511.5,187.5C 512.15,187.196 512.817,186.863 513.5,186.5C 514.5,222.16 514.833,257.827 514.5,293.5 Z"/></g>
<g><path style="opacity:1" fill="#dd3c46" d="M 252.5,12.5 C 254.607,11.5318 256.941,11.1984 259.5,11.5C 259.831,74.0713 259.498,136.571 258.5,199C 172.167,199.5 85.834,199.667 -0.5,199.5C -0.5,198.833 -0.5,198.167 -0.5,197.5C 85.5,197.5 171.5,197.5 257.5,197.5C 257.5,135.833 257.5,74.1667 257.5,12.5C 255.833,12.5 254.167,12.5 252.5,12.5 Z"/></g>
<g><path style="opacity:1" fill="#db5b64" d="M 474.5,192.5 C 471.833,197.167 468.167,200.833 463.5,203.5C 466.833,199.5 470.5,195.833 474.5,192.5 Z"/></g>
<g><path style="opacity:1" fill="#c23544" d="M 514.5,293.5 C 514.833,257.827 514.5,222.16 513.5,186.5C 512.817,186.863 512.15,187.196 511.5,187.5C 512.183,185.824 513.517,185.157 515.5,185.5C 515.832,221.671 515.498,257.671 514.5,293.5 Z"/></g>
<g><path style="opacity:1" fill="#d95961" d="M 432.5,207.5 C 436.566,210.563 439.899,214.229 442.5,218.5C 438.434,215.437 435.101,211.771 432.5,207.5 Z"/></g>
<g><path style="opacity:1" fill="#da5b63" d="M 456.5,211.5 C 454.906,214.764 452.573,217.431 449.5,219.5C 451.094,216.236 453.427,213.569 456.5,211.5 Z"/></g>
<g><path style="opacity:1" fill="#f4b6bc" d="M 472.5,230.5 C 471.833,233.167 470.167,234.833 467.5,235.5C 468.833,233.5 470.5,231.833 472.5,230.5 Z"/></g>
<g><path style="opacity:1" fill="#d6575f" d="M 463.5,240.5 C 466.903,242.9 469.57,245.9 471.5,249.5C 468.097,247.1 465.43,244.1 463.5,240.5 Z"/></g>
<g><path style="opacity:1" fill="#d65961" d="M 428.5,241.5 C 426.5,245.5 423.5,248.5 419.5,250.5C 422.167,247.167 425.167,244.167 428.5,241.5 Z"/></g>
<g><path style="opacity:1" fill="#fdfcfc" d="M 494.5,310.5 C 463.003,311.664 431.336,311.831 399.5,311C 401.295,309.115 402.628,306.948 403.5,304.5C 411.176,296.458 418.842,288.458 426.5,280.5C 428.914,279.089 430.581,277.089 431.5,274.5C 436.506,269.161 441.506,263.827 446.5,258.5C 462.918,275.579 478.918,292.912 494.5,310.5 Z"/></g>
<g><path style="opacity:1" fill="#d4545b" d="M 415.5,255.5 C 413.167,259.833 409.833,263.167 405.5,265.5C 408.5,261.833 411.833,258.5 415.5,255.5 Z"/></g>
<g><path style="opacity:1" fill="#da646b" d="M 497.5,276.5 C 500.243,278.239 502.243,280.573 503.5,283.5C 500.757,281.761 498.757,279.427 497.5,276.5 Z"/></g>
<g><path style="opacity:1" fill="#f5b2b6" d="M 431.5,274.5 C 430.581,277.089 428.914,279.089 426.5,280.5C 427.419,277.911 429.086,275.911 431.5,274.5 Z"/></g>
<g><path style="opacity:1" fill="#d5525a" d="M 397.5,274.5 C 395.241,277.938 392.741,281.271 390,284.5C 388.223,286.79 386.056,288.457 383.5,289.5C 387.48,283.887 392.146,278.887 397.5,274.5 Z"/></g>
<g><path style="opacity:1" fill="#fde4e8" d="M 403.5,304.5 C 402.628,306.948 401.295,309.115 399.5,311C 431.336,311.831 463.003,311.664 494.5,310.5C 495.167,310.5 495.5,310.833 495.5,311.5C 462.833,312.833 430.167,312.833 397.5,311.5C 397.5,311.167 397.5,310.833 397.5,310.5C 399.139,308.194 401.139,306.194 403.5,304.5 Z"/></g>
<g><path style="opacity:1" fill="#eb8791" d="M 397.5,311.5 C 430.167,312.833 462.833,312.833 495.5,311.5C 496.833,312.167 496.833,312.833 495.5,313.5C 462.493,313.833 429.493,313.5 396.5,312.5C 396.624,311.893 396.957,311.56 397.5,311.5 Z"/></g>
<g><path style="opacity:1" fill="#ca2d3b" d="M 397.5,310.5 C 397.5,310.833 397.5,311.167 397.5,311.5C 396.957,311.56 396.624,311.893 396.5,312.5C 429.493,313.5 462.493,313.833 495.5,313.5C 462.338,314.498 429.004,314.832 395.5,314.5C 395.157,312.517 395.824,311.183 397.5,310.5 Z"/></g>
</svg>
