<?xml version="1.0" encoding="UTF-8"?>
<!DOCTYPE svg PUBLIC "-//W3C//DTD SVG 1.1//EN" "http://www.w3.org/Graphics/SVG/1.1/DTD/svg11.dtd">
<svg xmlns="http://www.w3.org/2000/svg" version="1.1" width="640px" height="480px" style="shape-rendering:geometricPrecision; text-rendering:geometricPrecision; image-rendering:optimizeQuality; fill-rule:evenodd; clip-rule:evenodd" xmlns:xlink="http://www.w3.org/1999/xlink">
<g><path style="opacity:1" fill="#000000" d="M 0.5,-0.5 C 213.5,-0.5 426.5,-0.5 639.5,-0.5C 639.5,46.1667 639.5,92.8333 639.5,139.5C 488.5,139.5 337.5,139.5 186.5,139.5C 124.193,93.1865 62.193,46.5198 0.5,-0.5 Z"/></g>
<g><path style="opacity:1" fill="#c3111b" d="M -0.5,-0.5 C -0.166667,-0.5 0.166667,-0.5 0.5,-0.5C 62.193,46.5198 124.193,93.1865 186.5,139.5C 230.765,172.425 274.765,205.758 318.5,239.5C 274.765,273.242 230.765,306.575 186.5,339.5C 124.193,385.814 62.193,432.48 0.5,479.5C 0.166667,479.5 -0.166667,479.5 -0.5,479.5C -0.5,319.5 -0.5,159.5 -0.5,-0.5 Z"/></g>
<g><path style="opacity:1" fill="#fefefe" d="M 186.5,139.5 C 337.5,139.5 488.5,139.5 639.5,139.5C 639.5,206.167 639.5,272.833 639.5,339.5C 488.5,339.5 337.5,339.5 186.5,339.5C 230.765,306.575 274.765,273.242 318.5,239.5C 274.765,205.758 230.765,172.425 186.5,139.5 Z"/></g>
<g><path style="opacity:1" fill="#c5171e" d="M 470.5,175.5 C 476.621,175.09 482.621,175.59 488.5,177C 454.683,187.821 438.516,210.988 440,246.5C 444.409,275.244 460.576,293.744 488.5,302C 461.58,305.459 440.413,295.959 425,273.5C 407.369,238.197 414.203,208.697 445.5,185C 453.483,180.512 461.816,177.345 470.5,175.5 Z"/></g>
<g><path style="opacity:1" fill="#c5181e" d="M 499.5,225.5 C 509.961,227.158 520.628,228.158 531.5,228.5C 523.044,234.449 514.711,240.616 506.5,247C 510.296,257.381 513.462,267.881 516,278.5C 507.56,271.551 498.727,265.218 489.5,259.5C 480.582,265.075 471.916,271.075 463.5,277.5C 463.167,277.167 462.833,276.833 462.5,276.5C 466.404,266.296 469.571,255.962 472,245.5C 463.412,239.456 454.912,233.289 446.5,227C 457.515,226.832 468.515,226.332 479.5,225.5C 482.915,215.418 486.415,205.418 490,195.5C 493.478,205.414 496.644,215.414 499.5,225.5 Z"/></g>
<g><path style="opacity:1" fill="#d75b62" d="M 499.5,225.5 C 510.758,226.312 522.091,226.812 533.5,227C 532.956,227.717 532.289,228.217 531.5,228.5C 520.628,228.158 509.961,227.158 499.5,225.5 Z"/></g>
<g><path style="opacity:1" fill="#00793c" d="M 186.5,339.5 C 337.5,339.5 488.5,339.5 639.5,339.5C 639.5,386.167 639.5,432.833 639.5,479.5C 426.5,479.5 213.5,479.5 0.5,479.5C 62.193,432.48 124.193,385.814 186.5,339.5 Z"/></g>
</svg>
