<?xml version="1.0" encoding="UTF-8"?>
<!DOCTYPE svg PUBLIC "-//W3C//DTD SVG 1.1//EN" "http://www.w3.org/Graphics/SVG/1.1/DTD/svg11.dtd">
<svg xmlns="http://www.w3.org/2000/svg" version="1.1" width="640px" height="480px" style="shape-rendering:geometricPrecision; text-rendering:geometricPrecision; image-rendering:optimizeQuality; fill-rule:evenodd; clip-rule:evenodd" xmlns:xlink="http://www.w3.org/1999/xlink">
<g><path style="opacity:1" fill="#f00600" d="M -0.5,-0.5 C 212.833,-0.5 426.167,-0.5 639.5,-0.5C 639.5,51.8333 639.5,104.167 639.5,156.5C 426.167,156.5 212.833,156.5 -0.5,156.5C -0.5,104.167 -0.5,51.8333 -0.5,-0.5 Z"/></g>
<g><path style="opacity:1" fill="#fefdfd" d="M -0.5,156.5 C 212.833,156.5 426.167,156.5 639.5,156.5C 639.5,211.833 639.5,267.167 639.5,322.5C 426.167,322.5 212.833,322.5 -0.5,322.5C -0.5,267.167 -0.5,211.833 -0.5,156.5 Z"/></g>
<g><path style="opacity:1" fill="#000000" d="M -0.5,322.5 C 212.833,322.5 426.167,322.5 639.5,322.5C 639.5,374.833 639.5,427.167 639.5,479.5C 426.167,479.5 212.833,479.5 -0.5,479.5C -0.5,427.167 -0.5,374.833 -0.5,322.5 Z"/></g>
</svg>
