<?xml version="1.0" encoding="UTF-8"?>
<!DOCTYPE svg PUBLIC "-//W3C//DTD SVG 1.1//EN" "http://www.w3.org/Graphics/SVG/1.1/DTD/svg11.dtd">
<svg xmlns="http://www.w3.org/2000/svg" version="1.1" width="640px" height="480px" style="shape-rendering:geometricPrecision; text-rendering:geometricPrecision; image-rendering:optimizeQuality; fill-rule:evenodd; clip-rule:evenodd" xmlns:xlink="http://www.w3.org/1999/xlink">
<g><path style="opacity:1" fill="#198900" d="M -0.5,-0.5 C 212.833,-0.5 426.167,-0.5 639.5,-0.5C 639.5,56.8333 639.5,114.167 639.5,171.5C 554.332,171.167 469.332,171.501 384.5,172.5C 384.5,274.833 384.5,377.167 384.5,479.5C 256.167,479.5 127.833,479.5 -0.5,479.5C -0.5,319.5 -0.5,159.5 -0.5,-0.5 Z"/></g>
<g><path style="opacity:1" fill="#111400" d="M 405.5,42.5 C 403.952,42.8212 403.285,43.8212 403.5,45.5C 402.566,44.4324 402.232,43.099 402.5,41.5C 403.791,41.2627 404.791,41.596 405.5,42.5 Z"/></g>
<g><path style="opacity:1" fill="#e37600" d="M 405.5,42.5 C 405.842,43.3382 406.508,43.6716 407.5,43.5C 407.973,44.9063 408.973,45.573 410.5,45.5C 411.514,46.6737 412.847,47.3404 414.5,47.5C 416.426,49.2927 418.759,50.2927 421.5,50.5C 425.182,53.0078 429.182,55.0078 433.5,56.5C 436.773,59.1442 440.44,61.3109 444.5,63C 442.323,64.2022 439.989,64.7022 437.5,64.5C 437.281,65.675 437.614,66.675 438.5,67.5C 441.294,65.7172 444.294,64.3838 447.5,63.5C 448.78,64.9313 450.447,65.5979 452.5,65.5C 453.398,66.1577 454.398,66.8243 455.5,67.5C 452.427,72.2526 448.094,73.7526 442.5,72C 450.918,66.6019 450.251,65.2686 440.5,68C 441.833,68.3333 443.167,68.6667 444.5,69C 442.939,69.941 441.605,71.1076 440.5,72.5C 443.447,73.3214 446.447,73.8214 449.5,74C 443.918,77.784 444.585,79.784 451.5,80C 451.043,80.414 450.709,80.914 450.5,81.5C 453.825,82.3771 457.158,82.5437 460.5,82C 458.833,83 457.167,84 455.5,85C 455.833,85.3333 456.167,85.6667 456.5,86C 461.243,86.5429 465.91,86.5429 470.5,86C 469.421,86.956 468.255,87.7894 467,88.5C 467.526,90.2275 467.359,91.8941 466.5,93.5C 460.349,97.4871 453.682,98.4871 446.5,96.5C 446.328,95.5084 446.662,94.8417 447.5,94.5C 450.298,93.9 452.965,92.9 455.5,91.5C 456.521,90.9984 456.688,90.3317 456,89.5C 449.111,92.1263 441.945,93.1263 434.5,92.5C 433.508,92.6716 432.842,92.3382 432.5,91.5C 437.08,88.8983 442.08,86.7316 447.5,85C 441.91,85.8811 436.243,86.7145 430.5,87.5C 427.483,87.2317 424.483,86.8984 421.5,86.5C 421.158,85.6618 420.492,85.3284 419.5,85.5C 425.757,83.5078 432.091,81.3412 438.5,79C 432.025,80.7536 425.359,81.587 418.5,81.5C 417.209,81.7373 416.209,81.404 415.5,80.5C 414.402,79.603 414.402,78.7697 415.5,78C 419.612,77.3784 423.612,76.3784 427.5,75C 424.691,74.8655 421.857,75.0322 419,75.5C 415.139,74.9334 411.305,74.2667 407.5,73.5C 404.767,73.297 402.434,72.297 400.5,70.5C 400.027,69.0937 399.027,68.427 397.5,68.5C 396.415,66.4131 394.749,65.0798 392.5,64.5C 391.972,63.1526 391.805,61.8193 392,60.5C 396.619,64.0599 401.786,66.3932 407.5,67.5C 404.84,65.5033 401.84,64.0033 398.5,63C 395.933,60.6041 393.6,58.1041 391.5,55.5C 391.328,54.5084 391.662,53.8417 392.5,53.5C 399.288,59.8971 407.288,64.2305 416.5,66.5C 411.592,64.0459 406.592,61.5459 401.5,59C 398.79,56.3722 396.456,53.5389 394.5,50.5C 394.343,49.1266 394.51,47.7932 395,46.5C 397.501,49.8483 400.668,52.1816 404.5,53.5C 404.842,54.3382 405.508,54.6716 406.5,54.5C 411.746,57.9552 417.413,60.6218 423.5,62.5C 418.021,59.9242 413.021,56.5908 408.5,52.5C 408.262,50.5956 407.262,49.2623 405.5,48.5C 405.573,46.9731 404.906,45.9731 403.5,45.5C 403.285,43.8212 403.952,42.8212 405.5,42.5 Z"/></g>
<g><path style="opacity:1" fill="#1d2102" d="M 407.5,43.5 C 409.027,43.427 410.027,44.0937 410.5,45.5C 408.973,45.573 407.973,44.9063 407.5,43.5 Z"/></g>
<g><path style="opacity:1" fill="#252401" d="M 404.5,53.5 C 400.668,52.1816 397.501,49.8483 395,46.5C 394.51,47.7932 394.343,49.1266 394.5,50.5C 393.378,48.7116 393.211,46.7116 394,44.5C 397.692,47.3648 401.192,50.3648 404.5,53.5 Z"/></g>
<g><path style="opacity:1" fill="#232402" d="M 403.5,45.5 C 404.906,45.9731 405.573,46.9731 405.5,48.5C 404.094,48.0269 403.427,47.0269 403.5,45.5 Z"/></g>
<g><path style="opacity:1" fill="#e77900" d="M 625.5,46.5 C 626.497,46.4701 627.164,46.9701 627.5,48C 627.011,49.1385 626.678,50.3052 626.5,51.5C 625.094,51.9731 624.427,52.9731 624.5,54.5C 616.466,60.8507 607.8,66.1841 598.5,70.5C 592.196,72.4897 585.863,74.4897 579.5,76.5C 578.833,76.3333 578.167,76.1667 577.5,76C 580.025,75.5762 582.025,74.4095 583.5,72.5C 584.5,72.1667 585.167,71.5 585.5,70.5C 585.082,69.7784 584.416,69.2784 583.5,69C 586.069,68.1016 588.402,66.935 590.5,65.5C 599.585,62.4587 607.919,58.1253 615.5,52.5C 617.027,52.573 618.027,51.9063 618.5,50.5C 619.492,50.6716 620.158,50.3382 620.5,49.5C 622.027,49.573 623.027,48.9063 623.5,47.5C 624.492,47.6716 625.158,47.3382 625.5,46.5 Z"/></g>
<g><path style="opacity:1" fill="#292d06" d="M 414.5,47.5 C 417.481,47.1824 419.815,48.1824 421.5,50.5C 418.759,50.2927 416.426,49.2927 414.5,47.5 Z"/></g>
<g><path style="opacity:1" fill="#402b05" d="M 623.5,47.5 C 623.027,48.9063 622.027,49.573 620.5,49.5C 620.973,48.0937 621.973,47.427 623.5,47.5 Z"/></g>
<g><path style="opacity:1" fill="#2a2602" d="M 405.5,48.5 C 407.262,49.2623 408.262,50.5956 408.5,52.5C 406.738,51.7377 405.738,50.4044 405.5,48.5 Z"/></g>
<g><path style="opacity:1" fill="#e27700" d="M 612.5,47.5 C 613.552,47.3505 614.552,47.5172 615.5,48C 608.149,55.3332 599.816,61.1665 590.5,65.5C 587.215,65.9281 584.215,66.9281 581.5,68.5C 576.106,69.9341 570.773,69.7674 565.5,68C 571.214,66.4912 576.548,64.3245 581.5,61.5C 584.241,61.2927 586.574,60.2927 588.5,58.5C 591.5,57.1667 594.5,55.8333 597.5,54.5C 599.553,54.5979 601.22,53.9313 602.5,52.5C 606.071,51.3814 609.404,49.7147 612.5,47.5 Z"/></g>
<g><path style="opacity:1" fill="#283d08" d="M 625.5,46.5 C 626.209,45.596 627.209,45.2627 628.5,45.5C 628.975,48.0821 628.308,50.0821 626.5,51.5C 626.678,50.3052 627.011,49.1385 627.5,48C 627.164,46.9701 626.497,46.4701 625.5,46.5 Z"/></g>
<g><path style="opacity:1" fill="#2b2e03" d="M 436.5,50.5 C 435.448,50.3505 434.448,50.5172 433.5,51C 434.252,51.6708 434.586,52.5041 434.5,53.5C 431.299,52.1605 430.965,50.4939 433.5,48.5C 434.739,48.9424 435.739,49.6091 436.5,50.5 Z"/></g>
<g><path style="opacity:1" fill="#e67800" d="M 436.5,50.5 C 443.964,55.2305 451.964,58.8971 460.5,61.5C 463.171,63.1181 466.171,63.7847 469.5,63.5C 473.394,64.5934 477.394,65.2601 481.5,65.5C 483.65,66.6701 485.984,67.6701 488.5,68.5C 488.305,65.9633 488.639,63.2966 489.5,60.5C 489.328,59.5084 489.662,58.8417 490.5,58.5C 492.262,57.7377 493.262,56.4044 493.5,54.5C 495.595,53.588 497.595,52.4213 499.5,51C 502.817,50.5017 506.15,50.335 509.5,50.5C 510.391,51.1098 511.391,51.4431 512.5,51.5C 513.99,53.2798 515.99,53.9465 518.5,53.5C 518.842,54.3382 519.508,54.6716 520.5,54.5C 521.473,56.0683 521.64,57.735 521,59.5C 520.617,58.944 520.117,58.6107 519.5,58.5C 517.775,57.095 515.775,56.595 513.5,57C 514.167,57.3333 514.833,57.6667 515.5,58C 513.68,58.2004 512.347,59.0337 511.5,60.5C 509.933,61.6808 509.099,63.3474 509,65.5C 508.346,64.3044 507.846,64.3044 507.5,65.5C 508.544,68.5446 510.544,70.5446 513.5,71.5C 519.662,77.4023 522.829,84.7356 523,93.5C 523.144,89.9574 523.311,86.624 523.5,83.5C 524.167,86.1667 525.833,87.8333 528.5,88.5C 530.239,91.2427 532.573,93.2427 535.5,94.5C 536.262,96.2624 537.596,97.2624 539.5,97.5C 540.927,100.764 543.261,103.264 546.5,105C 545.167,105.667 543.833,105.667 542.5,105C 536.24,102.242 530.906,98.5749 526.5,94C 529.667,97.8333 532.833,101.667 536,105.5C 536.333,104.833 536.667,104.167 537,103.5C 541.147,106.545 545.647,107.211 550.5,105.5C 552.091,107.633 554.091,109.299 556.5,110.5C 557.29,111.794 558.29,112.961 559.5,114C 556.076,114.747 552.743,114.58 549.5,113.5C 546.313,111.65 543.147,109.65 540,107.5C 539.837,109.387 540.671,110.887 542.5,112C 544.405,113.421 546.405,114.588 548.5,115.5C 547.082,117.308 545.082,117.975 542.5,117.5C 542.158,116.662 541.492,116.328 540.5,116.5C 539.024,114.5 537.191,112.833 535,111.5C 534.691,113.391 535.525,114.725 537.5,115.5C 537.043,116.298 536.376,116.631 535.5,116.5C 534.833,116.167 534.167,115.833 533.5,115.5C 531.5,114.167 529.833,112.5 528.5,110.5C 528.472,112.582 529.139,114.416 530.5,116C 529.376,116.249 528.376,116.749 527.5,117.5C 528.275,119.396 529.275,121.063 530.5,122.5C 530.414,123.496 530.748,124.329 531.5,125C 530.552,125.483 529.552,125.649 528.5,125.5C 527.5,123.833 526.167,122.5 524.5,121.5C 524.372,119.91 523.705,118.577 522.5,117.5C 521.667,119.5 520.833,121.5 520,123.5C 519.851,119.867 519.018,116.534 517.5,113.5C 517.008,111.181 516.008,109.181 514.5,107.5C 514.167,106.167 513.833,104.833 513.5,103.5C 512.811,100.811 511.144,99.1439 508.5,98.5C 505.812,96.7337 502.979,95.067 500,93.5C 499.085,94.3279 498.419,95.3279 498,96.5C 497.34,94.6763 496.173,93.343 494.5,92.5C 494.53,91.5028 494.03,90.8361 493,90.5C 486.064,95.221 484.564,94.221 488.5,87.5C 491.052,85.8369 490.886,84.1702 488,82.5C 487.543,78.1177 487.543,73.7843 488,69.5C 484.164,72.9505 483.664,76.9505 486.5,81.5C 485.476,82.8518 484.476,84.1851 483.5,85.5C 480.337,87.2455 477.004,88.7455 473.5,90C 471.741,90.7975 470.074,90.6309 468.5,89.5C 472.978,86.1896 477.311,82.6896 481.5,79C 477.192,81.3421 472.525,83.3421 467.5,85C 464.5,85.6667 461.5,85.6667 458.5,85C 461.99,82.0887 465.656,79.422 469.5,77C 465.44,78.1253 461.273,79.292 457,80.5C 456.167,80.1667 455.333,79.8333 454.5,79.5C 457.304,77.8619 459.971,76.0285 462.5,74C 465.5,73.3333 468.5,73.3333 471.5,74C 470.304,74.6543 470.304,75.1543 471.5,75.5C 472.415,74.6721 473.081,73.6721 473.5,72.5C 470.667,72.4185 467.667,72.2518 464.5,72C 465.167,71.3333 465.833,70.6667 466.5,70C 463.774,69.8184 461.107,69.3184 458.5,68.5C 458.709,67.914 459.043,67.414 459.5,67C 457.26,66.023 454.927,65.523 452.5,65.5C 451.22,64.0687 449.553,63.4021 447.5,63.5C 442.621,60.9637 438.287,57.6303 434.5,53.5C 434.586,52.5041 434.252,51.6708 433.5,51C 434.448,50.5172 435.448,50.3505 436.5,50.5 Z"/></g>
<g><path style="opacity:1" fill="#3f2b04" d="M 509.5,50.5 C 506.15,50.335 502.817,50.5017 499.5,51C 497.595,52.4213 495.595,53.588 493.5,54.5C 494.673,52.4959 496.34,50.9959 498.5,50C 502.358,49.1901 506.024,49.3567 509.5,50.5 Z"/></g>
<g><path style="opacity:1" fill="#3f2b05" d="M 618.5,50.5 C 618.027,51.9063 617.027,52.573 615.5,52.5C 615.973,51.0937 616.973,50.427 618.5,50.5 Z"/></g>
<g><path style="opacity:1" fill="#142606" d="M 512.5,51.5 C 514.698,51.8751 516.698,52.5418 518.5,53.5C 515.99,53.9465 513.99,53.2798 512.5,51.5 Z"/></g>
<g><path style="opacity:1" fill="#2d2603" d="M 602.5,52.5 C 601.22,53.9313 599.553,54.5979 597.5,54.5C 598.78,53.0687 600.447,52.4021 602.5,52.5 Z"/></g>
<g><path style="opacity:1" fill="#282b01" d="M 626.5,51.5 C 626.573,53.0269 625.906,54.0269 624.5,54.5C 624.427,52.9731 625.094,51.9731 626.5,51.5 Z"/></g>
<g><path style="opacity:1" fill="#090f00" d="M 392.5,53.5 C 391.662,53.8417 391.328,54.5084 391.5,55.5C 390.224,54.6136 390.224,53.6136 391.5,52.5C 392.107,52.6236 392.44,52.9569 392.5,53.5 Z"/></g>
<g><path style="opacity:1" fill="#1d1000" d="M 507.5,52.5 C 505.517,52.1568 504.183,52.8235 503.5,54.5C 500.001,54.741 499.668,53.9076 502.5,52C 504.387,51.2204 506.054,51.3871 507.5,52.5 Z"/></g>
<g><path style="opacity:1" fill="#7c4104" d="M 507.5,52.5 C 508.774,53.1894 508.774,54.0228 507.5,55C 505.934,55.765 504.601,55.5983 503.5,54.5C 504.183,52.8235 505.517,52.1568 507.5,52.5 Z"/></g>
<g><path style="opacity:1" fill="#271e00" d="M 584.5,54.5 C 585.209,53.596 586.209,53.2627 587.5,53.5C 587.737,54.791 587.404,55.791 586.5,56.5C 586.5,55.1667 585.833,54.5 584.5,54.5 Z"/></g>
<g><path style="opacity:1" fill="#392604" d="M 632.5,55.5 C 632.631,54.7611 632.464,54.0944 632,53.5C 631.329,54.2524 630.496,54.5858 629.5,54.5C 630.755,52.3592 632.422,51.6926 634.5,52.5C 634.058,53.7387 633.391,54.7387 632.5,55.5 Z"/></g>
<g><path style="opacity:1" fill="#e77900" d="M 584.5,54.5 C 585.833,54.5 586.5,55.1667 586.5,56.5C 584.833,58.1667 583.167,59.8333 581.5,61.5C 571.776,65.0982 561.776,67.7649 551.5,69.5C 552.376,70.2508 553.376,70.7508 554.5,71C 554.167,71.3333 553.833,71.6667 553.5,72C 549.5,72.3333 545.5,72.6667 541.5,73C 542.984,73.6622 544.317,74.4955 545.5,75.5C 541.487,76.9468 537.487,76.6134 533.5,74.5C 533.167,74.6667 532.833,74.8333 532.5,75C 533.833,76 535.167,77 536.5,78C 533.854,78.4974 531.187,78.6641 528.5,78.5C 527.749,77.4265 526.749,77.2599 525.5,78C 526.167,78.3333 526.833,78.6667 527.5,79C 525.866,79.4935 524.199,79.6602 522.5,79.5C 519.919,76.3118 516.919,73.6451 513.5,71.5C 513.389,70.8826 513.056,70.3826 512.5,70C 513.416,69.7216 514.082,69.2216 514.5,68.5C 523.173,68.6664 531.84,68.4998 540.5,68C 545.108,66.9654 549.441,65.4654 553.5,63.5C 556.495,63.7062 559.162,63.0395 561.5,61.5C 561.833,61.5 562.167,61.5 562.5,61.5C 565.228,61.8294 567.562,61.1628 569.5,59.5C 571.099,59.7678 572.432,59.4345 573.5,58.5C 577.081,58.8624 580.081,57.8624 582.5,55.5C 583.492,55.6716 584.158,55.3382 584.5,54.5 Z"/></g>
<g><path style="opacity:1" fill="#171a03" d="M 408.5,52.5 C 413.021,56.5908 418.021,59.9242 423.5,62.5C 417.413,60.6218 411.746,57.9552 406.5,54.5C 407.833,54.5 408.5,53.8333 408.5,52.5 Z"/></g>
<g><path style="opacity:1" fill="#432b06" d="M 493.5,54.5 C 493.262,56.4044 492.262,57.7377 490.5,58.5C 490.738,56.5956 491.738,55.2623 493.5,54.5 Z"/></g>
<g><path style="opacity:1" fill="#2b2a02" d="M 632.5,55.5 C 632.573,57.0269 631.906,58.0269 630.5,58.5C 630.427,56.9731 631.094,55.9731 632.5,55.5 Z"/></g>
<g><path style="opacity:1" fill="#373003" d="M 520.5,54.5 C 524.414,56.7907 524.248,59.124 520,61.5C 519.517,60.552 519.351,59.552 519.5,58.5C 520.117,58.6107 520.617,58.944 521,59.5C 521.64,57.735 521.473,56.0683 520.5,54.5 Z"/></g>
<g><path style="opacity:1" fill="#654006" d="M 582.5,55.5 C 580.081,57.8624 577.081,58.8624 573.5,58.5C 576.254,57.0541 579.254,56.0541 582.5,55.5 Z"/></g>
<g><path style="opacity:1" fill="#1c1801" d="M 519.5,58.5 C 516.833,59.1667 514.167,59.8333 511.5,60.5C 512.347,59.0337 513.68,58.2004 515.5,58C 514.833,57.6667 514.167,57.3333 513.5,57C 515.775,56.595 517.775,57.095 519.5,58.5 Z"/></g>
<g><path style="opacity:1" fill="#503407" d="M 569.5,59.5 C 567.562,61.1628 565.228,61.8294 562.5,61.5C 564.515,60.0762 566.848,59.4095 569.5,59.5 Z"/></g>
<g><path style="opacity:1" fill="#261e02" d="M 586.5,56.5 C 586.5,57.8333 587.167,58.5 588.5,58.5C 586.574,60.2927 584.241,61.2927 581.5,61.5C 583.167,59.8333 584.833,58.1667 586.5,56.5 Z"/></g>
<g><path style="opacity:1" fill="#362803" d="M 615.5,52.5 C 607.919,58.1253 599.585,62.4587 590.5,65.5C 599.816,61.1665 608.149,55.3332 615.5,48C 614.552,47.5172 613.552,47.3505 612.5,47.5C 614.253,45.6013 616.253,44.9347 618.5,45.5C 617.197,47.9371 615.53,50.1038 613.5,52C 614.094,52.4643 614.761,52.631 615.5,52.5 Z"/></g>
<g><path style="opacity:1" fill="#1c2f07" d="M 630.5,58.5 C 630.489,60.0174 629.823,61.1841 628.5,62C 629.624,62.2492 630.624,62.7492 631.5,63.5C 631.376,64.1067 631.043,64.44 630.5,64.5C 630.44,63.9569 630.107,63.6236 629.5,63.5C 626.965,64.9 624.298,65.9 621.5,66.5C 624.474,63.8621 627.474,61.1954 630.5,58.5 Z"/></g>
<g><path style="opacity:1" fill="#332604" d="M 394.5,50.5 C 396.456,53.5389 398.79,56.3722 401.5,59C 406.592,61.5459 411.592,64.0459 416.5,66.5C 407.288,64.2305 399.288,59.8971 392.5,53.5C 394.048,53.1788 394.715,52.1788 394.5,50.5 Z"/></g>
<g><path style="opacity:1" fill="#202002" d="M 460.5,61.5 C 463.781,61.4203 466.781,62.087 469.5,63.5C 466.171,63.7847 463.171,63.1181 460.5,61.5 Z"/></g>
<g><path style="opacity:1" fill="#4f3307" d="M 561.5,61.5 C 559.162,63.0395 556.495,63.7062 553.5,63.5C 555.905,62.2318 558.572,61.5651 561.5,61.5 Z"/></g>
<g><path style="opacity:1" fill="#432b06" d="M 392.5,64.5 C 394.749,65.0798 396.415,66.4131 397.5,68.5C 395.251,67.9202 393.585,66.5869 392.5,64.5 Z"/></g>
<g><path style="opacity:1" fill="#3f2407" d="M 423.5,62.5 C 426.659,62.4814 429.326,63.6481 431.5,66C 428.505,65.671 425.838,64.5043 423.5,62.5 Z"/></g>
<g><path style="opacity:1" fill="#3c2704" d="M 434.5,53.5 C 438.287,57.6303 442.621,60.9637 447.5,63.5C 444.294,64.3838 441.294,65.7172 438.5,67.5C 437.614,66.675 437.281,65.675 437.5,64.5C 439.989,64.7022 442.323,64.2022 444.5,63C 440.44,61.3109 436.773,59.1442 433.5,56.5C 434.239,56.631 434.906,56.4643 435.5,56C 434.748,55.3292 434.414,54.4959 434.5,53.5 Z"/></g>
<g><path style="opacity:1" fill="#442402" d="M 447.5,63.5 C 449.553,63.4021 451.22,64.0687 452.5,65.5C 450.447,65.5979 448.78,64.9313 447.5,63.5 Z"/></g>
<g><path style="opacity:1" fill="#221d02" d="M 391.5,55.5 C 393.6,58.1041 395.933,60.6041 398.5,63C 401.84,64.0033 404.84,65.5033 407.5,67.5C 401.786,66.3932 396.619,64.0599 392,60.5C 391.805,61.8193 391.972,63.1526 392.5,64.5C 390.899,63.4812 389.899,61.9812 389.5,60C 390.707,58.6998 391.374,57.1998 391.5,55.5 Z"/></g>
<g><path style="opacity:1" fill="#3e2c05" d="M 624.5,54.5 C 624.369,55.2389 624.536,55.9056 625,56.5C 625.671,55.7476 626.504,55.4142 627.5,55.5C 618.536,61.8157 608.869,66.8157 598.5,70.5C 607.8,66.1841 616.466,60.8507 624.5,54.5 Z"/></g>
<g><path style="opacity:1" fill="#2c2a01" d="M 630.5,64.5 C 630.573,66.0269 629.906,67.0269 628.5,67.5C 628.427,65.9731 629.094,64.9731 630.5,64.5 Z"/></g>
<g><path style="opacity:1" fill="#212304" d="M 489.5,60.5 C 488.639,63.2966 488.305,65.9633 488.5,68.5C 485.984,67.6701 483.65,66.6701 481.5,65.5C 483.467,65.2606 485.301,65.5939 487,66.5C 487.24,64.1484 488.073,62.1484 489.5,60.5 Z"/></g>
<g><path style="opacity:1" fill="#522b04" d="M 581.5,61.5 C 576.548,64.3245 571.214,66.4912 565.5,68C 570.773,69.7674 576.106,69.9341 581.5,68.5C 580.737,69.2679 579.737,69.7679 578.5,70C 580.81,70.4966 583.143,70.6633 585.5,70.5C 585.167,71.5 584.5,72.1667 583.5,72.5C 576.341,71.6872 569.174,70.3539 562,68.5C 559.959,69.4231 557.792,69.7564 555.5,69.5C 555.67,70.8221 555.337,71.9887 554.5,73C 551.69,73.7823 549.023,74.6156 546.5,75.5C 546.167,75.5 545.833,75.5 545.5,75.5C 544.317,74.4955 542.984,73.6622 541.5,73C 545.5,72.6667 549.5,72.3333 553.5,72C 553.833,71.6667 554.167,71.3333 554.5,71C 553.376,70.7508 552.376,70.2508 551.5,69.5C 561.776,67.7649 571.776,65.0982 581.5,61.5 Z"/></g>
<g><path style="opacity:1" fill="#3c2202" d="M 407.5,67.5 C 409.553,67.4021 411.22,68.0687 412.5,69.5C 410.447,69.5979 408.78,68.9313 407.5,67.5 Z"/></g>
<g><path style="opacity:1" fill="#4e2e02" d="M 416.5,66.5 C 421.5,67.5008 426.167,69.3341 430.5,72C 425.502,71.0553 420.835,69.222 416.5,66.5 Z"/></g>
<g><path style="opacity:1" fill="#2a1c02" d="M 511.5,60.5 C 510.61,62.7819 510.444,65.1152 511,67.5C 512.011,68.3366 513.178,68.67 514.5,68.5C 514.082,69.2216 513.416,69.7216 512.5,70C 513.056,70.3826 513.389,70.8826 513.5,71.5C 510.544,70.5446 508.544,68.5446 507.5,65.5C 507.846,64.3044 508.346,64.3044 509,65.5C 509.099,63.3474 509.933,61.6808 511.5,60.5 Z"/></g>
<g><path style="opacity:1" fill="#261f02" d="M 397.5,68.5 C 399.027,68.427 400.027,69.0937 400.5,70.5C 398.973,70.573 397.973,69.9063 397.5,68.5 Z"/></g>
<g><path style="opacity:1" fill="#e37700" d="M 583.5,72.5 C 580.525,73.9107 577.358,74.5774 574,74.5C 570.804,74.0867 567.638,73.92 564.5,74C 567.167,75 569.833,76 572.5,77C 566.725,77.5201 561.058,77.1868 555.5,76C 573.043,81.5263 572.71,82.693 554.5,79.5C 551.673,79.4162 549.006,78.7496 546.5,77.5C 546.5,76.8333 546.5,76.1667 546.5,75.5C 549.023,74.6156 551.69,73.7823 554.5,73C 555.337,71.9887 555.67,70.8221 555.5,69.5C 557.792,69.7564 559.959,69.4231 562,68.5C 569.174,70.3539 576.341,71.6872 583.5,72.5 Z"/></g>
<g><path style="opacity:1" fill="#864703" d="M 590.5,65.5 C 588.402,66.935 586.069,68.1016 583.5,69C 584.416,69.2784 585.082,69.7784 585.5,70.5C 583.143,70.6633 580.81,70.4966 578.5,70C 579.737,69.7679 580.737,69.2679 581.5,68.5C 584.215,66.9281 587.215,65.9281 590.5,65.5 Z"/></g>
<g><path style="opacity:1" fill="#412402" d="M 412.5,69.5 C 414.553,69.4021 416.22,70.0687 417.5,71.5C 415.447,71.5979 413.78,70.9313 412.5,69.5 Z"/></g>
<g><path style="opacity:1" fill="#482703" d="M 417.5,71.5 C 419.103,71.3118 420.437,71.8118 421.5,73C 419.86,73.3478 418.527,72.8478 417.5,71.5 Z"/></g>
<g><path style="opacity:1" fill="#291c02" d="M 623.5,72.5 C 624.706,74.437 624.373,76.1037 622.5,77.5C 622.631,76.6236 622.298,75.9569 621.5,75.5C 619.07,77.4847 616.404,78.6514 613.5,79C 616.72,76.5633 620.053,74.3967 623.5,72.5 Z"/></g>
<g><path style="opacity:1" fill="#3c2706" d="M 407.5,73.5 C 411.305,74.2667 415.139,74.9334 419,75.5C 421.857,75.0322 424.691,74.8655 427.5,75C 423.612,76.3784 419.612,77.3784 415.5,78C 414.402,78.7697 414.402,79.603 415.5,80.5C 412.057,79.8449 411.39,78.5115 413.5,76.5C 411.255,75.7918 409.255,74.7918 407.5,73.5 Z"/></g>
<g><path style="opacity:1" fill="#341c01" d="M 545.5,75.5 C 545.833,75.5 546.167,75.5 546.5,75.5C 546.5,76.1667 546.5,76.8333 546.5,77.5C 543.5,77.5 540.5,77.5 537.5,77.5C 538.099,80.1685 539.766,82.0018 542.5,83C 546.632,84.8997 550.966,85.733 555.5,85.5C 556.167,85.5 556.5,85.8333 556.5,86.5C 553.091,86.7507 549.758,86.4173 546.5,85.5C 546.167,86.1667 545.833,86.8333 545.5,87.5C 542.025,85.1924 538.692,82.6924 535.5,80C 533.071,79.2967 530.738,79.4634 528.5,80.5C 528.5,79.8333 528.5,79.1667 528.5,78.5C 531.187,78.6641 533.854,78.4974 536.5,78C 535.167,77 533.833,76 532.5,75C 532.833,74.8333 533.167,74.6667 533.5,74.5C 537.487,76.6134 541.487,76.9468 545.5,75.5 Z"/></g>
<g><path style="opacity:1" fill="#e87900" d="M 546.5,77.5 C 548.629,79.9501 551.296,81.6167 554.5,82.5C 555.11,83.391 555.443,84.391 555.5,85.5C 550.966,85.733 546.632,84.8997 542.5,83C 539.766,82.0018 538.099,80.1685 537.5,77.5C 540.5,77.5 543.5,77.5 546.5,77.5 Z"/></g>
<g><path style="opacity:1" fill="#794001" d="M 528.5,78.5 C 528.5,79.1667 528.5,79.8333 528.5,80.5C 526.833,81.1667 525.167,81.8333 523.5,82.5C 521.519,81.8946 521.185,80.8946 522.5,79.5C 524.199,79.6602 525.866,79.4935 527.5,79C 526.833,78.6667 526.167,78.3333 525.5,78C 526.749,77.2599 527.749,77.4265 528.5,78.5 Z"/></g>
<g><path style="opacity:1" fill="#2a1702" d="M 546.5,77.5 C 549.006,78.7496 551.673,79.4162 554.5,79.5C 553.167,80.5 553.167,81.5 554.5,82.5C 551.296,81.6167 548.629,79.9501 546.5,77.5 Z"/></g>
<g><path style="opacity:1" fill="#232602" d="M 419.5,85.5 C 418.308,84.4341 418.641,83.6008 420.5,83C 419.584,82.7216 418.918,82.2216 418.5,81.5C 425.359,81.587 432.025,80.7536 438.5,79C 432.091,81.3412 425.757,83.5078 419.5,85.5 Z"/></g>
<g><path style="opacity:1" fill="#e27600" d="M 632.5,55.5 C 631.094,55.9731 630.427,56.9731 630.5,58.5C 627.474,61.1954 624.474,63.8621 621.5,66.5C 624.298,65.9 626.965,64.9 629.5,63.5C 630.107,63.6236 630.44,63.9569 630.5,64.5C 629.094,64.9731 628.427,65.9731 628.5,67.5C 626.5,68.8333 624.833,70.5 623.5,72.5C 620.053,74.3967 616.72,76.5633 613.5,79C 616.404,78.6514 619.07,77.4847 621.5,75.5C 622.298,75.9569 622.631,76.6236 622.5,77.5C 620.167,79.1667 618.167,81.1667 616.5,83.5C 613.331,84.9166 610.331,86.5832 607.5,88.5C 602.072,90.1756 596.738,91.8423 591.5,93.5C 590.833,93.5 590.167,93.5 589.5,93.5C 578.005,95.246 566.672,94.5793 555.5,91.5C 560.015,93.3585 564.349,95.3585 568.5,97.5C 565.555,98.4675 562.555,98.6342 559.5,98C 555.846,96.7262 552.18,95.5596 548.5,94.5C 541.877,90.3625 535.21,86.5292 528.5,83C 534.104,87.7767 540.104,91.9434 546.5,95.5C 548.927,97.5576 551.593,99.3909 554.5,101C 549.186,101.255 544.186,100.088 539.5,97.5C 538.738,95.7376 537.404,94.7376 535.5,94.5C 533.761,91.7573 531.427,89.7573 528.5,88.5C 527.167,86.5 525.5,84.8333 523.5,83.5C 523.5,83.1667 523.5,82.8333 523.5,82.5C 525.167,81.8333 526.833,81.1667 528.5,80.5C 530.738,79.4634 533.071,79.2967 535.5,80C 538.692,82.6924 542.025,85.1924 545.5,87.5C 545.833,86.8333 546.167,86.1667 546.5,85.5C 549.758,86.4173 553.091,86.7507 556.5,86.5C 562.698,88.9761 569.198,89.9761 576,89.5C 586.301,90.089 596.134,88.2557 605.5,84C 599.582,85.2966 593.582,86.6299 587.5,88C 580.167,88.6667 572.833,88.6667 565.5,88C 556.325,86.2213 556.659,85.2213 566.5,85C 563.833,84.6667 561.167,84.3333 558.5,84C 557.328,83.5814 556.328,82.9147 555.5,82C 560.136,82.1237 564.802,82.2904 569.5,82.5C 569.5,81.5 569.5,80.5 569.5,79.5C 579.806,78.2851 589.473,75.2851 598.5,70.5C 608.869,66.8157 618.536,61.8157 627.5,55.5C 628.492,55.6716 629.158,55.3382 629.5,54.5C 630.496,54.5858 631.329,54.2524 632,53.5C 632.464,54.0944 632.631,54.7611 632.5,55.5 Z"/></g>
<g><path style="opacity:1" fill="#432604" d="M 605.5,74.5 C 602.633,76.956 599.299,78.1227 595.5,78C 598.756,76.5263 602.089,75.3597 605.5,74.5 Z"/></g>
<g><path style="opacity:1" fill="#311f01" d="M 621.5,66.5 C 616.753,70.2071 611.419,72.8737 605.5,74.5C 610.516,71.3255 615.849,68.6588 621.5,66.5 Z"/></g>
<g><path style="opacity:1" fill="#502b04" d="M 598.5,70.5 C 589.473,75.2851 579.806,78.2851 569.5,79.5C 569.5,80.5 569.5,81.5 569.5,82.5C 564.802,82.2904 560.136,82.1237 555.5,82C 556.328,82.9147 557.328,83.5814 558.5,84C 561.167,84.3333 563.833,84.6667 566.5,85C 556.659,85.2213 556.325,86.2213 565.5,88C 572.833,88.6667 580.167,88.6667 587.5,88C 593.582,86.6299 599.582,85.2966 605.5,84C 596.134,88.2557 586.301,90.089 576,89.5C 569.198,89.9761 562.698,88.9761 556.5,86.5C 556.5,85.8333 556.167,85.5 555.5,85.5C 555.443,84.391 555.11,83.391 554.5,82.5C 553.167,81.5 553.167,80.5 554.5,79.5C 572.71,82.693 573.043,81.5263 555.5,76C 561.058,77.1868 566.725,77.5201 572.5,77C 569.833,76 567.167,75 564.5,74C 567.638,73.92 570.804,74.0867 574,74.5C 577.358,74.5774 580.525,73.9107 583.5,72.5C 582.025,74.4095 580.025,75.5762 577.5,76C 578.167,76.1667 578.833,76.3333 579.5,76.5C 585.863,74.4897 592.196,72.4897 598.5,70.5 Z"/></g>
<g><path style="opacity:1" fill="#361e03" d="M 513.5,71.5 C 516.919,73.6451 519.919,76.3118 522.5,79.5C 521.185,80.8946 521.519,81.8946 523.5,82.5C 523.5,82.8333 523.5,83.1667 523.5,83.5C 523.311,86.624 523.144,89.9574 523,93.5C 522.829,84.7356 519.662,77.4023 513.5,71.5 Z"/></g>
<g><path style="opacity:1" fill="#1b4007" d="M 622.5,77.5 C 621.5,80.5 619.5,82.5 616.5,83.5C 618.167,81.1667 620.167,79.1667 622.5,77.5 Z"/></g>
<g><path style="opacity:1" fill="#402203" d="M 452.5,65.5 C 454.927,65.523 457.26,66.023 459.5,67C 459.043,67.414 458.709,67.914 458.5,68.5C 461.107,69.3184 463.774,69.8184 466.5,70C 465.833,70.6667 465.167,71.3333 464.5,72C 467.667,72.2518 470.667,72.4185 473.5,72.5C 473.081,73.6721 472.415,74.6721 471.5,75.5C 470.304,75.1543 470.304,74.6543 471.5,74C 468.5,73.3333 465.5,73.3333 462.5,74C 459.971,76.0285 457.304,77.8619 454.5,79.5C 455.333,79.8333 456.167,80.1667 457,80.5C 461.273,79.292 465.44,78.1253 469.5,77C 465.656,79.422 461.99,82.0887 458.5,85C 461.5,85.6667 464.5,85.6667 467.5,85C 472.525,83.3421 477.192,81.3421 481.5,79C 477.311,82.6896 472.978,86.1896 468.5,89.5C 470.074,90.6309 471.741,90.7975 473.5,90C 477.004,88.7455 480.337,87.2455 483.5,85.5C 479.787,89.4716 475.12,91.6383 469.5,92C 468.627,93.045 467.627,93.8783 466.5,94.5C 466.5,94.1667 466.5,93.8333 466.5,93.5C 467.359,91.8941 467.526,90.2275 467,88.5C 468.255,87.7894 469.421,86.956 470.5,86C 465.91,86.5429 461.243,86.5429 456.5,86C 456.167,85.6667 455.833,85.3333 455.5,85C 457.167,84 458.833,83 460.5,82C 457.158,82.5437 453.825,82.3771 450.5,81.5C 450.709,80.914 451.043,80.414 451.5,80C 444.585,79.784 443.918,77.784 449.5,74C 446.447,73.8214 443.447,73.3214 440.5,72.5C 441.605,71.1076 442.939,69.941 444.5,69C 443.167,68.6667 441.833,68.3333 440.5,68C 450.251,65.2686 450.918,66.6019 442.5,72C 448.094,73.7526 452.427,72.2526 455.5,67.5C 454.398,66.8243 453.398,66.1577 452.5,65.5 Z"/></g>
<g><path style="opacity:1" fill="#e27600" d="M 455.5,69.5 C 458.203,69.9519 460.87,70.6185 463.5,71.5C 459.506,76.1673 454.506,78.0006 448.5,77C 451.039,74.6303 453.372,72.1303 455.5,69.5 Z"/></g>
<g><path style="opacity:1" fill="#e37700" d="M 488.5,87.5 C 485.883,88.7859 483.55,90.4525 481.5,92.5C 479.973,92.427 478.973,93.0937 478.5,94.5C 475.669,95.0787 473.336,96.412 471.5,98.5C 467.318,100.231 462.984,100.731 458.5,100C 461.022,97.9098 463.688,96.0765 466.5,94.5C 467.627,93.8783 468.627,93.045 469.5,92C 475.12,91.6383 479.787,89.4716 483.5,85.5C 485.017,85.4894 486.184,84.8228 487,83.5C 488.188,84.5634 488.688,85.8967 488.5,87.5 Z"/></g>
<g><path style="opacity:1" fill="#4b2804" d="M 488.5,87.5 C 488.688,85.8967 488.188,84.5634 487,83.5C 486.184,84.8228 485.017,85.4894 483.5,85.5C 484.476,84.1851 485.476,82.8518 486.5,81.5C 483.664,76.9505 484.164,72.9505 488,69.5C 487.543,73.7843 487.543,78.1177 488,82.5C 490.886,84.1702 491.052,85.8369 488.5,87.5 Z"/></g>
<g><path style="opacity:1" fill="#4b2806" d="M 523.5,83.5 C 525.5,84.8333 527.167,86.5 528.5,88.5C 525.833,87.8333 524.167,86.1667 523.5,83.5 Z"/></g>
<g><path style="opacity:1" fill="#221f02" d="M 432.5,91.5 C 430.451,91.2942 430.117,90.4609 431.5,89C 427.821,88.9735 424.488,88.1402 421.5,86.5C 424.483,86.8984 427.483,87.2317 430.5,87.5C 436.243,86.7145 441.91,85.8811 447.5,85C 442.08,86.7316 437.08,88.8983 432.5,91.5 Z"/></g>
<g><path style="opacity:1" fill="#261501" d="M 548.5,94.5 C 547.508,94.3284 546.842,94.6618 546.5,95.5C 540.104,91.9434 534.104,87.7767 528.5,83C 535.21,86.5292 541.877,90.3625 548.5,94.5 Z"/></g>
<g><path style="opacity:1" fill="#452502" d="M 555.5,91.5 C 553.692,91.5086 552.025,91.0086 550.5,90C 552.535,89.4014 554.201,89.9014 555.5,91.5 Z"/></g>
<g><path style="opacity:1" fill="#1f1a01" d="M 447.5,94.5 C 443.167,93.8333 438.833,93.1667 434.5,92.5C 441.945,93.1263 449.111,92.1263 456,89.5C 456.688,90.3317 456.521,90.9984 455.5,91.5C 452.965,92.9 450.298,93.9 447.5,94.5 Z"/></g>
<g><path style="opacity:1" fill="#3b2003" d="M 488.5,87.5 C 484.564,94.221 486.064,95.221 493,90.5C 494.03,90.8361 494.53,91.5028 494.5,92.5C 493.883,92.3893 493.383,92.056 493,91.5C 489.397,94.9643 485.563,95.2976 481.5,92.5C 483.55,90.4525 485.883,88.7859 488.5,87.5 Z"/></g>
<g><path style="opacity:1" fill="#4a2704" d="M 528.5,88.5 C 531.427,89.7573 533.761,91.7573 535.5,94.5C 532.573,93.2427 530.239,91.2427 528.5,88.5 Z"/></g>
<g><path style="opacity:1" fill="#e17600" d="M 494.5,92.5 C 495.391,94.6089 496.558,96.6089 498,98.5C 499.149,101.393 499.649,104.393 499.5,107.5C 499.389,108.117 499.056,108.617 498.5,109C 494.705,109.837 491.039,109.504 487.5,108C 487.043,107.586 486.709,107.086 486.5,106.5C 487.748,104.541 489.415,103.041 491.5,102C 486.243,103.145 480.909,104.312 475.5,105.5C 475.511,103.983 476.177,102.816 477.5,102C 479.5,100.667 481.5,99.3333 483.5,98C 479.255,99.4406 474.922,100.941 470.5,102.5C 469.5,102.333 468.5,102.167 467.5,102C 469.093,101.051 470.426,99.8846 471.5,98.5C 474.331,97.9213 476.664,96.588 478.5,94.5C 480.027,94.573 481.027,93.9063 481.5,92.5C 485.563,95.2976 489.397,94.9643 493,91.5C 493.383,92.056 493.883,92.3893 494.5,92.5 Z"/></g>
<g><path style="opacity:1" fill="#213a06" d="M 607.5,88.5 C 602.778,91.6882 597.444,93.3549 591.5,93.5C 596.738,91.8423 602.072,90.1756 607.5,88.5 Z"/></g>
<g><path style="opacity:1" fill="#351f02" d="M 481.5,92.5 C 481.027,93.9063 480.027,94.573 478.5,94.5C 478.973,93.0937 479.973,92.427 481.5,92.5 Z"/></g>
<g><path style="opacity:1" fill="#492602" d="M 509.5,89.5 C 511.044,92.5573 513.211,95.2239 516,97.5C 517.187,99.0444 517.52,100.711 517,102.5C 515.77,99.2677 513.77,96.6011 511,94.5C 509.991,92.9751 509.491,91.3084 509.5,89.5 Z"/></g>
<g><path style="opacity:1" fill="#4a2a04" d="M 555.5,91.5 C 566.672,94.5793 578.005,95.246 589.5,93.5C 588.101,94.8897 586.434,95.8897 584.5,96.5C 579.162,95.0537 573.829,95.387 568.5,97.5C 564.349,95.3585 560.015,93.3585 555.5,91.5 Z"/></g>
<g><path style="opacity:1" fill="#de7400" d="M 584.5,96.5 C 581.089,97.8804 577.756,99.2137 574.5,100.5C 570.154,100.666 565.821,100.499 561.5,100C 563.5,99.6667 565.5,99.3333 567.5,99C 568.056,98.6174 568.389,98.1174 568.5,97.5C 573.829,95.387 579.162,95.0537 584.5,96.5 Z"/></g>
<g><path style="opacity:1" fill="#e17600" d="M 508.5,98.5 C 509.122,99.6266 509.955,100.627 511,101.5C 511.172,108.013 511.672,114.347 512.5,120.5C 512.737,121.791 512.404,122.791 511.5,123.5C 511.068,122.29 510.401,121.29 509.5,120.5C 509.585,119.005 508.919,118.005 507.5,117.5C 506.217,119.73 505.217,122.063 504.5,124.5C 503.35,125.85 502.683,125.684 502.5,124C 503.991,115.163 503.324,114.663 500.5,122.5C 499.566,121.432 499.232,120.099 499.5,118.5C 499.5,118.167 499.5,117.833 499.5,117.5C 500.669,114.659 501.669,111.659 502.5,108.5C 500.529,104.292 499.863,99.9591 500.5,95.5C 502.979,97.0761 505.646,98.0761 508.5,98.5 Z"/></g>
<g><path style="opacity:1" fill="#372003" d="M 523.5,100.5 C 522.038,99.5423 520.705,98.3756 519.5,97C 521.841,96.8319 523.174,97.9986 523.5,100.5 Z"/></g>
<g><path style="opacity:1" fill="#2b1a02" d="M 478.5,94.5 C 476.664,96.588 474.331,97.9213 471.5,98.5C 473.336,96.412 475.669,95.0787 478.5,94.5 Z"/></g>
<g><path style="opacity:1" fill="#241f02" d="M 466.5,93.5 C 466.5,93.8333 466.5,94.1667 466.5,94.5C 463.688,96.0765 461.022,97.9098 458.5,100C 462.984,100.731 467.318,100.231 471.5,98.5C 470.426,99.8846 469.093,101.051 467.5,102C 468.5,102.167 469.5,102.333 470.5,102.5C 474.922,100.941 479.255,99.4406 483.5,98C 481.5,99.3333 479.5,100.667 477.5,102C 476.177,102.816 475.511,103.983 475.5,105.5C 467.092,102.832 458.425,100.665 449.5,99C 448.058,98.6232 447.058,97.7899 446.5,96.5C 453.682,98.4871 460.349,97.4871 466.5,93.5 Z"/></g>
<g><path style="opacity:1" fill="#432404" d="M 494.5,92.5 C 496.173,93.343 497.34,94.6763 498,96.5C 498.419,95.3279 499.085,94.3279 500,93.5C 502.979,95.067 505.812,96.7337 508.5,98.5C 505.646,98.0761 502.979,97.0761 500.5,95.5C 499.863,99.9591 500.529,104.292 502.5,108.5C 501.883,108.611 501.383,108.944 501,109.5C 500.722,108.584 500.222,107.918 499.5,107.5C 499.649,104.393 499.149,101.393 498,98.5C 496.558,96.6089 495.391,94.6089 494.5,92.5 Z"/></g>
<g><path style="opacity:1" fill="#2b1701" d="M 523.5,100.5 C 525.23,101.026 526.564,102.026 527.5,103.5C 526.662,103.842 526.328,104.508 526.5,105.5C 525.11,104.101 524.11,102.434 523.5,100.5 Z"/></g>
<g><path style="opacity:1" fill="#432403" d="M 527.5,103.5 C 530.479,104.654 533.479,105.82 536.5,107C 532.832,107.498 529.832,106.331 527.5,103.5 Z"/></g>
<g><path style="opacity:1" fill="#3e2304" d="M 539.5,97.5 C 544.186,100.088 549.186,101.255 554.5,101C 551.593,99.3909 548.927,97.5576 546.5,95.5C 546.842,94.6618 547.508,94.3284 548.5,94.5C 552.18,95.5596 555.846,96.7262 559.5,98C 562.555,98.6342 565.555,98.4675 568.5,97.5C 568.389,98.1174 568.056,98.6174 567.5,99C 565.5,99.3333 563.5,99.6667 561.5,100C 565.821,100.499 570.154,100.666 574.5,100.5C 573.048,101.302 571.382,101.802 569.5,102C 570.883,103.461 570.549,104.294 568.5,104.5C 566.706,105.233 565.039,106.233 563.5,107.5C 558.06,106.126 552.727,104.126 547.5,101.5C 547.167,101.667 546.833,101.833 546.5,102C 548.093,102.949 549.426,104.115 550.5,105.5C 545.647,107.211 541.147,106.545 537,103.5C 536.667,104.167 536.333,104.833 536,105.5C 532.833,101.667 529.667,97.8333 526.5,94C 530.906,98.5749 536.24,102.242 542.5,105C 543.833,105.667 545.167,105.667 546.5,105C 543.261,103.264 540.927,100.764 539.5,97.5 Z"/></g>
<g><path style="opacity:1" fill="#e07500" d="M 568.5,104.5 C 563.733,104.809 559.066,104.309 554.5,103C 555.701,102.097 556.535,100.931 557,99.5C 560.195,100.875 563.528,101.875 567,102.5C 568.03,102.836 568.53,103.503 568.5,104.5 Z"/></g>
<g><path style="opacity:1" fill="#3d2103" d="M 535.5,94.5 C 537.404,94.7376 538.738,95.7376 539.5,97.5C 537.596,97.2624 536.262,96.2624 535.5,94.5 Z"/></g>
<g><path style="opacity:1" fill="#dd7400" d="M 563.5,107.5 C 558.79,109.104 554.457,108.437 550.5,105.5C 549.426,104.115 548.093,102.949 546.5,102C 546.833,101.833 547.167,101.667 547.5,101.5C 552.727,104.126 558.06,106.126 563.5,107.5 Z"/></g>
<g><path style="opacity:1" fill="#202402" d="M 499.5,107.5 C 500.222,107.918 500.722,108.584 501,109.5C 501.383,108.944 501.883,108.611 502.5,108.5C 501.669,111.659 500.669,114.659 499.5,117.5C 499.326,115.139 498.993,112.806 498.5,110.5C 492.141,111.687 486.808,110.02 482.5,105.5C 480.002,106.63 477.668,106.63 475.5,105.5C 480.909,104.312 486.243,103.145 491.5,102C 489.415,103.041 487.748,104.541 486.5,106.5C 486.709,107.086 487.043,107.586 487.5,108C 491.039,109.504 494.705,109.837 498.5,109C 499.056,108.617 499.389,108.117 499.5,107.5 Z"/></g>
<g><path style="opacity:1" fill="#562f04" d="M 508.5,98.5 C 511.144,99.1439 512.811,100.811 513.5,103.5C 512.523,106.287 512.19,109.287 512.5,112.5C 512.5,115.167 512.5,117.833 512.5,120.5C 511.672,114.347 511.172,108.013 511,101.5C 509.955,100.627 509.122,99.6266 508.5,98.5 Z"/></g>
<g><path style="opacity:1" fill="#211f02" d="M 550.5,105.5 C 554.457,108.437 558.79,109.104 563.5,107.5C 561.412,109.02 559.078,110.02 556.5,110.5C 554.091,109.299 552.091,107.633 550.5,105.5 Z"/></g>
<g><path style="opacity:1" fill="#122f02" d="M 513.5,103.5 C 513.833,104.833 514.167,106.167 514.5,107.5C 513.833,109.167 513.167,110.833 512.5,112.5C 512.19,109.287 512.523,106.287 513.5,103.5 Z"/></g>
<g><path style="opacity:1" fill="#462502" d="M 526.5,105.5 C 527.931,106.78 528.598,108.447 528.5,110.5C 527.069,109.22 526.402,107.553 526.5,105.5 Z"/></g>
<g><path style="opacity:1" fill="#1a7803" d="M 514.5,107.5 C 516.008,109.181 517.008,111.181 517.5,113.5C 517.761,119.003 518.761,124.336 520.5,129.5C 518.735,130.461 516.735,130.795 514.5,130.5C 513.833,130.5 513.167,130.5 512.5,130.5C 511.508,130.672 510.842,130.338 510.5,129.5C 510.205,127.265 510.539,125.265 511.5,123.5C 512.472,124.751 513.139,124.418 513.5,122.5C 513.457,121.584 513.124,120.917 512.5,120.5C 512.5,117.833 512.5,115.167 512.5,112.5C 513.167,110.833 513.833,109.167 514.5,107.5 Z"/></g>
<g><path style="opacity:1" fill="#372204" d="M 540.5,116.5 C 538.666,117.494 536.999,117.494 535.5,116.5C 536.376,116.631 537.043,116.298 537.5,115.5C 535.525,114.725 534.691,113.391 535,111.5C 537.191,112.833 539.024,114.5 540.5,116.5 Z"/></g>
<g><path style="opacity:1" fill="#242c04" d="M 549.5,113.5 C 547.302,113.409 546.969,114.075 548.5,115.5C 546.405,114.588 544.405,113.421 542.5,112C 540.671,110.887 539.837,109.387 540,107.5C 543.147,109.65 546.313,111.65 549.5,113.5 Z"/></g>
<g><path style="opacity:1" fill="#282504" d="M 528.5,110.5 C 529.833,112.5 531.5,114.167 533.5,115.5C 532.761,115.369 532.094,115.536 531.5,116C 532.551,117.385 533.884,118.385 535.5,119C 533.866,119.494 532.199,119.66 530.5,119.5C 530.5,120.5 530.5,121.5 530.5,122.5C 529.275,121.063 528.275,119.396 527.5,117.5C 528.376,116.749 529.376,116.249 530.5,116C 529.139,114.416 528.472,112.582 528.5,110.5 Z"/></g>
<g><path style="opacity:1" fill="#4f3104" d="M 548.5,115.5 C 549.404,116.209 549.737,117.209 549.5,118.5C 546.941,118.802 544.607,118.468 542.5,117.5C 545.082,117.975 547.082,117.308 548.5,115.5 Z"/></g>
<g><path style="opacity:1" fill="#e17500" d="M 509.5,120.5 C 509.19,123.713 509.523,126.713 510.5,129.5C 510.842,130.338 511.508,130.672 512.5,130.5C 510.939,133.943 510.106,137.61 510,141.5C 509.282,142.451 508.449,142.617 507.5,142C 505.996,140.509 505.163,138.676 505,136.5C 504.764,138.811 503.931,140.811 502.5,142.5C 501.222,142.782 500.222,143.449 499.5,144.5C 499.737,143.209 499.404,142.209 498.5,141.5C 498.905,139.35 499.405,137.35 500,135.5C 497.52,136.812 495.02,137.812 492.5,138.5C 491.596,137.791 491.263,136.791 491.5,135.5C 492.833,134.833 493.833,133.833 494.5,132.5C 497.831,132.982 500.497,131.982 502.5,129.5C 503.537,128.07 504.204,126.403 504.5,124.5C 506.136,123.251 507.303,121.584 508,119.5C 508.383,120.056 508.883,120.389 509.5,120.5 Z"/></g>
<g><path style="opacity:1" fill="#121400" d="M 499.5,118.5 C 499.232,120.099 499.566,121.432 500.5,122.5C 500.44,123.043 500.107,123.376 499.5,123.5C 498.212,121.701 498.212,120.035 499.5,118.5 Z"/></g>
<g><path style="opacity:1" fill="#e47700" d="M 524.5,121.5 C 525.397,124.213 526.73,126.546 528.5,128.5C 529.791,129.473 529.791,130.473 528.5,131.5C 531.578,133.791 532.078,136.458 530,139.5C 529.29,138.027 528.124,137.36 526.5,137.5C 526.238,135.394 525.238,134.227 523.5,134C 522.78,136.491 522.113,138.991 521.5,141.5C 520.391,141.443 519.391,141.11 518.5,140.5C 518.66,138.801 518.494,137.134 518,135.5C 517.283,136.044 516.783,136.711 516.5,137.5C 516.167,137.5 515.833,137.5 515.5,137.5C 514.5,137.5 513.5,137.5 512.5,137.5C 512.166,134.812 512.832,132.479 514.5,130.5C 516.735,130.795 518.735,130.461 520.5,129.5C 521.194,126.579 522.027,123.579 523,120.5C 523.383,121.056 523.883,121.389 524.5,121.5 Z"/></g>
<g><path style="opacity:1" fill="#3b2003" d="M 509.5,120.5 C 508.883,120.389 508.383,120.056 508,119.5C 507.303,121.584 506.136,123.251 504.5,124.5C 505.217,122.063 506.217,119.73 507.5,117.5C 508.919,118.005 509.585,119.005 509.5,120.5 Z"/></g>
<g><path style="opacity:1" fill="#172601" d="M 509.5,120.5 C 510.401,121.29 511.068,122.29 511.5,123.5C 510.539,125.265 510.205,127.265 510.5,129.5C 509.523,126.713 509.19,123.713 509.5,120.5 Z"/></g>
<g><path style="opacity:1" fill="#111e00" d="M 512.5,120.5 C 513.124,120.917 513.457,121.584 513.5,122.5C 513.139,124.418 512.472,124.751 511.5,123.5C 512.404,122.791 512.737,121.791 512.5,120.5 Z"/></g>
<g><path style="opacity:1" fill="#281901" d="M 524.5,121.5 C 526.167,122.5 527.5,123.833 528.5,125.5C 527.375,126.348 527.375,127.348 528.5,128.5C 526.73,126.546 525.397,124.213 524.5,121.5 Z"/></g>
<g><path style="opacity:1" fill="#2c1e02" d="M 517.5,113.5 C 519.018,116.534 519.851,119.867 520,123.5C 520.833,121.5 521.667,119.5 522.5,117.5C 523.705,118.577 524.372,119.91 524.5,121.5C 523.883,121.389 523.383,121.056 523,120.5C 522.027,123.579 521.194,126.579 520.5,129.5C 518.761,124.336 517.761,119.003 517.5,113.5 Z"/></g>
<g><path style="opacity:1" fill="#282001" d="M 530.5,122.5 C 534.836,127.507 534.17,128.507 528.5,125.5C 529.552,125.649 530.552,125.483 531.5,125C 530.748,124.329 530.414,123.496 530.5,122.5 Z"/></g>
<g><path style="opacity:1" fill="#1d2001" d="M 504.5,124.5 C 504.204,126.403 503.537,128.07 502.5,129.5C 502.279,126.933 501.612,124.599 500.5,122.5C 503.324,114.663 503.991,115.163 502.5,124C 502.683,125.684 503.35,125.85 504.5,124.5 Z"/></g>
<g><path style="opacity:1" fill="#2a2500" d="M 494.5,132.5 C 493.833,133.833 492.833,134.833 491.5,135.5C 491.5,133.5 492.5,132.5 494.5,132.5 Z"/></g>
<g><path style="opacity:1" fill="#151300" d="M 491.5,135.5 C 491.263,136.791 491.596,137.791 492.5,138.5C 492.217,139.289 491.717,139.956 491,140.5C 490.22,138.613 490.387,136.946 491.5,135.5 Z"/></g>
<g><path style="opacity:1" fill="#274206" d="M 526.5,137.5 C 524.52,138.474 522.853,139.807 521.5,141.5C 522.113,138.991 522.78,136.491 523.5,134C 525.238,134.227 526.238,135.394 526.5,137.5 Z"/></g>
<g><path style="opacity:1" fill="#242c01" d="M 498.5,141.5 C 497.596,140.791 497.263,139.791 497.5,138.5C 495.833,138.5 494.167,138.5 492.5,138.5C 495.02,137.812 497.52,136.812 500,135.5C 499.405,137.35 498.905,139.35 498.5,141.5 Z"/></g>
<g><path style="opacity:1" fill="#211700" d="M 518.5,140.5 C 517.833,139.5 517.167,138.5 516.5,137.5C 516.783,136.711 517.283,136.044 518,135.5C 518.494,137.134 518.66,138.801 518.5,140.5 Z"/></g>
<g><path style="opacity:1" fill="#2c2902" d="M 512.5,130.5 C 513.167,130.5 513.833,130.5 514.5,130.5C 512.832,132.479 512.166,134.812 512.5,137.5C 513.5,137.5 514.5,137.5 515.5,137.5C 515.029,138.901 514.362,140.234 513.5,141.5C 512.914,141.291 512.414,140.957 512,140.5C 511.167,142.5 510.333,144.5 509.5,146.5C 508.01,144.874 506.51,143.208 505,141.5C 504.329,142.252 503.496,142.586 502.5,142.5C 503.931,140.811 504.764,138.811 505,136.5C 505.163,138.676 505.996,140.509 507.5,142C 508.449,142.617 509.282,142.451 510,141.5C 510.106,137.61 510.939,133.943 512.5,130.5 Z"/></g>
<g><path style="opacity:1" fill="#263405" d="M 528.5,128.5 C 531.288,128.077 533.288,129.077 534.5,131.5C 532.981,134.148 531.981,136.982 531.5,140C 529.328,140.28 527.661,139.447 526.5,137.5C 528.124,137.36 529.29,138.027 530,139.5C 532.078,136.458 531.578,133.791 528.5,131.5C 529.791,130.473 529.791,129.473 528.5,128.5 Z"/></g>
<g><path style="opacity:1" fill="#131a00" d="M 502.5,142.5 C 501.91,143.766 501.41,145.099 501,146.5C 500.283,145.956 499.783,145.289 499.5,144.5C 500.222,143.449 501.222,142.782 502.5,142.5 Z"/></g>
<g><path style="opacity:1" fill="#2a2603" d="M 518.5,140.5 C 519.391,141.11 520.391,141.443 521.5,141.5C 521.762,142.978 521.429,144.311 520.5,145.5C 518.783,144.332 518.116,142.665 518.5,140.5 Z"/></g>
<g><path style="opacity:1" fill="#dd200f" d="M 384.5,172.5 C 413.167,172.5 441.833,172.5 470.5,172.5C 470.5,274.833 470.5,377.167 470.5,479.5C 441.833,479.5 413.167,479.5 384.5,479.5C 384.5,377.167 384.5,274.833 384.5,172.5 Z"/></g>
<g><path style="opacity:1" fill="#000000" d="M 470.5,172.5 C 498.5,172.5 526.5,172.5 554.5,172.5C 554.5,274.833 554.5,377.167 554.5,479.5C 526.5,479.5 498.5,479.5 470.5,479.5C 470.5,377.167 470.5,274.833 470.5,172.5 Z"/></g>
<g><path style="opacity:1" fill="#404502" d="M 384.5,172.5 C 469.332,171.501 554.332,171.167 639.5,171.5C 639.5,171.833 639.5,172.167 639.5,172.5C 611.5,172.5 583.5,172.5 555.5,172.5C 555.5,274.833 555.5,377.167 555.5,479.5C 555.167,479.5 554.833,479.5 554.5,479.5C 554.5,377.167 554.5,274.833 554.5,172.5C 526.5,172.5 498.5,172.5 470.5,172.5C 441.833,172.5 413.167,172.5 384.5,172.5 Z"/></g>
<g><path style="opacity:1" fill="#ee7d00" d="M 639.5,172.5 C 639.5,274.833 639.5,377.167 639.5,479.5C 611.5,479.5 583.5,479.5 555.5,479.5C 555.5,377.167 555.5,274.833 555.5,172.5C 583.5,172.5 611.5,172.5 639.5,172.5 Z"/></g>
</svg>
