<?xml version="1.0" encoding="UTF-8"?>
<!DOCTYPE svg PUBLIC "-//W3C//DTD SVG 1.1//EN" "http://www.w3.org/Graphics/SVG/1.1/DTD/svg11.dtd">
<svg xmlns="http://www.w3.org/2000/svg" version="1.1" width="640px" height="480px" style="shape-rendering:geometricPrecision; text-rendering:geometricPrecision; image-rendering:optimizeQuality; fill-rule:evenodd; clip-rule:evenodd" xmlns:xlink="http://www.w3.org/1999/xlink">
<g><path style="opacity:1" fill="#010101" d="M -0.5,-0.5 C 5.5,-0.5 11.5,-0.5 17.5,-0.5C 48.2846,22.3991 79.2846,45.0658 110.5,67.5C 110.833,68.5 111.5,69.1667 112.5,69.5C 143.167,91.8333 173.833,114.167 204.5,136.5C 235.599,159.084 266.599,181.917 297.5,205C 411.5,205.5 525.5,205.667 639.5,205.5C 639.5,228.167 639.5,250.833 639.5,273.5C 525.5,273.333 411.5,273.5 297.5,274C 266.432,296.854 235.432,319.688 204.5,342.5C 172.93,364.445 141.93,387.112 111.5,410.5C 79.7733,433.023 48.44,456.023 17.5,479.5C 11.5,479.5 5.5,479.5 -0.5,479.5C -0.5,478.833 -0.5,478.167 -0.5,477.5C 108.019,398.408 216.353,319.075 324.5,239.5C 216.708,159.436 108.374,80.1029 -0.5,1.5C -0.5,0.833333 -0.5,0.166667 -0.5,-0.5 Z"/></g>
<g><path style="opacity:1" fill="#006300" d="M 17.5,-0.5 C 224.833,-0.5 432.167,-0.5 639.5,-0.5C 639.5,22.1667 639.5,44.8333 639.5,67.5C 463.167,67.5 286.833,67.5 110.5,67.5C 79.2846,45.0658 48.2846,22.3991 17.5,-0.5 Z"/></g>
<g><path style="opacity:1" fill="#fefefe" d="M -0.5,1.5 C 108.374,80.1029 216.708,159.436 324.5,239.5C 216.353,319.075 108.019,398.408 -0.5,477.5C -0.5,318.833 -0.5,160.167 -0.5,1.5 Z"/></g>
<g><path style="opacity:1" fill="#879e00" d="M 110.5,67.5 C 286.833,67.5 463.167,67.5 639.5,67.5C 639.5,67.8333 639.5,68.1667 639.5,68.5C 463.666,68.167 287.999,68.5003 112.5,69.5C 111.5,69.1667 110.833,68.5 110.5,67.5 Z"/></g>
<g><path style="opacity:1" fill="#fed100" d="M 112.5,69.5 C 287.999,68.5003 463.666,68.167 639.5,68.5C 639.5,91.1667 639.5,113.833 639.5,136.5C 494.5,136.5 349.5,136.5 204.5,136.5C 173.833,114.167 143.167,91.8333 112.5,69.5 Z"/></g>
<g><path style="opacity:1" fill="#d30301" d="M 146.5,192.5 C 172.833,193.167 199.167,193.833 225.5,194.5C 208.129,206.846 190.796,219.179 173.5,231.5C 172.833,231.5 172.167,231.5 171.5,231.5C 170.415,229.413 168.749,228.08 166.5,227.5C 165.738,225.738 164.404,224.738 162.5,224.5C 161.415,222.413 159.749,221.08 157.5,220.5C 156.738,218.738 155.404,217.738 153.5,217.5C 152.738,215.738 151.404,214.738 149.5,214.5C 148.415,212.413 146.749,211.08 144.5,210.5C 143.738,208.738 142.404,207.738 140.5,207.5C 139.738,205.738 138.404,204.738 136.5,204.5C 133.399,201.067 129.732,198.4 125.5,196.5C 125.027,195.094 124.027,194.427 122.5,194.5C 121.452,192.466 119.786,191.133 117.5,190.5C 116.216,182.795 114.716,175.128 113,167.5C 112.252,165.249 110.752,163.916 108.5,163.5C 108.5,162.833 108.167,162.5 107.5,162.5C 112.029,148.079 116.863,133.746 122,119.5C 130.471,143.746 138.637,168.079 146.5,192.5 Z"/></g>
<g><path style="opacity:1" fill="#d20000" d="M 204.5,136.5 C 349.5,136.5 494.5,136.5 639.5,136.5C 639.5,159.5 639.5,182.5 639.5,205.5C 525.5,205.667 411.5,205.5 297.5,205C 266.599,181.917 235.599,159.084 204.5,136.5 Z"/></g>
<g><path style="opacity:1" fill="#302d23" d="M 104.5,162.5 C 101.43,162.368 98.4299,162.701 95.5,163.5C 95.6107,162.883 95.944,162.383 96.5,162C 99.367,161.199 102.034,161.366 104.5,162.5 Z"/></g>
<g><path style="opacity:1" fill="#f8c600" d="M 104.5,162.5 C 105.5,162.5 106.5,162.5 107.5,162.5C 108.167,162.5 108.5,162.833 108.5,163.5C 109.836,165.01 111.003,166.677 112,168.5C 113.847,175.76 114.847,183.094 115,190.5C 109.011,194.823 103.678,199.823 99,205.5C 98.8297,196.324 98.3297,187.324 97.5,178.5C 97.5,177.833 97.1667,177.5 96.5,177.5C 96.1583,176.662 95.4916,176.328 94.5,176.5C 93.3646,174.787 91.698,174.12 89.5,174.5C 91.556,173.801 93.556,172.801 95.5,171.5C 95.2907,170.914 94.9574,170.414 94.5,170C 91.5,169.667 88.5,169.333 85.5,169C 86.2524,168.329 86.5858,167.496 86.5,166.5C 89.8112,166.117 92.8112,165.117 95.5,163.5C 98.4299,162.701 101.43,162.368 104.5,162.5 Z"/></g>
<g><path style="opacity:1" fill="#403719" d="M 95.5,163.5 C 92.8112,165.117 89.8112,166.117 86.5,166.5C 89.0076,164.446 92.0076,163.446 95.5,163.5 Z"/></g>
<g><path style="opacity:1" fill="#5f4c01" d="M 101.5,168.5 C 100.833,165.833 100.167,165.833 99.5,168.5C 98.596,167.791 98.2627,166.791 98.5,165.5C 99.8333,165.5 101.167,165.5 102.5,165.5C 102.737,166.791 102.404,167.791 101.5,168.5 Z"/></g>
<g><path style="opacity:1" fill="#bd9708" d="M 101.5,168.5 C 100.833,169.833 100.167,169.833 99.5,168.5C 100.167,165.833 100.833,165.833 101.5,168.5 Z"/></g>
<g><path style="opacity:1" fill="#2a2414" d="M 86.5,166.5 C 86.5858,167.496 86.2524,168.329 85.5,169C 88.5,169.333 91.5,169.667 94.5,170C 94.9574,170.414 95.2907,170.914 95.5,171.5C 93.556,172.801 91.556,173.801 89.5,174.5C 88.9569,174.44 88.6236,174.107 88.5,173.5C 90.2744,172.813 91.9411,171.98 93.5,171C 90.5184,170.502 87.5184,170.335 84.5,170.5C 84.2291,168.62 84.8958,167.287 86.5,166.5 Z"/></g>
<g><path style="opacity:1" fill="#715e22" d="M 89.5,174.5 C 91.698,174.12 93.3646,174.787 94.5,176.5C 92.4471,176.598 90.7804,175.931 89.5,174.5 Z"/></g>
<g><path style="opacity:1" fill="#e0a2a0" d="M 96.5,177.5 C 97.1667,177.5 97.5,177.833 97.5,178.5C 97.8205,183.695 97.4872,188.695 96.5,193.5C 70.328,193.169 44.328,193.502 18.5,194.5C 17.9569,194.44 17.6236,194.107 17.5,193.5C 43.8249,192.5 70.1582,192.167 96.5,192.5C 96.5,187.5 96.5,182.5 96.5,177.5 Z"/></g>
<g><path style="opacity:1" fill="#f8c700" d="M 122.5,194.5 C 122.973,195.906 123.973,196.573 125.5,196.5C 128.601,199.933 132.268,202.6 136.5,204.5C 137.262,206.262 138.596,207.262 140.5,207.5C 141.262,209.262 142.596,210.262 144.5,210.5C 145.585,212.587 147.251,213.92 149.5,214.5C 150.262,216.262 151.596,217.262 153.5,217.5C 154.262,219.262 155.596,220.262 157.5,220.5C 158.585,222.587 160.251,223.92 162.5,224.5C 163.262,226.262 164.596,227.262 166.5,227.5C 167.585,229.587 169.251,230.92 171.5,231.5C 172.585,233.587 174.251,234.92 176.5,235.5C 178.137,237.124 177.803,238.124 175.5,238.5C 166.082,235.527 156.582,232.861 147,230.5C 146.235,230.57 145.735,230.903 145.5,231.5C 144.887,229.957 143.221,228.957 140.5,228.5C 131.024,226.175 121.691,223.342 112.5,220C 111.056,218.874 110.39,217.374 110.5,215.5C 113.163,207.688 112.496,207.522 108.5,215C 108.934,217.316 109.934,219.316 111.5,221C 118.761,223.809 126.094,226.309 133.5,228.5C 133.908,234.423 131.241,238.09 125.5,239.5C 123.692,239.491 122.025,239.991 120.5,241C 116.099,244.188 111.766,247.355 107.5,250.5C 105.181,250.992 103.181,251.992 101.5,253.5C 99.9826,253.511 98.8159,254.177 98,255.5C 96.5505,263.297 95.5505,263.297 95,255.5C 94.51,256.793 94.3433,258.127 94.5,259.5C 93.6981,258.048 93.1981,256.382 93,254.5C 92.6174,255.056 92.1174,255.389 91.5,255.5C 91.5465,252.072 92.7132,249.072 95,246.5C 101.446,241.892 106.613,236.226 110.5,229.5C 111.797,227.307 111.797,224.973 110.5,222.5C 109.893,222.624 109.56,222.957 109.5,223.5C 109.663,225.857 109.497,228.19 109,230.5C 103.31,237.188 97.3099,243.522 91,249.5C 90.4954,251.518 89.9954,253.518 89.5,255.5C 89.1667,255.5 88.8333,255.5 88.5,255.5C 88.4621,253.364 87.7954,252.031 86.5,251.5C 86.5,251.167 86.5,250.833 86.5,250.5C 87.7384,248.786 88.405,246.786 88.5,244.5C 89.3382,244.158 89.6716,243.492 89.5,242.5C 91.2624,241.738 92.2624,240.404 92.5,238.5C 95.0016,236.83 97.0016,234.664 98.5,232C 94.0763,223.219 94.5763,214.719 100,206.5C 104.61,200.281 110.444,195.615 117.5,192.5C 119.177,193.187 120.844,193.854 122.5,194.5 Z"/></g>
<g><path style="opacity:1" fill="#f0a8a8" d="M 146.5,192.5 C 173.502,192.333 200.502,192.5 227.5,193C 226.956,193.717 226.289,194.217 225.5,194.5C 199.167,193.833 172.833,193.167 146.5,192.5 Z"/></g>
<g><path style="opacity:1" fill="#d30402" d="M 18.5,194.5 C 44.328,193.502 70.328,193.169 96.5,193.5C 96.8652,202.269 96.1985,210.936 94.5,219.5C 94.7667,223.401 95.4334,227.234 96.5,231C 95.3745,233.622 94.0412,236.122 92.5,238.5C 90.7376,239.262 89.7376,240.596 89.5,242.5C 89.6716,243.492 89.3382,244.158 88.5,244.5C 86.9261,246.102 86.2594,248.102 86.5,250.5C 86.5,250.833 86.5,251.167 86.5,251.5C 85.8826,251.611 85.3826,251.944 85,252.5C 84.3333,254.833 84.3333,257.167 85,259.5C 86.8409,264.23 88.6743,268.897 90.5,273.5C 90.5,273.833 90.5,274.167 90.5,274.5C 91.1667,279.167 91.8333,283.833 92.5,288.5C 81.1179,296.946 69.6179,305.28 58,313.5C 65.1976,288.903 73.0309,264.403 81.5,240C 60.9586,224.306 39.9586,209.139 18.5,194.5 Z"/></g>
<g><path style="opacity:1" fill="#3b1402" d="M 122.5,194.5 C 124.027,194.427 125.027,195.094 125.5,196.5C 123.973,196.573 122.973,195.906 122.5,194.5 Z"/></g>
<g><path style="opacity:1" fill="#3e1703" d="M 125.5,196.5 C 129.732,198.4 133.399,201.067 136.5,204.5C 132.268,202.6 128.601,199.933 125.5,196.5 Z"/></g>
<g><path style="opacity:1" fill="#3b1f04" d="M 108.5,163.5 C 110.752,163.916 112.252,165.249 113,167.5C 114.716,175.128 116.216,182.795 117.5,190.5C 119.786,191.133 121.452,192.466 122.5,194.5C 120.844,193.854 119.177,193.187 117.5,192.5C 110.444,195.615 104.61,200.281 100,206.5C 94.5763,214.719 94.0763,223.219 98.5,232C 97.0016,234.664 95.0016,236.83 92.5,238.5C 94.0412,236.122 95.3745,233.622 96.5,231C 95.4334,227.234 94.7667,223.401 94.5,219.5C 96.1985,210.936 96.8652,202.269 96.5,193.5C 97.4872,188.695 97.8205,183.695 97.5,178.5C 98.3297,187.324 98.8297,196.324 99,205.5C 103.678,199.823 109.011,194.823 115,190.5C 114.847,183.094 113.847,175.76 112,168.5C 111.003,166.677 109.836,165.01 108.5,163.5 Z"/></g>
<g><path style="opacity:1" fill="#320f00" d="M 136.5,204.5 C 138.404,204.738 139.738,205.738 140.5,207.5C 138.596,207.262 137.262,206.262 136.5,204.5 Z"/></g>
<g><path style="opacity:1" fill="#381100" d="M 140.5,207.5 C 142.404,207.738 143.738,208.738 144.5,210.5C 142.596,210.262 141.262,209.262 140.5,207.5 Z"/></g>
<g><path style="opacity:1" fill="#491e04" d="M 144.5,210.5 C 146.749,211.08 148.415,212.413 149.5,214.5C 147.251,213.92 145.585,212.587 144.5,210.5 Z"/></g>
<g><path style="opacity:1" fill="#441f03" d="M 149.5,214.5 C 151.404,214.738 152.738,215.738 153.5,217.5C 151.596,217.262 150.262,216.262 149.5,214.5 Z"/></g>
<g><path style="opacity:1" fill="#251e05" d="M 140.5,228.5 C 140.5,229.5 140.5,230.5 140.5,231.5C 136.107,231.457 135.774,231.957 139.5,233C 137.463,235.002 135.796,234.668 134.5,232C 137.457,229.816 137.123,228.649 133.5,228.5C 126.094,226.309 118.761,223.809 111.5,221C 109.934,219.316 108.934,217.316 108.5,215C 112.496,207.522 113.163,207.688 110.5,215.5C 110.39,217.374 111.056,218.874 112.5,220C 121.691,223.342 131.024,226.175 140.5,228.5 Z"/></g>
<g><path style="opacity:1" fill="#421c02" d="M 153.5,217.5 C 155.404,217.738 156.738,218.738 157.5,220.5C 155.596,220.262 154.262,219.262 153.5,217.5 Z"/></g>
<g><path style="opacity:1" fill="#432003" d="M 157.5,220.5 C 159.749,221.08 161.415,222.413 162.5,224.5C 160.251,223.92 158.585,222.587 157.5,220.5 Z"/></g>
<g><path style="opacity:1" fill="#8f7200" d="M 109.5,223.5 C 109.56,222.957 109.893,222.624 110.5,222.5C 111.797,224.973 111.797,227.307 110.5,229.5C 110.795,227.265 110.461,225.265 109.5,223.5 Z"/></g>
<g><path style="opacity:1" fill="#371902" d="M 162.5,224.5 C 164.404,224.738 165.738,225.738 166.5,227.5C 164.596,227.262 163.262,226.262 162.5,224.5 Z"/></g>
<g><path style="opacity:1" fill="#3d1903" d="M 166.5,227.5 C 168.749,228.08 170.415,229.413 171.5,231.5C 169.251,230.92 167.585,229.587 166.5,227.5 Z"/></g>
<g><path style="opacity:1" fill="#40382b" d="M 171.5,231.5 C 172.167,231.5 172.833,231.5 173.5,231.5C 174.5,232.833 175.5,234.167 176.5,235.5C 174.251,234.92 172.585,233.587 171.5,231.5 Z"/></g>
<g><path style="opacity:1" fill="#2f2608" d="M 109.5,223.5 C 110.461,225.265 110.795,227.265 110.5,229.5C 106.613,236.226 101.446,241.892 95,246.5C 92.7132,249.072 91.5465,252.072 91.5,255.5C 90.6043,256.506 89.9377,256.506 89.5,255.5C 89.9954,253.518 90.4954,251.518 91,249.5C 97.3099,243.522 103.31,237.188 109,230.5C 109.497,228.19 109.663,225.857 109.5,223.5 Z"/></g>
<g><path style="opacity:1" fill="#f5c400" d="M 165.5,241.5 C 164.662,241.842 164.328,242.508 164.5,243.5C 163.163,244.315 162.163,245.482 161.5,247C 160.667,247.167 159.833,247.333 159,247.5C 146.531,245.172 134.031,243.338 121.5,242C 123.154,241.392 124.821,240.892 126.5,240.5C 132.225,238.074 138.225,236.741 144.5,236.5C 146.461,235.54 148.127,234.207 149.5,232.5C 154.833,234.167 160.167,235.833 165.5,237.5C 166.292,238.7 166.292,240.033 165.5,241.5 Z"/></g>
<g><path style="opacity:1" fill="#312911" d="M 145.5,231.5 C 145.735,230.903 146.235,230.57 147,230.5C 156.582,232.861 166.082,235.527 175.5,238.5C 177.803,238.124 178.137,237.124 176.5,235.5C 178.176,236.183 178.843,237.517 178.5,239.5C 175.626,239.549 172.792,239.216 170,238.5C 168.107,239.008 166.607,240.008 165.5,241.5C 166.292,240.033 166.292,238.7 165.5,237.5C 160.167,235.833 154.833,234.167 149.5,232.5C 148.127,234.207 146.461,235.54 144.5,236.5C 144.904,235.244 145.571,234.077 146.5,233C 146.43,232.235 146.097,231.735 145.5,231.5 Z"/></g>
<g><path style="opacity:1" fill="#453707" d="M 133.5,228.5 C 137.123,228.649 137.457,229.816 134.5,232C 135.796,234.668 137.463,235.002 139.5,233C 135.774,231.957 136.107,231.457 140.5,231.5C 140.5,230.5 140.5,229.5 140.5,228.5C 143.221,228.957 144.887,229.957 145.5,231.5C 146.097,231.735 146.43,232.235 146.5,233C 145.571,234.077 144.904,235.244 144.5,236.5C 138.225,236.741 132.225,238.074 126.5,240.5C 126.5,239.833 126.167,239.5 125.5,239.5C 131.241,238.09 133.908,234.423 133.5,228.5 Z"/></g>
<g><path style="opacity:1" fill="#4e3308" d="M 92.5,238.5 C 92.2624,240.404 91.2624,241.738 89.5,242.5C 89.7376,240.596 90.7376,239.262 92.5,238.5 Z"/></g>
<g><path style="opacity:1" fill="#f4c301" d="M 160.5,251.5 C 158.399,254.797 157.065,258.463 156.5,262.5C 137.169,261.198 117.836,261.198 98.5,262.5C 98.7409,259.185 99.7409,256.185 101.5,253.5C 103.181,251.992 105.181,250.992 107.5,250.5C 111.261,249.453 114.594,247.619 117.5,245C 119.667,244.833 121.833,244.667 124,244.5C 136.22,245.465 148.387,246.799 160.5,248.5C 160.5,249.5 160.5,250.5 160.5,251.5 Z"/></g>
<g><path style="opacity:1" fill="#292005" d="M 125.5,239.5 C 126.167,239.5 126.5,239.833 126.5,240.5C 124.821,240.892 123.154,241.392 121.5,242C 134.031,243.338 146.531,245.172 159,247.5C 159.833,247.333 160.667,247.167 161.5,247C 162.163,245.482 163.163,244.315 164.5,243.5C 164.5,244.167 164.5,244.833 164.5,245.5C 163.167,247.5 161.833,249.5 160.5,251.5C 160.5,250.5 160.5,249.5 160.5,248.5C 148.387,246.799 136.22,245.465 124,244.5C 121.833,244.667 119.667,244.833 117.5,245C 114.594,247.619 111.261,249.453 107.5,250.5C 111.766,247.355 116.099,244.188 120.5,241C 122.025,239.991 123.692,239.491 125.5,239.5 Z"/></g>
<g><path style="opacity:1" fill="#2a1a02" d="M 88.5,244.5 C 88.405,246.786 87.7384,248.786 86.5,250.5C 86.2594,248.102 86.9261,246.102 88.5,244.5 Z"/></g>
<g><path style="opacity:1" fill="#d30603" d="M 164.5,245.5 C 171.628,267.55 178.961,289.55 186.5,311.5C 185.998,312.521 185.332,312.688 184.5,312C 174.457,304.321 164.124,297.154 153.5,290.5C 154.423,286.936 154.756,283.269 154.5,279.5C 154.5,276.833 154.5,274.167 154.5,271.5C 156.79,265.024 158.79,258.357 160.5,251.5C 161.833,249.5 163.167,247.5 164.5,245.5 Z"/></g>
<g><path style="opacity:1" fill="#2b2205" d="M 115.5,256.5 C 113.181,249.999 115.514,247.166 122.5,248C 126.5,251.667 126.5,255.333 122.5,259C 119.306,260.081 116.973,259.247 115.5,256.5 Z"/></g>
<g><path style="opacity:1" fill="#f4c300" d="M 115.5,256.5 C 115.331,249.514 118.164,247.847 124,251.5C 124,258.002 121.166,259.668 115.5,256.5 Z"/></g>
<g><path style="opacity:1" fill="#3b2f06" d="M 140.5,248.5 C 148.744,248.228 151.078,251.728 147.5,259C 142.023,261.595 138.689,259.928 137.5,254C 137.863,251.808 138.863,249.974 140.5,248.5 Z"/></g>
<g><path style="opacity:1" fill="#f4c300" d="M 141.5,249.5 C 147.263,249.783 148.93,252.616 146.5,258C 139.237,258.821 137.571,255.988 141.5,249.5 Z"/></g>
<g><path style="opacity:1" fill="#f3c200" d="M 93.5,288.5 C 93.7349,283.454 92.7349,278.787 90.5,274.5C 90.5,274.167 90.5,273.833 90.5,273.5C 90.4618,270.049 89.7951,266.716 88.5,263.5C 88.8333,262.833 89.1667,262.167 89.5,261.5C 94.5636,262.236 97.397,265.236 98,270.5C 99.6397,276.056 100.473,281.722 100.5,287.5C 98.139,287.674 95.8056,288.007 93.5,288.5 Z"/></g>
<g><path style="opacity:1" fill="#1e1705" d="M 86.5,251.5 C 87.7954,252.031 88.4621,253.364 88.5,255.5C 87.4265,256.251 87.2599,257.251 88,258.5C 88.3333,258.167 88.6667,257.833 89,257.5C 90.8033,261.512 91.8033,261.178 92,256.5C 92.2189,257.938 92.7189,259.271 93.5,260.5C 94.1067,260.376 94.44,260.043 94.5,259.5C 94.3433,258.127 94.51,256.793 95,255.5C 95.5505,263.297 96.5505,263.297 98,255.5C 98.8159,254.177 99.9826,253.511 101.5,253.5C 99.7409,256.185 98.7409,259.185 98.5,262.5C 117.836,261.198 137.169,261.198 156.5,262.5C 157.065,258.463 158.399,254.797 160.5,251.5C 158.79,258.357 156.79,265.024 154.5,271.5C 154.5,274.167 154.5,276.833 154.5,279.5C 153.833,279.167 153.167,278.833 152.5,278.5C 147.87,277.771 143.203,277.437 138.5,277.5C 138.5,276.833 138.5,276.167 138.5,275.5C 137.095,271.905 135.428,271.738 133.5,275C 134.793,275.49 136.127,275.657 137.5,275.5C 128.167,276.167 118.833,276.833 109.5,277.5C 106.881,277.232 104.381,277.565 102,278.5C 101.57,281.192 101.737,283.859 102.5,286.5C 104.833,286.5 107.167,286.5 109.5,286.5C 112.059,286.198 114.393,286.532 116.5,287.5C 109.559,287.15 102.726,287.817 96,289.5C 94.9302,289.472 94.0968,289.139 93.5,288.5C 95.8056,288.007 98.139,287.674 100.5,287.5C 100.473,281.722 99.6397,276.056 98,270.5C 97.397,265.236 94.5636,262.236 89.5,261.5C 89.1667,262.167 88.8333,262.833 88.5,263.5C 89.7951,266.716 90.4618,270.049 90.5,273.5C 88.6743,268.897 86.8409,264.23 85,259.5C 84.3333,257.167 84.3333,254.833 85,252.5C 85.3826,251.944 85.8826,251.611 86.5,251.5 Z"/></g>
<g><path style="opacity:1" fill="#e8ba00" d="M 110.5,268.5 C 124.504,268.333 138.504,268.5 152.5,269C 153.756,269.417 154.423,270.25 154.5,271.5C 136.155,270.385 117.822,270.219 99.5,271C 100.905,269.731 102.571,269.231 104.5,269.5C 106.735,269.795 108.735,269.461 110.5,268.5 Z"/></g>
<g><path style="opacity:1" fill="#6b5601" d="M 103.5,268.5 C 104.209,267.596 105.209,267.263 106.5,267.5C 107.568,268.434 108.901,268.768 110.5,268.5C 108.735,269.461 106.735,269.795 104.5,269.5C 104.5,268.833 104.167,268.5 103.5,268.5 Z"/></g>
<g><path style="opacity:1" fill="#c09a00" d="M 125.5,263.5 C 126.995,263.415 127.995,264.081 128.5,265.5C 126.926,266.631 125.259,266.798 123.5,266C 124.381,265.292 125.047,264.458 125.5,263.5 Z"/></g>
<g><path style="opacity:1" fill="#deb200" d="M 106.5,267.5 C 105.209,267.263 104.209,267.596 103.5,268.5C 102.761,268.631 102.094,268.464 101.5,268C 103.552,264.101 105.886,263.768 108.5,267C 107.906,267.464 107.239,267.631 106.5,267.5 Z"/></g>
<g><path style="opacity:1" fill="#e4b600" d="M 98.5,264.5 C 101.957,264.667 102.29,265.667 99.5,267.5C 98.6143,266.675 98.281,265.675 98.5,264.5 Z"/></g>
<g><path style="opacity:1" fill="#cda400" d="M 148.5,264.5 C 150.628,263.371 152.961,263.204 155.5,264C 153.326,267.121 150.993,267.288 148.5,264.5 Z"/></g>
<g><path style="opacity:1" fill="#cba200" d="M 144.5,264.5 C 146.681,264.284 148.347,265.117 149.5,267C 147.421,267.808 145.421,267.641 143.5,266.5C 143.863,265.817 144.196,265.15 144.5,264.5 Z"/></g>
<g><path style="opacity:1" fill="#d4aa01" d="M 138.5,262.5 C 139.873,262.343 141.207,262.51 142.5,263C 143.833,263.667 143.833,264.333 142.5,265C 139.594,266.318 136.594,266.652 133.5,266C 134.629,263.832 136.129,263.332 138,264.5C 138.464,263.906 138.631,263.239 138.5,262.5 Z"/></g>
<g><path style="opacity:1" fill="#bd9700" d="M 114.5,263.5 C 116.2,264.016 117.533,265.016 118.5,266.5C 116.5,267.833 114.5,267.833 112.5,266.5C 113.193,265.482 113.859,264.482 114.5,263.5 Z"/></g>
<g><path style="opacity:1" fill="#deb200" d="M 118.5,262.5 C 120.527,262.338 122.527,262.505 124.5,263C 121.931,266.509 119.931,266.343 118.5,262.5 Z"/></g>
<g><path style="opacity:1" fill="#e2b500" d="M 107.5,264.5 C 108.946,263.387 110.613,263.22 112.5,264C 111.178,267.02 109.511,267.187 107.5,264.5 Z"/></g>
<g><path style="opacity:1" fill="#bd9700" d="M 128.5,263.5 C 130.288,262.378 132.288,262.211 134.5,263C 132.663,266.102 130.663,266.269 128.5,263.5 Z"/></g>
<g><path style="opacity:1" fill="#6e5800" d="M 94.5,259.5 C 94.44,260.043 94.1067,260.376 93.5,260.5C 92.7189,259.271 92.2189,257.938 92,256.5C 91.8033,261.178 90.8033,261.512 89,257.5C 88.6667,257.833 88.3333,258.167 88,258.5C 87.2599,257.251 87.4265,256.251 88.5,255.5C 88.8333,255.5 89.1667,255.5 89.5,255.5C 89.9377,256.506 90.6043,256.506 91.5,255.5C 92.1174,255.389 92.6174,255.056 93,254.5C 93.1981,256.382 93.6981,258.048 94.5,259.5 Z"/></g>
<g><path style="opacity:1" fill="#c8a000" d="M 128.5,272.5 C 130.288,271.378 132.288,271.211 134.5,272C 132.663,275.102 130.663,275.269 128.5,272.5 Z"/></g>
<g><path style="opacity:1" fill="#deb100" d="M 108.5,273.5 C 109.708,272.218 111.042,272.218 112.5,273.5C 111.375,275.794 110.041,275.794 108.5,273.5 Z"/></g>
<g><path style="opacity:1" fill="#d2a800" d="M 125.5,271.5 C 126.812,272.145 127.812,273.145 128.5,274.5C 122.555,276.444 121.555,275.444 125.5,271.5 Z"/></g>
<g><path style="opacity:1" fill="#f3c200" d="M 143.5,274.5 C 141.897,274.688 140.563,274.188 139.5,273C 141.463,272.156 142.796,272.656 143.5,274.5 Z"/></g>
<g><path style="opacity:1" fill="#e0b300" d="M 114.5,272.5 C 120.059,275.043 119.726,275.877 113.5,275C 114.252,274.329 114.586,273.496 114.5,272.5 Z"/></g>
<g><path style="opacity:1" fill="#d1a700" d="M 118.5,271.5 C 123.719,270.907 124.386,271.907 120.5,274.5C 119.081,273.995 118.415,272.995 118.5,271.5 Z"/></g>
<g><path style="opacity:1" fill="#e9bb00" d="M 138.5,275.5 C 138.167,275.5 137.833,275.5 137.5,275.5C 136.127,275.657 134.793,275.49 133.5,275C 135.428,271.738 137.095,271.905 138.5,275.5 Z"/></g>
<g><path style="opacity:1" fill="#e1b400" d="M 148.5,273.5 C 152.97,273.03 153.47,274.03 150,276.5C 148.961,275.756 148.461,274.756 148.5,273.5 Z"/></g>
<g><path style="opacity:1" fill="#6f590a" d="M 104.5,274.5 C 104.167,275.167 103.833,275.833 103.5,276.5C 100.226,275.621 99.8925,274.288 102.5,272.5C 103.182,273.243 103.849,273.909 104.5,274.5 Z"/></g>
<g><path style="opacity:1" fill="#daae00" d="M 143.5,274.5 C 144.978,274.238 146.311,274.571 147.5,275.5C 146.833,275.833 146.167,276.167 145.5,276.5C 144.287,276.253 143.62,275.586 143.5,274.5 Z"/></g>
<g><path style="opacity:1" fill="#d30200" d="M 639.5,273.5 C 639.5,296.5 639.5,319.5 639.5,342.5C 494.5,342.5 349.5,342.5 204.5,342.5C 235.432,319.688 266.432,296.854 297.5,274C 411.5,273.5 525.5,273.333 639.5,273.5 Z"/></g>
<g><path style="opacity:1" fill="#ddb100" d="M 103.5,276.5 C 103.833,275.833 104.167,275.167 104.5,274.5C 105.743,273.263 106.743,273.596 107.5,275.5C 106.311,276.429 104.978,276.762 103.5,276.5 Z"/></g>
<g><path style="opacity:1" fill="#836901" d="M 137.5,275.5 C 137.833,275.5 138.167,275.5 138.5,275.5C 138.5,276.167 138.5,276.833 138.5,277.5C 128.833,277.5 119.167,277.5 109.5,277.5C 118.833,276.833 128.167,276.167 137.5,275.5 Z"/></g>
<g><path style="opacity:1" fill="#fac800" d="M 109.5,277.5 C 119.167,277.5 128.833,277.5 138.5,277.5C 143.203,277.437 147.87,277.771 152.5,278.5C 152.5,281.833 152.5,285.167 152.5,288.5C 145.812,287.902 139.146,287.069 132.5,286C 124.655,285.178 116.989,285.344 109.5,286.5C 107.167,286.5 104.833,286.5 102.5,286.5C 101.737,283.859 101.57,281.192 102,278.5C 104.381,277.565 106.881,277.232 109.5,277.5 Z"/></g>
<g><path style="opacity:1" fill="#4d2405" d="M 90.5,274.5 C 92.7349,278.787 93.7349,283.454 93.5,288.5C 93.1667,288.5 92.8333,288.5 92.5,288.5C 91.8333,283.833 91.1667,279.167 90.5,274.5 Z"/></g>
<g><path style="opacity:1" fill="#654f20" d="M 152.5,278.5 C 153.167,278.833 153.833,279.167 154.5,279.5C 154.756,283.269 154.423,286.936 153.5,290.5C 141.31,287.96 128.977,286.96 116.5,287.5C 114.393,286.532 112.059,286.198 109.5,286.5C 116.989,285.344 124.655,285.178 132.5,286C 139.146,287.069 145.812,287.902 152.5,288.5C 152.5,285.167 152.5,281.833 152.5,278.5 Z"/></g>
<g><path style="opacity:1" fill="#fed100" d="M 204.5,342.5 C 349.5,342.5 494.5,342.5 639.5,342.5C 639.5,365.167 639.5,387.833 639.5,410.5C 463.5,410.5 287.5,410.5 111.5,410.5C 141.93,387.112 172.93,364.445 204.5,342.5 Z"/></g>
<g><path style="opacity:0.997" fill="#016400" d="M 111.5,410.5 C 287.5,410.5 463.5,410.5 639.5,410.5C 639.5,433.5 639.5,456.5 639.5,479.5C 432.167,479.5 224.833,479.5 17.5,479.5C 48.44,456.023 79.7733,433.023 111.5,410.5 Z"/></g>
</svg>
